<?xml version="1.0" encoding="utf-8"?>
<!-- Generator: Adobe Illustrator 26.3.1, SVG Export Plug-In . SVG Version: 6.00 Build 0)  -->
<svg version="1.1" id="Layer_1" xmlns="http://www.w3.org/2000/svg" xmlns:xlink="http://www.w3.org/1999/xlink" x="0px" y="0px"
	 viewBox="0 0 595.3 595.3" style="enable-background:new 0 0 595.3 595.3;" xml:space="preserve">
<style type="text/css">
	.st0{fill:#173F4B;}
	.st1{fill:#EECB46;}
	.st2{fill:#183F4B;}
	.st3{fill:#F4F6F6;}
</style>
<path class="st0" d="M297.6,595.3L297.6,595.3C133.3,595.3,0,462,0,297.6l0,0C0,133.3,133.3,0,297.6,0l0,0
	C462,0,595.3,133.3,595.3,297.6l0,0C595.3,462,462,595.3,297.6,595.3z"/>
<g>
	<path class="st1" d="M375,137.3c-31,11.7-61.8,23.8-94.1,31.7c-18.8,4.6-37.8,7.7-56.9,10.5c-2,0.3-3.1-0.3-4.5-2.3
		c56.7-19.2,111.1-45,171.4-49.6c1.2,1.8,0.6,2.5,0,3.3c-22.1,25-42.5,51.5-63.7,77.3c-21.4,26.1-38.8,29.8-68.6,14.2
		c-3.8-2.4-6-4.5-18.7-11.5c-0.3-0.1-1.8-6.9-1.6-6.7c5.5,6.2,20.9,16.3,23.2,17c12.5,4,24-0.6,35-6.3c11.5-6,21.7-13.9,31-22.8
		c17.4-16.7,33.2-34.9,48.5-53.4c0.3-0.5,0.5-1,0.8-1.6C376.2,137.2,375.6,137.3,375,137.3z"/>
	<path class="st1" d="M250,216.1c-10-4.8-19.1-10.9-30-13.3c-3.2-0.7-6.1-12-4.2-14.6c2-2.8,3.8-0.7,5.3,0.5
		C231.7,196.9,240.6,206.7,250,216.1z"/>
	<path class="st2" d="M375,137.3c0.6,0,1.3-0.1,1.9-0.1c-0.3,0.5-0.5,1-0.8,1.6C375.7,138.3,375.3,137.8,375,137.3z"/>
	<path class="st3" d="M224.6,337.8c8.4-9.3,16.7-15.9,28.5-16.2c16.5-0.4,29.4,8,34.1,23.9c5.9,19.7,3.1,38-12.3,52.7
		c-13.3,12.7-33.6,12.6-46.4-0.1c-3-3-4.3-1.9-6.8,0.1c-3.2,2.5-5.9,8.5-10,6.4c-3.6-1.9-1.3-7.9-1.3-12c-0.1-37-0.1-73.9,0-110.9
		c0-2.3-2.3-7.7,3.5-6.2c3.8,1,11.5-4.8,11,6.2C224.1,299.8,224.6,318.1,224.6,337.8z M274.3,362.5c0-9-1.5-16-4.7-22.1
		c-7.7-14.6-29.5-16-37.7-1.7c-8.7,15.1-10.4,31.5-4,48.1c3.3,8.7,9.8,14.1,19.4,14.6c9.8,0.5,16.8-4.2,21.4-12.7
		C273,380.5,274.2,371.6,274.3,362.5z"/>
	<path class="st3" d="M322.9,336.2c7.7-7.7,15.6-14.6,27.4-14.7c17-0.2,29.5,8.4,34.2,24.7c5.5,19.3,2.5,37.1-12.2,51.5
		c-13.4,13.1-33.5,13-46.9,0.1c-3.3-3.2-4.5-1.3-6.8,0.4c-3.1,2.4-5.5,8-9.5,6.2c-4-1.7-1.6-7.3-1.6-11c-0.2-37.2-0.1-74.4,0-111.6
		c0-2.7-2.1-7.9,4.1-6.4c3.9,0.9,10.7-4.1,10.2,6.3c-0.9,17.8-0.1,35.8,0,53.6c0.1,0.6,0.1,1.3,0.2,1.9
		C322.3,336.8,322.6,336.5,322.9,336.2z M371.4,366.5c0.1-11.8-1.1-19.5-5-26.6c-7.8-14.2-29.2-15.4-37.4-1.4
		c-8.8,15.1-10.4,31.5-4.2,48.1c3.2,8.7,9.7,14.1,19.3,14.7c9.8,0.6,16.9-4.1,21.5-12.5C370,380.8,371.3,371.8,371.4,366.5z"/>
	<path class="st3" d="M451.1,396.2c-7.4,7.3-16.1,11.8-26.7,11.4c-16.7-0.6-26.4-14.2-21.7-30.2c2-6.9,7-10.5,13.3-12.8
		c7.5-2.7,15.4-3,23.2-4.3c13.1-2.2,17.2-13,9-23.6c-7.8-10-24.3-10.4-33.7-0.9c-1.4,1.5-1.9,3.9-4.8,4.6c-1.7-5.8-1.4-10.1,5.1-13
		c7.5-3.4,15.1-5.9,23.4-5.8c17.8,0.3,27.4,9.7,27.5,27.6c0.1,14.1,0.1,28.1,0,42.2c0,5,0.3,9.5,7.2,8.1c1.5-0.3,2.3,0.4,2.3,1.8
		c0,1.8-1.6,2.2-2.9,2.7C463.8,407.7,456.5,405,451.1,396.2z M451.5,376.2c0-3.3,0-6.7,0-10c0-1.6,0.3-3.7-2.4-3.2
		c-9.8,1.6-20,2.3-28.1,9.1c-5.8,5-7.1,13.7-3.4,20.2c3.5,6.1,11.3,8.9,18.6,6.8C447.5,395.8,451.5,389.6,451.5,376.2z"/>
	<path class="st3" d="M170.1,395.6c-7.8,7.8-16.4,12.2-27.1,11.8c-11.9-0.5-21-7.9-22.4-18.2c-1.7-13.3,3.5-21.3,16.5-25.3
		c6.7-2.1,13.6-2.3,20.4-3.5c5.3-0.9,10.8-2.1,12.7-7.8c2.1-6.4,0-12.3-4.4-17.2c-8.1-8.9-24.1-8.7-32.8,0.5
		c-1.3,1.4-2.3,2.9-4.3,5.4c-1.6-6.1-2.4-10.4,3.8-13.5c8.5-4.2,17.2-6.9,26.8-6.2c15.7,1.1,24.4,10.1,24.7,25.9
		c0.2,14.6,0.1,29.1,0,43.7c0,5,0.3,9.4,7.2,8.3c1.3-0.2,2.4-0.2,2.5,1.5c0.1,1.9-1.2,2.3-2.6,2.9
		C182.7,407.8,174.7,404.9,170.1,395.6z M170.4,376.1c0-3.3,0-6.7,0-10c0-1.8-0.2-3.5-2.7-3.1c-9.8,1.7-20,2.3-28,9.2
		c-5.5,4.8-6.8,13.2-3.5,19.6c3.3,6.3,11,9.4,18.3,7.4C165.9,396.1,170.4,389.5,170.4,376.1z"/>
	<path class="st3" d="M127.5,443.6c12.3-4.1,15.9-1.4,15.9,10.9c0,2.6,0,5.2,0,7.9c0,2.5,0.3,4.6-3.5,4.6c-3.5,0-3.9-1.6-3.8-4.3
		c0.1-3.1,0.2-6.2-0.2-9.3c-0.3-2.9,0.3-7-4.2-7c-4.3,0-4.1,3.8-4.2,6.9c-0.1,3.3-0.2,6.7,0,10c0.2,2.9-1.1,3.6-3.8,3.6
		c-2.8,0-3.7-0.9-3.7-3.7c0.1-10.5,0.1-21,0-31.4c0-2.4,0.3-4,3.4-4c3.5,0,3.9,1.6,3.8,4.4C127.4,435.8,127.5,439.3,127.5,443.6z"/>
	<path class="st3" d="M205.1,441.5c7.8,0,12.6,4.6,12.8,12.1c0.2,8.4-4.8,13.9-12.7,14c-7.9,0.1-12.8-4.9-12.7-12.9
		C192.6,446.6,197.4,441.6,205.1,441.5z M210.1,454.4c-0.8-3.7,1.1-9.6-4.3-9.9c-6.1-0.3-5,5.9-5.1,9.9c-0.1,3.9-0.9,9.8,4.1,10
		C210.9,464.7,209.1,458.3,210.1,454.4z"/>
	<path class="st3" d="M348.2,462.3c-4,6.2-11.5,6.7-16.4,2.5c-4.3-3.8-5.2-13.6-1.8-18.5c3.4-4.8,11.2-6.2,16-2.9
		c3.3,2.3,4.7,5.6,4,9.3c-0.8,3.9-4.3,1.5-6.5,2.1c-2.5,0.7-5.9-1.5-7.6,1.6c-0.9,1.6,0.4,3.7,1.5,5.3c2.3,2.9,5.3,2.7,8.5,1.7
		C346.7,463,347.5,462.6,348.2,462.3z M342.8,448.7c-0.4-1.3-0.1-4-3-4.2c-3.2-0.1-3.4,2.7-3.9,5c-0.5,2.7,1.6,2.4,3.2,2.4
		C340.8,451.9,343.2,452.6,342.8,448.7z"/>
	<path class="st3" d="M275.4,434c1.4,2.8-1.7,7.9,4.2,8.8c0.6,0.1,0.3,1.6-0.6,2.3c-6.6,5.1-2.5,11.8-2.4,17.9
		c0,0.8,2.2,1.5,3.4,2.2c-6.7,4-10.6,2.1-11.5-5.2c-0.7-5.4,2.8-11.8-3.2-16.2C269.4,441.3,267.5,433.3,275.4,434z"/>
	<path class="st3" d="M458.3,460.4c1.7,1.5,2.9,2.7,4.2,3.5c2.1,1.3,4.4,0.9,5.7-1.1c1.7-2.8-1-3.6-2.8-4.6
		c-1.5-0.8-3.1-1.3-4.5-2.1c-3.1-1.7-4.1-4.5-3.5-7.9c0.5-3.1,2.4-5.3,5.3-6.2c3.3-1,6.6-0.8,9.6,1.1c1.6,1,1.1,2.7,0.5,3.8
		c-1.2,2.1-2.1,0.5-3.1-0.5c-2-2.1-5-3.4-6.5-0.4c-1.8,3.6,2.1,4,4.3,4.9c5.1,2,8.2,5.1,6.5,10.9c-1.3,4.6-8,6.9-13.3,5.2
		C457.3,466,456.6,464.1,458.3,460.4z"/>
	<path class="st3" d="M407.5,446.9c0,5.5-0.1,10.9,0,16.4c0.1,2.8-1,3.6-3.8,3.6c-2.8,0-3.7-0.9-3.7-3.7c0.1-10.5,0.1-20.9,0-31.4
		c0-3.2,1.2-4,4.2-4c3.4-0.1,3.3,1.9,3.3,4.1C407.5,436.9,407.5,441.9,407.5,446.9z"/>
	<path class="st2" d="M322.9,336.2c-0.3,0.3-0.6,0.6-0.9,1c-0.1-0.6-0.1-1.3-0.2-1.9C322.2,335.5,322.6,335.8,322.9,336.2z"/>
</g>
</svg>
