<?xml version="1.0" encoding="utf-8"?>
<!-- Generator: Adobe Illustrator 26.3.1, SVG Export Plug-In . SVG Version: 6.00 Build 0)  -->
<svg version="1.1" id="Layer_1" xmlns="http://www.w3.org/2000/svg" xmlns:xlink="http://www.w3.org/1999/xlink" x="0px" y="0px"
	 viewBox="0 0 595.3 595.3" style="enable-background:new 0 0 595.3 595.3;" xml:space="preserve">
<style type="text/css">
	.st0{fill:#173F4B;}
	.st1{fill:#EECB46;}
</style>
<path class="st0" d="M297.6,595.3L297.6,595.3C133.3,595.3,0,462,0,297.6l0,0C0,133.3,133.3,0,297.6,0l0,0
	C462,0,595.3,133.3,595.3,297.6l0,0C595.3,462,462,595.3,297.6,595.3z"/>
<g>
	<path class="st1" d="M467.7,197.1c-73.6,27.8-146.8,56.5-223.5,75.3c-44.7,10.9-89.8,18.3-135.2,24.9c-4.8,0.7-7.4-0.7-10.7-5.5
		C233.1,246.3,362.3,185,505.5,174.1c2.9,4.3,1.4,5.9,0,7.8c-52.5,59.4-101,122.3-151.3,183.6c-50.8,62-92.2,70.8-163,33.7
		c-9-5.7-14.3-10.7-44.4-27.3c-0.7-0.2-4.3-16.4-3.8-15.9c13.1,14.7,49.6,38.7,55.1,40.4c29.7,9.5,57-1.4,83.1-15
		c27.3-14.3,51.5-33,73.6-54.2c41.3-39.7,78.9-82.9,115.2-126.8c0.7-1.2,1.2-2.4,1.9-3.8C470.6,196.9,469.2,197.1,467.7,197.1z"/>
	<path class="st1" d="M170.8,384.3c-23.8-11.4-45.4-25.9-71.3-31.6c-7.6-1.7-14.5-28.5-10-34.7c4.8-6.7,9-1.7,12.6,1.2
		C127.3,338.7,148.5,362,170.8,384.3z"/>
</g>
</svg>
