<?xml version="1.0" encoding="utf-8"?>
<!-- Generator: Adobe Illustrator 26.3.1, SVG Export Plug-In . SVG Version: 6.00 Build 0)  -->
<svg version="1.1" id="Layer_1" xmlns="http://www.w3.org/2000/svg" xmlns:xlink="http://www.w3.org/1999/xlink" x="0px" y="0px"
	 viewBox="0 0 595.3 595.3" style="enable-background:new 0 0 595.3 595.3;" xml:space="preserve">
<style type="text/css">
	.st0{fill:#FFFFFF;}
	.st1{fill:#E29C16;}
</style>
<path class="st0" d="M297.6,595.3L297.6,595.3C133.3,595.3,0,462,0,297.6l0,0C0,133.3,133.3,0,297.6,0l0,0
	C462,0,595.3,133.3,595.3,297.6l0,0C595.3,462,462,595.3,297.6,595.3z"/>
<g id="MvCdBA.tif">
	<g>
		<path class="st1" d="M122.9,483.1c13.3-6,26.9-11.5,38.3-21c3.5-2.9,6.8-6.2,9.7-9.7c4.7-5.6,6-11.4,2-18.5
			c-15.2-27.1-13.6-54.3,0.5-81.4c6-11.5,12.1-23,18.1-34.5c8.6-16.5,12.8-34.4,15.5-52.7c0.3-1.8,0-4.1,1.9-5.1
			c2.2-1.3,3.5,0.9,4.7,2.1c22.7,24.5,42.8,50.4,48.5,84.6c0.7,4,1.1,8.1,0.9,12.1c-0.2,6.5,2.4,6.7,7.3,4.1
			c17.6-9.2,33.9-20.1,49.4-32.5c5.9-4.7,11.6-9.8,17.9-13.9c9-5.8,18.7-6.7,28.5-1.4c4.6,2.5,9.3,4.2,15.5,3.1
			c-6.3-3.9-12-7.8-18-11c-9.8-5.3-19.9-4.9-29.4,0.8c-6,3.6-11.6,8-17.1,12.3c-3.9,3.1-6.3,3-8.6-1.9c-15-31.8-30.4-63.4-45.1-95.4
			c-10-21.9-9.1-44.1,0.9-66c6.9-15.1,15.4-29.1,25.2-42.5c5.7-7.8,6-7.9,10.1,0.8c18.5,38.5,36.9,77.1,55.3,115.7
			c34.5,72.2,69,144.5,103.6,216.7c4.3,9,8.5,18.1,12.9,27.1c2.2,4.5,1.1,6.6-4,6.6c-25.2,0-50.3-0.1-75.5,0c-5.5,0-7.3-3.7-9.2-7.7
			c-18.5-38.8-37.1-77.6-55.7-116.4c-4.4-9.3-4.5-9.3-12.8-3.1c-17.4,12.8-30.6,29.8-43.7,46.6c-19.5,25.1-42,46.5-70,61.9
			c-20.4,11.2-42.4,17.4-64.6,23.4c-3.8,0-7.6-0.1-11.4,0C121.4,486.5,123.6,484.1,122.9,483.1z"/>
	</g>
</g>
</svg>
