<?xml version="1.0" encoding="utf-8"?>
<!-- Generator: Adobe Illustrator 26.3.1, SVG Export Plug-In . SVG Version: 6.00 Build 0)  -->
<svg version="1.1" id="Layer_1" xmlns="http://www.w3.org/2000/svg" xmlns:xlink="http://www.w3.org/1999/xlink" x="0px" y="0px"
	 viewBox="0 0 595.3 595.3" style="enable-background:new 0 0 595.3 595.3;" xml:space="preserve">
<style type="text/css">
	.st0{fill:#FFFFFF;}
	.st1{opacity:0.2;fill:#0062A4;}
	.st2{fill:#12283B;}
	.st3{fill:#E29C16;}
</style>
<path class="st0" d="M297.6,595.3L297.6,595.3C133.3,595.3,0,462,0,297.6v0C0,133.3,133.3,0,297.6,0h0
	C462,0,595.3,133.3,595.3,297.6v0C595.3,462,462,595.3,297.6,595.3z"/>
<path class="st1" d="M676.3,1838.2c-1.7-2.1-3.6-4.1-5.6-6c1,1.2,2.1,2.5,3,3.8C674.6,1836.7,675.5,1837.4,676.3,1838.2z"/>
<g id="gkAIw4.tif_00000121242662743737228410000009640151810531404940_">
	<g>
		<path class="st2" d="M559.6,337.6c-0.3,1.7-0.7,3.4-1.6,4.9c-2.3,4-5.9,6-10.3,6.7c-8.3,1.4-15.7-0.8-22.3-5.9
			c-0.8-0.6-0.8-1.1-0.1-1.9c1.5-1.6,2.8-3.3,4.2-5c0.8-1,0.8-1,1.9-0.1c2.5,1.9,5.2,3.4,8.3,4.1c2.2,0.5,4.5,0.6,6.7,0.1
			c2.3-0.6,3.4-2,3.3-4.1c0-1.2-0.7-2-1.7-2.6c-1.7-1-3.6-1.5-5.4-2.1c-3.2-0.9-6.3-1.6-9.4-3c-4.2-1.9-6.7-5.1-6.9-9.8
			c-0.3-5.3,1.6-9.6,6.3-12.3c3.5-2.1,7.4-2.6,11.4-2.3c4.9,0.4,9.3,1.9,13.3,4.8c0.8,0.6,1,1,0.4,1.9c-1.3,1.8-2.6,3.7-3.8,5.6
			c-0.4,0.7-0.8,0.8-1.5,0.3c-2.6-1.7-5.3-3.1-8.4-3.6c-1.6-0.3-3.2-0.3-4.8,0.1c-1.8,0.5-2.9,1.7-3,3.2c-0.1,1.7,0.6,2.9,2.4,3.7
			c2.6,1.2,5.4,1.8,8.1,2.5c2.8,0.8,5.5,1.7,8,3.3c2.7,1.7,4.3,4.2,4.8,7.3c0,0.2,0.1,0.5,0.2,0.7
			C559.6,335.2,559.6,336.4,559.6,337.6z"/>
		<path class="st3" d="M269.5,284c-1,0-2.6,0-4.1,0c-0.3,0-0.7,0-1-0.1c-0.3-0.1-0.7-0.1-0.7-0.5c0-0.3,0.4-0.4,0.6-0.4
			c1.6-0.5,3.2-0.8,4.7-1.4c4.6-1.6,9.1-3.4,13.3-5.8c2.8-1.6,3.1-2.7,1.3-5.4c-1.9-3-4.4-5.5-6.8-8.1c-3.6-3.9-7.1-7.9-9.9-12.5
			c-0.6-1.1-1.2-2.1-1.5-3.3c-0.2-0.9,0.1-1.2,1-0.9c0.9,0.3,1.7,0.8,2.5,1.1c4.8,2.2,9.9,3.1,15,4c4,0.7,8.2,0.9,12.1,2
			c6.6,1.8,12,5.2,15.7,11.1c0.5,0.7,1.1,0.9,1.8,0.9c3.9,0.3,7.6-0.9,11.2-2.2c2.8-1.1,5.5-2.3,8.4-3.2c1.5-0.5,3-0.8,4.5-0.7
			c1.9,0.1,3.5,0.7,4.5,2.4c0.2,0.4,0.6,0.6,1,0.7c1,0.3,2,0.5,3,0.8c0.4,0.1,1,0.1,1,0.6c0,0.6-0.7,0.5-1.1,0.6
			c-1.6,0.2-3.2,0.4-4.8,0.5c-7.7,0.7-15.3,2.1-22.3,5.6c-2.1,1-4.2,2.2-6,3.7c-7.2,5.4-15.4,7.9-24.2,9.2
			C282.5,283.4,276.3,284,269.5,284z"/>
		<path class="st2" d="M369.5,349.7c-10,0-18.8-6.1-21.7-15.6c-4.3-14.2,4.6-27.8,18.9-29.7c8-1.1,15.2,0.9,21,6.9
			c3.7,3.8,5.7,8.5,6,13.9c0.5,8.5-2.6,15.3-9.5,20.3C379.9,348.5,375.2,349.8,369.5,349.7z M383.3,327c0-2.4-0.3-3.9-1.1-5.9
			c-3.8-8.9-15.8-10.7-22-3.3c-2.4,2.9-3.3,6.3-3.1,10c0.3,8.5,8.1,14.5,16.4,12.5C379.4,338.8,383.3,333.6,383.3,327z"/>
		<path class="st2" d="M203.8,304.2c6,0,11.5,1.7,16,5.8c7.2,6.6,9.5,16.7,5.7,25.7c-3.4,8-9.7,12.5-18.2,13.8
			c-6.3,0.9-12.2-0.2-17.5-3.9c-7.2-5.2-10.4-12.4-9.4-21.2c1.3-11.2,9.7-19.1,20.8-20.2C202.1,304.1,202.9,304.2,203.8,304.2z
			 M203.6,313.2c-7.5,0-13.1,5.8-13.1,13.6c0,7.9,5.7,13.8,13.2,13.8c7.5,0,13.1-5.8,13.1-13.7C216.9,319.1,211.2,313.2,203.6,313.2
			z"/>
		<path class="st2" d="M237.6,326.8c0-6.9,0-13.8,0-20.7c0-1.3,0-1.4,1.4-1.4c6.4,0,12.8,0,19.2,0c3.3,0,6.5,0.6,9.5,2.2
			c4.3,2.4,6.4,6.1,6.8,10.9c0.2,2.5,0,4.9-0.9,7.3c-1.4,3.6-3.9,6.1-7.4,7.6c-0.9,0.4-0.9,0.7-0.4,1.4c3.2,4.6,6.3,9.2,9.4,13.8
			c0.2,0.3,0.6,0.5,0.4,0.9c-0.2,0.4-0.6,0.2-0.9,0.2c-3,0-6,0-9,0c-0.9,0-1.4-0.3-1.9-1c-2.7-4.1-5.4-8.1-8.1-12.2
			c-0.4-0.7-0.9-1-1.8-0.9c-1.7,0.1-3.4,0.1-5.1,0c-0.9,0-1.2,0.3-1.2,1.2c0,3.8,0,7.6,0,11.5c0,1.4-0.1,1.5-1.4,1.5
			c-2.4,0-4.7,0-7.1,0c-1.4,0-1.4,0-1.4-1.5C237.6,340.7,237.6,333.7,237.6,326.8z M247.5,320c0,1.7,0,3.4,0,5.1c0,0.7,0.2,1,0.9,1
			c3.4,0,6.8,0.1,10.2-0.1c3.2-0.1,5.6-2.5,5.8-5.5c0.2-3.4-1.5-5.7-4.9-6.5c-0.5-0.1-1-0.2-1.5-0.2c-3.1,0-6.3,0-9.4,0
			c-0.8,0-1.1,0.3-1.1,1.1C247.5,316.6,247.5,318.3,247.5,320z"/>
		<path class="st2" d="M294.7,326.9c0-6.9,0-13.8,0-20.7c0-1.4,0-1.4,1.4-1.4c2.5,0,4.9,0,7.4,0c0.9,0,1.2,0.3,1.2,1.2
			c0,5,0,10,0,14.9c0,1.1,0.3,1.3,1.4,1.3c6.4,0,12.8,0,19.2,0c1.3,0,1.3,0,1.3-1.4c0-4.9,0-9.8,0-14.6c0-1.3,0-1.4,1.4-1.4
			c2.5,0,4.9,0,7.4,0c0.9,0,1.2,0.3,1.2,1.2c0,14,0,28,0,42c0,0.8-0.3,1.2-1.1,1.1c-2.5,0-5.1,0-7.6,0c-0.9,0-1.2-0.3-1.2-1.2
			c0-5,0-10,0-15c0-1.3,0-1.4-1.4-1.4c-6.4,0-12.7,0-19.1,0c-1.4,0-1.4,0-1.4,1.4c0,4.9,0,9.8,0,14.7c0,1.4,0,1.5-1.4,1.5
			c-2.4,0-4.8,0-7.2,0c-1.3,0-1.3-0.1-1.3-1.3C294.7,340.8,294.7,333.8,294.7,326.9z"/>
		<path class="st2" d="M444.8,326.9c0-6.9,0-13.8,0-20.7c0-1.4,0-1.4,1.4-1.4c10.2,0,20.4,0,30.7,0c1.4,0,1.4,0,1.4,1.4
			c0,2.1,0,4.2,0,6.2c0,1-0.3,1.3-1.3,1.3c-6.9,0-13.9,0-20.8,0c-1.5,0-1.5,0-1.5,1.4c0,1.9,0,3.9,0,5.8c0,1.4,0,1.4,1.4,1.4
			c5.8,0,11.7,0,17.5,0c1.8,0,1.8,0,1.8,1.9c0,1.9,0,3.8,0,5.7c0,1-0.4,1.3-1.3,1.3c-6,0-12,0-17.9,0c-1.5,0-1.5,0-1.5,1.5
			c0,2.1,0,4.2,0,6.2c0,1,0.3,1.3,1.3,1.3c7,0,14,0,21,0c1.6,0,1.6,0,1.6,1.6c0,1.9,0,3.8,0,5.6c0,1.6,0,1.7-1.6,1.7
			c-5.3,0-10.7,0-16,0c-4.9,0-9.8,0-14.8,0c-1.3,0-1.4,0-1.4-1.4C444.8,340.7,444.8,333.8,444.8,326.9z"/>
		<path class="st2" d="M77,349.1c-1.3,0-2.7,0-4,0c-0.7,0-1.1-0.3-1.4-0.9c-1.1-2.7-2.2-5.3-3.2-8c-0.3-0.7-0.7-1-1.4-1
			c-5.5,0-10.9,0-16.4,0c-0.8,0-1.2,0.3-1.5,1c-1,2.6-2.1,5.2-3.1,7.8c-0.3,0.8-0.8,1.1-1.6,1.1c-2.6,0-5.2,0-7.8,0
			c-0.9,0-1.1-0.2-0.7-1.1c6-14.1,12.1-28.3,18.1-42.5c0.3-0.7,0.7-1,1.5-1c2.3,0,4.6,0.1,6.9,0c0.8,0,1.3,0.3,1.6,1.1
			c5.4,12.8,10.9,25.5,16.3,38.2c0.6,1.3,1.1,2.6,1.7,4c0.5,1.2,0.5,1.3-0.8,1.3C79.7,349.1,78.4,349.1,77,349.1z M58.8,316.5
			c-1.9,4.5-3.6,8.8-5.4,13.1c-0.3,0.6,0,0.8,0.6,0.8c3.2,0,6.4,0,9.5,0c0.8,0,0.9-0.3,0.6-0.9c-1.2-2.9-2.4-5.7-3.5-8.6
			C60,319.5,59.4,318.1,58.8,316.5z"/>
		<path class="st2" d="M156.4,304.1c2.9-0.1,5.8,0.3,8.6,1.3c3.1,1,5.7,2.7,8.1,4.9c0.5,0.5,0.5,0.8,0.1,1.3c-1.7,1.9-3.3,3.8-5,5.7
			c-0.5,0.6-0.9,0.7-1.6,0.1c-2.8-2.5-6-4.1-9.8-4.3c-6-0.3-10.8,3.5-12.5,8.7c-1.6,5.2-1,10.1,2.5,14.4c4,4.8,11.2,5.7,16.9,2.2
			c1.2-0.8,2.4-1.6,3.4-2.6c0.5-0.4,0.8-0.4,1.2,0c1.7,1.8,3.4,3.5,5.2,5.3c0.6,0.6,0.2,0.9-0.2,1.3c-3.5,3.6-7.6,6-12.6,6.8
			c-5.5,0.8-10.9,0.4-15.8-2.3c-7.1-3.9-10.9-10-11.6-18c-0.6-6.1,1-11.6,4.7-16.4c4.3-5.4,10-8.1,16.8-8.5
			C155.3,304.1,155.9,304.1,156.4,304.1z"/>
		<path class="st2" d="M108.9,349.7c-11,0.2-20.6-7.5-22.5-18.6c-2.2-13,5.9-25.4,20.1-26.9c6.3-0.7,12.3,0.4,17.5,4.4
			c0.7,0.6,1.4,1.2,2.1,1.8c0.5,0.4,0.5,0.7,0.1,1.2c-1.7,2-3.5,4-5.2,6c-0.5,0.5-0.8,0.5-1.3,0.1c-2.4-2.1-5.1-3.7-8.3-4.2
			c-7.1-1.2-13.6,3.6-14.7,10.7c-0.6,4.3,0.1,8.3,2.7,11.8c3.5,4.6,10,6,15.5,3.6c1.9-0.8,3.5-2,5-3.4c0.6-0.5,0.9-0.6,1.5,0
			c1.6,1.7,3.2,3.3,4.9,4.9c0.6,0.6,0.5,0.9,0,1.5C121.3,347.6,116.2,349.7,108.9,349.7z"/>
		<path class="st2" d="M417.3,304.8c5.7,0,11.3,0,17,0c1,0,1.4,0.3,1.4,1.3c-0.1,2.2-0.1,4.4,0,6.7c0,1-0.4,1.3-1.3,1.3
			c-3.5,0-6.9,0-10.4,0c-1.7,0-1.7,0-1.7,1.8c0,10.6,0,21.2,0,31.7c0,1.6,0,1.6-1.6,1.6c-2.3,0-4.5,0-6.8,0c-1.6,0-1.6,0-1.6-1.6
			c0-10.6,0-21.2,0-31.7c0-1.7,0-1.7-1.8-1.7c-3.4,0-6.8,0-10.2,0c-1,0-1.4-0.2-1.4-1.3c0.1-2.2,0.1-4.4,0-6.7c0-1,0.3-1.3,1.3-1.3
			C405.9,304.8,411.6,304.8,417.3,304.8z"/>
		<path class="st2" d="M488.8,326.9c0-6.9,0-13.8,0-20.7c0-1.4,0-1.4,1.4-1.4c2.4,0,4.8,0,7.2,0c1.3,0,1.4,0,1.4,1.4
			c0,10.7,0,21.5,0,32.2c0,1.6,0,1.6,1.6,1.6c5.6,0,11.3,0,16.9,0c1.4,0,1.4,0,1.4,1.4c0,2.1,0,4.3,0,6.4c0,0.9-0.2,1.3-1.2,1.3
			c-9.1,0-18.3,0-27.4,0c-1,0-1.3-0.4-1.3-1.3C488.8,340.8,488.8,333.8,488.8,326.9z"/>
	</g>
</g>
</svg>
