<?xml version="1.0" encoding="utf-8"?>
<!-- Generator: Adobe Illustrator 26.3.1, SVG Export Plug-In . SVG Version: 6.00 Build 0)  -->
<svg version="1.1" id="Layer_1" xmlns="http://www.w3.org/2000/svg" xmlns:xlink="http://www.w3.org/1999/xlink" x="0px" y="0px"
	 viewBox="0 0 595.3 595.3" style="enable-background:new 0 0 595.3 595.3;" xml:space="preserve">
<style type="text/css">
	.st0{fill:#FFFFFF;}
	.st1{fill:#D50032;}
</style>
<path class="st0" d="M297.6,595.3L297.6,595.3C133.3,595.3,0,462,0,297.6l0,0C0,133.3,133.3,0,297.6,0l0,0
	C462,0,595.3,133.3,595.3,297.6l0,0C595.3,462,462,595.3,297.6,595.3z"/>
<g id="J94fSg.tif_00000057842281776794644810000005305556117368152978_">
	<g>
		<path class="st1" d="M35.6,297.7c0.2-1.8,0.4-3.7,0.6-5.5c1.7-13.7,7.1-25.8,16.2-36.2c10.6-12.2,24-19.8,40-22.6
			c35.7-6.2,70.1,16.6,78.3,52c8.6,37-15.1,74.2-52.2,82.1c-36.7,7.8-72.9-15.3-81.2-51.8c-0.8-3.6-1.4-7.2-1.5-10.9
			c0-0.3,0-0.7-0.2-1C35.6,301.8,35.6,299.8,35.6,297.7z M147,300.4c0.1-23.4-18.9-42.6-42.2-42.7c-23.8-0.1-43,18.8-43.1,42.5
			c-0.1,23.6,18.8,42.6,42.3,42.8C127.8,343.1,146.9,324.1,147,300.4z"/>
		<path class="st1" d="M411.1,345c2.6,0.5,5.1,1,7.7,1.1c4.1,0.2,8.2,0.5,12.2-0.9c6.1-2.1,8.5-7.1,8.6-12.3c0.1-3.5,0-7.1,0-10.6
			c0-0.9-0.2-1-1-0.6c-7.3,3.3-14.9,3.8-22.6,1.6c-7.7-2.2-13-7.2-15.8-14.6c-3.5-9.2-3.7-18.6-0.2-27.9
			c3.6-9.6,10.8-15.2,20.7-17.6c5-1.2,10-1.1,15-0.7c6.1,0.4,12.1,1.5,18,3c0.7,0.2,0.9,0.4,0.9,1.2c0,21.3,0,42.7,0,64
			c0,4.6-0.7,9.1-2.5,13.4c-2.8,6.9-8.1,11-15.1,13c-5.4,1.6-11,2.1-16.6,1.7c-1.1-0.1-2.3-0.1-3.4-0.1c-0.5,0-0.8-0.1-1-0.7
			c-1.4-4.3-3.1-8.5-5-12.6C411.1,345.3,411.2,345.2,411.1,345z M439.5,292.4C439.6,292.4,439.6,292.4,439.5,292.4
			c0.1-5.3,0.1-10.5,0.1-15.8c0-0.7-0.2-1-0.9-1.2c-3.8-0.8-7.7-1-11.5-0.7c-5.1,0.5-9.1,2.9-11.5,7.5c-3.5,6.7-3.9,13.7-1.5,20.7
			c1.7,4.9,5.2,8.1,10.4,9c5,0.8,9.7-0.1,14.2-2.5c0.6-0.3,0.8-0.8,0.8-1.5C439.5,302.8,439.5,297.6,439.5,292.4z"/>
		<path class="st1" d="M308.7,226.2c2.7,2.6,5.2,4.9,7.8,7.1c2,1.7,4,3.3,6.2,4.8c0.6,0.4,0.8,0.8,0.8,1.5c0,28.4,0,56.8,0,85.3
			c0,0.8-0.3,1.1-1,1.3c-8.9,2.4-17.9,3.7-27.1,3.1c-8.4-0.5-15.9-3.3-21.8-9.6c-4.2-4.5-6.4-10-7.4-16c-1.4-8.2-0.9-16.3,2.1-24
			c4.1-10.5,11.9-16.3,23.2-17.3c5.6-0.5,11,0.5,16.1,2.9c1.1,0.5,1.1,0.5,1.1-0.7c0-12.3,0-24.7,0-37
			C308.7,227.2,308.7,226.8,308.7,226.2z M308.7,297.1C308.7,297.1,308.7,297.1,308.7,297.1c-0.1-5.9-0.1-11.7-0.1-17.6
			c0-0.5,0-0.9-0.5-1.2c-4.5-2.7-9.4-4-14.5-3.3c-5.1,0.7-8.6,3.6-10.7,8.4c-1.7,4-2.3,8.2-2.3,12.6c0,5,1.2,9.7,4,13.9
			c2.6,3.8,6.2,5.9,10.7,6.5c4.1,0.5,8.2,0.1,12.3-0.6c0.9-0.1,1.1-0.4,1.1-1.3C308.7,308.7,308.7,302.9,308.7,297.1z"/>
		<path class="st1" d="M526.4,262.2c18.5,0.1,33.4,15,33.3,33.6c-0.1,18.4-15.1,33.4-33.5,33.3c-18.6-0.1-33.5-15.1-33.4-33.9
			C492.9,277.1,508,262.2,526.4,262.2z M526.5,314.5c10.5,0,19-8.5,19-18.9c0-10.5-8.6-19.1-19.1-19c-10.4,0-18.9,8.6-18.8,19.1
			C507.5,306,516.1,314.5,526.5,314.5z"/>
		<path class="st1" d="M255.7,304.9c0,6.8,0,13.7,0,20.5c0,0.9-0.2,1.2-1.1,1.4c-9.1,1.7-18.3,2.9-27.7,2.5
			c-4.4-0.2-8.7-0.8-12.7-2.7c-6.7-3.1-9.9-8.5-10.5-15.7c-0.4-5.6,0.6-10.8,4.6-15c3.1-3.3,7.1-5.2,11.5-6.2
			c6.8-1.5,13.6-1.5,20.4,0c0.8,0.2,1.1,0.1,1-0.8c0-1.7,0-3.5-0.4-5.2c-1.1-5.1-4.2-8.1-9.3-8.8c-4-0.6-7.9-0.2-11.9,0.3
			c-2.5,0.3-4.9,0.8-7.3,1.6c-0.7,0.2-0.9,0-1-0.7c-0.5-3.4-1-6.8-1.6-10.2c-0.1-0.6,0.1-0.9,0.7-1.1c5.8-1.7,11.8-2.5,17.8-2.7
			c4-0.2,7.9,0.2,11.8,1.2c8.5,2.3,13.4,7.8,14.9,16.4c0.5,2.7,0.7,5.5,0.7,8.3C255.7,293.7,255.7,299.3,255.7,304.9z M241.5,308.4
			c0-2.4,0-4.9,0-7.3c0-0.8-0.3-1-1-1.2c-4.2-1-8.3-1.1-12.6-0.6c-2.3,0.3-4.4,0.9-6.3,2.3c-2.5,1.8-3.2,4.4-3.1,7.3
			c0.1,2.8,1.2,5.1,3.6,6.5c1.6,1,3.4,1.5,5.2,1.7c4.5,0.5,9,0.2,13.4-0.4c0.7-0.1,0.7-0.5,0.7-1
			C241.5,313.4,241.5,310.9,241.5,308.4z"/>
		<path class="st1" d="M386.3,304.8c0,6.7,0,13.4,0,20c0,1.8,0.3,1.5-1.5,1.9c-8.4,1.6-16.9,2.7-25.5,2.5c-4.4-0.1-8.8-0.5-12.9-2.1
			c-7.8-3-11.9-9.2-12.1-17.8c-0.1-5.1,1.1-9.8,4.7-13.6c3.2-3.4,7.4-5.3,11.9-6.3c6.7-1.4,13.3-1.4,20,0.1c0.8,0.2,1,0.1,1-0.8
			c0-1.8-0.1-3.6-0.4-5.3c-0.9-4.8-3.8-7.7-8.6-8.7c-3.4-0.7-6.8-0.4-10.2-0.1c-3.4,0.3-6.6,0.9-9.8,2c-0.6,0.2-0.7,0-0.8-0.5
			c-0.5-3.5-1.1-7-1.6-10.4c-0.1-0.6,0.1-0.9,0.7-1.1c7.9-2.2,15.9-3.3,24.1-2.5c4.4,0.4,8.7,1.5,12.5,4.1c4.4,3,6.7,7.3,7.7,12.4
			c0.6,3,0.9,6.1,0.9,9.2C386.2,293.5,386.2,299.2,386.3,304.8z M371.6,308.4c0-2.4,0-4.9,0-7.3c0-0.8-0.2-1.1-1-1.2
			c-4.6-1.1-9.2-1.2-13.8-0.4c-5.7,1-8.4,4.3-8.2,9.8c0.1,2.7,1.3,4.8,3.7,6.2c1.6,0.9,3.3,1.5,5.1,1.7c4.5,0.5,9,0.2,13.4-0.4
			c0.6-0.1,0.7-0.4,0.7-0.9C371.6,313.4,371.6,310.9,371.6,308.4z"/>
		<path class="st1" d="M482.2,295.8c0,10.3,0,20.7,0,31c0,0.8-0.2,1.1-1.1,1.1c-4.2,0-8.4-0.1-12.7,0c-1,0-1.2-0.4-1.2-1.2
			c0-6.7,0-13.4,0-20.1c0-13.8,0-27.7,0-41.5c0-1.4,0-1.4,1.4-1.4c4.1,0,8.2,0,12.3,0c0.9,0,1.1,0.2,1.1,1.1
			C482.2,275,482.2,285.4,482.2,295.8z"/>
		<path class="st1" d="M474.7,253.8c-4.3,0.2-9.3-3.3-9.1-9.3c0.2-5.1,3.9-8.9,9.2-8.9c5.4,0,9.1,3.8,9.1,9.3
			C483.8,250.1,480,253.8,474.7,253.8z"/>
		<path class="st1" d="M326.8,361.2c-5.4-0.1-7.8-3.9-7.7-8.8c0-1.2,0.2-2.3,0.7-3.4c1.4-3.4,4.6-5.1,8.6-4.6c3.4,0.4,6,3.2,6.4,6.8
			c0.2,1.7,0,3.3-0.5,4.9C333.2,359.3,330.4,361.3,326.8,361.2z M332.1,352.7c-0.1-0.7-0.1-1.5-0.3-2.3c-0.7-2.3-2.3-3.6-4.6-3.7
			c-2.2,0-4,1.3-4.7,3.6c-0.4,1.5-0.5,3-0.1,4.6c0.6,2.4,2.4,3.8,4.7,3.8c2.3,0,4-1.4,4.7-3.8C332,354.2,332,353.5,332.1,352.7z"/>
		<path class="st1" d="M263.1,352.7c0-2.4,0-4.7,0-7.1c0-0.4,0-0.8,0.6-0.9c2.8-0.3,5.6-0.7,8.3,0.5c1.7,0.8,2.6,2.1,2.8,4
			c0.1,2-0.6,3.6-2.4,4.6c-0.6,0.3-0.6,0.5-0.2,1c1.3,1.6,2.4,3.4,3.4,5.3c0.3,0.6,0.2,0.8-0.5,0.8c-1.6,0.2-2.7-0.2-3.5-1.8
			c-0.6-1.4-1.7-2.6-2.5-3.9c-0.3-0.5-2.3-0.8-2.7-0.5c-0.3,0.2-0.2,0.5-0.2,0.8c0,1.5,0,3,0,4.5c0,0.6-0.1,0.8-0.7,0.8
			c-2.7-0.1-2.2,0.3-2.2-2.1C263,356.7,263.1,354.7,263.1,352.7z M265.9,349.6c0,2.9,0,2.9,2.9,2.8c0.5,0,1-0.1,1.4-0.2
			c1-0.3,1.6-1,1.6-2.1c0.2-2.1-0.8-3.2-2.9-3.2C265.9,346.8,265.9,346.8,265.9,349.6z"/>
		<path class="st1" d="M299,352.7c0-2.4,0-4.9,0-7.3c0-0.7,0.2-0.9,0.9-0.9c2.1,0,2.1,0,2.1,2c0,1.3,0,2.5,0,3.8
			c0,0.6,0.2,0.8,0.8,0.8c1.9,0,3.8,0,5.7,0c0.7,0,0.9-0.3,0.9-0.9c0-1.6,0-3.1,0-4.7c0-0.7,0.1-1,0.9-1c2,0,2,0,2,2
			c0,4.4,0,8.9,0,13.3c0,0.8-0.3,1-1,1c-2.2-0.1-1.8,0.2-1.9-1.9c0-1.5,0-3.1,0-4.6c0-0.6-0.2-0.8-0.8-0.8c-1.9,0-3.8,0-5.6,0
			c-0.7,0-0.8,0.3-0.8,0.8c0,1.8,0,3.6,0,5.4c0,0.7-0.2,1-1,1c-2.5-0.1-2,0.2-2-1.9C299,356.9,299,354.8,299,352.7z"/>
		<path class="st1" d="M218.2,360.7c-1,0.3-1.5-0.2-1.8-1.3c-0.8-2.6-0.9-2.6-3.6-2.6c-1.1,0-2.3,0-3.4,0c-0.5,0-0.8,0.2-1,0.7
			c-0.2,0.8-0.6,1.5-0.8,2.2c-0.2,0.7-0.6,0.9-1.3,0.9c-2.1,0-2.1,0-1.4-2c1.6-4.5,3.4-9,5.3-13.4c0.5-1.2,1.4-0.8,2.2-0.9
			c0.8-0.1,1.2,0.2,1.5,0.9c2.1,4.7,4,9.4,5.7,14.2c0.4,1.2,0.4,1.2-0.8,1.2C218.7,360.7,218.5,360.7,218.2,360.7z M212.1,347.8
			c-1,2.1-1.8,4.2-2.5,6.2c-0.2,0.6,0.1,0.6,0.5,0.6c1.3,0,2.7,0,4,0c0.6,0,0.7-0.2,0.5-0.7c-0.6-1.4-1.1-2.9-1.6-4.3
			C212.7,349.1,212.6,348.4,212.1,347.8z"/>
		<path class="st1" d="M255.3,360.7c-0.9,0.3-1.3-0.2-1.6-1.1c-0.9-2.8-0.9-2.7-3.9-2.7c-1,0-2,0.1-3,0c-0.9-0.1-1.4,0.3-1.6,1.1
			c-0.1,0.3-0.2,0.6-0.3,0.9c-0.7,1.9-1.1,2.1-3.1,1.8c-0.8-0.1-0.3-0.5-0.2-0.8c0.7-2.1,1.5-4.2,2.3-6.2c1.1-2.9,2.3-5.7,3.5-8.5
			c0.5-1.1,1.3-0.7,2-0.8c0.7-0.1,1.1,0.1,1.4,0.8c2.1,4.7,4.1,9.6,5.8,14.4c0.4,1.1,0.4,1.1-0.8,1.1
			C255.7,360.7,255.6,360.7,255.3,360.7z M249.3,347.7c-1.2,2.4-1.9,4.7-2.8,7c1.7,0,3.3,0,4.9,0c0.6,0,0.4-0.4,0.3-0.7
			C250.9,352,250.2,350,249.3,347.7z"/>
		<path class="st1" d="M358.6,352.6c0-2.4,0-4.8,0-7.2c0-0.7,0.2-0.9,0.9-0.9c2.9,0,5.8,0,8.7,0c0.7,0,0.9,0.2,0.9,0.9
			c-0.1,1.9,0.2,1.5-1.6,1.6c-1.7,0-3.4,0-5,0c-0.8,0-1,0.2-1,1c0.1,0.8,0,1.6,0,2.4c0,0.6,0.2,0.8,0.8,0.8c1.7,0,3.4,0,5,0
			c0.7,0,1,0.2,0.9,0.9c0,0.1,0,0.2,0,0.3c0.2,0.9-0.1,1.3-1.2,1.3c-1.6-0.1-3.2,0-4.7,0c-0.7,0-0.9,0.2-0.9,0.9c0,1.1,0,2.1,0,3.2
			c0,0.6,0.2,0.8,0.8,0.8c2.1,0,4.2,0,6.3,0c0.9,0,1.2,0.3,1.1,1.1c-0.1,0.7,0.2,1.4-1,1.4c-3-0.1-6,0-9,0c-0.8,0-1-0.2-1-1
			C358.6,357.5,358.6,355,358.6,352.6z"/>
		<path class="st1" d="M225.9,352.7c0-2.4,0-4.8,0-7.2c0-0.5,0.1-0.9,0.7-0.9c2.7-0.3,5.5-0.4,8.1,0.5c2.1,0.8,3.1,2.3,3.1,4.3
			c0,2.7-0.9,4.2-3.1,5.1c-1.6,0.7-3.3,0.7-4.9,0.7c-0.8,0-1.1,0.2-1,1c0.1,1.2,0,2.5,0,3.7c0,0.5-0.2,0.6-0.6,0.7
			c-2.2,0.1-2.2,0.2-2.2-2.1C225.9,356.7,225.9,354.7,225.9,352.7z M228.8,349.7c0,0.8,0,1.5,0,2.3c0,0.5,0.2,0.7,0.7,0.7
			c1.2,0,2.3,0,3.4-0.4c1.4-0.4,2-1.4,1.9-2.9c-0.1-1.3-1-2.2-2.3-2.3c-0.9-0.1-1.8-0.1-2.6-0.2c-0.8-0.1-1.2,0.1-1.1,1
			C228.8,348.4,228.8,349.1,228.8,349.7z"/>
		<path class="st1" d="M344.6,353.9c0-2,0-4,0-6.1c0-0.6-0.2-0.9-0.8-0.8c-1.2,0-2.3,0-3.5,0c-0.6,0-0.9-0.2-0.8-0.8
			c0-0.2,0-0.4,0-0.6c-0.1-0.8,0.2-1,1-1c3.7,0,7.4,0.1,11.1,0c1.2,0,0.9,0.7,1,1.4c0.1,0.8-0.1,1.2-1,1.1c-1-0.1-2.1,0-3.1,0
			c-0.8,0-1,0.2-1,1c0,3.9,0,7.8,0,11.7c0,0.4,0.3,1-0.4,1.1c-0.8,0.1-1.6,0.2-2.4-0.1c-0.2-0.1-0.1-0.5-0.1-0.8
			C344.6,357.9,344.6,355.9,344.6,353.9z"/>
		<path class="st1" d="M288,354c0,2,0,4,0,6c0,0.6-0.1,0.9-0.8,0.9c-2.1,0-2.1,0.1-2.1-2c0-3.6,0-7.3,0-10.9c0-0.8-0.2-1.1-1-1.1
			c-1.1,0.1-2.2,0-3.3,0c-0.6,0-0.9-0.2-0.8-0.8c0,0,0-0.1,0-0.1c0-1.8-0.2-1.5,1.5-1.5c3.5,0,7.1,0,10.6,0c0.8,0,1.1,0.2,1,1
			c-0.1,1.7,0.2,1.4-1.5,1.5c-0.9,0-1.7,0.1-2.6,0c-0.8-0.1-1.1,0.2-1.1,1.1C288.1,350.1,288,352,288,354z"/>
		<path class="st1" d="M376,352.7c0-2.4,0-4.8,0-7.2c0-0.7,0.2-0.9,0.9-0.9c2,0,2,0,2,2c0,3.6,0,7.3,0,10.9c0,0.7,0.2,1,1,1
			c1.8-0.1,3.7,0,5.6,0c0.7,0,1,0.1,0.9,0.9c0,0.2,0,0.5,0,0.7c0.1,0.6-0.1,0.9-0.8,0.9c-2.9,0-5.8,0-8.6,0c-0.7,0-0.9-0.3-0.9-0.9
			C376,357.5,376,355.1,376,352.7z"/>
	</g>
</g>
</svg>
