<svg xmlns="http://www.w3.org/2000/svg" xml:space="preserve" style="enable-background:new 0 0 595.3 595.3" viewBox="0 0 595.3 595.3"><path d="M297.6 595.3C133.3 595.3 0 462 0 297.6 0 133.3 133.3 0 297.6 0 462 0 595.3 133.3 595.3 297.6c0 164.4-133.3 297.7-297.7 297.7" style="fill:#fff"/><path d="M87.2 288.4c.6-5.5 1.2-11.4 1.8-16.9 5.2-42.1 21.8-79.3 49.8-111.3 32.6-37.5 73.8-60.9 123-69.5 109.8-19.1 215.6 51.1 240.8 159.9 26.4 113.8-46.4 228.2-160.5 252.5-112.9 24-224.2-47.1-249.7-159.3-2.5-11.1-4.3-22.1-4.6-33.5 0-.9 0-2.2-.6-3.1zm342.6 8.3c.3-72-58.1-131-129.8-131.3-73.2-.3-132.2 57.8-132.6 130.7-.3 72.6 57.8 131 130.1 131.6 73.2.4 132-58.1 132.3-131" style="fill:#d50032"/></svg>