<?xml version="1.0" encoding="utf-8"?>
<!-- Generator: Adobe Illustrator 26.3.1, SVG Export Plug-In . SVG Version: 6.00 Build 0)  -->
<svg version="1.1" id="Layer_1" xmlns="http://www.w3.org/2000/svg" xmlns:xlink="http://www.w3.org/1999/xlink" x="0px" y="0px"
	 viewBox="0 0 595.3 595.3" style="enable-background:new 0 0 595.3 595.3;" xml:space="preserve">
<style type="text/css">
	.st0{fill:#FFFFFF;}
	.st1{fill:#D50032;}
</style>
<path class="st0" d="M297.6,595.3L297.6,595.3C133.3,595.3,0,462,0,297.6l0,0C0,133.3,133.3,0,297.6,0l0,0
	C462,0,595.3,133.3,595.3,297.6l0,0C595.3,462,462,595.3,297.6,595.3z"/>
<path class="st1" d="M87.2,288.4c0.6-5.5,1.2-11.4,1.8-16.9c5.2-42.1,21.8-79.3,49.8-111.3c32.6-37.5,73.8-60.9,123-69.5
	c109.8-19.1,215.6,51.1,240.8,159.9c26.4,113.8-46.4,228.2-160.5,252.5c-112.9,24-224.2-47.1-249.7-159.3
	c-2.5-11.1-4.3-22.1-4.6-33.5c0-0.9,0-2.2-0.6-3.1C87.2,301,87.2,294.9,87.2,288.4z M429.8,296.7c0.3-72-58.1-131-129.8-131.3
	c-73.2-0.3-132.2,57.8-132.6,130.7c-0.3,72.6,57.8,131,130.1,131.6C370.7,428.1,429.5,369.6,429.8,296.7z"/>
</svg>
