<?xml version="1.0" encoding="utf-8"?>
<!-- Generator: Adobe Illustrator 26.3.1, SVG Export Plug-In . SVG Version: 6.00 Build 0)  -->
<svg version="1.1" id="Layer_1" xmlns="http://www.w3.org/2000/svg" xmlns:xlink="http://www.w3.org/1999/xlink" x="0px" y="0px"
	 viewBox="0 0 595.3 595.3" style="enable-background:new 0 0 595.3 595.3;" xml:space="preserve">
<style type="text/css">
	.st0{fill:#FFFFFF;}
	.st1{fill:#F79D11;}
	.st2{fill:#0383DF;}
	.st3{fill:#9436D4;}
	.st4{fill:#FF0101;}
	.st5{fill:#1AAC5B;}
	.st6{fill:#929292;}
</style>
<path class="st0" d="M297.6,595.3L297.6,595.3C133.3,595.3,0,462,0,297.6v0C0,133.3,133.3,0,297.6,0h0
	C462,0,595.3,133.3,595.3,297.6v0C595.3,462,462,595.3,297.6,595.3z"/>
<g>
	<path class="st1" d="M178.3,401.6c-0.1-0.3-0.4-0.2-0.6-0.2c-4.4-0.5-8.5-1.8-12.4-3.8c-5.8-3.1-10.2-7.6-13.7-13.1
		c-2.7-4.3-4.2-9-4.6-14.1c-0.5-6.4,0.5-12.6,3.5-18.4c3.9-7.7,9.7-13.4,17.7-16.9c4.5-2,9.3-2.4,14.1-2.2c2.6,0.1,5.1,0.4,7.6,0.8
		c3.5,0.6,6.6,2,9.6,3.9c6.4,4.1,11.4,9.5,14.2,16.6c2.1,5.3,2.8,10.8,2.2,16.5c-0.9,8.3-4.3,15.4-10.2,21.2
		c-4.9,4.8-10.7,7.6-17.4,8.9c-0.9,0.2-1.8,0.3-2.7,0.4c-0.2,0-0.4,0-0.4,0.2C182.8,401.6,180.6,401.6,178.3,401.6z"/>
	<path class="st2" d="M559.6,369c-0.2,0.1-0.2,0.4-0.2,0.6c-0.2,5.3-1.8,10.1-4.4,14.6c-5.4,9.3-13.5,14.8-24,16.6
		c-9.3,1.5-18-0.3-25.8-5.9c-6.8-4.8-11.6-11.2-13.7-19.4c-2.3-8.9-1.2-17.5,3.5-25.6c4.2-7.3,10.1-12.6,17.9-15.7
		c2.7-1,5.5-1.6,8.3-1.7c4.5-0.1,8.9,0.1,13.3,1.1c3.2,0.7,6.1,2.1,8.8,3.8c5.5,3.5,9.9,8.1,12.8,14c1.6,3.3,2.6,6.7,3.1,10.3
		c0.1,0.6,0.1,1.3,0.1,2c0,0.2,0,0.4,0.2,0.6C559.6,365.9,559.6,367.4,559.6,369z"/>
	<path class="st3" d="M376.2,368c0-9,2.7-16.3,7.8-22.7c3.3-4.1,7.2-7.4,12-9.7c3.2-1.6,6.6-2.6,10.2-2.8c5.3-0.3,10.5,0.1,15.6,1.4
		c2.7,0.7,5.1,2,7.4,3.5c6.3,4,11.1,9.4,13.8,16.3c1.3,3.3,2,6.7,2.3,10.3c0.5,6.5-0.7,12.6-3.6,18.3c-5.1,10-13.3,16.1-24.3,18.2
		c-8.3,1.6-16.2,0.2-23.6-3.9c-4.6-2.6-8.4-6.2-11.5-10.5c-2.9-4-4.8-8.3-5.7-13.1C376.4,371.2,376.1,369.2,376.2,368z"/>
	<path class="st4" d="M70.2,332.6c3,0,6,0.3,9.1,0.8c3.7,0.6,7.1,2.1,10.2,4.1c6.4,4,11.2,9.4,14,16.5c4.8,12.3,2.3,26.5-6.5,36.2
		c-5.3,5.9-11.9,9.4-19.7,10.7c-8,1.3-15.6,0-22.7-3.9c-4.8-2.7-8.7-6.4-11.9-11c-2.7-3.9-4.6-8.2-5.4-12.9
		c-1.3-8.2-0.1-15.9,4.1-23.1c3.6-6.2,8.6-11.1,15.1-14.4C60.6,333.4,64.3,332.4,70.2,332.6z"/>
	<path class="st5" d="M295.9,401.4c-9.6-0.1-17.8-3.4-24.6-10.2c-4.6-4.7-8-10.1-9.4-16.6c-2.2-10.6,0.1-20.3,6.7-28.9
		c3.3-4.3,7.4-7.7,12.2-10.1c3.8-1.9,7.8-2.9,12.1-2.9c3.4,0,6.9,0.2,10.3,0.7c3.8,0.6,7.3,2,10.5,4.1c6.1,3.9,10.8,8.9,13.7,15.6
		c1.5,3.5,2.4,7.2,2.7,11.1c0.6,9.4-2,17.7-7.9,25c-3.9,4.7-8.8,8.1-14.6,10.1C303.5,400.9,300.2,401.4,295.9,401.4z"/>
	<path class="st6" d="M444.4,233c-0.1-11.4-0.1-22.8-0.1-34.2c0-0.9-0.3-1.6-1-2.1c-1.4-1.1-2.7-2.3-4.4-2.7c-0.4-0.1-0.8,0-1.1-0.3
		c-0.8,0-1.6,0-2.4,0c-0.1,0.2-0.3,0.2-0.5,0.2c-3,0.7-4.9,2.5-5.8,5.5c-0.7,2.3-0.9,4.7-0.9,7c-0.1,4.5-0.3,9-0.2,13.5
		c0,2.7,0,5.4,0,8.1c0,0.3,0.1,0.6-0.1,0.9c-0.3,0-0.4-0.1-0.5-0.2c-1.3-1-2.5-2-3.7-3c-4.3-3.6-9.2-5.4-14.8-5.4
		c-2.7,0-5.4-0.1-8.1,0c-0.9,0-1.7,0.2-2.6,0.3c-2.1,0.4-4,1.2-5.9,2.2c-5.7,3-9.8,7.5-12.3,13.4c-1.9,4.7-2.7,9.6-3,14.6
		c-0.2,4.8-0.1,9.6,0.8,14.4c0.7,3.5,1.7,6.9,3.4,10.1c2,3.9,4.8,7.1,8.2,9.8c2.6,2.1,5.5,3.7,8.8,4.4c3.5,0.7,7,0.8,10.6,0.7
		c2.2-0.1,4.3-0.5,6.3-1.4c2.7-1.2,5.1-2.6,7.5-4.3c1.5-1.1,2.8-2.5,4.2-3.6c0.3-0.3,0.6-0.6,1.1-0.6c0.2,0.2,0.2,0.5,0.2,0.8
		c0.2,2.7,1.1,5.1,3,7c1.7,1.7,3.6,2.7,6.1,2.4c1.1-0.1,2.2-0.6,3.3-0.9c1.7-0.5,2.7-1.6,3.2-3.3c0.5-2,0.7-4,0.8-5.9
		c0.1-3.3,0.3-6.6,0.3-10C444.5,258,444.6,245.5,444.4,233z M426.4,262.6c-1.1,4.4-3.1,8.3-6.7,11.1c-2.7,2.1-5.8,3.3-9.2,3.2
		c-3.4-0.1-6.3-1.3-8.9-3.4c-3.7-3.1-5.9-7.1-6.7-11.8c-0.7-4.3-0.6-8.6,0.2-12.9c0.5-2.6,1.2-5.2,2.5-7.6c2.6-5.1,6.9-7.8,12.4-8.6
		c0.4-0.1,0.7,0,1.1,0.1c3.5,0.4,6.5,1.9,9.1,4.2c1.7,1.6,3.3,3.3,4.5,5.4c1,1.8,1.6,3.7,1.9,5.7c0.4,2.5,0.5,5.1,0.4,7
		C426.8,257.8,426.9,260.2,426.4,262.6z"/>
	<path class="st6" d="M101.7,279.6c-0.5-2.1-1.1-4.2-1.4-6.3c-0.6-3.5-0.7-7-0.8-10.6c-0.2-3.2-0.1-6.5-0.2-9.7
		c-0.1-5.6-0.2-11.2-0.9-16.8c-0.9-6.2-4.3-10.6-9.6-13.5c-2.3-1.2-4.8-1.7-7.3-2c-3.7-0.5-7.3-0.6-11-0.6c-3.2-0.1-6.4,0-9.6,0.1
		c-2.3,0.1-4.5,0.4-6.6,1.2c-4.3,1.5-8.1,3.6-11.2,7.1c-2.7,3.1-4.3,6.6-4,10.8c0.1,2,0.9,3.8,2.7,4.8c2.1,1.2,4.4,1.2,6.7,0.8
		c0.6-0.1,1.1-0.5,1.5-0.9c0.4-0.4,0.8-0.8,1.1-1.2c1.3-1.6,2.5-3.2,3.8-4.8c2.2-2.9,5-4.8,8.6-5.6c2.2-0.4,4.3-0.5,6.5-0.6
		c2.7-0.1,5.2,0.8,7.7,2c1.3,0.7,2.3,1.7,2.8,3.1c0.7,2,1.3,4.1,1.8,6.2c0.3,1.2,0.1,1.5-1.1,2c-1.6,0.7-3.3,1.1-5,1.5
		c-7,1.7-14.1,3.2-21.2,4.8c-3.6,0.8-7,1.9-10.3,3.7c-3.1,1.7-5.6,4.1-7,7.4c-0.7,1.7-1.2,3.4-1.4,5.3c0,0.3,0.1,0.7-0.4,0.7
		c0,0.1,0,0.3,0,0.4c0.3,0.2,0.2,0.4,0,0.7c0,1.5,0,3.1,0,4.6c0.3,0.2,0.3,0.5,0.3,0.8c0.3,2.1,1.3,3.9,2.3,5.6
		c1.2,2.2,2.9,4,4.8,5.5c4,3,8.6,4.3,13.5,4.5c2.2,0.1,4.3-0.1,6.4-0.4c4.6-0.7,8.9-2.3,13-4.5c2.3-1.2,4.4-2.7,6.6-4
		c0.7-0.4,0.7-0.4,1.1,0.2c1,1.3,1.9,2.7,3,3.9c1.1,1.4,2.4,2.7,4,3.7c1.9,1.1,3.8,1.4,5.9,0.6c1.1-0.4,2.1-1,3.1-1.7
		c1.8-1.2,2.6-3,2.6-5.1C102.2,282,102,280.8,101.7,279.6z M82.1,259.8c0,3.2-0.5,6.3-1.8,9.3c-2.1,4.8-5.8,7.6-10.8,8.9
		c-2.3,0.6-4.7,0.8-7.2,0.7c-0.8,0-1.5-0.2-2.2-0.5c-3.2-1.3-5.7-3.3-6.6-6.9c-0.9-3.8,1.1-7.8,4.8-9.3c1.9-0.8,3.8-1.2,5.7-1.8
		c4.7-1.3,9.5-2.5,14.3-3.5c0.8-0.2,1.6-0.3,2.4-0.5c0.9-0.2,1.1,0,1.3,0.9C82.2,258,82.1,258.9,82.1,259.8z"/>
	<path class="st6" d="M216.7,235.9c-0.1-2.8-0.1-5.6-0.3-8.4c-0.1-1.8-0.7-3.5-1.6-5.1c-0.7-1.2-1.8-1.9-3.1-2.3
		c-1.5-0.4-2.9-0.5-4.4-0.4c-2.5,0.1-4.3,1.2-5.4,3.6c-0.8,1.8-1.5,3.6-1.5,5.5c0,0.4,0.1,0.9-0.3,1.1c-0.4,0.1-0.6-0.3-0.9-0.5
		c-1.1-1-2.2-2.1-3.3-3.2c-3.3-3-7.1-4.9-11.5-5.6c-3.4-0.6-6.7-0.7-10.1-0.6c-1.3,0-2.7,0.2-4,0.5c-4.7,1.2-8.8,3.6-12.2,7
		c-3.5,3.6-5.9,7.9-7.3,12.7c-1,3.3-1.3,6.7-1.4,10c-0.2,4.4-0.2,8.9,0.6,13.3c1.1,6.5,3.9,12.2,8.4,17c3.2,3.4,6.9,5.9,11.4,7.2
		c3.9,1.1,7.8,1.3,11.8,0.8c3.2-0.4,6.1-1.2,8.9-2.8c2.3-1.3,4.4-2.9,6.3-4.7c1-1,2-1.9,3-3c0.2,0.3,0.1,0.5,0.1,0.7
		c-0.3,2.8-0.3,5.6-0.6,8.4c-0.2,2.3-0.5,4.6-1.1,6.9c-1.2,4.4-3.8,7.5-8.3,8.8c-3.7,1.1-7.5,1.2-11.3,1c-0.6,0-1.2-0.2-1.8-0.3
		c-2.9-0.7-5.3-2.4-7.4-4.4c-1.6-1.5-3.1-2.9-4.6-4.5c-1.9-2-4.2-2.9-7-2.6c-3.7,0.4-6.3,3-6.4,6.8c-0.1,2.3,0.6,4.3,2,6.1
		c3.6,4.6,8.2,7.6,13.7,9.3c4.7,1.4,9.4,1.8,14.3,1.9c3.6,0.1,7.3-0.1,10.9-0.6c3.2-0.4,6.3-1,9.2-2.3c2.9-1.2,5.6-2.9,7.8-5.1
		c3.3-3.4,5.3-7.5,6.5-12.1c0.8-3,0.8-6.1,1-9.1c0.1-2.8,0.2-5.6,0.2-8.4C216.9,264.3,217.1,250.1,216.7,235.9z M199.5,257.4
		c-0.1,4.5-1.5,8.6-4.4,12.1c-3.2,3.9-7.2,6.1-12.3,6.1c-5.8-0.1-10.3-2.6-13.2-7.7c-1.6-2.7-2.3-5.7-2.8-8.8
		c-0.2-1.5-0.2-3.1-0.2-4.6c-0.1-3.5,0.4-6.9,1.6-10.2c0.9-2.6,2.3-5,4.2-7c1-1.1,2.2-1.9,3.5-2.7c1.5-0.8,3.1-1.4,4.8-1.8
		c1-0.3,2.1-0.3,3.1-0.1c3.3,0.6,6.3,1.6,8.9,3.9c3.1,2.7,5.1,6,6,9.9C199.4,250.1,199.6,253.7,199.5,257.4z"/>
	<path class="st6" d="M557.7,281.3c-0.3-1.1-0.6-2.3-0.9-3.4c-0.9-3.4-1-6.8-1.3-10.3c-0.2-3.3-0.3-6.6-0.4-9.8
		c-0.1-2.7-0.1-5.5-0.2-8.2c-0.2-4.3-0.2-8.5-0.3-12.8c0-0.5-0.1-1-0.3-1.5c-0.7-1.4-1.4-2.9-2.2-4.3c-3-6-8-9.2-14.5-10.4
		c-3.8-0.7-7.6-0.7-11.4-0.8c-3.1-0.1-6.1,0.2-9.2,0.3c-4.3,0.2-8.3,1.4-12,3.3c-3.5,1.8-6.5,4.2-8.6,7.6c-1.6,2.6-2.5,5.4-2.1,8.4
		c0.3,2.6,1.8,4.2,4.2,5.1c1.3,0.5,2.7,0.4,4.1,0.5c1.6,0.1,2.9-0.6,3.8-1.9c1.2-1.7,2.4-3.3,3.7-4.9c2.4-3,5.4-5.1,9.2-5.8
		c2-0.4,4-0.6,6-0.6c1.2,0,2.3,0,3.5,0.2c2.7,0.4,4.9,1.7,6.4,4c1,1.7,1.7,3.5,2.2,5.3c0.1,0.6,0.2,1.1,0.2,1.7
		c0,0.9-0.4,1.5-1.2,1.9c-1,0.5-2.1,0.8-3.2,1.1c-5.7,1.4-11.4,2.6-17.1,3.9c-4.3,1-8.5,2-12.6,3.5c-3.9,1.4-7,3.6-9.2,7.2
		c-3.2,5.3-4,10.8-1.8,16.6c1.3,3.4,3.5,6,6.2,8.4c2.5,2.2,5.4,3.5,8.6,4c2.1,0.4,4.1,0.4,6.2,0.6c1.6,0.1,3.2-0.1,4.8-0.2
		c1.4-0.1,2.8-0.3,4.1-0.6c3.8-0.8,7.2-2.5,10.5-4.6c1.8-1.1,3.6-2.3,5.4-3.4c0.4-0.2,0.7-0.3,1,0.1c1.4,1.6,2.9,3.2,3.9,5.1
		c0.2,0.4,0.5,0.7,0.9,1c0.7,0.5,1.5,1.1,2.2,1.6c2.8,1.6,5.5,1.8,8.2-0.1c0.7-0.5,1.3-1.2,2-1.9
		C557.9,285.5,558.3,283.5,557.7,281.3z M537.5,260.3c0,2.4-0.2,4.7-0.9,7c-1.1,3.8-3.5,6.7-7,8.6c-2.4,1.3-4.9,2.4-7.6,2.7
		c-3.7,0.4-7.2,0.1-10.1-2.5c-2.5-2.2-3.6-5.1-3-8.5c0.2-1.1,0.8-2,1.5-2.8c1.4-1.6,3.1-2.8,5.1-3.5c3.7-1.3,7.5-2.1,11.3-3
		c2.3-0.6,4.6-1.1,6.9-1.6c0.7-0.2,1.5-0.3,2.3-0.3c1,0,1.4,0.4,1.5,1.4C537.5,258.6,537.5,259.4,537.5,260.3z"/>
	<path class="st6" d="M329.3,241.3c-2.1-5.9-5.5-10.9-10.5-14.8c-3.6-2.8-7.6-4.8-12.2-5.6c-3.8-0.6-7.6-1-11.4-0.9
		c-1.2,0-2.4,0-3.6,0c-2.5,0.1-4.9,0.5-7.3,1.4c-4.2,1.5-8.1,3.8-11.4,6.8c-4,3.6-7,7.9-8.7,13.1c-1.8,5.4-2.4,10.9-2,16.6
		c0.3,4.4,1.3,8.7,2.9,12.8c3.2,8.2,9,13.8,17.1,17c5.7,2.3,11.6,3.2,17.8,2.7c5.4-0.4,10.5-1.8,15.3-4.5c2.8-1.6,5.3-3.5,7.4-5.9
		c2.2-2.6,4-5.4,5.6-8.4c1.2-2.4,2.1-5,2.5-7.7c0.5-3.6,0.5-7.2,0.6-10.8C331.4,249,330.7,245.1,329.3,241.3z M313.1,261.4
		c-0.4,3.8-1.7,7.2-4.2,10c-1.5,1.7-3.1,3.4-5.2,4.4c-1.5,0.7-3.1,1.2-4.7,1.3c-3.9,0.3-7.6-0.2-11-2.4c-2.7-1.8-4.5-4.3-5.7-7.2
		c-1.2-2.7-1.8-5.6-2.1-8.6c-0.4-4.4-0.2-8.8,0.9-13.1c1-3.5,2.6-6.6,5.2-9.1c2.5-2.3,5.6-3.7,8.9-4c6-0.6,10.7,2,14.2,6.8
		c1.7,2.3,2.9,4.9,3.5,7.7c0.4,1.7,0.4,3.5,0.4,5.2c0,0.7,0,1.5,0,2.2C313.3,256.8,313.3,259.1,313.1,261.4z"/>
</g>
</svg>
