<?xml version="1.0" encoding="utf-8"?>
<!-- Generator: Adobe Illustrator 26.3.1, SVG Export Plug-In . SVG Version: 6.00 Build 0)  -->
<svg version="1.1" id="Layer_1" xmlns="http://www.w3.org/2000/svg" xmlns:xlink="http://www.w3.org/1999/xlink" x="0px" y="0px"
	 viewBox="0 0 595.3 595.3" style="enable-background:new 0 0 595.3 595.3;" xml:space="preserve">
<style type="text/css">
	.st0{fill:#FFFFFF;}
	.st1{fill:#FF5A5F;}
</style>
<path class="st0" d="M297.6,595.3L297.6,595.3C133.3,595.3,0,462,0,297.6l0,0C0,133.3,133.3,0,297.6,0l0,0
	C462,0,595.3,133.3,595.3,297.6l0,0C595.3,462,462,595.3,297.6,595.3z"/>
<path class="st1" d="M493.5,412.9c-0.8,46.8-27.4,81.9-68.5,92.5c-24.5,6.2-47.8,1.3-70-9.8c-20.2-10.3-36.9-25.1-52.5-41.3
	c-5.2-5.4-5.2-5.4-10.6,0c-15.5,16-32,30.7-51.9,41.1c-17.6,9-35.9,14-55.8,12.4c-39.5-3.1-72.6-31.8-80.6-71.3
	c-4.4-21.2-0.3-41.1,8.3-60.5c16.5-36.9,33.8-73.4,51.4-109.8c20.9-43.4,42.9-86.3,64.9-129.2c7.5-14.5,16.3-27.9,30.2-37.5
	c29.2-19.9,67.2-15.2,90.7,11.1c7,8,12.7,16.8,17.6,26.4c20.9,40.8,42.1,81.6,62.3,123c14,28.7,27.6,57.6,41.1,86.8
	c6.5,14,13.4,28.2,18.6,42.6C491.9,397.9,493.5,406.7,493.5,412.9z M298.2,242.6c3.6-0.3,8,0,12.4,0.8c35.4,6.2,62.5,35.1,57.6,79.3
	c-1.8,16.8-7.2,32.6-14.7,47.8c-9.8,20.4-22.7,39-36.9,56.6c-1.8,2.3-1.6,3.6,0.3,5.7c8.3,8.5,16.5,17.1,25.6,24.5
	c15.2,12.4,31.8,22.5,51.9,25.1c21.7,2.6,40.6-3.4,55.6-19.4c19.6-21.4,22.2-46.5,11.6-72.6c-11.9-29.2-26.1-57.6-39.5-86.3
	c-21.7-45.7-44.2-91-67.4-135.9c-6.2-11.9-11.6-24.3-19.6-35.1c-14.7-20.2-41.1-25.1-61.5-11.6c-9,5.9-14.7,14.5-19.6,23.8
	c-26.9,51.2-53,102.8-77.8,154.8c-14.2,29.7-28.4,59.2-41.6,89.4c-4.9,11.1-7.8,23-6.7,35.4c1.8,23.5,13.2,40.6,33.8,51.7
	c20.7,11.1,42.1,9.3,62.8-0.3c21.4-10.1,38.5-26.1,54.5-43.4c1.3-1.6,1-2.6,0-4.1c-5.7-7.2-11.4-14.7-16.8-22.5
	c-14.5-21.4-26.9-43.7-33.1-69.2c-3.9-16-4.4-32,1-47.8C239.2,261.5,266.9,242.1,298.2,242.6z M342.9,313.7c0-1.6,0-3.1,0-4.7
	c-0.8-14-6.5-25.8-18.1-33.8c-10.1-7-21.7-9.3-33.8-7.2c-17.6,2.8-30.2,11.9-35.9,29.2c-4.1,12.9-2.6,26.1,1,38.8
	c7.8,26.6,23,49.4,39.8,71.1c1.6,2.1,2.6,1.6,3.9-0.3c11.6-15.2,22.5-31,30.7-48.3C337.4,344.2,342.9,329.7,342.9,313.7z"/>
</svg>
