<?xml version="1.0" encoding="utf-8"?>
<!-- Generator: Adobe Illustrator 26.3.1, SVG Export Plug-In . SVG Version: 6.00 Build 0)  -->
<svg version="1.1" id="Layer_1" xmlns="http://www.w3.org/2000/svg" xmlns:xlink="http://www.w3.org/1999/xlink" x="0px" y="0px"
	 viewBox="0 0 595.3 595.3" style="enable-background:new 0 0 595.3 595.3;" xml:space="preserve">
<style type="text/css">
	.st0{fill:#FFFFFF;}
	.st1{fill:#FF5A5F;}
</style>
<path class="st0" d="M297.6,595.3L297.6,595.3C133.3,595.3,0,462,0,297.6v0C0,133.3,133.3,0,297.6,0h0
	C462,0,595.3,133.3,595.3,297.6v0C595.3,462,462,595.3,297.6,595.3z"/>
<g id="_x39_7eQT9.tif">
	<g>
		<path class="st1" d="M559.6,307.4c-0.7,1.4-0.4,3-0.6,4.5c-1.8,13.5-11.9,24.2-25.4,26.6c-6.4,1.1-12.6,0.6-18.2-3.2
			c-1-0.7-1.9-1.5-2.8-2.3c-0.2-0.2-0.4-0.4-0.7-0.2c-0.1,0.1-0.1,0.4-0.2,0.6c0,0.1,0,0.3,0,0.4c-0.1,3.3-0.5,3.7-3.7,3.7
			c-3.3,0-6.6,0-10,0c-1.2,0-1.6-0.3-1.6-1.5c0-16.4,0-32.8,0-49.2c0-12.7,0-25.5,0-38.2c0-1.7,0-1.7,1.8-1.7c4,0,8,0,12.1,0
			c1.2,0,1.5,0.4,1.5,1.5c0,10.2,0,20.4,0,30.6c0,0.4,0,0.9,0,1.3c0,0.3,0,0.6,0.3,0.7c0.3,0.1,0.5-0.1,0.7-0.3
			c6.4-6.2,14.2-6.8,22.3-5.1c12.8,2.8,22.2,13.3,23.9,26.2c0.2,1.5-0.1,3.2,0.6,4.6C559.6,306.7,559.6,307.1,559.6,307.4z
			 M511.9,306.7c0,3.2,0,6.4,0,9.6c0,1,0.3,1.9,0.9,2.6c4.6,5.2,10.4,6.5,17,5.3c11-2.1,16.1-11.5,13.8-22.1c-1.5-7-6.2-11-13-12.6
			c-6.9-1.7-12.8,0.2-17.8,5.3c-0.7,0.7-0.9,1.4-0.9,2.4C511.9,300.3,511.9,303.5,511.9,306.7z"/>
		<path class="st1" d="M187.2,342.3c-0.3,18.1-10.6,31.7-26.5,35.8c-9.5,2.4-18.5,0.5-27.1-3.8c-7.8-4-14.3-9.7-20.3-16
			c-2-2.1-2-2.1-4.1,0c-6,6.2-12.4,11.9-20.1,15.9c-6.8,3.5-13.9,5.4-21.6,4.8c-15.3-1.2-28.1-12.3-31.2-27.6
			c-1.7-8.2-0.1-15.9,3.2-23.4c6.4-14.3,13.1-28.4,19.9-42.5c8.1-16.8,16.6-33.4,25.1-50c2.9-5.6,6.3-10.8,11.7-14.5
			c11.3-7.7,26-5.9,35.1,4.3c2.7,3.1,4.9,6.5,6.8,10.2c8.1,15.8,16.3,31.6,24.1,47.6c5.4,11.1,10.7,22.3,15.9,33.6
			c2.5,5.4,5.2,10.9,7.2,16.5C186.6,336.5,187.2,339.9,187.2,342.3z M111.6,276.4c1.4-0.1,3.1,0,4.8,0.3
			c13.7,2.4,24.2,13.6,22.3,30.7c-0.7,6.5-2.8,12.6-5.7,18.5c-3.8,7.9-8.8,15.1-14.3,21.9c-0.7,0.9-0.6,1.4,0.1,2.2
			c3.2,3.3,6.4,6.6,9.9,9.5c5.9,4.8,12.3,8.7,20.1,9.7c8.4,1,15.7-1.3,21.5-7.5c7.6-8.3,8.6-18,4.5-28.1
			c-4.6-11.3-10.1-22.3-15.3-33.4c-8.4-17.7-17.1-35.2-26.1-52.6c-2.4-4.6-4.5-9.4-7.6-13.6c-5.7-7.8-15.9-9.7-23.8-4.5
			c-3.5,2.3-5.7,5.6-7.6,9.2c-10.4,19.8-20.5,39.8-30.1,59.9c-5.5,11.5-11,22.9-16.1,34.6c-1.9,4.3-3,8.9-2.6,13.7
			c0.7,9.1,5.1,15.7,13.1,20c8,4.3,16.3,3.6,24.3-0.1c8.3-3.9,14.9-10.1,21.1-16.8c0.5-0.6,0.4-1,0-1.6c-2.2-2.8-4.4-5.7-6.5-8.7
			c-5.6-8.3-10.4-16.9-12.8-26.8c-1.5-6.2-1.7-12.4,0.4-18.5C88.8,283.7,99.5,276.2,111.6,276.4z M128.9,303.9c0-0.6,0-1.2,0-1.8
			c-0.3-5.4-2.5-10-7-13.1c-3.9-2.7-8.4-3.6-13.1-2.8c-6.8,1.1-11.7,4.6-13.9,11.3c-1.6,5-1,10.1,0.4,15c3,10.3,8.9,19.1,15.4,27.5
			c0.6,0.8,1,0.6,1.5-0.1c4.5-5.9,8.7-12,11.9-18.7C126.8,315.7,128.9,310.1,128.9,303.9z"/>
		<path class="st1" d="M362.4,292.1c0-14.5,0-29,0-43.5c0-1.9,0-1.9,2-1.9c3.8,0,7.7,0,11.5,0c1.7,0,1.8,0,1.8,1.7
			c0,10.1,0,20.2,0,30.4c0,0.3,0,0.7,0,1c0,0.3-0.1,0.8,0.2,1c0.4,0.2,0.6-0.2,0.9-0.4c4.3-4.1,9.5-5.7,15.4-5.7
			c14.5,0,28.1,9.9,30.6,26.4c1.7,11.1-1,21.2-9.2,29.3c-5,4.9-11.1,7.6-18.1,8.4c-5.4,0.6-10.6,0-15.4-2.9
			c-1.3-0.8-2.5-1.8-3.6-2.8c-0.2-0.2-0.4-0.5-0.8-0.3c-0.3,0.1-0.2,0.4-0.3,0.7c0,0.6,0,1.2,0,1.8c-0.1,1.3-0.8,2.1-2.1,2.1
			c-4,0-8,0-11.9,0c-1,0-1-0.6-1-1.3c0-3.9,0-7.9,0-11.8C362.4,313.6,362.4,302.9,362.4,292.1z M377.6,306.7c0,3.1,0.1,6.1,0,9.2
			c-0.1,1.6,0.5,2.7,1.5,3.7c4.5,4.5,10,5.8,16.1,4.6c11.5-2.1,16.1-11.9,14.1-21.7c-1.4-6.9-5.7-11.1-12.4-12.9
			c-7.2-2-13.4-0.2-18.6,5.2c-0.5,0.6-0.8,1.2-0.8,2C377.6,300.1,377.6,303.4,377.6,306.7z"/>
		<path class="st1" d="M283.1,306.9c0,9.6,0,19.2,0,28.8c0,1.7,0,1.7-1.8,1.7c-3.5,0-7,0-10.5,0c-2.1,0-2.8-0.7-2.9-2.8
			c0-0.6,0.3-1.6-0.2-1.8c-0.6-0.3-1,0.6-1.5,1c-3.8,3.3-8.2,5-13.1,5.2c-8.9,0.3-16.8-2.4-23.3-8.6c-4.9-4.7-7.8-10.4-9-17.1
			c-1.5-8.6-0.3-16.9,4.5-24.3c5-7.9,12.3-12.5,21.6-13.9c5-0.7,10-0.5,14.7,1.7c1.9,0.9,3.7,2.1,5.3,3.6c0.2,0.2,0.4,0.5,0.8,0.4
			c0.4-0.1,0.2-0.5,0.3-0.8c0-0.4,0-0.9,0-1.3c0-1.6,0.8-2.4,2.4-2.4c3.6,0,7.2,0,10.7,0c1.9,0,1.9,0,1.9,1.9
			C283.1,287.8,283.1,297.4,283.1,306.9z M268,306.9c0-2.8-0.2-5.7,0.1-8.5c0.2-2.4-0.9-3.9-2.6-5.3c-6.7-5.6-16.3-5-22.7-0.6
			c-4.3,2.9-6.4,7.2-6.9,12.2c-0.5,5.6,0.6,10.7,4.7,14.8c3.3,3.3,7.4,4.8,12.1,5.2c5.9,0.5,10.7-1.4,14.6-5.8
			c0.5-0.6,0.8-1.2,0.7-2C268,313.5,268,310.2,268,306.9z"/>
		<path class="st1" d="M432.1,306.9c0-9.6,0-19.3,0-28.9c0-1.2,0.3-1.7,1.6-1.6c3.3,0.1,6.6,0,10,0c2.1,0,2.7,0.6,2.7,2.6
			c0,0.6-0.3,1.5,0.3,1.8c0.7,0.3,1-0.6,1.5-1c4-3.3,8.5-4.8,13.6-5.1c6.2-0.3,12,0.9,17.1,4.5c5.6,3.9,8.5,9.3,8.8,16
			c0.7,13.6,0.1,27.3,0.3,40.9c0,0.9-0.3,1.2-1.2,1.2c-4.3,0-8.6,0-12.8,0c-1.2,0-1.2-0.6-1.2-1.5c0-11.3,0-22.7,0-34
			c0-2-0.3-3.9-0.7-5.8c-1-4.1-3.6-6.6-7.7-7.4c-6-1.1-11.2,0.6-15.7,4.6c-0.9,0.8-1.2,1.7-1.2,2.9c0,13.1,0,26.3,0,39.4
			c0,1.7,0,1.7-1.7,1.7c-4,0-8,0-12.1,0c-1.1,0-1.5-0.3-1.5-1.5C432.1,326.3,432.1,316.6,432.1,306.9z"/>
		<path class="st1" d="M318.9,306.9c0-9.6,0-19.3,0-28.9c0-1.2,0.3-1.6,1.5-1.6c3.7,0.1,7.3,0,11,0c1.9,0,2.7,0.7,2.7,2.7
			c0,0.2,0,0.4,0,0.7c0.1,0.4-0.2,1,0.3,1.2c0.4,0.1,0.6-0.4,0.9-0.6c5.5-4.9,11.9-6.4,19-5.1c0.9,0.2,1.3,0.5,1.3,1.6
			c-0.1,3.8-0.1,7.7,0,11.5c0,1.2-0.4,1.3-1.4,1c-4.3-1-8.5-1-12.8,0.5c-2.3,0.8-4.2,2.1-6,3.6c-0.9,0.8-1.3,1.7-1.3,3
			c0,13,0,26,0,39c0,2.1,0,2.1-2.1,2.1c-3.8,0-7.5,0-11.3,0c-1.9,0-1.9,0-1.9-1.8C318.9,326.1,318.9,316.5,318.9,306.9z"/>
		<path class="st1" d="M293.4,306.9c0-9.6,0-19.3,0-28.9c0-1.3,0.3-1.7,1.6-1.6c4.1,0.1,8.2,0.1,12.3,0c1,0,1.4,0.3,1.4,1.3
			c0,19.5,0,38.9,0,58.4c0,1-0.3,1.4-1.3,1.4c-4.1,0-8.3-0.1-12.4,0c-1.1,0-1.5-0.3-1.5-1.5C293.5,326.3,293.4,316.6,293.4,306.9z"
			/>
		<path class="st1" d="M301.1,267.3c-5.8,0-10.5-4.7-10.5-10.4c0-5.7,4.7-10.4,10.3-10.3c5.6,0.1,10.6,4.1,10.6,10.4
			C311.4,264,305.7,267.5,301.1,267.3z"/>
	</g>
</g>
</svg>
