<svg xmlns="http://www.w3.org/2000/svg" xml:space="preserve" style="enable-background:new 0 0 595.3 595.3" viewBox="0 0 595.3 595.3"><path d="M297.6 595.3C133.3 595.3 0 462 0 297.6 0 133.3 133.3 0 297.6 0 462 0 595.3 133.3 595.3 297.6c0 164.4-133.3 297.7-297.7 297.7" style="fill:#fff"/><path d="M493.5 412.9c-.8 46.8-27.4 81.9-68.5 92.5-24.5 6.2-47.8 1.3-70-9.8-20.2-10.3-36.9-25.1-52.5-41.3-5.2-5.4-5.2-5.4-10.6 0-15.5 16-32 30.7-51.9 41.1-17.6 9-35.9 14-55.8 12.4-39.5-3.1-72.6-31.8-80.6-71.3-4.4-21.2-.3-41.1 8.3-60.5 16.5-36.9 33.8-73.4 51.4-109.8 20.9-43.4 42.9-86.3 64.9-129.2 7.5-14.5 16.3-27.9 30.2-37.5 29.2-19.9 67.2-15.2 90.7 11.1 7 8 12.7 16.8 17.6 26.4 20.9 40.8 42.1 81.6 62.3 123 14 28.7 27.6 57.6 41.1 86.8 6.5 14 13.4 28.2 18.6 42.6 3.2 8.5 4.8 17.3 4.8 23.5M298.2 242.6c3.6-.3 8 0 12.4.8 35.4 6.2 62.5 35.1 57.6 79.3-1.8 16.8-7.2 32.6-14.7 47.8-9.8 20.4-22.7 39-36.9 56.6-1.8 2.3-1.6 3.6.3 5.7 8.3 8.5 16.5 17.1 25.6 24.5 15.2 12.4 31.8 22.5 51.9 25.1C416.1 485 435 479 450 463c19.6-21.4 22.2-46.5 11.6-72.6-11.9-29.2-26.1-57.6-39.5-86.3-21.7-45.7-44.2-91-67.4-135.9-6.2-11.9-11.6-24.3-19.6-35.1-14.7-20.2-41.1-25.1-61.5-11.6-9 5.9-14.7 14.5-19.6 23.8-26.9 51.2-53 102.8-77.8 154.8-14.2 29.7-28.4 59.2-41.6 89.4-4.9 11.1-7.8 23-6.7 35.4 1.8 23.5 13.2 40.6 33.8 51.7 20.7 11.1 42.1 9.3 62.8-.3 21.4-10.1 38.5-26.1 54.5-43.4 1.3-1.6 1-2.6 0-4.1-5.7-7.2-11.4-14.7-16.8-22.5-14.5-21.4-26.9-43.7-33.1-69.2-3.9-16-4.4-32 1-47.8 9.1-27.8 36.8-47.2 68.1-46.7m44.7 71.1V309c-.8-14-6.5-25.8-18.1-33.8-10.1-7-21.7-9.3-33.8-7.2-17.6 2.8-30.2 11.9-35.9 29.2-4.1 12.9-2.6 26.1 1 38.8 7.8 26.6 23 49.4 39.8 71.1 1.6 2.1 2.6 1.6 3.9-.3 11.6-15.2 22.5-31 30.7-48.3 6.9-14.3 12.4-28.8 12.4-44.8" style="fill:#ff5a5f"/></svg>