<?xml version="1.0" encoding="utf-8"?>
<!-- Generator: Adobe Illustrator 26.3.1, SVG Export Plug-In . SVG Version: 6.00 Build 0)  -->
<svg version="1.1" id="Layer_1" xmlns="http://www.w3.org/2000/svg" xmlns:xlink="http://www.w3.org/1999/xlink" x="0px" y="0px"
	 viewBox="0 0 595.3 595.3" style="enable-background:new 0 0 595.3 595.3;" xml:space="preserve">
<style type="text/css">
	.st0{fill:#FFFFFF;}
	.st1{fill:url(#SVGID_1_);}
	.st2{fill:url(#SVGID_00000183241923187763540400000013259835633863702204_);}
	.st3{fill:url(#SVGID_00000137851945887277095030000003875368665754229665_);}
	.st4{fill:url(#SVGID_00000127017803051680195330000009175003665044741565_);}
	.st5{fill:url(#SVGID_00000026158569177667982100000014704826836003563396_);}
	.st6{fill:url(#SVGID_00000083806040763428664480000001565218480832153993_);}
	.st7{fill:url(#SVGID_00000057140415512395023000000008570264276530004634_);}
	.st8{fill:url(#SVGID_00000036961029580913983550000018400555281337422242_);}
</style>
<path class="st0" d="M297.6,595.3L297.6,595.3C133.3,595.3,0,462,0,297.6l0,0C0,133.3,133.3,0,297.6,0l0,0
	C462,0,595.3,133.3,595.3,297.6l0,0C595.3,462,462,595.3,297.6,595.3z"/>
<g>
	<linearGradient id="SVGID_1_" gradientUnits="userSpaceOnUse" x1="462.0199" y1="261.9597" x2="462.0199" y2="356.5352">
		<stop  offset="0" style="stop-color:#62B7C7"/>
		<stop  offset="1" style="stop-color:#408B96"/>
	</linearGradient>
	<path class="st1" d="M493.9,293.3c-0.9-19.1-12.9-31.3-30.8-31.3c-19.9,0-31.2,11.8-32.6,33.8c0,0,0,0,0,0
		c-0.1,6.6-0.2,13.2-0.3,19.7c-0.1,10.6-0.5,21.3-0.3,31.9c0.1,5.8,3.7,9.1,9.5,9.2c5.9,0,9.2-3.5,9.5-9.2c0.3-6.9,0.1-13.8,0.1-21
		c21.9,6.3,31.2,3.1,41-13.4C494.4,307,494.5,300.2,493.9,293.3z M466.3,312.5c-1.7-0.1-9.2,2.8-12.9-1.2
		c-2.9-3.2-2.6-11.9-2.6-14.4c0-3.3-0.1-5.3,0-6.9c0.4-6.4,4-10.2,10.7-10.6c9.3-0.5,11.7,7.1,12.6,13.7
		C475.2,300.3,473.9,309.9,466.3,312.5C466.3,312.5,466.3,312.5,466.3,312.5z"/>
	
		<linearGradient id="SVGID_00000003808856427404808280000010038154325470523827_" gradientUnits="userSpaceOnUse" x1="283.4786" y1="261.0557" x2="283.4786" y2="285.8062">
		<stop  offset="0" style="stop-color:#62B7C7"/>
		<stop  offset="1" style="stop-color:#408B96"/>
	</linearGradient>
	<path style="fill:url(#SVGID_00000003808856427404808280000010038154325470523827_);" d="M307.7,273.2
		c-7.5-15.2-33.8-16.1-47.8-2.8c-5.5,7.5-2.5,10.1,5.8,11.5c5.2,0.9,7.9-2.9,11.9-4c7.6-2.1,14.9-3.5,16,7.7
		c6.2,0.7,11.9-2.1,16.4-4.9C309.5,277.1,309,276,307.7,273.2z"/>
	
		<linearGradient id="SVGID_00000142138945136210123100000008504926011886321327_" gradientUnits="userSpaceOnUse" x1="166.7334" y1="238.7648" x2="166.7334" y2="330.3253">
		<stop  offset="0" style="stop-color:#62B7C7"/>
		<stop  offset="1" style="stop-color:#408B96"/>
	</linearGradient>
	<path style="fill:url(#SVGID_00000142138945136210123100000008504926011886321327_);" d="M175.8,321.4c-0.1-4.4-0.4-8.9-0.6-13.3
		c0-4.1,0.1-8.3,0.1-12.4c0.1-15.6,0.3-31.2,0.4-46.8c0-7.5-4.5-9.7-11.3-10c-8.4-0.4-6.7,5.4-6.7,10.1c0,15.6,0.2,31.2,0.4,46.8
		c0,0,0,0,0,0c0,4.1,0,8.3,0.1,12.4c-0.1,4.9-0.7,9.7-0.2,14.5c0.7,7,6,7.5,11.7,7.7C177,330.6,175.9,325.7,175.8,321.4z"/>
	
		<linearGradient id="SVGID_00000067916044205407441430000016634574266385803930_" gradientUnits="userSpaceOnUse" x1="336.4653" y1="260.8114" x2="336.4653" y2="333.645">
		<stop  offset="0" style="stop-color:#62B7C7"/>
		<stop  offset="1" style="stop-color:#408B96"/>
	</linearGradient>
	<path style="fill:url(#SVGID_00000067916044205407441430000016634574266385803930_);" d="M420,320.1c0.1-4-0.3-8-0.5-12.1
		c0-4.1,0.1-8.3,0.1-12.4c1.5-27.7-16.2-41.3-42.1-31.8c-5.2,1.9-9.2,1.5-14.1-0.3c-13.6-5-26-2.8-36.7,7.1
		c-4.9,4.6-10.5,7.8-16.8,10.2c-6.8,2.6-8.9,3.2-16.4,4.9c-6.9,2-14,3.3-20.8,5.3c-9.1,2.6-19.9,3.9-19.8,17.1
		c-0.6,14.8,5.8,23,19.4,24.7c24.9,3.1,34.7-1.9,38.1-19.8c0.9-4.4,1.4-6.3,1.6-9.8c0.9-16,0.9-16,9.8-19.6c0.2,4,0.4,8.1,0.6,12.1
		h0c0,4.1,0.1,8.3,0.1,12.4c-0.2,4-0.5,8.1-0.5,12.1c-0.1,8.1,4.9,10,12,10.2c8.5,0.2,6-5.8,6.1-10.1c0.2-4-0.3-8.1-0.5-12.1
		c0-4.1,0-8.3,0.1-12.4c1.2-8.4,2.1-17.5,14.3-14.9c7.7,1.6,7.3,9,8.4,14.9h0c0,4.1,0.1,8.3,0.1,12.4c-0.1,4.8-0.7,9.7-0.2,14.5
		c0.7,6.9,6.1,7.4,11.7,7.7c7.3,0.4,6.3-4.6,6.2-8.9c-0.1-4.4-0.4-8.9-0.6-13.3c0-4.1,0.1-8.3,0.1-12.4c1.1-7.8,1.8-16.6,13.1-15.2
		c8.6,1.1,8.4,8.8,9.5,15.2c0,0,0,0,0,0c0,4.1,0.1,8.3,0.1,12.4c-0.2,4-0.5,8.1-0.5,12.1c0,8.1,5,10,12.1,10.1
		C422.3,330.4,419.8,324.4,420,320.1z M292.6,312.9c-8.5,6.9-27.1,3.8-24.8-5.1c1.8-7,14.7-9.1,23-9.6c2.8-0.2,4,2.3,4,4.7
		C294.8,306.4,295.2,310.8,292.6,312.9z"/>
	
		<linearGradient id="SVGID_00000134965767139386922010000009277878337159954091_" gradientUnits="userSpaceOnUse" x1="530.7038" y1="261.8171" x2="530.7038" y2="330.6108">
		<stop  offset="0" style="stop-color:#62B7C7"/>
		<stop  offset="1" style="stop-color:#408B96"/>
	</linearGradient>
	<path style="fill:url(#SVGID_00000134965767139386922010000009277878337159954091_);" d="M541.7,291.3c-2.8-0.7-5.4-2.1-8.1-3.1
		c-4.2-1.5-9.3-1.6-11.4-6.4c-0.9-2.2,0.8-4.1,2.7-4.9c5.4-2,10.6-1.6,14.9,2.7c0.6,0.6,1.1,1.2,1.8,1.7c4.7,3.4,9.5,3.8,13.2-0.9
		c3.9-5.1,0.7-9.3-3.4-12.7c-9.8-8.1-31.2-7.9-40.8,0.3c-10.7,9.1-9.3,22.6,3.2,30.2c7.6,6.5,25.5,1.4,26.2,12.3
		c0.6,10.2-13.3,10.4-19.6,4.2c-3.8-3.7-5.4-9.4-11.7-8.7c-4.9,0.6-7.8,3.8-6.7,9.3c2.2,11.9,12.1,13.8,21.4,14.7
		c12.6,1.2,24.3,1.6,33.3-12.1c1.7-2.5,4-10.6,2.4-14.9C556.5,296.2,549.4,293.2,541.7,291.3z"/>
	
		<linearGradient id="SVGID_00000023244645430581571810000004475179140295416715_" gradientUnits="userSpaceOnUse" x1="216.1135" y1="261.4069" x2="216.1135" y2="331.4182">
		<stop  offset="0" style="stop-color:#62B7C7"/>
		<stop  offset="1" style="stop-color:#408B96"/>
	</linearGradient>
	<path style="fill:url(#SVGID_00000023244645430581571810000004475179140295416715_);" d="M240.4,305.7c-6.8-3-8.8,2.6-13.1,7
		c-5.5,5.6-15.7,6.2-19.7-2.2c-2.2-4.6-3-9.8-3.1-14.8c-0.4-19.4,10.4-22.4,25.8-11.6c4.1,2.9,8.1,4.4,12.1,0.3
		c3.8-3.9,3.2-8.1,0.1-12.2c-3.1-4-7.2-6.7-12-8.4c-23-8.2-43.5,5.4-43.9,24.1c-0.1,6.1-0.5,20.1,2.2,25c12,21.8,39.9,25,54.2,5.6
		C246.7,313.3,246.6,308.4,240.4,305.7z"/>
	
		<linearGradient id="SVGID_00000174565037685388819080000001256426614824663971_" gradientUnits="userSpaceOnUse" x1="108.6323" y1="260.7738" x2="39.1096" y2="260.7738">
		<stop  offset="0" style="stop-color:#E48C4E"/>
		<stop  offset="0.5036" style="stop-color:#FDF5E8"/>
		<stop  offset="1" style="stop-color:#E48C4E"/>
	</linearGradient>
	<path style="fill:url(#SVGID_00000174565037685388819080000001256426614824663971_);" d="M105.7,260.5
		c-9.9-19.9-44.3-21.1-62.5-3.6c-7.2,9.8-4.8,17.2,5.9,19c6.9,1.2,11.9-7.7,17.1-9.2c10-2.8,19.5-4.6,20.9,10.1
		c8.1,0.9,15.6-2.7,21.5-6.4C108.2,265.6,107.5,264.1,105.7,260.5z"/>
	
		<linearGradient id="SVGID_00000145768195984220533150000002125304661200631697_" gradientUnits="userSpaceOnUse" x1="88.8149" y1="238.8047" x2="88.8149" y2="333.5325">
		<stop  offset="0" style="stop-color:#62B7C7"/>
		<stop  offset="1" style="stop-color:#408B96"/>
	</linearGradient>
	<path style="fill:url(#SVGID_00000145768195984220533150000002125304661200631697_);" d="M140.6,315.3c0-6.6-0.1-13.1-0.1-19.7
		c0.1-15.9,0.3-31.7,0.2-47.6c-0.1-7.6-5.4-9.1-11.8-9.2c-7.5-0.1-6,5.3-5.8,9.4c0.1,1.3,0.1,4.7,0.1,9.4
		c-6.8,3.9-15,12.3-34.6,18.4c-10.7,3.4-21.6,4.4-32.1,7.6c-8.8,2.6-17.5,5.6-19.1,16.5c-3.8,8.6-1.3,16.2,4.7,22.5
		c13.2,13.7,30,11.9,46.2,8.6c14.5-3,18.3-14.9,19.2-27.9c-2.3-0.1-4.6-0.1-6.9-0.2c2.3,0.1,4.6,0.1,6.9,0.2
		c2.4-22.8,5.7-26.3,15.7-39.6c0.1,18.5,0.1,47.2,0.1,51.8c-1.5,9.2,0.6,15.9,11.9,14.7C146.7,329,140,320.7,140.6,315.3z
		 M87.6,302.8C87.6,302.8,87.6,302.8,87.6,302.8c-3,10.8-11.4,13-20.9,12.2c-8.1-0.8-12.1-5.9-11.2-14.2c9.2-8.1,20.9-8.6,32.1-10.7
		c0,0,0.8,0.9,0.8,0.9C88,294.8,87.8,298.8,87.6,302.8z"/>
</g>
</svg>
