<svg xmlns="http://www.w3.org/2000/svg" xml:space="preserve" style="enable-background:new 0 0 595.3 595.3" viewBox="0 0 595.3 595.3"><path d="M297.6 595.3C133.3 595.3 0 462 0 297.6 0 133.3 133.3 0 297.6 0 462 0 595.3 133.3 595.3 297.6c0 164.4-133.3 297.7-297.7 297.7" style="fill:#fff"/><linearGradient id="a" x1="423.638" x2="118.374" y1="421.903" y2="421.903" gradientTransform="matrix(1 0 0 -1 0 595.276)" gradientUnits="userSpaceOnUse"><stop offset="0" style="stop-color:#e48c4e"/><stop offset=".504" style="stop-color:#fdf5e8"/><stop offset="1" style="stop-color:#e48c4e"/></linearGradient><path d="M410.9 172.1c-43.5-87.4-194.5-92.6-274.4-15.8-31.6 43-21.1 75.5 25.9 83.4 30.3 5.3 52.3-33.8 75.1-40.4 43.9-12.3 85.6-20.2 91.8 44.3 35.6 4 68.5-11.9 94.4-28.1-1.8-21-4.9-27.5-12.8-43.4" style="fill:url(#a)"/><linearGradient id="b" x1="297.65" x2="297.65" y1="435.86" y2="102.385" gradientTransform="matrix(1 0 0 -1 0 595.276)" gradientUnits="userSpaceOnUse"><stop offset="0" style="stop-color:#62b7c7"/><stop offset="1" style="stop-color:#408b96"/></linearGradient><path d="M487.7 159.4c-29.9 17.1-65.9 54-151.9 80.8-47 14.9-94.8 19.3-140.9 33.4C156.2 285 118 298.2 111 346c-16.7 37.8-5.7 71.1 20.6 98.8 58 60.2 131.7 52.3 202.9 37.8 63.7-13.2 80.4-65.4 84.3-122.5-10.1-.4-20.2-.4-30.3-.9 10.1.4 20.2.4 30.3.9 10.5-100.1 25-115.5 68.9-173.9 8.4-9.3 3-25.9 0-26.8M331.4 357.9c-13.2 47.4-50.1 57.1-91.8 53.6-35.6-3.5-53.1-25.9-49.2-62.4 40.4-35.6 91.8-37.8 140.9-47l3.5 4c-1.6 16.7-2.5 34.2-3.4 51.8" style="fill:url(#b)"/></svg>