<?xml version="1.0" encoding="utf-8"?>
<!-- Generator: Adobe Illustrator 26.3.1, SVG Export Plug-In . SVG Version: 6.00 Build 0)  -->
<svg version="1.1" id="Layer_1" xmlns="http://www.w3.org/2000/svg" xmlns:xlink="http://www.w3.org/1999/xlink" x="0px" y="0px"
	 viewBox="0 0 595.3 595.3" style="enable-background:new 0 0 595.3 595.3;" xml:space="preserve">
<style type="text/css">
	.st0{fill:#FFFFFF;}
	.st1{fill:#164274;}
</style>
<path class="st0" d="M297.6,595.3L297.6,595.3C133.3,595.3,0,462,0,297.6l0,0C0,133.3,133.3,0,297.6,0l0,0
	C462,0,595.3,133.3,595.3,297.6l0,0C595.3,462,462,595.3,297.6,595.3z"/>
<g id="JSZzBp.tif_00000159466900505754915330000012141580061310980278_">
	<g>
		<path class="st1" d="M286.1,498.7c-14.3-3.2-28.9-4.7-42.9-9.3c-71.4-23.6-120.9-92.3-119.9-167.3c1-77.8,52.4-145.8,126-166.8
			c102.8-29.4,205.8,36.3,222.7,142.1c15.4,96.5-55.2,188.8-152.7,199.6c-2.4,0.3-4.9,0.1-7,1.8
			C303.6,498.7,294.9,498.7,286.1,498.7z M136.3,322.9c-1,88,71.4,161.8,159.5,162.7c90.5,0.9,164.3-70.6,165.4-160.3
			c1.1-89.2-70.9-163.2-159.8-164.3C210.1,159.9,137.3,231.2,136.3,322.9z"/>
		<path class="st1" d="M107.7,204c2.7-5.9,4.7-12.5,12.6-13.6c2.1-0.3,5-1,5.7,1.6c0.6,2.3-1.6,3.5-4.2,3.8
			c-5.6,0.6-8.4,3.9-7.2,9.5c1,5.1,9.8,11.1,14.6,9.9c5.7-1.4,8.3-5.1,5.6-11c-1-2.2-0.1-4.1,1.6-4.9c2.5-1,3.1,1.6,3.7,3.2
			c2.1,5,1.1,9.7-2.4,13.7c-3.4,4-7.6,5.9-13.1,4.6c-8.5-1.9-13.2-7.9-16.8-15.2C107.7,205.1,107.7,204.5,107.7,204z"/>
		<path class="st1" d="M161.9,156.9c3.3,4.3,6.5,8.6,9.8,12.9c1.2,1.6,2.4,3.1,0.3,4.9c-2.3,2-3.4-0.1-4.5-1.5
			c-4.7-6-9.2-12.1-13.9-18.1c-1.8-2.3-2.3-4.1,0.4-6.1c2.3-1.7,4.2-3.2,7.1-0.7c4.7,4.1,9.6,7.8,15.5,12.6
			c-0.7-7.5-4.2-12.5-6.6-17.7c-1.7-3.7-1.2-5.8,2.1-8.1c4.2-3,5.2,0.9,6.8,2.9c4.4,5.5,8.6,11.2,12.9,16.8c1.2,1.5,2.6,3,0.2,4.7
			c-2.2,1.7-3.4,0.2-4.6-1.4c-3.4-4.5-6.9-9-10.8-13.2c0.4,6,3.7,10.8,5.8,16c0.9,2.2,2.5,4.4-0.5,6.4c-2.4,1.6-4.1,0.1-5.8-1.3
			c-4.3-3.5-8.6-7.1-12.9-10.7C162.8,155.9,162.4,156.4,161.9,156.9z"/>
		<path class="st1" d="M291.3,104.8c-3.5,2.2-5.4-0.7-8-2c-3.9-2.1-8.2-1.8-11.1,2c-3.9,5.2-3.3,10.9-0.2,16.1
			c2.4,3.9,6.4,4.8,10.8,3.2c2.5-0.9,4.4-2.6,4.6-5.2c0.1-3.1-2.6-1.8-4.2-2.2c-2.7-0.6-3.1-2.3-1.2-4c3.9-3.5,10.7-0.9,11.5,4.3
			c0.5,3.2,1.2,6.4,0.1,9.7c-6.7-2.4-11.7,5.1-18.6,3c-8.3-2.6-13.3-12.5-10.5-22c2.6-8.9,11.2-13.3,20-10.1
			C288,98.9,290.9,100.7,291.3,104.8z"/>
		<path class="st1" d="M237.2,116.9c-0.3,5.4,2.6,10.3,3.4,15.5c0.3,1.9,1.4,3.8-1.4,4.6c-2.7,0.7-3.2-1.1-3.7-3.1
			c-1.9-7.3-4-14.7-6-22c-0.5-1.8-1-3.8,1.2-5c2.2-1.2,4.2-0.8,5.9,1c4.7,4.8,9.4,9.6,15.1,15.4c0.8-7-2.2-11.5-2.9-16.4
			c-0.3-2.1-1.1-4.7,2-5.3c2.7-0.5,2.8,2.2,3.2,3.8c1.9,6.5,3.7,13,5.2,19.7c0.5,2.1,2.9,4.7-0.2,6.5c-3.2,1.9-5.7,0-7.7-2.5
			c-4-4.7-7.9-9.5-11.9-14.2C238.7,115.6,238,116.2,237.2,116.9z"/>
		<path class="st1" d="M448.8,158.7c7.9,0.3,15.2,8.2,14.5,15.8c-0.2,1.7,0.2,4.4-2.5,4.2c-1.6-0.1-2.7-1.8-2.6-3.7
			c0.5-5.8-2.1-9.8-7.8-10.5c-6.2-0.7-10.1,3.5-13,8.3c-2.8,4.7-0.2,10.8,5,12.7c1.9,0.7,3.8,0.9,5.5-0.2c2.6-1.8,0.4-3.2-0.7-4.6
			c-0.9-1.2-1.5-2.4-0.1-3.5c0.5-0.4,1.8-0.8,2.2-0.5c2.6,2.6,7.8,4.7,6.5,8.4c-1.6,4.3-5.6,8.4-10.4,9.7
			c-2.8,0.8-14.6-14.1-14.8-17.7C430.1,168.3,439.8,158.4,448.8,158.7z"/>
		<path class="st1" d="M476.8,207.4c-0.7,0.9-1.1,1.6-1.7,2.1c-1.1,0.8-2.1,0.4-2.8-0.6c-1.6-2.2-3.3-4.3-4.7-6.6
			c-1.9-3-3.7-4.2-7.1-1.7c-3.2,2.3-2.4,4.3-0.6,6.7c1.9,2.6,3.8,5.3,5.6,8c1.1,1.6,0.8,3.1-0.9,4.1c-1.7,0.9-2.5-0.4-3.2-1.5
			c-3.3-4.6-6.5-9.4-9.8-14c-1.9-2.6-0.3-3.9,1.6-5.2c6.2-4.3,12.6-8.6,18.7-13.1c2.9-2.1,4.7-1.7,6.5,1.3c2.3,3.7,5,7.1,7.4,10.7
			c1.1,1.6,3.6,3.6,0.7,5.4c-2.8,1.7-3.6-1.4-4.9-2.9c-1.6-1.9-2.9-4-4.2-6c-1.3-1.9-2.7-3.4-5.3-1.7c-2.5,1.7-3,3.5-1.1,6
			C472.9,201.5,474.7,204.5,476.8,207.4z"/>
		<path class="st1" d="M160.3,182.6c-7.2-0.7-12,4.3-10.3,11.1c0.6,2.6,0.4,4.6-1.9,5.4c-2.6,1-2.8-2-3.6-3.5
			c-3.7-6.7-7.1-13.5-10.7-20.2c-1.2-2.3-2.2-4.2-0.1-6.7c2.3-2.8,4.6-2.1,7.2-0.9c7,3.1,14.1,5.9,21,9c1.5,0.7,4.4,0.6,3.6,3.4
			C164.9,182.6,162.9,183.6,160.3,182.6z M140.5,174.9c1.8,3.2,1.2,8,6,8.8c1,0.2,3.8-2.7,3.5-3.7
			C148.9,175.4,144.5,175.7,140.5,174.9z"/>
		<path class="st1" d="M432.5,142.8c-2.9,9.4-5.6,18.5-8.4,27.5c-0.4,1.3-1.2,2.5-3,1.5c-1.5-0.9-2.1-2.1-2.3-3.9
			c-0.8-8.9-4.1-11.2-13-9c-1.9,0.5-3.2-0.1-4.3-1.4c-1.6-1.9,0.3-2.9,1.5-3.8c7.1-4.9,14.2-10,21.5-14.6
			C428.6,136.7,430.9,139.5,432.5,142.8z M425.7,145.5c-4.5,2.7-8.8,3.6-9.6,7.9c-0.3,1.7,3.1,4.1,4.6,3.4
			C424.7,154.9,424.2,150.4,425.7,145.5z"/>
		<path class="st1" d="M212,132.2c0,2.4-3,4.8-6.5,6.5c-4.5,2.1-6.5,4.6-3.1,9.3c1.4,2,2.9,4.4-0.7,5.9c-3.3,1.4-3.5-1.7-4.4-3.3
			c-3.4-6.2-6.6-12.5-10-18.7c-1.8-3.2-2-5.4,1.9-7c3-1.3,5.7-3.1,8.8-4.3C205.1,117.7,211.8,122.4,212,132.2z M205.9,130
			c-0.9-2.9-2.3-5.6-5.5-4.8c-2.8,0.7-7.2,0.9-6.5,5.3c0.4,2.5,1.1,6.7,5,6C202.1,135.9,205.5,134.2,205.9,130z"/>
		<path class="st1" d="M326.4,120.3c2.5-5.7,5-11.3,7.5-17c0.9-2.1,2-4.1,4.8-3.2c3.7,1.3,1.2,3.6,0.5,5.2
			c-3.4,7.1-7,14.1-10.5,21.2c-1,2.1-2.1,3.7-4.9,3.4c-2.4-0.3-2.9-1.9-3.3-3.9c-1.5-7.7-3.2-15.4-4.6-23.2
			c-0.3-1.8-1.5-4.8,2.1-4.9c3-0.1,3.2,2.4,3.6,4.6c0.9,5.8,1.8,11.6,2.7,17.4C325,120,325.7,120.1,326.4,120.3z"/>
		<path class="st1" d="M374.8,139.3c-0.5,3.5-2.1,3.6-4.3,2.8c-4.6-1.7-9.2-3.4-13.8-4.9c-2.5-0.9-3.4-2-2.4-4.9
			c2.8-7.4,5.2-14.9,7.9-22.3c0.6-1.6,0.9-3.8,3.9-2.9c3.2,1,2.3,3.1,1.6,5.2c-1.7,4.9-3,10-5.2,14.6c-2.5,5.3-0.5,7.3,4.4,8.8
			C369.7,136.4,373.2,136.6,374.8,139.3z"/>
		<path class="st1" d="M399.2,150.3c-0.9,4.3-2.4,4.6-4.5,3.5c-4.6-2.4-9.1-4.8-13.7-7c-2.7-1.3-2.5-3-1.3-5.2
			c3.7-6.9,7.3-13.9,11-20.8c0.9-1.7,1.6-3.5,4.2-2.3c3,1.4,1.8,3.3,0.8,5.3c-0.9,1.7-1.7,3.4-2.6,5.1c-2.2,4.4-5.9,8.6-6.1,13.1
			c-0.3,5.3,6.9,4.7,10.1,7.6C397.9,150.2,399.2,150.3,399.2,150.3z"/>
		<path class="st1" d="M229.6,138c0.5,2.1-0.4,3-1.8,3.4c-1.5,0.5-2.8,0.2-3.4-1.3c-3.4-8.3-6.7-16.6-9.9-25c-0.6-1.4,0.4-2.4,2-2.9
			c1.5-0.5,2.9-0.2,3.4,1.2C223.3,121.7,226.5,130.1,229.6,138z"/>
		<path class="st1" d="M353.4,107c-2,8.4-3.8,15.8-5.6,23.2c-0.5,2-1.4,3.7-3.8,3.2c-2.8-0.6-2.2-2.8-1.8-4.5
			c1.7-7.4,3.4-14.8,5.4-22.2c0.4-1.6,0.6-4.1,3.4-3.6C354.1,103.5,353.8,105.7,353.4,107z"/>
		<path class="st1" d="M347.3,322.8c4.1,2.4,7.7,1,11.1,1.6c2.1,0.4,4,1.3,3.8,3.4c-0.2,2.1-2.5,1.6-4,1.7
			c-4.4,0.1-8.7-0.1-13.1,0.1c-1.9,0.1-5-1-5.1,2.3c-0.1,3.5,2.9,3.4,5.3,3.4c5.2,0,10.4,0,15.5,0c2.5,0,5.6-0.2,5.5,3.2
			c-0.1,3.3-3.3,1.9-5.2,2c-4.3,0.2-8.7-0.1-13.1,0.1c-2.4,0.1-6.3-1.3-6.5,2.8c-0.2,4.5,3.8,2.9,6.1,3c5.7,0.2,11.5,0,17.2,0.1
			c1.8,0,4.2-0.3,3.9,2.7c-0.2,2.3-2.4,1.8-3.8,1.9c-6.8,0.1-13.6,0.1-20.5,0.1c-2.9,0-6.2,0.4-6.3,3.7c-0.1,4.5,4,2.4,6.3,2.5
			c5.7,0.3,11.5-0.1,17.2,0.2c2.5,0.2,7.2-1.8,7.1,2.5c0,3.7-4.4,2-6.8,2c-12.8,0.2-25.6,0.1-38.5,0.1c-1.6,0-3.3,0-4.9,0
			c-2.2,0.1-3.7,1.3-3.8,3.5c0,3.1,2.6,2.2,4.2,2.2c14.5,0.1,28.9,0,43.4,0.2c2,0,5.7-1.5,5.8,2.2c0.1,3.3-3.4,2.9-5.8,2.9
			c-13.6,0-27.3-0.8-40.9,0.2c-26.9,2.1-53.6-1.4-80.5-0.2c-1.9,0.1-3.8,0-5.7-0.1c-2.1-0.1-4.1-0.8-3.8-3.2c0.3-2.1,2.4-1.9,4-1.9
			c12,0,24,0.2,36-0.2c3-0.1,8.7,2.5,8.7-2.3c0-5.2-5.9-3.3-9.4-3.3c-11.2-0.2-22.4,0-33.5-0.2c-2.3,0-6.6,1.8-6.4-2.4
			c0.2-3.7,4.3-2.1,6.7-2.2c10.9-0.2,21.8,0,32.7-0.2c2.1,0,5.7,1.1,5.8-2.5c0.1-3.7-3.3-3.7-6.1-3.7c-11.2,0-22.4,0.1-33.5-0.1
			c-1.9,0-5.2,1.1-5.3-1.9c-0.2-3.8,3.4-2.6,5.6-2.6c9.8-0.1,19.6,0,29.5-0.1c1.8,0,5,1.3,5.1-2c0.1-3.1-2.7-3.8-5.3-3.8
			c-9,0-18,0.1-27-0.1c-2.1,0-5.6,1.5-5.7-2.3c-0.1-3.5,3.2-3,5.6-3c8.4,0,16.8,0,25.4,0c-0.4-5.4-3.5-5.9-7-5.9
			c-5.2,0-10.4,0-15.5-0.1c-1.5,0-3.8,0.5-4.1-1.6c-0.3-2.1,1.5-3.3,3.6-3.6c4-0.5,8.2,0.7,13.1-1.3c-10.3-8.1-20.7-14.2-33.5-15.6
			c-4.5-0.5-11.8,0.9-10.9-6.3c0.9-7.1,7.8-5,12.8-4.3c31.1,4.5,50.8,23.1,63,51c1.6,3.7,2.9,7.6,4.5,11.4c1.7,3.9,4.4,6.4,8.9,5
			c4.7-1.5,7.3-4.7,6.3-9.9c-0.5-2.4-1.1-4.8-2-7.1c-15.7-40.3-44.4-63.7-87.9-67.8c-1.4-0.1-2.7-0.1-4.1-0.2
			c-4-0.2-7.3-1.5-6.9-6.1c0.4-4,3.7-4.9,7.3-4.8c15.4,0.7,30.3,3.7,44.3,10.3c27.2,13,45.3,34.3,56.6,61.8c0.9,2.3,1.7,4.6,2.8,6.8
			c1.7,3.3,4.6,4.5,8.2,4c3.9-0.5,5.4-3.3,6.2-6.7c1-4.3-0.7-8-2.3-11.8c-20.3-50-65.3-80.1-120.8-81c-1.4,0-2.7,0-4.1,0
			c-3.5,0-6.8-0.5-7-4.9c-0.2-5,3.5-5.6,7.3-5.6c23.2-0.3,45.6,3.2,66.6,13.8c8.8,4.5,17.4,9.3,24.9,15.7c4.4,3.8,7.2,3.4,11.8,0.1
			c25.6-18.4,53.8-29.8,85.9-28.9c1.9,0.1,3.8,0.1,5.7,0.4c3.4,0.4,5.7,2.2,5.5,5.8c-0.2,3.8-2.8,5-6.2,4.8
			c-10.4-0.5-20.7-0.1-30.9,2.1c-18.6,4.1-35.6,11.9-51.1,22.9c-2.2,1.6-8.5,2.9-3.9,7.4c3.3,3.4,4.3,12.6,13.3,6.3
			c14.6-10.2,30.6-17.7,48.3-21.2c5.7-1.1,11.4-1.2,17.1-1.1c3.6,0.1,6.8,0.9,6.9,5.2c0.1,4.8-3.4,5.7-7.2,5.6
			c-22-0.4-40.6,8.9-58.6,20.2c-9.2,5.7-1.1,10.3,0.9,14.6c2.8,6.3,5.7,0.3,7.9-1.3c12.5-9.3,26.3-15.4,42-16.5
			c3.7-0.3,7.8-0.3,8.3,4.4c0.6,5.2-3.6,6.2-7.6,6.5C369.4,309,358.2,314.8,347.3,322.8z"/>
		<path class="st1" d="M341.2,232.6c-14.8,5-26.9,11.8-38.3,19.7c-1.5,1-2.8,2.5-4.9,0.6c-10.9-9.8-24.9-14-38.9-20.6
			C286.8,222.7,313.1,222.7,341.2,232.6z"/>
		<path class="st1" d="M300.2,384.1c-18.8,0-37.6,0-56.4,0c-2.2,0-4.4,0-6.5-0.2c-1.5-0.1-2.6-1.2-2.7-2.6c-0.1-2,1.6-1.7,2.9-1.8
			c1.1-0.1,2.2,0,3.3,0c39.5,0,79,0,118.4,0.1c2.1,0,6-1.5,6.1,1.6c0.2,3.9-3.9,2.9-6.3,2.9C339.4,384.1,319.8,384.1,300.2,384.1z"
			/>
		<path class="st1" d="M361.3,391.2c-4.3,4.5-88.2,6.8-116.6,4.2c-2.6-0.2-5-0.3-4.9-4.2C280,391.2,320.1,391.2,361.3,391.2z"/>
		<path class="st1" d="M247.3,402.3c35.4,0,70.1,0,105.6,0C346.8,408,253,408,247.3,402.3z"/>
		<path class="st1" d="M199.6,386.7c0.2,4.2-1.3,7.8-3.7,7.5c-8.1-0.9-10.9,13.3-20.1,6.9c-5.3-3.7-7.1-10.2-9.6-15.8
			c-1-2.3,2-2.8,3.5-3.6c5.5-3,11.2-5.6,16.5-8.7c4.3-2.6,6.8-1.9,8.6,2.8C196.3,380,199.4,383.4,199.6,386.7z M178.1,383.4
			c-1.7,1.8-5.9,1.3-5.2,5c0.7,3.5,2.2,7.6,6.4,8.5c2.6,0.6,5.1-1.4,4.7-4.1C183.5,389.2,182.3,385.5,178.1,383.4z M194.6,386.3
			c-1.4-2.7-1.6-6.9-5.5-7.9c-1.8-0.4-4.9,1.2-4.4,3.6c0.8,3.5,2,7.7,6.5,8.4C193.3,390.6,194.5,388.9,194.6,386.3z"/>
		<path class="st1" d="M323.7,457.6c0,9.7-5,14.9-14.2,15c-9,0.1-14.8-6.6-14.6-16.7c0.2-9.1,5.9-14.7,14.9-14.6
			C318.6,441.4,323.7,447.3,323.7,457.6z M318,457.2c-0.4-5.2-1.4-10.8-8.5-11.1c-6.6-0.3-8.8,4.4-8.8,10.2
			c0.1,5.8,1.6,11.3,8.6,11.6C316.1,468.3,317.8,463.4,318,457.2z"/>
		<path class="st1" d="M374.7,416.6c8,0.3,11.7,5.5,14.5,11.7c2.8,6,1.4,11.1-3.8,15.2c-1.7,1.3-3.6,2.5-5.2,4
			c-3.5,3.4-5.9,2.3-8.3-1.4c-2.2-3.4-5.1-6.4-7.3-9.8c-2-3.3-7.8-6.4-5.2-9.9C362.9,421.5,368.2,417.4,374.7,416.6z M384.9,433.8
			c-0.4-3.7-2.5-6.5-4.9-9.2c-4.1-4.6-8.1-3.1-12.2,0.1c-4.8,3.8,0,6,1.5,8.7c1,1.9,2.4,3.7,3.9,5.2c1.7,1.7,2.4,5.7,6.1,3.4
			C382.4,440.3,385.3,438.1,384.9,433.8z"/>
		<path class="st1" d="M246.1,433.7c-1.4,7.8-2.7,15.3-4.1,22.7c-0.3,1.4,0.3,3.8-1.9,3.9c-1.9,0-3.2-1.4-3.6-3.6
			c-1.7-8.3-4.7-9.8-13.6-7.1c-1.8,0.5-3.4,0.3-4.4-1c-1.5-2,0.8-2.8,1.8-3.7c5.7-5.1,11.4-10,17.1-15.1c1.9-1.7,3.6-3,6.4-1.2
			C246.1,430,246.7,431.7,246.1,433.7z"/>
		<path class="st1" d="M271.5,445.6c-1.9,5.6,2.1,6,6,7c5,1.3,6.1-1.4,7-5.3c0.4-2-0.7-5.8,3.6-4.7c3.8,0.9,1.9,3.8,1.6,6
			c-1.1,6.5-2.2,12.9-3.4,19.3c-0.3,1.7,0,4.2-3,3.9c-3.3-0.4-2.3-2.7-2.3-4.9c-0.1-3.1,3.3-6.9-1.4-9.4c-6.1-3.1-9.2-1.5-11.1,5.1
			c-0.6,2.2,0.9,6.6-3.5,5.9c-5.2-0.8-1.8-4.8-1.5-7.2c0.6-5.4,1.5-10.8,2.8-16.1c0.5-2.1-1-6.4,3.8-5.6
			C274.2,440.4,271.2,443.5,271.5,445.6z"/>
		<path class="st1" d="M341.8,412.9c-6.7,6-76.7,6-83.6,0C286.3,412.9,313.8,412.9,341.8,412.9z"/>
		<path class="st1" d="M188.6,416.5c-2.2,0.8-4.7,1.1-5.5-1.6c-1-3.3,2.5-3,4.1-3.7c6.5-2.8,13.1-5.2,19.7-7.9
			c2.5-1,4.4-1.4,6.6,0.9c2.3,2.5,0.9,4.4-0.2,6.5c-3.4,6.2-6.8,12.4-10.4,18.5c-0.9,1.6-1.1,4.9-4.1,3.5c-2.2-1-2.1-2.9-1.3-5.5
			C199.2,421.8,194.2,416.3,188.6,416.5z M206.8,410.3c-3.6-0.1-7.4,0.1-9.1,3.8c-0.7,1.6,1.5,3.9,3,4
			C205.2,418.3,204.9,413.5,206.8,410.3z"/>
		<path class="st1" d="M401.5,428.5c-0.6-0.7-1.5-1.7-2.1-2.8c-4-6.5-7.8-13-11.8-19.5c-1.5-2.4-1.8-4.2,0.1-6.6
			c1.9-2.3,3.6-1.6,5.7-0.8c7.1,2.6,14.3,5,21.4,7.6c1.4,0.5,3.7,0.8,3.2,2.9c-0.5,1.9-2.2,2.6-4.4,2.6c-7.9,0.1-10.8,4-9.1,11.7
			C405,426,403.8,428.6,401.5,428.5z M392.8,404.5c2.9,4.6,3.1,9,7.6,9.2c1,0,3.4-3.2,3-4.1C402,406,398.2,406.1,392.8,404.5z"/>
		<path class="st1" d="M410.8,386.1c-6.1-12.2-6.1-12.2-4.9-15.7c2.8,0.4,3.4,3.1,4.7,4.9c4.2,5.6,7.2,12.2,14.6,14.7
			c1.4,0.5,3,1.5,1.9,3.7c-0.9,2-2.6,2.2-4,1.3c-7.2-4.8-15.2-2.9-23-3.2c-1.5-0.1-4.3,1.4-4.2-1.9c0.1-2.4,1.7-3.9,4.4-3.8
			C403.4,386.2,406.6,386.1,410.8,386.1z"/>
		<path class="st1" d="M354.3,460.2c-0.5,2.1-2.1,2-3.3,2.6c-15.5,7.1-15.5,7.1-20.9-9.1c-1.2-3.6-2.3-7.3-3.6-10.9
			c-0.7-2-0.2-3.1,1.6-3.8c2.1-0.8,3,0.3,3.6,2.1c1.3,3.9,3,7.7,3.8,11.6c1.5,7.5,4.7,10.4,12.2,6.5
			C350,458,352.9,456.6,354.3,460.2z"/>
		<path class="st1" d="M297.9,179c2.1,6.1,4.8,9.3,12.9,6.1c-5,5.7-9.5,9.4-5.3,15.8c-5-3.5-9.4-4.1-13.9,0.6
			c2.1-5.8,2.1-10.6-6.8-13.9C292.3,186.6,298,186.8,297.9,179z"/>
		<path class="st1" d="M342.5,207.6c-3.8-4.4-7.5-6.1-12.7-2.4c2.8-5.4,3.8-10.2-1.9-14.6c8.3,0.7,8.3,0.7,13.6-5.1
			c-0.3,6,2.6,9.2,10.2,9.8C345.2,198.3,341,200.8,342.5,207.6z"/>
		<path class="st1" d="M230.8,203.6c-2.3,5.4-4.5,9.9,0.9,14.4c-5.7-1-9.1,1.2-11.9,8.4c-0.2-8.4-2.2-12.8-9.7-12.5
			c5.7-3.1,9.2-6.3,6.7-13.1C220.9,205.7,224.8,208.8,230.8,203.6z"/>
		<path class="st1" d="M380.1,198.2c-0.7,6.3-0.4,10.6,9.1,11.5c-7.6,2.7-12.6,4.5-11.8,11.7c-3.1-5-6.3-8-13.1-3.6
			c2.6-5.9,8.9-9.8-0.6-16.1C371.7,203,377.2,205.5,380.1,198.2z"/>
		<path class="st1" d="M254.1,207.5c1-6.5-1.1-10.3-7.7-11.9c6.2-1.6,9.7-4.4,8.6-12.2c3.9,5.1,6,10.9,13.1,6.1
			c-3.3,5.3-5.3,9.9-0.9,15.3C262,202.4,257.7,202,254.1,207.5z"/>
		<path class="st1" d="M365.6,453.1c0.4,2.3-0.5,2.9-1.4,3.5c-1.4,1-2.7,0.5-3.4-0.9c-3.9-7.5-7.7-14.9-11.6-22.5
			c-0.8-1.5,0-2.6,1.4-3.3c1-0.5,2.3-0.9,2.9,0.2C357.7,438.2,361.8,446.1,365.6,453.1z"/>
		<path class="st1" d="M210.5,441.7c-2.9-1-4.2-2.5-2.3-4.9c4.8-6.2,9.8-12.2,14.7-18.3c1.1-1.4,2.5-2.1,4.2-0.9
			c1.6,1.2,1.6,2.6,0.4,4.1c-4.9,6.1-9.8,12.2-14.8,18.2C212.1,440.7,211.2,441.2,210.5,441.7z"/>
		<path class="st1" d="M279.9,423.8c13.5,0,27,0,40.5,0C306.9,429.2,293.4,429,279.9,423.8z"/>
	</g>
</g>
</svg>
