<?xml version="1.0" encoding="utf-8"?>
<!-- Generator: Adobe Illustrator 26.3.1, SVG Export Plug-In . SVG Version: 6.00 Build 0)  -->
<svg version="1.1" id="Layer_1" xmlns="http://www.w3.org/2000/svg" xmlns:xlink="http://www.w3.org/1999/xlink" x="0px" y="0px"
	 viewBox="0 0 595.3 595.3" style="enable-background:new 0 0 595.3 595.3;" xml:space="preserve">
<style type="text/css">
	.st0{fill:#FFFFFF;}
	.st1{fill:#164274;}
</style>
<path class="st0" d="M297.6,595.3L297.6,595.3C133.3,595.3,0,462,0,297.6l0,0C0,133.3,133.3,0,297.6,0l0,0
	C462,0,595.3,133.3,595.3,297.6l0,0C595.3,462,462,595.3,297.6,595.3z"/>
<g>
	<path class="st1" d="M282.5,508c-17.2-3.8-34.7-5.6-51.5-11.2C145.3,468.5,85.8,386,87,295.9c1.2-93.4,62.9-175.1,151.3-200.3
		c123.4-35.3,247.1,43.6,267.4,170.6C524.2,382.1,439.5,493,322.4,506c-2.9,0.4-5.9,0.1-8.4,2.2C303.5,508,293.1,508,282.5,508z
		 M102.6,296.9c-1.2,105.7,85.7,194.3,191.5,195.4c108.7,1.1,197.3-84.8,198.6-192.5c1.3-107.1-85.1-196-191.9-197.3
		C191.3,101.2,103.8,186.8,102.6,296.9z"/>
	<path class="st1" d="M356,296.8c4.9,2.9,9.2,1.2,13.3,1.9c2.5,0.5,4.8,1.6,4.6,4.1c-0.2,2.5-3,1.9-4.8,2
		c-5.3,0.1-10.4-0.1-15.7,0.1c-2.3,0.1-6-1.2-6.1,2.8c-0.1,4.2,3.5,4.1,6.4,4.1c6.2,0,12.5,0,18.6,0c3,0,6.7-0.2,6.6,3.8
		c-0.1,4-4,2.3-6.2,2.4c-5.2,0.2-10.4-0.1-15.7,0.1c-2.9,0.1-7.6-1.6-7.8,3.4c-0.2,5.4,4.6,3.5,7.3,3.6c6.8,0.2,13.8,0,20.7,0.1
		c2.2,0,5-0.4,4.7,3.2c-0.2,2.8-2.9,2.2-4.6,2.3c-8.2,0.1-16.3,0.1-24.6,0.1c-3.5,0-7.4,0.5-7.6,4.4c-0.1,5.4,4.8,2.9,7.6,3
		c6.8,0.4,13.8-0.1,20.7,0.2c3,0.2,8.6-2.2,8.5,3c0,4.4-5.3,2.4-8.2,2.4c-15.4,0.2-30.7,0.1-46.2,0.1c-1.9,0-4,0-5.9,0
		c-2.6,0.1-4.4,1.6-4.6,4.2c0,3.7,3.1,2.6,5,2.6c17.4,0.1,34.7,0,52.1,0.2c2.4,0,6.8-1.8,7,2.6c0.1,4-4.1,3.5-7,3.5
		c-16.3,0-32.8-1-49.1,0.2c-32.3,2.5-64.4-1.7-96.7-0.2c-2.3,0.1-4.6,0-6.8-0.1c-2.5-0.1-4.9-1-4.6-3.8c0.4-2.5,2.9-2.3,4.8-2.3
		c14.4,0,28.8,0.2,43.2-0.2c3.6-0.1,10.4,3,10.4-2.8c0-6.2-7.1-4-11.3-4c-13.4-0.2-26.9,0-40.2-0.2c-2.8,0-7.9,2.2-7.7-2.9
		c0.2-4.4,5.2-2.5,8-2.6c13.1-0.2,26.2,0,39.3-0.2c2.5,0,6.8,1.3,7-3c0.1-4.4-4-4.4-7.3-4.4c-13.4,0-26.9,0.1-40.2-0.1
		c-2.3,0-6.2,1.3-6.4-2.3c-0.2-4.6,4.1-3.1,6.7-3.1c11.8-0.1,23.5,0,35.4-0.1c2.2,0,6,1.6,6.1-2.4c0.1-3.7-3.2-4.6-6.4-4.6
		c-10.8,0-21.6,0.1-32.4-0.1c-2.5,0-6.7,1.8-6.8-2.8c-0.1-4.2,3.8-3.6,6.7-3.6c10.1,0,20.2,0,30.5,0c-0.5-6.5-4.2-7.1-8.4-7.1
		c-6.2,0-12.5,0-18.6-0.1c-1.8,0-4.6,0.6-4.9-1.9s1.8-4,4.3-4.3c4.8-0.6,9.8,0.8,15.7-1.6c-12.4-9.7-24.9-17.1-40.2-18.7
		c-5.4-0.6-14.2,1.1-13.1-7.6c1.1-8.5,9.4-6,15.4-5.2c37.3,5.4,61,27.7,75.7,61.2c1.9,4.4,3.5,9.1,5.4,13.7c2,4.7,5.3,7.7,10.7,6
		c5.6-1.8,8.8-5.6,7.6-11.9c-0.6-2.9-1.3-5.8-2.4-8.5c-18.9-48.4-53.3-76.5-105.6-81.4c-1.7-0.1-3.2-0.1-4.9-0.2
		c-4.8-0.2-8.8-1.8-8.3-7.3c0.5-4.8,4.4-5.9,8.8-5.8c18.5,0.8,36.4,4.4,53.2,12.4c32.7,15.6,54.4,41.2,68,74.2
		c1.1,2.8,2,5.5,3.4,8.2c2,4,5.5,5.4,9.8,4.8c4.7-0.6,6.5-4,7.4-8c1.2-5.2-0.8-9.6-2.8-14.2c-24.4-60-78.4-96.2-145.1-97.3
		c-1.7,0-3.2,0-4.9,0c-4.2,0-8.2-0.6-8.4-5.9c-0.2-6,4.2-6.7,8.8-6.7c27.9-0.4,54.8,3.8,80,16.6c10.6,5.4,20.9,11.2,29.9,18.9
		c5.3,4.6,8.6,4.1,14.2,0.1c30.7-22.1,64.6-35.8,103.1-34.7c2.3,0.1,4.6,0.1,6.8,0.5c4.1,0.5,6.8,2.6,6.6,7c-0.2,4.6-3.4,6-7.4,5.8
		c-12.5-0.6-24.9-0.1-37.1,2.5c-22.3,4.9-42.7,14.3-61.4,27.5c-2.6,1.9-10.2,3.5-4.7,8.9c4,4.1,5.2,15.1,16,7.6
		c17.5-12.2,36.7-21.3,58-25.5c6.8-1.3,13.7-1.4,20.5-1.3c4.3,0.1,8.2,1.1,8.3,6.2c0.1,5.8-4.1,6.8-8.6,6.7
		c-26.4-0.5-48.8,10.7-70.4,24.3c-11,6.8-1.3,12.4,1.1,17.5c3.4,7.6,6.8,0.4,9.5-1.6c15-11.2,31.6-18.5,50.4-19.8
		c4.4-0.4,9.4-0.4,10,5.3c0.7,6.2-4.3,7.4-9.1,7.8C382.5,280.2,369.1,287.2,356,296.8z"/>
	<path class="st1" d="M348.7,188.5c-17.8,6-32.3,14.2-46,23.7c-1.8,1.2-3.4,3-5.9,0.7c-13.1-11.8-29.9-16.8-46.7-24.7
		C283.4,176.6,314.9,176.6,348.7,188.5z"/>
	<path class="st1" d="M299.5,370.4c-22.6,0-45.2,0-67.7,0c-2.6,0-5.3,0-7.8-0.2c-1.8-0.1-3.1-1.4-3.2-3.1c-0.1-2.4,1.9-2,3.5-2.2
		c1.3-0.1,2.6,0,4,0c47.4,0,94.9,0,142.2,0.1c2.5,0,7.2-1.8,7.3,1.9c0.2,4.7-4.7,3.5-7.6,3.5C346.5,370.4,323,370.4,299.5,370.4z"/>
	<path class="st1" d="M372.8,378.9c-5.2,5.4-105.9,8.2-140,5c-3.1-0.2-6-0.4-5.9-5C275.2,378.9,323.3,378.9,372.8,378.9z"/>
	<path class="st1" d="M235.9,392.2c42.5,0,84.2,0,126.8,0C355.4,399.1,242.8,399.1,235.9,392.2z"/>
	<path class="st1" d="M178.7,373.5c0.2,5-1.6,9.4-4.4,9c-9.7-1.1-13.1,16-24.1,8.3c-6.4-4.4-8.5-12.2-11.5-19
		c-1.2-2.8,2.4-3.4,4.2-4.3c6.6-3.6,13.4-6.7,19.8-10.4c5.2-3.1,8.2-2.3,10.3,3.4C174.7,365.5,178.4,369.5,178.7,373.5z
		 M152.8,369.5c-2,2.2-7.1,1.6-6.2,6c0.8,4.2,2.6,9.1,7.7,10.2c3.1,0.7,6.1-1.7,5.6-4.9C159.3,376.5,157.9,372.1,152.8,369.5z
		 M172.6,373c-1.7-3.2-1.9-8.3-6.6-9.5c-2.2-0.5-5.9,1.4-5.3,4.3c1,4.2,2.4,9.2,7.8,10.1C171.1,378.2,172.5,376.1,172.6,373z"/>
	<path class="st1" d="M327.7,458.6c0,11.6-6,17.9-17.1,18c-10.8,0.1-17.8-7.9-17.5-20.1c0.2-10.9,7.1-17.7,17.9-17.5
		C321.5,439.2,327.7,446.3,327.7,458.6z M320.8,458.2c-0.5-6.2-1.7-13-10.2-13.3c-7.9-0.4-10.6,5.3-10.6,12.2
		c0.1,7,1.9,13.6,10.3,13.9C318.5,471.5,320.6,465.6,320.8,458.2z"/>
	<path class="st1" d="M388.9,409.4c9.6,0.4,14,6.6,17.4,14c3.4,7.2,1.7,13.3-4.6,18.3c-2,1.6-4.3,3-6.2,4.8c-4.2,4.1-7.1,2.8-10-1.7
		c-2.6-4.1-6.1-7.7-8.8-11.8c-2.4-4-9.4-7.7-6.2-11.9C374.7,415.3,381.1,410.4,388.9,409.4z M401.2,430.1c-0.5-4.4-3-7.8-5.9-11
		c-4.9-5.5-9.7-3.7-14.6,0.1c-5.8,4.6,0,7.2,1.8,10.4c1.2,2.3,2.9,4.4,4.7,6.2c2,2,2.9,6.8,7.3,4.1
		C398.2,437.9,401.6,435.2,401.2,430.1z"/>
	<path class="st1" d="M265,444.2c-2.3,6.7,2.5,7.2,7.2,8.4c6,1.6,7.3-1.7,8.4-6.4c0.5-2.4-0.8-7,4.3-5.6c4.6,1.1,2.3,4.6,1.9,7.2
		c-1.3,7.8-2.6,15.5-4.1,23.2c-0.4,2,0,5-3.6,4.7c-4-0.5-2.8-3.2-2.8-5.9c-0.1-3.7,4-8.3-1.7-11.3c-7.3-3.7-11-1.8-13.3,6.1
		c-0.7,2.6,1.1,7.9-4.2,7.1c-6.2-1-2.2-5.8-1.8-8.6c0.7-6.5,1.8-13,3.4-19.3c0.6-2.5-1.2-7.7,4.6-6.7
		C268.2,438,264.6,441.7,265,444.2z"/>
	<path class="st1" d="M349.4,405c-8,7.2-92.1,7.2-100.4,0C282.8,405,315.8,405,349.4,405z"/>
	<path class="st1" d="M165.4,409.3c-2.6,1-5.6,1.3-6.6-1.9c-1.2-4,3-3.6,4.9-4.4c7.8-3.4,15.7-6.2,23.7-9.5c3-1.2,5.3-1.7,7.9,1.1
		c2.8,3,1.1,5.3-0.2,7.8c-4.1,7.4-8.2,14.9-12.5,22.2c-1.1,1.9-1.3,5.9-4.9,4.2c-2.6-1.2-2.5-3.5-1.6-6.6
		C178.2,415.6,172.2,409,165.4,409.3z M187.3,401.8c-4.3-0.1-8.9,0.1-10.9,4.6c-0.8,1.9,1.8,4.7,3.6,4.8
		C185.4,411.4,185,405.7,187.3,401.8z"/>
	<path class="st1" d="M421.1,423.7c-0.7-0.8-1.8-2-2.5-3.4c-4.8-7.8-9.4-15.6-14.2-23.4c-1.8-2.9-2.2-5,0.1-7.9
		c2.3-2.8,4.3-1.9,6.8-1c8.5,3.1,17.2,6,25.7,9.1c1.7,0.6,4.4,1,3.8,3.5c-0.6,2.3-2.6,3.1-5.3,3.1c-9.5,0.1-13,4.8-10.9,14
		C425.3,420.7,423.9,423.8,421.1,423.7z M410.6,394.9c3.5,5.5,3.7,10.8,9.1,11c1.2,0,4.1-3.8,3.6-4.9
		C421.7,396.7,417.1,396.8,410.6,394.9z"/>
	<path class="st1" d="M432.3,372.8c-7.3-14.6-7.3-14.6-5.9-18.9c3.4,0.5,4.1,3.7,5.6,5.9c5,6.7,8.6,14.6,17.5,17.7
		c1.7,0.6,3.6,1.8,2.3,4.4c-1.1,2.4-3.1,2.6-4.8,1.6c-8.6-5.8-18.3-3.5-27.6-3.8c-1.8-0.1-5.2,1.7-5-2.3c0.1-2.9,2-4.7,5.3-4.6
		C423.4,372.9,427.2,372.8,432.3,372.8z"/>
	<path class="st1" d="M364.4,461.8c-0.6,2.5-2.5,2.4-4,3.1c-18.6,8.5-18.6,8.5-25.1-10.9c-1.4-4.3-2.8-8.8-4.3-13.1
		c-0.8-2.4-0.2-3.7,1.9-4.6c2.5-1,3.6,0.4,4.3,2.5c1.6,4.7,3.6,9.2,4.6,13.9c1.8,9,5.6,12.5,14.6,7.8
		C359.3,459.1,362.7,457.4,364.4,461.8z"/>
	<path class="st1" d="M296.7,124.1c2.5,7.3,5.8,11.2,15.5,7.3c-6,6.8-11.4,11.3-6.4,19c-6-4.2-11.3-4.9-16.7,0.7
		c2.5-7,2.5-12.7-8.2-16.7C290,133.2,296.8,133.5,296.7,124.1z"/>
	<path class="st1" d="M350.2,158.4c-4.6-5.3-9-7.3-15.3-2.9c3.4-6.5,4.6-12.2-2.3-17.5c10,0.8,10,0.8,16.3-6.1
		c-0.4,7.2,3.1,11,12.2,11.8C353.5,147.3,348.4,150.3,350.2,158.4z"/>
	<path class="st1" d="M216.1,153.6c-2.8,6.5-5.4,11.9,1.1,17.3c-6.8-1.2-10.9,1.4-14.3,10.1c-0.2-10.1-2.6-15.4-11.6-15
		c6.8-3.7,11-7.6,8-15.7C204.2,156.2,208.9,159.9,216.1,153.6z"/>
	<path class="st1" d="M395.4,147.2c-0.8,7.6-0.5,12.7,10.9,13.8c-9.1,3.2-15.1,5.4-14.2,14c-3.7-6-7.6-9.6-15.7-4.3
		c3.1-7.1,10.7-11.8-0.7-19.3C385.3,152.9,391.9,155.9,395.4,147.2z"/>
	<path class="st1" d="M244.1,158.3c1.2-7.8-1.3-12.4-9.2-14.3c7.4-1.9,11.6-5.3,10.3-14.6c4.7,6.1,7.2,13.1,15.7,7.3
		c-4,6.4-6.4,11.9-1.1,18.4C253.6,152.2,248.4,151.7,244.1,158.3z"/>
	<path class="st1" d="M378,453.2c0.5,2.8-0.6,3.5-1.7,4.2c-1.7,1.2-3.2,0.6-4.1-1.1c-4.7-9-9.2-17.9-13.9-27c-1-1.8,0-3.1,1.7-4
		c1.2-0.6,2.8-1.1,3.5,0.2C368.5,435.3,373.4,444.8,378,453.2z"/>
	<path class="st1" d="M191.7,439.5c-3.5-1.2-5-3-2.8-5.9c5.8-7.4,11.8-14.6,17.7-22c1.3-1.7,3-2.5,5-1.1c1.9,1.4,1.9,3.1,0.5,4.9
		c-5.9,7.3-11.8,14.6-17.8,21.9C193.7,438.3,192.6,438.9,191.7,439.5z"/>
	<path class="st1" d="M275.1,418.1c16.2,0,32.4,0,48.6,0C307.5,424.5,291.3,424.3,275.1,418.1z"/>
	<path class="st1" d="M207.6,447.6c-2.2,1.7-5,3-6.9,0.2c-2.4-3.4,1.7-4.4,3.3-5.8c6.4-5.6,13-10.8,19.5-16.4
		c2.5-2.1,4.5-3.2,7.9-1.4c3.6,2,2.7,4.7,2.2,7.5c-1.6,8.3-3.1,16.7-5,25c-0.4,2.2,0.6,6-3.4,5.5c-2.9-0.3-3.5-2.5-3.5-5.8
		C221.7,449.7,213.9,445.3,207.6,447.6z M226.1,433.7c-4.1,1.2-8.4,2.9-9,7.7c-0.2,2.1,3.2,3.9,4.9,3.4
		C227.2,443.5,225.1,438.1,226.1,433.7z"/>
</g>
</svg>
