<svg xmlns="http://www.w3.org/2000/svg" xml:space="preserve" id="Layer_1" x="0" y="0" style="enable-background:new 0 0 595.3 595.3" version="1.1" viewBox="0 0 595.3 595.3"><style>.st1{fill:#ed1d24}.st2{fill:#121211}</style><path d="M297.6 595.3C133.3 595.3 0 462 0 297.6 0 133.3 133.3 0 297.6 0 462 0 595.3 133.3 595.3 297.6c0 164.4-133.3 297.7-297.7 297.7" style="fill:#fff"/><g id="LDCGWq.tif_00000113349010759308805960000007706310688788986047_"><path d="M35.6 328c1.3-1.6 2.6-3.2 4-4.8.3.3.6.7.9 1 6.4 6.6 14 9.2 23 6.9 6.1-1.6 9.8-6.7 10.1-13 .2-5.7-2-10.2-6.5-13.7-3.5-2.7-7.5-4.6-11.5-6.6-3.3-1.7-6.7-3.3-9.7-5.6-3.7-2.8-6.4-6.2-7.5-10.8-2.8-11.5 4.2-22.3 15.9-24.2 7.8-1.3 15.1.1 21.4 5 .8.6 1.5 1.4 2.3 2.1.4.4.5.7.1 1.1-1 1.2-1.9 2.5-2.9 3.8-.3.4-.5.5-.9.1-4.6-5.1-10.5-7-17.2-6.4-7.2.6-12.9 5.8-12.8 13.7.1 3.2 1.3 6 3.5 8.3 1.9 2 4.2 3.5 6.7 4.9 3.5 1.9 7.1 3.7 10.7 5.7 3.1 1.7 6.1 3.7 8.6 6.2 5.1 5.1 6.8 11.4 6 18.4-.7 5.8-3.2 10.6-8.1 14-2.8 2-5.9 3.1-9.3 3.5-6.4.9-12.5.2-18.4-2.6-3-1.5-5.6-3.4-7.8-5.9-.2-.2-.4-.6-.8-.7.2-.3.2-.3.2-.4M154.7 272.5c-.2.5-.1.9-.1 1.3v61.1c0 1.6.1 1.4-1.4 1.4H149c-.7 0-1-.2-.9-.9v-76.8c0-.4.2-.7.6-.7h5.4c.6 0 .7.5.9.8 4.8 8.8 9.7 17.5 14.5 26.3 6.4 11.7 12.8 23.3 19.3 35 .1.3.2.6.6.8.2-.4.1-.8.1-1.2v-60.2c0-1.4 0-1.4 1.4-1.4h4.2c.6 0 1 .2.9.9v76.6c.1.7-.3.9-.9.8h-4.5c-.7 0-1-.2-1.3-.8-3.4-6.3-6.9-12.6-10.3-19-7.9-14.4-15.7-28.8-23.6-43.2-.2-.2-.3-.6-.7-.8M258.8 336.3h-7.1c-.6 0-.6-.5-.8-.8L234.4 307c-1-1.7-1.9-3.3-2.9-5-.4.2-.5.6-.7.9l-18.6 32.4c-.4.7-.8 1-1.6 1-2.1-.1-4.2 0-6.4 0 0-.5.3-.8.4-1.1 7.5-12.6 14.9-25.2 22.4-37.9.4-.7.4-1.2 0-1.9-7.1-12.1-14.1-24.2-21.2-36.3-.6-1-.6-1.1.6-1.1h5.6c.8 0 1.1.3 1.5.9 5.7 10.2 11.5 20.5 17.2 30.7.2.3.4.6.5.9.4-.2.5-.5.7-.8 5.8-10.2 11.6-20.4 17.3-30.7.4-.7.8-1.1 1.7-1 1.8.1 3.5 0 5.3 0 1.2 0 1.2 0 .6 1-5.8 9.9-11.5 19.8-17.3 29.7-1.3 2.2-2.5 4.4-3.9 6.6-.4.7-.4 1.2 0 1.9 7.5 12.6 15 25.3 22.4 38 .4.3.5.6.8 1.1M307.4 337.7c-8.2-.1-15.4-2.8-21.1-8.8-.6-.6-.7-1.1-.1-1.7 1-1 1.8-2.2 2.7-3.3.4-.6.7-.6 1.2 0 3.1 3.7 7.1 6.2 11.8 7.4 4.6 1.2 9.1 1.2 13.5-.8 5.1-2.3 7.6-6.4 8-11.8.5-6-1.9-10.8-6.7-14.5-3.2-2.4-6.7-4.1-10.3-5.9-3.2-1.6-6.5-3.2-9.4-5.3-3.9-2.7-7-6.1-8.4-10.8-3.4-11.7 3.6-23 15.6-25 8.3-1.4 16 .2 22.5 5.8 1.9 1.6 1.9 1.6.4 3.6-.6.8-1.2 1.5-1.7 2.3-.4.6-.6.7-1.2.1-2.3-2.6-5.2-4.5-8.6-5.4-4.4-1.2-8.7-1.5-13.1.3-8.9 3.6-11 15.2-3.9 21.5 2.7 2.4 5.8 4.1 8.9 5.7 3.5 1.8 7 3.5 10.3 5.6 4 2.5 7.6 5.5 9.9 9.8 3.9 7.4 2.9 17.7-2.2 23.9-3.2 3.8-7.4 5.9-12.2 6.8-2 .4-4 .5-5.9.5M112.5 296.2c1.9-3.5 3.6-6.8 5.4-10.2 4.8-9 9.5-18.1 14.3-27.1.3-.7.7-.9 1.5-.9 1.7.1 3.5 0 5.2 0 .8 0 .9.2.5.9-4.1 7.5-8.1 15-12.2 22.5l-11.1 20.4c-.3.6-.5 1.2-.5 1.9v31.5c0 .9-.3 1.1-1.1 1.1-1.5-.1-3 0-4.5 0-.5 0-.8-.2-.7-.7V304c0-.9-.2-1.6-.6-2.4-7.7-14.2-15.3-28.3-23-42.5-.7-1.1-.7-1.1.6-1.1h5.1c.8 0 1.1.2 1.5.9 6.3 12 12.6 24 18.9 36.1.2.3.4.7.7 1.2" class="st1"/><path d="M525.4 278.5v-19.4c0-.8.1-1.1 1-1 1.2.1 2.5.1 3.7 0 .8 0 .9.3.9 1v31.4c0 .7-.2.9-.9.9-1.2-.1-2.4-.1-3.6 0-.7 0-1-.2-1.3-.8-3.8-6.6-7.5-13.2-11.3-19.8-.1-.2-.2-.4-.4-.6-.2.4-.1.7-.1 1v19.1c0 .8-.1 1.1-1 1-1.2-.1-2.5-.1-3.7 0-.8 0-.9-.3-.9-1V259c0-.7.1-1 .9-1 1.3.1 2.6.1 3.9 0 .7 0 1 .2 1.3.8 3.6 6.3 7.3 12.7 10.9 19 .1.2.3.5.4.7zM414.4 315.2v20.1c0 .7-.1 1-.9.9-1.2-.1-2.4-.1-3.6 0-.9 0-1.1-.2-1.1-1.1V303.8c0-.7.2-.9.8-.9 1.3.1 2.5.1 3.8 0 .7 0 1.1.2 1.5.9 3.6 6.3 7.2 12.5 10.8 18.8.2.3.3.5.7.8V304c0-.8.2-1.1 1-1 1.2.1 2.3.1 3.5 0 .8-.1 1.1.2 1.1 1.1V335.3c0 .8-.2.9-.9.9-1.1-.1-2.2-.1-3.3 0-.8.1-1.2-.2-1.7-.9-3.7-6.5-7.4-12.9-11.1-19.3-.2-.3-.3-.6-.5-.8zM493.6 323.6c.2-.4.1-.8.1-1.1v-18c0-1.4 0-1.4 1.4-1.4h3.4c.5 0 .8.1.8.7v31.8c0 .6-.2.8-.8.7-1.2 0-2.5-.1-3.7 0-.7 0-1-.2-1.3-.8-3.7-6.5-7.4-12.9-11.1-19.3-.2-.3-.4-.6-.7-1.2 0 .6-.1.9-.1 1.2V335c0 1.2 0 1.3-1.3 1.3h-3.5c-.6 0-.8-.1-.8-.7v-31.8c0-.6.2-.8.8-.7h4.1c.6 0 .9.2 1.2.7 3.6 6.3 7.2 12.6 10.9 18.9z" class="st2"/><path d="M269.2 297.1v-37.8c0-1 .2-1.3 1.2-1.2 1.5.1 3 0 4.5 0 .6 0 .8.2.8.8v76.3c0 1.3.2 1.2-1.2 1.2h-4.3c-.7 0-.9-.2-.9-.9v-9.8c-.1-9.6-.1-19.1-.1-28.6" class="st1"/><path d="M402.1 274.2c4.2 1.3 5.7 5.8 5.3 9.3-.6 5-3.6 7.7-8.6 7.8h-12.2c-.7 0-.9-.1-.9-.9v-31.5c0-.7.1-.9.8-.9h12c6.7.1 10.6 6.8 7.4 12.7-.7 1.3-1.7 2.3-3.1 2.9-.3.3-.6.3-.7.6m-10.9 7.4v4.1c0 .4.1.7.6.7 1.9 0 3.9.1 5.8 0 2.5-.1 3.8-1.5 4.1-4 .1-.6 0-1.2 0-1.8-.3-2.2-1.9-3.7-4.1-3.7-1.9-.1-3.8 0-5.7 0-.6 0-.7.2-.7.7zm3.5-18.7h-2.9c-.4 0-.6.1-.6.6v7.9c0 .5.2.6.6.6h5.5c2-.1 3.2-1.1 3.6-2.9.3-1.1.3-2.2 0-3.3-.5-1.8-1.8-2.8-3.6-2.8-.8-.1-1.7-.1-2.6-.1M357.6 297.7v57.9c0 1-.3 1.3-1.2 1.2-.9-.1-2.1.4-2.6-.2-.6-.6-.2-1.8-.2-2.7v-114c0-1.6-.2-1.4 1.4-1.4.8 0 1.9-.4 2.4.1.6.5.2 1.6.2 2.5zM410.2 274.9c0-3.8.6-7.4 2.4-10.6 2.4-4.3 6-6.7 11-6.7s8.6 2.4 11 6.8c1.1 2 1.7 4.2 2 6.5.6 4.3.4 8.5-1.3 12.6-1.7 4.1-4.4 7.1-9 8.1-5 1.2-9.9-.7-12.9-5-2.4-3.6-3.2-7.7-3.2-11.7m21-.1v-1.1c-.2-2.9-.6-5.8-2.3-8.3-1.6-2.4-4.1-3.5-6.8-2.9-2.3.6-3.8 2.2-4.7 4.2-1.4 3-1.7 6.2-1.5 9.4.2 2.6.6 5 2 7.3 1.1 1.8 2.6 3.1 4.8 3.4 3.1.4 5.2-1 6.7-3.6 1.4-2.5 1.7-5.4 1.8-8.4M466.4 274.6c0 3.8-.6 7.3-2.4 10.6-2.4 4.3-6 6.7-11 6.7s-8.6-2.4-11-6.8c-1.1-2-1.7-4.2-2-6.5-.6-4.3-.4-8.5 1.3-12.6 1.7-4.1 4.4-7.1 8.9-8.1 5.3-1.2 10.4.9 13.3 5.5 2.2 3.4 2.9 7.3 2.9 11.2m-5.6-.1c-.1-.7-.1-1.6-.2-2.6-.3-2.4-.9-4.7-2.3-6.7-2.7-3.8-7.7-3.8-10.5-.1-.6.8-1 1.7-1.4 2.6-1.2 3.4-1.3 6.8-.8 10.4.3 2.1.9 4.1 2.2 5.9 1.1 1.5 2.5 2.6 4.4 2.8 3 .4 5.1-1.1 6.6-3.6 1.6-2.6 1.9-5.5 2-8.7M559.6 280.3v5.6c0 .6-.2 1.1-.6 1.5-5.8 6.5-17.8 6.5-22.1-3.8-2.4-6-2.4-12.1 0-18 2.6-6.2 8.7-9.3 14.9-7.7 3.4.9 5.6 3.2 7.3 6.2.2.4 0 .6-.3.7-1.1.5-2.2 1-3.2 1.5-.6.3-.8.2-1.1-.4-1-1.7-2.4-3-4.4-3.4-2.7-.5-4.9.4-6.6 2.5-1.4 1.8-2.1 3.9-2.4 6.1-.5 3.3-.4 6.5.7 9.7.3 1 .8 2 1.4 2.9 2.5 3.7 7.3 4.3 10.6 1.4.4-.4.6-.7.6-1.3V279c0-.5-.2-.7-.7-.7h-5.4c-.7 0-1-.1-.9-.9.1-1.1 0-2.1 0-3.2 0-.6.1-.8.7-.8h10.7c.6 0 .8.2.7.8.1 2.1.1 4.1.1 6.1M460 325.3v5.8c0 .4 0 .7-.3 1-4.3 5.4-13 6.4-18.3 2.1-3-2.5-4.6-5.8-5.3-9.6-.9-4.6-.7-9.2 1.1-13.6 2.2-5.5 6.7-8.6 12.3-8.5 4.7.1 7.9 2.5 10.1 6.5.2.4.1.6-.3.8-1.1.5-2.1.9-3.1 1.5-.6.3-.8.2-1.2-.3-1-1.8-2.5-3.1-4.6-3.5-2.6-.4-4.7.5-6.4 2.6-1.5 1.9-2.1 4.1-2.4 6.4-.4 3.4-.3 6.7.9 9.9.3.8.7 1.6 1.2 2.3 2.5 3.7 7.2 4.3 10.6 1.5.5-.4.7-.8.7-1.4 0-1.5-.1-3 0-4.4 0-.8-.1-1.1-1-1-1.8.1-3.5 0-5.3 0-.5 0-.7-.2-.7-.7v-3.5c0-.5.2-.7.7-.7h10.8c.7 0 .7.3.7.8-.2 2-.2 4-.2 6M476.1 273.7l.6-.9c3-4.7 6.1-9.4 9.1-14.1.3-.5.7-.7 1.3-.7h5.4c.1.4-.3.7-.4.9-3.2 4.7-6.5 9.4-9.8 14-.4.5-.4.9 0 1.4 3.5 5.2 7 10.5 10.5 15.7.2.3.4.6.7 1.1h-3.2c-1.1 0-2.4.4-3.3-.2-.8-.5-1.2-1.7-1.8-2.7-2.1-3.3-4.1-6.6-6.2-9.9-.2-.3-.4-.5-.6-.9-1.1 1.9-2.8 3.4-2.5 5.9.2 2.3 0 4.6.1 6.8 0 .8-.2 1-1 .9-1.3-.1-2.5-.1-3.8 0-.7 0-.9-.2-.8-.9v-31.4c0-.7.2-1 .9-1 1.2.1 2.4.1 3.6 0 .8 0 1.1.1 1.1 1-.1 4.6 0 9.1 0 13.7v.9c0 .4 0 .4.1.4M385.7 319.7v-15.6c0-.7.1-1 .9-1H403c.8 0 .9.2.9.9 0 1-.1 1.9 0 2.9.1.8-.2 1-1 1h-10.6c-.9 0-1.1.3-1.1 1.1.1 2.3 0 4.7 0 7 0 .7.2.9.9.9h10.5c.7 0 1 .2.9.9-.1 1-.1 1.9 0 2.9.1.8-.1 1.1-1 1.1-3.5-.1-7 0-10.4 0-.7 0-.9.2-.9.9v7.8c0 .7.2.9.9.9h10.8c.7 0 1 .2 1 1-.1 1-.1 2 0 3 0 .7-.1.9-.9.9h-16.5c-.7 0-.8-.2-.8-.9zM504.6 319.6v-15.4c0-.9.3-1.1 1.1-1.1h16.2c.7 0 .9.2.9.9-.1 1-.1 2 0 3 .1.8-.3.9-1 .9h-10.7c-.8 0-1 .2-1 1 .1 2.3.1 4.7 0 7 0 .9.3 1 1.1 1h10.2c.8 0 1.1.1 1 1-.1 1-.1 2 0 3 .1.8-.2.9-.9.9H511c-.7 0-.9.2-.9.9 0 2.6.1 5.2 0 7.8 0 .8.3.9 1 .9h10.7c.7 0 1 .2 1 .9-.1 1.1 0 2.1 0 3.2 0 .5-.1.7-.7.7h-16.9c-.7 0-.7-.4-.7-.9.1-5.1.1-10.4.1-15.7M496.8 274.7v-15.6c0-.7.1-1 .9-1 1.3.1 2.6 0 3.9 0 .6 0 .8.1.8.7v31.8c0 .6-.2.7-.8.7-1.3 0-2.6-.1-4 0-.7 0-.8-.2-.8-.9zM465.1 319.7v-15.6c0-.7.1-1 .9-1 1.3.1 2.6 0 3.9 0 .6 0 .8.1.8.7v31.8c0 .6-.2.7-.8.7-1.3 0-2.6-.1-4 0-.7 0-.8-.2-.8-.9z" class="st2"/></g></svg>