<?xml version="1.0" encoding="utf-8"?>
<!-- Generator: Adobe Illustrator 26.3.1, SVG Export Plug-In . SVG Version: 6.00 Build 0)  -->
<svg version="1.1" id="Layer_1" xmlns="http://www.w3.org/2000/svg" xmlns:xlink="http://www.w3.org/1999/xlink" x="0px" y="0px"
	 viewBox="0 0 595.3 595.3" style="enable-background:new 0 0 595.3 595.3;" xml:space="preserve">
<style type="text/css">
	.st0{fill:#FFFFFF;}
	.st1{fill:#ED1D24;}
	.st2{fill:#121211;}
</style>
<path class="st0" d="M297.6,595.3L297.6,595.3C133.3,595.3,0,462,0,297.6v0C0,133.3,133.3,0,297.6,0h0
	C462,0,595.3,133.3,595.3,297.6v0C595.3,462,462,595.3,297.6,595.3z"/>
<g id="LDCGWq.tif_00000113349010759308805960000007706310688788986047_">
	<g>
		<path class="st1" d="M35.6,328c1.3-1.6,2.6-3.2,4-4.8c0.3,0.3,0.6,0.7,0.9,1c6.4,6.6,14,9.2,23,6.9c6.1-1.6,9.8-6.7,10.1-13
			c0.2-5.7-2-10.2-6.5-13.7c-3.5-2.7-7.5-4.6-11.5-6.6c-3.3-1.7-6.7-3.3-9.7-5.6c-3.7-2.8-6.4-6.2-7.5-10.8
			c-2.8-11.5,4.2-22.3,15.9-24.2c7.8-1.3,15.1,0.1,21.4,5c0.8,0.6,1.5,1.4,2.3,2.1c0.4,0.4,0.5,0.7,0.1,1.1c-1,1.2-1.9,2.5-2.9,3.8
			c-0.3,0.4-0.5,0.5-0.9,0.1c-4.6-5.1-10.5-7-17.2-6.4c-7.2,0.6-12.9,5.8-12.8,13.7c0.1,3.2,1.3,6,3.5,8.3c1.9,2,4.2,3.5,6.7,4.9
			c3.5,1.9,7.1,3.7,10.7,5.7c3.1,1.7,6.1,3.7,8.6,6.2c5.1,5.1,6.8,11.4,6,18.4c-0.7,5.8-3.2,10.6-8.1,14c-2.8,2-5.9,3.1-9.3,3.5
			c-6.4,0.9-12.5,0.2-18.4-2.6c-3-1.5-5.6-3.4-7.8-5.9c-0.2-0.2-0.4-0.6-0.8-0.7C35.6,328.1,35.6,328.1,35.6,328z"/>
		<path class="st1" d="M154.7,272.5c-0.2,0.5-0.1,0.9-0.1,1.3c0,20.4,0,40.7,0,61.1c0,1.6,0.1,1.4-1.4,1.4c-1.4,0-2.8,0-4.2,0
			c-0.7,0-1-0.2-0.9-0.9c0-0.3,0-0.5,0-0.8c0-25,0-50,0-75c0-0.3,0-0.6,0-1c0-0.4,0.2-0.7,0.6-0.7c1.8,0,3.6,0,5.4,0
			c0.6,0,0.7,0.5,0.9,0.8c4.8,8.8,9.7,17.5,14.5,26.3c6.4,11.7,12.8,23.3,19.3,35c0.1,0.3,0.2,0.6,0.6,0.8c0.2-0.4,0.1-0.8,0.1-1.2
			c0-20.1,0-40.2,0-60.2c0-1.4,0-1.4,1.4-1.4c1.4,0,2.8,0,4.2,0c0.6,0,1,0.2,0.9,0.9c0,0.3,0,0.5,0,0.8c0,25,0,50,0,75
			c0,0.3,0,0.5,0,0.8c0.1,0.7-0.3,0.9-0.9,0.8c-1.5,0-3,0-4.5,0c-0.7,0-1-0.2-1.3-0.8c-3.4-6.3-6.9-12.6-10.3-19
			c-7.9-14.4-15.7-28.8-23.6-43.2C155.2,273.1,155.1,272.7,154.7,272.5z"/>
		<path class="st1" d="M258.8,336.3c-2.5,0-4.8,0-7.1,0c-0.6,0-0.6-0.5-0.8-0.8c-5.5-9.5-11-19-16.5-28.5c-1-1.7-1.9-3.3-2.9-5
			c-0.4,0.2-0.5,0.6-0.7,0.9c-6.2,10.8-12.4,21.6-18.6,32.4c-0.4,0.7-0.8,1-1.6,1c-2.1-0.1-4.2,0-6.4,0c0-0.5,0.3-0.8,0.4-1.1
			c7.5-12.6,14.9-25.2,22.4-37.9c0.4-0.7,0.4-1.2,0-1.9c-7.1-12.1-14.1-24.2-21.2-36.3c-0.6-1-0.6-1.1,0.6-1.1c1.9,0,3.7,0,5.6,0
			c0.8,0,1.1,0.3,1.5,0.9c5.7,10.2,11.5,20.5,17.2,30.7c0.2,0.3,0.4,0.6,0.5,0.9c0.4-0.2,0.5-0.5,0.7-0.8
			c5.8-10.2,11.6-20.4,17.3-30.7c0.4-0.7,0.8-1.1,1.7-1c1.8,0.1,3.5,0,5.3,0c1.2,0,1.2,0,0.6,1c-5.8,9.9-11.5,19.8-17.3,29.7
			c-1.3,2.2-2.5,4.4-3.9,6.6c-0.4,0.7-0.4,1.2,0,1.9c7.5,12.6,15,25.3,22.4,38C258.4,335.5,258.5,335.8,258.8,336.3z"/>
		<path class="st1" d="M307.4,337.7c-8.2-0.1-15.4-2.8-21.1-8.8c-0.6-0.6-0.7-1.1-0.1-1.7c1-1,1.8-2.2,2.7-3.3
			c0.4-0.6,0.7-0.6,1.2,0c3.1,3.7,7.1,6.2,11.8,7.4c4.6,1.2,9.1,1.2,13.5-0.8c5.1-2.3,7.6-6.4,8-11.8c0.5-6-1.9-10.8-6.7-14.5
			c-3.2-2.4-6.7-4.1-10.3-5.9c-3.2-1.6-6.5-3.2-9.4-5.3c-3.9-2.7-7-6.1-8.4-10.8c-3.4-11.7,3.6-23,15.6-25c8.3-1.4,16,0.2,22.5,5.8
			c1.9,1.6,1.9,1.6,0.4,3.6c-0.6,0.8-1.2,1.5-1.7,2.3c-0.4,0.6-0.6,0.7-1.2,0.1c-2.3-2.6-5.2-4.5-8.6-5.4c-4.4-1.2-8.7-1.5-13.1,0.3
			c-8.9,3.6-11,15.2-3.9,21.5c2.7,2.4,5.8,4.1,8.9,5.7c3.5,1.8,7,3.5,10.3,5.6c4,2.5,7.6,5.5,9.9,9.8c3.9,7.4,2.9,17.7-2.2,23.9
			c-3.2,3.8-7.4,5.9-12.2,6.8C311.3,337.6,309.3,337.7,307.4,337.7z"/>
		<path class="st1" d="M112.5,296.2c1.9-3.5,3.6-6.8,5.4-10.2c4.8-9,9.5-18.1,14.3-27.1c0.3-0.7,0.7-0.9,1.5-0.9
			c1.7,0.1,3.5,0,5.2,0c0.8,0,0.9,0.2,0.5,0.9c-4.1,7.5-8.1,15-12.2,22.5c-3.7,6.8-7.4,13.6-11.1,20.4c-0.3,0.6-0.5,1.2-0.5,1.9
			c0,10.5,0,21,0,31.5c0,0.9-0.3,1.1-1.1,1.1c-1.5-0.1-3,0-4.5,0c-0.5,0-0.8-0.2-0.7-0.7c0-0.8,0-1.6,0-2.4c0-9.7,0-19.4,0-29.2
			c0-0.9-0.2-1.6-0.6-2.4c-7.7-14.2-15.3-28.3-23-42.5C85,258,85,258,86.3,258c1.7,0,3.4,0,5.1,0c0.8,0,1.1,0.2,1.5,0.9
			c6.3,12,12.6,24,18.9,36.1C112,295.3,112.2,295.7,112.5,296.2z"/>
		<path class="st2" d="M525.4,278.5c0-2,0-4,0-6c0-4.5,0-8.9,0-13.4c0-0.8,0.1-1.1,1-1c1.2,0.1,2.5,0.1,3.7,0c0.8,0,0.9,0.3,0.9,1
			c0,7.7,0,15.4,0,23.2c0,2.7,0,5.5,0,8.2c0,0.7-0.2,0.9-0.9,0.9c-1.2-0.1-2.4-0.1-3.6,0c-0.7,0-1-0.2-1.3-0.8
			c-3.8-6.6-7.5-13.2-11.3-19.8c-0.1-0.2-0.2-0.4-0.4-0.6c-0.2,0.4-0.1,0.7-0.1,1c0,6.4,0,12.7,0,19.1c0,0.8-0.1,1.1-1,1
			c-1.2-0.1-2.5-0.1-3.7,0c-0.8,0-0.9-0.3-0.9-1c0-5.5,0-10.9,0-16.4c0-5,0-9.9,0-14.9c0-0.7,0.1-1,0.9-1c1.3,0.1,2.6,0.1,3.9,0
			c0.7,0,1,0.2,1.3,0.8c3.6,6.3,7.3,12.7,10.9,19c0.1,0.2,0.3,0.5,0.4,0.7C525.3,278.5,525.4,278.5,525.4,278.5z"/>
		<path class="st2" d="M414.4,315.2c0,0.3,0,0.7,0,1c0,6.4,0,12.7,0,19.1c0,0.7-0.1,1-0.9,0.9c-1.2-0.1-2.4-0.1-3.6,0
			c-0.9,0-1.1-0.2-1.1-1.1c0-6.6,0-13.1,0-19.7c0-3.9,0-7.7,0-11.6c0-0.7,0.2-0.9,0.8-0.9c1.3,0.1,2.5,0.1,3.8,0
			c0.7,0,1.1,0.2,1.5,0.9c3.6,6.3,7.2,12.5,10.8,18.8c0.2,0.3,0.3,0.5,0.7,0.8c0-0.3,0-0.7,0-1c0-6.1,0-12.3,0-18.4
			c0-0.8,0.2-1.1,1-1c1.2,0.1,2.3,0.1,3.5,0c0.8-0.1,1.1,0.2,1.1,1.1c0,8.9,0,17.9,0,26.8c0,1.5,0,3,0,4.4c0,0.8-0.2,0.9-0.9,0.9
			c-1.1-0.1-2.2-0.1-3.3,0c-0.8,0.1-1.2-0.2-1.7-0.9c-3.7-6.5-7.4-12.9-11.1-19.3c-0.2-0.3-0.3-0.6-0.5-0.8
			C414.5,315.2,414.5,315.2,414.4,315.2z"/>
		<path class="st2" d="M493.6,323.6c0.2-0.4,0.1-0.8,0.1-1.1c0-6,0-12,0-18c0-1.4,0-1.4,1.4-1.4c1.1,0,2.3,0,3.4,0
			c0.5,0,0.8,0.1,0.8,0.7c0,10.6,0,21.2,0,31.8c0,0.6-0.2,0.8-0.8,0.7c-1.2,0-2.5-0.1-3.7,0c-0.7,0-1-0.2-1.3-0.8
			c-3.7-6.5-7.4-12.9-11.1-19.3c-0.2-0.3-0.4-0.6-0.7-1.2c0,0.6-0.1,0.9-0.1,1.2c0,6.3,0,12.5,0,18.8c0,1.2,0,1.3-1.3,1.3
			c-1.2,0-2.3,0-3.5,0c-0.6,0-0.8-0.1-0.8-0.7c0-10.6,0-21.2,0-31.8c0-0.6,0.2-0.8,0.8-0.7c1.4,0,2.7,0,4.1,0c0.6,0,0.9,0.2,1.2,0.7
			c3.6,6.3,7.2,12.6,10.9,18.9C493.2,323,493.4,323.3,493.6,323.6z"/>
		<path class="st1" d="M269.2,297.1c0-12.6,0-25.2,0-37.8c0-1,0.2-1.3,1.2-1.2c1.5,0.1,3,0,4.5,0c0.6,0,0.8,0.2,0.8,0.8
			c0,0.2,0,0.3,0,0.5c0,25.3,0,50.5,0,75.8c0,1.3,0.2,1.2-1.2,1.2c-1.4,0-2.9,0-4.3,0c-0.7,0-0.9-0.2-0.9-0.9c0-3.3,0-6.6,0-9.8
			C269.2,316.1,269.2,306.6,269.2,297.1z"/>
		<path class="st2" d="M402.1,274.2c4.2,1.3,5.7,5.8,5.3,9.3c-0.6,5-3.6,7.7-8.6,7.8c-4.1,0-8.1,0-12.2,0c-0.7,0-0.9-0.1-0.9-0.9
			c0-10.5,0-21,0-31.5c0-0.7,0.1-0.9,0.8-0.9c4,0,8,0,12,0c6.7,0.1,10.6,6.8,7.4,12.7c-0.7,1.3-1.7,2.3-3.1,2.9
			C402.5,273.9,402.2,273.9,402.1,274.2z M391.2,281.6c0,1.4,0,2.8,0,4.1c0,0.4,0.1,0.7,0.6,0.7c1.9,0,3.9,0.1,5.8,0
			c2.5-0.1,3.8-1.5,4.1-4c0.1-0.6,0-1.2,0-1.8c-0.3-2.2-1.9-3.7-4.1-3.7c-1.9-0.1-3.8,0-5.7,0c-0.6,0-0.7,0.2-0.7,0.7
			C391.2,278.9,391.2,280.2,391.2,281.6z M394.7,262.9C394.7,262.9,394.7,262.9,394.7,262.9c-1,0-1.9,0-2.9,0
			c-0.4,0-0.6,0.1-0.6,0.6c0,2.6,0,5.3,0,7.9c0,0.5,0.2,0.6,0.6,0.6c1.8,0,3.7,0,5.5,0c2-0.1,3.2-1.1,3.6-2.9c0.3-1.1,0.3-2.2,0-3.3
			c-0.5-1.8-1.8-2.8-3.6-2.8C396.5,262.9,395.6,262.9,394.7,262.9z"/>
		<path class="st2" d="M357.6,297.7c0,19.3,0,38.6,0,57.9c0,1-0.3,1.3-1.2,1.2c-0.9-0.1-2.1,0.4-2.6-0.2c-0.6-0.6-0.2-1.8-0.2-2.7
			c0-38,0-76,0-114c0-1.6-0.2-1.4,1.4-1.4c0.8,0,1.9-0.4,2.4,0.1c0.6,0.5,0.2,1.6,0.2,2.5C357.6,260,357.6,278.8,357.6,297.7z"/>
		<path class="st2" d="M410.2,274.9c0-3.8,0.6-7.4,2.4-10.6c2.4-4.3,6-6.7,11-6.7c5,0,8.6,2.4,11,6.8c1.1,2,1.7,4.2,2,6.5
			c0.6,4.3,0.4,8.5-1.3,12.6c-1.7,4.1-4.4,7.1-9,8.1c-5,1.2-9.9-0.7-12.9-5C411,283,410.2,278.9,410.2,274.9z M431.2,274.8
			c0-0.4,0-0.7,0-1.1c-0.2-2.9-0.6-5.8-2.3-8.3c-1.6-2.4-4.1-3.5-6.8-2.9c-2.3,0.6-3.8,2.2-4.7,4.2c-1.4,3-1.7,6.2-1.5,9.4
			c0.2,2.6,0.6,5,2,7.3c1.1,1.8,2.6,3.1,4.8,3.4c3.1,0.4,5.2-1,6.7-3.6C430.8,280.7,431.1,277.8,431.2,274.8z"/>
		<path class="st2" d="M466.4,274.6c0,3.8-0.6,7.3-2.4,10.6c-2.4,4.3-6,6.7-11,6.7c-5,0-8.6-2.4-11-6.8c-1.1-2-1.7-4.2-2-6.5
			c-0.6-4.3-0.4-8.5,1.3-12.6c1.7-4.1,4.4-7.1,8.9-8.1c5.3-1.2,10.4,0.9,13.3,5.5C465.7,266.8,466.4,270.7,466.4,274.6z
			 M460.8,274.5c-0.1-0.7-0.1-1.6-0.2-2.6c-0.3-2.4-0.9-4.7-2.3-6.7c-2.7-3.8-7.7-3.8-10.5-0.1c-0.6,0.8-1,1.7-1.4,2.6
			c-1.2,3.4-1.3,6.8-0.8,10.4c0.3,2.1,0.9,4.1,2.2,5.9c1.1,1.5,2.5,2.6,4.4,2.8c3,0.4,5.1-1.1,6.6-3.6
			C460.4,280.6,460.7,277.7,460.8,274.5z"/>
		<path class="st2" d="M559.6,280.3c0,1.9,0,3.7,0,5.6c0,0.6-0.2,1.1-0.6,1.5c-5.8,6.5-17.8,6.5-22.1-3.8c-2.4-6-2.4-12.1,0-18
			c2.6-6.2,8.7-9.3,14.9-7.7c3.4,0.9,5.6,3.2,7.3,6.2c0.2,0.4,0,0.6-0.3,0.7c-1.1,0.5-2.2,1-3.2,1.5c-0.6,0.3-0.8,0.2-1.1-0.4
			c-1-1.7-2.4-3-4.4-3.4c-2.7-0.5-4.9,0.4-6.6,2.5c-1.4,1.8-2.1,3.9-2.4,6.1c-0.5,3.3-0.4,6.5,0.7,9.7c0.3,1,0.8,2,1.4,2.9
			c2.5,3.7,7.3,4.3,10.6,1.4c0.4-0.4,0.6-0.7,0.6-1.3c0-1.6,0-3.2,0-4.8c0-0.5-0.2-0.7-0.7-0.7c-1.8,0-3.6,0-5.4,0
			c-0.7,0-1-0.1-0.9-0.9c0.1-1.1,0-2.1,0-3.2c0-0.6,0.1-0.8,0.7-0.8c3.6,0,7.2,0,10.7,0c0.6,0,0.8,0.2,0.7,0.8
			C559.6,276.3,559.6,278.3,559.6,280.3z"/>
		<path class="st2" d="M460,325.3c0,1.9,0,3.9,0,5.8c0,0.4,0,0.7-0.3,1c-4.3,5.4-13,6.4-18.3,2.1c-3-2.5-4.6-5.8-5.3-9.6
			c-0.9-4.6-0.7-9.2,1.1-13.6c2.2-5.5,6.7-8.6,12.3-8.5c4.7,0.1,7.9,2.5,10.1,6.5c0.2,0.4,0.1,0.6-0.3,0.8c-1.1,0.5-2.1,0.9-3.1,1.5
			c-0.6,0.3-0.8,0.2-1.2-0.3c-1-1.8-2.5-3.1-4.6-3.5c-2.6-0.4-4.7,0.5-6.4,2.6c-1.5,1.9-2.1,4.1-2.4,6.4c-0.4,3.4-0.3,6.7,0.9,9.9
			c0.3,0.8,0.7,1.6,1.2,2.3c2.5,3.7,7.2,4.3,10.6,1.5c0.5-0.4,0.7-0.8,0.7-1.4c0-1.5-0.1-3,0-4.4c0-0.8-0.1-1.1-1-1
			c-1.8,0.1-3.5,0-5.3,0c-0.5,0-0.7-0.2-0.7-0.7c0-1.2,0-2.3,0-3.5c0-0.5,0.2-0.7,0.7-0.7c3.6,0,7.2,0,10.8,0c0.7,0,0.7,0.3,0.7,0.8
			C460,321.3,460,323.3,460,325.3z"/>
		<path class="st2" d="M476.1,273.7c0.2-0.3,0.4-0.6,0.6-0.9c3-4.7,6.1-9.4,9.1-14.1c0.3-0.5,0.7-0.7,1.3-0.7c1.8,0,3.6,0,5.4,0
			c0.1,0.4-0.3,0.7-0.4,0.9c-3.2,4.7-6.5,9.4-9.8,14c-0.4,0.5-0.4,0.9,0,1.4c3.5,5.2,7,10.5,10.5,15.7c0.2,0.3,0.4,0.6,0.7,1.1
			c-1.2,0-2.2,0-3.2,0c-1.1,0-2.4,0.4-3.3-0.2c-0.8-0.5-1.2-1.7-1.8-2.7c-2.1-3.3-4.1-6.6-6.2-9.9c-0.2-0.3-0.4-0.5-0.6-0.9
			c-1.1,1.9-2.8,3.4-2.5,5.9c0.2,2.3,0,4.6,0.1,6.8c0,0.8-0.2,1-1,0.9c-1.3-0.1-2.5-0.1-3.8,0c-0.7,0-0.9-0.2-0.8-0.9
			c0-5,0-10,0-15.1c0-5.4,0-10.9,0-16.3c0-0.7,0.2-1,0.9-1c1.2,0.1,2.4,0.1,3.6,0c0.8,0,1.1,0.1,1.1,1c-0.1,4.6,0,9.1,0,13.7
			c0,0.3,0,0.6,0,0.9C476,273.7,476,273.7,476.1,273.7z"/>
		<path class="st2" d="M385.7,319.7c0-5.2,0-10.4,0-15.6c0-0.7,0.1-1,0.9-1c5.5,0,11,0,16.4,0c0.8,0,0.9,0.2,0.9,0.9
			c0,1-0.1,1.9,0,2.9c0.1,0.8-0.2,1-1,1c-3.5,0-7.1,0-10.6,0c-0.9,0-1.1,0.3-1.1,1.1c0.1,2.3,0,4.7,0,7c0,0.7,0.2,0.9,0.9,0.9
			c3.5,0,7,0,10.5,0c0.7,0,1,0.2,0.9,0.9c-0.1,1-0.1,1.9,0,2.9c0.1,0.8-0.1,1.1-1,1.1c-3.5-0.1-7,0-10.4,0c-0.7,0-0.9,0.2-0.9,0.9
			c0,2.6,0,5.2,0,7.8c0,0.7,0.2,0.9,0.9,0.9c3.6,0,7.2,0,10.8,0c0.7,0,1,0.2,1,1c-0.1,1-0.1,2,0,3c0,0.7-0.1,0.9-0.9,0.9
			c-5.5,0-11,0-16.5,0c-0.7,0-0.8-0.2-0.8-0.9C385.7,330.2,385.7,324.9,385.7,319.7z"/>
		<path class="st2" d="M504.6,319.6c0-5.1,0-10.3,0-15.4c0-0.9,0.3-1.1,1.1-1.1c5.4,0,10.8,0,16.2,0c0.7,0,0.9,0.2,0.9,0.9
			c-0.1,1-0.1,2,0,3c0.1,0.8-0.3,0.9-1,0.9c-3.6,0-7.2,0-10.7,0c-0.8,0-1,0.2-1,1c0.1,2.3,0.1,4.7,0,7c0,0.9,0.3,1,1.1,1
			c3.4,0,6.8,0,10.2,0c0.8,0,1.1,0.1,1,1c-0.1,1-0.1,2,0,3c0.1,0.8-0.2,0.9-0.9,0.9c-3.5,0-7,0-10.5,0c-0.7,0-0.9,0.2-0.9,0.9
			c0,2.6,0.1,5.2,0,7.8c0,0.8,0.3,0.9,1,0.9c3.6,0,7.2,0,10.7,0c0.7,0,1,0.2,1,0.9c-0.1,1.1,0,2.1,0,3.2c0,0.5-0.1,0.7-0.7,0.7
			c-5.6,0-11.3,0-16.9,0c-0.7,0-0.7-0.4-0.7-0.9C504.6,330.2,504.6,324.9,504.6,319.6z"/>
		<path class="st2" d="M496.8,274.7c0-5.2,0-10.4,0-15.6c0-0.7,0.1-1,0.9-1c1.3,0.1,2.6,0,3.9,0c0.6,0,0.8,0.1,0.8,0.7
			c0,10.6,0,21.2,0,31.8c0,0.6-0.2,0.7-0.8,0.7c-1.3,0-2.6-0.1-4,0c-0.7,0-0.8-0.2-0.8-0.9C496.8,285.2,496.8,279.9,496.8,274.7z"/>
		<path class="st2" d="M465.1,319.7c0-5.2,0-10.4,0-15.6c0-0.7,0.1-1,0.9-1c1.3,0.1,2.6,0,3.9,0c0.6,0,0.8,0.1,0.8,0.7
			c0,10.6,0,21.2,0,31.8c0,0.6-0.2,0.7-0.8,0.7c-1.3,0-2.6-0.1-4,0c-0.7,0-0.8-0.2-0.8-0.9C465.1,330.2,465.1,324.9,465.1,319.7z"/>
	</g>
</g>
</svg>
