<?xml version="1.0" encoding="utf-8"?>
<!-- Generator: Adobe Illustrator 21.1.0, SVG Export Plug-In . SVG Version: 6.00 Build 0)  -->
<svg version="1.1" id="Layer_1" xmlns="http://www.w3.org/2000/svg" xmlns:xlink="http://www.w3.org/1999/xlink" x="0px" y="0px"
	 viewBox="0 0 337.5 104.8" style="enable-background:new 0 0 337.5 104.8;" xml:space="preserve">
<style type="text/css">
	.st0{clip-path:url(#SVGID_2_);}
	.st1{fill:url(#SVGID_3_);}
	.st2{clip-path:url(#SVGID_5_);}
	.st3{fill:url(#SVGID_6_);}
	.st4{fill:#003C7E;}
	.st5{fill:#002E68;}
	.st6{fill:#6DCFF6;}
	.st7{fill:#FFFFFF;}
	.st8{clip-path:url(#SVGID_8_);}
</style>
<title>best_western_logo_4C</title>
<g>
	<defs>
		<path id="SVGID_1_" d="M25.6,8.5C0.9,22.8-7.6,54.4,6.7,79s45.8,33.1,70.5,18.8s33.1-45.8,18.8-70.5c-9.2-16-26.3-25.8-44.7-25.8
			C42.3,1.6,33.4,4,25.6,8.5"/>
	</defs>
	<clipPath id="SVGID_2_">
		<use xlink:href="#SVGID_1_"  style="overflow:visible;"/>
	</clipPath>
	<g class="st0">
		
			<radialGradient id="SVGID_3_" cx="45.741" cy="63.37" r="58.05" gradientTransform="matrix(1 0 0 -1 0 110.92)" gradientUnits="userSpaceOnUse">
			<stop  offset="0.66" style="stop-color:#003674"/>
			<stop  offset="0.74" style="stop-color:#023A79"/>
			<stop  offset="0.82" style="stop-color:#064687"/>
			<stop  offset="0.91" style="stop-color:#0D5A9E"/>
			<stop  offset="1" style="stop-color:#1775BD"/>
		</radialGradient>
		<rect x="-12.3" y="-10.5" class="st1" width="116" height="116.2"/>
	</g>
</g>
<g>
	<defs>
		<path id="SVGID_4_" d="M87.7,42.6C84,64.3,61.9,81.8,38.3,81.8S-0.9,64.3,2.9,42.6s25.5-39.2,49-39.2S91.5,21,87.7,42.6z"/>
	</defs>
	<clipPath id="SVGID_5_">
		<use xlink:href="#SVGID_4_"  style="overflow:visible;"/>
	</clipPath>
	<g class="st2">
		
			<radialGradient id="SVGID_6_" cx="59.471" cy="50.2" r="58.05" gradientTransform="matrix(1 0 0 -1 0 110.92)" gradientUnits="userSpaceOnUse">
			<stop  offset="0.63" style="stop-color:#003674"/>
			<stop  offset="0.69" style="stop-color:#013978"/>
			<stop  offset="0.75" style="stop-color:#054383"/>
			<stop  offset="0.8" style="stop-color:#0B5396"/>
			<stop  offset="0.86" style="stop-color:#136AB0"/>
			<stop  offset="0.88" style="stop-color:#1775BD"/>
			<stop  offset="0.89" style="stop-color:#277EC1"/>
			<stop  offset="0.92" style="stop-color:#5097CD"/>
			<stop  offset="0.95" style="stop-color:#92BEE0"/>
			<stop  offset="0.99" style="stop-color:#ECF4FA"/>
			<stop  offset="1" style="stop-color:#FFFFFF"/>
		</radialGradient>
		<rect x="1.5" y="2.6" class="st3" width="116" height="116.2"/>
	</g>
</g>
<path class="st4" d="M257.2,63.9c-9.2,0-15,6.5-15,15.6c0,10,7.3,16.4,17.1,16.4c4.1,0,9.2-1.1,9.2-6.3c0-0.3,0-0.6,0-0.9
	c0-0.2-0.2-0.3-0.4-0.3c-0.1,0-0.1,0-0.2,0.1c-2,1.3-4.3,1.9-6.7,1.8c-6.4,0-10.2-3.8-10.9-9.5l19.2-2.7c0.1-0.8,0.2-1.5,0.2-2.3
	C269.6,68.5,264.5,63.9,257.2,63.9z M250.2,76.1c0.3-4.1,1.8-7.4,6.3-7.4c3.5,0,5.1,2.6,5.1,5.6L250.2,76.1z M222.7,49.4
	c4.1,0,9.2-1.1,9.2-6.3c0-0.3,0-0.6,0-0.9c0-0.2-0.1-0.3-0.3-0.3c-0.1,0-0.2,0-0.2,0.1c-2,1.3-4.3,1.9-6.7,1.8
	c-6.4,0-10.2-3.8-10.9-9.5l19.1-2.7c0.1-0.8,0.2-1.5,0.2-2.3c0-7.3-5.1-11.9-12.4-11.9c-9.2,0-15,6.5-15,15.6
	C205.6,43,212.9,49.4,222.7,49.4z M219.9,22.1c3.5,0,5.2,2.6,5.2,5.6l-11.4,1.8C213.9,25.4,215.4,22.1,219.9,22.1z M242.6,89.3
	c-0.1-0.1-0.3-0.1-0.4,0c-1.1,0.8-2.4,1.1-3.7,1.1c-3.2,0-5.1-1.9-5.1-5v-15h8.2v-5.6h-8.3v-6h-8.4v6h-3.5v5.6h3.5v15.2
	c0,6.5,4,10.3,10.4,10.3c3.2,0,7.5-1.4,7.5-5.3c0-0.4,0-0.8-0.1-1.1L242.6,89.3z M261.5,39c0,6.5,4,10.3,10.4,10.3
	c3.2,0,7.5-1.4,7.5-5.3c0-0.4,0-0.8-0.1-1.1l-0.2-0.3c-0.1-0.1-0.3-0.1-0.4,0c-1.1,0.8-2.4,1.1-3.7,1.1c-3.2,0-5.1-1.9-5.1-5v-15
	h8.2v-5.6h-8.3v-5.9h-8.4v5.9H258v5.6h3.5L261.5,39z M281.9,71h-0.2v-1.1c0-3.5-2.3-5.5-5.7-5.5c-2.8,0-5.3,1.5-5.7,4.5l0.1,0.3h0.3
	c0.4-0.2,0.8-0.3,1.2-0.3c1.5,0,1.9,1.4,1.9,2.7v23.5h8.4V76.5c2.2-2.2,4.6-4.7,7.6-4.7c0.9,0,1.8,0.1,2.6,0.4l0.5-8.2
	c-0.5-0.1-1-0.2-1.5-0.2C286.9,63.9,284.4,67.4,281.9,71L281.9,71z M325.2,90.7c-0.4,0.2-0.7,0.3-1.1,0.3c-1.4,0-1.8-1.2-1.8-2.7
	V72.5c0-2.6-0.2-5.2-2.3-7c-1.3-1.1-3-1.7-4.6-1.6c-4.9,0-8.5,3-11.9,6.7h-0.2v-5.8h-8.3v30.3h8.4V76.2c1.8-1.8,4.4-4.8,7.4-4.8
	c1.6-0.1,2.9,1.2,3,2.8c0,0.2,0,0.3,0,0.5v14.1c0,4.2,2.1,6.7,6.1,6.7c3.4,0,5.5-2,5.7-4.6c0-0.1,0-0.2-0.1-0.3L325.2,90.7z
	 M211.9,76.9c-2.8-1.4-5-2.6-5-4.4c0-1.7,1.6-2.9,4.7-2.9c1.9,0,3.8,0.3,5.6,0.8l1-5.8c-2.2-0.4-4.4-0.6-6.6-0.6
	c-8.9,0-12.8,5-12.8,9.6c0,5.2,3.3,7.3,7.3,9.2c2.9,1.4,4.9,2.4,4.9,4.4c0,2.4-2.2,3.3-5,3.3c-2.5,0-4.9-0.6-7-1.8
	c-0.1-0.1-0.3-0.1-0.4,0c-0.1,0.1-0.2,0.2-0.2,0.3c0,0.3,0,0.6,0,0.9c0,4,3.1,6,8.6,6c9.4,0,12.5-5.8,12.5-9.9
	C219.3,80.9,215.7,78.8,211.9,76.9z M243.3,49.4c9.4,0,12.5-5.8,12.5-9.9c0-5.2-3.6-7.3-7.4-9.2c-2.8-1.4-5-2.5-5-4.4
	c0-1.7,1.6-3,4.7-3c1.9,0,3.8,0.3,5.6,0.9l1-5.8c-2.2-0.4-4.4-0.6-6.6-0.6c-8.9,0-12.8,5-12.8,9.6c0,5.2,3.3,7.2,7.3,9.2
	c2.8,1.4,4.8,2.4,4.8,4.4c0,2.4-2.2,3.3-5,3.3c-2.5,0-4.9-0.6-7-1.8c-0.1-0.1-0.3-0.1-0.4,0c-0.1,0.1-0.2,0.2-0.2,0.3
	c0,0.3,0,0.6,0,0.9C234.8,47.3,237.9,49.4,243.3,49.4z M184,63.9c-9.2,0-15,6.5-15,15.6c0,10,7.3,16.4,17.1,16.4
	c4.1,0,9.2-1.1,9.2-6.3c0-0.3,0-0.6,0-0.9c0-0.1-0.1-0.2-0.1-0.3c-0.1-0.1-0.3-0.1-0.4,0c-2,1.3-4.3,1.9-6.7,1.8
	c-6.4,0-10.2-3.8-10.9-9.5l19.1-2.7c0.1-0.8,0.2-1.5,0.2-2.3C196.4,68.5,191.3,63.9,184,63.9z M177,76.1c0.3-4.1,1.8-7.4,6.3-7.4
	c3.5,0,5.2,2.6,5.2,5.6L177,76.1z M182.9,49c1.4,0,2.7,0,4-0.1c3-0.2,6-0.9,8.8-2.1c4-1.8,6.8-5.5,7.4-9.8c0.3-2,0-4-0.9-5.9
	c-1-1.9-2.5-3.4-4.4-4.4c-1.2-0.6-2.5-1.1-3.8-1.4c1.9-0.9,3.5-2.2,4.6-3.9c0.9-1.3,1.4-2.8,1.4-4.4c0-1.4-0.4-2.7-1.1-3.8
	c-0.9-1.4-2.3-2.6-3.9-3.3c-2.9-1.4-5.9-1.9-10.7-1.9l0,0c-4.4,0.1-8.7,0.5-13,1.3h-0.2v38.7h0.2C175.2,48.6,179,49,182.9,49
	L182.9,49z M180.3,13.5c1-0.1,2.1-0.2,3.1-0.2c1.2,0,2.3,0.1,3.4,0.3c1.4,0.2,2.7,0.9,3.7,2c0.7,0.8,1,1.8,0.9,2.8
	c-0.2,2-1.3,3.8-3,4.8c-1.8,1.2-3.9,2-8.2,2.4L180.3,13.5z M180.3,29.3c1.5-0.4,3-0.6,4.5-0.6c1.1,0,2.3,0.1,3.4,0.4
	c3,0.9,4.8,2.9,5.1,5.6c0.1,1.5-0.1,3-0.8,4.3c-0.6,1.3-1.6,2.3-2.8,3.1c-1.8,1-3.9,1.5-6,1.4c-1.1,0-2.3-0.1-3.4-0.3L180.3,29.3z
	 M160.2,54.6c-1.3,0-2.5,0.5-3.5,1.4c-1.2,1.2-1.8,2.7-1.8,4.4l0.1,0.3h0.4c0.5-0.2,1-0.3,1.6-0.2c2.1,0.3,3.1,3.9,2.9,10.1
	c-0.2,3.8-0.9,7.6-2.1,11.3c-0.5,1.6-1.3,3.1-2.3,4.4c-0.7,1-1.8,1.6-3,1.8h-0.1c-0.3,0-0.5,0-0.8-0.1l-4.8-32.6h-9.5l3.6,21.6
	c-0.3,2.3-1,4.6-1.9,6.8c-1.1,2.4-2.5,3.8-4.1,4c-0.3,0-0.7,0.1-1,0.1h-0.5l-4.8-32.5h-9.5l6.6,39.8h0.2c1.2,0.3,2.5,0.5,3.7,0.5
	c1,0,2-0.1,3-0.3c2.5-0.6,4.8-2,6.4-4.1c1.5-1.7,2.6-3.7,3.3-5.9l1.6,9.9h0.2c1.4,0.3,2.8,0.5,4.2,0.5h1.1c2.4,0,4.7-0.7,6.7-2
	c2-1.3,3.7-3,5-5c2.1-3.4,3.7-7.2,4.6-11.1c0.9-3.9,1.4-8,1.4-12c0.1-2.7-0.4-5.4-1.5-7.8C164.4,55.8,162.4,54.5,160.2,54.6z
	 M333.6,87.4c-2.2,0.1-4,2-3.9,4.3c0.1,2.1,1.8,3.8,3.9,3.9c2.2-0.1,4-2,3.9-4.3C337.4,89.2,335.7,87.5,333.6,87.4z M333.6,95
	c-1.9,0.2-3.7-1.3-3.8-3.2c-0.2-1.9,1.3-3.7,3.2-3.8c1.9-0.2,3.7,1.3,3.8,3.2c0,0.1,0,0.2,0,0.3C336.9,93.3,335.5,94.9,333.6,95
	C333.6,95,333.6,95,333.6,95z M335.9,93.4h-0.2c-0.4,0-0.9-0.8-1.5-1.9c0.6-0.2,1.1-0.8,1.1-1.4c0-1.1-1.1-1.4-2-1.4
	c-0.5,0-0.9,0-1.4,0.1V94h0.8v-2.3c0.2,0,0.4,0,0.6,0c0.5,1.2,1,2.3,2,2.3c0.3,0,0.5-0.2,0.6-0.5c0,0,0,0,0,0L335.9,93.4L335.9,93.4
	z M333.2,91.2h-0.5v-1.8c0.1,0,0.3,0,0.4,0c0.6,0,1.2,0.2,1.2,0.9S333.8,91.2,333.2,91.2L333.2,91.2z"/>
<path class="st5" d="M25.2,72.8V58.7c2.6-0.8,5.4-0.8,8.1-0.2c2.9,0.8,4.9,2.8,5.2,5.8c0.3,3-1.1,5.9-3.6,7.5c-1.8,1-3.9,1.5-6,1.4
	C27.6,73.2,26.4,73.1,25.2,72.8 M25.2,43.2c2.3-0.4,4.6-0.3,6.8,0.1c3.7,0.8,4.9,3,4.8,5c-0.2,2-1.3,3.9-3.1,4.9
	c-1.8,1.2-4,2.1-8.5,2.4V43.2z M29.4,38.3c-4.3,0.1-8.6,0.5-12.8,1.3v37.6c5,0.9,10.2,1.2,15.3,0.9c3-0.2,5.9-0.9,8.6-2.1
	c3.8-1.7,6.5-5.3,7.1-9.4c0.7-4-1.4-8-5-9.8c-1.4-0.7-2.9-1.3-4.4-1.6c5.1-2.2,6.5-5.9,6.5-8.2c-0.1-3-2-5.7-4.8-6.8
	C36.9,38.7,33.9,38.3,29.4,38.3L29.4,38.3 M83.6,43.4c0,0.1,0,0.2,0.1,0.3h0.3c0.5-0.1,1-0.2,1.4-0.1c2.4,0.4,3.3,4.4,3.1,10.2
	c-0.2,6.6-2.8,17.4-7.6,17.5c-0.4,0-0.8,0-1.2-0.1l-4.8-32h-8.8l3.5,21c-0.6,4.2-2.5,10.3-6.2,10.9c-0.6,0.1-1.2,0.1-1.8,0l-4.7-32
	H48l6.4,38.7c2.1,0.5,4.4,0.6,6.5,0.1c4.8-1.1,8.5-5.8,9.7-10.8l1.8,10.7c1.7,0.4,3.4,0.5,5.2,0.4c4.8-0.1,8.7-2.7,11.3-6.8
	c4.1-6.2,5.8-15.2,5.8-22.6c0-6-1.8-10.6-6.4-10.6C85.7,38.3,83.5,40.5,83.6,43.4"/>
<path class="st6" d="M93,75.8c-1.4,0-2.6-1.1-2.7-2.5c0-1.4,1.1-2.6,2.5-2.7s2.6,1.1,2.7,2.5c0,0,0,0.1,0,0.1c0.1,1.4-1,2.5-2.4,2.6
	C93.1,75.8,93.1,75.9,93,75.8 M93,71c-1.2-0.1-2.3,0.8-2.4,2c-0.1,1.2,0.8,2.3,2,2.4c1.2,0.1,2.3-0.8,2.4-2c0-0.1,0-0.1,0-0.2
	C95.1,72.1,94.2,71.1,93,71C93,71,93,71,93,71 M92.9,73.4c-0.1,0-0.3,0-0.4,0v1.5h-0.5v-3.3c0.3,0,0.6,0,0.9,0
	c0.6,0,1.3,0.2,1.3,0.9c0,0.4-0.3,0.8-0.7,0.9c0.4,0.7,0.7,1.2,1,1.2h0.1l0,0l0,0c0,0.2-0.2,0.3-0.3,0.3c0,0,0,0,0,0
	C93.5,74.9,93.2,74.2,92.9,73.4 M92.7,71.9h-0.3V73h0.3c0.4,0,0.8-0.2,0.8-0.6S93.1,71.9,92.7,71.9"/>
<path class="st7" d="M22.8,70.5V56.4c2.6-0.8,5.4-0.8,8.1-0.2c2.9,0.8,4.9,2.8,5.2,5.8c0.3,3-1.1,5.9-3.6,7.5c-1.8,1-3.9,1.5-6,1.4
	C25.3,70.8,24,70.7,22.8,70.5 M22.8,40.9c2.3-0.4,4.6-0.3,6.8,0.1c3.7,0.8,4.9,3,4.8,5c-0.2,2-1.3,3.9-3.1,4.9
	c-1.8,1.2-4,2.1-8.5,2.4V40.9z M27.1,35.9c-4.3,0.1-8.6,0.5-12.8,1.3v37.6c5,0.9,10.2,1.2,15.3,0.9c3-0.2,5.9-0.9,8.6-2.1
	c3.8-1.7,6.5-5.3,7.1-9.4c0.7-4-1.4-8-5-9.8c-1.4-0.7-2.9-1.3-4.4-1.6c5.1-2.2,6.5-5.9,6.5-8.2c-0.1-3-2-5.7-4.8-6.8
	C34.6,36.4,31.6,35.9,27.1,35.9L27.1,35.9 M81.2,41c0,0.1,0,0.2,0.1,0.3h0.3c0.5-0.1,1-0.2,1.4-0.1c2.4,0.4,3.3,4.5,3.1,10.2
	c-0.2,6.6-2.8,17.4-7.6,17.4c-0.4,0-0.8,0-1.2-0.1l-4.8-32.1h-8.8l3.5,21c-0.7,4.3-2.5,10.4-6.2,11c-0.6,0.1-1.2,0.1-1.8,0l-4.7-32
	h-8.8l6.4,38.7c2.1,0.5,4.4,0.6,6.5,0.1c4.8-1.1,8.5-5.8,9.7-10.8l1.8,10.7c1.7,0.4,3.4,0.5,5.2,0.4C80.2,75.7,84,73,86.7,69
	c4.1-6.2,5.8-15.2,5.8-22.6c0-6-1.8-10.6-6.4-10.6C83.4,36,81.2,38.2,81.2,41"/>
<g>
	<defs>
		<path id="SVGID_7_" d="M22.8,70.5V56.4c2.6-0.8,5.4-0.8,8.1-0.2c2.9,0.8,4.9,2.8,5.2,5.8c0.3,3-1.1,5.9-3.6,7.5
			c-1.8,1-3.9,1.5-6,1.4C25.3,70.8,24,70.7,22.8,70.5 M22.8,40.9c2.3-0.4,4.6-0.3,6.8,0.1c3.7,0.8,4.9,3,4.8,5
			c-0.2,2-1.3,3.9-3.1,4.9c-1.8,1.2-4,2.1-8.5,2.4V40.9z M27.1,35.9c-4.3,0.1-8.6,0.5-12.8,1.3v37.6c5,0.9,10.2,1.2,15.3,0.9
			c3-0.2,5.9-0.9,8.6-2.1c3.8-1.7,6.5-5.3,7.1-9.4c0.7-4-1.4-8-5-9.8c-1.4-0.7-2.9-1.3-4.4-1.6c5.1-2.2,6.5-5.9,6.5-8.2
			c-0.1-3-2-5.7-4.8-6.8C34.6,36.4,31.6,35.9,27.1,35.9L27.1,35.9 M81.2,41c0,0.1,0,0.2,0.1,0.3h0.3c0.5-0.1,1-0.2,1.4-0.1
			c2.4,0.4,3.3,4.5,3.1,10.2c-0.2,6.6-2.8,17.4-7.6,17.4c-0.4,0-0.8,0-1.2-0.1l-4.8-32.1h-8.8l3.5,21c-0.7,4.3-2.5,10.4-6.2,11
			c-0.6,0.1-1.2,0.1-1.8,0l-4.7-32h-8.8l6.4,38.7c2.1,0.5,4.4,0.6,6.5,0.1c4.8-1.1,8.5-5.8,9.7-10.8l1.8,10.7
			c1.7,0.4,3.4,0.5,5.2,0.4C80.2,75.7,84,73,86.7,69c4.1-6.2,5.8-15.2,5.8-22.6c0-6-1.8-10.6-6.4-10.6C83.4,36,81.2,38.2,81.2,41"/>
	</defs>
	<clipPath id="SVGID_8_">
		<use xlink:href="#SVGID_7_"  style="overflow:visible;"/>
	</clipPath>
	<g class="st8">
		
			<image style="overflow:visible;enable-background:new    ;" width="151" height="112" xlink:href="5CE13B5.png"  transform="matrix(1 0 0 1 -22.079 0)">
		</image>
	</g>
</g>
</svg>
