<?xml version="1.0" encoding="utf-8"?>
<!-- Generator: Adobe Illustrator 26.3.1, SVG Export Plug-In . SVG Version: 6.00 Build 0)  -->
<svg version="1.1" id="Layer_1" xmlns="http://www.w3.org/2000/svg" xmlns:xlink="http://www.w3.org/1999/xlink" x="0px" y="0px"
	 viewBox="0 0 595.3 595.3" style="enable-background:new 0 0 595.3 595.3;" xml:space="preserve">
<style type="text/css">
	.st0{fill:#FFFFFF;}
	.st1{fill:#E7222C;}
	.st2{fill:#1A50A2;}
</style>
<path class="st0" d="M297.6,595.3L297.6,595.3C133.3,595.3,0,462,0,297.6l0,0C0,133.3,133.3,0,297.6,0l0,0
	C462,0,595.3,133.3,595.3,297.6l0,0C595.3,462,462,595.3,297.6,595.3z"/>
<g>
	<g>
		<path class="st1" d="M109.9,347.3c0-21.8,0-43.4,0-65.2c0-6.3,0.1-6.4,6.3-6.4c16.5,0,33,0,49.6,0c35.8,0.1,66.4,28.6,70.1,64.1
			c4,38.7-23.5,73.6-63.1,78.6c-9.1,1.1-18.5,0.4-27.8,0.4c-9.5,0-19.2,0-28.8,0c-6.1,0-6.3-0.1-6.3-6.4
			C109.8,390.8,109.9,369.1,109.9,347.3z M148,347.5c0,11.5,0,22.9,0,34.5c0,2.6,0.1,4.6,3.6,4.8c22.8,1.1,42-8.3,44.7-34
			c2-19.1-6.1-37.2-26.5-42.7c-5.4-1.4-10.8-1.4-16.4-1.7c-4-0.1-5.6,1.1-5.6,5.3C148.1,324.8,148,336.1,148,347.5z"/>
		<path class="st1" d="M317.2,409.4c-6.1,7.4-13.4,11-21.7,12.4c-22.4,3.8-44.4-9-53.1-30.8c-10.7-26.6,0.1-57.3,24.9-68.4
			c16.7-7.5,33-6.6,48,5.1c0.4,0.4,1,0.7,1.4,1c0.3-0.4,0.7-0.6,0.7-0.9c0.6-6.7,0.6-6.7,7-6.7c7.7,0,15.4,0.1,23.1,0
			c3.7-0.1,5.4,1.1,5.4,5.1c-0.1,29.2-0.1,58.5,0,87.7c0,3.6-1.3,5.1-5,5c-8-0.1-16.1,0-24.1,0c-6.1,0-6.1,0-6.4-6.3
			C317.5,412.1,317.3,411.6,317.2,409.4z M296.3,391.2c13.1,0.1,22.1-8.1,22.2-20.5c0.1-12.3-9.1-21.5-21.4-21.7
			c-12.8,0-21.5,8.4-21.7,21.1C275.2,382.8,283.4,391,296.3,391.2z"/>
		<path class="st1" d="M421.2,370.1c6.3-12.5,13-23.8,17.9-35.9c4.1-10.1,9.8-15,21.2-13.2c6.6,1,13.5,0.1,20.2,0.1
			c5.4,0,5.8,0.6,3.4,5.1c-12.3,22.9-24.5,45.7-36.8,68.7c-12,22.4-23.9,44.6-35.8,67.1c-2.1,4.1-4.7,6-9.5,5.8
			c-9.5-0.3-19.2-0.1-28.8-0.1c-3.7,0-4.4-1.1-2.6-4.6c9.5-17.5,18.8-35.2,28.5-52.7c2.1-3.7,2-6.6-0.1-10.4
			c-14-24.5-27.6-49.1-41.3-73.6c-2.7-4.8-2.4-5.4,3.3-5.4c9.7,0,19.5,0.1,29.2-0.1c4-0.1,6.3,1.3,8.1,4.8
			C405.5,340.5,413.2,354.7,421.2,370.1z"/>
	</g>
	<g>
		<path class="st2" d="M191.2,192c0.6,1.4,1.7,1.1,2.6,1.4c15.1,4.6,22.6,15.1,23.5,30.9c0.7,16-4.1,28.6-18.8,36.5
			c-7.7,4.1-16.1,6.3-24.8,6.4c-19.7,0.3-39.3,0-59,0.1c-3.7,0-4.8-1.6-4.8-5c0-43.3,0-86.6,0-129.9c0-3.4,1.1-5,4.8-5
			c18.1,0.1,36.2-0.3,54.4,0.1c28.6,0.7,44.6,28.8,31.2,54.1C198.1,186.4,194.5,189.2,191.2,192z M147.1,224.2c0,3.7,0,7.4,0,11
			c0,2,0.7,3.4,2.8,3.4c6.6,0,13.2,0.7,19.7-1.1c6.7-2,10.3-6.7,10.3-13c0-6.7-3.7-11.3-10.7-13.1c-6.1-1.7-12.5-1-18.8-1.1
			c-2.3,0-3.3,1.1-3.3,3.4C147.1,217.3,147.1,220.7,147.1,224.2z M147.1,169.4L147.1,169.4c0,3.3,0,6.4,0,9.7c0,2,0.7,3.1,3,3.3
			c4.4,0.1,9-0.3,13.1-2c3.8-1.6,6.3-4.7,6.7-9.1c0.7-9.4-3.7-14.1-14-14.5c-8.7-0.4-8.7-0.4-8.7,8.1
			C147.1,166.3,147.1,167.8,147.1,169.4z"/>
		<path class="st2" d="M291.1,226c-10.1,0-20.2,0.1-30.5-0.1c-3.7-0.1-4.4,1.3-4,4.6c1,6.8,4.6,11.8,11.1,14
			c7.8,2.6,15.7,2.7,21.9-3.7c2.4-2.4,4.7-3.4,8-3.4c7.8,0.1,15.7,0.1,23.5,0c4-0.1,4.4,1.4,3.3,4.7c-3.8,10.4-10.8,17.9-20.7,22.5
			c-16.8,8-34.3,8.3-51.6,1.6c-23.9-9.3-35.2-32.3-29.6-58.5c4.8-22.6,22.8-37.5,46.2-38.6c14.7-0.7,28.6,1,40.5,10.7
			c13.5,11,17.8,25.9,17.5,42.7c0,3.4-2.4,3.4-4.8,3.4C311.6,226,301.3,226,291.1,226z M275.4,205.6c5.1,0,10.1,0,15.2,0
			c2.8,0,3.7-1.3,2.4-3.7c-3.7-6.6-9.5-9.8-17.1-9.8c-7.7,0-14.1,3-17.8,10.1c-1.1,2.3-0.6,3.4,2.1,3.4
			C265.3,205.6,270.4,205.6,275.4,205.6z"/>
		<path class="st2" d="M377.4,169.4c9.7-0.4,18.5,1.3,27.2,4.3c3.1,1.1,3.7,2.7,2.1,5.6c-2.7,5-5.4,10-8,15.1
			c-1.3,2.7-2.8,3-5.6,1.9c-6-2.4-12.3-4.3-18.8-2.6c-2.8,0.7-5.6,1.9-5.8,5c-0.3,3.6,2.7,4.8,5.6,5.8c2.3,0.7,4.7,1.1,7.1,1.7
			c2.7,0.6,5.4,1.1,8.1,1.9c11.3,3.3,19.7,9.4,21.5,21.9c1.9,13.2-2.3,24.2-13.2,31.8c-15,10.3-31.6,10.8-48.7,7
			c-6.4-1.4-12.5-4-18.4-7.1c-2.6-1.4-3.1-2.8-1.7-5.6c3.1-5.7,6.1-11.4,9-17.1c1.3-2.6,2.7-3.3,5.3-1.6c5.7,3.6,11.8,5.8,18.4,7.1
			c3.8,0.7,7.7,0.9,11.3-1c4.7-2.4,4.8-7.4,0.4-10.3c-2.3-1.4-4.8-2-7.4-2.6c-3.6-0.9-7.1-1.7-10.8-2.6c-21.2-5-23.9-22.6-17.8-38.5
			c3.6-9.4,11.5-14.5,20.8-17.7C364.4,169.8,371,168.8,377.4,169.4z"/>
		<path class="st2" d="M424.3,234.6c0-9.5-0.1-19.1,0-28.6c0.1-3.8-1.4-5.4-5.1-5c-4.6,0.6-6.4-1.3-6.1-6c0.3-5.8,0.3-11.7,0-17.5
			c-0.1-4,1.3-5.8,5.3-5.3c4.8,0.7,6.1-1.4,5.8-6c-0.3-6,0-12-0.1-17.9c0-3.3,1.3-4.7,4.7-4.6c8.4,0.1,17,0.1,25.4,0
			c3.4,0,4.6,1.4,4.6,4.7c-0.1,6.6,0,13.2,0,19.8c0,3,1,4.3,4,4.1c3.7-0.1,7.4,0,11.1,0c2.8,0,4.3,1,4.3,4c-0.1,7-0.1,13.8,0,20.8
			c0,3-1.4,4.1-4.3,4.1c-3.4,0-6.8,0.1-10.1,0c-3.8-0.3-5,1.3-5,5.1c0.1,18.1,0,36.3,0,54.4c0,7.1,0,7.1-7.1,7.1
			c-7.5,0-15.1-0.1-22.6,0c-3.7,0.1-4.8-1.4-4.8-4.8C424.4,253.3,424.3,243.9,424.3,234.6z"/>
	</g>
</g>
</svg>
