<?xml version="1.0" encoding="utf-8"?>
<!-- Generator: Adobe Illustrator 26.3.1, SVG Export Plug-In . SVG Version: 6.00 Build 0)  -->
<svg version="1.1" id="Layer_1" xmlns="http://www.w3.org/2000/svg" xmlns:xlink="http://www.w3.org/1999/xlink" x="0px" y="0px"
	 viewBox="0 0 595.3 595.3" style="enable-background:new 0 0 595.3 595.3;" xml:space="preserve">
<style type="text/css">
	.st0{fill:#FFFFFF;}
	.st1{fill:#E7222C;}
	.st2{fill:#1A50A2;}
</style>
<path class="st0" d="M297.6,595.3L297.6,595.3C133.3,595.3,0,462,0,297.6v0C0,133.3,133.3,0,297.6,0h0
	C462,0,595.3,133.3,595.3,297.6v0C595.3,462,462,595.3,297.6,595.3z"/>
<g>
	<g>
		<path class="st1" d="M296.1,280.4c0-15.3,0-30.5,0-45.8c0-4.4,0.1-4.5,4.4-4.5c11.6,0,23.2,0,34.8,0c25.1,0.1,46.6,20.1,49.2,45
			c2.8,27.2-16.5,51.7-44.3,55.2c-6.4,0.8-13,0.3-19.5,0.3c-6.7,0-13.5,0-20.2,0c-4.3,0-4.4-0.1-4.4-4.5
			C296,310.9,296.1,295.7,296.1,280.4z M322.8,280.5c0,8.1,0,16.1,0,24.2c0,1.8,0.1,3.2,2.5,3.4c16,0.8,29.5-5.8,31.4-23.9
			c1.4-13.4-4.3-26.1-18.6-30c-3.8-1-7.6-1-11.5-1.2c-2.8-0.1-3.9,0.8-3.9,3.7C322.9,264.6,322.8,272.5,322.8,280.5z"/>
		<path class="st1" d="M441.6,324c-4.3,5.2-9.4,7.7-15.2,8.7c-15.7,2.7-31.2-6.3-37.3-21.6c-7.5-18.7,0.1-40.2,17.5-48
			c11.7-5.3,23.2-4.6,33.7,3.6c0.3,0.3,0.7,0.5,1,0.7c0.2-0.3,0.5-0.4,0.5-0.6c0.4-4.7,0.4-4.7,4.9-4.7c5.4,0,10.8,0.1,16.2,0
			c2.6-0.1,3.8,0.8,3.8,3.6c-0.1,20.5-0.1,41.1,0,61.6c0,2.5-0.9,3.6-3.5,3.5c-5.6-0.1-11.3,0-16.9,0c-4.3,0-4.3,0-4.5-4.4
			C441.8,325.9,441.7,325.5,441.6,324z M426.9,311.2c9.2,0.1,15.5-5.7,15.6-14.4c0.1-8.6-6.4-15.1-15-15.2c-9,0-15.1,5.9-15.2,14.8
			C412.1,305.3,417.9,311.1,426.9,311.2z"/>
		<path class="st1" d="M514.6,296.4c4.4-8.8,9.1-16.7,12.6-25.2c2.9-7.1,6.9-10.5,14.9-9.3c4.6,0.7,9.5,0.1,14.2,0.1
			c3.8,0,4.1,0.4,2.4,3.6c-8.6,16.1-17.2,32.1-25.8,48.2c-8.4,15.7-16.8,31.3-25.1,47.1c-1.5,2.9-3.3,4.2-6.7,4.1
			c-6.7-0.2-13.5-0.1-20.2-0.1c-2.6,0-3.1-0.8-1.8-3.2c6.7-12.3,13.2-24.7,20-37c1.5-2.6,1.4-4.6-0.1-7.3
			c-9.8-17.2-19.4-34.5-29-51.7c-1.9-3.4-1.7-3.8,2.3-3.8c6.8,0,13.7,0.1,20.5-0.1c2.8-0.1,4.4,0.9,5.7,3.4
			C503.6,275.6,509,285.6,514.6,296.4z"/>
	</g>
	<g>
		<path class="st2" d="M92.7,277.2c0.4,1,1.2,0.8,1.8,1c10.6,3.2,15.9,10.6,16.5,21.7c0.5,11.2-2.9,20.1-13.2,25.6
			c-5.4,2.9-11.3,4.4-17.4,4.5c-13.8,0.2-27.6,0-41.4,0.1c-2.6,0-3.4-1.1-3.4-3.5c0-30.4,0-60.8,0-91.2c0-2.4,0.8-3.5,3.4-3.5
			c12.7,0.1,25.4-0.2,38.2,0.1c20.1,0.5,31.3,20.2,21.9,38C97.5,273.2,95,275.2,92.7,277.2z M61.7,299.8c0,2.6,0,5.2,0,7.7
			c0,1.4,0.5,2.4,2,2.4c4.6,0,9.3,0.5,13.8-0.8c4.7-1.4,7.2-4.7,7.2-9.1c0-4.7-2.6-7.9-7.5-9.2c-4.3-1.2-8.8-0.7-13.2-0.8
			c-1.6,0-2.3,0.8-2.3,2.4C61.7,294.9,61.7,297.3,61.7,299.8z M61.7,261.3C61.7,261.3,61.7,261.3,61.7,261.3c0,2.3,0,4.5,0,6.8
			c0,1.4,0.5,2.2,2.1,2.3c3.1,0.1,6.3-0.2,9.2-1.4c2.7-1.1,4.4-3.3,4.7-6.4c0.5-6.6-2.6-9.9-9.8-10.2c-6.1-0.3-6.1-0.3-6.1,5.7
			C61.7,259.1,61.7,260.2,61.7,261.3z"/>
		<path class="st2" d="M162.8,301c-7.1,0-14.2,0.1-21.4-0.1c-2.6-0.1-3.1,0.9-2.8,3.2c0.7,4.8,3.2,8.3,7.8,9.8
			c5.5,1.8,11,1.9,15.4-2.6c1.7-1.7,3.3-2.4,5.6-2.4c5.5,0.1,11,0.1,16.5,0c2.8-0.1,3.1,1,2.3,3.3c-2.7,7.3-7.6,12.6-14.5,15.8
			c-11.8,5.6-24.1,5.8-36.2,1.1c-16.8-6.5-24.7-22.7-20.8-41.1c3.4-15.9,16-26.3,32.4-27.1c10.3-0.5,20.1,0.7,28.4,7.5
			c9.5,7.7,12.5,18.2,12.3,30c0,2.4-1.7,2.4-3.4,2.4C177.2,301,170,301,162.8,301z M151.8,286.7c3.6,0,7.1,0,10.7,0
			c2,0,2.6-0.9,1.7-2.6c-2.6-4.6-6.7-6.9-12-6.9c-5.4,0-9.9,2.1-12.5,7.1c-0.8,1.6-0.4,2.4,1.5,2.4
			C144.7,286.7,148.3,286.7,151.8,286.7z"/>
		<path class="st2" d="M223.4,261.3c6.8-0.3,13,0.9,19.1,3c2.2,0.8,2.6,1.9,1.5,3.9c-1.9,3.5-3.8,7-5.6,10.6c-0.9,1.9-2,2.1-3.9,1.3
			c-4.2-1.7-8.6-3-13.2-1.8c-2,0.5-3.9,1.3-4.1,3.5c-0.2,2.5,1.9,3.4,3.9,4.1c1.6,0.5,3.3,0.8,5,1.2c1.9,0.4,3.8,0.8,5.7,1.3
			c7.9,2.3,13.8,6.6,15.1,15.4c1.3,9.3-1.6,17-9.3,22.3c-10.5,7.2-22.2,7.6-34.2,4.9c-4.5-1-8.8-2.8-12.9-5c-1.8-1-2.2-2-1.2-3.9
			c2.2-4,4.3-8,6.3-12c0.9-1.8,1.9-2.3,3.7-1.1c4,2.5,8.3,4.1,12.9,5c2.7,0.5,5.4,0.6,7.9-0.7c3.3-1.7,3.4-5.2,0.3-7.2
			c-1.6-1-3.4-1.4-5.2-1.8c-2.5-0.6-5-1.2-7.6-1.8c-14.9-3.5-16.8-15.9-12.5-27c2.5-6.6,8.1-10.2,14.6-12.4
			C214.3,261.6,218.9,260.9,223.4,261.3z"/>
		<path class="st2" d="M256.3,307.1c0-6.7-0.1-13.4,0-20.1c0.1-2.7-1-3.8-3.6-3.5c-3.2,0.4-4.5-0.9-4.3-4.2c0.2-4.1,0.2-8.2,0-12.3
			c-0.1-2.8,0.9-4.1,3.7-3.7c3.4,0.5,4.3-1,4.1-4.2c-0.2-4.2,0-8.4-0.1-12.6c0-2.3,0.9-3.3,3.3-3.2c5.9,0.1,11.9,0.1,17.8,0
			c2.4,0,3.2,1,3.2,3.3c-0.1,4.6,0,9.3,0,13.9c0,2.1,0.7,3,2.8,2.9c2.6-0.1,5.2,0,7.8,0c2,0,3,0.7,3,2.8c-0.1,4.9-0.1,9.7,0,14.6
			c0,2.1-1,2.9-3,2.9c-2.4,0-4.8,0.1-7.1,0c-2.7-0.2-3.5,0.9-3.5,3.6c0.1,12.7,0,25.5,0,38.2c0,5,0,5-5,5c-5.3,0-10.6-0.1-15.9,0
			c-2.6,0.1-3.4-1-3.4-3.4C256.4,320.2,256.3,313.6,256.3,307.1z"/>
	</g>
</g>
</svg>
