<?xml version="1.0" encoding="utf-8"?>
<!-- Generator: Adobe Illustrator 26.3.1, SVG Export Plug-In . SVG Version: 6.00 Build 0)  -->
<svg version="1.1" id="Layer_1" xmlns="http://www.w3.org/2000/svg" xmlns:xlink="http://www.w3.org/1999/xlink" x="0px" y="0px"
	 viewBox="0 0 595.3 595.3" style="enable-background:new 0 0 595.3 595.3;" xml:space="preserve">
<style type="text/css">
	.st0{fill:#FFFFFF;}
	.st1{fill:#ECECEC;}
	.st2{fill:#F9F9F9;}
	.st3{fill:#5E0A3E;}
	.st4{fill:#5E0B3E;}
	.st5{fill:#F4F3F4;}
	.st6{fill:#6C1349;}
	.st7{fill:#74134E;}
	.st8{fill:#841456;}
	.st9{fill:#7F1453;}
	.st10{fill:#550B34;}
	.st11{fill:#E1E1E1;}
	.st12{fill:#EAE8E9;}
	.st13{fill:#F0F0F0;}
	.st14{fill:#EBEBEB;}
	.st15{fill:#F4F4F4;}
	.st16{fill:#8F175E;}
	.st17{fill:#EDECED;}
	.st18{fill:#650D43;}
	.st19{fill:#630C41;}
	.st20{fill:#EBE9EA;}
	.st21{fill:#F1F1F1;}
	.st22{fill:#9F1A67;}
	.st23{fill:#971762;}
	.st24{fill:#CFCFCF;}
	.st25{fill:#680E45;}
	.st26{fill:#F3EEF1;}
	.st27{fill:#E6E6E6;}
	.st28{fill:#DFDFDF;}
	.st29{fill:#B71C75;}
	.st30{fill:#A81A6C;}
	.st31{fill:#AF1B71;}
	.st32{fill:#E6E5E6;}
	.st33{fill:#DEDEDE;}
	.st34{fill:#E7E7E7;}
	.st35{fill:#F0E9ED;}
	.st36{fill:#6C0F48;}
	.st37{fill:#71124B;}
	.st38{fill:#E4E2E3;}
	.st39{fill:#C6C6C6;}
	.st40{fill:#74124D;}
	.st41{fill:#DBD4D9;}
	.st42{fill:#6D0F49;}
	.st43{fill:#863F63;}
	.st44{fill:#7D325A;}
	.st45{fill:#831556;}
	.st46{fill:#7D1453;}
	.st47{fill:#F0E5EA;}
	.st48{fill:#D9D9D9;}
	.st49{fill:#8D185D;}
	.st50{fill:#CA5890;}
	.st51{fill:#C4538A;}
	.st52{fill:#EEE7EB;}
	.st53{fill:#D6D6D6;}
	.st54{fill:#DEDDDE;}
	.st55{fill:#CC1D81;}
	.st56{fill:#F4E4EC;}
	.st57{fill:#C61D7D;}
	.st58{fill:#D45B98;}
	.st59{fill:#76134E;}
	.st60{fill:#E8E0E5;}
	.st61{fill:#E4DFE2;}
	.st62{fill:#BDBDBD;}
	.st63{fill:#7C1352;}
	.st64{fill:#951861;}
	.st65{fill:#AA4D7B;}
	.st66{fill:#90185E;}
	.st67{fill:#983B6F;}
	.st68{fill:#D65D99;}
	.st69{fill:#FDFAFB;}
	.st70{fill:#CDCCCB;}
	.st71{fill:#F4EEF1;}
	.st72{fill:#F0E8EC;}
	.st73{fill:#FEFDFD;}
	.st74{fill:#CBCBCB;}
	.st75{fill:#DE609F;}
	.st76{fill:#D31E85;}
	.st77{fill:#BDBCBB;}
	.st78{fill:#BD7697;}
	.st79{fill:#9C1965;}
	.st80{fill:#F8F5F6;}
	.st81{fill:#A9517C;}
	.st82{fill:#8A165B;}
	.st83{fill:#D9A9BF;}
	.st84{fill:#BC5789;}
	.st85{fill:#A61D6C;}
	.st86{fill:#D5AABE;}
	.st87{fill:#AC5381;}
	.st88{fill:#B14E7F;}
</style>
<path class="st0" d="M297.6,595.3L297.6,595.3C133.3,595.3,0,462,0,297.6l0,0C0,133.3,133.3,0,297.6,0l0,0
	C462,0,595.3,133.3,595.3,297.6l0,0C595.3,462,462,595.3,297.6,595.3z"/>
<g>
	<path class="st1" d="M451.1,462.7c3.9,4.9,10.8,3.3,15,7.5c-112.2,0-224.1,0-337.6,0c4.2-5.2,11.1-2.9,12.1-9.5
		c6.5-9.5,17-9.8,26.7-10.8c5.2,2,4.6,4.2,0.7,6.9c1,2.3,2.9,0.7,4.2,0.7c81.2,0,162.5,0,243.7,0c5.5,0,11.7,1,17-2
		C440.7,453.5,447.9,452.9,451.1,462.7z"/>
	<path class="st2" d="M290.6,142.3c-2.9-6.2,1.3-11.7,1.6-17.6c0-2.6,4.2-5.2,6.9-0.7c18.9,33.9,37.5,67.9,54.2,103.1
		c6.9,14.7,15.3,28.4,22.5,42.7c17.6,34.9,34.9,70.1,53.8,104.4c10.1,18.6,17.3,39.1,29.4,56.4c-3.9,3.6-7.2-5.5-10.4,0.3
		c-6.9-0.7-11.7-4.2-14-10.8c1.3-4.6,2-9.5-0.3-14c-22.2-45.7-44.7-91.3-67.9-136c-4.2-8.2-12.1-14.4-14.7-23.8
		c-8.2-19.6-17.6-38.5-28.1-57.1c-5.9-10.4-11.1-21.5-16.3-32.3c2.9,4.9,3.6,10.8,4.9,16.3c1.3,6.2,2.9,12.7,4.2,18.9
		c0.7,2.9,0.7,5.5,0,8.5c-0.7,1.6-2,2.9-3.9,2.9c-3.6-1.3-5.2-4.6-6.5-7.8c-1.6-5.2,0-11.4-2.6-16.6c-3.3-6.9-2-14.7-3.9-21.5
		c-0.7-9.5-6.2-18.3-3.3-28.1C292.9,132.9,298.1,140.4,290.6,142.3z"/>
	<path class="st3" d="M166.7,451.9c-8.8,2-17.6,4.6-26.1,8.8c-11.1,3.6-21.9,6.9-32.9,10.4c-2.3,0.7-5.2,2.3-6.5-0.7
		c-1.3-2.6,1.6-3.6,3.3-4.9c7.2-6.5,14.4-13,21.5-19.6c2.9-7.8,10.4-11.4,16-16.6c6.2-5.5,11.7-11.7,17.9-17.6
		c2.3-2,4.9-3.6,8.2-4.2c8.5,2,12.7,9.8,19.6,14.4c2.9,2,4.9,4.9,8.5,6.5c9.1,4.6,9.1,6.2,0.7,12.7c-1,0.7-1.6,1.3-2.6,2
		C185.6,449,176.1,450.9,166.7,451.9z"/>
	<path class="st4" d="M435.8,419.6c3.6,4.6,8.2,8.2,12.7,11.4c12.4,11.4,24.8,22.8,36.9,34.3c-2.3,4.6-6.2,3.3-9.8,2.3
		c-8.5-1-16-5.5-24.8-4.9c-4.2-6.2-11.1-5.5-17.3-7.2c-6.2,2-11.1-2.6-16.6-2.9c-7.8-3.3-16.3-4.6-23.2-9.8
		c-4.9-4.9-5.5-8.8,1.6-12.1c5.2-2.3,9.8-5.9,12.7-11.1c3.6-6.2,9.8-7.8,16.3-9.8C430.6,410.5,433.5,414.4,435.8,419.6z"/>
	<path class="st2" d="M142.9,430.4c-5.2,5.9-10.8,10.8-17.3,15.3c-7.2-7.5,0-14,2.9-18.9c40.1-66.9,74.7-137,113.8-204.2
		c10.1-17,19.6-34.6,28.1-52.2c3.9-7.8,11.1-13.7,14-22.2c1,6.5,0,12.4-2.9,17.9c-2.6,10.8-9.1,19.2-14.4,28.7
		c-24.8,44.4-50.6,88.4-72.7,134.4c-22.5,32.6-37.5,69.8-60.7,104.1c0.3-0.3,2.6,0,1.3-0.7c-0.3-0.3-0.3-0.7,0-1
		C138.9,428.4,138.9,428.4,142.9,430.4z"/>
	<path class="st5" d="M192.8,328.6c26.1-56.1,57.4-109.3,89.1-162.8c2.3,7.2-5.9,14.4,0,21.5c2.3,2.3,2.3,4.9,2,7.8
		c-1,3.6-1.3,7.5-2.3,11.1c-1.3,3.6-2.9,6.9-3.6,10.4c-0.7,1.6-1.3,2.9-2.9,3.9c-5.2-1.6-3.9-6.2-3.6-9.8s1-7.2,2-10.4
		c1-3.9,2.9-7.5,4.2-11.7c-16.3,33.9-33.9,67.5-54.2,99.5c-7.8,10.4-15,21.5-20.2,33.6c-2,4.2-3.9,9.5-10.1,9.8
		C191.8,330.2,191.8,329.6,192.8,328.6z"/>
	<path class="st6" d="M290.6,142.3c1.3-5.2,2.9-10.1,4.2-15.3c0.7,0,1,0,1.6,0c1.6,9.8,3.3,19.9,4.9,29.7c1.3,2.6,1.6,7.5,0.3,7.8
		c-4.6,1.3-8.5,3.6-12.4,5.2c-2.6,1-2-3.9-1.3-6.5C289,156.3,289.7,149.2,290.6,142.3z"/>
	<path class="st7" d="M288,163.2c0,1.3,0.3,2.9,0.3,4.9c3.9-1,3.9-12.7,11.4-4.6c0.7,1,0.7-4.6,1.6-6.5c3.9,6.5,1,14.7,4.2,21.5
		c1,2.6,1.6,5.2-0.7,7.5c-1,0.3-2,0-2.9-0.7c-2.6-5.5-5.2-8.8-12.4-5.5c-7.2,3.6-4.9-2-4.2-5.5C285.7,170,286.1,166.5,288,163.2z"/>
	<path class="st8" d="M281.5,195.5c0-2.6,0-5.5,0.3-8.2c0.7-1,1.3-2,2-2.6c6.5-2,13.4-4.6,19.9,0.7l0,0c3.6,2.3,3.9,5.5,2.6,9.1
		c-6.9,5.2-16,0-23.2,5.9C281.5,201.4,280.8,197.8,281.5,195.5z"/>
	<path class="st9" d="M303.4,185.4c-6.2,1.6-13-3.3-18.9,2.3c-0.3-1-0.7-2-1-2.9c-0.3-3.9,0.3-7.5,2.3-10.8c1.6,0.3-2.9,5.9,2.6,2.9
		C298.1,172,302.7,174.3,303.4,185.4z"/>
	<path class="st10" d="M475.9,467.5c3.6,0,6.9-0.7,9.8-2.3c3.3,2,6.2,4.2,8.8,8.5C487.3,472.8,481.5,470.8,475.9,467.5z"/>
	<path class="st11" d="M166.7,451.9c8.8-3.6,17.6-6.9,26.4-10.4c3.3-2.6,7.5-3.3,11.4-4.9c3.9-1.6,7.8-1.6,8.5,4.2
		c-1.6,2-4.2,2.3-6.5,2.3c61-1.3,122,0,183-1c10.8,2.6,20.9,7.2,31.6,10.4c2.6,2,2.9,4.2-0.7,5.2c-3.6,1.3-7.2,0.7-10.8,0.7
		c-56.8,0-113.5,0-170.3,0c-20.6,0-41.1,0-61.7-0.3c-3.6,0-9.1,2.3-10.4-4.2c1-0.3,1.6-0.7,2.6-1
		C168.3,452.9,167.3,452.5,166.7,451.9z"/>
	<path class="st12" d="M167,454.2c2.9,3.3,6.9,2,10.1,2c78.9,0,157.6,0,236.5-0.3c0.7,0,10.4,5.2,4.9-3.9c-0.7-0.3-1-1-0.7-1.3
		s0.7-0.7,0.7-0.7c5.5,1,10.8,2.3,15.3,5.2c1.6,5.9-2,5.5-5.9,5.5c-11.1,0-22.5,0-33.6,0c-76,0-151.7,0-227.7,0c-3.6,0-6.9,0-11.4,0
		C158.5,455.8,163.4,456.8,167,454.2z"/>
	<path class="st13" d="M314.4,191.9c-2.6-6.2-4.2-12.7-4.2-19.6c4.9-0.3,5.5,3.9,6.9,6.9c8.8,17,17.9,33.6,26.1,50.9
		c2.6,5.5,6.5,10.4,9.1,16c1.3,8.2,8.8,13,11.4,20.2c7.2,19.2,17.3,37.2,26.7,55.1c7.8,14.7,16.6,29.4,22.8,45
		c1.3,4.9,2.6,9.8,6.9,13c2.9,4.2,6.2,8.2,7.5,13.4c0.3,1.3,0.7,2.6,1,4.2c1,3.3,3.9,6.9,0.3,9.8c-2.9,2.6-5.9-0.3-8.8-2
		c-1.3-0.7-2.6-0.7-4.2-1c-2-0.3-3.9-0.7-4.9-2.9c-0.3-1-0.3-2,0-2.9c0.7-1.3,1.3-2.6,2.3-3.9c1.3-3.3-0.7-5.5-2-8.2
		c-16-33.3-35.2-65.2-50.6-98.8c-12.7-28.4-30-54.2-42.7-82.2C316.1,201,316.4,196.1,314.4,191.9z"/>
	<path class="st14" d="M314.4,191.9c14,26.4,29,52.5,42.4,79.3c9.1,18.3,19.2,36.5,27.1,55.5c3.3,8.2,6.5,16.3,13.7,22.2
		c1.3,1,1.6,2.9,2.3,4.9c4.2,13.4,10.4,25.8,17.6,37.8c2,3.3,2,5.9-3.3,3.9c-4.6,1.3-5.9-2-7.5-4.9c-0.7-4.6-5.2-6.5-6.5-10.4
		c-0.3-1-0.3-2-0.3-2.9c-2.6-10.1-9.1-18.6-13.7-27.7c-10.1-20.6-20.2-41.4-32.3-61c-4.6-7.5-3.9-16.3-8.2-23.2
		c-11.1-17-20.2-34.9-29-52.8c-3.3-3.6-1.3-8.2-2-12.1C314.4,197.8,314.4,194.8,314.4,191.9z"/>
	<path class="st15" d="M425,393.5c-0.3-5.2-5.2-8.2-6.5-13c-2.9-3.9-4.6-8.5-6.5-13c-8.8-17-17.3-33.9-26.1-50.9
		c-2.3-4.2-4.9-7.8-7.2-11.7c-10.4-16.3-13.4-36.5-26.4-51.5c-1.3-1.6-0.7-4.9-1-7.2c0.7-0.7,1.3-0.7,2.3,0
		c19.6,26.4,32.9,56.1,47.3,85.5c10.1,20.6,21.2,40.8,30,62c1.6,4.2,8.5,6.9,4.9,13C427.6,405.9,429.6,397.1,425,393.5z"/>
	<path class="st15" d="M353.3,246.1c-0.7,0-1.3,0-2.3,0c-4.9-2.3-6.9-7.2-9.1-11.4c-10.8-20.9-21.5-41.4-32.3-62.3
		c-3.6-6.2-2.3-13-3.9-19.6c16.3,26.1,30,53.5,43.4,80.9C351.3,237.9,353.9,241.5,353.3,246.1z"/>
	<path class="st16" d="M281.5,195.5c0.3,1,0.7,2,1,2.9c6.5-6.9,15.3-3.9,23.2-4.6c1.3,0.3,1.6,1.3,2.6,2c3.3,1,2,4.9,3.9,6.5
		c2.3,2.3,2.3,4.6,1.3,7.5c-0.3,1-1.3,1.6-2.3,2c-7.8-3.9-16-5.5-24.8-2c-3.3,1.3-7.2,2.6-7.5-3.6
		C279.2,202.7,279.2,199.1,281.5,195.5z"/>
	<path class="st5" d="M425,393.5c5.9,2.3,4.9,10.8,10.8,13c3.3,4.2,5.5,8.8,0,13c-3.6-2.9-7.5-5.5-11.1-8.5
		c-3.9-1.6-9.5-2.3-8.5-8.8c5.5-4.9,6.9,5.2,11.7,2.9C429.6,401,424.4,397.7,425,393.5z"/>
	<path class="st13" d="M312.5,211.1c0-2.9-0.3-5.5-0.3-8.5c0.7-0.7,1.3-1.3,2.3-2.3c3.9,2.6,0.3,8.2,4.2,10.8
		c2.9,7.5,4.2,15,6.2,22.8c1,4.2,2,8.5-2,12.1c-2,0.7-3.3-0.3-4.6-1.6c-2.3-3.6-2-7.5-3.3-11.4c-1-3.6-1-7.5-2.3-11.1
		C311.5,218.7,311.2,215.1,312.5,211.1z"/>
	<path class="st9" d="M308.3,196.1c-1-0.7-1.6-1.3-2.6-2c0.3-3.3-0.7-5.9-2.3-8.8c2.6-1.6,2-4.6,2.3-7.2
		C309.2,184.1,307.9,189.9,308.3,196.1z"/>
	<path class="st17" d="M221.2,287.2c18.6-32.9,37.2-66.2,56.8-101.5c-1.3,8.8-2.3,16-3.6,22.8c-0.7,3.9-2.3,7.8,1,11.1
		c1.6,2.3,0.7,4.6,0.7,7.2c-0.3,2.9-1,5.9-1.6,8.5c0,1-0.3,2-0.3,2.9c-0.3,2-0.7,3.9-2.3,5.5c-2.6,0.7-3.9-0.3-5.2-2.3
		c-0.7-3.3,0.3-6.2,0.7-9.1c0.7-3.6,2-6.9,2.3-10.8c0.3-1-2,0.3-0.3,0.3c0.3,0,0.7,0.3,0,1c-13,21.2-23.2,43.7-36.9,64.6
		c-3.9,3.6-5.9,8.5-6.9,13.7c-0.3,1-0.7,2-1.3,2.6c-11.7,17.9-21.2,36.9-31,55.8c-0.3,1-1,2-1.3,2.6c-7.5,10.1-13.7,20.9-18.9,32.3
		c0,0.3,0,0.7,0.3,1c0.3,0,0.7,0,1,0c2-1,4.2-1.6,6.2,0c0.3,8.8-7.5,9.8-12.7,13.4c-2.3,1.3-4.6,2.9-6.9,4.2c-2.3,1-4.2,2.9-6.9,3.3
		c-1-0.3-2-0.7-2.6-1.6c-0.3-1-0.3-2,0.3-3.3c16.6-24.1,27.1-51.5,42.4-76C203.5,320.1,211.4,303.1,221.2,287.2z"/>
	<path class="st18" d="M167.3,408.8c3.6-4.9,9.8-7.2,12.7-13c1-0.7,2-0.7,2.9,0c10.4,10.4,20.2,22.2,34.6,27.7
		c4.2,1.6,6.5,4.2,4.9,9.1c-2.3,3.6-5.9,5.2-9.8,6.5c-7.2-4.2-12.7,3.9-19.6,2.6c1-2.6,2.9-3.9,5.5-4.6c2.6-0.7,3.6-3.9,1.3-4.6
		C185.6,428.4,179.1,415.4,167.3,408.8z"/>
	<path class="st15" d="M154,415.4c2.3-0.7,4.6-1.3,6.9-2c-4.6,7.2-10.8,12.4-17.6,17.3c-4.2-2.3-6.2,2.3-12.7,4.2
		c24.1-35.6,38.2-73.7,62.6-106c0,0.7,0,1.3,0,2.3c2.9,3.6,0.7,7.2-1,9.8c-14.7,23.5-26.1,48.6-40.1,72.4c0,0.7,0,1.3,0,2.3
		C152.3,418.3,153,415,154,415.4z"/>
	<path class="st19" d="M416.2,402.3c2.9,2.9,5.5,5.9,8.5,8.8c-13.4,3.6-17.6,19.2-30.3,23.5c-5.5,2,2.3,3.9,0.3,6.2
		c-4.6,2.6-8.2,1-11.7-2c-4.2-4.6-2.3-9.8,1-12.7c9.5-8.5,17-19.2,28.1-26.1C412.3,402.3,414.6,402,416.2,402.3z"/>
	<path class="st20" d="M383.6,437.2c3.3,2.3,7.2,3.3,10.8,3.9c7.8,2.9,16,6.2,23.8,9.1c0,0.7,0,1.3,0,2.3
		c-10.1-1.3-18.9-5.5-28.4-8.5c-9.8,0.3-18.6-1.3-26.1-8.2c-0.3-1-0.3-2.3,0-3.3c2-1.6,4.2-1.6,6.5-1.3
		C375.1,432,379.7,433.9,383.6,437.2z"/>
	<path class="st21" d="M151.7,413.1c2.9-17,15.3-29.4,21.9-44.7c5.2-13.4,16-23.5,19.6-37.8c9.5-6.9,10.1-19.2,17-28.1
		c3.9-4.9,7.2-10.4,11.4-15.3c-0.3,11.4-9.1,19.2-13.7,28.4c-15.3,30.7-32.6,60.3-48.9,90.4C156.6,409.2,154.6,411.8,151.7,413.1z"
		/>
	<path class="st22" d="M273.7,226.5c-2-2.6,1.3-4.2,1.3-6.5c0.3-1.3,0.7-2.9,0.7-4.2c11.4-4.9,24.1-1.3,35.9-4.6l0.7-0.3
		c2.6,3.3,1.6,7.2,1.6,11.1c1,4.2-2.9,5.2-4.9,4.9C297.5,224.8,285.4,229.1,273.7,226.5z"/>
	<path class="st23" d="M311.8,211.5c-0.3,1-0.7,2.6-1,2.6c-11.4,2.3-23.2,1.6-34.9,1.6c-2-4.2,2.6-6.2,3.3-9.5c2,3.3,4.2,2.6,7.2,1
		C295.9,203.3,304.3,204.3,311.8,211.5z"/>
	<path class="st24" d="M364.4,434.6c8.5,2.9,17.3,5.9,25.8,8.8c-2.9,3.3-6.9,2-10.1,2c-52.5,0-105,0-157.6,0c-8.5,0-17-2.9-25.1,2
		c3.9-5.5,11.1-4.2,15-8.8c0.3-5.5,6.2-3.9,8.8-6.5c3.3-4.2,9.1-2.6,12.7-5.9c2.9-1.3,5.9-2.3,9.1-1.6c2.3,0.7,4.2,1.3,6.2,2
		c24.1,1,48,1,72.1,0.7c5.2,0,10.8-0.3,16-2C347.1,425.5,356.2,428.4,364.4,434.6z"/>
	<path class="st25" d="M383.6,437.2c-4.6-0.7-9.1-2-13-4.2c-6.2-5.2,0.7-8.2,2.3-12.1c2.3-3.3,4.9-5.9,6.9-9.1
		c1.6-2,3.3-3.6,6.2-4.2c11.4,0.7,13.7-7.2,14.7-16c5.9-1.3,8.5,2.6,10.8,6.9c0.3,0.7,0.3,1.3,0,2c-5.9,8.8-13.4,16.6-21.9,23.2
		C385.6,426.8,380.3,430,383.6,437.2z"/>
	<path class="st26" d="M411.7,398.1c-3.3-2.6-6.9-4.9-10.1-7.5c-2.3,0.3-3.6-0.7-5.2-2c-2-1.6-3.6-3.3-5.2-4.9
		c-2.9-3.3-6.5-5.9-9.8-8.5c-1.3-1.6-2.6-3.3-2-5.5c3.6-4.9,6.9-2,9.8,0.7c4.2,3.9,8.5,7.2,12.4,11.4c2.3,2.3,5.2,4.6,6.5,7.5
		c1.3,2.9,3.6,5.2,6.5,6.5C413.3,396.4,412.3,397.4,411.7,398.1z"/>
	<path class="st5" d="M412,367.4c3.3,3.9,7.2,7.2,6.5,13C412.6,377.8,411.3,373.3,412,367.4z"/>
	<path class="st27" d="M321,246.1c4.9-8.8-1.6-17-1-25.4c0.3-2.9-0.7-6.2-1.3-9.5c5.9,4.9,5.9,12.7,9.5,18.9
		c5.2,9.1,9.1,18.6,15.7,26.7c8.2,10.1,7.2,23.2,14,33.9c11.7,17.9,20.6,37.5,30.7,56.4c4.6,8.5,6.9,17.9,13.7,25.1
		c1.6,1.6,1,3.9-1.3,5.5c-7.8-0.7-12.1-5.9-15-12.1c-13.4-27.7-28.1-55.1-42.1-82.5c-3.6-7.2-4.2-15.3-7.8-22.5
		c-2.6-4.9-4.6-9.8-10.4-11.4c-1.6,0.7-3.3,1.6-4.9,0C319.7,248.7,319.7,247.4,321,246.1z"/>
	<path class="st28" d="M325.2,248.3c6.5-0.3,10.4,3.6,11.7,8.8c6.2,20.9,17,39.8,26.4,59c8.5,17.3,18.3,33.6,25.8,51.2
		c2.3,4.9,7.5,7.5,11.7,10.8c0,0.7,0,1.3,0,2.3c0.7,0.3,1,1,0.7,1.3c-0.3,0.3-0.3,0.7-0.7,0.7c-5.5-2-9.5-6.2-13.4-10.1
		c-2-2-3.6-5.9-7.8-2.9c-1.6,0-2.9-1-3.9-2.3c-0.3-1-0.7-2-1-2.9c-12.4-34.3-35.6-63-48.9-96.9C323.9,261.4,320.6,255.2,325.2,248.3
		z"/>
	<path class="st27" d="M401.2,382.7c0-0.7,0-1.3,0-2.3c2.6,2.6,7.8,3.3,6.5,8.8C404.8,388,402.5,385.7,401.2,382.7z"/>
	<path class="st29" d="M321,246.1c0,1.6,0,2.9,0.3,4.6c-0.3,0.3-1,0.7-1.3,1.3c-6.5,2.9-14,0.3-20.6,2.9c-7.2,1.6-14.4,3.6-21.2,5.9
		c-3.6,1.3-8.2,3.9-11.1-1.6c-1.6-5.5-1.3-10.8,3.6-15c0.3-2,0.7-4.2,1-6.2c4.6,2,9.1,2,14.4,2c11.1-0.3,22.8-4.6,32.9,4.6
		C319.3,244.7,320.3,245.4,321,246.1z"/>
	<path class="st30" d="M273.7,226.5c10.1-0.7,20.2-6.2,31-1c2.9,1.3,6.9-0.7,9.5-3.3c3.6,2.9,1.6,7.2,2.3,10.8
		c0.7,2.3-1,3.6-2.9,3.6c-11.4-1-22.5,1.6-33.9,2.6c-3.6,0.3-5.9-2-8.5-3.9C272.4,232.4,274.3,229.7,273.7,226.5z"/>
	<path class="st31" d="M271.4,235.3c4.9,2.3,9.5,0.3,14.4,0c10.1-0.7,20.6-1.3,30.7-2.3c3.6,2.9,1.6,7.2,2.3,10.8
		c-12.1-3.3-24.8-3.3-36.9-0.7c-6.2,1.3-8.5-0.7-10.4-5.5C271.4,236.9,271.4,235.9,271.4,235.3z"/>
	<path class="st32" d="M182,395.5c-0.7,0-1.3,0.3-2,0.3c-2.3,0.7-4.6,1.3-6.9,2c-1.3-11.1,8.2-17.6,11.4-26.7
		c1.3-3.6,3.6-6.9,5.9-10.1l0,0c11.1-19.6,21.5-39.1,32.6-58.4l0,0c1.6-5.2,5.2-9.8,6.5-15.3c10.1-17.9,20.6-35.6,29.7-53.8
		c2.9-5.9,9.1-8.8,10.4-15.7c1.6,5.5,1.6,10.4-1,15.3c-4.9,16.3-14.4,30-22.8,44.4c-7.8,13.4-14.4,27.7-21.9,41.4
		c-7.5,13.7-14.7,28.1-23.5,41.4c-5.9,8.8-8.8,18.9-14.4,27.7c-1,1.6-1.6,3.6-2.6,5.2C183.3,394.5,182.7,395.1,182,395.5z"/>
	<path class="st33" d="M184.3,388.9c6.9-20.2,19.9-37.5,29.4-56.4c5.9-11.7,12.1-23.2,18.6-34.6c8.8-16,17.3-32.3,27.4-47.3
		c3.6-5.5,3.3-13.4,9.1-17.6c0.3,3.3-0.7,5.9-2.3,8.8c2.9,8.2,0,15.7-1.6,23.5c-5.9-1.3-6.2,5.9-10.1,7.2c-5.2,3.3-4.2,9.8-7.2,14.4
		c-15,24.1-26.4,50.2-41.8,74.4c-4.2,6.5-7.2,13.4-10.8,19.9C192.4,385,190.5,390.2,184.3,388.9z"/>
	<path class="st34" d="M223.1,302.5c1,4.9-2.3,8.5-4.6,11.7c-10.4,15-15.3,33.3-28.1,47c-0.3-7.5,4.9-12.7,8.5-18.3
		C207.5,329.6,211.4,313.6,223.1,302.5z"/>
	<path class="st34" d="M190.8,360.9c-3.3,13.4-12.7,23.8-17.3,36.9c-1,1.3-2.3,2.6-3.3,3.9C172.9,386,179.4,372.3,190.8,360.9z"/>
	<path class="st35" d="M262.3,265.6c2.9-7.8,4.2-15.7,4.2-23.8c1.3,0.7,2.6,1.3,3.9,2c-0.7,4.9-1.6,9.8-2.3,15
		c-1,2.9,1.3,5.9,0.3,8.8c0,1-0.3,2-0.7,2.9c-1.3,6.9-3.3,13.4-4.9,19.9c-1.3,2.6-1,7.2-6.2,5.2c-0.7-1-1.3-2-1.6-2.9
		C255.7,283.2,256.1,273.8,262.3,265.6z"/>
	<path class="st34" d="M229.6,287.2c4.6,7.8-4.2,10.1-6.5,15.3C223.1,296.3,223.8,290.7,229.6,287.2z"/>
	<path class="st21" d="M154,415.4c-1.3,2.9-3.3,4.9-7.2,6.5c0.3-3.9,2.9-5.2,5.2-6.5C152.3,415.4,153,415.4,154,415.4z"/>
	<path class="st36" d="M182,395.5c0-0.7,0-1.3,0-1.6c2.6-2.3,5.2-5.2,9.1-5.5l31.6,25.4c3.9,2,7.8,3.9,11.1,6.9
		c2.3,2.3,4.9,4.9,0.3,7.8c-3.6,4.2-8.5,3.3-13,4.2c0-2.6,0.3-5.5-2.9-6.2c-13.4-2.6-19.9-14.7-30-21.2C184,402.6,183,399,182,395.5
		z"/>
	<path class="st37" d="M375.1,421.9c-1,3.9-7.5,5.5-4.6,11.1c-2.3,0-4.2,0-6.5,0.3c-3.3-0.3-6.5-1-9.5-3.3
		c-9.5-9.1-9.5-10.1,2.9-15.7c9.5-4.2,17.3-10.4,22.5-19.6c2-3.3,2.6-7.8,7.8-8.2c0.7,0.7,1.3,1.6,1.6,2.6c0,8.5-3.6,15-8.8,21.2
		C379.7,414.7,374.1,416.7,375.1,421.9z"/>
	<path class="st38" d="M355.9,428.1c2.9,1.6,5.5,3.3,8.5,4.9c0,0.7,0,1,0,1.6c-8.8-2.6-17.6-5.5-26.1-8.2c-5.2,2.3-8.8,1-11.7-3.9
		c0-1.3,0-2.3,0.7-3.3c6.5-2.9,11.7,1.6,17.6,2.9C348,424.5,352.3,425.8,355.9,428.1z"/>
	<path class="st39" d="M327.2,422.2c2.9,2.9,6.9,4.2,10.8,4.2c-1,2-2.3,3.6-4.9,3.6c-28.1,1.3-56.4,0.3-84.5,0c-0.7,0-1-1-1.6-1.3
		c1-2,2.9-3.3,4.9-4.2c9.1-2.9,17.6-6.9,27.4-8.2c13.4-4.6,26.4,1,39.5,2.3C322,418.3,325.2,419.3,327.2,422.2z"/>
	<path class="st40" d="M234.2,428.1c2-8.5-5.9-9.5-9.8-10.8c-10.4-3.3-16.6-11.7-22.8-19.2c-3.3-3.9-10.1-2.9-10.4-9.1
		c0.7-6.2,5.2-8.5,10.4-9.5c15.7,15.7,33.6,28.4,54.2,36.9c2.3,4.2-2,4.6-3.9,6.5c-0.7,0.7-1.3,1.3-2.3,2c-2.3,1-4.2,2-6.9,1.3
		C239.7,426.8,237.1,427.4,234.2,428.1z"/>
	<path class="st41" d="M242.7,426.1c2.3-0.7,4.2-1.6,6.5-2.3c1.3,0.3,2,1,2.3,2.3c-1.3,0.7-2.9,1.3-4.2,2.3
		C245.3,428.4,243.7,428.1,242.7,426.1z"/>
	<path class="st42" d="M397,386.6c1.6,1.3,2.9,2.6,4.6,3.9c2.3,14-3.6,20.9-15.7,18.3C385.9,399.4,389.8,392.2,397,386.6z"/>
	<path class="st43" d="M397,386.6c-3.6,7.5-7.5,14.7-11.1,22.2c-1.3,1.3-2.9,2.9-4.2,4.2c-2,0.7-2.9,0-2.3-2.3
		c3.6-6.9,7.2-13.7,8.8-21.5c1.6-2,0.7-5.9,4.2-6.5C394,384,395.3,385.3,397,386.6z"/>
	<path class="st44" d="M379.4,410.8c0.7,0.7,1.3,1.3,2.3,2.3c-2.3,2.9-4.2,5.9-6.5,8.8C371.5,416.3,377.7,414.4,379.4,410.8z"/>
	<path class="st45" d="M344.5,424.2c-5.9-1.6-11.4-2.9-17.3-4.6c-6.2-0.7-13-0.3-17.9-5.5c-0.7-1.3-1-2.9-0.3-4.6
		c1.6-3.3,5.5-3.9,8.2-6.2c2.3-1.6,3.6-4.6,6.2-6.2c1-0.3,2-0.7,2.9-1c13-2.6,26.1-5.2,35.2-16.3c4.2-5.2,9.8-9.1,16-12.1
		c1,0.7,2,1.6,2.6,2.3c0.7,1.3,1.3,2.3,2,3.6c1.3,6.9-1.6,10.1-7.2,14.7c-10.1,7.8-20.2,15.7-31.6,21.9c-3.9,2-7.5,4.6-11.7,4.6
		c-1.6-0.7-0.7,2.3-0.3,0.7c0,0,0.3,0,1,0c1.3,0,2.9,0.7,4.2,1C339.6,418,344.8,418.3,344.5,424.2z"/>
	<path class="st46" d="M336,417.3c-4.6,0-8.5-1.3-12.1-4.9c16,0.3,26.1-10.8,38.2-17.6c5.5-2.9,7.8-10.1,15.3-11.7
		c3.9-0.7,0.3-7.5,4.2-10.1c3.9,2.6,7.8,5.2,10.4,9.5c-1.3,2.3-2.9,4.2-4.2,6.5c0-0.7,0-1.6,0-2.3c-8.5,3.9-12.7,12.1-19.9,17.6
		C358.2,411.8,347.7,416,336,417.3z"/>
	<path class="st47" d="M325.2,248.3c0,6.9,0.7,13.4,4.2,19.6c0.7,8.8,7.5,16.6,4.9,25.8c-1.6,1.3-3.3,1.3-4.9,0.7
		c-4.9-5.5-3.9-13-6.2-19.6c-1-4.2-1.3-8.5-2.6-12.7c-0.7-2.6-1-5.2-1.6-7.8c-0.3-1.6,0.3-3.3,1.3-4.6l0.7,0.3
		C322.6,249.6,323.9,249,325.2,248.3z"/>
	<path class="st48" d="M333.4,294.3c-0.7-8.8-4.6-17.6-3.9-26.7c9.8,23.5,22.5,45.7,35.6,67.5c5.5,9.1,9.8,19.6,11.7,30.3
		c-1,0.3-2,0.3-2.6-0.3c-5.2-5.5-9.5-12.1-17-15c-3.3-2.9-6.2-6.2-7.8-10.4c-4.2-7.5-1.6-17-8.5-23.5c-0.3-0.3,0-2.6-1.3-1.3
		c-0.7,0.7-0.7,2-1.3,2.6c-4.6,0.7-4.6-3.3-5.5-5.9c-0.3-4.2,1-8.8-1.6-12.7C330.4,296.9,331.4,295.3,333.4,294.3z"/>
	<path class="st49" d="M375.1,365.1c0.7,0.3,1.3,0.7,2,0.7c0,0.7,0,1,0.3,1.6c-11.7,14.4-26.1,25.1-43.7,31.6
		c-3.3,1.3-5.5-1.3-8.2-1c-4.2-5.9-1.3-9.5,4.2-11.7c11.1-4.9,21.2-11.4,30.3-19.9c3.6-3.3,7.5-5.5,12.7-2.9
		C373.2,363.8,374.1,364.5,375.1,365.1z"/>
	<path class="st50" d="M321,254.2c2,2,2,4.6,1.6,7.2c-18.3,3.6-36.9,6.2-55.5,6.5c0.3-2.9-1-6.5,1.3-9.1c6.9,3.3,11.7-3.6,17.9-4.2
		c4.2-0.3,8.5-1.3,12.7-2C306.6,249,313.5,256.5,321,254.2z"/>
	<path class="st51" d="M321,254.2c-3.6,6.9-8.8,2.9-12.1,1c-3.3-2-6.2-2.6-9.8-2.6c6.9-4.2,14.4-1.3,21.5-2.3
		C320.6,251.6,321,252.9,321,254.2z"/>
	<path class="st52" d="M201.3,380.1c-3.6,2.9-7.2,6.2-10.8,9.1c-3.3,1-4.6,5.2-8.5,4.6c0-2,0.3-3.6,2.3-4.6c3.6-2,6.5-4.9,8.5-8.5
		c2.6-2.9,4.2-7.2,9.5-5.5c1,0.7,1.6,1.3,2,2.3C204.2,379.1,203.2,379.8,201.3,380.1z"/>
	<path class="st53" d="M262.3,265.6c-1,9.5-4.9,18.3-4.6,28.1c-1.6,3.6,2,8.2-2.3,11.1c-8.5,15.7-19.9,29.4-26.4,46
		c-1.3,3.3-2.9,6.2-5.2,8.8c-0.7,0.7-1.6,1.3-2.6,1.6c-6.2,1.6-8.8,10.1-16.3,9.5c-2.9-2.3-1-4.6,0-6.5
		c12.7-21.5,22.8-44.7,36.5-65.6c4.9-7.2,5.2-16.6,12.4-22.2c1.3-1-3.3-3.9-0.7-6.2c2-2,4.2-3.6,6.2-5.9
		C262.6,261.4,261.9,264.6,262.3,265.6z"/>
	<path class="st54" d="M253.4,269.9c6.2,9.8-3.6,15.7-6.5,21.9c-12.7,25.8-27.7,50.9-41.8,76c-0.3,0.3,0.7,1.3,0.7,1.6
		c1.6,2.3,0,3.9-1,5.9c-0.3,0.3-0.7,0.7-1,0.7c-4.6-1-7.5,2.3-11.1,4.2c15-27.1,30-54.2,44.7-81.2c3.9-6.9,8.8-13,9.5-21.2
		C247.6,274.1,250.2,271.8,253.4,269.9z"/>
	<path class="st55" d="M325.2,274.1c2.6,6.2,3.6,13,4.2,19.6c1.6,2,1.6,4.2,0.3,5.9c-1.6,2-3.9,0.7-5.9-0.7
		c-4.9-3.3-8.2-8.2-12.7-11.4c-1.6-1.3-3.9-2-5.5-2.9c-13.7-8.8-20.6-6.9-27.7,8.2c-1,1.3-2.3,2.3-3.9,3.3
		c-11.7,2.9-12.1,2.6-11.7-6.5c-0.3-6.9,2-13.4,4.2-19.6c3.3,0.7,3.6,3.9,4.9,6.2c9.1-13,30-15.7,43.1-4.9
		C318,274.4,320.6,277.4,325.2,274.1z"/>
	<path class="st56" d="M253.8,304.8c3.9-2.6,0.3-8.2,4.2-11.1c0,1,0,1.6,0.3,2.6c4.2,4.9,2.6,10.8,2.3,16.6c0,1,0.3,2.9,1,2.6
		c10.1-2.9,19.9-1.3,30,0.3c3.3,0.7,6.2-1.6,8.5-3.9c7.5-7.2,16-9.1,26.1-6.9c5.5,1.3,2.6-5.9,6.2-6.5c6.2,3.6,3.6,8.5,2,13.4
		c2,5.5-2,5.5-4.9,4.6c-11.7-3.9-20.9-2.6-26.7,10.1c-2,4.6-7.2,5.5-11.1,3.3c-11.4-6.2-22.2-3.9-32.9,0.7c-3.3,0.3-5.9-0.7-7.8-3.6
		c-1.3-2.9-1.6-5.5-1-8.8C250.5,313.3,251.5,308.7,253.8,304.8z"/>
	<path class="st57" d="M325.2,274.1c-1.6,2.6-2,6.2-5.2,7.5c-16.3-19.6-31.6-19.9-49.9,0.3c-2.3-3.9-0.7-8.8-3.6-11.7
		c0-0.7,0-1.3,0.3-2c18.3-4.6,36.5-8.2,55.5-6.5C324.9,265.3,325.5,269.5,325.2,274.1z"/>
	<path class="st58" d="M257.7,315.5c0-6.5,0.3-12.7,0.3-19.2c1.3-2.3,2.9-4.6,4.2-6.9c0.7,12.7,9.1,2,13,4.2c6.9,1,7.8,6.5,7.8,11.7
		c0,4.9-4.6,5.9-8.2,6.5C269.1,313.3,264.2,317.5,257.7,315.5z"/>
	<path class="st59" d="M336,417.3c2.9-1.3,4.9-3.9,8.5-4.6c16-2.9,27.1-13.4,37.2-25.1c2-2,3.3-6.9,6.2-1
		c-8.5,15.7-19.6,28.7-37.5,32.6c-1.3,5.9,5.9,3.9,5.2,8.5c-3.6-1.3-7.5-2.6-11.1-3.9C341.9,421.9,338.9,419.6,336,417.3z"/>
	<path class="st60" d="M309.9,412.7c5.9,2.3,11.4,4.6,17.3,6.9c0,1,0,1.6,0,2.6c-2.9-0.7-5.9-1.3-8.8-2c-4.9,1-8.8-2-13.4-2.9
		c-5.2-1.3-9.8-3.9-15.7-1.3c-2.6,1.3-4.9-0.3-5.9-3.3C291.3,404.3,298.5,404.3,309.9,412.7z"/>
	<path class="st61" d="M251.5,426.1c-0.7-0.7-1.6-1.6-2.3-2.3c0-0.3,0.3-1,0.3-1.3c4.9-2,9.5-5.2,14.4-7.2
		c6.9-0.7,13.4-8.2,20.2-0.3c0,3.6-2,3.6-4.6,2.6C270.4,420.6,261.3,424.8,251.5,426.1z"/>
	<path class="st62" d="M279.9,417.6c2-0.3,3.3-1,3.9-2.9c-0.7-1-0.3-1.6,1-2c11.7,0.3,22.8,2.3,33.6,7.2c-0.3,0.3-0.7,0.7-0.7,0.7
		C305,418.9,292.6,415.7,279.9,417.6z"/>
	<path class="st63" d="M201.3,380.1c0.7-0.7,1.3-1.3,2-2c4.2-2.6,7.8-1,10.8,2c15.3,14.7,33.6,24.1,52.5,32.6c1,2,0,2.9-1.6,3.9
		c-2.9,1.6-5.9,3.6-9.1,1c-15.3-1.6-27.1-10.8-37.8-19.9C212,392.5,201.6,390.6,201.3,380.1z"/>
	<path class="st45" d="M255.7,417.3c3.3,0.3,5.9-0.7,8.8-2.3c1.3,0.7,1.3,1.6,0.3,2.6c-4.6,2.6-9.8,4.2-15,4.9
		C249.9,418.9,254.4,420.2,255.7,417.3z"/>
	<path class="st64" d="M372.8,365.4c-5.2-2.3-9.5,0-12.4,3.3c-8.2,9.1-18.6,15-29.4,19.2c-5.2,2-6.2,4.9-5.9,9.8c-0.7,0-1,0-1.6,0
		c-8.2-9.8-0.7-15.7,4.9-22.2c1-0.7,2-1,2.9-1c8.8,0.3,14.4-5.9,20.2-11.4c4.2-4.2,8.5-8.2,15-6.2
		C369.6,359.2,373.5,360.6,372.8,365.4z"/>
	<path class="st65" d="M329.5,376.2c-3.9,6.9-9.8,13-5.9,21.9c-0.7,2.9-2,5.2-4.6,6.5c-1,0.7-1.6,0.7-2.6,0c2.3-7.8,0.7-14-5.9-19.2
		c-1-2-1.6-4.2,0-6.2C316.4,375.9,322.3,372.3,329.5,376.2z"/>
	<path class="st66" d="M264.5,418c0-1-0.3-2-0.3-2.6c0.7-0.7,1.3-1.3,2.3-2.3c5.2-4.2,11.7-5.5,17.9-7.5c4.6-1.3,9.5-2,14.4-2.6
		c4.2,0.3,8.8,0.7,11.1,5.5c0,1.3,0,2.6,0,3.9c-8.5-0.7-17-8.5-25.1,0c-0.3,0.7-0.7,1.3-1,2C276.6,411.8,271.4,418,264.5,418z"/>
	<path class="st67" d="M309.9,408.8c-3.6-1.6-7.2-2.9-10.8-4.6c-1.6-0.7-2.6-2-2.6-3.6c0.3-0.3,0.7-1,1-1.3c1-0.3,2-0.7,2.9-0.7
		c5.2,2.6,11.1,2,16,5.5c1,0,1.6,0.3,2.6,0.3C316.4,407.2,313.5,408.5,309.9,408.8z"/>
	<path class="st68" d="M332.1,298.2c0,2.9,0,5.9-0.3,8.5c-0.7,4.6-2.6,2.9-4.6,0.7c-12.4-2.6-21.9-9.1-26.4-21.2
		c3.3-3.6,7.2-2,11.1-1.3c4.2,3.9,8.5,8.2,13,12.1c5.9,5.2,3.6-1.3,4.6-3.3c1.3,0.3,2.6,0.3,3.9,0.7
		C333,295.6,332.4,296.9,332.1,298.2z"/>
	<path class="st69" d="M258,328.6c10.1-7.5,20.9-8.2,32-2.3c5.2,2.6,8.8,3.3,11.7-3.6c4.6-11.7,14-14.7,26.1-9.5
		c2.9,1.3,5.2,3.3,6.2-1.6c1.3,2,2.9,4.2,4.2,6.2c3.6,3.3,3.9,7.8,3.9,12.4c-0.3,1.6-1.3,2.9-2.3,4.2c-5.5,4.6-10.8,9.5-18.3,10.4
		c-4.2,0.3-5.9,3.6-7.2,6.9c-1.6,3.6-1,7.8-5.2,10.1c-5.5-2-6.9-6.9-8.2-11.7c-3.3-14-11.7-20.2-26.1-20.6
		C269.1,328.9,263.2,332.5,258,328.6z"/>
	<path class="st70" d="M340.2,330.9c-0.7-4.2-1.6-8.5-2.3-13c0-2,0.3-4.2,0.3-6.5c12.4,5.9,10.1,17.9,12.7,28.1
		C344.5,340,342.8,335.1,340.2,330.9z"/>
	<path class="st71" d="M340.2,330.9c3.6,2.9,7.2,5.9,10.8,8.8c1.6,3.9,6.5,5.5,6.5,10.4c-0.3,0.3-1,0.7-1.3,0.7
		c-4.9-0.7-7.2-4.9-10.4-7.5c-2.9-2.6-6.5-4.2-8.5-7.8c-0.3-1-0.3-2,0.3-2.6C338.9,332.2,339.6,331.5,340.2,330.9z"/>
	<path class="st72" d="M372.8,365.4c-1.6-2.9-4.2-4.9-7.2-6.2c-2.6-2.6-8.2-1.3-9.5-6.2c0-1,0.3-2,1.3-2.6v-0.3
		c9.8,0.3,13.4,7.8,17.3,15l-1,0.3L372.8,365.4z"/>
	<path class="st45" d="M286.1,408.8c-6.9-0.7-12.4,5.9-19.6,4.2c-10.4-1.6-19.6-6.9-28.7-11.4c-12.7-6.2-20.2-19.9-34.6-23.2
		c0-0.7,0.3-1.3,0.7-2l0,0c1.6-2.9,3.6-5.5,6.9-6.5c5.2-1.3,8.8,1.3,12.1,4.9c14,14.7,31.6,23.2,51.5,26.7
		C278.9,402.3,284.8,402,286.1,408.8z"/>
	<path class="st73" d="M258,328.6c12.7-2,25.4-5.5,37.2,4.2c4.9,3.9,8.5,8.2,8.5,14.4c0,6.2,2.9,10.1,6.9,14
		c4.9,2.9,2.3,6.5,0.7,10.1c-4.9,7.2-11.7,8.8-19.9,6.9c-2.9-0.7-5.5-1-8.5-0.7c-22.5,1.6-35.2-5.9-43.4-26.4c-2,0.3-2.9,2-4.2,2.9
		c-3.6,2-6.2,6.2-11.1,4.6c-0.3-3.6,3.3-5.2,4.2-8.2c2-3.9,5.5-6.5,8.2-10.1c6.5-3.3,9.5-10.4,15.7-14
		C253.8,327,255.7,327.9,258,328.6z"/>
	<path class="st66" d="M223.4,358.6c3.6-2.3,7.2-4.6,10.8-6.9c5.9,15,15.7,25.1,31.6,29c1,0.3,2,0.7,2.9,1.3
		c6.9,4.2,14,8.5,22.5,9.5c4.2,0.7,8.5,2.6,6.2,8.5h-0.3c-11.4,4.9-23.2,0.3-33.9-2c-10.4-2.3-21.2-7.8-29.7-15
		c-5.9-5.2-11.7-10.4-17.6-15.3c-0.3-4.2,2.9-6.5,5.9-8.8C222.1,358.9,222.8,358.9,223.4,358.6z"/>
	<path class="st74" d="M236.2,342c-2.3,3.6-4.9,6.2-8.5,8.5c4.9-10.4,6.9-22.8,16.6-30.7c4.9-3.9,5.5-9.8,7.5-15
		c0-0.3,0.7-0.3,1-0.3c0.3,0,0.7,0.3,1,0.7c-0.7,4.2-1.6,8.8-2.3,13C248.9,327.6,243.3,335.1,236.2,342z"/>
	<path class="st52" d="M221.5,358.9c0,3.6-3.6,4.9-5.2,7.8c-0.3,3.6-4.2,2.9-5.9,5.2c-2.3,1.6-4.6,2.9-6.5,4.6
		c0.7-2.3,1.3-4.6,2-6.5C211.7,367.1,214,359.2,221.5,358.9z"/>
	<path class="st75" d="M301.1,287.2c1,0.3,2.6,0,2.9,0.7c4.6,10.1,14,14.4,22.8,19.6c-10.8-2-20.6-0.3-27.7,9.1
		c-2.3,3.3-5.9,4.2-9.5,2.6c-10.1-3.9-19.9-3.6-30,0.3c-5.9,2.3-3.3-1.6-2-4.2c4.2-1.6,8.5-3.6,12.7-5.2c13-4.9,13-4.9,4.9-16.6
		c0.7-0.7,1.3-1.3,2.3-2C284.8,287.5,292.3,283.6,301.1,287.2z"/>
	<path class="st76" d="M301.1,287.2c-7.8,1.6-16,2.9-23.8,4.6c-2-10.1,6.2-11.7,12.4-15c5.9-2.9,11.4-2.6,14.4,3.6
		c2,3.9,6.2,1,7.8,4.2C308.3,285.5,304.3,283.9,301.1,287.2z"/>
	<path class="st77" d="M236.2,342c4.9-8.2,10.1-16,15-24.1c0,2.9,0.3,5.5,0.3,8.5C248.2,333.1,244.3,339.3,236.2,342z"/>
	<path class="st78" d="M329.5,376.2c-6.5,1.3-13,2.9-19.6,4.2c-10.4,6.9-20.9,11.7-33.3,5.5c-3.3-1.6-6.9-2-10.1-3.6l0,0
		c-2-1.6-4.2-2.9-1.3-5.5c8.5,0.3,17,0,25.4,0.3c7.8,0.3,15-1,21.5-4.9c8.2-3.9,11.1-10.1,8.5-18.6c-2.9-8.5,0.3-11.4,8.8-10.8
		c3.3,8.2,5.5,16.6,4.9,25.4c0,1.6-0.3,3.3-1,4.9c-0.7,1-1.3,2-2.3,2.3C330.8,375.9,330.1,375.9,329.5,376.2z"/>
	<path class="st79" d="M331.1,375.9c0.3-0.7,0.3-1.3,0.3-2c4.9-4.6,3.9-11.4,7.2-16.6c0.7-0.7,1.3-1.3,2.3-1.6c2.9,0,6.2,1.3,8.8-2
		c2-2,4.6-3.9,7.5-1.3c2.6,2.6,6.9,2.9,8.5,6.5c-5.9-1.3-8.8,2.9-12.7,6.2C347.1,370.3,342.2,379.8,331.1,375.9z"/>
	<path class="st80" d="M316.4,404.3c-6.5,1.6-12.4,1-17-4.6c-2.9-4.2-2.9-8.8,0.7-12.4c3.3-3.3,7.2-6.2,11.7-2
		C323.3,392.5,323.6,394.5,316.4,404.3z"/>
	<path class="st81" d="M312.2,385.3c-10.1-0.3-14,4.6-12.4,14.4c-0.7,0-1.6,0-2.3,0c-0.7-3.9-2.9-6.5-7.2-6.5
		c-9.5,0-16.6-5.2-23.5-11.1c14.7,3.9,29,3.6,43.4-2.3C310.5,382.1,311.2,383.7,312.2,385.3z"/>
	<path class="st82" d="M210.4,372c2-1.6,3.9-3.6,5.9-5.2c6.2,3.9,11.7,9.1,17.6,13.4c11.7,8.5,24.5,17,40.1,17.3
		c7.5,0.3,15,1.6,22.5,2.6c0.7,1.3,1.6,2.9,2.3,4.2c-3.6,3.9-9.5,1-13,4.2c-14.7-6.2-31.3-7.5-45.3-16.6
		c-7.5-4.6-14.7-9.1-20.2-15.7C217.6,372.6,214.6,371.3,210.4,372z"/>
	<path class="st83" d="M329.5,343.6c-4.9,1.3-9.8,1.3-5.9,9.1c4.6,8.5,0.3,16.3-9.5,21.2c-4.2,1.3-3.9-2-4.6-4.6
		c0.3-2.9,2.3-5.5,0.3-8.5c0-10.4,2-19.2,15-19.9c5.9-0.3,7.8-6.9,13-8.2c0,0.7,0.3,1.3,0,2C338.3,341,335.7,343.9,329.5,343.6z"/>
	<path class="st84" d="M329.5,343.6c3.6-2.3,6.9-4.9,8.8-8.8c2.9,2.3,5.5,4.6,8.5,6.9c-0.3,5.9-2.9,10.8-6.2,15h-0.3
		c-3.9,1-3.6,4.6-4.2,7.5c-0.7,2.6,0,6.2-4.2,5.5C334.3,360.9,326.5,352.7,329.5,343.6z"/>
	<path class="st85" d="M340.5,356.6c-0.3-6.2,2.6-10.8,6.2-15c3.6,2.9,7.5,5.5,11.1,8.5c0,0.7-0.3,1.6-0.3,2.3
		C351.3,352.4,348.4,363.5,340.5,356.6z"/>
	<path class="st86" d="M309.9,369.7c1.6,1.6,2.9,2.9,4.6,4.6c-13,5.9-26.7,5.9-40.4,5.5c-3.3,0-6.2-0.7-9.5-1
		c-17.9-1.3-30.7-16-26.1-30.7c1.3-2.9,3.3-4.6,4.2,0c4.6,20.2,18.3,29.4,39.1,26.4c2.3-0.3,5.2-0.3,7.5,0.3
		C297.5,377.8,304,375.6,309.9,369.7z"/>
	<path class="st87" d="M238.4,347.8c-1,18.3,12.1,24.8,26.1,30.7c0.7,1.3,1.6,2.6,2.3,4.2c-18.6-2.9-31.6-15.3-32.6-31
		C234.9,349.5,236.5,348.5,238.4,347.8z"/>
	<path class="st88" d="M331.7,369.7c3.6-3.3,1.6-7.2,2.3-11.1c0.7-5.5,2.6-5.9,6.5-2c-2,6.2,1.3,15-8.5,17.6
		C331.7,372.6,331.7,371.3,331.7,369.7z"/>
</g>
</svg>
