<?xml version="1.0" encoding="utf-8"?>
<!-- Generator: Adobe Illustrator 26.3.1, SVG Export Plug-In . SVG Version: 6.00 Build 0)  -->
<svg version="1.1" id="Layer_1" xmlns="http://www.w3.org/2000/svg" xmlns:xlink="http://www.w3.org/1999/xlink" x="0px" y="0px"
	 viewBox="0 0 595.3 595.3" style="enable-background:new 0 0 595.3 595.3;" xml:space="preserve">
<style type="text/css">
	.st0{fill:#FFFFFF;}
	.st1{fill:#FEFEFE;}
	.st2{fill:#240102;}
	.st3{fill:#878A8F;}
	.st4{fill:#230102;}
	.st5{fill:#888A8F;}
	.st6{fill:#ECECEC;}
	.st7{fill:#898B90;}
	.st8{fill:#F9F9F9;}
	.st9{fill:#E8E9EB;}
	.st10{fill:#B3B4B6;}
	.st11{fill:#CACBCF;}
	.st12{fill:#F8F8FA;}
	.st13{fill:#5E0A3E;}
	.st14{fill:#5E0B3E;}
	.st15{fill:#F4F3F4;}
	.st16{fill:#818489;}
	.st17{fill:#1D0100;}
	.st18{fill:#E22E96;}
	.st19{fill:#6C1349;}
	.st20{fill:#9EA0A4;}
	.st21{fill:#A0A2A5;}
	.st22{fill:#74134E;}
	.st23{fill:#9B9DA1;}
	.st24{fill:#841456;}
	.st25{fill:#FCFCFC;}
	.st26{fill:#909296;}
	.st27{fill:#95969B;}
	.st28{fill:#7F1453;}
	.st29{fill:#97989C;}
	.st30{fill:#8E9196;}
	.st31{fill:#9B9DA0;}
	.st32{fill:#97999E;}
	.st33{fill:#A0A2A6;}
	.st34{fill:#9D9EA3;}
	.st35{fill:#9A9CA0;}
	.st36{fill:#9C9EA2;}
	.st37{fill:#9EA0A5;}
	.st38{fill:#9FA1A5;}
	.st39{fill:#ABACB0;}
	.st40{fill:#939599;}
	.st41{fill:#9B9CA0;}
	.st42{fill:#95989B;}
	.st43{fill:#9C9FA3;}
	.st44{fill:#9E9FA3;}
	.st45{fill:#8B8D92;}
	.st46{fill:#97999D;}
	.st47{fill:#87898E;}
	.st48{fill:#B4B6B9;}
	.st49{fill:#9C9EA3;}
	.st50{fill:#999B9E;}
	.st51{fill:#A9ABAE;}
	.st52{fill:#A2A4A7;}
	.st53{fill:#550B34;}
	.st54{fill:#B1B3B6;}
	.st55{fill:#B1B2B6;}
	.st56{fill:#9DA0A4;}
	.st57{fill:#9A9CA1;}
	.st58{fill:#AEAFB2;}
	.st59{fill:#B2B3B6;}
	.st60{fill:#A4A5A8;}
	.st61{fill:#B4B5B9;}
	.st62{fill:#150000;}
	.st63{fill:#9D9EA2;}
	.st64{fill:#A4A5A9;}
	.st65{fill:#B2B3B7;}
	.st66{fill:#8D9094;}
	.st67{fill:#999A9F;}
	.st68{fill:#A7A8AB;}
	.st69{fill:#8D8F93;}
	.st70{fill:#999B9F;}
	.st71{fill:#96989C;}
	.st72{fill:#A5A6A9;}
	.st73{fill:#979A9E;}
	.st74{fill:#A4A5AA;}
	.st75{fill:#A5A7AB;}
	.st76{fill:#86878B;}
	.st77{fill:#A1A2A5;}
	.st78{fill:#8C9093;}
	.st79{fill:#97989D;}
	.st80{fill:#A1A3A6;}
	.st81{fill:#9FA0A3;}
	.st82{fill:#94959A;}
	.st83{fill:#989A9E;}
	.st84{fill:#88898D;}
	.st85{fill:#909195;}
	.st86{fill:#9D9FA3;}
	.st87{fill:#8A8B8F;}
	.st88{fill:#E1E1E1;}
	.st89{fill:#EAE8E9;}
	.st90{fill:#F0F0F0;}
	.st91{fill:#EBEBEB;}
	.st92{fill:#F4F4F4;}
	.st93{fill:#8F175E;}
	.st94{fill:#EDECED;}
	.st95{fill:#650D43;}
	.st96{fill:#630C41;}
	.st97{fill:#EBE9EA;}
	.st98{fill:#F1F1F1;}
	.st99{fill:#9F1A67;}
	.st100{fill:#971762;}
	.st101{fill:#F6F7F7;}
	.st102{fill:#F0F0F1;}
	.st103{fill:#F2F2F3;}
	.st104{fill:#CFCFCF;}
	.st105{fill:#680E45;}
	.st106{fill:#F3EEF1;}
	.st107{fill:#E6E6E6;}
	.st108{fill:#DFDFDF;}
	.st109{fill:#B71C75;}
	.st110{fill:#A81A6C;}
	.st111{fill:#AF1B71;}
	.st112{fill:#E6E5E6;}
	.st113{fill:#DEDEDE;}
	.st114{fill:#E7E7E7;}
	.st115{fill:#F0E9ED;}
	.st116{fill:#6C0F48;}
	.st117{fill:#71124B;}
	.st118{fill:#E4E2E3;}
	.st119{fill:#C6C6C6;}
	.st120{fill:#74124D;}
	.st121{fill:#DBD4D9;}
	.st122{fill:#6D0F49;}
	.st123{fill:#863F63;}
	.st124{fill:#7D325A;}
	.st125{fill:#831556;}
	.st126{fill:#7D1453;}
	.st127{fill:#F0E5EA;}
	.st128{fill:#D9D9D9;}
	.st129{fill:#8D185D;}
	.st130{fill:#CA5890;}
	.st131{fill:#C4538A;}
	.st132{fill:#EEE7EB;}
	.st133{fill:#D6D6D6;}
	.st134{fill:#DEDDDE;}
	.st135{fill:#CC1D81;}
	.st136{fill:#F4E4EC;}
	.st137{fill:#C61D7D;}
	.st138{fill:#D45B98;}
	.st139{fill:#76134E;}
	.st140{fill:#E8E0E5;}
	.st141{fill:#E4DFE2;}
	.st142{fill:#BDBDBD;}
	.st143{fill:#7C1352;}
	.st144{fill:#951861;}
	.st145{fill:#AA4D7B;}
	.st146{fill:#90185E;}
	.st147{fill:#983B6F;}
	.st148{fill:#D65D99;}
	.st149{fill:#FDFAFB;}
	.st150{fill:#CDCCCB;}
	.st151{fill:#F4EEF1;}
	.st152{fill:#F0E8EC;}
	.st153{fill:#FEFDFD;}
	.st154{fill:#CBCBCB;}
	.st155{fill:#DE609F;}
	.st156{fill:#D31E85;}
	.st157{fill:#BDBCBB;}
	.st158{fill:#BD7697;}
	.st159{fill:#9C1965;}
	.st160{fill:#F8F5F6;}
	.st161{fill:#A9517C;}
	.st162{fill:#8A165B;}
	.st163{fill:#D9A9BF;}
	.st164{fill:#BC5789;}
	.st165{fill:#A61D6C;}
	.st166{fill:#D5AABE;}
	.st167{fill:#AC5381;}
	.st168{fill:#B14E7F;}
</style>
<path class="st0" d="M297.6,595.3L297.6,595.3C133.3,595.3,0,462,0,297.6l0,0C0,133.3,133.3,0,297.6,0l0,0
	C462,0,595.3,133.3,595.3,297.6l0,0C595.3,462,462,595.3,297.6,595.3z"/>
<g>
	<path class="st1" d="M297.6,226.1c86.5,0,173.1,0,259.6,0c1.9,0,2.4,0.3,2.4,1.5c-0.1,46.7-0.1,93.4,0,140.1c0,1.2-0.4,1.5-2.4,1.5
		c-173.1,0-346.2,0-519.3,0c-1.9,0-2.4-0.3-2.4-1.5c0.1-46.7,0.1-93.4,0-140.1c0-1.2,0.4-1.5,2.4-1.5
		C124.6,226.1,211.1,226.1,297.6,226.1z"/>
	<path class="st2" d="M379.7,306.9c-1.4-0.7-0.6-2-0.6-2.9c-0.1-15.8-0.1-31.7,0-47.5c0-1.1-1.1-2.9,1-3.3c1.6-0.3,3.1-0.1,4.3,1.7
		c10,14.2,20.2,28.3,30.3,42.4c0.5,0.8,1.1,1.5,2.2,2.8c0-4.3,0-7.7,0-11.2c0-11,0-21.9,0-32.9c0-1.3-0.6-2.9,1.9-2.9
		c2.3,0,2.1,1.2,2.1,2.7c0,16.3,0,32.6,0,48.9c0,0.8,0.7,2.3-0.9,2.4c-1.2,0.1-2.7,0.6-3.7-0.8c-0.4-0.6-0.9-1.3-1.4-1.9
		c-9.9-13.9-19.8-27.7-29.7-41.6c-0.6-0.8-1.1-1.5-2.2-3.1c0,3.3,0,5.7,0,8c0,12.3,0,24.6,0,36.9c0,2.1-0.5,2.9-2.6,2.3
		c-0.5-0.7-0.3-1.5-0.3-2.3c0-16.1,0-32.3,0-48.4c0-0.6-0.1-1.3,0.6-2.5c-0.9,1.6-0.6,2.8-0.6,3.8c0,15.2,0,30.5,0,45.7
		C380,304.6,380.3,305.8,379.7,306.9z"/>
	<path class="st3" d="M179.6,306.9c-1.1-0.7-0.6-1.8-0.6-2.7c0-15.9,0-31.9-0.1-47.8c0-2.7,0.8-3.4,3.4-3.3c3.3,0.2,6.6,0.1,10,0.1
		c5.5,0,9.3,2.5,11.4,7.5c2.1,4.9,0.8,10.1-3.2,13.9c-0.9,0.9-1.9,1.7-3,2.7c0.7,0.4,1.2,0.7,1.6,0.9c7,3.7,9.7,9.2,8.3,16.3
		c-1.4,7.1-6.9,11.9-14.5,12.3c-4.2,0.3-8.4,0-12.6,0c-0.5-0.7-0.3-1.5-0.3-2.3c0-16,0-32,0-48.1c0-0.7-0.4-1.5,0.3-1.9
		c-0.9,0.7-0.3,1.9-0.3,2.8c0,15.2,0,30.5,0,45.7C179.9,304.5,180.2,305.8,179.6,306.9z"/>
	<path class="st3" d="M274.3,259.5c-3.4,8.9-6.6,17.2-9.8,25.5c-0.9,2.4-1.8,4.8-2.7,7.1c-0.5,1.3-0.2,1.8,1.2,1.8
		c2.3,0,4.7,0.1,7,0c2.6-0.2,4,0.8,4.5,3.9c-4,0-7.9,0.1-11.8-0.1c-2.2-0.1-3.5,0.5-4.1,2.8c-0.4,1.6-1.2,3.1-1.7,4.7
		c-0.5,1.5-1.4,2-2.9,2c-2.2,0.1-3-0.3-2-2.7c3.7-8.7,7.1-17.4,10.7-26.1c3.1-7.7,6.3-15.4,9.4-23c0.5-1.1,0.8-2.2,2.5-2.1
		c1.4,0.1,1.9,0.9,2.3,1.9c7.2,17.1,14.3,34.3,21.6,51.6c-2.9,0.9-4.7,0.7-5.9-2.5c-5.6-14.2-11.4-28.3-17.2-42.4
		C275.2,261.1,274.9,260.6,274.3,259.5z"/>
	<path class="st4" d="M506.5,296.3c2.6,4.7,5.9,7.9,11.3,8c4.7,0.1,8.5-2.3,10.1-6.2c1.8-4.6,0.8-9.7-3-12.7
		c-4.3-3.4-9-6.4-13.3-9.9c-5.4-4.5-6.2-11.8-2.3-17.6c4.9-7.1,15.6-7.6,21.3-1.1c2.1,2.4-0.7,3.4-0.9,5.1c-1.2-0.1-1.3-1.1-1.7-1.7
		c-3.3-4.5-9.3-5.7-13.4-2.6c-4,3-4.5,9.5-1.2,13.7c1.5,1.9,3.5,3.4,5.5,4.8c2.8,2,5.7,3.8,8.4,5.9c5.2,4.1,6.8,9.7,4.8,16
		c-1.9,5.9-6.3,9.3-12.8,9.8c-3.6,0.3-7.1-0.1-10.2-2.1C504.4,302.9,504.1,302,506.5,296.3z"/>
	<path class="st3" d="M326.3,262c-1.8-1.7-2.7-3.8-4.7-4.9c-3.9-2.1-8.8-1.3-11.5,2c-2.7,3.3-2.8,8.5,0,12c1.6,2,3.6,3.6,5.7,5.1
		c2.7,1.9,5.5,3.7,8.2,5.7c5,3.7,6.8,8.6,5.5,14.6c-1.3,6-4.9,9.8-10.9,11.2c-6.3,1.4-11.9-0.1-16.2-5.1c-2-2.2,0.6-3.8,0.9-6.1
		c1.3,1.6,2.2,3.1,3.4,4.3c4.6,4.7,12.2,4.8,16.3,0.3c4.3-4.7,3.4-12.2-2.1-16.4c-4-3.1-8.4-5.8-12.3-9.1
		c-6.3-5.4-6.4-14.1-0.4-19.9c5.4-5.2,14.9-4.5,19.5,1.4C329.5,259.4,327,260.3,326.3,262z"/>
	<path class="st2" d="M478.8,307.6c-3.7-0.3-6.3-2.4-8.6-5c-2.1-2.3,0.7-3.9,0.9-6.5c1,1.5,1.7,2.7,2.5,3.7
		c3.2,3.8,7.3,5.3,12.2,4.2c4-1,6.6-3.6,7.4-7.6c1-4.8-0.3-8.7-4.4-11.7c-4.2-3.1-8.6-5.9-12.5-9.3c-5.6-4.8-6.1-12.7-1.4-18.5
		c4.4-5.4,12.5-6.3,18.2-2.1c3.8,2.8,3.8,3,1.2,7c-1,0-1-1-1.4-1.5c-3.3-4.6-9.2-5.8-13.4-2.7c-4.1,3.1-4.7,9.7-1.1,14
		c1.8,2.1,4.1,3.7,6.4,5.3c2.6,1.8,5.3,3.6,7.8,5.6c4.8,3.8,6,8.9,4.6,14.6c-1.4,5.7-5,9.5-11,10.5
		C483.6,307.2,481.2,307.2,478.8,307.6z"/>
	<path class="st2" d="M436.9,280.1c0-8.1,0-16.2,0-24.2c0-1.8,0.2-2.8,2.4-2.7c6.4,0.2,12.8,0.1,19.3,0.1c1.2,0,2.3-0.2,2.4,1.8
		c0,2.1-1.1,2-2.5,2c-5,0-10,0.1-14.9-0.1c-1.9,0-2.4,0.6-2.4,2.5c0.1,5.2,0.1,10.4,0,15.6c-0.1,2.1,0.4,3.1,2.7,2.8
		c1.4-0.2,2.9,0,4.3-0.1c1.5-0.1,2.2,0.3,2.2,2c0,1.7-0.9,1.6-2.1,1.7c-2.3,0.3-5.5-1.3-6.8,0.8c-1.1,1.6-0.3,4.5-0.3,6.8
		c0,4,0.1,8-0.1,12c-0.1,2.1,0.7,2.6,2.7,2.6c5.9-0.1,11.7,0,17.6-0.1c1.4,0,2.5-0.1,2.5,2c0,2-1.2,1.7-2.4,1.7
		c-7.4,0-14.8-0.1-22.3,0c-2,0-2.3-0.7-2.3-2.5C436.9,296.5,436.9,288.3,436.9,280.1z"/>
	<path class="st5" d="M355.1,282.2c0,7.3,0,14.6,0,21.9c0,1.6,0.3,3.1-2.2,3c-2.4-0.1-2-1.6-2-3c0-14.4-0.1-28.8,0.1-43.2
		c0.1-3.5-1-4.5-4.3-4.1c-1.3,0.2-2.7,0-4,0c-1.3,0-2.8,0.2-2.8-1.9c0-2,1.3-2,2.7-2c10.5,0,21,0,31.5,0c1.3,0,2.4,0,2.3,1.9
		c0,1.7-0.8,2-2.3,2c-5.4-0.1-10.8,0.1-16.3-0.1c-2.4-0.1-3,0.8-2.9,3C355.2,267.4,355.1,274.8,355.1,282.2z"/>
	<path class="st6" d="M159,343.5c1.2,1.5,3.3,1,4.6,2.3c-34.4,0-68.7,0-103.5,0c1.3-1.6,3.4-0.9,3.7-2.9c2-2.9,5.2-3,8.2-3.3
		c1.6,0.6,1.4,1.3,0.2,2.1c0.3,0.7,0.9,0.2,1.3,0.2c24.9,0,49.8,0,74.7,0c1.7,0,3.6,0.3,5.2-0.6C155.8,340.7,158,340.5,159,343.5z"
		/>
	<path class="st7" d="M220.3,280.1c0-8,0-16,0-23.9c0-1.6-0.1-3,2.3-3c2.6,0,2.1,1.7,2.1,3.1c0,14.6,0.1,29.2-0.1,43.9
		c0,2.8,0.8,3.6,3.5,3.5c5.4-0.2,10.9-0.1,16.3-0.1c1.3,0,2.4,0,2.4,1.8c0,1.9-1.3,1.7-2.5,1.7c-7.2,0-14.4-0.1-21.6,0
		c-2.2,0-2.5-0.9-2.5-2.8C220.4,296.3,220.3,288.2,220.3,280.1z"/>
	<path class="st8" d="M109.8,245.3c-0.9-1.9,0.4-3.6,0.5-5.4c0-0.8,1.3-1.6,2.1-0.2c5.8,10.4,11.5,20.8,16.6,31.6
		c2.1,4.5,4.7,8.7,6.9,13.1c5.4,10.7,10.7,21.5,16.5,32c3.1,5.7,5.3,12,9,17.3c-1.2,1.1-2.2-1.7-3.2,0.1c-2.1-0.2-3.6-1.3-4.3-3.3
		c0.4-1.4,0.6-2.9-0.1-4.3c-6.8-14-13.7-28-20.8-41.7c-1.3-2.5-3.7-4.4-4.5-7.3c-2.5-6-5.4-11.8-8.6-17.5c-1.8-3.2-3.4-6.6-5-9.9
		c0.9,1.5,1.1,3.3,1.5,5c0.4,1.9,0.9,3.9,1.3,5.8c0.2,0.9,0.2,1.7,0,2.6c-0.2,0.5-0.6,0.9-1.2,0.9c-1.1-0.4-1.6-1.4-2-2.4
		c-0.5-1.6,0-3.5-0.8-5.1c-1-2.1-0.6-4.5-1.2-6.6c-0.2-2.9-1.9-5.6-1-8.6C110.5,242.4,112.1,244.7,109.8,245.3z"/>
	<path class="st9" d="M538.5,319.6c-0.8,1.2-2,0.7-3,0.7c-119.4,0-238.8,0-358.1,0c-1.1,0-2.2,0.4-3.1-0.6c1.5-1.3,3.4-0.9,5.1-0.9
		c21.9,0,43.8,0,65.8,0c95.8,0,191.5,0,287.3,0C534.5,318.7,536.6,318.2,538.5,319.6z"/>
	<path class="st10" d="M538.5,319.6c-1.4,0-2.9,0.1-4.3,0.1c-120,0-240,0-360,0c0-0.2,0-0.4,0-0.7c1.2-0.9,2.5-0.6,3.8-0.6
		c118.9,0,237.7,0,356.6,0c1.3,0,2.7-0.3,3.8,0.7C538.5,319.2,538.6,319.4,538.5,319.6z"/>
	<path class="st11" d="M538.5,319c-1.3,0-2.7,0-4,0c-120.1,0-240.2,0-360.3,0c0-0.2,0-0.4,0-0.7c1.2-0.6,2.4-0.3,3.6-0.3
		c119.1,0,238.1,0,357.2,0c1.2,0,2.4-0.4,3.6,0.4C538.6,318.6,538.5,318.8,538.5,319z"/>
	<path class="st12" d="M538.6,318.4c-1.1,0-2.2-0.1-3.3-0.1c-120.3,0-240.7,0-361,0c1-1.1,2.3-0.6,3.4-0.6c119.2,0,238.3,0,357.5,0
		C536.3,317.7,537.7,317.2,538.6,318.4z"/>
	<path class="st13" d="M71.8,340.2c-2.7,0.6-5.4,1.4-8,2.7c-3.4,1.1-6.7,2.1-10.1,3.2c-0.7,0.2-1.6,0.7-2-0.2
		c-0.4-0.8,0.5-1.1,1-1.5c2.2-2,4.4-4,6.6-6c0.9-2.4,3.2-3.5,4.9-5.1c1.9-1.7,3.6-3.6,5.5-5.4c0.7-0.6,1.5-1.1,2.5-1.3
		c2.6,0.6,3.9,3,6,4.4c0.9,0.6,1.5,1.5,2.6,2c2.8,1.4,2.8,1.9,0.2,3.9c-0.3,0.2-0.5,0.4-0.8,0.6C77.6,339.3,74.7,339.9,71.8,340.2z"
		/>
	<path class="st14" d="M154.3,330.3c1.1,1.4,2.5,2.5,3.9,3.5c3.8,3.5,7.6,7,11.3,10.5c-0.7,1.4-1.9,1-3,0.7
		c-2.6-0.3-4.9-1.7-7.6-1.5c-1.3-1.9-3.4-1.7-5.3-2.2c-1.9,0.6-3.4-0.8-5.1-0.9c-2.4-1-5-1.4-7.1-3c-1.5-1.5-1.7-2.7,0.5-3.7
		c1.6-0.7,3-1.8,3.9-3.4c1.1-1.9,3-2.4,5-3C152.7,327.5,153.6,328.7,154.3,330.3z"/>
	<path class="st8" d="M64.5,333.6c-1.6,1.8-3.3,3.3-5.3,4.7c-2.2-2.3,0-4.3,0.9-5.8C72.4,312,83,290.5,95,269.9
		c3.1-5.2,6-10.6,8.6-16c1.2-2.4,3.4-4.2,4.3-6.8c0.3,2,0,3.8-0.9,5.5c-0.8,3.3-2.8,5.9-4.4,8.8c-7.6,13.6-15.5,27.1-22.3,41.2
		c-6.9,10-11.5,21.4-18.6,31.9c0.1-0.1,0.8,0,0.4-0.2c-0.1-0.1-0.1-0.2,0-0.3C63.3,333,63.3,333,64.5,333.6z"/>
	<path class="st15" d="M79.8,302.4c8-17.2,17.6-33.5,27.3-49.9c0.7,2.2-1.8,4.4,0,6.6c0.7,0.7,0.7,1.5,0.6,2.4
		c-0.3,1.1-0.4,2.3-0.7,3.4c-0.4,1.1-0.9,2.1-1.1,3.2c-0.2,0.5-0.4,0.9-0.9,1.2c-1.6-0.5-1.2-1.9-1.1-3c0.1-1.1,0.3-2.2,0.6-3.2
		c0.3-1.2,0.9-2.3,1.3-3.6c-5,10.4-10.4,20.7-16.6,30.5c-2.4,3.2-4.6,6.6-6.2,10.3c-0.6,1.3-1.2,2.9-3.1,3
		C79.5,302.9,79.5,302.7,79.8,302.4z"/>
	<path class="st16" d="M179.6,306.9c0-17.5,0-34.9,0-52.4c0.2,0,0.4,0,0.7,0c0,17.5,0,34.9,0,52.4C180,307,179.8,306.9,179.6,306.9z
		"/>
	<path class="st17" d="M379.7,306.9c0-17.4,0-34.9,0-52.3c0.2,0,0.4,0,0.7,0c0,17.4,0,34.9,0,52.3C380.1,307,379.9,307,379.7,306.9z
		"/>
	<path class="st18" d="M280.3,297.7c-1,0-2,0.2-3,0c-1.4-0.3-1.9-1.6-2-2.8c-0.1-1.7,1.4-0.9,2.2-1c1.4-0.1,2.9-0.1,4.3,0
		c1.8,0.1,2.4,1.8,2.5,3.1c0.1,1.4-1.5,0.5-2.4,0.7C281.4,297.9,280.9,297.8,280.3,297.7C280.3,297.8,280.3,297.8,280.3,297.7z"/>
	<path class="st19" d="M109.8,245.3c0.4-1.6,0.9-3.1,1.3-4.7c0.2,0,0.3,0,0.5,0c0.5,3,1,6.1,1.5,9.1c0.4,0.8,0.5,2.3,0.1,2.4
		c-1.4,0.4-2.6,1.1-3.8,1.6c-0.8,0.3-0.6-1.2-0.4-2C109.3,249.6,109.5,247.4,109.8,245.3z"/>
	<path class="st20" d="M411.1,342.2c0-2.5-0.2-5.1-0.1-7.6c0-1.2-0.8-3,0.8-3.5c1.7-0.5,3.7-0.8,5,1.2c-0.1,0.5-0.4,0.8-1,0.9
		c-0.4,0-0.8-0.2-1.3-0.3c-0.6-0.1-1.2-0.1-1.2,0.6c-0.1,0.9,0.6,1,1.3,0.9c0.4-0.1,0.8-0.3,1.2-0.3c0.5,0,0.8,0.4,1,0.8
		c-0.6,0.9-0.5,1.8,0.2,2.6c-0.2,0.2-0.5,0.4-0.8,0.5c-3.4-0.8-3.1,1.9-3.6,3.9C412.2,342.5,411.7,342.8,411.1,342.2z"/>
	<path class="st21" d="M203.5,338.4c-1.6-1.4-2.6-1.6-2.6,1.1c0,1,0.5,2.1-1.2,3.6c0-4.1-0.2-7.6,0.1-11.1c0.1-1.6,3.6-1.5,5.8,0.2
		c0.2,0.2,0.2,0.3,0.2,0.5c0,0.2-0.1,0.3-0.1,0.3c-0.3,0.1-0.6,0.1-0.9,0.1c-1.1-0.1-2.5-1.2-2.8,0.7c-0.3,1.8,1.5,1.5,2.4,1.9
		c0.3,0.1,0.5,0.3,0.7,0.6c-0.3,0.4-0.6,0.8-0.9,1.3C203.9,337.9,203.9,338.3,203.5,338.4z"/>
	<path class="st22" d="M109,251.7c0,0.4,0.1,0.9,0.1,1.5c1.2-0.3,1.2-3.9,3.5-1.4c0.2,0.3,0.2-1.4,0.5-2c1.2,2,0.3,4.5,1.3,6.6
		c0.3,0.8,0.5,1.6-0.2,2.3c-0.3,0.1-0.6,0-0.9-0.2c-0.8-1.7-1.6-2.7-3.8-1.7c-2.2,1.1-1.5-0.6-1.3-1.7
		C108.3,253.8,108.4,252.7,109,251.7z"/>
	<path class="st23" d="M496.1,342.2c0-2.2-0.1-4.4-0.1-6.6c0-5.1,0-5.1,5.7-4.4c-1.5,1.2-4.9-0.6-4.4,3.2c0.4,3.3,3.2,0.8,4.5,2.4
		c-1.3,1-3-0.3-3.9,0.7c-1.1,1.1-0.4,2.7-0.4,4.1C497.5,342.8,496.9,342.7,496.1,342.2z"/>
	<path class="st24" d="M107,261.6c0-0.8,0-1.7,0.1-2.5c0.2-0.3,0.4-0.6,0.6-0.8c2-0.6,4.1-1.4,6.1,0.2h0c1.1,0.7,1.2,1.7,0.8,2.8
		c-2.1,1.6-4.9,0-7.1,1.8C107,263.4,106.8,262.3,107,261.6z"/>
	<path class="st25" d="M412.3,341.5c-0.2-5.1-0.1-5.3,3.9-3.9c1.9,1.3,1,2.6,0.1,3.9c-0.2,0.2-0.5,0.4-0.7,0.6
		C414.4,342.4,413.3,342.5,412.3,341.5z"/>
	<path class="st26" d="M275.8,334.4c-0.6-0.1-1.8-2.5-1.8,0.4c0,2.5,0,5,0,7.6c-0.4,0-0.7,0-1.1,0.1c0-3.6-0.1-7.1,0.1-10.7
		c0-0.9,1-0.6,1.5,0c0.7,0.8,1.7,1.4,1.9,2.6C276.2,334.6,276,334.7,275.8,334.4z"/>
	<path class="st27" d="M475,342.3c0-3.3-0.1-6.7,0-10c0-1.2,0.8-1.6,1.7-0.6c0.6,0.7,1.5,1.2,1.6,2.5c-1.4-0.7-2.5-1.2-2.3,1.2
		c0.2,2.3,0.1,4.6,0.1,6.9C475.8,342.4,475.4,342.4,475,342.3z"/>
	<path class="st28" d="M113.7,258.5c-1.9,0.5-4-1-5.8,0.7c-0.1-0.3-0.2-0.6-0.3-0.9c-0.1-1.2,0.1-2.3,0.7-3.3
		c0.5,0.1-0.9,1.8,0.8,0.9C112.1,254.4,113.5,255.1,113.7,258.5z"/>
	<path class="st29" d="M434.3,341.7c1.9-0.5,2-2,2.1-3.7c0.1-2.2-0.3-4.5,0.4-7c1.7,4,1.1,9.2-1.2,11.2
		C434.9,342.7,434.3,342.9,434.3,341.7z"/>
	<path class="st3" d="M463.6,342.3c0-3.6,0-7.3,0-10.9c0.2,0,0.4,0,0.6,0c0,3.6,0,7.3,0,10.9C464,342.3,463.8,342.3,463.6,342.3z"/>
	<path class="st30" d="M261.6,331.5c1.1,3.6,0.9,7.2,0.8,10.9c-0.3,0-0.6,0-0.8,0C261.6,338.7,261.6,335.1,261.6,331.5z"/>
	<path class="st31" d="M452.9,338.7c-1.8-2-6.5-1.9-5.1-6.2c0.7-2.1,2.8-1.9,4.7-1.3c-0.3,1.2-0.9,0.7-1.3,0.6c-1.1-0.2-2,0-2.4,1.2
		c-0.4,1.1,0.3,1.8,1,2.6C451,336.5,452.8,336.7,452.9,338.7z"/>
	<path class="st32" d="M428.9,341.2c-1.9-3.1-1.3-6.5-0.7-9.8C429.5,334.5,428.3,337.9,428.9,341.2z"/>
	<path class="st33" d="M363.1,341.6c-2.6-3.2-0.8-6.9-0.9-10.3c1.7,3.1,0.2,6.7,1.4,9.9C363.7,341.6,363.7,341.9,363.1,341.6z"/>
	<path class="st34" d="M343.1,342.3c-3.9-2.9-4.3-5.7-1.3-10.4c0.6,0.3,0.9,0.8,1,1.5c-1.5,3.3-0.4,6,1.9,8.5
		C344.3,342.7,343.7,342.7,343.1,342.3z"/>
	<path class="st35" d="M218.7,342.3c-3.9-2.9-4.3-5.7-1.3-10.3c0.5,0.2,0.8,0.6,0.9,1.1c-1.1,3.3-0.8,6.3,1.9,8.8
		C220,342.7,219.4,342.7,218.7,342.3z"/>
	<path class="st35" d="M516.2,338.2c-1-0.5-2-1-2.9-1.6c-1.4-1-2.8-2.1-1.8-4.1c1.1-2,2.8-1.9,5.4-1.1c-1.8,0.9-3.9-0.4-4.3,1.7
		c-0.3,1.3,0.5,2,1.5,2.6c0.6,0.3,1.1,0.7,1.6,1.1c0.3,0.3,0.4,0.7,0.7,1.1C516.4,338.1,516.3,338.1,516.2,338.2z"/>
	<path class="st36" d="M293.9,340.4c-2.4-4.3-1.2-7.3,3.4-9.3c0.2,0.2,0.3,0.3,0.2,0.5c-0.1,0.2-0.1,0.3-0.2,0.3
		c-3.2,1.8-3.9,4.5-2.8,7.8C294.3,339.9,294.3,340.3,293.9,340.4z"/>
	<path class="st37" d="M371.3,340c-1-2.9-1-5.8,0-8.7C371.3,334.2,371.3,337.1,371.3,340z"/>
	<path class="st34" d="M281,341c-0.9-0.8-1.9-1.6-2.3-2.9c-0.1-0.4,0.1-0.5,0.4-0.4c0.7,0.8,1.4,1.7,2.6,3.2
		c0.2-3.8,0.3-6.6,0.5-9.5c0-0.1,0.4-0.2,0.5-0.2c0.2,0,0.3,0.3,0.4,0.4c-0.6,2.5-0.2,5-0.3,7.5C282.9,340.4,283,341.7,281,341z"/>
	<path class="st38" d="M385.7,338.3c-0.7-0.5-1.3-0.9-2-1.4c-0.2-0.3-0.2-0.6,0-0.8c1.7-0.7,3.4-1.4,2.9-3.8
		c0.1-0.3,0.2-0.6,0.5-0.8c2.7,2,2.6,2.8-0.7,6C386.6,338.3,386.3,338.4,385.7,338.3z"/>
	<path class="st36" d="M180.9,340.9c-2.9-1.9-3.1-5.2-0.4-7.9c0.2-0.2,0.4-0.2,0.5,0.1C179.7,335.7,180.1,338.3,180.9,340.9
		L180.9,340.9z"/>
	<path class="st39" d="M363.1,341.6c0.2-0.2,0.4-0.3,0.5-0.5c2.1,0.7,4.2,0.8,6.7-0.3C368.5,343.5,365.6,343.6,363.1,341.6z"/>
	<path class="st23" d="M483.2,341c-0.7-0.6-1.5-1.1-1.5-2.1c0.2-0.3,0.4-0.3,0.6,0c0.8,0.3,1.9,2.4,2-0.5c0-2.4-0.5-4.8,0.4-7.1
		c0,0,0.2-0.1,0.3,0c0.2,0.1,0.3,0.3,0.4,0.4c-0.6,2.5-0.1,5-0.3,7.4C485,340.3,485.2,341.7,483.2,341z"/>
	<path class="st40" d="M281,341c1.8-0.1,1.5-1.4,1.6-2.6c0.2-2.2-0.7-4.6,0.6-6.7c0,2.9,0.1,5.8,0.1,8.8c0,0.7,0.4,1.7-0.5,2
		C281.7,342.8,281.5,341.7,281,341z"/>
	<path class="st41" d="M217.9,332.9c-0.1-0.3-0.3-0.6-0.4-1c3.1-1.8,6.2-1.6,8.5,0.6c0,0.4-0.2,0.6-0.6,0.7
		C222.9,332.3,220.4,333.2,217.9,332.9z"/>
	<path class="st42" d="M483.2,341c1.7-0.2,1.5-1.5,1.6-2.7c0.2-2.2-0.6-4.5,0.6-6.7c0,2.9,0.1,5.8,0.1,8.8c0,0.7,0.4,1.7-0.5,2
		C483.8,342.9,483.6,341.7,483.2,341z"/>
	<path class="st43" d="M342.2,332.9c-0.1-0.3-0.3-0.7-0.4-1c3.1-1.8,6.2-1.6,8.5,0.6c0,0.4-0.2,0.6-0.6,0.7
		C347.3,332.3,344.7,333.2,342.2,332.9z"/>
	<path class="st44" d="M303.8,337.6c0.3,4.9,0.2,5-4.2,5c2.5-0.9,3.6-2.1,3-4.3C302.4,337.2,302.9,337.1,303.8,337.6z"/>
	<path class="st45" d="M327.1,335c0.7,1.2,1.4,1.2,2.1,0c0.6-0.2,0.9-0.1,0.6,0.6c-2,1.9-0.7,4.6-1.7,7.2c-1-2.6,0.2-5.3-1.7-7.2
		C326.2,334.9,326.5,334.8,327.1,335z"/>
	<path class="st46" d="M227.4,334.3c0.1,0.1,0.1,0.3,0.1,0.5c0.4,1.4,0.4,2.9,0,4.3c-0.2,1.6-1.3,2.5-2.7,3.2
		c-0.7,0.4-1.3,0.4-1.5-0.5c1.8-1.9,2.9-4.2,3-6.9C226.5,334.5,226.8,334.1,227.4,334.3z"/>
	<path class="st47" d="M383.7,336.3c0,0.2,0,0.4,0,0.6c-1.3,1.6,0,3.6-1.4,5.3c0-3.5,0-7.1,0-10.6c0.6-0.2,1,0.2,1.2,0.6
		C384,333.6,384,335,383.7,336.3z"/>
	<path class="st48" d="M496.1,342.2c0.6,0,1.1-0.1,1.3-0.7c1.6,0.1,3.3,0.2,4.9,0.2C500.2,343,498.2,343.5,496.1,342.2z"/>
	<path class="st38" d="M247.3,341.8c-0.8-2.3-1.7-4.6-2.5-6.8c0.2-0.3,0.2-0.7,0.7-0.8c0.8,2,1.7,4,2.5,6
		C248.5,341,247.8,341.3,247.3,341.8z"/>
	<path class="st49" d="M238.8,340.2c-0.7-2.1-1.5-4.3-2.2-6.4c-0.3-0.7,0.1-0.9,0.7-0.8c0.7,2.1,1.5,4.3,2.2,6.4
		C239.9,340.2,239.4,340.2,238.8,340.2z"/>
	<path class="st50" d="M351.8,334.3c0.1,0.1,0.1,0.3,0.1,0.4c0.4,1.5,0.4,2.9,0,4.4c-0.2,1.6-1.4,2.5-2.7,3.2
		c-0.7,0.4-1.3,0.4-1.5-0.5c1.8-1.9,2.9-4.2,3-6.9C350.8,334.5,351.1,334.1,351.8,334.3z"/>
	<path class="st51" d="M180.9,340.9c2.4,0.7,4.8,0.9,7.3,0.6c0.4,0.3,0.4,0.6,0,0.8c-0.4,0.5-0.9,0.5-1.4,0.4
		c-1.1-0.4-2.1-0.4-3.2,0C182.3,342.7,181.1,342.5,180.9,340.9C180.9,340.9,180.9,340.9,180.9,340.9z"/>
	<path class="st35" d="M182.2,331.6c2.5-1.3,4.9-1.2,7.1,0.8c-2.4-0.4-4.7-1.2-7.1-0.1c-0.2-0.2-0.2-0.3-0.2-0.5
		C182.1,331.7,182.1,331.6,182.2,331.6z"/>
	<path class="st52" d="M238.8,340.2c0.2-0.3,0.5-0.6,0.7-0.9c1.8,1.4,0.9-1.2,1.8-1.2c0.4,0.1,0.4,0.4,0.6,0.7
		c-0.4,1.3-0.9,2.5-1.3,3.8C239.1,342.2,239.2,341.1,238.8,340.2z"/>
	<path class="st53" d="M166.6,345c1.1,0,2.1-0.2,3-0.7c1,0.6,1.9,1.3,2.7,2.6C170.1,346.6,168.3,346,166.6,345z"/>
	<path class="st54" d="M434.3,341.7c0.4,0.2,0.9,0.4,1.3,0.6c-1.7,1.2-3.4,0.8-5.8,0.1C431.6,341.3,433,341.8,434.3,341.7z"/>
	<path class="st48" d="M347.8,341.7c0.4,0.2,0.9,0.4,1.3,0.6c-2,1.1-4.1,1.1-6.1,0c0.4-0.2,0.9-0.4,1.3-0.6
		C345.6,340.6,346.7,340.6,347.8,341.7z"/>
	<path class="st48" d="M223.5,341.7c0.4,0.2,0.9,0.4,1.3,0.6c-2,1.1-4,1.1-6.1,0c0.4-0.2,0.9-0.4,1.3-0.6
		C221.2,340.6,222.4,340.6,223.5,341.7z"/>
	<path class="st55" d="M303.8,337.6c-0.6,0-1,0.2-1.3,0.7c-1.2-0.3-2.5,0.3-4.1-0.9C300.6,336.9,302.2,336.4,303.8,337.6z"/>
	<path class="st56" d="M245.5,334.1c-0.2,0.3-0.4,0.5-0.7,0.8c-1.7-0.9-2.5-2-0.7-3.8C245,331.9,245.2,333.1,245.5,334.1z"/>
	<path class="st57" d="M526.8,333c0.9-2.4,2.7-2.4,4.8-1.6c-1.6,0.6-3.9,0.1-3.6,2.9C526.7,334.6,527.2,333.3,526.8,333z"/>
	<path class="st58" d="M188.3,338.2c-1.1,0.1-2.2,0.2-3.6-0.4c1.9-1.1,3.3-1.2,4.9-0.2C189.2,338.1,188.6,337.9,188.3,338.2z"/>
	<path class="st59" d="M527.6,342.3c1.1-0.9,2.2-0.7,3.5-0.1C529.7,343.5,528.7,342.9,527.6,342.3z"/>
	<path class="st54" d="M515.9,342.5c-1.5,0.5-2.6,0.7-4.1-0.4C513.4,341.5,514.5,341.3,515.9,342.5z"/>
	<path class="st60" d="M279.2,337.7c-0.2,0.1-0.4,0.2-0.4,0.4c-1.3-0.9-2.3-2.2-2.9-3.7c0.2-0.1,0.4-0.1,0.6-0.1
		C277.7,335.1,278.6,336.3,279.2,337.7z"/>
	<path class="st61" d="M412.3,341.5c1.1,0.1,2.3,0.1,3.3,0.7c-1.5,1.2-3,1.1-4.6,0C411.6,342.2,412.1,342.1,412.3,341.5z"/>
	<path class="st62" d="M478.8,307.6c2.4-1,4.9-0.9,7.3,0C483.6,308.1,481.2,308.2,478.8,307.6z"/>
	<path class="st63" d="M482.3,338.9l-0.3,0c0,0-0.3,0-0.3,0c-1.3-0.8-2.1-2-2.6-3.5C480.6,336.1,481.6,337.3,482.3,338.9z"/>
	<path class="st64" d="M295.9,341.1c1,0.3,2,0.6,3.7,1.1c-2.1,1-3.3,0.5-4.4-0.5C295.2,341.3,295.5,341.2,295.9,341.1z"/>
	<path class="st38" d="M385.7,338.3c0.2-0.2,0.5-0.5,0.7-0.7c0.9,1.1,1.8,2.2,2.7,3.3C387.1,340.8,386.5,339.4,385.7,338.3z"/>
	<path class="st65" d="M448.8,341.6c0.9,0,1.8,0,2.7,0c0.3,0.2,0.7,0.3,0.7,0.7c-1.4,1-2.8,0.9-4.2,0.1
		C448.1,341.9,448.5,341.8,448.8,341.6z"/>
	<path class="st33" d="M416.4,341.6c0.1-1.3,0.9-2.7-0.1-3.9c0.3,0,0.6,0,0.8-0.1C418.4,339.2,418.7,340.6,416.4,341.6z"/>
	<path class="st66" d="M205,336.4c-0.3,0-0.7-0.1-1-0.1c0-1.3,0.7-2.2,1.4-3.1c0-0.3,0.1-0.6,0.1-0.9
		C207.2,333.8,206.5,335.1,205,336.4z"/>
	<path class="st67" d="M383.1,332.3c-0.2-0.2-0.5-0.5-0.7-0.7c1.6-1.1,3.1-0.9,4.7-0.1c0,0.2,0,0.4,0,0.6
		C385.8,333,384.4,332.6,383.1,332.3z"/>
	<path class="st39" d="M249.4,337c0.2-1,0.3-2.1,1.7-2.6c0.2,1.4-0.3,2.4-0.9,3.4C249.7,337.7,249.6,337.3,249.4,337z"/>
	<path class="st68" d="M329.8,335.6c-0.2-0.2-0.4-0.4-0.6-0.6c0.5-1,0.9-1.9,2.1-2.6C331.8,334,330.5,334.7,329.8,335.6z"/>
	<path class="st69" d="M188.3,338.2c0.4-0.2,0.8-0.4,1.3-0.6c-0.1,1.7,1.2,3.8-1.3,4.8c0-0.3,0-0.6,0-0.8
		C189,340.5,189,339.3,188.3,338.2z"/>
	<path class="st70" d="M203.5,338.4c0.2-0.2,0.4-0.5,0.7-0.7c0.6,1,1.8,1.6,1.9,2.9c0.1,0.3-0.1,0.5-0.4,0.4
		C204.6,340.3,204.1,339.3,203.5,338.4z"/>
	<path class="st71" d="M516.2,338.2c0.1,0,0.2-0.1,0.3-0.2c1.6,0.6,1.3,1.6,0.5,3.6C516.6,339.9,516.4,339,516.2,338.2z"/>
	<path class="st72" d="M529.3,335.7c1,0.5,2,1,2.7,1.9c-0.1,0.3-0.3,0.5-0.6,0.6c-0.9-0.6-1.8-1.3-2.8-1.9
		C528.6,335.9,529,335.9,529.3,335.7z"/>
	<path class="st73" d="M529.3,335.7c-0.2,0.2-0.5,0.4-0.7,0.6c-1.3-0.7-2.3-1.7-1.8-3.3c0.4,0.4,0.8,0.9,1.1,1.3
		C528.3,334.7,528.8,335.2,529.3,335.7z"/>
	<path class="st74" d="M327.1,335c-0.2,0.2-0.4,0.4-0.6,0.6c-0.6-0.9-1.3-1.8-1.9-2.7c0.2-0.3,0.2-0.7,0.7-0.8
		C325.9,333.1,326.5,334,327.1,335z"/>
	<path class="st75" d="M237.3,333c-0.2,0.3-0.5,0.6-0.7,0.8c-0.5-0.8-1.2-1.6-0.8-2.7C237.1,331.2,237,332.2,237.3,333z"/>
	<path class="st70" d="M249.4,337c0.2,0.3,0.5,0.5,0.7,0.8c-0.2,1-0.5,2-1.4,2.7c-0.3-0.3-0.4-0.6-0.1-1
		C248.9,338.6,249.2,337.8,249.4,337z"/>
	<path class="st76" d="M531.3,338.2c0.2-0.2,0.4-0.4,0.6-0.6c1.1,0.9,0.9,1.9,0.5,3.6C531.9,339.9,531.6,339.1,531.3,338.2z"/>
	<path class="st77" d="M301.2,331c1.2,0,1.9,0.6,2.7,1.7c-1.4,0.4-2-0.5-2.7-0.9c-0.2-0.2-0.3-0.3-0.2-0.5
		C301.1,331.1,301.2,331,301.2,331z"/>
	<path class="st78" d="M241.9,338.9c-0.2-0.2-0.4-0.5-0.6-0.7c0.2-0.7,0-1.6,1.1-1.7C242.9,337.4,242,338.1,241.9,338.9z"/>
	<path class="st79" d="M248.6,339.4c0,0.3,0.1,0.7,0.1,1c0,0.9-0.3,1.6-1,2c0,0-0.3-0.4-0.5-0.7c0.2-0.5,0.5-1.1,0.7-1.6
		C248.2,339.9,248.4,339.6,248.6,339.4z"/>
	<path class="st80" d="M205.6,340.9c0.2-0.1,0.4-0.2,0.4-0.4c0.9,0.3,1.3,0.9,1.4,2.1C206.3,342.5,205.8,341.8,205.6,340.9z"/>
	<path class="st81" d="M448.8,341.6c-0.3,0.2-0.5,0.5-0.8,0.7c-0.6-0.2-1.5-0.7-1-1.3C447.7,340.1,448.2,341.5,448.8,341.6z"/>
	<path class="st57" d="M452.2,342.3c-0.2-0.2-0.5-0.5-0.7-0.7c0.7-0.2,0.8-1.7,1.6-0.9C453.8,341.4,452.8,341.9,452.2,342.3z"/>
	<path class="st57" d="M351.8,339.1c0-1.5,0-2.9,0-4.4C352.6,336.2,352.6,337.6,351.8,339.1z"/>
	<path class="st82" d="M301.2,331c0,0.3,0,0.5,0,0.8c-1.3,0-2.6,0-3.9,0c0-0.3,0-0.5-0.1-0.8C298.6,330.7,299.9,330.7,301.2,331z"/>
	<path class="st83" d="M227.5,339.1c0-1.4,0-2.9,0-4.3C228.3,336.2,228.3,337.6,227.5,339.1z"/>
	<path class="st83" d="M227.4,334.3c-0.3,0.3-0.5,0.6-0.8,0.8c-1.1-0.4-2-0.9-1-2.2c0.2-0.1,0.2-0.2,0.3-0.3
		C227,332.7,227.2,333.5,227.4,334.3z"/>
	<path class="st84" d="M416.2,333c0.2-0.2,0.4-0.5,0.6-0.7c0.7,0.8,0.7,1.7,0,2.6c-0.2-0.2-0.4-0.5-0.6-0.7
		C415.9,333.9,415.9,333.5,416.2,333z"/>
	<path class="st57" d="M351.8,334.3c-0.3,0.3-0.5,0.6-0.8,0.9c-1.1-0.4-2-0.9-1-2.2c0.2-0.1,0.3-0.2,0.3-0.3
		C351.4,332.7,351.5,333.5,351.8,334.3z"/>
	<path class="st85" d="M295.9,341.1c-0.2,0.2-0.5,0.4-0.7,0.6c-0.4-0.4-0.8-0.9-1.3-1.3c0.2-0.2,0.4-0.5,0.7-0.7
		C295,340.1,295.4,340.6,295.9,341.1z"/>
	<path class="st86" d="M325.2,332.2c-0.2,0.3-0.4,0.5-0.7,0.8c-0.3-0.6-1.5-1.1-0.7-1.8C324.4,330.7,324.9,331.6,325.2,332.2z"/>
	<path class="st87" d="M182.2,331.6c0,0.2,0,0.5,0,0.7c-0.4,0.3-0.8,0.5-1.2,0.8c0,0-0.2-0.1-0.2-0.1s-0.3,0-0.3,0
		C180.6,332,181.4,331.8,182.2,331.6z"/>
	<path class="st44" d="M183.6,342.8c1.1-0.8,2.2-0.8,3.2,0C185.8,342.8,184.7,342.8,183.6,342.8z"/>
	<path class="st1" d="M183.1,291.5c0-3.1,0.1-6.2,0-9.3c0-1.7,0.6-2.4,2.3-2.3c2.8,0.1,5.5,0,8.3,0.4c5.6,0.8,9,4.5,9.2,10.3
		c0.3,6.2-3.2,11.3-8.7,12.4c-2.9,0.6-5.9,0.5-8.9,0.5c-1.8,0-2.3-0.8-2.2-2.4C183.1,297.9,183.1,294.7,183.1,291.5z"/>
	<path class="st1" d="M183.1,266.3c0-0.6-0.2-1.2,0-1.6c1.2-2.4-2.7-6.9,2.2-7.6c8.9-1.2,13.3,1,14.2,6c1.2,6-1.2,10.7-6.3,12.2
		c-2.8,0.8-5.7,0.5-8.5,0.6c-1.4,0-1.6-0.8-1.6-1.9C183.1,271.4,183.1,268.9,183.1,266.3C183.1,266.3,183.1,266.3,183.1,266.3z"/>
	<path class="st88" d="M71.8,340.2c2.7-1.1,5.4-2.1,8.1-3.2c1-0.8,2.3-1,3.5-1.5c1.2-0.5,2.4-0.5,2.6,1.3c-0.5,0.6-1.3,0.7-2,0.7
		c18.7-0.4,37.4,0,56.1-0.3c3.3,0.8,6.4,2.2,9.7,3.2c0.8,0.6,0.9,1.3-0.2,1.6c-1.1,0.4-2.2,0.2-3.3,0.2c-17.4,0-34.8,0-52.2,0
		c-6.3,0-12.6,0-18.9-0.1c-1.1,0-2.8,0.7-3.2-1.3c0.3-0.1,0.5-0.2,0.8-0.3C72.3,340.5,72,340.4,71.8,340.2z"/>
	<path class="st89" d="M71.9,340.9c0.9,1,2.1,0.6,3.1,0.6c24.2,0,48.3,0,72.5-0.1c0.2,0,3.2,1.6,1.5-1.2c-0.2-0.1-0.3-0.3-0.2-0.4
		c0.1-0.1,0.2-0.2,0.2-0.2c1.7,0.3,3.3,0.7,4.7,1.6c0.5,1.8-0.6,1.7-1.8,1.7c-3.4,0-6.9,0-10.3,0c-23.3,0-46.5,0-69.8,0
		c-1.1,0-2.1,0-3.5,0C69.3,341.4,70.8,341.7,71.9,340.9z"/>
	<path class="st90" d="M117.1,260.5c-0.8-1.9-1.3-3.9-1.3-6c1.5-0.1,1.7,1.2,2.1,2.1c2.7,5.2,5.5,10.3,8,15.6c0.8,1.7,2,3.2,2.8,4.9
		c0.4,2.5,2.7,4,3.5,6.2c2.2,5.9,5.3,11.4,8.2,16.9c2.4,4.5,5.1,9,7,13.8c0.4,1.5,0.8,3,2.1,4c0.9,1.3,1.9,2.5,2.3,4.1
		c0.1,0.4,0.2,0.8,0.3,1.3c0.3,1,1.2,2.1,0.1,3c-0.9,0.8-1.8-0.1-2.7-0.6c-0.4-0.2-0.8-0.2-1.3-0.3c-0.6-0.1-1.2-0.2-1.5-0.9
		c-0.1-0.3-0.1-0.6,0-0.9c0.2-0.4,0.4-0.8,0.7-1.2c0.4-1-0.2-1.7-0.6-2.5c-4.9-10.2-10.8-20-15.5-30.3c-3.9-8.7-9.2-16.6-13.1-25.2
		C117.6,263.3,117.7,261.8,117.1,260.5z"/>
	<path class="st91" d="M117.1,260.5c4.3,8.1,8.9,16.1,13,24.3c2.8,5.6,5.9,11.2,8.3,17c1,2.5,2,5,4.2,6.8c0.4,0.3,0.5,0.9,0.7,1.5
		c1.3,4.1,3.2,7.9,5.4,11.6c0.6,1,0.6,1.8-1,1.2c-1.4,0.4-1.8-0.6-2.3-1.5c-0.2-1.4-1.6-2-2-3.2c-0.1-0.3-0.1-0.6-0.1-0.9
		c-0.8-3.1-2.8-5.7-4.2-8.5c-3.1-6.3-6.2-12.7-9.9-18.7c-1.4-2.3-1.2-5-2.5-7.1c-3.4-5.2-6.2-10.7-8.9-16.2c-1-1.1-0.4-2.5-0.6-3.7
		C117.1,262.3,117.1,261.4,117.1,260.5z"/>
	<path class="st92" d="M151,322.3c-0.1-1.6-1.6-2.5-2-4c-0.9-1.2-1.4-2.6-2-4c-2.7-5.2-5.3-10.4-8-15.6c-0.7-1.3-1.5-2.4-2.2-3.6
		c-3.2-5-4.1-11.2-8.1-15.8c-0.4-0.5-0.2-1.5-0.3-2.2c0.2-0.2,0.4-0.2,0.7,0c6,8.1,10.1,17.2,14.5,26.2c3.1,6.3,6.5,12.5,9.2,19
		c0.5,1.3,2.6,2.1,1.5,4C151.8,326.1,152.4,323.4,151,322.3z"/>
	<path class="st92" d="M129,277.1c-0.2,0-0.4,0-0.7,0c-1.5-0.7-2.1-2.2-2.8-3.5c-3.3-6.4-6.6-12.7-9.9-19.1c-1.1-1.9-0.7-4-1.2-6
		c5,8,9.2,16.4,13.3,24.8C128.4,274.6,129.2,275.7,129,277.1z"/>
	<path class="st93" d="M107,261.6c0.1,0.3,0.2,0.6,0.3,0.9c2-2.1,4.7-1.2,7.1-1.4c0.4,0.1,0.5,0.4,0.8,0.6c1,0.3,0.6,1.5,1.2,2
		c0.7,0.7,0.7,1.4,0.4,2.3c-0.1,0.3-0.4,0.5-0.7,0.6c-2.4-1.2-4.9-1.7-7.6-0.6c-1,0.4-2.2,0.8-2.3-1.1
		C106.3,263.8,106.3,262.7,107,261.6z"/>
	<path class="st15" d="M151,322.3c1.8,0.7,1.5,3.3,3.3,4c1,1.3,1.7,2.7,0,4c-1.1-0.9-2.3-1.7-3.4-2.6c-1.2-0.5-2.9-0.7-2.6-2.7
		c1.7-1.5,2.1,1.6,3.6,0.9C152.4,324.6,150.8,323.6,151,322.3z"/>
	<path class="st90" d="M116.5,266.4c0-0.9-0.1-1.7-0.1-2.6c0.2-0.2,0.4-0.4,0.7-0.7c1.2,0.8,0.1,2.5,1.3,3.3c0.9,2.3,1.3,4.6,1.9,7
		c0.3,1.3,0.6,2.6-0.6,3.7c-0.6,0.2-1-0.1-1.4-0.5c-0.7-1.1-0.6-2.3-1-3.5c-0.3-1.1-0.3-2.3-0.7-3.4
		C116.2,268.7,116.1,267.6,116.5,266.4z"/>
	<path class="st28" d="M115.2,261.8c-0.3-0.2-0.5-0.4-0.8-0.6c0.1-1-0.2-1.8-0.7-2.7c0.8-0.5,0.6-1.4,0.7-2.2
		C115.5,258.1,115.1,259.9,115.2,261.8z"/>
	<path class="st94" d="M88.5,289.7c5.7-10.1,11.4-20.3,17.4-31.1c-0.4,2.7-0.7,4.9-1.1,7c-0.2,1.2-0.7,2.4,0.3,3.4
		c0.5,0.7,0.2,1.4,0.2,2.2c-0.1,0.9-0.3,1.8-0.5,2.6c0,0.3-0.1,0.6-0.1,0.9c-0.1,0.6-0.2,1.2-0.7,1.7c-0.8,0.2-1.2-0.1-1.6-0.7
		c-0.2-1,0.1-1.9,0.2-2.8c0.2-1.1,0.6-2.1,0.7-3.3c0.1-0.3-0.6,0.1-0.1,0.1c0.1,0,0.2,0.1,0,0.3c-4,6.5-7.1,13.4-11.3,19.8
		c-1.2,1.1-1.8,2.6-2.1,4.2c-0.1,0.3-0.2,0.6-0.4,0.8c-3.6,5.5-6.5,11.3-9.5,17.1c-0.1,0.3-0.3,0.6-0.4,0.8
		c-2.3,3.1-4.2,6.4-5.8,9.9c0,0.1,0,0.2,0.1,0.3c0.1,0,0.2,0,0.3,0c0.6-0.3,1.3-0.5,1.9,0c0.1,2.7-2.3,3-3.9,4.1
		c-0.7,0.4-1.4,0.9-2.1,1.3c-0.7,0.3-1.3,0.9-2.1,1c-0.3-0.1-0.6-0.2-0.8-0.5c-0.1-0.3-0.1-0.6,0.1-1c5.1-7.4,8.3-15.8,13-23.3
		C83.1,299.8,85.5,294.6,88.5,289.7z"/>
	<path class="st95" d="M72,327c1.1-1.5,3-2.2,3.9-4c0.3-0.2,0.6-0.2,0.9,0c3.2,3.2,6.2,6.8,10.6,8.5c1.3,0.5,2,1.3,1.5,2.8
		c-0.7,1.1-1.8,1.6-3,2c-2.2-1.3-3.9,1.2-6,0.8c0.3-0.8,0.9-1.2,1.7-1.4c0.8-0.2,1.1-1.2,0.4-1.4C77.6,333,75.6,329,72,327z"/>
	<path class="st92" d="M67.9,329c0.7-0.2,1.4-0.4,2.1-0.6c-1.4,2.2-3.3,3.8-5.4,5.3c-1.3-0.7-1.9,0.7-3.9,1.3
		c7.4-10.9,11.7-22.6,19.2-32.5c0,0.2,0,0.4,0,0.7c0.9,1.1,0.2,2.2-0.3,3c-4.5,7.2-8,14.9-12.3,22.2c0,0.2,0,0.4,0,0.7
		C67.4,329.9,67.6,328.9,67.9,329z"/>
	<path class="st96" d="M148.3,325c0.9,0.9,1.7,1.8,2.6,2.7c-4.1,1.1-5.4,5.9-9.3,7.2c-1.7,0.6,0.7,1.2,0.1,1.9
		c-1.4,0.8-2.5,0.3-3.6-0.6c-1.3-1.4-0.7-3,0.3-3.9c2.9-2.6,5.2-5.9,8.6-8C147.1,325,147.8,324.9,148.3,325z"/>
	<path class="st97" d="M138.3,335.7c1,0.7,2.2,1,3.3,1.2c2.4,0.9,4.9,1.9,7.3,2.8c0,0.2,0,0.4,0,0.7c-3.1-0.4-5.8-1.7-8.7-2.6
		c-3,0.1-5.7-0.4-8-2.5c-0.1-0.3-0.1-0.7,0-1c0.6-0.5,1.3-0.5,2-0.4C135.7,334.1,137.1,334.7,138.3,335.7z"/>
	<path class="st98" d="M67.2,328.3c0.9-5.2,4.7-9,6.7-13.7c1.6-4.1,4.9-7.2,6-11.6c2.9-2.1,3.1-5.9,5.2-8.6c1.2-1.5,2.2-3.2,3.5-4.7
		c-0.1,3.5-2.8,5.9-4.2,8.7c-4.7,9.4-10,18.5-15,27.7C68.7,327.1,68.1,327.9,67.2,328.3z"/>
	<path class="st99" d="M104.6,271.1c-0.6-0.8,0.4-1.3,0.4-2c0.1-0.4,0.2-0.9,0.2-1.3c3.5-1.5,7.4-0.4,11-1.4c0,0,0.2-0.1,0.2-0.1
		c0.8,1,0.5,2.2,0.5,3.4c0.3,1.3-0.9,1.6-1.5,1.5C111.9,270.6,108.2,271.9,104.6,271.1z"/>
	<path class="st100" d="M116.3,266.5c-0.1,0.3-0.2,0.8-0.3,0.8c-3.5,0.7-7.1,0.5-10.7,0.5c-0.6-1.3,0.8-1.9,1-2.9
		c0.6,1,1.3,0.8,2.2,0.3C111.4,264,114,264.3,116.3,266.5z"/>
	<path class="st101" d="M416.2,333c0,0.4,0,0.8,0,1.2c-0.8,1.2-1.9,1.8-3.3,1.3c-1-0.4-0.8-1.6-0.6-2.3
		C413.4,330.1,414.9,332.3,416.2,333z"/>
	<path class="st102" d="M205.4,333.1c0.2,1.3-0.6,2.2-1.4,3.1c-1-0.3-2.7,0.8-3-1c-0.2-1.1-0.7-2.6,0.6-3.3
		C203,331.2,204.3,331.9,205.4,333.1z"/>
	<path class="st25" d="M350,332.9c0.3,0.7,0.7,1.5,1,2.2c0,2.7,0.1,5.5-3.2,6.6c-1.1,0-2.3,0-3.4,0c-3.5-1.9-3.9-3.8-2.2-8.8
		C344.8,331.3,347.4,331.4,350,332.9z"/>
	<path class="st25" d="M225.7,332.9c0.3,0.7,0.7,1.5,1,2.2c0,2.7,0.1,5.5-3.2,6.6c-1.1,0-2.3,0-3.4,0c-3.5-1.9-3.9-3.8-2.2-8.8
		C220.5,331.3,223.1,331.3,225.7,332.9z"/>
	<path class="st103" d="M383.1,332.3c1.3-1,2.6-0.5,4-0.3c0.9,3.2,0.4,3.8-3.4,4.3C382.6,335.1,383.3,333.7,383.1,332.3z"/>
	<path class="st104" d="M132.4,334.9c2.6,0.9,5.3,1.8,7.9,2.7c-0.9,1-2.1,0.6-3.1,0.6c-16.1,0-32.2,0-48.3,0c-2.6,0-5.2-0.9-7.7,0.6
		c1.2-1.7,3.4-1.3,4.6-2.7c0.1-1.7,1.9-1.2,2.7-2c1-1.3,2.8-0.8,3.9-1.8c0.9-0.4,1.8-0.7,2.8-0.5c0.7,0.2,1.3,0.4,1.9,0.6
		c7.4,0.3,14.7,0.3,22.1,0.2c1.6,0,3.3-0.1,4.9-0.6C127.1,332.1,129.9,333,132.4,334.9z"/>
	<path class="st105" d="M138.3,335.7c-1.4-0.2-2.8-0.6-4-1.3c-1.9-1.6,0.2-2.5,0.7-3.7c0.7-1,1.5-1.8,2.1-2.8c0.5-0.6,1-1.1,1.9-1.3
		c3.5,0.2,4.2-2.2,4.5-4.9c1.8-0.4,2.6,0.8,3.3,2.1c0.1,0.2,0.1,0.4,0,0.6c-1.8,2.7-4.1,5.1-6.7,7.1
		C138.9,332.5,137.3,333.5,138.3,335.7z"/>
	<path class="st106" d="M146.9,323.7c-1-0.8-2.1-1.5-3.1-2.3c-0.7,0.1-1.1-0.2-1.6-0.6c-0.6-0.5-1.1-1-1.6-1.5c-0.9-1-2-1.8-3-2.6
		c-0.4-0.5-0.8-1-0.6-1.7c1.1-1.5,2.1-0.6,3,0.2c1.3,1.2,2.6,2.2,3.8,3.5c0.7,0.7,1.6,1.4,2,2.3c0.4,0.9,1.1,1.6,2,2
		C147.4,323.2,147.1,323.5,146.9,323.7z"/>
	<path class="st15" d="M147,314.3c1,1.2,2.2,2.2,2,4C147.2,317.5,146.8,316.1,147,314.3z"/>
	<path class="st107" d="M119.1,277.1c1.5-2.7-0.5-5.2-0.3-7.8c0.1-0.9-0.2-1.9-0.4-2.9c1.8,1.5,1.8,3.9,2.9,5.8
		c1.6,2.8,2.8,5.7,4.8,8.2c2.5,3.1,2.2,7.1,4.3,10.4c3.6,5.5,6.3,11.5,9.4,17.3c1.4,2.6,2.1,5.5,4.2,7.7c0.5,0.5,0.3,1.2-0.4,1.7
		c-2.4-0.2-3.7-1.8-4.6-3.7c-4.1-8.5-8.6-16.9-12.9-25.3c-1.1-2.2-1.3-4.7-2.4-6.9c-0.8-1.5-1.4-3-3.2-3.5c-0.5,0.2-1,0.5-1.5,0
		C118.7,277.9,118.7,277.5,119.1,277.1z"/>
	<path class="st108" d="M120.4,277.8c2-0.1,3.2,1.1,3.6,2.7c1.9,6.4,5.2,12.2,8.1,18.1c2.6,5.3,5.6,10.3,7.9,15.7
		c0.7,1.5,2.3,2.3,3.6,3.3c0,0.2,0,0.4,0,0.7c0.2,0.1,0.3,0.3,0.2,0.4c-0.1,0.1-0.1,0.2-0.2,0.2c-1.7-0.6-2.9-1.9-4.1-3.1
		c-0.6-0.6-1.1-1.8-2.4-0.9c-0.5,0-0.9-0.3-1.2-0.7c-0.1-0.3-0.2-0.6-0.3-0.9c-3.8-10.5-10.9-19.3-15-29.7
		C120,281.8,119,279.9,120.4,277.8z"/>
	<path class="st107" d="M143.7,319c0-0.2,0-0.4,0-0.7c0.8,0.8,2.4,1,2,2.7C144.8,320.6,144.1,319.9,143.7,319z"/>
	<path class="st109" d="M119.1,277.1c0,0.5,0,0.9,0.1,1.4c-0.1,0.1-0.3,0.2-0.4,0.4c-2,0.9-4.3,0.1-6.3,0.9
		c-2.2,0.5-4.4,1.1-6.5,1.8c-1.1,0.4-2.5,1.2-3.4-0.5c-0.5-1.7-0.4-3.3,1.1-4.6c0.1-0.6,0.2-1.3,0.3-1.9c1.4,0.6,2.8,0.6,4.4,0.6
		c3.4-0.1,7-1.4,10.1,1.4C118.6,276.7,118.9,276.9,119.1,277.1z"/>
	<path class="st110" d="M104.6,271.1c3.1-0.2,6.2-1.9,9.5-0.3c0.9,0.4,2.1-0.2,2.9-1c1.1,0.9,0.5,2.2,0.7,3.3
		c0.2,0.7-0.3,1.1-0.9,1.1c-3.5-0.3-6.9,0.5-10.4,0.8c-1.1,0.1-1.8-0.6-2.6-1.2C104.2,272.9,104.8,272.1,104.6,271.1z"/>
	<path class="st111" d="M103.9,273.8c1.5,0.7,2.9,0.1,4.4,0c3.1-0.2,6.3-0.4,9.4-0.7c1.1,0.9,0.5,2.2,0.7,3.3c-3.7-1-7.6-1-11.3-0.2
		c-1.9,0.4-2.6-0.2-3.2-1.7C103.9,274.3,103.9,274,103.9,273.8z"/>
	<path class="st112" d="M76.5,322.9c-0.2,0-0.4,0.1-0.6,0.1c-0.7,0.2-1.4,0.4-2.1,0.6c-0.4-3.4,2.5-5.4,3.5-8.2
		c0.4-1.1,1.1-2.1,1.8-3.1v0c3.4-6,6.6-12,10-17.9v0c0.5-1.6,1.6-3,2-4.7c3.1-5.5,6.3-10.9,9.1-16.5c0.9-1.8,2.8-2.7,3.2-4.8
		c0.5,1.7,0.5,3.2-0.3,4.7c-1.5,5-4.4,9.2-7,13.6c-2.4,4.1-4.4,8.5-6.7,12.7c-2.3,4.2-4.5,8.6-7.2,12.7c-1.8,2.7-2.7,5.8-4.4,8.5
		c-0.3,0.5-0.5,1.1-0.8,1.6C76.9,322.6,76.7,322.8,76.5,322.9z"/>
	<path class="st113" d="M77.2,320.9c2.1-6.2,6.1-11.5,9-17.3c1.8-3.6,3.7-7.1,5.7-10.6c2.7-4.9,5.3-9.9,8.4-14.5
		c1.1-1.7,1-4.1,2.8-5.4c0.1,1-0.2,1.8-0.7,2.7c0.9,2.5,0,4.8-0.5,7.2c-1.8-0.4-1.9,1.8-3.1,2.2c-1.6,1-1.3,3-2.2,4.4
		C92,297,88.5,305,83.8,312.4c-1.3,2-2.2,4.1-3.3,6.1C79.7,319.7,79.1,321.3,77.2,320.9z"/>
	<path class="st114" d="M89.1,294.4c0.3,1.5-0.7,2.6-1.4,3.6c-3.2,4.6-4.7,10.2-8.6,14.4c-0.1-2.3,1.5-3.9,2.6-5.6
		C84.3,302.7,85.5,297.8,89.1,294.4z"/>
	<path class="st114" d="M79.2,312.3c-1,4.1-3.9,7.3-5.3,11.3c-0.3,0.4-0.7,0.8-1,1.2C73.7,320,75.7,315.8,79.2,312.3z"/>
	<path class="st115" d="M101.1,283.1c0.9-2.4,1.3-4.8,1.3-7.3c0.4,0.2,0.8,0.4,1.2,0.6c-0.2,1.5-0.5,3-0.7,4.6
		c-0.3,0.9,0.4,1.8,0.1,2.7c0,0.3-0.1,0.6-0.2,0.9c-0.4,2.1-1,4.1-1.5,6.1c-0.4,0.8-0.3,2.2-1.9,1.6c-0.2-0.3-0.4-0.6-0.5-0.9
		C99.1,288.5,99.2,285.6,101.1,283.1z"/>
	<path class="st114" d="M91.1,289.7c1.4,2.4-1.3,3.1-2,4.7C89.1,292.5,89.3,290.8,91.1,289.7z"/>
	<path class="st98" d="M67.9,329c-0.4,0.9-1,1.5-2.2,2c0.1-1.2,0.9-1.6,1.6-2C67.4,329,67.6,329,67.9,329z"/>
	<path class="st116" d="M76.5,322.9c0-0.2,0-0.4,0-0.5c0.8-0.7,1.6-1.6,2.8-1.7c0,0,9.7,7.8,9.7,7.8c1.2,0.6,2.4,1.2,3.4,2.1
		c0.7,0.7,1.5,1.5,0.1,2.4c-1.1,1.3-2.6,1-4,1.3c0-0.8,0.1-1.7-0.9-1.9c-4.1-0.8-6.1-4.5-9.2-6.5C77.1,325.1,76.8,324,76.5,322.9z"
		/>
	<path class="st117" d="M135.7,331c-0.3,1.2-2.3,1.7-1.4,3.4c-0.7,0-1.3,0-2,0.1c-1-0.1-2-0.3-2.9-1c-2.9-2.8-2.9-3.1,0.9-4.8
		c2.9-1.3,5.3-3.2,6.9-6c0.6-1,0.8-2.4,2.4-2.5c0.2,0.2,0.4,0.5,0.5,0.8c0,2.6-1.1,4.6-2.7,6.5C137.1,328.8,135.4,329.4,135.7,331z"
		/>
	<path class="st118" d="M129.8,332.9c0.9,0.5,1.7,1,2.6,1.5c0,0.2,0,0.3,0,0.5c-2.7-0.8-5.4-1.7-8-2.5c-1.6,0.7-2.7,0.3-3.6-1.2
		c0-0.4,0-0.7,0.2-1c2-0.9,3.6,0.5,5.4,0.9C127.4,331.8,128.7,332.2,129.8,332.9z"/>
	<path class="st119" d="M121,331.1c0.9,0.9,2.1,1.3,3.3,1.3c-0.3,0.6-0.7,1.1-1.5,1.1c-8.6,0.4-17.3,0.1-25.9,0
		c-0.2,0-0.3-0.3-0.5-0.4c0.3-0.6,0.9-1,1.5-1.3c2.8-0.9,5.4-2.1,8.4-2.5c4.1-1.4,8.1,0.3,12.1,0.7
		C119.4,329.9,120.4,330.2,121,331.1z"/>
	<path class="st120" d="M92.5,332.9c0.6-2.6-1.8-2.9-3-3.3c-3.2-1-5.1-3.6-7-5.9c-1-1.2-3.1-0.9-3.2-2.8c0.2-1.9,1.6-2.6,3.2-2.9
		c4.8,4.8,10.3,8.7,16.6,11.3c0.7,1.3-0.6,1.4-1.2,2c-0.2,0.2-0.4,0.4-0.7,0.6c-0.7,0.3-1.3,0.6-2.1,0.4
		C94.2,332.5,93.4,332.7,92.5,332.9z"/>
	<path class="st121" d="M95.1,332.3c0.7-0.2,1.3-0.5,2-0.7c0.4,0.1,0.6,0.3,0.7,0.7c-0.4,0.2-0.9,0.4-1.3,0.7
		C95.9,333,95.4,332.9,95.1,332.3z"/>
	<path class="st122" d="M142.4,320.2c0.5,0.4,0.9,0.8,1.4,1.2c0.7,4.3-1.1,6.4-4.8,5.6C139,324.1,140.2,321.9,142.4,320.2z"/>
	<path class="st123" d="M142.4,320.2c-1.1,2.3-2.3,4.5-3.4,6.8c-0.4,0.4-0.9,0.9-1.3,1.3c-0.6,0.2-0.9,0-0.7-0.7
		c1.1-2.1,2.2-4.2,2.7-6.6c0.5-0.6,0.2-1.8,1.3-2C141.5,319.4,141.9,319.8,142.4,320.2z"/>
	<path class="st124" d="M137,327.6c0.2,0.2,0.4,0.4,0.7,0.7c-0.7,0.9-1.3,1.8-2,2.7C134.6,329.3,136.5,328.7,137,327.6z"/>
	<path class="st125" d="M126.3,331.7c-1.8-0.5-3.5-0.9-5.3-1.4c-1.9-0.2-4-0.1-5.5-1.7c-0.2-0.4-0.3-0.9-0.1-1.4
		c0.5-1,1.7-1.2,2.5-1.9c0.7-0.5,1.1-1.4,1.9-1.9c0.3-0.1,0.6-0.2,0.9-0.3c4-0.8,8-1.6,10.8-5c1.3-1.6,3-2.8,4.9-3.7
		c0.3,0.2,0.6,0.5,0.8,0.7c0.2,0.4,0.4,0.7,0.6,1.1c0.4,2.1-0.5,3.1-2.2,4.5c-3.1,2.4-6.2,4.8-9.7,6.7c-1.2,0.6-2.3,1.4-3.6,1.4
		c-0.5-0.2-0.2,0.7-0.1,0.2c0,0,0.1,0,0.3,0c0.4,0,0.9,0.2,1.3,0.3C124.8,329.8,126.4,329.9,126.3,331.7z"/>
	<path class="st126" d="M123.7,329.6c-1.4,0-2.6-0.4-3.7-1.5c4.9,0.1,8-3.3,11.7-5.4c1.7-0.9,2.4-3.1,4.7-3.6
		c1.2-0.2,0.1-2.3,1.3-3.1c1.2,0.8,2.4,1.6,3.2,2.9c-0.4,0.7-0.9,1.3-1.3,2c0-0.2,0-0.5,0-0.7c-2.6,1.2-3.9,3.7-6.1,5.4
		C130.5,327.9,127.3,329.2,123.7,329.6z"/>
	<path class="st127" d="M120.4,277.8c0,2.1,0.2,4.1,1.3,6c0.2,2.7,2.3,5.1,1.5,7.9c-0.5,0.4-1,0.4-1.5,0.2c-1.5-1.7-1.2-4-1.9-6
		c-0.3-1.3-0.4-2.6-0.8-3.9c-0.2-0.8-0.3-1.6-0.5-2.4c-0.1-0.5,0.1-1,0.4-1.4c0,0,0.2,0.1,0.2,0.1C119.6,278.2,120,278,120.4,277.8z
		"/>
	<path class="st128" d="M122.9,291.9c-0.2-2.7-1.4-5.4-1.2-8.2c3,7.2,6.9,14,10.9,20.7c1.7,2.8,3,6,3.6,9.3
		c-0.3,0.1-0.6,0.1-0.8-0.1c-1.6-1.7-2.9-3.7-5.2-4.6c-1-0.9-1.9-1.9-2.4-3.2c-1.3-2.3-0.5-5.2-2.6-7.2c-0.1-0.1,0-0.8-0.4-0.4
		c-0.2,0.2-0.2,0.6-0.4,0.8c-1.4,0.2-1.4-1-1.7-1.8c-0.1-1.3,0.3-2.7-0.5-3.9C122,292.7,122.3,292.2,122.9,291.9z"/>
	<path class="st129" d="M135.7,313.6c0.2,0.1,0.4,0.2,0.6,0.2c0,0.2,0,0.3,0.1,0.5c-3.6,4.4-8,7.7-13.4,9.7c-1,0.4-1.7-0.4-2.5-0.3
		c-1.3-1.8-0.4-2.9,1.3-3.6c3.4-1.5,6.5-3.5,9.3-6.1c1.1-1,2.3-1.7,3.9-0.9C135.1,313.2,135.4,313.4,135.7,313.6z"/>
	<path class="st130" d="M119.1,279.6c0.6,0.6,0.6,1.4,0.5,2.2c-5.6,1.1-11.3,1.9-17,2c0.1-0.9-0.3-2,0.4-2.8c2.1,1,3.6-1.1,5.5-1.3
		c1.3-0.1,2.6-0.4,3.9-0.6C114.7,278,116.8,280.3,119.1,279.6z"/>
	<path class="st131" d="M119.1,279.6c-1.1,2.1-2.7,0.9-3.7,0.3c-1-0.6-1.9-0.8-3-0.8c2.1-1.3,4.4-0.4,6.6-0.7
		C119,278.8,119.1,279.2,119.1,279.6z"/>
	<path class="st132" d="M82.4,318.2c-1.1,0.9-2.2,1.9-3.3,2.8c-1,0.3-1.4,1.6-2.6,1.4c0-0.6,0.1-1.1,0.7-1.4c1.1-0.6,2-1.5,2.6-2.6
		c0.8-0.9,1.3-2.2,2.9-1.7c0.3,0.2,0.5,0.4,0.6,0.7C83.3,317.9,83,318.1,82.4,318.2z"/>
	<path class="st133" d="M101.1,283.1c-0.3,2.9-1.5,5.6-1.4,8.6c-0.5,1.1,0.6,2.5-0.7,3.4c-2.6,4.8-6.1,9-8.1,14.1
		c-0.4,1-0.9,1.9-1.6,2.7c-0.2,0.2-0.5,0.4-0.8,0.5c-1.9,0.5-2.7,3.1-5,2.9c-0.9-0.7-0.3-1.4,0-2c3.9-6.6,7-13.7,11.2-20.1
		c1.5-2.2,1.6-5.1,3.8-6.8c0.4-0.3-1-1.2-0.2-1.9c0.6-0.6,1.3-1.1,1.9-1.8C101.2,281.8,101,282.8,101.1,283.1z"/>
	<path class="st134" d="M98.4,284.4c1.9,3-1.1,4.8-2,6.7c-3.9,7.9-8.5,15.6-12.8,23.3c-0.1,0.1,0.2,0.4,0.2,0.5
		c0.5,0.7,0,1.2-0.3,1.8c-0.1,0.1-0.2,0.2-0.3,0.2c-1.4-0.3-2.3,0.7-3.4,1.3c4.6-8.3,9.2-16.6,13.7-24.9c1.2-2.1,2.7-4,2.9-6.5
		C96.6,285.7,97.4,285,98.4,284.4z"/>
	<path class="st135" d="M120.4,285.7c0.8,1.9,1.1,4,1.3,6c0.5,0.6,0.5,1.3,0.1,1.8c-0.5,0.6-1.2,0.2-1.8-0.2c-1.5-1-2.5-2.5-3.9-3.5
		c-0.5-0.4-1.2-0.6-1.7-0.9c-4.2-2.7-6.3-2.1-8.5,2.5c-0.3,0.4-0.7,0.7-1.2,1c-3.6,0.9-3.7,0.8-3.6-2c-0.1-2.1,0.6-4.1,1.3-6
		c1,0.2,1.1,1.2,1.5,1.9c2.8-4,9.2-4.8,13.2-1.5C118.2,285.8,119,286.7,120.4,285.7z"/>
	<path class="st136" d="M98.5,295.1c1.2-0.8,0.1-2.5,1.3-3.4c0,0.3,0,0.5,0.1,0.8c1.3,1.5,0.8,3.3,0.7,5.1c0,0.3,0.1,0.9,0.3,0.8
		c3.1-0.9,6.1-0.4,9.2,0.1c1,0.2,1.9-0.5,2.6-1.2c2.3-2.2,4.9-2.8,8-2.1c1.7,0.4,0.8-1.8,1.9-2c1.9,1.1,1.1,2.6,0.6,4.1
		c0.6,1.7-0.6,1.7-1.5,1.4c-3.6-1.2-6.4-0.8-8.2,3.1c-0.6,1.4-2.2,1.7-3.4,1c-3.5-1.9-6.8-1.2-10.1,0.2c-1,0.1-1.8-0.2-2.4-1.1
		c-0.4-0.9-0.5-1.7-0.3-2.7C97.5,297.7,97.8,296.3,98.5,295.1z"/>
	<path class="st137" d="M120.4,285.7c-0.5,0.8-0.6,1.9-1.6,2.3c-5-6-9.7-6.1-15.3,0.1c-0.7-1.2-0.2-2.7-1.1-3.6c0-0.2,0-0.4,0.1-0.6
		c5.6-1.4,11.2-2.5,17-2C120.3,283,120.5,284.3,120.4,285.7z"/>
	<path class="st138" d="M99.7,298.4c0-2,0.1-3.9,0.1-5.9c0.4-0.7,0.9-1.4,1.3-2.1c0.2,3.9,2.8,0.6,4,1.3c2.1,0.3,2.4,2,2.4,3.6
		c0,1.5-1.4,1.8-2.5,2C103.2,297.7,101.7,299,99.7,298.4z"/>
	<path class="st139" d="M123.7,329.6c0.9-0.4,1.5-1.2,2.6-1.4c4.9-0.9,8.3-4.1,11.4-7.7c0.6-0.6,1-2.1,1.9-0.3
		c-2.6,4.8-6,8.8-11.5,10c-0.4,1.8,1.8,1.2,1.6,2.6c-1.1-0.4-2.3-0.8-3.4-1.2C125.5,331,124.6,330.3,123.7,329.6z"/>
	<path class="st140" d="M115.7,328.2c1.8,0.7,3.5,1.4,5.3,2.1c0,0.3,0,0.5,0,0.8c-0.9-0.2-1.8-0.4-2.7-0.6c-1.5,0.3-2.7-0.6-4.1-0.9
		c-1.6-0.4-3-1.2-4.8-0.4c-0.8,0.4-1.5-0.1-1.8-1C110,325.6,112.2,325.6,115.7,328.2z"/>
	<path class="st141" d="M97.8,332.3c-0.2-0.2-0.5-0.5-0.7-0.7c0-0.1,0.1-0.3,0.1-0.4c1.5-0.6,2.9-1.6,4.4-2.2
		c2.1-0.2,4.1-2.5,6.2-0.1c0,1.1-0.6,1.1-1.4,0.8C103.6,330.6,100.8,331.9,97.8,332.3z"/>
	<path class="st142" d="M106.5,329.7c0.6-0.1,1-0.3,1.2-0.9c-0.2-0.3-0.1-0.5,0.3-0.6c3.6,0.1,7,0.7,10.3,2.2
		c-0.1,0.1-0.2,0.2-0.2,0.2C114.2,330.1,110.4,329.1,106.5,329.7z"/>
	<path class="st143" d="M82.4,318.2c0.2-0.2,0.4-0.4,0.6-0.6c1.3-0.8,2.4-0.3,3.3,0.6c4.7,4.5,10.3,7.4,16.1,10
		c0.3,0.6,0,0.9-0.5,1.2c-0.9,0.5-1.8,1.1-2.8,0.3c-4.7-0.5-8.3-3.3-11.6-6.1C85.7,322,82.5,321.4,82.4,318.2z"/>
	<path class="st125" d="M99.1,329.6c1,0.1,1.8-0.2,2.7-0.7c0.4,0.2,0.4,0.5,0.1,0.8c-1.4,0.8-3,1.3-4.6,1.5
		C97.3,330.1,98.7,330.5,99.1,329.6z"/>
	<path class="st144" d="M135,313.7c-1.6-0.7-2.9,0-3.8,1c-2.5,2.8-5.7,4.6-9,5.9c-1.6,0.6-1.9,1.5-1.8,3c-0.2,0-0.3,0-0.5,0
		c-2.5-3-0.2-4.8,1.5-6.8c0.3-0.2,0.6-0.3,0.9-0.3c2.7,0.1,4.4-1.8,6.2-3.5c1.3-1.3,2.6-2.5,4.6-1.9
		C134,311.8,135.2,312.2,135,313.7z"/>
	<path class="st145" d="M121.7,317c-1.2,2.1-3,4-1.8,6.7c-0.2,0.9-0.6,1.6-1.4,2c-0.3,0.2-0.5,0.2-0.8,0c0.7-2.4,0.2-4.3-1.8-5.9
		c-0.3-0.6-0.5-1.3,0-1.9C117.7,316.9,119.5,315.8,121.7,317z"/>
	<path class="st146" d="M101.8,329.8c0-0.3-0.1-0.6-0.1-0.8c0.2-0.2,0.4-0.4,0.7-0.7c1.6-1.3,3.6-1.7,5.5-2.3
		c1.4-0.4,2.9-0.6,4.4-0.8c1.3,0.1,2.7,0.2,3.4,1.7c0,0.4,0,0.8,0,1.2c-2.6-0.2-5.2-2.6-7.7,0c-0.1,0.2-0.2,0.4-0.3,0.6
		C105.5,327.9,103.9,329.8,101.8,329.8z"/>
	<path class="st147" d="M115.7,327c-1.1-0.5-2.2-0.9-3.3-1.4c-0.5-0.2-0.8-0.6-0.8-1.1c0.1-0.1,0.2-0.3,0.3-0.4
		c0.3-0.1,0.6-0.2,0.9-0.2c1.6,0.8,3.4,0.6,4.9,1.7c0.3,0,0.5,0.1,0.8,0.1C117.7,326.5,116.8,326.9,115.7,327z"/>
	<path class="st148" d="M122.5,293.1c0,0.9,0,1.8-0.1,2.6c-0.2,1.4-0.8,0.9-1.4,0.2c-3.8-0.8-6.7-2.8-8.1-6.5c1-1.1,2.2-0.6,3.4-0.4
		c1.3,1.2,2.6,2.5,4,3.7c1.8,1.6,1.1-0.4,1.4-1c0.4,0.1,0.8,0.1,1.2,0.2C122.8,292.3,122.6,292.7,122.5,293.1z"/>
	<path class="st149" d="M99.8,302.4c3.1-2.3,6.4-2.5,9.8-0.7c1.6,0.8,2.7,1,3.6-1.1c1.4-3.6,4.3-4.5,8-2.9c0.9,0.4,1.6,1,1.9-0.5
		c0.4,0.6,0.9,1.3,1.3,1.9c1.1,1,1.2,2.4,1.2,3.8c-0.1,0.5-0.4,0.9-0.7,1.3c-1.7,1.4-3.3,2.9-5.6,3.2c-1.3,0.1-1.8,1.1-2.2,2.1
		c-0.5,1.1-0.3,2.4-1.6,3.1c-1.7-0.6-2.1-2.1-2.5-3.6c-1-4.3-3.6-6.2-8-6.3C103.2,302.5,101.4,303.6,99.8,302.4z"/>
	<path class="st150" d="M125,303.1c-0.2-1.3-0.5-2.6-0.7-4c0-0.6,0.1-1.3,0.1-2c3.8,1.8,3.1,5.5,3.9,8.6
		C126.3,305.9,125.8,304.4,125,303.1z"/>
	<path class="st151" d="M125,303.1c1.1,0.9,2.2,1.8,3.3,2.7c0.5,1.2,2,1.7,2,3.2c-0.1,0.1-0.3,0.2-0.4,0.2c-1.5-0.2-2.2-1.5-3.2-2.3
		c-0.9-0.8-2-1.3-2.6-2.4c-0.1-0.3-0.1-0.6,0.1-0.8C124.6,303.5,124.8,303.3,125,303.1z"/>
	<path class="st152" d="M135,313.7c-0.5-0.9-1.3-1.5-2.2-1.9c-0.8-0.8-2.5-0.4-2.9-1.9c0-0.3,0.1-0.6,0.4-0.8c0,0,0-0.1,0-0.1
		c3,0.1,4.1,2.4,5.3,4.6c0,0-0.3,0.1-0.3,0.1L135,313.7z"/>
	<path class="st125" d="M108.4,327c-2.1-0.2-3.8,1.8-6,1.3c-3.2-0.5-6-2.1-8.8-3.5c-3.9-1.9-6.2-6.1-10.6-7.1c0-0.2,0.1-0.4,0.2-0.6
		c0,0,0,0,0,0c0.5-0.9,1.1-1.7,2.1-2c1.6-0.4,2.7,0.4,3.7,1.5c4.3,4.5,9.7,7.1,15.8,8.2C106.2,325,108,324.9,108.4,327z"/>
	<path class="st153" d="M99.8,302.4c3.9-0.6,7.8-1.7,11.4,1.3c1.5,1.2,2.6,2.5,2.6,4.4c0,1.9,0.9,3.1,2.1,4.3c1.5,0.9,0.7,2,0.2,3.1
		c-1.5,2.2-3.6,2.7-6.1,2.1c-0.9-0.2-1.7-0.3-2.6-0.2c-6.9,0.5-10.8-1.8-13.3-8.1c-0.6,0.1-0.9,0.6-1.3,0.9
		c-1.1,0.6-1.9,1.9-3.4,1.4c-0.1-1.1,1-1.6,1.3-2.5c0.6-1.2,1.7-2,2.5-3.1c2-1,2.9-3.2,4.8-4.3C98.5,301.9,99.1,302.2,99.8,302.4z"
		/>
	<path class="st146" d="M89.2,311.6c1.1-0.7,2.2-1.4,3.3-2.1c1.8,4.6,4.8,7.7,9.7,8.9c0.3,0.1,0.6,0.2,0.9,0.4
		c2.1,1.3,4.3,2.6,6.9,2.9c1.3,0.2,2.6,0.8,1.9,2.6l-0.1,0c-3.5,1.5-7.1,0.1-10.4-0.6c-3.2-0.7-6.5-2.4-9.1-4.6
		c-1.8-1.6-3.6-3.2-5.4-4.7c-0.1-1.3,0.9-2,1.8-2.7C88.8,311.7,89,311.7,89.2,311.6z"/>
	<path class="st154" d="M93.1,306.5c-0.7,1.1-1.5,1.9-2.6,2.6c1.5-3.2,2.1-7,5.1-9.4c1.5-1.2,1.7-3,2.3-4.6c0-0.1,0.2-0.1,0.3-0.1
		c0.1,0,0.2,0.1,0.3,0.2c-0.2,1.3-0.5,2.7-0.7,4C97,302.1,95.3,304.4,93.1,306.5z"/>
	<path class="st132" d="M88.6,311.7c0,1.1-1.1,1.5-1.6,2.4c-0.1,1.1-1.3,0.9-1.8,1.6c-0.7,0.5-1.4,0.9-2,1.4c0.2-0.7,0.4-1.4,0.6-2
		C85.6,314.2,86.3,311.8,88.6,311.7z"/>
	<path class="st155" d="M113,289.7c0.3,0.1,0.8,0,0.9,0.2c1.4,3.1,4.3,4.4,7,6c-3.3-0.6-6.3-0.1-8.5,2.8c-0.7,1-1.8,1.3-2.9,0.8
		c-3.1-1.2-6.1-1.1-9.2,0.1c-1.8,0.7-1-0.5-0.6-1.3c1.3-0.5,2.6-1.1,3.9-1.6c4-1.5,4-1.5,1.5-5.1c0.2-0.2,0.4-0.4,0.7-0.6
		C108,289.8,110.3,288.6,113,289.7z"/>
	<path class="st156" d="M113,289.7c-2.4,0.5-4.9,0.9-7.3,1.4c-0.6-3.1,1.9-3.6,3.8-4.6c1.8-0.9,3.5-0.8,4.4,1.1
		c0.6,1.2,1.9,0.3,2.4,1.3C115.2,289.2,114,288.7,113,289.7z"/>
	<path class="st157" d="M93.1,306.5c1.5-2.5,3.1-4.9,4.6-7.4c0,0.9,0.1,1.7,0.1,2.6C96.8,303.8,95.6,305.7,93.1,306.5z"/>
	<path class="st158" d="M121.7,317c-2,0.4-4,0.9-6,1.3c-3.2,2.1-6.4,3.6-10.2,1.7c-1-0.5-2.1-0.6-3.1-1.1l0,0
		c-0.6-0.5-1.3-0.9-0.4-1.7c2.6,0.1,5.2,0,7.8,0.1c2.4,0.1,4.6-0.3,6.6-1.5c2.5-1.2,3.4-3.1,2.6-5.7c-0.9-2.6,0.1-3.5,2.7-3.3
		c1,2.5,1.7,5.1,1.5,7.8c0,0.5-0.1,1-0.3,1.5c-0.2,0.3-0.4,0.6-0.7,0.7C122.1,316.9,121.9,316.9,121.7,317z"/>
	<path class="st159" d="M122.2,316.9c0.1-0.2,0.1-0.4,0.1-0.6c1.5-1.4,1.2-3.5,2.2-5.1c0.2-0.2,0.4-0.4,0.7-0.5
		c0.9,0,1.9,0.4,2.7-0.6c0.6-0.6,1.4-1.2,2.3-0.4c0.8,0.8,2.1,0.9,2.6,2c-1.8-0.4-2.7,0.9-3.9,1.9
		C127.1,315.2,125.6,318.1,122.2,316.9z"/>
	<path class="st160" d="M117.7,325.6c-2,0.5-3.8,0.3-5.2-1.4c-0.9-1.3-0.9-2.7,0.2-3.8c1-1,2.2-1.9,3.6-0.6
		C119.8,322,119.9,322.6,117.7,325.6z"/>
	<path class="st161" d="M116.4,319.8c-3.1-0.1-4.3,1.4-3.8,4.4c-0.2,0-0.5,0-0.7,0c-0.2-1.2-0.9-2-2.2-2c-2.9,0-5.1-1.6-7.2-3.4
		c4.5,1.2,8.9,1.1,13.3-0.7C115.9,318.8,116.1,319.3,116.4,319.8z"/>
	<path class="st162" d="M85.2,315.7c0.6-0.5,1.2-1.1,1.8-1.6c1.9,1.2,3.6,2.8,5.4,4.1c3.6,2.6,7.5,5.2,12.3,5.3
		c2.3,0.1,4.6,0.5,6.9,0.8c0.2,0.4,0.5,0.9,0.7,1.3c-1.1,1.2-2.9,0.3-4,1.3c-4.5-1.9-9.6-2.3-13.9-5.1c-2.3-1.4-4.5-2.8-6.2-4.8
		C87.4,315.9,86.5,315.5,85.2,315.7z"/>
	<path class="st163" d="M121.7,307c-1.5,0.4-3,0.4-1.8,2.8c1.4,2.6,0.1,5-2.9,6.5c-1.3,0.4-1.2-0.6-1.4-1.4c0.1-0.9,0.7-1.7,0.1-2.6
		c0-3.2,0.6-5.9,4.6-6.1c1.8-0.1,2.4-2.1,4-2.5c0,0.2,0.1,0.4,0,0.6C124.4,306.2,123.6,307.1,121.7,307z"/>
	<path class="st164" d="M121.7,307c1.1-0.7,2.1-1.5,2.7-2.7c0.9,0.7,1.7,1.4,2.6,2.1c-0.1,1.8-0.9,3.3-1.9,4.6L125,311
		c-1.2,0.3-1.1,1.4-1.3,2.3c-0.2,0.8,0,1.9-1.3,1.7C123.2,312.3,120.8,309.8,121.7,307z"/>
	<path class="st165" d="M125.1,311c-0.1-1.9,0.8-3.3,1.9-4.6c1.1,0.9,2.3,1.7,3.4,2.6c0,0.2-0.1,0.5-0.1,0.7
		C128.4,309.7,127.5,313.1,125.1,311z"/>
	<path class="st166" d="M115.7,315c0.5,0.5,0.9,0.9,1.4,1.4c-4,1.8-8.2,1.8-12.4,1.7c-1,0-1.9-0.2-2.9-0.3c-5.5-0.4-9.4-4.9-8-9.4
		c0.4-0.9,1-1.4,1.3,0c1.4,6.2,5.6,9,12,8.1c0.7-0.1,1.6-0.1,2.3,0.1C111.9,317.5,113.9,316.8,115.7,315z"/>
	<path class="st167" d="M93.8,308.3c-0.3,5.6,3.7,7.6,8,9.4c0.2,0.4,0.5,0.8,0.7,1.3c-5.7-0.9-9.7-4.7-10-9.5
		C92.7,308.8,93.2,308.5,93.8,308.3z"/>
	<path class="st168" d="M122.4,315c1.1-1,0.5-2.2,0.7-3.4c0.2-1.7,0.8-1.8,2-0.6c-0.6,1.9,0.4,4.6-2.6,5.4
		C122.4,315.9,122.4,315.5,122.4,315z"/>
</g>
<g id="y6IEt0.tif">
	
		<image style="overflow:visible;" width="210" height="79" id="Layer_0" xlink:href="636B715358813819.png"  transform="matrix(1.9341 0 0 1.9341 -1.6473 1707.4758)">
	</image>
</g>
</svg>
