<?xml version="1.0" encoding="utf-8"?>
<!-- Generator: Adobe Illustrator 26.3.1, SVG Export Plug-In . SVG Version: 6.00 Build 0)  -->
<svg version="1.1" id="Layer_1" xmlns="http://www.w3.org/2000/svg" xmlns:xlink="http://www.w3.org/1999/xlink" x="0px" y="0px"
	 viewBox="0 0 595.3 595.3" style="enable-background:new 0 0 595.3 595.3;" xml:space="preserve">
<style type="text/css">
	.st0{fill:#FFFFFF;}
	.st1{fill:#62B7EC;}
	.st2{fill:#030303;}
</style>
<path class="st0" d="M297.6,595.3L297.6,595.3C133.3,595.3,0,462,0,297.6l0,0C0,133.3,133.3,0,297.6,0l0,0
	C462,0,595.3,133.3,595.3,297.6l0,0C595.3,462,462,595.3,297.6,595.3z"/>
<g id="jII74M.tif_00000057146984505386024940000005812556006044011408_">
	<g>
		<path class="st1" d="M115.1,331.9c-0.4-0.6-1-0.6-1.6-0.9c-2.4-1.3-3.3-3.8-2.2-6.3c1.2-2.6,2.3-5.2,3.6-7.7
			c0.4-0.9,0.4-1.6,0-2.4c-4.8-10.3-9.6-20.7-14.4-31c-1.3-2.7-0.2-5.4,2.6-6.6c2.9-1.3,5.5-0.3,6.7,2.5c3.6,8,7.1,16.1,10.7,24.1
			c0.2,0.4,0.4,0.8,0.7,1.4c1.8-4.1,3.6-8.1,5.4-12c2-4.6,4-9.1,6.1-13.7c1.2-2.6,3.9-3.5,6.7-2.3c2.7,1.3,3.8,3.9,2.6,6.5
			c-5.2,11.2-10.5,22.4-15.7,33.6c-1.7,3.5-3.4,7.1-4.9,10.7c-0.9,2-2,3.6-4.1,4.3C116.6,331.9,115.8,331.9,115.1,331.9z"/>
		<path class="st1" d="M46.2,282.8c7.9-9.9,14.6-9.7,21.9,0.6c1.4-2.5,3.3-4.6,5.8-5.9c8.8-4.8,20,0.8,21.7,10.7
			c0.2,1.5,0.4,2.9,0.4,4.4c0,7.3,0,14.7,0,22c0,3.1-2,5-5.2,5c-3.1,0-5-1.9-5-5c0-6.5-0.1-13-0.1-19.5c0-1.8,0.2-3.5-0.5-5.3
			c-1.2-3.1-4.6-5.1-7.7-4.6c-3.7,0.7-6.4,3.5-6.4,7.1c0,7.3-0.1,14.7,0,22c0,2.3-0.8,3.9-2.9,4.8c-2.2,0.9-4.3,0.7-6.2-0.8
			c-1.1-0.9-1.4-2.2-1.4-3.6c0-7.3,0-14.6,0-21.8c0-4.3-3.1-7.7-7.2-7.7c-4-0.1-7.4,3.2-7.4,7.6c-0.1,4.6,0.1,9.2,0.1,13.9
			c0,3,0,6-0.1,9c-0.1,1.9-1.4,3.3-3.7,3.9c-3.6,0.9-6.5-1.3-6.5-4.9c0-11,0-22.1,0-33.1c0-2.6,1.2-4.1,3.6-4.7
			c2.3-0.6,5.1,0.5,6.2,2.3c0.3,0.6,0.4,1.2,0.4,1.9C45.9,281.4,45.7,282.1,46.2,282.8z"/>
		<path class="st2" d="M521.9,302.5c-4.6,0-9.2,0-13.8,0c-1.4,0-1.4,0.4-0.9,1.5c2.8,5.9,9.8,8.5,16.7,6.2c2-0.7,3.9-1.7,5.6-3
			c1.6-1.3,3.4-1.5,5.1-0.5c1.9,1.2,2.9,3.1,2.6,5.1c-0.1,0.7-0.5,1.3-1,1.8c-12,11-33.9,8.2-39.7-9c-4.3-12.7,4.2-26.3,17.6-28.4
			c12.3-2,23.5,5,26.4,16.6c0.4,1.5,0.5,3,0.6,4.5c0.1,3.1-2,5.3-5.2,5.3C531.2,302.5,526.5,302.5,521.9,302.5z M506.7,293.8
			c7.6,0,15,0,22.4,0c1,0,0.7-0.5,0.5-1c-1.9-6-8.4-9.5-14.4-7.7C510.9,286.3,508,289.2,506.7,293.8z"/>
		<path class="st2" d="M362,290.9c0-13,10.1-24.7,23.7-27c10.6-1.8,19.5,1.2,27,8.8c3,3.1,0.8,7.3-2.5,8.1c-1.6,0.4-3,0-4.3-1.1
			c-0.9-0.8-1.7-1.6-2.6-2.3c-10.7-9.6-26.6-3.3-29.9,9.5c-3.5,13.1,7.3,25.4,20.8,23.7c4.6-0.6,8.1-3.3,11.4-6.4
			c2.3-2.3,5.6-2.1,7.6,0.5c1.4,1.8,1.4,4.1-0.1,5.7c-14,15.5-37.3,11.3-46.8-3.6C363.4,302.1,361.9,297.1,362,290.9z"/>
		<path class="st2" d="M449.2,295.8c0-2.3,0.1-4.1,0-6c-0.1-1.7-1.2-2.7-2.6-3.5c-2.7-1.5-5.6-1.8-8.6-1.5c-3.1,0.3-6.1,1.1-9,2.2
			c-2.5,1-4.7-0.1-5.7-2.6c-1-2.5-0.2-4.9,2.2-5.8c8.3-3.3,16.7-4.4,25.1-0.7c4.5,2,7.9,5.2,8.8,10.4c0.1,0.7,0.1,1.4,0.1,2.1
			c0,7.9,0,15.8,0,23.7c0,3.5-1.6,5.2-4.8,5.4c-3.4,0.2-5.3-1.6-5.6-5.1c-1.3,1.1-2.4,2.2-3.7,3.2c-6.2,4.5-17.5,2.6-21.8-1.5
			c-4.6-4.4-5.1-9.8-3.8-15.5c1.3-5.5,5.4-8.3,10.7-9.4c2.8-0.6,5.7-0.8,8.5-0.5C443,290.9,446.3,292.6,449.2,295.8z M439.2,299.5
			c-2.2,0-4.2,0.1-6.1,0.9c-2,0.8-3,2.3-3,4.5c-0.1,2.3,0.5,4.3,2.8,5.1c4.5,1.7,9.1,1.8,13.5-0.6c4-2.2,3.8-6.3-0.1-8.5
			C444,299.8,441.6,299.4,439.2,299.5z"/>
		<path class="st2" d="M184.4,289.2c3,0,5.9,0,8.9,0c2.3,0,3.1,0.8,3.1,3.1c0,5.4,0,10.8,0,16.2c0,1.2-0.4,2.2-1.2,3
			c-8.2,8-18,10.5-28.9,7.2c-10.9-3.3-17.8-10.8-19.8-22c-3.1-16.6,8.8-31.7,25.6-33.2c8.7-0.8,16.2,2,22.5,7.8
			c1.4,1.2,1.5,2.8,0.5,3.9c-1.1,1.2-2.4,1.1-3.9-0.2c-8.6-7.7-19.5-8.9-28.6-3.3c-8.3,5.1-12.5,14.8-10.6,24.6
			c1.7,9.2,9,16.6,18.4,18.4c7.4,1.4,14-0.6,19.8-5.4c0.6-0.5,0.8-1,0.8-1.7c0-4.1,0-8.1,0-12.2c0-1-0.3-1.2-1.2-1.2
			c-4.8,0-9.6,0-14.4,0c-2.1,0-3.2-0.9-3.2-2.5c0-1.6,1.2-2.5,3.2-2.5C178.4,289.2,181.4,289.2,184.4,289.2z"/>
		<path class="st2" d="M272.2,300.4c-5.7,0-11.4,0-17.2,0c-1.3,0-1.8,0.1-1.4,1.6c2,6.8,6.2,11.3,13.2,12.8c7,1.5,12.8-0.9,17.2-6.7
			c1.2-1.5,2.5-1.9,3.8-1c1.3,0.9,1.4,2.5,0.3,4.1c-6.9,9.8-21.6,11.9-31.4,4.4c-8-6.1-11-16.5-7.3-25.6
			c3.7-9.4,13.1-15.1,23.4-14.1c9.7,1,18,8.5,19.7,18.1c0.2,1,0.3,2.1,0.4,3.2c0.2,2.2-0.8,3.2-3,3.3
			C284,300.4,278.1,300.4,272.2,300.4z M270.3,295.4c5.2,0,10.4,0,15.6,0c1.2,0,1.5-0.3,1.2-1.4c-2-8-8.9-13.4-17.3-13.3
			c-7.5,0.1-14.3,5.8-16.1,13.5c-0.3,1.1,0,1.3,1,1.3C259.9,295.3,265.1,295.4,270.3,295.4z"/>
		<path class="st2" d="M477.1,282.6c0.3-0.5,0.5-0.6,0.5-0.8c2.7-5.7,7.8-6.9,13.4-5.7c2.6,0.6,4.2,3.1,3.7,5.5
			c-0.5,2.8-2.6,4.5-5.4,4.1c-3.7-0.6-6.9,0-9.4,3c-1.9,2.3-2.7,5-2.7,7.9c0,5.9,0,11.9,0,17.8c0,3-2,4.9-5.2,4.9
			c-3.1,0-5.2-1.9-5.2-4.9c0-11,0-22.1,0-33.1c0-3.1,2-5,5.2-5c3.3,0,5.1,1.9,5.1,5.1C477.1,281.7,477.1,282,477.1,282.6z"/>
		<path class="st2" d="M234.9,312.4c-2.6,3.9-6.1,6.4-10.6,7.3c-10.7,2.2-19.4-4.9-19.5-15.8c-0.1-8.1,0-16.3,0-24.4
			c0-2,1.1-3.1,2.7-3.1c1.7,0,2.7,1.2,2.7,3.1c0,8,0,16.1,0,24.1c0,5.2,2.8,9.4,7.3,10.9c8.6,2.9,18.2-4.5,17.8-12.5
			c-0.3-7.4-0.1-14.8-0.1-22.1c0-2.3,0.9-3.5,2.7-3.5c1.4,0,2.5,0.8,2.7,2.2c0.1,0.6,0.1,1.3,0.1,2c0,11.6,0,23.2,0,34.8
			c0,0.6,0,1.2-0.1,1.8c-0.2,1.4-1.3,2.3-2.6,2.3c-1.3,0-2.5-0.9-2.6-2.3c-0.1-1.6,0-3.1,0-4.7C235.2,312.4,235.1,312.4,234.9,312.4
			z"/>
		<path class="st2" d="M315.4,275.7c4.6-0.1,8.9,0.9,12.9,3.1c1.8,1,2.3,2.2,1.6,3.6c-0.7,1.4-2.2,1.8-4,0.9
			c-5.1-2.5-10.3-3.6-15.9-2c-4.4,1.3-6.1,5.1-3.9,8.9c0.8,1.5,2.2,2.4,3.8,2.9c3,1.1,6.3,1.3,9.4,1.8c1.9,0.3,3.8,0.6,5.7,1.3
			c6.4,2.1,7.8,6.6,7.6,11.4c-0.3,5.9-3.7,9.8-9.7,11.4c-8,2.1-15.6,0.9-22.8-3.1c-1.6-0.9-2.1-2.5-1.3-3.8c0.8-1.3,2.2-1.6,3.9-0.7
			c4.2,2.2,8.6,3.8,13.4,3.7c2.6-0.1,5.1-0.5,7.4-1.8c2.6-1.5,3.8-3.8,3.7-6.7c-0.1-3-1.8-4.9-4.6-5.8c-3.2-1.1-6.5-1.3-9.8-1.8
			c-2-0.3-4-0.7-5.9-1.4c-4.6-1.7-6.9-4.9-7.1-10c-0.1-5,2-8.4,6.5-10.3C309,276.2,311.8,275.7,315.4,275.7z"/>
		<path class="st2" d="M342,297.2c0-4.6,0-9.3,0-13.9c0-1.2-0.4-1.5-1.5-1.4c-0.6,0.1-1.2,0-1.8,0c-1.4-0.1-2.2-1.1-2.2-2.4
			c0-1.4,0.9-2.4,2.3-2.5c0.1,0,0.1,0,0.2,0c3-0.2,3-0.2,3-3.2c0-1.3,0-2.6,0-4c0-1.8,1.1-2.9,2.7-2.9c1.6,0,2.7,1.1,2.7,2.8
			c0,2,0,4.1,0,6.1c0,0.9,0.2,1.2,1.1,1.1c1.8-0.1,3.6,0,5.4,0c1.7,0,2.7,0.9,2.7,2.4c0,1.6-1,2.5-2.8,2.6c-1.7,0-3.5,0-5.2,0
			c-0.9,0-1.3,0.1-1.3,1.1c0,9.3,0,18.5,0,27.8c0,3.4,3.1,5.1,6.1,3.4c0.6-0.3,1.1-0.8,1.8-0.8c1.1-0.1,2,0.3,2.5,1.4
			c0.5,1.1,0.2,2.1-0.6,2.9c-1.4,1.4-3.3,1.9-5.2,2c-6,0.4-10.1-3.4-10.1-9.4C342,305.9,342,301.6,342,297.2z"/>
		<path class="st2" d="M559.6,277.8c0,4.1-3.3,7.4-7.4,7.3c-4.1,0-7.4-3.3-7.4-7.4c0-4.2,3.3-7.4,7.5-7.4
			C556.5,270.5,559.7,273.7,559.6,277.8z M552.3,272c-3.3,0-5.9,2.7-5.9,5.9c0.1,3.2,2.8,5.8,5.9,5.8c3.2,0,5.9-2.8,5.9-6
			C558.1,274.5,555.5,271.9,552.3,272z"/>
		<path class="st2" d="M553.5,278.3c1,1,1.5,2.1,2.2,3.2c-1.3,0.4-2.2,0.2-2.6-1.1c-0.1-0.4-0.4-0.8-0.7-1.2
			c-0.3-0.5-0.8-0.9-1.4-0.7c-0.7,0.2-0.2,0.8-0.3,1.3c-0.1,0.3,0,0.7,0,1.1c0.1,0.7-0.4,0.8-0.9,0.8c-0.6,0-0.8-0.2-0.8-0.8
			c0-2.1,0-4.2,0-6.2c0-0.7,0.3-0.9,0.9-0.8c1,0,1.9,0,2.9,0c1.2,0,2.3,0.4,2.6,1.7C555.6,276.9,555,277.8,553.5,278.3z
			 M551.5,275.2c-0.4-0.1-0.9,0-0.9,1c0,0.8,0.2,1.2,1.1,1.1c0.8-0.1,1.7,0,1.7-1C553.5,275.2,552.6,275.2,551.5,275.2z"/>
	</g>
</g>
</svg>
