<?xml version="1.0" encoding="utf-8"?>
<!-- Generator: Adobe Illustrator 26.3.1, SVG Export Plug-In . SVG Version: 6.00 Build 0)  -->
<svg version="1.1" id="Layer_1" xmlns="http://www.w3.org/2000/svg" xmlns:xlink="http://www.w3.org/1999/xlink" x="0px" y="0px"
	 viewBox="0 0 595.3 595.3" style="enable-background:new 0 0 595.3 595.3;" xml:space="preserve">
<style type="text/css">
	.st0{fill:#FFFFFF;}
	.st1{fill:#00529C;}
</style>
<path class="st0" d="M297.6,595.3L297.6,595.3C133.3,595.3,0,462,0,297.6l0,0C0,133.3,133.3,0,297.6,0l0,0
	C462,0,595.3,133.3,595.3,297.6l0,0C595.3,462,462,595.3,297.6,595.3z"/>
<path class="st1" d="M297.6,208.9c-22.8,0-44.5,5.1-64,14.1V87.2h-87.1v252.9c-1,7-1.5,14.1-1.5,21.4c0,69,45.9,127.4,108.8,146.2
	l16.8-82.1c-25-10.5-42.5-35.2-42.5-64c0-38.4,31.1-69.5,69.5-69.5s69.5,31.1,69.5,69.5c0,28.4-17,52.8-41.4,63.6l14.4,83
	c63.6-18.4,110.2-77,110.2-146.6C450.3,277.2,381.9,208.9,297.6,208.9z"/>
</svg>
