<?xml version="1.0" encoding="utf-8"?>
<!-- Generator: Adobe Illustrator 26.3.1, SVG Export Plug-In . SVG Version: 6.00 Build 0)  -->
<svg version="1.1" id="Layer_1" xmlns="http://www.w3.org/2000/svg" xmlns:xlink="http://www.w3.org/1999/xlink" x="0px" y="0px"
	 viewBox="0 0 595.3 595.3" style="enable-background:new 0 0 595.3 595.3;" xml:space="preserve">
<style type="text/css">
	.st0{fill:#FFFFFF;}
	.st1{fill:#BF2331;}
</style>
<path class="st0" d="M297.6,595.3L297.6,595.3C133.3,595.3,0,462,0,297.6v0C0,133.3,133.3,0,297.6,0h0
	C462,0,595.3,133.3,595.3,297.6v0C595.3,462,462,595.3,297.6,595.3z"/>
<g id="yLzo5B_00000015329302730691404860000009939639798257823650_">
	<g>
		<path class="st1" d="M74.5,299.3c8.1-3.7,16.6-6.4,25.3-8.3c5.5-1.2,11.1-2.2,16.7-2.4c2.3-0.1,2.7-0.8,1.8-2.9
			C113,273,103.7,265.3,89.9,264c-13.8-1.4-24.5,4.3-32,15.9c-1.6,2.4-3.1,3.7-5.9,3.8c-1.5,0-3,0.4-5.1,0.7
			c1.9,1.6,3.2,2.8,4.7,3.8c1.6,1.1,1.9,2.3,1.6,4.1c-2.8,17.4,8.1,33.9,25.1,38.3c13.2,3.4,27.1-1.5,35.4-12.6c0.8-1,1.5-2,2.8-2.5
			c6.4-2.8,12.6-6.1,17.7-11.7c-0.1,2.2-1.2,3.5-1.7,5.8c8.8-4.8,10.4-13.9,14.7-21.1c-1.9,7.2-4.8,14.1-8.1,20.7
			c-2.9,5.9-6.4,11.5-10,16.9c-12.1,18.3-34.5,26.7-55.8,21.1c-21-5.6-36.1-24-37.6-45.9c-1.8-25.9,16.1-49,41.5-53.7
			c25.5-4.8,50.5,10.4,58.1,35.1c0.9,2.8,1.5,5.6,1.3,8.6c-0.2,2.9-1.5,4.6-4.5,5.3c-7.7,1.8-15.5,2.6-23.3,3
			C97.5,300.1,86.1,300.1,74.5,299.3z"/>
		<path class="st1" d="M247.2,295.6c-3.8,3.3-7.9,4.5-12.5,3.8c-5.5-0.9-9.1-4-10.5-9.5c-2.7-10.3,3.5-20.2,13.9-22.3
			c7.1-1.4,14.1-0.4,21.2,0.8c1.3,0.2,1.4,0.9,1.3,1.9c-0.9,11.3-1.2,22.6-1.8,33.8c-0.2,4.6-2.9,7.8-7.4,9.1
			c-7.6,2.2-15.2,0.8-22.7-0.6c-0.7-0.1-1.2-0.5-1.2-1.3c-0.1-2.3-0.3-4.5-0.3-6.8c0-1.5,1-0.8,1.7-0.6c2.7,0.8,5.5,1.4,8.3,1.7
			C244.6,306.3,247.4,303.5,247.2,295.6z M248.2,279.4c-0.4-1,1-2.8-1.4-3.3c-5.5-1.2-10.5,2.2-11.1,7.7c-0.4,3.6,1.3,6.3,4.2,7
			c2.7,0.7,5.6-1,7-4C247.9,284.5,248.1,282,248.2,279.4z"/>
		<path class="st1" d="M467.2,284.5c0,0.4-0.1,1.6-0.3,2.7c-1.9,11.5-12,16.4-22,10.5c-2.3-1.3-2.6-0.9-2.6,1.5
			c0,4.1-0.3,8.2-0.4,12.3c0,1.7-0.4,2.5-2.3,2.3c-2.8-0.2-5.6-0.1-8.5,0c-1.3,0-1.7-0.3-1.6-1.7c1.2-13.9,1.9-27.8,2.1-41.7
			c0-1.1,0.2-1.9,1.5-2c6.6-0.9,13.2-1.9,19.8-1.1C462.5,268.5,467.2,274,467.2,284.5z M442.8,282.7c-0.1,1.6,0.1,3.1,0.6,4.6
			c0.9,2.4,2.6,4,5.2,4.1c2.7,0.1,4.5-1.4,5.5-3.7c1.1-2.3,1.3-4.7,0.6-7.2c-1-3.5-3.7-5.2-7.8-4.8c-3.7,0.3-3.8,0.3-4.2,5.4
			C442.9,281.6,442.9,282.1,442.8,282.7z"/>
		<path class="st1" d="M279.8,272c4.4-5.1,9.6-5.6,14.9-4.9c6.5,0.9,9.3,4.2,9,10.8c-0.2,5.4-0.7,10.7-1,16.1
			c-0.3,5.2-0.2,5.2-5.4,5.2c-0.7,0-1.5,0-2.2,0c-5.3,0-5.2,0-4.7-5.4c0.4-3.8,0.6-7.6,0.8-11.4c0.1-2.5-0.3-4.8-3.2-5.6
			c-2.7-0.7-5.5,0.5-7,3.1c-1.3,2.2-1.6,4.7-1.8,7.1c-0.3,3.4-0.5,6.9-0.6,10.4c0,1.3-0.2,2-1.8,2c-3-0.1-6-0.1-9,0
			c-1.5,0.1-1.6-0.6-1.5-1.8c1.2-12.6,1.9-25.3,2-37.9c0-2,0.6-2.5,2.5-2.4c2.6,0.1,5.3,0.1,7.9,0c1.7-0.1,2.2,0.5,2,2.2
			C280.4,263.2,280.1,267.2,279.8,272z"/>
		<path class="st1" d="M374.4,284.6c-2.9,0-5.8,0.1-8.7,0c-2-0.1-2.3,0.9-1.9,2.6c0.6,2.7,3.2,4.6,6.8,4.9c3.5,0.3,6.9-0.4,10.2-1.4
			c1.8-0.5,2.1,0,1.7,1.6c-1.7,8.1,0.8,6.5-7.9,7.7c-3.7,0.5-7.5,0.2-11.2-0.4c-8.1-1.3-12.8-8-11.8-16.9c1-9.3,6.3-14.7,15.7-15.6
			c2.7-0.3,5.3,0,7.9,0.5c7.4,1.4,11.8,7.9,10.5,15.4c-0.2,1.4-1,1.7-2.2,1.7C380.4,284.6,377.4,284.6,374.4,284.6z M369,280
			c1,0,2-0.1,3,0c2.3,0.2,2.6-0.9,2.1-2.8c-0.5-1.9-1.8-2.9-3.7-3.2c-2.3-0.3-4.1,0.6-5.3,2.5c-0.6,0.9-1.3,2-0.8,3
			c0.5,0.8,1.7,0.3,2.5,0.4C367.5,280.1,368.2,280,369,280z"/>
		<path class="st1" d="M494,284.6c-2.9,0-5.8,0.1-8.7,0c-2-0.1-2.3,0.9-2,2.5c0.6,2.7,3.2,4.7,6.8,5c3.5,0.3,6.9-0.4,10.2-1.4
			c1.6-0.5,2.1-0.4,1.8,1.5c-1.2,7.2-1.1,7.2-8.4,7.8c-2.8,0.2-5.6,0.1-8.5-0.1c-12.2-1-15.1-10.2-13.8-18.8c1.2-8,6-12.6,14-13.8
			c2.6-0.4,5.3-0.4,7.9,0.1c8.5,1.3,12.7,6.9,11.9,15.3c-0.1,1.5-0.6,2.1-2.2,2C500,284.5,497,284.6,494,284.6z M488.4,280
			c1.1,0,2.2-0.1,3.3,0c1.9,0.2,2.4-0.7,2-2.4c-0.4-1.9-1.5-3-3.4-3.4c-2.3-0.5-4.1,0.3-5.5,2.2c-0.7,0.9-1.5,2.1-1,3.2
			c0.5,1,1.8,0.3,2.7,0.5C487.1,280.1,487.7,280,488.4,280z"/>
		<path class="st1" d="M406.8,289.2c-2,3.1-3.6,5.8-5.3,8.5c-0.5,0.8-1,1.6-2.3,1.6c-4-0.1-8,0-12.4,0c3.6-4.9,6.9-9.5,10.4-14
			c1.4-1.8,1.5-3.1,0.2-5c-2.7-3.8-5.2-7.9-8-12.4c4.8,0,9.2,0,13.6,0c1,0,1.1,0.8,1.4,1.4c1.1,2.3,2.1,4.6,3.4,7.4
			c1.6-2.6,3.1-4.8,4.4-7.1c0.8-1.3,1.6-1.9,3.2-1.9c3.5,0.1,7,0,11.1,0c-3.3,4.4-6.1,8.4-9.2,12.3c-1.4,1.7-1.6,3-0.3,5
			c3,4.4,5.7,9.1,8.8,14c-4.6,0-8.9,0-13.2,0c-1.1,0-1.3-0.8-1.7-1.5C409.7,295,408.3,292.3,406.8,289.2z"/>
		<path class="st1" d="M183.3,264c-1.7-0.2-3.4-0.5-5.1-0.7c-1.3-0.1-2.5,0.3-3.2,1.6c-1,1.8-0.3,2.9,1.7,3c4.9,0.2,4.8,0.2,4.8,5.2
			c0,2.8-0.9,3.8-3.6,3.3c-2.5-0.4-3.2,0.6-3.3,3.1c-0.1,5.8-0.5,11.6-0.7,17.5c-0.1,1.7-0.6,2.2-2.2,2.1c-2.7-0.1-5.5-0.1-8.2,0
			c-1.6,0.1-2-0.4-1.9-2c0.5-6.1,0.7-12.2,1.2-18.3c0.1-1.6-0.1-2.7-2.1-2.4c-1.5,0.2-1.7-0.6-1.5-1.8c0.1-1.1,0.3-2.2,0.2-3.3
			c-0.1-2.3,0.2-4,3.2-3.5c1.1,0.2,1.4-0.5,1.4-1.5c0-0.2,0-0.4,0-0.5c-0.7-8.1,3.3-11,11.3-10.7c0.1,0,0.2,0,0.3,0
			C184.9,256.1,183.2,255.1,183.3,264z"/>
		<path class="st1" d="M559.5,290.4c-0.5,2.7-0.9,5-1.3,7.3c-0.1,1-0.6,1.4-1.5,1.6c-4,0.8-7.9,1.2-11.9,0.2
			c-3.4-0.9-5.2-3.4-5.2-7.4c0.1-4.3,0.4-8.6,0.7-12.8c0.2-2-0.1-3-2.4-2.7c-1.8,0.3-2.5-0.5-2.2-2.3c0.1-1,0.2-2,0.1-3
			c-0.2-2.4,0.6-3.6,3.2-3.2c1.9,0.3,2.5-0.8,2.3-2.4c-0.3-3.1,1-4.5,4-4.6c0.2,0,0.4-0.1,0.5-0.1c2.3-0.2,4.9-2.1,6.5-1
			c1.5,1,0.2,4,0.2,6.2c0,1.7,0.8,1.9,2.2,1.9c4.9,0.2,4.8,0.2,4.8,5.1c0,2.7-0.7,3.6-3.5,3.4c-3.8-0.3-3.8-0.1-4,3.7
			c-0.1,2-0.2,4-0.2,6c0,3.9,1.4,5.1,5.2,4.5C557.8,290.8,558.4,290.6,559.5,290.4z"/>
		<path class="st1" d="M312.8,285.5c0.1-2.2,0.2-4.4,0.5-6.5c0.2-1.8-0.3-2.7-2.2-2.4c-2.2,0.4-2.7-0.8-2.4-2.7
			c0.1-0.7,0.1-1.5,0.1-2.2c-0.3-2.6,0.4-4.2,3.5-3.6c1.9,0.3,2.1-1.1,2-2.4c-0.3-3.1,1-4.4,4-4.6c1.9-0.1,3.7-0.7,5.6-1.2
			c1.3-0.3,2.1-0.2,1.9,1.5c-0.1,0.4,0,0.9,0,1.4c-0.1,5.1-0.1,5.2,5,5.4c1.4,0.1,2,0.5,1.8,1.9c-0.1,0.4-0.1,0.9-0.1,1.4
			c-0.2,5-0.2,5-5.2,5.2c-1.5,0-2.2,0.4-2.2,2c0,2.5-0.3,5.1-0.3,7.6c-0.1,4,1.4,5.4,5.3,4.6c2-0.4,2.5,0,1.9,1.9
			c-0.1,0.3-0.2,0.7-0.2,1.1c-1.1,5.9-1.1,5.9-7.2,6.3c-0.6,0-1.3,0-1.9,0c-8.1,0-10.6-2.7-10.1-10.8
			C312.6,288,312.7,286.8,312.8,285.5z"/>
		<path class="st1" d="M197.7,278.1c0,6-0.1,12,0.1,18c0.1,2.7-0.8,3.4-3.4,3.2c-2.4-0.3-4.9,0-7.4,0.1c-1.4,0.1-1.9-0.3-1.8-1.8
			c1-12.7,1.6-25.4,1.9-38.1c0-1.8,0.6-2.4,2.4-2.3c2.7,0.1,5.5,0.1,8.2,0c1.5,0,2.1,0.3,2,2c-0.5,6.3-0.8,12.7-1.2,19
			C198.2,278.1,198,278.1,197.7,278.1z"/>
		<path class="st1" d="M522.8,270.6c2.1-2.3,4.6-3.7,7.7-3.7c1.6,0,2.7,0.4,2.4,2.3c-0.1,0.7,0,1.5,0,2.2c0,1.7,0.6,3.7,0,5.1
			c-0.8,1.6-2.9,0.2-4.5,0.6c-3,0.7-5.3,2.8-6,6.3c-0.9,4.5-0.9,9-0.7,13.6c0.1,1.8-0.3,2.4-2.2,2.2c-2.7-0.2-5.5-0.1-8.2,0
			c-1.4,0-1.9-0.3-1.8-1.8c0.8-9.3,1.4-18.7,1.1-28c0-1,0.3-1.5,1.3-1.5c3,0,6,0.1,9,0C523.2,267.7,521.8,269.6,522.8,270.6z"/>
		<path class="st1" d="M217.8,283.8c0,4-0.1,8.6,0,13.3c0,1.7-0.5,2.2-2.2,2.1c-3.1-0.1-6.2-0.1-9.3,0c-1.4,0.1-1.7-0.3-1.6-1.6
			c1-9,1.3-18.1,1.4-27.2c0-1.9,0.4-2.8,2.6-2.6c2.8,0.2,5.6,0.1,8.4,0c1.3,0,1.7,0.4,1.5,1.7C218.3,274.1,218.1,278.6,217.8,283.8z
			"/>
		<path class="st1" d="M224,328.4c0.1-2.9,0.2-5.8,0.4-8.7c0.2-3.4,2.9-1.5,4.4-1.8c2-0.4,1.6,1.2,1.4,2.3c-0.7,2.6,0.5,2.8,2.7,2.6
			c4.1-0.4,6.7,1.1,7.9,4c1.4,3.3,0.4,8.2-2.1,10.4c-1.5,1.4-3.6,2.4-5.2,1.6c-2.8-1.4-5.5-0.4-8.2-0.3c-1.5,0-1.9-0.4-1.8-1.9
			C223.8,333.9,223.9,331.2,224,328.4C224.1,328.4,224,328.4,224,328.4z M231.6,326.9c-2.3-0.3-2.1,1.5-2.1,3.2
			c0,2.1,0.2,4.1,2.8,4.5c1.7,0.2,3.2-1.8,3.1-4C235.4,328.3,234,326.9,231.6,326.9z"/>
		<path class="st1" d="M497,332.6c0.8-2.1,1.6-4.1,2.2-6.3c0.7-2.5,2-3.7,4.6-3.2c0.6,0.1,1.3,0,2,0c0.1,1.4-0.6,2.3-1.1,3.3
			c-2.1,5-4.3,10-6.5,15c-1.7,3.7-5.7,5.4-9.5,4.2c-2.1-0.7-0.9-2.7-1.6-3.8c0.7-0.7,1.3-0.1,1.9,0c3,0.3,4.7-1.7,3.8-4.5
			c-1.5-4.6-3.1-9.3-4.6-14c5.7-0.6,5.7-0.6,7.1,4.6c0.4,1.5,0.8,3,1.1,4.5C496.7,332.5,496.9,332.5,497,332.6z"/>
		<path class="st1" d="M313.5,332.5c0.6-1.7,1.2-3.4,1.8-5.1c1.8-4.8,1.8-4.8,7.3-3.9c-2.8,6.5-5.5,12.9-8.5,19.2
			c-1.3,2.8-6.4,4.3-9.2,2.9c-1.7-0.8-0.8-2.6-1.2-3.8c0.7-0.6,1.3,0,1.9,0.1c3,0.3,4.6-1.7,3.7-4.6c-1.3-4-2.6-8-4-11.9
			c-0.5-1.5-0.7-2.1,1.4-2.3c3-0.2,4.5,0.7,4.9,3.8c0.2,1.9,0.9,3.8,1.4,5.7C313.1,332.5,313.3,332.5,313.5,332.5z"/>
		<path class="st1" d="M467.3,331.8c0,1.5-0.1,2.9,0,4.4c0.1,1.6-0.3,2.4-2.3,2.4c-3.7-0.1-3.7,0-3.6-3.8c0.1-1.4,0.2-2.7,0.2-4.1
			c0-1.4-0.4-2.8-2-3.1c-1.6-0.2-2.6,0.8-3.2,2.1c-0.9,2-0.6,4.1-0.9,6.2c-0.1,0.9,0.4,2.3-0.9,2.5c-1.6,0.2-3.3,0.1-4.9-0.1
			c-0.6-0.1-0.3-0.9-0.3-1.4c0.2-4,0.5-8,0.7-12c0.1-1.3,0.5-2,1.7-1.7c1.5,0.4,3.4-1.1,4.5,1.1c0.2,0.4,0.8-0.1,1.1-0.4
			c1.3-0.9,2.8-1.2,4.4-1.2c4.2,0,5.9,1.8,5.7,6.1c-0.1,1-0.2,2-0.2,3C467.3,331.8,467.3,331.8,467.3,331.8z"/>
		<path class="st1" d="M261.6,330.6c0,5.1-3.7,8.4-9.4,8.3c-5.4-0.1-8.9-3.2-8.9-7.9c0-4.9,3.9-8.3,9.5-8.3
			C258.2,322.7,261.6,325.8,261.6,330.6z M255.7,330.3c-0.2-1.7-1-3.3-3.1-3.2c-2.4,0.1-3.1,1.9-3.2,4c0,1.9,0.8,3.4,2.9,3.5
			C254.2,334.8,255.7,332.8,255.7,330.3z"/>
		<path class="st1" d="M341.6,330.7c0,5.1-3.5,8.3-9.2,8.3c-5.6,0-9-3.1-9-8.1c0.1-4.9,3.8-8.1,9.4-8.1
			C338.3,322.7,341.6,325.8,341.6,330.7z M335.7,330.3c-0.1-1.7-0.8-3.1-3-3.2c-1.9-0.1-3.2,1.6-3.3,3.9c0,2,0.7,3.4,2.8,3.7
			C334.2,334.9,335.7,333,335.7,330.3z"/>
		<path class="st1" d="M413.2,330.5c0,5.1-3.4,8.3-9,8.4c-5.6,0.1-9.2-2.9-9.2-7.7c-0.1-5,3.6-8.4,9.3-8.5
			C409.7,322.7,413.2,325.7,413.2,330.5z M407.3,330.9c0-2.1-0.7-3.6-2.9-3.8c-1.9-0.2-3.3,1.5-3.4,3.8c-0.1,2.2,1.2,3.9,3,3.8
			C406.4,334.5,407.1,332.8,407.3,330.9z"/>
		<path class="st1" d="M419.4,323.2c2.8-0.8,3.1,0.7,2.7,3c-0.3,1.5-0.3,3.1-0.3,4.6c-0.1,1.5,0.2,2.9,1.9,3.1
			c1.7,0.2,2.8-0.9,3.1-2.5c0.4-2,0.6-4.1,0.6-6.2c0-3.7,2.8-1.8,4.3-2.1c2.3-0.4,1.5,1.4,1.5,2.5c-0.2,3.3-0.3,6.5-0.6,9.8
			c-0.1,1,0.5,2.6-0.8,2.8c-1.5,0.3-3.6,0.8-4.6-0.3c-0.9-0.9-1.2-0.6-1.8-0.2c-1.7,1.1-3.6,1.3-5.5,0.9c-2.8-0.5-4-1.9-3.9-4.6
			c0.1-2.7,0.5-5.5,0.4-8.2C416.1,323.5,417,322.7,419.4,323.2z"/>
		<path class="st1" d="M344.5,330c0.1-1.1,0.1-2.2,0.2-3.3c0.2-3.5,1.6-4.4,5.1-3.6c1.1,0.3,0.9,0.9,0.9,1.6
			c-0.1,2.1-0.3,4.2-0.5,6.3c-0.1,1.5,0.3,2.9,2,3c1.6,0.2,2.7-0.9,2.9-2.3c0.4-2.1,0.6-4.3,0.6-6.5c0.1-3.6,2.7-1.6,4.2-2
			c1.8-0.4,1.7,0.9,1.7,2.1c-0.2,3.4-0.4,6.9-0.6,10.3c-0.1,0.9,0.4,2.5-0.6,2.7c-1.6,0.2-3.8,0.9-4.9-0.4c-1-1.2-1.2-0.4-1.8-0.1
			c-1.4,0.9-2.9,1.1-4.4,1c-3.6-0.2-5-1.8-5-5.4C344.3,332.3,344.4,331.2,344.5,330C344.5,330,344.5,330,344.5,330z"/>
		<path class="st1" d="M281.1,330.8c-0.1,1.1-0.1,2.2-0.2,3.3c-0.2,5.1-1.1,5.6-5.8,3.3c-0.7-0.3-1,0.2-1.4,0.5
			c-1.8,1.2-3.8,1.3-5.8,0.9c-2.5-0.5-3.9-1.9-3.8-4.6c0.1-3.2,0.4-6.4,0.5-9.5c0-1,0.3-1.4,1.4-1.5c4.4-0.5,4.7-0.3,4.3,4.1
			c-0.1,1.2-0.3,2.4-0.3,3.5c0,1.5,0.2,3.1,2.1,3.3c1.7,0.2,2.7-1.1,3-2.6c0.3-2,0.5-4,0.5-6c-0.1-3.8,2.7-1.9,4.3-2.2
			c2.3-0.4,1.6,1.3,1.5,2.4C281.4,327.3,281.3,329.1,281.1,330.8C281.1,330.8,281.1,330.8,281.1,330.8z"/>
		<path class="st1" d="M160.4,327.1c-0.3-2.9,0.9-3.8,3.4-4c2.5-0.2,5.1-0.6,7.6,0.1c2.2,0.6,3.3,1.9,3.2,4.1
			c-0.1,3.2-0.3,6.4-0.5,9.5c-0.2,3.4-2.8,1.1-4.2,1.6c-1.7,0.5-1.6-0.8-1.5-1.9c0.1-1.4,0-2.9,0-4.4c-1.2,0-2.3,0.5-3.4,0.9
			c-0.6,0.3-1.2,0.7-1.1,1.4c0.1,0.8,0.7,1.2,1.5,1.4c0.6,0.1,1.7-0.4,1.3,1c-0.2,0.8-0.2,1.8-1.4,2.1c-2.7,0.8-6.3-0.7-7.1-3.1
			c-0.8-2.5,0.7-4.9,3.9-5.9c1.6-0.5,3.2-0.8,4.8-1.2c0.8-0.2,1.7-0.5,1.5-1.6c-0.2-1-1.1-1.1-2-1.1
			C164.3,325.9,162.4,326.8,160.4,327.1z"/>
		<path class="st1" d="M206.3,327.1c-0.5-2.9,0.9-3.9,3.4-4c2.5-0.2,5-0.6,7.6,0.1c2.1,0.5,3.2,1.8,3.1,3.9
			c-0.1,3.3-0.3,6.5-0.6,9.8c-0.3,3.3-2.8,1.1-4.3,1.6c-1.5,0.5-1.5-0.8-1.4-1.8c0.1-0.9,0-1.8,0.2-2.7c0.2-1.5-0.2-2.3-1.9-1.5
			c-1.1,0.5-2.8,0.5-2.7,2.2c0.1,1.6,1.8,1,2.8,1.4c-0.3,1.6-0.3,3-2.5,3.1c-3.2,0.1-5.3-0.9-6.1-3.1c-0.7-2.1,0-3.8,1.7-5
			c1.7-1.3,3.9-1.4,5.9-2c1.1-0.3,2.8-0.3,2.4-1.9c-0.3-1.4-1.9-1.1-3.1-0.9C209.5,326.3,208,326.7,206.3,327.1z"/>
		<path class="st1" d="M485.1,334.3c0.1,4-0.1,4.2-3.6,4.5c-1.2,0.1-2.4,0.1-3.5,0c-5.2-0.3-7.8-2.9-7.8-7.6c0-5,3.1-8.2,8.1-8.5
			c5.1-0.3,8.2,1.9,8.6,5.9c0.2,1.9-0.2,2.9-2.4,2.7c-2.2-0.2-4.4-0.1-6.6,0c-0.7,0-1.6-0.3-1.8,0.8c-0.1,0.8,0.3,1.4,0.9,1.9
			c1.6,1.4,3.5,1.2,5.5,0.8C483.4,334.6,484.2,334.5,485.1,334.3z M478.9,329.3c0.7-0.6,2.4,0.7,2.3-1.3c-0.1-1.2-1-1.9-2.3-1.8
			c-1.3,0.1-2.4,0.8-2.4,2.1C476.5,329.9,478.1,328.8,478.9,329.3z"/>
		<path class="st1" d="M391.9,333c0,2.5,0.1,5.1,0,7.6c-0.1,3.6-1.3,4.9-4.9,5.2c-1.3,0.1-2.7-0.2-4.1-0.2c-2.5,0-1.9-1.9-2.1-3.3
			c-0.2-2,1.3-0.9,2-1c2.1-0.2,3.1-1.4,3.2-3.4c0.2-4.3,0.5-8.5,0.4-12.8c0-3.4,2.4-1.8,3.8-2.1c1.8-0.4,2.3,0.5,2.2,2.3
			c-0.2,2.5,0,5.1,0,7.6C392.2,333,392,333,391.9,333z"/>
		<path class="st1" d="M286,331.9c-0.1-1.8,1.4-4.1-1.7-5.1c-0.3-0.1-1.2-3,1.2-3.5c0.6-0.1,1.2-0.3,1.2-0.9
			c-0.2-2.4,1.6-2.4,3.2-2.8c1.8-0.5,2.8-0.3,2.5,1.9c-0.2,1.3,0.3,1.9,1.6,1.8c1.6-0.2,1.8,0.7,1.7,2c-0.1,1.3-0.1,2.3-1.9,2.2
			c-2.7-0.2-1.6,2.1-1.8,3.3c-0.2,1.5-0.5,3.2,1.6,3.8c0.6,0.2,2.2-1.1,1.8,0.9c-0.3,1.3,0.1,3-2,3.3
			C287.2,339.4,285.1,338.3,286,331.9z"/>
		<path class="st1" d="M193.3,327.9c0,2.6-0.1,5.3,0,7.9c0.2,2.2-0.6,2.7-2.7,2.8c-2.5,0-3.7-0.3-3.3-3.3c0.6-5,0.6-10.1,0.7-15.2
			c0.1-3.7,2.8-1.8,4.3-2.1c2.1-0.5,1.7,1.1,1.6,2.4c-0.1,2.5-0.3,5.1-0.4,7.6C193.5,327.9,193.4,327.9,193.3,327.9z"/>
		<path class="st1" d="M178.4,328.4c0-2.7,0.1-5.5,0-8.2c-0.1-2,0.8-2.4,2.6-2.4c3.7,0.1,3.6,0,3.3,3.7c-0.3,4.9-0.6,9.8-0.7,14.7
			c0,3.5-2.5,1.9-4.1,2.2c-2.1,0.4-2.1-1-2-2.5c0.2-2.5,0.3-5.1,0.5-7.6C178.2,328.4,178.3,328.4,178.4,328.4z"/>
		<path class="st1" d="M367.5,338.3c-2.9,0.8-3-0.8-2.8-3.1c0.3-2.9,0.4-5.8,0.4-8.7c0.1-3.3,2.1-4.8,5-3.3c1.3,0.7,1.8,0.2,2.6-0.1
			c0.9-0.4,2.1-1,2.8-0.2c0.8,1,0.4,2.4,0.4,3.7c0,1.5-1.2,0.7-1.8,0.8c-2,0.3-3.1,1.5-3.4,3.4c-0.3,1.5-0.4,3.1-0.3,4.6
			C370.7,337.9,370,339,367.5,338.3z"/>
		<path class="st1" d="M436.7,335c0-2.7,0-5.4,0-8.2c0-3.7,1.4-4.9,4.8-3.6c1.4,0.6,2.1,0.3,3.2-0.2c0.8-0.4,1.9-0.8,2.5,0
			c0.7,1.1,0.4,2.5,0.4,3.7c-0.1,1.2-1.1,0.7-1.7,0.7c-2,0.3-3.1,1.5-3.5,3.3c-0.2,1.2-0.3,2.5-0.3,3.8c-0.1,3.8-1.1,4.6-4.8,3.7
			C435,337.9,437,336,436.7,335z"/>
		<path class="st1" d="M213,256.4c0.5,0,0.9,0,1.4,0c4.6,0,4.5,0,4.4,4.8c-0.1,2.1-0.8,2.6-2.8,2.5c-2.3-0.2-4.5-0.2-6.8,0
			c-1.9,0.1-2.7-0.3-2.6-2.5c0.3-4.8,0.1-4.8,4.8-4.7C211.9,256.4,212.5,256.4,213,256.4z"/>
		<path class="st1" d="M68.5,282.9c-1.4-0.2-2.4-0.9-2.4-2.4c0-1.6,0.9-2.6,2.5-2.6c1.6,0,2.4,1,2.4,2.7
			C70.9,282.1,69.9,282.8,68.5,282.9z"/>
		<path class="st1" d="M389.3,321c-0.9-0.4-2.7,0.8-2.7-1.5c0-2.5,1.7-1.9,3-1.8c1.1,0.1,2.9-0.9,2.8,1.6
			C392.4,321.8,390.5,320.6,389.3,321z"/>
	</g>
</g>
</svg>
