<svg xmlns="http://www.w3.org/2000/svg" xml:space="preserve" id="Layer_1" x="0" y="0" style="enable-background:new 0 0 595.3 595.3" version="1.1" viewBox="0 0 595.3 595.3"><style>.st1{fill:#bf2331}</style><path d="M297.6 595.3C133.3 595.3 0 462 0 297.6 0 133.3 133.3 0 297.6 0 462 0 595.3 133.3 595.3 297.6c0 164.4-133.3 297.7-297.7 297.7" style="fill:#fff"/><g id="yLzo5B_00000015329302730691404860000009939639798257823650_"><path d="M74.5 299.3c8.1-3.7 16.6-6.4 25.3-8.3 5.5-1.2 11.1-2.2 16.7-2.4 2.3-.1 2.7-.8 1.8-2.9-5.3-12.7-14.6-20.4-28.4-21.7-13.8-1.4-24.5 4.3-32 15.9-1.6 2.4-3.1 3.7-5.9 3.8-1.5 0-3 .4-5.1.7 1.9 1.6 3.2 2.8 4.7 3.8 1.6 1.1 1.9 2.3 1.6 4.1-2.8 17.4 8.1 33.9 25.1 38.3 13.2 3.4 27.1-1.5 35.4-12.6.8-1 1.5-2 2.8-2.5 6.4-2.8 12.6-6.1 17.7-11.7-.1 2.2-1.2 3.5-1.7 5.8 8.8-4.8 10.4-13.9 14.7-21.1-1.9 7.2-4.8 14.1-8.1 20.7-2.9 5.9-6.4 11.5-10 16.9-12.1 18.3-34.5 26.7-55.8 21.1-21-5.6-36.1-24-37.6-45.9-1.8-25.9 16.1-49 41.5-53.7 25.5-4.8 50.5 10.4 58.1 35.1.9 2.8 1.5 5.6 1.3 8.6-.2 2.9-1.5 4.6-4.5 5.3-7.7 1.8-15.5 2.6-23.3 3-11.3.5-22.7.5-34.3-.3M247.2 295.6c-3.8 3.3-7.9 4.5-12.5 3.8-5.5-.9-9.1-4-10.5-9.5-2.7-10.3 3.5-20.2 13.9-22.3 7.1-1.4 14.1-.4 21.2.8 1.3.2 1.4.9 1.3 1.9-.9 11.3-1.2 22.6-1.8 33.8-.2 4.6-2.9 7.8-7.4 9.1-7.6 2.2-15.2.8-22.7-.6-.7-.1-1.2-.5-1.2-1.3-.1-2.3-.3-4.5-.3-6.8 0-1.5 1-.8 1.7-.6 2.7.8 5.5 1.4 8.3 1.7 7.4.7 10.2-2.1 10-10m1-16.2c-.4-1 1-2.8-1.4-3.3-5.5-1.2-10.5 2.2-11.1 7.7-.4 3.6 1.3 6.3 4.2 7 2.7.7 5.6-1 7-4 1-2.3 1.2-4.8 1.3-7.4M467.2 284.5c0 .4-.1 1.6-.3 2.7-1.9 11.5-12 16.4-22 10.5-2.3-1.3-2.6-.9-2.6 1.5 0 4.1-.3 8.2-.4 12.3 0 1.7-.4 2.5-2.3 2.3-2.8-.2-5.6-.1-8.5 0-1.3 0-1.7-.3-1.6-1.7 1.2-13.9 1.9-27.8 2.1-41.7 0-1.1.2-1.9 1.5-2 6.6-.9 13.2-1.9 19.8-1.1 9.6 1.2 14.3 6.7 14.3 17.2m-24.4-1.8c-.1 1.6.1 3.1.6 4.6.9 2.4 2.6 4 5.2 4.1 2.7.1 4.5-1.4 5.5-3.7 1.1-2.3 1.3-4.7.6-7.2-1-3.5-3.7-5.2-7.8-4.8-3.7.3-3.8.3-4.2 5.4.2.5.2 1 .1 1.6M279.8 272c4.4-5.1 9.6-5.6 14.9-4.9 6.5.9 9.3 4.2 9 10.8-.2 5.4-.7 10.7-1 16.1-.3 5.2-.2 5.2-5.4 5.2h-2.2c-5.3 0-5.2 0-4.7-5.4.4-3.8.6-7.6.8-11.4.1-2.5-.3-4.8-3.2-5.6-2.7-.7-5.5.5-7 3.1-1.3 2.2-1.6 4.7-1.8 7.1-.3 3.4-.5 6.9-.6 10.4 0 1.3-.2 2-1.8 2-3-.1-6-.1-9 0-1.5.1-1.6-.6-1.5-1.8 1.2-12.6 1.9-25.3 2-37.9 0-2 .6-2.5 2.5-2.4 2.6.1 5.3.1 7.9 0 1.7-.1 2.2.5 2 2.2-.3 3.7-.6 7.7-.9 12.5M374.4 284.6c-2.9 0-5.8.1-8.7 0-2-.1-2.3.9-1.9 2.6.6 2.7 3.2 4.6 6.8 4.9 3.5.3 6.9-.4 10.2-1.4 1.8-.5 2.1 0 1.7 1.6-1.7 8.1.8 6.5-7.9 7.7-3.7.5-7.5.2-11.2-.4-8.1-1.3-12.8-8-11.8-16.9 1-9.3 6.3-14.7 15.7-15.6 2.7-.3 5.3 0 7.9.5 7.4 1.4 11.8 7.9 10.5 15.4-.2 1.4-1 1.7-2.2 1.7-3.1-.1-6.1-.1-9.1-.1M369 280c1 0 2-.1 3 0 2.3.2 2.6-.9 2.1-2.8s-1.8-2.9-3.7-3.2c-2.3-.3-4.1.6-5.3 2.5-.6.9-1.3 2-.8 3 .5.8 1.7.3 2.5.4.7.2 1.4.1 2.2.1M494 284.6c-2.9 0-5.8.1-8.7 0-2-.1-2.3.9-2 2.5.6 2.7 3.2 4.7 6.8 5 3.5.3 6.9-.4 10.2-1.4 1.6-.5 2.1-.4 1.8 1.5-1.2 7.2-1.1 7.2-8.4 7.8-2.8.2-5.6.1-8.5-.1-12.2-1-15.1-10.2-13.8-18.8 1.2-8 6-12.6 14-13.8 2.6-.4 5.3-.4 7.9.1 8.5 1.3 12.7 6.9 11.9 15.3-.1 1.5-.6 2.1-2.2 2-3-.2-6-.1-9-.1m-5.6-4.6c1.1 0 2.2-.1 3.3 0 1.9.2 2.4-.7 2-2.4-.4-1.9-1.5-3-3.4-3.4-2.3-.5-4.1.3-5.5 2.2-.7.9-1.5 2.1-1 3.2.5 1 1.8.3 2.7.5.6 0 1.2-.1 1.9-.1M406.8 289.2c-2 3.1-3.6 5.8-5.3 8.5-.5.8-1 1.6-2.3 1.6-4-.1-8 0-12.4 0 3.6-4.9 6.9-9.5 10.4-14 1.4-1.8 1.5-3.1.2-5-2.7-3.8-5.2-7.9-8-12.4H403c1 0 1.1.8 1.4 1.4 1.1 2.3 2.1 4.6 3.4 7.4 1.6-2.6 3.1-4.8 4.4-7.1.8-1.3 1.6-1.9 3.2-1.9 3.5.1 7 0 11.1 0-3.3 4.4-6.1 8.4-9.2 12.3-1.4 1.7-1.6 3-.3 5 3 4.4 5.7 9.1 8.8 14h-13.2c-1.1 0-1.3-.8-1.7-1.5-1.2-2.5-2.6-5.2-4.1-8.3M183.3 264c-1.7-.2-3.4-.5-5.1-.7-1.3-.1-2.5.3-3.2 1.6-1 1.8-.3 2.9 1.7 3 4.9.2 4.8.2 4.8 5.2 0 2.8-.9 3.8-3.6 3.3-2.5-.4-3.2.6-3.3 3.1-.1 5.8-.5 11.6-.7 17.5-.1 1.7-.6 2.2-2.2 2.1-2.7-.1-5.5-.1-8.2 0-1.6.1-2-.4-1.9-2 .5-6.1.7-12.2 1.2-18.3.1-1.6-.1-2.7-2.1-2.4-1.5.2-1.7-.6-1.5-1.8.1-1.1.3-2.2.2-3.3-.1-2.3.2-4 3.2-3.5 1.1.2 1.4-.5 1.4-1.5v-.5c-.7-8.1 3.3-11 11.3-10.7h.3c9.3 1 7.6 0 7.7 8.9M559.5 290.4c-.5 2.7-.9 5-1.3 7.3-.1 1-.6 1.4-1.5 1.6-4 .8-7.9 1.2-11.9.2-3.4-.9-5.2-3.4-5.2-7.4.1-4.3.4-8.6.7-12.8.2-2-.1-3-2.4-2.7-1.8.3-2.5-.5-2.2-2.3.1-1 .2-2 .1-3-.2-2.4.6-3.6 3.2-3.2 1.9.3 2.5-.8 2.3-2.4-.3-3.1 1-4.5 4-4.6.2 0 .4-.1.5-.1 2.3-.2 4.9-2.1 6.5-1 1.5 1 .2 4 .2 6.2 0 1.7.8 1.9 2.2 1.9 4.9.2 4.8.2 4.8 5.1 0 2.7-.7 3.6-3.5 3.4-3.8-.3-3.8-.1-4 3.7-.1 2-.2 4-.2 6 0 3.9 1.4 5.1 5.2 4.5.8 0 1.4-.2 2.5-.4M312.8 285.5c.1-2.2.2-4.4.5-6.5.2-1.8-.3-2.7-2.2-2.4-2.2.4-2.7-.8-2.4-2.7.1-.7.1-1.5.1-2.2-.3-2.6.4-4.2 3.5-3.6 1.9.3 2.1-1.1 2-2.4-.3-3.1 1-4.4 4-4.6 1.9-.1 3.7-.7 5.6-1.2 1.3-.3 2.1-.2 1.9 1.5-.1.4 0 .9 0 1.4-.1 5.1-.1 5.2 5 5.4 1.4.1 2 .5 1.8 1.9-.1.4-.1.9-.1 1.4-.2 5-.2 5-5.2 5.2-1.5 0-2.2.4-2.2 2 0 2.5-.3 5.1-.3 7.6-.1 4 1.4 5.4 5.3 4.6 2-.4 2.5 0 1.9 1.9-.1.3-.2.7-.2 1.1-1.1 5.9-1.1 5.9-7.2 6.3h-1.9c-8.1 0-10.6-2.7-10.1-10.8 0-1.4.1-2.6.2-3.9M197.7 278.1c0 6-.1 12 .1 18 .1 2.7-.8 3.4-3.4 3.2-2.4-.3-4.9 0-7.4.1-1.4.1-1.9-.3-1.8-1.8 1-12.7 1.6-25.4 1.9-38.1 0-1.8.6-2.4 2.4-2.3 2.7.1 5.5.1 8.2 0 1.5 0 2.1.3 2 2-.5 6.3-.8 12.7-1.2 19-.3-.1-.5-.1-.8-.1M522.8 270.6c2.1-2.3 4.6-3.7 7.7-3.7 1.6 0 2.7.4 2.4 2.3-.1.7 0 1.5 0 2.2 0 1.7.6 3.7 0 5.1-.8 1.6-2.9.2-4.5.6-3 .7-5.3 2.8-6 6.3-.9 4.5-.9 9-.7 13.6.1 1.8-.3 2.4-2.2 2.2-2.7-.2-5.5-.1-8.2 0-1.4 0-1.9-.3-1.8-1.8.8-9.3 1.4-18.7 1.1-28 0-1 .3-1.5 1.3-1.5 3 0 6 .1 9 0 2.3-.2.9 1.7 1.9 2.7M217.8 283.8c0 4-.1 8.6 0 13.3 0 1.7-.5 2.2-2.2 2.1-3.1-.1-6.2-.1-9.3 0-1.4.1-1.7-.3-1.6-1.6 1-9 1.3-18.1 1.4-27.2 0-1.9.4-2.8 2.6-2.6 2.8.2 5.6.1 8.4 0 1.3 0 1.7.4 1.5 1.7-.3 4.6-.5 9.1-.8 14.3M224 328.4c.1-2.9.2-5.8.4-8.7.2-3.4 2.9-1.5 4.4-1.8 2-.4 1.6 1.2 1.4 2.3-.7 2.6.5 2.8 2.7 2.6 4.1-.4 6.7 1.1 7.9 4 1.4 3.3.4 8.2-2.1 10.4-1.5 1.4-3.6 2.4-5.2 1.6-2.8-1.4-5.5-.4-8.2-.3-1.5 0-1.9-.4-1.8-1.9.3-2.7.4-5.4.5-8.2.1 0 0 0 0 0m7.6-1.5c-2.3-.3-2.1 1.5-2.1 3.2 0 2.1.2 4.1 2.8 4.5 1.7.2 3.2-1.8 3.1-4 0-2.3-1.4-3.7-3.8-3.7M497 332.6c.8-2.1 1.6-4.1 2.2-6.3.7-2.5 2-3.7 4.6-3.2.6.1 1.3 0 2 0 .1 1.4-.6 2.3-1.1 3.3-2.1 5-4.3 10-6.5 15-1.7 3.7-5.7 5.4-9.5 4.2-2.1-.7-.9-2.7-1.6-3.8.7-.7 1.3-.1 1.9 0 3 .3 4.7-1.7 3.8-4.5-1.5-4.6-3.1-9.3-4.6-14 5.7-.6 5.7-.6 7.1 4.6.4 1.5.8 3 1.1 4.5.3.1.5.1.6.2M313.5 332.5l1.8-5.1c1.8-4.8 1.8-4.8 7.3-3.9-2.8 6.5-5.5 12.9-8.5 19.2-1.3 2.8-6.4 4.3-9.2 2.9-1.7-.8-.8-2.6-1.2-3.8.7-.6 1.3 0 1.9.1 3 .3 4.6-1.7 3.7-4.6-1.3-4-2.6-8-4-11.9-.5-1.5-.7-2.1 1.4-2.3 3-.2 4.5.7 4.9 3.8.2 1.9.9 3.8 1.4 5.7.1-.1.3-.1.5-.1M467.3 331.8c0 1.5-.1 2.9 0 4.4.1 1.6-.3 2.4-2.3 2.4-3.7-.1-3.7 0-3.6-3.8.1-1.4.2-2.7.2-4.1 0-1.4-.4-2.8-2-3.1-1.6-.2-2.6.8-3.2 2.1-.9 2-.6 4.1-.9 6.2-.1.9.4 2.3-.9 2.5-1.6.2-3.3.1-4.9-.1-.6-.1-.3-.9-.3-1.4.2-4 .5-8 .7-12 .1-1.3.5-2 1.7-1.7 1.5.4 3.4-1.1 4.5 1.1.2.4.8-.1 1.1-.4 1.3-.9 2.8-1.2 4.4-1.2 4.2 0 5.9 1.8 5.7 6.1-.1 1-.2 2-.2 3M261.6 330.6c0 5.1-3.7 8.4-9.4 8.3-5.4-.1-8.9-3.2-8.9-7.9 0-4.9 3.9-8.3 9.5-8.3 5.4 0 8.8 3.1 8.8 7.9m-5.9-.3c-.2-1.7-1-3.3-3.1-3.2-2.4.1-3.1 1.9-3.2 4 0 1.9.8 3.4 2.9 3.5 1.9.2 3.4-1.8 3.4-4.3M341.6 330.7c0 5.1-3.5 8.3-9.2 8.3-5.6 0-9-3.1-9-8.1.1-4.9 3.8-8.1 9.4-8.1 5.5-.1 8.8 3 8.8 7.9m-5.9-.4c-.1-1.7-.8-3.1-3-3.2-1.9-.1-3.2 1.6-3.3 3.9 0 2 .7 3.4 2.8 3.7 2 .2 3.5-1.7 3.5-4.4M413.2 330.5c0 5.1-3.4 8.3-9 8.4-5.6.1-9.2-2.9-9.2-7.7-.1-5 3.6-8.4 9.3-8.5 5.4 0 8.9 3 8.9 7.8m-5.9.4c0-2.1-.7-3.6-2.9-3.8-1.9-.2-3.3 1.5-3.4 3.8-.1 2.2 1.2 3.9 3 3.8 2.4-.2 3.1-1.9 3.3-3.8M419.4 323.2c2.8-.8 3.1.7 2.7 3-.3 1.5-.3 3.1-.3 4.6-.1 1.5.2 2.9 1.9 3.1 1.7.2 2.8-.9 3.1-2.5.4-2 .6-4.1.6-6.2 0-3.7 2.8-1.8 4.3-2.1 2.3-.4 1.5 1.4 1.5 2.5-.2 3.3-.3 6.5-.6 9.8-.1 1 .5 2.6-.8 2.8-1.5.3-3.6.8-4.6-.3-.9-.9-1.2-.6-1.8-.2-1.7 1.1-3.6 1.3-5.5.9-2.8-.5-4-1.9-3.9-4.6.1-2.7.5-5.5.4-8.2-.3-2.3.6-3.1 3-2.6M344.5 330c.1-1.1.1-2.2.2-3.3.2-3.5 1.6-4.4 5.1-3.6 1.1.3.9.9.9 1.6-.1 2.1-.3 4.2-.5 6.3-.1 1.5.3 2.9 2 3 1.6.2 2.7-.9 2.9-2.3.4-2.1.6-4.3.6-6.5.1-3.6 2.7-1.6 4.2-2 1.8-.4 1.7.9 1.7 2.1-.2 3.4-.4 6.9-.6 10.3-.1.9.4 2.5-.6 2.7-1.6.2-3.8.9-4.9-.4-1-1.2-1.2-.4-1.8-.1-1.4.9-2.9 1.1-4.4 1-3.6-.2-5-1.8-5-5.4 0-1.1.1-2.2.2-3.4M281.1 330.8c-.1 1.1-.1 2.2-.2 3.3-.2 5.1-1.1 5.6-5.8 3.3-.7-.3-1 .2-1.4.5-1.8 1.2-3.8 1.3-5.8.9-2.5-.5-3.9-1.9-3.8-4.6.1-3.2.4-6.4.5-9.5 0-1 .3-1.4 1.4-1.5 4.4-.5 4.7-.3 4.3 4.1-.1 1.2-.3 2.4-.3 3.5 0 1.5.2 3.1 2.1 3.3 1.7.2 2.7-1.1 3-2.6.3-2 .5-4 .5-6-.1-3.8 2.7-1.9 4.3-2.2 2.3-.4 1.6 1.3 1.5 2.4 0 1.6-.1 3.4-.3 5.1M160.4 327.1c-.3-2.9.9-3.8 3.4-4 2.5-.2 5.1-.6 7.6.1 2.2.6 3.3 1.9 3.2 4.1-.1 3.2-.3 6.4-.5 9.5-.2 3.4-2.8 1.1-4.2 1.6-1.7.5-1.6-.8-1.5-1.9.1-1.4 0-2.9 0-4.4-1.2 0-2.3.5-3.4.9-.6.3-1.2.7-1.1 1.4.1.8.7 1.2 1.5 1.4.6.1 1.7-.4 1.3 1-.2.8-.2 1.8-1.4 2.1-2.7.8-6.3-.7-7.1-3.1-.8-2.5.7-4.9 3.9-5.9 1.6-.5 3.2-.8 4.8-1.2.8-.2 1.7-.5 1.5-1.6-.2-1-1.1-1.1-2-1.1-2.1-.1-4 .8-6 1.1M206.3 327.1c-.5-2.9.9-3.9 3.4-4 2.5-.2 5-.6 7.6.1 2.1.5 3.2 1.8 3.1 3.9-.1 3.3-.3 6.5-.6 9.8-.3 3.3-2.8 1.1-4.3 1.6s-1.5-.8-1.4-1.8c.1-.9 0-1.8.2-2.7.2-1.5-.2-2.3-1.9-1.5-1.1.5-2.8.5-2.7 2.2.1 1.6 1.8 1 2.8 1.4-.3 1.6-.3 3-2.5 3.1-3.2.1-5.3-.9-6.1-3.1-.7-2.1 0-3.8 1.7-5 1.7-1.3 3.9-1.4 5.9-2 1.1-.3 2.8-.3 2.4-1.9-.3-1.4-1.9-1.1-3.1-.9-1.3 0-2.8.4-4.5.8M485.1 334.3c.1 4-.1 4.2-3.6 4.5-1.2.1-2.4.1-3.5 0-5.2-.3-7.8-2.9-7.8-7.6 0-5 3.1-8.2 8.1-8.5 5.1-.3 8.2 1.9 8.6 5.9.2 1.9-.2 2.9-2.4 2.7-2.2-.2-4.4-.1-6.6 0-.7 0-1.6-.3-1.8.8-.1.8.3 1.4.9 1.9 1.6 1.4 3.5 1.2 5.5.8.9-.2 1.7-.3 2.6-.5m-6.2-5c.7-.6 2.4.7 2.3-1.3-.1-1.2-1-1.9-2.3-1.8-1.3.1-2.4.8-2.4 2.1 0 1.6 1.6.5 2.4 1M391.9 333c0 2.5.1 5.1 0 7.6-.1 3.6-1.3 4.9-4.9 5.2-1.3.1-2.7-.2-4.1-.2-2.5 0-1.9-1.9-2.1-3.3-.2-2 1.3-.9 2-1 2.1-.2 3.1-1.4 3.2-3.4.2-4.3.5-8.5.4-12.8 0-3.4 2.4-1.8 3.8-2.1 1.8-.4 2.3.5 2.2 2.3-.2 2.5 0 5.1 0 7.6-.2.1-.4.1-.5.1M286 331.9c-.1-1.8 1.4-4.1-1.7-5.1-.3-.1-1.2-3 1.2-3.5.6-.1 1.2-.3 1.2-.9-.2-2.4 1.6-2.4 3.2-2.8 1.8-.5 2.8-.3 2.5 1.9-.2 1.3.3 1.9 1.6 1.8 1.6-.2 1.8.7 1.7 2-.1 1.3-.1 2.3-1.9 2.2-2.7-.2-1.6 2.1-1.8 3.3-.2 1.5-.5 3.2 1.6 3.8.6.2 2.2-1.1 1.8.9-.3 1.3.1 3-2 3.3-6.2.6-8.3-.5-7.4-6.9M193.3 327.9c0 2.6-.1 5.3 0 7.9.2 2.2-.6 2.7-2.7 2.8-2.5 0-3.7-.3-3.3-3.3.6-5 .6-10.1.7-15.2.1-3.7 2.8-1.8 4.3-2.1 2.1-.5 1.7 1.1 1.6 2.4-.1 2.5-.3 5.1-.4 7.6 0-.1-.1-.1-.2-.1M178.4 328.4c0-2.7.1-5.5 0-8.2-.1-2 .8-2.4 2.6-2.4 3.7.1 3.6 0 3.3 3.7-.3 4.9-.6 9.8-.7 14.7 0 3.5-2.5 1.9-4.1 2.2-2.1.4-2.1-1-2-2.5.2-2.5.3-5.1.5-7.6.2.1.3.1.4.1M367.5 338.3c-2.9.8-3-.8-2.8-3.1.3-2.9.4-5.8.4-8.7.1-3.3 2.1-4.8 5-3.3 1.3.7 1.8.2 2.6-.1.9-.4 2.1-1 2.8-.2.8 1 .4 2.4.4 3.7 0 1.5-1.2.7-1.8.8-2 .3-3.1 1.5-3.4 3.4-.3 1.5-.4 3.1-.3 4.6.3 2.5-.4 3.6-2.9 2.9M436.7 335v-8.2c0-3.7 1.4-4.9 4.8-3.6 1.4.6 2.1.3 3.2-.2.8-.4 1.9-.8 2.5 0 .7 1.1.4 2.5.4 3.7-.1 1.2-1.1.7-1.7.7-2 .3-3.1 1.5-3.5 3.3-.2 1.2-.3 2.5-.3 3.8-.1 3.8-1.1 4.6-4.8 3.7-2.3-.3-.3-2.2-.6-3.2M213 256.4h1.4c4.6 0 4.5 0 4.4 4.8-.1 2.1-.8 2.6-2.8 2.5-2.3-.2-4.5-.2-6.8 0-1.9.1-2.7-.3-2.6-2.5.3-4.8.1-4.8 4.8-4.7.5-.1 1.1-.1 1.6-.1" class="st1"/><path d="M68.5 282.9c-1.4-.2-2.4-.9-2.4-2.4 0-1.6.9-2.6 2.5-2.6s2.4 1 2.4 2.7c-.1 1.5-1.1 2.2-2.5 2.3M389.3 321c-.9-.4-2.7.8-2.7-1.5 0-2.5 1.7-1.9 3-1.8 1.1.1 2.9-.9 2.8 1.6 0 2.5-1.9 1.3-3.1 1.7" class="st1"/></g></svg>