<?xml version="1.0" encoding="utf-8"?>
<!-- Generator: Adobe Illustrator 26.3.1, SVG Export Plug-In . SVG Version: 6.00 Build 0)  -->
<svg version="1.1" id="Layer_1" xmlns="http://www.w3.org/2000/svg" xmlns:xlink="http://www.w3.org/1999/xlink" x="0px" y="0px"
	 viewBox="0 0 595.3 595.3" style="enable-background:new 0 0 595.3 595.3;" xml:space="preserve">
<style type="text/css">
	.st0{fill:#FFFFFF;}
</style>
<path class="st0" d="M297.6,595.3L297.6,595.3C133.3,595.3,0,462,0,297.6v0C0,133.3,133.3,0,297.6,0h0
	C462,0,595.3,133.3,595.3,297.6v0C595.3,462,462,595.3,297.6,595.3z"/>
<g id="FALICM.tif">
	<g>
		<path d="M314.2,237.8c1.7,0.9,1.3,2.6,1.3,4c0,20.4,0,40.9,0,61.3c0,4.8,0.7,5.8,5.4,7c1.6,0.4,2.5,1.1,2.3,2.9
			c-0.2,2-1.7,1.6-3,1.6c-8.7,0-17.5,0-26.2,0c-1.2,0-2.7,0.4-2.9-1.7c-0.1-1.9,0.7-2.3,2.4-2.7c4.8-0.9,5.4-1.6,5.4-6.4
			c0-17.2,0-34.3,0-51.5c0-5.3-1.5-7.4-6.6-8.4c-2-0.4-3.2-1.1-3-3.3c0.2-2.4,1.9-2.2,3.6-2.2c5.1-0.2,10.2,0.2,15.3-0.6
			C310.3,237.8,312.3,237.8,314.2,237.8z"/>
		<path d="M433.3,314.8c-15.2,0-30.3-0.1-45.5,0.1c-2.7,0-4.2-0.9-5.6-3c-6.3-9.3-12.9-18.5-19.8-27.5c-0.5-0.6-1-1.2-1.5-1.7
			c-0.5-0.6-1.1-1.2-1.9-0.9c-0.9,0.3-0.8,1.2-0.8,1.9c0,6.6-0.1,13.3,0.1,19.9c0.1,3.8,1.6,4.9,6.9,5.8c1.2,0.2,2.7-0.1,2.9,1.9
			c0.2,2.2-0.1,3.6-3,3.6c-11.2-0.2-22.5-0.1-33.7-0.1c-1.6,0-3,0.2-3.1-2.2c-0.1-2.3,0.8-3,3-3.2c6.9-0.6,7.7-1.5,7.7-8.5
			c0-15.9,0-31.7,0-47.6c0-6.1-1.1-7.3-7.2-8.3c-1.7-0.3-3.5-0.4-3.5-2.9c0-2.1,0.5-3.2,2.9-3.2c15.4,0.1,30.8-0.3,46.1,0.3
			c7.2,0.3,14.6,2.4,18.7,9.5c5.8,9.8,1.2,22.6-9.6,27.6c-5.3,2.4-5.4,2.5-1.8,6.9c6,7.3,10.9,15.5,17.7,22.1
			c4.3,4.2,13.1,5.7,18.6,3.2c1.9-0.9,2.8-2.2,2.8-4.3c0-5.4,0.1-10.9,0.1-16.3c0-11.4,0-22.8,0-34.2c0-6.5-1-7.6-7.4-8.7
			c-1.7-0.3-3.3-0.5-3.3-2.8c-0.1-2.1,0.4-3.2,2.9-3.2c20.1,0.1,40.2,0.1,60.2,0c2.1,0,2.9,0.7,2.9,2.8c-0.1,4.7,0,9.3,0,14
			c0,1.1,0.3,2.6-1.5,2.8c-1.5,0.2-3,0.3-3.8-1.6c-0.8-1.8-1.8-3.4-2.9-5.1c-3.3-5.1-7.9-7.8-14.3-7.4c-3.6,0.2-7.2-0.1-10.8-0.2
			c-1.9-0.1-2.7,0.4-2.6,2.5c0.1,7.9,0.1,15.9,0,23.8c0,2.1,0.5,3.1,2.7,2.8c4.5-0.5,9.2,0.4,13-3.2c2.3-2.3,2.8-5.3,3.8-8.1
			c0.5-1.3,0.7-2.7,2.7-2.7c1.8,0,2.8,0.3,2.8,2.5c-0.1,9.1,0,18.3,0,27.4c0,1.3-0.1,2.4-1.7,2.6c-1.5,0.1-2.8,0-3.4-1.7
			c-0.6-1.9-1.3-3.7-2-5.5c-1.3-3.3-3.7-5.2-7.2-5.8c-10.6-1.8-10.6-1.9-10.6,8.6c0,5.1,0,10.2,0,15.3c0.1,4.6,2,6.7,6.5,6.8
			c4.7,0.1,9.4,0,14.1-0.1c4-0.1,6.9-1.9,9-5.5c2.2-3.7,4.5-7.5,6.1-11.5c0.9-2.2,2.4-2,3.9-1.8c2.1,0.3,1.1,1.9,1.1,3.1
			c0,6-0.6,11.9-1.1,17.9c-0.2,2.5-1,3.3-3.5,3.3C464.1,314.7,448.7,314.8,433.3,314.8z M358.2,260c0,4.6,0,9.1,0,13.7
			c0,1.1-0.1,2.6,1.4,2.4c3.7-0.6,7.6-0.2,11-2.4c5.5-3.6,8.1-12.1,6.2-19.9c-1.5-5.8-5.8-8.8-13.3-9.3c-0.8-0.1-1.5-0.1-2.3-0.2
			c-2.2-0.4-3.1,0.3-3,2.7C358.3,251.3,358.2,255.7,358.2,260z"/>
		<path d="M55.2,314.8c-5.6,0-11.1,0-16.7,0c-1.5,0-2.8,0-2.9-2.1c0-1.9,1.1-2.1,2.5-2.1c1-0.1,1.9-0.2,2.9-0.3
			c3.9-0.5,5.2-1.7,5.2-5.7c0-16.3,0-32.6,0-48.9c0-3.7-1.4-4.9-5.9-6c-1.8-0.5-5.1,0.4-4.5-3.1c0.5-3.2,3.4-1.5,5.1-1.5
			c10.3-0.2,20.5-0.1,30.8-0.1c1.2,0,3-0.7,3.1,1.7c0.1,2.2-1.2,2.3-2.9,2.6c-7.1,1.1-7.7,1.9-7.7,9c0,5,0.1,10,0,15
			c0,2,0.4,3,2.7,3c8.2-0.1,16.4-0.1,24.6,0c1.8,0,2.6-0.5,2.6-2.4c-0.1-5.8,0.1-11.5-0.1-17.3c-0.1-4.4-1.5-5.9-5.8-6.9
			c-0.8-0.2-1.7-0.4-2.6-0.5c-1.7-0.2-1.6-1.5-1.6-2.7c0-1.4,1-1.5,2-1.5c11.6,0,23.1,0,34.7,0c1.1,0,1.9,0.4,1.8,1.7
			c-0.1,1.1,0,2.3-1.5,2.4c-0.1,0-0.2,0-0.3,0c-8.2,2-8.2,2-8.2,10.3c0,14.7,0,29.3,0,44c0,4.6,1.3,6.1,6,6.8c0.3,0,0.7,0,1,0.1
			c1.6,0.3,3.3,0.4,3,2.8c-0.3,2.3-2,1.6-3.2,1.7c-9.8,0-19.6,0-29.5,0c-1.1,0-2.2,0-3.3,0c-1.5,0.1-2.6-0.2-2.6-2.1
			c0-1.6,0.8-2.1,2.2-2.2c1.1-0.1,2.2-0.2,3.2-0.4c2.6-0.3,4.4-1.6,4.4-4.3c0.1-7.5,0.1-15,0.2-22.5c0-1.4-0.8-1.8-2.1-1.8
			c-8.5,0-17,0-25.5,0c-1.5,0-2.1,0.6-2.1,2.1c0,6.8-0.1,13.7,0.1,20.5c0.1,3.4,2.2,5.4,5.8,5.9c1,0.1,1.9,0.2,2.9,0.3
			c1.6,0.2,1.8,1.2,1.8,2.6c0,1.5-0.9,1.8-2.1,1.8C66.8,314.7,61,314.7,55.2,314.8z"/>
		<path d="M534.5,244.2c-8.7,0-16.5-0.4-24.3,0.8c-4.5,0.7-6.6,4.3-8.8,7.7c-1.6,2.5-3.1,5-4.3,7.7c-1,2.2-2.7,1.9-4.4,1.7
			c-2.1-0.3-1.2-2-1.2-3.1c0.4-5.6,1-11.2,1.4-16.9c0.2-2.7,1.7-3.2,4.1-3.2c19.1,0.1,38.2,0,57.3,0.1c1.1,0,2.8-0.6,3.3,0.7
			c0.5,1.5,0.4,3.1-0.7,4.6c-3.2,4.4-6.3,8.9-9.4,13.3c-8.8,12.5-17.5,25.1-26.3,37.6c-3,4.3-6.1,8.5-9.2,12.6
			c-1.2,1.6-1,2.2,1.1,2.3c8.6,0.3,17.2-0.4,25.8-0.8c5.1-0.3,7.2-4.4,9.7-7.9c2.3-3.2,3.9-6.8,5.4-10.4c0.8-2,2.1-2.6,4-2.3
			c2.3,0.4,1.3,2.2,1.2,3.4c-0.5,6.6-1.3,13.1-1.9,19.7c-0.2,2.1-0.8,2.9-3.1,2.9c-21.4-0.1-42.8-0.1-64.1-0.1
			c-1.1,0-2.4,0.3-2.9-0.9c-0.5-1.2,0-2.3,0.7-3.3c10.2-14.4,20.3-28.8,30.4-43.1C523.5,259.9,528.7,252.4,534.5,244.2z"/>
		<path d="M158.7,263.8c9-0.7,16.6,2.6,22.9,9.2c10.1,10.5,9.3,34.9-11.2,41.8c-10.8,3.6-21.5,3.3-31.1-3.7
			c-8.4-6.1-10.5-14.9-9.7-24.8C130.7,273.8,143.5,262.5,158.7,263.8z M168.8,291.1c0.2-5.8-0.2-11.2-1.9-16.4
			c-1.5-4.4-3.9-6.1-7.8-6.2c-4.3-0.1-7.4,1.6-8.8,5.9c-3.4,10.6-3.4,21.4,0.1,32c1.4,4.4,4.4,5.9,9.1,5.7c3.5-0.1,6.1-2.2,7.4-6.3
			C168.4,301,169.1,295.9,168.8,291.1z"/>
		<path d="M269.8,288c-4.7,0-9.4,0-14.1,0c-1.1,0-2.4-0.2-2.3,1.5c0.2,5.2,0.9,10.1,4.3,14.3c4.1,5.1,18.2,5.9,24.1-1.7
			c1-1.4,2-2.5,4-1.2c1.8,1.2,2.2,2.3,0.8,4.2c-5.5,7.3-12.7,11.2-21.9,11.6c-8.7,0.3-16.7-1.6-23.1-7.9
			c-10.2-10.1-9.6-29.1,2.8-39.3c9.3-7.7,28-7.4,35.1-1c5.3,4.8,7.2,10.6,7.2,17.4c0,1.9-1.1,2.1-2.6,2.1
			C279.4,288,274.6,288,269.8,288z M260.9,283.8C260.9,283.8,260.9,283.8,260.9,283.8c2,0,3.9,0,5.9,0c1.3,0,2-0.6,1.9-2
			c-0.3-3.1-0.7-6.2-1.7-9.2c-0.7-2.1-2-3.9-4.5-4.1c-2.7-0.2-4.9,0.6-6.4,3c-1.3,2.1-1.8,4.4-2.2,6.7c-0.9,5.5-0.9,5.5,4.8,5.5
			C259.3,283.8,260.1,283.8,260.9,283.8z"/>
		<path d="M199.3,288.5c0-4.7-0.1-9.3,0-14c0-2.1-0.5-3.1-2.8-2.7c-0.7,0.1-1.5-0.1-2.3,0c-2.3,0.3-3.5-0.2-3.5-3.1
			c0-2.9,1.4-3.2,3.6-3c0.9,0.1,1.7,0,2.6,0c1.8,0.1,2.6-0.5,2.5-2.4c-0.1-3.1,0-6.3-0.1-9.5c-0.1-1.9,0.5-2.8,2.5-2.8
			c4,0.1,8.1,0.1,12.1,0c1.9,0,2.8,0.7,2.7,2.7c-0.1,2.8,0.2,5.7-0.1,8.5c-0.3,3,0.9,3.8,3.7,3.6c2.5-0.2,5,0,7.5-0.1
			c2.5-0.1,2.4,1.5,2.5,3.3c0,1.7-0.2,3-2.4,2.8c-2.9-0.1-5.9,0-8.8-0.1c-1.6,0-2.4,0.3-2.4,2.1c0.1,8.9-0.1,17.8,0.2,26.7
			c0.2,5.8,1.8,7.1,7.7,7c1.2,0,2.4-0.1,3.6-0.1c1.1,0,2.7-0.6,2.8,1.2c0.1,1.5,0.6,3.3-1.3,4.3c-6.4,3.3-13.1,4.9-20.2,3.1
			c-6.8-1.7-9.9-6.1-10.2-13.7c0-0.2,0-0.4,0-0.7C199.3,297.4,199.3,292.9,199.3,288.5z"/>
		<path d="M475.8,346.2c0-3,0-6.1,0-9.1c0-1.5,0.6-2.1,2.1-2.1c2.9,0.1,5.9-0.1,8.8,0.1c2.4,0.2,4.6,1.1,5.4,3.5
			c0.7,2.2,0.7,4.5-1.2,6.3c-0.7,0.6-1.4,1.2-0.6,2.1c2.1,2.4,1.1,5.4,1.9,8.1c0.2,0.8,0.6,1.8-0.8,2c-1.3,0.2-2.1-0.2-2.3-1.6
			c-0.1-1.6-0.2-3.3-0.5-4.9c-0.6-3.2-7.1-5.6-9.7-3.5c-0.6,0.5-0.6,1.1-0.6,1.8c0,1.5,0.1,3.1-0.1,4.6c-0.2,1.3,1.1,3.7-1.3,3.6
			c-2.2-0.1-1.1-2.4-1.2-3.7C475.6,351,475.8,348.6,475.8,346.2z M482.3,344.8c1.8,0,3.5,0.1,5-0.7c2.2-1.1,3-3.7,1.5-5.7
			c-1-1.3-8.7-2.3-9.9-1.3c-0.2,0.1-0.4,0.3-0.4,0.5c0,2.2-0.4,4.4,0.2,6.4C479.1,345.6,481.2,344.5,482.3,344.8z"/>
		<path d="M331.7,345.9c0-2.8,0.1-5.6,0-8.5c-0.1-1.8,0.5-2.6,2.4-2.5c2.6,0.1,5.2,0,7.8,0.1c2.6,0.1,4.7,1.2,5.8,3.5
			c1.2,2.3,0.6,4.5-1.2,6.3c-0.9,1-0.9,1.7-0.3,2.9c1.1,2.4,1.3,5,1.6,7.6c0.1,0.8,0.7,1.8-0.8,1.9c-1.4,0.1-2-0.4-2.1-1.8
			c-0.1-1.4-0.5-2.8-0.6-4.2c-0.2-3.4-2.1-4.4-5.2-4.4c-4.8,0-4.8,0-4.8,4.6c0,1.4,0,2.8,0,4.2c0,0.8-0.3,1.5-1.3,1.5
			c-1,0-1.2-0.7-1.3-1.5c0-0.1,0-0.2,0-0.3C331.7,352.2,331.7,349.1,331.7,345.9z M338.9,337c-5.1,0.1-4.5-1-4.6,4.7
			c0,0.6,0,1.3,0,1.9c0,0.8,0.4,1.2,1.2,1.2c2.4-0.1,4.8,0.4,7.1-0.4c1.9-0.7,2.7-2,2.5-4c-0.2-2-1.5-3-3.4-3.4
			C340.9,336.9,339.9,337,338.9,337z"/>
		<path d="M284.5,350.1c0.3-0.8,0.4-1.2,0.5-1.6c0.2-0.8,0.2-1.9,1.5-1.7c1.4,0.2,1,1.5,1,2.3c-0.4,4.6-0.5,4.6,1.7,7.6
			c-0.1,0.1-0.3,0.4-0.3,0.4c-3.6-2.2-7.2,0-10.8,0.1c-3.4,0.1-5.7-1.4-6.8-4.5c-1.1-2.9,0.2-5.4,2.4-7.2c1.7-1.3,2-2.2,0.9-4.2
			c-1.1-2.1-0.8-4.6,1.7-5.9c2.1-1.1,4.4-1.1,6.3,0.8c1.8,1.9,1.5,3.9,0.2,5.9c-0.7,1.1-2.6,1.6-2.2,2.9
			C281,347.1,282.5,348.7,284.5,350.1z M278.4,355.3c1.5-0.3,3.1-0.8,3.9-2c0.9-1.4-0.7-2.3-1.4-3.3c-0.7-1-1.5-1.8-2.3-2.7
			c-0.7-0.8-1.5-1.3-2.5-0.6c-1.8,1.3-3,3-2.4,5.2C274.3,354.3,276.2,355,278.4,355.3z M278.6,342.8c1.5-0.7,2.8-1.7,2.7-3.4
			c0-1.4-1.1-2.5-2.6-2.4c-1.7,0.1-2.6,1.3-2.3,2.9C276.6,341.2,277,342.5,278.6,342.8z"/>
		<path d="M84.5,335c6.2,0,10.6,4.6,10.3,11.2c-0.3,7.4-5.3,11.1-10.5,11.2c-6.2,0.1-10.5-5.6-10.4-11.6
			C73.8,339.6,78.5,334.2,84.5,335z M91.9,345.4c0-2.8-0.9-6-4.6-7.7c-3.5-1.7-7.6-0.2-9.4,3.2c-2.5,4.9-1,11.4,3.1,13.5
			C86.4,357.1,91.6,353.2,91.9,345.4z"/>
		<path d="M446.5,357.3c-5.8,0.8-10.4-4.9-10.4-11.5c0-6.2,4.7-11.3,10.7-10.9c6.2,0.4,10.1,4.3,10.2,11
			C457.1,352.8,452.9,357.3,446.5,357.3z M454.2,345c-0.1-2.6-1.1-5.7-4.6-7.3c-3.5-1.7-7.7-0.2-9.4,3.2c-2.5,5-1,11.4,3.1,13.5
			C448.8,357.2,454.3,352.9,454.2,345z"/>
		<path d="M54.2,346.3c0,3,0,6.1,0,9.1c0,0.8,0.2,1.8-1.2,1.8c-1.2,0-1.4-0.8-1.4-1.8c0-2.1-0.1-4.1,0-6.2c0.1-1.6-0.5-2.4-2.2-2.4
			c-2.6,0.1-5.2,0.1-7.9,0c-1.7,0-2.3,0.8-2.3,2.4c0.1,2.1,0,4.1,0,6.2c0,0.9,0,1.8-1.3,1.7c-1.2,0-1.4-0.8-1.4-1.8
			c0-6.2,0-12.4,0-18.6c0-1.1,0.3-1.9,1.7-1.8c1.4,0.1,1,1.2,1.1,2c0.3,2.5-1.2,6.5,0.7,7.3c2.8,1.3,6.6,0.4,10,0.5
			c1.3,0,1.6-0.7,1.6-1.9c0-2.1,0-4.1,0-6.2c0-1,0.2-1.7,1.4-1.7c1.4,0,1.2,1,1.2,1.8C54.2,340,54.2,343.1,54.2,346.3z"/>
		<path d="M409.1,357.3c-3.4,0.1-6.3-0.7-7.8-4c-0.4-0.8-0.9-2,0.3-2.5c1.1-0.5,1.4,0.5,1.9,1.2c2.4,3.3,4.9,4.1,8.4,2.8
			c1.4-0.5,2.7-1.1,2.8-2.8c0.1-1.7-0.7-2.8-2.2-3.6c-1.9-1-4-1.5-6.1-2.1c-3.8-1.1-5.4-3.1-5-6.1c0.4-2.9,3-4.9,6.6-5
			c2.2,0,4.4-0.3,6.3,1c0.9,0.6,1.7,1.4,2,2.5c0.2,0.8,0.5,1.8-0.5,2.3c-1.3,0.6-1.6-0.4-2.1-1.3c-1.5-2.5-3.9-3-6.5-2.3
			c-1.5,0.4-2.7,1.3-2.7,3.2c0,1.9,0.7,3.1,2.5,3.6c1.7,0.5,3.3,1,5,1.5c3.9,1.2,5.7,3.4,5.2,6.6c-0.5,3.2-2.9,5-6.9,5.2
			C410,357.3,409.5,357.3,409.1,357.3z"/>
		<path d="M551.9,335c2.8-0.2,5.3,0.5,6.6,3.4c0.4,0.9,0.6,2-0.6,2.5c-1.1,0.5-1.5-0.3-1.8-1.2c-0.9-2.2-2.8-2.9-5-2.8
			c-2,0.1-4,0.7-4.4,3.1c-0.4,2.5,1.2,3.5,3.2,4.1c1.9,0.6,3.8,1,5.6,1.6c2.5,0.9,4,2.7,4,5.4c0,2.6-1.2,4.5-3.8,5.5
			c-4.6,1.8-10.2,0.4-12.2-3.3c-0.5-0.8-1.2-1.9-0.1-2.6c1.2-0.8,1.8,0,2.5,1.1c2.1,3.4,5.2,4.2,8.7,2.6c1.3-0.6,2.3-1.3,2.3-2.9
			c0-1.4-0.7-2.5-1.9-3.2c-1.9-1.1-4-1.7-6-2.3c-4.1-1.2-5.7-3-5.3-6.2c0.4-3,3.1-4.9,7-5C551.2,335,551.5,335,551.9,335z"/>
		<path d="M367.5,346.2c0-3,0-6.1,0-9.1c0-1.2,0.2-2.1,1.8-2.1c4,0.1,8.1,0,12.1,0c0.6,0,1.5-0.1,1.5,0.8c0.1,1-0.8,1.1-1.6,1.1
			c-2.8,0-5.7,0.2-8.5,0c-2.2-0.1-3,0.7-2.7,2.8c0.1,0.8,0.1,1.5,0,2.3c-0.3,2.3,0.7,3.1,2.9,2.9c2.2-0.2,4.4-0.1,6.5,0
			c0.8,0,2-0.2,2.1,1c0.1,1.3-1.2,1-1.9,1.1c-2.2,0.1-4.4,0.1-6.5,0c-2.2-0.1-3.2,0.6-3.1,2.9c0.1,6.6-0.4,5.4,5.3,5.5
			c2.2,0,4.4,0,6.5,0.1c0.7,0,1.3,0.4,1.2,1.2c-0.1,0.7-0.7,0.7-1.2,0.7c-4.3,0-8.5,0-12.8,0c-1.6,0-1.6-1.1-1.6-2.2
			C367.5,352.1,367.5,349.1,367.5,346.2z"/>
		<path d="M219.4,357.3c-3,0.2-5.6-0.8-7.2-3.7c-0.5-0.8-1.5-1.9-0.1-2.8c1.4-0.8,1.8,0.3,2.4,1.3c2,3.3,5.3,4.1,8.7,2.3
			c2.5-1.3,2.8-4,0.5-5.8c-1.9-1.4-4.1-1.8-6.3-2.5c-3.8-1.1-5.6-3.3-5.2-6c0.5-3.1,3.1-5,6.9-5.2c3-0.1,5.7,0.1,7.5,2.9
			c0.6,0.9,1.1,2.1-0.1,2.9c-1.5,1-1.6-0.5-2.2-1.4c-1.5-2.5-3.8-3-6.5-2.2c-1.5,0.5-2.7,1.4-2.8,3.2c-0.1,1.9,1,2.8,2.5,3.4
			c1.6,0.6,3.3,1,5,1.5c4.1,1.3,5.9,3.6,5.4,6.9c-0.5,3.1-3.1,4.9-7.1,5C220.3,357.3,220,357.3,219.4,357.3z"/>
		<path d="M145.7,345.8c0-2.7,0.1-5.4,0-8.1c-0.1-1.9,0.5-2.7,2.6-2.7c3.7,0.1,7.4,0,11.1,0c0.7,0,1.8-0.2,1.7,0.9c0,1-0.9,1-1.7,1
			c-2.8,0-5.7,0.1-8.5,0c-2.1-0.1-2.6,0.7-2.6,2.6c-0.1,5.3-0.2,5.3,5.1,5.3c1.3,0,2.6-0.1,3.9,0c1,0.1,2.6-0.5,2.6,1.1
			c0,1.4-1.5,0.9-2.4,0.9c-2.2,0.1-4.4,0.1-6.5,0c-2.1-0.1-2.8,0.8-2.6,2.7c0,0.1,0,0.2,0,0.3c0.1,6.5-0.5,5.3,5.3,5.4
			c2.1,0,4.1,0,6.2,0c0.7,0,1.4,0.2,1.5,1c0.1,0.9-0.8,0.9-1.4,0.9c-4.1,0-8.3,0-12.4,0c-1.7,0-1.9-1.1-1.9-2.4
			C145.7,351.8,145.7,348.8,145.7,345.8z"/>
		<path d="M516.5,346.8c0-1.4,0-2.8,0-4.2c0-5.1,0-5.1-5-5.6c-0.8-0.1-1.7-0.1-1.8-1c0-1.1,1-0.9,1.7-0.9c4.4,0,8.7,0,13.1,0
			c0.7,0,1.7-0.1,1.6,1c-0.1,1-1.1,0.9-1.8,0.9c-5,0.5-5,0.5-4.9,5.4c0,4.2,0,8.5,0,12.7c0,0.9,0.3,2.1-1.3,2.1
			c-1.6,0-1.6-1.1-1.6-2.2C516.5,352.3,516.5,349.6,516.5,346.8z"/>
		<path d="M119,346.9c0-1.3,0-2.6,0-3.9c0-1.7,0.5-3.7-0.2-5.1c-0.9-1.8-3.1-0.5-4.7-0.8c-0.6-0.1-1.4-0.1-1.4-0.9
			c-0.1-1.2,0.9-1,1.6-1c4.4,0,8.7,0,13.1,0c0.6,0,1.5,0,1.6,0.8c0.1,1-0.9,1-1.6,1.1c-1.7,0.3-3.9-0.8-5,0.6
			c-1.1,1.5-0.3,3.8-0.4,5.7c-0.1,3.9,0,7.8,0,11.7c0,0.9,0.3,2.1-1.2,2.2c-1.6,0.1-1.6-1.1-1.6-2.2C119,352.3,119,349.6,119,346.9z
			"/>
		<path d="M183.7,345.4c0,2.5,0.1,5,0,7.5c-0.1,1.9,0.7,2.5,2.5,2.4c2.4-0.1,4.8,0,7.2,0c0.8,0,1.6,0.2,1.6,1.2
			c-0.1,0.9-0.9,0.8-1.5,0.8c-3.5,0-7,0-10.5,0c-1.3,0-2-0.5-2-1.9c-0.1-5.8-0.3-11.7-0.3-17.5c0-1.1-0.2-3,1.8-2.8
			c1.9,0.2,1.1,1.8,1.2,2.9C183.8,340.4,183.7,342.9,183.7,345.4z"/>
	</g>
</g>
</svg>
