<?xml version="1.0" encoding="utf-8"?>
<!-- Generator: Adobe Illustrator 26.3.1, SVG Export Plug-In . SVG Version: 6.00 Build 0)  -->
<svg version="1.1" id="Layer_1" xmlns="http://www.w3.org/2000/svg" xmlns:xlink="http://www.w3.org/1999/xlink" x="0px" y="0px"
	 viewBox="0 0 595.3 595.3" style="enable-background:new 0 0 595.3 595.3;" xml:space="preserve">
<style type="text/css">
	.st0{fill:#FFFFFF;}
	.st1{fill:#53AEE4;}
	.st2{fill:#263E7A;}
</style>
<path class="st0" d="M297.6,595.3L297.6,595.3C133.3,595.3,0,462,0,297.6l0,0C0,133.3,133.3,0,297.6,0l0,0
	C462,0,595.3,133.3,595.3,297.6l0,0C595.3,462,462,595.3,297.6,595.3z"/>
<g>
	<path class="st1" d="M501.2,456.6c1.3,22.6-17,50.9-50.9,51.5c-23.9,0-49-19.5-50.3-49.6c-0.6-27,21.4-50.3,49-51.5
		C474.2,405,501.8,427.7,501.2,456.6z"/>
	<path class="st2" d="M369.3,325.9c-10.1-18.2-25.1-30.8-43.4-40.2c-3.8-1.9-3.1-2.5-0.6-5c6.3-5,12.6-10.1,17.6-16.3
		c18.9-23.3,26.4-50.3,23.9-80.4c-3.1-29.5-16.3-54-40.9-71.6c-23.9-17-50.9-23.9-79.8-24.5c-36.5-0.6-72.3-0.6-108.7,0
		c-19.5,0-35.8,12.6-41.5,31.4c-0.6,1.3,0,3.1-1.9,3.8c0,127,0,253.3,0,380.2c47.1,0,93.6,0,140.8,0c14.5,0,28.3-0.6,42.7-3.1
		c24.5-4.4,47.1-13.2,66.6-29.5c26.4-22.6,38.3-51.5,39-85.5C383.1,363.6,378.7,344.1,369.3,325.9z M174.5,215.9
		c0-10.1,0-20.7,0-30.8c0-1.3,0-3.1,0-4.4c1.3-14.5,8.8-22.6,22.6-23.9c15.7-0.6,30.8-1.3,46.5,0c30.2,2.5,42.7,29.5,40.2,52.8
		c-1.9,15.1-6.9,28.3-20.1,37.7c-8.2,5.7-17,7.5-26.4,7.5c-19.5,0-39.6,0-59.1,0c-3.8,0-4.4-1.3-4.4-4.4
		C174.5,239.1,174.5,227.2,174.5,215.9z M289.5,410.7c-9.4,13.8-23.9,20.1-39.6,20.1c-23.9,0.6-47.8,0-71.6,0
		c-3.1,0-3.8-0.6-3.8-3.8c0-13.8,0-27,0-45.9c0.6-9.4-1.3-23.9,0.6-38.3c1.3-14.5,9.4-22.6,24.5-23.3c17-0.6,34.6-0.6,51.5,0.6
		c28.3,2.5,47.1,21.4,49,49.6C300.8,384.9,298.3,398.8,289.5,410.7z"/>
</g>
</svg>
