<?xml version="1.0" encoding="utf-8"?>
<!-- Generator: Adobe Illustrator 26.3.1, SVG Export Plug-In . SVG Version: 6.00 Build 0)  -->
<svg version="1.1" id="Layer_1" xmlns="http://www.w3.org/2000/svg" xmlns:xlink="http://www.w3.org/1999/xlink" x="0px" y="0px"
	 viewBox="0 0 595.3 595.3" style="enable-background:new 0 0 595.3 595.3;" xml:space="preserve">
<style type="text/css">
	.st0{fill:#FFFFFF;}
	.st1{fill:#53AEE4;}
	.st2{fill:#263E7A;}
</style>
<path class="st0" d="M297.6,595.3L297.6,595.3C133.3,595.3,0,462,0,297.6v0C0,133.3,133.3,0,297.6,0h0
	C462,0,595.3,133.3,595.3,297.6v0C595.3,462,462,595.3,297.6,595.3z"/>
<g>
	<path class="st1" d="M487.3,298.6c0-7.7,0-15.4,0-23.1c0-0.7,0.2-0.9,0.9-0.8c1.8,0.1,3.5,0,5.3,0c1.2,0,2.4,0.3,3.6,0.8
		c1.6,0.7,2.4,2,2.9,3.5c0.2,0.5,0.1,1.2,0.5,1.3c0.4,0.1,0.6-0.6,0.9-0.9c4-4.1,8.7-6.2,14.5-5.7c3.3,0.3,6.4,1.3,8.8,3.6
		c1.2,1.1,2.1,2.5,2.9,3.9c0.3,0.5,0.4,0.5,0.8,0c3.3-4.2,7.6-6.8,13-7.5c3.1-0.4,6.1-0.1,9,1c4,1.5,6.5,4.5,7.9,8.5
		c0.9,2.8,1.3,5.7,1.3,8.6c0,10,0,19.9,0,29.9c0,0.7-0.2,0.8-0.9,0.8c-1.9,0-3.7,0-5.6,0c-1.1,0-2.1-0.2-3.2-0.5
		c-2.2-0.7-3.5-2.5-3.7-5.2c-0.2-2.2-0.1-4.4-0.1-6.6c0-5.7,0-11.5,0-17.2c0-1.1-0.1-2.2-0.4-3.3c-0.7-2.8-2.6-3.9-5.5-3.7
		c-3.7,0.3-6.2,2.4-7.9,5.5c-1.7,2.9-2.3,6.1-2.4,9.4c0,6.9,0,13.8,0,20.8c0,0.9,0,0.9-1,0.9c-3.9,0-7.7,0-11.6,0
		c-0.7,0-0.8-0.2-0.8-0.8c0-9.1,0-18.3,0-27.4c0-2-0.2-3.9-1.2-5.7c-1.2-2.1-3.3-2.8-5.4-2.6c-3.2,0.3-5.3,2.2-6.8,4.7
		c-1.8,2.9-2.6,6.1-2.8,9.5c-0.3,7.1-0.1,14.3-0.1,21.5c0,1.1,0.1,1-1,1c-3.7,0-7.4,0-11.2,0c-0.7,0-0.9-0.1-0.9-0.9
		C487.3,314,487.3,306.3,487.3,298.6C487.3,298.6,487.3,298.6,487.3,298.6z"/>
	<path class="st2" d="M238.9,322.6c-4.4,0-8.7,0.2-13.1-0.1c-2.2-0.2-4-1.3-5.1-3.2c-2.7-4.7-5.2-9.6-7.7-14.4
		c-0.8-1.5-1.8-2.1-3.4-2.1c-1.5,0-1.5-0.1-1.5,1.4c0,5.9,0,11.8,0,17.7c0,0.6-0.1,0.7-0.7,0.7c-4.2,0-8.4,0-12.5,0
		c-0.6,0-0.7-0.2-0.7-0.7c0-21.6,0-43.2,0-64.9c0-0.3-0.1-0.7,0.4-0.7c2.8,0.1,5.5-0.1,8.3,0.1c3.3,0.3,5.1,2.2,5.2,5.6
		c0,6.4,0,12.7,0,19.1c0,3,0,6,0,8.9c0,0.6,0.1,0.8,0.8,0.7c0.9-0.1,1.8,0,2.6-0.1c1-0.2,1.7-0.8,2.3-1.6c2.9-4.5,5.9-9,8.7-13.5
		c0.4-0.6,0.8-0.8,1.5-0.8c4.6,0,9.3,0,13.9,0c0.2,0,0.5-0.1,0.7,0.1c0.1,0.2-0.2,0.4-0.3,0.6c-3.6,5.4-7.3,10.8-10.9,16.2
		c-1.1,1.7-2.2,3.3-3.6,4.8c-0.2,0.2-0.2,0.3-0.1,0.5c2.1,2.3,3.3,5.2,4.7,7.9c1.9,3.7,4,7.2,6.2,10.8c1.3,2.2,2.7,4.4,4,6.6
		C238.7,322.2,238.8,322.3,238.9,322.6z"/>
	<path class="st2" d="M264.3,298.6c0-7.7,0-15.4,0-23.1c0-0.7,0.2-0.9,0.9-0.8c1.8,0,3.5,0,5.3,0c0.9,0,1.9,0.1,2.8,0.3
		c2.3,0.5,3.6,1.9,4.4,4c0.3,1,0.3,1,1.1,0.2c4.4-4.3,9.7-6,15.8-5.6c2.7,0.2,5.4,0.8,7.8,2.1c3.7,2.1,5.7,5.4,6.8,9.4
		c0.8,2.8,0.7,5.7,0.7,8.7c0,7.3,0,14.7,0,22c0,2,0.1,4.1,0.1,6.1c0,0.5-0.1,0.7-0.6,0.7c-2.4-0.1-4.7,0.1-7.1-0.1
		c-4.1-0.3-6.2-2.5-6.2-6.6c0-7,0-14,0-21c0-1.1,0-2.2-0.2-3.3c-0.6-4.2-2.6-5.3-6.2-5.2c-4.8,0.1-8.6,3-10.3,7.5
		c-1,2.6-1.1,5.4-1.1,8.1c0,6.6,0,13.2,0,19.8c0,0.6-0.1,0.7-0.7,0.7c-4.1,0-8.3,0-12.4,0c-0.6,0-0.8-0.2-0.8-0.8
		C264.3,314,264.3,306.3,264.3,298.6z"/>
	<path class="st1" d="M424.3,291.2c-1.1,0-2.1,0-3.2,0c-2.3,0-3.6-1.3-4.3-3.2c-0.5-1.2-1.2-1.9-2.3-2.2c-4.3-1.3-8.3-0.5-11.7,2.4
		c-3.6,3.1-4.7,7.2-4.4,11.7c0.2,2.5,0.9,4.8,2.5,6.9c2.5,3.2,5.8,4.7,9.8,5c5.2,0.3,9.4-1.8,13.2-5.1c0.4-0.4,0.8-0.7,1.2-1.1
		c0.4-0.5,0.7-0.4,1,0.1c1.5,2.5,3,5,4.5,7.5c0.9,1.5,0.9,1.5-0.3,2.7c-3.5,3.4-7.7,5.7-12.4,6.9c-5.8,1.4-11.5,1.3-17-0.8
		c-8.1-3.1-13.3-8.8-15.2-17.3c-1.7-7.3-0.5-14.2,3.8-20.5c2.6-3.8,6.2-6.6,10.6-8.3c4-1.7,8.3-2.3,12.6-2.1c4.3,0.3,8.4,1.2,12,3.7
		c2.7,1.8,4.2,4.3,4.2,7.6c0,1.9,0,3.8,0,5.7c0,0.4-0.2,0.5-0.5,0.5C426.8,291.2,425.5,291.2,424.3,291.2
		C424.3,291.2,424.3,291.2,424.3,291.2z"/>
	<path class="st2" d="M242.7,298.5c0-5.4,0-10.9,0-16.3c0-2.3,0-4.6-0.1-7c0-0.5,0.1-0.7,0.6-0.6c1.9,0,3.8,0,5.7,0
		c1.1,0,2.1,0.2,3.1,0.4c2.6,0.5,3.9,2.7,4.3,5c0.1,0.7,0.1,1.4,0.1,2.1c0,12.5,0,25,0,37.6c0,0.7-0.1,1.4,0,2.1
		c0.1,0.6-0.2,0.8-0.8,0.8c-3.5,0-7.1,0-10.6,0c-0.6,0-1.1,0-1.7,0c-0.5,0-0.7-0.1-0.7-0.7c0-3.7,0-7.5,0-11.2
		C242.8,306.6,242.8,302.6,242.7,298.5C242.8,298.5,242.8,298.5,242.7,298.5z"/>
	<path class="st2" d="M249.1,270.2c-4.4,0-8.1-3.6-8-8.2c0.1-4.2,3.6-7.9,8-7.9c4.5,0,8.1,3.6,8.1,8.1
		C257.2,266.3,253.8,270.3,249.1,270.2z"/>
	<path class="st1" d="M382.8,315c0.2,3.6-2.7,8.1-8.1,8.2c-3.8,0-7.8-3.1-8-7.9c-0.1-4.3,3.4-8,7.8-8.2
		C378.5,306.8,382.9,310.4,382.8,315z"/>
	<path class="st2" d="M79.5,294.2c-1.6-2.9-4-4.9-6.9-6.4c-0.6-0.3-0.5-0.4-0.1-0.8c1-0.8,2-1.6,2.8-2.6c3-3.7,4.2-8,3.8-12.8
		c-0.5-4.7-2.6-8.6-6.5-11.4c-3.8-2.7-8.1-3.8-12.7-3.9c-5.8-0.1-11.5-0.1-17.3,0c-3.1,0-5.7,2-6.6,5c-0.1,0.2,0,0.5-0.3,0.6
		c0,20.2,0,40.3,0,60.5c7.5,0,14.9,0,22.4,0c2.3,0,4.5-0.1,6.8-0.5c3.9-0.7,7.5-2.1,10.6-4.7c4.2-3.6,6.1-8.2,6.2-13.6
		C81.7,300.2,81,297.1,79.5,294.2z M48.5,276.7c0-1.6,0-3.3,0-4.9c0-0.2,0-0.5,0-0.7c0.2-2.3,1.4-3.6,3.6-3.8c2.5-0.1,4.9-0.2,7.4,0
		c4.8,0.4,6.8,4.7,6.4,8.4c-0.3,2.4-1.1,4.5-3.2,6c-1.3,0.9-2.7,1.2-4.2,1.2c-3.1,0-6.3,0-9.4,0c-0.6,0-0.7-0.2-0.7-0.7
		C48.5,280.4,48.5,278.5,48.5,276.7z M66.8,307.7c-1.5,2.2-3.8,3.2-6.3,3.2c-3.8,0.1-7.6,0-11.4,0c-0.5,0-0.6-0.1-0.6-0.6
		c0-2.2,0-4.3,0-7.3c0.1-1.5-0.2-3.8,0.1-6.1c0.2-2.3,1.5-3.6,3.9-3.7c2.7-0.1,5.5-0.1,8.2,0.1c4.5,0.4,7.5,3.4,7.8,7.9
		C68.6,303.6,68.2,305.8,66.8,307.7z"/>
	<path class="st2" d="M361.4,275c0-0.4-0.1-0.5-0.5-0.5c-2,0-3.9-0.1-5.9,0c-2.4,0.1-4.5,0.8-5.8,3.1c-0.2,0.4-0.4,0.3-0.7,0
		c-2.2-1.8-4.7-3-7.4-3.6c-3.1-0.7-6.3-0.8-9.5-0.2c-3.9,0.7-7.4,2.3-10.3,5.1c-3.3,3.3-5.4,7.2-6.3,11.8
		c-1.3,6.4-0.9,12.6,1.8,18.6c1.7,3.8,4.3,6.9,7.9,9.1c3,1.9,6.4,2.9,10,3.1c3.3,0.2,6.6-0.2,9.6-1.6c1.2-0.5,2.2-1.2,3.3-2
		c0,0.5,0,0.9,0,1.2c0,4.8-2.6,8-7.2,9.2c-3.3,0.8-6.6,0.6-10-0.2c-1.7-0.4-3.3-1-5-1.3c-1.7-0.3-3.1,0.5-3.9,2
		c-1.2,2.3-1.9,4.7-2.9,7.1c-0.2,0.5-0.1,0.7,0.4,0.9c3.3,1.7,6.7,2.9,10.4,3.6c1.3,0.2,2.6,0.4,3.9,0.6c1.9,0,3.8,0,5.7,0
		c0.1,0,0.2-0.1,0.2-0.1c3.1-0.2,6.1-0.9,8.9-2.1c3.9-1.6,7.2-4,9.6-7.4c2.6-3.7,3.7-7.9,3.7-12.3c0-14.6,0-29.1,0-43.7
		C361.4,275.2,361.4,275.1,361.4,275z M346.9,303.9c-1.4,3.7-5.1,6-9.1,5.6c-4.9-0.5-7.6-3.6-8.7-7.7c-1-3.7-0.9-7.4,0.6-11
		c1.2-2.8,3.3-4.4,6.3-5c2.2-0.4,4.4-0.1,6.5,0.7c2.4,0.9,3.7,2.8,4.5,5.1c0.7,1.9,0.8,3.9,0.8,6.3
		C347.9,299.6,347.6,301.8,346.9,303.9z"/>
	<path class="st2" d="M134,289c-1.8-4.6-4.7-8.4-8.8-11.1c-4.5-2.9-9.4-4.2-14.7-4.2c-4.7,0-9.1,1-13.2,3.4
		c-4.4,2.5-7.7,6.2-9.7,10.9c-2.1,4.9-2.6,10-1.8,15.2c0.9,5,3,9.5,6.6,13.1c4.8,4.7,10.7,6.9,17.4,7.1c3.6,0.1,7.1-0.5,10.4-1.7
		c4.2-1.6,7.7-4.1,10.4-7.6c3.1-4.1,4.7-8.8,5-13.9C135.9,296.2,135.4,292.5,134,289z M120,306.4c-2.4,3.8-6,5.3-10.3,5.1
		c-5.6-0.3-9.3-4.6-10.3-9.4c-0.8-3.9-0.4-7.7,1.5-11.3c2.2-3.9,6.7-6,11.1-5.4c5.7,0.8,8.9,4.9,10,10.3c0.2,0.9,0.2,1.8,0.2,2.5
		C122.2,301.3,121.5,304,120,306.4z"/>
	<path class="st2" d="M188.8,292.7c-1.2-5.8-4.2-10.5-8.9-14.1c-4.6-3.4-9.8-4.9-15.5-4.9c-2.7,0-5.3,0.3-7.9,1.1
		c-6.6,2-11.6,5.9-14.7,12.1c-2.8,5.6-3.4,11.5-2,17.5c2,8.7,7.2,14.6,15.6,17.5c7,2.4,13.9,2,20.6-1.1c6.6-3.1,10.7-8.3,12.6-15.3
		C189.7,301.2,189.7,296.9,188.8,292.7z M173.8,306.3c-2.3,3.9-6,5.5-10.4,5.2c-5.9-0.4-9.6-4.7-10.5-10.3c-0.6-3.8-0.2-7.5,2-10.8
		c2.2-3.4,5.3-5,9.9-5.1c4.3,0.1,7.9,2.3,9.8,6.7C176.6,296.9,176.5,301.8,173.8,306.3z"/>
	<path class="st1" d="M481.9,292.6c-1-4.4-2.9-8.2-6-11.5c-4.5-4.7-10.2-6.9-16.6-7.4c-3.5-0.2-7,0.1-10.4,1.2
		c-5.2,1.7-9.4,4.7-12.5,9.2c-2.9,4.3-4.3,9.2-4.2,14.7c-0.1,2.9,0.5,6,1.6,8.9c2.4,6.5,6.9,11,13.3,13.6c6.6,2.6,13.2,2.6,19.8,0.2
		c6.6-2.5,11.2-7,13.8-13.6C482.8,303,483.1,297.8,481.9,292.6z M465.4,308.3c-2.5,2.6-5.6,3.5-9.2,3.2c-5.3-0.5-8.7-4.3-9.9-9
		c-1-3.8-0.7-7.5,1.1-11c1.8-3.6,4.8-5.6,8.8-6c6.6-0.6,11.1,3.7,12.4,9.5c0.1,0.6,0.2,1.1,0.3,1.7c0,0.6,0,1.2,0,1.8
		C469,302.2,468,305.6,465.4,308.3z"/>
</g>
</svg>
