<?xml version="1.0" encoding="utf-8"?>
<!-- Generator: Adobe Illustrator 26.3.1, SVG Export Plug-In . SVG Version: 6.00 Build 0)  -->
<svg version="1.1" id="Layer_1" xmlns="http://www.w3.org/2000/svg" xmlns:xlink="http://www.w3.org/1999/xlink" x="0px" y="0px"
	 viewBox="0 0 595.3 595.3" style="enable-background:new 0 0 595.3 595.3;" xml:space="preserve">
<style type="text/css">
	.st0{fill:#FFFFFF;}
	.st1{fill:#58595B;}
	.st2{fill:#0F5297;}
	.st3{fill:#80878D;}
</style>
<path class="st0" d="M297.6,595.3L297.6,595.3C133.3,595.3,0,462,0,297.6l0,0C0,133.3,133.3,0,297.6,0l0,0
	C462,0,595.3,133.3,595.3,297.6l0,0C595.3,462,462,595.3,297.6,595.3z"/>
<g>
	<g>
		<path class="st1" d="M35.6,314.6c173.7,0,347.4,0,521,0c0-0.3,0-0.6,0-1c-173.7,0-347.4,0-521,0C35.7,314,35.7,314.3,35.6,314.6z"
			/>
		<path class="st1" d="M405.6,369c-1.8-2.7-2.4-4.6,0.5-7.7c5.5-5.8,2.5-14.6-5.1-16.8c-3.7-1.1-7.6-1.2-11.5-0.8
			c-2.6,0.3-3.9,1.4-3.8,4.2c0.1,4.5,0,9,0,13.6c0,0,0,0,0,0c0,3.7-0.2,7.4,0.1,11c0.2,2.5-1.9,6.6,3.4,6.7c5.3,0.1,3.6-3.8,3.7-6.4
			c0.2-6.5,0-13.1,0.1-19.6c0.1-3.7,2-4.6,5.2-2.9c4.1,2.2,3.9,7.3-0.4,10.8c-1.1,0.9-3.8,1-2.4,3.5c2.5,4.6,4.9,9.2,7.7,13.5
			c1.5,2.2,4.4,2.2,6.4,0.9c2.3-1.5-0.3-3.2-0.9-4.6C407.8,372.4,406.7,370.7,405.6,369z"/>
		<path class="st1" d="M430.4,343.6c-7.9-0.3-13.2,4.3-15,12.7c-0.9,4.2-0.7,8.3,0.3,12.4c1.7,6.4,6.1,10.2,12.3,10.8
			c10.6,1.1,17-5.6,16.9-18.9c0-0.5,0-2-0.3-3.5C443.5,348.7,438.3,343.8,430.4,343.6z M437.1,365.6c-0.7,4.2-2,8-7.3,8
			c-4.1,0-6.6-3-7.2-8.7c-0.1-1.2-0.1-2.3-0.1-2.8c0-8.6,2.8-12.8,7.8-12.5c4.6,0.2,7.4,4.7,7.2,12
			C437.5,362.9,437.3,364.2,437.1,365.6z"/>
		<path class="st1" d="M230.1,343.8c-2.3,0-3.4,1-3.3,3.3c0.1,1.7-0.2,3.4,0,5c0.5,4.4-1.2,5.8-5.6,5.8c-4.7,0.1-6.9-1.2-6.2-6.2
			c0.2-1.5-0.1-3,0-4.5c0.2-2.7-1.2-3.5-3.6-3.5c-2.5,0-3.6,1-3.6,3.6c0.1,4.5,0,9,0,13.6c0,5,0.1,10,0,15.1
			c-0.1,2.7,1.3,3.4,3.8,3.4c2.2,0,3.5-0.8,3.4-3.2c-0.1-2.2,0.2-4.4,0-6.5c-0.6-4.5,1.3-5.7,5.6-5.7c4.8-0.1,6.9,1.3,6.2,6.2
			c-0.2,1.8,0,3.7,0,5.5c-0.1,2.4,0.8,3.8,3.5,3.8c2.5,0,3.7-1,3.7-3.6c0-9.5-0.1-19.1,0-28.6C233.9,344.5,232.5,343.8,230.1,343.8z
			"/>
		<path class="st1" d="M136.2,344.7c-7.6,0-2.1,8.8-3.5,13.5c-0.8,2.6-0.1,5.7-0.3,8.5c-0.2,3.6-1.4,6.8-5.7,6.8
			c-4.1,0.1-5.4-2.8-5.7-6.3c-0.2-2.2-0.4-4.3-0.4-6.5c-0.1-4.4-0.1-8.7,0-13.1c0-2.5-1-3.7-3.6-3.7c-2.6,0-3.6,1.2-3.5,3.7
			c0.1,7.2-0.4,14.4,0.7,21.6c1.2,7.2,5.4,10.5,13,10.3c7.3-0.2,11.4-3.6,12.2-10.7c0.4-3.6,0.7-7.5-0.1-11.5
			C138.4,353.3,143.5,344.6,136.2,344.7z"/>
		<path class="st1" d="M474.8,344c-2.3,0-4,0.4-3.9,3.3c0.1,2.5,0.1,5,0,7.5c-0.2,4.7,0.5,9.4-0.5,14c-0.6,2.8-2.3,4.5-5.2,4.6
			c-3.2,0.1-5.1-1.6-5.7-4.6c-0.3-1.8-0.5-3.7-0.5-5.5c-0.1-5.4-0.1-10.7,0-16.1c0-2.4-1.1-3.3-3.4-3.3c-1.7,0-3.6,0-3.6,2.4
			c0.2,8.2-1.1,16.5,0.8,24.6c1.4,5.8,5.3,8.5,12,8.6c6.9,0.1,10.8-2.6,12.5-8.6c1.2-4.5,0.8-9,0.8-12.3c0-4.5-0.1-7.9,0-11.3
			C478.1,345,477.1,344,474.8,344z"/>
		<path class="st1" d="M498.7,343.9c-3.2-0.6-6.3-0.4-9.5-0.3c-2.8,0.1-3.7,1.5-3.7,4.2c0.1,4.5,0,9.1,0,13.6c0,4.7,0,9.4,0,14.1
			c0,0.3,0,0.7,0,1c0,2.5,1.6,3,3.7,2.9c1.9,0,3.3-0.6,3.3-2.8c0-1.3,0.2-2.7,0.1-4c-0.4-3.6,1.1-4.9,4.8-5.1
			c6.9-0.4,10.6-4.3,11-10.7C508.9,349.4,505.8,345.3,498.7,343.9z M495.7,361.7c-4.5-0.1-2.3-3.9-3.1-6.2c1.1-1.9-1.7-6,3-5.9
			c3.7,0.1,5.7,2.5,5.6,6.4C501.1,359.5,499.4,361.8,495.7,361.7z"/>
		<path class="st1" d="M375,360.6c-2,0-3.8,0.2-3.8,2.8c0,1.3,0.1,2.7-0.1,4c-0.3,2,1.3,4.9-1.5,5.7c-3.1,1-6-0.2-8.2-2.7
			c-3-3.4-3.6-11.7-1-16.3c2.5-4.5,6.6-5.3,11.3-4.3c2.4,0.5,3.4-0.3,4-2.4c0.8-2.8-1.1-3.1-2.9-3.5c-6.5-1.3-12.7-0.7-17.1,4.6
			c-5.4,6.5-5.9,14.1-2.7,21.8c2.7,6.5,8.2,9,14.9,9.2c9.7,0.3,10.4-0.4,10.4-9.6c0-2.2,0-4.4,0-6.5
			C378.3,361.2,377,360.6,375,360.6z"/>
		<path class="st1" d="M258.8,373c-1.8,0-3.7-0.2-5.5,0c-3.5,0.3-4.8-1.1-4.7-4.6c0-3.3,0.9-5.1,4.6-4.7c1.2,0.1,2.3,0,3.5,0
			c1.7,0,2.4-1,2.5-2.6c0-1.6-0.2-3.1-2.2-3.3c-1.3-0.1-2.7-0.2-4-0.1c-2.9,0.2-4.3-0.7-4.3-3.9c0.1-3.1,1.8-3.6,4.2-3.4
			c1.7,0.1,3.4,0,5,0c2.1,0,3.6-0.3,3.7-2.9c0-2.5-1.3-3.1-3.5-3.1c-4.2,0-8.4,0.1-12.6,0c-3.2-0.1-4.1,1.4-4,4.2
			c0.1,4.4,0,8.7,0,13.1c0,0,0,0-0.1,0c0,4.7,0,9.4,0,14.1c0,2.2,0.7,3.6,3.1,3.5c4.9,0,9.7,0,14.6,0c2.1,0,3-1.2,2.9-3.2
			C262,373.7,260.8,373,258.8,373z"/>
		<path class="st1" d="M104.7,373c-2,0-4-0.1-6,0c-3.9,0.2-4.8-0.9-2.8-4.5c3.7-6.8,7-13.7,10.6-20.5c1.5-2.9,0.8-3.8-2.4-3.8
			c-5.4,0.1-10.7,0-16.1,0c-2.2,0-4,0.1-4,3.1c0,3.1,2.1,2.9,4.1,2.9c1.7,0,3.4,0.1,5,0c3.4-0.2,4.1,0.8,2.5,3.9
			c-3.7,6.9-7.2,14-10.9,20.9c-1.7,3.1-0.9,4.2,2.5,4.1c2.7-0.1,5.4,0,8,0c0,0,0,0,0,0c3.2,0,6.4,0,9.6,0c1.9,0,2.7-1,2.7-2.8
			C107.5,374.4,106.9,373,104.7,373z"/>
		<path class="st1" d="M166,373.5c-4.1,0.4-8.1-0.3-10-4.1c-2.6-5.2-2.8-10.7,0.3-15.8c2.3-3.7,6.1-4.4,10.2-3.5
			c2.3,0.5,3.9,0.4,4.5-2.3c0.8-3.2-1.6-3.2-3.5-3.6c-6.5-1.3-12.6-0.4-16.9,5c-5.3,6.6-5.5,14.2-2.2,21.8c2.8,6.5,8.4,8.7,15,8.8
			c1.1,0,2.1,0.1,3-0.2c2-0.6,5.2,0.2,5-3.4C171.3,372,168.4,373.2,166,373.5z"/>
		<path class="st1" d="M197.1,373.2c-9.3,1.1-13.3-2.4-13.3-11.5c0-9,4-12.8,12.6-11.7c2.6,0.4,3.8-0.4,4.3-2.7
			c0.5-2.4-1.2-2.7-2.9-3.1c-7.1-1.9-14.5,0.5-18.4,6.1c-4.6,6.5-4.4,17.4,0.4,23.6c3.8,5,12.1,7.2,18.8,5.2c1.8-0.6,3-1.2,2.5-3.5
			C200.5,373.3,199.4,372.9,197.1,373.2z"/>
		<path class="st1" d="M316.4,344.2c-3,0-6,0-9.1,0c0,0,0,0,0,0c-2.7,0-5.4,0-8.1,0c-2.1,0-4.6-0.5-4.5,3c0,3.5,2.5,3.1,4.6,2.9
			c3.7-0.3,4.6,1.4,4.4,4.7c-0.2,6.7-0.1,13.4-0.1,20.1c0,2.3-0.2,4.4,3.2,4.4c3.2,0,4-1.3,4-4.3c-0.1-6.2,0.2-12.4-0.1-18.6
			c-0.2-4.5,0.5-7.2,5.8-6.4c1.9,0.3,3.2-0.5,3.2-2.8C319.8,344.9,318.6,344.2,316.4,344.2z"/>
		<path class="st1" d="M288.5,344.2c-3.2,0-6.4,0-9.5,0c0,0,0,0,0,0c-2.7,0-5.4-0.1-8,0c-2.1,0.1-4.5-0.6-4.5,3c0,3.5,2.4,3.2,4.5,3
			c3.7-0.3,4.6,1.4,4.5,4.7c-0.2,6-0.2,12,0.1,18.1c0.1,2.6-1.7,6.6,3.6,6.4c5.2-0.2,3.3-4.1,3.4-6.7c0.2-5,0.2-10,0-15
			c-0.2-4.5-0.2-8.5,6.2-7.5c2.2,0.3,2.8-1.3,2.8-3.3C291.3,344.9,290.3,344.2,288.5,344.2z"/>
		<path class="st1" d="M329.3,343.8c-2.4,0-3.7,0.8-3.7,3.5c0.1,9.5,0.1,19.1,0,28.6c0,2.6,1.2,3.6,3.7,3.5c2.6,0,3.5-1.3,3.5-3.8
			c-0.1-4.7,0-9.4,0-14.1c0-4.7-0.1-9.4,0-14.1C332.8,345.1,331.9,343.8,329.3,343.8z"/>
	</g>
	<g>
		<path class="st2" d="M317.4,270.8c-0.1,5-1,8.9-5.8,10.5c-4.5,1.5-8.6,0.9-11.7-3.2c-1.9-2.5-7.2-2.7-10.5-0.1
			c-2.8,2.3-0.3,4.6,1,6.4c4.5,6.9,14,9.8,23.9,7.5c8.9-2.1,14.8-8.3,15.3-18.2c0.7-11.7,0.2-23.5,0.3-35.2c0-2.1-0.8-3.2-2.9-3.1
			c-3.6,0.1-7,1-10.4,1.7c-2.9,0.6-7.2-2.8-11.3-2.5c-2.9,0.2-5.6,1-8.1,2.6c-9.1,5.5-12.2,17.6-6.9,27.4
			C295.3,274.1,305.7,276.6,317.4,270.8z M308.9,245.4c5.1,0.1,8.8,4.3,8.6,9.7c-0.2,4.5-4.1,8.4-8.4,8.4c-5.2,0.1-9.3-4.1-9.1-9.2
			C300.2,249.1,304,245.3,308.9,245.4z"/>
		<path class="st2" d="M179,268.8c0,7.1,0,6.8,7.1,7.1c4.5,0.2,6.2-1.2,5.6-5.6c-0.2-1.3-0.1-2.7,0.2-4c0.4-1.7,1.6-3.2,3.1-3.7
			c1.8-0.6,2.2,1.6,3,2.7c1.9,2.6,3.6,5.3,5.4,7.9c0.8,1.2,1.5,2.6,3.4,2.6c4.1,0,8.2,0,13.6,0c-4.9-7.1-9-13.4-13.5-19.3
			c-2.3-3-2.1-5.1,0.6-7.7c4-3.9,7.6-8.1,11.4-12.2c-12.6-4.9-19.6,2.5-26,11.2c-0.4-0.4-0.8-0.8-1.2-1.1c0-8.2-0.3-16.4,0.1-24.6
			c0.2-4.7-1.7-5.7-5.9-5.5c-3.8,0.2-7.1-0.4-7,5.5C179.3,237.6,179,253.2,179,268.8z"/>
		<path class="st2" d="M36.6,257.6c0.2,8.1,4.6,13.8,11.8,17.4c1.5,0.8,3.6,1.6,3.9-1c0.6-4.3,3.8-8.6-1.3-12.8
			c-3.7-3-2.8-8.8,0.6-12.2c3.3-3.2,8.4-3.4,12-0.5c3.6,2.9,5.1,9.2,1.8,12.1c-4,3.6-2.8,7.1-2.2,11.2c0.7,4.4,2.5,4.2,5.7,2.4
			c8-4.7,12.2-14.6,9.9-23.9c-2.3-9.2-10.3-15.4-20.1-16.3c-3.3-0.3-7.5,3.2-9.5-0.4c-1.5-2.7-0.4-6.9-0.4-10.4c0-0.2,0-0.3,0-0.5
			c0.5-4.5-0.7-7.4-6.2-6c-2.4,0.4-6.3-1.6-6.3,3.7C36.6,232.8,36.3,245.2,36.6,257.6z"/>
		<path class="st2" d="M151.8,277c12.6,0.2,22.5-9.2,22.7-21.3c0.1-12.2-8.9-21.3-21.7-21.6c-11.4-0.3-21.4,9.4-21.5,20.8
			C131.1,267.4,139.9,276.9,151.8,277z M152.5,247.4c5.2-0.1,9.1,3.5,9.2,8.5c0.1,5-3.6,8.8-8.8,8.9c-5.3,0.1-9.4-3.9-9.3-9
			C143.7,251.2,147.6,247.5,152.5,247.4z"/>
		<path class="st2" d="M105.6,277c12.3-0.1,21.8-9.4,21.8-21.6c0-12.5-8.9-21.2-21.8-21.3c-11.4,0-21.3,9.7-21.4,21
			C84.1,267.5,93.5,277.1,105.6,277z M106.1,247c4.7,0.1,9,4.4,8.9,9.2c0,4.8-4.2,8.9-9,8.9c-5.3,0-9.1-4-9-9.3
			C97.1,250.9,101.2,246.9,106.1,247z"/>
		<path class="st2" d="M245.1,272.9c0,2.2,1,3,3.1,2.9c1-0.1,2-0.1,3,0c4.7,0.7,6.7-0.8,6.2-5.9c-0.5-5.5-0.2-11.1-0.1-16.6
			c0.1-5,2.5-7.7,6.6-7.8c4.2-0.1,6.5,2.5,6.6,7.6c0.1,6.2,0,12.4,0.1,18.6c0,1.6-0.4,3.3,2,4c7.5,2.1,10.8-0.2,10.8-7.8
			c0-2.2,0-4.4,0-6.5c-0.1,0-0.2,0-0.3,0c0-4.4,0.4-8.8-0.1-13c-1.5-12.7-11.7-17.7-23-11.6c-0.8,0.4-1.9,1.9-2.5,0.8
			c-2.4-3.9-6-1.7-9.1-2.2c-2.3-0.3-3.3,0.9-3.3,3.2C245.1,250.1,245.1,261.5,245.1,272.9z"/>
		<path class="st3" d="M419.7,287c0,2.5,0.6,4.2,3.7,4.1c2.8-0.1,3.3-1.7,3.2-4c0-5.2,0-10.4,0-16.3c10.2,7.5,19.6,7.5,26,0.6
			c6.9-7.4,7.1-22.2,0.4-29.8c-6-6.9-15.5-6.9-25.9,0.2c-0.5-2.6-0.6-5.6-4.5-4.9c-4,0.6-2.8,3.7-2.8,5.9
			C419.7,257.5,419.8,272.2,419.7,287z M438.9,242.4c7.3,0,11.9,5.5,11.9,13.9c0,8.2-4.9,14.1-11.8,14.2c-7,0.1-12.4-6.1-12.3-14.4
			C426.8,247.8,431.6,242.3,438.9,242.4z"/>
		<path class="st3" d="M352.8,276.5c7.4,1.5,15.1-1.7,18.8-7.8c0.7-1.1,1.9-2.3,0.8-3.6c-1-1.2-2.5-1.7-4.1-1.6
			c-1.6,0.2-1.8,1.9-2.6,2.8c-3.1,3.7-7,5-11.7,4.1c-4.7-0.9-7.7-3.8-9.3-8.2c-1.1-3-0.2-4.5,3.1-4.4c3.7,0.1,7.4,0,11.1,0
			c0,0,0,0,0-0.1c3.9,0,7.7,0,11.6,0c2.1,0,3.4-0.6,3.5-3.2c0.4-8.3-5.6-16.4-13.7-18.2c-14.3-3.3-25.9,8.9-23.1,24.3
			C338.8,269,344.5,274.9,352.8,276.5z M345.5,248.2c2.1-4.4,5.7-6.5,10.5-6.4c4.3,0.1,7.8,1.8,9.7,6c1.4,3.1,1.1,5.2-3.1,4.9
			c-2.3-0.2-4.7,0-7,0c-2.3,0-4.7-0.1-7,0C344.6,253,344,251.2,345.5,248.2z"/>
		<path class="st3" d="M498.3,269.1c0.9-1.3,2.9-3,0.2-4.6c-1.8-1-3.8-1.8-5.1,0.8c-0.3,0.6-0.7,1.1-1.2,1.6
			c-3.1,3.4-7,4.5-11.4,3.5c-4.6-1-7.7-3.9-9.2-8.4c-0.9-2.7-0.2-4.2,2.9-4.2c3.9,0,7.7,0,11.6,0c0,0,0,0,0-0.1c3.7,0,7.4,0,11.1,0
			c2.1,0,3.5-0.4,3.7-3c0.4-6.3-3.6-14-9.3-16.7c-6.8-3.2-13.6-3.6-19.9,1.4c-8,6.4-10.2,19-5,27.9
			C473.5,279.2,491,280.2,498.3,269.1z M473,247.1c2.3-3.7,5.9-5.5,10.2-5.2c3.9,0.2,7.2,1.7,9.1,5.4c1.9,3.7,1,5.3-3,5.5
			c-0.2,0-0.3,0-0.5,0c-2.2,0-4.4,0-6.6,0c-2,0-4,0-6,0C471.3,252.6,470.4,251.2,473,247.1z"/>
		<path class="st3" d="M379.4,270.9c-0.9,1.3-3.2,2.9-1.8,4.2c1.7,1.5,4.5,1.2,6.6-0.1c0.9-0.6,1.5-1.7,2.2-2.7
			c1.7-2.5,3.5-4.9,5.1-7.5c1.8-2.9,3.4-3.4,5.4-0.2c1.9,3,4.1,5.7,6,8.7c1.2,1.9,2.8,2.8,5.1,2.7c1.1-0.3,2.7-0.1,3.3-0.8
			c1-1.3-0.4-2.5-1.1-3.5c-2-2.9-4.3-5.6-6.2-8.5c-5.7-8.5-6.2-5.8,0-14.4c1.8-2.5,3.6-4.8,5.3-7.3c0.8-1.2,2.7-2.4,1.8-3.8
			c-1-1.6-3.1-0.6-4.7-0.7c-1.7,0-2.7,1.1-3.6,2.4c-1.8,2.6-3.8,5.1-5.4,7.9c-2.1,3.6-3.6,3-5.5-0.1c-1.8-3-3.9-5.9-6.1-8.6
			c-2-2.5-5.3-2.5-7.3-1c-1.8,1.3,0.8,3.1,1.7,4.5c2.6,3.7,5.2,7.4,8.1,10.9c1.7,2.1,1.6,3.7,0,5.8
			C385.2,262.6,382.3,266.7,379.4,270.9z"/>
		<path class="st3" d="M556.3,269.7c-3.4-0.4-4.9-2.5-4.9-5.9c0-4.7,0.1-9.4-0.1-14.1c-0.2-4.1,0.5-7,5.6-6.6
			c1.7,0.1,2.8-0.9,2.8-2.8c0-1.5,0-3.6-1.9-3.4c-6.7,0.6-6.7-3.7-6.4-8.3c0.1-2.1,0-4-3-4.2c-3.2-0.1-3.6,1.7-3.5,4.2
			c0.2,4.4-1,7.6-6,8.2c-2.1,0.2-2.1,1.8-2.1,3.3c0,1.8,0.7,3.1,2.6,3c5.3-0.4,5.6,2.9,5.3,6.8c-0.1,2.3,0,4.7,0,7c0,0,0,0,0,0
			c0,3-0.1,6,0,9c0.3,6.6,4.7,10.3,11.3,9.9c1.9-0.1,3.7-0.3,3.9-2.9C559.8,270.5,558.4,269.9,556.3,269.7z"/>
		<path class="st2" d="M228.1,275.9c1.7-0.1,3.4-0.1,5,0c3,0.3,4.2-0.9,4.1-4c-0.2-5.5-0.1-11-0.1-16.5c0-5.5-0.1-11,0-16.6
			c0-2.3-0.7-3.5-3.2-3.4c-1.8,0.1-3.7,0.1-5.5,0c-2.5-0.1-3.6,0.9-3.6,3.5c0.1,11.2,0.1,22.4,0,33.6
			C224.9,274.8,225.7,276,228.1,275.9z"/>
		<path class="st3" d="M509.7,271.8c0,2.3,0.7,3.9,3.4,3.9c2.7,0,3.4-1.5,3.4-3.8c0-4.8-0.2-9.7,0.1-14.5
			c0.6-9.7,2.2-11.6,11.8-13.6c2.6-0.6,2.6-2.1,2.7-4c0-2.3-1.1-3.3-3.4-3.2c-4.4,0.1-7.5,2.5-10.6,6.7c-0.8-3.2-0.1-6.7-4.3-6.2
			c-4.3,0.5-3,3.8-3,6.2C509.6,252.8,509.6,262.3,509.7,271.8z"/>
		<path class="st2" d="M231.3,230c3.9-0.2,6.9-3.4,6.8-7.3c-0.1-4-3.6-7.3-7.6-7.2c-3.8,0.2-6.8,3.4-6.8,7.3
			C223.9,227,227.2,230.2,231.3,230z"/>
	</g>
</g>
</svg>
