<?xml version="1.0" encoding="utf-8"?>
<!-- Generator: Adobe Illustrator 26.3.1, SVG Export Plug-In . SVG Version: 6.00 Build 0)  -->
<svg version="1.1" id="Layer_1" xmlns="http://www.w3.org/2000/svg" xmlns:xlink="http://www.w3.org/1999/xlink" x="0px" y="0px"
	 viewBox="0 0 595.3 595.3" style="enable-background:new 0 0 595.3 595.3;" xml:space="preserve">
<style type="text/css">
	.st0{fill:#FFFFFF;}
	.st1{fill:#399AD6;}
	.st2{fill:#231815;}
	.st3{fill:#007E33;}
	.st4{fill:url(#SVGID_1_);}
</style>
<path class="st0" d="M297.6,595.3L297.6,595.3C133.3,595.3,0,462,0,297.6v0C0,133.3,133.3,0,297.6,0h0
	C462,0,595.3,133.3,595.3,297.6v0C595.3,462,462,595.3,297.6,595.3z"/>
<g>
	<g>
		<path class="st1" d="M271.2,378c-1.9-1.4-3.9-2.5-6-3.7c0.4-0.3,0.5-0.6,0.8-0.7c11.1-5.8,15.4-15.4,14.4-27.4
			c-0.6-8.1-4.1-15-10.7-20.1c-7.3-5.6-15.8-6.9-24.6-7c-12-0.1-23.9,0-35.9,0c-4.6,0-4.6,0-4.6,4.8c0,30.3,0,60.5,0,90.8
			c0,5,0,10,0,15c0,1.9,0.7,2.7,2.7,2.7c15.3-0.1,30.5,0.2,45.8-0.2c15.3-0.4,26.5-10.2,28.8-24.9
			C283.6,395.7,281.1,385.4,271.2,378z M217.1,349.9c0-5.6,0-11.1,0-16.7c0-2,0.7-2.9,2.8-2.9c9.6,0.1,19.2-0.1,28.9,0.1
			c10,0.3,17.1,5.7,19,14c3,13.3-4.3,23.3-17.9,24.4c-10,0.9-20,0.2-30,0.4c-2.2,0.1-2.7-1-2.7-2.9
			C217.1,360.9,217.1,355.4,217.1,349.9z M252.4,420.8c-11,1.2-22,0.3-33,0.5c-2,0-2.3-1.2-2.3-2.8c0-5.9,0-11.9,0-17.8
			c0-5.9,0-11.9,0-17.8c0-1.6,0.3-2.8,2.3-2.8c11,0.3,22.1-0.7,33,0.5c10.8,1.2,17.4,9,17.5,20C269.8,411.7,263.2,419.6,252.4,420.8
			z"/>
		<path class="st1" d="M477.1,386.9c-1.4-2.2-1.3-3.7,0.4-5.4c2.2-2.2,4.2-4.6,6.3-6.9c5.4-6.1,10.8-12.1,16.1-18.2
			c0.5-0.5,1.4-1,1-1.8c-0.4-0.7-1.4-0.4-2.1-0.4c-3.1,0-6.2,0-9.3,0c-1.5,0-2.7,0.5-3.7,1.7c-7.5,8.7-15,17.4-22.5,26.1
			c-3.4,3.9-6.8,7.7-10.2,11.6c-0.8-0.7-0.6-1.4-0.6-2c0-9.7,0-19.4,0-29.1c0-13.2,0-26.4,0-39.6c0-2.6-0.8-3.9-3.6-3.7
			c-1.8,0.1-3.6,0.1-5.4,0c-2.1-0.1-3.1,0.8-3,3c0.1,2.2,0,4.3,0,6.5c0,33.3,0,66.6,0,99.8c0,3.8,0.1,3.8,3.8,3.8
			c1.7,0,3.4-0.1,5.1,0c2.4,0.2,3.1-0.9,3.1-3.2c-0.1-5.7,0-11.3,0-17c0-1.4,0.1-2.8,1.1-4c3.9-4.4,7.9-8.9,11.7-13.4
			c1.7-2.1,2.5-1.6,3.8,0.5c7,11.6,14.2,23.1,21.3,34.7c1,1.6,2.1,2.4,4.1,2.3c2.7-0.1,5.5,0,8.2-0.1c1,0,2.3,0.6,2.8-0.6
			c0.4-0.9-0.6-1.7-1.1-2.5C495.3,415.1,486.2,400.9,477.1,386.9z"/>
		<path class="st1" d="M355.7,381.9c-1.1-8-3.9-15.2-9.9-20.7c-7.4-6.7-16.1-9-25.9-7.7c-12,1.6-20.6,8-24.5,19.4
			c-4.5,13-4.3,26.4-0.5,39.5c3.6,12.2,13.7,19.8,26.8,20.9c13.2,1.1,24.8-5.1,30.4-16.4c3.7-7.4,4.4-15.3,4.2-23.9
			C356.4,389.6,356.2,385.7,355.7,381.9z M342.8,409.6c-2.8,8.7-9.8,13.5-19.1,13.1c-9.3-0.4-16.3-5.8-18.2-14.8
			c-2.1-9.8-2.1-19.7,0.1-29.4c2.1-9.3,9.2-14.7,18.8-14.7c9.6,0,16.5,5.4,18.8,14.7c0.4,1.7,0.9,3.5,0.9,5.3c0.2,3.2,0,6.4,0,9.6
			C344.5,398.8,344.5,404.3,342.8,409.6z"/>
		<path class="st1" d="M428.1,385.5c-1.1-18.4-11.7-31.2-29.8-32.3c-13.1-0.8-25.1,5.2-30.2,17.9c-5.4,13.4-5.1,27.4-1.2,41.1
			c3.2,11.1,10.9,18.1,22.4,20.4c17.8,3.6,32.6-5.2,37.4-22.3c1.5-5.5,1.7-11.2,1.5-16.8C428.1,390.8,428.3,388.1,428.1,385.5z
			 M415.5,406.9c-1.9,10-8.8,15.7-19,15.8c-9.7,0.2-17.1-5.7-19.1-15.5c-1.9-9.7-2-19.5,0.4-29.1c2.3-9.5,9.6-14.7,19.9-14.3
			c9,0.3,16.2,6.5,17.9,15.6c0.9,4.6,1.3,9.3,1.2,14.4C416.8,397.9,416.4,402.4,415.5,406.9z"/>
	</g>
	<g>
		<path class="st2" d="M466.2,276.4c3.8-10.4,1-23.8-13.4-27.3c-3.3-0.8-6.7-1.2-10-1.5c-5.1-0.5-10.2-0.5-15.1-1.8
			c-7-1.8-9.8-7.8-6.8-14.5c1.6-3.5,4.5-5.2,8-6.1c7.8-2,15.3-1,22.6,2.2c2.1,0.9,3.8,3.8,6.1,2.8c2.1-0.9,3.5-3.3,5.4-4.9
			c1.6-1.4,1.6-2.4-0.3-3.7c-5.4-3.8-11.5-6-18-7.1c-9-1.4-17.7-1-25.8,3.7c-7.2,4.1-10.6,10.6-10.4,18.8
			c0.1,8.5,4.3,14.5,12.1,17.8c2.8,1.2,5.7,1.8,8.7,2.3c6.4,1,13,0.7,19.4,2.1c3.8,0.9,6.9,2.9,7.5,7.1c0.7,4.8-0.1,9.3-4.6,12.2
			c-2.1,1.3-4.4,2.2-6.8,2.6c-11,1.9-20.8,0.5-28.6-8.8c-4.7-5.6-13.1-5.5-18.2-0.2c-5.6,5.7-12.3,8.7-20,9.4
			c-7.9,0.8-15.4-0.4-20.6-7.2c-3.4-4.4-4.6-9.6-5-15.1c-0.2-2.2,0.4-2.8,2.5-2.7c7.4,0.1,14.9,0,22.3,0c7.5,0,15.1,0,22.6,0
			c1.9,0,3-0.4,3-2.6c0-6.7-0.6-13.4-2.8-19.8c-4.4-12.7-14.7-20.2-28-20.3c-13.4-0.1-23.8,6.9-28.3,19.8
			c-4.3,12.3-4.4,24.8-0.7,37.2c3.2,10.9,10.3,18.4,21.6,20.5c14.5,2.7,28,0.1,39.4-10c2.7-2.4,3.5-2.4,5.8,0.3
			c4.1,4.7,9.2,7.8,15.2,9.3c8,2,16.1,2,24.1-0.1C456.8,288.5,463.3,284.4,466.2,276.4z M352.3,243.8c0.8-10.5,7.1-17.9,16.3-19.2
			c11.2-1.5,20.5,5.6,21.9,16.9c0.7,5,0.7,5-4.4,5c-4.9,0-9.8,0-14.7,0c-5.6,0-11.1-0.1-16.7,0C352.6,246.6,352.2,245.8,352.3,243.8
			z"/>
		<path class="st2" d="M237.4,291.3c14.9-2.7,28.5-14.9,30.3-31.1c1-8.6,0.3-17.1,0.5-25.7c0-2.1-1.5-2.1-2.9-2.1
			c-5.8,0-11.7,0-17.5,0c-4.1,0-8.1,0-12.2,0c-8.2,0-8.1,0-8.1,8.2c0,2.2,0.7,2.9,2.9,2.9c7.6-0.1,15.3,0,22.9-0.1
			c2,0,2.9,0.7,2.9,2.8c-0.1,3,0,6-0.1,9c-0.4,13.2-8.7,23.1-21.8,25.5c-16,2.9-29.3-7.6-30.7-21.4c-1.5-15.2-1.4-30.3-0.3-45.4
			c0.3-4.1,1.2-8.3,3.6-11.8c6.3-9.4,15.4-13.1,26.4-11.7c10.9,1.3,17.8,7.9,21.7,17.9c0.9,2.2,0.1,5.5,2.5,6.5
			c2.2,0.9,5,0.3,7.5,0.3c0.1,0,0.2,0,0.3,0c2.9-0.1,3.2-0.5,2.7-3.4c-4.2-22.9-23.9-36.5-46.6-31.8c-14.5,3-24.9,11.4-28.9,26.3
			c-1.6,5.9-1.7,12.1-1.8,18.2c-0.2,10.5-0.3,20.9,0.4,31.4c0.6,8.1,2.3,15.9,7.8,22.3C209,289.8,222.1,294.1,237.4,291.3z"/>
		<path class="st2" d="M313.9,290.6c3.2-1,6.1-2.9,9.1-5c0.5,5.8,0.5,5.8,5.9,5.8c0.5,0,0.9,0,1.4,0c4.3,0,4.4-0.1,4.4-4.4
			c0-21.7,0-43.4,0-65c0-8.5,0.8-7.1-7.2-7.2c-4.2-0.1-4.2,0-4.2,4.1c0,14.2,0.1,28.5,0,42.7c-0.1,11.5-5,18.3-14.6,19.7
			c-11.2,1.6-20.8-2.3-22.1-15.7c-0.5-5-0.2-10-0.2-15c-0.1-10.9-0.1-21.9,0-32.8c0-2.2-0.6-3.3-3-3.2c-1.9,0.1-3.8,0.1-5.7,0
			c-2.1-0.1-2.9,0.7-2.9,2.8c0,15.7-0.3,31.5,0.2,47.2c0.3,11.7,5.3,21,16.9,25.4C299,292.9,306.5,292.8,313.9,290.6z"/>
		<path class="st2" d="M498.9,280.6c-0.2,0-0.4,0-0.6,0c-5.9-0.2-8.9-2.9-9-8.9c-0.1-15,0-30-0.1-45c0-2,0.8-2.7,2.7-2.6
			c2.5,0.1,5.1,0,7.6,0c6.7-0.1,6,0.9,6.2-6.2c0.1-2.6-1-3.3-3.4-3.2c-3.5,0.1-7,0-10.5,0.1c-1.9,0.1-2.7-0.6-2.7-2.6
			c0.1-4.2,0.1-8.5,0-12.7c-0.2-9.7,1.8-8.1-8.7-8.3c-2.2,0-3,0.8-2.9,3c0.1,5.9,0,11.9,0.1,17.8c0,2.1-0.7,2.9-2.8,2.8
			c-1.7-0.1-3.4,0-5.1,0c-1,0-1.8,0.2-2.1,1.4c-1.6,5.4,0.1,8,5.5,8c0.5,0,0.9,0.1,1.4,0c2.4-0.3,3.1,0.8,3,3.1
			c-0.1,7.4,0,14.7,0,22.1c0,0,0,0,0,0c0,7.4-0.1,14.7,0,22.1c0.1,5.7,1.7,11,6,15.1c5.9,5.6,13.2,5.2,20.5,4.9
			c0.7,0,1.2-0.6,1.2-1.3c0.1-2.8,1-5.9-0.4-8.3C504.1,279.4,501.1,280.9,498.9,280.6z"/>
	</g>
	<g>
		<polygon class="st3" points="89.3,306.2 95.1,309.1 95.1,161.9 89.3,164.5 		"/>
		<linearGradient id="SVGID_1_" gradientUnits="userSpaceOnUse" x1="88.8102" y1="305.0004" x2="171.3494" y2="172.8262">
			<stop  offset="0" style="stop-color:#91C50C"/>
			<stop  offset="1" style="stop-color:#089C3B"/>
		</linearGradient>
		<polygon class="st4" points="95.1,309.1 178.7,294.2 178.7,176.6 95.1,161.9 		"/>
		<path class="st0" d="M118.7,271.9c-1.6,0.1-3.2,0.3-4.8,0.4c-2,0.1-2.9,1.2-2.5,3.2c0.4,2,1.9,1.4,3.1,1.3
			c6.6-0.7,13.1-1.4,19.7-2.1c5.2-0.6,10.5-1.2,15.7-1.7c1.8-0.2,2.1-1.2,2-2.7c-0.1-1.8-1.4-1.4-2.5-1.3c-2.1,0.2-4.1,0.3-6.2,0.6
			c-1.8,0.2-2.7-0.4-2.6-2.3c0.3-13.7-0.8-27.3,0.6-41c0.8-7.6,3.5-14.7,8.7-20.5c1-1.1,2.1-2.5,3.8-1.3c1.6,1.1,0.6,2.5,0,3.8
			c-1.8,3.5-1.7,7.1-0.4,10.7c1.2,3.2,4.6,5.4,7.7,5.2c3-0.1,5.4-2.2,6.6-5.8c0.9-2.9,0.9-5.8,0.3-8.7c-0.9-5.1-3.3-9.3-8.9-10.6
			c-5.4-1.2-9.7,0.8-13.1,5.2c-1.8,2.4-2.9,5.2-5,7.5c-0.7-3.5-0.3-6.8-0.1-10.2c0.1-1.9-0.5-2.7-2.4-2.9
			c-8.4-0.7-16.9-1.5-25.3-2.4c-1.3-0.1-2,0.2-2,1.6c0,1.3-0.3,2.8,1.7,3c2,0.2,3.9,0.5,5.9,0.5c2.7,0,3.3,1.3,3.3,3.7
			c-0.1,9.5,0,19,0,28.6c0,11.4-0.1,22.8,0,34.2C122.2,270.7,121.2,271.8,118.7,271.9z"/>
	</g>
</g>
</svg>
