<svg xmlns="http://www.w3.org/2000/svg" xml:space="preserve" style="enable-background:new 0 0 595.3 595.3" viewBox="0 0 595.3 595.3"><path d="M297.6 595.3C133.3 595.3 0 462 0 297.6 0 133.3 133.3 0 297.6 0 462 0 595.3 133.3 595.3 297.6c0 164.4-133.3 297.7-297.7 297.7" style="fill:#fff"/><path d="M297.6 208.9c-22.8 0-44.5 5.1-64 14.1V87.2h-87.1v252.9c-1 7-1.5 14.1-1.5 21.4 0 69 45.9 127.4 108.8 146.2l16.8-82.1c-25-10.5-42.5-35.2-42.5-64 0-38.4 31.1-69.5 69.5-69.5s69.5 31.1 69.5 69.5c0 28.4-17 52.8-41.4 63.6l14.4 83c63.6-18.4 110.2-77 110.2-146.6 0-84.4-68.4-152.7-152.7-152.7" style="fill:#00529c"/></svg>