<?xml version="1.0" encoding="utf-8"?>
<!-- Generator: Adobe Illustrator 26.3.1, SVG Export Plug-In . SVG Version: 6.00 Build 0)  -->
<svg version="1.1" id="Layer_1" xmlns="http://www.w3.org/2000/svg" xmlns:xlink="http://www.w3.org/1999/xlink" x="0px" y="0px"
	 viewBox="0 0 595.3 595.3" style="enable-background:new 0 0 595.3 595.3;" xml:space="preserve">
<style type="text/css">
	.st0{fill:#FFFFFF;}
	.st1{fill:#007E33;}
	.st2{fill:url(#SVGID_1_);}
</style>
<path class="st0" d="M297.6,595.3L297.6,595.3C133.3,595.3,0,462,0,297.6l0,0C0,133.3,133.3,0,297.6,0l0,0
	C462,0,595.3,133.3,595.3,297.6l0,0C595.3,462,462,595.3,297.6,595.3z"/>
<g>
	<polygon class="st1" points="169.8,499.8 186.4,508.1 186.4,87.2 169.8,94.6 	"/>
	
		<linearGradient id="SVGID_1_" gradientUnits="userSpaceOnUse" x1="168.2823" y1="98.4866" x2="404.306" y2="476.4434" gradientTransform="matrix(1 0 0 -1 0 595.2756)">
		<stop  offset="0" style="stop-color:#91C50C"/>
		<stop  offset="1" style="stop-color:#089C3B"/>
	</linearGradient>
	<polygon class="st2" points="186.4,508.1 425.5,465.5 425.5,129.2 186.4,87.2 	"/>
	<path class="st0" d="M253.9,401.7c-4.6,0.3-9.2,0.9-13.7,1.1c-5.7,0.3-8.3,3.4-7.1,9.2c1.1,5.7,5.4,4,8.9,3.7c18.9-2,37.5-4,56.3-6
		c14.9-1.7,30-3.4,44.9-4.9c5.1-0.6,6-3.4,5.7-7.7c-0.3-5.1-4-4-7.1-3.7c-6,0.6-11.7,0.9-17.7,1.7c-5.1,0.6-7.7-1.1-7.4-6.6
		c0.9-39.2-2.3-78.1,1.7-117.2c2.3-21.7,10-42,24.9-58.6c2.9-3.1,6-7.1,10.9-3.7c4.6,3.1,1.7,7.1,0,10.9c-5.1,10-4.9,20.3-1.1,30.6
		c3.4,9.2,13.2,15.4,22,14.9c8.6-0.3,15.4-6.3,18.9-16.6c2.6-8.3,2.6-16.6,0.9-24.9c-2.6-14.6-9.4-26.6-25.4-30.3
		c-15.4-3.4-27.7,2.3-37.5,14.9c-5.1,6.9-8.3,14.9-14.3,21.4c-2-10-0.9-19.4-0.3-29.2c0.3-5.4-1.4-7.7-6.9-8.3
		c-24-2-48.3-4.3-72.3-6.9c-3.7-0.3-5.7,0.6-5.7,4.6c0,3.7-0.9,8,4.9,8.6s11.2,1.4,16.9,1.4c7.7,0,9.4,3.7,9.4,10.6
		c-0.3,27.2,0,54.3,0,81.8c0,32.6-0.3,65.2,0,97.8C263.9,398.3,261,401.5,253.9,401.7z"/>
</g>
</svg>
