<?xml version="1.0" encoding="utf-8"?>
<!-- Generator: Adobe Illustrator 26.3.1, SVG Export Plug-In . SVG Version: 6.00 Build 0)  -->
<svg version="1.1" id="Layer_1" xmlns="http://www.w3.org/2000/svg" xmlns:xlink="http://www.w3.org/1999/xlink" x="0px" y="0px"
	 viewBox="0 0 595.3 595.3" style="enable-background:new 0 0 595.3 595.3;" xml:space="preserve">
<style type="text/css">
	.st0{fill:#FFFFFF;}
	.st1{fill:#219DD7;}
	.st2{fill:#999A97;}
</style>
<path class="st0" d="M297.6,595.3L297.6,595.3C133.3,595.3,0,462,0,297.6v0C0,133.3,133.3,0,297.6,0h0
	C462,0,595.3,133.3,595.3,297.6v0C595.3,462,462,595.3,297.6,595.3z"/>
<g>
	<path class="st1" d="M35.7,284.9c0-12.8,0.2-25.6-0.1-38.4c-0.1-5.3,1.9-7.6,7.2-7.3c11.1,0.5,22.3-1,33.4,0.9
		c9,1.6,14.1,6.9,14.2,16c0,8.4,2.7,17.5-4.6,24.7c-1.9,1.9,0,3.2,1.4,4.5c8.6,8.6,9.8,29.2,2.3,38.5c-4.3,5.3-10.4,6.8-16.6,7.1
		c-10.3,0.4-20.7,0.1-31,0.2c-5,0-6.2-2.8-6.2-7.2C35.8,310.9,35.7,297.9,35.7,284.9z M62.8,290C62.8,290,62.8,290,62.8,290
		c-3.5,0.1-7,0.1-10.5,0.1c-3.2,0-5.2,1.5-5.2,4.8c0,6.4-0.1,12.8,0.1,19.2c0.1,3.4,2.2,5.4,5.6,5.5c7.6,0.1,15.3,0.2,22.9-0.1
		c4.3-0.2,6.5-3.1,7.1-7.3c2.6-17.6-1.2-22.2-18.7-22.2C63.6,290,63.2,290,62.8,290z M63,250.4c-3.1,0-6.2,0.1-9.3,0
		c-4.7-0.2-7,1.7-6.8,6.5c0.1,1.6,0,3.3,0,5c0.2,19.2-2.2,16.7,16.8,16.8c13.8,0.1,15.7-1.8,16.4-15.5c0.5-10.4-1.7-12.8-12.2-12.8
		C66.3,250.4,64.7,250.4,63,250.4z"/>
	<path class="st2" d="M455.8,262.5c6.3-0.6,13.5,1.4,20.7,1.3c1.9,0,3.8,0.4,4.4,2.6c0.5,1.9-0.3,3.4-1.8,4.2
		c-3.5,1.9-3.3,4.7-2.4,8c1,3.4,1.5,6.8,1.1,10.4c-1.9,14.3-9.6,21.2-25.2,22.1c-2.7,0.1-5.4,0-8,0.3c-2.6,0.3-4.1,2.1-4.4,4.5
		c-0.4,2.8,1.4,4.3,3.8,4.8c3,0.7,6.1,1.1,9.2,1.4c3.7,0.4,7.4,0.5,11.1,1.2c12.8,2.2,17.6,9.4,14.8,22.2c-1.2,5.2-4.1,9-9.4,10.5
		c-12.6,3.8-25.3,3.2-38,0.2c-3-0.7-4.9-2.3-4.1-5.7c0.8-3.3,3.1-4.3,6.1-3.6c7.6,1.7,15.2,1.5,22.9,1.4c1.4,0,2.9,0,4.3-0.2
		c4.6-0.7,7.9-3.1,8-7.9c0.1-4.8-3.6-6.8-7.7-7.4c-5.3-0.8-10.7-1-16-1.5c-14.4-1.2-18.5-7.8-13.2-21.1c1.1-2.6,0.9-4.6-0.9-6.8
		c-3.4-4.4-5-9.5-5.6-14.9c-1.8-15.2,6.9-25.3,22.1-25.8C449.9,262.4,452.4,262.5,455.8,262.5z M451.7,299.9c10.7,0,15-3.9,15-13.6
		c0-9.9-4.4-13.6-16.3-13.5c-10,0-15.3,4.8-15.4,13.7C434.9,294.8,441.3,299.9,451.7,299.9z"/>
	<path class="st1" d="M223.6,296.4c-0.2,4.4-0.5,8.7-1.2,13c-2.1,13.3-10.3,20.9-23.9,21.6c-15.1,0.9-24.5-5.4-28-18.8
		c-2.8-10.8-2.3-21.6-0.2-32.6c3.1-16.4,15.9-19.5,27-18.9c16.9,0.9,22.9,7.1,25.3,23.9C223.2,288.6,223.3,292.5,223.6,296.4z
		 M211.9,295.8c0-3.9,0.3-7.9-0.1-11.8c-0.7-8.2-5.6-12.1-14.9-12.4c-9.5-0.3-15.3,3.4-16.4,11.4c-1.1,8.4-1,17-0.1,25.4
		c0.9,8.6,6,11.7,16.7,11.4c9.9-0.3,13.8-3.4,14.7-12.2C212.2,303.7,211.8,299.7,211.9,295.8z"/>
	<path class="st2" d="M412.3,295.3c0,4.8,0.2,9.5,0,14.3c-0.5,10-6.2,17.1-15.8,19.9c-5.2,1.5-10.5,2.2-15.9,1.1
		c-14.4-2.9-20.6-10.2-20.7-24.9c-0.1-6.6-0.1-13.2,0-19.9c0.1-16,10.3-25.7,26.5-25c18.6,0.7,26,8.4,26.1,27.1
		C412.4,290.3,412.4,292.8,412.3,295.3C412.4,295.3,412.3,295.3,412.3,295.3z M401.7,296.4c0.1,0,0.2,0,0.3,0c0-2.7,0.1-5.4,0-8.1
		c-0.3-13.7-6.1-18.5-19.8-16.6c-7.1,1-10.7,4.8-10.9,12c-0.2,7.9-0.1,15.7,0,23.6c0.1,8.2,4.3,12.1,12.9,12.6
		c11.3,0.6,16.6-2.6,17.6-11.1C402.1,304.7,401.7,300.5,401.7,296.4z"/>
	<path class="st1" d="M157.6,296.3c0,3.3,0,6.6,0,9.9c-0.1,14.1-6.2,21.7-19.9,24.1c-16.6,2.9-32.2-3.6-33.1-23.5
		c-0.4-9.3-0.8-18.6,0.8-27.8c1.5-8.1,6-13.9,14.1-16.5c7.9-2.5,15.9-2.4,23.8,0.2c9.4,3.1,13.4,10.5,14.1,19.9
		C157.8,287.2,157.5,291.8,157.6,296.3C157.6,296.3,157.6,296.3,157.6,296.3z M115.4,295.7c0.3,4.7-0.5,9.5,0.7,14.2
		c1.8,7.4,5.4,9.8,14.8,9.9c9.8,0.1,14.4-2.3,15.7-9.6c1.7-9.6,1.7-19.4-0.1-29c-1.3-6.9-6.3-9.7-15.2-9.7c-8.8,0-13.3,3-15.1,9.9
		C115,286.2,115.7,291,115.4,295.7z"/>
	<path class="st2" d="M310.2,280.2c0,10.8,0.1,21.5-0.1,32.3c-0.1,5.2,2,7.6,7.3,7.4c8.3-0.2,16.5-0.1,24.8,0
		c3.6,0.1,7.5,0.7,7.6,5.4c0.1,5.2-3.9,5.7-7.8,5.7c-11.6,0-23.2-0.1-34.8,0.1c-5.7,0.1-8.4-2.3-8.4-8.1c0.1-25.2,0-50.5,0-75.7
		c0-3.8,0.6-7.4,5.3-7.7c5.1-0.2,5.9,3.7,5.9,7.7C310.3,258.3,310.2,269.3,310.2,280.2z"/>
	<path class="st2" d="M518.9,295.6c0-3.3,0.1-6.6,0-9.9c-0.7-19.4,10.9-24.7,26.4-25.1c3.1-0.1,6.2,0.5,9.2,1.1
		c3,0.6,5.7,1.8,5.1,5.7c-0.6,3.6-3.1,5.4-6.7,4.9c-4.1-0.6-8.2-0.8-12.4-0.5c-5.9,0.4-9.5,3.1-10.5,9.3c-1.5,9.7-1.6,19.3-0.1,29
		c1.1,7.3,3.6,9.4,11.1,9.8c3.9,0.2,7.8,0.1,11.8-0.1c3.6-0.1,6.1,1.3,6.7,5c0.7,4-2.4,4.7-5.3,5.4c-5.3,1.2-10.6,1.5-16,0.5
		c-13.3-2.5-19.1-9.5-19.3-23.1C518.9,303.5,518.9,299.5,518.9,295.6z"/>
	<path class="st1" d="M246.9,283.8c0,12.2,0,24.4,0,36.5c0,2.2-0.2,4.5-0.7,6.7c-0.6,2.5-2.4,3.8-5,3.8c-2.9-0.1-4.7-1.6-5.2-4.4
		c-0.3-1.6-0.3-3.3-0.3-4.9c0-25.2,0-50.4,0-75.6c0-1.2,0-2.5,0.1-3.7c0.4-3.6,2.2-5.8,6-5.7c3.8,0,5,2.6,5,5.8
		c0.2,9.3,0.1,18.6,0.2,27.9C247,274.7,247,279.3,246.9,283.8z"/>
	<path class="st1" d="M282.2,331.1c-4.1,0-7.1-1.8-9.4-4.6c-6.6-8.2-13.2-16.4-19.8-24.6c-2.8-3.4-2.9-6.5-0.1-10
		c6.5-8,12.9-16.1,19.4-24.1c1.1-1.4,2.6-2.7,4.3-3.5c3-1.4,6.8-2.6,9.1,0.4c2.2,2.9-1.3,4.8-2.8,6.7c-4.7,6-9.6,11.9-14.5,17.8
		c-5.6,6.6-5.8,7.6-0.4,14.2c5.7,7.1,11.6,14,17.3,21.1c1.1,1.4,2.8,2.9,1.6,4.9C285.8,331.3,283.7,331,282.2,331.1z"/>
	<path class="st2" d="M505.4,296.8c0,8.7,0,17.3,0,26c0,3.9-0.5,7.9-5.6,7.9c-4.7,0-5.5-3.8-5.6-7.4c-0.1-17.5-0.1-35.1,0-52.6
		c0-3.9,1.4-7,6.1-6.9c4.6,0.1,5.1,3.5,5.1,7C505.4,279.5,505.4,288.2,505.4,296.8z"/>
	<path class="st2" d="M494.1,244.7c0.1-4.1,0.6-8,5.7-8c5.1,0.1,5.5,4,5.5,8c0,4-0.4,7.9-5.6,7.8
		C494.7,252.5,494.4,248.3,494.1,244.7z"/>
</g>
</svg>
