<svg xmlns="http://www.w3.org/2000/svg" xml:space="preserve" id="Layer_1" x="0" y="0" style="enable-background:new 0 0 595.3 595.3" version="1.1" viewBox="0 0 595.3 595.3"><style>.st1{fill:#c34947}.st2{fill:#fdfdfd}.st3{fill:#87bdd6}.st4{fill:#3d6c97}.st5{fill:#faf4f2}.st6{fill:#f1d568}</style><path d="M297.6 595.3C133.3 595.3 0 462 0 297.6 0 133.3 133.3 0 297.6 0 462 0 595.3 133.3 595.3 297.6c0 164.4-133.3 297.7-297.7 297.7" style="fill:#fff"/><path d="M297.6 595.3C133.3 595.3 0 462 0 297.6 0 133.3 133.3 0 297.6 0 462 0 595.3 133.3 595.3 297.6c0 164.4-133.3 297.7-297.7 297.7" class="st1"/><path d="M51.6 312v-28.7c.7-.3.4-1 .4-1.5.9-13.8 2.9-27.4 6.1-40.9 12.2-50.6 37.7-93.3 76.7-127.7 43.8-38.6 95.1-58.8 153.3-61.4 21.4-1 42.6 1 63.4 5.8 45.2 10.3 84.4 31.6 117.7 63.8 20.9 20.2 37.6 43.5 50.2 69.7 12.8 26.6 20.5 54.7 23.2 84.1 1.8 19.4 1.3 38.7-1.5 57.9-3.7 25.5-11 49.8-22.5 72.8-25.5 51.2-64 89.2-115.5 114.1-22.3 10.8-45.8 17.8-70.4 21.3-10.2 1.5-20.5 2.2-30.9 2.5h-8.3c-.5 0-1-.1-1.4-.1-16.7-.3-33.2-2.3-49.5-6.1-49-11.4-90.9-35.4-125.1-72.2-38.8-41.7-60.5-91.2-65.3-148-.1-1.8.2-3.7-.6-5.4m383.8 160.7c-2.2-1.7-4.3-3.5-6.5-5.2-9.4-7.8-18.9-15.5-28.3-23.3-.9-.7-1.6-1-2.5-.1-.7.7-1.6 1-2.2 2 1.3 1.1 2.6 2.1 3.8 3.2 13.6 11.2 27.1 22.3 40.7 33.5 1.1.9 1.8.9 3 .1 1.5-1 .8-2 .4-3-6.9-16.7-13.8-33.5-20.7-50.2-.3-.7-.8-1.3-.5-2.9.8 1.1 1.2 1.8 1.8 2.4 12.1 12.3 24.2 24.5 36.2 36.9 1.2 1.2 1.9 1.2 2.9-.1.8-1 2-1.5.4-3.1-7-6.9-13.9-14-20.8-21-5.1-5.1-10.1-10.3-15.2-15.5-.4-.4-1.3-.7-.6-1.5 1.6 1.3 2.5.4 3.5-1 1.7-2.4 3.6-4.6 5.3-6.9.9-1.3 1.6-1.4 2.9-.4 12.9 10.1 26 20.1 38.9 30.3 1.8 1.4 2.3.4 3.3-.7 1.2-1.3.7-1.9-.5-2.8-13-10-26-20.1-39-30.1-1.3-1-1.5-1.7-.3-3 2.1-2.4 3.9-5.1 5.9-7.5 1.2-1.4.6-2-.5-2.7-1-.7-1.7-2-3.1-.1-5.5 7.4-11.3 14.6-16.9 21.9-.5.6-1 1.2-1.1 2-.9-.5-1.7-.4-2.5.5-1.5 1.6-2.4 3.8-4.5 4.8-.8.4-.2 1.1 0 1.6 1.1 2.8 2.3 5.5 3.4 8.2 4.6 11.1 9.2 22.2 13.7 33.4-.1 0-.2.2-.4.3m-1-89.8c.1 0 .2 0 .3.1 0-.1 0-.1-.1-.2-.1.1-.1.2-.2.1.4-.3.2-.8.1-1.3-.7-2.9-2.6-5.1-4.8-7.1-2.1-1.9-4.3-2.4-6.8-1.2-2.3 1.2-5 1.3-7.2 2.7-.8.5-1.9.7-2.7 0-1-.9-2.2-.8-3.4-.7-4.4.3-8.6 1.5-12.8 2.6-2.9.8-5.4.4-8.1-.7-2.8-1.2-5.3-2.9-8.2-3.9-11.9-4.1-23.9-8.1-35.8-12.2-1.5-.5-3.6-.5-2.8-3.2.2-.5-.4-1.3-.7-1.9l-1.5-3.9c-.5-1.3-.4-2 1.4-2.3 6.2-.9 12.5-1.8 18.4-4.3 10.4-4.4 20.3-9.9 29.7-16.2 6.1-4.1 12.1-8.4 16.8-14.2 6.2-7.7 10.6-16.6 14.3-25.7 2.3-5.7 4.1-11.4 7.2-16.9 5.1-9.3 7.5-19.7 8.7-30.2.5-4.5 1.6-8.3 5.4-11.2 1-.7 1.8-1 2.9-1.1 5.7-.3 11.4.9 17.1-1.1 1.4-.5 1.2-1 .8-1.8-.8-1.5-2.3-2.4-3.7-3.2-3.5-2-7.2-3.6-11-4.9-1-.4-1.4-.8-1.4-1.9-.1-3.3-.5-6.6-1.2-9.9-1.3-6.4-3.8-12.1-9.8-15.4-7.7-4.2-16-6.4-24.8-4.8-15 2.6-27.8 9.4-38.4 20.5-3.6 3.8-6.4 8.2-9.8 12.1-8.1 9-16.5 17.6-25.4 25.8-10.3 9.5-20.5 18.8-33.9 24.3-14.2 5.8-26.5 15.1-38.2 24.8-5 4.2-10.7 7.5-15.8 11.5-7 5.5-14.5 10.2-21.6 15.5-5.6 4.1-11.2 8.1-16.8 12.3-.9.6-1.8 1-2.8 1.3-28.9 9.9-57.6 20.4-86.2 31.2-.5.2-1.1.1-1.2.8.7.2 1.3-.1 1.9-.2 18.2-4.1 36.4-8.2 54.5-12.3 17.6-3.9 35.2-7.7 52.8-11.6 1.8-.4 3.5-.4 5.3 0 3.5.7 6.5 2.7 10 3.4 10.6 2 20.9.6 30.9-2.7 4.7-1.6 4.7-1.8 6.9 2.7 1.7 3.6 4.6 5.5 8.4 5.9 1.8.2 3.6.3 5.4.4 7.1.2 14.2 0 21.2-.5 1.2-.1 1.7.3 1.9 1.5.4 2.6 1.4 4.9 2.6 7.2 1.3 2.5 3.3 3.7 6 3.9 1.3.1 2.6 0 4 0 1.6 0 3.4-.5 4.9 0 11.7 3.5 23.3 7 34.6 11.8 1.1.5 2.2 1.2 3.2 1.9.4.3 1 .8.7 1.4-.3.7-1 .4-1.5.3-8.2-2.2-16.7-2.6-24.8-5.1-1.8-.5-3.6-1.1-5.5-.4-3.7 1.4-6.7 3.6-8.9 6.9-.7 1-1.4 2.1-.9 3.4v-.2s0-.1-.1-.1v.3c2.5-2.2 5.1-4.3 8-6 2.6-1.5 5.1-.9 7.4.5.5.3 1.1.6.9 1.6-.7 3-.5 3.4 2.7 3.8 9.6 1.2 19.2 1 28.9.6 1.2-.1 1.7-.7 1.5-1.9-.1-.4-.5-.9 0-1.4.5.3 1.2.5 1.5 1 1.8 2.5 4.3 2.4 6.9 2.3 7-.2 13.7-1.8 20.5-3.1 2-.4 4.1-1.5 5.4 1.2.5-1-.9-1.7.1-2.3 1-.6 1.6.4 2.2 1 .5.5.9 1.1 1.3 1.7.6-1.6-.4-2.3-.6-3.4.7-.3 1.5-.5 1.9-1.4 1.4-3 4.3-3.6 6.7-1.5 1.7 1.6 3.4 3.5 5.2 5.2m-67.2 89.9c.2-.1.3-.2.5-.2 4.7 5.3 9.3 10.6 14 15.9 5.2 5.9 10.4 11.7 15.5 17.7 1.4 1.6 2.5.5 3.7.1 1.3-.5.3-1.4.1-2.1-5.9-17-11.9-34-17.8-51-.6-1.8-1.5-1.5-2.8-1.1-1.4.5-2.2.8-1.5 2.7 4.4 12.2 8.6 24.4 12.9 36.7.2.6.7 1.3.4 2.3-1.6-1.8-3-3.4-4.4-5-8.4-9.6-16.9-19.2-25.2-28.8-1.4-1.7-2.6-.6-3.8-.2-1.4.5-.4 1.6-.1 2.3 5.9 16.9 11.8 33.7 17.7 50.6.6 1.6 1.1 2 2.7 1.4 1.4-.6 2.3-.9 1.6-2.8-3.5-9.6-6.9-19.3-10.2-29-1.1-3.3-2.2-6.4-3.3-9.5m-172.8-12.9c.1 0 .2.1.3.1v4.8c-.3 13.5-.6 26.9-1.1 40.4-.1 2.1 1.5 2.1 2.6 2.6 1.3.5 1.3-.9 1.6-1.7 7.1-16.4 14.2-32.8 21.4-49.2.8-1.9 0-2.2-1.4-3-1.6-.8-2.2-.4-2.8 1.2-5 11.7-10.1 23.4-15.2 35.1-.3.7-.4 1.5-1.2 1.9-.6-1.8-.1-3.5-.1-5.2.2-8.9.4-17.8.7-26.6l.3-13.1c.1-1.9-1.6-1.8-2.7-2.3-1-.5-1.1.6-1.3 1.1-7.3 16.7-14.5 33.5-21.8 50.2-.8 1.8.3 2 1.4 2.4 1 .4 2 1.4 2.9-.6 3-7.4 6.3-14.6 9.5-22 2.3-5.3 4.6-10.7 6.9-16.1m95.9-331.2c.1 0 .3.1.4.1v42.1c0 .8-.2 1.6 1.2 1.6 1.1 0 1.6-.3 1.6-1.5v-53.3c0-.6.2-1.5-.9-1.5-.8 0-1.7-.1-1.9 1.1 0 .3-.2.5-.2.8-3.1 10.9-6.2 21.9-9.3 32.8-1.4 4.9-2.8 9.7-4.3 15-.3-.9-.5-1.4-.6-1.8-4.4-15.4-8.9-30.9-13.3-46.3-.3-1.1-.7-1.7-1.9-1.5-1.4.2-.9 1.2-.9 1.9v52.5c0 .9-.4 1.9 1.3 2 1.7 0 1.5-.9 1.5-2v-41.6c.7.6.7 1.2.9 1.8 3.8 13.3 7.7 26.6 11.5 39.9.2.8.2 1.8 1.5 1.8s1.3-.9 1.6-1.7c2.5-8.7 5-17.3 7.4-26 1.3-5.5 2.9-10.8 4.4-16.2m200.4 292.9c5.3.1 8.6-2.4 10.9-6.7 2.3-4.3 2.5-8.6-.4-12.7-1.9-2.7-4.6-4.5-7.5-6.1l-23.4-12.3c-2.2-1.2-4.5-2.1-7-2.5-5.4-1-9.8 1.1-12.6 6-3 5.3-2.7 10 .9 14.3 1.9 2.2 4.3 3.7 6.8 5.1 7.8 4.1 15.7 8.3 23.6 12.3 2.7 1.5 5.6 2.7 8.7 2.6m-248.1 49.7c.3-6.3-3-10.8-9.1-12.5-6.5-1.8-11.4.3-14.5 6.1-.9 1.7-1.6 3.5-2.1 5.4-1.7 6.5-3.4 13-5 19.5-1 4-2.4 8-2.6 12.2-.3 5.1 2 9.5 6.2 11.6 5.3 2.7 10.6 2.3 14.4-1.1 2.4-2.1 3.8-4.9 4.7-8 1.7-6.4 3.4-12.9 5-19.3 1.1-4.6 2.8-9.1 3-13.9m97.3 45.3c-.1 1.4-.1 2.8-.1 4.2 0 .4-.2 1 .5 1.2 1.8.5 3.9-1 3.9-2.9.2-4.6.4-9.1.5-13.7 0-1.3.5-1.8 1.7-2 3.2-.5 6.4-1.1 9.6-1.8 1.6-.4 2.1.2 2.7 1.6 1.8 4.4 3.7 8.7 5.6 13 1 2.4 2.8.7 4.1.5 1.6-.3.3-1.5 0-2-7.3-17-14.7-33.9-22.1-50.9-.5-1.2-1.1-1.6-2.5-1.3-1.4.3-1.8.9-1.9 2.2-.6 17.2-1.3 34.6-2 51.9m-175.3-23.9c.5-.2.5-.8.7-1.3 2.6-6.4 5.1-12.9 7.7-19.3 4.3-10.9 8.6-21.8 13-32.6.5-1.2.5-1.9-.7-2.7-1.2-.8-1.9-.9-3 .2-1.4 1.5-3.1 2.8-4.6 4.2-12.2 11.2-24.4 22.4-36.7 33.6-.4.3-1 .7-.8 1.1.6 1.1 1.8 1.5 2.7 2.1.8.6 1.3-.2 1.7-.6 3.5-3.2 7.1-6.5 10.5-9.8.9-.9 1.6-1 2.6-.2 2.8 2 5.5 3.9 8.4 5.8 1 .7 1.1 1.3.7 2.4-1.8 4.3-3.5 8.7-5.3 13.1-.4 1.4 1.5 4.1 3.1 4M308 481.3c.1-1.2.1-2.4.3-3.5.9-4.8 3.8-7.4 8.1-7.5 4.7-.1 7 2 8.2 7.1.3 1.6.5 3.2.6 4.7.2 1.7 1.4 1 2.2.9.8-.1 2.3.6 2.2-1.3-.1-3.1-.5-6.2-1.9-9.1-3.8-8.2-15.5-9.5-21-2.3-6.3 8.1-3.1 21.3 6.3 25.5 1.9.9 3.9 1.5 5.8 2.2 8.6 2.9 9.1 10.5 7.2 16.2-1.1 3.3-3.8 5-7.6 5.1-3.8.1-6-1.3-7.4-4.8-.9-2.1-1.2-4.4-1.2-6.7-.1-2.2-1.7-1-2.6-1.2-.9-.1-2-.2-1.8 1.4.3 2.7.5 5.4 1.5 7.9 3.1 8.2 14 10.6 20.3 4.4 7.5-7.3 4.8-21.6-4.9-25.8-2.1-.9-4.3-1.5-6.4-2.4-5-1.9-7.8-5.4-7.9-10.8m-138.9-51.8c0-7.2-4.5-12.7-9.7-13.8-8.5-1.8-18.7 6.3-19.2 15.2-.2 4.1 1.1 7.8 2.6 11.4 3.2 8-1.4 13.5-7.7 16.1-3.1 1.3-6.2.3-8.6-2.4-2.6-3-3-5.4-1.3-8.7 1.1-2.1 2.7-3.9 4.5-5.4 1.6-1.5-.2-2-.8-2.7-.5-.7-1.1-1.7-2.2-.5-1.6 1.7-3.3 3.3-4.6 5.4-5 7.9.1 18.6 9.1 19.4 8.6.7 17.2-7.3 17.2-16.1 0-3.6-1.5-6.7-2.7-10-2.8-7.8.9-14.8 8.9-17 3.5-.9 6.3.1 8.7 3.3 2 2.7 2.1 5.4.2 8.5-1.1 1.8-2.6 3.5-4.2 4.9-.7.6-.9 1.1-.1 1.8.6.5 1.1 1.1 1.6 1.7.4.4.7.6 1.2.1 3.6-3.6 7-7.4 7.1-11.2m-63.1-1.2c4 .1 7.3-1.7 10.7-3.5 1.9-1 .6-1.9.1-2.8s-.8-2.2-2.4-1.1c-1.7 1.2-3.5 2-5.4 2.6-2.6.8-5.1.9-7.2-1.1-4.2-4.1-5-8.9 0-13 1-.8 2.1-1.6 3.2-2.3 7.8-4.6 15.5-9.2 23.3-13.7 1.2-.7 2.5-1.3 3.7-1.8 4.4-1.6 7.6-.5 10 3.3 2.3 3.9 1.8 7.2-1.8 10.3-.9.8-2 1.5-3 2.2-2.8 1.8-2.8 1.8-.9 4.4.5.7.9.9 1.6.4 2.7-1.5 5.2-3.2 7.1-5.6 3.4-4.1 3.6-8.5 1.2-13.2-2.6-5.1-6.5-7.4-11.7-7-3.1.2-5.8 1.4-8.4 2.9-6.2 3.6-12.3 7.2-18.5 10.9-3.2 1.9-6.4 3.5-9.3 6-4.1 3.6-5.6 8.6-3.8 13.3 2.4 5.7 6.3 8.8 11.5 8.8m252-265.4c-.4-.9-.7-1.4-.9-2L340 118.3c-.4-1.1-.5-2.4-2.2-2.1s-.8 1.7-.8 2.5c-.1 12.2 0 24.4 0 36.7 0 5.2.1 10.4 0 15.6 0 1.5.7 1.5 1.8 1.5 1.5-.1.9-1.2.9-1.9V125.8c.7.5.9 1.1 1.2 1.7 5.8 14.3 11.6 28.6 17.4 43 .4 1.1.6 2.4 2.3 2 1.4-.4.7-1.6.7-2.4v-46c0-2.2-.1-4.3 0-6.5 0-1.1-.4-1.4-1.4-1.4-1.8-.1-1.3 1.2-1.3 2.1v41.9c-.2.8 0 1.6-.6 2.7zm11.5-18.7c.2-5.7-.3-11.4.4-17.1.6-5.2 3.6-8 8.7-8.2s8.2 2.4 9.2 7.7c.3 1.4.4 2.7.3 4.1-.1 1.1 0 1.8 1.5 1.8s1.5-.9 1.4-1.9c-.1-1.5-.2-2.9-.4-4.3-1-6.3-5.1-10-11.3-10.1-6.4-.2-10.6 3-11.9 9-.3 1.6-.5 3.1-.5 4.7v28.7c0 1.8.2 3.6.7 5.3 1.6 5.9 5.2 8.4 11.9 8.4 5.6 0 9.3-3 10.7-8.6 1.3-5.1.6-10.2.8-15.3 0-1.1-.7-1-1.4-1h-12.1c-1.3 0-1.4.5-1.5 1.6 0 1.2.5 1.3 1.5 1.3h9.2c.6 0 1.5-.3 1.5.9-.1 3.9.4 7.9-.6 11.8-.9 3.3-2.7 5.8-6.3 6.4-6.5 1.2-10.7-1.9-11.5-8.5-.6-5.4-.1-11-.3-16.7m-115.7 28.2c2.5.1 1.2-1.5 1-2.2-3.9-17.5-8-35-12-52.5-.2-.8-.2-1.6-1.4-1.6s-1.3.7-1.5 1.5c-4 17.7-8.1 35.4-12.1 53.1-.1.5-1.1 1.6.4 1.7.9.1 2 .4 2.3-1.3.9-4.8 2.2-9.5 3.1-14.2.3-1.3.8-1.6 2.1-1.6 3.7.1 7.5.1 11.2 0 1.5-.1 2 .5 2.2 1.9.9 4.6 2 9.2 3 13.8.3 1.1.6 1.8 1.7 1.4m45.7-28.3v26.7c0 1.4.4 1.8 1.8 1.7s1-1.1 1-1.8c0-7.6.1-15.3 0-22.9 0-1.7.5-2.2 2.1-2.1 1.9.1 3.9.1 5.8 0 6.9-.2 10.7-3.1 12.1-9.2.9-3.8.8-7.6 0-11.3-1.2-5-4.2-8-9.4-8.7-3.8-.5-7.6-.1-11.4-.3-1.6-.1-2 .4-2 1.9zm-97.9 1.2v-12.9c0-2.6.1-5.3.9-7.8 1.2-3.6 4.1-5.6 8.3-5.6 4.1 0 6.9 1.8 8.3 5.4.8 2.1.9 4.3 1 6.5 0 1.1.2 1.6 1.5 1.6 1.5 0 1.3-.8 1.3-1.7s0-1.8-.1-2.7c-.5-6-3.5-10.2-8.1-11.4-8.6-2.2-15.1 2.3-15.6 11.2-.6 10.5-.2 21-.2 31.4 0 1.5.3 3 .6 4.5 1.2 4.9 4.5 8 9.3 8.6 5.5.7 9.7-1.1 12-5.1 1.7-2.9 2.1-6.1 2-9.4 0-1 .1-1.7-1.3-1.7-1.3 0-1.4.6-1.4 1.7s-.1 2.2-.2 3.3c-.5 4.8-2.9 7.7-6.7 8.4-6.2 1.1-10.3-1.8-11.2-8-.9-5.8-.2-11.6-.4-16.3m78.6 324.2c.8 0 1.7.1 2.5.2 1 .1 1.4-.2 1.4-1.2 0-.8 0-1.4-1.1-1.5-5.8-.4-11.6-.8-17.4-1.3-1.5-.1-1.7.6-1.8 1.7-.2 3.3-.4 6.6-.7 10-1 14.1-2 28.2-3.1 42.3-.1 1.7.5 2.1 2 2.2 5.5.3 10.9.7 16.4 1.2 1.1.1 1.8.2 1.9-1.3.2-1.7-1-1.4-1.8-1.4-4.6-.3-9.1-.7-13.7-.9-1.5-.1-2-.5-1.9-2.1.6-6.8 1.1-13.7 1.6-20.5.1-1.4.6-1.5 1.8-1.5 4.8.4 9.5.7 14.3 1 1 .1 1.5 0 1.6-1.2s-.4-1.5-1.5-1.5c-4.8-.3-9.5-.7-14.3-1.1-.8-.1-1.6 0-1.5-1.3.6-7 1-14.1 1.5-21.2.1-1.1.5-1.5 1.7-1.4 3.9.3 8 .5 12.1.8m-.5-46.9c-1.2 2.3-2.2 4.2-3.1 6.2-.6 1.2-1.3 2-2.7 2.1-2.2.2-4.3.6-6.7 1 1.4 2 3.1 3.4 4.6 4.8 1.1 1 1.6 1.9 1.2 3.4-.5 1.7-.6 3.4-.9 5.1-.2 1.2.1 1.6 1.3 1 1.6-.9 3.3-1.7 5-2.6.9-.5 1.8-.6 2.7 0 1.6.9 3.3 1.7 5 2.6 1.1.6 1.6.3 1.4-.9-.3-1.8-.5-3.6-.9-5.3-.3-1.3 0-2.1.9-2.9l5.1-5.1c-2.6-.4-4.9-.8-7.2-1.1-1.1-.1-1.7-.6-2.2-1.6-1.2-2.1-2.3-4.2-3.5-6.7m-24.6 9.4c-2.7-.4-5-.9-7.3-1.1-1.1-.1-1.7-.6-2.2-1.6-1-2.1-2.1-4.1-3.3-6.6-1.1 2.3-2.2 4.2-3 6.1-.6 1.3-1.4 2-2.9 2.2-2.1.2-4.3.4-6.7 1.2 1.7 1.6 3.1 3.1 4.6 4.4 1.2 1.1 1.7 2.2 1.3 3.8-.5 2-.7 4.1-1.1 6.6 2.3-1.2 4.2-2.1 6.1-3.2 1.3-.7 2.3-.8 3.6 0 1.9 1.1 3.9 2 6.2 3.2-.4-2.6-.8-4.8-1.2-7-.2-1.3 0-2.2 1-3.1 1.6-1.4 3-3 4.9-4.9m110.3.1c-2-.7-3.9-.9-5.7-1-2.1-.1-3.4-1-4.2-3-.7-1.8-1.7-3.4-2.7-5.4-1.2 2.4-2.2 4.3-3 6.2-.6 1.2-1.3 1.9-2.8 2.1-2.2.3-4.4.4-6.6 1.1 1.2 1.7 2.5 3 4 4.1 1.7 1.4 2.1 2.9 1.6 4.9-.5 1.8-.6 3.6-1 5.9 2.4-1.2 4.4-2.2 6.4-3.3 1.1-.6 2-.6 3.1 0 1.9 1.1 4 2.1 6.4 3.4-.5-2.7-.8-4.9-1.2-7.2-.2-1.1 0-2 .9-2.8 1.5-1.5 3.1-3.2 4.8-5m-37.2-.2c-2.5-.4-4.6-.9-6.8-1-1.5-.1-2.2-.8-2.7-2.1-.9-2-1.9-3.9-3.1-6.2-1.3 2.5-2.3 4.6-3.3 6.8-.4.9-1 1.3-2 1.5-2.4.3-4.7.7-7.2 1.1 1.6 1.7 2.9 3.2 4.4 4.5 1.3 1.1 1.9 2.2 1.4 3.9-.4 1.4-.5 2.9-.8 4.3-.1.6-.5 1.4.1 1.7.6.4 1.2-.3 1.7-.5 1.5-.7 3-1.5 4.4-2.3 1-.6 1.7-.5 2.7 0 2 1.1 4.1 2.1 6.6 3.4-.4-2.5-.7-4.6-1.1-6.7-.3-1.5 0-2.6 1.2-3.6 1.4-1.3 2.8-2.9 4.5-4.8M156.1 408c-.7-.9-1.4-2-2.3-2.8-.7-.5-1.3.5-1.9 1-14.4 10.7-28.7 21.5-43.2 32.2-1.4 1-1.2 1.7-.3 2.7.8 1 1.3 2.2 3 .9 4.1-3.3 8.3-6.3 12.5-9.4 10.3-7.7 20.6-15.5 31-23.2.4-.3 1.1-.5 1.2-1.4m175.5-263.7v-26.2c0-.9.4-1.9-1.3-1.9-1.5 0-1.5.8-1.5 1.8v52.8c0 .9-.1 1.7 1.3 1.7 1.6 0 1.4-.8 1.4-1.8.1-8.8.1-17.6.1-26.4m-50.9-56.6v-2.4c0-.6 0-1.4-.9-1.4-.8 0-.8.8-.8 1.4 0 3.7-.1 7.5.1 11.2.1 2 .6 4 1.6 5.8.3.5.6 1.1 1.3.8.7-.3.5-.9.3-1.4-.2-.4-.4-.9-.6-1.3-1.5-4.1-1.4-8.2 1-12 2.7-4.2 7.2-4 9.6.4 1.1 2 1.7 4.1 1.6 6.4-.1 2.5.5 5 1.6 7.2.2.5.6 1 1.3.7.7-.3.4-.9.2-1.4-.2-.6-.5-1.1-.7-1.7-1.3-4.4-1.1-8.7 1.8-12.4 2.2-2.9 5.6-2.9 8-.1 1 1.1 1.7 2.4 2.1 3.8.9 3.5.8 6.9-.8 10.1-.3.6-.9 1.3.1 1.8.8.3 1.1-.4 1.4-.9 2.8-4.6 1.9-12.5-1.9-16.3-2.8-2.9-6.4-2.9-9.4-.2-1.2 1.1-1.8 2.6-2.8 3.9-4.8-7.5-7.9-7.9-14.1-2m58.8 11.9c0 2.4.1 4.6 0 6.8-.1 3.3-2.1 5.1-5.3 5.2h-2.1c-3.4-.1-5-1.3-5.9-4.7-.1-.6-.2-1.2-1-1.1s-.8.9-.7 1.5c.2 2.5 2.2 4.9 4.9 5.6 1.4.4 2.7.4 4.1.3 5 0 7.6-2.6 7.6-7.6 0-4.5.1-9 0-13.5 0-2.3-.6-4.5-1.7-6.6-.3-.5-.7-1-1.3-.7-.7.3-.4.9-.2 1.4.2.6.6 1.1.7 1.7 1.3 4.2 1 8.1-1.8 11.6-2.2 2.6-5.5 2.7-7.8.3-.9-1-1.7-2-2.1-3.3-1.2-3.4-1-6.7.6-9.9.3-.6.8-1.4 0-1.8-.9-.4-1.2.5-1.5 1.1-1.8 3.5-2 7.2-.7 10.9 2.6 7.3 9.6 8.7 13.8 2.8zm-63.4-6v-7.9c0-2-.1-2-1.7-1.1-.5.3-.8-.1-1.1-.2-4.8-1.8-9.2-.6-12 3.3-2.5 3.4-2.5 8.1.2 11.6 2.8 3.7 7.1 4.9 11.7 3.2.4-.2.8-.7 1.4-.1 1.4 1.4 1.5.2 1.5-.9.1-2.6 0-5.3 0-7.9m-27.1 2v5.8c0 .7-.3 1.8.9 1.7.9 0 .8-1 .8-1.7v-9.6c0-3.5 0-3.5 3.4-3.5h1.2c.5 0 1-.1 1-.8 0-.6-.5-.8-1-.9-1.2-.1-2.4 0-3.5-.1-.5 0-1.2.1-1.2-.8.1-3.5-.4-6.9.4-10.4.2-1 .6-1.9 1.8-2.1 1.2-.1 1.9.6 2.1 1.8.1.5.3 1 1 .9.7-.1.7-.8.6-1.3-.3-1.4-1-2.5-2.6-3-1.5-.4-2.7.1-3.6 1.3-.6.8-.9 1.7-1 2.7-.5 2.8-.2 5.7-.2 8.5 0 1.4.2 2.7-1.9 2.4-.4-.1-1 .2-1 .8 0 .5.4.8.8.7 2.1-.3 2.1 1.1 2 2.5zm71.7-9.2V73.3c0-.6 0-1.4-.9-1.4-.8 0-.8.8-.8 1.4V98.2c0 1.3.2 2.6.7 3.9.2.6.5 1.3 1.3.9.7-.3.5-.9.3-1.4-.6-1.5-.6-3.1-.6-4.7zm-5 7.1v-8.3c0-.6 0-1.4-.8-1.4-.9 0-.8.8-.8 1.4v16.6c0 .6 0 1.4.9 1.4s.8-.8.8-1.4c-.1-2.8-.1-5.6-.1-8.3m-.7-21.6c-.8 0-1.2.6-1.3 1.3-.1.8.3 1.6 1.2 1.6.8.1 1.2-.5 1.3-1.3 0-.8-.3-1.5-1.2-1.6M118.9 367.4c.2-.1.3-.2.4-.2-.2-.1-.3-.2-.5-.2-.1 0-.2.1-.3.2.1.1.3.2.4.2" class="st1"/><path d="M333.7 384.8c-.5-1.4.3-2.5.9-3.5 2.2-3.3 5.2-5.5 8.9-6.9 1.9-.7 3.7-.2 5.5.4 8.1 2.4 16.6 2.9 24.8 5.1.5.1 1.2.4 1.5-.3.2-.6-.3-1.1-.7-1.4-1-.7-2.1-1.4-3.2-1.9-11.2-4.8-22.9-8.4-34.6-11.8-1.5-.4-3.3 0-4.9 0-1.3 0-2.6.1-4 0-2.7-.2-4.7-1.4-6-3.9-1.2-2.3-2.2-4.6-2.6-7.2-.2-1.2-.7-1.5-1.9-1.5-7.1.4-14.1.7-21.2.5-1.8-.1-3.6-.2-5.4-.4-3.9-.4-6.7-2.4-8.4-5.9-2.2-4.4-2.2-4.2-6.9-2.7-10.1 3.3-20.4 4.7-30.9 2.7-3.5-.7-6.5-2.7-10-3.4-1.8-.4-3.5-.4-5.3 0-17.6 3.9-35.2 7.7-52.8 11.6-18.2 4.1-36.4 8.2-54.5 12.3-.6.1-1.2.4-1.9.2.2-.7.8-.7 1.2-.8 28.6-10.8 57.3-21.2 86.2-31.2 1-.3 1.9-.7 2.8-1.3 5.6-4.1 11.2-8.1 16.8-12.3 7.1-5.3 14.7-10.1 21.6-15.5 5.1-4 10.8-7.3 15.8-11.5 11.8-9.8 24-19.1 38.2-24.8 13.4-5.5 23.6-14.8 33.9-24.3 8.9-8.2 17.3-16.8 25.4-25.8 3.5-3.9 6.2-8.3 9.8-12.1 10.6-11.1 23.4-17.9 38.4-20.5 8.8-1.5 17.1.6 24.8 4.8 6 3.3 8.5 9 9.8 15.4.7 3.3 1.1 6.6 1.2 9.9 0 1.1.4 1.6 1.4 1.9 3.8 1.3 7.5 2.9 11 4.9 1.4.8 2.9 1.7 3.7 3.2.5.8.6 1.3-.8 1.8-5.6 2.1-11.4.8-17.1 1.1-1.2.1-2 .4-2.9 1.1-3.8 2.8-4.9 6.7-5.4 11.2-1.1 10.5-3.6 20.9-8.7 30.2-3 5.5-4.9 11.2-7.2 16.9-3.7 9.1-8 18-14.3 25.7-4.7 5.8-10.7 10.1-16.8 14.2-9.4 6.3-19.2 11.8-29.7 16.2-5.9 2.5-12.1 3.5-18.4 4.3-1.8.2-1.9 1-1.4 2.3l1.5 3.9c.2.6.9 1.4.7 1.9-.8 2.7 1.3 2.7 2.8 3.2 11.9 4.1 23.8 8.2 35.8 12.2 2.9 1 5.4 2.8 8.2 3.9 2.6 1.1 5.2 1.5 8.1.7 4.2-1.1 8.4-2.3 12.8-2.6 1.2-.1 2.4-.2 3.4.7.9.8 2 .5 2.7 0 2.2-1.4 4.9-1.6 7.2-2.7 2.6-1.3 4.8-.7 6.8 1.2 2.2 2 4 4.2 4.8 7.1.1.5.3 1-.1 1.4v-.1c-1.8-1.8-3.5-3.6-5.3-5.2-2.5-2.2-5.3-1.5-6.7 1.5-.4.9-1.2 1.1-1.9 1.4.2 1.1 1.2 1.8.6 3.4-.4-.6-.8-1.2-1.3-1.7-.6-.6-1.2-1.6-2.2-1-.9.6.5 1.3-.1 2.3-1.4-2.7-3.4-1.5-5.4-1.2-6.8 1.3-13.6 2.9-20.5 3.1-2.6.1-5.2.1-6.9-2.3-.3-.5-1-.7-1.5-1-.5.5-.1.9 0 1.4.3 1.2-.3 1.9-1.5 1.9-9.6.4-19.3.6-28.9-.6-3.2-.4-3.4-.8-2.7-3.8.2-1-.4-1.3-.9-1.6-2.4-1.5-4.8-2.1-7.4-.5-2.7 1.8-5.3 3.9-7.8 6.1" class="st2"/><path d="M427.4 424.9c-.6.9.3 1.1.6 1.5 5 5.2 10.1 10.3 15.2 15.5 6.9 7 13.8 14.1 20.8 21 1.6 1.6.4 2.1-.4 3.1-1 1.2-1.7 1.3-2.9.1-12-12.3-24.1-24.6-36.2-36.9-.6-.6-1-1.3-1.8-2.4-.3 1.6.2 2.2.5 2.9 6.9 16.7 13.8 33.5 20.7 50.2.4 1.1 1.1 2-.4 3-1.2.8-1.9.9-3-.1-13.5-11.2-27.1-22.3-40.7-33.5-1.3-1.1-2.6-2.1-3.8-3.2.6-.9 1.6-1.3 2.2-2 .9-.9 1.6-.7 2.5.1 9.4 7.8 18.9 15.5 28.3 23.3 2.1 1.8 4.3 3.5 6.5 5.2.2.1.3.5.6.2.1-.1-.1-.4-.1-.7-4.6-11.1-9.2-22.2-13.7-33.4-1.1-2.7-2.3-5.5-3.4-8.2-.2-.5-.8-1.2 0-1.6 2.1-1.1 3-3.3 4.5-4.8.8-.8 1.5-1 2.5-.5v-.1c-.1.4.1.5.5.5-.1.4.1.5.5.5-.2.3-.2 1 .5.3M367.2 472.8c1.1 3.1 2.2 6.2 3.2 9.4 3.4 9.7 6.7 19.4 10.2 29 .7 2-.2 2.2-1.6 2.8-1.6.7-2.2.3-2.7-1.4-5.8-16.9-11.8-33.8-17.7-50.6-.2-.7-1.3-1.7.1-2.3 1.2-.5 2.4-1.5 3.8.2 8.3 9.7 16.8 19.2 25.2 28.8 1.4 1.6 2.8 3.2 4.4 5 .3-1-.2-1.7-.4-2.3-4.3-12.2-8.5-24.5-12.9-36.7-.7-1.9.2-2.2 1.5-2.7s2.2-.7 2.8 1.1c5.9 17 11.9 34 17.8 51 .2.6 1.2 1.6-.1 2.1-1.2.4-2.3 1.5-3.7-.1-5.1-6-10.3-11.8-15.5-17.7-4.7-5.3-9.3-10.6-14-15.9 0 .1-.2.2-.4.3" class="st3"/><path d="M194.4 459.9c-2.3 5.4-4.7 10.8-7 16.1-3.2 7.3-6.4 14.6-9.5 22-.8 2.1-1.8 1-2.9.6-1.1-.4-2.1-.7-1.4-2.4 7.3-16.7 14.5-33.4 21.8-50.2.2-.6.3-1.6 1.3-1.1 1.1.5 2.7.4 2.7 2.3l-.3 13.1c-.2 8.9-.5 17.8-.7 26.6 0 1.7-.5 3.4.1 5.2.9-.5.9-1.3 1.2-1.9 5.1-11.7 10.2-23.4 15.2-35.1.7-1.5 1.2-2 2.8-1.2 1.4.7 2.2 1 1.4 3-7.2 16.4-14.3 32.8-21.4 49.2-.3.7-.3 2.1-1.6 1.7-1.2-.4-2.7-.5-2.6-2.6.4-13.5.7-26.9 1.1-40.4V460s-.1 0-.2-.1" class="st4"/><path d="M290.3 128.7c-1.5 5.4-3.1 10.7-4.6 16.1-2.5 8.7-5 17.3-7.4 26-.2.8-.2 1.7-1.6 1.7s-1.3-1-1.5-1.8c-3.8-13.3-7.7-26.6-11.5-39.9-.2-.6-.2-1.2-.9-1.8v41.6c0 1.1.2 2-1.5 2s-1.3-1.1-1.3-2v-52.5c0-.7-.5-1.7.9-1.9 1.3-.1 1.6.5 1.9 1.5 4.4 15.5 8.9 30.9 13.3 46.3.1.5.3.9.6 1.8 1.5-5.3 3-10.1 4.3-15 3.1-10.9 6.2-21.9 9.3-32.8.1-.3.2-.5.2-.8.1-1.2 1-1.1 1.9-1.1 1.1 0 .9.8.9 1.5v53.3c0 1.2-.4 1.5-1.6 1.5-1.3 0-1.2-.8-1.2-1.6v-42.1c.1.1-.1 0-.2 0" class="st5"/><path d="M490.7 421.6c-3 .1-6-1.1-8.8-2.6-7.9-4.1-15.7-8.2-23.6-12.3-2.5-1.3-4.9-2.9-6.8-5.1-3.6-4.2-3.9-9-.9-14.3 2.8-4.9 7.2-7 12.6-6 2.5.5 4.8 1.4 7 2.5l23.4 12.3c2.9 1.5 5.6 3.3 7.5 6.1 2.9 4.2 2.7 8.4.4 12.7-2.2 4.3-5.5 6.9-10.8 6.7m8.1-13.1c.1-1.6-.7-3.1-1.9-4.5-1.3-1.4-2.8-2.5-4.5-3.4l-25.2-13.2c-1.7-.9-3.5-1.6-5.5-1.8-3.4-.4-5.7 1.2-7.3 4-1.6 2.9-2.1 5.7.1 8.5 1.5 2.1 3.6 3.4 5.9 4.6 5.9 3.1 11.8 6.2 17.7 9.2 3.3 1.7 6.5 3.8 10.1 4.8 5.7 1.7 10.6-2 10.6-8.2" class="st3"/><path d="M242.6 471.3c-.2 4.8-1.8 9.4-3 14-1.6 6.4-3.3 12.9-5 19.3-.8 3.1-2.3 5.8-4.7 8-3.8 3.4-9.1 3.8-14.4 1.1-4.2-2.1-6.5-6.4-6.2-11.6.2-4.2 1.6-8.1 2.6-12.2 1.7-6.5 3.4-13 5-19.5.5-1.9 1.2-3.7 2.1-5.4 3.1-5.8 8-7.9 14.5-6.1 6.1 1.6 9.3 6.1 9.1 12.4m-28.9 30.8c0 4.7 1.9 7.3 6.1 8.5 4.1 1.1 7.2-.2 9.2-4 .8-1.5 1.3-3.2 1.8-4.9 1.4-5.4 2.8-10.9 4.2-16.3 1.1-4.2 2.4-8.4 3.1-12.7.8-5-1.1-8.2-5.5-9.5-4.6-1.4-7.9.1-10.1 4.8-.5 1.1-.9 2.3-1.3 3.5-1.7 6.3-3.3 12.6-4.9 18.9-1 4-2.4 7.9-2.6 11.7" class="st4"/><path d="m339.9 516.6 2.1-52.2c.1-1.3.5-1.9 1.9-2.2 1.4-.2 1.9.1 2.5 1.3 7.3 17 14.7 33.9 22.1 50.9.2.6 1.5 1.7 0 2-1.3.2-3 1.9-4.1-.5-1.9-4.3-3.8-8.6-5.6-13-.5-1.3-1.1-2-2.7-1.6-3.2.7-6.4 1.3-9.6 1.8-1.2.2-1.7.8-1.7 2-.1 4.6-.3 9.1-.5 13.7-.1 1.9-2.1 3.4-3.9 2.9-.7-.2-.5-.7-.5-1.2-.1-1.1-.1-2.5 0-3.9m6.5-41.5c-.9.8-.7 1.7-.7 2.5 0 1.9.1 3.8-.1 5.6-.6 4.8-.1 9.6-.7 14.4-.2 1.2.5 1.6 1.7 1.3 2.7-.6 5.4-1.1 8.1-1.6 1.1-.2 1.3-.6.8-1.6-1.3-2.7-2.4-5.5-3.6-8.3-1.8-4-3.6-8.1-5.5-12.3" class="st3"/><path d="M164.6 492.7c-1.6.1-3.5-2.6-2.9-4 1.8-4.4 3.5-8.8 5.3-13.1.5-1.1.3-1.7-.7-2.4-2.8-1.9-5.6-3.8-8.4-5.8-1-.8-1.7-.7-2.6.2-3.5 3.3-7 6.5-10.5 9.8-.5.4-.9 1.2-1.7.6-.9-.7-2.2-1.1-2.7-2.1-.2-.4.5-.8.8-1.1 12.2-11.2 24.4-22.4 36.7-33.6 1.5-1.4 3.2-2.7 4.6-4.2 1-1.1 1.8-1 3-.2s1.2 1.6.7 2.7c-4.4 10.9-8.7 21.8-13 32.6-2.6 6.4-5.1 12.9-7.7 19.3-.3.5-.4 1.1-.9 1.3m13.4-45.1-.3-.3c-5.7 5.2-11.3 10.4-17 15.5-.8.7-.2 1 .3 1.4 2.4 1.6 4.8 3.3 7.2 5 .9.7 1.3.3 1.6-.6 2.7-7 5.5-14 8.2-21" class="st4"/><path d="M308 481.3c.1 5.5 2.9 9 7.8 10.9 2.1.8 4.3 1.5 6.4 2.4 9.7 4.1 12.4 18.4 4.9 25.8-6.3 6.1-17.2 3.8-20.3-4.4-1-2.6-1.2-5.3-1.5-7.9-.2-1.6.9-1.5 1.8-1.4s2.6-1.1 2.6 1.2c.1 2.3.3 4.6 1.2 6.7 1.5 3.5 3.6 4.9 7.4 4.8 3.8-.1 6.4-1.7 7.6-5.1 1.9-5.6 1.4-13.3-7.2-16.2-2-.7-4-1.3-5.8-2.2-9.4-4.2-12.6-17.4-6.3-25.5 5.5-7.1 17.2-5.8 21 2.3 1.3 2.9 1.7 6 1.9 9.1.1 1.9-1.4 1.2-2.2 1.3-.8.1-2 .8-2.2-.9-.1-1.6-.3-3.2-.6-4.7-1.1-5.2-3.5-7.2-8.2-7.1-4.3.1-7.2 2.7-8.1 7.5-.1 1-.1 2.2-.2 3.4" class="st3"/><path d="M169.1 429.5c-.1 3.8-3.5 7.5-7.2 11.1-.5.5-.8.3-1.2-.1-.5-.6-1-1.2-1.6-1.7-.8-.7-.6-1.2.1-1.8 1.6-1.4 3-3 4.2-4.9 1.9-3.1 1.8-5.8-.2-8.5-2.4-3.2-5.2-4.3-8.7-3.3-8 2.1-11.6 9.2-8.9 17 1.2 3.3 2.7 6.4 2.7 10 0 8.7-8.6 16.8-17.2 16.1-9.1-.8-14.1-11.5-9.1-19.4 1.3-2 3-3.6 4.6-5.4 1.1-1.2 1.7-.2 2.2.5.6.8 2.4 1.3.8 2.7-1.8 1.6-3.4 3.3-4.5 5.4-1.7 3.4-1.4 5.7 1.3 8.7 2.4 2.7 5.5 3.7 8.6 2.4 6.3-2.6 10.9-8.1 7.7-16.1-1.5-3.7-2.8-7.3-2.6-11.4.5-8.9 10.6-17 19.2-15.2 5.4 1.3 9.8 6.8 9.8 13.9M106 428.3c-5.2 0-9.2-3.1-11.3-8.9-1.8-4.7-.3-9.7 3.8-13.3 2.8-2.4 6.1-4.1 9.3-6 6.1-3.6 12.3-7.3 18.5-10.9 2.6-1.5 5.3-2.7 8.4-2.9 5.2-.4 9 2 11.7 7 2.4 4.7 2.2 9.1-1.2 13.2-2 2.4-4.5 4.1-7.1 5.6-.8.5-1.1.3-1.6-.4-1.8-2.7-1.8-2.6.9-4.4 1-.7 2.1-1.4 3-2.2 3.6-3.1 4.1-6.5 1.8-10.3-2.3-3.9-5.5-5-10-3.3-1.3.5-2.6 1.1-3.7 1.8-7.8 4.6-15.5 9.1-23.3 13.7-1.1.7-2.2 1.4-3.2 2.3-5 4.1-4.2 8.9 0 13 2.1 2 4.6 2 7.2 1.1 1.9-.6 3.8-1.4 5.4-2.6 1.6-1.1 1.9.2 2.4 1.1s1.8 1.8-.1 2.8c-3.5 2-6.9 3.7-10.9 3.6" class="st4"/><path d="M358 162.9c.5-1.1.4-2 .4-2.8v-41.9c0-.9-.5-2.2 1.3-2.1 1.1 0 1.5.3 1.4 1.4-.1 2.1 0 4.3 0 6.5v46c0 .8.7 2-.7 2.4-1.7.4-1.9-.9-2.3-2-5.8-14.3-11.6-28.6-17.4-43-.2-.6-.5-1.1-1.2-1.7V170.5c0 .7.6 1.8-.9 1.9-1.1.1-1.8 0-1.8-1.5.1-5.2 0-10.4 0-15.6v-36.7c0-.8-.9-2.2.8-2.5 1.7-.3 1.8 1 2.2 2.1l17.1 42.6c.5.7.7 1.2 1.1 2.1" class="st5"/><path d="M425.7 423.7c.1-.8.6-1.4 1.1-2 5.7-7.3 11.4-14.5 16.9-21.9 1.4-1.8 2.1-.5 3.1.1 1.1.7 1.7 1.3.5 2.7-2.1 2.4-3.8 5.1-5.9 7.5-1.2 1.3-1 2 .3 3 13 10 26 20.1 39 30.1 1.2.9 1.7 1.5.5 2.8-1 1.1-1.5 2.1-3.3.7-12.9-10.2-26-20.2-38.9-30.3-1.3-1-1.9-1-2.9.4-1.7 2.4-3.6 4.6-5.3 6.9-1 1.4-1.9 2.3-3.5 1-.2-.4-.3-.9-.9-.4.2-.5-.1-.5-.5-.5.4-.1.1-.2-.2-.1" class="st3"/><path d="M369.5 144.2c.2 5.6-.3 11.2.4 16.9.8 6.6 5 9.7 11.5 8.5 3.6-.7 5.4-3.2 6.3-6.4 1-3.9.5-7.9.6-11.8 0-1.2-.8-.9-1.5-.9h-9.2c-1 0-1.5-.1-1.5-1.3 0-1.1.2-1.6 1.5-1.6 4 .1 8.1 0 12.1 0 .7 0 1.5-.1 1.4 1-.1 5.1.5 10.3-.8 15.3-1.4 5.6-5.2 8.6-10.7 8.6-6.7 0-10.3-2.5-11.9-8.4-.5-1.7-.7-3.5-.7-5.3v-28.7c0-1.6.2-3.2.5-4.7 1.3-6 5.5-9.2 11.9-9 6.2.2 10.3 3.8 11.3 10.1.2 1.4.3 2.9.4 4.3.1 1 .1 1.8-1.4 1.9-1.5 0-1.5-.7-1.5-1.8.1-1.4-.1-2.8-.3-4.1-1-5.3-4.1-7.9-9.2-7.7-5.1.2-8.1 3-8.7 8.2-.8 5.6-.3 11.3-.5 16.9M253.8 172.4c-1.1.3-1.4-.4-1.6-1.4-1-4.6-2.1-9.2-3-13.8-.3-1.4-.7-2-2.2-1.9-3.7.1-7.5.1-11.2 0-1.3 0-1.8.3-2.1 1.6-1 4.7-2.2 9.4-3.1 14.2-.3 1.7-1.3 1.3-2.3 1.3-1.5-.1-.5-1.2-.4-1.7 4-17.7 8.1-35.4 12.1-53.1.2-.8.3-1.5 1.5-1.5s1.2.9 1.4 1.6l12 52.5c0 .7 1.4 2.4-1.1 2.2m-12.4-48c-.2.2-.3.3-.3.4-2.1 8.8-4.1 17.7-6.2 26.5-.2 1 .2 1.4 1.2 1.3h10.4c1.1 0 1.5-.4 1.2-1.5-2.1-8.8-4.1-17.7-6.3-26.7M299.5 144.1v-26c0-1.6.4-2 2-1.9 3.8.2 7.6-.2 11.4.3 5.1.7 8.2 3.7 9.4 8.7.9 3.8.9 7.6 0 11.3-1.4 6.1-5.2 9-12.1 9.2-1.9.1-3.9.1-5.8 0-1.6-.1-2.1.4-2.1 2.1.1 7.6 0 15.3 0 22.9 0 .7.4 1.7-1 1.8-1.3.1-1.8-.3-1.8-1.7zm2.7-13.2v10.4c0 .9 0 1.6 1.3 1.6 2.8-.1 5.6.1 8.3-.1 4.2-.3 6.8-2.7 7.7-6.7.7-3.1.7-6.2.2-9.3-1-5.3-3.2-7.4-8.7-7.8-2.3-.2-4.7 0-7.1-.1-1.4-.1-1.8.5-1.7 1.8zM201.6 145.3c.2 4.7-.4 10.5.4 16.2.9 6.3 5 9.2 11.2 8 3.8-.7 6.2-3.7 6.7-8.4.1-1.1.2-2.2.2-3.3 0-1 .1-1.6 1.4-1.7 1.4 0 1.3.7 1.3 1.7 0 3.3-.4 6.5-2 9.4-2.3 4.1-6.5 5.9-12 5.1-4.8-.6-8.1-3.7-9.3-8.6-.3-1.5-.6-3-.6-4.5 0-10.5-.4-21 .2-31.4.5-8.9 7-13.4 15.6-11.2 4.6 1.2 7.6 5.4 8.1 11.4.1.9 0 1.8.1 2.7 0 .9.2 1.7-1.3 1.7-1.3 0-1.5-.6-1.5-1.6 0-2.2-.2-4.4-1-6.5-1.3-3.6-4.2-5.4-8.3-5.4-4.2 0-7.1 2-8.3 5.6-.8 2.5-.9 5.2-.9 7.8zM280.2 469.5c-4.1-.3-8.2-.5-12.2-.9-1.2-.1-1.6.3-1.7 1.4-.5 7.1-.9 14.1-1.5 21.2-.1 1.4.7 1.3 1.5 1.3 4.8.4 9.5.8 14.3 1.1 1.1.1 1.6.3 1.5 1.5s-.6 1.3-1.6 1.2c-4.8-.4-9.5-.7-14.3-1-1.1-.1-1.7 0-1.8 1.5-.4 6.8-1 13.7-1.6 20.5-.1 1.6.4 2 1.9 2.1 4.6.2 9.1.6 13.7.9.9.1 2-.3 1.8 1.4-.1 1.5-.8 1.4-1.9 1.3-5.5-.4-10.9-.8-16.4-1.2-1.5-.1-2.1-.5-2-2.2 1.1-14.1 2.1-28.2 3.1-42.3.2-3.3.5-6.6.7-10 .1-1.2.3-1.9 1.8-1.7 5.8.5 11.6.9 17.4 1.3 1.1.1 1.1.7 1.1 1.5 0 1-.4 1.4-1.4 1.2-.8 0-1.6 0-2.4-.1" class="st5"/><path d="M279.7 422.6c1.2 2.5 2.3 4.5 3.3 6.7.5 1 1.1 1.5 2.2 1.6 2.3.2 4.6.7 7.2 1.1-1.9 1.9-3.4 3.5-5.1 5.1-.9.8-1.3 1.6-.9 2.9.5 1.7.7 3.5.9 5.3.2 1.2-.2 1.5-1.4.9-1.6-.9-3.3-1.7-5-2.6-1-.6-1.8-.5-2.7 0-1.6.9-3.3 1.7-5 2.6-1.2.7-1.5.2-1.3-1 .3-1.7.4-3.5.9-5.1.4-1.5-.1-2.4-1.2-3.4-1.6-1.4-3.2-2.8-4.6-4.8 2.4-.4 4.5-.8 6.7-1 1.5-.1 2.2-.8 2.7-2.1 1.1-1.9 2.1-3.9 3.3-6.2M255.1 432c-1.9 1.9-3.4 3.5-5 5-1 .9-1.3 1.9-1 3.1.4 2.2.8 4.3 1.2 7-2.3-1.2-4.3-2.1-6.2-3.2-1.3-.8-2.4-.7-3.6 0-1.8 1.1-3.8 2-6.1 3.2.4-2.5.6-4.6 1.1-6.6.4-1.6 0-2.8-1.3-3.8-1.5-1.3-2.9-2.8-4.6-4.4 2.4-.9 4.6-1 6.7-1.2 1.5-.2 2.3-.8 2.9-2.2.9-1.9 1.9-3.8 3-6.1 1.2 2.5 2.3 4.5 3.3 6.6.5 1 1.1 1.5 2.2 1.6 2.4.1 4.7.6 7.4 1M365.4 432.1c-1.8 1.8-3.3 3.4-5 5-.9.8-1.1 1.6-.9 2.8.4 2.2.8 4.5 1.2 7.2-2.4-1.2-4.4-2.2-6.4-3.4-1.1-.6-2-.6-3.1 0-2 1.1-4 2.1-6.4 3.3.4-2.3.6-4.1 1-5.9.5-2.1.1-3.6-1.6-4.9-1.4-1.2-2.8-2.5-4-4.1 2.2-.8 4.5-.9 6.6-1.1 1.5-.2 2.2-.8 2.8-2.1.9-1.9 1.9-3.8 3-6.2 1 2.1 2 3.7 2.7 5.4.8 2 2 2.9 4.2 3 2 .1 3.9.3 5.9 1M328.2 431.9c-1.8 1.8-3.1 3.4-4.7 4.7-1.2 1-1.6 2.1-1.2 3.6.5 2.1.7 4.2 1.1 6.7-2.4-1.2-4.5-2.3-6.6-3.4-1-.5-1.8-.6-2.7 0-1.4.8-2.9 1.6-4.4 2.3-.5.3-1.1.9-1.7.5s-.2-1.1-.1-1.7c.2-1.4.3-2.9.8-4.3.6-1.8-.1-2.8-1.4-3.9-1.5-1.3-2.8-2.9-4.4-4.5 2.5-.4 4.9-.8 7.2-1.1 1-.1 1.6-.6 2-1.5 1-2.1 2.1-4.2 3.3-6.8 1.2 2.3 2.2 4.2 3.1 6.2.6 1.2 1.2 2 2.7 2.1 2.4.3 4.5.8 7 1.1" class="st6"/><path d="M156.1 408c0 .9-.8 1.1-1.2 1.4-10.3 7.8-20.6 15.5-31 23.2-4.2 3.1-8.4 6.1-12.5 9.4-1.7 1.4-2.2.1-3-.9-.9-1.1-1.1-1.7.3-2.7 14.4-10.7 28.8-21.5 43.2-32.2.6-.4 1.2-1.5 1.9-1 .9.8 1.5 1.9 2.3 2.8" class="st4"/><path d="M331.6 144.3v26.4c0 1 .1 1.9-1.4 1.8-1.4 0-1.3-.8-1.3-1.7V118c0-1 0-1.8 1.5-1.8 1.7 0 1.3 1.1 1.3 1.9-.1 8.7-.1 17.5-.1 26.2M280.7 87.7c6.2-5.9 9.3-5.5 14 1.9 1-1.3 1.6-2.8 2.8-3.9 3-2.7 6.6-2.7 9.4.2 3.8 3.8 4.7 11.7 1.9 16.3-.3.5-.6 1.3-1.4.9-1-.4-.3-1.2-.1-1.8 1.6-3.3 1.7-6.7.8-10.1a9.5 9.5 0 0 0-2.1-3.8c-2.4-2.8-5.8-2.8-8 .1-2.9 3.8-3.2 8-1.8 12.4.2.6.5 1.2.7 1.7s.5 1.1-.2 1.4-1-.2-1.3-.7c-1.1-2.3-1.7-4.7-1.6-7.2.1-2.3-.5-4.4-1.6-6.4-2.4-4.3-6.9-4.6-9.6-.4-2.4 3.8-2.5 7.8-1 12 .2.5.4.9.6 1.3.2.5.4 1.1-.3 1.4-.7.3-1-.3-1.3-.8-1-1.8-1.6-3.7-1.6-5.8-.1-3.7-.1-7.5-.1-11.2 0-.6 0-1.4.8-1.4.9 0 .9.7.9 1.4.1.8.1 1.6.1 2.5M339.5 99.6c-.3 0-.4 0-.4.1-4.2 5.9-11.2 4.5-13.8-2.8-1.3-3.7-1.1-7.4.7-10.9.3-.6.6-1.5 1.5-1.1s.3 1.2 0 1.8c-1.5 3.2-1.7 6.5-.6 9.9.4 1.3 1.2 2.4 2.1 3.3 2.3 2.4 5.7 2.4 7.8-.3 2.9-3.5 3.1-7.4 1.8-11.6-.2-.6-.5-1.1-.7-1.7-.2-.5-.5-1.1.2-1.4.6-.3 1.1.2 1.3.7 1.1 2 1.7 4.3 1.7 6.6v13.5c0 5-2.6 7.5-7.6 7.6-1.4 0-2.8 0-4.1-.3-2.7-.7-4.7-3.1-4.9-5.6 0-.6-.1-1.4.7-1.5.7-.1.8.5 1 1.1.8 3.3 2.4 4.6 5.9 4.7h2.1c3.3-.1 5.2-1.9 5.3-5.2zM276.1 93.6v7.9c0 1.1-.2 2.3-1.5.9-.7-.6-1-.1-1.4.1-4.6 1.7-8.8.6-11.7-3.2-2.6-3.5-2.7-8.2-.2-11.6 2.8-3.8 7.3-5 12-3.3.3.1.6.5 1.1.2 1.7-1 1.7-1 1.7 1.1.1 2.7 0 5.3 0 7.9m-1.6-.2c0-1.7-.1-3.5 0-5.2 0-1-.4-1.5-1.2-1.9-3.4-1.8-7.4-1.1-10 1.8-2.5 2.7-2.8 6.8-.8 9.8 2.1 3.2 6.1 4.5 9.7 3.2 1.6-.6 2.6-1.4 2.4-3.3-.3-1.4-.1-2.9-.1-4.4M249 95.6v-4.8c.1-1.5.1-2.8-2-2.5-.4.1-.8-.2-.8-.7 0-.6.5-.9 1-.8 2.1.3 1.9-1 1.9-2.4.1-2.8-.3-5.7.2-8.5.2-1 .4-1.9 1-2.7.9-1.2 2.1-1.7 3.6-1.3 1.5.4 2.3 1.5 2.6 3 .1.5.1 1.2-.6 1.3-.6.1-.9-.4-1-.9-.3-1.2-.9-2-2.1-1.8-1.1.1-1.5 1.1-1.8 2.1-.8 3.4-.2 6.9-.4 10.4 0 .8.6.8 1.2.8 1.2 0 2.4 0 3.5.1.5 0 1 .3 1 .9s-.6.7-1 .8h-1.2c-3.4 0-3.4 0-3.4 3.5v9.6c0 .7.1 1.6-.8 1.7-1.1.1-.9-1-.9-1.7z" class="st5"/><path d="M320.7 86.4V97c0 1.6 0 3.2.6 4.7.2.5.4 1.2-.3 1.4-.8.3-1.1-.4-1.3-.9-.5-1.2-.7-2.5-.7-3.9V73.4c0-.6 0-1.4.8-1.4.9 0 .8.7.9 1.4v3.1zM315.7 93.5v8.3c0 .6.1 1.4-.8 1.4s-.9-.7-.9-1.4V85.2c0-.6 0-1.4.8-1.4.9 0 .8.8.8 1.4.1 2.7.1 5.5.1 8.3" class="st2"/><path d="M315 71.9c1 .2 1.2.8 1.2 1.7-.1.8-.5 1.4-1.3 1.3-.9-.1-1.3-.8-1.2-1.6 0-.9.4-1.4 1.3-1.4" class="st5"/><path d="M118.9 367.4c-.1-.1-.3-.1-.5-.2.1-.1.2-.2.3-.2.2 0 .3.1.5.2 0 .1-.1.1-.3.2M333.7 384.8v-.3l.1.1c-.1.1-.1.1-.1.2M434.4 383c.1-.1.2-.1.3-.2 0 .1 0 .1.1.2zc0-.1 0 0 0 0" class="st2"/><path d="M426.5 424.5c.6-.4.7 0 .9.4-.7.7-.7 0-.9-.4M435.9 472.3c.1.2.2.6.1.7-.2.3-.4-.1-.6-.2.2-.2.3-.4.5-.5M425.7 423.7c.3 0 .6 0 .5.5-.4 0-.6-.2-.5-.5" class="st1"/><path d="M426.1 424.1c.4-.1.6 0 .5.5-.4 0-.6-.2-.5-.5M498.8 408.5c0 6.2-4.9 10-10.7 8.3-3.6-1-6.8-3.1-10.1-4.8-5.9-3-11.8-6.1-17.7-9.2-2.2-1.2-4.3-2.5-5.9-4.6-2.1-2.8-1.7-5.7-.1-8.5 1.6-2.9 3.9-4.4 7.3-4 2 .2 3.8.9 5.5 1.8l25.2 13.2c1.7.9 3.2 2 4.5 3.4 1.3 1.2 2.1 2.7 2 4.4M213.7 502.1c.2-3.8 1.6-7.7 2.6-11.7 1.6-6.3 3.2-12.6 4.9-18.9.3-1.2.7-2.4 1.3-3.5 2.2-4.7 5.4-6.3 10.1-4.8 4.5 1.4 6.3 4.6 5.5 9.5-.7 4.3-2 8.5-3.1 12.7-1.4 5.4-2.8 10.9-4.2 16.3-.4 1.7-1 3.3-1.8 4.9-2 3.8-5.1 5.1-9.2 4-4.2-1.1-6.2-3.8-6.1-8.5M346.4 475.1c1.9 4.2 3.7 8.3 5.5 12.3 1.2 2.8 2.4 5.6 3.6 8.3.5 1.1.3 1.4-.8 1.6-2.7.5-5.4 1-8.1 1.6-1.2.2-1.8-.2-1.7-1.3.7-4.8.1-9.6.7-14.4.2-1.8.1-3.7.1-5.6.1-.7-.2-1.6.7-2.5M178 447.6c-2.7 7-5.5 14-8.2 21.1-.3.9-.7 1.2-1.6.6-2.4-1.7-4.8-3.3-7.2-5-.6-.4-1.1-.7-.3-1.4 5.7-5.2 11.3-10.4 17-15.5.1 0 .2.1.3.2M241.4 124.4c2.1 9 4.2 17.9 6.3 26.8.3 1.1-.1 1.5-1.2 1.5h-10.4c-1 0-1.4-.3-1.2-1.3 2.1-8.8 4.1-17.7 6.2-26.5.1-.2.2-.3.3-.5M302.2 130.9v-10.2c0-1.3.3-1.9 1.7-1.8 2.4.1 4.7 0 7.1.1 5.4.4 7.7 2.4 8.7 7.8.6 3.1.5 6.2-.2 9.3-.9 4-3.5 6.4-7.7 6.7-2.8.2-5.5 0-8.3.1-1.3 0-1.3-.7-1.3-1.6zM274.5 93.4c0 1.5-.2 2.9 0 4.4.3 2-.8 2.8-2.4 3.3-3.6 1.3-7.5 0-9.7-3.2-2-3-1.7-7.1.8-9.8 2.6-2.9 6.7-3.6 10-1.8.8.4 1.3.9 1.2 1.9 0 1.8.1 3.5.1 5.2" class="st1"/></svg>