<?xml version="1.0" encoding="utf-8"?>
<!-- Generator: Adobe Illustrator 26.3.1, SVG Export Plug-In . SVG Version: 6.00 Build 0)  -->
<svg version="1.1" id="Layer_1" xmlns="http://www.w3.org/2000/svg" xmlns:xlink="http://www.w3.org/1999/xlink" x="0px" y="0px"
	 viewBox="0 0 595.3 595.3" style="enable-background:new 0 0 595.3 595.3;" xml:space="preserve">
<style type="text/css">
	.st0{fill:#FFFFFF;}
	.st1{fill:url(#SVGID_1_);}
	.st2{fill:#F8E06B;}
	.st3{fill:#F9DD51;}
	.st4{fill:#F8DE53;}
	.st5{fill:#FAE352;}
	.st6{fill:#F7E16D;}
	.st7{fill:#F8E94F;}
	.st8{fill:#FCEB4F;}
	.st9{fill:#FADD4D;}
	.st10{fill:#EFDB53;}
	.st11{fill:#E9A756;}
	.st12{fill:#EAA857;}
	.st13{fill:#E9A858;}
	.st14{fill:#E9A857;}
	.st15{fill:#ECA449;}
	.st16{fill:#D9B487;}
	.st17{fill:#EBA449;}
	.st18{fill:#F0A84F;}
	.st19{fill:#F2A84B;}
	.st20{fill:#15327E;}
	.st21{fill:#EAAD62;}
	.st22{fill:#E1A050;}
	.st23{fill:#193982;}
	.st24{fill:#F2AA4D;}
	.st25{fill:#F6DE56;}
</style>
<path class="st0" d="M297.6,595.3L297.6,595.3C133.3,595.3,0,462,0,297.6l0,0C0,133.3,133.3,0,297.6,0l0,0
	C462,0,595.3,133.3,595.3,297.6l0,0C595.3,462,462,595.3,297.6,595.3z"/>
<g>
	<linearGradient id="SVGID_1_" gradientUnits="userSpaceOnUse" x1="307.0829" y1="307.7731" x2="307.0829" y2="376.1443">
		<stop  offset="0" style="stop-color:#82C9EB"/>
		<stop  offset="0.9994" style="stop-color:#F9FCFE"/>
	</linearGradient>
	<path class="st1" d="M180.1,321.1c0,0,24.7,21.6,59.5,15.8s79.6-31.1,102.4-29c22.7,2,74.2,14.1,92,52c0,0-23.6-22.7-63.5-13.8
		s-88.3,31.8-117,29.9C227.3,374.3,183.6,362.2,180.1,321.1z"/>
	<g>
		<path class="st2" d="M354.3,313.4c-8,0.2-16,0.5-24,0.7c0.1-4.5,4-3.5,6.6-4.4c7.3-2.7,2-7.2,0.5-9.5c-5.4-8.3-6.4-17.9-9.1-27
			c15.4,5.4,19.7,19,24.3,32.4C353.4,308.1,353.7,310.8,354.3,313.4z"/>
		<path class="st3" d="M328.2,273.1c4,3.7,6,7.3,5.6,13.7c-0.4,6.6,6.9,11.8,8.8,18.8c1.2,4.5,1.5,7.3-4.4,6.5
			c-3.5-4.5-5.2-10-7.9-14.9c-5.1-9.4-12.9-15.8-21.2-21.9c0.2-2.6,2.1-3.2,4.2-3.6c4.2,1.6,8.4,1.4,12.6-0.1
			C326.7,272.1,327.5,272.6,328.2,273.1z"/>
		<path class="st4" d="M237.2,322.6c2-15.8,11.1-27.6,21.3-38.9c2.2,0.7,3.2,2.4,3.3,4.6c-4.9,11.7-9.7,23.5-15.4,34.9
			c-0.6,0.9-1.3,1.6-2.1,2.2c-2,1-4,1-6,0C237.5,324.6,237.1,323.7,237.2,322.6z"/>
		<path class="st5" d="M260.6,287.8c-0.7-1.4-1.4-2.8-2.1-4.1c5.6-7.6,13.5-11.5,22.2-14.4c12-5.2,27-3.3,33.1,4.2
			c-1.7,0-3.2,0.4-4.1,2c-4.3,1.9-8.7,0.2-13,0.4c-11.2,0.6-21.6,3.4-30.6,10.4C264.5,287.6,262.8,288.9,260.6,287.8z"/>
		<path class="st6" d="M313.8,273.6c-10.5-5.2-21.8-5.1-33.1-4.2c15.6-10.3,30.5-6,45.2,2.3C322.3,274.5,318.5,277.1,313.8,273.6z"
			/>
		<path class="st7" d="M326.4,314.5c-9.9,3.7-20.7,4.6-30.3,9.4c-2.1,2.9-4.7-0.1-6.9,0.6c-2.7,0.3-6.3-0.6-6.1,4.1
			c-5.2,4.7-10.7,8.7-18.4,7.5c-4.5-3.5-11.4-5.2-10.9-12.9c5.5-6.5,13.8-4.4,20.7-6.6c15.9-5.3,32.4-6.2,49.1-4
			C324.8,312.8,325.7,313.5,326.4,314.5z"/>
		<path class="st8" d="M326.4,314.5c-0.8-0.1-1.6-0.2-2.4-0.3c-20.2-6-40.4-8.4-60.8-0.4c-4.1,1.6-8.3,2.8-11.1,6.7
			c-2,2.8-4.4,4.1-7.7,1.8c5.6-11.4,9.1-23.8,16.2-34.5c14.3-12.5,30.4-17.4,49.1-12.2c14.3,4.7,27.6,21.6,28.6,36.5
			c-2.7,0.5-5.9-0.8-8,2C329,314.2,327.7,314.4,326.4,314.5z"/>
		<path class="st9" d="M244.4,322.3c1,0,2.4,0.4,3-0.1c20.8-18.9,53.6-22.4,76.6-8.1c-21.7-2-42.6,3.6-63.6,7.5
			c-2.2,0.4-4.8,0.6-6.1,3.1c-3.4-0.4-6.7-0.8-10.1-1.2C244.2,323.2,244.3,322.8,244.4,322.3z"/>
		<path class="st10" d="M250.3,335.1L250.3,335.1c-4.5-2.6-9.2-4.6-14.6-4.1c0.2,3.3,0.5,6.6,0.7,9.9c1.1,1.1,2.5,0.9,3.8,0.5
			c0.2-0.1,0.4-0.3,0.6-0.4c3.2,1.4,6.3,1.3,9.5-0.2C251.9,338.9,253.8,337,250.3,335.1z"/>
	</g>
	<path class="st11" d="M303.4,200.1c-1.1-3.4-3.6-6.9,0-10.3c4-0.9,2.5,3.2,4.2,4.5c9.2,12.6,11.2,26.9,10.1,41.9
		c-0.9,12.7-8.3,18.6-18.4,15.1c0.3-2.7,0.2-5.5,0.3-8.2c2.1-10.8,4-21.6,4.1-32.7C305.1,207,305.4,203.5,303.4,200.1z"/>
	<path class="st11" d="M262.5,243.1c-2.1-12.1-7-23.2-11.9-34.4c1.8-2,3.6-2,5.4,0c13,7.9,19.6,19.9,22.6,34.2
		c1.1,5.4-1.5,10.4-3,15.2c-1.1,3.6-6.2,3.7-9.9,3c-4.5-0.9-4-4.4-3.5-8C262.8,249.9,262.5,246.5,262.5,243.1
		c2.1-2.7,0.6-5.8,0.8-6.8C263.3,237.3,264.5,240.4,262.5,243.1z"/>
	<path class="st11" d="M371.1,317.4c-2.2-1-4.3-2-6.5-3c0.4-3.6-1.6-7.8,2.3-10.7c2.1,0.4,4.2,0.4,6.3,0.2
		c16.2,1.9,32.1,2.8,44.8-10.4c3.6,0,3.6,2,2.5,4.6c-4.4,10.1-10.9,18-22.4,20.4c-4,2.1-8.7-0.5-12.6,1.7l0.3,0.7
		c-0.8,0.6-1.6,1-2.6,1C378.6,321.5,374.6,320.1,371.1,317.4z"/>
	<path class="st12" d="M328.2,261.1c-5.3-2.1-6-5.8-1.9-9.2c11.5-9.6,19.1-21.8,24.8-35.4c0.7-1.8,1.2-4.3,4-3.5
		c2.1,0.6,1.5,2.7,1.7,4.3c2.3,18.9-3.1,34.3-20.3,44.5C333.7,261.6,331,260.4,328.2,261.1z"/>
	<path class="st13" d="M244.1,266c1.7,6.7,8.6,13.8-1.9,19.5c-3.4,1.8-6.2,1.5-7.4-2.1c-4.4-12.8-15-19.6-25.4-26.7
		c-2.7-1.9-6.5-2.8-5.8-7.3c15.1-0.1,28.7,3.7,38.9,15.8c-0.4,1.3,0.2,2.6,0.3,3.9C243.5,268.1,243,266.7,244.1,266z"/>
	<path class="st11" d="M181,312c6.5-1.1,8.7-5.7,12.3-8.6c10.8-8.5,22.4-10.8,35.6-5.7c6.4,2.5,5.7,7.3,4.7,11.7
		c-1.1,5-5.1,2.5-8.3,1.9c-10.9-2-21.7-0.7-32.2,2.4C189.4,314.7,186,315.9,181,312z"/>
	<path class="st14" d="M389.6,265.5c-3,12.6-11.2,18.7-23.1,20.9c-7.8,1.4-9.2-3.4-10.7-7.6c-2.1-6,3.7-4.8,6.9-5.7
		c11-2.9,17.3-12.8,26.8-17.9C391.2,258.6,390.9,262.1,389.6,265.5z"/>
	<path class="st15" d="M299.5,243.1c2.8,2.8,2.8,5.6-0.3,8.2C296.7,248.4,297.1,245.7,299.5,243.1z"/>
	<path class="st16" d="M389.6,265.5c0-3.4,0-6.9,0-10.3c1.4-0.1,4.2-2.6,3.4,1.5C392.3,259.7,390.7,262.6,389.6,265.5z"/>
	<path class="st17" d="M328.2,261.1c3-2.6,5.7-2.6,8.3,0.6C333.5,264.7,330.8,263.2,328.2,261.1z"/>
	<path class="st18" d="M244.1,266c0,2.6,0,5.2,0,7.8c-1.7-2.8-4.2-5.5-1.5-8.6C243.3,265.2,243.8,265.5,244.1,266z"/>
	<path class="st19" d="M373.1,304c-2.2,2.9-4.3,2.7-6.3-0.2C369,301.8,371.1,301.8,373.1,304z"/>
	<path class="st20" d="M104.8,358.3c-5.7-0.8-11.5-1.6-17.2-2.4c-5.8-0.8-12.5-1.4-13.8-8.2c-1.2-6.7,2.4-12.5,8.7-15.2
		c2.9-1.3,18.4-2.6,23.1-0.4c3.5,1.7,7.5-0.4,8.4-3.5c1.2-4.1-3.4-4.3-6-4.4c-35.3-1.5-45.7,16.4-44.4,26.7
		c1.4,10.7,10.8,12.8,19.8,14.3c1.7,0.3,3.4,0.5,5.1,0.6c8.6,0.5,18.9,0.5,22.5,8.8c1.8,4.2-1,15-9.2,20.3
		c-7.9,5.1-21.1,4.6-25.4,4.8c-10-0.6-11.1-5.3-18.8-12.6c-2-1.9-4.1,1-4.7,2.8c-0.4,1.2-1.1,3.5-0.8,4.8c0.8,4.5,12.5,7.9,17.8,9.4
		c9.2,2.3,21.8,1.7,29-0.2c3.3-0.9,15.9-9,18.9-12.9C130.1,374.9,124.7,361.3,104.8,358.3z"/>
	<path class="st21" d="M385.4,320.3c3.8-3.4,8.4-1.4,12.6-1.7C394.2,321.4,389.7,320.2,385.4,320.3z"/>
	<path class="st22" d="M303.4,200.1c3.3,3.3,3.2,6.8,0.3,10.3C303.6,207,303.5,203.6,303.4,200.1z"/>
	<path class="st20" d="M201.4,395.6c-1.2-2.2-3.6-0.8-5.6-0.4c-14.2,2.5-28.5,2.2-42.8,1.3c-7.3-0.5-11.9-3.2-11.4-11.9
		c0.6-9.4-0.2-19-0.5-28.4c-0.1-3-0.4-5.1,3.8-5.2c14.6-0.2,29.2-1.6,43.8,0.2c5.1,0.4,5.3-0.6,6.1-4.5c-2.2-4.6-17.2-4.4-19.3-4.4
		c-4-0.1-8,0.2-11.9-0.1c-6.7-0.5-14,1.1-19.6-4.7c0.8-5.7,5.4-3.7,8.6-3.9c8-0.7,16,0.9,23.9-1.2c1.5-0.7,2.6-1.1,4.2-1.7
		c1-0.3,2.3-1.4,2.3-2.4c0.1-2-0.3-2.7-4.5-3.4c-20.5-3.3-32.6-0.6-42.5-1c-5.1-0.2-10.8-2.2-8.6,8.5c4.3,20.8,6.1,42.4,2.3,63.6
		c-1.2,7,1.6,7.5,6.6,7.5c17.7,0,35.4,0,53.1,0.1c3.2,0,6.2-0.1,8.6-2.4C200,399.6,203,398.4,201.4,395.6z"/>
	<path class="st20" d="M543,360.5c-3.3-18.8-14.4-30.4-32.2-36.3c-0.5-0.2-1-0.3-1.5-0.5c-6.7-2-13.4-1.4-20.1,0.5
		c0,0-8.6,1.7-11.4,2.6c-4,1.4-10.5,4.9-13.8,7.4c-10.6,8-19.6,17.5-21.6,31.4c-3.1,21.2,13.6,32.3,40.4,36.4
		c10.3,1.6,20.8,1.4,26.8,0.7c3.9-0.5,9.8-3.3,12.8-5C535.4,390.5,545,371.9,543,360.5z M530.3,374c-4.1,10.3-9.5,18-21.1,22
		c-5.7,1.8-11.3,1.5-17,0.1c-9.7-1.4-18.1-5.9-25.9-11.5c-10.6-7.6-12.6-16.4-8.3-28.5c1.9-5.4,9.9-15.1,20.3-20.3
		c4.7-2.3,18.3-7.8,29.1-4.2c11.5,3.8,20.1,17.1,21.5,24.1C530.5,361.2,532.5,368.5,530.3,374z"/>
	<path class="st23" d="M332.2,332.8c-10.4-1.5-21.1,1.2-31.4-1.9c11.4,0,22.8,0,34.3,0.1C334.1,331.5,333.2,332.1,332.2,332.8z"/>
	<path class="st23" d="M297.3,324.7c5.8,0.3,11.7-0.9,17.2,1.6c-5.7,0.1-11.4,0.1-17.1,0.2c-0.6-0.4-0.9-0.8-0.7-1.2
		C296.9,324.9,297.1,324.7,297.3,324.7z"/>
	<path class="st20" d="M358.8,395.8c-1.2-2.5-3.6-0.9-5.5-0.6c-12.1,2.4-24.4,1.9-36.7,1.7c-15.7-0.4-17.5-2.3-17.4-17.4
		c0-5.4,0.2-10.8,0.2-16.2c-0.1-3,0.1-6.7,0-7.5c-0.1-1.4-0.2-2.4,2.1-2.4c3.2,0.8,6.6,0.3,9.8,0.5c2.8,0,5.7,0,8.5-0.2
		c1.8-0.3,21.8-1.6,30.2-2.5c1.7-0.6,3.2-1.6,4.2-3.1c2-9.6-4.8-6.9-9.7-6.9c-11.6,2.1-23.3,2-35,1.2c-1.2-0.1-7.6,0.3-8.7-1.6
		c-1.2-4-0.3-6.7,4.4-7.1c9.7-0.3,19.5,0.4,29.3-0.5c2.5-0.7,4.6-1.8,5.2-4.5c0.1-5.4-3.8-5.5-7.6-5.3c-6,0.4-12,0.3-17.9,0.4
		c-5.1,0.3-10.3,0.2-15.4,0.2c-3.3,0.1-6.5-0.2-9.6-0.9c-3.3-0.1-6.4,0-7,4.3c0.2,1,0.5,1.8,1.2,2.6c0.7,0.5,1.3,0.9,1.7,1.4
		c0,0.5,0,1,0.1,1.5c0.8,0.6,1.1,1.3,1.3,2.1c0,1.7-0.6,3.6-1.1,5.4c-0.6,2.9-0.7,5.9-0.3,8.8c0.1,1,0.3,2,0.6,3
		c1.2,5,2.5,10.1,3.4,15.2c0.2,9.8,1.3,19.8-1.4,29.3c-1.9,6.5,1.8,7,6.3,7c18,0.1,36.1,0,54.1,0.1c2.8,0,5.5-0.2,7.6-2.2
		C357.2,399.8,360.1,398.6,358.8,395.8z"/>
	<path class="st20" d="M256.6,383.3c-0.9-1.6-2.5-2.6-3.8-3.9c-0.9-1.2-1.8-2.4-2.7-3.6c-0.9-1.4-1.4-3-2.4-4.3
		c-0.5-0.6-1.1-1.3-1.7-1.8c-1.2-1.2-2.3-2.5-3.2-3.8c-2.3-2.7-1.1-5,1.2-6.7c2.2-1.6,3.7-2.3,5.2-3.7c6.7-5.8,10.9-7.6,14.2-14.6
		c0.5-1.1,1.5-5.8,0.1-8.4c-5.7-10.3-21.5-11.5-26.4-11.4c-8.3,0.1-30.8-2.5-30.3,15.8c0.1,2.3,0.2,4.6,0.2,6.8
		c-0.6,5.3-1.5,10.5-0.6,15.8c0.4,6,0.7,32,0.4,39c-0.1,2.1-3,4.7-0.2,6.2c2.5,1.3,5-0.7,7-2.6c3-1.1,3.7-3.7,4.5-6.3
		c0.2-1,0.1-1.9-0.3-2.9c-0.1-1.5-0.2-3.1-0.3-4.6c0-3.5,0-7,0-10.6c0.2-1.6,0.6-3.1,1.2-4.7c3.9-6.6,7.7-0.8,11.5,0.1
		c10.1,7.9,18.5,17.5,27.4,26.7c7.6,7.9,12.6,7.5,21.2-0.9C268.6,397.6,262,391.3,256.6,383.3z M231.1,353.9
		c-7.7-0.1-11.5-0.8-11.8-8.7c-0.6-4-3.3-8.3,1.5-11.7c4-2.1,9-2.7,13.6-2.6c4.4,0.1,10.5,1.5,13.2,5.5c1,1.4,1.4,3.9,1.3,5.6
		c-0.2,1.6-0.4,3-1.3,4.4C245.2,349.8,239.2,353.9,231.1,353.9z"/>
	<path class="st24" d="M262.5,243.1c0-3.3,0-6.6,0-9.9C264.9,236.6,265.7,240,262.5,243.1C262.6,243.1,262.5,243.1,262.5,243.1z"/>
	<path class="st20" d="M430.4,326.8C430.4,326.8,430.4,326.8,430.4,326.8L430.4,326.8c-5.2,0.7-9.3-2.2-8.6,6
		c0.2,3.9,0.1,49-0.6,50.3c-5.2-3.2-32.1-44.8-33.8-47.9c-2.3-3.3-2.7-7.7-6.3-10.3c-2.3-0.9-4.2,0.3-6,1.3
		c-4.9,2.7-9.4,2.2-8.2,8.1c0.5,2.2,1.8,3.2,2.5,3.9c0.1,0.1,0.3,0.3,0.4,0.4c0.5,1,0.8,2.2,1.2,4.2c0,4.1,0,8.1,0,12.2
		c0.1,11.5,0.3,23.1,0.4,34.6c-0.1,1.9-0.3,3.9-0.4,5.8c-1.5,2.7-3.3,5.8-1.1,8.3c1.5,1.7,4.3,1.1,5.4-1.8c1.3-2,2.6-4.1,3.9-6.1
		c0.1-16.2-1.2-32.4,1-48.6c0,0,0,0,0,0c7.3,3.2,33.7,42.8,37.9,48.9c1.3,2,2.6,4,3.9,5.9c9,2.4,8.5-5.7,8.9-9.8
		C431.7,383.4,432.9,338.4,430.4,326.8z M377,363.2C377,363.2,376.9,363.1,377,363.2C376.9,363.1,377,363.1,377,363.2
		C377,363.1,377,363.2,377,363.2C377,363.2,377,363.2,377,363.2C377,363.2,377,363.2,377,363.2z"/>
	<g>
		<polygon class="st25" points="459.6,286.6 463.9,295.2 473.4,296.6 466.5,303.3 468.1,312.7 459.6,308.3 451.1,312.7 452.8,303.3 
			445.9,296.6 455.4,295.2 		"/>
		<polygon class="st25" points="494.6,286.6 498.8,295.2 508.3,296.6 501.4,303.3 503.1,312.7 494.6,308.3 486.1,312.7 487.7,303.3 
			480.8,296.6 490.3,295.2 		"/>
		<polygon class="st25" points="529.1,286.6 533.4,295.2 542.9,296.6 536,303.3 537.6,312.7 529.1,308.3 520.6,312.7 522.3,303.3 
			515.4,296.6 524.9,295.2 		"/>
	</g>
</g>
</svg>
