<?xml version="1.0" encoding="utf-8"?>
<!-- Generator: Adobe Illustrator 26.3.1, SVG Export Plug-In . SVG Version: 6.00 Build 0)  -->
<svg version="1.1" id="Layer_1" xmlns="http://www.w3.org/2000/svg" xmlns:xlink="http://www.w3.org/1999/xlink" x="0px" y="0px"
	 viewBox="0 0 595.3 595.3" style="enable-background:new 0 0 595.3 595.3;" xml:space="preserve">
<style type="text/css">
	.st0{fill:#C34947;}
	.st1{fill:#FDFDFD;}
	.st2{fill:#87BDD6;}
	.st3{fill:#3D6C97;}
	.st4{fill:#FAF4F2;}
	.st5{fill:#F1D568;}
</style>
<path class="st0" d="M297.6,595.3L297.6,595.3C133.3,595.3,0,462,0,297.6l0,0C0,133.3,133.3,0,297.6,0l0,0
	C462,0,595.3,133.3,595.3,297.6l0,0C595.3,462,462,595.3,297.6,595.3z"/>
<g>
	<path class="st0" d="M51.6,312c0-9.6,0-19.2,0-28.7c0.7-0.3,0.4-1,0.4-1.5c0.9-13.8,2.9-27.4,6.1-40.9
		c12.2-50.6,37.7-93.3,76.7-127.7c43.8-38.6,95.1-58.8,153.3-61.4c21.4-1,42.6,1,63.4,5.8c45.2,10.3,84.4,31.6,117.7,63.8
		c20.9,20.2,37.6,43.5,50.2,69.7c12.8,26.6,20.5,54.7,23.2,84.1c1.8,19.4,1.3,38.7-1.5,57.9c-3.7,25.5-11,49.8-22.5,72.8
		c-25.5,51.2-64,89.2-115.5,114.1c-22.3,10.8-45.8,17.8-70.4,21.3c-10.2,1.5-20.5,2.2-30.9,2.5c-2.8,0-5.6,0-8.3,0
		c-0.5,0-1-0.1-1.4-0.1c-16.7-0.3-33.2-2.3-49.5-6.1c-49-11.4-90.9-35.4-125.1-72.2c-38.8-41.7-60.5-91.2-65.3-148
		C52.1,315.6,52.4,313.7,51.6,312z M435.4,472.7c-2.2-1.7-4.3-3.5-6.5-5.2c-9.4-7.8-18.9-15.5-28.3-23.3c-0.9-0.7-1.6-1-2.5-0.1
		c-0.7,0.7-1.6,1-2.2,2c1.3,1.1,2.6,2.1,3.8,3.2c13.6,11.2,27.1,22.3,40.7,33.5c1.1,0.9,1.8,0.9,3,0.1c1.5-1,0.8-2,0.4-3
		c-6.9-16.7-13.8-33.5-20.7-50.2c-0.3-0.7-0.8-1.3-0.5-2.9c0.8,1.1,1.2,1.8,1.8,2.4c12.1,12.3,24.2,24.5,36.2,36.9
		c1.2,1.2,1.9,1.2,2.9-0.1c0.8-1,2-1.5,0.4-3.1c-7-6.9-13.9-14-20.8-21c-5.1-5.1-10.1-10.3-15.2-15.5c-0.4-0.4-1.3-0.7-0.6-1.5
		c1.6,1.3,2.5,0.4,3.5-1c1.7-2.4,3.6-4.6,5.3-6.9c0.9-1.3,1.6-1.4,2.9-0.4c12.9,10.1,26,20.1,38.9,30.3c1.8,1.4,2.3,0.4,3.3-0.7
		c1.2-1.3,0.7-1.9-0.5-2.8c-13-10-26-20.1-39-30.1c-1.3-1-1.5-1.7-0.3-3c2.1-2.4,3.9-5.1,5.9-7.5c1.2-1.4,0.6-2-0.5-2.7
		c-1-0.7-1.7-2-3.1-0.1c-5.5,7.4-11.3,14.6-16.9,21.9c-0.5,0.6-1,1.2-1.1,2c-0.9-0.5-1.7-0.4-2.5,0.5c-1.5,1.6-2.4,3.8-4.5,4.8
		c-0.8,0.4-0.2,1.1,0,1.6c1.1,2.8,2.3,5.5,3.4,8.2c4.6,11.1,9.2,22.2,13.7,33.4C435.7,472.4,435.6,472.6,435.4,472.7z M434.4,382.9
		c0.1,0,0.2,0,0.3,0.1c0-0.1,0-0.1-0.1-0.2C434.5,382.9,434.5,383,434.4,382.9c0.4-0.3,0.2-0.8,0.1-1.3c-0.7-2.9-2.6-5.1-4.8-7.1
		c-2.1-1.9-4.3-2.4-6.8-1.2c-2.3,1.2-5,1.3-7.2,2.7c-0.8,0.5-1.9,0.7-2.7,0c-1-0.9-2.2-0.8-3.4-0.7c-4.4,0.3-8.6,1.5-12.8,2.6
		c-2.9,0.8-5.4,0.4-8.1-0.7c-2.8-1.2-5.3-2.9-8.2-3.9c-11.9-4.1-23.9-8.1-35.8-12.2c-1.5-0.5-3.6-0.5-2.8-3.2
		c0.2-0.5-0.4-1.3-0.7-1.9c-0.5-1.3-1-2.6-1.5-3.9c-0.5-1.3-0.4-2,1.4-2.3c6.2-0.9,12.5-1.8,18.4-4.3c10.4-4.4,20.3-9.9,29.7-16.2
		c6.1-4.1,12.1-8.4,16.8-14.2c6.2-7.7,10.6-16.6,14.3-25.7c2.3-5.7,4.1-11.4,7.2-16.9c5.1-9.3,7.5-19.7,8.7-30.2
		c0.5-4.5,1.6-8.3,5.4-11.2c1-0.7,1.8-1,2.9-1.1c5.7-0.3,11.4,0.9,17.1-1.1c1.4-0.5,1.2-1,0.8-1.8c-0.8-1.5-2.3-2.4-3.7-3.2
		c-3.5-2-7.2-3.6-11-4.9c-1-0.4-1.4-0.8-1.4-1.9c-0.1-3.3-0.5-6.6-1.2-9.9c-1.3-6.4-3.8-12.1-9.8-15.4c-7.7-4.2-16-6.4-24.8-4.8
		c-15,2.6-27.8,9.4-38.4,20.5c-3.6,3.8-6.4,8.2-9.8,12.1c-8.1,9-16.5,17.6-25.4,25.8c-10.3,9.5-20.5,18.8-33.9,24.3
		c-14.2,5.8-26.5,15.1-38.2,24.8c-5,4.2-10.7,7.5-15.8,11.5c-7,5.5-14.5,10.2-21.6,15.5c-5.6,4.1-11.2,8.1-16.8,12.3
		c-0.9,0.6-1.8,1-2.8,1.3c-28.9,9.9-57.6,20.4-86.2,31.2c-0.5,0.2-1.1,0.1-1.2,0.8c0.7,0.2,1.3-0.1,1.9-0.2
		c18.2-4.1,36.4-8.2,54.5-12.3c17.6-3.9,35.2-7.7,52.8-11.6c1.8-0.4,3.5-0.4,5.3,0c3.5,0.7,6.5,2.7,10,3.4c10.6,2,20.9,0.6,30.9-2.7
		c4.7-1.6,4.7-1.8,6.9,2.7c1.7,3.6,4.6,5.5,8.4,5.9c1.8,0.2,3.6,0.3,5.4,0.4c7.1,0.2,14.2,0,21.2-0.5c1.2-0.1,1.7,0.3,1.9,1.5
		c0.4,2.6,1.4,4.9,2.6,7.2c1.3,2.5,3.3,3.7,6,3.9c1.3,0.1,2.6,0,4,0c1.6,0,3.4-0.5,4.9,0c11.7,3.5,23.3,7,34.6,11.8
		c1.1,0.5,2.2,1.2,3.2,1.9c0.4,0.3,1,0.8,0.7,1.4c-0.3,0.7-1,0.4-1.5,0.3c-8.2-2.2-16.7-2.6-24.8-5.1c-1.8-0.5-3.6-1.1-5.5-0.4
		c-3.7,1.4-6.7,3.6-8.9,6.9c-0.7,1-1.4,2.1-0.9,3.4c0-0.1,0-0.1,0-0.2c0,0,0-0.1-0.1-0.1c0,0.1,0,0.2,0,0.3c2.5-2.2,5.1-4.3,8-6
		c2.6-1.5,5.1-0.9,7.4,0.5c0.5,0.3,1.1,0.6,0.9,1.6c-0.7,3-0.5,3.4,2.7,3.8c9.6,1.2,19.2,1,28.9,0.6c1.2-0.1,1.7-0.7,1.5-1.9
		c-0.1-0.4-0.5-0.9,0-1.4c0.5,0.3,1.2,0.5,1.5,1c1.8,2.5,4.3,2.4,6.9,2.3c7-0.2,13.7-1.8,20.5-3.1c2-0.4,4.1-1.5,5.4,1.2
		c0.5-1-0.9-1.7,0.1-2.3c1-0.6,1.6,0.4,2.2,1c0.5,0.5,0.9,1.1,1.3,1.7c0.6-1.6-0.4-2.3-0.6-3.4c0.7-0.3,1.5-0.5,1.9-1.4
		c1.4-3,4.3-3.6,6.7-1.5C430.9,379.3,432.6,381.2,434.4,382.9z M367.2,472.8c0.2-0.1,0.3-0.2,0.5-0.2c4.7,5.3,9.3,10.6,14,15.9
		c5.2,5.9,10.4,11.7,15.5,17.7c1.4,1.6,2.5,0.5,3.7,0.1c1.3-0.5,0.3-1.4,0.1-2.1c-5.9-17-11.9-34-17.8-51c-0.6-1.8-1.5-1.5-2.8-1.1
		c-1.4,0.5-2.2,0.8-1.5,2.7c4.4,12.2,8.6,24.4,12.9,36.7c0.2,0.6,0.7,1.3,0.4,2.3c-1.6-1.8-3-3.4-4.4-5
		c-8.4-9.6-16.9-19.2-25.2-28.8c-1.4-1.7-2.6-0.6-3.8-0.2c-1.4,0.5-0.4,1.6-0.1,2.3c5.9,16.9,11.8,33.7,17.7,50.6
		c0.6,1.6,1.1,2,2.7,1.4c1.4-0.6,2.3-0.9,1.6-2.8c-3.5-9.6-6.9-19.3-10.2-29C369.4,479,368.3,475.9,367.2,472.8z M194.4,459.9
		c0.1,0,0.2,0.1,0.3,0.1c0,1.6,0,3.2,0,4.8c-0.3,13.5-0.6,26.9-1.1,40.4c-0.1,2.1,1.5,2.1,2.6,2.6c1.3,0.5,1.3-0.9,1.6-1.7
		c7.1-16.4,14.2-32.8,21.4-49.2c0.8-1.9,0-2.2-1.4-3c-1.6-0.8-2.2-0.4-2.8,1.2c-5,11.7-10.1,23.4-15.2,35.1
		c-0.3,0.7-0.4,1.5-1.2,1.9c-0.6-1.8-0.1-3.5-0.1-5.2c0.2-8.9,0.4-17.8,0.7-26.6c0.1-4.4,0.2-8.7,0.3-13.1c0.1-1.9-1.6-1.8-2.7-2.3
		c-1-0.5-1.1,0.6-1.3,1.1c-7.3,16.7-14.5,33.5-21.8,50.2c-0.8,1.8,0.3,2,1.4,2.4c1,0.4,2,1.4,2.9-0.6c3-7.4,6.3-14.6,9.5-22
		C189.8,470.7,192.1,465.3,194.4,459.9z M290.3,128.7c0.1,0,0.3,0.1,0.4,0.1c0,0.7,0,1.4,0,2.1c0,13.3,0,26.7,0,40
		c0,0.8-0.2,1.6,1.2,1.6c1.1,0,1.6-0.3,1.6-1.5c0-17.8,0-35.6,0-53.3c0-0.6,0.2-1.5-0.9-1.5c-0.8,0-1.7-0.1-1.9,1.1
		c0,0.3-0.2,0.5-0.2,0.8c-3.1,10.9-6.2,21.9-9.3,32.8c-1.4,4.9-2.8,9.7-4.3,15c-0.3-0.9-0.5-1.4-0.6-1.8
		c-4.4-15.4-8.9-30.9-13.3-46.3c-0.3-1.1-0.7-1.7-1.9-1.5c-1.4,0.2-0.9,1.2-0.9,1.9c0,17.5,0,35,0,52.5c0,0.9-0.4,1.9,1.3,2
		c1.7,0,1.5-0.9,1.5-2c0-12.6,0-25.1,0-37.7c0-1.2,0-2.5,0-3.9c0.7,0.6,0.7,1.2,0.9,1.8c3.8,13.3,7.7,26.6,11.5,39.9
		c0.2,0.8,0.2,1.8,1.5,1.8c1.3,0,1.3-0.9,1.6-1.7c2.5-8.7,5-17.3,7.4-26C287.2,139.4,288.8,134.1,290.3,128.7z M490.7,421.6
		c5.3,0.1,8.6-2.4,10.9-6.7c2.3-4.3,2.5-8.6-0.4-12.7c-1.9-2.7-4.6-4.5-7.5-6.1c-7.8-4.1-15.6-8.2-23.4-12.3c-2.2-1.2-4.5-2.1-7-2.5
		c-5.4-1-9.8,1.1-12.6,6c-3,5.3-2.7,10,0.9,14.3c1.9,2.2,4.3,3.7,6.8,5.1c7.8,4.1,15.7,8.3,23.6,12.3
		C484.7,420.5,487.6,421.7,490.7,421.6z M242.6,471.3c0.3-6.3-3-10.8-9.1-12.5c-6.5-1.8-11.4,0.3-14.5,6.1c-0.9,1.7-1.6,3.5-2.1,5.4
		c-1.7,6.5-3.4,13-5,19.5c-1,4-2.4,8-2.6,12.2c-0.3,5.1,2,9.5,6.2,11.6c5.3,2.7,10.6,2.3,14.4-1.1c2.4-2.1,3.8-4.9,4.7-8
		c1.7-6.4,3.4-12.9,5-19.3C240.7,480.6,242.4,476.1,242.6,471.3z M339.9,516.6C339.9,516.6,339.9,516.6,339.9,516.6
		c-0.1,1.4-0.1,2.8-0.1,4.2c0,0.4-0.2,1,0.5,1.2c1.8,0.5,3.9-1,3.9-2.9c0.2-4.6,0.4-9.1,0.5-13.7c0-1.3,0.5-1.8,1.7-2
		c3.2-0.5,6.4-1.1,9.6-1.8c1.6-0.4,2.1,0.2,2.7,1.6c1.8,4.4,3.7,8.7,5.6,13c1,2.4,2.8,0.7,4.1,0.5c1.6-0.3,0.3-1.5,0-2
		c-7.3-17-14.7-33.9-22.1-50.9c-0.5-1.2-1.1-1.6-2.5-1.3c-1.4,0.3-1.8,0.9-1.9,2.2C341.3,481.9,340.6,499.3,339.9,516.6z
		 M164.6,492.7c0.5-0.2,0.5-0.8,0.7-1.3c2.6-6.4,5.1-12.9,7.7-19.3c4.3-10.9,8.6-21.8,13-32.6c0.5-1.2,0.5-1.9-0.7-2.7
		c-1.2-0.8-1.9-0.9-3,0.2c-1.4,1.5-3.1,2.8-4.6,4.2c-12.2,11.2-24.4,22.4-36.7,33.6c-0.4,0.3-1,0.7-0.8,1.1c0.6,1.1,1.8,1.5,2.7,2.1
		c0.8,0.6,1.3-0.2,1.7-0.6c3.5-3.2,7.1-6.5,10.5-9.8c0.9-0.9,1.6-1,2.6-0.2c2.8,2,5.5,3.9,8.4,5.8c1,0.7,1.1,1.3,0.7,2.4
		c-1.8,4.3-3.5,8.7-5.3,13.1C161.1,490.1,163,492.8,164.6,492.7z M308,481.3c0.1-1.2,0.1-2.4,0.3-3.5c0.9-4.8,3.8-7.4,8.1-7.5
		c4.7-0.1,7,2,8.2,7.1c0.3,1.6,0.5,3.2,0.6,4.7c0.2,1.7,1.4,1,2.2,0.9c0.8-0.1,2.3,0.6,2.2-1.3c-0.1-3.1-0.5-6.2-1.9-9.1
		c-3.8-8.2-15.5-9.5-21-2.3c-6.3,8.1-3.1,21.3,6.3,25.5c1.9,0.9,3.9,1.5,5.8,2.2c8.6,2.9,9.1,10.5,7.2,16.2c-1.1,3.3-3.8,5-7.6,5.1
		c-3.8,0.1-6-1.3-7.4-4.8c-0.9-2.1-1.2-4.4-1.2-6.7c-0.1-2.2-1.7-1-2.6-1.2c-0.9-0.1-2-0.2-1.8,1.4c0.3,2.7,0.5,5.4,1.5,7.9
		c3.1,8.2,14,10.6,20.3,4.4c7.5-7.3,4.8-21.6-4.9-25.8c-2.1-0.9-4.3-1.5-6.4-2.4C310.9,490.2,308.1,486.7,308,481.3z M169.1,429.5
		c0-7.2-4.5-12.7-9.7-13.8c-8.5-1.8-18.7,6.3-19.2,15.2c-0.2,4.1,1.1,7.8,2.6,11.4c3.2,8-1.4,13.5-7.7,16.1
		c-3.1,1.3-6.2,0.3-8.6-2.4c-2.6-3-3-5.4-1.3-8.7c1.1-2.1,2.7-3.9,4.5-5.4c1.6-1.5-0.2-2-0.8-2.7c-0.5-0.7-1.1-1.7-2.2-0.5
		c-1.6,1.7-3.3,3.3-4.6,5.4c-5,7.9,0.1,18.6,9.1,19.4c8.6,0.7,17.2-7.3,17.2-16.1c0-3.6-1.5-6.7-2.7-10c-2.8-7.8,0.9-14.8,8.9-17
		c3.5-0.9,6.3,0.1,8.7,3.3c2,2.7,2.1,5.4,0.2,8.5c-1.1,1.8-2.6,3.5-4.2,4.9c-0.7,0.6-0.9,1.1-0.1,1.8c0.6,0.5,1.1,1.1,1.6,1.7
		c0.4,0.4,0.7,0.6,1.2,0.1C165.6,437.1,169,433.3,169.1,429.5z M106,428.3c4,0.1,7.3-1.7,10.7-3.5c1.9-1,0.6-1.9,0.1-2.8
		c-0.5-0.9-0.8-2.2-2.4-1.1c-1.7,1.2-3.5,2-5.4,2.6c-2.6,0.8-5.1,0.9-7.2-1.1c-4.2-4.1-5-8.9,0-13c1-0.8,2.1-1.6,3.2-2.3
		c7.8-4.6,15.5-9.2,23.3-13.7c1.2-0.7,2.5-1.3,3.7-1.8c4.4-1.6,7.6-0.5,10,3.3c2.3,3.9,1.8,7.2-1.8,10.3c-0.9,0.8-2,1.5-3,2.2
		c-2.8,1.8-2.8,1.8-0.9,4.4c0.5,0.7,0.9,0.9,1.6,0.4c2.7-1.5,5.2-3.2,7.1-5.6c3.4-4.1,3.6-8.5,1.2-13.2c-2.6-5.1-6.5-7.4-11.7-7
		c-3.1,0.2-5.8,1.4-8.4,2.9c-6.2,3.6-12.3,7.2-18.5,10.9c-3.2,1.9-6.4,3.5-9.3,6c-4.1,3.6-5.6,8.6-3.8,13.3
		C96.9,425.2,100.8,428.3,106,428.3z M358,162.9c-0.4-0.9-0.7-1.4-0.9-2c-5.7-14.2-11.4-28.4-17.1-42.6c-0.4-1.1-0.5-2.4-2.2-2.1
		c-1.7,0.3-0.8,1.7-0.8,2.5c-0.1,12.2,0,24.4,0,36.7c0,5.2,0.1,10.4,0,15.6c0,1.5,0.7,1.5,1.8,1.5c1.5-0.1,0.9-1.2,0.9-1.9
		c0-14.2,0-28.5,0-42.7c0-0.7,0-1.4,0-2.1c0.7,0.5,0.9,1.1,1.2,1.7c5.8,14.3,11.6,28.6,17.4,43c0.4,1.1,0.6,2.4,2.3,2
		c1.4-0.4,0.7-1.6,0.7-2.4c0-15.3,0-30.7,0-46c0-2.2-0.1-4.3,0-6.5c0-1.1-0.4-1.4-1.4-1.4c-1.8-0.1-1.3,1.2-1.3,2.1
		c0,14,0,27.9,0,41.9C358.4,161,358.6,161.8,358,162.9z M369.5,144.2c0.2-5.7-0.3-11.4,0.4-17.1c0.6-5.2,3.6-8,8.7-8.2
		c5.1-0.2,8.2,2.4,9.2,7.7c0.3,1.4,0.4,2.7,0.3,4.1c-0.1,1.1,0,1.8,1.5,1.8c1.5,0,1.5-0.9,1.4-1.9c-0.1-1.5-0.2-2.9-0.4-4.3
		c-1-6.3-5.1-10-11.3-10.1c-6.4-0.2-10.6,3-11.9,9c-0.3,1.6-0.5,3.1-0.5,4.7c0,9.6,0,19.2,0,28.7c0,1.8,0.2,3.6,0.7,5.3
		c1.6,5.9,5.2,8.4,11.9,8.4c5.6,0,9.3-3,10.7-8.6c1.3-5.1,0.6-10.2,0.8-15.3c0-1.1-0.7-1-1.4-1c-4,0-8.1,0-12.1,0
		c-1.3,0-1.4,0.5-1.5,1.6c0,1.2,0.5,1.3,1.5,1.3c3.1,0,6.1,0,9.2,0c0.6,0,1.5-0.3,1.5,0.9c-0.1,3.9,0.4,7.9-0.6,11.8
		c-0.9,3.3-2.7,5.8-6.3,6.4c-6.5,1.2-10.7-1.9-11.5-8.5C369.2,155.5,369.7,149.9,369.5,144.2z M253.8,172.4c2.5,0.1,1.2-1.5,1-2.2
		c-3.9-17.5-8-35-12-52.5c-0.2-0.8-0.2-1.6-1.4-1.6c-1.2,0-1.3,0.7-1.5,1.5c-4,17.7-8.1,35.4-12.1,53.1c-0.1,0.5-1.1,1.6,0.4,1.7
		c0.9,0.1,2,0.4,2.3-1.3c0.9-4.8,2.2-9.5,3.1-14.2c0.3-1.3,0.8-1.6,2.1-1.6c3.7,0.1,7.5,0.1,11.2,0c1.5-0.1,2,0.5,2.2,1.9
		c0.9,4.6,2,9.2,3,13.8C252.4,172.1,252.7,172.8,253.8,172.4z M299.5,144.1c0,8.9,0,17.8,0,26.7c0,1.4,0.4,1.8,1.8,1.7
		c1.4-0.1,1-1.1,1-1.8c0-7.6,0.1-15.3,0-22.9c0-1.7,0.5-2.2,2.1-2.1c1.9,0.1,3.9,0.1,5.8,0c6.9-0.2,10.7-3.1,12.1-9.2
		c0.9-3.8,0.8-7.6,0-11.3c-1.2-5-4.2-8-9.4-8.7c-3.8-0.5-7.6-0.1-11.4-0.3c-1.6-0.1-2,0.4-2,1.9
		C299.5,126.8,299.5,135.4,299.5,144.1z M201.6,145.3c0-5,0-8.9,0-12.9c0-2.6,0.1-5.3,0.9-7.8c1.2-3.6,4.1-5.6,8.3-5.6
		c4.1,0,6.9,1.8,8.3,5.4c0.8,2.1,0.9,4.3,1,6.5c0,1.1,0.2,1.6,1.5,1.6c1.5,0,1.3-0.8,1.3-1.7c0-0.9,0-1.8-0.1-2.7
		c-0.5-6-3.5-10.2-8.1-11.4c-8.6-2.2-15.1,2.3-15.6,11.2c-0.6,10.5-0.2,21-0.2,31.4c0,1.5,0.3,3,0.6,4.5c1.2,4.9,4.5,8,9.3,8.6
		c5.5,0.7,9.7-1.1,12-5.1c1.7-2.9,2.1-6.1,2-9.4c0-1,0.1-1.7-1.3-1.7c-1.3,0-1.4,0.6-1.4,1.7c0,1.1-0.1,2.2-0.2,3.3
		c-0.5,4.8-2.9,7.7-6.7,8.4c-6.2,1.1-10.3-1.8-11.2-8C201.1,155.8,201.8,150,201.6,145.3z M280.2,469.5
		C280.2,469.5,280.2,469.5,280.2,469.5c0.8,0,1.7,0.1,2.5,0.2c1,0.1,1.4-0.2,1.4-1.2c0-0.8,0-1.4-1.1-1.5
		c-5.8-0.4-11.6-0.8-17.4-1.3c-1.5-0.1-1.7,0.6-1.8,1.7c-0.2,3.3-0.4,6.6-0.7,10c-1,14.1-2,28.2-3.1,42.3c-0.1,1.7,0.5,2.1,2,2.2
		c5.5,0.3,10.9,0.7,16.4,1.2c1.1,0.1,1.8,0.2,1.9-1.3c0.2-1.7-1-1.4-1.8-1.4c-4.6-0.3-9.1-0.7-13.7-0.9c-1.5-0.1-2-0.5-1.9-2.1
		c0.6-6.8,1.1-13.7,1.6-20.5c0.1-1.4,0.6-1.5,1.8-1.5c4.8,0.4,9.5,0.7,14.3,1c1,0.1,1.5,0,1.6-1.2c0.1-1.2-0.4-1.5-1.5-1.5
		c-4.8-0.3-9.5-0.7-14.3-1.1c-0.8-0.1-1.6,0-1.5-1.3c0.6-7,1-14.1,1.5-21.2c0.1-1.1,0.5-1.5,1.7-1.4
		C272,469,276.1,469.2,280.2,469.5z M279.7,422.6c-1.2,2.3-2.2,4.2-3.1,6.2c-0.6,1.2-1.3,2-2.7,2.1c-2.2,0.2-4.3,0.6-6.7,1
		c1.4,2,3.1,3.4,4.6,4.8c1.1,1,1.6,1.9,1.2,3.4c-0.5,1.7-0.6,3.4-0.9,5.1c-0.2,1.2,0.1,1.6,1.3,1c1.6-0.9,3.3-1.7,5-2.6
		c0.9-0.5,1.8-0.6,2.7,0c1.6,0.9,3.3,1.7,5,2.6c1.1,0.6,1.6,0.3,1.4-0.9c-0.3-1.8-0.5-3.6-0.9-5.3c-0.3-1.3,0-2.1,0.9-2.9
		c1.6-1.6,3.2-3.2,5.1-5.1c-2.6-0.4-4.9-0.8-7.2-1.1c-1.1-0.1-1.7-0.6-2.2-1.6C282,427.2,280.9,425.1,279.7,422.6z M255.1,432
		c-2.7-0.4-5-0.9-7.3-1.1c-1.1-0.1-1.7-0.6-2.2-1.6c-1-2.1-2.1-4.1-3.3-6.6c-1.1,2.3-2.2,4.2-3,6.1c-0.6,1.3-1.4,2-2.9,2.2
		c-2.1,0.2-4.3,0.4-6.7,1.2c1.7,1.6,3.1,3.1,4.6,4.4c1.2,1.1,1.7,2.2,1.3,3.8c-0.5,2-0.7,4.1-1.1,6.6c2.3-1.2,4.2-2.1,6.1-3.2
		c1.3-0.7,2.3-0.8,3.6,0c1.9,1.1,3.9,2,6.2,3.2c-0.4-2.6-0.8-4.8-1.2-7c-0.2-1.3,0-2.2,1-3.1C251.8,435.5,253.2,433.9,255.1,432z
		 M365.4,432.1c-2-0.7-3.9-0.9-5.7-1c-2.1-0.1-3.4-1-4.2-3c-0.7-1.8-1.7-3.4-2.7-5.4c-1.2,2.4-2.2,4.3-3,6.2
		c-0.6,1.2-1.3,1.9-2.8,2.1c-2.2,0.3-4.4,0.4-6.6,1.1c1.2,1.7,2.5,3,4,4.1c1.7,1.4,2.1,2.9,1.6,4.9c-0.5,1.8-0.6,3.6-1,5.9
		c2.4-1.2,4.4-2.2,6.4-3.3c1.1-0.6,2-0.6,3.1,0c1.9,1.1,4,2.1,6.4,3.4c-0.5-2.7-0.8-4.9-1.2-7.2c-0.2-1.1,0-2,0.9-2.8
		C362.1,435.6,363.7,433.9,365.4,432.1z M328.2,431.9c-2.5-0.4-4.6-0.9-6.8-1c-1.5-0.1-2.2-0.8-2.7-2.1c-0.9-2-1.9-3.9-3.1-6.2
		c-1.3,2.5-2.3,4.6-3.3,6.8c-0.4,0.9-1,1.3-2,1.5c-2.4,0.3-4.7,0.7-7.2,1.1c1.6,1.7,2.9,3.2,4.4,4.5c1.3,1.1,1.9,2.2,1.4,3.9
		c-0.4,1.4-0.5,2.9-0.8,4.3c-0.1,0.6-0.5,1.4,0.1,1.7c0.6,0.4,1.2-0.3,1.7-0.5c1.5-0.7,3-1.5,4.4-2.3c1-0.6,1.7-0.5,2.7,0
		c2,1.1,4.1,2.1,6.6,3.4c-0.4-2.5-0.7-4.6-1.1-6.7c-0.3-1.5,0-2.6,1.2-3.6C325.1,435.4,326.5,433.8,328.2,431.9z M156.1,408
		c-0.7-0.9-1.4-2-2.3-2.8c-0.7-0.5-1.3,0.5-1.9,1c-14.4,10.7-28.7,21.5-43.2,32.2c-1.4,1-1.2,1.7-0.3,2.7c0.8,1,1.3,2.2,3,0.9
		c4.1-3.3,8.3-6.3,12.5-9.4c10.3-7.7,20.6-15.5,31-23.2C155.3,409.1,156,408.9,156.1,408z M331.6,144.3c0-8.7,0-17.5,0-26.2
		c0-0.9,0.4-1.9-1.3-1.9c-1.5,0-1.5,0.8-1.5,1.8c0,17.6,0,35.2,0,52.8c0,0.9-0.1,1.7,1.3,1.7c1.6,0,1.4-0.8,1.4-1.8
		C331.6,161.9,331.6,153.1,331.6,144.3z M280.7,87.7c0-0.9,0-1.7,0-2.4c0-0.6,0-1.4-0.9-1.4c-0.8,0-0.8,0.8-0.8,1.4
		c0,3.7-0.1,7.5,0.1,11.2c0.1,2,0.6,4,1.6,5.8c0.3,0.5,0.6,1.1,1.3,0.8c0.7-0.3,0.5-0.9,0.3-1.4c-0.2-0.4-0.4-0.9-0.6-1.3
		c-1.5-4.1-1.4-8.2,1-12c2.7-4.2,7.2-4,9.6,0.4c1.1,2,1.7,4.1,1.6,6.4c-0.1,2.5,0.5,5,1.6,7.2c0.2,0.5,0.6,1,1.3,0.7
		c0.7-0.3,0.4-0.9,0.2-1.4c-0.2-0.6-0.5-1.1-0.7-1.7c-1.3-4.4-1.1-8.7,1.8-12.4c2.2-2.9,5.6-2.9,8-0.1c1,1.1,1.7,2.4,2.1,3.8
		c0.9,3.5,0.8,6.9-0.8,10.1c-0.3,0.6-0.9,1.3,0.1,1.8c0.8,0.3,1.1-0.4,1.4-0.9c2.8-4.6,1.9-12.5-1.9-16.3c-2.8-2.9-6.4-2.9-9.4-0.2
		c-1.2,1.1-1.8,2.6-2.8,3.9C290,82.2,286.9,81.8,280.7,87.7z M339.5,99.6c0,2.4,0.1,4.6,0,6.8c-0.1,3.3-2.1,5.1-5.3,5.2
		c-0.7,0-1.4,0-2.1,0c-3.4-0.1-5-1.3-5.9-4.7c-0.1-0.6-0.2-1.2-1-1.1c-0.8,0.1-0.8,0.9-0.7,1.5c0.2,2.5,2.2,4.9,4.9,5.6
		c1.4,0.4,2.7,0.4,4.1,0.3c5,0,7.6-2.6,7.6-7.6c0-4.5,0.1-9,0-13.5c0-2.3-0.6-4.5-1.7-6.6c-0.3-0.5-0.7-1-1.3-0.7
		c-0.7,0.3-0.4,0.9-0.2,1.4c0.2,0.6,0.6,1.1,0.7,1.7c1.3,4.2,1,8.1-1.8,11.6c-2.2,2.6-5.5,2.7-7.8,0.3c-0.9-1-1.7-2-2.1-3.3
		c-1.2-3.4-1-6.7,0.6-9.9c0.3-0.6,0.8-1.4,0-1.8c-0.9-0.4-1.2,0.5-1.5,1.1c-1.8,3.5-2,7.2-0.7,10.9c2.6,7.3,9.6,8.7,13.8,2.8
		C339.1,99.6,339.2,99.6,339.5,99.6z M276.1,93.6c0-2.6,0-5.3,0-7.9c0-2-0.1-2-1.7-1.1c-0.5,0.3-0.8-0.1-1.1-0.2
		c-4.8-1.8-9.2-0.6-12,3.3c-2.5,3.4-2.5,8.1,0.2,11.6c2.8,3.7,7.1,4.9,11.7,3.2c0.4-0.2,0.8-0.7,1.4-0.1c1.4,1.4,1.5,0.2,1.5-0.9
		C276.2,98.9,276.1,96.2,276.1,93.6z M249,95.6c0,1.9,0,3.9,0,5.8c0,0.7-0.3,1.8,0.9,1.7c0.9,0,0.8-1,0.8-1.7c0-3.2,0-6.4,0-9.6
		c0-3.5,0-3.5,3.4-3.5c0.4,0,0.8,0,1.2,0c0.5,0,1-0.1,1-0.8c0-0.6-0.5-0.8-1-0.9c-1.2-0.1-2.4,0-3.5-0.1c-0.5,0-1.2,0.1-1.2-0.8
		c0.1-3.5-0.4-6.9,0.4-10.4c0.2-1,0.6-1.9,1.8-2.1c1.2-0.1,1.9,0.6,2.1,1.8c0.1,0.5,0.3,1,1,0.9c0.7-0.1,0.7-0.8,0.6-1.3
		c-0.3-1.4-1-2.5-2.6-3c-1.5-0.4-2.7,0.1-3.6,1.3c-0.6,0.8-0.9,1.7-1,2.7c-0.5,2.8-0.2,5.7-0.2,8.5c0,1.4,0.2,2.7-1.9,2.4
		c-0.4-0.1-1,0.2-1,0.8c0,0.5,0.4,0.8,0.8,0.7c2.1-0.3,2.1,1.1,2,2.5C249,92.4,249,94,249,95.6z M320.7,86.4c0-3.3,0-6.7,0-10
		c0-1,0-2.1,0-3.1c0-0.6,0-1.4-0.9-1.4c-0.8,0-0.8,0.8-0.8,1.4c0,0.2,0,0.4,0,0.6c0,8.1,0,16.2,0,24.3c0,1.3,0.2,2.6,0.7,3.9
		c0.2,0.6,0.5,1.3,1.3,0.9c0.7-0.3,0.5-0.9,0.3-1.4c-0.6-1.5-0.6-3.1-0.6-4.7C320.7,93.5,320.7,89.9,320.7,86.4z M315.7,93.5
		c0-2.8,0-5.5,0-8.3c0-0.6,0-1.4-0.8-1.4c-0.9,0-0.8,0.8-0.8,1.4c0,5.5,0,11.1,0,16.6c0,0.6,0,1.4,0.9,1.4c0.9,0,0.8-0.8,0.8-1.4
		C315.7,99,315.7,96.2,315.7,93.5z M315,71.9c-0.8,0-1.2,0.6-1.3,1.3c-0.1,0.8,0.3,1.6,1.2,1.6c0.8,0.1,1.2-0.5,1.3-1.3
		C316.2,72.7,315.9,72,315,71.9z M118.9,367.4c0.2-0.1,0.3-0.2,0.4-0.2c-0.2-0.1-0.3-0.2-0.5-0.2c-0.1,0-0.2,0.1-0.3,0.2
		C118.6,367.3,118.8,367.4,118.9,367.4z"/>
	<path class="st1" d="M333.7,384.8c-0.5-1.4,0.3-2.5,0.9-3.5c2.2-3.3,5.2-5.5,8.9-6.9c1.9-0.7,3.7-0.2,5.5,0.4
		c8.1,2.4,16.6,2.9,24.8,5.1c0.5,0.1,1.2,0.4,1.5-0.3c0.2-0.6-0.3-1.1-0.7-1.4c-1-0.7-2.1-1.4-3.2-1.9c-11.2-4.8-22.9-8.4-34.6-11.8
		c-1.5-0.4-3.3,0-4.9,0c-1.3,0-2.6,0.1-4,0c-2.7-0.2-4.7-1.4-6-3.9c-1.2-2.3-2.2-4.6-2.6-7.2c-0.2-1.2-0.7-1.5-1.9-1.5
		c-7.1,0.4-14.1,0.7-21.2,0.5c-1.8-0.1-3.6-0.2-5.4-0.4c-3.9-0.4-6.7-2.4-8.4-5.9c-2.2-4.4-2.2-4.2-6.9-2.7
		c-10.1,3.3-20.4,4.7-30.9,2.7c-3.5-0.7-6.5-2.7-10-3.4c-1.8-0.4-3.5-0.4-5.3,0c-17.6,3.9-35.2,7.7-52.8,11.6
		c-18.2,4.1-36.4,8.2-54.5,12.3c-0.6,0.1-1.2,0.4-1.9,0.2c0.2-0.7,0.8-0.7,1.2-0.8c28.6-10.8,57.3-21.2,86.2-31.2
		c1-0.3,1.9-0.7,2.8-1.3c5.6-4.1,11.2-8.1,16.8-12.3c7.1-5.3,14.7-10.1,21.6-15.5c5.1-4,10.8-7.3,15.8-11.5
		c11.8-9.8,24-19.1,38.2-24.8c13.4-5.5,23.6-14.8,33.9-24.3c8.9-8.2,17.3-16.8,25.4-25.8c3.5-3.9,6.2-8.3,9.8-12.1
		c10.6-11.1,23.4-17.9,38.4-20.5c8.8-1.5,17.1,0.6,24.8,4.8c6,3.3,8.5,9,9.8,15.4c0.7,3.3,1.1,6.6,1.2,9.9c0,1.1,0.4,1.6,1.4,1.9
		c3.8,1.3,7.5,2.9,11,4.9c1.4,0.8,2.9,1.7,3.7,3.2c0.5,0.8,0.6,1.3-0.8,1.8c-5.6,2.1-11.4,0.8-17.1,1.1c-1.2,0.1-2,0.4-2.9,1.1
		c-3.8,2.8-4.9,6.7-5.4,11.2c-1.1,10.5-3.6,20.9-8.7,30.2c-3,5.5-4.9,11.2-7.2,16.9c-3.7,9.1-8,18-14.3,25.7
		c-4.7,5.8-10.7,10.1-16.8,14.2c-9.4,6.3-19.2,11.8-29.7,16.2c-5.9,2.5-12.1,3.5-18.4,4.3c-1.8,0.2-1.9,1-1.4,2.3
		c0.5,1.3,1,2.6,1.5,3.9c0.2,0.6,0.9,1.4,0.7,1.9c-0.8,2.7,1.3,2.7,2.8,3.2c11.9,4.1,23.8,8.2,35.8,12.2c2.9,1,5.4,2.8,8.2,3.9
		c2.6,1.1,5.2,1.5,8.1,0.7c4.2-1.1,8.4-2.3,12.8-2.6c1.2-0.1,2.4-0.2,3.4,0.7c0.9,0.8,2,0.5,2.7,0c2.2-1.4,4.9-1.6,7.2-2.7
		c2.6-1.3,4.8-0.7,6.8,1.2c2.2,2,4,4.2,4.8,7.1c0.1,0.5,0.3,1-0.1,1.4l0-0.1c-1.8-1.8-3.5-3.6-5.3-5.2c-2.5-2.2-5.3-1.5-6.7,1.5
		c-0.4,0.9-1.2,1.1-1.9,1.4c0.2,1.1,1.2,1.8,0.6,3.4c-0.4-0.6-0.8-1.2-1.3-1.7c-0.6-0.6-1.2-1.6-2.2-1c-0.9,0.6,0.5,1.3-0.1,2.3
		c-1.4-2.7-3.4-1.5-5.4-1.2c-6.8,1.3-13.6,2.9-20.5,3.1c-2.6,0.1-5.2,0.1-6.9-2.3c-0.3-0.5-1-0.7-1.5-1c-0.5,0.5-0.1,0.9,0,1.4
		c0.3,1.2-0.3,1.9-1.5,1.9c-9.6,0.4-19.3,0.6-28.9-0.6c-3.2-0.4-3.4-0.8-2.7-3.8c0.2-1-0.4-1.3-0.9-1.6c-2.4-1.5-4.8-2.1-7.4-0.5
		C338.8,380.5,336.2,382.6,333.7,384.8L333.7,384.8z"/>
	<path class="st2" d="M427.4,424.9c-0.6,0.9,0.3,1.1,0.6,1.5c5,5.2,10.1,10.3,15.2,15.5c6.9,7,13.8,14.1,20.8,21
		c1.6,1.6,0.4,2.1-0.4,3.1c-1,1.2-1.7,1.3-2.9,0.1c-12-12.3-24.1-24.6-36.2-36.9c-0.6-0.6-1-1.3-1.8-2.4c-0.3,1.6,0.2,2.2,0.5,2.9
		c6.9,16.7,13.8,33.5,20.7,50.2c0.4,1.1,1.1,2-0.4,3c-1.2,0.8-1.9,0.9-3-0.1c-13.5-11.2-27.1-22.3-40.7-33.5
		c-1.3-1.1-2.6-2.1-3.8-3.2c0.6-0.9,1.6-1.3,2.2-2c0.9-0.9,1.6-0.7,2.5,0.1c9.4,7.8,18.9,15.5,28.3,23.3c2.1,1.8,4.3,3.5,6.5,5.2
		c0.2,0.1,0.3,0.5,0.6,0.2c0.1-0.1-0.1-0.4-0.1-0.7c-4.6-11.1-9.2-22.2-13.7-33.4c-1.1-2.7-2.3-5.5-3.4-8.2c-0.2-0.5-0.8-1.2,0-1.6
		c2.1-1.1,3-3.3,4.5-4.8c0.8-0.8,1.5-1,2.5-0.5l0-0.1c-0.1,0.4,0.1,0.5,0.5,0.5l0,0c-0.1,0.4,0.1,0.5,0.5,0.5l0,0
		C426.7,424.9,426.7,425.6,427.4,424.9L427.4,424.9z"/>
	<path class="st2" d="M367.2,472.8c1.1,3.1,2.2,6.2,3.2,9.4c3.4,9.7,6.7,19.4,10.2,29c0.7,2-0.2,2.2-1.6,2.8
		c-1.6,0.7-2.2,0.3-2.7-1.4c-5.8-16.9-11.8-33.8-17.7-50.6c-0.2-0.7-1.3-1.7,0.1-2.3c1.2-0.5,2.4-1.5,3.8,0.2
		c8.3,9.7,16.8,19.2,25.2,28.8c1.4,1.6,2.8,3.2,4.4,5c0.3-1-0.2-1.7-0.4-2.3c-4.3-12.2-8.5-24.5-12.9-36.7c-0.7-1.9,0.2-2.2,1.5-2.7
		c1.3-0.5,2.2-0.7,2.8,1.1c5.9,17,11.9,34,17.8,51c0.2,0.6,1.2,1.6-0.1,2.1c-1.2,0.4-2.3,1.5-3.7-0.1c-5.1-6-10.3-11.8-15.5-17.7
		c-4.7-5.3-9.3-10.6-14-15.9C367.6,472.6,367.4,472.7,367.2,472.8z"/>
	<path class="st3" d="M194.4,459.9c-2.3,5.4-4.7,10.8-7,16.1c-3.2,7.3-6.4,14.6-9.5,22c-0.8,2.1-1.8,1-2.9,0.6
		c-1.1-0.4-2.1-0.7-1.4-2.4c7.3-16.7,14.5-33.4,21.8-50.2c0.2-0.6,0.3-1.6,1.3-1.1c1.1,0.5,2.7,0.4,2.7,2.3
		c-0.1,4.4-0.2,8.7-0.3,13.1c-0.2,8.9-0.5,17.8-0.7,26.6c0,1.7-0.5,3.4,0.1,5.2c0.9-0.5,0.9-1.3,1.2-1.9
		c5.1-11.7,10.2-23.4,15.2-35.1c0.7-1.5,1.2-2,2.8-1.2c1.4,0.7,2.2,1,1.4,3c-7.2,16.4-14.3,32.8-21.4,49.2c-0.3,0.7-0.3,2.1-1.6,1.7
		c-1.2-0.4-2.7-0.5-2.6-2.6c0.4-13.5,0.7-26.9,1.1-40.4c0-1.6,0-3.2,0-4.8C194.6,460,194.5,460,194.4,459.9z"/>
	<path class="st4" d="M290.3,128.7c-1.5,5.4-3.1,10.7-4.6,16.1c-2.5,8.7-5,17.3-7.4,26c-0.2,0.8-0.2,1.7-1.6,1.7
		c-1.4,0-1.3-1-1.5-1.8c-3.8-13.3-7.7-26.6-11.5-39.9c-0.2-0.6-0.2-1.2-0.9-1.8c0,1.4,0,2.6,0,3.9c0,12.6,0,25.1,0,37.7
		c0,1.1,0.2,2-1.5,2c-1.7,0-1.3-1.1-1.3-2c0-17.5,0-35,0-52.5c0-0.7-0.5-1.7,0.9-1.9c1.3-0.1,1.6,0.5,1.9,1.5
		c4.4,15.5,8.9,30.9,13.3,46.3c0.1,0.5,0.3,0.9,0.6,1.8c1.5-5.3,3-10.1,4.3-15c3.1-10.9,6.2-21.9,9.3-32.8c0.1-0.3,0.2-0.5,0.2-0.8
		c0.1-1.2,1-1.1,1.9-1.1c1.1,0,0.9,0.8,0.9,1.5c0,17.8,0,35.6,0,53.3c0,1.2-0.4,1.5-1.6,1.5c-1.3,0-1.2-0.8-1.2-1.6
		c0-13.3,0-26.7,0-40c0-0.7,0-1.4,0-2.1C290.6,128.8,290.4,128.7,290.3,128.7z"/>
	<path class="st2" d="M490.7,421.6c-3,0.1-6-1.1-8.8-2.6c-7.9-4.1-15.7-8.2-23.6-12.3c-2.5-1.3-4.9-2.9-6.8-5.1
		c-3.6-4.2-3.9-9-0.9-14.3c2.8-4.9,7.2-7,12.6-6c2.5,0.5,4.8,1.4,7,2.5c7.8,4.1,15.6,8.2,23.4,12.3c2.9,1.5,5.6,3.3,7.5,6.1
		c2.9,4.2,2.7,8.4,0.4,12.7C499.3,419.2,496,421.8,490.7,421.6z M498.8,408.5c0.1-1.6-0.7-3.1-1.9-4.5c-1.3-1.4-2.8-2.5-4.5-3.4
		c-8.4-4.4-16.8-8.8-25.2-13.2c-1.7-0.9-3.5-1.6-5.5-1.8c-3.4-0.4-5.7,1.2-7.3,4c-1.6,2.9-2.1,5.7,0.1,8.5c1.5,2.1,3.6,3.4,5.9,4.6
		c5.9,3.1,11.8,6.2,17.7,9.2c3.3,1.7,6.5,3.8,10.1,4.8C493.9,418.4,498.8,414.7,498.8,408.5z"/>
	<path class="st3" d="M242.6,471.3c-0.2,4.8-1.8,9.4-3,14c-1.6,6.4-3.3,12.9-5,19.3c-0.8,3.1-2.3,5.8-4.7,8
		c-3.8,3.4-9.1,3.8-14.4,1.1c-4.2-2.1-6.5-6.4-6.2-11.6c0.2-4.2,1.6-8.1,2.6-12.2c1.7-6.5,3.4-13,5-19.5c0.5-1.9,1.2-3.7,2.1-5.4
		c3.1-5.8,8-7.9,14.5-6.1C239.6,460.5,242.8,465,242.6,471.3z M213.7,502.1c0,4.7,1.9,7.3,6.1,8.5c4.1,1.1,7.2-0.2,9.2-4
		c0.8-1.5,1.3-3.2,1.8-4.9c1.4-5.4,2.8-10.9,4.2-16.3c1.1-4.2,2.4-8.4,3.1-12.7c0.8-5-1.1-8.2-5.5-9.5c-4.6-1.4-7.9,0.1-10.1,4.8
		c-0.5,1.1-0.9,2.3-1.3,3.5c-1.7,6.3-3.3,12.6-4.9,18.9C215.3,494.4,213.9,498.3,213.7,502.1z"/>
	<path class="st2" d="M339.9,516.6c0.7-17.4,1.4-34.8,2.1-52.2c0.1-1.3,0.5-1.9,1.9-2.2c1.4-0.2,1.9,0.1,2.5,1.3
		c7.3,17,14.7,33.9,22.1,50.9c0.2,0.6,1.5,1.7,0,2c-1.3,0.2-3,1.9-4.1-0.5c-1.9-4.3-3.8-8.6-5.6-13c-0.5-1.3-1.1-2-2.7-1.6
		c-3.2,0.7-6.4,1.3-9.6,1.8c-1.2,0.2-1.7,0.8-1.7,2c-0.1,4.6-0.3,9.1-0.5,13.7c-0.1,1.9-2.1,3.4-3.9,2.9c-0.7-0.2-0.5-0.7-0.5-1.2
		C339.8,519.4,339.8,518,339.9,516.6C339.9,516.6,339.9,516.6,339.9,516.6z M346.4,475.1c-0.9,0.8-0.7,1.7-0.7,2.5
		c0,1.9,0.1,3.8-0.1,5.6c-0.6,4.8-0.1,9.6-0.7,14.4c-0.2,1.2,0.5,1.6,1.7,1.3c2.7-0.6,5.4-1.1,8.1-1.6c1.1-0.2,1.3-0.6,0.8-1.6
		c-1.3-2.7-2.4-5.5-3.6-8.3C350.1,483.4,348.3,479.3,346.4,475.1z"/>
	<path class="st3" d="M164.6,492.7c-1.6,0.1-3.5-2.6-2.9-4c1.8-4.4,3.5-8.8,5.3-13.1c0.5-1.1,0.3-1.7-0.7-2.4
		c-2.8-1.9-5.6-3.8-8.4-5.8c-1-0.8-1.7-0.7-2.6,0.2c-3.5,3.3-7,6.5-10.5,9.8c-0.5,0.4-0.9,1.2-1.7,0.6c-0.9-0.7-2.2-1.1-2.7-2.1
		c-0.2-0.4,0.5-0.8,0.8-1.1c12.2-11.2,24.4-22.4,36.7-33.6c1.5-1.4,3.2-2.7,4.6-4.2c1-1.1,1.8-1,3-0.2c1.2,0.8,1.2,1.6,0.7,2.7
		c-4.4,10.9-8.7,21.8-13,32.6c-2.6,6.4-5.1,12.9-7.7,19.3C165.2,491.9,165.1,492.5,164.6,492.7z M178,447.6
		c-0.1-0.1-0.2-0.2-0.3-0.3c-5.7,5.2-11.3,10.4-17,15.5c-0.8,0.7-0.2,1,0.3,1.4c2.4,1.6,4.8,3.3,7.2,5c0.9,0.7,1.3,0.3,1.6-0.6
		C172.5,461.6,175.3,454.6,178,447.6z"/>
	<path class="st2" d="M308,481.3c0.1,5.5,2.9,9,7.8,10.9c2.1,0.8,4.3,1.5,6.4,2.4c9.7,4.1,12.4,18.4,4.9,25.8
		c-6.3,6.1-17.2,3.8-20.3-4.4c-1-2.6-1.2-5.3-1.5-7.9c-0.2-1.6,0.9-1.5,1.8-1.4c0.9,0.1,2.6-1.1,2.6,1.2c0.1,2.3,0.3,4.6,1.2,6.7
		c1.5,3.5,3.6,4.9,7.4,4.8c3.8-0.1,6.4-1.7,7.6-5.1c1.9-5.6,1.4-13.3-7.2-16.2c-2-0.7-4-1.3-5.8-2.2c-9.4-4.2-12.6-17.4-6.3-25.5
		c5.5-7.1,17.2-5.8,21,2.3c1.3,2.9,1.7,6,1.9,9.1c0.1,1.9-1.4,1.2-2.2,1.3c-0.8,0.1-2,0.8-2.2-0.9c-0.1-1.6-0.3-3.2-0.6-4.7
		c-1.1-5.2-3.5-7.2-8.2-7.1c-4.3,0.1-7.2,2.7-8.1,7.5C308.1,478.9,308.1,480.1,308,481.3z"/>
	<path class="st3" d="M169.1,429.5c-0.1,3.8-3.5,7.5-7.2,11.1c-0.5,0.5-0.8,0.3-1.2-0.1c-0.5-0.6-1-1.2-1.6-1.7
		c-0.8-0.7-0.6-1.2,0.1-1.8c1.6-1.4,3-3,4.2-4.9c1.9-3.1,1.8-5.8-0.2-8.5c-2.4-3.2-5.2-4.3-8.7-3.3c-8,2.1-11.6,9.2-8.9,17
		c1.2,3.3,2.7,6.4,2.7,10c0,8.7-8.6,16.8-17.2,16.1c-9.1-0.8-14.1-11.5-9.1-19.4c1.3-2,3-3.6,4.6-5.4c1.1-1.2,1.7-0.2,2.2,0.5
		c0.6,0.8,2.4,1.3,0.8,2.7c-1.8,1.6-3.4,3.3-4.5,5.4c-1.7,3.4-1.4,5.7,1.3,8.7c2.4,2.7,5.5,3.7,8.6,2.4c6.3-2.6,10.9-8.1,7.7-16.1
		c-1.5-3.7-2.8-7.3-2.6-11.4c0.5-8.9,10.6-17,19.2-15.2C164.7,416.9,169.1,422.4,169.1,429.5z"/>
	<path class="st3" d="M106,428.3c-5.2,0-9.2-3.1-11.3-8.9c-1.8-4.7-0.3-9.7,3.8-13.3c2.8-2.4,6.1-4.1,9.3-6
		c6.1-3.6,12.3-7.3,18.5-10.9c2.6-1.5,5.3-2.7,8.4-2.9c5.2-0.4,9,2,11.7,7c2.4,4.7,2.2,9.1-1.2,13.2c-2,2.4-4.5,4.1-7.1,5.6
		c-0.8,0.5-1.1,0.3-1.6-0.4c-1.8-2.7-1.8-2.6,0.9-4.4c1-0.7,2.1-1.4,3-2.2c3.6-3.1,4.1-6.5,1.8-10.3c-2.3-3.9-5.5-5-10-3.3
		c-1.3,0.5-2.6,1.1-3.7,1.8c-7.8,4.6-15.5,9.1-23.3,13.7c-1.1,0.7-2.2,1.4-3.2,2.3c-5,4.1-4.2,8.9,0,13c2.1,2,4.6,2,7.2,1.1
		c1.9-0.6,3.8-1.4,5.4-2.6c1.6-1.1,1.9,0.2,2.4,1.1c0.5,0.9,1.8,1.8-0.1,2.8C113.4,426.7,110,428.4,106,428.3z"/>
	<path class="st4" d="M358,162.9c0.5-1.1,0.4-2,0.4-2.8c0-14,0-27.9,0-41.9c0-0.9-0.5-2.2,1.3-2.1c1.1,0,1.5,0.3,1.4,1.4
		c-0.1,2.1,0,4.3,0,6.5c0,15.3,0,30.7,0,46c0,0.8,0.7,2-0.7,2.4c-1.7,0.4-1.9-0.9-2.3-2c-5.8-14.3-11.6-28.6-17.4-43
		c-0.2-0.6-0.5-1.1-1.2-1.7c0,0.7,0,1.4,0,2.1c0,14.2,0,28.5,0,42.7c0,0.7,0.6,1.8-0.9,1.9c-1.1,0.1-1.8,0-1.8-1.5
		c0.1-5.2,0-10.4,0-15.6c0-12.2,0-24.4,0-36.7c0-0.8-0.9-2.2,0.8-2.5c1.7-0.3,1.8,1,2.2,2.1c5.7,14.2,11.4,28.4,17.1,42.6
		C357.4,161.5,357.6,162,358,162.9z"/>
	<path class="st2" d="M425.7,423.7c0.1-0.8,0.6-1.4,1.1-2c5.7-7.3,11.4-14.5,16.9-21.9c1.4-1.8,2.1-0.5,3.1,0.1
		c1.1,0.7,1.7,1.3,0.5,2.7c-2.1,2.4-3.8,5.1-5.9,7.5c-1.2,1.3-1,2,0.3,3c13,10,26,20.1,39,30.1c1.2,0.9,1.7,1.5,0.5,2.8
		c-1,1.1-1.5,2.1-3.3,0.7c-12.9-10.2-26-20.2-38.9-30.3c-1.3-1-1.9-1-2.9,0.4c-1.7,2.4-3.6,4.6-5.3,6.9c-1,1.4-1.9,2.3-3.5,1
		c0,0,0,0,0,0c-0.2-0.4-0.3-0.9-0.9-0.4c0,0,0,0,0,0c0.2-0.5-0.1-0.5-0.5-0.5c0,0,0,0,0,0C426.3,423.7,426,423.6,425.7,423.7
		L425.7,423.7z"/>
	<path class="st4" d="M369.5,144.2c0.2,5.6-0.3,11.2,0.4,16.9c0.8,6.6,5,9.7,11.5,8.5c3.6-0.7,5.4-3.2,6.3-6.4
		c1-3.9,0.5-7.9,0.6-11.8c0-1.2-0.8-0.9-1.5-0.9c-3.1,0-6.1,0-9.2,0c-1,0-1.5-0.1-1.5-1.3c0-1.1,0.2-1.6,1.5-1.6c4,0.1,8.1,0,12.1,0
		c0.7,0,1.5-0.1,1.4,1c-0.1,5.1,0.5,10.3-0.8,15.3c-1.4,5.6-5.2,8.6-10.7,8.6c-6.7,0-10.3-2.5-11.9-8.4c-0.5-1.7-0.7-3.5-0.7-5.3
		c0-9.6,0-19.2,0-28.7c0-1.6,0.2-3.2,0.5-4.7c1.3-6,5.5-9.2,11.9-9c6.2,0.2,10.3,3.8,11.3,10.1c0.2,1.4,0.3,2.9,0.4,4.3
		c0.1,1,0.1,1.8-1.4,1.9c-1.5,0-1.5-0.7-1.5-1.8c0.1-1.4-0.1-2.8-0.3-4.1c-1-5.3-4.1-7.9-9.2-7.7c-5.1,0.2-8.1,3-8.7,8.2
		C369.2,132.9,369.7,138.6,369.5,144.2z"/>
	<path class="st4" d="M253.8,172.4c-1.1,0.3-1.4-0.4-1.6-1.4c-1-4.6-2.1-9.2-3-13.8c-0.3-1.4-0.7-2-2.2-1.9c-3.7,0.1-7.5,0.1-11.2,0
		c-1.3,0-1.8,0.3-2.1,1.6c-1,4.7-2.2,9.4-3.1,14.2c-0.3,1.7-1.3,1.3-2.3,1.3c-1.5-0.1-0.5-1.2-0.4-1.7c4-17.7,8.1-35.4,12.1-53.1
		c0.2-0.8,0.3-1.5,1.5-1.5c1.2,0,1.2,0.9,1.4,1.6c4,17.5,8,35,12,52.5C254.9,170.9,256.3,172.6,253.8,172.4z M241.4,124.4
		c-0.2,0.2-0.3,0.3-0.3,0.4c-2.1,8.8-4.1,17.7-6.2,26.5c-0.2,1,0.2,1.4,1.2,1.3c3.5,0,6.9,0,10.4,0c1.1,0,1.5-0.4,1.2-1.5
		C245.6,142.3,243.6,133.4,241.4,124.4z"/>
	<path class="st4" d="M299.5,144.1c0-8.7,0-17.4,0-26c0-1.6,0.4-2,2-1.9c3.8,0.2,7.6-0.2,11.4,0.3c5.1,0.7,8.2,3.7,9.4,8.7
		c0.9,3.8,0.9,7.6,0,11.3c-1.4,6.1-5.2,9-12.1,9.2c-1.9,0.1-3.9,0.1-5.8,0c-1.6-0.1-2.1,0.4-2.1,2.1c0.1,7.6,0,15.3,0,22.9
		c0,0.7,0.4,1.7-1,1.8c-1.3,0.1-1.8-0.3-1.8-1.7C299.5,161.9,299.5,153,299.5,144.1z M302.2,130.9c0,3.5,0,6.9,0,10.4
		c0,0.9,0,1.6,1.3,1.6c2.8-0.1,5.6,0.1,8.3-0.1c4.2-0.3,6.8-2.7,7.7-6.7c0.7-3.1,0.7-6.2,0.2-9.3c-1-5.3-3.2-7.4-8.7-7.8
		c-2.3-0.2-4.7,0-7.1-0.1c-1.4-0.1-1.8,0.5-1.7,1.8C302.2,124.1,302.2,127.5,302.2,130.9z"/>
	<path class="st4" d="M201.6,145.3c0.2,4.7-0.4,10.5,0.4,16.2c0.9,6.3,5,9.2,11.2,8c3.8-0.7,6.2-3.7,6.7-8.4
		c0.1-1.1,0.2-2.2,0.2-3.3c0-1,0.1-1.6,1.4-1.7c1.4,0,1.3,0.7,1.3,1.7c0,3.3-0.4,6.5-2,9.4c-2.3,4.1-6.5,5.9-12,5.1
		c-4.8-0.6-8.1-3.7-9.3-8.6c-0.3-1.5-0.6-3-0.6-4.5c0-10.5-0.4-21,0.2-31.4c0.5-8.9,7-13.4,15.6-11.2c4.6,1.2,7.6,5.4,8.1,11.4
		c0.1,0.9,0,1.8,0.1,2.7c0,0.9,0.2,1.7-1.3,1.7c-1.3,0-1.5-0.6-1.5-1.6c0-2.2-0.2-4.4-1-6.5c-1.3-3.6-4.2-5.4-8.3-5.4
		c-4.2,0-7.1,2-8.3,5.6c-0.8,2.5-0.9,5.2-0.9,7.8C201.6,136.3,201.6,140.3,201.6,145.3z"/>
	<path class="st4" d="M280.2,469.5c-4.1-0.3-8.2-0.5-12.2-0.9c-1.2-0.1-1.6,0.3-1.7,1.4c-0.5,7.1-0.9,14.1-1.5,21.2
		c-0.1,1.4,0.7,1.3,1.5,1.3c4.8,0.4,9.5,0.8,14.3,1.1c1.1,0.1,1.6,0.3,1.5,1.5c-0.1,1.2-0.6,1.3-1.6,1.2c-4.8-0.4-9.5-0.7-14.3-1
		c-1.1-0.1-1.7,0-1.8,1.5c-0.4,6.8-1,13.7-1.6,20.5c-0.1,1.6,0.4,2,1.9,2.1c4.6,0.2,9.1,0.6,13.7,0.9c0.9,0.1,2-0.3,1.8,1.4
		c-0.1,1.5-0.8,1.4-1.9,1.3c-5.5-0.4-10.9-0.8-16.4-1.2c-1.5-0.1-2.1-0.5-2-2.2c1.1-14.1,2.1-28.2,3.1-42.3c0.2-3.3,0.5-6.6,0.7-10
		c0.1-1.2,0.3-1.9,1.8-1.7c5.8,0.5,11.6,0.9,17.4,1.3c1.1,0.1,1.1,0.7,1.1,1.5c0,1-0.4,1.4-1.4,1.2
		C281.8,469.6,281,469.6,280.2,469.5C280.2,469.5,280.2,469.5,280.2,469.5z"/>
	<path class="st5" d="M279.7,422.6c1.2,2.5,2.3,4.5,3.3,6.7c0.5,1,1.1,1.5,2.2,1.6c2.3,0.2,4.6,0.7,7.2,1.1
		c-1.9,1.9-3.4,3.5-5.1,5.1c-0.9,0.8-1.3,1.6-0.9,2.9c0.5,1.7,0.7,3.5,0.9,5.3c0.2,1.2-0.2,1.5-1.4,0.9c-1.6-0.9-3.3-1.7-5-2.6
		c-1-0.6-1.8-0.5-2.7,0c-1.6,0.9-3.3,1.7-5,2.6c-1.2,0.7-1.5,0.2-1.3-1c0.3-1.7,0.4-3.5,0.9-5.1c0.4-1.5-0.1-2.4-1.2-3.4
		c-1.6-1.4-3.2-2.8-4.6-4.8c2.4-0.4,4.5-0.8,6.7-1c1.5-0.1,2.2-0.8,2.7-2.1C277.5,426.9,278.5,424.9,279.7,422.6z"/>
	<path class="st5" d="M255.1,432c-1.9,1.9-3.4,3.5-5,5c-1,0.9-1.3,1.9-1,3.1c0.4,2.2,0.8,4.3,1.2,7c-2.3-1.2-4.3-2.1-6.2-3.2
		c-1.3-0.8-2.4-0.7-3.6,0c-1.8,1.1-3.8,2-6.1,3.2c0.4-2.5,0.6-4.6,1.1-6.6c0.4-1.6,0-2.8-1.3-3.8c-1.5-1.3-2.9-2.8-4.6-4.4
		c2.4-0.9,4.6-1,6.7-1.2c1.5-0.2,2.3-0.8,2.9-2.2c0.9-1.9,1.9-3.8,3-6.1c1.2,2.5,2.3,4.5,3.3,6.6c0.5,1,1.1,1.5,2.2,1.6
		C250.1,431.1,252.4,431.6,255.1,432z"/>
	<path class="st5" d="M365.4,432.1c-1.8,1.8-3.3,3.4-5,5c-0.9,0.8-1.1,1.6-0.9,2.8c0.4,2.2,0.8,4.5,1.2,7.2
		c-2.4-1.2-4.4-2.2-6.4-3.4c-1.1-0.6-2-0.6-3.1,0c-2,1.1-4,2.1-6.4,3.3c0.4-2.3,0.6-4.1,1-5.9c0.5-2.1,0.1-3.6-1.6-4.9
		c-1.4-1.2-2.8-2.5-4-4.1c2.2-0.8,4.5-0.9,6.6-1.1c1.5-0.2,2.2-0.8,2.8-2.1c0.9-1.9,1.9-3.8,3-6.2c1,2.1,2,3.7,2.7,5.4
		c0.8,2,2,2.9,4.2,3C361.5,431.2,363.4,431.4,365.4,432.1z"/>
	<path class="st5" d="M328.2,431.9c-1.8,1.8-3.1,3.4-4.7,4.7c-1.2,1-1.6,2.1-1.2,3.6c0.5,2.1,0.7,4.2,1.1,6.7
		c-2.4-1.2-4.5-2.3-6.6-3.4c-1-0.5-1.8-0.6-2.7,0c-1.4,0.8-2.9,1.6-4.4,2.3c-0.5,0.3-1.1,0.9-1.7,0.5c-0.6-0.4-0.2-1.1-0.1-1.7
		c0.2-1.4,0.3-2.9,0.8-4.3c0.6-1.8-0.1-2.8-1.4-3.9c-1.5-1.3-2.8-2.9-4.4-4.5c2.5-0.4,4.9-0.8,7.2-1.1c1-0.1,1.6-0.6,2-1.5
		c1-2.1,2.1-4.2,3.3-6.8c1.2,2.3,2.2,4.2,3.1,6.2c0.6,1.2,1.2,2,2.7,2.1C323.6,431.1,325.7,431.6,328.2,431.9z"/>
	<path class="st3" d="M156.1,408c0,0.9-0.8,1.1-1.2,1.4c-10.3,7.8-20.6,15.5-31,23.2c-4.2,3.1-8.4,6.1-12.5,9.4
		c-1.7,1.4-2.2,0.1-3-0.9c-0.9-1.1-1.1-1.7,0.3-2.7c14.4-10.7,28.8-21.5,43.2-32.2c0.6-0.4,1.2-1.5,1.9-1
		C154.7,406,155.3,407.1,156.1,408z"/>
	<path class="st4" d="M331.6,144.3c0,8.8,0,17.6,0,26.4c0,1,0.1,1.9-1.4,1.8c-1.4,0-1.3-0.8-1.3-1.7c0-17.6,0-35.2,0-52.8
		c0-1,0-1.8,1.5-1.8c1.7,0,1.3,1.1,1.3,1.9C331.6,126.8,331.6,135.6,331.6,144.3z"/>
	<path class="st4" d="M280.7,87.7c6.2-5.9,9.3-5.5,14,1.9c1-1.3,1.6-2.8,2.8-3.9c3-2.7,6.6-2.7,9.4,0.2c3.8,3.8,4.7,11.7,1.9,16.3
		c-0.3,0.5-0.6,1.3-1.4,0.9c-1-0.4-0.3-1.2-0.1-1.8c1.6-3.3,1.7-6.7,0.8-10.1c-0.4-1.4-1.1-2.7-2.1-3.8c-2.4-2.8-5.8-2.8-8,0.1
		c-2.9,3.8-3.2,8-1.8,12.4c0.2,0.6,0.5,1.2,0.7,1.7c0.2,0.5,0.5,1.1-0.2,1.4c-0.7,0.3-1-0.2-1.3-0.7c-1.1-2.3-1.7-4.7-1.6-7.2
		c0.1-2.3-0.5-4.4-1.6-6.4c-2.4-4.3-6.9-4.6-9.6-0.4c-2.4,3.8-2.5,7.8-1,12c0.2,0.5,0.4,0.9,0.6,1.3c0.2,0.5,0.4,1.1-0.3,1.4
		c-0.7,0.3-1-0.3-1.3-0.8c-1-1.8-1.6-3.7-1.6-5.8c-0.1-3.7-0.1-7.5-0.1-11.2c0-0.6,0-1.4,0.8-1.4c0.9,0,0.9,0.7,0.9,1.4
		C280.7,86,280.7,86.8,280.7,87.7z"/>
	<path class="st4" d="M339.5,99.6c-0.3,0-0.4,0-0.4,0.1c-4.2,5.9-11.2,4.5-13.8-2.8c-1.3-3.7-1.1-7.4,0.7-10.9
		c0.3-0.6,0.6-1.5,1.5-1.1c0.9,0.4,0.3,1.2,0,1.8c-1.5,3.2-1.7,6.5-0.6,9.9c0.4,1.3,1.2,2.4,2.1,3.3c2.3,2.4,5.7,2.4,7.8-0.3
		c2.9-3.5,3.1-7.4,1.8-11.6c-0.2-0.6-0.5-1.1-0.7-1.7c-0.2-0.5-0.5-1.1,0.2-1.4c0.6-0.3,1.1,0.2,1.3,0.7c1.1,2,1.7,4.3,1.7,6.6
		c0,4.5,0,9,0,13.5c0,5-2.6,7.5-7.6,7.6c-1.4,0-2.8,0-4.1-0.3c-2.7-0.7-4.7-3.1-4.9-5.6c0-0.6-0.1-1.4,0.7-1.5
		c0.7-0.1,0.8,0.5,1,1.1c0.8,3.3,2.4,4.6,5.9,4.7c0.7,0,1.4,0,2.1,0c3.3-0.1,5.2-1.9,5.3-5.2C339.5,104.2,339.5,101.9,339.5,99.6z"
		/>
	<path class="st4" d="M276.1,93.6c0,2.6,0,5.3,0,7.9c0,1.1-0.2,2.3-1.5,0.9c-0.7-0.6-1-0.1-1.4,0.1c-4.6,1.7-8.8,0.6-11.7-3.2
		c-2.6-3.5-2.7-8.2-0.2-11.6c2.8-3.8,7.3-5,12-3.3c0.3,0.1,0.6,0.5,1.1,0.2c1.7-1,1.7-1,1.7,1.1C276.2,88.4,276.1,91,276.1,93.6z
		 M274.5,93.4c0-1.7-0.1-3.5,0-5.2c0-1-0.4-1.5-1.2-1.9c-3.4-1.8-7.4-1.1-10,1.8c-2.5,2.7-2.8,6.8-0.8,9.8c2.1,3.2,6.1,4.5,9.7,3.2
		c1.6-0.6,2.6-1.4,2.4-3.3C274.3,96.4,274.5,94.9,274.5,93.4z"/>
	<path class="st4" d="M249,95.6c0-1.6,0-3.2,0-4.8c0.1-1.5,0.1-2.8-2-2.5c-0.4,0.1-0.8-0.2-0.8-0.7c0-0.6,0.5-0.9,1-0.8
		c2.1,0.3,1.9-1,1.9-2.4c0.1-2.8-0.3-5.7,0.2-8.5c0.2-1,0.4-1.9,1-2.7c0.9-1.2,2.1-1.7,3.6-1.3c1.5,0.4,2.3,1.5,2.6,3
		c0.1,0.5,0.1,1.2-0.6,1.3c-0.6,0.1-0.9-0.4-1-0.9c-0.3-1.2-0.9-2-2.1-1.8c-1.1,0.1-1.5,1.1-1.8,2.1c-0.8,3.4-0.2,6.9-0.4,10.4
		c0,0.8,0.6,0.8,1.2,0.8c1.2,0,2.4,0,3.5,0.1c0.5,0,1,0.3,1,0.9c0,0.6-0.6,0.7-1,0.8c-0.4,0-0.8,0-1.2,0c-3.4,0-3.4,0-3.4,3.5
		c0,3.2,0,6.4,0,9.6c0,0.7,0.1,1.6-0.8,1.7c-1.1,0.1-0.9-1-0.9-1.7C249,99.5,249,97.6,249,95.6z"/>
	<path class="st1" d="M320.7,86.4c0,3.5,0,7.1,0,10.6c0,1.6,0,3.2,0.6,4.7c0.2,0.5,0.4,1.2-0.3,1.4c-0.8,0.3-1.1-0.4-1.3-0.9
		c-0.5-1.2-0.7-2.5-0.7-3.9c0-8.1,0-16.2,0-24.3c0-0.2,0-0.4,0-0.6c0-0.6,0-1.4,0.8-1.4c0.9,0,0.8,0.7,0.9,1.4c0,1,0,2.1,0,3.1
		C320.7,79.8,320.7,83.1,320.7,86.4z"/>
	<path class="st1" d="M315.7,93.5c0,2.8,0,5.5,0,8.3c0,0.6,0.1,1.4-0.8,1.4c-0.9,0-0.9-0.7-0.9-1.4c0-5.5,0-11.1,0-16.6
		c0-0.6,0-1.4,0.8-1.4c0.9,0,0.8,0.8,0.8,1.4C315.7,87.9,315.7,90.7,315.7,93.5z"/>
	<path class="st4" d="M315,71.9c1,0.2,1.2,0.8,1.2,1.7c-0.1,0.8-0.5,1.4-1.3,1.3c-0.9-0.1-1.3-0.8-1.2-1.6
		C313.7,72.4,314.1,71.9,315,71.9z"/>
	<path class="st1" d="M118.9,367.4c-0.1-0.1-0.3-0.1-0.5-0.2c0.1-0.1,0.2-0.2,0.3-0.2c0.2,0,0.3,0.1,0.5,0.2
		C119.2,367.3,119.1,367.3,118.9,367.4z"/>
	<path class="st1" d="M333.7,384.8c0-0.1,0-0.2,0-0.3c0,0,0.1,0.1,0.1,0.1C333.7,384.7,333.7,384.7,333.7,384.8
		C333.7,384.8,333.7,384.8,333.7,384.8z"/>
	<path class="st1" d="M434.4,383c0.1-0.1,0.2-0.1,0.3-0.2c0,0.1,0,0.1,0.1,0.2C434.6,383,434.5,383,434.4,383
		C434.4,382.9,434.4,383,434.4,383z"/>
	<path class="st0" d="M426.5,424.5c0.6-0.4,0.7,0,0.9,0.4C426.7,425.6,426.7,424.9,426.5,424.5z"/>
	<path class="st0" d="M435.9,472.3c0.1,0.2,0.2,0.6,0.1,0.7c-0.2,0.3-0.4-0.1-0.6-0.2C435.6,472.6,435.7,472.4,435.9,472.3z"/>
	<path class="st0" d="M425.7,423.7c0.3,0,0.6,0,0.5,0.5C425.8,424.2,425.6,424,425.7,423.7z"/>
	<path class="st0" d="M426.1,424.1c0.4-0.1,0.6,0,0.5,0.5C426.2,424.6,426,424.4,426.1,424.1z"/>
	<path class="st0" d="M498.8,408.5c0,6.2-4.9,10-10.7,8.3c-3.6-1-6.8-3.1-10.1-4.8c-5.9-3-11.8-6.1-17.7-9.2
		c-2.2-1.2-4.3-2.5-5.9-4.6c-2.1-2.8-1.7-5.7-0.1-8.5c1.6-2.9,3.9-4.4,7.3-4c2,0.2,3.8,0.9,5.5,1.8c8.4,4.4,16.8,8.8,25.2,13.2
		c1.7,0.9,3.2,2,4.5,3.4C498.1,405.3,498.9,406.8,498.8,408.5z"/>
	<path class="st0" d="M213.7,502.1c0.2-3.8,1.6-7.7,2.6-11.7c1.6-6.3,3.2-12.6,4.9-18.9c0.3-1.2,0.7-2.4,1.3-3.5
		c2.2-4.7,5.4-6.3,10.1-4.8c4.5,1.4,6.3,4.6,5.5,9.5c-0.7,4.3-2,8.5-3.1,12.7c-1.4,5.4-2.8,10.9-4.2,16.3c-0.4,1.7-1,3.3-1.8,4.9
		c-2,3.8-5.1,5.1-9.2,4C215.6,509.5,213.6,506.8,213.7,502.1z"/>
	<path class="st0" d="M346.4,475.1c1.9,4.2,3.7,8.3,5.5,12.3c1.2,2.8,2.4,5.6,3.6,8.3c0.5,1.1,0.3,1.4-0.8,1.6
		c-2.7,0.5-5.4,1-8.1,1.6c-1.2,0.2-1.8-0.2-1.7-1.3c0.7-4.8,0.1-9.6,0.7-14.4c0.2-1.8,0.1-3.7,0.1-5.6
		C345.8,476.9,345.5,476,346.4,475.1z"/>
	<path class="st0" d="M178,447.6c-2.7,7-5.5,14-8.2,21.1c-0.3,0.9-0.7,1.2-1.6,0.6c-2.4-1.7-4.8-3.3-7.2-5c-0.6-0.4-1.1-0.7-0.3-1.4
		c5.7-5.2,11.3-10.4,17-15.5C177.8,447.4,177.9,447.5,178,447.6z"/>
	<path class="st0" d="M241.4,124.4c2.1,9,4.2,17.9,6.3,26.8c0.3,1.1-0.1,1.5-1.2,1.5c-3.5,0-6.9,0-10.4,0c-1,0-1.4-0.3-1.2-1.3
		c2.1-8.8,4.1-17.7,6.2-26.5C241.2,124.7,241.3,124.6,241.4,124.4z"/>
	<path class="st0" d="M302.2,130.9c0-3.4,0-6.8,0-10.2c0-1.3,0.3-1.9,1.7-1.8c2.4,0.1,4.7,0,7.1,0.1c5.4,0.4,7.7,2.4,8.7,7.8
		c0.6,3.1,0.5,6.2-0.2,9.3c-0.9,4-3.5,6.4-7.7,6.7c-2.8,0.2-5.5,0-8.3,0.1c-1.3,0-1.3-0.7-1.3-1.6
		C302.2,137.9,302.2,134.4,302.2,130.9z"/>
	<path class="st0" d="M274.5,93.4c0,1.5-0.2,2.9,0,4.4c0.3,2-0.8,2.8-2.4,3.3c-3.6,1.3-7.5,0-9.7-3.2c-2-3-1.7-7.1,0.8-9.8
		c2.6-2.9,6.7-3.6,10-1.8c0.8,0.4,1.3,0.9,1.2,1.9C274.4,90,274.5,91.7,274.5,93.4z"/>
</g>
</svg>
