<svg xmlns="http://www.w3.org/2000/svg" xml:space="preserve" id="Layer_1" x="0" y="0" style="enable-background:new 0 0 595.3 595.3" version="1.1" viewBox="0 0 595.3 595.3"><style>.st11{fill:#e9a756}.st20{fill:#15327e}.st23{fill:#193982}.st25{fill:#f6de56}</style><path d="M297.6 595.3C133.3 595.3 0 462 0 297.6 0 133.3 133.3 0 297.6 0 462 0 595.3 133.3 595.3 297.6c0 164.4-133.3 297.7-297.7 297.7" style="fill:#fff"/><linearGradient id="SVGID_1_" x1="307.054" x2="307.054" y1="287.48" y2="219.145" gradientTransform="matrix(1 0 0 -1 0 595.276)" gradientUnits="userSpaceOnUse"><stop offset="0" style="stop-color:#82c9eb"/><stop offset=".999" style="stop-color:#f9fcfe"/></linearGradient><path d="M180.1 321.1s24.7 21.6 59.5 15.8 79.6-31.1 102.4-29c22.7 2 74.2 14.1 92 52 0 0-23.6-22.7-63.5-13.8s-88.3 31.8-117 29.9c-26.2-1.7-69.9-13.8-73.4-54.9" style="fill:url(#SVGID_1_)"/><path d="M354.3 313.4c-8 .2-16 .5-24 .7.1-4.5 4-3.5 6.6-4.4 7.3-2.7 2-7.2.5-9.5-5.4-8.3-6.4-17.9-9.1-27 15.4 5.4 19.7 19 24.3 32.4.8 2.5 1.1 5.2 1.7 7.8" style="fill:#f8e06b"/><path d="M328.2 273.1c4 3.7 6 7.3 5.6 13.7-.4 6.6 6.9 11.8 8.8 18.8 1.2 4.5 1.5 7.3-4.4 6.5-3.5-4.5-5.2-10-7.9-14.9-5.1-9.4-12.9-15.8-21.2-21.9.2-2.6 2.1-3.2 4.2-3.6 4.2 1.6 8.4 1.4 12.6-.1.8.5 1.6 1 2.3 1.5" style="fill:#f9dd51"/><path d="M237.2 322.6c2-15.8 11.1-27.6 21.3-38.9 2.2.7 3.2 2.4 3.3 4.6-4.9 11.7-9.7 23.5-15.4 34.9-.6.9-1.3 1.6-2.1 2.2-2 1-4 1-6 0-.8-.8-1.2-1.7-1.1-2.8" style="fill:#f8de53"/><path d="M260.6 287.8c-.7-1.4-1.4-2.8-2.1-4.1 5.6-7.6 13.5-11.5 22.2-14.4 12-5.2 27-3.3 33.1 4.2-1.7 0-3.2.4-4.1 2-4.3 1.9-8.7.2-13 .4-11.2.6-21.6 3.4-30.6 10.4-1.6 1.3-3.3 2.6-5.5 1.5" style="fill:#fae352"/><path d="M313.8 273.6c-10.5-5.2-21.8-5.1-33.1-4.2 15.6-10.3 30.5-6 45.2 2.3-3.6 2.8-7.4 5.4-12.1 1.9" style="fill:#f7e16d"/><path d="M326.4 314.5c-9.9 3.7-20.7 4.6-30.3 9.4-2.1 2.9-4.7-.1-6.9.6-2.7.3-6.3-.6-6.1 4.1-5.2 4.7-10.7 8.7-18.4 7.5-4.5-3.5-11.4-5.2-10.9-12.9 5.5-6.5 13.8-4.4 20.7-6.6 15.9-5.3 32.4-6.2 49.1-4 1.2.2 2.1.9 2.8 1.9" style="fill:#f8e94f"/><path d="m326.4 314.5-2.4-.3c-20.2-6-40.4-8.4-60.8-.4-4.1 1.6-8.3 2.8-11.1 6.7-2 2.8-4.4 4.1-7.7 1.8 5.6-11.4 9.1-23.8 16.2-34.5 14.3-12.5 30.4-17.4 49.1-12.2 14.3 4.7 27.6 21.6 28.6 36.5-2.7.5-5.9-.8-8 2-1.3.1-2.6.3-3.9.4" style="fill:#fceb4f"/><path d="M244.4 322.3c1 0 2.4.4 3-.1 20.8-18.9 53.6-22.4 76.6-8.1-21.7-2-42.6 3.6-63.6 7.5-2.2.4-4.8.6-6.1 3.1-3.4-.4-6.7-.8-10.1-1.2 0-.3.1-.7.2-1.2" style="fill:#fadd4d"/><path d="M250.3 335.1c-4.5-2.6-9.2-4.6-14.6-4.1.2 3.3.5 6.6.7 9.9 1.1 1.1 2.5.9 3.8.5.2-.1.4-.3.6-.4 3.2 1.4 6.3 1.3 9.5-.2 1.6-1.9 3.5-3.8 0-5.7" style="fill:#efdb53"/><path d="M303.4 200.1c-1.1-3.4-3.6-6.9 0-10.3 4-.9 2.5 3.2 4.2 4.5 9.2 12.6 11.2 26.9 10.1 41.9-.9 12.7-8.3 18.6-18.4 15.1.3-2.7.2-5.5.3-8.2 2.1-10.8 4-21.6 4.1-32.7 1.4-3.4 1.7-6.9-.3-10.3M262.5 243.1c-2.1-12.1-7-23.2-11.9-34.4 1.8-2 3.6-2 5.4 0 13 7.9 19.6 19.9 22.6 34.2 1.1 5.4-1.5 10.4-3 15.2-1.1 3.6-6.2 3.7-9.9 3-4.5-.9-4-4.4-3.5-8 .6-3.2.3-6.6.3-10 2.1-2.7.6-5.8.8-6.8 0 1 1.2 4.1-.8 6.8M371.1 317.4c-2.2-1-4.3-2-6.5-3 .4-3.6-1.6-7.8 2.3-10.7 2.1.4 4.2.4 6.3.2 16.2 1.9 32.1 2.8 44.8-10.4 3.6 0 3.6 2 2.5 4.6-4.4 10.1-10.9 18-22.4 20.4-4 2.1-8.7-.5-12.6 1.7l.3.7c-.8.6-1.6 1-2.6 1-4.6-.4-8.6-1.8-12.1-4.5" class="st11"/><path d="M328.2 261.1c-5.3-2.1-6-5.8-1.9-9.2 11.5-9.6 19.1-21.8 24.8-35.4.7-1.8 1.2-4.3 4-3.5 2.1.6 1.5 2.7 1.7 4.3 2.3 18.9-3.1 34.3-20.3 44.5-2.8-.2-5.5-1.4-8.3-.7" style="fill:#eaa857"/><path d="M244.1 266c1.7 6.7 8.6 13.8-1.9 19.5-3.4 1.8-6.2 1.5-7.4-2.1-4.4-12.8-15-19.6-25.4-26.7-2.7-1.9-6.5-2.8-5.8-7.3 15.1-.1 28.7 3.7 38.9 15.8-.4 1.3.2 2.6.3 3.9.7-1 .2-2.4 1.3-3.1" style="fill:#e9a858"/><path d="M181 312c6.5-1.1 8.7-5.7 12.3-8.6 10.8-8.5 22.4-10.8 35.6-5.7 6.4 2.5 5.7 7.3 4.7 11.7-1.1 5-5.1 2.5-8.3 1.9-10.9-2-21.7-.7-32.2 2.4-3.7 1-7.1 2.2-12.1-1.7" class="st11"/><path d="M389.6 265.5c-3 12.6-11.2 18.7-23.1 20.9-7.8 1.4-9.2-3.4-10.7-7.6-2.1-6 3.7-4.8 6.9-5.7 11-2.9 17.3-12.8 26.8-17.9 1.7 3.4 1.4 6.9.1 10.3" style="fill:#e9a857"/><path d="M299.5 243.1c2.8 2.8 2.8 5.6-.3 8.2-2.5-2.9-2.1-5.6.3-8.2" style="fill:#eca449"/><path d="M389.6 265.5v-10.3c1.4-.1 4.2-2.6 3.4 1.5-.7 3-2.3 5.9-3.4 8.8" style="fill:#d9b487"/><path d="M328.2 261.1c3-2.6 5.7-2.6 8.3.6-3 3-5.7 1.5-8.3-.6" style="fill:#eba449"/><path d="M244.1 266v7.8c-1.7-2.8-4.2-5.5-1.5-8.6.7 0 1.2.3 1.5.8" style="fill:#f0a84f"/><path d="M373.1 304c-2.2 2.9-4.3 2.7-6.3-.2 2.2-2 4.3-2 6.3.2" style="fill:#f2a84b"/><path d="M104.8 358.3c-5.7-.8-11.5-1.6-17.2-2.4-5.8-.8-12.5-1.4-13.8-8.2-1.2-6.7 2.4-12.5 8.7-15.2 2.9-1.3 18.4-2.6 23.1-.4 3.5 1.7 7.5-.4 8.4-3.5 1.2-4.1-3.4-4.3-6-4.4-35.3-1.5-45.7 16.4-44.4 26.7 1.4 10.7 10.8 12.8 19.8 14.3 1.7.3 3.4.5 5.1.6 8.6.5 18.9.5 22.5 8.8 1.8 4.2-1 15-9.2 20.3-7.9 5.1-21.1 4.6-25.4 4.8-10-.6-11.1-5.3-18.8-12.6-2-1.9-4.1 1-4.7 2.8-.4 1.2-1.1 3.5-.8 4.8.8 4.5 12.5 7.9 17.8 9.4 9.2 2.3 21.8 1.7 29-.2 3.3-.9 15.9-9 18.9-12.9 12.3-16.1 6.9-29.7-13-32.7" class="st20"/><path d="M385.4 320.3c3.8-3.4 8.4-1.4 12.6-1.7-3.8 2.8-8.3 1.6-12.6 1.7" style="fill:#eaad62"/><path d="M303.4 200.1c3.3 3.3 3.2 6.8.3 10.3-.1-3.4-.2-6.8-.3-10.3" style="fill:#e1a050"/><path d="M201.4 395.6c-1.2-2.2-3.6-.8-5.6-.4-14.2 2.5-28.5 2.2-42.8 1.3-7.3-.5-11.9-3.2-11.4-11.9.6-9.4-.2-19-.5-28.4-.1-3-.4-5.1 3.8-5.2 14.6-.2 29.2-1.6 43.8.2 5.1.4 5.3-.6 6.1-4.5-2.2-4.6-17.2-4.4-19.3-4.4-4-.1-8 .2-11.9-.1-6.7-.5-14 1.1-19.6-4.7.8-5.7 5.4-3.7 8.6-3.9 8-.7 16 .9 23.9-1.2 1.5-.7 2.6-1.1 4.2-1.7 1-.3 2.3-1.4 2.3-2.4.1-2-.3-2.7-4.5-3.4-20.5-3.3-32.6-.6-42.5-1-5.1-.2-10.8-2.2-8.6 8.5 4.3 20.8 6.1 42.4 2.3 63.6-1.2 7 1.6 7.5 6.6 7.5 17.7 0 35.4 0 53.1.1 3.2 0 6.2-.1 8.6-2.4 2-1.6 5-2.8 3.4-5.6M543 360.5c-3.3-18.8-14.4-30.4-32.2-36.3-.5-.2-1-.3-1.5-.5-6.7-2-13.4-1.4-20.1.5 0 0-8.6 1.7-11.4 2.6-4 1.4-10.5 4.9-13.8 7.4-10.6 8-19.6 17.5-21.6 31.4-3.1 21.2 13.6 32.3 40.4 36.4 10.3 1.6 20.8 1.4 26.8.7 3.9-.5 9.8-3.3 12.8-5 13-7.2 22.6-25.8 20.6-37.2M530.3 374c-4.1 10.3-9.5 18-21.1 22-5.7 1.8-11.3 1.5-17 .1-9.7-1.4-18.1-5.9-25.9-11.5-10.6-7.6-12.6-16.4-8.3-28.5 1.9-5.4 9.9-15.1 20.3-20.3 4.7-2.3 18.3-7.8 29.1-4.2 11.5 3.8 20.1 17.1 21.5 24.1 1.6 5.5 3.6 12.8 1.4 18.3" class="st20"/><path d="M332.2 332.8c-10.4-1.5-21.1 1.2-31.4-1.9 11.4 0 22.8 0 34.3.1-1 .5-1.9 1.1-2.9 1.8M297.3 324.7c5.8.3 11.7-.9 17.2 1.6-5.7.1-11.4.1-17.1.2-.6-.4-.9-.8-.7-1.2.2-.4.4-.6.6-.6" class="st23"/><path d="M358.8 395.8c-1.2-2.5-3.6-.9-5.5-.6-12.1 2.4-24.4 1.9-36.7 1.7-15.7-.4-17.5-2.3-17.4-17.4 0-5.4.2-10.8.2-16.2-.1-3 .1-6.7 0-7.5-.1-1.4-.2-2.4 2.1-2.4 3.2.8 6.6.3 9.8.5 2.8 0 5.7 0 8.5-.2 1.8-.3 21.8-1.6 30.2-2.5 1.7-.6 3.2-1.6 4.2-3.1 2-9.6-4.8-6.9-9.7-6.9-11.6 2.1-23.3 2-35 1.2-1.2-.1-7.6.3-8.7-1.6-1.2-4-.3-6.7 4.4-7.1 9.7-.3 19.5.4 29.3-.5 2.5-.7 4.6-1.8 5.2-4.5.1-5.4-3.8-5.5-7.6-5.3-6 .4-12 .3-17.9.4-5.1.3-10.3.2-15.4.2-3.3.1-6.5-.2-9.6-.9-3.3-.1-6.4 0-7 4.3.2 1 .5 1.8 1.2 2.6.7.5 1.3.9 1.7 1.4 0 .5 0 1 .1 1.5.8.6 1.1 1.3 1.3 2.1 0 1.7-.6 3.6-1.1 5.4-.6 2.9-.7 5.9-.3 8.8.1 1 .3 2 .6 3 1.2 5 2.5 10.1 3.4 15.2.2 9.8 1.3 19.8-1.4 29.3-1.9 6.5 1.8 7 6.3 7 18 .1 36.1 0 54.1.1 2.8 0 5.5-.2 7.6-2.2 1.5-1.8 4.4-3 3.1-5.8M256.6 383.3c-.9-1.6-2.5-2.6-3.8-3.9l-2.7-3.6c-.9-1.4-1.4-3-2.4-4.3-.5-.6-1.1-1.3-1.7-1.8-1.2-1.2-2.3-2.5-3.2-3.8-2.3-2.7-1.1-5 1.2-6.7 2.2-1.6 3.7-2.3 5.2-3.7 6.7-5.8 10.9-7.6 14.2-14.6.5-1.1 1.5-5.8.1-8.4-5.7-10.3-21.5-11.5-26.4-11.4-8.3.1-30.8-2.5-30.3 15.8.1 2.3.2 4.6.2 6.8-.6 5.3-1.5 10.5-.6 15.8.4 6 .7 32 .4 39-.1 2.1-3 4.7-.2 6.2 2.5 1.3 5-.7 7-2.6 3-1.1 3.7-3.7 4.5-6.3.2-1 .1-1.9-.3-2.9-.1-1.5-.2-3.1-.3-4.6v-10.6c.2-1.6.6-3.1 1.2-4.7 3.9-6.6 7.7-.8 11.5.1 10.1 7.9 18.5 17.5 27.4 26.7 7.6 7.9 12.6 7.5 21.2-.9-10.2-1.3-16.8-7.6-22.2-15.6m-25.5-29.4c-7.7-.1-11.5-.8-11.8-8.7-.6-4-3.3-8.3 1.5-11.7 4-2.1 9-2.7 13.6-2.6 4.4.1 10.5 1.5 13.2 5.5 1 1.4 1.4 3.9 1.3 5.6-.2 1.6-.4 3-1.3 4.4-2.4 3.4-8.4 7.5-16.5 7.5" class="st20"/><path d="M262.5 243.1v-9.9c2.4 3.4 3.2 6.8 0 9.9.1 0 0 0 0 0" style="fill:#f2aa4d"/><path d="M430.4 326.8c-5.2.7-9.3-2.2-8.6 6 .2 3.9.1 49-.6 50.3-5.2-3.2-32.1-44.8-33.8-47.9-2.3-3.3-2.7-7.7-6.3-10.3-2.3-.9-4.2.3-6 1.3-4.9 2.7-9.4 2.2-8.2 8.1.5 2.2 1.8 3.2 2.5 3.9l.4.4c.5 1 .8 2.2 1.2 4.2V355c.1 11.5.3 23.1.4 34.6-.1 1.9-.3 3.9-.4 5.8-1.5 2.7-3.3 5.8-1.1 8.3 1.5 1.7 4.3 1.1 5.4-1.8 1.3-2 2.6-4.1 3.9-6.1.1-16.2-1.2-32.4 1-48.6 7.3 3.2 33.7 42.8 37.9 48.9 1.3 2 2.6 4 3.9 5.9 9 2.4 8.5-5.7 8.9-9.8.8-8.8 2-53.8-.5-65.4M377 363.2s-.1-.1 0 0c-.1-.1 0-.1 0 0 0-.1 0 0 0 0" class="st20"/><path d="m459.6 286.6 4.3 8.6 9.5 1.4-6.9 6.7 1.6 9.4-8.5-4.4-8.5 4.4 1.7-9.4-6.9-6.7 9.5-1.4zM494.6 286.6l4.2 8.6 9.5 1.4-6.9 6.7 1.7 9.4-8.5-4.4-8.5 4.4 1.6-9.4-6.9-6.7 9.5-1.4zM529.1 286.6l4.3 8.6 9.5 1.4-6.9 6.7 1.6 9.4-8.5-4.4-8.5 4.4 1.7-9.4-6.9-6.7 9.5-1.4z" class="st25"/></svg>