<?xml version="1.0" encoding="utf-8"?>
<!-- Generator: Adobe Illustrator 26.3.1, SVG Export Plug-In . SVG Version: 6.00 Build 0)  -->
<svg version="1.1" id="Layer_1" xmlns="http://www.w3.org/2000/svg" xmlns:xlink="http://www.w3.org/1999/xlink" x="0px" y="0px"
	 viewBox="0 0 595.3 595.3" style="enable-background:new 0 0 595.3 595.3;" xml:space="preserve">
<style type="text/css">
	.st0{fill:#FFFFFF;}
	.st1{fill:#2382D1;}
	.st2{fill:#06BA23;}
	.st3{fill:#465370;}
	.st4{fill:#E7A01B;}
</style>
<path class="st0" d="M297.6,595.3L297.6,595.3C133.3,595.3,0,462,0,297.6l0,0C0,133.3,133.3,0,297.6,0l0,0
	C462,0,595.3,133.3,595.3,297.6l0,0C595.3,462,462,595.3,297.6,595.3z"/>
<g>
	<path class="st1" d="M130.6,263c9.4-51.9,35.5-98.9,82.1-132.2c72.4-52.2,149.5-57.3,229.1-16.4c21.4,11,27.7,25,19.8,38.7
		c-7.2,12.8-20.7,13.7-41.1,3.1c-103-53.1-215.4-1.6-242.4,111.1c-0.7,2.9-1.3,5.8-2.5,8.8c-4.7,13.7-15.1,20.7-27,18.2
		C136.2,291.8,129.7,282.1,130.6,263z"/>
	<path class="st2" d="M319,508c-84.5-4.7-167.5-74.9-185.9-157.4c-3.6-16.4,2-28.1,16-32.4c12.6-3.8,24.5,2.7,29.2,18.7
		c8.8,29.9,23.6,56.4,45.6,78c25.9,25.4,57.3,39.3,93.1,44.3c2.9,0.4,6.1,0.7,9,1.3c15.7,3.4,25,13.9,23.4,26.3
		C347.5,500.2,335,508.9,319,508z"/>
	<g>
		<g>
			<path class="st3" d="M256,285.9c0.7-22.7,16.9-48.6,47.7-63.4c31-15.1,62.1-13.5,90.4,8.1c2.7,2,5.4,4.5,7.9,7
				c7.4,8.1,11.2,17.3,3.4,26.8c-8.1,9.9-18.4,9.7-27.9,2.2c-10.6-8.1-21.6-13.9-35.5-13.5c-20.5,0.7-37.5,11.7-43.6,28.6
				c-6.7,18.9-1.8,40.5,11.7,52.6c14.4,13,37.3,16,54.6,6.7c4.5-2.2,8.3-5.4,12.6-8.1c9.9-6.3,19.6-5.8,26.5,3.6
				c7,9.4,5.2,19.1-3.4,26.8c-19.3,17.1-42,25-67.7,22C287.3,379.7,255.8,343.5,256,285.9z"/>
		</g>
	</g>
	<path class="st4" d="M464.2,457.5c0,8.8-4,15.3-11,20.2c-16.6,11.7-34.8,19.3-54.6,22.9c-13.5,2.5-22-4-26.3-16.4
		c-4-11.7,1.3-22.7,13.9-27.4c15.5-5.8,30.4-12.4,45.4-19.3C448.1,429.8,464.2,440.1,464.2,457.5z"/>
</g>
</svg>
