<?xml version="1.0" encoding="utf-8"?>
<!-- Generator: Adobe Illustrator 26.3.1, SVG Export Plug-In . SVG Version: 6.00 Build 0)  -->
<svg version="1.1" id="Layer_1" xmlns="http://www.w3.org/2000/svg" xmlns:xlink="http://www.w3.org/1999/xlink" x="0px" y="0px"
	 viewBox="0 0 595.3 595.3" style="enable-background:new 0 0 595.3 595.3;" xml:space="preserve">
<style type="text/css">
	.st0{fill:#FFFFFF;}
	.st1{fill:#2382D1;}
	.st2{fill:#06BA23;}
	.st3{fill:#465370;}
	.st4{fill:#E7A01B;}
</style>
<path class="st0" d="M297.6,595.3L297.6,595.3C133.3,595.3,0,462,0,297.6v0C0,133.3,133.3,0,297.6,0h0
	C462,0,595.3,133.3,595.3,297.6v0C595.3,462,462,595.3,297.6,595.3z"/>
<g>
	<path class="st1" d="M35.7,282.2c4.2-23.1,15.8-44,36.5-58.8c32.2-23.2,66.5-25.5,101.9-7.3c9.5,4.9,12.3,11.1,8.8,17.2
		c-3.2,5.7-9.2,6.1-18.3,1.4c-45.8-23.6-95.8-0.7-107.8,49.4c-0.3,1.3-0.6,2.6-1.1,3.9c-2.1,6.1-6.7,9.2-12,8.1
		C38.2,295,35.3,290.7,35.7,282.2z"/>
	<path class="st2" d="M119.5,391.2c-37.6-2.1-74.5-33.3-82.7-70c-1.6-7.3,0.9-12.5,7.1-14.4c5.6-1.7,10.9,1.2,13,8.3
		c3.9,13.3,10.5,25.1,20.3,34.7c11.5,11.3,25.5,17.5,41.4,19.7c1.3,0.2,2.7,0.3,4,0.6c7,1.5,11.1,6.2,10.4,11.7
		C132.2,387.7,126.6,391.6,119.5,391.2z"/>
	<g>
		<g>
			<path class="st3" d="M91.5,292.4c0.3-10.1,7.5-21.6,21.2-28.2c13.8-6.7,27.6-6,40.2,3.6c1.2,0.9,2.4,2,3.5,3.1
				c3.3,3.6,5,7.7,1.5,11.9c-3.6,4.4-8.2,4.3-12.4,1c-4.7-3.6-9.6-6.2-15.8-6c-9.1,0.3-16.7,5.2-19.4,12.7c-3,8.4-0.8,18,5.2,23.4
				c6.4,5.8,16.6,7.1,24.3,3c2-1,3.7-2.4,5.6-3.6c4.4-2.8,8.7-2.6,11.8,1.6c3.1,4.2,2.3,8.5-1.5,11.9c-8.6,7.6-18.7,11.1-30.1,9.8
				C105.4,334.1,91.4,318,91.5,292.4z"/>
			<path class="st3" d="M168,296.2c0.6-10.2-0.8-20.4,0.9-30.6c0.8-4.7,3.3-7.8,8.3-8c5.3-0.2,8.1,2.9,9.2,7.9
				c0.1,0.7,0.2,1.3,0.3,2c0.7,4.1-1.7,9.6,1.2,12.2c3.2,2.9,7.5-1.7,11.6-2.1c16.5-1.8,27.5,7.8,27.6,24.5c0,8,0.1,16,0,24
				c-0.1,5.3-2.2,9.2-8.1,9.4c-6,0.2-9.1-3.4-9.5-9c-0.4-7.3-0.1-14.7-0.4-22c-0.2-7.2-3-10.1-9.3-10.5c-7.4-0.4-11.9,2.8-12.6,9.7
				c-0.5,5.1-0.2,10.2-0.3,15.3c-0.1,2.9-0.1,5.8-0.6,8.6c-0.8,4.6-3.2,7.9-8.4,7.8c-5.3,0-8.2-3-9-8
				C167.2,317.1,168.5,306.7,168,296.2z"/>
			<path class="st3" d="M472.5,336.9c-14,0-26.3-8.7-30-21.1c-3.7-12.8,1.3-26.4,12.2-33.3c11.7-7.4,27.7-6.2,38,2.8
				c3.3,2.9,5.5,6.4,6.8,10.5c3.4,10.7-1,16.9-12.3,17.1c-7.1,0.1-14.2,0-21.4,0.1c-1.5,0-3.4-0.4-4.1,1.4c-0.8,2.1,0.9,3.3,2.3,4.3
				c5.1,3.8,10.8,3.6,16.6,2.5c2.2-0.4,4.2-1.5,6.4-1.7c3.5-0.4,6.1,1.2,7.3,4.5c1.2,3.2-0.2,5.7-2.9,7.4
				C485.6,334.9,479.4,337.1,472.5,336.9z M471.7,301.5c2.4,0,4.8,0.1,7.3,0c1.5,0,3.4,0.3,4.1-1.4c0.8-1.9-0.6-3.3-1.8-4.6
				c-4.5-4.8-13.9-4.7-18.6,0.1c-1.2,1.3-2.7,2.6-1.7,4.6c0.8,1.7,2.6,1.3,4.1,1.4C467.3,301.5,469.5,301.5,471.7,301.5z"/>
			<path class="st3" d="M291.1,313.8c0,4.4,0.3,8.9-0.1,13.3c-0.7,7.6-6.9,10.9-13.2,6.7c-2.7-1.8-4.6-1.8-7.2-0.3
				c-7.7,4.7-15.7,4.1-23.7,0.8c-7-2.8-10.5-8.3-10.6-15.5c-0.1-7.1,3.8-12.1,10.3-15c6.3-2.8,13-2.2,19.7-2.4
				c2.1-0.1,5.1,0.9,5.8-1.9c0.8-3.1-2-4.9-4.4-5.9c-4.9-2-10-1.2-15,0.2c-4.6,1.3-9.2,1.9-11-3.8c-1.8-5.6,2.1-8.1,6.6-9.8
				c8.8-3.3,17.8-4.1,26.8-1c10.9,3.7,15.7,10.2,16.2,21.8C291.3,305.3,291.2,309.6,291.1,313.8
				C291.1,313.8,291.1,313.8,291.1,313.8z M265.5,312.8c-4.7,0.3-10.5-0.6-10.9,5.8c-0.3,4,3.8,5.8,7.6,5.5
				c4.8-0.3,9.8-1.9,10.4-7.3C273.2,311.6,268.3,313.4,265.5,312.8z"/>
			<path class="st3" d="M303.9,306.9c0-6-0.2-12,0-18c0.3-9,6.9-12.9,14.4-8.2c2.8,1.7,4.7,1.3,7.3,0.2c19.7-8.9,35.5,0.1,37.1,21.6
				c0.6,7.3,0.3,14.7,0.1,22c-0.3,7.3-3.6,11-9,11.1c-5.7,0.1-9.1-3.8-9.4-11.4c-0.3-6.7-0.1-13.3-0.2-20c-0.1-5.5-2.3-9.4-8.4-10.1
				c-6.9-0.7-11,1.6-13,7.7c-1.8,5.4-0.9,11-1.1,16.6c-0.1,3.1,0.1,6.3-0.3,9.3c-0.8,5-3.6,8.2-9,7.9c-5.3-0.3-8.2-3.5-8.4-8.6
				C303.8,320.3,304,313.6,303.9,306.9C304,306.9,304,306.9,303.9,306.9z"/>
			<path class="st3" d="M373.5,306.9c0-6.2-0.2-12.5,0.1-18.7c0.4-8.2,6.9-11.9,13.9-7.7c3,1.8,5,1.6,7.9,0.3
				c20.2-9.1,36.6,1.1,37.2,23.2c0.2,7.1,0.2,14.3-0.1,21.4c-0.4,7-3.6,10.3-9,10.2c-5.6,0-8.3-3.3-8.7-10.3
				c-0.4-7.5-0.5-15.1-1-22.6c-0.4-4.9-2.8-8.4-8.3-8.6c-5.8-0.3-10.6,0.7-12.8,7.1c-1.3,3.9-1.2,7.9-1.3,11.9
				c0,4.2,0.2,8.5-0.1,12.7c-0.4,6.5-3.9,10.3-9.3,9.8c-6-0.5-8.4-4.3-8.5-9.9C373.4,319.4,373.5,313.1,373.5,306.9
				C373.5,306.9,373.5,306.9,373.5,306.9z"/>
			<path class="st3" d="M552.2,336.2c-4.5-0.3-7.9-2-10.8-5.2c-2.9-3.2-3.9-9.5-8.7-9c-3.9,0.3-5.4,6-8.2,9.1
				c-2.9,3.2-6.2,5.1-10.5,4.9c-6.5-0.3-8.8-4.4-5.2-9.9c3.3-5,7-9.8,10.7-14.5c2.7-3.3,2.6-6.3,0.1-9.6c-3.4-4.4-6.7-8.9-10-13.4
				c-1.6-2.2-3-4.6-1.2-7.4c1.6-2.5,4.2-3.1,7-3c5.7,0.1,9.3,3.3,12.4,7.8c5.6,7.9,5.8,7.9,11.5,0.3c2.9-3.8,5.7-7.4,11-7.9
				c3-0.3,5.9-0.1,7.8,2.5c2.1,2.9,0.4,5.5-1.3,7.9c-2.7,3.8-5.3,7.8-8.5,11.1c-4.5,4.7-4,8.7,0.1,13.4c3.4,3.8,6.3,8.1,9.3,12.2
				c1.7,2.2,2.6,4.8,1.1,7.5C557.4,335.6,554.5,335.8,552.2,336.2z"/>
		</g>
	</g>
	<path class="st4" d="M184.1,368.7c0,3.9-1.8,6.8-4.9,9c-7.4,5.2-15.5,8.6-24.3,10.2c-6,1.1-9.8-1.8-11.7-7.3
		c-1.8-5.2,0.6-10.1,6.2-12.2c6.9-2.6,13.5-5.5,20.2-8.6C176.9,356.4,184.1,361,184.1,368.7z"/>
</g>
</svg>
