<?xml version="1.0" encoding="utf-8"?>
<!-- Generator: Adobe Illustrator 26.3.1, SVG Export Plug-In . SVG Version: 6.00 Build 0)  -->
<svg version="1.1" id="Layer_1" xmlns="http://www.w3.org/2000/svg" xmlns:xlink="http://www.w3.org/1999/xlink" x="0px" y="0px"
	 viewBox="0 0 595.3 595.3" style="enable-background:new 0 0 595.3 595.3;" xml:space="preserve">
<style type="text/css">
	.st0{fill:#FFFFFF;}
	.st1{fill:#C60039;}
	.st2{fill:#8F0C3E;}
</style>
<path class="st0" d="M297.6,595.3L297.6,595.3C133.3,595.3,0,462,0,297.6v0C0,133.3,133.3,0,297.6,0h0
	C462,0,595.3,133.3,595.3,297.6v0C595.3,462,462,595.3,297.6,595.3z"/>
<g id="Uf0DPR.tif_00000065771366694972491930000013808776413207484299_">
	<g>
		<path class="st1" d="M35.6,291.8c0-13.7,7.3-24.6,20.3-30c2.2-0.9,4-1.4,4.7-4.5c0.9-4.1,5.5-2.9,8.6-3.5c3.7-0.8,2.4,2.4,2.5,4
			c0.2,2.9,2.5,2.8,4.3,3.3c5.8,1.7,10.6,4.8,14.3,9.6c1.5,2,1.5,3.9-1,4.7c-2.6,0.8-4.1,5.8-7.8,2.2c-7.2-7.1-16.2-9.1-23.4-5.1
			c-8.1,4.5-12.5,16-9.7,25.7c2.2,7.6,6.5,13.4,14.6,15.3c7.6,1.9,13.8-0.7,18.8-6.6c3.9-4.5,6.2,0.9,9,1.9c3.7,1.4,0.5,3.6-0.6,5
			c-3.7,4.7-8.8,7.5-14.6,9.2c-1.9,0.5-4,0.7-3.9,3.6c0,1.5,0.8,4.4-2.2,3.7c-3.1-0.7-7.9,0.5-8.9-3.4c-0.8-3.3-2.7-4-5.1-5
			C43.6,317.1,35.6,304.9,35.6,291.8z"/>
		<path class="st1" d="M260.2,316.7c0,7.4-0.3,14,0.1,20.6c0.3,4.9-2.9,4.1-5.9,4.3c-3.2,0.2-5.2-0.2-5.1-4.4
			c0.2-17.2,0-34.4,0.2-51.7c0-2.7-1.8-6.5,4-6.7c5.2-0.2,6.4,2,5.6,7.2c4.9-4.5,9.7-7.3,16.2-7c6.6,0.4,11.6,3.2,15.4,8.2
			c6.8,8.9,5.6,23.6-2.4,31.5C280.8,326,272.6,325.5,260.2,316.7z M260.2,301c0,8.1,5.3,14.1,12.2,14c6.2-0.1,11.4-6,11.4-13.1
			c0.1-7.7-5.1-13.7-12-13.8C265,287.9,260.2,293.2,260.2,301z"/>
		<path class="st1" d="M109.6,287c4.9-4.1,8.8-7.5,14.4-7.7c9.8-0.4,15.2,3.5,15.8,13.1c0.6,9.4,0.2,18.8,0.3,28.2
			c0.1,4.5-3.2,3.2-5.5,3.2c-2.4,0.1-5.5,1-5.3-3.4c0.2-7,0.1-14,0-21c-0.1-7.1-2.8-10.6-7.9-10.6c-5.7-0.1-11.4,5.1-11.7,10.9
			c-0.2,6.6-0.3,13.2,0,19.8c0.2,4.1-1.7,4.7-5.1,4.5c-3-0.2-5.9,0.5-5.9-4.3c0.2-18,0.2-36.1,0-54.1c-0.1-4.5,2.2-4.7,5.6-4.7
			c3.7-0.1,5.5,0.9,5.3,5C109.4,272.5,109.6,279.2,109.6,287z"/>
		<path class="st2" d="M439.1,323.2c-8.1,2.3-13.3,0.3-16.4-6.8c-1-2.3-2.7-4.5-4.4-6.4c-1.4-1.6-1.8-5.6-4.7-4.2
			c-2.6,1.3-5.7,3.3-5.6,7.2c0.1,1.4,0,2.8,0,4.2c0,7.1-0.3,7.2-7.5,6.8c-2.5-0.2-3.6-1-3.6-3.5c0.1-18.6,0.1-37.3,0-55.9
			c0-5.2,3.8-3.4,6.4-3.7c3-0.4,4.8,0.2,4.7,4.1c-0.2,11.2-0.1,22.3-0.1,35.2c5.2-6,9.8-10.5,13.4-15.6c4-5.7,9.1-6.4,16.1-4.9
			c-4.5,5.4-8.3,10.4-12.7,15c-2.8,3-2.6,5.1-0.3,8.2C429.5,309.2,434,316,439.1,323.2z"/>
		<path class="st2" d="M468.4,304.5c-4.2,0-8.5,0.2-12.7,0c-4.9-0.3-4.9,1.9-3.1,5.4c3.5,6.5,12.4,8.1,18.8,3.3
			c1.2-0.9,1.9-2.9,3.9-2.5c2.3,0.5,5.8,0.6,6.6,2c1.3,2.3-1.7,4.1-3.5,5.6c-8.1,6.5-17.2,7.6-26.6,3.2
			c-8.7-4.1-12.6-11.5-12.4-20.9c0.2-9.6,4.9-16.3,13.7-20.1c14.9-6.3,31.2,3.4,32.4,19.2c0.3,3.4-0.3,5.3-4.4,4.9
			C476.9,304.2,472.6,304.5,468.4,304.5z M462.3,298.1c2.4,0,4.8-0.1,7.3,0c5,0.3,4.9-2.2,3.1-5.5c-4-7.5-14.8-8.1-19.6-0.9
			c-1,1.5-2.2,3.2-1.6,5c0.8,2.2,3.1,1.3,4.8,1.4C458.3,298.2,460.3,298.1,462.3,298.1z"/>
		<path class="st1" d="M175.3,304.7c-4.2,0-8.5,0.2-12.7,0c-5-0.2-4.8,2.1-3.1,5.5c3.5,6.6,12.4,8.1,18.8,3.4
			c1.2-0.9,1.8-3.2,3.7-2.6c2.4,0.7,6,0,7,2.6c0.7,1.9-1.9,3.7-3.7,5c-8.2,6.5-17.3,7.3-26.6,3c-9.1-4.2-12.8-11.9-12.3-21.6
			c0.5-9.5,5.4-16.1,14.5-19.6c15.2-5.8,31.8,5.1,31.5,20.4c-0.1,2.7-0.7,4.1-3.7,3.9C184.2,304.6,179.7,304.7,175.3,304.7
			C175.3,304.7,175.3,304.7,175.3,304.7z M169.1,298.1c2.8,0,5.7-0.1,8.5,0c4.2,0.1,4.1-2,2.7-4.9c-2.1-4.2-5.5-6.3-10-6.6
			c-4.4-0.3-7.8,1.5-10.3,5.1c-1,1.5-2.3,3.2-1.6,5c0.8,2.3,3.1,1.3,4.8,1.4C165,298.3,167.1,298.1,169.1,298.1z"/>
		<path class="st1" d="M229.2,316.7c-5.5,5.4-11.4,7.9-18.5,7.1c-6.2-0.6-11.2-4.9-12.3-10.7c-1.2-6.2,1.5-11.4,7.4-14.3
			c5.7-2.8,11.6-3.3,17.7-1.7c4.5,1.2,4.9-1.1,4.1-4.4c-0.9-3.7-3.3-5.9-7.2-6.3c-4.5-0.4-8.9-0.1-12.8,2.4
			c-2.6,1.6-3.9,1.5-5.5-1.5c-1.8-3.5,0.4-4.2,2.6-5.2c6.8-3.3,14-3.7,21.3-2.5c7,1.2,11.7,6.3,12.6,13.5c0.5,4,0.4,8,0.6,12
			c0.2,3.3-0.2,6.4,2.1,9.6c1.5,2.2,2.6,6.8-1.4,8.8C235.4,325.6,231.6,323,229.2,316.7z M219.5,302.2c-6.4,0-11.6,3.4-11.2,7.4
			c0.5,4.7,3.7,6.9,8.2,6.9c6.4,0,11.4-4.1,11.3-9C227.7,301,222,303.7,219.5,302.2z"/>
		<path class="st2" d="M303.8,297.1c0-7.4-0.1-14.8,0-22.2c0.1-3.1-0.9-4.4-4.1-4.2c-3.4,0.2-6.9-0.2-10.3,0.1
			c-4,0.4-4.7-1.4-4.7-4.9c0-3.5,0.9-5,4.7-5c13.3,0.2,26.6,0.2,39.9,0c4.4-0.1,4.6,2,4.8,5.5c0.2,4.1-1.8,4.4-5.1,4.4
			c-14.1,0.2-14.1,0.2-14.1,14c0,11-0.2,22,0.1,33c0.1,4.4-0.8,6.3-5.9,6.3c-4.9,0-5.6-1.9-5.5-6C304,311.1,303.8,304.1,303.8,297.1
			z"/>
		<path class="st2" d="M390.2,313.5c-4.8,9.5-16.8,13.6-27.6,9.5c-11-4.1-17.4-16.2-14.5-27.2c4.2-15.7,24.5-22.4,37.1-12.2
			c1.9,1.5,6,3.8,3.6,6.1c-2.2,2.1-6.4,4.3-10.4,1.6c-6.9-4.5-12.9-3.9-16.9,1.5c-4.3,5.8-3.3,15.2,2.2,19.7c3.8,3.1,8.6,4.2,12.3,1
			C381.1,309.4,385.4,311.2,390.2,313.5z"/>
		<path class="st2" d="M494,302.8c0-3.6-0.1-7.2,0-10.8c0.1-2.6,0-4.8-3.7-4.7c-2.8,0.1-2.3-2.3-2.3-3.9c0.1-1.6-0.9-4.2,1.8-4.3
			c4.2-0.1,4.2-2.8,4.1-5.7c-0.1-2,0-4,0-6c0-6,3.4-8.2,9.1-6.3c1.8,0.6,1.9,1.8,1.9,3.2c0,2.4,0.2,4.8,0,7.2c-0.5,5,0,8.8,6.7,7.8
			c3.6-0.5,2.8,2.4,2.9,4.5c0.1,2.2-0.1,4.3-3.1,3.8c-6.3-1.1-6.8,2.4-6.5,7.2c0.3,4.4,0.1,8.8,0,13.2c-0.1,5,2.2,7.3,7.1,5.9
			c2.7-0.8,4.3-0.7,4.7,2.3c0.3,2.4,1.7,5-2.2,6.3c-4.1,1.3-8.3,2.1-12.5,1.3c-4.9-0.8-8-3.7-8.1-8.9c-0.1-4,0-8,0-12
			C494.1,302.8,494,302.8,494,302.8z"/>
		<path class="st2" d="M541.8,324c-5.4,0-10.4-1.2-15.1-3.8c-2-1.1-5.3-1.5-2.9-5.5c1.9-3.3,3.5-3.6,6.5-1.6c4,2.6,8.5,3.8,13.2,3.3
			c2.7-0.3,5.3-1.3,5.6-4.5c0.3-3.1-2.2-4.1-4.4-4.9c-3.8-1.3-7.7-2.4-11.5-3.6c-5-1.7-9.5-3.9-9.4-10.2c0.2-6.3,3.2-10.8,9.2-12.7
			c7.6-2.5,15.1-1.8,22.1,2.3c2.1,1.2,2.9,2.5,1.1,4.7c-1.4,1.7-1.9,4.6-5.3,2.2c-3.3-2.4-7.3-3.6-11.5-3c-2.7,0.3-5.2,1.3-5.5,4.6
			c-0.3,3,1.9,4.2,4.3,5c3.7,1.1,7.4,2,11,3.2c8.1,2.7,10.6,5.8,10.2,12.1c-0.4,5.8-5.1,10.6-11.7,12
			C545.9,323.9,543.8,323.8,541.8,324z"/>
		<path class="st2" d="M328.4,301.3c0-5.8,0.3-11.6-0.1-17.4c-0.3-4.4,1.8-4.9,5.4-4.8c3.1,0.1,5.9-0.3,5.9,4.4c-0.2,12-0.2,24,0,36
			c0.1,4.6-2.5,4.5-5.8,4.5c-3.4,0-5.8-0.2-5.5-4.7C328.7,313.3,328.4,307.3,328.4,301.3z"/>
	</g>
</g>
</svg>
