<?xml version="1.0" encoding="utf-8"?>
<!-- Generator: Adobe Illustrator 26.3.1, SVG Export Plug-In . SVG Version: 6.00 Build 0)  -->
<svg version="1.1" id="Layer_1" xmlns="http://www.w3.org/2000/svg" xmlns:xlink="http://www.w3.org/1999/xlink" x="0px" y="0px"
	 viewBox="0 0 595.3 595.3" style="enable-background:new 0 0 595.3 595.3;" xml:space="preserve">
<style type="text/css">
	.st0{fill:#FFFFFF;}
	.st1{fill:#C60039;}
</style>
<path class="st0" d="M297.6,595.3L297.6,595.3C133.3,595.3,0,462,0,297.6l0,0C0,133.3,133.3,0,297.6,0l0,0
	C462,0,595.3,133.3,595.3,297.6l0,0C595.3,462,462,595.3,297.6,595.3z"/>
<g id="hrs3S8_00000086687196247817349300000009705397065056549510_">
	<g>
		<path class="st1" d="M340.1,105.9c0,5.9-2,12.9,0.5,17.5c2.7,4.9,10.7,3.2,16.3,4.7c38,10.1,67.9,31.1,88.2,65.2
			c2.6,4.4,2.1,6.4-2.2,9.2c-14.7,9.7-29.2,19.7-43.6,29.8c-3.1,2.2-4.3,2-5.9-1.5c-26.2-55.7-114.8-66.2-156.2-11.4
			c-36.5,48.3-32,124.5,10.6,165.6c37.1,35.9,96.7,35.6,132.7-0.6c6.2-6.2,11.2-13.3,14.6-21.4c1.2-2.9,2.5-3.3,5.2-1.7
			c16.2,9.4,32.5,18.8,48.9,28c3.4,1.9,2.9,3.7,1.5,6.5c-10.4,22.1-27.5,37.9-47.9,50.5c-17.8,11-37.2,18.3-57.8,22.1
			c-4.1,0.8-5.5,2.4-5.4,6.6c0.3,9.5,0,19,0.2,28.5c0.1,3.7-0.4,5.3-4.9,4.3c-18.3-4-36.8-7.5-55.2-11.2c-3.3-0.6-4.6-2-4.5-5.5
			c0.3-6.1,0-12.3,0.1-18.4c0.1-3-0.7-4.5-3.9-5.5c-73.8-23.4-115.2-75.5-126.4-150.3c-12.2-81.7,37.3-166.7,125.6-188.9
			c3.6-0.9,4.9-2.4,4.7-6c-0.3-5.9,0.1-11.9-0.1-17.8c-0.2-3.4,1-5,4.3-5.6c18.6-3.6,37.2-7.3,55.8-11.2c3.7-0.8,4.5,0.3,4.4,3.7
			c-0.2,4.9,0,9.9,0,14.8C339.9,105.9,340,105.9,340.1,105.9z"/>
		<path class="st1" d="M375.7,490.1c1.9-1.4,1.9-3.8,2.8-5.7c0.5-1,1.2-1.6,2.2-1.5c1.2,0.1,1.5,1.2,1.5,2.2c0.1,3,0,6.1,0,9.9
			c-3.2-1.9-1.6-4.3-2.6-6c-2.6,1.1-1.5,4.5-3.8,5.6c-2.7-0.8-1.6-4.3-4.1-5.6c-1.4,1.5,0.4,4.1-1.4,5.5c-1.1,0.1-1.4-0.6-1.3-1.5
			c0.5-3.3-2-8.6,1.3-9.7C374.3,481.8,372.8,488.4,375.7,490.1z"/>
		<path class="st1" d="M365.6,482.5c-5.4,2.8-0.9,8.6-3.8,12.1c-3.1-3.3,1.3-8.8-3.6-11.3c-0.4-0.2,1-0.8,1.6-0.8
			C361.8,482.5,363.7,482.5,365.6,482.5z"/>
	</g>
</g>
</svg>
