<svg xmlns="http://www.w3.org/2000/svg" xml:space="preserve" id="Layer_1" x="0" y="0" style="enable-background:new 0 0 595.3 595.3" version="1.1" viewBox="0 0 595.3 595.3"><style>.st1{fill:#c60039}</style><path d="M297.6 595.3C133.3 595.3 0 462 0 297.6 0 133.3 133.3 0 297.6 0 462 0 595.3 133.3 595.3 297.6c0 164.4-133.3 297.7-297.7 297.7" style="fill:#fff"/><g id="hrs3S8_00000086687196247817349300000009705397065056549510_"><path d="M340.1 105.9c0 5.9-2 12.9.5 17.5 2.7 4.9 10.7 3.2 16.3 4.7 38 10.1 67.9 31.1 88.2 65.2 2.6 4.4 2.1 6.4-2.2 9.2-14.7 9.7-29.2 19.7-43.6 29.8-3.1 2.2-4.3 2-5.9-1.5-26.2-55.7-114.8-66.2-156.2-11.4-36.5 48.3-32 124.5 10.6 165.6 37.1 35.9 96.7 35.6 132.7-.6 6.2-6.2 11.2-13.3 14.6-21.4 1.2-2.9 2.5-3.3 5.2-1.7 16.2 9.4 32.5 18.8 48.9 28 3.4 1.9 2.9 3.7 1.5 6.5-10.4 22.1-27.5 37.9-47.9 50.5-17.8 11-37.2 18.3-57.8 22.1-4.1.8-5.5 2.4-5.4 6.6.3 9.5 0 19 .2 28.5.1 3.7-.4 5.3-4.9 4.3-18.3-4-36.8-7.5-55.2-11.2-3.3-.6-4.6-2-4.5-5.5.3-6.1 0-12.3.1-18.4.1-3-.7-4.5-3.9-5.5-73.8-23.4-115.2-75.5-126.4-150.3-12.2-81.7 37.3-166.7 125.6-188.9 3.6-.9 4.9-2.4 4.7-6-.3-5.9.1-11.9-.1-17.8-.2-3.4 1-5 4.3-5.6 18.6-3.6 37.2-7.3 55.8-11.2 3.7-.8 4.5.3 4.4 3.7-.2 4.9 0 9.9 0 14.8zM375.7 490.1c1.9-1.4 1.9-3.8 2.8-5.7.5-1 1.2-1.6 2.2-1.5 1.2.1 1.5 1.2 1.5 2.2.1 3 0 6.1 0 9.9-3.2-1.9-1.6-4.3-2.6-6-2.6 1.1-1.5 4.5-3.8 5.6-2.7-.8-1.6-4.3-4.1-5.6-1.4 1.5.4 4.1-1.4 5.5-1.1.1-1.4-.6-1.3-1.5.5-3.3-2-8.6 1.3-9.7 4-1.5 2.5 5.1 5.4 6.8" class="st1"/><path d="M365.6 482.5c-5.4 2.8-.9 8.6-3.8 12.1-3.1-3.3 1.3-8.8-3.6-11.3-.4-.2 1-.8 1.6-.8z" class="st1"/></g></svg>