<svg xmlns="http://www.w3.org/2000/svg" xml:space="preserve" style="enable-background:new 0 0 595.3 595.3" viewBox="0 0 595.3 595.3"><path d="M297.6 595.3C133.3 595.3 0 462 0 297.6 0 133.3 133.3 0 297.6 0 462 0 595.3 133.3 595.3 297.6c0 164.4-133.3 297.7-297.7 297.7" style="fill:#fff"/><path d="M295.5 482.5H150.2c-25.1 0-38.9-10.8-38.9-35.5-.9-100.7-.4-201.5 0-302.2 0-21.2 12.1-32.4 34.2-32.4h300c19.9 0 29.8 10.4 34.2 28.1 2.6 11.2 4.8 22.5 4.8 34.2-.4 80-.4 159.5 0 239.5 0 12.5-1.7 24.6-4.3 36.7-4.8 22-16.9 32.4-41.1 32-48-1.7-96-.4-143.6-.4m134.9-224c-6.5-11.2-15.1-23.3-21.2-36.3-7.8-16.9-15.6-19.5-30.3-6.5-33.7 29.8-68.3 58.8-103.3 87.3-33.7 28.1-34.2 27.7-56.2-10.4-26.8-46.3-26.4-45.8-54.9.9-6.5 11.2-7.3 18.6 2.2 28.1 19 18.6 36.7 37.6 54.9 57.1 7.8 8.2 14.3 9.9 24.2 3.5 58.4-36.7 117.2-73.1 176-109.8 4.7-2.6 9.9-5.2 8.6-13.9" style="fill:#f3702e"/></svg>