<?xml version="1.0" encoding="utf-8"?>
<!-- Generator: Adobe Illustrator 26.3.1, SVG Export Plug-In . SVG Version: 6.00 Build 0)  -->
<svg version="1.1" id="Layer_1" xmlns="http://www.w3.org/2000/svg" xmlns:xlink="http://www.w3.org/1999/xlink" x="0px" y="0px"
	 viewBox="0 0 595.3 595.3" style="enable-background:new 0 0 595.3 595.3;" xml:space="preserve">
<style type="text/css">
	.st0{fill:#FFFFFF;}
	.st1{fill:#F3702E;}
	.st2{fill:#1E4FA0;}
</style>
<path class="st0" d="M297.6,595.3L297.6,595.3C133.3,595.3,0,462,0,297.6v0C0,133.3,133.3,0,297.6,0h0
	C462,0,595.3,133.3,595.3,297.6v0C595.3,462,462,595.3,297.6,595.3z"/>
<g>
	<path class="st1" d="M78.3,328.5c-11.2,0-22.4,0-33.6,0c-5.8,0-9-2.5-9-8.2c-0.2-23.3-0.1-46.6,0-69.9c0-4.9,2.8-7.5,7.9-7.5
		c23.1,0,46.2,0,69.4,0c4.6,0,6.9,2.4,7.9,6.5c0.6,2.6,1.1,5.2,1.1,7.9c-0.1,18.5-0.1,36.9,0,55.4c0,2.9-0.4,5.7-1,8.5
		c-1.1,5.1-3.9,7.5-9.5,7.4C100.4,328.2,89.3,328.5,78.3,328.5z M109.5,276.7c-1.5-2.6-3.5-5.4-4.9-8.4c-1.8-3.9-3.6-4.5-7-1.5
		c-7.8,6.9-15.8,13.6-23.9,20.2c-7.8,6.5-7.9,6.4-13-2.4c-6.2-10.7-6.1-10.6-12.7,0.2c-1.5,2.6-1.7,4.3,0.5,6.5
		c4.4,4.3,8.5,8.7,12.7,13.2c1.8,1.9,3.3,2.3,5.6,0.8c13.5-8.5,27.1-16.9,40.7-25.4C108.6,279.3,109.8,278.7,109.5,276.7z"/>
	<g>
		<path class="st2" d="M499.6,353.6c0.9-5.5,0.4-11.1,0.4-16.6c0-21.2,0-42.3-0.3-63.5c0-3.4,1.1-4.4,4.3-4.5c5.7-0.1,11,0,8.3,10
			c6.1-5.3,10.3-9.3,16.2-10.3c15.2-2.5,27.5,6,30.4,21.3c1.5,7.8,1,15.6-1.8,23.2c-5.8,16-28.5,22-39.7,11.1
			c-0.3-0.3-0.9-0.4-1.7-0.8c-1.9,10.1,1,20.2-0.9,30C509.7,353.6,504.7,353.6,499.6,353.6z M514.4,297.9c0,3.2-0.3,5.6,0,7.8
			c0.8,5.8,4.3,9.7,9.4,12.2c4.9,2.4,9.5,1.1,13.6-2.2c9.8-7.9,9.8-25.9,0.2-33.9c-5.5-4.6-12.7-4.2-18.1,0.7
			C514.5,287,513.7,292.6,514.4,297.9z"/>
		<path class="st2" d="M317.6,321.5c-6,6.4-12,8.8-19.4,8.3c-7.9-0.5-14.6-4.7-17-11.8c-2.6-7.4,0-16,6.3-20.8
			c7.1-5.4,15.7-6.2,24.1-6.8c4.4-0.3,4.7-2,3.8-5.3c-1.5-5.2-5.6-6.7-10.3-7.1c-6.1-0.6-11.6,1.8-17.1,4.1
			c-3.9-9.9-3.8-10,6.1-12.6c4.7-1.2,9.5-2.3,14.4-1.8c14.6,1.5,21.6,8.4,22.6,23.2c0.7,11.4,0.2,22.9,0.4,34.4c0,2.4-1,3.2-3.2,3
			c-0.4,0-0.7,0-1.1,0C322.7,328.6,317.2,330.5,317.6,321.5z M309.9,299.4c-5.8-0.2-11.2,1.5-14.4,7.6c-1.6,3.2-1.2,6.4,0.8,9.2
			c2,2.9,5.1,4.1,8.5,3.7c7.2-0.7,12.4-6.5,12.5-13.8C317.3,299.3,317.3,299.3,309.9,299.4z"/>
		<path class="st2" d="M253.8,302.9c-5.2,0-10.5,0.2-15.7-0.1c-4.7-0.2-5.1,2.1-3.9,5.7c2,5.7,6.5,8.3,12,9.6
			c5.9,1.4,11.8,0.8,17.6-0.5c2.5-0.6,5-1.7,5.6,2.4c0.5,3.2,2.6,6.4-3,7.7c-8.9,2.1-17.8,3-26.7,0.8c-11.5-2.7-19.1-11.9-20.1-23.7
			c-1.1-12.6,1.2-24.1,12.3-31.9c8.8-6.2,18.7-6.7,28.2-2.3c9.3,4.4,13.4,12.7,13.6,22.7c0.2,11.1,1.5,9.2-9.2,9.4
			C261,303,257.4,302.9,253.8,302.9z M247.4,292.5C247.4,292.5,247.4,292.5,247.4,292.5c3.6,0,7.2-0.1,10.8,0c2.5,0,3-1.1,2.6-3.4
			c-1-6.1-6.8-11.5-12.9-11.9c-5.6-0.4-11.5,3.7-13.6,9.5c-1.4,3.8-1.1,6.3,4,5.8C241.3,292.3,244.4,292.5,247.4,292.5z"/>
		<path class="st2" d="M168.2,329.7c-18.6,0-30.6-11-31.6-28.3c-1-17,10.6-30.6,27.6-32.8c5.8-0.8,11.5-0.6,17.1,1
			c5.8,1.6,1.7,5.1,1.6,7.7c-0.1,2.5-0.6,4.8-4.3,3.2c-1.4-0.7-3.2-0.7-4.8-0.9c-9.4-1.4-17.8,3.4-20.8,11.8
			c-3.3,9.3,0.1,20.2,7.7,24.8c5.3,3.2,11,2.7,16.8,1.5c2.2-0.4,5.1-2.2,5.4,2.3c0.2,3.2,3.3,7-2.7,8.3
			C176.1,329.1,171.8,330,168.2,329.7z"/>
		<path class="st2" d="M392.1,299.3c0-4.5-0.1-9,0-13.4c0.2-3.9-0.6-6.2-5.3-5.7c-5.8,0.6-3.5-4.1-3.9-6.8c-0.6-3.2,1.1-4.9,4.3-4.3
			c4.1,0.7,5-1.1,4.9-4.7c-0.1-2.2-1.2-5.2,1.3-6.3c3.6-1.5,7.6-2.2,11.4-3.2c0.8-0.2,1.2,0.6,1.3,1.4c0.1,0.7,0.1,1.4,0.1,2.1
			c0.5,10.4,0.5,10.6,10.6,11.1c5,0.2,3.4,3.6,3.6,6.1c0.3,2.7,0.1,4.7-3.8,4.8c-10.4,0.3-10.4,0.5-10.4,11.2
			c0,5.7-0.1,11.5,0.1,17.2c0.2,6.8,2.9,9.2,9.7,9.4c1.8,0.1,4.5-0.9,4.2,2.4c-0.2,3,1.7,6.8-2.3,8.7c-10.2,4.8-23.9-1.9-25.3-12.8
			c-0.7-5.6-0.1-11.5-0.1-17.2C392.3,299.3,392.2,299.3,392.1,299.3z"/>
		<path class="st2" d="M207.9,285.2c0,12.7-0.2,25.4,0.1,38.2c0.1,4.2-1.1,5.5-5.4,5.4c-8.8-0.3-8.8,0-8.8-9c0-24,0.1-48-0.1-72
			c0-4.7,1.2-6.7,6-5.9c1.2,0.2,2.5,0.2,3.8,0c3.7-0.5,4.6,1.2,4.5,4.6C207.8,259.4,207.9,272.3,207.9,285.2z"/>
		<path class="st2" d="M443.7,279.6c3.4-6.3,7.5-10.5,14.4-11c3.6-0.3,5.1,0.8,4.7,4.4c-0.1,1.2-0.1,2.5,0,3.8
			c0.5,3.9-0.7,5.7-5.2,5.6c-7.4-0.1-11.6,4.5-12.4,12.1c-1.1,9.3-0.3,18.6,0.1,27.9c0.2,4.8-1.1,6.7-6.2,6.5
			c-9.4-0.5-9.3-0.2-9.4-9.6c0-15.4,0-30.8-0.2-46.3c0-2.6,0.8-3.4,3.3-3.6C439.5,268.7,439.7,268.8,443.7,279.6z"/>
		<path class="st2" d="M358.4,279.9c3.3-7,8.3-10.7,15.2-11.9c3-0.5,4.6,0,4.5,3.3c0,1.1-0.1,2.2,0,3.2c0.9,5.5-0.6,8-7,7.8
			c-6.5-0.2-11.4,6.2-11.5,13.9c-0.2,9.3-0.2,18.6,0,27.9c0.1,3.5-1,4.6-4.5,4.6c-10.4,0-10.4,0.2-10.4-9.9
			c0-15.1,0.1-30.1-0.1-45.2c-0.1-4.1,1.6-5.1,5.1-4.6c3,0.5,7.9-2.2,7.7,4.3C357.3,275.2,356.9,277.2,358.4,279.9z"/>
		<path class="st2" d="M485.4,299.1c0,8.4-0.1,16.8,0.1,25.2c0.1,3.1-0.7,4.4-4.1,4.4c-10.2,0.1-10.2,0.3-10.2-10.1
			c0-14.7,0.1-29.3-0.1-44c-0.1-4.5,1.4-5.9,5.9-5.7c9.9,0.4,8.4-0.7,8.5,8.2C485.5,284.4,485.4,291.8,485.4,299.1z"/>
		<path class="st2" d="M470.5,252.4c0.1-4.8,2.8-7.4,7.9-7.4c5.1,0,8.1,2.7,8.1,7.3c0,5-3.2,8.3-8,8.2
			C473.5,260.3,470.4,257.2,470.5,252.4z"/>
	</g>
</g>
</svg>
