<?xml version="1.0" encoding="utf-8"?>
<!-- Generator: Adobe Illustrator 26.3.1, SVG Export Plug-In . SVG Version: 6.00 Build 0)  -->
<svg version="1.1" id="Layer_1" xmlns="http://www.w3.org/2000/svg" xmlns:xlink="http://www.w3.org/1999/xlink" x="0px" y="0px"
	 viewBox="0 0 595.3 595.3" style="enable-background:new 0 0 595.3 595.3;" xml:space="preserve">
<style type="text/css">
	.st0{fill:#FFFFFF;}
	.st1{fill:#2781FC;}
	.st2{fill:#FDB408;}
	.st3{fill:#2979E2;}
	.st4{fill:#F99B1B;}
</style>
<path class="st0" d="M297.6,595.3L297.6,595.3C133.3,595.3,0,462,0,297.6v0C0,133.3,133.3,0,297.6,0h0
	C462,0,595.3,133.3,595.3,297.6v0C595.3,462,462,595.3,297.6,595.3z"/>
<g>
	<g>
		<path class="st1" d="M164.3,387.6c-20.6-10.8-30.9-21.6-33.3-34.5c1.4,0.3,1.4,1.6,1.9,2.5c8.1,14.2,23.4,21.2,39.9,18.2
			c14.5-2.6,26.7-15.2,29.2-30.4c0.9-5.3,0.1-10.6-0.7-15.8c-1-6.7,1.8-12.2,7.2-15.2c8.6-4.7,18.5-0.5,21.4,9
			c6.5,21.7-0.6,44.8-19.1,58.7c-34.1,25.6-86.7,28.2-121.1-15.8C71.4,341,64,314.3,67.9,284.7c0.4-2.8-0.7-4.1-2.9-5.2
			c-6.8-3.6-14.2-3.8-21.6-3.9c-2.6,0-6.2,1.5-7.5-1.9c-1.2-3.2,2.2-4.8,4.1-6.7c11.6-11.8,25.2-20.2,41.3-24.2
			c2.6-0.6,4-2.4,5.4-4.3c17.4-22.3,40-36.1,67.9-40.8c8.5-1.4,17.3-1.4,25.8,0.8c15.8,4,26,14.1,30.7,29.6c0.8,2.5,1.8,3.6,4.4,3.9
			c3.9,0.3,7.7,1.4,11.1,3.4c5.6,3.3,6.2,8.2,1.7,12.7c-5.7,5.6-13.1,7.8-20.4,10.1c-11.7,3.7-23.3,7.6-35.1,11.2
			c-2.8,0.9-3.2,2.5-3.4,5.2c-1,19-8.3,34.3-26.4,42.8c-1.1,0.5-2.4,1.6-3.4,0.6c-1-1,0-2.3,0.3-3.5c2.6-8.9,2-17.7-1.4-26.2
			c-0.6-1.6-1.1-3.5-3.8-1.9c-35.8,20.6-34.9,65.8-10.2,87.2C135.6,383,148.4,388,164.3,387.6z M171.8,229.1c-4.2-0.2-7.3,1.2-9,4.9
			c-1.5,3.3-1.3,6.6,1.3,9.3c2.7,2.9,5.9,3.9,9.9,2.1C165.1,241.6,164.4,236.1,171.8,229.1z M177.8,234.8c-0.3-1.4-1.1-2.3-2.6-2.2
			c-1.4,0.2-2.2,1.2-2,2.6c0.2,1.2,1,2,2.3,1.9C177,237,177.8,236.2,177.8,234.8z"/>
		<path class="st2" d="M157.1,368.9c13.3-0.1,22.6-5.4,26.5-15.8c3.3-9,2.2-17.5-4.4-24.9c-5.6-6.4-4.8-16.3,1.7-21.7
			c6.3-5.2,16.1-4.4,21.1,1.7c1.1,1.3,1.8,2.3,0.2,3.8c-5.9,5.6-6.6,12.5-5.3,20c3.1,17.2-6.3,32.5-22.8,37.2
			C168.5,370.8,162.7,371.5,157.1,368.9L157.1,368.9z"/>
		<path class="st2" d="M157.1,368.9c-0.4,0-0.7-0.1-1.1-0.1C156.5,368.1,156.8,368.4,157.1,368.9
			C157.1,368.9,157.1,368.9,157.1,368.9z"/>
	</g>
	<g>
		<path class="st3" d="M508.8,263.5c7.1-4.7,14.5-7.9,23.3-7.1c14.2,1.4,24.3,9.3,26.6,23.1c2.8,17.3,0.1,33.6-12.8,46.8
			c-14.3,14.6-28.3,15.2-49.7,2.1c-1.8,9.6-4.1,19-5,28.5c-0.7,7.1-3,9.9-10.7,9.5c-11.8-0.7-11.9-0.2-9.8-12.2
			c5.2-29.6,10.4-59.2,15.8-88.8c0.5-2.9-0.5-7.9,3.2-8.6c5.3-1,11.1-0.7,16.5-0.1C509.2,257.2,506.6,261.3,508.8,263.5z
			 M499.5,301.3c-0.1,11,4,17.6,11.7,20.4c7.3,2.6,15.5-0.1,21.3-7.1c4.7-5.7,6.9-12.5,7.8-19.7c1-8.2-2.8-16.5-9.4-19.6
			c-7.9-3.7-15.2-2.1-21.5,3.6C502.4,285.2,500.3,293.7,499.5,301.3z"/>
		<path class="st3" d="M321,228.8c10,0.4,20.3,3.1,29.7,9.2c4.5,2.9,4.8,5.1,2.1,9.7c-4,6.9-6.8,8.7-14.9,4.2
			c-22.6-12.7-51.1,0.8-57,26c-6,25.4,14.9,46.6,40.8,41.3c3.5-0.7,6.9-2.2,10.3-3.2c3.3-0.9,6.8-5.5,9.5-3.3
			c3.3,2.8,4.9,7.9,6.9,12.1c1.5,3.1-1.5,3.8-3.2,4.7c-22.1,11.9-54,13.1-73.9-10.3c-16.3-19.1-14.4-50.2,4.4-70.7
			C287.5,235.6,302.4,229,321,228.8z"/>
		<path class="st3" d="M375.3,332.1c-12.7,0.2-18.1-5.1-16.5-16.9c1.6-12.3,4.1-24.5,6.4-36.7c0.6-3.4,1.1-6.1-3.8-5.8
			c-2.3,0.1-6.2,0.5-4.9-3.3c1.4-4.3-1.3-12.2,4.9-12.5c7.9-0.4,8.8-4.4,9.6-10.2c0.6-4.6,16.5-11.8,20.3-9.3
			c1.4,0.9,1.1,2.4,0.9,3.7c-0.5,3.3-0.8,6.6-1.6,9.8c-1.1,4.3,0.7,5.3,4.6,5.4c2.4,0.1,7.3-1.9,6.2,3.4c-1,4.7,1.7,12.7-6.6,12.7
			c-7,0-9,2.5-9.7,8.8c-1,9.3-3,18.5-4.3,27.8c-0.4,3-0.6,6.2,4.2,6.4c2.2,0.1,6.5-2.9,6,2.2c-0.5,4.7,1.4,11.2-5.8,13.1
			C381.6,331.7,377.9,331.8,375.3,332.1z"/>
		<path class="st3" d="M408.6,331.4c-8.2,1.9-9.6-1-8-8.5c4.1-20,7.2-40.2,10.8-60.3c0.4-2.4,0.1-6.2,4.2-5.9
			c5,0.4,13.1-2.8,14.5,1.5c2.2,6.9,3.9,2.3,6.2,1.4c2.1-0.8,4.1-1.7,6.2-2.4c4-1.2,5.7,0,4.9,4.4c-1.2,6.7-1.4,13.1-10.9,14.7
			c-6.8,1.1-9.2,8.3-10.6,14.7c-2.2,10.3-4.4,20.5-5.7,30.9C419.3,329.7,416.6,333.7,408.6,331.4z"/>
		<path class="st3" d="M454.8,331.8c-11.8,0-11.7,0-9.7-10.5c3.6-19.5,7-39.1,10.6-58.7c1-5.8,8.3-8.3,17.4-6
			c5.9,1.5,2.6,5.9,2.1,8.7c-3.2,19-7.2,38-10.1,57.1C463.9,329.8,461.8,333.9,454.8,331.8z"/>
		<path class="st4" d="M480.8,239.6c-0.1,6-5.2,10.8-11.3,10.6c-6.3-0.2-10.9-5-10.4-11.3c0.5-6.5,4.3-9.9,10.7-10.2
			C475.9,228.5,480.9,233.7,480.8,239.6z"/>
	</g>
</g>
</svg>
