<svg xmlns="http://www.w3.org/2000/svg" xml:space="preserve" id="Layer_1" x="0" y="0" style="enable-background:new 0 0 595.3 595.3" version="1.1" viewBox="0 0 595.3 595.3"><style>.st2{fill:#fdb408}</style><path d="M297.6 595.3C133.3 595.3 0 462 0 297.6 0 133.3 133.3 0 297.6 0 462 0 595.3 133.3 595.3 297.6c0 164.4-133.3 297.7-297.7 297.7" style="fill:#fff"/><path d="M360.9 485.3c-43-22.5-64.5-45.1-69.5-72 2.9.6 2.9 3.3 4 5.2 16.9 29.6 48.8 44.2 83.2 38 30.2-5.4 55.7-31.7 60.9-63.4 1.9-11.1.2-22.1-1.5-33-2.1-14 3.8-25.4 15-31.7 17.9-9.8 38.6-1 44.6 18.8 13.6 45.3-1.3 93.4-39.8 122.4-71.1 53.4-180.8 58.8-252.6-33-38.2-48.6-53.6-104.3-45.5-166 .8-5.8-1.5-8.6-6-10.8-14.2-7.5-29.6-7.9-45.1-8.1-5.4 0-12.9 3.1-15.6-4-2.5-6.7 4.6-10 8.6-14 24.2-24.6 52.6-42.1 86.1-50.5 5.4-1.3 8.3-5 11.3-9 36.3-46.5 83.4-75.3 141.6-85.1 17.7-2.9 36.1-2.9 53.8 1.7 33 8.3 54.2 29.4 64 61.7 1.7 5.2 3.8 7.5 9.2 8.1 8.1.6 16.1 2.9 23.2 7.1 11.7 6.9 12.9 17.1 3.5 26.5-11.9 11.7-27.3 16.3-42.6 21.1-24.4 7.7-48.6 15.9-73.2 23.4-5.8 1.9-6.7 5.2-7.1 10.8-2.1 39.6-17.3 71.5-55.1 89.3-2.3 1-5 3.3-7.1 1.3-2.1-2.1 0-4.8.6-7.3 5.4-18.6 4.2-36.9-2.9-54.6-1.3-3.3-2.3-7.3-7.9-4-74.7 43-72.8 137.2-21.3 181.9 23.4 19.6 50.1 30 83.2 29.2m15.7-330.6c-8.8-.4-15.2 2.5-18.8 10.2-3.1 6.9-2.7 13.8 2.7 19.4 5.6 6 12.3 8.1 20.6 4.4-18.5-7.9-19.9-19.4-4.5-34m12.5 11.9c-.6-2.9-2.3-4.8-5.4-4.6-2.9.4-4.6 2.5-4.2 5.4.4 2.5 2.1 4.2 4.8 4 3.1-.2 4.8-1.9 4.8-4.8" style="fill:#2781fc"/><path d="M345.9 446.3c27.7-.2 47.1-11.3 55.3-33 6.9-18.8 4.6-36.5-9.2-51.9-11.7-13.3-10-34 3.5-45.3 13.1-10.8 33.6-9.2 44 3.5 2.3 2.7 3.8 4.8.4 7.9-12.3 11.7-13.8 26.1-11.1 41.7 6.5 35.9-13.1 67.8-47.6 77.6-11.5 3.5-23.6 4.9-35.3-.5" class="st2"/><path d="M345.9 446.3c-.8 0-1.5-.2-2.3-.2 1.1-1.5 1.7-.8 2.3.2" class="st2"/></svg>