<?xml version="1.0" encoding="utf-8"?>
<!-- Generator: Adobe Illustrator 26.3.1, SVG Export Plug-In . SVG Version: 6.00 Build 0)  -->
<svg version="1.1" id="Layer_1" xmlns="http://www.w3.org/2000/svg" xmlns:xlink="http://www.w3.org/1999/xlink" x="0px" y="0px"
	 viewBox="0 0 595.3 595.3" style="enable-background:new 0 0 595.3 595.3;" xml:space="preserve">
<style type="text/css">
	.st0{fill:#FFFFFF;}
	.st1{fill:#2781FC;}
	.st2{fill:#FDB408;}
</style>
<path class="st0" d="M297.6,595.3L297.6,595.3C133.3,595.3,0,462,0,297.6l0,0C0,133.3,133.3,0,297.6,0l0,0
	C462,0,595.3,133.3,595.3,297.6l0,0C595.3,462,462,595.3,297.6,595.3z"/>
<g>
	<path class="st1" d="M360.9,485.3c-43-22.5-64.5-45.1-69.5-72c2.9,0.6,2.9,3.3,4,5.2c16.9,29.6,48.8,44.2,83.2,38
		c30.2-5.4,55.7-31.7,60.9-63.4c1.9-11.1,0.2-22.1-1.5-33c-2.1-14,3.8-25.4,15-31.7c17.9-9.8,38.6-1,44.6,18.8
		c13.6,45.3-1.3,93.4-39.8,122.4c-71.1,53.4-180.8,58.8-252.6-33c-38.2-48.6-53.6-104.3-45.5-166c0.8-5.8-1.5-8.6-6-10.8
		c-14.2-7.5-29.6-7.9-45.1-8.1c-5.4,0-12.9,3.1-15.6-4c-2.5-6.7,4.6-10,8.6-14c24.2-24.6,52.6-42.1,86.1-50.5c5.4-1.3,8.3-5,11.3-9
		c36.3-46.5,83.4-75.3,141.6-85.1c17.7-2.9,36.1-2.9,53.8,1.7c33,8.3,54.2,29.4,64,61.7c1.7,5.2,3.8,7.5,9.2,8.1
		c8.1,0.6,16.1,2.9,23.2,7.1c11.7,6.9,12.9,17.1,3.5,26.5c-11.9,11.7-27.3,16.3-42.6,21.1c-24.4,7.7-48.6,15.9-73.2,23.4
		c-5.8,1.9-6.7,5.2-7.1,10.8c-2.1,39.6-17.3,71.5-55.1,89.3c-2.3,1-5,3.3-7.1,1.3c-2.1-2.1,0-4.8,0.6-7.3
		c5.4-18.6,4.2-36.9-2.9-54.6c-1.3-3.3-2.3-7.3-7.9-4c-74.7,43-72.8,137.2-21.3,181.9C301.1,475.7,327.8,486.1,360.9,485.3z
		 M376.6,154.7c-8.8-0.4-15.2,2.5-18.8,10.2c-3.1,6.9-2.7,13.8,2.7,19.4c5.6,6,12.3,8.1,20.6,4.4
		C362.6,180.8,361.2,169.3,376.6,154.7z M389.1,166.6c-0.6-2.9-2.3-4.8-5.4-4.6c-2.9,0.4-4.6,2.5-4.2,5.4c0.4,2.5,2.1,4.2,4.8,4
		C387.4,171.2,389.1,169.5,389.1,166.6z"/>
	<path class="st2" d="M345.9,446.3c27.7-0.2,47.1-11.3,55.3-33c6.9-18.8,4.6-36.5-9.2-51.9c-11.7-13.3-10-34,3.5-45.3
		c13.1-10.8,33.6-9.2,44,3.5c2.3,2.7,3.8,4.8,0.4,7.9c-12.3,11.7-13.8,26.1-11.1,41.7c6.5,35.9-13.1,67.8-47.6,77.6
		C369.7,450.3,357.6,451.7,345.9,446.3L345.9,446.3z"/>
	<path class="st2" d="M345.9,446.3c-0.8,0-1.5-0.2-2.3-0.2C344.7,444.6,345.3,445.3,345.9,446.3L345.9,446.3z"/>
</g>
</svg>
