<?xml version="1.0" encoding="utf-8"?>
<!-- Generator: Adobe Illustrator 26.3.1, SVG Export Plug-In . SVG Version: 6.00 Build 0)  -->
<svg version="1.1" id="Layer_1" xmlns="http://www.w3.org/2000/svg" xmlns:xlink="http://www.w3.org/1999/xlink" x="0px" y="0px"
	 viewBox="0 0 595.3 595.3" style="enable-background:new 0 0 595.3 595.3;" xml:space="preserve">
<style type="text/css">
	.st0{fill:#FFFFFF;}
	.st1{fill:#432975;}
	.st2{fill:url(#SVGID_1_);}
	.st3{fill:#FDFDFD;}
	.st4{fill:#00D7B0;}
</style>
<path class="st0" d="M297.6,595.3L297.6,595.3C133.3,595.3,0,462,0,297.6l0,0C0,133.3,133.3,0,297.6,0l0,0
	C462,0,595.3,133.3,595.3,297.6l0,0C595.3,462,462,595.3,297.6,595.3z"/>
<g>
	<g>
		<path class="st1" d="M513.8,281.7c4,0,8,0,12,0c4,0,8,0,12,0c-4,0-8,0-12,0C521.7,281.8,517.7,281.7,513.8,281.7z"/>
		<path class="st1" d="M265,281.8c3.9,0,7.7,0,11.6,0c7.7,0,15.5,0,23.2,0c-7.7,0-15.5,0-23.2,0C272.8,281.8,268.9,281.8,265,281.8z
			"/>
		<path class="st1" d="M103.3,239.6c0-2.5-1-2.8-3.1-2.8c-2.2,0-3.4,0.3-3.3,3c0.2,7.1,0.1,14.2,0,21.3c0,0.9,0.5,2-1.2,3
			c-0.4-0.6-0.8-1.4-1.4-2c-9.4-9.5-20.7-12.9-33.5-9.5c-13,3.5-20.9,12.4-24.2,25.5c-0.2,0.9,0.2,2.1-1,2.6c0,3,0,6,0,9
			c1.3,1,1.1,2.6,1.5,4c3.9,15.3,19.5,26.5,34.8,24.9c17.6-1.8,31-15,31.3-31.5C103.5,271.3,103.2,255.4,103.3,239.6z M69.7,312.1
			c-14.9,0-27.2-12.2-27.3-27c-0.1-14.7,12.3-27.2,27.1-27.2c15,0,27.6,12.4,27.5,27.2C96.9,300,84.6,312.1,69.7,312.1z"/>
		<path class="st1" d="M364.8,344.8c-3.3-0.1-5.8,1.4-6.9,4.6c-1.2,3.2,0.1,6,3.4,8.1c0.5,0.3,0.9,0.7,1.4,1.1c1,0,2,0,3,0
			c0.1-0.6,0.6-0.6,1.1-0.8c3.3-1.3,4.9-3.7,4.4-7.3C370.7,347.3,368.1,344.9,364.8,344.8z M369.7,351.8c-0.2,2.7-2.8,5.1-5.5,5
			c-2.7-0.1-5.3-2.7-5.3-5.3c0-2.8,2.8-5.5,5.6-5.4C367.4,346.1,369.9,348.9,369.7,351.8z"/>
		<path class="st1" d="M481.6,344.8c-3.3-0.3-5.9,1.1-7.1,4.3c-1.2,3.3-0.3,6.1,2.7,8.1c0.6,0.4,1.4,0.5,1.6,1.4c1,0,2,0,3,0
			c0.2-0.6,0.7-0.6,1.1-0.7c3.4-1.1,5-3.5,4.8-7.1C487.6,347.6,484.9,345,481.6,344.8z M481,356.9c-2.8,0-5.5-2.7-5.4-5.6
			c0.1-2.8,2.6-5.2,5.3-5.2c2.9,0,5.5,2.7,5.4,5.6C486.2,354.3,483.6,356.9,481,356.9z"/>
		<path class="st1" d="M92,345.1c-3.5,1-5.5,4.6-4.6,8.2c0.7,2.9,3.2,3.8,5.2,5.3c0.7,0,1.5,0,2.2,0c0.3-0.9,1.2-0.6,1.9-0.9
			c3.4-1.5,5.1-5.2,3.8-8.6C99.3,345.8,95.6,344,92,345.1z M94,356.9c-2.7-0.1-5.2-2.6-5.2-5.3c0-3,2.4-5.5,5.4-5.5
			c2.8,0.1,5.2,2.4,5.2,5.2C99.4,354.3,96.9,356.9,94,356.9z"/>
		<path class="st1" d="M67,350.8c-5.5,1-4-3.4-4.8-6.2c-0.7,0.7-1,0.8-1,1c0,4.3-0.1,8.7-0.1,13c0.5,0,1,0,1.5,0c0-1.5,0.1-3,0-4.4
			c-0.1-1.5,0.4-2.1,2.1-2.2c2.9-0.1,5.3,0,4.6,4c-0.1,0.6-0.4,1.5,0.9,1.8c0-4.3,0-8.4,0-12.9C67.8,346.4,71.3,350,67,350.8z"/>
		<path class="st1" d="M143,344.9c-2.5-0.2-2,1.6-2,3c0.1,3.6-0.4,7.1,0.4,10.7c0.2,0,0.5,0,0.7,0c0.3-3.2,0-6.6,5.1-6.2
			c1.9,0.1,2.9-2.2,2.4-4.3C148.8,344.3,145.6,345.2,143,344.9z M144.8,351.4c-1.9,0.2-2.4-0.7-2.2-2.4c-0.2-1.6,0.1-2.6,2.1-2.5
			c1.7,0.1,3.4,0.2,3.5,2.4C148.2,351.1,146.5,351.2,144.8,351.4z"/>
		<path class="st1" d="M513.3,355.3c-2.2-3.3-3.8-5.7-5.4-8c-0.7-1-1-2.6-2.6-2.3c-1.8,0.4-0.9,2.1-0.9,3.1c-0.1,3.5,0,6.9,0,10.4
			c0.5,0,1,0,1.5,0c0-3.5,0-7,0-11.5c1.5,2.2,2.5,3.6,3.4,5c1.1,1.5,2.1,3.1,3.2,4.6c0.5,0.8,1.1,1.9,2.2,0.8
			c0.7-0.7-0.1-11.1-1.4-13.1C513.3,348.2,513.3,351.2,513.3,355.3z"/>
		<path class="st1" d="M416.7,353.2c-0.2,2-1,3.5-3.1,3.5c-1.9,0-2.8-1.6-2.9-3.3c-0.1-2,0-4-0.1-6c0-0.8,0.5-2-1.4-2.5
			c0.3,4.9-1.6,9.8,2.8,13.6c0.7,0,1.5,0,2.2,0c4-2.3,5.3-7.5,3-13.9C416.2,347.7,416.9,350.5,416.7,353.2z"/>
		<path class="st1" d="M120.6,350.3c-0.9-0.4-1.9-0.8-2-2c-0.1-0.8,0.3-1.5,1-1.8c1.2-0.6,2.2-0.2,2.9,0.9c0.3,0.5,0.5,1.2,1.5,0.7
			c0.1-2.3-1.4-3.2-3.4-3.3c-1.8-0.1-3.2,0.8-3.5,2.7c-0.4,1.8,0.2,3.2,2,3.9c0.8,0.3,1.7,0.6,2.4,1c1.5,0.8,1.9,2.1,1,3.4
			c-0.9,1.3-2.2,1.3-3.6,0.4c-0.8-0.5-0.4-2.1-2-1.7c-0.8,2.1,1.7,2.6,2,4.1c1,0,2,0,3,0C125.9,354.8,125.6,352.5,120.6,350.3z"/>
		<path class="st1" d="M535.1,350.2c-0.2-0.1-0.5-0.2-0.7-0.3c-1.1-0.7-1.7-1.5-0.8-2.7c0.8-1.1,1.8-1.1,2.9-0.5
			c0.7,0.4,0.7,2.1,2.3,1.3c-0.1-2.4-1.6-3.2-3.6-3.3c-1.8,0-3.1,1-3.5,2.8c-0.5,2.1,0.7,3.2,2.5,4c0.7,0.3,1.4,0.4,2.1,0.8
			c1.5,0.8,1.8,2.2,0.9,3.4c-0.9,1.2-2.2,1.4-3.6,0.4c-0.7-0.5-0.5-2-2-1.7c-0.8,2.2,1.6,2.7,2,4.1c0.8,0,1.5,0,2.2,0
			c1.5-1.2,3.6-1.8,3.4-4.3C539.1,351.6,537.3,350.7,535.1,350.2z"/>
		<path class="st1" d="M338.4,350.4c-1.2-0.5-2.5-0.7-2.7-2.2c-0.1-1,0.6-1.6,1.5-1.9c1.5-0.5,2.2,0.6,3,1.6
			c0.2,0.2,0.6,0.2,1.1,0.4c0.1-2.6-1.4-3.5-3.3-3.6c-1.7-0.1-3.2,0.8-3.7,2.6c-0.5,1.8,0.2,3.2,1.9,4c1.6,0.7,3.9,0.7,4,3.2
			c0,1-0.6,1.6-1.5,2c-2.4,1.2-2.8-1.8-4.5-2.3c-1,2.4,1.5,2.9,2.1,4.3c0.7,0,1.5,0,2.2,0C342.9,355.4,342.9,352.3,338.4,350.4z"/>
		<path class="st1" d="M294.1,351.3c-2-1.8-1.8-5.1-5.2-6.6c2,5,5.5,8.8,4.8,13.9c0.2,0,0.5,0,0.7,0c-0.1-5,2.8-8.9,4.3-13.4
			C296.3,346.5,295.9,349.5,294.1,351.3z"/>
		<path class="st1" d="M267.6,345.6c3.7,0.6,2.8,3.2,2.9,5.3c0.2,2.6-0.5,5.2,0.6,7.7c0.2,0,0.5,0,0.7,0c0.1-2.6,0.2-5.2,0.1-7.8
			c-0.1-2.3-0.3-4.7,3.1-5.1C272.6,344.6,270.3,344.8,267.6,345.6z"/>
		<path class="st1" d="M433.4,345.6c3.7,0.6,2.8,3.2,2.9,5.3c0.2,2.6-0.5,5.2,0.6,7.7c0.2,0,0.5,0,0.7,0c0.1-2.6,0.2-5.2,0.1-7.8
			c-0.1-2.3-0.3-4.7,3.1-5.1C438.3,344.6,436,344.8,433.4,345.6z"/>
		<path class="st1" d="M181.4,345.6c3.7,0.6,2.8,3.2,2.9,5.3c0.2,2.6-0.5,5.2,0.6,7.7c0.2,0,0.5,0,0.7,0c0.1-2.6,0.2-5.2,0.1-7.8
			c-0.1-2.3-0.3-4.7,3.1-5.3C186.3,344.9,184,344.7,181.4,345.6z"/>
		<path class="st1" d="M392.5,356.7c-2.6,0.4-3.1-0.9-3-3.2c0.2-2.8,0-5.6,0-8.4c-0.5,0-0.9,0-1.4,0c0,4.5,0,9,0,13.5c2,0,4,0,6,0
			C395.1,356.6,393.8,356.5,392.5,356.7z"/>
		<path class="st1" d="M234.1,356.7c-3.6,0.6-3.6-1.5-3.5-4.1c0-2.5,0.6-5.2-0.4-7.6c-0.3,0-0.7,0-1,0c0,4.5,0,9,0,13.5c2,0,4,0,6,0
			C235.9,357.4,236,356.4,234.1,356.7z"/>
		<path class="st1" d="M165.4,358.6c0.2,0,0.5,0,0.7,0c0-4.5,0-8.9,0-13.4c-0.5,0-1,0-1.4,0.1C165.1,349.6,164,354.1,165.4,358.6z"
			/>
		<path class="st1" d="M251.6,358.6c0.2,0,0.5,0,0.7,0c0-4.5,0-8.9,0-13.4c-0.4,0-0.9,0-1.3,0.1
			C251.2,349.6,250.3,354.1,251.6,358.6z"/>
		<path class="st1" d="M502.4,288.2c16.2,0.2,32.5,0.1,48.7,0.1c9.2,0,9.5-0.4,7.7-9.5c-3.7-18.1-20.8-30.2-38.5-27
			c-18.9,3.4-30.9,20.2-27.8,39.2c2.4,15.1,15.5,26.5,31.9,27.7c14,1,28.4-8.8,32.9-22.6c-4.2-0.9-6.8,0.1-9.2,4
			c-6,9.5-15.4,13.5-26.4,11.8c-11.4-1.7-18.7-8.7-22.2-19.7C498.5,289.3,499,288.2,502.4,288.2z M499.2,278.5
			c2.6-11.8,14-20.7,26.5-20.6c12.6,0.1,23.7,8.9,26.3,20.9c0.5,2.3,0,3.1-2.4,3c-4-0.1-8-0.1-12-0.1c-4,0-8,0-12,0c-4,0-8,0-12,0
			c-4,0-8,0-12,0.1C498.9,281.9,498.7,280.7,499.2,278.5z"/>
		<path class="st1" d="M272.2,251.7c-19,3-31.8,20.2-28.7,38.9c3.1,18.5,20.6,30.7,39.4,27.5c11.7-2,22.9-11.7,25.3-22.1
			c-5.7-0.5-5.7-0.4-8.9,4.1c-6.5,9.2-15.5,13.4-26.5,11.8c-11.4-1.7-18.7-8.6-22.2-19.6c-1-3.2-0.3-4,3.1-4
			c17.9,0.1,35.7,0,53.6,0.1c2.1,0,3.3-0.1,3.4-2.9C310.8,265,292.2,248.6,272.2,251.7z M299.9,281.8c-7.7,0-15.5,0-23.2,0
			c-3.9,0-7.7,0-11.6,0c-3.9,0-7.7,0-11.6,0.1c-2.9,0.1-3.7-0.6-3-3.6c3.1-11.8,13.7-20.2,26-20.5c12.2-0.2,23.2,7.9,26.5,19.7
			C304.1,281.7,304,281.8,299.9,281.8z"/>
		<path class="st1" d="M393.4,240.1c0-2.6-0.7-3.3-3.3-3.4c-2.8,0-3.3,1.1-3.2,3.5c0.1,7.8,0,15.7,0,24.7c-1.5-1.6-2.1-2.4-2.8-3.1
			c-10.7-10.8-26.1-13.5-39.2-7.1c-13.4,6.6-20.5,20.4-18.4,35.7c2.3,16.1,18,29.2,34.1,28.3c18.3-1,32.6-15.2,32.7-32.6
			C393.5,270.8,393.3,255.5,393.4,240.1z M359.7,312.1c-14.9,0-27.2-12.2-27.1-27.1c0-14.9,12.3-27.2,27.2-27.1
			c15,0,27.2,12.3,27.2,27.1C386.9,300,374.7,312.1,359.7,312.1z"/>
		<path class="st1" d="M473.1,281.7c-9.7,0.1-19.5,0.2-29.2,0c-2.8,0-3.2,1-3.3,3.4c-0.1,2.8,1,3.2,3.5,3.2c7.1-0.1,14.2-0.1,21.4,0
			c4.3,0,4.5,0.2,3.3,4.4c-3.7,12.3-15.1,20.2-28.2,19.4c-11.9-0.7-22.9-10.8-24.7-22.5c-2-12.9,4.9-25.1,16.8-29.8
			c11.7-4.7,25.5-0.7,32.3,10.1c2.5,3.9,5.1,4.8,9.3,3.9c-4.8-14.9-20.9-24.6-36.4-22.1c-16.9,2.6-28.8,16.5-28.8,33.5
			c0,18.5,15.1,33.6,33.6,33.6c18.3,0,33.7-15.3,33.8-33.6C476.6,282.6,475.8,281.7,473.1,281.7z"/>
		<path class="st1" d="M206.7,346c-1.8,3.7-3.3,7.6-4.9,11.4c0.4,0.2,0.7,0.5,1.1,0.7c1.2-2.3,2-4.4,5.3-4.7
			c3.7-0.3,2.9,4.1,6.1,4.4c-1.7-4.1-3.3-7.8-4.8-11.4C208.8,345,207.7,343.9,206.7,346z M209.5,352.2c-0.3,0.7-2.5,0.8-3,0.1
			c-1.4-1.8,0.9-3.1,1.2-4.8C208.9,349,210.2,350.5,209.5,352.2z"/>
		<path class="st1" d="M456.1,357.7c0.3,0,0.6,0,1,0c0-4.1,0-8.2,0-12.4C455.8,349.4,455.9,353.5,456.1,357.7z"/>
	</g>
	<g>
		<linearGradient id="SVGID_1_" gradientUnits="userSpaceOnUse" x1="123.4127" y1="282.2867" x2="211.1264" y2="282.2867">
			<stop  offset="0" style="stop-color:#00D7B0"/>
			<stop  offset="0.9994" style="stop-color:#00D7B0;stop-opacity:0"/>
		</linearGradient>
		<path class="st2" d="M211.1,265.9h-69.7c-0.5,0-1-0.1-1.5-0.1c-9.1,0-16.5,7.4-16.5,16.5c0,9.1,7.4,16.5,16.5,16.5
			c0.5,0,1,0,1.5-0.1h69.7V265.9z"/>
		<path class="st3" d="M202.9,267c-3.7,2.2-7.4,4.5-9,9c-3,8.3-1.2,16.3,8.3,21.7c9.9,3.3,19.4-0.7,22.4-9.5c2.1-6.3,1-12.2-3.5-17
			C216,265.9,209.8,264.6,202.9,267z"/>
		<circle class="st4" cx="209.1" cy="282.3" r="16.5"/>
	</g>
</g>
</svg>
