<?xml version="1.0" encoding="utf-8"?>
<!-- Generator: Adobe Illustrator 26.3.1, SVG Export Plug-In . SVG Version: 6.00 Build 0)  -->
<svg version="1.1" id="Layer_1" xmlns="http://www.w3.org/2000/svg" xmlns:xlink="http://www.w3.org/1999/xlink" x="0px" y="0px"
	 viewBox="0 0 595.3 595.3" style="enable-background:new 0 0 595.3 595.3;" xml:space="preserve">
<style type="text/css">
	.st0{fill:#FFFFFF;}
	.st1{fill:#432975;}
</style>
<path class="st0" d="M297.6,595.3L297.6,595.3C133.3,595.3,0,462,0,297.6l0,0C0,133.3,133.3,0,297.6,0l0,0
	C462,0,595.3,133.3,595.3,297.6l0,0C595.3,462,462,595.3,297.6,595.3z"/>
<path class="st1" d="M471.4,101.6c0-12.8-5.1-14.4-15.9-14.4c-11.3,0-17.5,1.5-16.9,15.4c1,36.5,0.5,72.9,0,109.4
	c0,4.6,2.6,10.3-6.2,15.4c-2.1-3.1-4.1-7.2-7.2-10.3c-48.3-48.8-106.3-66.3-172.1-48.8c-66.8,18-107.3,63.7-124.3,131
	c-1,4.6-8,40.4,2.6,80.1c20,78.6,100.2,136.1,178.7,127.9c90.4-9.2,159.2-77,160.8-161.8C472.4,264.4,470.9,182.7,471.4,101.6z
	 M298.8,473.9c-76.5,0-139.7-62.7-140.2-138.7c-0.5-75.5,63.2-139.7,139.2-139.7c77,0,141.8,63.7,141.2,139.7
	C438.5,411.8,375.4,473.9,298.8,473.9z"/>
</svg>
