<?xml version="1.0" encoding="utf-8"?>
<!-- Generator: Adobe Illustrator 26.3.1, SVG Export Plug-In . SVG Version: 6.00 Build 0)  -->
<svg version="1.1" id="Layer_1" xmlns="http://www.w3.org/2000/svg" xmlns:xlink="http://www.w3.org/1999/xlink" x="0px" y="0px"
	 viewBox="0 0 595.3 595.3" style="enable-background:new 0 0 595.3 595.3;" xml:space="preserve">
<style type="text/css">
	.st0{fill:#FFFFFF;}
	.st1{enable-background:new    ;}
</style>
<path class="st0" d="M297.6,595.3L297.6,595.3C133.3,595.3,0,462,0,297.6l0,0C0,133.3,133.3,0,297.6,0l0,0
	C462,0,595.3,133.3,595.3,297.6l0,0C595.3,462,462,595.3,297.6,595.3z"/>
<g class="st1">
	<path d="M146,478.8V116.5h120.4c35.9,0,64.9,4,87,12c22.1,8,41.2,21.5,57.4,40.6c25.6,30.4,38.4,70.3,38.4,119.9
		c0,60.2-15.9,106.9-47.7,140s-76.6,49.7-134.4,49.7H146z M197.4,440.3h65.8c47,0,80.3-12.6,99.9-37.9c21-26.9,31.6-63.1,31.6-108.4
		c0-42.6-10.4-76-31.1-100.3c-12.6-14.8-27.6-25-45-30.5c-17.5-5.5-43.7-8.2-78.8-8.2h-42.3V440.3z"/>
</g>
</svg>
