<?xml version="1.0" encoding="utf-8"?>
<!-- Generator: Adobe Illustrator 26.3.1, SVG Export Plug-In . SVG Version: 6.00 Build 0)  -->
<svg version="1.1" id="Layer_1" xmlns="http://www.w3.org/2000/svg" xmlns:xlink="http://www.w3.org/1999/xlink" x="0px" y="0px"
	 viewBox="0 0 595.3 595.3" style="enable-background:new 0 0 595.3 595.3;" xml:space="preserve">
<style type="text/css">
	.st0{fill:#FFFFFF;}
	.st1{fill:#CCBDFC;}
	.st2{fill:#550FED;}
</style>
<path class="st0" d="M297.6,595.3L297.6,595.3C133.3,595.3,0,462,0,297.6v0C0,133.3,133.3,0,297.6,0h0
	C462,0,595.3,133.3,595.3,297.6v0C595.3,462,462,595.3,297.6,595.3z"/>
<g>
	<path class="st1" d="M35.6,226.7c6.6-0.4,81.8,0.5,88.1,2.4c28.4,8.8,46,27.8,51.2,57c7,38.7-20.3,75.7-59.4,81.7
		c-3.7,0.6-76.2,0.7-79.9,0.8C35.6,321.3,35.6,274,35.6,226.7z"/>
	<path class="st2" d="M35.6,226.7c6.6-0.4,13.1,0.5,19.4,2.4c28.4,8.8,46,27.8,51.2,57c7,38.7-20.3,75.7-59.4,81.7
		c-3.7,0.6-7.5,0.7-11.3,0.8C35.6,321.3,35.6,274,35.6,226.7z"/>
	<path class="st2" d="M473.2,285.7c0.8-3.7,0.8-3.7,4.5-3.7c4.2,0,4.2,0,4.2,4.2c0,10.3,0,20.6,0,31c0,16.9-18.3,24.6-31.4,17
		c-1.8-1.1-3.4-2.4-4.9-3.9c-0.8-0.8-0.8-1.4,0.2-2c0.4-0.3,0.8-0.6,1.2-0.9c1.4-1,2.7-2.5,4.3-2.9c1.8-0.5,2.5,1.8,3.9,2.6
		c4.6,2.7,9.1,2.2,13.5-0.4c3.8-2.3,5.3-5.9,4.8-10.8c-5.5,5.2-11.8,6.5-18.7,4.4c-4.4-1.3-7.8-3.9-10.3-7.8
		c-5.2-8.3-3.7-20.4,3.4-26.7C454,280.5,465.9,278.4,473.2,285.7z M473.5,301.2c0-6.7-5-11.9-11.4-11.9c-6.4,0-11.5,5.3-11.5,11.9
		c0,6.7,4.9,11.8,11.5,11.9C468.6,313.1,473.5,308,473.5,301.2z"/>
	<path class="st2" d="M355.4,286c9.1-8.4,21.9-5.1,27.6,1.4c7.2,8.1,7.2,19.8,0,28c-5.5,6.4-18.2,10.6-27.7,2c0,2.1,0,4,0,5.8
		c0,3.2-0.1,6.4,0,9.6c0.1,1.5-0.5,2-1.9,1.9c-1.7-0.1-3.4-0.1-5,0c-1.6,0.1-2-0.6-2-2.1c0.1-8.6,0-17.2,0-25.8c0-7.5,0-15.1,0-22.6
		c0-1.7,0.4-2.4,2.2-2.3c1.5,0.1,3.1,0.1,4.6,0c1.6-0.1,2.4,0.4,2.1,2.1C355.3,284.6,355.4,285.2,355.4,286z M379.1,301.7
		c0-7-5.3-12.5-12.2-12.5c-6.5,0-12,5.6-12,12.3c0,6.8,5.4,12.4,12,12.4C373.8,314,379.1,308.6,379.1,301.7z"/>
	<path class="st2" d="M243.1,285.9c0-4.8,0.1-9.2,0-13.6c0-1.6,0.4-2.1,2-2c1.7,0.1,3.5,0.1,5.2,0c1.2-0.1,1.6,0.5,1.6,1.6
		c0,0.3,0,0.7,0,1c0,15.2,0,30.4,0,45.6c0,2.1-0.6,3-2.7,2.6c-0.7-0.1-1.4,0-2.1,0c-3.8,0-3.8,0-4.2-4c-5.4,5-11.6,6-18.3,4.3
		c-4.6-1.2-8.3-4-10.9-8c-5.8-8.5-4.6-19.4,2.8-26.8C222,281.1,234.2,277.7,243.1,285.9z M219.3,301.5c0,6.9,5.2,12.4,12,12.4
		c6.6,0,12.2-5.5,12.2-12.2c0-6.7-5.5-12.4-12.1-12.4C224.7,289.3,219.3,294.7,219.3,301.5z"/>
	<path class="st2" d="M520.7,285.7c0.5-3.7,0.5-3.7,4.2-3.7c5,0,5,0,5,4.9c0,10.6-0.1,21.2,0,31.8c0,2.1-0.6,2.8-2.6,2.5
		c-0.8-0.1-1.5,0-2.3,0c-3.8,0-3.8,0-4.2-4c-5.4,5-11.6,6-18.3,4.2c-4.6-1.2-8.3-4-10.9-8c-5.9-8.6-4.6-19.7,3-27
		C500.6,280.7,512.5,278,520.7,285.7z M497.2,301.6c0,6.9,5.2,12.3,12,12.4c6.6,0,12.2-5.5,12.2-12.3c0-6.8-5.5-12.4-12.1-12.4
		C502.5,289.3,497.2,294.7,497.2,301.6z"/>
	<path class="st2" d="M284.9,304.8c-4.6,0-9.2,0-13.8,0c-2.3,0-2.4,0.2-1.6,2.4c2.3,6.2,10.3,9.1,16.7,6.1c1.9-0.9,3.6-2.2,4.9-3.9
		c0.6-0.8,1.1-0.8,1.9-0.3c1.7,1,3.4,1.9,5.1,2.8c0.8,0.4,1.1,0.8,0.4,1.7c-11.1,13.5-31.2,10.6-37.5-3.5
		c-5.8-12.9,2.7-27.6,16.8-28.9c13.1-1.2,23.4,8.1,23.6,21.2c0,1.8-0.4,2.5-2.3,2.4C294.2,304.7,289.6,304.8,284.9,304.8z
		 M279.9,297.5c3.1,0,6.1,0,9.2,0c1.1,0,1.8-0.2,1.3-1.6c-1.5-4.1-5.9-7.2-10.6-7.2c-4.4-0.1-8.5,2.6-10.2,6.7
		c-0.6,1.5-0.5,2.2,1.3,2.1C273.9,297.4,276.9,297.5,279.9,297.5z"/>
	<path class="st2" d="M419.4,304.8c-4.7,0-9.4,0.1-14,0c-2,0-2,0.7-1.5,2.2c2.4,6.7,11.1,9.6,17.7,5.8c1.5-0.9,2.8-1.9,3.8-3.2
		c0.6-0.8,1.1-1,2.1-0.5c1.7,1,3.4,1.9,5.1,2.9c0.9,0.5,1,1,0.3,1.7c-6,6.8-13.4,10-22.4,8.2c-8.9-1.8-14.4-7.3-16.4-16.1
		c-2.7-11.6,6.1-23,18-24.6c10.4-1.4,23.8,6.3,23.6,21.7c0,1.7-0.7,2.1-2.2,2.1C428.8,304.8,424.1,304.8,419.4,304.8z M414.4,297.5
		c3.1,0,6.1,0,9.2,0c1.1,0,1.7-0.1,1.2-1.5c-1.6-4.1-5.9-7.2-10.6-7.3c-4.6-0.1-8.6,2.7-10.3,6.9c-0.6,1.4-0.3,1.9,1.2,1.9
		C408.3,297.5,411.4,297.5,414.4,297.5z"/>
	<path class="st2" d="M322,322.2c-5.8-0.2-10.7-2.4-15.1-5.7c-1.1-0.9-1.4-1.5-0.2-2.5c1.5-1.3,2.6-3.5,4.4-4.1
		c1.9-0.7,2.9,1.9,4.6,2.8c3.3,1.6,6.6,2.9,10.4,2.1c0.3-0.1,0.5-0.1,0.8-0.2c2.6-0.8,4.4-2.7,4.3-4.5c-0.1-1.9-1.7-3.2-4.6-3.9
		c-4.3-1-8.8-1.4-13-3.2c-5.2-2.3-7.2-6.3-5.9-11.8c1.2-5.1,5.9-9,11.6-9.8c6.6-1,12.4,0.7,17.9,4.2c1.1,0.7,1.4,1.3,0.4,2.4
		c-1.1,1.1-2,2.3-2.9,3.6c-0.7,1-1.3,1.1-2.4,0.3c-3.4-2.5-7.1-4.1-11.5-3.1c-0.9,0.2-1.7,0.5-2.5,1c-1.4,0.8-2.2,2.1-2,3.8
		c0.2,1.6,1.3,2.5,2.7,2.9c3.4,0.8,6.8,1.4,10.2,2.2c1.2,0.3,2.5,0.5,3.6,0.9c6.2,2.1,8.8,7.8,6.4,13.9c-2.2,5.5-6.7,8-12.3,8.8
		C325.2,322.3,323.5,322.6,322,322.2z"/>
	<path class="st2" d="M548,284.8c1.9-1.9,3.7-3.5,6.3-3.8c0.4,0,0.8-0.1,1.2-0.1c4.2,0.1,4.8,0.9,3.4,4.8c-0.2,0.6-0.4,1.2-0.6,1.8
		c-0.5,2.1-1,3.4-3.9,2.5c-3.2-1-6.1,1.8-6.1,5.4c-0.1,7.7,0,15.4,0,23c0,2.9,0,2.9-2.8,2.9c-1.9,0-4.4,0.8-5.7-0.4
		c-1.3-1.2-0.4-3.7-0.4-5.6c0-10.3,0-20.5-0.1-30.8c0-2.1,0.6-2.7,2.6-2.5c0.9,0.1,1.8,0.1,2.7,0C546.6,281.8,548.2,282,548,284.8z"
		/>
</g>
</svg>
