<?xml version="1.0" encoding="utf-8"?>
<!-- Generator: Adobe Illustrator 26.3.1, SVG Export Plug-In . SVG Version: 6.00 Build 0)  -->
<svg version="1.1" id="Layer_1" xmlns="http://www.w3.org/2000/svg" xmlns:xlink="http://www.w3.org/1999/xlink" x="0px" y="0px"
	 viewBox="0 0 595.3 595.3" style="enable-background:new 0 0 595.3 595.3;" xml:space="preserve">
<style type="text/css">
	.st0{fill:#FFFFFF;}
	.st1{fill:#EC1C24;}
	.st2{fill:#0C4EA2;}
</style>
<path class="st0" d="M297.6,595.3L297.6,595.3C133.3,595.3,0,462,0,297.6v0C0,133.3,133.3,0,297.6,0h0
	C462,0,595.3,133.3,595.3,297.6v0C595.3,462,462,595.3,297.6,595.3z"/>
<g id="UHqOsK_00000041290977995456994750000016148303353566588349_">
	<g>
		<path class="st1" d="M507.4,309.3c2.4-2.5,4-4.3,5.7-6c3-2.9,6.4-4.9,10.6-5.5c5.5-0.7,8.8,1.9,9.4,7.4c0.1,1,0.2,2.1,0.2,3.4
			c2-0.8,2.7-2.5,3.8-3.8c3.8-4.2,8.2-7,14-7.2c4.5-0.1,6.9,1.8,8.1,6.3c0.7,2.5,0.6,5.1,0.2,7.6c-1.3,8.4-3.2,16.7-3.6,25.2
			c-0.1,1.9-0.9,3.1-2.8,3.3c-9.8,1.1-9.9,2.8-8.6-7.7c0.8-6.4,2.2-12.8,3.4-19.1c0.3-1.8,0.9-3.9-1.1-5.2c-2.1-1.4-3.9,0-5.5,1.3
			c-3.8,2.9-5.7,7.1-7.5,11.4c-1.7,4.3-2.8,8.7-3.8,13.2c-1,4.5-7.7,8.2-11.9,6.5c-1.7-0.7-0.7-1.8-0.6-2.7c1.3-7.7,2.8-15.4,4-23.1
			c0.4-2.4,1.6-5.5-1.6-6.8c-2.8-1.1-4.8,1.2-6.5,3.1c-5.5,6.2-7.7,13.9-9.5,21.6c-1.6,6.6-3.5,8.1-10.3,8c-2.3,0-2.8-0.9-2.4-2.9
			c2.1-11.8,4.2-23.6,5.4-35.6c0.2-1.6,0.8-2.4,2.4-2.7c10.5-2.1,9.5-3.5,8.8,7.1C507.6,307,507.6,307.5,507.4,309.3z"/>
		<path class="st2" d="M264.2,360.7c-5.5-0.4-11.2-1.1-15.7-5.2c-5.6-5.1-5.4-10.4,0.7-14.7c2.3-1.6,4.3-2.5,1.9-5.7
			c-1.4-1.8-0.9-4.6,1.2-5.7c4.2-2.3,3-4.1,0.7-7.3c-5.2-7.4-0.7-19.7,8.2-23.3c4.5-1.8,9.3-2.4,13.8-0.7c4.2,1.6,8.3,2,12.6,0.8
			c2.1-0.6,2.9,0.1,2.4,2.1c-0.6,2.6,0.7,6.8-4.7,5.7c-1.5-0.3-1.6,1.1-1.4,2.3c2.2,12.1-7.5,20-19.5,18.8c-1.1-0.1-2.4-0.5-2.8,0.8
			c-0.4,1.5,0.9,2.1,2.1,2.5c3.9,1.1,7.8,2.2,11.7,3.2c4.8,1.2,8.5,3.7,9.5,8.8c1.1,5.2-1.1,9.3-4.9,12.5
			C275.6,359.5,270.1,360.6,264.2,360.7z M267,352.8c0.8-0.1,1.7-0.3,2.6-0.4c2.4-0.4,4.6-1.4,4.8-4.1c0.2-2.7-1.9-3.7-4-4.4
			c-3.1-1-6.2-1.7-9.3-2.4c-2.7-0.6-4.4,0.9-5.5,3c-1.1,2,0.1,3.6,1.6,4.9C259.8,351.9,263.3,352.4,267,352.8z M273.8,310.7
			c-0.1-2.7,0-5.8-3.3-6.6c-3.5-0.9-5.6,1.5-6.9,4.3c-1.2,2.6-2,5.3-1.4,8.2c0.4,2.1,1.2,3.9,3.5,4.5c2.2,0.5,4-0.6,5.3-2.1
			C273.1,316.6,273.8,313.8,273.8,310.7z"/>
		<path class="st2" d="M176,307c4-4.7,7.7-8.3,13.3-9.3c7.9-1.5,13.1,1.9,14.1,9.8c1,8.1-0.5,15.9-5,22.9c-5.9,9-14.6,12.2-24.9,8.9
			c-2-0.6-2.3-0.2-2.6,1.5c-0.7,4.3-1.5,8.5-2.2,12.8c-0.7,4.1-8.4,7.7-11.9,5.5c-1.3-0.8-0.7-2.2-0.5-3.3c2.5-16.1,5-32.3,7.6-48.4
			c0.1-0.7,0.2-1.3,0.3-2c0.7-6.9,3.1-9,10.2-9.2c2,0,2.7,0.6,2.4,2.6C176.2,301.2,175.5,303.7,176,307z M191.3,312.6
			c-0.4-1.3,0.2-4-2.2-5.3c-2.6-1.4-4.7,0.2-6.6,1.7c-5.8,4.8-8.2,11.5-9.7,18.6c-0.4,1.8,0.9,2.7,2.2,3.4c3.6,1.9,8.8,0.4,11.8-3.5
			C190,323.3,190.9,318.4,191.3,312.6z"/>
		<path class="st2" d="M63.2,330.9c-4.5,5.4-9.1,9-15.4,9.6c-6.7,0.6-10.8-2.3-11.8-9.3c-1.3-9.3,0.3-18.1,6.6-25.5
			c5.8-6.8,13.2-9.8,22-7.9c3.3,0.7,3.9-0.6,4.3-3.2c0.6-4.5,1.4-9.1,1.8-13.6c0.3-2.9,1.3-4.2,4.4-4.5c8.6-0.9,8.4-1,7.1,7.6
			c-2.5,17.5-6.6,34.7-7.3,52.5c-0.1,2-0.8,3-2.8,3.2c-0.9,0.1-1.8,0.4-2.8,0.6c-5.6,0.8-6,0.4-6-5.3
			C63.4,334,63.3,332.9,63.2,330.9z M48.2,323.4c0.1,2.7-0.4,5.8,2.5,7.1c3.1,1.3,5.3-1.1,7.3-3c4.2-4,6.6-9.1,7.8-14.7
			c0.5-2.1,2.1-4.6-0.1-6.4c-2.3-1.8-5.1-1.4-7.8-0.6c-2.7,0.8-4.6,2.7-6.1,5C49.4,314.7,48.2,318.9,48.2,323.4z"/>
		<path class="st2" d="M319,330.5c-5.1,5.7-10,9.6-16.8,10c-5.4,0.3-8.4-1.9-9.8-7c-5.3-19.9,11.3-38.7,31.8-36
			c3.5,0.5,7.9-0.2,10,2.3c2,2.4-0.4,6.4-0.8,9.7c-1,9.1-3,18.1-3.1,27.4c0,1.8-0.7,2.8-2.5,3c-1.6,0.2-3.2,0.4-4.8,0.7
			c-2.9,0.5-4.3-0.6-4-3.7C319.2,335,319,333.3,319,330.5z M303.9,324.5c0.1,2.1-0.2,4.8,2.2,6c2.6,1.4,4.7-0.6,6.5-2.1
			c5-4.3,7.4-10.2,8.9-16.4c0.5-2,2.1-4.7,0.3-6.1c-2.3-1.8-5.4-1-8.1,0.1c-2,0.9-3.6,2.3-5,4C305.5,314.3,304.1,319.1,303.9,324.5z
			"/>
		<path class="st1" d="M485.4,314.8c-0.1,17.3-12.9,28.6-29.2,25.8c-5.8-1-9.7-4.1-10.9-9.9c-3.3-16.5,5.8-32.7,23.4-32.9
			C479.9,297.6,485.4,303.3,485.4,314.8z M457.6,323.4c0,6.1,1.2,8.8,3.9,9.6c2.9,0.8,6.3-1.4,8.4-5.7c2.4-4.7,3-9.8,2.9-14.9
			c0-2.9-0.7-5.9-4.1-6.7c-3.4-0.8-5.6,1.4-7.2,4.1C458.6,314.2,457.9,319.3,457.6,323.4z"/>
		<path class="st2" d="M439.6,282.8c-2.9-6.3-5.9-12.2-8.3-18.3c-1.4-3.3-2.7-2.9-4.9-1c-3.4,2.8-7,5.6-10.7,8.1
			c-2.4,1.6-3.1,3.5-2.5,6.2c0.2,1,0.3,2.1,0.4,3.2c0.1,1.5-1,2.3-2,2.8c-1.5,0.7-1.7-1.1-1.9-1.8c-1.6-4.8-4.6-8.1-9.4-9.8
			c-0.8-0.3-2.5-0.5-2.1-2c0.3-1.2,1.5-2.3,2.8-1.8c6.8,2.2,10.1-2.3,13.3-6.9c2-2.9,6.7-5.4,5.8-8.6c-0.7-2.3-5.7-3.3-8.9-4.9
			c-3.6-1.8-7.3-3.4-11-5.2c-1.6-0.8-1.9-1.5-0.2-2.8c1.9-1.5,3.8-1.7,6.1-1.2c7.1,1.6,14.3,3.1,21.3,4.8c2.1,0.5,3.6,0.1,5.1-1.3
			c3.6-3.1,7.3-6.1,11.7-8c1.5-0.7,3.3-1.4,4.6-0.2c1.6,1.4,0.6,3.3-0.1,4.9c-1.9,4.1-4.8,7.6-7.9,10.8c-1.8,1.9-2.2,3.8-1.8,6.2
			c1.2,6.2,2.1,12.5,3.5,18.7C443.2,277.8,442.5,280.2,439.6,282.8z"/>
		<path class="st2" d="M101.4,340.6c-10.6,0.2-15.6-4.5-16.1-14.1c-0.4-8.3,1.8-15.8,7.5-22c4.8-5.3,11-7.7,18.2-7.1
			c4.3,0.4,8.1,2.1,9.4,6.5c1.4,4.7,0.5,9.1-3.3,12.6c-4.3,3.9-9.6,5.3-15,6.5c-1.6,0.3-4.8-1-4.7,2.3c0.1,3,1.6,5.4,5,6
			c4.7,0.7,8.7-1,12.6-3.5c0.8-0.5,1.5-1.5,2.4-1.1c1.2,0.5,0.8,1.9,0.9,2.9c0.1,3.2-1.7,5.3-4.1,7
			C110,339.5,105.4,340.7,101.4,340.6z M100.1,315.8c3.2-0.2,6.1-1.1,8.4-3.3c1.9-1.8,3.1-4.1,1.3-6.4c-1.8-2.4-4.3-1.7-6.5-0.2
			c-2.8,1.9-4.1,4.8-5.1,8C97.7,315.6,98.5,316.1,100.1,315.8z"/>
		<path class="st2" d="M223.9,340.6c-9,0.1-14-4.7-14.4-14.3c-0.4-8.9,2.2-16.8,8.7-23.1c4-3.8,8.8-5.7,14.2-6
			c5.7-0.4,10.4,2.2,12,6.4c1.8,4.9,0,10.6-4.6,14c-4.2,3.2-9.1,4.4-14.2,5.4c-1.4,0.3-4.1-0.8-4.1,2c-0.1,2.7,1.2,5.1,4,5.9
			c4.2,1.3,7.9-0.3,11.7-2c1.6-0.7,3.2-3.6,4.6-1.8c1.7,2.2,0.8,5.2-1.1,7.4c-3.3,3.7-7.8,5.3-12.6,5.9
			C226.8,340.6,225.6,340.5,223.9,340.6z M224.4,315.8c3.6-0.6,7.2-1.4,9.4-4.6c1.1-1.6,1.5-3.5,0.1-5.2c-1.4-1.7-3.3-1.7-5.1-0.8
			c-3.7,1.7-5.3,5.1-6.4,8.8C221.8,315.9,223,316,224.4,315.8z"/>
		<path class="st1" d="M432.6,297.7c0.5,0.1,2,0.1,3.4,0.5c2.1,0.6,5.2,0.6,4.2,4c-0.8,2.8-1.7,5.5-6.1,4.4
			c-6.3-1.6-11.1,1.3-13.7,7.3c-1.6,3.7-2.3,7.5-1.7,11.5c0.7,5.3,4,7.5,9.2,6.2c2.5-0.6,4.8-1.8,6.9-3.4c2.6-2,3.2-0.7,3.4,1.7
			c0.2,2.8-1,5-3.2,6.6c-6.1,4.4-12.9,5.7-20,3.7c-6.6-1.9-8.2-7.4-8.7-13.6C405,310.8,416.4,297.7,432.6,297.7z"/>
		<path class="st2" d="M135.7,340.6c-3.2,0-5.8-0.3-8.3-1.6c-2.1-1.1-3.2-2.8-3.1-5.2c0.1-2.9,1.1-4.4,4.3-3.1
			c2.8,1.1,5.7,1.5,8.7,1.3c1.7-0.1,3.3-0.6,3.9-2.4c0.5-1.6-0.5-2.9-1.7-3.8c-2.1-1.7-4.4-3.2-6.5-4.9c-7.1-5.8-6.6-15.9,1.2-20.9
			c5.1-3.2,10.6-3.8,16.3-1.7c2.1,0.8,3.7,1.7,2.7,4.4c-0.9,2.4-2.2,4.1-5.1,3.4c-1.8-0.4-3.6-1-5.6-0.7c-1.5,0.3-2.8,0.9-3.4,2.5
			c-0.5,1.5,0.2,2.7,1.3,3.6c1.5,1.3,3.1,2.6,4.8,3.7c6.9,4.8,8.8,8.5,7.2,14.3c-1.6,5.8-7.3,10.1-14.3,10.7
			C137.1,340.5,136.2,340.5,135.7,340.6z"/>
		<path class="st2" d="M356.5,309.6c2-2.8,3.5-5,5.1-7.1c0.8-1.1,1.8-2,2.9-2.8c3.5-2.7,8.7-3.2,10.5-1.1c1.2,1.5-0.6,8.4-2.6,10.5
			c-0.8,0.9-1.6,0.8-2.5,0.5c-4.2-1.6-6.7,0.7-8.8,3.7c-3.6,5.2-5.2,11.2-6.6,17.3c-1.9,8.3-1.9,8.2-10.4,9.4
			c-3.1,0.4-3.5-0.7-3.1-3.2c1.2-7.3,2.4-14.6,3.5-22c0.6-4,1.1-8,1.1-12.1c0-2.6,0.9-3.7,3.5-4.3c7.8-1.7,7.9-1.7,7.6,6.3
			C356.7,306.1,356.7,307.4,356.5,309.6z"/>
		<path class="st1" d="M398.6,361.2c-0.6,0.2-0.8,0.3-1.1,0.3c-7.7,0.5-7.6,0.5-10.5-6.7c-2-5-3-10.3-3.7-15.6
			c-0.3-2.3,0.4-2.7,2.6-2.4c5.9,0.9,5.9,0.8,6.8,6.9C393.6,349.9,396,355.6,398.6,361.2z"/>
		<path class="st1" d="M406.7,284.5c-6,7.5-9,15.4-11.6,23.5c-0.5,1.6-1.3,1.6-2.8,1.3c-1.8-0.5-3.7-0.6-5.8-0.9
			c1.7-8.1,5-15.5,10.1-22.2C399.2,282.9,402.6,285.4,406.7,284.5z"/>
		<path class="st1" d="M387.9,329.3c-4,0.1-6.2-2.1-6.3-6.1c-0.1-4.6,2.6-7.7,6.9-7.8c3.8-0.1,6.2,2.2,6.4,6.2
			C394.9,326,392.1,329.3,387.9,329.3z"/>
	</g>
</g>
</svg>
