<?xml version="1.0" encoding="utf-8"?>
<!-- Generator: Adobe Illustrator 26.3.1, SVG Export Plug-In . SVG Version: 6.00 Build 0)  -->
<svg version="1.1" id="Layer_1" xmlns="http://www.w3.org/2000/svg" xmlns:xlink="http://www.w3.org/1999/xlink" x="0px" y="0px"
	 viewBox="0 0 595.3 595.3" style="enable-background:new 0 0 595.3 595.3;" xml:space="preserve">
<style type="text/css">
	.st0{fill:#FFFFFF;}
	.st1{fill:#CCBDFC;}
	.st2{fill:#550FED;}
</style>
<path class="st0" d="M297.6,595.3L297.6,595.3C133.3,595.3,0,462,0,297.6l0,0C0,133.3,133.3,0,297.6,0l0,0
	C462,0,595.3,133.3,595.3,297.6l0,0C595.3,462,462,595.3,297.6,595.3z"/>
<g>
	<path class="st1" d="M117.4,115.4c17-1,210.2,1.3,226.4,6.2c73,22.6,118.2,71.4,131.6,146.5c18,99.5-52.2,194.5-152.7,210
		c-9.5,1.5-195.8,1.8-205.3,2.1C117.4,358.5,117.4,237,117.4,115.4z"/>
	<path class="st2" d="M117.4,115.4c17-1,33.7,1.3,49.9,6.2c73,22.6,118.2,71.4,131.6,146.5c18,99.5-52.2,194.5-152.7,210
		c-9.5,1.5-19.3,1.8-29,2.1C117.4,358.5,117.4,237,117.4,115.4z"/>
</g>
</svg>
