<?xml version="1.0" encoding="utf-8"?>
<!-- Generator: Adobe Illustrator 26.3.1, SVG Export Plug-In . SVG Version: 6.00 Build 0)  -->
<svg version="1.1" id="Layer_1" xmlns="http://www.w3.org/2000/svg" xmlns:xlink="http://www.w3.org/1999/xlink" x="0px" y="0px"
	 viewBox="0 0 595.3 595.3" style="enable-background:new 0 0 595.3 595.3;" xml:space="preserve">
<style type="text/css">
	.st0{fill:#FFFFFF;}
	.st1{fill:#013D93;}
	.st2{fill:#E20A16;}
</style>
<path class="st0" d="M297.6,595.3L297.6,595.3C133.3,595.3,0,462,0,297.6l0,0C0,133.3,133.3,0,297.6,0l0,0
	C462,0,595.3,133.3,595.3,297.6l0,0C595.3,462,462,595.3,297.6,595.3z"/>
<g id="fFWRzy.tif">
	<g>
		<path class="st1" d="M228.7,411.1c-9.7,10.5-18.3,20.8-29.2,29.1c-17.4,13.3-36.9,20.8-58.8,21.7c-21.8,0.8-36.2-8.2-45.2-28
			c-9.3-20.3-9.9-41.9-7.6-63.4c4.8-45.2,22.6-83.9,61.7-109.7c29.5-19.5,62-25.1,96.3-14c8.3,2.7,6.7-3.5,7.3-6.8
			c5.6-30.5,10.6-61.2,13.2-92.1c0.5-6.1,2.2-8.9,8.7-9.4c12.6-1.1,25.2-3.1,37.7-4.6c15.2-1.8,16.7-0.5,14.6,15.1
			c-2.5,18.8-5.6,37.6-8.5,56.4c-10.4,68.9-23.6,137.4-30.8,206.7c-1.2,11.3-1.2,22.8-1.2,34.2c0,5.9-2.2,8.6-7.7,9.9
			c-14,3.3-28.1,5-42.4,5.7c-5.8,0.3-7.8-2.4-8.3-7.7c-0.9-9.5-1.8-18.9-0.8-28.5C228.1,420.9,228.3,416,228.7,411.1z M150.6,380
			c0.4,3.6,0.7,9.7,2,15.5c3.6,15.6,14,20.5,28.5,13.8c10.3-4.7,18.6-12,25.9-20.4c21.3-24.5,31.7-53.7,37-85
			c2.3-13.5,1.1-15.4-12-19.4c-20.2-6.1-43.3,2.1-58,21.1C157.5,326.8,151.7,351.4,150.6,380z"/>
		<path class="st1" d="M361.3,172.6c5.6-7,11.5-8.1,19.2-6c14.1,3.7,28.5,6.3,42.6,9.7c6.1,1.5,10.8,0.5,15.5-3.9
			c7.4-6.9,15.7-12.9,25.2-16.7c2.9-1.2,6.2-2.8,8.8,0.2c2.4,2.7,1.5,6,0.2,9c-4,9.5-10.4,17.5-17.4,24.7c-4.6,4.8-5.3,9.5-4.1,15.5
			c2.6,13.4,5,26.8,7.3,40.2c1.6,9.1,1.5,9.1-6,17.9c-6.1-13.3-12.4-25.9-17.6-38.9c-3.2-8-6.3-8.8-12.5-3.1
			c-5.1,4.7-10.7,9.1-16.6,12.7c-8.9,5.4-14.3,12.1-12.2,23.1c0.7,3.5-0.7,6.8-3.9,7.8c-4,1.3-4.4-3-5-5.3
			c-2.8-9.7-8.6-15.8-18.4-18.5c-2.1-0.6-5.8-1.2-5.2-4.4c0.6-2.7,3.2-4.9,6.5-4.5c25.1,3.3,28.8-20.8,41.9-32.8
			c3.5-3.2-1.5-4.6-3.7-5.7c-11.1-5.4-22.4-10.5-33.6-15.7C368.7,176.3,365.1,174.5,361.3,172.6z"/>
		<path class="st1" d="M444.5,368.1c-14.2-0.8-28.4-1.3-42.4-4.9c-5.3-1.3-7.1-2.7-6.5-9.4c2-21.7,13.6-33,34.1-37.2
			c3.3-0.7,6.4-2.4,9.7-3.4c4.3-1.3,4-3.4,1.4-6.1c-1.5-1.5-4.2-3.5-1.5-5.2c3.2-2,7.6-1.9,11-0.1c3.3,1.7,0.4,3.6-1,5
			c-3.3,3.3-2.8,5.2,1.8,6.5c3.9,1.1,7.6,2.9,11.6,3.8c20.6,4.9,32.1,19.4,32.2,40.1c0,4.7-3.2,4.9-6.1,5.7
			C474.2,366.9,459.3,367.4,444.5,368.1z"/>
		<path class="st1" d="M446.6,402.7c-20.2-1.2-39.3-1.2-57.1-9.1c-9.6-4.3-10.6-9.2-4.9-17.9c2.6-4.1,5.2-4.8,10.2-3.4
			c33.4,9.1,67,9.3,100.3-0.1c7.9-2.2,9.5,2.2,12,6.7c2.9,5.2,2.1,9.7-3.3,13c-8.9,5.3-18.9,7.1-29,8.4
			C465,401.6,455.2,402,446.6,402.7z"/>
		<path class="st2" d="M336.2,394.3c10.1-3.5,11.3,2.9,11.9,10.7c1.2,13.7,5.4,26.7,11.5,39c2.8,5.6,1.4,6.7-4.4,7.3
			c-9.1,0.9-14.7-1.7-17.9-10.9c-4.4-12.3-8.3-24.5-10-37.5C326.3,395.4,326.4,390.5,336.2,394.3z"/>
		<path class="st2" d="M379,274.7c-11.8,16.3-19.2,34.3-25.1,53c-1.8,5.7-5.5,1.6-8.5,1.7c-12.3,0.7-10.9-5.6-7.8-13.7
			c4-10.7,9.1-20.8,14.6-30.8C358.2,274,366.3,270.7,379,274.7z"/>
		<path class="st2" d="M353.2,358.7c0.1,10-6.7,17.5-16,17.7c-8.9,0.2-14.8-5.8-14.8-14.9c0-10.3,7.4-18,17-17.8
			C347.7,343.8,353.2,349.9,353.2,358.7z"/>
	</g>
</g>
</svg>
