<svg xmlns="http://www.w3.org/2000/svg" xml:space="preserve" style="enable-background:new 0 0 595.3 595.3" viewBox="0 0 595.3 595.3"><path d="M297.6 595.3C133.3 595.3 0 462 0 297.6 0 133.3 133.3 0 297.6 0 462 0 595.3 133.3 595.3 297.6c0 164.4-133.3 297.7-297.7 297.7" style="fill:#fff"/><path d="M335 218.1c6.2 4.6 10.4 9.6 16.1 14.6 1.2-10.8 5-18.9 17.3-20.3-5.6 7.2-5.8 14-1.8 20.9 1.8 3.2 4.4 5.2 8 6.2 5.4 1.4 9.4-.8 10.6-6.2.6-3 2.2-5.2 5.2-5.8 3.2-.8 4.6 1.6 6 4 2 3.2 4.2 6 4.4 10.2.2 3.4 3.8 5.2 5.8 7.6 1.2 1.4 2 0 2.4-1.2 4-9.2 8.2-18.1 11.8-27.3 1.6-4.4 1.8-9.4-1.2-13.6-1-1.4-14.2 2-15.9 4-.4.4-.8 1-1.2 1.6-3.4 4.2-7.8 4.4-12.4 3.2-3.6-1-.4-2.6.2-4.2-2.2.4-5 2-5.4-1.4-.6-4-2.4-8.8 2-11.8 3.8-2.4 6.6-5.8 10.2-8.2 3.6-2.2 4.6-6.2 6.8-9.4 1-1.4 0-2-1.2-2.6-2.4-1.2-2.6-3.6-2.4-5.8.2-1.2 1-2.4 2.2-1.4 2.8 2.2 3.6.2 4.4-2 .4-1 1-2 1.6-3 1.8-2.8 3.6-4.2 5 .8 2.6-3.4 6.4-3.2 9.4-5.2 1.6-1 3.8-1 3.8 2.4 0 2.2 3.2 2.2 3.4.6.6-5.4 3.2-1.4 4-.8 2.2 2.2 5 3.6 7.8 5 2.6 1.4 4.8 4 8.2-.4 0 4.8-1.4 9 4 9.6-.6 4.6 5.6 5.8 5.4 10.8-.2 2 1.4 5 1.8 7.8.2 1.2 1.2 2.8 2.6 2.6 5-.4 4 2.4 2.6 5-1.2 2.2-1.6 3.8 0 5.8.6.6 1 1.4.4 2.2-3.6 5.2-1.8 10.6-1 15.9.2 1 1 2.6 0 3.2-5.6 3.2-2 7.4-1.2 11 .4 2 1.4 3.6-1.8 3.2-1.8-.2-2.6 1.4-3 2.8-1.4 4.8-1.8 9.6 1 14.2 3.6 5.8 8.2 10.4 14 14.2 9.4 6.2 18.5 12.6 25.5 21.5 8 10.2 8.4 21.1 4.4 32.7-1 2.6-1.4 5-1 8 1 8.6-.2 16.7-5.6 24.1-3.4 4.8-6.8 9.6-8.6 15.2-2.4 6.8-.2 12.8 3.6 19.3-3.8-1.4-4.6-.2-5.4 2.8-1.8 7.4-6.8 10.8-15.4 10.8 7.8-6.2 8.2-13.8 5.2-22.5-1.8 2.8.6 5.2-.4 7.4-4.6-2-6.8-7-6.2-12.8 1.2-12.2 9.6-19.5 17.9-26.7 3-2.4 5.6-5 6.6-8.8.2-1 .6-2-.4-2.8-.8-.6-1.6 0-2.2.4-7.2 4.6-15.6 4.6-23.5 5.2-8.6.6-10.8 2.2-13 10.4-3.8 13.2-3.8 13.2-17.1 13-6 0-12 0-17.9 1.4-2.4.6-4.4 1.4-5.6 4.2-5.6 13.2-16.3 18.5-29.9 18.7-13.6.4-24.9-5-31.3-17.5-2-3.8-2.8-4.2-5.4-.6-8 10.6-19.1 17.3-30.9 23.3-6.2 3.2-8.4 9.8-6 16.5 2 5.8 9.8 9.6 16.5 8.2 7-1.6 11.8-7.4 11-14-.4-4.2-2.6-6.8-7.6-6.8.6 2.4 3.2 3.8 2.2 6.4-1 2.4-2.6 3.8-5 4-2.8.4-5-1-6.4-3.6-2.4-4.8 0-10.4 5.2-12.4 6-2.2 13.2.2 16.7 5.6 7.8 12.2.6 28.7-14 31.5-12.2 2.4-23.5.6-31.3-10.6-2.4-3.4-3.2-.8-4.4.8-9.8 13-31.9 14.6-42.3 2.8-5.6-6.4-7.2-13.8-3.8-21.7 3.2-7.4 12-11 19.1-7.8 3.8 1.8 5.6 5 5 9.2-.4 3-1.8 5.2-5 6-2.2.6-4.2 0-5.8-1.6-2.2-2.4-1.6-4.8.8-7.6-4-.2-6 1.4-6.8 4.2-1 3.2-.8 6.4.8 9.4 3.6 6.2 11.4 7.8 18.9 4 6.4-3.2 9.2-10 6.8-16.3-1-2.6-2.6-4.6-5-5.8-6.8-3.4-13.2-7-19.1-11.6-5.8-4.4-11.2-9.6-15.6-16.5-4.6 11-11.6 17.9-22.5 20.7-8 2-16.1 2.2-23.9-.8-7.8-3-13.6-8.2-17.1-15.8-3.4-7.6-1.8-15.2.6-22.5-.6-.4-.8-.6-.8-.4-6.2 4.2-11.8 1.8-17.3-1.6-6.4-3.8-13.4-5-20.7-3.6-3 .6-4.6-1-5.2-3.6 0-.2-.2-.4-.2-.4 0-13-7.8-19.5-18.9-23.7-2.6-1-5.2-2.8-7.4-4.8-3.4-3-5.6-1.6-7.4 1.6-3.4 5.6-2.8 12 2.2 17.5 3.4 3.8 7 7.2 10.6 10.8 5.8 5.8 9.4 12.8 11 20.9 1.2 7.2-.6 13.4-6.8 17.5-3.4 2.4-5.4 5.4-6.8 9.2-3.2 8.4-13 12.6-20.3 8.8-1.2-.6-3-1.2-3-3 0-1.6 1.8-1.6 3-2 3-1 4-3.6 5-6.2 2.2-6.2 5.8-9.8 13-9.6 4.6.2 7.6-3.4 8.2-8.2.8-6.6-1.6-12.2-6.2-16.7-5.8-5.6-11.8-11.2-17.7-16.7-6-5.4-7.4-12-4.8-19.5 2.2-6.4 5.6-12.2 9.8-17.3 1.8-2.2 2.6-4.4 2.6-7.2.2-13.4 5.2-24.7 14.4-34.3 4.6-4.8 9.2-9.6 14.4-13.8 4.4-3.6 8.4-7.6 6-14.2-.4-1.2.2-2.8.4-4.2-1.2-.4-1.8.2-2.2.8-.8 1.2-.2 4.2-3.2 3-2.2-.8-3.6-3-3.2-5 .8-3.2.4-6.8 2.8-9.6-1.4-1-2.6 0-3.8.2-3.2.4-5.8-1-6.4-4-.4-2-3.2-5.4 2-7 1.4-.4 3.2-6.6 1.4-10.4-2-4.4-1.8-8.2 2.6-11.2 1-.8 1.2-1.6.6-2.8-2.2-4-.4-8.2 2.8-9.6 5.2-2.2 7.8-6.2 11.4-9.8 3.2-3.4 8.2-3.4 11.8-6.4 1.6-1.4 4.6-.2 6.6 1.8 2.8 3 5.6 2.6 8.4-.2 3.4-3.4 4.6-3 6 1.6 2.4 0 3.6-4.6 6.6-1.8 1.4 1.4 3.8 2 3.8 4.2s-2.6 1.2-3.8 2c.4 2.4 5.4 4 .4 6.6-1.6.8.6 2.4 1.6 2.6 8 2.6 10.6 11.8 18.1 15 2.6 1 1.2 3.4.6 5.6-1.8 5.4-4.4 7.4-9.8 7-1.2 0-2.2.4-2.8 1.4-.4 1-.6 2 .2 2.8 1 1 1.6-.2 2.4-.4 2.8-1 3.8.6 3.2 3-.4 1.6-1 3.6-2.2 4.2-3.8 2.2-3 5.6-3 8.8 0 3.8 1.2 7 3.8 9.8 3 3.2 6.8 2.6 10.6 2.2 2.2-.2 4-.4 6 .8 5.6 3.4 14 1.2 17.5-4.4 4.2-6.6 4-13.2-.6-20.9 8.6-.8 13 4 17.1 19.3 2.6-2.6 5-5 7.4-7.2 2.6-2.4 5.2-4.4 8.6-7.4-12.4-2.6-20.3-11.2-29.3-18.1-4.2-3.2-9.4-4.4-15.2-6 5.4-3.6 10.6-4.2 15.8-2.4 4.2 1.6 6 .6 6.2-3.8 0-.8.6-1.4 1-2 1.6.6 1.6 1.8 2 2.8 1 2 1.8 4.6 4 4.6 2.6.2 1.8-3 2.6-4.4 2.2-4.4 7.2-7 11.8-5.8 4.2 1 7 3.6 7 8.2 0 2.6-1 4.8-3.6 5.8-1.8.6-3.6.6-5-.8-2-2-1.6-4 0-6.2 1.6-2.4-.4-2.4-1.8-2.2-3.6.6-4.2 3.4-3.4 6.4 1.4 5.8 5.8 8.8 11.2 9.8 17.5 3.2 28.7-9.4 27.5-25.7-.2-2.6-.4-5.2-1.8-7.6-2.2-4-5.8-5.8-10.2-5-3.4.6-5.4 3-5.8 6.4-.4 4.6 1.8 7.4 5.8 9.2.8.4 1.4.6 2.4.8-5 3.6-11.8 1.6-14.8-3.8-3.2-5.8-1.6-14.2 3.2-18.3 5.2-4.4 14.6-4.8 19.9-.6 2.4 1.8 4.4 4 5.8 6.6 1.8 3.4 2.8 4.2 5.4.4 4.4-6.2 10-10.6 18.3-10 10.8.8 17.1 11.6 12.2 21.3-2.8 5.6-9.4 7.6-15.8 4.4 4.6-1.2 8.4-2.8 8.8-8 .4-6.2-4.2-9.8-10-8.2-6 1.6-8 6.4-8.8 11.8-1.2 9.2 1.4 17.1 9.2 22.7 7.2 5.2 16.9 5.4 23.9 1 3.4-2.2 5.4-5 5.2-9.4-.2-2.2-1.2-3.8-3.4-4.2-.8-.2-1.8-.2-2.2.6-.2.4 0 1.2.4 1.8 1.6 2.2 1.8 4.2-.2 6.2-1.2 1.2-2.8 1.4-4.6.8-2.6-1-3.6-3-3.8-5.8-.2-4 1.4-6.6 5.2-8 4.2-1.6 9.4 0 12.4 3.6 1.6 2 1.2 6.2 3.8 6.2 2.8.2 3-3.8 4.4-5.8 1.8-2.4 2.6.2 2.8 1.2.2 4.8 2.6 4.2 5.8 3.2 5.2-1.6 10.2-1.4 15.9 2.8-13.2 1.6-20.7 10.2-29.5 16.9-5.2 3.8-10.2 5.7-16.4 7.3m-38.1 172.3c11.2.4 21.5-2.8 30.3-9.4 27.7-20.7 36.5-49.8 35.1-82.9-.2-6.6-.8-6.6-6.6-3.6-21.7 11.2-43.7 22.5-65.4 33.7-14.4 7.4-28.9 15-43.3 22.5-2.4 1.2-4.8 2.4-2.8 5.8 12.1 19.9 28.4 33.1 52.7 33.9m-65.4-95.5c-.2 12.6 0 12.8 5.4 10 25.5-13.2 51-26.5 76.6-39.7 9.2-4.8 18.1-9.4 27.3-14.2 5.2-2.8 5.2-3.4 1.4-7.8-2.2-2.4-4.4-4.8-6.8-7-20.3-19.7-49.4-21.7-72-4.2-21.5 16.8-29.9 40.4-31.9 62.9m-21.7 79.9c-.4-1.8 1.2-2.6 1.8-3.8 2.8-4.6 2.6-9.6-.2-13.4-2.6-3.2-9-5-13.4-3.6-5.2 1.6-7.4 5.6-8.4 10.6-1 5.8 1 10.6 5.8 14 9 6.4 24.3 3.6 30.9-6 3.6-5.2 6-11.4 3.8-16.9-4-10-6.8-20.3-8.8-30.9-1.4-7-10.8-13.4-17.7-12.6-3.8.6-6.2 2.8-6.4 6.8-.2 4.2 1.4 7 5.8 7.8 1.2.2 2.6-.4 3.6 1-.6 2.4-2.8 3-4.6 3.8-10.2 3.8-20.1-1.6-22.7-12.6-1.2-4.8-2.2-5.2-6-2-.6.6-1.2 1-1.6 1.8-2.8 4.4-6.6 4.2-10.8 2.2-2-.8-3.8-2-5.8-2.4-2-.6-4-.2-2.6 2.6 2.2 4.6 2 9.6 2 14.4 0 1.8 0 3.6 1.6 4.8 6 5.2 18.5 5.4 24.7.4 1.4-1.2 2.8-2.2 4.2-3.2 2.4-1.8 5.2-1.6 6.2 1 2.4 6 7.2 5.8 12.4 5.8 10 0 16.5 6.2 17.7 15.8.9 7.5-4.9 14.8-11.5 14.6m177.4-47.6c1.4-.2 2.2-.4 3-.4 5-.6 8-3.4 7.8-7.6-.4-4.6-3.6-7.2-8.8-7-7.2.2-14.8 7-15.9 14.2-1.4 9.2-3.8 18.1-7.6 26.5-1.2 2.4-1.4 5-1.2 7.6 1 14.4 14.4 24.5 28.5 21.3 11.2-2.4 16.1-13 10.8-22.3-3.2-5.4-11.4-7.4-16.7-4-5.2 3.2-6.6 10.6-3.2 15.9.8 1.2 2.4 1.8 1.8 3.8-3 .8-5-.8-7-2.6-6.6-6.4-5.6-18.5 2-24.1 9.6-7.2 25.1-4.8 32.1 5.2 2.2 3.2 4.4 5.8 7.6 8 4.2 2.8 16.9 1.2 19.7-2.8 1.2-1.6 1.2-3.2 0-5-2.4 3.6-4 4-7.4 1.6-1-.8-2-1.8-2.6-2.8-4.6-6.6-9.8-12.6-16.3-17.3-1.4-1-2.6-2.2-3-3.8-.8-3.4-2.2-2.4-4.4-1.2-7.6 3.6-12.6 2.8-19.2-3.2m67-15.6c-1.2-1.8-3-1.8-4.4-2.2-15-4-27.3-11.6-36.3-24.7-.6-.8-1.2-1.8-2-2-9-1.4-10.6-8.2-12.2-15.6-.8-4-1.6-8.2-5.8-12 .4 2.6.6 4.2 1 5.8 2 5.8 2.8 11.4 2.8 17.5 0 7 1.2 14.4 8.6 18.5 1.6 1 3 2.6 3.8 4.4 4.4 8 5.6 17.3 9.8 25.5 1 2 6.6 9 8 8.4 3-1 1.8-4.4 3-6.6.4-.8.6-1.8 1-2.8 2.4-8 7.2-12.8 15.8-13.6 2.4.2 4.5-.2 6.9-.6M146 286.1c5.2 2.2 9.6 4.2 13.2 7.4 10.8 9.4 11.2 11.6 24.9-1 3.2-3 6.6-6.8 7-12 0-1.2 0-2.8-1.2-3.6-1.4-1-2.4.6-3.4 1.2-6.6 4.4-9 4.2-13.2-2.4-1-1.6-1.8-2.2-3.4-1.4-7.7 3.9-15.3 7.6-23.9 11.8" style="fill:#ac9772"/></svg>