<?xml version="1.0" encoding="utf-8"?>
<!-- Generator: Adobe Illustrator 26.3.1, SVG Export Plug-In . SVG Version: 6.00 Build 0)  -->
<svg version="1.1" id="Layer_1" xmlns="http://www.w3.org/2000/svg" xmlns:xlink="http://www.w3.org/1999/xlink" x="0px" y="0px"
	 viewBox="0 0 595.3 595.3" style="enable-background:new 0 0 595.3 595.3;" xml:space="preserve">
<style type="text/css">
	.st0{fill:#FFFFFF;}
	.st1{fill:#1D1D1B;}
	.st2{fill:#AC9772;}
</style>
<path class="st0" d="M297.6,595.3L297.6,595.3C133.3,595.3,0,462,0,297.6l0,0C0,133.3,133.3,0,297.6,0l0,0
	C462,0,595.3,133.3,595.3,297.6l0,0C595.3,462,462,595.3,297.6,595.3z"/>
<g id="WqEdzU.tif_00000088097459965916417700000012894273028918783112_">
	<g>
		<path class="st1" d="M252.6,476c-5.5-3.3-5.9-7.2-1.2-11.6c0.9-0.8,0.9-1.4,0.3-2.3c-1.5-2.3-2.3-4.8-0.3-7.2c2.1-2.5,5-2.8,8-2
			c3.5,0.9,4.8,4.5,2.7,7.5c-0.5,0.7-1.2,1.3-1.9,1.9c-2.6,2.1-2.7,2.1-0.3,4.5c0.8,0.8,1.5,2.5,2.7,2.1c1.1-0.4,1-2.1,1.1-3.3
			c0.1-1.3,0.5-2.3,2-2.2c1.6,0.2,1.5,1.4,1.3,2.6c-0.2,1.1-0.3,2.4-0.9,3.3c-1.4,2.1-0.3,3.1,1.5,3.9c1.5,0.6,1.7,1.6,1.1,2.9
			C263.4,476,258,476,252.6,476z M256.6,473.4c0.3-0.1,0.8-0.1,1.4-0.3c2.4-0.7,2.5-1.2,0.8-2.9c-0.8-0.8-1.6-1.7-2.4-2.4
			c-0.8-0.7-1.3-2.3-2.7-1.3c-1.3,0.9-1.9,2.2-1.7,3.8C252.2,472.2,254,473.4,256.6,473.4z M256.7,455.5c-1.8,0-3.1,1.1-2.9,2.5
			c0.2,1.4,0.5,3,2.3,3.3c1.2,0.2,3.5-2.3,3.4-3.6C259.5,456,258.3,455.5,256.7,455.5z"/>
		<path class="st1" d="M172.9,476c-0.5-0.8-0.5-1.7-0.5-2.6c0-5.5,0-11.1,0-16.6c0-1.3-0.1-2.8,1.6-3.1c1.8-0.4,3.2,0.1,4.1,1.8
			c2.2,4.1,4.4,8.2,6.6,12.3c0.3,0.5,0.6,1.1,1.3,2.2c0-4.6,0-8.4,0-12.2c0-0.8,0-1.6,0-2.4c0-1.2,0.6-1.8,1.8-1.8
			c1.1,0,1.7,0.7,1.7,1.7c0,6.3,0,12.6,0,18.8c0,0.8-0.5,1.4-1,1.9c-0.8,0-1.6,0-2.4,0c-1.7-1.1-2.4-2.9-3.3-4.5
			c-2.2-4.1-4.4-8.1-6.5-12.2c-0.4,4.5-0.4,9-0.4,13.4c0,1.1,0.2,2.3-0.6,3.3C174.5,476,173.7,476,172.9,476z"/>
		<path class="st1" d="M425.9,476c-7.2-3.4-9-14.6-3.3-20.1c3.1-3,6.9-3,10.8-2c3.7,1,5.3,3.8,5.9,7.4c0.3,1.8,0.4,3.5,0.2,5.3
			c-0.5,4.4-2.5,7.7-6.7,9.4C430.5,476,428.2,476,425.9,476z M423.1,464.6c0,1.4,0.1,2.7,0.4,4c0.9,3.2,2.6,4.5,6,4.5
			c3.1,0,5.1-1.5,5.9-4.4c0.7-2.6,0.7-5.3,0-7.9c-0.7-2.7-2.5-4.1-5.2-4.3c-3.2-0.2-5.2,0.9-6.3,3.5
			C423.3,461.5,423,463.1,423.1,464.6z"/>
		<path class="st1" d="M108.7,476c-0.7-0.8-0.6-1.8-0.6-2.8c0-5.5,0.1-11.1,0-16.6c-0.1-2.4,0.9-3.2,3.2-3.1c1.8,0.1,3.6,0,5.4,0.3
			c4.6,1,6.3,4.7,3.9,8.8c-0.5,0.8-0.7,1.2,0.1,2c4.2,4.4,2.9,9.1-2.8,11.1c-0.2,0.1-0.4,0.2-0.7,0.3C114.3,476,111.5,476,108.7,476
			z M111.4,468.9c0,4.1,0,4.1,2.8,4.1c3.5,0,5.1-1.1,5.1-3.5c0-2.4-1.7-3.5-5.3-3.7C111,465.6,111.2,467.4,111.4,468.9z
			 M111.4,460.3c0.1,1.1-0.6,3,2.2,2.9c2.8-0.1,4.4-1.2,4.4-3.5c0-2.2-1.2-3-4.2-3.2C110.9,456.4,111.3,458.2,111.4,460.3z"/>
		<path class="st1" d="M357.4,476c-0.6-0.8-0.6-1.7-0.6-2.6c0-5.6,0.1-11.2,0-16.8c0-2.3,1-3.2,3.2-3.2c2,0.1,4.1-0.1,6.1,0.4
			c2.3,0.6,4,1.9,4.5,4.3c0.5,2.4,0,4.6-2.2,6c-1.2,0.8-0.8,1.2-0.2,2.2c1.7,3,3.7,5.9,3.5,9.6c-1,0-2,0-2.9,0
			c-0.4-0.9-0.7-1.8-1.1-2.7c-0.9-2-1.3-4.2-2.8-5.9c-0.9-1-2-1.3-3.3-1c-1.5,0.4-0.9,1.7-1,2.6c-0.2,2.3,0.5,4.7-0.6,6.9
			C359,476,358.2,476,357.4,476z M362.6,456.6c-1.5-0.4-2.6,0.4-2.2,2.4c0.3,1.6-1.3,4.3,2.2,4.3c2.8,0.1,4.4-1.2,4.4-3.4
			C367,457.8,365.6,456.6,362.6,456.6z"/>
		<path class="st1" d="M400,476c-0.6-0.7-0.6-1.7-0.6-2.6c0-5.7,0-11.4,0-17.1c0-1.3-0.1-2.8,1.8-2.8c2,0,1.7,1.6,1.8,2.9
			c0,0.2,0,0.3,0,0.5c0.2,1.8-0.9,4.4,0.6,5.3c2.1,1.3,4.9,0.5,7.4,0.4c1.2-0.1,1.2-1.2,1.2-2.1c0-1.8,0-3.6,0.1-5.4
			c0-1,0.6-1.7,1.7-1.7c1.1,0,1.7,0.5,1.7,1.6c0,6.6,0,13.2-0.1,19.8c0,0.4-0.3,0.7-0.5,1.1c-0.8,0-1.6,0-2.4,0
			c-0.6-1.1-0.5-2.4-0.5-3.6c0-6.7,0-6.7-6.7-6.6c-1.9,0-2.6,0.6-2.6,2.5c0,2.6,0.6,5.2-0.5,7.7C401.6,476,400.8,476,400,476z"/>
		<path class="st1" d="M131.7,476c-3.9-1.5-5.3-4.6-5.4-8.5c-0.1-3.8,0-7.7,0-11.5c0-1.3,0.2-2.5,1.9-2.5c1.6,0.1,1.6,1.3,1.6,2.5
			c0,3.9,0,7.8,0,11.7c0.1,3,1.3,4.7,3.8,5.3c3.5,0.9,6.1-0.9,6.2-4.6c0.1-3.7,0-7.3,0.1-11c0-0.7,0-1.5,0-2.2
			c0.1-1.2,0.7-1.8,1.9-1.8c1.1,0,1.6,0.7,1.6,1.7c0,4.6,0.1,9.1-0.1,13.7c-0.2,3.4-2.3,5.6-5.3,7C136,476,133.9,476,131.7,476z"/>
		<path class="st1" d="M340.3,476c-3.9-1.5-5.4-4.5-5.4-8.4c0-3.7,0-7.5,0-11.2c0-1.3-0.1-2.8,1.9-2.8c2,0.1,1.7,1.6,1.7,2.9
			c0,3.9-0.1,7.8,0.1,11.7c0.1,3.9,3.2,6,6.7,4.8c2.4-0.8,3.2-2.6,3.3-4.9c0.1-3.9,0-7.8,0-11.7c0-1.3-0.1-2.8,1.8-2.8
			c2,0,1.7,1.6,1.7,2.9c0,3.3,0,6.7,0,10c0,4.2-1.4,7.7-5.4,9.6C344.5,476,342.4,476,340.3,476z"/>
		<path class="st1" d="M295.2,476c-0.8-0.8-1-1.8-1-2.9c0-5.5,0-10.9,0-16.4c0-2.3,0.9-3.3,3.2-3.2c2.3,0.1,4.6,0,6.8,0
			c1.1,0,2.5-0.2,2.6,1.5c0,1.7-1.3,1.6-2.5,1.6c-1.5,0-2.9,0.1-4.4,0c-1.6-0.1-2.1,0.5-2.2,2.1c-0.1,4.1-0.2,4,3.9,4.1
			c1.4,0,3.7-0.9,3.8,1.4c0.1,2.6-2.4,1.3-3.8,1.6c-1.2,0.3-3-0.6-3.6,0.7c-0.7,1.7-0.4,3.7-0.1,5.5c0.1,0.9,1.1,0.9,1.8,0.9
			c1.6,0,3.3,0,4.9,0c2.5,0.1,2.8,0.6,1.8,3C302.7,476,299,476,295.2,476z"/>
		<path class="st1" d="M195.4,476c-1-0.8-1-2-1-3.1c0-5.4,0-10.7,0-16.1c0-2.7,0.5-3.2,3.3-3.3c2.4,0,4.9,0,7.3,0
			c1.1,0,2,0.4,1.9,1.7c-0.1,1.2-1,1.3-1.9,1.4c-1.6,0-3.3,0.1-4.9,0c-1.6-0.1-2.1,0.6-2.2,2.1c-0.1,4-0.1,4,3.9,4.1
			c1.4,0,3.7-0.8,3.7,1.4c0,2.4-2.3,1.3-3.7,1.6c-1.3,0.3-3.1-0.8-3.7,0.9c-0.6,1.7-0.4,3.7,0,5.5c0.2,0.8,1,0.8,1.6,0.8
			c1.6,0,3.3,0,4.9,0c2.5,0.1,2.8,0.6,2,3C202.9,476,199.1,476,195.4,476z"/>
		<path class="st1" d="M376,476c-0.6-0.8-0.6-1.8-0.6-2.8c0-5.5,0.1-11.1,0-16.6c0-2.2,0.7-3.2,3-3.1c2.5,0.1,5.1,0,7.6,0.1
			c0.9,0,1.9,0.2,1.9,1.4c0,1.4-0.9,1.6-2,1.6c-1.4,0-2.8,0.1-4.2,0c-2.5-0.3-2.8,1.1-2.8,3.1c0,2,0.2,3.4,2.8,3.2
			c1.2-0.1,2.4,0,3.7,0.1c0.8,0.1,1.4,0.6,1.3,1.4c0,0.9-0.6,1.4-1.4,1.4c-1.5,0.1-2.9,0.1-4.4,0.1c-1.3,0-1.8,0.6-1.9,1.9
			c-0.4,5-0.3,5.3,4.7,5.3c0.5,0,1,0,1.5,0c2.3-0.2,3.2,0.7,2.6,3C383.8,476,379.9,476,376,476z"/>
		<path class="st1" d="M459.7,476c-0.6-0.7-0.7-1.6-0.7-2.5c0-5.7,0.1-11.4,0-17.1c0-2.1,0.8-3,2.9-2.9c2.5,0.1,5,0,7.6,0
			c0.9,0,1.9,0.2,1.9,1.4c0.1,1.3-0.9,1.6-1.9,1.6c-1.8,0-3.6,0-5.4,0c-1.2,0-1.7,0.5-1.8,1.8c-0.3,4.2-0.2,4.4,4,4.5
			c1.3,0,3.7-0.9,3.7,1.5c0,2.4-2.3,1.3-3.6,1.5c-0.7,0.1-1.5,0.1-2.2,0c-1.4-0.1-1.8,0.6-1.9,1.9c-0.3,5.2-0.3,5.2,4.9,5.2
			c0.7,0,1.3,0,2,0c2.5,0.1,2.8,0.6,1.8,3C467.2,476,463.4,476,459.7,476z"/>
		<path class="st1" d="M212,476c-0.5-0.3-1-0.5-1.5-0.8c-1.1-0.6-1.9-1.5-1.3-2.8c0.7-1.6,1.8-0.3,2.7,0c1.6,0.6,3.2,1.1,5,0.6
			c1.3-0.4,2.2-1.1,2.4-2.5c0.2-1.3-0.2-2.5-1.4-3.2c-1.4-0.8-2.9-1.5-4.3-2.3c-3.9-2.1-5.2-5.9-3-9.1c1.8-2.7,7.5-3.6,10.2-1.6
			c0.9,0.7,1.3,1.5,0.8,2.5c-0.6,1.1-1.4,0.4-2.1,0.1c-1.1-0.4-2.1-1-3.3-0.8c-1.3,0.1-2.4,0.6-2.8,1.9c-0.4,1.4,0.1,2.6,1.3,3.4
			c1,0.7,2.1,1.2,3.2,1.7c2.5,1.3,4.9,2.6,5.1,5.9c0.2,3.5-1.8,5.4-4.6,6.8C216.3,476,214.1,476,212,476z"/>
		<path class="st1" d="M320.7,476c-0.4-0.2-0.9-0.5-1.3-0.7c-1.2-0.6-2.2-1.5-1.5-2.9c0.7-1.6,1.8-0.3,2.7,0.1
			c1.4,0.5,2.8,0.9,4.3,0.7c1.5-0.2,2.7-0.8,3-2.4c0.3-1.6-0.3-2.9-1.7-3.7c-1.3-0.7-2.6-1.3-3.9-2c-3.9-2.1-5.1-5.9-3-9.1
			c1.8-2.7,7.5-3.5,10.2-1.5c0.9,0.7,1.3,1.5,0.7,2.5c-0.6,1-1.4,0.3-2.1,0.1c-1.1-0.4-2.1-1-3.3-0.8c-1.3,0.1-2.4,0.6-2.8,2
			c-0.4,1.5,0.1,2.6,1.3,3.4c1,0.7,2.1,1.2,3.2,1.7c2.5,1.3,4.9,2.6,5.1,6c0.2,3.5-1.8,5.4-4.6,6.8C324.9,476,322.8,476,320.7,476z"
			/>
		<path class="st1" d="M227.7,476c-0.5-0.3-1-0.5-1.5-0.8c-1.2-0.6-1.9-1.5-1.4-2.8c0.7-1.6,1.8-0.4,2.6-0.1c1.6,0.6,3.3,1,5,0.6
			c1.2-0.3,2-1,2.3-2.2c0.3-1.2,0-2.3-1-3.1c-1.4-1.2-3.1-1.7-4.7-2.6c-2.1-1.2-3.7-2.6-4-5.2c-0.2-2.5,1-4.7,3.2-5.8
			c2.3-1.1,6.8-0.9,8.2,0.5c0.7,0.7,1,1.6,0.4,2.4c-0.5,0.9-1.3,0.3-1.9,0.1c-0.9-0.3-1.8-0.7-2.8-0.8c-1.4-0.1-2.7,0.2-3.3,1.6
			c-0.6,1.4-0.2,2.8,1.1,3.6c1.8,1.1,3.8,1.9,5.5,3.1c3.9,2.5,3.8,7.8,0,10.5c-0.5,0.4-1.1,0.7-1.7,1C231.9,476,229.8,476,227.7,476
			z"/>
		<path class="st1" d="M149.9,476c-0.4-0.2-0.7-0.4-1.1-0.5c-1.3-0.6-2.4-1.5-1.8-3c0.8-1.8,1.9-0.3,2.8,0c1.3,0.4,2.5,0.8,3.8,0.6
			c1.5-0.2,2.9-0.7,3.3-2.4c0.4-1.7-0.4-2.9-1.8-3.7c-1.4-0.8-2.9-1.5-4.3-2.3c-2-1.2-3.5-2.7-3.6-5.2c-0.1-2.5,0.9-4.4,3.2-5.6
			c2.3-1.1,6.7-0.9,8.2,0.5c0.8,0.7,0.9,1.6,0.4,2.4c-0.5,0.9-1.3,0.3-1.9,0.1c-0.9-0.3-1.8-0.7-2.8-0.8c-1.4-0.1-2.7,0.2-3.3,1.6
			c-0.6,1.4-0.2,2.8,1.1,3.6c1.7,1.1,3.6,1.9,5.3,3c4.1,2.5,4.2,7.9,0.2,10.6c-0.5,0.4-1.1,0.7-1.6,1C154.1,476,152,476,149.9,476z"
			/>
		<path class="st1" d="M447,476c-0.7-0.9-0.6-2-0.6-3.1c0-4.6-0.1-9.3,0-13.9c0-1.9-0.7-2.7-2.6-2.5c-0.6,0.1-1.1,0-1.7,0
			c-1,0-2.3,0.1-2.3-1.4c0-1.6,1.3-1.6,2.5-1.6c4,0,8,0,12,0c0.2,0,0.5,0,0.7,0c0.9,0.1,1.5,0.5,1.5,1.5c0,1-0.6,1.5-1.5,1.5
			c-0.2,0-0.3,0-0.5,0c-4.5,0.3-4.5,0.3-4.5,4.9c0,3.8,0,7.6,0,11.5c0,1.1,0.1,2.1-0.6,3.1C448.6,476,447.8,476,447,476z"/>
		<path class="st1" d="M476.3,476c-0.8-0.8-1-1.8-1-2.9c0-5.6,0-11.2,0-16.8c0-1.3,0-2.8,1.9-2.7c1.8,0,1.7,1.4,1.7,2.6
			c0,4.7,0.1,9.4,0,14.1c0,2,0.5,2.8,2.6,2.7c1.9-0.1,3.7,0,5.6,0.1c0.6,2.5-0.4,3.3-2.9,3C481.6,475.8,478.9,476,476.3,476z"/>
		<path class="st1" d="M281,476c-0.8-0.8-1-1.8-1-2.9c0-5.6,0-11.2,0-16.8c0-1.3,0-2.8,1.9-2.7c1.8,0.1,1.7,1.5,1.7,2.7
			c0,4.7,0.1,9.4,0,14.1c-0.1,2.1,0.7,2.8,2.7,2.6c1-0.1,2,0.1,2.9,0c2.3-0.2,3.1,0.8,2.6,3.1C288.2,476,284.6,476,281,476z"/>
		<path class="st1" d="M164.5,476c-0.6-0.8-0.6-1.7-0.6-2.6c0-5.7,0-11.4,0-17.1c0-1.3-0.1-2.8,1.8-2.8c1.9,0,1.8,1.5,1.8,2.8
			c0,5.7,0,11.4,0,17.1c0,0.9,0,1.8-0.6,2.6C166.2,476,165.4,476,164.5,476z"/>
		<path class="st1" d="M311.4,476c-0.5-0.8-0.5-1.7-0.5-2.6c0-5.7,0-11.4,0-17.1c0-1.3-0.1-2.8,1.8-2.8c2,0,1.7,1.6,1.7,2.8
			c0,5.6,0,11.2,0,16.8c0,1,0.1,2-0.6,2.8C313,476,312.2,476,311.4,476z"/>
		<path class="st2" d="M320.3,150.4c3.1,2.3,5.2,4.8,8.1,7.3c0.6-5.4,2.5-9.5,8.7-10.2c-2.8,3.6-2.9,7-0.9,10.5
			c0.9,1.6,2.2,2.6,4,3.1c2.7,0.7,4.7-0.4,5.3-3.1c0.3-1.5,1.1-2.6,2.6-2.9c1.6-0.4,2.3,0.8,3,2c1,1.6,2.1,3,2.2,5.1
			c0.1,1.7,1.9,2.6,2.9,3.8c0.6,0.7,1,0,1.2-0.6c2-4.6,4.1-9.1,5.9-13.7c0.8-2.2,0.9-4.7-0.6-6.8c-0.5-0.7-7.1,1-8,2
			c-0.2,0.2-0.4,0.5-0.6,0.8c-1.7,2.1-3.9,2.2-6.2,1.6c-1.8-0.5-0.2-1.3,0.1-2.1c-1.1,0.2-2.5,1-2.7-0.7c-0.3-2-1.2-4.4,1-5.9
			c1.9-1.2,3.3-2.9,5.1-4.1c1.8-1.1,2.3-3.1,3.4-4.7c0.5-0.7,0-1-0.6-1.3c-1.2-0.6-1.3-1.8-1.2-2.9c0.1-0.6,0.5-1.2,1.1-0.7
			c1.4,1.1,1.8,0.1,2.2-1c0.2-0.5,0.5-1,0.8-1.5c0.9-1.4,1.8-2.1,2.5,0.4c1.3-1.7,3.2-1.6,4.7-2.6c0.8-0.5,1.9-0.5,1.9,1.2
			c0,1.1,1.6,1.1,1.7,0.3c0.3-2.7,1.6-0.7,2-0.4c1.1,1.1,2.5,1.8,3.9,2.5c1.3,0.7,2.4,2,4.1-0.2c0,2.4-0.7,4.5,2,4.8
			c-0.3,2.3,2.8,2.9,2.7,5.4c-0.1,1,0.7,2.5,0.9,3.9c0.1,0.6,0.6,1.4,1.3,1.3c2.5-0.2,2,1.2,1.3,2.5c-0.6,1.1-0.8,1.9,0,2.9
			c0.3,0.3,0.5,0.7,0.2,1.1c-1.8,2.6-0.9,5.3-0.5,8c0.1,0.5,0.5,1.3,0,1.6c-2.8,1.6-1,3.7-0.6,5.5c0.2,1,0.7,1.8-0.9,1.6
			c-0.9-0.1-1.3,0.7-1.5,1.4c-0.7,2.4-0.9,4.8,0.5,7.1c1.8,2.9,4.1,5.2,7,7.1c4.7,3.1,9.3,6.3,12.8,10.8c4,5.1,4.2,10.6,2.2,16.4
			c-0.5,1.3-0.7,2.5-0.5,4c0.5,4.3-0.1,8.4-2.8,12.1c-1.7,2.4-3.4,4.8-4.3,7.6c-1.2,3.4-0.1,6.4,1.8,9.7c-1.9-0.7-2.3-0.1-2.7,1.4
			c-0.9,3.7-3.4,5.4-7.7,5.4c3.9-3.1,4.1-6.9,2.6-11.3c-0.9,1.4,0.3,2.6-0.2,3.7c-2.3-1-3.4-3.5-3.1-6.4c0.6-6.1,4.8-9.8,9-13.4
			c1.5-1.2,2.8-2.5,3.3-4.4c0.1-0.5,0.3-1-0.2-1.4c-0.4-0.3-0.8,0-1.1,0.2c-3.6,2.3-7.8,2.3-11.8,2.6c-4.3,0.3-5.4,1.1-6.5,5.2
			c-1.9,6.6-1.9,6.6-8.6,6.5c-3,0-6,0-9,0.7c-1.2,0.3-2.2,0.7-2.8,2.1c-2.8,6.6-8.2,9.3-15,9.4c-6.8,0.2-12.5-2.5-15.7-8.8
			c-1-1.9-1.4-2.1-2.7-0.3c-4,5.3-9.6,8.7-15.5,11.7c-3.1,1.6-4.2,4.9-3,8.3c1,2.9,4.9,4.8,8.3,4.1c3.5-0.8,5.9-3.7,5.5-7
			c-0.2-2.1-1.3-3.4-3.8-3.4c0.3,1.2,1.6,1.9,1.1,3.2c-0.5,1.2-1.3,1.9-2.5,2c-1.4,0.2-2.5-0.5-3.2-1.8c-1.2-2.4,0-5.2,2.6-6.2
			c3-1.1,6.6,0.1,8.4,2.8c3.9,6.1,0.3,14.4-7,15.8c-6.1,1.2-11.8,0.3-15.7-5.3c-1.2-1.7-1.6-0.4-2.2,0.4c-4.9,6.5-16,7.3-21.2,1.4
			c-2.8-3.2-3.6-6.9-1.9-10.9c1.6-3.7,6-5.5,9.6-3.9c1.9,0.9,2.8,2.5,2.5,4.6c-0.2,1.5-0.9,2.6-2.5,3c-1.1,0.3-2.1,0-2.9-0.8
			c-1.1-1.2-0.8-2.4,0.4-3.8c-2-0.1-3,0.7-3.4,2.1c-0.5,1.6-0.4,3.2,0.4,4.7c1.8,3.1,5.7,3.9,9.5,2c3.2-1.6,4.6-5,3.4-8.2
			c-0.5-1.3-1.3-2.3-2.5-2.9c-3.4-1.7-6.6-3.5-9.6-5.8c-2.9-2.2-5.6-4.8-7.8-8.3c-2.3,5.5-5.8,9-11.3,10.4c-4,1-8.1,1.1-12-0.4
			c-3.9-1.5-6.8-4.1-8.6-7.9c-1.7-3.8-0.9-7.6,0.3-11.3c-0.3-0.2-0.4-0.3-0.4-0.2c-3.1,2.1-5.9,0.9-8.7-0.8
			c-3.2-1.9-6.7-2.5-10.4-1.8c-1.5,0.3-2.3-0.5-2.6-1.8c0-0.1-0.1-0.2-0.1-0.2c0-6.5-3.9-9.8-9.5-11.9c-1.3-0.5-2.6-1.4-3.7-2.4
			c-1.7-1.5-2.8-0.8-3.7,0.8c-1.7,2.8-1.4,6,1.1,8.8c1.7,1.9,3.5,3.6,5.3,5.4c2.9,2.9,4.7,6.4,5.5,10.5c0.6,3.6-0.3,6.7-3.4,8.8
			c-1.7,1.2-2.7,2.7-3.4,4.6c-1.6,4.2-6.5,6.3-10.2,4.4c-0.6-0.3-1.5-0.6-1.5-1.5c0-0.8,0.9-0.8,1.5-1c1.5-0.5,2-1.8,2.5-3.1
			c1.1-3.1,2.9-4.9,6.5-4.8c2.3,0.1,3.8-1.7,4.1-4.1c0.4-3.3-0.8-6.1-3.1-8.4c-2.9-2.8-5.9-5.6-8.9-8.4c-3-2.7-3.7-6-2.4-9.8
			c1.1-3.2,2.8-6.1,4.9-8.7c0.9-1.1,1.3-2.2,1.3-3.6c0.1-6.7,2.6-12.4,7.2-17.2c2.3-2.4,4.6-4.8,7.2-6.9c2.2-1.8,4.2-3.8,3-7.1
			c-0.2-0.6,0.1-1.4,0.2-2.1c-0.6-0.2-0.9,0.1-1.1,0.4c-0.4,0.6-0.1,2.1-1.6,1.5c-1.1-0.4-1.8-1.5-1.6-2.5c0.4-1.6,0.2-3.4,1.4-4.8
			c-0.7-0.5-1.3,0-1.9,0.1c-1.6,0.2-2.9-0.5-3.2-2c-0.2-1-1.6-2.7,1-3.5c0.7-0.2,1.6-3.3,0.7-5.2c-1-2.2-0.9-4.1,1.3-5.6
			c0.5-0.4,0.6-0.8,0.3-1.4c-1.1-2-0.2-4.1,1.4-4.8c2.6-1.1,3.9-3.1,5.7-4.9c1.6-1.7,4.1-1.7,5.9-3.2c0.8-0.7,2.3-0.1,3.3,0.9
			c1.4,1.5,2.8,1.3,4.2-0.1c1.7-1.7,2.3-1.5,3,0.8c1.2,0,1.8-2.3,3.3-0.9c0.7,0.7,1.9,1,1.9,2.1c0,1.1-1.3,0.6-1.9,1
			c0.2,1.2,2.7,2,0.2,3.3c-0.8,0.4,0.3,1.2,0.8,1.3c4,1.3,5.3,5.9,9.1,7.5c1.3,0.5,0.6,1.7,0.3,2.8c-0.9,2.7-2.2,3.7-4.9,3.5
			c-0.6,0-1.1,0.2-1.4,0.7c-0.2,0.5-0.3,1,0.1,1.4c0.5,0.5,0.8-0.1,1.2-0.2c1.4-0.5,1.9,0.3,1.6,1.5c-0.2,0.8-0.5,1.8-1.1,2.1
			c-1.9,1.1-1.5,2.8-1.5,4.4c0,1.9,0.6,3.5,1.9,4.9c1.5,1.6,3.4,1.3,5.3,1.1c1.1-0.1,2-0.2,3,0.4c2.8,1.7,7,0.6,8.8-2.2
			c2.1-3.3,2-6.6-0.3-10.5c4.3-0.4,6.5,2,8.6,9.7c1.3-1.3,2.5-2.5,3.7-3.6c1.3-1.2,2.6-2.2,4.3-3.7c-6.2-1.3-10.2-5.6-14.7-9.1
			c-2.1-1.6-4.7-2.2-7.6-3c2.7-1.8,5.3-2.1,7.9-1.2c2.1,0.8,3,0.3,3.1-1.9c0-0.4,0.3-0.7,0.5-1c0.8,0.3,0.8,0.9,1,1.4
			c0.5,1,0.9,2.3,2,2.3c1.3,0.1,0.9-1.5,1.3-2.2c1.1-2.2,3.6-3.5,5.9-2.9c2.1,0.5,3.5,1.8,3.5,4.1c0,1.3-0.5,2.4-1.8,2.9
			c-0.9,0.3-1.8,0.3-2.5-0.4c-1-1-0.8-2,0-3.1c0.8-1.2-0.2-1.2-0.9-1.1c-1.8,0.3-2.1,1.7-1.7,3.2c0.7,2.9,2.9,4.4,5.6,4.9
			c8.8,1.6,14.4-4.7,13.8-12.9c-0.1-1.3-0.2-2.6-0.9-3.8c-1.1-2-2.9-2.9-5.1-2.5c-1.7,0.3-2.7,1.5-2.9,3.2c-0.2,2.3,0.9,3.7,2.9,4.6
			c0.4,0.2,0.7,0.3,1.2,0.4c-2.5,1.8-5.9,0.8-7.4-1.9c-1.6-2.9-0.8-7.1,1.6-9.2c2.6-2.2,7.3-2.4,10-0.3c1.2,0.9,2.2,2,2.9,3.3
			c0.9,1.7,1.4,2.1,2.7,0.2c2.2-3.1,5-5.3,9.2-5c5.4,0.4,8.6,5.8,6.1,10.7c-1.4,2.8-4.7,3.8-7.9,2.2c2.3-0.6,4.2-1.4,4.4-4
			c0.2-3.1-2.1-4.9-5-4.1c-3,0.8-4,3.2-4.4,5.9c-0.6,4.6,0.7,8.6,4.6,11.4c3.6,2.6,8.5,2.7,12,0.5c1.7-1.1,2.7-2.5,2.6-4.7
			c-0.1-1.1-0.6-1.9-1.7-2.1c-0.4-0.1-0.9-0.1-1.1,0.3c-0.1,0.2,0,0.6,0.2,0.9c0.8,1.1,0.9,2.1-0.1,3.1c-0.6,0.6-1.4,0.7-2.3,0.4
			c-1.3-0.5-1.8-1.5-1.9-2.9c-0.1-2,0.7-3.3,2.6-4c2.1-0.8,4.7,0,6.2,1.8c0.8,1,0.6,3.1,1.9,3.1c1.4,0.1,1.5-1.9,2.2-2.9
			c0.9-1.2,1.3,0.1,1.4,0.6c0.1,2.4,1.3,2.1,2.9,1.6c2.6-0.8,5.1-0.7,8,1.4c-6.6,0.8-10.4,5.1-14.8,8.5
			C325.9,148.6,323.4,149.6,320.3,150.4z M301.2,236.8c5.6,0.2,10.8-1.4,15.2-4.7c13.9-10.4,18.3-25,17.6-41.6
			c-0.1-3.3-0.4-3.3-3.3-1.8c-10.9,5.6-21.9,11.3-32.8,16.9c-7.2,3.7-14.5,7.5-21.7,11.3c-1.2,0.6-2.4,1.2-1.4,2.9
			C280.8,229.8,289,236.4,301.2,236.8z M268.4,188.9c-0.1,6.3,0,6.4,2.7,5c12.8-6.6,25.6-13.3,38.4-19.9c4.6-2.4,9.1-4.7,13.7-7.1
			c2.6-1.4,2.6-1.7,0.7-3.9c-1.1-1.2-2.2-2.4-3.4-3.5c-10.2-9.9-24.8-10.9-36.1-2.1C273.6,165.8,269.4,177.6,268.4,188.9z
			 M257.5,229c-0.2-0.9,0.6-1.3,0.9-1.9c1.4-2.3,1.3-4.8-0.1-6.7c-1.3-1.6-4.5-2.5-6.7-1.8c-2.6,0.8-3.7,2.8-4.2,5.3
			c-0.5,2.9,0.5,5.3,2.9,7c4.5,3.2,12.2,1.8,15.5-3c1.8-2.6,3-5.7,1.9-8.5c-2-5-3.4-10.2-4.4-15.5c-0.7-3.5-5.4-6.7-8.9-6.3
			c-1.9,0.3-3.1,1.4-3.2,3.4c-0.1,2.1,0.7,3.5,2.9,3.9c0.6,0.1,1.3-0.2,1.8,0.5c-0.3,1.2-1.4,1.5-2.3,1.9
			c-5.1,1.9-10.1-0.8-11.4-6.3c-0.6-2.4-1.1-2.6-3-1c-0.3,0.3-0.6,0.5-0.8,0.9c-1.4,2.2-3.3,2.1-5.4,1.1c-1-0.4-1.9-1-2.9-1.2
			c-1-0.3-2-0.1-1.3,1.3c1.1,2.3,1,4.8,1,7.2c0,0.9,0,1.8,0.8,2.4c3,2.6,9.3,2.7,12.4,0.2c0.7-0.6,1.4-1.1,2.1-1.6
			c1.2-0.9,2.6-0.8,3.1,0.5c1.2,3,3.6,2.9,6.2,2.9c5,0,8.3,3.1,8.9,7.9C263.7,225.4,260.8,229.1,257.5,229z M346.5,205.1
			c0.7-0.1,1.1-0.2,1.5-0.2c2.5-0.3,4-1.7,3.9-3.8c-0.2-2.3-1.8-3.6-4.4-3.5c-3.6,0.1-7.4,3.5-8,7.1c-0.7,4.6-1.9,9.1-3.8,13.3
			c-0.6,1.2-0.7,2.5-0.6,3.8c0.5,7.2,7.2,12.3,14.3,10.7c5.6-1.2,8.1-6.5,5.4-11.2c-1.6-2.7-5.7-3.7-8.4-2c-2.6,1.6-3.3,5.3-1.6,8
			c0.4,0.6,1.2,0.9,0.9,1.9c-1.5,0.4-2.5-0.4-3.5-1.3c-3.3-3.2-2.8-9.3,1-12.1c4.8-3.6,12.6-2.4,16.1,2.6c1.1,1.6,2.2,2.9,3.8,4
			c2.1,1.4,8.5,0.6,9.9-1.4c0.6-0.8,0.6-1.6,0-2.5c-1.2,1.8-2,2-3.7,0.8c-0.5-0.4-1-0.9-1.3-1.4c-2.3-3.3-4.9-6.3-8.2-8.7
			c-0.7-0.5-1.3-1.1-1.5-1.9c-0.4-1.7-1.1-1.2-2.2-0.6C352.3,208.5,349.8,208.1,346.5,205.1z M380.1,197.3c-0.6-0.9-1.5-0.9-2.2-1.1
			c-7.5-2-13.7-5.8-18.2-12.4c-0.3-0.4-0.6-0.9-1-1c-4.5-0.7-5.3-4.1-6.1-7.8c-0.4-2-0.8-4.1-2.9-6c0.2,1.3,0.3,2.1,0.5,2.9
			c1,2.9,1.4,5.7,1.4,8.8c0,3.5,0.6,7.2,4.3,9.3c0.8,0.5,1.5,1.3,1.9,2.2c2.2,4,2.8,8.7,4.9,12.8c0.5,1,3.3,4.5,4,4.2
			c1.5-0.5,0.9-2.2,1.5-3.3c0.2-0.4,0.3-0.9,0.5-1.4c1.2-4,3.6-6.4,7.9-6.8C377.8,197.7,378.9,197.5,380.1,197.3z M225.5,184.5
			c2.6,1.1,4.8,2.1,6.6,3.7c5.4,4.7,5.6,5.8,12.5-0.5c1.6-1.5,3.3-3.4,3.5-6c0-0.6,0-1.4-0.6-1.8c-0.7-0.5-1.2,0.3-1.7,0.6
			c-3.3,2.2-4.5,2.1-6.6-1.2c-0.5-0.8-0.9-1.1-1.7-0.7C233.6,180.5,229.8,182.4,225.5,184.5z"/>
		<path class="st1" d="M219,306.3c8.1-10.5,17.3-10.3,23.1,0.1c0.8-0.3,0.9-1.1,1.3-1.7c3.1-4.7,8.1-6.8,13.5-5.8
			c4,0.7,6.7,2.9,8,6.7c1.1,3.1,1.5,6.3,1.6,9.6c0.1,5.2-0.2,10.4,0.4,15.6c0.3,2.4,0.7,4.7,3.1,6c0.4,0.2,0.7,0.5,0.6,1
			c-0.1,0.6-0.7,0.7-1.2,0.7c-5.3-0.1-10.6-0.3-15.9,0c-0.5,0-1.1-0.1-1.2-0.6c-0.1-0.6,0.4-0.9,0.8-1.1c2.2-1.6,2.8-3.9,2.9-6.4
			c0.5-7.1,0.7-14.2-0.5-21.2c-0.5-2.9-1.5-5.5-4.8-6.1c-2.4-0.4-4.8,1.6-6.3,4.9c-0.4,1-0.8,2.1-1,3.3c-1.1,6.8-0.6,13.6-0.2,20.5
			c0.1,2.1,0.9,4,2.9,5.1c0.4,0.3,0.9,0.5,0.7,1.1c-0.2,0.6-0.8,0.6-1.2,0.5c-5.1-0.2-10.3-0.3-15.4,0c-0.5,0-1.1,0-1.3-0.6
			c-0.2-0.7,0.4-1,0.9-1.3c1.9-1.1,2.5-2.9,2.7-5c0.7-7.2,0.7-14.3,0-21.5c-0.2-1.4-0.5-2.7-1.1-4c-1.8-3.7-5.9-4.2-8.5-0.9
			c-2.6,3.2-3.1,7.2-3.2,11.1c-0.3,5-0.1,10.1,0.4,15.1c0.2,2.1,0.8,4,2.8,5.2c0.4,0.3,0.9,0.5,0.8,1.1c-0.2,0.7-0.9,0.7-1.4,0.7
			c-5.1-0.2-10.3-0.2-15.4,0c-0.6,0-1.2,0-1.4-0.7c-0.1-0.6,0.4-0.8,0.8-1.1c1.8-1.1,2.5-2.8,2.7-4.7c0.9-7.8,0.5-15.6,0.4-23.5
			c0-2-0.2-4.2-2.8-4.9c-0.2-0.1-0.5-0.4-0.6-0.7c-0.1-0.5,0.4-0.7,0.8-0.8c3.7-0.8,7.3-1.5,11-2.2c1-0.2,1.2,0.6,1.2,1.4
			C219,302.8,219,304.3,219,306.3z"/>
		<path class="st1" d="M116.2,337.7c4.4-2.1,4.7-5.4,4.7-9c0-10.3,0.1-20.5,0.1-30.8c0-2.5,0.1-5-2.8-6.2c-0.7-0.3-0.6-0.9,0.1-1.2
			c0.2-0.1,0.5-0.1,0.7-0.1c8.9,0.2,17.8-0.7,26.6,0.4c13.1,1.7,20.8,10.7,20.4,23.4c-0.4,13.3-9,22.9-22,23.6
			c-8.7,0.5-17.4,0.1-26.2,0.2C117.6,338.1,117.3,338,116.2,337.7z M132.8,312.6C132.8,312.6,132.8,312.6,132.8,312.6
			c0,4.5,0,9,0,13.4c0,1.9-0.1,3.7,0.3,5.6c0.6,2.8,1.6,3.7,4.5,3.8c6.7,0.4,10.9-2.2,13.2-8.5c2.8-7.9,2.8-16,0.6-24
			c-1.7-6.5-5.8-9.3-12.6-9.4c-1.1,0-2.3,0.1-3.4,0c-2-0.1-2.7,0.8-2.6,2.8C132.9,301.7,132.8,307.1,132.8,312.6z"/>
		<path class="st1" d="M403.1,333.2c-3,4.4-7,6.4-11.9,6c-8.8-0.6-14.5-5.4-16.4-14.1c-1.7-7.9-0.5-15.3,5.3-21.4
			c5.9-6.2,14.2-6.7,20.9-1.3c0.3,0.2,0.6,0.4,1.4,1c0-4.4,0.3-8.5-0.3-12.5c-0.1-1.1-0.9-1.9-2-2.3c-0.4-0.1-0.8-0.3-0.8-0.8
			c0-0.6,0.5-0.7,1-0.8c3.6-0.7,7.2-1.4,10.8-2.2c1.6-0.3,1.6,0.7,1.6,1.7c-0.6,11.1-0.1,22.2-0.3,33.3c-0.1,3.8,0.1,7.5,0.5,11.2
			c0.3,2.2,0.8,4.4,2.8,5.7c0.4,0.2,0.7,0.5,0.6,1c-0.2,0.6-0.7,0.6-1.2,0.6c-2.8-0.2-5.7-0.3-8.5,0c-1.1,0.1-1.5-0.8-1.9-1.6
			C404.1,335.7,403.7,334.7,403.1,333.2z M402.4,319.5c0.1-4.5-0.2-8.7-2-12.7c-1.2-2.6-3.1-4.4-6.2-4.5c-3.1-0.1-5.7,1.6-6.9,5.2
			c-2.7,7.6-2.6,15.4-0.1,23c1.2,3.6,3.9,5.4,7.1,5.4c3.1-0.1,5.4-2,6.7-5.8C402.1,326.6,402.5,323,402.4,319.5z"/>
		<path class="st1" d="M305.8,290.4c7.5,0.1,13.6-0.3,19.7,1c2.4,0.5,4.7,1.2,6.9,2.5c6.7,4.2,7.1,13,0.7,17.6
			c-4.4,3.2-9.5,4.2-14.8,4.6c-2.4,0.2-4.9,0.1-7.3,0c-1.6-0.1-2.4,0.4-2.4,2.2c0,4.2,0.1,8.5,0.6,12.7c0.2,2.4,1,4.7,3.4,5.9
			c0.4,0.2,0.7,0.4,0.7,0.9c-0.1,0.6-0.6,0.7-1.1,0.8c-0.4,0-0.8,0.1-1.2,0c-5.5-0.3-11.1-0.3-16.6,0c-0.7,0-1.6,0.3-2-0.5
			c-0.4-1,0.7-1.1,1.2-1.5c1.5-0.9,2.3-2.3,2.5-4c0.3-1.9,0.5-3.9,0.5-5.8c0.1-9.6,0-19.2,0.1-28.9c0-2.5-0.3-4.8-3-5.8
			c-0.4-0.2-0.7-0.5-0.6-0.9c0.1-0.4,0.5-0.6,1-0.6c0.6,0,1.1-0.1,1.7-0.1C299.5,290.4,303.4,290.4,305.8,290.4z M313.3,313
			c0.4,0,1.4,0,2.3-0.1c4.9-0.6,8.2-3.9,8.4-8.7c0.3-5.9-1.8-8.9-7.2-10.2c-1.8-0.5-3.7-0.4-5.6-0.5c-2-0.1-2.8,0.6-2.7,2.6
			c0.1,4.2,0,8.5,0,12.7C308.6,313.1,308.6,313.1,313.3,313z"/>
		<path class="st1" d="M462.4,339.1c-11.5,0-19.5-8.3-19.5-20.2c0-12.1,8.1-20.2,20.1-20.1c11.6,0,19.6,8.2,19.7,20.1
			C482.8,331,474.6,339.2,462.4,339.1z M454.1,318.8c0.1,2.2,0.1,4.3,0.4,6.4c0.4,3.1,1.1,6.1,3.1,8.6c2.7,3.5,7.9,3.4,10.6-0.1
			c1.3-1.7,2.1-3.7,2.5-5.8c1.1-5.3,1-10.7,0.4-16.1c-0.3-2.2-0.8-4.3-1.9-6.3c-1.4-2.5-3.4-4.2-6.4-4.2c-3,0-4.9,1.7-6.3,4.3
			C454.3,309.9,454.4,314.5,454.1,318.8z"/>
		<path class="st1" d="M186.6,339.1c-11.5,0-19.7-8.3-19.7-20.1c0-12.1,8.1-20.3,20-20.3c11.7,0,19.8,8.2,19.8,20.2
			C206.7,331,198.6,339.1,186.6,339.1z M195.5,318.8c-0.3-4.2-0.2-8.7-2.2-12.9c-1.4-2.8-3.5-4.6-6.7-4.5c-3.1,0.1-5.1,1.9-6.3,4.7
			c-0.6,1.4-1.1,2.9-1.4,4.4c-1,5.3-0.8,10.5-0.2,15.8c0.3,2.6,1.1,5.1,2.7,7.3c1.8,2.6,4.8,3.4,7.8,2.4c2.5-0.9,3.6-2.9,4.6-5.1
			C195.4,327.1,195.3,323.1,195.5,318.8z"/>
		<path class="st1" d="M359.4,314.7c-3.5,0-7,0-10.5,0c-1.1,0-2.1,0.1-2.1,1.6c-0.1,4.6,0.3,9.1,2.5,13.3c3.7,6.9,12.4,7.6,17.3,1.5
			c1.6-2.1,2.6-4.5,3.5-6.9c0.2-0.7,0.1-2,1.3-1.7c1.1,0.3,1.7,1.2,1.3,2.5c-2.2,7.3-6.6,13-14.8,14.1c-9.2,1.2-16.5-2.3-20.5-9.7
			c-4-7.3-3.1-17.8,2.3-24.2c5.4-6.2,12.4-7.4,20.1-5.8c6.5,1.4,10.4,5.7,12.2,12c0.8,3,0.6,3.3-2.4,3.3
			C366.1,314.7,362.8,314.7,359.4,314.7z M353.7,311.5C353.7,311.5,353.7,311.5,353.7,311.5c0.4,0,0.8,0,1.2,0
			c5.8,0,6.7-1.6,3.8-6.8c-0.2-0.3-0.3-0.6-0.5-0.8c-2-2.9-5.3-3.2-7.7-0.8c-1.9,1.8-2.6,4.3-3.2,6.7c-0.2,1.1,0.4,1.7,1.5,1.7
			C350.4,311.5,352.1,311.5,353.7,311.5z"/>
		<path class="st1" d="M287.6,402.2c3.3-1.9,3.6-4.9,3.6-8c0.1-9.9,0-19.9,0.1-29.8c0-2.3-0.3-4.4-3-5.6c2.9-0.8,5.8-1.6,8.8-2.2
			c1.4-0.3,1.1,1.1,1.1,1.9c0,4.4-0.1,8.8-0.1,13.2c0,0.8-0.3,1.6,0.5,2.4c2-2.6,4.4-4.5,7.6-5.3c11.9-2.9,22.4,7.4,20.2,19.9
			c-1.7,9.5-8.5,15-18.1,14.5c-3.7-0.2-6.7-1.8-9.2-4.5c-0.6-0.6-1.5-1.7-1.8,0c-0.7,3.7-3.1,4.3-6.3,4
			C290.1,402.6,289,403,287.6,402.2z M298.1,384.7c0,6.1,0.6,9.2,2.3,12c3.9,6.4,12.7,6.2,16.2-0.4c3.5-6.6,3.3-13.5,0.4-20.3
			c-1.6-3.6-4.5-5.7-8.7-5.6c-4,0.1-6.7,2.2-8.5,5.7C298.3,379.1,298.1,382.3,298.1,384.7z"/>
		<path class="st1" d="M431.9,306.3c1.6-1.5,2.6-3.3,4.1-4.7c1.9-1.8,4.2-2.8,6.8-2.9c1.4,0,1.9,0.5,1.5,2c-1,3-1.9,6.1-2.9,9.1
			c-0.4,1.2-1,1.4-2.2,0.8c-2.8-1.5-5-0.7-6.2,2.3c-0.5,1.3-1,2.7-1,4c-0.1,5-0.4,10.1,0.3,15.1c0.3,2,0.9,3.6,2.7,4.7
			c0.5,0.3,1.1,0.5,0.8,1.3c-0.2,0.5-0.8,0.6-1.2,0.6c-5.3-0.2-10.6-0.2-15.9,0c-0.5,0-1,0-1.3-0.5c-0.3-0.6,0.1-0.9,0.5-1.2
			c3-1.6,3.2-4.6,3.3-7.4c0.2-7.1,0.1-14.2,0.1-21.3c0-1.9-0.4-3.8-2.7-4.4c-0.4-0.1-0.8-0.4-0.7-0.8c0-0.5,0.4-0.6,0.9-0.7
			c3.9-0.7,7.8-1.5,11.8-2.2c1.2-0.2,1.3,0.7,1.3,1.5C431.9,303.1,431.9,304.7,431.9,306.3z"/>
		<path class="st1" d="M347.9,403.2c-12.5,0-20.3-9.3-18-21.3c1.3-6.6,6.8-11.9,13.9-13.1c3.1-0.5,6.1-0.6,9.2,0.1
			c8.8,1.8,14.5,9.3,13.8,18.3c-0.7,9.1-7.6,15.7-16.6,16C349.4,403.3,348.6,403.2,347.9,403.2z M358.8,385.9
			c0.1-3.4-0.2-6.7-1.6-9.8c-1.8-3.9-4.8-5.9-9-6c-4.1-0.1-7.4,1.8-9,5.6c-2.9,6.9-3,14,0.3,20.8c1.8,3.8,5.3,5.3,9.5,5
			c4-0.3,6.6-2.4,8.2-5.9C358.7,392.5,359,389.2,358.8,385.9z"/>
		<path class="st1" d="M405,402.5c-3.1,0.4-5.5,0.4-7.9,0c-1.2-0.2-1.4-1.5-1.8-2.4c-0.3-0.8-0.6-1.7-1-2.9c-2.9,3.9-6.6,6-11.3,6.2
			c-4.7,0.2-9-0.8-12-4.7c-3.5-4.6-2.3-10.3,2.8-13.1c5.2-2.8,10.8-3.3,16.6-3.6c3.9-0.2,4.2-0.4,3.3-4.3c-1.1-5-3.4-7.1-8.5-7.6
			c-4.6-0.4-9.2,2.1-10.9,5.9c-0.3,0.7-0.6,1.5-1.1,2.6c-1.4-2.1-1.7-4.2-2.2-6.2c-0.2-0.8,0.5-1.1,1.1-1.4
			c6.7-2.8,13.7-3.8,20.7-1.6c5,1.6,7.5,5.1,7.7,10.4c0.2,4.6-0.2,9.3,0.3,13.9C401.2,397,401.3,400.2,405,402.5z M394,387.8
			c0-0.9,0-1.8,0-2.7c0-0.7-0.3-1.3-1.1-1.3c-5.2-0.1-10.4,0.1-14.2,4.3c-3.5,3.8-2.1,10.7,2.4,12.4c4.9,1.9,10.2-0.5,11.8-5.5
			C393.6,392.6,394,390.2,394,387.8z"/>
		<path class="st1" d="M199.3,402c3.3-1.4,3.6-4.1,3.8-7c0.7-8.6,0.2-17.3,0.4-25.9c0.1-3-0.2-5.9-3.5-7.8c4.8,0.1,9.4,0.2,14.3-0.1
			c-3.9,2-3.2,5.5-3.2,8.7c0,7.7,0,15.5,0,23.2c0,0.2,0,0.5,0,0.7c0.1,6,0.7,6.6,6.6,6.7c6.1,0.1,12.1-0.4,17.3-4.1
			c1.5-1.1,2.7-2.6,4.2-4c0.7,1.9-0.4,3.2-0.9,4.5c-2.4,6.7-0.7,5.6-8,5.7c-9.3,0.1-18.6,0-27.9,0C201.6,402.7,200.6,403,199.3,402z
			"/>
		<path class="st1" d="M256.7,393.3c0.2,0.1,0.4,0.2,0.5,0.3c3.4,6.7,8.3,9.1,15.7,7.9c4.1-0.7,6.9-3.5,7-7c0.1-2.4-1-4.2-3.4-4.7
			c-2.8-0.7-5.6-1.2-8.4-1.7c-2.1-0.4-4.2-0.8-6.1-1.6c-3-1.2-5.1-3.2-5.5-6.5c-0.4-3.3,0.8-6.1,3.5-8.1c3.5-2.7,7.7-3.4,12-3.4
			c3.6,0,7.1,0.6,10.6,1.5c1.5,0.4,2,1.2,1.4,2.7c-0.6,1.4-0.5,3-1.6,4.2c-0.8-0.2-0.9-0.8-1.1-1.3c-2.6-6.6-12.2-6.4-16.2-3.1
			c-1.8,1.5-2.5,3.4-2.1,5.6c0.4,2.2,2.2,3,4,3.4c3.2,0.6,6.4,1,9.6,1.6c0.8,0.1,1.6,0.3,2.4,0.5c3.5,0.9,6.6,2.2,7.3,6.3
			c0.7,4.2-0.6,7.7-4.1,10.4c-3.8,2.9-8.4,3.5-13,3.6c-4.4,0-8.8-0.7-12.9-2.2c-1.6-0.6-2.2-1.4-1.6-3.1
			C255.5,396.6,255.7,394.8,256.7,393.3z"/>
		<path class="st1" d="M240.2,371.7c2.9-0.7,5.8-1.6,8.7-2.2c1.4-0.3,1.3,0.9,1.2,1.8c-0.5,6.3-0.1,12.6-0.3,18.8
			c-0.1,2.4,0.3,4.7,0.5,7.1c0.2,2.3,1.6,3.8,3.7,4.8c-0.1,0.2-0.3,0.3-0.4,0.5c-4.7,0-9.4,0-14.9,0c4.8-2.9,4.4-7.1,4.5-11.2
			c0.1-4.6,0-9.1,0-13.7C243.3,375.2,242.9,373.1,240.2,371.7z"/>
		<path class="st1" d="M308,426c-3.8,1.7-4.8,4.4-2.5,8.3c-2.3-0.3-3.3-2.3-4.9-2.4c-1.8-0.1-2.6,2-4.4,2.3
			c-0.5-0.4-0.4-0.8-0.2-1.1c1.4-2.6,1.1-4.8-1.8-6.2c-0.4-0.2-0.9-0.6-0.6-1.1c0.2-0.5,0.8-0.6,1.3-0.5c2.9,0.5,4.5-0.8,4.9-3.6
			c0.1-0.4,0.2-0.8,0.7-0.9c0.4-0.1,0.6,0.3,0.7,0.6c0.5,3.6,2.8,4.3,5.9,4.1C307.3,425.3,307.5,425.6,308,426z"/>
		<path class="st1" d="M345.4,420.5c0.1,0.2,0.3,0.4,0.3,0.6c0.6,2.9,2,4.7,5.3,4.1c0.6-0.1,1.9,0.6,0.8,1.2
			c-3.6,1.8-3.1,4.4-2.1,7.3c0,0.1-0.1,0.3-0.2,0.4c-2.3-0.9-6.3-0.9-8.8,0c-0.3-0.4-0.2-0.8,0-1.2c1.2-2.5,1.2-4.7-1.7-6
			c-0.4-0.2-0.9-0.5-0.8-1.1c0.1-0.5,0.6-0.6,0.9-0.6c3.6,0.6,5.1-1.4,5.7-4.8C345,420.4,345.2,420.5,345.4,420.5z"/>
		<path class="st1" d="M260.3,434.7c-2.9-3.6-5.8-3.2-9.1,0.2c0.2-1.3,0.1-1.7,0.3-2c1.3-2.5,1.1-4.6-1.7-6
			c-0.4-0.2-0.9-0.6-0.8-1.1c0.1-0.5,0.8-0.6,1.2-0.6c3,0.5,4.6-0.8,5-3.8c0.1-0.4,0.2-0.8,0.8-0.8c0.5,0.1,0.6,0.5,0.7,0.9
			c0.5,3,2.3,4,5.1,3.7c0.4-0.1,1.1,0,1.1,0.6c0,0.3-0.4,0.6-0.7,0.9c-0.2,0.2-0.4,0.3-0.6,0.4c-2.3,1.1-2.7,2.7-1.6,4.9
			C260.5,432.7,260.7,433.3,260.3,434.7z"/>
		<path class="st1" d="M327.2,434.5c-2.8-3.1-5.8-3.3-8.9,0.4c0.1-1.2,0-1.5,0.1-1.8c1.3-2.7,1.2-5-1.9-6.4
			c-0.4-0.2-0.9-0.5-0.7-1.1c0.3-0.5,0.9-0.5,1.3-0.4c2.9,0.5,4.5-0.7,4.9-3.6c0.1-0.3,0.4-0.9,0.7-0.9c0.6-0.1,0.8,0.5,0.9,0.9
			c0.3,3.2,2.4,3.9,5.2,3.6c0.3,0,0.9,0.1,1.1,0.4c0.4,0.6-0.3,0.8-0.6,1.1c-0.4,0.3-0.7,0.6-1.2,0.9c-1.7,0.9-2,2.1-1.3,3.8
			C327.2,432.2,327.6,433,327.2,434.5z"/>
		<path class="st1" d="M282.8,434.2c-2-0.3-2.9-2.4-4.6-2.4c-1.7,0.1-2.6,2.1-4.3,2.4c-0.5-0.5-0.2-1,0-1.4c1.3-2.6,1.1-4.6-1.8-6
			c-0.4-0.2-1.2-0.5-0.8-1.3c0.2-0.5,0.9-0.5,1.3-0.4c2.8,0.5,4.5-0.6,4.9-3.5c0.1-0.3,0.4-0.8,0.7-0.9c0.6-0.1,0.8,0.5,0.9,0.9
			c0.4,2.9,2.2,3.9,5,3.5c0.5-0.1,1-0.1,1.3,0.4c0.2,0.4-0.1,0.6-0.3,0.8c-1,1.1-3,1.4-3.3,3.1C281.6,431,282.9,432.3,282.8,434.2z"
			/>
		<path class="st1" d="M250.3,361.5c0,2.1-1.6,3.8-3.8,3.9c-2.2,0.1-4-1.5-4.1-3.7c-0.1-2.1,1.9-4.1,4-4.1
			C248.6,357.7,250.3,359.4,250.3,361.5z"/>
	</g>
</g>
</svg>
