<?xml version="1.0" encoding="utf-8"?>
<!-- Generator: Adobe Illustrator 26.3.1, SVG Export Plug-In . SVG Version: 6.00 Build 0)  -->
<svg version="1.1" id="Layer_1" xmlns="http://www.w3.org/2000/svg" xmlns:xlink="http://www.w3.org/1999/xlink" x="0px" y="0px"
	 viewBox="0 0 595.3 595.3" style="enable-background:new 0 0 595.3 595.3;" xml:space="preserve">
<style type="text/css">
	.st0{fill:#DB1408;}
	.st1{fill:#FEFCF6;}
</style>
<path class="st0" d="M297.6,595.3L297.6,595.3C133.3,595.3,0,462,0,297.6v0C0,133.3,133.3,0,297.6,0h0
	C462,0,595.3,133.3,595.3,297.6v0C595.3,462,462,595.3,297.6,595.3z"/>
<g>
	<path class="st1" d="M147.2,269.2c16.2-25.1,40-32.4,67.3-32.3c41.5,0.1,83,0.2,124.5,0.2c7.9,0,15.9-0.3,23.8-0.2
		c11.1,0.1,14.5,2.6,17.4,13.3c4.2,15.5,9.2,30.7,15.5,45.5c0.9,2.1,1.2,4.5,4,6.4c4.3-16.4,8.5-32.5,12.8-48.6
		c1.1-4.3,1.6-8.8,4.4-12.4c4.7-6.2,31.1-6.4,35.8-0.3c1.7,2.2,2.6,4.9,3.1,7.7c3.4,16.7,8.7,32.8,13.6,49.1c0.6,1.9,0.3,4.8,3,4.9
		c2.6,0.1,2.6-2.8,3.2-4.7c5.1-15,10.8-29.8,14.9-45c3.2-11.8,18.6-19,30.3-16.8c4.6,0.9,7.4,3,5.4,8.9
		c-11.4,34.5-22.5,69-33.5,103.6c-2.1,6.7-6.2,9.3-13,9c-4.9-0.2-9.8-0.1-14.7,0.1c-9.9,0.5-13.8-2.2-16.1-12.4
		c-3.5-15-7.2-29.8-12.8-44.2c-1-2.6-2.1-5.1-3.8-9.3c-4.6,18.2-8.8,34.6-12.8,51.1c-3,12.4-6.1,15.1-18.8,14.8
		c-27.4-0.6-21.6,1.8-29.5-21.6c-6.5-19.4-12.7-38.9-18.7-58.5c-2-6.7-5.8-10.4-12.9-10.5c-7.2-0.1-9.7,2.4-9.7,9.5
		c0,22.2,0.1,44.3,0.2,66.5c0,12.8-2.5,15.2-15.2,14.4c-2.3-0.1-4.7-0.2-7-0.1c-12.3,0.6-14.6-1.6-14.6-14.2c0-21.7,0.1-43.4,0-65.1
		c0-9.1-0.6-9.8-9.7-10.9c-1.8-0.2-3.7-0.4-5.6-0.4c-11.2-0.2-12.6,1.6-10.1,12.3c8.9,38.1-7.7,68.4-43.4,77.8
		c-27.4,7.2-51.1-0.2-70.3-21.2c-7.9-8.6-7.8-8.7-15.4,0.4c-10,12.1-23,18.8-38.5,20.3c-18.4,1.8-36.8,0.7-55.2,1.1
		c-6.1,0.1-9.5-2.7-9.5-9.3c0.1-34.3,0.1-68.6,0.1-102.9c0-4.9,1.8-8.3,7.2-8.2c18.7,0.2,37.3-0.5,55.9,0.9
		c17.6,1.3,31.3,9.8,42.1,23.3C142.9,263.7,144.7,266.1,147.2,269.2z M233.3,297.7c-0.1-17.1-11.5-29.5-27-29.4
		c-15.8,0.1-27.7,13-27.6,29.9c0.1,16.8,12.2,29.9,27.8,29.9C222.1,328,233.4,315.2,233.3,297.7z M71,305c0.2,0,0.5,0,0.7,0
		c0,3.3,0,6.5,0,9.8c-0.1,13.9,1.1,15,15.2,14c0.2,0,0.5,0,0.7,0c15.9-1.2,25.2-10,26.7-25.2c1.8-18.4-5.8-31.6-20.7-35.9
		c-5.5-1.6-11-1.4-16.5,0.1c-4.7,1.2-6.3,4.1-6.2,8.7C71.1,286,71,295.5,71,305z"/>
	<path class="st1" d="M559.6,331.2c-1.6,8.5-6.8,16.5-14,23.4c-2.4,2.3-4.7,0.9-6.7-0.9c-5.9-5.5-10.4-12-12.7-19.7
		c-1.9-6.3,0.3-12.1,5.4-16.2c5.8-4.6,12.3-5.1,19-2C556.5,318.6,559.4,323.3,559.6,331.2z M542.4,321.1c-4.6,0.3-7.2,2.9-7.3,7.5
		c0,4.6,2.8,7.5,7.3,7.6c4.8,0.1,7.8-2.9,7.7-7.9C549.9,323.7,547.1,321.3,542.4,321.1z"/>
</g>
</svg>
