<?xml version="1.0" encoding="utf-8"?>
<!-- Generator: Adobe Illustrator 26.3.1, SVG Export Plug-In . SVG Version: 6.00 Build 0)  -->
<svg version="1.1" id="Layer_1" xmlns="http://www.w3.org/2000/svg" xmlns:xlink="http://www.w3.org/1999/xlink" x="0px" y="0px"
	 viewBox="0 0 595.3 595.3" style="enable-background:new 0 0 595.3 595.3;" xml:space="preserve">
<style type="text/css">
	.st0{fill:#FFFFFF;}
	.st1{fill:#E47E3D;}
	.st2{fill:#388DCC;}
</style>
<path class="st0" d="M297.6,595.3L297.6,595.3C133.3,595.3,0,462,0,297.6l0,0C0,133.3,133.3,0,297.6,0l0,0
	C462,0,595.3,133.3,595.3,297.6l0,0C595.3,462,462,595.3,297.6,595.3z"/>
<g>
	<path class="st1" d="M282.2,243.6c15.4,6.5,25.4,16.2,28.9,33.4c-7.9,0-15.2-0.1-22.5,0c-2.8,0-4-1.5-5.5-3.5
		c-10.8-14.2-29.3-14.1-39.4,0c-8.9,12.4-8.9,35.8,0,48.2c10.2,14.2,34.5,13,41.6-1.9c2-4.2,2-6.7-3.7-6.3c-2.1,0.1-4.1,0-6.2,0
		c-13.3-0.2-11.4,1.7-12-11.5c-0.4-7,1.3-9.9,9-9.4c10.6,0.7,21.2,0.6,31.8,0c6.4-0.3,7.9,2,7.8,7.9c-0.4,14.3-0.1,28.6-0.1,42.9
		c0,3.8,0.8,8.6-5.4,9c-5.4,0.4-12.7,0.4-12.7-7.5c0-1.7-0.7-3.3-1.3-5.8c-7.3,5.6-13.5,11.3-22.1,13.3
		c-31.4,7.5-59.2-14.3-61.4-48.4c-2.2-33.5,15.8-60.1,43.3-62.2C254.5,241.9,274.9,240.6,282.2,243.6z"/>
	<path class="st1" d="M499.3,243.7c11.6,5.7,20.7,11.8,23.8,24.8c1.4,5.9,0.8,9-6.3,8.3c-3.5-0.4-7.1-0.4-10.6,0
		c-5.4,0.6-8.2-1.1-10.4-6.4c-3.6-8.6-20.8-11.2-27.8-4.8c-4.4,4-3.8,8.2,0.6,12c5.1,4.3,11.5,5.7,17.6,8c8,3,16.3,5.3,24,8.8
		c20.4,9.1,23.5,36.2,6.1,49.9c-15.5,12.2-48.3,13.6-64.7,2.8c-9.9-6.5-13.5-16.5-15.2-27.5c-0.5-3.5,1.5-3.9,4.1-3.9
		c5.9,0,11.8,0.2,17.7-0.1c4.1-0.2,4.5,2.5,5.4,5.4c3.9,12.2,24,17.7,33.7,9.3c6.1-5.2,3.9-13-4.7-16.1c-10.8-3.8-22-6.8-32.6-11
		c-11.5-4.6-20.2-12.2-21.3-25.6c-1.3-16.4,7-28.6,23.4-33.8C474.1,240.2,491.5,239.9,499.3,243.7z"/>
	<path class="st2" d="M69.2,296.2c5.6-22.1,26-33.1,48.7-28.9c25.5,4.7,33.3,24.6,33.9,44.7c0.2,5.5-3.3,5.2-7,5.2
		c-14.2,0-28.3,0.2-42.5-0.1c-6.2-0.1-7.9,1.6-5.8,7.6c3.8,10.7,16.5,13.7,25,5.6c3.4-3.2,22.6-6.2,26.4-4c3.3,1.9,0.6,4.2-0.1,5.9
		c-6.6,15.6-26.6,24.9-46.2,21.5c-16.3-2.8-27.3-11.6-32.2-27.5C67.2,318.2,67,305.2,69.2,296.2z M114.9,301.5c3.5,0,10,0.3,10-2.2
		c0-5.2-2-10-6.8-12.2c-6.4-3-13.2-3.4-18.6,2.4c-2.6,2.8-3.8,6.5-3.8,10.2c0,2,5.5,1.8,8.6,1.8
		C106.1,301.6,113.2,301.5,114.9,301.5z"/>
	<path class="st1" d="M331.8,297.5c0-15.5,0-30.9,0-46.4c0-3.7-0.1-7.1,5.3-7c16.8,0.6,33.6-1.3,50.3,1
		c22.7,3.1,36.5,17.2,39.3,39.7c1.1,8.7,1.2,17.4,0,26.2c-3,23.1-18.6,38.3-42.3,39.6c-15.6,0.9-31.2,0.2-46.9,0.6
		c-5.9,0.1-5.9-3.1-5.8-7.2C331.8,328.4,331.8,312.9,331.8,297.5z M359.6,297.7c0,5.5-0.1,11.1,0,16.6c0.4,15.8-3.4,14.2,14.6,14.1
		c13.7-0.1,20.4-4.5,23.4-15.6c2.8-10,2.8-20.2-0.1-30.3c-2.3-8.3-7.7-13.8-16.5-15c-5.2-0.7-10.6-0.5-15.8-0.9
		c-4.2-0.3-5.7,1.4-5.6,5.6C359.7,280.7,359.6,289.2,359.6,297.7z"/>
	<path class="st2" d="M185.9,301.6c5.8,0,9.2,0.1,9,7.6c-0.2,6.7-2.1,8.1-8.6,8.1c-3.7,0-7.6,0-11.4,0c-5.9,0-9.4-0.4-9-7.7
		c0.3-5.6,1-8,7.7-8C175.8,301.5,184.1,301.6,185.9,301.6z"/>
</g>
</svg>
