<?xml version="1.0" encoding="utf-8"?>
<!-- Generator: Adobe Illustrator 26.3.1, SVG Export Plug-In . SVG Version: 6.00 Build 0)  -->
<svg version="1.1" id="Layer_1" xmlns="http://www.w3.org/2000/svg" xmlns:xlink="http://www.w3.org/1999/xlink" x="0px" y="0px"
	 viewBox="0 0 595.3 595.3" style="enable-background:new 0 0 595.3 595.3;" xml:space="preserve">
<style type="text/css">
	.st0{fill:#FFFFFF;}
	.st1{fill:#E47E3D;}
	.st2{fill:#388DCC;}
</style>
<path class="st0" d="M297.6,595.3L297.6,595.3C133.3,595.3,0,462,0,297.6l0,0C0,133.3,133.3,0,297.6,0l0,0
	C462,0,595.3,133.3,595.3,297.6l0,0C595.3,462,462,595.3,297.6,595.3z"/>
<g>
	<path class="st1" d="M281.4,240.9c16.2,6.8,26.7,17,30.3,35.1c-8.3,0-16-0.1-23.6,0c-2.9,0-4.2-1.6-5.8-3.7
		c-11.3-14.9-30.8-14.8-41.4,0c-9.3,13-9.3,37.6,0,50.6c10.7,14.9,36.2,13.6,43.7-2c2.1-4.4,2.1-7-3.9-6.6c-2.2,0.1-4.3,0-6.5,0
		c-14-0.2-12,1.8-12.6-12.1c-0.4-7.3,1.4-10.4,9.4-9.9c11.1,0.7,22.3,0.6,33.4,0c6.7-0.3,8.3,2.1,8.2,8.3c-0.4,15-0.1,30-0.1,45
		c0,4,0.8,9-5.7,9.4c-5.7,0.4-13.3,0.4-13.3-7.9c0-1.8-0.7-3.5-1.4-6.1c-7.7,5.9-14.2,11.9-23.2,14c-33,7.9-62.2-15-64.5-50.8
		c-2.3-35.2,16.6-63.1,45.5-65.3C252.4,239.1,273.8,237.7,281.4,240.9z"/>
	<path class="st1" d="M509.4,241c12.2,6,21.7,12.4,25,26c1.5,6.2,0.8,9.4-6.6,8.7c-3.7-0.4-7.5-0.4-11.1,0
		c-5.7,0.6-8.6-1.2-10.9-6.7c-3.8-9-21.8-11.8-29.2-5c-4.6,4.2-4,8.6,0.6,12.6c5.4,4.5,12.1,6,18.5,8.4c8.4,3.1,17.1,5.6,25.2,9.2
		c21.4,9.6,24.7,38,6.4,52.4c-16.3,12.8-50.7,14.3-67.9,2.9c-10.4-6.8-14.2-17.3-16-28.9c-0.5-3.7,1.6-4.1,4.3-4.1
		c6.2,0,12.4,0.2,18.6-0.1c4.3-0.2,4.7,2.6,5.7,5.7c4.1,12.8,25.2,18.6,35.4,9.8c6.4-5.5,4.1-13.6-4.9-16.9
		c-11.3-4-23.1-7.1-34.2-11.5c-12.1-4.8-21.2-12.8-22.4-26.9c-1.4-17.2,7.3-30,24.6-35.5C482.9,237.3,501.2,237,509.4,241z"/>
	<path class="st2" d="M57.8,296.1c5.9-23.2,27.3-34.8,51.1-30.3c26.8,4.9,35,25.8,35.6,46.9c0.2,5.8-3.5,5.5-7.3,5.5
		c-14.9,0-29.7,0.2-44.6-0.1c-6.5-0.1-8.3,1.7-6.1,8c4,11.2,17.3,14.4,26.2,5.9c3.6-3.4,23.7-6.5,27.7-4.2c3.5,2,0.6,4.4-0.1,6.2
		c-6.9,16.4-27.9,26.1-48.5,22.6c-17.1-2.9-28.7-12.2-33.8-28.9C55.7,319.2,55.5,305.5,57.8,296.1z M105.8,301.7
		c3.7,0,10.5,0.3,10.5-2.3c0-5.5-2.1-10.5-7.1-12.8c-6.7-3.1-13.9-3.6-19.5,2.5c-2.7,2.9-4,6.8-4,10.7c0,2.1,5.8,1.9,9,1.9
		C96.5,301.8,104,301.7,105.8,301.7z"/>
	<path class="st1" d="M333.5,297.5c0-16.3,0-32.4,0-48.7c0-3.9-0.1-7.5,5.6-7.3c17.6,0.6,35.3-1.4,52.8,1
		c23.8,3.3,38.3,18.1,41.3,41.7c1.2,9.1,1.3,18.3,0,27.5c-3.1,24.3-19.5,40.2-44.4,41.6c-16.4,0.9-32.8,0.2-49.2,0.6
		c-6.2,0.1-6.2-3.3-6.1-7.6C333.5,329.9,333.5,313.6,333.5,297.5z M362.7,297.7c0,5.8-0.1,11.7,0,17.4c0.4,16.6-3.6,14.9,15.3,14.8
		c14.4-0.1,21.4-4.7,24.6-16.4c2.9-10.5,2.9-21.2-0.1-31.8c-2.4-8.7-8.1-14.5-17.3-15.7c-5.5-0.7-11.1-0.5-16.6-0.9
		c-4.4-0.3-6,1.5-5.9,5.9C362.8,279.8,362.7,288.7,362.7,297.7z"/>
	<path class="st2" d="M180.3,301.8c6.1,0,9.7,0.1,9.4,8c-0.2,7-2.2,8.5-9,8.5c-3.9,0-8,0-12,0c-6.2,0-9.9-0.4-9.4-8.1
		c0.3-5.9,1-8.4,8.1-8.4C169.7,301.7,178.4,301.8,180.3,301.8z"/>
</g>
</svg>
