<svg xmlns="http://www.w3.org/2000/svg" xml:space="preserve" id="Layer_1" x="0" y="0" style="enable-background:new 0 0 595.3 595.3" version="1.1" viewBox="0 0 595.3 595.3"><style>.st1{fill:#e47e3d}.st2{fill:#388dcc}</style><path d="M297.6 595.3C133.3 595.3 0 462 0 297.6 0 133.3 133.3 0 297.6 0 462 0 595.3 133.3 595.3 297.6c0 164.4-133.3 297.7-297.7 297.7" style="fill:#fff"/><path d="M281.4 240.9c16.2 6.8 26.7 17 30.3 35.1-8.3 0-16-.1-23.6 0-2.9 0-4.2-1.6-5.8-3.7-11.3-14.9-30.8-14.8-41.4 0-9.3 13-9.3 37.6 0 50.6 10.7 14.9 36.2 13.6 43.7-2 2.1-4.4 2.1-7-3.9-6.6-2.2.1-4.3 0-6.5 0-14-.2-12 1.8-12.6-12.1-.4-7.3 1.4-10.4 9.4-9.9 11.1.7 22.3.6 33.4 0 6.7-.3 8.3 2.1 8.2 8.3-.4 15-.1 30-.1 45 0 4 .8 9-5.7 9.4-5.7.4-13.3.4-13.3-7.9 0-1.8-.7-3.5-1.4-6.1-7.7 5.9-14.2 11.9-23.2 14-33 7.9-62.2-15-64.5-50.8-2.3-35.2 16.6-63.1 45.5-65.3 2.5.2 23.9-1.2 31.5 2M509.4 241c12.2 6 21.7 12.4 25 26 1.5 6.2.8 9.4-6.6 8.7-3.7-.4-7.5-.4-11.1 0-5.7.6-8.6-1.2-10.9-6.7-3.8-9-21.8-11.8-29.2-5-4.6 4.2-4 8.6.6 12.6 5.4 4.5 12.1 6 18.5 8.4 8.4 3.1 17.1 5.6 25.2 9.2 21.4 9.6 24.7 38 6.4 52.4-16.3 12.8-50.7 14.3-67.9 2.9-10.4-6.8-14.2-17.3-16-28.9-.5-3.7 1.6-4.1 4.3-4.1 6.2 0 12.4.2 18.6-.1 4.3-.2 4.7 2.6 5.7 5.7 4.1 12.8 25.2 18.6 35.4 9.8 6.4-5.5 4.1-13.6-4.9-16.9-11.3-4-23.1-7.1-34.2-11.5-12.1-4.8-21.2-12.8-22.4-26.9-1.4-17.2 7.3-30 24.6-35.5 12.4-3.8 30.7-4.1 38.9-.1" class="st1"/><path d="M57.8 296.1c5.9-23.2 27.3-34.8 51.1-30.3 26.8 4.9 35 25.8 35.6 46.9.2 5.8-3.5 5.5-7.3 5.5-14.9 0-29.7.2-44.6-.1-6.5-.1-8.3 1.7-6.1 8 4 11.2 17.3 14.4 26.2 5.9 3.6-3.4 23.7-6.5 27.7-4.2 3.5 2 .6 4.4-.1 6.2-6.9 16.4-27.9 26.1-48.5 22.6-17.1-2.9-28.7-12.2-33.8-28.9-2.3-8.5-2.5-22.2-.2-31.6m48 5.6c3.7 0 10.5.3 10.5-2.3 0-5.5-2.1-10.5-7.1-12.8-6.7-3.1-13.9-3.6-19.5 2.5-2.7 2.9-4 6.8-4 10.7 0 2.1 5.8 1.9 9 1.9 1.8.1 9.3 0 11.1 0" class="st2"/><path d="M333.5 297.5v-48.7c0-3.9-.1-7.5 5.6-7.3 17.6.6 35.3-1.4 52.8 1 23.8 3.3 38.3 18.1 41.3 41.7 1.2 9.1 1.3 18.3 0 27.5-3.1 24.3-19.5 40.2-44.4 41.6-16.4.9-32.8.2-49.2.6-6.2.1-6.2-3.3-6.1-7.6zm29.2.2c0 5.8-.1 11.7 0 17.4.4 16.6-3.6 14.9 15.3 14.8 14.4-.1 21.4-4.7 24.6-16.4 2.9-10.5 2.9-21.2-.1-31.8-2.4-8.7-8.1-14.5-17.3-15.7-5.5-.7-11.1-.5-16.6-.9-4.4-.3-6 1.5-5.9 5.9.1 8.8 0 17.7 0 26.7" class="st1"/><path d="M180.3 301.8c6.1 0 9.7.1 9.4 8-.2 7-2.2 8.5-9 8.5h-12c-6.2 0-9.9-.4-9.4-8.1.3-5.9 1-8.4 8.1-8.4 2.3-.1 11 0 12.9 0" class="st2"/></svg>