<?xml version="1.0" encoding="utf-8"?>
<!-- Generator: Adobe Illustrator 26.3.1, SVG Export Plug-In . SVG Version: 6.00 Build 0)  -->
<svg version="1.1" id="Layer_1" xmlns="http://www.w3.org/2000/svg" xmlns:xlink="http://www.w3.org/1999/xlink" x="0px" y="0px"
	 viewBox="0 0 595.3 595.3" style="enable-background:new 0 0 595.3 595.3;" xml:space="preserve">
<style type="text/css">
	.st0{fill:#FFFFFF;}
	.st1{fill:#01A3D5;}
	.st2{fill:#035B9A;}
</style>
<path class="st0" d="M297.6,595.3L297.6,595.3C133.3,595.3,0,462,0,297.6l0,0C0,133.3,133.3,0,297.6,0l0,0
	C462,0,595.3,133.3,595.3,297.6l0,0C595.3,462,462,595.3,297.6,595.3z"/>
<g>
	<path class="st1" d="M201.1,308.2c4.8-4.5,10.8-5.7,16.6-7.7c52.6-17.2,105.5-34.1,158.1-51.3c2.6-1,5.1-1.9,7.3-4.8
		c-18.2,3.2-36,6.4-54.2,9.6c-49.1,8.9-98.2,17.9-147.3,26.8c-4.8,1-9.2,1-13.1-3.8c-23-29.3-48.5-56.1-72.7-84.5
		c-3.5-4.1-11.2-8.3-8-14.3c2.9-5.1,10.2-1.9,15.6-1.3c107.4,8.9,214.9,17.9,322,26.8c24.5,1.9,49.1,3.8,73.6,6.1
		c3.2,0.3,7.3-0.3,8.6,3.5c1.3,3.8-2.2,5.7-4.5,8c-66,64.7-132,129.4-198,193.8c-7.3,7-10.8,6.7-18.8-1.9
		c-17.2-19.1-34.1-38.3-51.3-57.4c-1.3-4.1,4.8-8,0-13.1c-9.9-10.2-18.8-21.4-28.4-31.9C206.2,308.6,203.7,308.6,201.1,308.2z"/>
	<path class="st2" d="M201.1,308.2c2.6,0.3,5.1,0.3,7,2.6c9.2,10.8,18.5,21.7,28.4,31.9c4.5,4.8-1.3,8.6,0,13.1
		c-22.4,13.3-43.2,24.3-55.4,28.9c-5.2,1.9-26.2,13.7-29.8,9.7c-3.6-4,10.3-23.8,12.5-27.5C175.6,347.3,188.7,328,201.1,308.2z"/>
</g>
</svg>
