<svg xmlns="http://www.w3.org/2000/svg" width="596" height="596" fill="none"><g clip-path="url(#a)"><path fill="#fff" d="M297.6 595.3C133.3 595.3 0 462 0 297.6 0 133.3 133.3 0 297.6 0 462 0 595.3 133.3 595.3 297.6c0 164.4-133.3 297.7-297.7 297.7"/><path fill="#fff" d="M584.9 375.9c.5-2 1.1-4 1.6-6z"/><g clip-path="url(#b)"><path fill="#1A305A" fill-rule="evenodd" d="m128.896 266.552-3.32 6.551h7.229c3.976 0 7.229-.22 7.229-.49 0-.909-6.77-12.613-7.297-12.613-.286 0-2.014 2.948-3.841 6.552m408.208-1.148c-3.964 1.757-5.32 2.932-4.19 3.631 1.253.774-.727 5.991-7.898 20.813-5.264 10.879-9.864 19.784-10.225 19.789-.36.004-4.456-7.918-9.101-17.607l-8.448-17.616h-16.52V336h13.034l.362-19.328.363-19.327 7.457 15.396 7.459 15.397h10.763l6.331-13.431c3.483-7.387 9.039-19.168 12.349-26.179 4.247-9 6.558-12.542 7.857-12.044 1.503.578 1.64-.329.748-4.94-.6-3.107-1.117-6.384-1.148-7.285-.077-2.21-2.234-1.941-9.193 1.145m-353.174 9.195c-5.867 2.16-12.309 8.882-13.234 13.809-1.994 10.632 2.926 16.521 17.802 21.304 11.662 3.75 14.773 6.333 12.327 10.236-2.867 4.572-13.515 3.163-23.095-3.055l-4.89-3.175-3.245 6.402-3.243 6.401 8.134 4.378c7.375 3.969 9.173 4.38 19.272 4.409 8.291.025 12.241-.569 15.454-2.322 8.907-4.859 12.088-16.637 6.805-25.186-2.562-4.146-5.656-5.775-21.461-11.295-6.756-2.36-8.954-5.815-5.384-8.468 3.196-2.374 10.755-1.396 18.144 2.35 2.773 1.405 5.206 2.366 5.408 2.136.202-.231 1.685-3.032 3.297-6.226 2.81-5.571 2.833-5.877.549-7.546-5.892-4.307-25.459-6.797-32.64-4.152M47 304.522v30.168H95.627l-.4-6.224-.4-6.225-16.051-.368-16.052-.368v-10.402h28.828V298H62.724v-10.402l16.052-.368 16.051-.368v-11.793l-23.913-.358L47 274.355zm65.027-.709c-6.937 16.169-12.613 29.731-12.613 30.138 0 .406 3.543.739 7.872.739h7.873l2.097-5.242 2.097-5.241h25.638l2.097 5.241 2.098 5.242H166.139l-5.922-14.087a5947.39 5947.39 0 0 1-12.54-30.137l-6.618-16.052H124.64zm114.49.739v30.138h48.482v-13.104h-32.758v-10.483H271.068V298H242.241v-10.483h32.758v-13.103h-48.482zm58.965-.152v30.29h14.289l.389-8.19.391-8.19 5.913-.386 5.914-.387 4.23 8.576 4.228 8.577h17.273l-2.972-4.914a321.157 321.157 0 0 0-6.003-9.477c-3.682-5.541-3.726-6.178-.499-7.203 1.393-.441 3.824-3.468 5.4-6.726 3.45-7.125 3.027-17.101-.955-22.553-4.902-6.712-11.145-8.608-30.236-9.183l-17.362-.524zm77.623-28.237c-24.722 8.965-26.242 43.637-2.466 56.257 7.527 3.994 22.755 3.982 30.45-.023 19.172-9.984 22.519-36.173 6.456-50.522-7.768-6.94-23.749-9.589-34.44-5.712m65.766 1.371c-18.26 8.503-23.211 31.338-10.113 46.641 19.477 22.755 57.398 9.697 56.982-19.621-.125-8.894-2.371-14.734-7.959-20.693-9.083-9.687-25.841-12.413-38.91-6.327m109.657 15.945-6.702 13.961V336H544.828l.377-27.845c.209-15.314.299-28.023.202-28.24-.098-.218-3.193 5.886-6.879 13.564m-238.091-6.071c-.298.301-.541 4.575-.541 9.5v8.954h8.517c9.728 0 13.758-2.601 13.758-8.88 0-6.898-2.978-9.192-12.558-9.681-4.75-.241-8.879-.193-9.176.107m69 1.095c-9.7 4.945-13.112 15.767-7.897 25.047 5.571 9.909 17.252 12.028 25.063 4.544 9.971-9.552 6.158-27.006-6.68-30.572-5.917-1.643-5.212-1.71-10.486.981m70.197-.975c-7.175 2.201-12.636 9.552-12.636 17.011 0 6.606 4.74 14.351 10.17 16.62 15.355 6.415 28.594-10.366 20.511-25.999-3.384-6.542-11.041-9.781-18.045-7.632m-308.77 7.196c-3.45 8.833-6.553 17.054-6.553 17.362-.001.18 3.537.328 7.861.328s7.862-.181 7.862-.401c0-.22-1.718-5.086-3.817-10.811-3.816-10.406-3.817-10.408-5.353-6.478Z" clip-rule="evenodd"/></g><g clip-path="url(#c)"><path fill="#E5822F" fill-rule="evenodd" d="m128.896 266.552-3.32 6.551h7.229c3.976 0 7.229-.22 7.229-.49 0-.909-6.77-12.613-7.297-12.613-.286 0-2.014 2.948-3.841 6.552m408.208-1.148c-3.964 1.757-5.32 2.932-4.19 3.631 1.253.774-.727 5.991-7.898 20.813-5.264 10.879-9.864 19.784-10.225 19.789-.36.004-4.456-7.918-9.101-17.607l-8.448-17.616h-16.52V336h13.034l.362-19.328.363-19.327 7.457 15.396 7.459 15.397h10.763l6.331-13.431c3.483-7.387 9.039-19.168 12.349-26.179 4.247-9 6.558-12.542 7.857-12.044 1.503.578 1.64-.329.748-4.94-.6-3.107-1.117-6.384-1.148-7.285-.077-2.21-2.234-1.941-9.193 1.145m-353.174 9.195c-5.867 2.16-12.309 8.882-13.234 13.809-1.994 10.632 2.926 16.521 17.802 21.304 11.662 3.75 14.773 6.333 12.327 10.236-2.867 4.572-13.515 3.163-23.095-3.055l-4.89-3.175-3.245 6.402-3.243 6.401 8.134 4.378c7.375 3.969 9.173 4.38 19.272 4.409 8.291.025 12.241-.569 15.454-2.322 8.907-4.859 12.088-16.637 6.805-25.186-2.562-4.146-5.656-5.775-21.461-11.295-6.756-2.36-8.954-5.815-5.384-8.468 3.196-2.374 10.755-1.396 18.144 2.35 2.773 1.405 5.206 2.366 5.408 2.136.202-.231 1.685-3.032 3.297-6.226 2.81-5.571 2.833-5.877.549-7.546-5.892-4.307-25.459-6.797-32.64-4.152M47 304.522v30.168H95.627l-.4-6.224-.4-6.225-16.051-.368-16.052-.368v-10.402h28.828V298H62.724v-10.402l16.052-.368 16.051-.368v-11.793l-23.913-.358L47 274.355zm65.027-.709c-6.937 16.169-12.613 29.731-12.613 30.138 0 .406 3.543.739 7.872.739h7.873l2.097-5.242 2.097-5.241h25.638l2.097 5.241 2.098 5.242H166.139l-5.922-14.087a5947.39 5947.39 0 0 1-12.54-30.137l-6.618-16.052H124.64zm114.49.739v30.138h48.482v-13.104h-32.758v-10.483H271.068V298H242.241v-10.483h32.758v-13.103h-48.482zm58.965-.152v30.29h14.289l.389-8.19.391-8.19 5.913-.386 5.914-.387 4.23 8.576 4.228 8.577h17.273l-2.972-4.914a321.157 321.157 0 0 0-6.003-9.477c-3.682-5.541-3.726-6.178-.499-7.203 1.393-.441 3.824-3.468 5.4-6.726 3.45-7.125 3.027-17.101-.955-22.553-4.902-6.712-11.145-8.608-30.236-9.183l-17.362-.524zm77.623-28.237c-24.722 8.965-26.242 43.637-2.466 56.257 7.527 3.994 22.755 3.982 30.45-.023 19.172-9.984 22.519-36.173 6.456-50.522-7.768-6.94-23.749-9.589-34.44-5.712m65.766 1.371c-18.26 8.503-23.211 31.338-10.113 46.641 19.477 22.755 57.398 9.697 56.982-19.621-.125-8.894-2.371-14.734-7.959-20.693-9.083-9.687-25.841-12.413-38.91-6.327m109.657 15.945-6.702 13.961V336H544.828l.377-27.845c.209-15.314.299-28.023.202-28.24-.098-.218-3.193 5.886-6.879 13.564m-238.091-6.071c-.298.301-.541 4.575-.541 9.5v8.954h8.517c9.728 0 13.758-2.601 13.758-8.88 0-6.898-2.978-9.192-12.558-9.681-4.75-.241-8.879-.193-9.176.107m69 1.095c-9.7 4.945-13.112 15.767-7.897 25.047 5.571 9.909 17.252 12.028 25.063 4.544 9.971-9.552 6.158-27.006-6.68-30.572-5.917-1.643-5.212-1.71-10.486.981m70.197-.975c-7.175 2.201-12.636 9.552-12.636 17.011 0 6.606 4.74 14.351 10.17 16.62 15.355 6.415 28.594-10.366 20.511-25.999-3.384-6.542-11.041-9.781-18.045-7.632m-308.77 7.196c-3.45 8.833-6.553 17.054-6.553 17.362-.001.18 3.537.328 7.861.328s7.862-.181 7.862-.401c0-.22-1.718-5.086-3.817-10.811-3.816-10.406-3.817-10.408-5.353-6.478Z" clip-rule="evenodd"/></g></g><defs><clipPath id="a"><path fill="#fff" d="M0 0h595.3v595.3H0z"/></clipPath><clipPath id="b"><path fill="#fff" d="M47 260h232v76H47z"/></clipPath><clipPath id="c"><path fill="#fff" d="M279 260h269v76H279z"/></clipPath></defs></svg>