<?xml version="1.0" encoding="utf-8"?>
<!-- Generator: Adobe Illustrator 26.3.1, SVG Export Plug-In . SVG Version: 6.00 Build 0)  -->
<svg version="1.1" id="Layer_1" xmlns="http://www.w3.org/2000/svg" xmlns:xlink="http://www.w3.org/1999/xlink" x="0px" y="0px"
	 viewBox="0 0 595.3 595.3" style="enable-background:new 0 0 595.3 595.3;" xml:space="preserve">
<style type="text/css">
	.st0{fill:#FFFFFF;}
	.st1{fill:#01A3D5;}
	.st2{fill:#035B9A;}
	.st3{fill:#383330;}
</style>
<path class="st0" d="M297.6,595.3L297.6,595.3C133.3,595.3,0,462,0,297.6v0C0,133.3,133.3,0,297.6,0h0
	C462,0,595.3,133.3,595.3,297.6v0C595.3,462,462,595.3,297.6,595.3z"/>
<g>
	<path class="st1" d="M274.4,253.1c1.5-1.4,3.4-1.8,5.2-2.4c16.5-5.4,33.1-10.7,49.6-16.1c0.8-0.3,1.6-0.6,2.3-1.5
		c-5.7,1-11.3,2-17,3c-15.4,2.8-30.8,5.6-46.2,8.4c-1.5,0.3-2.9,0.3-4.1-1.2c-7.2-9.2-15.2-17.6-22.8-26.5c-1.1-1.3-3.5-2.6-2.5-4.5
		c0.9-1.6,3.2-0.6,4.9-0.4c33.7,2.8,67.4,5.6,101,8.4c7.7,0.6,15.4,1.2,23.1,1.9c1,0.1,2.3-0.1,2.7,1.1c0.4,1.2-0.7,1.8-1.4,2.5
		c-20.7,20.3-41.4,40.6-62.1,60.8c-2.3,2.2-3.4,2.1-5.9-0.6c-5.4-6-10.7-12-16.1-18c-0.4-1.3,1.5-2.5,0-4.1c-3.1-3.2-5.9-6.7-8.9-10
		C276,253.2,275.2,253.2,274.4,253.1z"/>
	<path class="st2" d="M274.4,253.1c0.8,0.1,1.6,0.1,2.2,0.8c2.9,3.4,5.8,6.8,8.9,10c1.4,1.5-0.4,2.7,0,4.1
		c-15.5,9.2-32.6,13.2-50.3,15.5c-18.3,2.4-36.8,2.6-55.1,4.3c-13.7,1.3-27.4,2.9-40.1,9.1c-2.8,1.3-5.4,2.9-7.9,4.7
		c-0.8,0.6-1.5,1.5-3,0.8c5.3-6.4,11.8-11,19.1-14.5c10.4-5.1,21.5-7.4,32.9-8.8c16.6-2,33.3-1.6,50-2.5c9.6-0.5,19.1-1.1,28.5-2.9
		c1.5-0.3,2.3-0.9,3.1-2.2C266.5,265.4,270.5,259.3,274.4,253.1z"/>
	<g>
		<path class="st2" d="M246.9,342.1c2.8-13.2,6.3-25.5,10.1-37.8c0.9-2.8,1.8-5.7,2.5-8.6c0.4-1.4,1-2,2.6-1.9
			c3.9,0.1,7.8,0.1,11.8,0c1.8-0.1,2.2,0.6,2.3,2.3c1.1,20.6,2.3,41.2,3.5,61.7c0.1,1.5-0.1,2.3-1.9,2.3c-3.2-0.1-7.1,1-9.4-0.4
			c-2.5-1.6-1.1-5.9-1.3-9c-0.7-13.6-1.5-27.2-1.5-41c-0.9,0.4-0.9,1.3-1.1,1.9c-3.7,15.2-8.7,30-13,45c-0.5,1.8-1.3,2.4-3.2,2.4
			c-7.3,0-7.3,0.1-9.3-6.9c-3.8-13.9-8-27.6-10.7-42c-1.1,0.9-0.8,1.9-0.8,2.8c-0.7,14.8-1.5,29.7-2.1,44.5
			c-0.1,1.9-0.4,2.8-2.6,2.6c-2.3-0.2-4.5-0.1-6.8,0c-1.9,0.1-2.5-0.4-2.4-2.4c1.1-15.7,2.2-31.5,3.2-47.2c0.3-4.6,0.8-9.2,0.9-13.9
			c0-2.4,0.9-2.9,3.1-2.8c3.3,0.2,6.6,0.2,9.9,0c2.3-0.1,3.3,0.5,4,2.9c4,14.3,8.4,28.4,11.3,43
			C246.3,340.3,246.5,340.9,246.9,342.1z"/>
		<path class="st2" d="M35.7,327.2c0-10.2,0-20.4,0-30.6c0-1.9,0.4-2.7,2.5-2.6c10.3,0.1,20.6,0.1,30.9,0c2,0,2.5,0.6,2.4,2.4
			c-0.2,1.8-0.2,3.7,0,5.6c0.3,2.3-0.7,2.7-2.8,2.6c-5.9-0.1-11.7,0-17.6-0.1c-1.9,0-2.7,0.3-2.6,2.5c0.2,3.8,0.1,7.6,0,11.4
			c-0.1,1.8,0.5,2.3,2.2,2.2c5.7-0.1,11.3,0,17-0.1c1.7,0,2.5,0.2,2.5,2.3c0.1,8.2,0.2,8.2-8.1,8.2c-3.9,0-7.8,0.1-11.7,0
			c-1.5,0-2,0.5-1.9,1.9c0.1,4.8,0.1,9.7,0,14.5c0,1.9,0.8,2.2,2.4,2.1c6.5-0.1,13,0,19.5-0.1c1.9,0,2.6,0.4,2.5,2.4
			c-0.2,2.7,0.8,6.1-0.5,7.8c-1.4,1.7-5,0.5-7.6,0.5c-8.7,0.1-17.3-0.1-26,0.1c-2.5,0.1-3-0.8-3-3.1
			C35.8,347.2,35.7,337.2,35.7,327.2z"/>
		<path class="st2" d="M308.8,344.7c1.9-7.9,3.8-15.8,5.7-23.7c0.7-3,0.4-7,2.6-8.5c2.1-1.4,5.8-0.4,8.7-0.5c1.2,0,2.4,0,4,0
			c-2.1,6.4-4.1,12.6-6.1,18.7c-3.8,11.8-7.3,23.8-13,34.9c-3.6,6.9-8.5,12.3-16,15.1c-2.2,0.8-3.3,0.5-3.9-1.9
			c-0.5-2.5-2.3-5.1-1.9-7.3c0.4-2.1,3.9-2.4,5.8-3.9c1.6-1.2,2.9-2.5,4.2-4.1c2.3-2.8,2.9-5.5,1.5-9.1c-5-13.1-9.7-26.4-14.6-39.6
			c-0.9-2.5-0.4-3,2.1-2.9c2.8,0.2,5.6,0.2,8.3,0c2-0.1,2.8,0.5,3.3,2.5c2.6,9.7,5.3,19.4,8,29.2
			C307.9,344.1,307.8,344.5,308.8,344.7z"/>
		<path class="st2" d="M347.8,332.5c0-8.3-0.1-16.7,0-25c0-2-0.5-2.7-2.6-2.7c-3.9,0.1-7.8,0-11.7,0.1c-1.5,0-2.1-0.4-2.2-2.1
			c-0.4-8.9-0.4-8.9,8.3-8.9c11.5,0,23.1,0.1,34.6,0c2.1,0,3,0.5,2.7,2.7c-0.3,2.6,1.1,6.1-0.6,7.7c-1.7,1.7-5.1,0.4-7.8,0.5
			c-1.9,0.1-3.7,0.2-5.6,0c-2.3-0.2-2.7,0.8-2.7,2.8c0.1,16.5,0,33,0.1,49.5c0,2.4-0.6,3.3-3.1,3c-3.1-0.3-7.1,1.2-9-0.5
			c-2-2-0.6-6-0.6-9.2C347.8,344.4,347.8,338.5,347.8,332.5z"/>
		<path class="st2" d="M137.8,361c-2.9,0-6.4-0.7-9.8-2.1c-1.3-0.6-1.9-1.3-1.4-2.8c0.8-2.1,0.6-5,2-6.3c1.7-1.6,3.9,1.1,6.1,1.5
			c2.6,0.4,5.1,0.8,7.7,0.4c1.8-0.3,3.3-1.2,3.8-3.1c0.5-2,0.2-4-1.5-5.3c-1.3-1-2.8-1.7-4.2-2.5c-1.9-1-3.9-1.8-5.8-2.9
			c-5.3-3.1-8.1-7.6-7-13.9c1-6.3,5.1-10,10.9-11.8c5.4-1.6,10.8-1,16.1,0.7c1.7,0.5,2.3,1.3,1.6,3.2c-0.7,1.9-0.6,4.5-1.8,5.8
			c-1.7,1.9-3.5-1-5.4-1.1c-2,0-4.1-0.6-6.1-0.1c-1.7,0.5-3,1.4-3.4,3.2c-0.4,1.7,0.1,3.2,1.5,4.4c1.6,1.3,3.5,2.2,5.4,2.9
			c2.2,0.9,4.4,1.8,6.3,3.3c4.5,3.4,6.5,7.9,5.8,13.5c-0.7,5.6-3.9,9.4-9.1,11.5C146,360.8,142.3,361.4,137.8,361z"/>
		<path class="st2" d="M395.2,320c2.5-5,6-8.4,11.8-8.9c2.3-0.2,3.1,0.4,3,2.8c-0.2,2.7-0.1,5.4,0,8c0,0.9,0,1.4-1.3,1.3
			c-7.5-0.8-12.1,3.6-12.2,12.3c0,7.2-0.1,14.4,0,21.6c0,2.3-0.5,3.1-2.9,2.9c-2.6-0.2-5.2-0.1-7.7,0c-1.6,0.1-2.1-0.6-2.1-2.1
			c0-14.6,0.3-29.3-0.4-43.9c-0.1-1.6,0.5-2.3,2.1-2.1c0.3,0,0.6,0,0.9,0c2.5,0,5.4-0.7,7.3,0.3c2,1.1,0.5,4.4,1.1,6.6
			C394.7,319.3,394.9,319.5,395.2,320z"/>
		<path class="st2" d="M429.7,336.4c0,7.1-0.1,14.2,0,21.3c0,1.8-0.4,2.6-2.4,2.5c-2.8-0.2-5.6-0.1-8.3,0c-1.6,0.1-2.2-0.4-2.2-2.1
			c0.1-14.6,0.1-29.3,0-43.9c0-1.6,0.5-2.2,2.1-2.1c2.8,0.1,5.6,0.1,8.3,0c1.9-0.1,2.5,0.5,2.4,2.4
			C429.6,321.7,429.7,329,429.7,336.4z"/>
		<path class="st2" d="M423.3,305.7c-4,0-6.8-2.8-6.9-6.8c0-4,2.7-6.8,6.8-6.8c4,0,6.8,2.8,6.9,6.8
			C430.2,302.9,427.4,305.7,423.3,305.7z"/>
		<path class="st2" d="M482.4,321.9c-5.7-12.7-19.5-14.6-28.9-4.3c-0.2,0.2-0.5,0.2-0.8,0.4c-1-6-1-6-7.2-6c-0.7,0-1.5,0.1-2.2,0
			c-2.1-0.3-2.6,0.6-2.5,2.6c0.6,13.3,0.3,26.6,0.3,39.9c0,7.4,0.1,14.9,0,22.3c0,2.2,0.7,2.8,2.8,2.7c2.4-0.2,4.8-0.2,7.1,0
			c2.2,0.2,3-0.4,2.9-2.8c-0.2-6.8-0.1-13.5-0.1-21c2.4,2.3,4.3,3.9,6.9,4.6c8.4,2.4,16.7-1.1,20.8-9.1
			C486.6,341.6,486.7,331.6,482.4,321.9z M470.3,346.2c-1.8,3.7-5.1,5.4-8.8,4.9c-3.7-0.5-6.4-3.1-7.1-7.1
			c-0.9-4.7-0.6-9.4-0.2-14.2c0.1-1.4,0.7-2.8,1.4-4c3.1-5.6,10.3-6,14-0.7c2.3,3.4,2.7,7.2,2.8,9.5
			C472.4,339.7,471.9,343.1,470.3,346.2z"/>
		<path class="st2" d="M118,356c-0.2-1.9-0.2-3.9-0.2-5.9c0-6.9,0.1-13.8-0.1-20.7c-0.3-10.7-5.6-16.7-15.8-18
			c-4.5-0.6-9-0.1-13.5,1.2c-6.8,2.1-6.8,2-4.6,8.7c0,0.1,0.1,0.2,0.1,0.3c0.3,1.3,0.8,1.9,2.3,1.1c2.9-1.6,6.2-2.2,9.5-2.5
			c5.2-0.4,8.6,1.9,9.1,6.2c0.2,1.7-0.1,2.3-2,2.3c-5.3,0.2-10.4,1.1-15.2,3.6c-6.4,3.3-9.9,10.2-8.6,16.9c1.4,7,6.2,11.4,13.5,11.8
			c5.2,0.3,9.7-1.4,14.2-6.4c-1.1,6.3,2.5,5.6,5.6,5.5c0.7,0,1.4,0,2.2,0C118.4,360.1,118.4,360.1,118,356z M102.7,349.9
			c-2.9,2.8-7.8,2.7-10,0c-2.4-3-1.6-8.2,1.6-10.5c2.9-2,6.3-2.3,9.7-2.6c1.1-0.1,1.4,0.5,1.4,1.5c0,1,0,2.1,0,3.6
			C105.6,344.6,105.2,347.6,102.7,349.9z"/>
		<path class="st2" d="M179.3,340.1c4,0.2,8,0,12.1,0c1.6,0,3.3,0,4.9,0c10.4,0,10.4,0,9.3-10.5c-1-9.6-6.4-16.3-14.6-18.1
			c-8.8-2-17.7,1.9-22.4,10.1c-4.4,7.6-5,15.8-2.6,24.2c2.2,8,7.5,12.8,15.5,14.6c6.1,1.3,12.1,0.8,18-0.6c1.4-0.3,3.7-0.4,3.7-2.1
			c0-2.6-0.9-5.2-1.6-7.8c-0.2-0.6-1.3-0.1-2,0.1c-3.2,0.9-6.5,1.4-9.8,1.4c-6.5,0.1-11.5-3.4-12.6-8.7
			C176.9,340.9,177.1,340,179.3,340.1z M177.2,328.9c1.2-6.5,6.2-10.2,11.5-8.4c3.2,1.1,6.3,6.8,5.5,9.8c-0.3,1.1-1.1,0.7-1.7,0.7
			c-1.1,0-2.3,0-3.4,0c-1.1,0-2.3,0-3.4,0c-1.6,0-3.2-0.1-4.9,0c-0.5,0-1.1,0-1.6,0.1C177.5,331.3,176.9,330.7,177.2,328.9z"/>
	</g>
	<g>
		<path class="st3" d="M524.5,369c1.5-1.6,2.9-3.3,4.5-4.9c0.8-0.8,1.7-1.7,3-1.3c1.4,0.5,1.6,1.9,1.6,3.1c0.1,3.2,0,6.4,0,10.3
			c2.2-3.1,4-5.6,5.9-8c1-1.3,2-2.7,3.1-3.8c1.2-1.2,2.6-2.2,4.4-1.4c1.8,0.8,2.1,2.4,2.1,4.1c-0.1,3.1-0.5,6.2-0.6,9.2
			c0,1.5-0.9,3.7,0.9,4.5c1.8,0.7,3.2-1,4.5-2.2c1.4-1.4,2.7-2.8,4-4.3c0.4-0.4,0.8-0.7,1.3-0.3c0.5,0.4,0.4,0.9,0.1,1.4
			c-2.4,3.6-5.4,6.6-9.4,8.2c-2.3,0.9-3.9-0.5-4.6-3.2c-0.9-3.6,0.2-7.2,0.1-10.8c0-1.2,0.7-2.9-0.6-3.4c-1.5-0.6-2.2,1.2-2.9,2.2
			c-2.7,3.5-4.9,7.3-7,11.2c-0.5,0.9-0.9,2.3-2,2c-1-0.2-0.9-1.6-1.1-2.6c-0.5-3.4-0.6-6.8-0.6-10.2c0-0.8,0.6-2.1-0.6-2.4
			c-1-0.3-1.5,0.9-2.1,1.6c-2.8,3.5-5.2,7.4-7.3,11.4c-0.3,0.5-0.5,1.1-0.9,1.6c-0.5,0.7-1,1.5-1.9,1.3c-1.2-0.4-0.9-1.5-0.8-2.4
			c0.9-5.8,1.9-11.6,3.5-17.2c0.3-0.9,0.6-1.8,1.3-2.4c1.1-0.8,2.5-1.5,3.7-0.7c1.3,0.8,0.3,2.1,0,3.1
			C525.5,364.7,524.4,366.6,524.5,369z"/>
		<path class="st3" d="M473.2,382.1c-1.6-0.1-2.4-0.8-2.4-2.1c0-1.1,0.1-2.4,1.7-2.4c1.3,0,2.1,0.9,2.2,2.1
			C474.7,380.8,474.5,382,473.2,382.1z"/>
		<path class="st3" d="M514.2,367.8c-0.9-5.1-5.1-6.5-9.1-3.1c-1.9,1.6-2.9,3.7-3.9,5.9c-1.7,4-4.3,7.3-8.3,9.1
			c-4.3,2-7.1,0-7.1-4.7c0-2.8,0.8-5.5,2.2-7.9c0.8-1.4,1.8-3.3,3.7-2.7c2.1,0.7,0.8,2.6,0.5,4c-0.1,0.6-0.5,1.3,0.3,1.5
			c0.7,0.2,1.2-0.4,1.5-0.9c1.1-1.8,1.3-3.7,0.4-5.6c-0.8-1.7-2.5-1.6-4-1.5c-2.4,0.1-4.4,1.3-5.8,3.2c-2.7,3.6-3.7,7.8-2.8,12.3
			c1,4.9,4.7,6.8,9.5,5.3c3.4-1,6-3.1,8.6-5.9c0.9,7.3,6.1,7.7,9.8,4.3C513.6,377.5,515.1,372.9,514.2,367.8z M508.9,379.3
			c-0.9,0.8-2,1.7-3.3,1.1c-1.3-0.6-1.6-1.8-1.7-3.1c-0.2-2.8,0.4-5.3,1.8-7.7c1-1.7,2.1-3.7,4.4-3.1c2.3,0.6,1.8,2.9,2,4
			C512.1,374.3,511.3,377.1,508.9,379.3z"/>
	</g>
</g>
</svg>
