<?xml version="1.0" encoding="utf-8"?>
<!-- Generator: Adobe Illustrator 26.3.1, SVG Export Plug-In . SVG Version: 6.00 Build 0)  -->
<svg version="1.1" id="Layer_1" xmlns="http://www.w3.org/2000/svg" xmlns:xlink="http://www.w3.org/1999/xlink" x="0px" y="0px"
	 viewBox="0 0 595.3 595.3" style="enable-background:new 0 0 595.3 595.3;" xml:space="preserve">
<style type="text/css">
	.st0{fill:#FFFFFF;}
	.st1{fill:#1B9CD8;}
</style>
<path class="st0" d="M297.6,595.3L297.6,595.3C133.3,595.3,0,462,0,297.6v0C0,133.3,133.3,0,297.6,0h0
	C462,0,595.3,133.3,595.3,297.6v0C595.3,462,462,595.3,297.6,595.3z"/>
<g id="Ds47m7_00000076568617826739222680000001835739977242988928_">
	<g>
		<path class="st1" d="M107.3,288.1c4-4.4,8.5-6.3,13.7-6.7c8.7-0.7,16.7,3.1,20.3,11.2c5.4,12.3,5.3,24.7-3.2,35.6
			c-8.9,11.3-25.6,10.9-32.4,1.6c-0.1-0.1-0.3-0.2-0.5-0.2c-0.1,0.1-0.4,0.2-0.4,0.4c-1.3,5.4-1.3,5.4-6.8,5.4c-7.8,0-7.8,0-7.8-7.8
			c0-21.5,0-43,0-64.5c0-4.4,0-4.4,4.3-4.4c3.1,0,6.2,0.1,9.3,0c2.5-0.1,3.3,0.9,3.3,3.4c-0.1,7.8,0,15.7,0,23.5
			C107,286.1,107.1,286.7,107.3,288.1z M127.6,308.6c-0.1-1.3,0-2.6-0.2-3.9c-0.8-6.4-5.4-10.7-10.9-10.3c-6,0.4-9.4,4.5-9.5,11.4
			c0,2.5,0,5,0,7.5c0.1,4.9,3.2,8.9,7.4,9.8c5.1,1.1,9.3-1.1,11.6-5.9C127.3,314.4,127.6,311.5,127.6,308.6z"/>
		<path class="st1" d="M281.9,302.8c4.1-6.1,8-11.9,11.8-17.8c1.3-2,2.8-2.9,5.2-2.8c4.4,0.2,8.8,0,13.3,0.1c0.9,0,2-0.4,2.4,0.7
			c0.3,0.9-0.6,1.4-1.1,2c-4.9,5.5-9.7,11-14.6,16.5c-1.6,1.8-1.8,3.2-0.4,5.3c5.9,8.5,11.7,17.1,17.5,25.6c0.5,0.8,1.6,1.6,1,2.6
			c-0.5,0.9-1.6,0.5-2.5,0.5c-4.6,0-9.2-0.1-13.9,0c-2.1,0.1-3.4-0.7-4.4-2.5c-3.1-5.5-6.4-10.9-9.5-16.4c-1.1-1.9-2-2.2-3.4-0.3
			c-1.2,1.6-2,3.2-1.9,5.2c0.1,3.7,0,7.4,0,11.2c0,2-0.8,2.9-2.9,2.9c-3.7-0.1-7.4-0.1-11.2,0c-2,0-2.9-0.8-2.9-2.8
			c0.1-3.9,0-7.8,0-11.8c0-19.3,0-38.6,0-57.9c0-4.2,0.1-4.2,4.2-4.2c3,0,6,0.1,9,0c2.7-0.1,3.7,1,3.7,3.7c-0.1,12.3,0,24.5,0,36.8
			C281.4,300.2,281.1,301.3,281.9,302.8z"/>
		<path class="st1" d="M232.7,336.6c-15.4,0-26.7-11.3-26.7-27.1c0.1-18.6,13.1-28.1,28.2-28.2c15.3-0.1,27.1,10.5,27.2,26.7
			C261.6,325.4,250.3,336.5,232.7,336.6z M244,308.7c0.2-3.3-0.3-6.8-1.9-10c-3.2-6.6-11.5-7.3-15.8-1.3c-3.8,5.3-3.8,17.4,0,22.8
			c4.1,5.9,11.7,5.7,15.4-0.5C243.6,316.4,244.1,312.7,244,308.7z"/>
		<path class="st1" d="M176.3,281.5c14.8-0.7,27.2,9.9,27.1,27c-0.1,17.6-11.7,28.3-29.2,28.1c-15.3-0.1-26.2-11.5-26.2-27.5
			C147.9,291.2,161.6,280.5,176.3,281.5z M165.5,308.9c-0.1,3.9,0.4,8,2.8,11.5c3.7,5.4,11.6,5.4,14.9-0.2
			c4.2-7.2,4.1-14.9,0.3-22.2c-3-5.9-10.3-6.3-14.6-1.3C165.9,300.1,165.4,304.3,165.5,308.9z"/>
		<path class="st1" d="M68.9,314.3c-4.7,0-9.4,0-14.2,0c-2.6,0-3.1,0.9-1.9,3.2c2.3,4.4,6.4,5.9,11,6.2c4.8,0.3,9.7,0.3,14.3-1.2
			c2.2-0.7,3.2,0,3.5,2.2c0.2,1.4,0.5,2.8,0.8,4.1c0.8,4.3,0.6,4.7-3.4,5.8c-7.7,2.1-15.4,2.6-23.3,1c-11.2-2.4-17.9-9.7-19.8-21.8
			c-2.1-13.5,5.1-27.1,17.4-31c16.7-5.3,31,2.8,32.5,21.3c0.2,2.3,0.1,4.6,0.1,6.9c-0.1,2.6-1.2,3.3-3.6,3.2
			C78,314.2,73.4,314.3,68.9,314.3C68.9,314.3,68.9,314.3,68.9,314.3z M61.2,302.7c2.4,0,4.8,0,7.2,0c1.7,0,2.3-0.6,2-2.4
			c-0.9-5-4.1-7.8-9.2-7.7c-4.3,0.1-8.5,3.9-9.1,8.2c-0.2,1.6,0.5,1.9,1.8,1.9C56.4,302.7,58.8,302.7,61.2,302.7z"/>
		<path class="st1" d="M345,314.3c-4.7,0-9.4,0-14.2,0c-2.6,0-3.1,0.8-1.9,3.1c2.4,4.5,6.5,6.1,11.2,6.4c4.7,0.3,9.5,0.3,14-1.2
			c2.3-0.7,3.4,0,3.7,2.3c0.1,0.7,0.2,1.4,0.4,2.1c1.4,6.7,1.4,6.8-5.4,8.3c-6.6,1.5-13.3,1.8-20,0.5c-11-2-18.4-9.2-20.3-20.3
			c-1.8-11.2,0.6-21.4,9.8-28.7c8.3-6.6,17.9-7.2,27.3-3c8.6,3.8,12.1,11.7,12.4,20.6c0.4,12.4,1.3,9.6-9.3,9.9
			C350.3,314.4,347.6,314.3,345,314.3z M337.2,302.7c2.5,0,5,0,7.5,0c1.8,0,2.2-0.8,1.9-2.5c-1-5-4.1-7.7-9.3-7.7
			c-4.2,0.1-8.4,4-9,8.3c-0.2,1.4,0.4,1.8,1.6,1.8C332.4,302.7,334.8,302.7,337.2,302.7z"/>
		<path class="st1" d="M419,336.6c-5.1,0.2-9.7-0.8-14.2-2.4c-2-0.7-3-1.8-2.2-4.1c0.9-2.7,0.5-6.3,2.5-7.9c2.3-1.8,5,1.3,7.7,1.7
			c3.3,0.4,6.5,1.5,9.8,0.5c1.7-0.5,2.8-1.5,3-3.3c0.2-1.8-0.4-3.3-2.1-4c-3.2-1.4-6.5-2.7-9.7-4.1c-7.3-3.3-10.9-8.5-10.6-15.3
			c0.3-5.4,3-9.6,7.5-12.4c8.8-5.5,18-4.5,27.3-1.5c1.5,0.5,1.6,1.6,1.2,2.9c-0.6,2.2-1.2,4.5-1.8,6.7c-0.4,1.8-1.4,2.1-3.1,1.5
			c-3.3-1.3-6.7-2.2-10.3-1.7c-1.9,0.2-3.9,0.6-4.4,2.9c-0.6,2.5,1,3.7,2.9,4.7c3.5,1.8,7.3,2.8,10.8,4.7c6.5,3.5,9.5,8.9,8.6,16.1
			c-0.8,6.9-5.3,11-11.7,13.2C426.5,336.1,422.6,336.8,419,336.6z"/>
		<path class="st1" d="M381.5,290.7c3.8-5.5,8.2-9.1,14.9-9.5c2.3-0.1,3.4,0.5,3.4,2.9c-0.1,3.5-0.1,7,0,10.6c0,1.7-0.6,2.4-2.3,2.2
			c-1-0.1-2-0.1-3-0.1c-6.3,0.3-10.3,4.4-10.4,10.6c-0.1,8-0.1,16.1,0,24.1c0,2.8-0.8,4-3.8,3.9c-3.4-0.2-6.8-0.1-10.2,0
			c-2,0-3-0.7-3-2.8c0-15.9,0-31.8-0.1-47.6c0-1.9,0.8-2.8,2.7-2.7c2.9,0,5.8,0.1,8.7,0c2.2-0.1,3.1,1.1,3.1,3.1
			C381.5,287.1,381.5,288.9,381.5,290.7z"/>
		<path class="st1" d="M516.6,319.9c0-3.9,0-7.8,0-11.8c0-1.3-0.2-2.8,1.7-3c1.5-0.2,3-0.2,3.3,2c0.3,1.9,1.3,1,2,0.3
			c2-1.7,4.2-2.8,6.8-2.9c3.2-0.2,6,0.8,7.9,3.5c0.8,1.1,1.4,1.9,2.7,0.4c3.3-3.7,7.5-5.1,12.2-3.2c4.7,1.9,6.2,6.1,6.3,10.8
			c0.1,5.4,0,10.9,0.1,16.3c0,1.9-0.5,3-2.7,3c-2.3,0-2.9-1.1-2.9-3.2c0.1-4.4,0-8.8,0-13.3c0-1.7-0.1-3.4-0.7-5.1
			c-0.8-2.5-2.2-4.3-5-4.4c-2.9-0.1-5.1,1-6.3,3.7c-0.8,1.9-1.1,3.8-1.1,5.9c0,4.5-0.1,9,0,13.6c0,2.1-0.8,2.9-2.9,2.8
			c-2,0-2.7-0.9-2.7-2.8c0-4.2,0-8.4,0-12.7c0-1.4,0-2.8-0.1-4.2c-0.4-4-2.3-6.2-5.6-6.3c-3.5-0.1-6.6,2.5-6.9,6.3
			c-0.3,3.4-0.1,6.8-0.2,10.2c0,2.1,0,4.2,0,6.3c0,2.1-0.8,3.1-3,3.1c-2.3,0-3-1-3-3.1C516.7,328.2,516.7,324.1,516.6,319.9
			C516.7,319.9,516.7,319.9,516.6,319.9z"/>
		<path class="st1" d="M481,320.4c-0.1-6.7,2.6-11.7,8.6-14.7c5.3-2.6,11.9-1.4,16,2.5c4.7,4.4,6,13.2,3,19.7
			c-2.7,5.8-8.5,8.8-15.5,8C485.9,335.1,481,328.9,481,320.4z M487.1,320.4c0.1,1.1,0,2.2,0.2,3.3c0.6,4.1,3.7,7.4,7.3,7.8
			c3.7,0.5,6.9-1.6,8.7-5.6c1.7-3.8,1.6-7.6,0.1-11.4c-1.4-3.5-3.9-5.2-7.6-5.3c-3.8-0.1-6.2,1.9-7.7,5.2
			C487.1,316.4,487.1,318.4,487.1,320.4z"/>
		<path class="st1" d="M470.6,336c-9,0-15.3-6.2-15.5-14.9c-0.2-9.1,6.3-16,15.6-16.5c1.9-0.1,3.8,0.1,5.7,0.6
			c1.6,0.4,2.8,0.9,2.2,3.1c-0.6,2-1.6,2-3.4,1.6c-9.6-2.2-16.2,4.6-13.7,14.1c1.5,5.5,6.6,8.2,13.2,6.9c1.5-0.3,3.1-1.3,3.7,1.3
			c0.6,2.5-1.1,2.9-2.8,3.3C473.9,335.8,472.1,336.1,470.6,336z"/>
		<path class="st1" d="M446.4,336c-2.7,0.1-4.5-1.7-4.6-4.4c-0.1-2.8,1.8-4.9,4.6-4.9c2.5,0,4.5,2,4.5,4.6
			C450.9,334,449,335.9,446.4,336z"/>
	</g>
</g>
</svg>
