<?xml version="1.0" encoding="utf-8"?>
<!-- Generator: Adobe Illustrator 26.3.1, SVG Export Plug-In . SVG Version: 6.00 Build 0)  -->
<svg version="1.1" id="Layer_1" xmlns="http://www.w3.org/2000/svg" xmlns:xlink="http://www.w3.org/1999/xlink" x="0px" y="0px"
	 viewBox="0 0 595.3 595.3" style="enable-background:new 0 0 595.3 595.3;" xml:space="preserve">
<style type="text/css">
	.st0{fill:#1B9CD8;}
	.st1{fill:#FFFFFF;}
</style>
<path class="st0" d="M297.6,595.3L297.6,595.3C133.3,595.3,0,462,0,297.6l0,0C0,133.3,133.3,0,297.6,0l0,0
	C462,0,595.3,133.3,595.3,297.6l0,0C595.3,462,462,595.3,297.6,595.3z"/>
<path class="st1" d="M359.8,338.9c-35.7,0-71.5,0-108,0c-19.8,0-23.6,6.8-14.5,24.3c17.5,33.5,48.7,44.9,83.7,47.2
	c36.5,2.3,73.8,2.3,108.8-9.1c16.7-5.3,24.3,0,26.6,16.7c1.5,10.6,3.8,21.3,6.1,31.2c6.1,32.7,4.6,35.7-25.9,44.1
	c-58.6,16-117.1,19.8-177.2,7.6c-85.2-18.3-136.1-73.8-150.6-165.8C92.8,232.4,147.6,129,241.1,99.3c127-40.3,235.8,21.3,247.2,162
	c1.5,17.5,0.8,35,0.8,52.5c-0.8,19.8-9.1,25.1-27.4,24.3C429,338.2,394,338.9,359.8,338.9L359.8,338.9z M301.2,250.7
	c18.3,0,36.5,0,54.8,0c12.9,0,17.5-4.6,15.2-18.3c-6.8-38-31.2-59.3-70-58.6c-32.7,0.8-64.7,29.7-69.2,62.4
	c-1.5,12.2,3.8,14.5,13.7,14.5C264.7,250.7,283,250.7,301.2,250.7z"/>
</svg>
