<?xml version="1.0" encoding="utf-8"?>
<!-- Generator: Adobe Illustrator 26.3.1, SVG Export Plug-In . SVG Version: 6.00 Build 0)  -->
<svg version="1.1" id="Layer_1" xmlns="http://www.w3.org/2000/svg" xmlns:xlink="http://www.w3.org/1999/xlink" x="0px" y="0px"
	 viewBox="0 0 595.3 595.3" style="enable-background:new 0 0 595.3 595.3;" xml:space="preserve">
<style type="text/css">
	.st0{fill:#0359A6;}
	.st1{fill:#FFFFFF;}
	.st2{fill:#F2C259;}
</style>
<path class="st0" d="M297.6,595.3L297.6,595.3C133.3,595.3,0,462,0,297.6l0,0C0,133.3,133.3,0,297.6,0l0,0
	C462,0,595.3,133.3,595.3,297.6l0,0C595.3,462,462,595.3,297.6,595.3z"/>
<path class="st1" d="M584.9,375.9c0.5-2,1.1-4,1.6-6L584.9,375.9z"/>
<polygon class="st1" points="586.4,369.9 586.4,369.9 586.4,369.9 "/>
<g>
	<path class="st2" d="M507.8,259.8c0,24.5,0,49.3,0,73.9c-0.3,22.5-10.8,33.9-32.8,33.9c-49.9,0.3-99.8,0.3-149.7,0
		c-21.7,0-33.4-12-33.7-33.9c-0.3-49.3-0.3-98.7,0-148c0.3-22.5,12-33.9,35.1-34.2c48.8-0.3,97.5-0.3,146.6,0
		c24,0,34.5,11.4,34.8,35.6C507.8,211.6,507.8,235.9,507.8,259.8z"/>
	<path class="st2" d="M216.4,411.8c-6,0-12,0.3-18,0c-4.3-0.3-9.1-0.9-12.5-3.1c-24.5-18.3-12.5-44.2-12.8-67
		c-0.3-13.7,15.1-21.7,33.7-22c53.3-0.6,57.6,3.4,57.3,54.2C264,405.8,256.6,411.8,216.4,411.8z"/>
	<path class="st2" d="M122,444.1c-27.1,0-34.8-7.1-34.8-33.1c0-26.5,8.6-34.8,35.6-34.8c24.8,0,32.5,8,32.5,33.7
		C155.6,437.5,149.1,444.1,122,444.1z"/>
</g>
</svg>
