<?xml version="1.0" encoding="utf-8"?>
<!-- Generator: Adobe Illustrator 26.3.1, SVG Export Plug-In . SVG Version: 6.00 Build 0)  -->
<svg version="1.1" id="Layer_1" xmlns="http://www.w3.org/2000/svg" xmlns:xlink="http://www.w3.org/1999/xlink" x="0px" y="0px"
	 viewBox="0 0 595.3 595.3" style="enable-background:new 0 0 595.3 595.3;" xml:space="preserve">
<style type="text/css">
	.st0{fill:#FFFFFF;}
	.st1{fill:#E5E5E5;}
	.st2{fill:#762118;}
</style>
<path class="st0" d="M297.6,595.3L297.6,595.3C133.3,595.3,0,462,0,297.6l0,0C0,133.3,133.3,0,297.6,0l0,0
	C462,0,595.3,133.3,595.3,297.6l0,0C595.3,462,462,595.3,297.6,595.3z"/>
<path class="st1" d="M586.4,369.9L586.4,369.9L586.4,369.9c5.8-23.1,8.9-47.3,8.9-72.3c0-16-1.3-31.7-3.7-47L401.2,116.8
	l-23.3,141.9l-146.7,49.7l-42.7,156.2l171.6,124C471.1,565,559.1,479.4,586.4,369.9z"/>
<path class="st2" d="M352.4,329.2c-33.1,0-65.7,1-98.8-0.5c-15.3-0.5-17.3,5.8-15.8,18.2c8.2,67.6,54.7,97.4,122.8,78.2
	c20.6-5.8,38.8-15.3,55.6-28.3c6.2-4.8,10.1-5.3,14.4,1.9c9.1,15.3,19.2,30.2,29.3,44.6c4.8,6.7,3.8,10.6-2.4,15.3
	c-66.2,48.4-138.6,63.3-216.3,35.5c-67.1-24-100.2-77.7-111.7-145.3c-8.2-47.5-6.7-95,8.6-141c44.6-133.3,177.9-140.5,254.7-96.4
	c42.7,24.5,60.9,65.7,71,111.3c6.7,31.2,7.2,63.3,7.2,95c0,9.6-3.8,11-12,11C422.9,329.2,387.4,329.2,352.4,329.2z M300.6,253.9
	c9.6,0,18.7,0,28.3,0c36.4,0,37.4-1,31.2-37.4c-5.3-31.2-24-49.4-52.3-51.3c-29.7-2.4-51.3,12.5-61.4,42.7
	c-3.8,11-5.3,22.1-6.2,33.6c-0.5,9.6,2.4,13.4,12,12.9C268,253.4,284.3,253.9,300.6,253.9z"/>
<path class="st0" d="M584.9,375.9c0.5-2,1.1-4,1.6-6L584.9,375.9z"/>
<polygon class="st0" points="586.4,369.9 586.4,369.9 586.4,369.9 "/>
</svg>
