<?xml version="1.0" encoding="utf-8"?>
<!-- Generator: Adobe Illustrator 26.3.1, SVG Export Plug-In . SVG Version: 6.00 Build 0)  -->
<svg version="1.1" id="Layer_1" xmlns="http://www.w3.org/2000/svg" xmlns:xlink="http://www.w3.org/1999/xlink" x="0px" y="0px"
	 viewBox="0 0 595.3 595.3" style="enable-background:new 0 0 595.3 595.3;" xml:space="preserve">
<style type="text/css">
	.st0{fill:#FFFFFF;}
	.st1{fill:#1D1D1B;}
	.st2{fill:#762118;}
</style>
<path class="st0" d="M297.6,595.3L297.6,595.3C133.3,595.3,0,462,0,297.6l0,0C0,133.3,133.3,0,297.6,0l0,0
	C462,0,595.3,133.3,595.3,297.6l0,0C595.3,462,462,595.3,297.6,595.3z"/>
<g id="Onl4fQ.tif_00000050652639063612500640000011980979591696242323_">
	<g>
		<path class="st1" d="M398.6,381.3c-8.8-3.3-12.1-10.1-9.1-18.7c1.7-4.9,5.7-7.3,11.3-6.8c4.5,0.4,7.3,3.3,8.2,8.3
			c1.1,6.1,1.1,6.1-5,6.1c-2.2,0-4.4,0.1-6.5,0c-2.2-0.1-2.3,0.9-1.7,2.6c1.1,3.6,4.7,4.6,8.9,2.5c1.1-0.6,2-1.6,3.1,0.2
			c1.2,1.8,1,2.7-0.8,3.7c-1.9,1-3.9,1.2-5.8,2.1C400.3,381.3,399.4,381.3,398.6,381.3z M399.2,366c0.9-1.4,3.5,1.2,3.6-1.9
			c0-2.1-0.9-3.9-3.5-3.8c-2.5,0-3.5,1.7-3.6,3.8C395.6,366.9,398,364.9,399.2,366z"/>
		<path class="st1" d="M471.2,381.3c-8.8-3.3-12-9.8-9.1-18.4c1.7-5,5.5-7.5,11.1-7.1c4.7,0.3,7.6,3.2,8.6,8.3
			c1.1,6.1,1.1,6.1-5,6.1c-2.3,0-4.6,0-6.9,0c-1.5,0-1.8,0.6-1.6,2c0.7,3.9,4.7,5.3,9.1,3.1c1.2-0.6,2-1.5,3.1,0.3
			c1.2,1.8,1,2.7-0.9,3.7c-1.9,1-3.9,1.2-5.8,2.1C473,381.3,472.1,381.3,471.2,381.3z M471.9,365.8c1.1-1,3.7,1.3,3.6-1.9
			c-0.1-2-0.9-3.6-3.3-3.7c-2.7,0-3.8,1.7-3.8,4C468.4,366.9,470.8,364.9,471.9,365.8z"/>
		<path class="st1" d="M339,381.3c-8.7-3.1-11.7-8.4-9.7-17.3c1.2-5.4,5.2-8.5,10.9-8.3c5.1,0.2,8.4,3.2,9.2,8.8
			c0,0.2,0,0.4,0.1,0.6c0.6,5,0.6,5-4.4,5c-2.5,0-5,0.1-7.5,0c-1.7-0.1-2,0.7-1.7,2.2c0.8,3.7,4.7,5,9,3c0.9-0.4,1.7-1.9,3-0.2
			c1.3,1.7,1.9,3.2-0.7,4.1c-1.8,0.7-3.6,1.4-5.4,2C340.7,381.3,339.8,381.3,339,381.3z M339.3,365.8c1.1-1,3.7,1.2,3.6-1.9
			c0-2.1-0.9-3.6-3.3-3.7c-2.7-0.1-3.8,1.8-3.8,4C335.8,366.9,338.3,364.9,339.3,365.8z"/>
		<path class="st1" d="M96.7,381.3c-11.6-4-16.2-18.2-9.3-28.6c4.7-7.1,15.7-7.3,20.2,0c4.3,7.1,4.2,14.7,0.7,22.1
			c-1.8,3.9-5.6,5.6-9.6,6.5C98,381.3,97.3,381.3,96.7,381.3z M106.3,365.1c-0.3-3-0.2-5.9-1.1-8.8c-1.3-3.9-4.1-5.9-8-5.8
			c-4,0.1-6.7,2.2-7.7,6.3c-1.2,5.2-1,10.4,0.5,15.5c1.1,3.7,3.9,5.7,7.8,5.8c3.6,0.1,6.3-1.9,7.6-5.5
			C106.2,370.1,106.1,367.5,106.3,365.1z"/>
		<path class="st1" d="M366.5,381.3c-1.8-0.6-3.7-1.2-5.5-1.9c-1.4-0.5-2.8-1-1.5-2.9c0.8-1.3,1.1-3.3,3.4-1.7
			c1.5,1,3.4,1.5,5.3,1.6c1.8,0.2,3.4-0.2,3.9-2.2c0.5-2.1-1.1-2.9-2.7-3.3c-1-0.3-2.1-0.5-3.2-0.7c-4.4-0.9-6.3-3-6.3-7
			c0-3.8,2.5-6.7,6.4-7.4c3.3-0.7,6.5-0.2,9.6,1.1c1,0.4,2.2,0.8,1.2,2.2c-0.7,1-0.5,3.1-2.8,2.2c-1.6-0.7-3.3-1.2-5.1-1
			c-1.3,0.1-2.3,0.7-2.5,2.1c-0.2,1.3,0.8,2,1.9,2.3c1.4,0.5,2.9,0.8,4.4,1.3c3.9,1.2,5.7,3.2,5.8,6.5c0.1,3.3-1.8,6.1-5.1,7.6
			c-0.9,0.4-2,0.2-2.6,1.1C369.5,381.3,368,381.3,366.5,381.3z"/>
		<path class="st1" d="M234.2,381.3c-2-0.9-4.4-1.3-5.6-3.5c-1.9-3.4-0.7-7.8,2.7-10c2.3-1.4,4.9-1.7,7.5-2.1
			c1.3-0.2,3.3,0.8,3.2-1.9c0-2.4-0.7-4.3-3.4-4.7c-2.2-0.3-4.3,0.5-6.2,1.5c-1,0.5-2,1.5-2.9-0.2c-1.1-1.9,0.6-2,1.5-2.5
			c1.2-0.6,2.6-1.2,4-1.5c7.5-1.6,10.6,0.9,10.6,8.6c0,3.9-1,7.9,0.4,11.6c0.7,1.9,0.9,3.1-0.5,4.5c-0.2,0-0.4,0-0.7,0
			c-1.5-0.5-1.4-3.7-3.6-2.4c-1.6,0.9-3.3,1.5-4.9,2.4C235.5,381.3,234.8,381.3,234.2,381.3z M241.6,370.7c-0.1-0.4,1.1-2.3-1.3-2.4
			c-2.2-0.1-4.4,0.1-6.3,1.2c-2.1,1.2-2.9,4.4-1.8,6.6c1.3,2.5,3.5,2.4,5.7,1.7C240.8,376.9,242.2,374.6,241.6,370.7z"/>
		<path d="M559.7,261.1c-0.6,0.8-1.1,1.5-1.7,2.3c-3,3.7-8.2,4-11.6,0.9c-3.4-3.1-3.4-8.5,0-11.6c3.4-3.1,8.7-2.7,11.6,0.9
			c0.6,0.7,1.1,1.5,1.7,2.3C559.7,257.6,559.7,259.4,559.7,261.1z M557.5,258.4c-0.1-3.3-2.6-5.8-5.8-5.8c-3.1,0.1-5.7,2.8-5.6,6
			c0.1,3.2,2.7,5.9,5.8,5.8C555,264.3,557.5,261.6,557.5,258.4z"/>
		<path class="st2" d="M83.3,297c-6.9,0-13.7,0.2-20.6-0.1c-3.2-0.1-3.6,1.2-3.3,3.8C61.1,314.8,70.8,321,85,317
			c4.3-1.2,8.1-3.2,11.6-5.9c1.3-1,2.1-1.1,3,0.4c1.9,3.2,4,6.3,6.1,9.3c1,1.4,0.8,2.2-0.5,3.2c-13.8,10.1-28.9,13.2-45.1,7.4
			c-14-5-20.9-16.2-23.3-30.3c-1.7-9.9-1.4-19.8,1.8-29.4c9.3-27.8,37.1-29.3,53.1-20.1c8.9,5.1,12.7,13.7,14.8,23.2
			c1.4,6.5,1.5,13.2,1.5,19.8c0,2-0.8,2.3-2.5,2.3C98,297,90.6,297,83.3,297z M72.5,281.3c2,0,3.9,0,5.9,0c7.6,0,7.8-0.2,6.5-7.8
			c-1.1-6.5-5-10.3-10.9-10.7c-6.2-0.5-10.7,2.6-12.8,8.9c-0.8,2.3-1.1,4.6-1.3,7c-0.1,2,0.5,2.8,2.5,2.7
			C65.7,281.2,69.1,281.3,72.5,281.3z"/>
		<path d="M433.7,289.9c-0.1,7.4-0.9,13.9-3.2,20.2c-5.6,14.8-18.6,23.2-35,22.7c-15.7-0.5-28-9.8-32.7-25
			c-3.4-11.3-3.4-22.8,0.1-34.1c5.4-17.1,19.2-26.2,37.5-25c16.2,1.1,29.1,13,32.2,29.8C433.3,282.6,433.5,286.6,433.7,289.9z
			 M410.4,290.2c0-5.8-0.2-11.5-2-17.1c-1.9-5.9-5.7-8.8-11.4-8.8c-5.6,0-9.4,2.8-11,8.8c-3.1,11.9-3,23.9,0,35.8
			c1.6,6.2,5.5,8.7,11.8,8.4c5.2-0.2,8-3.5,9.8-7.9C410.1,303.3,410.5,296.8,410.4,290.2z"/>
		<path d="M315.8,333.6c-11.1-0.1-21.3-3.6-31.2-8.4c-1.4-0.7-1.6-1.4-0.9-2.8c1.9-3.8,3.8-7.6,5.6-11.4c0.8-1.8,1.5-2.1,3.3-1
			c6.3,3.8,13,6.6,20.3,7.7c2.9,0.4,5.9,0.6,8.7-0.4c3.7-1.3,6.2-4.3,6.3-7.9c0.2-4-1.9-6.5-5.3-8.3c-4.1-2.1-8.6-2.3-12.9-3.3
			c-1.2-0.3-2.4-0.4-3.5-0.7c-10.6-2.1-17.4-8-19.1-16.8c-2.2-11.3,1.6-21.1,10.7-27c9.2-5.9,19.3-6.2,29.7-4.4
			c6,1,11.8,3.2,17.4,5.6c1.7,0.8,1.9,1.5,1.1,3.1c-1.7,3.3-3.4,6.6-4.9,9.9c-0.8,1.9-1.7,2-3.4,1.1c-5.1-2.5-10.5-4.4-16.2-4.7
			c-2.6-0.2-5.3,0-7.7,1.1c-4.7,2.2-5.4,8.4-1.4,11.6c2.7,2.2,6,2.9,9.3,3.8c4.1,1.1,8.2,2.1,12.3,3.4c8.3,2.7,14.4,7.9,15.9,16.9
			c1.6,9.5-0.8,17.9-8.4,24.4C334.1,331.5,325.3,333.5,315.8,333.6z"/>
		<path d="M490.3,250.1c-1.7,4.7-3.3,8.9-4.8,13.1c-0.5,1.4-1.5,1.6-2.8,1.6c-3.3-0.1-6.6,0.1-9.8-0.1c-2.5-0.2-3.1,0.7-3.1,3.1
			c0.1,19.8,0,39.6,0.1,59.4c0,2.9-0.5,4-3.7,3.8c-4.8-0.3-9.6-0.2-14.4,0c-2.5,0.1-3.1-0.7-3.1-3.1c0.1-19.8,0-39.6,0.1-59.4
			c0-3-0.7-4.3-3.8-3.7c-2.7,0.5-3.7-0.6-3.4-3.4c0.2-2.7,0.2-5.5,0-8.2c-0.3-2.7,0.9-3.5,3.3-3.2c0.8,0.1,1.5,0,2.3,0
			c1.7,0.1,2.2-0.4,2-2.2c-0.6-5-0.9-10,0-15c2.1-11.2,9.4-17.5,21.6-18.7c7.2-0.7,14.1,0.5,20.7,3.6c1.8,0.8,2.5,1.6,1.3,3.6
			c-1.7,2.8-3.2,5.7-4.5,8.7c-0.8,1.9-1.8,2-3.5,1.1c-1-0.6-2.2-0.9-3.4-1.2c-7-1.9-11.6,1.6-11.7,8.8c0,2.8,0.1,5.7-0.1,8.5
			c-0.2,2.4,0.8,2.9,3,2.8C478.5,250.1,484.2,250.1,490.3,250.1z"/>
		<path d="M523.9,225.8c-0.4,7-0.9,13.7-1.1,20.4c-0.1,3.5,1,4.2,4.2,4c4.1-0.3,8.3,0,12.4-0.1c1.9,0,2.3,0.5,1.6,2.3
			c-1.4,3.4-2.6,6.9-3.8,10.4c-0.5,1.5-1.3,2.1-2.9,2c-2.9-0.1-5.9,0.1-8.8-0.1c-1.9-0.1-2.7,0.4-2.7,2.5
			c0.1,13.6,0.1,27.2,0.2,40.8c0,1.3,0.1,2.6,0.4,3.9c0.9,4.2,2.6,5.7,6.9,6.1c1.8,0.2,3.5,0,5.2-0.4c4.2-0.8,4.2-0.9,5.1,3.2
			c0.3,1.4,0.6,2.8,0.9,4.2c0.9,4.4,0.9,4.4-3.5,5.7c-7.7,2.3-15.4,3.1-23.2,0.4c-8.4-2.9-12.3-7.8-12.7-16.6
			c-0.8-15.2-0.3-30.5-0.3-45.7c0-3.2-0.7-4.7-4.1-4.1c-3.3,0.6-4.5-0.7-4.1-4c0.3-2.2,0.3-4.6,0-6.8c-0.4-3.3,1-4.3,4-3.8
			c3.1,0.5,4.4-0.5,4.3-3.9c-0.2-4.2,0.2-8.5,0.4-12.7c0.1-1.4,0.4-2.5,2-2.9C510.6,229.1,517.1,227.5,523.9,225.8z"/>
		<path d="M240,291.9c0,5.3,0.2,10.7,1.9,15.8c2.4,7.6,8.5,10.7,16.2,8.4c3.6-1.1,6.7-3,9.5-5.5c1.4-1.2,2.2-1.3,3.3,0.3
			c2.1,3,4.3,6,6.7,8.8c1.4,1.7,1.1,2.7-0.4,4c-8.4,7.4-18.3,10-29.1,8.9c-17.2-1.7-27.4-11.7-30.6-30c-1.9-10.6-1.5-21.3,2.3-31.5
			c8.3-22.6,35.9-30.6,54.6-15.9c1.9,1.4,2.5,2.5,0.7,4.5c-2.5,2.9-4.7,6-6.8,9.2c-1.2,1.9-2.1,2.2-3.9,0.6
			c-2.9-2.6-6.2-4.4-10.3-4.5c-5.4-0.2-8.8,2.5-11,7.2C240.4,278.4,240.1,285.1,240,291.9z"/>
		<path d="M142.1,259.4c3-3.4,5.7-6.2,9-8.3c5-3.1,10.2-3.4,15.7-1.8c1.6,0.5,2,1.1,1.5,2.8c-1.6,4.7-3.1,9.5-4.5,14.3
			c-0.5,1.8-1.2,2-3,1.5c-6.4-2-11.4,0.6-15.9,5c-1.2,1.2-1,2.5-1,3.9c0,17-0.1,34,0.1,50.9c0,2.7-0.6,3.6-3.4,3.4
			c-4.9-0.2-9.8-0.2-14.7,0c-2.7,0.1-3.2-0.9-3.2-3.3c0.1-15.7,0.1-31.3,0-47c0-8.7,0-17.4-2.6-25.9c-0.4-1.4,0.2-1.7,1.2-2
			c5.2-1.4,10.3-2.7,15.5-4.1c1.4-0.4,2.2,0,2.8,1.4C140.8,252.9,141.5,255.9,142.1,259.4z"/>
		<path d="M199.7,290.2c0,12.6-0.1,25.2,0.1,37.8c0,2.5-0.7,3.1-3.1,3.1c-5.1-0.2-10.2-0.1-15.4,0c-2,0-2.8-0.4-2.8-2.6
			c0.1-24.8,0.1-49.6,0-74.4c0-1.9,0.6-2.6,2.5-2.8c5.1-0.6,10.1-1.4,15.2-2.4c3-0.6,3.7,0.3,3.6,3.2
			C199.6,264.7,199.7,277.5,199.7,290.2z"/>
		<path d="M202.2,228c0,7.4-5.6,13-13,13c-7.2,0-13.1-5.7-13.1-13c-0.1-7.2,6-13.2,13.3-13.3C196.7,214.8,202.3,220.6,202.2,228z"/>
		<path class="st1" d="M319.2,379.9c-6.4,1.4-7,1.1-9.9-3.9c-1.6-2.7-3.2-5.4-4.9-8.1c-0.3-0.5-0.9-1.1-1.6-0.9
			c-0.8,0.2-0.6,1.1-0.6,1.7c0,3.2-0.1,6.3,0,9.5c0.1,2.8-1.8,2.2-3.3,2.2c-1.5,0-3.3,0.5-3.3-2.2c0.1-9.5,0.1-18.9,0-28.4
			c0-1.9,0.7-2.4,2.5-2.3c2.9,0.1,5.9,0,8.8,0c5.6,0,9.2,2.4,10.2,6.8c1.3,5.5-0.8,9.6-6.4,12.3
			C313.9,370.8,316.6,375.2,319.2,379.9z M304.5,361.7c4.3,0,6.1-1.4,6.2-4.4c0.1-3.1-2-4.7-6.1-4.6c-4.7,0.1-1.8,3.7-2.3,5.6
			C301.9,359.8,301.5,362.3,304.5,361.7z"/>
		<path class="st1" d="M441.4,361.5c0-4.2,0.1-8.5,0-12.7c-0.1-3.9,3.2-2.5,5-3.1c2.3-0.8,1.5,1.6,1.6,2.6
			c0.2,7.9,0.1,15.9,0.2,23.8c0,1.8-0.5,3.9,2.2,4.9c0.9,0.3,1.1,1.9,0.9,2.9c-0.2,1-1.5,0.7-2.3,0.8c-4.6,0.5-7-1.5-7.2-6.2
			c0-0.4,0-0.9,0-1.3c0-3.9,0-7.8,0-11.8C441.6,361.5,441.5,361.5,441.4,361.5z"/>
		<path class="st1" d="M420.4,361.5c0-4.2,0.1-8.5,0-12.7c-0.1-3.9,3.2-2.5,5-3.1c2.3-0.8,1.5,1.7,1.6,2.5
			c0.2,7.9,0.1,15.9,0.2,23.8c0,1.8-0.5,3.9,2.2,4.9c0.9,0.3,1.1,1.9,0.9,2.9c-0.2,1.1-1.5,0.7-2.3,0.8c-4.6,0.5-7.1-1.5-7.2-6.2
			c-0.1-4.3,0-8.7,0-13.1C420.7,361.5,420.5,361.5,420.4,361.5z"/>
		<path class="st1" d="M499.6,358.4c1.6-1.2,2.9-2.7,4.9-2.7c1,0,2.8-0.5,2.5,1c-0.3,1.6,0.2,4.2-2.4,4.5c-4,0.5-4.6,1-4.6,5
			c0,4-0.1,8.1,0,12.1c0.1,2.2-1.3,2.3-2.7,2c-1.4-0.2-3.6,1.1-3.7-1.8c-0.3-6.8,0.6-13.7-0.6-20.5c-0.2-1.3,0.9-1.5,1.7-1.5
			c1.4,0,2.8-1.9,4.1,0.1C499.2,357.1,499.4,357.7,499.6,358.4z"/>
		<path class="st1" d="M124.3,369.8c0-2.6,0-5.2,0-7.8c0-1,0.3-2.1-1.3-2.5c-1.2-0.3-1.1-2.1-0.4-2.3c2.4-0.7,1.6-2.5,1.7-4
			c0.4-5.7,4.8-8.6,10.1-6.5c0.8,0.3,1.8,0.4,1.4,1.7c-0.4,1-0.8,1.4-2.2,1.1c-4.3-0.9-6.4,1.5-5.5,5.9c0.5,2.3,2.2,1,3.4,1.4
			c0.9,0.3,2.5-0.7,2.7,0.9c0.1,1.6-1.2,2.2-2.7,1.9c-3.2-0.6-3.5,1.1-3.4,3.7c0.2,4.9,0,9.8,0,14.7c0,1.2,0.2,2.4-1.7,2.4
			c-1.9,0-2.2-0.9-2.1-2.4C124.3,375.2,124.3,372.5,124.3,369.8z"/>
		<path class="st1" d="M144.9,369.9c0-2.5,0-5,0-7.5c0-1.2,0.5-2.5-1.5-3c-1.3-0.3-1.2-2.1-0.2-2.4c2.5-0.7,1.6-2.5,1.7-3.9
			c0.3-5.6,4.7-8.5,10-6.4c0.7,0.3,1.9,0.3,1.3,1.7c-0.4,1-0.7,1.5-2.1,1.2c-4.4-0.9-6.4,1.3-5.5,5.8c0.5,2.2,2.2,1.2,3.4,1.5
			c0.9,0.2,2.5-0.7,2.7,0.9c0.1,1.6-1.2,2.2-2.7,1.9c-3.2-0.6-3.5,1.1-3.4,3.7c0.2,4.9,0,9.8,0,14.7c0,1.3,0,2.4-1.8,2.4
			c-1.7,0-1.9-1-1.9-2.3C145,375.4,144.9,372.6,144.9,369.9z"/>
		<path class="st1" d="M185.9,369.6c0.1,1,0.2,2.1,0.4,3.1c0.9,4.8,4.7,6.6,9,4.1c1-0.6,1.9-1.6,2.9,0c1.1,1.7-0.6,2-1.4,2.6
			c-4.1,2.7-10.2,1.4-12.8-2.5c-3-4.6-2.7-12.6,0.6-17c3-3.9,8.4-5,12.2-2.4c0.6,0.4,1.8,0.8,0.8,1.9c-0.6,0.7-0.8,1.6-2.3,1
			c-5.6-2.2-8.4-0.5-9.1,5.4C186.1,367.1,186.1,368.3,185.9,369.6z"/>
		<path class="st1" d="M259.9,362.1c0-4.1,0.1-8.3,0-12.4c0-1.6-0.6-3.5,1.9-3.5c2.4,0,1.7,2.1,1.8,3.4c0.1,8,0.1,16.1,0.1,24.1
			c0,1.8-0.5,3.7,1.8,4.7c0.3,0.1,0.5,1.2,0.4,1.8c0,0.2-0.9,0.4-1.4,0.5c-2.8,0.3-4.3-1-4.4-4.3c-0.1-4.8,0-9.6,0-14.3
			C260,362.1,260,362.1,259.9,362.1z"/>
		<path class="st1" d="M168.8,368.2c0,3.3,0,6.5,0,9.8c0,1.2,0.1,2.4-1.8,2.4c-1.7,0-2-0.9-2-2.3c0-6.4,0-12.8,0-19.2
			c0-1.7,0.8-2.3,2.3-2.4c1.9-0.1,1.4,1.3,1.4,2.2C168.9,361.9,168.8,365.1,168.8,368.2z"/>
		<path class="st1" d="M214.7,368.3c0,3.3,0,6.5,0,9.8c0,1.3-0.1,2.3-1.9,2.3c-1.8,0-1.8-1.1-1.8-2.4c0-6.3,0-12.6,0-18.9
			c0-1.8,0.7-2.6,2.5-2.6c2.1,0.1,1.2,1.7,1.3,2.7C214.7,362.2,214.7,365.3,214.7,368.3z"/>
		<path class="st1" d="M167.1,352.3c-1.7-0.3-2.9-1.1-2.8-2.9c0-1.6,1-2.6,2.6-2.7c1.8-0.1,2.9,0.9,3,2.7
			C170,351.2,168.8,352,167.1,352.3z"/>
		<path class="st1" d="M213.1,352.3c-1.7-0.2-2.9-1-3-2.8c0-1.6,0.9-2.7,2.5-2.8c1.8-0.2,2.9,0.8,3.1,2.5
			C215.9,351.1,214.8,352,213.1,352.3z"/>
		<path d="M554.8,262.1c-1.8,1-2.4-0.8-3.4-1.6c-0.7,0.6-0.4,2.2-1.9,1.8c-1.2-0.3-0.7-1.4-0.8-2.2c-0.1-1.1-0.1-2.2,0-3.2
			c0.1-1-0.5-2.4,1.1-2.6c1.4-0.2,2.9-0.3,4,0.7c0.9,0.8,1.1,2.2,0.4,2.9C552.4,259.7,555.2,260.7,554.8,262.1z"/>
	</g>
</g>
</svg>
