<?xml version="1.0" encoding="utf-8"?>
<!-- Generator: Adobe Illustrator 26.3.1, SVG Export Plug-In . SVG Version: 6.00 Build 0)  -->
<svg version="1.1" id="Layer_1" xmlns="http://www.w3.org/2000/svg" xmlns:xlink="http://www.w3.org/1999/xlink" x="0px" y="0px"
	 viewBox="0 0 595.3 595.3" style="enable-background:new 0 0 595.3 595.3;" xml:space="preserve">
<style type="text/css">
	.st0{fill:#FFFFFF;}
	.st1{fill:#10263C;}
</style>
<path class="st0" d="M297.6,595.3L297.6,595.3C133.3,595.3,0,462,0,297.6l0,0C0,133.3,133.3,0,297.6,0l0,0
	C462,0,595.3,133.3,595.3,297.6l0,0C595.3,462,462,595.3,297.6,595.3z"/>
<g id="fUVQhA.tif">
	<g>
		<path class="st1" d="M143,244.2c0,34.5,0,69-0.1,103.4c0,3.9,0.6,3.4-3.4,3.4c-34.6,0-69.2,0-103.8,0.1c0-34.9,0-69.8-0.1-104.7
			c0-1.9,0.4-2.2,2.2-2.2C72.9,244.3,107.9,244.2,143,244.2z M139,332.3c0.1-1.1,0.2-1.4,0.2-1.7c0-26.8,0-53.6,0-80.4
			c0-2-0.9-2.2-2.5-2.2c-14.4,0-28.7,0-43.1,0c-17.2,0-34.4,0-51.6,0c-2,0-2.7,0.5-2.7,2.6c0.1,6.3,0.1,12.7,0,19
			c0,1.5,0.4,2.2,2,2.1c2.2-0.1,4.5,0.1,6.7-0.1c1.9-0.1,2.5,0.4,2.5,2.4c-0.1,8.2,0,16.4-0.1,24.7c0,2.3,0.5,3.1,2.9,3
			c7-0.2,14.1-0.1,21.1,0c2.3,0,3.1-0.5,3.1-2.9c-0.1-12.8-0.1-25.7,0-38.5c0-0.9-0.3-1.8,0.5-2.9C98.3,282.2,118.4,307,139,332.3z
			 M89.3,347.3c15.7,0,31.5,0,47.2,0c2.1,0,3-0.5,2.8-2.7c-0.2-2.1,0-4.3,0-6.4c0-3.4,0-3.5-3.5-3.5c-18.3,0-36.6,0-54.9,0
			c-2.4,0-3.3-0.4-3.2-3c0.2-6.5,0-13,0.1-19.5c0-1.8-0.5-2.3-2.3-2.3c-7.4,0.1-14.8,0.1-22.2,0c-2,0-2.6,0.5-2.6,2.6
			c0.1,6.7,0,13.4,0.1,20c0,1.8-0.6,2.4-2.3,2.3c-2-0.1-4,0.1-5.9-0.1c-2.2-0.2-3.2,0.4-3,2.8c0.2,2.3,0.2,4.6,0,6.9
			c-0.2,2.3,0.6,2.9,2.9,2.9C58,347.3,73.6,347.3,89.3,347.3z"/>
		<path class="st1" d="M499.9,257.8c2.7,0,6.1-0.1,9.6,0.3c4.7,0.6,7.8,3.1,8.8,7.1c1,4.3-0.6,8.5-4.7,10.7c-2.3,1.2-2.3,2.2-1,4.2
			c2.6,3.8,4.9,7.8,8,11.3c1,1.1,2,2.1,3.4,2.7c0.6,0.3,1.2,0.4,1,1.2c-0.2,0.7-0.9,0.7-1.5,0.7c-3.9-0.1-7.5-1.1-9.9-4.5
			c-2.1-3.1-4-6.2-6-9.3c-0.6-0.9-1-1.8-2-2.3c-1.5-0.9-3.3-1.1-4.7-0.5c-1.3,0.5-0.5,2.1-0.5,3.3c-0.1,2.4,0,4.8,0,7.2
			c0,2.3,1,3.7,3.5,3.9c0.7,0,1.7,0,1.6,1.1c-0.1,1.3-1.2,0.8-1.8,0.8c-4,0.1-8.1,0-12.1,0c-0.6,0-1.5,0.3-1.5-0.8
			c0-1,0.7-1.1,1.4-1.1c2.9-0.1,3.7-1.9,3.7-4.5c0-8.3,0-16.6,0-24.9c0-3.7-0.3-3.9-4-4.7c-0.7-0.1-1.2-0.2-1.1-1
			c0.1-0.9,0.7-0.9,1.3-0.9C494,257.7,496.6,257.8,499.9,257.8z M500.4,269C500.4,269,500.4,269,500.4,269c-0.1,1.2-0.1,2.4-0.1,3.6
			c0,5.1,0.4,5.4,5.5,4.4c5.1-1,7.6-5.3,6.5-11c-0.9-4.4-5.1-7-9.8-6.1c-1.4,0.3-2.1,0.9-2.1,2.4C500.4,264.5,500.4,266.8,500.4,269
			z"/>
		<path class="st1" d="M272.9,257.7c3.3,0,6.7-0.1,10,0.3c4.8,0.6,7.9,3,8.8,7c1.1,4.4-0.6,8.6-4.8,10.9c-2.2,1.2-2.1,2.1-0.9,4
			c2.6,3.9,5,8,8.2,11.5c1,1.1,2.1,2.1,3.4,2.7c0.5,0.2,1,0.4,0.9,1c-0.1,0.8-0.7,0.9-1.4,0.9c-3.8-0.1-7.3-0.9-9.8-4.2
			c-2.3-3-4.2-6.3-6.1-9.5c-0.5-0.9-1-1.8-1.9-2.4c-1.5-0.9-3.2-1.2-4.7-0.6c-1.4,0.5-0.6,2.1-0.6,3.2c-0.1,2.4,0,4.8,0,7.2
			c0,2.3,0.9,3.8,3.4,4c0.7,0.1,1.7-0.1,1.7,1.1c-0.1,1.5-1.3,0.8-2,0.8c-3.9,0.1-7.7,0.1-11.6,0c-0.6,0-1.7,0.5-1.8-0.7
			c-0.1-1.2,0.8-1.1,1.6-1.2c2.6-0.1,3.5-1.7,3.5-4.1c0-8.6,0-17.3,0-25.9c0-2.5-1-3.9-3.6-4c-0.7,0-1.5,0.1-1.4-1
			c0.1-1,0.9-0.9,1.6-0.9C268,257.7,270.4,257.7,272.9,257.7z M274,269c0,1.3,0,2.6,0,3.8c0,4.8,0.2,5,5,4.2c5-0.8,7.9-4.9,7.1-10.1
			c-0.8-5-4.7-7.9-9.8-7.1c-1.6,0.2-2.5,0.9-2.4,2.7C274.1,264.7,274,266.8,274,269z"/>
		<path class="st1" d="M328.7,296.3c-11.2,0-19.3-8.1-19.2-19.3c0-11.7,8.4-19.9,20.2-19.9c11.1,0,19.2,8.3,19.1,19.4
			C348.7,288.1,340.3,296.3,328.7,296.3z M315.6,275.6c0,5.5,1.4,10.5,5.2,14.6c5.8,6.1,14.9,5.2,19.1-1.8c4-6.7,3.2-18.4-1.7-24.5
			c-5.6-6.9-15.7-6.2-20.1,1.4C316.2,268.4,315.5,271.9,315.6,275.6z"/>
		<path class="st1" d="M182,295.6c-4.2,0-8.4,0-12.6,0c-0.6,0-1.5,0.4-1.6-0.8c-0.1-1,0.7-1,1.4-1.1c4.2-0.8,4.3-1,4.3-5.2
			c0-8.1,0-16.3,0-24.4c0-2.6-0.7-4.4-3.6-4.5c-0.6,0-1.2-0.1-1.2-1c0.1-0.8,0.7-0.9,1.3-0.9c7.8,0,15.6,0,23.5,0
			c0.9,0,1.5,0.3,1.5,1.3c0.1,2,0.3,4.1,0.4,6.1c0,0.5-0.1,1-0.7,1.1c-0.7,0.1-1.1-0.2-1.3-0.9c-0.2-0.8-0.6-1.6-0.9-2.4
			c-0.7-1.8-2.1-2.9-4.1-2.9c-2.6,0-5.2,0-7.7-0.1c-1.3,0-1.9,0.5-1.9,1.8c0,3.9,0,7.7,0,11.6c0,1.1,0.5,1.5,1.6,1.5
			c1.8,0,3.6,0,5.4,0c2.3,0,4.3-0.6,4.7-3.4c0.1-0.7,0.4-1.1,1.2-1c0.9,0.1,0.8,0.8,0.8,1.3c0,2.8,0,5.7,0,8.5
			c0,0.6,0.1,1.2-0.8,1.3c-1,0.1-1.1-0.5-1.2-1.2c-0.4-2.6-2.3-3.1-4.5-3.3c-7.1-0.5-7.1-0.5-7.1,6.5c0,2.2,0.1,4.4,0.3,6.7
			c0.1,1.6,1.1,2.6,2.8,2.9c3,0.5,6,0.5,9-0.1c2.8-0.6,3.8-2.9,5-5.1c0.4-0.7,0.4-2.2,1.8-1.7c1.3,0.5,0.5,1.6,0.3,2.4
			c-0.5,2.2-0.1,5.3-1.8,6.4c-1.5,1.1-4.3,0.4-6.5,0.4C186.9,295.6,184.5,295.6,182,295.6z"/>
		<path class="st1" d="M215.7,273.3c0-3.5,0-6.5,0-9.5c0-2.4-1-3.9-3.5-4.1c-0.7-0.1-1.7,0.2-1.6-1.1c0.1-1.2,1.1-0.8,1.8-0.8
			c3.9,0,7.9,0,11.8,0c0.7,0,1.7-0.3,1.7,1c0,1.1-0.9,0.9-1.5,0.9c-2.5,0.1-3.5,1.7-3.5,3.9c0,6.3-0.4,12.7,0.3,19
			c0.9,7.9,6.8,12.1,14,10.1c2.9-0.8,4.8-2.8,6-5.5c0.9-2,1.4-4.2,1.6-6.4c0.4-5.3,0.3-10.6,0-15.9c-0.2-3.8-0.8-4.3-4.5-5.1
			c-0.6-0.1-1.5,0.2-1.5-0.9c0-1,0.8-1,1.5-1c3.7,0,7.4,0,11.1,0c0.7,0,1.4,0,1.5,1c0,0.9-0.7,0.9-1.2,0.9c-2.7,0.3-3.8,1.7-4,4.4
			c-0.4,4.4-0.2,8.9-0.2,13.3c0,3.6-0.3,7.2-1.7,10.6c-2.6,6.2-8.3,9.1-16.3,8.2c-6.3-0.7-10.4-4.8-11.5-11.3
			C215.5,280.8,215.9,276.7,215.7,273.3z"/>
		<path class="st1" d="M470.9,295.6c-2,0-3.9,0-5.9,0c-0.6,0-1.3,0.1-1.3-0.8c0-0.7,0.4-1.1,1.1-1.1c2.9-0.3,2.7-1.9,1.9-4
			c-1-2.5-1-5.9-3.1-7.4c-2-1.5-5.1-0.3-7.8-0.4c-0.7,0-1.4,0.1-2.1,0c-1.9-0.3-2.8,0.6-3.3,2.3c-0.5,1.9-1.2,3.7-1.8,5.6
			c-0.9,2.7-0.6,3.3,2.2,3.9c0.8,0.2,1.6,0.2,1.5,1.3c-0.2,1.1-1.1,0.6-1.7,0.6c-3.3,0-6.5,0-9.8,0c-0.5,0-1.3,0.3-1.3-0.7
			c0-0.7,0.3-1.1,1-1.2c2.9-0.3,4.2-2.4,5.1-4.8c3.9-9.7,7.8-19.3,11.7-29c0.2-0.4,0.3-0.8,0.5-1.2c0.3-0.9,0.8-1.5,1.8-1.5
			c1.1,0,1.1,1,1.3,1.6c1.6,4.2,3.1,8.5,4.7,12.7c2.2,5.9,4.3,11.7,6.5,17.5c0.9,2.3,2,4.4,4.9,4.6c0.7,0.1,1.1,0.4,1.1,1.2
			c-0.1,1-0.8,0.7-1.3,0.7C474.9,295.6,472.9,295.6,470.9,295.6z M457.8,264.6c-1.8,5-3.4,9.3-5,13.6c-0.4,1.1,0.3,1.1,1,1.1
			c2.5,0,5,0,7.5,0c1.1,0,1.6-0.2,1.1-1.5C460.9,273.7,459.5,269.5,457.8,264.6z"/>
		<path class="st1" d="M376.3,257.1c0.3,0,0.5,0,0.8,0c6.1,0.1,8,2.2,7.4,8.3c-0.1,0.7-0.3,1.2-1,1.3c-0.7,0.1-0.8-0.6-0.9-1
			c-0.5-1.4-1-2.7-1.9-3.9c-2.3-3.1-7-3.6-9.8-1.2c-2.7,2.3-2.7,6.9-0.1,9.7c1.3,1.4,3,2.3,4.7,3.1c1.7,0.9,3.5,1.8,5.2,2.8
			c4.5,2.8,6.4,6.7,5.6,10.9c-0.9,4.6-4.4,8-9.5,9c-3.7,0.7-7.4,0.3-10.9-1c-0.8-0.3-1.6-0.6-1.7-1.7c-0.3-2.4-0.8-4.7-1.2-7.1
			c-0.1-0.7,0-1.2,0.8-1.3c0.9-0.2,1,0.5,1.2,1c0.6,1.7,1.3,3.3,2.5,4.8c1.4,1.7,3,3,5.3,3.4c3.6,0.7,6.6-0.7,7.8-3.4
			c1.4-3.1,0.7-6.4-2.1-8.8c-2.2-1.9-4.8-3-7.3-4.3c-3-1.7-5.8-3.7-6.9-7.3c-1.9-6.4,2.6-12.5,9.6-13.1
			C374.7,257,375.5,257.1,376.3,257.1C376.3,257.1,376.3,257.1,376.3,257.1z"/>
		<path class="st1" d="M549.4,257.1c0.4,0,0.9,0,1.3,0c5.7,0.2,7.8,2.7,7,8.4c-0.1,0.6-0.3,1-0.8,1.1c-0.7,0.2-0.9-0.4-1.1-0.8
			c-0.5-1.2-0.9-2.4-1.6-3.5c-1.6-2.7-4.1-3.6-7-3.2c-2.4,0.3-4.2,1.7-4.9,4c-0.8,2.7-0.3,5.2,1.9,7.3c1.5,1.4,3.2,2.3,5,3.2
			c1.6,0.9,3.2,1.6,4.7,2.6c4.6,2.9,6.4,6.7,5.5,11.2c-1,4.5-4.7,7.9-9.7,8.7c-1.2,0.2-2.4,0.2-3.6,0.2c-7.5-0.1-10.1-2.7-9.9-10.1
			c0-0.6,0.1-1,0.7-1.2c0.8-0.2,1.1,0.2,1.3,0.8c0.6,1.6,1.2,3.2,2.3,4.6c1.7,2.3,3.9,3.8,6.9,3.9c2.8,0,5.1-0.8,6.4-3.4
			c1.4-2.7,0.9-5.9-1.1-8.1c-1.6-1.7-3.7-2.8-5.7-3.9c-1.8-1-3.6-1.9-5.3-3.2c-3.9-2.9-5.3-7-4-11.3c1.2-3.8,5.1-6.8,9.5-7.2
			C547.8,257.1,548.6,257.1,549.4,257.1C549.4,257.1,549.4,257.1,549.4,257.1z"/>
		<path class="st1" d="M417.9,275.5c0,4.3,0,8.6,0,12.8c0,4.1,0.6,4.7,4.6,5.4c0.8,0.1,1.7,0.1,1.5,1.2c-0.1,1.1-1.1,0.6-1.6,0.6
			c-4.5,0-9.1,0-13.6,0c-0.6,0-1.5,0.4-1.6-0.7c-0.1-1.2,0.8-1.1,1.6-1.2c3.6-0.6,4.1-1.2,4.1-4.9c0-8.8-0.1-17.6,0.1-26.4
			c0-2-0.6-2.6-2.5-2.3c-0.8,0.1-1.7,0-2.6,0c-4.6,0.1-5.4,0.6-6.8,5c-0.3,0.8-0.2,2.2-1.6,1.8c-1.1-0.3-0.5-1.5-0.5-2.2
			c0.1-2.3,0.3-4.6,0.5-6.9c0.1-1.2,0.6-1.7,1.6-0.8c1,0.9,2.2,0.9,3.4,0.9c7.4,0,14.8,0,22.1,0c1.2,0,2.3,0,3.4-0.8
			c1.3-1,1.8-0.3,1.8,1.1c0.1,2.5,0.2,5,0.3,7.4c0,0.6,0.3,1.2-0.6,1.4c-0.8,0.1-1.1-0.3-1.2-1c-0.2-0.7-0.4-1.3-0.6-2
			c-0.8-2.6-2.5-3.9-5.3-3.9c-6.3-0.2-6.3-0.2-6.3,6C417.9,269.1,417.9,272.3,417.9,275.5z"/>
		<path class="st1" d="M209.6,338.8c-6.1,0-10.4-4.3-10.3-10.4c0-6,4.5-10.4,10.7-10.4c6,0.1,10.4,4.4,10.3,10.4
			C220.3,334.6,215.9,338.8,209.6,338.8z M209.8,321.3c-3.7,0-6.9,3.2-6.9,7.1c0,3.8,3.2,7.2,6.9,7.2c3.7,0,6.9-3.3,6.9-7.1
			C216.7,324.6,213.5,321.3,209.8,321.3z"/>
		<path class="st1" d="M251.4,328.3c0-2.7,0.1-5.3,0-8c0-1.4,0.3-2,1.9-2c3.9,0.1,7.7,0,11.6,0c1.1,0,1.7,0.3,1.8,1.6
			c0,1.3-0.7,1.6-1.8,1.6c-2.7,0-5.3,0.1-8,0c-2.3-0.1-1.8,1.5-1.8,2.8c-0.1,1.3-0.2,2.6,1.8,2.5c2.2-0.1,4.5,0,6.7,0
			c1.2,0,1.6,0.4,1.7,1.6c0,1.3-0.5,1.6-1.7,1.6c-2.2-0.1-4.5,0.1-6.7,0c-2.1-0.1-1.9,1.3-1.8,2.5c0.1,1.2-0.7,2.9,1.7,2.9
			c2.7-0.1,5.5,0,8.2,0c1.2,0,1.7,0.3,1.7,1.6c0,1.3-0.4,1.8-1.8,1.8c-3.9-0.1-7.7-0.1-11.6,0c-1.7,0-2-0.7-2-2.1
			C251.5,333.8,251.4,331,251.4,328.3z"/>
		<path class="st1" d="M173.5,328.5c0-2.8,0.1-5.7,0-8.5c0-1.4,0.6-1.7,1.8-1.7c1.3,0,1.9,0.4,1.8,1.8c-0.1,1.6,0,3.3,0,4.9
			c-0.1,1.3,0.4,1.9,1.8,1.8c0.3,0,0.5,0,0.8,0c2.2-0.1,5,0.7,6.5-0.4c1.8-1.2,0.5-4.1,0.6-6.3c0.1-1.3,0.4-1.8,1.8-1.8
			c1.4,0,1.8,0.5,1.8,1.8c0,5.6-0.1,11.1,0,16.7c0,1.3-0.5,1.8-1.8,1.8c-1.4,0-1.9-0.5-1.7-1.8c0-0.1,0-0.2,0-0.3
			c-0.2-2.1,1-5.1-0.5-6.1c-2.2-1.3-5.3-0.3-8.1-0.4c-0.9,0-1.1,0.6-1.1,1.4c0,1.4,0.1,2.8,0,4.1c-0.1,1.2,1,3.1-1.7,3.1
			c-2.6,0.1-1.8-1.7-1.8-3C173.4,333.3,173.5,330.9,173.5,328.5z"/>
		<path class="st1" d="M304.8,318.2c1.9-0.1,3.7,0.4,5.4,1.4c0.7,0.4,1.9,0.8,0.9,2c-0.7,0.8-1,2.1-2.5,0.9c-1.3-1-2.9-1.4-4.6-1.3
			c-1.4,0.1-2.6,0.6-2.8,2.1c-0.2,1.5,0.8,2.2,2,2.6c1.7,0.6,3.5,1,5.2,1.6c3,1.1,4.1,2.7,4,5.6c-0.1,2.7-1.6,4.6-4.4,5.3
			c-3.6,0.9-7,0.2-10-1.9c-0.6-0.4-1.4-0.9-0.5-1.8c0.7-0.6,1-2.2,2.5-1c1.6,1.3,3.4,1.9,5.5,1.8c1.5-0.1,3-0.4,3.3-2.3
			c0.3-1.8-1.1-2.4-2.4-2.8c-1.5-0.5-3-0.7-4.5-1.3c-3.4-1.2-4.6-3.1-4.2-6.4c0.4-2.7,2.7-4.6,5.9-4.7
			C303.9,318.2,304.4,318.2,304.8,318.2z"/>
		<path class="st1" d="M233.2,330.1c0-2.1-0.1-4.3,0-6.4c0.1-1.6-0.5-2.2-2.1-2c-0.9,0.1-1.9,0-2.8,0c-1.2,0.1-1.7-0.4-1.7-1.6
			c0-1.2,0.4-1.7,1.6-1.7c4.4,0,8.8,0,13.1,0c1.2,0,1.7,0.4,1.7,1.6c0,1.1-0.3,1.7-1.6,1.7c-1.5,0-3.5-0.7-4.4,0.4
			c-1,1.2-0.3,3.1-0.3,4.7c-0.1,3.2,0,6.5,0,9.7c0,1.2,0,2.1-1.7,2.1c-1.8,0-1.9-0.8-1.9-2.2C233.3,334.4,233.2,332.2,233.2,330.1z"
			/>
		<path class="st1" d="M275.5,328.5c0-2.7,0.1-5.5,0-8.2c0-1.4,0.4-1.9,1.9-2c1.6,0,1.8,0.8,1.8,2c0,4,0.2,8-0.1,12
			c-0.1,2.5,0.8,3,3,2.9c1.9-0.2,3.8,0,5.7,0c1.2,0,1.9,0.1,1.9,1.6c0,1.5-0.7,1.9-2,1.8c-3.3-0.1-6.7-0.1-10,0
			c-1.8,0.1-2.2-0.7-2.1-2.3C275.6,333.8,275.5,331.1,275.5,328.5z"/>
	</g>
</g>
</svg>
