<?xml version="1.0" encoding="utf-8"?>
<!-- Generator: Adobe Illustrator 26.3.1, SVG Export Plug-In . SVG Version: 6.00 Build 0)  -->
<svg version="1.1" id="Layer_1" xmlns="http://www.w3.org/2000/svg" xmlns:xlink="http://www.w3.org/1999/xlink" x="0px" y="0px"
	 viewBox="0 0 595.3 595.3" style="enable-background:new 0 0 595.3 595.3;" xml:space="preserve">
<style type="text/css">
	.st0{fill:#FFFFFF;}
	.st1{fill:#10263C;}
</style>
<path class="st0" d="M297.6,595.3L297.6,595.3C133.3,595.3,0,462,0,297.6l0,0C0,133.3,133.3,0,297.6,0l0,0
	C462,0,595.3,133.3,595.3,297.6l0,0C595.3,462,462,595.3,297.6,595.3z"/>
<path class="st0" d="M584.9,375.9c0.5-2,1.1-4,1.6-6L584.9,375.9z"/>
<polygon class="st0" points="586.4,369.9 586.4,369.9 586.4,369.9 "/>
<path class="st1" d="M480.5,115.7c0,117.5,0,234.9-0.3,352.1c0,13.3,2,11.6-11.6,11.6c-117.8,0-235.6,0-353.4,0.3
	c0-118.8,0-237.7-0.3-356.5c0-6.5,1.4-7.5,7.5-7.5C241.8,116,361,115.7,480.5,115.7z M466.9,415.6c0.3-3.7,0.7-4.8,0.7-5.8
	c0-91.2,0-182.5,0-273.7c0-6.8-3.1-7.5-8.5-7.5c-49,0-97.7,0-146.7,0c-58.6,0-117.1,0-175.7,0c-6.8,0-9.2,1.7-9.2,8.9
	c0.3,21.5,0.3,43.2,0,64.7c0,5.1,1.4,7.5,6.8,7.2c7.5-0.3,15.3,0.3,22.8-0.3c6.5-0.3,8.5,1.4,8.5,8.2c-0.3,27.9,0,55.8-0.3,84.1
	c0,7.8,1.7,10.6,9.9,10.2c23.8-0.7,48-0.3,71.8,0c7.8,0,10.6-1.7,10.6-9.9c-0.3-43.6-0.3-87.5,0-131.1c0-3.1-1-6.1,1.7-9.9
	C328.3,245,396.7,329.5,466.9,415.6z M297.6,466.7c53.5,0,107.3,0,160.7,0c7.2,0,10.2-1.7,9.5-9.2c-0.7-7.2,0-14.6,0-21.8
	c0-11.6,0-11.9-11.9-11.9c-62.3,0-124.6,0-186.9,0c-8.2,0-11.2-1.4-10.9-10.2c0.7-22.1,0-44.3,0.3-66.4c0-6.1-1.7-7.8-7.8-7.8
	c-25.2,0.3-50.4,0.3-75.6,0c-6.8,0-8.9,1.7-8.9,8.9c0.3,22.8,0,45.6,0.3,68.1c0,6.1-2,8.2-7.8,7.8c-6.8-0.3-13.6,0.3-20.1-0.3
	c-7.5-0.7-10.9,1.4-10.2,9.5c0.7,7.8,0.7,15.7,0,23.5c-0.7,7.8,2,9.9,9.9,9.9C191.1,466.7,244.2,466.7,297.6,466.7z"/>
</svg>
