<?xml version="1.0" encoding="utf-8"?>
<!-- Generator: Adobe Illustrator 26.3.1, SVG Export Plug-In . SVG Version: 6.00 Build 0)  -->
<svg version="1.1" id="Layer_1" xmlns="http://www.w3.org/2000/svg" xmlns:xlink="http://www.w3.org/1999/xlink" x="0px" y="0px"
	 viewBox="0 0 595.3 595.3" style="enable-background:new 0 0 595.3 595.3;" xml:space="preserve">
<style type="text/css">
	.st0{fill:#FFFFFF;}
	.st1{fill:#212943;}
	.st2{fill:#F9C44C;}
</style>
<path class="st0" d="M297.6,595.3L297.6,595.3C133.3,595.3,0,462,0,297.6v0C0,133.3,133.3,0,297.6,0h0
	C462,0,595.3,133.3,595.3,297.6v0C595.3,462,462,595.3,297.6,595.3z"/>
<g>
	<path class="st1" d="M42.4,323.1c-10.8-22.8-8.8-44.4,7.5-63.9c23.9-28.7,70.2-25.6,90.6,5.7c0.2,0.2,0.2,0.5,0.4,0.8
		c-9.2,4.5-18.5,8.9-27.7,13.6c-1.6,0.8-2.7,1-4.4,0.2c-11.2-5.8-22.4-11.4-33.6-17.2c-2.5-1.3-4.4-1.4-6.4,1
		c5.3,4.3,10.7,8.5,15.9,12.9c3.5,2.9,7.5,5.1,10,9.1c2.1,3.3,2.2,3.3-1.2,5.2c-7.8,4.3-15.3,9-22.7,13.9
		C61.3,310.5,51.8,316.8,42.4,323.1z"/>
	<path class="st1" d="M143.6,270.5c6.5,12.5,7.8,25.7,4.7,39.4c-5.3,23.9-26.3,42.8-53.3,43.6c-21.4,0.6-38.5-8.4-50.2-26.7
		c1-0.5,2-0.9,3-1.4c17.3-8.8,35.1-16.7,51.8-26.8c2.5-1.5,3.1-0.4,4,1.6c2.6,5.6,2.5,11.7,3.6,17.6c1,5.5,1.7,11,2.6,16.6
		c2.7-0.9,3.7-2.3,3.8-4.9c0.5-12.7,1.4-25.4,2-38.1c0.1-1.2,0.3-2.3,1.4-3C125.9,282.4,134.8,276.4,143.6,270.5z"/>
	<path class="st1" d="M178.6,296.4c0-11.7,0.1-23.5-0.1-35.2c0-2.3,0.7-2.8,2.9-2.8c13.3,0.1,26.5,0.1,39.8,0c2.2,0,2.8,0.6,2.6,2.7
		c-0.3,2.7,1.1,6.2-0.5,7.9c-1.6,1.7-5.2,0.5-7.9,0.5c-7.2,0.1-14.4,0.1-21.5,0c-1.9,0-2.4,0.6-2.4,2.4c0.1,5.3,0.1,10.5,0,15.8
		c0,1.8,0.5,2.4,2.4,2.4c8.2-0.1,16.4,0.1,24.6-0.1c2.4-0.1,3,0.8,2.8,2.9c-0.3,2.6,1.1,5.9-0.5,7.6c-1.6,1.7-5,0.5-7.6,0.5
		c-6.5,0.1-12.9,0.1-19.4,0c-1.6,0-2.3,0.3-2.3,2.1c0.1,6.1,0.1,12.1,0,18.2c0,1.8,0.7,2.1,2.3,2.1c9.2-0.1,18.4,0,27.6-0.1
		c2,0,2.7,0.5,2.5,2.5c-0.2,2.3-0.1,4.7,0,7c0.1,1.3-0.4,1.7-1.7,1.7c-14,0-27.9-0.1-41.9,0c-2.3,0-1.7-1.5-1.7-2.7
		C178.6,320.1,178.6,308.2,178.6,296.4z"/>
	<path class="st2" d="M143.6,270.5c-8.9,6-17.7,11.9-26.6,17.8c-1.2,0.8-1.4,1.8-1.4,3c-0.7,12.7-1.5,25.4-2,38.1
		c-0.1,2.7-1.1,4.1-3.8,4.9c-0.9-5.6-1.6-11.1-2.6-16.6c-1.1-5.9-1-12-3.6-17.6c-0.9-2-1.5-3-4-1.6c-16.6,10.1-34.4,18.1-51.8,26.8
		c-1,0.5-2,0.9-3,1.4c-1.3-0.9-1.8-2.4-2.4-3.8c9.5-6.3,19-12.5,28.5-18.8c7.4-4.9,14.9-9.6,22.7-13.9c3.4-1.9,3.3-1.9,1.2-5.2
		c-2.5-4-6.6-6.2-10-9.1c-5.2-4.4-10.6-8.6-15.9-12.9c1.9-2.4,3.9-2.3,6.4-1c11.2,5.8,22.4,11.4,33.6,17.2c1.6,0.8,2.7,0.7,4.4-0.2
		c9.2-4.7,18.4-9.1,27.7-13.6C142.3,266.9,142.7,268.8,143.6,270.5z"/>
	<path class="st1" d="M284.7,277.5c-3.8,5.3-7.3,10.2-10.9,15c-2.6,3.6-5.1,7.3-7.9,10.7c-1.2,1.6-1.1,2.6,0,4.1
		c6.2,8.4,12.2,16.8,18.3,25.2c0.3,0.5,0.9,0.8,0.7,1.9c-4.2,0-8.5,0-12.8,0c-1.3,0-1.6-1.1-2.1-1.9c-3.9-5.5-7.8-11-11.8-16.5
		c-0.3-0.5-0.5-1.1-1.5-1.3c-4.1,5.8-8.4,11.7-12.5,17.6c-1,1.5-2,2.2-3.9,2.1c-3.7-0.2-7.5,0-11.4,0c0-1.3,1-2,1.5-2.9
		c5.8-8.1,11.7-16.2,17.6-24.3c1.2-1.6,1.2-2.6,0-4.2c-6.2-8.3-12.2-16.8-18.7-25.8c4.8,0,9.1,0,13.3,0c1.3,0,1.6,1.1,2.2,1.9
		c3.6,5.1,7.3,10.2,10.8,15.3c1,1.5,1.5,1.6,2.6,0c3.5-5.2,7.3-10.2,10.8-15.4c1-1.4,2-1.9,3.7-1.9
		C276.8,277.5,280.5,277.5,284.7,277.5z"/>
	<path class="st1" d="M494.5,306.1c0,8.6-0.1,17.2,0,25.8c0,2.1-0.5,2.9-2.7,2.7c-2.3-0.2-4.7-0.2-7,0c-2,0.1-2.3-0.6-2.3-2.4
		c0.1-17.4,0.1-34.7,0-52.1c0-1.9,0.3-2.8,2.4-2.6c3,0.2,6.9-0.9,8.8,0.6c2,1.6,0.6,5.7,0.6,8.7
		C494.5,293.1,494.5,299.6,494.5,306.1z"/>
	<path class="st1" d="M488.3,270.7c-4.5-0.1-7.8-3.8-7.6-8.4c0.2-4.3,3.9-7.6,8.3-7.4c4.2,0.2,7.7,4,7.5,8.3
		C496.3,267.5,492.7,270.9,488.3,270.7z"/>
	<path class="st1" d="M345.8,297.7c-4.6-21-27.1-28.4-43-14.4c-0.1,0.1-0.3,0-0.6-0.1c0-0.8-0.1-1.6,0-2.4c0.4-2.6-0.5-3.7-3.3-3.3
		c-1.8,0.2-3.7,0.2-5.5,0c-2.4-0.3-2.8,0.7-2.8,2.9c0.1,17.7,0,35.4,0,53.1c0,6.7,0.1,13.3,0,20c0,1.9,0.5,2.5,2.4,2.4
		c2.2-0.2,4.5-0.2,6.7,0c2.1,0.2,2.7-0.5,2.7-2.7c-0.1-7.8-0.1-15.5-0.1-23.4c1-0.2,1.3,0.3,1.6,0.6c10.5,8,25.1,7.3,34.1-1.8
		C346.6,319.9,348.2,309.1,345.8,297.7z M324.2,324c-6.5,2.6-14.6,0.7-19.8-4.5c-1.3-1.3-1.9-2.7-1.9-4.5c0.1-5.8,0.1-11.5,0-17.3
		c0-1.7,0.5-3.1,1.6-4.4c5.2-6,12.9-8.1,20-5.6c6.6,2.4,10.9,9.5,11.1,18.2C335.4,313.9,330.9,321.3,324.2,324z"/>
	<path class="st1" d="M470.4,256.7c-1.5-1.3-5-0.2-7.6-0.5c-2.6-0.3-3.4,0.5-3.4,3.3c0.2,7.7,0.1,15.5,0.1,23.7
		c-0.8-0.6-1.2-0.9-1.6-1.2c-9.5-7.6-23.5-7.6-32.7,0.2c-8.7,7.4-11,17.3-9.9,28.2c0.9,9,4.5,16.8,12.6,21.7
		c10.2,6.2,21,5.1,31.5-3.3c0.7,5.8,0.7,5.8,6.4,5.8c0.6,0,1.2-0.1,1.8,0c2.6,0.4,3.5-0.4,3.5-3.3c-0.1-22.2-0.1-44.5-0.1-66.7
		C471,261.8,472.2,258.2,470.4,256.7z M452.3,323.1c-11.3,6.4-24.1-0.5-25.5-13.7c-0.8-7.5,0.8-14.3,7.1-19.2
		c7.1-5.5,19.2-3.6,24.5,3.6c0.7,0.9,1,1.9,1,3.1c0,1.5,0,3,0,4.5c0,1.5,0,3,0,4.5c0,0.7,0,1.4-0.1,2.1c0,1.1-0.1,2.3,0.1,3.4
		C460.3,317.3,456.7,320.6,452.3,323.1z"/>
	<path class="st1" d="M559.6,282.4c0-5,0-5-4.9-5c-5.7,0-5.7,0-6.6,5.8c-0.8-0.6-1.2-1-1.7-1.4c-12.6-10.1-31.3-6.3-39.1,7.9
		c-3.6,6.6-4.3,13.8-3.6,21.1c1.5,16.1,14,26.4,29.9,24.8c5.6-0.6,10.2-3.2,14.5-7.5c0,1.7,0.1,2.8,0,3.9c-0.3,2.1,0.5,2.9,2.7,2.7
		c2-0.2,4.1-0.2,6.1,0c2.4,0.2,2.8-0.7,2.8-2.9C559.5,315.4,559.6,298.9,559.6,282.4z M547.7,297.7c-0.2,2.7,0,5.4,0,8.2
		c0,1.7,0.1,3.4,0,5.1c-0.1,2.8,0.6,5.7-1.9,8.2c-3.3,3.1-6.9,5.6-11.5,6.2c-13.8,1.8-21.1-11.2-18.9-23.4c1.2-6.7,4.7-11.9,11.4-14
		c7-2.2,13.3-0.6,18.7,4.5C547,293.8,547.8,295.4,547.7,297.7z"/>
	<path class="st1" d="M408.5,300.1c-3.3-20.8-26.2-31-43.3-19.4c-12.8,8.7-16.7,27.6-8.5,41.4c9.4,15.9,32.9,18.8,47.3,5.7
		c3.2-2.9,3.2-2.9,0.2-6.1c-0.9-1-1.9-1.9-2.7-2.9c-1-1.3-1.7-1.5-3-0.2c-2.8,2.7-6.1,4.6-9.8,5.8c-9.8,3.1-20.2-1.8-23.5-11.2
		c-0.8-2.3-0.9-3.4,2.2-3.3c6.4,0.2,12.7,0.1,19.1,0.1c6.7,0,13.4-0.1,20,0c1.9,0,2.5-0.6,2.5-2.4
		C409,305.1,408.9,302.6,408.5,300.1z M364.9,300.3c1-7.6,8.2-13.8,16-13.9c8.1-0.1,14.6,5.6,15.8,13.9
		C386.1,300.3,375.5,300.3,364.9,300.3z"/>
</g>
</svg>
