<?xml version="1.0" encoding="utf-8"?>
<!-- Generator: Adobe Illustrator 26.3.1, SVG Export Plug-In . SVG Version: 6.00 Build 0)  -->
<svg version="1.1" id="Layer_1" xmlns="http://www.w3.org/2000/svg" xmlns:xlink="http://www.w3.org/1999/xlink" x="0px" y="0px"
	 viewBox="0 0 595.3 595.3" style="enable-background:new 0 0 595.3 595.3;" xml:space="preserve">
<style type="text/css">
	.st0{fill:#F9C44C;}
	.st1{fill:#212943;}
</style>
<path class="st0" d="M297.6,595.3L297.6,595.3C133.3,595.3,0,462,0,297.6l0,0C0,133.3,133.3,0,297.6,0l0,0
	C462,0,595.3,133.3,595.3,297.6l0,0C595.3,462,462,595.3,297.6,595.3z"/>
<g>
	<path class="st1" d="M112,395.7c-39.8-84-32.4-163.6,27.6-235.5c88.1-105.8,258.7-94.3,333.8,21c0.7,0.7,0.7,1.8,1.5,2.9
		c-33.9,16.6-68.2,32.8-102.1,50.1c-5.9,2.9-9.9,3.7-16.2,0.7c-41.3-21.4-82.5-42-123.8-63.4c-9.2-4.8-16.2-5.2-23.6,3.7
		c19.5,15.8,39.4,31.3,58.6,47.5c12.9,10.7,27.6,18.8,36.8,33.5c7.7,12.2,8.1,12.2-4.4,19.2c-28.7,15.8-56.4,33.2-83.6,51.2
		C181.6,349.3,146.6,372.5,112,395.7z"/>
	<path class="st1" d="M484.9,201.9c24,46.1,28.7,94.7,17.3,145.2c-19.5,88.1-96.9,157.7-196.4,160.7c-78.9,2.2-141.9-31-185-98.4
		c3.7-1.8,7.4-3.3,11.1-5.2c63.7-32.4,129.3-61.5,190.9-98.8c9.2-5.5,11.4-1.5,14.7,5.9c9.6,20.6,9.2,43.1,13.3,64.9
		c3.7,20.3,6.3,40.5,9.6,61.2c9.9-3.3,13.6-8.5,14-18.1c1.8-46.8,5.2-93.6,7.4-140.4c0.4-4.4,1.1-8.5,5.2-11.1
		C419.7,245.8,452.5,223.7,484.9,201.9z"/>
	<path class="st0" d="M484.9,201.9c-32.8,22.1-65.2,43.8-98,65.6c-4.4,2.9-5.2,6.6-5.2,11.1c-2.6,46.8-5.5,93.6-7.4,140.4
		c-0.4,9.9-4.1,15.1-14,18.1c-3.3-20.6-5.9-40.9-9.6-61.2c-4.1-21.7-3.7-44.2-13.3-64.9c-3.3-7.4-5.5-11.1-14.7-5.9
		c-61.2,37.2-126.8,66.7-190.9,98.8c-3.7,1.8-7.4,3.3-11.1,5.2c-4.8-3.3-6.6-8.8-8.8-14c35-23.2,70-46.1,105-69.3
		c27.3-18.1,54.9-35.4,83.6-51.2c12.5-7,12.2-7,4.4-19.2c-9.2-14.7-24.3-22.8-36.8-33.5c-19.2-16.2-39.1-31.7-58.6-47.5
		c7-8.8,14.4-8.5,23.6-3.7c41.3,21.4,82.5,42,123.8,63.4c5.9,2.9,9.9,2.6,16.2-0.7c33.9-17.3,67.8-33.5,102.1-50.1
		C480.1,188.7,481.6,195.7,484.9,201.9z"/>
</g>
</svg>
