<svg xmlns="http://www.w3.org/2000/svg" xml:space="preserve" id="Layer_1" x="0" y="0" style="enable-background:new 0 0 595.3 595.3" version="1.1" viewBox="0 0 595.3 595.3"><style>.st1{fill:#fff}.st2{fill:#fedf13}</style><path d="M297.6 595.3C133.3 595.3 0 462 0 297.6 0 133.3 133.3 0 297.6 0 462 0 595.3 133.3 595.3 297.6c0 164.4-133.3 297.7-297.7 297.7" style="fill:#202b60"/><path d="M584.9 375.9c.5-2 1.1-4 1.6-6zM586.4 369.9" class="st1"/><path d="M244.4 445.8c23.4-.1 40.9-17.3 40.6-40-.3-21.8-18.6-39.4-41.1-39-22.7.3-40.7 17.7-40.9 39.7-.2 22 18.1 39.4 41.4 39.3m-.6-74.5c20-.1 36.5 15.3 36.6 34.6.3 19.3-15.9 35.2-35.9 35.3-20.7.1-36.9-15.2-36.7-35 0-19.3 15.9-34.8 36-34.9M286.1 371.9c3.8.1 7.5.4 11.3 0 6.4-.6 8.7 1.7 8.5 8.2-.4 19.9-.1 39.7-.1 59.4 0 1.8-.7 5 2.6 4.7 2.6-.1 2-2.8 2-4.7v-31.2c0-9.9.3-19.9-.1-29.8-.1-5.2 1.8-7.2 7.1-7 4.4.3 8.9 0 13.5-.1 1.3 0 3.1-.1 2.8-2.1-.1-1.3-1.4-1.8-2.7-1.8h-45.2c-1.6 0-3 .4-3 2.3.2 2.1 1.9 2.1 3.3 2.1M129.1 406.2v32.6c0 2.1-1 5.7 2.4 5.7 4.1.1 2.7-3.7 2.7-6 .1-8.5.3-17 0-25.5-.1-4.4 1.6-5.8 5.8-5.8 13.2.1 26.5.1 39.7 0 4.5 0 6.4 1.4 6.2 6.1-.3 8.8-.1 17.4 0 26.2 0 2-.6 4.8 2.4 5 3.3.1 2.7-2.7 2.7-4.7v-66.7c0-2 .9-5-2.3-5-3.5-.1-2.7 3.1-2.8 5.4-.1 7.8-.3 15.6 0 23.4.3 5.1-1.7 6.4-6.5 6.4-13-.3-26-.3-39 0-4.5.1-6.4-1.3-6.1-6 .3-6.8.3-13.8 0-20.6-.1-3 2-8.1-2.3-8.2-4.7-.1-2.6 5.1-2.7 7.9-.5 9.9-.2 19.9-.2 29.8M413.3 445c10.8-.1 21.7 0 32.5-.1 1.7 0 4.4.6 4.1-2.4-.1-2.3-2.6-1.7-4-1.8-8.2-.1-16.5-.4-24.7 0-6.4.3-8.7-1.7-8.5-8.2.4-19.9.1-39.6.1-59.4 0-2 .6-5-2.3-5.1-3.1 0-2.3 3-2.3 5-.1 10.8 0 21.7 0 32.5 0 11.3.1 22.7 0 33.9-.1 4.1 1.2 5.8 5.1 5.6M345.4 406.2c0 10.9.1 21.7 0 32.6 0 4.3 1.1 6.5 6 6.4 12.2-.3 24.5 0 36.9-.1 2 0 5.1.7 5-2.3-.1-2.8-3.4-1.8-5.2-1.8-10.4-.1-20.7-.3-31.2 0-5 .1-6.7-1.8-6.5-6.7.3-6.8.3-13.8 0-20.6-.1-5.1 2-6.5 6.8-6.4 8.5.3 17 .1 25.5 0 1.8 0 5.1 1 5.2-1.8.1-3.1-3.1-2.1-5-2.1-8.9-.1-17.9-.1-26.9 0-4 .1-5.5-1.3-5.5-5.2.1-6.4.3-12.8 0-19.1-.3-5.4 2.1-7 7.1-6.8 10.4.3 20.7.1 31.2 0 1.8 0 5 .9 4.8-2.3-.1-2.4-2.8-1.8-4.7-1.8-12.3 0-24.5.1-36.9-.1-5.2-.1-6.4 2.1-6.4 6.7-.1 10.1-.2 20.7-.2 31.4M471.1 404.3c6.7 3 13.8 5.1 20.3 8.2 7.9 3.7 11.3 9.5 10.4 15.9-1 6.5-7.9 11.9-15.9 12.9-7.9 1-14.9-1.4-21.4-5.8-1.7-1.1-3.7-4.5-5.7-1-1.7 3 1.7 4 3.4 5.1 5.8 3.8 12.2 6.1 21.4 6 .6 0 3.1 0 5.7-.6 14.2-2.8 21.8-15.9 16-27.2-2.8-5.2-7.7-8.4-12.9-10.5-6.5-2.7-13.3-4.8-19.7-7.8-7.7-3.5-10.6-8.8-9.6-15.6 1-6.7 6.5-11.5 14.3-12.6 6.8-1 13.2.3 19.3 3.3 1.7.9 3.7 2.1 4.8-.3 1.1-2.4-1.3-3.3-2.8-4-7-3.3-14.3-4.7-22-3.3-10.5 1.8-17.4 8.2-18.4 16.7-1.4 9.6 2.6 16.1 12.8 20.6M102.5 234.2c4.7-.5 9.7.3 14.4-.3 8.9-.8 12.6 2.6 12.3 11.8-.5 15.2-.3 30.4-.3 45.8 0 15.2.3 30.6 0 45.8-.3 8.6 3.1 12 11.5 11 3.4-.3 7.1-.5 10.5 0 10.5 1.6 13.1-3.1 13.1-13.1-.5-40.8-.3-81.9-.3-122.7 0-20.2 7.3-28.3 27-28.5 8.9 0 13.1-2.4 12-11.8-.5-4.7-.3-9.7 0-14.4 0-4.4-1.3-6.8-6.5-7.6-28.5-4.4-59.1 14.4-65.2 42.4-2.4 10.7-6.8 13.9-16.5 12.6-3.4-.5-7.1.3-10.5-.3-12.6-2.1-16.5 2.9-16 15.7.4 11.2 4.1 14.9 14.5 13.6" class="st2"/><path d="M193.6 321.4c9.2 14.1 21.7 23.6 37.7 28.8 27.5 8.9 51-.3 75.1-17.8-4.4 23.8 11.5 14.7 20.7 16.2 7.6 1.3 11-2.4 11-10.2-.3-41.1 0-81.9 0-123 0-3.4.5-8.1-3.1-9.2-8.4-2.4-17.5-2.4-25.9-.3-6.3 1.6-1 9.7-4.7 14.7-37.2-27-72-26.7-100-.3-26.8 25.2-31.5 69.4-10.8 101.1m66.7-90.3c24.9-.3 44.2 19.1 44.8 44.8.5 26.2-18.8 46.8-44 46.8-24.9 0-44.8-19.6-44.8-44.8-.5-26.2 18.9-46.6 44-46.8M354.6 348c8.1.8 16.5 1 24.6.3 7.3-.8 1.6-9.7 6-12.6 38.7 24.9 74.8 23.6 100.5-3.4 26.2-27.5 28.8-71.7 6.3-102.3-23.6-31.9-58.6-37.4-106-14.4v-35.3c0-25.1 0-24.9-25.4-23.3-7.1.5-10.2 2.6-9.9 10.2.3 57.6 0 114.9.3 172.5-.4 3.1-1.2 7.8 3.6 8.3m73.8-116.9c24.6-.3 44.2 19.6 44.5 45 .3 26.4-19.1 46.8-44.2 46.6-25.1-.3-44.8-20.7-44.8-46.6-.3-24.6 19.6-45 44.5-45" class="st2"/></svg>