<?xml version="1.0" encoding="utf-8"?>
<!-- Generator: Adobe Illustrator 26.3.1, SVG Export Plug-In . SVG Version: 6.00 Build 0)  -->
<svg version="1.1" id="Layer_1" xmlns="http://www.w3.org/2000/svg" xmlns:xlink="http://www.w3.org/1999/xlink" x="0px" y="0px"
	 viewBox="0 0 595.3 595.3" style="enable-background:new 0 0 595.3 595.3;" xml:space="preserve">
<style type="text/css">
	.st0{fill:#202B60;}
	.st1{fill:#FEDF13;}
</style>
<path class="st0" d="M297.6,595.3L297.6,595.3C133.3,595.3,0,462,0,297.6v0C0,133.3,133.3,0,297.6,0h0
	C462,0,595.3,133.3,595.3,297.6v0C595.3,462,462,595.3,297.6,595.3z"/>
<g>
	<path class="st1" d="M330.3,336c16.5-0.1,28.8-12.2,28.6-28.2c-0.2-15.4-13.1-27.8-29-27.5c-16,0.2-28.7,12.5-28.8,28
		C301,323.8,313.9,336.1,330.3,336z M329.9,283.5c14.1-0.1,25.7,10.8,25.8,24.4c0.2,13.6-11.2,24.8-25.3,24.9
		c-14.6,0.1-26-10.7-25.9-24.7C304.5,294.5,315.7,283.6,329.9,283.5z"/>
	<path class="st1" d="M359.7,283.9c2.7,0.1,5.3,0.3,8,0c4.5-0.4,6.1,1.2,6,5.8c-0.3,14-0.1,28-0.1,41.9c0,1.3-0.5,3.5,1.8,3.3
		c1.8-0.1,1.4-2,1.4-3.3c0-7.3,0-14.6,0-22c0,0,0,0,0,0c0-7,0.2-14-0.1-21c-0.1-3.7,1.3-5.1,5-4.9c3.1,0.2,6.3,0,9.5-0.1
		c0.9,0,2.2-0.1,2-1.5c-0.1-0.9-1-1.3-1.9-1.3c-10.6,0-21.3,0-31.9,0c-1.1,0-2.1,0.3-2.1,1.6C357.5,283.9,358.7,283.9,359.7,283.9z"
		/>
	<path class="st1" d="M249,308.1c0,7.7,0,15.3,0,23c0,1.5-0.7,4,1.7,4c2.9,0.1,1.9-2.6,1.9-4.2c0.1-6,0.2-12,0-18
		c-0.1-3.1,1.1-4.1,4.1-4.1c9.3,0.1,18.7,0.1,28,0c3.2,0,4.5,1,4.4,4.3c-0.2,6.2-0.1,12.3,0,18.5c0,1.4-0.4,3.4,1.7,3.5
		c2.3,0.1,1.9-1.9,1.9-3.3c0-15.7,0-31.3,0-47c0-1.4,0.6-3.5-1.6-3.5c-2.5-0.1-1.9,2.2-2,3.8c-0.1,5.5-0.2,11,0,16.5
		c0.2,3.6-1.2,4.5-4.6,4.5c-9.2-0.2-18.3-0.2-27.5,0c-3.2,0.1-4.5-0.9-4.3-4.2c0.2-4.8,0.2-9.7,0-14.5c-0.1-2.1,1.4-5.7-1.6-5.8
		c-3.3-0.1-1.8,3.6-1.9,5.6C248.8,294.1,249,301.1,249,308.1z"/>
	<path class="st1" d="M449.4,335.5c7.6-0.1,15.3,0,22.9-0.1c1.2,0,3.1,0.4,2.9-1.7c-0.1-1.6-1.8-1.2-2.8-1.3
		c-5.8-0.1-11.6-0.3-17.4,0c-4.5,0.2-6.1-1.2-6-5.8c0.3-14,0.1-27.9,0.1-41.9c0-1.4,0.4-3.5-1.6-3.6c-2.2,0-1.6,2.1-1.6,3.5
		c-0.1,7.6,0,15.3,0,22.9c0,8,0.1,16,0,23.9C445.7,334.4,446.6,335.6,449.4,335.5z"/>
	<path class="st1" d="M401.5,308.1c0,7.7,0.1,15.3,0,23c0,3,0.8,4.6,4.2,4.5c8.6-0.2,17.3,0,26-0.1c1.4,0,3.6,0.5,3.5-1.6
		c-0.1-2-2.4-1.3-3.7-1.3c-7.3-0.1-14.6-0.2-22,0c-3.5,0.1-4.7-1.3-4.6-4.7c0.2-4.8,0.2-9.7,0-14.5c-0.1-3.6,1.4-4.6,4.8-4.5
		c6,0.2,12,0.1,18,0c1.3,0,3.6,0.7,3.7-1.3c0.1-2.2-2.2-1.5-3.5-1.5c-6.3-0.1-12.6-0.1-19,0c-2.8,0.1-3.9-0.9-3.9-3.7
		c0.1-4.5,0.2-9,0-13.5c-0.2-3.8,1.5-4.9,5-4.8c7.3,0.2,14.6,0.1,22,0c1.3,0,3.5,0.6,3.4-1.6c-0.1-1.7-2-1.3-3.3-1.3
		c-8.7,0-17.3,0.1-26-0.1c-3.7-0.1-4.5,1.5-4.5,4.7C401.6,293.1,401.5,300.6,401.5,308.1z"/>
	<path class="st1" d="M490.1,306.8c4.7,2.1,9.7,3.6,14.3,5.8c5.6,2.6,8,6.7,7.3,11.2c-0.7,4.6-5.6,8.4-11.2,9.1
		c-5.6,0.7-10.5-1-15.1-4.1c-1.2-0.8-2.6-3.2-4-0.7c-1.2,2.1,1.2,2.8,2.4,3.6c4.1,2.7,8.6,4.3,15.1,4.2c0.4,0,2.2,0,4-0.4
		c10-2,15.4-11.2,11.3-19.2c-2-3.7-5.4-5.9-9.1-7.4c-4.6-1.9-9.4-3.4-13.9-5.5c-5.4-2.5-7.5-6.2-6.8-11c0.7-4.7,4.6-8.1,10.1-8.9
		c4.8-0.7,9.3,0.2,13.6,2.3c1.2,0.6,2.6,1.5,3.4-0.2c0.8-1.7-0.9-2.3-2-2.8c-4.9-2.3-10.1-3.3-15.5-2.3c-7.4,1.3-12.3,5.8-13,11.8
		C480.1,299,482.9,303.6,490.1,306.8z"/>
	<path class="st1" d="M85.2,291c1.8-0.2,3.7,0.1,5.5-0.1c3.4-0.3,4.8,1,4.7,4.5c-0.2,5.8-0.1,11.6-0.1,17.5c0,0,0,0,0,0
		c0,5.8,0.1,11.7,0,17.5c-0.1,3.3,1.2,4.6,4.4,4.2c1.3-0.1,2.7-0.2,4,0c4,0.6,5-1.2,5-5c-0.2-15.6-0.1-31.3-0.1-46.9
		c0-7.7,2.8-10.8,10.3-10.9c3.4,0,5-0.9,4.6-4.5c-0.2-1.8-0.1-3.7,0-5.5c0-1.7-0.5-2.6-2.5-2.9c-10.9-1.7-22.6,5.5-24.9,16.2
		c-0.9,4.1-2.6,5.3-6.3,4.8c-1.3-0.2-2.7,0.1-4-0.1c-4.8-0.8-6.3,1.1-6.1,6C79.8,290.1,81.2,291.5,85.2,291z"/>
	<path class="st1" d="M120,324.3c3.5,5.4,8.3,9,14.4,11c10.5,3.4,19.5-0.1,28.7-6.8c-1.7,9.1,4.4,5.6,7.9,6.2
		c2.9,0.5,4.2-0.9,4.2-3.9c-0.1-15.7,0-31.3,0-47c0-1.3,0.2-3.1-1.2-3.5c-3.2-0.9-6.7-0.9-9.9-0.1c-2.4,0.6-0.4,3.7-1.8,5.6
		c-14.2-10.3-27.5-10.2-38.2-0.1C113.9,295.3,112.1,312.2,120,324.3z M145.5,289.8c9.5-0.1,16.9,7.3,17.1,17.1
		c0.2,10-7.2,17.9-16.8,17.9c-9.5,0-17.1-7.5-17.1-17.1C128.5,297.7,135.9,289.9,145.5,289.8z"/>
	<path class="st1" d="M181.5,334.5c3.1,0.3,6.3,0.4,9.4,0.1c2.8-0.3,0.6-3.7,2.3-4.8c14.8,9.5,28.6,9,38.4-1.3
		c10-10.5,11-27.4,2.4-39.1c-9-12.2-22.4-14.3-40.5-5.5c0-4.9,0-9.2,0-13.5c0-9.6,0-9.5-9.7-8.9c-2.7,0.2-3.9,1-3.8,3.9
		c0.1,22,0,43.9,0.1,65.9C180,332.5,179.7,334.3,181.5,334.5z M209.7,289.8c9.4-0.1,16.9,7.5,17,17.2c0.1,10.1-7.3,17.9-16.9,17.8
		c-9.6-0.1-17.1-7.9-17.1-17.8C192.6,297.6,200.2,289.8,209.7,289.8z"/>
</g>
</svg>
