<?xml version="1.0" encoding="utf-8"?>
<!-- Generator: Adobe Illustrator 26.3.1, SVG Export Plug-In . SVG Version: 6.00 Build 0)  -->
<svg version="1.1" id="Layer_1" xmlns="http://www.w3.org/2000/svg" xmlns:xlink="http://www.w3.org/1999/xlink" x="0px" y="0px"
	 viewBox="0 0 595.3 595.3" style="enable-background:new 0 0 595.3 595.3;" xml:space="preserve">
<style type="text/css">
	.st0{fill:#FFFFFF;}
	.st1{fill:#BF2331;}
</style>
<path class="st0" d="M297.6,595.3L297.6,595.3C133.3,595.3,0,462,0,297.6l0,0C0,133.3,133.3,0,297.6,0l0,0
	C462,0,595.3,133.3,595.3,297.6l0,0C595.3,462,462,595.3,297.6,595.3z"/>
<g>
	<path class="st1" d="M234.2,303.2c30.4-13.9,62.3-24,95-31.2c20.7-4.5,41.7-8.3,62.7-9c8.6-0.4,10.1-3,6.8-10.9
		c-19.9-47.7-54.8-76.6-106.6-81.5c-51.8-5.3-92,16.1-120.2,59.7c-6,9-11.6,13.9-22.2,14.3c-5.6,0-11.3,1.5-19.2,2.6
		c7.1,6,12,10.5,17.6,14.3c6,4.1,7.1,8.6,6,15.4c-10.5,65.3,30.4,127.3,94.2,143.8c49.6,12.8,101.8-5.6,132.9-47.3
		c3-3.8,5.6-7.5,10.5-9.4c24-10.5,47.3-22.9,66.5-43.9c-0.4,8.3-4.5,13.1-6.4,21.8c33-18,39.1-52.2,55.2-79.2
		c-7.1,27-18,52.9-30.4,77.7c-10.9,22.2-24,43.2-37.5,63.5c-45.4,68.7-129.5,100.3-209.5,79.2c-78.9-21-135.6-90.1-141.2-172.4
		c-6.8-97.3,60.5-184,155.8-201.6c95.8-18,189.6,39.1,218.2,131.8c3.4,10.5,5.6,21,4.9,32.3c-0.8,10.9-5.6,17.3-16.9,19.9
		c-28.9,6.8-58.2,9.8-87.5,11.3C320.6,306.2,277.8,306.2,234.2,303.2z"/>
	<path class="st1" d="M211.7,241.6c-5.3-0.8-9-3.4-9-9c0-6,3.4-9.8,9.4-9.8c6,0,9,3.8,9,10.1C220.7,238.6,217,241.3,211.7,241.6z"/>
</g>
</svg>
