<?xml version="1.0" encoding="utf-8"?>
<!-- Generator: Adobe Illustrator 26.3.1, SVG Export Plug-In . SVG Version: 6.00 Build 0)  -->
<svg version="1.1" id="Layer_1" xmlns="http://www.w3.org/2000/svg" xmlns:xlink="http://www.w3.org/1999/xlink" x="0px" y="0px"
	 viewBox="0 0 595.3 595.3" style="enable-background:new 0 0 595.3 595.3;" xml:space="preserve">
<style type="text/css">
	.st0{fill:#FFFFFF;}
	.st1{fill:#2274DF;}
	.st2{fill:#EF6924;}
</style>
<path class="st0" d="M297.6,595.3L297.6,595.3C133.3,595.3,0,462,0,297.6v0C0,133.3,133.3,0,297.6,0h0
	C462,0,595.3,133.3,595.3,297.6v0C595.3,462,462,595.3,297.6,595.3z"/>
<g>
	<path class="st1" d="M245,297.8c0,12.1-0.1,24.2,0.1,36.4c0,2.4-0.6,3.1-3,3.1c-6.1-0.2-12.2-0.1-18.4,0c-2,0-2.8-0.5-2.7-2.6
		c0.1-24.4,0.1-48.7,0-73.1c0-2,0.5-2.8,2.7-2.7c6.2,0.1,12.5,0.2,18.7,0c2.4-0.1,2.8,0.9,2.8,3C244.9,273.8,245,285.8,245,297.8z"
		/>
	<path class="st1" d="M374.1,298c0,12-0.1,24,0.1,36c0,2.5-0.6,3.3-3.2,3.2c-6-0.2-12-0.1-18,0c-2.1,0-3-0.4-3-2.8
		c0.1-24.2,0.1-48.5,0-72.7c0-2.2,0.6-2.9,2.9-2.9c6.1,0.1,12.2,0.2,18.4,0c2.5-0.1,2.9,0.9,2.9,3.1C374.1,274,374.1,286,374.1,298z
		"/>
	<path class="st1" d="M362.5,221.8c9.8,0.1,15.8,7.7,12.9,16.4c-2.3,6.7-10.6,10.1-18.4,7.5c-6.6-2.2-10.1-8.9-8.1-15.4
		C350.6,224.9,355.7,221.7,362.5,221.8z"/>
	<path class="st1" d="M233,221.8c8,0,13.6,4.6,13.9,11.3c0.4,9-7.6,15.1-17,13.1c-6.8-1.4-11.2-7-10.6-13.3
		C220,226.1,225.2,221.8,233,221.8z"/>
	<path class="st2" d="M117.4,261.3c0-1.7-0.4-2.5-2.3-2.5c-6.6,0.1-13.1,0.1-19.7,0c-1.9,0-2.3,0.8-2.2,2.5c0.1,2,0,4,0,6.8
		c-4-5.2-8.1-8.9-13.7-10c-14.8-3-28.3,0.9-36.4,14.6c-9.1,15.5-9.5,32.1-2.8,48.6c2.5,6.2,7.1,11,13.1,14.2
		c13.7,7.2,28.4,3.9,39.7-9.4c0,3.3,0.1,6,0,8.7c-0.5,10.3-7.2,18.3-17.3,20.4c-10.4,2.2-20.3,0.3-29.6-4.5c-2.3-1.2-3.1-1.1-3,1.7
		c0.2,4.4,0.3,8.9,0,13.3c-0.3,3.3,1.2,4.6,4.1,5.4c12.2,3.6,24.6,3.6,37,1.1c19.6-3.9,32-18.3,32.8-38.3
		C118,309.8,117.2,285.5,117.4,261.3z M89.9,313.4c-3.5,5.4-8.5,7.6-14.7,7.1c-6-0.5-10.2-3.9-12.3-9.3c-3.6-8.8-3.2-17.8,0.6-26.4
		c3.2-7.2,9.6-10.3,17.2-9.1c6.1,1,11.4,6.6,12.5,13.6c0.4,2.3,0.5,4.7,0.6,6.1C93.5,302.4,93.3,308.2,89.9,313.4z"/>
	<path class="st1" d="M338.7,281c-4.8-19.3-19.6-26.8-38-22.9c-7.2,1.5-12.5,6.1-17.4,11.7c0-1.2,0-2.5,0-3.7
		c0-13.9-0.1-27.9,0.1-41.8c0-2.4-0.6-3.1-3-3c-6.3,0.2-12.7,0.1-19,0c-1.8,0-2.3,0.5-2.3,2.3c0.1,3.9,0,7.7,0,11.6
		c0,32.8,0.1,65.5-0.1,98.3c0,3.2,0.9,4,4,3.8c5.9-0.2,11.8-0.1,17.7,0c2.1,0,2.9-0.6,2.7-2.7c-0.1-1.8,0-3.7,0-6.5
		c4.3,5.6,8.8,8.9,14.7,10.3c15.6,3.6,30.5-3.4,37.5-18.2C341.5,307.5,342,294.3,338.7,281z M313.6,309.9
		c-2.9,7.5-8.8,11.3-16.6,10.7c-6.8-0.5-12.2-5.5-13.5-13.1c-1.1-6.3-1.1-12.6,0.3-18.9c1.7-7.4,7.6-12.5,14.4-12.9
		c10.1-0.6,16.6,5.6,17.4,16.5c0.1,1.6,0,3.2,0,4.7C315.8,301.3,315.2,305.7,313.6,309.9z"/>
	<path class="st1" d="M467.3,279.1c-5.7-20.4-23.4-25.1-39.6-20.4c-6.3,1.8-10.9,6.3-15.4,11.1c0-1.1,0-2.2,0-3.3
		c0-13.8-0.1-27.6,0.1-41.5c0-3.2-1-3.9-4-3.8c-5.5,0.2-11.1,0.2-16.7,0c-2.8-0.1-3.6,0.6-3.6,3.5c0.2,15,0.1,29.9,0.1,44.9
		c0,21.4,0,42.8-0.1,64.2c0,2.6,0.5,3.6,3.3,3.5c4.6-0.2,9.3-0.1,13.9-0.1c6.8,0,6.8,0,6.9-7c0-0.5-0.3-1.1,0.6-1.6
		c3.7,4.9,8.4,8.4,14.5,9.8c14.1,3.2,28-2.4,35.4-14.9C471,309.5,471.6,294.4,467.3,279.1z M442.7,309.8c-3,8.1-10,12.1-17.9,10.7
		c-7.2-1.3-12.4-7.8-12.7-15.9c-0.1-1.9,0-3.8,0-5.8c-0.1-4.6-0.1-9.2,2-13.6c3.3-6.8,9-10.1,16.8-9.5c6.2,0.5,11.1,4.7,12.8,11.7
		C445.7,294.9,445.5,302.5,442.7,309.8z"/>
	<path class="st2" d="M204.6,273.2c-8.5-12.1-20.7-16.1-36.7-16.1c-8.7-0.1-18.6,2.1-27.1,8.8c-10.4,8.1-14.1,19.4-14.1,32
		c-0.1,14.1,4.3,26.3,16.6,34.5c13.8,9.2,38,8.9,51.7-0.5c10.9-7.6,15.6-18.5,16.4-31.3C212,290.9,210.4,281.5,204.6,273.2z
		 M185,309.9c-2.3,6.9-7.4,10.6-14.4,10.8c-8.8,0.2-14.3-2.9-17.2-9.9c-1.6-3.9-2-8.1-2-12.3c0.1-4.4,0.4-8.8,2.3-12.9
		c3.2-7.1,9-10.4,18-9.8c7,0.4,12,4.5,14,11.8C187.5,294.9,187.4,302.5,185,309.9z"/>
	<path class="st1" d="M552.1,272.9c-8.1-12.1-20.7-15.8-34.6-15.5c-2.1,0-4.3-0.1-6.4,0c-16,1.1-29.5,10.9-34.1,25
		c-3.3,10.2-3.4,20.5-0.3,30.7c3.3,10.8,10.4,18.3,20.8,22.7c7.2,3,14.7,3.6,22.3,3.2c15.3-0.8,28.1-6.5,34.8-20.9
		C561.7,302.9,561.7,287.3,552.1,272.9z M533.2,308.7c-2.1,7.6-7.4,11.8-15,11.9c-9.3,0.2-15-3.4-17.6-11.3
		c-1.2-3.6-1.6-7.3-1.5-11.3c-0.1-4.5,0.5-9.1,2.6-13.3c3.5-7.1,9.9-10.2,18.7-9c6.9,0.9,11.6,5.4,13.3,13.1
		C535.2,295.5,535,302.1,533.2,308.7z"/>
</g>
</svg>
