<?xml version="1.0" encoding="utf-8"?>
<!-- Generator: Adobe Illustrator 26.3.1, SVG Export Plug-In . SVG Version: 6.00 Build 0)  -->
<svg version="1.1" id="Layer_1" xmlns="http://www.w3.org/2000/svg" xmlns:xlink="http://www.w3.org/1999/xlink" x="0px" y="0px"
	 viewBox="0 0 595.3 595.3" style="enable-background:new 0 0 595.3 595.3;" xml:space="preserve">
<style type="text/css">
	.st0{fill:#EF6924;}
	.st1{fill:#FFFFFF;}
</style>
<path class="st0" d="M297.6,595.3L297.6,595.3C133.3,595.3,0,462,0,297.6l0,0C0,133.3,133.3,0,297.6,0l0,0
	C462,0,595.3,133.3,595.3,297.6l0,0C595.3,462,462,595.3,297.6,595.3z"/>
<g>
	<path class="st1" d="M282.8,167.8c0-4.1-1-6-5.5-6c-15.8,0.2-31.4,0.2-47.2,0c-4.5,0-5.5,1.9-5.3,6c0.2,4.8,0,9.6,0,16.3
		c-9.6-12.5-19.4-21.3-32.8-23.9c-35.4-7.2-67.8,2.2-87.2,35c-21.8,37.1-22.7,76.9-6.7,116.4c6,14.8,17,26.3,31.4,34
		c32.8,17.2,68,9.3,95.1-22.5c0,7.9,0.2,14.4,0,20.8c-1.2,24.7-17.2,43.8-41.4,48.8c-24.9,5.3-48.6,0.7-70.9-10.8
		c-5.5-2.9-7.4-2.6-7.2,4.1c0.5,10.5,0.7,21.3,0,31.8c-0.7,7.9,2.9,11,9.8,12.9c29.2,8.6,58.9,8.6,88.6,2.6
		c46.9-9.3,76.6-43.8,78.5-91.7C284.2,283.9,282.3,225.8,282.8,167.8z M216.9,292.6c-8.4,12.9-20.4,18.2-35.2,17
		c-14.4-1.2-24.4-9.3-29.4-22.3c-8.6-21.1-7.7-42.6,1.4-63.2c7.7-17.2,23-24.7,41.2-21.8c14.6,2.4,27.3,15.8,29.9,32.6
		c1,5.5,1.2,11.3,1.4,14.6C225.5,266.2,225.1,280.1,216.9,292.6z"/>
	<path class="st1" d="M491.5,196.3c-20.4-29-49.6-38.5-87.9-38.5c-20.8-0.2-44.5,5-64.9,21.1c-24.9,19.4-33.8,46.4-33.8,76.6
		c-0.2,33.8,10.3,63,39.7,82.6c33,22,91,21.3,123.8-1.2c26.1-18.2,37.4-44.3,39.3-74.9C509.3,238.7,505.4,216.2,491.5,196.3z
		 M444.6,284.2c-5.5,16.5-17.7,25.4-34.5,25.9c-21.1,0.5-34.2-6.9-41.2-23.7c-3.8-9.3-4.8-19.4-4.8-29.4c0.2-10.5,1-21.1,5.5-30.9
		c7.7-17,21.5-24.9,43.1-23.5c16.8,1,28.7,10.8,33.5,28.3C450.6,248.3,450.4,266.5,444.6,284.2z"/>
</g>
</svg>
