<?xml version="1.0" encoding="utf-8"?>
<!-- Generator: Adobe Illustrator 26.3.1, SVG Export Plug-In . SVG Version: 6.00 Build 0)  -->
<svg version="1.1" id="Layer_1" xmlns="http://www.w3.org/2000/svg" xmlns:xlink="http://www.w3.org/1999/xlink" x="0px" y="0px"
	 viewBox="0 0 595.3 595.3" style="enable-background:new 0 0 595.3 595.3;" xml:space="preserve">
<style type="text/css">
	.st0{fill:#FFFFFF;}
	.st1{fill:#EA4235;}
	.st2{fill:#34A753;}
	.st3{fill:#4287F5;}
	.st4{fill:#F9BC06;}
</style>
<path class="st0" d="M297.6,595.3L297.6,595.3C133.3,595.3,0,462,0,297.6l0,0C0,133.3,133.3,0,297.6,0l0,0
	C462,0,595.3,133.3,595.3,297.6l0,0C595.3,462,462,595.3,297.6,595.3z"/>
<g>
	<path class="st1" d="M114.9,203c1.9-4.2,4.3-8.2,6.6-12.2c8.8-14.7,19.2-28.3,31.2-40.5c12.7-12.9,26.7-24.1,42.2-33.4
		c18.6-11.2,38.3-19.4,59.4-24.4c13.3-3.2,26.8-4.9,40.4-5.3c21-0.6,41.6,1.7,61.9,7.2c31.1,8.5,58.5,23.6,82,45.7
		c0.6,0.6,1.3,1.2,1.9,1.8c1.7,1.6,1.7,1.6,0.1,3.2c-12.1,11.9-24.1,23.8-36.2,35.7c-6.8,6.7-13.6,13.3-20.3,20
		c-0.9,0.9-1.4,0.8-2.3,0c-15.2-13.6-32.7-22.6-52.6-27c-17.6-3.9-35.3-4.4-53-0.7c-18.4,3.9-35,11.7-49.8,23.4
		c-19.6,15.6-33.2,35.3-41.4,59c-0.2,0.6-0.5,1.2-0.7,1.9c-0.5-0.1-0.8-0.3-1.2-0.6c-3.7-2.9-7.4-5.8-11.1-8.7
		c-6.6-5.2-13.2-10.4-19.9-15.5c-6.6-5.2-13.1-10.3-19.7-15.5C126.7,212.4,120.8,207.7,114.9,203z"/>
	<path class="st2" d="M442.6,457.8c-5.4,5.4-11.4,10.1-17.6,14.6c-14.6,10.4-30.5,18.3-47.4,24c-15.2,5.1-30.9,8.3-46.9,10.1
		c-10,1.1-20,1.7-30,1.6c-26-0.1-51-4.9-75.1-14.6c-21.1-8.5-40.4-20.1-57.8-34.7c-21.7-18.3-39.2-40.1-52.3-65.3
		c-0.2-0.4-0.5-0.9-0.5-1.4c0.4-0.3,0.9-0.5,1.3-0.8c10.3-8,20.5-16.1,30.8-24.1c9.6-7.5,19.2-15,28.7-22.6c2.9-2.3,5.7-4.7,8.8-6.7
		c2.5,7.2,5.3,14.2,8.9,20.9c11.7,21.7,28.1,38.9,49.7,50.9c16.9,9.4,35,14.4,54.3,14.9c16.5,0.4,32.8-1.5,48.5-6.6
		c9.6-3.1,18.7-7.4,27.1-13c0.5-0.3,1-0.6,1.6-0.9c0.1,0.7,0.7,1,1.1,1.4c6.4,5,12.7,10,19.1,15c5.2,4.1,10.5,8.1,15.7,12.2
		c6.5,5.1,13,10.2,19.5,15.3C434.2,451.1,438.4,454.5,442.6,457.8z"/>
	<path class="st3" d="M442.6,457.8c-4.2-3.3-8.4-6.7-12.6-10c-6.5-5.1-13-10.2-19.5-15.3c-5.2-4.1-10.5-8.1-15.7-12.2
		c-6.4-5-12.7-10-19.1-15c-0.5-0.4-1-0.7-1.1-1.4c3.3-2.7,6.8-5.2,9.9-8.1c8.2-7.4,15-15.9,20.5-25.4c5-8.6,8.8-17.6,11.6-27.1
		c0.8-2.6,0.8-2.3-1.8-2.3c-36.4,0-72.8,0-109.2,0c-2.2,0-2.2,0-2.2-2.1c0-24.7,0-49.4,0-74.1c0-1.4,0.3-1.9,1.8-1.9
		c64.6,0,129.2,0,193.7,0c1.4,0,2,0.2,2.2,1.8c1.2,9.6,2,19.3,2.1,29c0.3,22.9-1.8,45.6-7.2,67.9c-2.2,9.3-5.1,18.4-8.4,27.4
		c-5.9,15.5-13.5,30.1-23.1,43.7C458.1,441.8,450.8,450.2,442.6,457.8z"/>
	<path class="st4" d="M184.5,337.8c-3.1,2-5.9,4.5-8.8,6.7c-9.6,7.5-19.2,15-28.7,22.6c-10.3,8-20.5,16.1-30.8,24.1
		c-0.4,0.3-0.8,0.6-1.3,0.8c-1.7-2.5-2.8-5.4-4.1-8.1c-4.7-10.2-8.5-20.7-11.4-31.5c-3.1-11.3-5.2-22.9-6.4-34.6
		c-0.7-6.9-1.1-13.9-1-20.8c0.1-9.7,0.8-19.4,2.2-29c1.3-9.1,3.2-18.1,5.7-26.9c3.3-11.8,7.7-23.3,13.1-34.4c0.6-1.3,1.1-2.6,2-3.8
		c5.9,4.7,11.8,9.3,17.8,14c6.6,5.2,13.1,10.4,19.7,15.5c6.6,5.2,13.2,10.4,19.9,15.5c3.7,2.9,7.4,5.8,11.1,8.7
		c0.4,0.3,0.7,0.5,1.2,0.6c-1.5,5.3-3,10.5-3.9,15.9c-2.2,12.1-2.7,24.2-1.6,36.4C179.8,319.4,181.8,328.6,184.5,337.8z"/>
</g>
</svg>
