<?xml version="1.0" encoding="utf-8"?>
<!-- Generator: Adobe Illustrator 26.3.1, SVG Export Plug-In . SVG Version: 6.00 Build 0)  -->
<svg version="1.1" id="Layer_1" xmlns="http://www.w3.org/2000/svg" xmlns:xlink="http://www.w3.org/1999/xlink" x="0px" y="0px"
	 viewBox="0 0 595.3 595.3" style="enable-background:new 0 0 595.3 595.3;" xml:space="preserve">
<style type="text/css">
	.st0{fill:#FFFFFF;}
	.st1{fill:#4285F4;}
	.st2{fill:#EA4335;}
	.st3{fill:#FBBC05;}
	.st4{fill:#34A853;}
</style>
<path class="st0" d="M297.6,595.3L297.6,595.3C133.3,595.3,0,462,0,297.6v0C0,133.3,133.3,0,297.6,0h0
	C462,0,595.3,133.3,595.3,297.6v0C595.3,462,462,595.3,297.6,595.3z"/>
<g id="BkWkrr_00000089540610297534669160000015811188533631237807_">
	<g>
		<path class="st1" d="M134.8,272.5c8.6,0,17.3,0.1,25.9-0.1c3.8-0.1,5.4,1.3,5.8,5.1c3,32.4-15.3,60.5-48.6,66.8
			c-37.9,7.2-73-16.5-81-54c-5.5-26,7.4-54.5,31.2-69.1c23.9-14.7,53.7-13.6,75.5,2.7c7,5.3,7,5.3,1.1,11.2
			c-2.4,2.4-4.6,5.7-7.4,6.5c-3,0.9-5.2-3.1-7.9-4.7c-16.4-9.3-33.1-9.8-49.4-0.4c-15.5,8.9-23.3,22.9-23.4,40.9
			c-0.2,24.3,14.6,43.7,37.9,48.1c16.2,3.1,31.2,0.1,43.3-12.5c4.6-4.8,7.1-10.5,8.7-16.8c0.9-3.8-0.3-5.3-4.3-5.3
			c-11.1,0.1-22.1-0.1-33.2,0.1c-3.8,0.1-5.5-1.1-5.5-5.2c0.3-15.9-1.9-13.1,13-13.4C122.6,272.4,128.7,272.5,134.8,272.5z"/>
		<path class="st1" d="M424.2,266.7c0-6,4.1-5.7,8.3-5.6c12.1,0.1,10.6-0.8,10.7,10.5c0,24.2,0.2,48.4-0.1,72.6
			c-0.2,11.9-4.2,22.5-13.3,30.8c-18.7,17-54.5,9.6-64.6-13.3c-1-2.3-0.6-3.6,1.6-4.5c1.2-0.5,2.4-1,3.6-1.5c3-1.2,5.9-3.2,8.9-3.3
			c3.6,0,4,4.5,6.1,6.7c6.5,6.7,14.2,9,23.2,6.8c8.8-2.1,13.6-7.8,15.5-16.4c0.8-4,0.7-7.9,0.5-13c-10.5,8.9-21.6,11.1-34,7.3
			c-9.4-2.9-16.8-8.5-22.4-16.5c-12-17.2-10.4-39.3,4-55.4C385.2,257.3,402.6,255.5,424.2,266.7z M405.3,276.5
			c-7.1,0-11.2,1.3-15.1,4.2c-12.7,9.4-14.2,29-3,40.3c10.8,11,28.2,8.8,35.5-4.7c5.3-9.9,4.9-20.1-0.9-29.8
			C417.5,279.7,411,276.8,405.3,276.5z"/>
		<path class="st2" d="M523.3,345.8c-20-0.1-36.7-13-41.8-32.6c-5.1-19.4,3.4-40.1,20.2-49.7c20.5-11.7,45.7-2.7,55.6,19.9
			c3.6,8.2,3.6,8.2-4.5,11.5c-15.1,6.2-30.1,12.5-45.3,18.6c-3.9,1.6-4,3.2-1.5,6.3c8.9,10.7,25,11.1,35,0.2c3-3.3,5.2-4,8.5-0.9
			c1.3,1.2,2.9,2,4.4,3c6.5,4.4,6.5,4.5,1.2,10.1C546.7,341,535.4,345.9,523.3,345.8z M522.8,276.5c-11.7-0.1-21.4,8.6-22.8,19.9
			c-0.3,2.6,0.1,3.8,3,2.6c10.3-4.3,20.6-8.6,31-12.8c3.5-1.5,2.8-3.3,0.6-5.3C531.1,277.7,526.9,276.3,522.8,276.5z"/>
		<path class="st2" d="M217,258.7c24.8,0,43.6,18.6,43.6,43.4c0,24.7-18.8,43.7-43.4,43.7c-24.5,0.1-43.6-19-43.6-43.5
			C173.5,277.5,192.3,258.7,217,258.7z M240.9,301.9c-0.1-14.5-10.3-25.3-23.9-25.3c-13.7,0-23.9,11.1-23.8,25.9
			c0.1,14.2,10.8,25.6,24,25.5C230.6,327.9,241,316.6,240.9,301.9z"/>
		<path class="st3" d="M310.9,259c24.9,0.1,43,18.6,42.9,43.8c-0.1,24.3-19.3,43.1-43.6,43c-24.5-0.2-43.3-19.2-43.3-43.9
			C267,277.2,285.7,258.9,310.9,259z M334.2,302.6c0.1-15.1-9.8-26.1-23.6-26.1c-14,0-24.2,10.7-24.3,25.5
			c-0.1,14.4,10.6,26.1,23.9,26.1C323.5,328.2,334.2,316.8,334.2,302.6z"/>
		<path class="st4" d="M472.9,279.5c0,19.2-0.1,38.4,0.1,57.7c0,4.3-1.3,6.2-5.7,5.8c-3.2-0.3-6.4-0.1-9.6-0.1
			c-2.9,0.1-4.1-1.3-4.1-4.1c0-1,0-1.9,0-2.9c0-37.6,0-75.3,0-112.9c0-7.1,0.2-7.4,7.2-7.3c14.1,0.1,12-1.7,12.1,11.8
			C473,245,472.9,262.2,472.9,279.5z"/>
	</g>
</g>
</svg>
