<?xml version="1.0" encoding="utf-8"?>
<!-- Generator: Adobe Illustrator 26.3.1, SVG Export Plug-In . SVG Version: 6.00 Build 0)  -->
<svg version="1.1" id="Layer_1" xmlns="http://www.w3.org/2000/svg" xmlns:xlink="http://www.w3.org/1999/xlink" x="0px" y="0px"
	 viewBox="0 0 595.3 595.3" style="enable-background:new 0 0 595.3 595.3;" xml:space="preserve">
<style type="text/css">
	.st0{fill:#FFFFFF;}
	.st1{fill:url(#_x37_E6cwE.tif_00000024718313288375784580000004677464460072695999_);}
</style>
<path class="st0" d="M297.6,595.3L297.6,595.3C133.3,595.3,0,462,0,297.6v0C0,133.3,133.3,0,297.6,0h0
	C462,0,595.3,133.3,595.3,297.6v0C595.3,462,462,595.3,297.6,595.3z"/>
<linearGradient id="_x37_E6cwE.tif_00000049923928468118755520000012893977762060488086_" gradientUnits="userSpaceOnUse" x1="35.6378" y1="297.6378" x2="559.6378" y2="297.6378">
	<stop  offset="0" style="stop-color:#02036E"/>
	<stop  offset="0.3223" style="stop-color:#1C4AA0"/>
	<stop  offset="1" style="stop-color:#01036E"/>
</linearGradient>
<path id="_x37_E6cwE.tif_00000111164660709067915370000004058237108656956306_" style="fill:url(#_x37_E6cwE.tif_00000049923928468118755520000012893977762060488086_);" d="
	M35.7,217c3.9,4.4,7.2,8.4,10.9,12c17.7,17.2,38.9,25.9,63.7,26.1c3.6,0,6.3-1,9.2-3.1c12-8.8,24.7-16,40.3-15.9
	c11.6,0.1,21.3,4.7,28.7,13.5c4.4,5.2,8,11.2,13.4,15.6c2,1.6,3.6,4,3.9,7.7c-3.6-1.8-7-3.3-10.6-4c-10.8-2.1-21.6,2.8-26.1,12.7
	c-11.2,24.9-28.8,42.4-56.2,49c-7.2,1.7-14.6,2.5-21.9,1.8c-3.5-0.3-5.9,0.9-8.4,3.1c-11.8,10.5-20.5,23.2-26.4,37.9
	c0.4-15.9,3.6-31.2,8.9-46.1c3.6-10.1,7.9-19.9,13.7-28.9c2.7-4.2,2.6-6.1-1.9-9c-24.4-15.9-37.8-38.7-41.1-67.4
	C35.6,220.5,35.7,219.1,35.7,217z M214.5,326.1c0-8.6-0.1-17.1,0.1-25.7c0.1-3.5-1.2-5.3-4.6-6.2c-8.7-2.1-17.5-2.3-26.2-0.7
	c-7.4,1.4-12,6.3-14.1,13.7c-1.7,6-1.4,12-1.2,18.1c0.4,16.6,8.3,24.4,24.9,25c1.7,0.1,4.1-1,5.1,1.1c1,2.1-0.4,4-1.6,5.7
	c-1.9,2.7-4.5,4.4-7.7,5.1c-3.7,0.8-7.4,1.8-11.1,1.9c-7.1,0.3-4.7,5.5-5,9.2c-0.5,4.9,3,4.6,6.3,4.4c5.5-0.3,10.9-1.2,16.1-2.8
	c12.4-3.8,18.9-12.6,19.1-25.6C214.6,341.5,214.5,333.8,214.5,326.1C214.5,326.1,214.5,326.1,214.5,326.1z M199.4,329.1
	c-0.3,3.1,1.7,7.5-4.2,8c-6.5,0.5-10.1-1.6-11.1-7.4c-1.1-5.8-1.2-11.6-0.1-17.4c1.2-5.8,5-7,10.2-6.8c5.6,0.2,5.4,4,5.3,7.9
	c-0.1,2.7,0,5.4,0,8.2C199.5,324.1,199.7,326.6,199.4,329.1z M270.2,323.4c0-1.7,0-3.3,0-5c-0.4-19.4-9.3-27.4-28.5-25.7
	c-10.6,0.9-16.9,6.5-19,16.8c-1.8,9.1-1.8,18.3,0.1,27.4c1.4,6.4,4.6,11.6,10.8,14.5c18.3,8.6,35.7-1.7,36.5-21.7
	C270.2,327.6,270.2,325.5,270.2,323.4C270.2,323.4,270.2,323.4,270.2,323.4z M254,333.4c-0.8,4.2-3.5,6.7-7.8,6.7
	c-4,0-6.9-1.8-7.9-5.8c-1.8-7.4-1.8-14.9,0-22.2c1.1-4.2,4.1-6.2,8.5-5.8c4.5,0.3,6.7,3.2,7.4,7.2c0.5,3.3,0.6,6.6,0.9,9.9
	C254.7,326.8,254.6,330.1,254,333.4z M461,327.6c0-6.7,0.3-13.4-0.1-20.1c-0.4-6.1-2.5-11.8-9.2-13.6c-9.3-2.5-18.7-1.7-28,0.8
	c-3.6,1-3,3.7-2.6,6c0.5,3.3,2.9,1.2,4.4,1c2.1-0.3,4.1-0.9,6.2-1.3c4.4-0.8,8.8-0.9,13.2-0.3c5.6,0.7,8.2,5,7.7,11.7
	c-0.5,6-5,3-7.7,3.3c-4.2,0.4-8.4,0.6-12.5,1.7c-9.7,2.5-14.7,8.7-14.6,17.8c0.2,8.9,6.2,16.1,15.5,18c7.1,1.4,14.2,0.9,21.3-0.4
	c4.8-0.9,7.3-2.8,6.8-8.3c-0.6-5.4-0.1-10.9-0.1-16.3C461.2,327.6,461.1,327.6,461,327.6z M437.4,345.7c-6.1-1-10.3-5.2-10.6-10.6
	c-0.4-5.9,2.6-9.6,9.3-11.4c1.6-0.4,3.3-0.8,4.9-0.9c11.6-1.1,11.6-1,11.6,10.5C452.6,345.5,449.9,347.7,437.4,345.7z M389.1,335.2
	c-4.6-13.2-9.4-26.4-13.7-39.7c-1.6-4.9-5.5-3.7-8.2-3c-3.7,1-0.7,3.9-0.1,5.6c5.9,16.3,12.1,32.5,18.2,48.8
	c3.4,9.2-2.4,20.6-12.1,22.4c-4.4,0.8-6.1,2.5-5,6.4c1.2,4.4,4.7,2.1,7.2,1.5c10.8-2.4,15.6-10.7,18.9-20.1
	c6.8-19.8,13.2-39.7,20.1-59.4c1.9-5.5-0.2-5.7-4.6-5.6c-3.7,0-3.9,2.5-4.6,4.8c-4.5,13.9-8.9,27.8-13.8,43.2
	C390.1,337.4,389.5,336.3,389.1,335.2z M510.4,327.3c0-6.5,0.3-13-0.1-19.5c-0.6-9.3-4.8-13.6-14.1-14.8c-7.2-0.9-14.2,0-21.3,1.5
	c-4,0.8-5.6,3-4.5,6.6c1.3,4.3,4.1,0.7,6.1,0.4c6.2-0.8,12.5-2.4,18.8-0.8c5,1.3,7.5,6,6.6,11.9c-0.8,5.3-5,2.3-7.5,2.8
	c-4.3,0.9-8.8,0.9-13,2c-9.6,2.5-14.2,8.6-14,17.5c0.2,8.7,6,15.6,15.2,17.6c7.9,1.7,15.9,1,23.8-0.9c3.5-0.8,4.7-2.7,4.6-6.2
	c-0.2-6.1-0.1-12.1-0.1-18.2C510.6,327.3,510.5,327.3,510.4,327.3z M486.6,345.7c-6.2-1.1-10.2-5.3-10.4-10.7
	c-0.2-5.7,3.1-9.5,9.8-11.1c1.2-0.3,2.4-0.6,3.7-0.8c11.9-1.8,12.3-1.5,12.3,10.4C501.9,345.5,498.9,347.9,486.6,345.7z
	 M362.4,327.9c0-6.1,0-12.1,0-18.2c0-0.6,0-1.3-0.1-1.9c-0.8-9.2-4.7-13.6-13.4-14.6c-7.6-0.9-15.1-0.2-22.5,1.7
	c-3.5,0.9-4.6,2.8-3.9,5.8c0.9,4,3.5,1.3,5.4,1c6.6-1.1,13.2-2.7,19.9-0.8c6.2,1.7,6.2,6.8,6,11.6c-0.2,5.5-4.7,2.5-7.2,3.1
	c-4.3,0.9-8.8,0.9-13,1.9c-9.9,2.6-14.3,8.1-14.1,17.2c0.1,8.9,5.6,15.6,14.9,17.7c8.2,1.8,16.3,1,24.3-1.1c2.9-0.7,4-2.3,3.9-5.3
	c-0.2-6.1-0.1-12.1-0.1-18.2C362.5,327.9,362.5,327.9,362.4,327.9z M354,335.8c0,9.6-1.5,11.1-11.1,10.9c-9.2-0.2-15-5.1-14.8-12.6
	c0.1-5.1,3-8.1,7.5-9.7c1.9-0.7,4-1.2,6.1-1.5c12.3-1.7,12.3-1.7,12.3,11C354,334.5,354,335.1,354,335.8z M516.6,347.8
	c-0.1,3.5,0.6,5.3,4.8,5.2c4.2-0.1,4.1-2.3,4.1-5.2c-0.1-13.4,0-26.8,0-40.2c0-2.2-0.6-4.5,2.2-6c11.7-6,22.8,0.3,23,13.4
	c0.2,10.2,0,20.5,0,30.7c0,1.3,0.1,2.5,0,3.8c-0.2,3,1.6,3.4,4,3.2c2.2-0.2,4.9,0.8,4.8-3c-0.5-14.8,1.1-29.7-0.9-44.5
	c-0.9-6.9-5.1-11-11.8-12.1c-8.3-1.3-16.7-1.2-25,0.9c-3.9,1-5.3,3.1-5.2,7.2c0.3,7.7,0.1,15.5,0.1,23.2
	C516.6,332.3,516.7,340,516.6,347.8z M294.1,352.8c5,0,10.1,0,15.1,0c2.4,0,5.1,0.8,5.2-3.4c0.1-4.2-2.3-4.2-5.2-4.2
	c-6.7,0-13.5,0-20.2,0c-3.3,0-4.3-1.1-2.2-4c1-1.4,1.9-2.8,2.8-4.1c7.6-11.3,15.2-22.6,23-33.8c2-2.9,2.4-6.1,1.3-8.9
	c-1.1-2.8-4.4-1.3-6.7-1.4c-9.3-0.2-18.5,0-27.8-0.1c-2.6,0-5-0.4-5,3.6c0,3.9,2.4,3.8,5,3.8c6.7,0,13.5,0.1,20.2,0
	c4,0,4.2,1.4,2.2,4.4c-3.4,4.8-6.6,9.7-9.9,14.6c-5.3,7.8-10.5,15.7-15.9,23.4c-2,2.9-2.2,6.2-1,8.9c1,2.2,4.2,1,6.4,1
	C285.7,352.9,289.9,352.8,294.1,352.8C294.1,352.8,294.1,352.8,294.1,352.8z"/>
</svg>
