<?xml version="1.0" encoding="utf-8"?>
<!-- Generator: Adobe Illustrator 26.3.1, SVG Export Plug-In . SVG Version: 6.00 Build 0)  -->
<svg version="1.1" id="Layer_1" xmlns="http://www.w3.org/2000/svg" xmlns:xlink="http://www.w3.org/1999/xlink" x="0px" y="0px"
	 viewBox="0 0 595.3 595.3" style="enable-background:new 0 0 595.3 595.3;" xml:space="preserve">
<style type="text/css">
	.st0{fill:#FFFFFF;}
	.st1{fill:url(#SVGID_1_);}
</style>
<path class="st0" d="M297.6,595.3L297.6,595.3C133.3,595.3,0,462,0,297.6l0,0C0,133.3,133.3,0,297.6,0l0,0
	C462,0,595.3,133.3,595.3,297.6l0,0C595.3,462,462,595.3,297.6,595.3z"/>
<path class="st0" d="M584.9,375.9c0.5-2,1.1-4,1.6-6L584.9,375.9z"/>
<polygon class="st0" points="586.4,369.9 586.4,369.9 586.4,369.9 "/>
<linearGradient id="SVGID_1_" gradientUnits="userSpaceOnUse" x1="106.6968" y1="297.65" x2="488.6032" y2="297.65">
	<stop  offset="0" style="stop-color:#02036E"/>
	<stop  offset="0.3223" style="stop-color:#1C4AA0"/>
	<stop  offset="1" style="stop-color:#01036E"/>
</linearGradient>
<path class="st1" d="M106.8,122.1c8.8,9.9,16.2,18.9,24.5,26.9c39.7,38.6,87.3,58.1,143,58.6c8.1,0,14.1-2.2,20.7-7
	c26.9-19.8,55.4-35.9,90.5-35.7c26,0.2,47.8,10.6,64.4,30.3c9.9,11.7,18,25.1,30.1,35c4.5,3.6,8.1,9,8.8,17.3
	c-8.1-4-15.7-7.4-23.8-9c-24.2-4.7-48.5,6.3-58.6,28.5c-25.1,55.9-64.7,95.2-126.2,110c-16.2,3.8-32.8,5.6-49.2,4
	c-7.9-0.7-13.2,2-18.9,7c-26.5,23.6-46,52.1-59.3,85.1c0.9-35.7,8.1-70,20-103.5c8.1-22.7,17.7-44.7,30.8-64.9
	c6.1-9.4,5.8-13.7-4.3-20.2c-54.8-35.7-84.9-86.9-92.3-151.3C106.5,130,106.8,126.8,106.8,122.1z"/>
</svg>
