<?xml version="1.0" encoding="utf-8"?>
<!-- Generator: Adobe Illustrator 26.3.1, SVG Export Plug-In . SVG Version: 6.00 Build 0)  -->
<svg version="1.1" id="Layer_1" xmlns="http://www.w3.org/2000/svg" xmlns:xlink="http://www.w3.org/1999/xlink" x="0px" y="0px"
	 viewBox="0 0 595.3 595.3" style="enable-background:new 0 0 595.3 595.3;" xml:space="preserve">
<style type="text/css">
	.st0{fill:#FFFFFF;}
	.st1{fill:#EA9223;}
	.st2{fill:url(#SVGID_1_);}
	.st3{fill:#027759;}
	.st4{fill:url(#SVGID_00000174592220510159301880000012292108645074526595_);}
	.st5{fill:url(#SVGID_00000073691318848525759720000014450442539651324057_);}
	.st6{fill:url(#SVGID_00000169545646681891368400000015851491198955307419_);}
	.st7{fill:url(#SVGID_00000134241676881012749590000016813493707441085102_);}
	.st8{fill:url(#SVGID_00000020388138775754872620000003593610065355933608_);}
	.st9{fill:url(#SVGID_00000147206879851027727160000000488740990152611519_);}
	.st10{fill:url(#SVGID_00000093868774107558683660000017664021577663135877_);}
	.st11{fill:url(#SVGID_00000137126711815953250170000009379624810942866825_);}
	.st12{fill:url(#SVGID_00000122705376368235765210000006200542869909132721_);}
	.st13{fill:url(#SVGID_00000002367917507807651500000005017848161364904841_);}
</style>
<path class="st0" d="M297.6,595.3L297.6,595.3C133.3,595.3,0,462,0,297.6l0,0C0,133.3,133.3,0,297.6,0l0,0
	C462,0,595.3,133.3,595.3,297.6l0,0C595.3,462,462,595.3,297.6,595.3z"/>
<g>
	<g>
		<path class="st1" d="M503,349.1c-17-9.6-34-19.2-50.7-28.9c-0.6-0.3-1.3-0.6-1.6-0.6l-7.7-4.5v26.3h-13.1h-4.2h-28.9h-15.1h-11.2
			v0.3c-7.7,0-15.4-0.3-22.4-0.6c-25-1.9-44.9-19.9-49.4-43c-4.2-22.1,7.1-45.8,27.2-57.1c28.5-15.7,61.2-0.6,68.3,31.4
			c2.6,12.2,2.9,25,2.6,37.2h26.9c0.3-13.5,0-27.2-1.9-40.7c-4.5-36.5-35.3-65.1-70.2-65.7c-42.3-1-82.7,37.5-84,79.2
			c-1.3,51,34,87.5,79.2,88.8c8,0.3,15.7,0.3,23.7,0.3l0,0h2.9c11.2,0,22.4,0,33.3,0h35.6V393c0,0.3,0,0.6,0,1.3l25-14.1l0,0
			c12.2-7.1,24-13.8,35.9-20.5C510.7,355.5,508.8,352.6,503,349.1z"/>
		<path class="st1" d="M396.9,328.9c0,4.2,0,8,0,12.5h28.9c-0.6,0-1-0.3-1.6-0.3l0,0l0,0c-0.3-3.2-0.3-6.1-0.6-9.3l0,0l0,0
			c0.3-7.4,0.6-14.7,0.6-22.1h-26.9C397.2,316.4,396.9,322.8,396.9,328.9z"/>
		<g>
			<path class="st0" d="M360,356.8c-73.7,0-77.6-65.7-77.9-68.6c-0.3-9.6,3.8-34.9,20.5-52.3c11.5-11.9,26.3-18,44.6-18
				c54.8,0,63.8,60.9,63.8,63.5c1.6,14.7,1,59.6,1,59.6h-1.6c0,0,0.6-44.9-1-59.6c-0.3-2.9-9-62.2-62.5-62.2
				c-17.6,0-32.4,5.8-43.6,17.6c-16.3,17-20.5,41.7-20.2,51.3c0,2.9,4.2,67.3,76.3,67.3v1.3H360z"/>
		</g>
		
			<linearGradient id="SVGID_1_" gradientUnits="userSpaceOnUse" x1="410.4982" y1="277.6028" x2="410.4982" y2="253.7705" gradientTransform="matrix(1 0 0 -1 0 595.2756)">
			<stop  offset="0.2927" style="stop-color:#BB522F;stop-opacity:0"/>
			<stop  offset="1" style="stop-color:#BB522F"/>
		</linearGradient>
		<path class="st2" d="M397.2,341.4l26.9-0.3c0,0-0.3-12.5-0.3-16.7h-26.9C396.9,327.9,397.2,338.8,397.2,341.4z"/>
		<g>
			<g>
				<path class="st0" d="M465.2,356.8h-9v-1.6h9V356.8z M446.9,356.8h-9v-1.6h9V356.8z M428.6,356.8h-9v-1.6h9V356.8z M410.3,356.8
					h-9v-1.6h9V356.8z M392.4,356.8h-9v-1.6h9V356.8z M374.1,356.8h-9v-1.6h9V356.8z M355.8,356.8c-3.2,0-6.1-0.3-9-0.6l0.3-1.6
					c2.9,0.3,5.8,0.6,9,0.6L355.8,356.8z M337.9,354.6c-2.9-0.6-6.1-1.6-8.7-2.6l0.6-1.3c2.9,1,5.8,1.9,8.7,2.6L337.9,354.6z
					 M320.6,348.5c-2.9-1.3-5.4-2.9-8-4.8l1-1.3c2.6,1.6,5.1,3.2,7.7,4.5L320.6,348.5z M305.5,337.9c-2.2-1.9-4.5-4.2-6.4-6.7l1.3-1
					c1.9,2.2,3.8,4.5,6.1,6.4L305.5,337.9z M293.6,323.8c-1.6-2.6-3.2-5.1-4.5-8l1.3-0.6c1.3,2.9,2.6,5.5,4.2,8L293.6,323.8z
					 M286,307.1c-1-2.9-1.9-5.8-2.6-9l1.6-0.3c0.6,2.9,1.3,5.8,2.2,8.7L286,307.1z M282.4,289.2v-1c0-0.3,0-1,0-1.3
					c0-1.9,0.3-4.5,0.6-6.7l1.6,0.3c-0.3,2.6-0.6,4.8-0.6,6.7c0,0.3,0,1,0,1.3v1L282.4,289.2z M286,271.2l-1.6-0.3
					c0.6-2.9,1.6-5.8,2.6-8.7l1.3,0.6C287.6,265.4,286.6,268.3,286,271.2z M292,254.2l-1.3-0.6c1.3-2.9,2.9-5.4,4.5-8l1.3,1
					C294.9,249.1,293.3,251.6,292,254.2z M301.7,239.1l-1.3-1c1.9-2.2,4.2-4.5,6.4-6.4l1,1.3C305.8,235,303.6,236.9,301.7,239.1z
					 M315.4,227.6l-0.6-1.3c2.6-1.6,5.4-2.9,8.3-4.2l0.6,1.3C320.6,224.7,317.7,226,315.4,227.6z M331.8,220.9l-0.3-1.6
					c2.9-0.6,6.1-1.3,9-1.3v1.6C337.6,219.9,334.7,220.2,331.8,220.9z M358.7,220.2c-2.9-0.6-5.8-1-9-1v-1.6c3.2,0,6.1,0.3,9,1
					V220.2z"/>
			</g>
		</g>
		<g id="obXt8V.tif_00000175306426644382238650000009016172235398553776_">
			<g>
				<path class="st0" d="M456.2,346.5c-1.3-1-2.6-1.6-3.5-2.6c-0.3-0.3-1-0.6-1-1c0-0.3,0.3-0.3,0.3,0c1.6,0,2.9,0.6,4.2,1.6
					c1.9,1.3,4.2,2.2,6.1,3.2c2.2,1,4.2,2.2,6.4,3.2c1,0.3,1.9,1,2.9,1.6c0.6,0,3.2-0.6,3.5-0.6c1.9-0.3,4.2-1,6.1-1.3
					c2.2-0.6,4.5-1,6.7-1c1,0,2.2,0.3,2.9,1c0.3,0.3,0.6,0.3,1,0.3c0.3,0,0.6,0.3,0.6,0.6c0.3,0.3,0.3,1,0,1.6c-1,1-2.2,1.6-3.5,1.9
					c-2.2,1-4.8,1.3-7.4,1.9c-1,0.3-1.9,0.3-2.6,1c-0.3,0.3-0.3,0.3-0.3,0.6v0.3c0.3,1,1.3,4.5,1.6,4.8c0.3,0.6,0.6,1.3,0.6,1.9
					c0,0.3,0,0.3-0.3,0.6c-0.3,0.3-1.3,0.6-1.3,0.3l-0.6-0.6c-0.3-0.6-4.8-5.1-7.4-7.1c-0.3,0-4.8,1-5.1,1c-2.2,0.3-5.5,1-8.3,0.6
					c-1.3,0-1.3,0-1,1c0,0.3,0.3,0.3,0,0.6c-0.3,0.3-1,0.3-1.3,0c-0.6-0.6-1.3-1-1.9-1.6c-0.3-0.3-0.6-0.3-1-0.3
					c-1,0-1.6-0.3-2.6-0.3c-0.3,0-0.6,0-0.6-0.3c0-0.3,0-0.6,0.3-0.6c0,0,0,0,0.3-0.3c0.3-0.3,0.3-0.3,0-0.6c-1.6-1-2.9-1.9-4.5-3.2
					c0,0-0.3,0-0.3-0.3c0-0.3,0.3,0,0.3-0.3c0.6,0,1,0,1.3,0.3c1.6,0.6,2.9,1.3,4.5,2.2c0.3,0.3,0.6,0,0.6-0.3c0-1.6,0-3.2,0-4.5
					c0-0.3,0-0.6,0.6-0.6c1.6-0.6,1.3-0.3,1.9,0.6c0.6,1,1.3,2.2,2.2,3.2c0.3,0.6,0.3,0.6,1.3,0.6c1.6-0.3,3.5-1,5.1-1.3
					c0.3,0,0.3,0,0.6-0.3c0-0.3-1-1-1.3-1.3C463.6,352.3,459.7,349.1,456.2,346.5z"/>
			</g>
		</g>
	</g>
	<g>
		<path class="st3" d="M122.5,311.9c-1.3-2.2-2.2-4.8-2.9-7.4H116c-7.1-0.3-14.1-1-20.2-4.5l-7.4-5.5c1.6,18.3,8.7,34.9,19.9,48.4
			l1.6-10.9C111.6,323.8,116.4,317.4,122.5,311.9z"/>
		<path class="st3" d="M118.3,269.6h1c0.6-2.2,1.6-4.5,2.6-6.4l-3.2-3.5c-5.1-5.1-9.6-10.6-11.2-17.3l-1.3-8.3
			c-9.9,12.8-16.3,28.9-17.6,46.2l7.1-5.1C101.9,270.6,110.3,269.3,118.3,269.6z"/>
		<path class="st3" d="M160,362.2c-3.8-6.4-5.1-13.8-4.8-21.5c-2.9-1-5.8-2.2-8.7-3.8l-1.3,1.3c-5.1,4.8-10.6,9.3-17.6,10.9
			l-11.5,1.6c13.8,12.8,32.1,20.8,51.9,21.8l0,0L160,362.2z"/>
		<path class="st3" d="M144.9,236.6l0.6,0.6c1.9-1.3,4.2-2.2,6.4-2.9v-4.8c0-7.1,0.3-14.1,4.2-20.5l5.1-7.4
			c-17.3,2.6-32.7,9.9-45.2,21.5l8.3,1C132.4,225.7,139.1,230.5,144.9,236.6z"/>
		<path class="st3" d="M180.8,312.2c0,0,15.4-14.4,25.3-26.9h-32.4v29.8h39.4l6.7-5.8C200.7,310.6,180.8,312.2,180.8,312.2z"/>
		<path class="st3" d="M186.9,231.1L186.9,231.1c2.9,0.6,5.4,1.6,8,2.6l0.3-0.3c5.4-4.5,11.2-8.7,18.3-9.9l13.8-1.3
			c3.5,0.3,6.1,3.2,5.8,6.7l-2.6,12.8c-0.6,2.2-1.3,4.2-2.2,6.1l15.1-14.4c-15.1-20.5-40.7-31.7-68-32.4l5.8,7.1
			C185.3,214.8,186.9,222.8,186.9,231.1z"/>
		<path class="st3" d="M257.4,286.9c0-0.6,0-1,0-1.6h-3.2l2.6,0.6c0,0-11.5,21.5-31.7,23.1c-1.3,0-2.9,0.3-4.2,0.3l4.2,4.5
			c4.8,5.4,9,10.9,10.6,18l1.3,11.9c7.1-8.3,12.5-18,16-28.5C255.5,306.1,257.4,296.8,257.4,286.9z"/>
		<path class="st3" d="M199.1,337.6c-2.9,1.6-6.1,2.9-9.3,3.8v0.6c-0.3,7.1-1.3,14.1-5.1,20.2l-8,10.6c20.2-1,38.5-9.3,52.6-22.1
			l-12.2-2.2C210,347.2,204.2,343,199.1,337.6z"/>
		<path class="st3" d="M151.9,229.5v4.8c6.7-2.9,13.8-4.2,21.5-4.2c4.8,0,9.3,0.6,13.5,1.6v-0.3c0-8.3-1.3-16.3-6.1-23.1l-5.8-7.1
			c-1,0-1.6,0-2.6,0c-3.8,0-7.7,0.3-11.5,1l-5.1,7.4C152.3,215.1,151.9,222.2,151.9,229.5z"/>
		
			<linearGradient id="SVGID_00000181058116619437598380000013181009095540565688_" gradientUnits="userSpaceOnUse" x1="169.4182" y1="399.3662" x2="169.4182" y2="359.3068" gradientTransform="matrix(1 0 0 -1 0 595.2756)">
			<stop  offset="0" style="stop-color:#B4D4B3"/>
			<stop  offset="1" style="stop-color:#027959"/>
		</linearGradient>
		<path style="fill:url(#SVGID_00000181058116619437598380000013181009095540565688_);" d="M151.9,229.5v4.8
			c6.7-2.9,13.8-4.2,21.5-4.2c4.8,0,9.3,0.6,13.5,1.6v-0.3c0-8.3-1.3-16.3-6.1-23.1l-5.8-7.1c-1,0-1.6,0-2.6,0
			c-3.8,0-7.7,0.3-11.5,1l-5.1,7.4C152.3,215.1,151.9,222.2,151.9,229.5z"/>
		<path class="st3" d="M232.7,228.9c0.3-3.5-2.2-6.4-5.8-6.7l-13.8,1.3c-7.1,1.3-12.8,5.4-18.3,9.9l-0.3,0.3
			c10.3,3.8,18.9,10.6,26.9,19.9l6.1-5.8c1-1.9,1.9-3.8,2.2-6.1L232.7,228.9z"/>
		
			<linearGradient id="SVGID_00000145028540479821961490000007685756157356254336_" gradientUnits="userSpaceOnUse" x1="32.9204" y1="319.2625" x2="69.0927" y2="312.736" gradientTransform="matrix(0.6458 0.7635 0.7635 -0.6458 -55.1 404.7081)">
			<stop  offset="0" style="stop-color:#B4D4B3"/>
			<stop  offset="1" style="stop-color:#027959"/>
		</linearGradient>
		<path style="fill:url(#SVGID_00000145028540479821961490000007685756157356254336_);" d="M232.7,228.9c0.3-3.5-2.2-6.4-5.8-6.7
			l-13.8,1.3c-7.1,1.3-12.8,5.4-18.3,9.9l-0.3,0.3c10.3,3.8,18.9,10.6,26.9,19.9l6.1-5.8c1-1.9,1.9-3.8,2.2-6.1L232.7,228.9z"/>
		<path class="st3" d="M118.6,259.7l3.2,3.5c5.1-10.9,13.5-19.9,23.7-25.6l-0.6-0.6c-5.8-5.8-12.5-10.9-20.5-12.5l-8.3-1
			c-3.5,3.2-7.1,7.1-9.9,10.9l1.3,8.3C109,249.1,113.5,254.5,118.6,259.7z"/>
		
			<linearGradient id="SVGID_00000060005132086924974780000006140058895332779139_" gradientUnits="userSpaceOnUse" x1="125.8186" y1="372.8579" x2="125.8186" y2="331.0174" gradientTransform="matrix(1 0 0 -1 0 595.2756)">
			<stop  offset="0" style="stop-color:#B4D4B3"/>
			<stop  offset="1" style="stop-color:#027959"/>
		</linearGradient>
		<path style="fill:url(#SVGID_00000060005132086924974780000006140058895332779139_);" d="M118.6,259.7l3.2,3.5
			c5.1-10.9,13.5-19.9,23.7-25.6l-0.6-0.6c-5.8-5.8-12.5-10.9-20.5-12.5l-8.3-1c-3.5,3.2-7.1,7.1-9.9,10.9l1.3,8.3
			C109,249.1,113.5,254.5,118.6,259.7z"/>
		<path class="st3" d="M115.7,304.5h3.5c-1.9-5.4-2.9-11.5-2.9-17.6s1-11.9,2.6-17.3h-1c-8.3-0.3-16.3,1-23.4,5.4l-7.1,5.1
			c-0.3,2.2-0.3,4.5-0.3,6.7c0,2.6,0.3,5.1,0.3,7.7l7.4,5.4C101.6,303.6,108.7,304.2,115.7,304.5z"/>
		
			<linearGradient id="SVGID_00000030457957145045192420000000022171366048242824_" gradientUnits="userSpaceOnUse" x1="103.2174" y1="325.7813" x2="103.2174" y2="290.7173" gradientTransform="matrix(1 0 0 -1 0 595.2756)">
			<stop  offset="0" style="stop-color:#B4D4B3"/>
			<stop  offset="1" style="stop-color:#027959"/>
		</linearGradient>
		<path style="fill:url(#SVGID_00000030457957145045192420000000022171366048242824_);" d="M115.7,304.5h3.5
			c-1.9-5.4-2.9-11.5-2.9-17.6s1-11.9,2.6-17.3h-1c-8.3-0.3-16.3,1-23.4,5.4l-7.1,5.1c-0.3,2.2-0.3,4.5-0.3,6.7
			c0,2.6,0.3,5.1,0.3,7.7l7.4,5.4C101.6,303.6,108.7,304.2,115.7,304.5z"/>
		<path class="st3" d="M145.2,338.5l1.3-1.3c-10.6-5.8-18.9-14.4-24-25.3c-5.8,5.4-10.9,11.9-12.5,19.9l-1.6,10.9
			c2.6,2.9,5.1,5.4,8,8l11.5-1.6C134.3,347.8,139.8,343.3,145.2,338.5z"/>
		
			<linearGradient id="SVGID_00000022531753894566927870000001562499942680623034_" gradientUnits="userSpaceOnUse" x1="111.0752" y1="272.1756" x2="135.9187" y2="247.3322" gradientTransform="matrix(1 0 0 -1 0 595.2756)">
			<stop  offset="0" style="stop-color:#B4D4B3"/>
			<stop  offset="1" style="stop-color:#027959"/>
		</linearGradient>
		<path style="fill:url(#SVGID_00000022531753894566927870000001562499942680623034_);" d="M145.2,338.5l1.3-1.3
			c-10.6-5.8-18.9-14.4-24-25.3c-5.8,5.4-10.9,11.9-12.5,19.9l-1.6,10.9c2.6,2.9,5.1,5.4,8,8l11.5-1.6
			C134.3,347.8,139.8,343.3,145.2,338.5z"/>
		<path class="st3" d="M189.8,342.4v-0.6c-5.1,1.6-10.9,2.6-16.7,2.6c-6.4,0-12.5-1-18.3-3.2c0,7.7,1,14.7,4.8,21.5l7.7,10.6l0,0
			c1.6,0,3.2,0.3,4.8,0.3c1.3,0,2.9,0,4.2-0.3l8-10.6C188.8,356.5,189.5,349.4,189.8,342.4z"/>
		
			<linearGradient id="SVGID_00000017487465486876453750000016471345826393728918_" gradientUnits="userSpaceOnUse" x1="172.3034" y1="261.2623" x2="172.3034" y2="220.3505" gradientTransform="matrix(1 0 0 -1 0 595.2756)">
			<stop  offset="0" style="stop-color:#B4D4B3"/>
			<stop  offset="1" style="stop-color:#027959"/>
		</linearGradient>
		<path style="fill:url(#SVGID_00000017487465486876453750000016471345826393728918_);" d="M189.8,342.4v-0.6
			c-5.1,1.6-10.9,2.6-16.7,2.6c-6.4,0-12.5-1-18.3-3.2c0,7.7,1,14.7,4.8,21.5l7.7,10.6l0,0c1.6,0,3.2,0.3,4.8,0.3
			c1.3,0,2.9,0,4.2-0.3l8-10.6C188.8,356.5,189.5,349.4,189.8,342.4z"/>
		<path class="st3" d="M224.7,313.8l-4.2-4.5c-0.3,0-0.3,0-0.6,0l-6.7,5.8h9.6c-5.4,9.6-13.8,17.6-23.4,22.8
			c5.1,5.1,10.9,9.6,18,11.2l12.2,2.2c2.6-2.2,5.1-4.8,7.4-7.4l-1.3-11.9C233.7,324.7,229.2,319,224.7,313.8z"/>
		
			<linearGradient id="SVGID_00000074415572963683508910000010084564387071970726_" gradientUnits="userSpaceOnUse" x1="207.3346" y1="279.0424" x2="228.6564" y2="242.112" gradientTransform="matrix(1 0 0 -1 0 595.2756)">
			<stop  offset="0" style="stop-color:#B4D4B3"/>
			<stop  offset="1" style="stop-color:#027959"/>
		</linearGradient>
		<path style="fill:url(#SVGID_00000074415572963683508910000010084564387071970726_);" d="M224.7,313.8l-4.2-4.5
			c-0.3,0-0.3,0-0.6,0l-6.7,5.8h9.6c-5.4,9.6-13.8,17.6-23.4,22.8c5.1,5.1,10.9,9.6,18,11.2l12.2,2.2c2.6-2.2,5.1-4.8,7.4-7.4
			l-1.3-11.9C233.7,324.7,229.2,319,224.7,313.8z"/>
		<path class="st3" d="M180.8,312.2c0,0,19.9-1.6,39.1-2.9l0.3-0.3l0.3,0.3c1.3,0,2.9-0.3,4.2-0.3c20.2-1.6,31.7-23.1,31.7-23.1
			l-2.6-0.6h-47.8C196.2,297.8,180.8,312.2,180.8,312.2z"/>
		
			<linearGradient id="SVGID_00000021820811383263130460000010549198554896869790_" gradientUnits="userSpaceOnUse" x1="218.628" y1="319.3857" x2="218.628" y2="283.1614" gradientTransform="matrix(1 0 0 -1 0 595.2756)">
			<stop  offset="0" style="stop-color:#B4D4B3"/>
			<stop  offset="1" style="stop-color:#027959"/>
		</linearGradient>
		<path style="fill:url(#SVGID_00000021820811383263130460000010549198554896869790_);" d="M180.8,312.2c0,0,19.9-1.6,39.1-2.9
			l0.3-0.3l0.3,0.3c1.3,0,2.9-0.3,4.2-0.3c20.2-1.6,31.7-23.1,31.7-23.1l-2.6-0.6h-47.8C196.2,297.8,180.8,312.2,180.8,312.2z"/>
		<path class="st3" d="M219.9,309c0.3,0,0.3,0,0.6,0l-0.3-0.3L219.9,309z"/>
		
			<linearGradient id="SVGID_00000088109533743351905610000005583577485038399670_" gradientUnits="userSpaceOnUse" x1="220.1255" y1="286.4274" x2="241.4474" y2="249.4969" gradientTransform="matrix(1 0 0 -1 0 595.2756)">
			<stop  offset="0" style="stop-color:#B4D4B3"/>
			<stop  offset="1" style="stop-color:#027959"/>
		</linearGradient>
		<path style="fill:url(#SVGID_00000088109533743351905610000005583577485038399670_);" d="M219.9,309c0.3,0,0.3,0,0.6,0l-0.3-0.3
			L219.9,309z"/>
		
			<linearGradient id="SVGID_00000096741191127987384220000017601521668628405394_" gradientUnits="userSpaceOnUse" x1="220.231" y1="319.3857" x2="220.231" y2="283.1614" gradientTransform="matrix(1 0 0 -1 0 595.2756)">
			<stop  offset="0" style="stop-color:#B4D4B3"/>
			<stop  offset="1" style="stop-color:#027959"/>
		</linearGradient>
		<path style="fill:url(#SVGID_00000096741191127987384220000017601521668628405394_);" d="M219.9,309c0.3,0,0.3,0,0.6,0l-0.3-0.3
			L219.9,309z"/>
	</g>
</g>
</svg>
