<?xml version="1.0" encoding="utf-8"?>
<!-- Generator: Adobe Illustrator 26.3.1, SVG Export Plug-In . SVG Version: 6.00 Build 0)  -->
<svg version="1.1" id="Layer_1" xmlns="http://www.w3.org/2000/svg" xmlns:xlink="http://www.w3.org/1999/xlink" x="0px" y="0px"
	 viewBox="0 0 595.3 595.3" style="enable-background:new 0 0 595.3 595.3;" xml:space="preserve">
<style type="text/css">
	.st0{fill:#FFFFFF;}
	.st1{fill:#027759;}
	.st2{fill:#EA9223;}
	.st3{fill:url(#SVGID_1_);}
	.st4{fill:url(#SVGID_00000031191251295094543080000012237454917348832655_);}
	.st5{fill:url(#SVGID_00000171719546035787066330000004067238861411341743_);}
	.st6{fill:url(#SVGID_00000179632437128624298080000008140233990514426795_);}
	.st7{fill:url(#SVGID_00000110436996563468488710000012254688242582526880_);}
	.st8{fill:url(#SVGID_00000163049016250132781080000006205377263303426716_);}
	.st9{fill:url(#SVGID_00000101084015786189722100000016830072613155617702_);}
	.st10{fill:url(#SVGID_00000113311573853117245370000005612973689624809105_);}
	.st11{fill:url(#SVGID_00000109721493503999093390000009462036312744098457_);}
	.st12{fill:url(#SVGID_00000073709849726492946710000011522241187650321852_);}
	.st13{fill:url(#SVGID_00000121965389678428043550000009614466442576091057_);}
</style>
<path class="st0" d="M297.6,595.3L297.6,595.3C133.3,595.3,0,462,0,297.6v0C0,133.3,133.3,0,297.6,0h0
	C462,0,595.3,133.3,595.3,297.6v0C595.3,462,462,595.3,297.6,595.3z"/>
<g>
	<g>
		<path class="st1" d="M151.4,268c-4.5,0-8.1,0-11.1,0v0h-14v54.7h14V302c2.8,0,6.8,0.1,11.3-0.2c9-0.5,15.2-10,14.7-18.4
			C165.7,274.7,160.3,268,151.4,268z M144.3,295.5c-1.5,0-2.8-0.2-4-0.6v-20.1c1.4-0.4,2.9-0.7,4.6-0.7c6.4,0,7.4,5.7,7.4,11
			C152.2,290.4,150.5,295.5,144.3,295.5z"/>
		<path class="st1" d="M195.7,268c-4.5,0-8.1,0-11.1,0v0h-14v54.7h14V302c2.8,0,6.8,0.1,11.3-0.2c9-0.5,15.2-10,14.7-18.4
			C210,274.7,204.7,268,195.7,268z M188.6,295.5c-1.5,0-2.8-0.2-4-0.6v-20.1c1.4-0.4,2.9-0.7,4.6-0.7c6.4,0,7.4,5.7,7.4,11
			C196.5,290.4,194.8,295.5,188.6,295.5z"/>
		<polygon class="st1" points="250.7,268.3 243.8,268.3 235.6,294.1 226.3,268.3 210.6,268.3 224.6,304.1 224.6,322.4 238.4,322.4 
			238.4,303.3 		"/>
		<polygon class="st1" points="429.5,268.3 422.6,268.3 414.4,294.1 405.1,268.3 389.4,268.3 403.5,304.1 403.5,322.4 417.3,322.4 
			417.3,303.3 		"/>
		<polygon class="st1" points="286.9,316.9 286.9,295.6 301.8,295.6 301.8,290.7 286.9,290.7 286.9,273.8 304.7,273.8 304.7,268.3 
			286.9,268.3 272,268.3 272,273.8 272,290.7 272,295.6 272,316.9 272,322.4 286.9,322.4 313.3,322.4 313.3,316.9 		"/>
		<path class="st1" d="M334.4,322.4h14.1l-12.9-54.1h-8.9v0h-5.2l-13.3,54.1h5.2l3-12.2h15.1L334.4,322.4z M317.4,305.9l6.6-26.9
			l6.4,26.9H317.4z"/>
		<path class="st1" d="M107.3,322.4h14.1l-12.9-54.1h-8.9v0h-5.2l-13.3,54.1h5.2l3-12.2h15.1L107.3,322.4z M90.3,305.9l6.6-26.9
			l6.4,26.9H90.3z"/>
		<path class="st1" d="M350.4,313.1c-0.8-1.8-1.3-8.5,4.3-9.4c5.5-0.9,4.6,4.8,5.9,7.9c1.6,3.6,4.4,4.8,8,4.5c2.7-0.2,5-1.3,5.2-4.3
			c0.4-4.1-2.9-5.6-5.7-7.3c-3.9-2.4-8.2-4.4-11.4-7.5c-7.6-7.3-7.4-19-0.2-25.6c7-6.4,19.8-6.3,26.2,0.5c3.2,3.4,6.6,8,1.7,11.8
			c-4.8,3.8-6-1.5-7.4-4.9c-1.8-4.3-5.4-4.9-9.3-4.1c-1.4,0.3-3.3,1.8-3.5,3c-0.7,4.1,2.7,5.6,5.6,7.3c1.8,1,3.7,1.8,5.6,2.8
			c8.2,4.3,14.6,10.2,13.9,20.3c-0.5,7.3-5,12.2-11.9,14.6c-9.5,3.2-18,2.1-24.9-5.9C351.7,315.7,350.8,313.9,350.4,313.1z"/>
		<polygon class="st1" points="61.8,268.6 61.8,289.5 51.2,289.5 51.2,268.6 35.6,268.6 35.6,322.1 51.2,322.1 51.2,295.4 
			61.8,295.4 61.8,322.1 77.5,322.1 77.5,268.6 		"/>
	</g>
	<g>
		<g>
			<path class="st2" d="M558,314.6c-5.3-3-10.6-6-15.8-9c-0.2-0.1-0.4-0.2-0.5-0.2l-2.4-1.4v8.2h-4.1h-1.3h-9h-4.7h-3.5v0.1
				c-2.4,0-4.8-0.1-7-0.2c-7.8-0.6-14-6.2-15.4-13.4c-1.3-6.9,2.2-14.3,8.5-17.8c8.9-4.9,19.1-0.2,21.3,9.8
				c0.8,3.8,0.9,7.8,0.8,11.6h8.4c0.1-4.2,0-8.5-0.6-12.7c-1.4-11.4-11-20.3-21.9-20.5c-13.2-0.3-25.8,11.7-26.2,24.7
				c-0.4,15.9,10.6,27.3,24.7,27.7c2.5,0.1,4.9,0.1,7.4,0.1v0h0.9c3.5,0,7,0,10.4,0h11.1v6.7c0,0.1,0,0.2,0,0.4l7.8-4.4v0
				c3.8-2.2,7.5-4.3,11.2-6.4C560.4,316.6,559.8,315.7,558,314.6z"/>
			<path class="st2" d="M524.9,308.3c0,1.3,0,2.5,0,3.9h9c-0.2,0-0.3-0.1-0.5-0.1c0,0,0,0,0,0c0,0,0,0,0,0c-0.1-1-0.1-1.9-0.2-2.9
				c0,0,0,0,0,0c0,0,0,0,0,0c0.1-2.3,0.2-4.6,0.2-6.9H525C525,304.4,524.9,306.4,524.9,308.3z"/>
			<g>
				<path class="st0" d="M513.4,317c-23,0-24.2-20.5-24.3-21.4c-0.1-3,1.2-10.9,6.4-16.3c3.6-3.7,8.2-5.6,13.9-5.6
					c17.1,0,19.9,19,19.9,19.8c0.5,4.6,0.3,18.6,0.3,18.6l-0.5,0c0,0,0.2-14-0.3-18.6c-0.1-0.9-2.8-19.4-19.5-19.4
					c-5.5,0-10.1,1.8-13.6,5.5c-5.1,5.3-6.4,13-6.3,16c0,0.9,1.3,21,23.8,21V317z"/>
			</g>
			<linearGradient id="SVGID_1_" gradientUnits="userSpaceOnUse" x1="529.1781" y1="304.7957" x2="529.1781" y2="312.2297">
				<stop  offset="0.2927" style="stop-color:#BB522F;stop-opacity:0"/>
				<stop  offset="1" style="stop-color:#BB522F"/>
			</linearGradient>
			<path class="st3" d="M525,312.2c0,0,8.4-0.1,8.4-0.1c0,0-0.1-3.9-0.1-5.2h-8.4C524.9,308,525,311.4,525,312.2z"/>
			<g>
				<g>
					<path class="st0" d="M546.2,317h-2.8v-0.5h2.8V317z M540.5,317h-2.8v-0.5h2.8V317z M534.8,317H532v-0.5h2.8V317z M529.1,317
						h-2.8v-0.5h2.8V317z M523.5,317h-2.8v-0.5h2.8V317z M517.8,317H515v-0.5h2.8V317z M512.1,317c-1,0-1.9-0.1-2.8-0.2l0.1-0.5
						c0.9,0.1,1.8,0.2,2.8,0.2L512.1,317z M506.5,316.3c-0.9-0.2-1.9-0.5-2.7-0.8l0.2-0.4c0.9,0.3,1.8,0.6,2.7,0.8L506.5,316.3z
						 M501.1,314.4c-0.9-0.4-1.7-0.9-2.5-1.5l0.3-0.4c0.8,0.5,1.6,1,2.4,1.4L501.1,314.4z M496.4,311.1c-0.7-0.6-1.4-1.3-2-2.1
						l0.4-0.3c0.6,0.7,1.2,1.4,1.9,2L496.4,311.1z M492.7,306.7c-0.5-0.8-1-1.6-1.4-2.5l0.4-0.2c0.4,0.9,0.8,1.7,1.3,2.5
						L492.7,306.7z M490.3,301.5c-0.3-0.9-0.6-1.8-0.8-2.8l0.5-0.1c0.2,0.9,0.4,1.8,0.7,2.7L490.3,301.5z M489.2,295.9l0-0.3
						c0-0.1,0-0.3,0-0.4c0-0.6,0.1-1.4,0.2-2.1l0.5,0.1c-0.1,0.8-0.2,1.5-0.2,2.1c0,0.1,0,0.3,0,0.4l0,0.3L489.2,295.9z
						 M490.3,290.3l-0.5-0.1c0.2-0.9,0.5-1.8,0.8-2.7l0.4,0.2C490.8,288.5,490.5,289.4,490.3,290.3z M492.2,285l-0.4-0.2
						c0.4-0.9,0.9-1.7,1.4-2.5l0.4,0.3C493.1,283.4,492.6,284.2,492.2,285z M495.2,280.3l-0.4-0.3c0.6-0.7,1.3-1.4,2-2l0.3,0.4
						C496.5,279,495.8,279.6,495.2,280.3z M499.5,276.7l-0.2-0.4c0.8-0.5,1.7-0.9,2.6-1.3l0.2,0.4
						C501.1,275.8,500.2,276.2,499.5,276.7z M504.6,274.6l-0.1-0.5c0.9-0.2,1.9-0.4,2.8-0.4l0,0.5
						C506.4,274.3,505.5,274.4,504.6,274.6z M513,274.4c-0.9-0.2-1.8-0.3-2.8-0.3l0-0.5c1,0,1.9,0.1,2.8,0.3L513,274.4z"/>
				</g>
			</g>
			<g id="obXt8V.tif_00000175306426644382238650000009016172235398553776_">
				<g>
					<path class="st0" d="M543.4,313.8c-0.4-0.3-0.8-0.5-1.1-0.8c-0.1-0.1-0.3-0.2-0.3-0.3c0-0.1,0.1-0.1,0.1,0
						c0.5,0,0.9,0.2,1.3,0.5c0.6,0.4,1.3,0.7,1.9,1c0.7,0.3,1.3,0.7,2,1c0.3,0.1,0.6,0.3,0.9,0.5c0.2,0,1-0.2,1.1-0.2
						c0.6-0.1,1.3-0.3,1.9-0.4c0.7-0.2,1.4-0.3,2.1-0.3c0.3,0,0.7,0.1,0.9,0.3c0.1,0.1,0.2,0.1,0.3,0.1c0.1,0,0.2,0.1,0.2,0.2
						c0.1,0.1,0.1,0.3,0,0.5c-0.3,0.3-0.7,0.5-1.1,0.6c-0.7,0.3-1.5,0.4-2.3,0.6c-0.3,0.1-0.6,0.1-0.8,0.3c-0.1,0.1-0.1,0.1-0.1,0.2
						c0,0,0,0.1,0,0.1c0.1,0.3,0.4,1.4,0.5,1.5c0.1,0.2,0.2,0.4,0.2,0.6c0,0.1,0,0.1-0.1,0.2c-0.1,0.1-0.4,0.2-0.4,0.1
						c0,0-0.2-0.2-0.2-0.2c-0.1-0.2-1.5-1.6-2.3-2.2c-0.1,0-1.5,0.3-1.6,0.3c-0.7,0.1-1.7,0.3-2.6,0.2c-0.4,0-0.4,0-0.3,0.3
						c0,0.1,0.1,0.1,0,0.2c-0.1,0.1-0.3,0.1-0.4,0c-0.2-0.2-0.4-0.3-0.6-0.5c-0.1-0.1-0.2-0.1-0.3-0.1c-0.3,0-0.5-0.1-0.8-0.1
						c-0.1,0-0.2,0-0.2-0.1c0-0.1,0-0.2,0.1-0.2c0,0,0,0,0.1-0.1c0.1-0.1,0.1-0.1,0-0.2c-0.5-0.3-0.9-0.6-1.4-1c0,0-0.1,0-0.1-0.1
						c0-0.1,0.1,0,0.1-0.1c0.2,0,0.3,0,0.4,0.1c0.5,0.2,0.9,0.4,1.4,0.7c0.1,0.1,0.2,0,0.2-0.1c0-0.5,0-1,0-1.4c0-0.1,0-0.2,0.2-0.2
						c0.5-0.2,0.4-0.1,0.6,0.2c0.2,0.3,0.4,0.7,0.7,1c0.1,0.2,0.1,0.2,0.4,0.2c0.5-0.1,1.1-0.3,1.6-0.4c0.1,0,0.1,0,0.2-0.1
						c0-0.1-0.3-0.3-0.4-0.4C545.7,315.6,544.5,314.6,543.4,313.8z"/>
				</g>
			</g>
		</g>
		<g>
			<path class="st1" d="M439.3,303c-0.4-0.7-0.7-1.5-0.9-2.3l-1.1,0c-2.2-0.1-4.4-0.3-6.3-1.4l-2.3-1.7c0.5,5.7,2.7,10.9,6.2,15.1
				l0.5-3.4C435.9,306.7,437.4,304.7,439.3,303z"/>
			<path class="st1" d="M438,289.8l0.3,0c0.2-0.7,0.5-1.4,0.8-2l-1-1.1c-1.6-1.6-3-3.3-3.5-5.4l-0.4-2.6c-3.1,4-5.1,9-5.5,14.4
				l2.2-1.6C432.9,290.1,435.5,289.7,438,289.8z"/>
			<path class="st1" d="M451,318.7c-1.2-2-1.6-4.3-1.5-6.7c-0.9-0.3-1.8-0.7-2.7-1.2l-0.4,0.4c-1.6,1.5-3.3,2.9-5.5,3.4l-3.6,0.5
				c4.3,4,10,6.5,16.2,6.8c0,0,0,0,0,0L451,318.7z"/>
			<path class="st1" d="M446.3,279.5l0.2,0.2c0.6-0.4,1.3-0.7,2-0.9v-1.5c0-2.2,0.1-4.4,1.3-6.4l1.6-2.3c-5.4,0.8-10.2,3.1-14.1,6.7
				l2.6,0.3C442.4,276.1,444.5,277.6,446.3,279.5z"/>
			<path class="st1" d="M457.5,303.1c0,0,4.8-4.5,7.9-8.4h-10.1v9.3h12.3l2.1-1.8C463.7,302.6,457.5,303.1,457.5,303.1z"/>
			<path class="st1" d="M459.4,277.8L459.4,277.8c0.9,0.2,1.7,0.5,2.5,0.8l0.1-0.1c1.7-1.4,3.5-2.7,5.7-3.1l4.3-0.4
				c1.1,0.1,1.9,1,1.8,2.1l-0.8,4c-0.2,0.7-0.4,1.3-0.7,1.9l4.7-4.5c-4.7-6.4-12.7-9.9-21.2-10.1l1.8,2.2
				C458.9,272.7,459.4,275.2,459.4,277.8z"/>
			<path class="st1" d="M481.4,295.2c0-0.2,0-0.3,0-0.5h-1l0.8,0.2c0,0-3.6,6.7-9.9,7.2c-0.4,0-0.9,0.1-1.3,0.1l1.3,1.4
				c1.5,1.7,2.8,3.4,3.3,5.6l0.4,3.7c2.2-2.6,3.9-5.6,5-8.9C480.8,301.2,481.4,298.3,481.4,295.2z"/>
			<path class="st1" d="M463.2,311c-0.9,0.5-1.9,0.9-2.9,1.2l0,0.2c-0.1,2.2-0.4,4.4-1.6,6.3l-2.5,3.3c6.3-0.3,12-2.9,16.4-6.9
				l-3.8-0.7C466.6,314,464.8,312.7,463.2,311z"/>
			<path class="st1" d="M448.5,277.3v1.5c2.1-0.9,4.3-1.3,6.7-1.3c1.5,0,2.9,0.2,4.2,0.5v-0.1c0-2.6-0.4-5.1-1.9-7.2l-1.8-2.2
				c-0.3,0-0.5,0-0.8,0c-1.2,0-2.4,0.1-3.6,0.3l-1.6,2.3C448.6,272.8,448.5,275,448.5,277.3z"/>
			
				<linearGradient id="SVGID_00000027596563560415513960000011556480911938846644_" gradientUnits="userSpaceOnUse" x1="453.9069" y1="266.8141" x2="453.9069" y2="279.3098">
				<stop  offset="0" style="stop-color:#B4D4B3"/>
				<stop  offset="1" style="stop-color:#027959"/>
			</linearGradient>
			<path style="fill:url(#SVGID_00000027596563560415513960000011556480911938846644_);" d="M448.5,277.3v1.5
				c2.1-0.9,4.3-1.3,6.7-1.3c1.5,0,2.9,0.2,4.2,0.5v-0.1c0-2.6-0.4-5.1-1.9-7.2l-1.8-2.2c-0.3,0-0.5,0-0.8,0c-1.2,0-2.4,0.1-3.6,0.3
				l-1.6,2.3C448.6,272.8,448.5,275,448.5,277.3z"/>
			<path class="st1" d="M473.7,277.1c0.1-1.1-0.7-2-1.8-2.1l-4.3,0.4c-2.2,0.4-4,1.7-5.7,3.1l-0.1,0.1c3.2,1.2,5.9,3.3,8.4,6.2
				l1.9-1.8c0.3-0.6,0.6-1.2,0.7-1.9L473.7,277.1z"/>
			
				<linearGradient id="SVGID_00000029755114058526173450000015642774905161558204_" gradientUnits="userSpaceOnUse" x1="281.4469" y1="206.6393" x2="292.7301" y2="208.6751" gradientTransform="matrix(0.6458 0.7635 -0.7635 0.6458 442.6053 -72.8679)">
				<stop  offset="0" style="stop-color:#B4D4B3"/>
				<stop  offset="1" style="stop-color:#027959"/>
			</linearGradient>
			<path style="fill:url(#SVGID_00000029755114058526173450000015642774905161558204_);" d="M473.7,277.1c0.1-1.1-0.7-2-1.8-2.1
				l-4.3,0.4c-2.2,0.4-4,1.7-5.7,3.1l-0.1,0.1c3.2,1.2,5.9,3.3,8.4,6.2l1.9-1.8c0.3-0.6,0.6-1.2,0.7-1.9L473.7,277.1z"/>
			<path class="st1" d="M438.1,286.7l1,1.1c1.6-3.4,4.2-6.2,7.4-8l-0.2-0.2c-1.8-1.8-3.9-3.4-6.4-3.9l-2.6-0.3
				c-1.1,1-2.2,2.2-3.1,3.4l0.4,2.6C435.1,283.4,436.5,285.1,438.1,286.7z"/>
			
				<linearGradient id="SVGID_00000116214901951942947770000015233814271637858440_" gradientUnits="userSpaceOnUse" x1="440.3016" y1="275.0828" x2="440.3016" y2="288.1341">
				<stop  offset="0" style="stop-color:#B4D4B3"/>
				<stop  offset="1" style="stop-color:#027959"/>
			</linearGradient>
			<path style="fill:url(#SVGID_00000116214901951942947770000015233814271637858440_);" d="M438.1,286.7l1,1.1
				c1.6-3.4,4.2-6.2,7.4-8l-0.2-0.2c-1.8-1.8-3.9-3.4-6.4-3.9l-2.6-0.3c-1.1,1-2.2,2.2-3.1,3.4l0.4,2.6
				C435.1,283.4,436.5,285.1,438.1,286.7z"/>
			<path class="st1" d="M437.2,300.7l1.1,0c-0.6-1.7-0.9-3.6-0.9-5.5c0-1.9,0.3-3.7,0.8-5.4l-0.3,0c-2.6-0.1-5.1,0.3-7.3,1.7
				l-2.2,1.6c-0.1,0.7-0.1,1.4-0.1,2.1c0,0.8,0.1,1.6,0.1,2.4l2.3,1.7C432.8,300.4,435,300.6,437.2,300.7z"/>
			
				<linearGradient id="SVGID_00000078043237759198129060000008264878764004034734_" gradientUnits="userSpaceOnUse" x1="433.4064" y1="289.7674" x2="433.4064" y2="300.7049">
				<stop  offset="0" style="stop-color:#B4D4B3"/>
				<stop  offset="1" style="stop-color:#027959"/>
			</linearGradient>
			<path style="fill:url(#SVGID_00000078043237759198129060000008264878764004034734_);" d="M437.2,300.7l1.1,0
				c-0.6-1.7-0.9-3.6-0.9-5.5c0-1.9,0.3-3.7,0.8-5.4l-0.3,0c-2.6-0.1-5.1,0.3-7.3,1.7l-2.2,1.6c-0.1,0.7-0.1,1.4-0.1,2.1
				c0,0.8,0.1,1.6,0.1,2.4l2.3,1.7C432.8,300.4,435,300.6,437.2,300.7z"/>
			<path class="st1" d="M446.4,311.3l0.4-0.4c-3.3-1.8-5.9-4.5-7.5-7.9c-1.8,1.7-3.4,3.7-3.9,6.2l-0.5,3.4c0.8,0.9,1.6,1.7,2.5,2.5
				l3.6-0.5C443,314.2,444.7,312.8,446.4,311.3z"/>
			
				<linearGradient id="SVGID_00000026847518072811676420000003376661249442206133_" gradientUnits="userSpaceOnUse" x1="435.6956" y1="306.5441" x2="443.445" y2="314.2935">
				<stop  offset="0" style="stop-color:#B4D4B3"/>
				<stop  offset="1" style="stop-color:#027959"/>
			</linearGradient>
			<path style="fill:url(#SVGID_00000026847518072811676420000003376661249442206133_);" d="M446.4,311.3l0.4-0.4
				c-3.3-1.8-5.9-4.5-7.5-7.9c-1.8,1.7-3.4,3.7-3.9,6.2l-0.5,3.4c0.8,0.9,1.6,1.7,2.5,2.5l3.6-0.5
				C443,314.2,444.7,312.8,446.4,311.3z"/>
			<path class="st1" d="M460.3,312.5l0-0.2c-1.6,0.5-3.4,0.8-5.2,0.8c-2,0-3.9-0.3-5.7-1c0,2.4,0.3,4.6,1.5,6.7l2.4,3.3c0,0,0,0,0,0
				c0.5,0,1,0.1,1.5,0.1c0.4,0,0.9,0,1.3-0.1l2.5-3.3C460,316.9,460.2,314.7,460.3,312.5z"/>
			
				<linearGradient id="SVGID_00000050631758496844163350000012721597760932934797_" gradientUnits="userSpaceOnUse" x1="454.8948" y1="309.8928" x2="454.8948" y2="322.6544">
				<stop  offset="0" style="stop-color:#B4D4B3"/>
				<stop  offset="1" style="stop-color:#027959"/>
			</linearGradient>
			<path style="fill:url(#SVGID_00000050631758496844163350000012721597760932934797_);" d="M460.3,312.5l0-0.2
				c-1.6,0.5-3.4,0.8-5.2,0.8c-2,0-3.9-0.3-5.7-1c0,2.4,0.3,4.6,1.5,6.7l2.4,3.3c0,0,0,0,0,0c0.5,0,1,0.1,1.5,0.1
				c0.4,0,0.9,0,1.3-0.1l2.5-3.3C460,316.9,460.2,314.7,460.3,312.5z"/>
			<path class="st1" d="M471.2,303.6l-1.3-1.4c-0.1,0-0.1,0-0.2,0l-2.1,1.8h3c-1.7,3-4.3,5.5-7.3,7.1c1.6,1.6,3.4,3,5.6,3.5l3.8,0.7
				c0.8-0.7,1.6-1.5,2.3-2.3l-0.4-3.7C474,307,472.6,305.2,471.2,303.6z"/>
			
				<linearGradient id="SVGID_00000046316847338019996910000017478419899828389007_" gradientUnits="userSpaceOnUse" x1="465.7652" y1="304.3536" x2="472.4161" y2="315.8733">
				<stop  offset="0" style="stop-color:#B4D4B3"/>
				<stop  offset="1" style="stop-color:#027959"/>
			</linearGradient>
			<path style="fill:url(#SVGID_00000046316847338019996910000017478419899828389007_);" d="M471.2,303.6l-1.3-1.4
				c-0.1,0-0.1,0-0.2,0l-2.1,1.8h3c-1.7,3-4.3,5.5-7.3,7.1c1.6,1.6,3.4,3,5.6,3.5l3.8,0.7c0.8-0.7,1.6-1.5,2.3-2.3l-0.4-3.7
				C474,307,472.6,305.2,471.2,303.6z"/>
			<path class="st1" d="M457.5,303.1c0,0,6.2-0.5,12.2-0.9l0.1-0.1l0.1,0.1c0.4,0,0.9-0.1,1.3-0.1c6.3-0.5,9.9-7.2,9.9-7.2l-0.8-0.2
				h-14.9C462.3,298.6,457.5,303.1,457.5,303.1z"/>
			
				<linearGradient id="SVGID_00000021835818572525911350000013330006713614338229_" gradientUnits="userSpaceOnUse" x1="469.3026" y1="291.7624" x2="469.3026" y2="303.0618">
				<stop  offset="0" style="stop-color:#B4D4B3"/>
				<stop  offset="1" style="stop-color:#027959"/>
			</linearGradient>
			<path style="fill:url(#SVGID_00000021835818572525911350000013330006713614338229_);" d="M457.5,303.1c0,0,6.2-0.5,12.2-0.9
				l0.1-0.1l0.1,0.1c0.4,0,0.9-0.1,1.3-0.1c6.3-0.5,9.9-7.2,9.9-7.2l-0.8-0.2h-14.9C462.3,298.6,457.5,303.1,457.5,303.1z"/>
			<path class="st1" d="M469.7,302.1c0.1,0,0.1,0,0.2,0l-0.1-0.1L469.7,302.1z"/>
			
				<linearGradient id="SVGID_00000030475702318789118610000007975697835996697764_" gradientUnits="userSpaceOnUse" x1="469.7338" y1="302.0623" x2="476.3847" y2="313.582">
				<stop  offset="0" style="stop-color:#B4D4B3"/>
				<stop  offset="1" style="stop-color:#027959"/>
			</linearGradient>
			<path style="fill:url(#SVGID_00000030475702318789118610000007975697835996697764_);" d="M469.7,302.1c0.1,0,0.1,0,0.2,0
				l-0.1-0.1L469.7,302.1z"/>
			
				<linearGradient id="SVGID_00000078012064137418978100000009971858555896091817_" gradientUnits="userSpaceOnUse" x1="469.774" y1="291.7624" x2="469.774" y2="303.0618">
				<stop  offset="0" style="stop-color:#B4D4B3"/>
				<stop  offset="1" style="stop-color:#027959"/>
			</linearGradient>
			<path style="fill:url(#SVGID_00000078012064137418978100000009971858555896091817_);" d="M469.7,302.1c0.1,0,0.1,0,0.2,0
				l-0.1-0.1L469.7,302.1z"/>
		</g>
	</g>
</g>
</svg>
