<?xml version="1.0" encoding="utf-8"?>
<!-- Generator: Adobe Illustrator 26.3.1, SVG Export Plug-In . SVG Version: 6.00 Build 0)  -->
<svg version="1.1" id="Layer_1" xmlns="http://www.w3.org/2000/svg" xmlns:xlink="http://www.w3.org/1999/xlink" x="0px" y="0px"
	 viewBox="0 0 595.3 595.3" style="enable-background:new 0 0 595.3 595.3;" xml:space="preserve">
<style type="text/css">
	.st0{fill:#FFFFFF;}
</style>
<path class="st0" d="M297.6,595.3L297.6,595.3C133.3,595.3,0,462,0,297.6l0,0C0,133.3,133.3,0,297.6,0l0,0
	C462,0,595.3,133.3,595.3,297.6l0,0C595.3,462,462,595.3,297.6,595.3z"/>
<path class="st0" d="M584.9,375.9c0.5-2,1.1-4,1.6-6L584.9,375.9z"/>
<polygon class="st0" points="586.4,369.9 586.4,369.9 586.4,369.9 "/>
<g>
	<path d="M93.1,199.5c21.5,1.1,26.3,6.6,26.8,28.4c1.1,46.3,0.8,92.7,0.1,139c-0.2,22.1-4.9,26.1-26.5,28.8
		c-2.6,0.3-5.9-0.6-6.2,3.5c-0.3,4.7,3.2,4.5,6.4,4.5c26.8,0,53.7,0.1,80.6,0c2.9,0,6.7,0.9,6.7-4.1c-0.1-5.1-4.1-3.6-6.8-3.9
		c-19.2-1.8-24.8-6.4-25.5-24.8c-0.9-22.2-0.2-44.3-0.4-66.6c0-4.9,1.5-6.9,6.6-6.8c35,0.2,70.1,0.1,105.1,0c4.7,0,7.5,1,7.2,6.4
		c-0.8,22.9,1.6,46-1.3,68.8c-2.3,17.6-6.6,21.4-24.7,23c-3,0.3-8.1-1.6-7.8,4.1c0.3,5.2,5.1,3.8,8.2,3.8c26.1,0.1,52.2,0.1,78.3,0
		c3,0,7.8,1.8,8-3.8c0.2-5.9-4.7-3.8-7.7-4.1c-19-1.6-24.9-7.1-25-26.3c-0.3-47.9-0.3-95.8,0-143.7c0.1-18.6,5.7-24,24-26.3
		c3.2-0.4,9.2,2.4,8.5-4.3c-0.5-5.2-5.6-2.9-8.5-2.9c-25.7-0.2-51.4-0.2-77.1,0c-3,0-8.1-2.2-8.8,2.7c-0.9,6.6,5.2,4.1,8.4,4.5
		c17.8,2.2,21.8,5.7,24.2,23.8c2.4,17.8,0.3,35.8,1.1,53.6c0.3,6.9-3.6,7.5-8.8,7.4c-16.8-0.1-33.5,0-50.3,0
		c-17.1,0-34.3-0.2-51.4,0.1c-6.5,0.1-9-1.7-8.8-8.5c0.4-15.1,0-30.4,0.2-45.5c0.3-23.1,3.9-27.1,26.9-30.7c2.6-0.4,5.7,0.2,5.7-3.9
		c0-4.4-3.5-3.5-5.9-3.5c-27.3-0.1-54.5-0.1-81.8,0c-2.5,0-5.9-1-6.1,3.4C87.3,199.6,90.4,199.4,93.1,199.5z"/>
	<path d="M371.8,374.3c-2.6,16.3-6.9,20-23.6,21.5c-3,0.3-8.1-1.9-8.1,3.7c0,6.4,5.6,4.1,8.9,4.1c25.3,0.2,50.6,0.2,75.9,0
		c3.4,0,8.9,2.1,8.5-4.4c-0.3-5.6-5.3-3.1-8.3-3.5c-17.4-1.6-23.1-7.4-24.1-26.5c-0.6-14-0.2-28-0.2-42.1c0-31.4,0-31.4,31.1-28.4
		c21.2,1.9,24.2,5,26.8,26c0.3,2.7-1.4,7,3.5,7.2c5.9,0.2,3.9-4.8,3.9-7.7c0.2-21.4,0.2-42.8,0-64.2c0-3,2.2-8.1-2.9-8.7
		c-6.5-0.6-4.1,5.2-4.5,8.4c-2.3,18.8-5.5,22.4-24.7,24.4c-8.4,0.9-17.1,0.4-25.6,1c-6.5,0.4-7.8-2.5-7.8-8.2
		c0.2-21,0.3-42.1,0-63.2c-0.1-6.8,2.4-8.7,8.8-8.4c17.5,0.4,35,0,52.6,0.3c25.4,0.4,28.8,3,36.8,26.9c1,3,1.1,6.6,5.5,5.9
		c5.6-0.8,3.6-5.3,3.5-8.3c-0.4-9.7-1.7-19.5-1.7-29.1c0-7.1-2.4-9.3-9.4-9.2c-24.5,0.4-49.1,0.1-73.6,0.1
		c-23.8,0-47.5-0.2-71.3,0.2c-3.8,0.1-10.9-3.7-11.2,3.5c-0.3,6.5,6.6,3.5,10.2,3.8c12.5,1.4,20.1,7.4,21.1,20.5
		c0.3,5.1,1.1,10.1,1.1,15.1c0.1,41.3,0.1,82.6,0,123.8C372.8,364.2,372.7,369.3,371.8,374.3z"/>
</g>
</svg>
