<?xml version="1.0" encoding="utf-8"?>
<!-- Generator: Adobe Illustrator 26.3.1, SVG Export Plug-In . SVG Version: 6.00 Build 0)  -->
<svg version="1.1" id="Layer_1" xmlns="http://www.w3.org/2000/svg" xmlns:xlink="http://www.w3.org/1999/xlink" x="0px" y="0px"
	 viewBox="0 0 595.3 595.3" style="enable-background:new 0 0 595.3 595.3;" xml:space="preserve">
<style type="text/css">
	.st0{fill:#FFFFFF;}
</style>
<path class="st0" d="M297.6,595.3L297.6,595.3C133.3,595.3,0,462,0,297.6l0,0C0,133.3,133.3,0,297.6,0l0,0
	C462,0,595.3,133.3,595.3,297.6l0,0C595.3,462,462,595.3,297.6,595.3z"/>
<g>
	<path d="M411.4,433.9c-0.4-9-3.5-18.8,5-26.9c-6.9,0-12.6,0-18.2,0c6.1,12.1,5.6,23.9,0.3,36.2c9.2,0,18.1-0.3,27.1,0.1
		c7.6,0.3,7.1-3.6,5.6-8.8C422.5,441.3,411.7,440.9,411.4,433.9z"/>
	<path d="M287.6,406.5c-7.9,0.4-15.8,0.4-23.6,0c-7.5-0.4-8.1,3-6.1,9.6c4.2-4.2,10.9-9.6,12.5-2.7c2.1,9.1,4.6,20.3-4.3,29.3
		c6.3,0,12.2,0,19.4,0c-7.6-6-5-13.6-5-20.4c0-3.8-2.6-9,2.5-11.4c4.4-2.1,7.5,1.9,10.9,5.4C295.3,409.6,294.5,406.2,287.6,406.5z"
		/>
	<path d="M202.6,405.8c-11.1-0.1-20.7,8.5-20.9,18.9c-0.2,10,9.7,19.7,20.3,19.9c10.9,0.2,20.4-8.7,20.5-19.3
		C222.7,414.4,214.1,405.9,202.6,405.8z M202.1,439.5c-9-0.2-10.5-7.5-10.4-14.7c0.1-7.2,1.6-14.4,10.8-14.2
		c9.2,0.1,9.7,7.9,10.8,14.6C212.3,432.2,211.2,439.7,202.1,439.5z"/>
	<path d="M146.7,407.3c-5.8,0-11.6,0-19.1,0c6.2,4.1,8.7,9.5,4.9,13.2c-3.2,3.1-10.7,3.1-14-0.1c-4.5-4.3,0.5-9.1,4.1-13.4
		c-6.9,0-12.6,0-17.9,0c5.1,12.1,5.4,23.9,0.1,35.5c5.7,0,11.4,0,19,0c-7.4-4.6-8.9-10.8-5-15.2c2.9-3.3,11-3.3,13.8,0
		c3.5,4.2,2.3,10.6-4.4,15.3c7.6,0,13.3,0,19.7,0C140.5,434.7,140.3,416.2,146.7,407.3z"/>
	<path d="M480.1,419.8c-2.8-1.7-6.2-2.9-5.2-7c0.3-1,1.9-2.4,3-2.5c3.8-0.4,5.8,2.1,7.1,5.3c0.5,1.1,0.3,3,3,2.9
		c0.5-4.2,3-9.2-1.6-12.2c-5.3-3.4-16.8,0.4-18.9,5.5c-2.5,6,0.2,10.4,5.2,13.7c2.4,1.6,5,2.8,7.5,4.2c3.1,1.8,5.4,4.6,3.2,7.9
		c-2.6,3.8-6.2,1.9-9.5,0.3c-3.1-1.5-2.5-6.7-7.2-6.9c0,4.6-1.5,12.2,1.1,12c6.7-0.5,14.3,4.6,20.5-2c4.7-5,5.4-10.2,0.7-15.3
		C486.6,423.3,483.2,421.6,480.1,419.8z"/>
	<path d="M108.4,158.2c19.9,1,24.3,6.1,24.8,26.3c1,42.8,0.7,85.7,0.1,128.5c-0.2,20.4-4.5,24.1-24.5,26.6c-2.4,0.3-5.5-0.6-5.7,3.2
		c-0.3,4.3,3,4.2,5.9,4.2c24.8,0,49.7,0.1,74.5,0c2.7,0,6.2,0.8,6.2-3.8c-0.1-4.7-3.8-3.3-6.3-3.6c-17.8-1.7-22.9-5.9-23.6-22.9
		c-0.8-20.5-0.2-41-0.4-61.6c0-4.5,1.4-6.4,6.1-6.3c32.4,0.2,64.8,0.1,97.2,0c4.3,0,6.9,0.9,6.7,5.9c-0.7,21.2,1.5,42.5-1.2,63.6
		c-2.1,16.3-6.1,19.8-22.8,21.3c-2.8,0.3-7.5-1.5-7.2,3.8c0.3,4.8,4.7,3.5,7.6,3.5c24.1,0.1,48.3,0.1,72.4,0c2.8,0,7.2,1.7,7.4-3.5
		c0.2-5.5-4.3-3.5-7.1-3.8c-17.6-1.5-23-6.6-23.1-24.3c-0.3-44.3-0.3-88.6,0-132.9c0.1-17.2,5.3-22.2,22.2-24.3c3-0.4,8.5,2.2,7.9-4
		c-0.5-4.8-5.2-2.7-7.9-2.7c-23.8-0.2-47.5-0.2-71.3,0c-2.8,0-7.5-2-8.1,2.5c-0.8,6.1,4.8,3.8,7.8,4.2c16.5,2,20.2,5.3,22.4,22
		c2.2,16.5,0.3,33.1,1,49.6c0.3,6.4-3.3,6.9-8.1,6.8c-15.5-0.1-31,0-46.5,0c-15.8,0-31.7-0.2-47.5,0.1c-6,0.1-8.3-1.6-8.1-7.9
		c0.4-14,0-28.1,0.2-42.1c0.3-21.4,3.6-25.1,24.9-28.4c2.4-0.4,5.3,0.2,5.3-3.6c0-4.1-3.2-3.2-5.5-3.2c-25.2-0.1-50.4-0.1-75.6,0
		c-2.3,0-5.5-0.9-5.6,3.1C103,158.3,105.9,158.1,108.4,158.2z"/>
	<path d="M328.7,443.2c10.1,0,18.4-0.3,26.6,0.1c7.2,0.4,8.7-2.6,6.2-10c-4.6,7.5-11.1,7.3-16.9,4c-2.9-1.7-2.6-7.5-0.6-9.9
		c4.1-5,6.6,1.6,10.4,3.3c0-4.6,0-8.5,0-15c-3.6,4.2-6.4,8.4-10.3,4.6c-1.4-1.4-1.5-6.9-0.2-8c5.7-4.6,11.2-0.7,16.5,3.2
		c-0.8-9.7-9.9-11.7-30.9-7.5c6.9,4.6,4.6,11.4,5,17.6C334.9,431.8,335,437.8,328.7,443.2z"/>
	<path d="M366.1,319.8c-2.4,15.1-6.4,18.5-21.8,19.9c-2.8,0.3-7.5-1.8-7.5,3.4c0,5.9,5.2,3.8,8.2,3.8c23.4,0.2,46.8,0.2,70.2,0
		c3.1,0,8.2,1.9,7.9-4.1c-0.3-5.2-4.9-2.9-7.7-3.2c-16.1-1.5-21.4-6.8-22.3-24.5c-0.6-12.9-0.2-25.9-0.2-38.9c0-29,0-29,28.8-26.3
		c19.6,1.8,22.4,4.6,24.8,24c0.3,2.5-1.3,6.5,3.2,6.7c5.5,0.2,3.6-4.4,3.6-7.1c0.2-19.8,0.2-39.6,0-59.4c0-2.8,2-7.5-2.7-8
		c-6-0.6-3.8,4.8-4.2,7.8c-2.1,17.4-5.1,20.7-22.8,22.6c-7.8,0.8-15.8,0.4-23.7,0.9c-6,0.4-7.2-2.3-7.2-7.6
		c0.2-19.4,0.3-38.9,0-58.4c-0.1-6.3,2.2-8,8.1-7.8c16.2,0.4,32.4,0,48.6,0.3c23.5,0.4,26.6,2.8,34,24.9c0.9,2.8,1,6.1,5.1,5.5
		c5.2-0.7,3.3-4.9,3.2-7.7c-0.4-9-1.6-18-1.6-26.9c0-6.6-2.2-8.6-8.7-8.5c-22.7,0.4-45.4,0.1-68.1,0.1c-22,0-43.9-0.2-65.9,0.2
		c-3.5,0.1-10.1-3.4-10.4,3.2c-0.3,6,6.1,3.2,9.4,3.5c11.6,1.3,18.6,6.8,19.5,19c0.3,4.7,1,9.3,1,14c0.1,38.2,0.1,76.4,0,114.5
		C367,310.5,366.9,315.2,366.1,319.8z"/>
</g>
</svg>
