<svg xmlns="http://www.w3.org/2000/svg" xml:space="preserve" id="Layer_1" x="0" y="0" style="enable-background:new 0 0 595.3 595.3" version="1.1" viewBox="0 0 595.3 595.3"><style>.st0{fill:#fff}</style><path d="M297.6 595.3C133.3 595.3 0 462 0 297.6 0 133.3 133.3 0 297.6 0 462 0 595.3 133.3 595.3 297.6c0 164.4-133.3 297.7-297.7 297.7" class="st0"/><path d="M584.9 375.9c.5-2 1.1-4 1.6-6zM586.4 369.9" class="st0"/><path d="M93.1 199.5c21.5 1.1 26.3 6.6 26.8 28.4 1.1 46.3.8 92.7.1 139-.2 22.1-4.9 26.1-26.5 28.8-2.6.3-5.9-.6-6.2 3.5-.3 4.7 3.2 4.5 6.4 4.5 26.8 0 53.7.1 80.6 0 2.9 0 6.7.9 6.7-4.1-.1-5.1-4.1-3.6-6.8-3.9-19.2-1.8-24.8-6.4-25.5-24.8-.9-22.2-.2-44.3-.4-66.6 0-4.9 1.5-6.9 6.6-6.8 35 .2 70.1.1 105.1 0 4.7 0 7.5 1 7.2 6.4-.8 22.9 1.6 46-1.3 68.8-2.3 17.6-6.6 21.4-24.7 23-3 .3-8.1-1.6-7.8 4.1.3 5.2 5.1 3.8 8.2 3.8 26.1.1 52.2.1 78.3 0 3 0 7.8 1.8 8-3.8.2-5.9-4.7-3.8-7.7-4.1-19-1.6-24.9-7.1-25-26.3-.3-47.9-.3-95.8 0-143.7.1-18.6 5.7-24 24-26.3 3.2-.4 9.2 2.4 8.5-4.3-.5-5.2-5.6-2.9-8.5-2.9-25.7-.2-51.4-.2-77.1 0-3 0-8.1-2.2-8.8 2.7-.9 6.6 5.2 4.1 8.4 4.5 17.8 2.2 21.8 5.7 24.2 23.8 2.4 17.8.3 35.8 1.1 53.6.3 6.9-3.6 7.5-8.8 7.4-16.8-.1-33.5 0-50.3 0-17.1 0-34.3-.2-51.4.1-6.5.1-9-1.7-8.8-8.5.4-15.1 0-30.4.2-45.5.3-23.1 3.9-27.1 26.9-30.7 2.6-.4 5.7.2 5.7-3.9 0-4.4-3.5-3.5-5.9-3.5-27.3-.1-54.5-.1-81.8 0-2.5 0-5.9-1-6.1 3.4.6 4 3.7 3.8 6.4 3.9M371.8 374.3c-2.6 16.3-6.9 20-23.6 21.5-3 .3-8.1-1.9-8.1 3.7 0 6.4 5.6 4.1 8.9 4.1 25.3.2 50.6.2 75.9 0 3.4 0 8.9 2.1 8.5-4.4-.3-5.6-5.3-3.1-8.3-3.5-17.4-1.6-23.1-7.4-24.1-26.5-.6-14-.2-28-.2-42.1 0-31.4 0-31.4 31.1-28.4 21.2 1.9 24.2 5 26.8 26 .3 2.7-1.4 7 3.5 7.2 5.9.2 3.9-4.8 3.9-7.7.2-21.4.2-42.8 0-64.2 0-3 2.2-8.1-2.9-8.7-6.5-.6-4.1 5.2-4.5 8.4-2.3 18.8-5.5 22.4-24.7 24.4-8.4.9-17.1.4-25.6 1-6.5.4-7.8-2.5-7.8-8.2.2-21 .3-42.1 0-63.2-.1-6.8 2.4-8.7 8.8-8.4 17.5.4 35 0 52.6.3 25.4.4 28.8 3 36.8 26.9 1 3 1.1 6.6 5.5 5.9 5.6-.8 3.6-5.3 3.5-8.3-.4-9.7-1.7-19.5-1.7-29.1 0-7.1-2.4-9.3-9.4-9.2-24.5.4-49.1.1-73.6.1-23.8 0-47.5-.2-71.3.2-3.8.1-10.9-3.7-11.2 3.5-.3 6.5 6.6 3.5 10.2 3.8 12.5 1.4 20.1 7.4 21.1 20.5.3 5.1 1.1 10.1 1.1 15.1.1 41.3.1 82.6 0 123.8-.2 5.4-.3 10.5-1.2 15.5"/></svg>