<?xml version="1.0" encoding="utf-8"?>
<!-- Generator: Adobe Illustrator 26.3.1, SVG Export Plug-In . SVG Version: 6.00 Build 0)  -->
<svg version="1.1" id="Layer_1" xmlns="http://www.w3.org/2000/svg" xmlns:xlink="http://www.w3.org/1999/xlink" x="0px" y="0px"
	 viewBox="0 0 595.3 595.3" style="enable-background:new 0 0 595.3 595.3;" xml:space="preserve">
<style type="text/css">
	.st0{fill:#FFFFFF;}
	.st1{fill:#13304E;}
</style>
<path class="st0" d="M297.6,595.3L297.6,595.3C133.3,595.3,0,462,0,297.6v0C0,133.3,133.3,0,297.6,0h0
	C462,0,595.3,133.3,595.3,297.6v0C595.3,462,462,595.3,297.6,595.3z"/>
<g id="mDKZGe_00000033353828258146638640000004933752789855032229_">
	<g>
		<path class="st1" d="M324.9,228c6.2-16.5,0.9-29.5-14.3-34.7c1,0.8,1.4,1.2,1.8,1.5c0.5,0.4,1.1,0.8,1.6,1.1
			c8.2,6,11.9,13.9,9.8,23.9c-2,9.4-8.8,14.2-17.6,16.5c-5.1,1.3-10.3,1.7-15.6,0.7c8.4-0.2,16-2.2,22.1-8.2
			c-0.2-0.4-0.3-0.7-0.5-0.7c-5.5-0.7-5.5-0.7-5.5-6.4c0-6.6-0.2-13.3,0.1-19.9c0.1-2.9-0.9-4.4-3.4-5.5c-7.7-3.5-8-3.4-8,4.9
			c0,8.1-0.1,16.1,0,24.2c0,1.9-0.4,2.7-2.6,2.7c-6.6-0.1-13.3-0.1-19.9,0c-2.3,0-2.8-0.8-2.7-2.9c0.1-8.2,0.1-16.4,0-24.5
			c0-2.1,0.8-3.2,2.5-4.2c5.7-3.2,11.9-4.5,18.4-4.9c1.3-0.1,2.6,0,4-0.3c-6.3-2.2-12.8-2.4-19.3-1.2c-12.7,2.5-22.2,9-25.5,22.1
			c-3.3,13.1,1.2,23.9,11.7,32.2c3.5,2.7,7.4,4.7,11.5,6.4c22.1,8.9,65.6,3.6,86.7-19c16.3-17.4,18-42.6,3.5-59.7
			C356.9,164,348,158.9,338,156c-29.8-8.6-59.1-7.9-87.6,5.5c-8,3.7-15.1,8.7-21.2,15.2c-16.9,18-16.5,42,0.9,59.6
			c1.1,1.1,2.3,2.2,3.2,3.5c-1.9-0.7-3.3-2.1-4.6-3.5c-8.3-8.4-14.2-18-15.7-29.9c-1.5-12.5,2-23.7,9.3-33.7
			c11.3-15.6,26.9-24.9,45.3-29.1c37.7-8.6,71.2,0.7,99.9,26.2c11.1,9.8,17.5,22.4,16.8,37.8c-0.6,12.1-6.1,21.8-14.8,29.7
			c-11.8,10.8-26.1,16.4-41.5,19.3c-20.5,4-40.9,3.6-60.6-4.3c-8.3-3.3-16-7.7-22-14.4c-7-7.9-10.1-16.9-6.5-27.2
			c2.7-7.9,9-12.6,16.1-16.3c4-2.1,8.3-3.6,12.8-4.6c1.9-0.4,2.4-1.3,2.4-3.1c-0.1-5.9,0-11.7-0.1-17.6c0-2,0.5-2.7,2.6-2.7
			c6.6,0.1,13.3,0.1,19.9,0c2.3,0,2.8,0.8,2.7,2.9c-0.1,5.6,0.1,11.3-0.1,16.9c-0.1,2.1,0.7,2.9,2.7,3.3c2,0.3,3.9,0.7,5.8,1.4
			c2.3,0.9,3.1,0.5,3-2.1c-0.2-6.5,0-13-0.1-19.6c0-2.2,0.7-2.8,2.8-2.8c6.4,0.1,12.8,0.2,19.2,0c2.7-0.1,3.3,0.8,3.3,3.4
			c-0.1,18.2-0.1,36.5,0,54.7c0,2.8-0.8,3.8-3.5,3.5C327.4,227.9,326.3,228,324.9,228z"/>
		<path class="st1" d="M139.9,344.5c-6.4,0-12.8,0.1-19.2,0c-1.8,0-2.5,0.5-2.5,2.4c0.1,11.9,0.1,23.9,0,35.8c0,1.9,0.7,2.4,2.5,2.6
			c1.5,0.2,3.5-0.5,4.2,1.7c0.9,2.8-0.1,4-3.1,4c-9,0-17.9,0-26.9,0c-1.4,0-3.2,0.6-3.3-2c-0.1-2.1,0.4-3.6,2.7-3.5
			c3.6,0.2,4.2-1.7,4.1-4.8c-0.1-27-0.1-53.9,0-80.9c0-3.1-1-4.3-3.9-4.2c-2.2,0.1-3.1-0.8-3-3.2c0-2.5,1.7-2.1,3.2-2.1
			c9.2,0,18.3,0,27.5,0c1.6,0,2.8,0,2.7,2.2c-0.1,1.7-0.1,3.2-2.4,3c-3.6-0.2-4.5,1.4-4.4,5c0.3,10.2,0.2,20.3,0.1,30.5
			c0,2.3,0.3,3.3,3,3.3c12.6-0.1,25.2-0.1,37.8,0c2.3,0,3-0.7,3-3c-0.1-10.5-0.2-21,0-31.5c0.1-3.1-1-4.1-3.9-4.2
			c-1.3,0-3.2,0.6-3.5-1.6c-0.3-2.1-0.4-3.8,2.8-3.7c9.5,0.2,19,0.1,28.5,0.1c1.4,0,2.6-0.1,2.5,2c-0.1,1.6,0.1,2.9-2.2,3.2
			c-4.7,0.6-4.7,0.8-4.7,5.5c0,26.5,0,53.1-0.1,79.6c0,3.1,0.4,5.1,4.1,4.9c1.7-0.1,3.1,0.4,2.9,2.9c-0.1,2-0.6,2.7-2.6,2.6
			c-9.5-0.1-19-0.1-28.5-0.1c-1.5,0-2.9,0.1-2.9-2.1c0-1.8,0.1-3.3,2.5-3.3c0.7,0,1.3-0.3,2-0.3c2.3,0.1,3-0.9,3-3.2
			c-0.1-11.6-0.1-23.2,0-34.8c0-2.1-0.6-2.9-2.8-2.8C152.7,344.6,146.3,344.5,139.9,344.5z"/>
		<path class="st1" d="M451.1,329.2c6.4-4.9,12.3-9.1,19.5-10.6c3.9-0.8,7.9-0.9,11.9-0.1c8.5,1.7,13.7,8.1,14.4,17.9
			c1,14.1,0.2,28.3,0.4,42.4c0,1.4,0.1,2.9,0,4.3c-0.1,1.9,0.6,2.9,2.6,2.9c1.2,0,2.6,0,3.4,0.9c0.7,0.8,0.4,2.1,0.2,3.2
			c-0.3,1.2-1.4,0.9-2.2,0.9c-8.8,0-17.7,0-26.5,0.1c-1.4,0-2.4-0.2-2.3-1.9c0.1-1.3-0.2-2.9,1.8-2.8c4.6,0.2,4.7-2.6,4.7-6.2
			c-0.2-12.6-0.2-25.2-0.3-37.8c0-1-0.1-2-0.2-3c-1.3-8.6-7.3-12.7-15.7-10.7c-0.8,0.2-1.5,0.4-2.2,0.7c-8.8,3-9.4,3.8-9.4,13
			c0,13.3,0.1,26.5-0.1,39.8c0,2.6,0.5,3.9,3.3,3.9c1.4,0,3.2-0.1,3.2,2.3c0,1.7-0.3,2.6-2.4,2.6c-9-0.1-17.9-0.1-26.9,0
			c-1.4,0-2.3-0.2-2.3-2c0-1.4,0-2.8,1.9-2.8c4.6,0.2,4.7-2.5,4.7-6.1c-0.2-17.1-0.1-34.3,0-51.4c0-2.7-0.5-4.2-3.5-4.1
			c-2.1,0.1-3.1-0.8-3.1-3.2c0.1-2.6,1.7-2.1,3.2-2.1c6.3,0,12.6,0.1,18.9-0.1c2.6-0.1,3.2,0.9,3,3.2
			C451,324.5,451.1,326.5,451.1,329.2z"/>
		<path class="st1" d="M382,317.4c11.6,0.3,23.6,4.3,30.2,17.6c6.2,12.5,6.6,25.6,0.8,38.4c-4.9,10.8-14,16.6-25.3,18.8
			c-8.4,1.6-16.7,1.2-24.9-1.2c-8.8-2.6-15.3-7.9-18.5-16.6c-4.3-11.6-4.6-23.4-0.1-35C349.6,325.2,362.4,317.5,382,317.4z
			 M396.2,355.5c0-2.6,0.2-5.3,0-7.9c-0.6-6.7-1.6-13.4-5.8-19c-6-8.1-17.7-7.8-23.4,0.5c-1.6,2.3-2.6,4.8-3.4,7.5
			c-2.6,9.5-2.5,19.2-1.6,28.9c0.5,5.2,1.6,10.2,4.3,14.8c2.1,3.6,5,6.1,9.2,7c8.8,1.9,15.7-2.5,18.7-12.1
			C396.1,368.8,396.4,362.2,396.2,355.5z"/>
		<path class="st1" d="M271.8,336.3c0,15.3,0.1,30.7-0.1,46c0,2.5,0.6,3.6,3.2,3.6c1.8,0,3.3,0.5,3.2,3.1c-0.2,2.7-2,1.8-3.4,1.9
			c-8.4,0.1-16.8,0-25.2,0c-1.3,0-2.6,0.3-2.7-1.8c0-1.9,0.4-3.1,2.4-3c3.8,0.2,4-2,4-5c-0.1-28.3-0.1-56.5,0-84.8
			c0-2.8-0.5-4.4-3.7-4.3c-2,0.1-2.8-0.9-2.7-3.1c0.1-2.5,1.7-1.8,3-1.9c6.3,0,12.6,0.1,18.9-0.1c2.6-0.1,3.1,0.9,3.1,3.3
			C271.8,305.7,271.8,321,271.8,336.3z"/>
		<path class="st1" d="M315.9,351.8c0.3,6.5-0.6,14.6,0.4,22.6c0.7,5.8,3.3,8.3,9,8.7c3.4,0.2,6.8-0.1,10.3-0.1
			c0.9,0,2.4-1.2,2.5,0.7c0.1,1.5,0.8,3.3-1.6,4.1c-6.1,2-12.3,3.6-18.7,3.9c-3,0.1-5.9,0.2-8.9-0.5c-6.6-1.4-10-4.9-10.9-11.6
			c-0.4-2.6-0.5-5.3-0.5-7.9c-0.1-14.1-0.1-28.3,0-42.4c0-2.5-0.5-3.6-3.3-3.4c-2.4,0.2-4.9-0.1-7.3,0.1c-2.9,0.3-2.5-1.6-2.6-3.4
			c-0.1-1.9-0.1-3.5,2.7-3.3c2.5,0.2,5.1-0.1,7.6,0.1c2.5,0.2,3.6-0.5,3.4-3.3c-0.2-3.2,0-6.4-0.1-9.6c-0.1-1.7,0.6-2.5,2.3-3
			c4.5-1.2,8.9-2.6,13.3-4c1.8-0.6,2.5-0.4,2.4,1.7c-0.1,5.1,0,10.2-0.1,15.2c-0.1,2.1,0.6,2.9,2.8,2.9c4-0.1,8,0.1,11.9-0.1
			c2.8-0.1,2.3,1.7,2.3,3.3c0,1.5,0.6,3.5-2.2,3.3c-3.9-0.1-7.7,0.1-11.6-0.1c-2.4-0.1-3.3,0.5-3.2,3.1
			C316.1,336.1,315.9,343.2,315.9,351.8z"/>
		<path class="st1" d="M226.8,352.5c0,10,0.1,20.1,0,30.1c0,2.2,0.5,3.2,2.9,3.3c1.2,0,2.8-0.2,3.4,1.4c0.8,2.1-0.2,3.5-2.5,3.5
			c-8.7,0-17.4,0-26.2,0c-1.3,0-2.4,0-2.4-1.9c0.1-1.3-0.2-2.9,1.8-2.8c4.9,0.3,4.8-2.7,4.8-6.4c-0.1-17.1-0.1-34.2,0-51.3
			c0-3.1-0.8-4.6-3.9-4.5c-1.8,0-2.8-0.4-2.8-2.6c0-2.6,1.7-2.1,3.2-2.1c6.3,0,12.6,0.1,18.9-0.1c2.4-0.1,3,0.8,2.9,3
			C226.8,332.5,226.8,342.5,226.8,352.5z"/>
		<path class="st1" d="M229,296.7c0,6.7-4.4,11.4-10.6,11.5c-6.5,0.1-10.8-4.3-10.8-11.1c0-6.6,4.5-11.4,10.7-11.4
			C224.5,285.7,229,290.4,229,296.7z"/>
		<path class="st1" d="M384.3,441.4c0-7.7,5.3-13.5,12.4-13.6c7-0.1,12.3,5.5,12.4,13.2c0.1,7.9-5,13.6-12.2,13.7
			C389.6,454.7,384.4,449.2,384.3,441.4z M388.7,440.8c0,5.7,2.8,9.6,7,10c4.8,0.5,8.3-3.2,8.5-8.8c0.2-6.2-3.1-10.6-8-10.4
			c-2.6,0.1-4.6,1.3-6,3.5C389.1,437,388.6,439,388.7,440.8z"/>
		<path class="st1" d="M169.2,441.3c0,7.7-5.3,13.5-12.5,13.4c-7.1-0.1-12.3-5.6-12.3-13.2c-0.1-7.7,5.3-13.6,12.4-13.6
			C164,427.8,169.2,433.4,169.2,441.3z M164.7,442c0-4.5-1.7-7.9-4.4-9.4c-3-1.7-6.8-1-9,1.6c-3.1,3.6-3.1,10.5,0,14.2
			c2.3,2.7,6.3,3.5,9.3,1.6C163.7,447.9,164.6,444.7,164.7,442z"/>
		<path class="st1" d="M118.3,441.2c0-3.5,0.1-7.1,0-10.6c-0.1-1.7,0.5-2.3,2.3-2.3c1.8,0,2.4,0.7,2.2,2.4c0,0.1,0,0.2,0,0.3
			c0.3,2.5-1.2,6.1,0.7,7.2c2.8,1.6,6.7,0.5,10.1,0.5c1.4,0,1.3-1.2,1.3-2.2c0-2,0.1-4,0-6c-0.1-1.8,0.7-2.3,2.3-2.2
			c1.4,0.1,2.3,0.3,2.2,2c-0.1,7.3-0.1,14.6,0,21.9c0,1.7-0.8,2-2.3,2c-1.4,0-2.4-0.2-2.3-1.9c0.1-2.4,0-4.9,0-7.3
			c0-1.6-0.5-2.3-2.1-2.1c-0.1,0-0.2,0-0.3,0c-3,0-6.7-1-8.8,0.4c-2.4,1.6-0.6,5.5-0.8,8.4c-0.1,1.7-0.3,2.6-2.4,2.6
			c-2.2,0-2.2-1.2-2.2-2.7C118.3,448,118.3,444.6,118.3,441.2z"/>
		<path class="st1" d="M433.9,453.1c-2.7,1.5-4.6,1.4-6.3-1.3c-1.4-2.3-3.1-4.3-4.6-6.4c-0.7-1.1-1.6-1.5-2.8-1.3
			c-1.5,0.3-0.9,1.6-1,2.4c-0.1,1.7-0.1,3.3,0,5c0.1,1.7-0.3,2.6-2.3,2.6c-2.3,0-2.1-1.2-2.1-2.7c0-6.8,0.1-13.7,0-20.5
			c0-2.1,0.6-2.7,2.6-2.6c2.8,0.2,5.7-0.3,8.6,0.4c3.3,0.8,5.6,2.5,6.3,6c0.6,3.4-0.4,6.2-3.4,7.9c-1.8,1-1.4,1.7-0.4,3
			C430.3,448.1,432,450.6,433.9,453.1z M419.1,436.5c0.5,1.6-1.3,4.6,2.7,4.3c3.8-0.2,6.1-1.8,6-4.6c-0.1-2.6-2.1-3.8-5.7-4.1
			C418.3,431.7,419.3,434.3,419.1,436.5z"/>
		<path class="st1" d="M334.4,453.1c-2.9,1.7-4.8,1.2-6.3-1.4c-1.3-2.2-3-4.1-4.4-6.2c-0.8-1.1-1.7-1.7-3.1-1.3
			c-1.4,0.4-0.8,1.6-0.8,2.5c-0.1,1.6-0.1,3.3,0,5c0.1,1.9-0.6,2.5-2.5,2.5c-2,0-2-1.1-2-2.5c0-7,0.1-13.9,0-20.9
			c0-1.8,0.5-2.6,2.4-2.5c3.1,0.2,6.2-0.3,9.2,0.5c3.2,0.9,5.3,2.7,5.9,6c0.5,3.2-0.3,6-3.2,7.7c-1.8,1-1.7,1.8-0.5,3.2
			C330.8,448.1,332.5,450.5,334.4,453.1z M319.7,436.5c0.3,1.7-1.2,4.6,2.8,4.3c3.6-0.3,5.9-1.7,6-4.4c0.1-2.8-2-4.1-5.8-4.4
			C318.8,431.8,319.8,434.4,319.7,436.5z"/>
		<path class="st1" d="M298.3,453.1c-3,1.4-4.9,1.6-6.4-0.5c-1.1-1.4-2-1.1-3.3-0.1c-2.3,1.9-5.1,2.5-8.1,2.1
			c-3.1-0.4-5.8-1.7-6.6-5.1c-0.8-3.2,0.2-6,2.8-7.9c1.8-1.3,2.4-2,1.1-4.3c-2.5-4.2-0.1-8.5,4.7-9.4c2.3-0.4,4.4,0.2,6.5,0.8
			c1.9,0.5,1.6,1.8,1.2,3.1c-0.5,1.7-1.5,0.7-2.3,0.4c-0.6-0.2-1.2-0.5-1.9-0.6c-1.7-0.3-3.5-0.6-4.5,1.2c-0.9,1.6-0.3,3.2,0.9,4.5
			c1.8,2,3.7,3.8,5.4,5.8c1.8,2.1,2.7,1.8,3.2-0.8c0.1-0.7,0.2-1.3,0.4-1.9c0.3-1.3,1.3-0.8,2.2-0.7c0.9,0.1,1.5,0.4,1.4,1.4
			c0,0.3-0.1,0.7-0.2,1C292.5,446.5,293.1,450.3,298.3,453.1z M282.7,451.4c1.8-0.2,3.9-0.5,4.7-2.3c0.7-1.5-1.4-2.2-2.2-3.3
			c-0.7-0.9-1.7-1.7-2.5-2.6c-0.9-0.9-1.7-0.9-2.6-0.1c-1.6,1.4-2.5,3.1-1.8,5.3C278.9,450.5,280.6,451.1,282.7,451.4z"/>
		<path class="st1" d="M197.9,441.1c0-3.4,0.1-6.8,0-10.3c-0.1-1.8,0.4-2.6,2.4-2.5c3.7,0.1,7.5,0.1,11.3,0c1.3,0,2.3,0,2.4,1.9
			c0,2-1.1,2.1-2.5,2c-1.8-0.1-3.6,0.2-5.3,0c-2.9-0.4-3.9,0.6-3.7,3.6c0.1,2.4,0.7,3.4,3.2,3.2c1.5-0.2,3.1,0,4.6,0
			c1.6-0.1,1.6,1.1,1.8,2.2c0.2,1.4-0.6,1.7-1.7,1.7c-1.1,0-2.2-0.1-3.3,0c-1.4,0.2-3.6-0.9-4.2,0.7c-0.6,1.8-0.3,3.9-0.1,5.9
			c0.1,1.2,1.4,0.9,2.2,0.9c2.5,0.1,5.1,0.1,7.6,0c1.4,0,1.9,0.6,2,2c0.1,1.5-0.7,1.9-2,1.9c-4.1,0-8.2-0.1-12.3,0
			c-1.9,0.1-2.2-0.9-2.1-2.4C197.9,448.2,197.9,444.6,197.9,441.1z"/>
		<path class="st1" d="M340.3,441c0-3.5,0-7.1,0-10.6c0-1.5,0.5-2.2,2.1-2.1c4,0.1,8,0.1,11.9,0c1.4,0,2,0.5,1.9,1.9
			c0,1.4-0.4,2-1.9,2c-2.5-0.1-5.1,0.1-7.6,0c-2.5-0.1-2.2,1.6-2.1,3.1c0.1,1.5-0.8,3.6,2,3.5c1.8,0,3.5,0.1,5.3,0
			c1.9-0.1,2.2,1,2.3,2.5c0.1,1.9-1.3,1.4-2.3,1.4c-1.3,0.1-2.7,0.2-4,0c-2.8-0.4-3.4,0.8-3.6,3.5c-0.2,3.4,0.9,4.6,4.2,4.2
			c1.8-0.2,3.8,0,5.6-0.1c1.6-0.1,2.1,0.6,2.1,2.1c0,1.6-0.9,1.7-2.1,1.7c-4,0-8-0.1-11.9,0c-1.6,0-2.1-0.6-2.1-2.2
			C340.3,448.3,340.3,444.7,340.3,441C340.3,441,340.3,441,340.3,441z"/>
		<path class="st1" d="M248.7,428c1.8,0.2,3.6,0.3,5.5,0.8c2.2,0.7,1.5,2.3,1.2,3.5c-0.4,1.7-1.6,0.4-2.4,0.2c-2-0.5-4-1.3-6.1-0.7
			c-1.5,0.4-2.7,1.1-2.8,2.8c-0.1,1.5,0.8,2.4,2.2,3c2.2,0.9,4.5,1.8,6.7,2.8c2.9,1.3,4.5,3.5,4.3,6.8c-0.3,3.5-2.3,5.7-5.5,6.7
			c-3.7,1.2-7.4,0.4-11.1-0.6c-1.8-0.5-1.7-1.8-1.3-3.1c0.5-1.9,1.6-0.9,2.5-0.6c2.4,0.9,4.9,1.6,7.4,1.2c1.8-0.3,3.5-1,3.7-3.2
			c0.2-2-1-3-2.6-3.7c-1.9-0.8-3.9-1.5-5.8-2.4c-3.7-1.7-5.1-4-4.7-7.1c0.5-3.4,3.3-5.8,7.1-6.3C247.5,428.1,248.1,428.1,248.7,428z
			"/>
		<path class="st1" d="M377.8,433.3c-2.2-0.7-4.3-1.7-6.7-1.6c-1.8,0.1-3.6,0.5-4.2,2.6c-0.6,2.3,1.2,3.1,2.8,3.8
			c2.1,0.9,4.3,1.6,6.4,2.6c2.6,1.3,4,3.4,3.9,6.4c-0.2,3-1.6,5.2-4.5,6.4c-4.2,1.8-8.4,1-12.6-0.4c-1.8-0.6-0.9-1.9-0.8-3
			c0.3-1.9,1.4-0.8,2.2-0.5c2.5,0.8,5.1,1.7,7.7,1.2c1.8-0.3,3.5-1,3.7-3.2c0.2-2-1-3-2.7-3.7c-2.1-0.9-4.3-1.6-6.4-2.6
			c-2.7-1.3-4.3-3.4-4-6.6c0.4-3.4,2.4-5.4,5.5-6.3c2.2-0.6,4.4-0.4,6.6-0.1C378.8,428.9,378.9,429.2,377.8,433.3z"/>
		<path class="st1" d="M470.1,428c2.1,0.2,3.8,0.4,5.5,0.9c2,0.6,1.3,2,1.1,3.2c-0.3,1.7-1.4,0.8-2.3,0.6c-2.2-0.7-4.4-1.5-6.8-0.6
			c-1.4,0.5-2.4,1.3-2.5,2.8c-0.1,1.4,0.8,2.3,2,2.8c2.3,1,4.7,1.9,7,2.9c3.2,1.4,4.6,3.9,4.1,7.5c-0.5,3.4-2.7,5.2-5.8,6.1
			c-3.4,1-6.7,0.3-10.1-0.5c-2.1-0.5-2.4-1.8-1.9-3.4c0.6-2.1,2-0.6,2.9-0.3c2.2,0.7,4.5,1.3,6.8,1c2-0.2,3.7-1,4.1-3.2
			c0.3-2.2-1.2-3.1-3-3.8c-1.8-0.8-3.7-1.4-5.5-2.2c-4-1.8-5.2-3.8-4.7-7.4c0.5-3.2,3.1-5.5,6.9-6C468.9,428.1,469.7,428,470.1,428z
			"/>
		<path class="st1" d="M444.6,443c0-1.4,0-2.9,0-4.3c0-6,0-6.1-6-6.5c-1.3-0.1-2.1-0.2-2.1-1.8c0-1.5,0.5-2.2,2.1-2.1
			c5.5,0.1,11,0.1,16.6,0c2,0,2,1.2,2.1,2.5c0.2,2-1.3,1.3-2.2,1.4c-5.9,0.2-5.9,0.2-5.9,6.3c0,4.2,0,8.4,0,12.6
			c0,1.5,0.4,3-2.2,3.1c-2.8,0.1-2.3-1.6-2.3-3.2C444.6,448.3,444.6,445.7,444.6,443z"/>
		<path class="st1" d="M184,443.2c0,2.8,0,5.5,0,8.3c0,1.5,0,2.7-2.2,2.7c-2.1,0-2.3-1-2.3-2.6c0.1-5.4-0.1-10.8,0.1-16.2
			c0.1-2.4-0.6-3.5-3.1-3.1c-1.1,0.2-2.2,0-3.3,0c-1.5,0.1-1.8-0.7-1.8-2c0-1.2,0.3-1.9,1.7-1.9c5.7,0,11.5,0,17.2,0
			c1.7,0,1.9,1.1,2.1,2.3c0.3,1.8-1.1,1.5-2.1,1.6c-6.3,0.3-6.3,0.3-6.3,6.6C184,440.3,184,441.7,184,443.2z"/>
		<path class="st1" d="M220.6,441.2c0-3.5,0.1-7.1,0-10.6c-0.1-1.7,0.5-2.3,2.3-2.3c1.8,0,2.2,0.6,2.2,2.3
			c-0.1,5.6,0.1,11.3-0.1,16.9c0,2.1,0.6,3,2.8,2.8c1.8-0.2,3.5,0.1,5.3-0.1c2-0.2,2.1,1.3,2.2,2.5c0.3,2-1.4,1.3-2.3,1.3
			c-3.3,0.1-6.6-0.1-9.9,0.1c-2.1,0.1-2.6-0.8-2.6-2.7C220.7,448,220.6,444.6,220.6,441.2C220.6,441.2,220.6,441.2,220.6,441.2z"/>
		<path class="st1" d="M392.7,257.3c-1.3-1.7-0.2-3.5-0.9-5c-0.2,0.1-0.5,0.1-0.6,0.2c-1,1.4-0.8,4.3-2.3,4.4c-1.9,0-1.4-3.1-3-4.5
			c-0.9,1.4,0.1,3.2-1.1,4.9c-0.7-2.8-0.3-5.2-0.4-7.6c0-0.4,0-0.9,0.6-1c0.6-0.1,1,0.3,1.2,0.9c0.7,1.8,1.5,3.7,2.3,5.7
			c2.2-1.8,1.6-5,4-6.9C393.1,251.4,392.8,254.2,392.7,257.3z"/>
		<path class="st1" d="M377.6,248.6c1.3,0,2.5,0,3.7,0c-2.8,2.3-0.3,5.8-1.8,8.6C378,254.3,380.4,251,377.6,248.6z"/>
	</g>
</g>
</svg>
