<?xml version="1.0" encoding="utf-8"?>
<!-- Generator: Adobe Illustrator 26.3.1, SVG Export Plug-In . SVG Version: 6.00 Build 0)  -->
<svg version="1.1" id="Layer_1" xmlns="http://www.w3.org/2000/svg" xmlns:xlink="http://www.w3.org/1999/xlink" x="0px" y="0px"
	 viewBox="0 0 595.3 595.3" style="enable-background:new 0 0 595.3 595.3;" xml:space="preserve">
<style type="text/css">
	.st0{fill:#FFFFFF;}
	.st1{fill:#2C79B8;}
</style>
<path class="st0" d="M297.6,595.3L297.6,595.3C133.3,595.3,0,462,0,297.6v0C0,133.3,133.3,0,297.6,0h0
	C462,0,595.3,133.3,595.3,297.6v0C595.3,462,462,595.3,297.6,595.3z"/>
<g>
	<path class="st1" d="M247.8,246.9c0,26.3,0,52.6,0,79c0,2.1,0,4.2-0.4,6.3c-0.7,3.7-2.5,5.6-6.7,3.8c-6.9-3.1-13.9-6-20.8-9
		c-3.6-1.5-4.2-4.5-3.8-7.8c1.4-12.3,2.8-24.6,4.3-36.9c2.7-22.1,5.7-44.1,8.3-66.2c2.7-22.3,5.3-44.6,7.8-66.9
		c0.6-5.6,3.1-9.1,9-10.4c21.3-5,42.4-10.4,63.7-15.5c6.3-1.5,8.1-0.2,8.1,6.3c0.1,29.1,0,58.1,0.1,87.2c0,4.6-2.2,6.7-6.5,6.6
		c-10.3-0.2-20.6-0.7-30.9,0c-5.1,0.4-7.1-2-7.1-7.1c0.2-16.2,0.1-32.4,0-48.6c0-8.7-1.3-9.9-9.8-9.9c-15.3-0.1-15.3-0.1-15.3,14.9
		C247.8,197.2,247.8,222,247.8,246.9z"/>
	<path class="st1" d="M342,213.3c0-25.7,0-51.4,0-77.1c0-2.3,0-4.7,0.3-6.9c0.6-3.9,2.6-5.8,6.6-3.5c7.2,4,14.3,8.1,21.5,12
		c3.5,1.9,4.4,4.9,3.9,8.5c-1.9,15.4-3.7,30.8-5.6,46.2c-2.8,22.9-5.6,45.8-8.4,68.8c-2.3,19-4.8,37.9-7,56.9
		c-0.6,4.6-2.6,6.8-7.4,7.7c-21.7,3.8-43.3,8-65,12.1c-6.4,1.2-7.9-0.1-7.9-6.7c0-27.2,0.1-54.3-0.1-81.5c0-4.9,1.6-6.8,6.6-6.7
		c10.3,0.2,20.6,0.2,31,0c5.2-0.1,7.1,1.7,7,7c-0.2,14.9-0.1,29.9-0.1,44.9c0,6.9,1.7,8.5,8.5,8.9c15.4,0.8,16.3-0.2,16.3-15.9
		c0-24.8,0-49.7,0-74.5C342.1,213.3,342,213.3,342,213.3z"/>
	<path d="M287.7,407.5c8.3-7.8,16.9-10.2,26.5-9.3c9.3,0.9,16.2,5.1,20.7,13.4c8.3,15.3,7.7,30.8,0.2,46c-7.9,16.1-29.6,20-42.8,8.1
		c-2.5-2.3-4.6-3.1-4.8,1.3c-0.2,4.1-2.6,4.7-5.9,4.6c-1.7-0.1-3.4,0-5,0.1c-5.8,0.5-7.9-2.4-7.8-7.9c0.1-12.2,0-24.4,0-36.6
		c0-16,0-32,0-48c0-3.1-0.6-7,3.2-8.2c4.6-1.4,9.6-1.5,14.2,0.1c2.1,0.7,1.4,3.7,1.5,5.8C287.8,386.5,287.7,396.1,287.7,407.5z
		 M321.7,434.7c0.6-5.4-1.6-10-3.4-14.7c-2.1-5.6-6.8-7.6-12.4-8.1c-5.7-0.5-10.2,1-13.4,6.1c-6.2,9.8-6.1,23.7,0.4,33.4
		c6.2,9.1,19.6,8.5,24.9-1.2C320.5,445.4,321.9,440.2,321.7,434.7z"/>
	<path d="M127.2,406.4c10-8.2,20.3-10.4,31.6-6.9c9.6,2.9,14.3,8.8,14.9,18.9c0.9,16,0.8,32,0.6,48c-0.1,4.1-1.8,5.5-5.8,5.4
		c-16.8-0.2-13.4,1.5-13.6-13c-0.2-10.3-0.1-20.6-0.1-30.9c-0.1-10.4-3.3-15.1-10.7-15.7c-9.1-0.7-15.6,4.2-17.4,13.7
		c-1.6,8.5-0.6,17.2-0.8,25.8c-0.1,3.6,0.2,7.2,0,10.7c-0.2,3,1.6,7.2-1.9,8.6c-4.4,1.9-9.7,1.7-14.2-0.1c-3.3-1.3-2.9-5.3-2.9-8.5
		c0-19.4,0-38.7,0-58.1c0-9.1,0.2-18.1-0.1-27.2c-0.1-4.8,1.4-6.8,6.5-6.7c14.1,0.4,12.2-1.5,12.5,12.5
		C126.1,390.4,125.1,398,127.2,406.4z"/>
	<path d="M221.9,398.1c23.1-1.9,37.8,17.8,37.8,36.6c0.1,20.9-16,37.8-36.6,38c-23.6,0.3-39-14.1-39.2-36.6
		C183.7,412.2,197.7,398.3,221.9,398.1z M239.7,434.7c0.1-3.3-0.3-7.4-1.9-11.4c-2.6-6.8-8-10.1-14.9-10.9
		c-6.5-0.7-11.4,2.3-14.9,7.6c-6.3,9.5-6.9,19.2-1.1,29.1c3.5,6,8.8,9.7,16.2,8.8c7.2-0.9,12.4-4.8,15.2-11.6
		C239.8,442.8,239.8,439.3,239.7,434.7z"/>
	<path d="M464.7,440.8c-6.3,0-12.7-0.3-18.9,0.1c-5.7,0.3-7.3,3.5-4.9,8.6c2.4,5.1,6.1,8.7,12,8.9c5.6,0.2,10.8-0.3,13.9-6.4
		c2.1-4.2,15.8-3.2,17.8,1.1c1.5,3-0.5,5.1-2.2,7.3c-8.7,11.6-20.9,13.2-34,11.8c-15.7-1.8-26.1-12.4-27.4-28.1
		c-0.5-5.9-0.5-11.8,0-17.7c1.2-16,14-27.6,30.1-28.4c12.6-0.6,23.3,2.4,30.6,13.7c4.6,7.2,5,15.5,6.6,23.5c0.8,3.9-2,5.6-5.8,5.5
		c-5.9-0.1-11.8,0-17.7,0C464.7,440.8,464.7,440.8,464.7,440.8z M453.7,429.7c0,0,0-0.1,0-0.1c3.6,0,7.1,0.2,10.7-0.1
		c2.6-0.2,4.9-1.2,4.7-4.6c-0.4-5.7-5.8-11.7-11.4-12.6c-7.5-1.2-14.4,2.1-16.8,8c-2.4,6.1-0.1,9.4,6.6,9.5
		C449.6,429.7,451.7,429.7,453.7,429.7z"/>
	<path d="M378.8,398.3c6.7-0.3,13.5-0.6,19.8,2.5c0.9,0.5,1.9,1,2.7,1.6c5.9,4,9.3,10.6,6.9,13.3c-2.7,3.1-14,3-17.6-0.8
		c-5.3-5.5-11.5-5.4-18.1-4.1c-3.2,0.7-6,2.2-6.1,6.1c-0.1,3.6,2.9,4.3,5.5,5.1c7.7,2.2,15.4,4.2,23,6.5
		c13.3,3.9,18.5,10.3,17.9,21.6c-0.6,11.2-8.8,19.8-21,21.6c-8.4,1.3-16.8,1.4-25.1-0.5c-8.2-1.8-14.6-6.3-18.4-14
		c-2.1-4.3-1.1-7,3.9-7.5c6.1-0.7,11.5-1.2,16.3,4.8c4.5,5.7,11.9,6.8,19.1,4.6c3.7-1.1,6.4-3.4,6.3-7.6c-0.1-4.3-3.2-5.6-6.6-6.4
		c-7.9-2-16-3.6-23.7-6.5c-9.8-3.7-16.3-13.1-15.1-21.6c1.4-10,10.2-18,20.9-18.8C372.4,398.1,375.6,398.3,378.8,398.3z"/>
	<path d="M462.1,369.8c1.9-0.1,3.2-0.1,4.4-0.2c1.7-0.1,3.5-0.2,4.3,1.7c0.6,1.5-0.3,2.8-1.3,3.9c-3.6,3.8-7.1,7.8-10.8,11.5
		c-1.1,1.1-2.8,2-4.3,2.3c-2.4,0.5-5.3,1.3-7.2-0.7c-1.8-2-0.2-4.3,0.6-6.5c0.4-1,0.8-1.9,1.2-2.9
		C451.3,372.3,454.6,367.3,462.1,369.8z"/>
</g>
</svg>
