<?xml version="1.0" encoding="utf-8"?>
<!-- Generator: Adobe Illustrator 26.3.1, SVG Export Plug-In . SVG Version: 6.00 Build 0)  -->
<svg version="1.1" id="Layer_1" xmlns="http://www.w3.org/2000/svg" xmlns:xlink="http://www.w3.org/1999/xlink" x="0px" y="0px"
	 viewBox="0 0 595.3 595.3" style="enable-background:new 0 0 595.3 595.3;" xml:space="preserve">
<style type="text/css">
	.st0{fill:#FFFFFF;}
	.st1{fill:#0058A3;}
	.st2{fill:#FAD73C;}
</style>
<path class="st0" d="M297.6,595.3L297.6,595.3C133.3,595.3,0,462,0,297.6l0,0C0,133.3,133.3,0,297.6,0l0,0
	C462,0,595.3,133.3,595.3,297.6l0,0C595.3,462,462,595.3,297.6,595.3z"/>
<path class="st0" d="M584.9,375.9c0.5-2,1.1-4,1.6-6L584.9,375.9z"/>
<polygon class="st0" points="586.4,369.9 586.4,369.9 586.4,369.9 "/>
<g>
	<g>
		<g>
			<path class="st1" d="M432.4,380.1c-4.9,1.5-9.9,0.7-14.8,0.3c-2.1-0.1-3.1-1.9-4.4-3.4c-7.8-8.9-15.7-17.9-23.5-26.8
				c-0.7-0.7-1.2-1.9-2.5-2.1c-0.9,1.2-0.4,2.4-0.4,3.6c0,8-0.1,16,0,24c0,3.3-1.3,4.7-4.6,5c-7.1,0.6-8.4-0.6-8.4-7.7
				c0-28,0-55.9,0-83.9c0-5.9,6.1-9.3,11.4-6.2c2.1,1.2,1.6,3.3,1.6,5c0,15.5,0,30.9,0,46.5c0,1.3,0,2.7,0,4.3
				c1.9-0.1,2.7-1.5,3.6-2.4c7.1-6.8,14.1-13.8,21.2-20.7c2.2-2.1,13-3.3,15.5-1.8c2.5,1.6,0.7,3-0.4,4.1
				c-5.5,5.2-10.9,10.4-16.4,15.4c-3,2.8-5.8,5.5-8.7,8.3c-1,1-1.9,1.9-0.4,3.4c10.5,10.8,21,21.8,31.5,32.7
				C432.4,378.6,432.4,379.4,432.4,380.1z"/>
			<path class="st1" d="M185.1,321.5c1.6-1.5,3.1-3.3,5-4.4c8.7-5.9,18.2-6.7,27.8-2.5c9.2,3.8,12.3,12,13,21.2
				c1.2,13.2,0.4,26.5,0.6,39.7c0,4.4-1.3,5.5-6.4,5.6c-5.3,0-7-1-7-5.5c-0.1-10.9-0.1-21.9-0.1-33c0-2.4-0.1-4.7-0.6-7.1
				c-1-5.5-3.3-10.1-9-11.8c-6.4-1.9-12-0.4-16.7,4c-5.6,5.2-7.1,12.3-7.3,19.4c-0.3,9.3,0,18.6-0.1,28.1c0,5.2-1,5.9-6.7,5.9
				c-5.5,0-6.4-0.7-6.4-5.8c0-29,0-57.9,0-86.9c0-5.3,0.6-5.8,6.7-5.8c5.8,0,6.4,0.6,6.4,5.6c0,9.9,0,19.7,0,29.6
				C184.5,319,184.1,320.2,185.1,321.5z"/>
			<path class="st1" d="M136.8,287.8c5-0.3,10.5,0.9,16,2.2c2.8,0.7,4.3,2.4,4,5.5c-0.1,0.9,0,1.8-0.1,2.7c-0.3,5.8-0.7,5.9-6.1,4.1
				c-21.8-7.4-42.8,2.4-47.5,23.7c-4.7,21.5,7.4,41.7,30,43.9c6.4,0.6,12.7-0.4,18.8-2.4c4.1-1.3,4.4-1,4.9,3.1
				c0.7,7.8,1.9,9-8.6,10.7c-14.8,2.4-29.1,1.2-41.9-7.5c-15.7-10.8-20.7-26.8-18.6-44.7C90.7,303.2,109.4,287.8,136.8,287.8z"/>
			<path class="st1" d="M281.9,350.4c-6.7,0-13.3,0.1-20,0c-3.4-0.1-4,1.2-3.4,4.3c2.7,12.1,13.8,19.2,26.3,16.9
				c4-0.7,7.7-2.1,11.4-3.7c3.8-1.8,4.6-1.2,4.6,3c0.1,6.8-0.4,7.5-7,9.6c-9,2.7-18.2,3-27.4,0.4c-9-2.5-15.4-8-19.1-16.6
				c-6.4-14.4-3.8-33.1,5.9-42.9c9.2-9.2,20.6-11.1,32.7-7.7c11.2,3.1,16.1,11.8,18.5,22.5c0.7,3.3,0.7,6.7,1,10.1
				c0.3,3.1-0.7,4.3-4,4.3C295.1,350.2,288.6,350.4,281.9,350.4z M274.8,340.3c4.6,0,9.2,0,13.9,0c2.2,0,3.4-0.9,3-3.1
				c-0.9-5.2-3.1-9.8-8-12.4c-10.7-5.8-23.5,0.9-25.2,12.9c-0.3,2.5,1.2,2.7,2.8,2.7C265.8,340.3,270.4,340.3,274.8,340.3z"/>
			<path class="st1" d="M347.9,312.6c3.8-0.3,7.5,0.1,11.1,1.2c3.4,1,5,7.7,2.5,10.2c-1.2,1.2-2.5,0.6-3.8,0.3
				c-3.6-0.9-7.1-1.6-10.8-1.3c-10.8,0.9-18.3,8.7-19.7,20.1c-0.4,4.3-0.3,8.4,0.9,12.6c3.4,12,14.1,18.2,26.2,15.2
				c1.6-0.4,3.1-0.9,4.6-1.5c2.4-0.9,3.4-0.1,3.8,2.2c1.5,6.8,0,8.9-6.8,9.9c-12.9,2.1-24.6-0.4-33.6-10.4
				c-9.6-10.5-11.4-23.1-7.3-36.4c3.8-12.3,12.6-19.4,25.2-22c0.6-0.1,1.2-0.3,1.9-0.3C344.2,312.6,346.1,312.6,347.9,312.6z"/>
		</g>
		<g>
			<path class="st2" d="M432.4,430.3c-2.5,6.2-6.2,10.9-13.3,12.3c-8.3,1.6-17-4.7-18.2-13.3c-1.2-8.9,5.2-17,13.8-17.8
				c8.6-0.7,13.6,2.8,17.9,12.7C432.4,426.3,432.4,428.3,432.4,430.3z"/>
			<path class="st2" d="M338.4,427.3c0-9,6.5-15.7,15.4-15.8c8.9,0,16.1,7,16.1,15.8c0,8.1-7.5,15.5-15.7,15.7
				C345.7,443,338.4,435.9,338.4,427.3z"/>
			<path class="st2" d="M228.8,411.5c8.6,0,15.7,7,15.7,15.2c0.1,8.7-7.3,16.1-15.8,16.1c-8.6-0.1-15.8-7.3-15.7-15.8
				C213,418.4,219.9,411.5,228.8,411.5z"/>
			<path class="st2" d="M306.9,427.3c0,8.6-7.3,15.7-15.8,15.7c-8.3,0-15.7-7.7-15.7-16c0-8.4,7.3-15.4,16.1-15.4
				C300.4,411.6,307.1,418.3,306.9,427.3z"/>
			<path class="st2" d="M103.2,411.5c8.7,0,15.8,7.1,15.8,15.5c0,8.6-7.3,15.8-15.8,15.8c-8.6,0-15.7-7.1-15.8-15.8
				C87.2,418.7,94.4,411.5,103.2,411.5z"/>
			<path class="st2" d="M166.2,411.5c8.6,0,15.7,7,15.8,15.4c0.1,8.3-7.5,16-15.7,16.1c-8.9,0-16-7.3-15.8-16.4
				C150.5,417.8,157.2,411.5,166.2,411.5z"/>
		</g>
	</g>
	<g>
		<path class="st1" d="M87.4,205.1c0-12.7,0-25.4,0-38.2c0-7.3,0.3-7.5,7.7-7.4c0.3,0,0.4,0,0.7,0c4.3,0.1,5.3,1,5.3,5.3
			c0,9.2,0.1,18.2,0,27.4c-0.1,3.7,0.9,5,4.7,5c11.2-0.3,22.5-0.3,33.9,0c4,0.1,4.9-1.3,4.9-5c-0.3-9.2-0.1-18.5,0-27.7
			c0-4.3,0.7-4.9,5-5c0.7,0,1.5,0,2.2,0c5.9,0,6.5,0.6,6.5,6.4c0,26,0,52.2,0,78.3c0,2.4,0.6,5.2-2.2,6.2c-3.1,1.3-6.7,1.2-9.9,0
			c-1.9-0.7-1.8-2.8-1.8-4.6c0-10.7-0.1-21.2,0-31.8c0-3.6-0.9-4.7-4.6-4.7c-11.5,0.1-23.1,0.1-34.6,0c-3.3,0-4.3,1-4.3,4.3
			c0.1,10.4,0,20.7,0,31.1c0,2.2,0.4,5-2.2,5.8c-3.3,1-7,1.5-10.2-0.4c-1.6-0.9-1.3-2.8-1.3-4.4C87.2,232,87.4,218.6,87.4,205.1z"/>
		<path class="st1" d="M356.9,242.1c-5.6,6.5-12,9.5-19.4,10.2c-10.4,0.9-19.4-2.1-25.2-11.1c-8.4-13-9.5-27.2-3.8-41.6
			c8-20.9,35.1-22.2,47.3-8.9c1-1.2,0.6-2.7,0.6-3.8c0-9.3,0-18.6,0-28.1c0-2.2-0.3-5,2.4-5.8c3.1-0.9,6.5-1.2,9.5,0.4
			c1.9,1,1.6,3.3,1.6,5c0,10.8,0,21.8,0,32.6c0,17.5,0,34.9,0,52.4c0,6.7-3.6,9.2-9.9,7.3c-1.8-0.6-2.7-1.8-2.8-3.6
			C357.2,245.8,357.1,244.5,356.9,242.1z M356.7,217.4c0.1-6.4-1.2-12.3-5-17.5c-8.3-11.1-24.6-9.3-29.9,3.4
			c-4.1,10.1-3.7,20.4,1.8,29.9c6.4,11.2,21.5,11.4,28.7,0.6C355.5,228.9,356.9,223.3,356.7,217.4z"/>
		<path class="st1" d="M206.9,182.6c20.6,0,34.6,13.9,34.8,34.5c0.1,19.5-15.4,35.5-34.6,35.5c-19.4,0-34.9-15.5-34.6-35.2
			C172.6,194.3,189.2,181.6,206.9,182.6z M227.2,217.5c0.1-5.8-1.2-11.1-4.6-16c-6.8-9.9-21.6-11.2-29.4-2.8
			c-8.4,9.2-9.2,25.4-1.6,35.4c8.3,10.8,24.7,9.9,31.8-1.6C226.1,227.9,227.3,222.9,227.2,217.5z"/>
		<path class="st1" d="M427.5,243.3c-9.2,9.5-19.7,10.9-31.2,7.7c-8.4-2.5-13.2-8.4-14.1-17.5c-0.7-7.8,3.3-15.4,10.5-19.2
			c9.3-5,19.4-5.5,29.6-5.2c4.4,0.1,4.6,0,3.8-4.3c-1.5-8.1-5.5-11.5-14.2-12c-5.5-0.3-10.7,0.9-15.7,3.3c-2.1,1-4.3,1.9-5.9-0.7
			c-1.6-2.7-0.9-6.7,1.5-8c10.7-5.6,21.9-7.1,33.4-3c8.6,3,12.1,9.9,13.5,18.3c0.9,5.8,0.6,11.7,0.6,17.6c0,8.3,0.1,16.4,0.1,24.7
			c0,5-0.7,5.9-4.9,6.1c-5.6,0.1-6.5-0.6-6.8-5.8C427.8,244.9,427.7,244.3,427.5,243.3z M418.4,219c-5,0.4-11.4,0.4-17.2,3.7
			c-3.6,2.1-5.5,5.2-5.2,9.2c0.1,4,2.7,6.7,6.1,8.3c10.7,5.3,23.7-2.2,24.3-14.2C426.8,219,426.8,219,418.4,219z"/>
		<path class="st1" d="M478,237.2c1-3.1,2.1-5.9,3-8.6c4.4-13.3,8.9-26.8,13.5-40.1c1.3-3.7,9.9-6.4,12.9-3.8c1.6,1.3,0.4,3,0,4.4
			c-4.7,13.2-9.6,26.2-14.4,39.4c-7.1,19.8-14.1,39.8-21.2,59.6c-1.8,4.9-2.2,5-6.4,1.8c-7.5-5.9-6.8-4.4-3.7-12.7
			c2.4-6.2,4.6-12.4,7.3-18.5c1.8-4,1.5-7.5,0-11.4c-7.3-19.4-14.4-38.8-21.5-58.3c-1.6-4.6-1.2-5.2,3.7-5.3c1.2,0,2.2,0,3.4,0
			c3.7-0.1,5.8,1.5,7,5.2c4.6,14.6,9.5,29.1,14.4,43.8C476.2,234,476.4,235.4,478,237.2z"/>
		<path class="st1" d="M267.1,202.6c0,14.4,0,28.7,0,43.1c0,5-0.3,5.3-5.3,5.3c-1.2,0-2.2,0-3.4,0c-3.3,0-4.9-1.6-4.9-4.9
			c0-0.6,0-1.2,0-1.9c0-28.4,0-56.8,0-85.2c0-2.2-0.4-5,2.2-5.8c3.1-0.9,6.5-1.2,9.5,0.3c2.1,1,1.8,3.7,1.8,5.8
			c0,11.8,0,23.7,0,35.5C267.1,197.4,267.1,199.9,267.1,202.6z"/>
		<path class="st1" d="M295.1,218.1c0,9.6-0.1,19.2,0,28.9c0,3.1-1.2,4.3-4.1,4.1c-1.2-0.1-2.5,0-3.7,0c-3.6,0-5.2-1.6-5.2-5.2
			c0-19.1,0-38.2,0-57.3c0-3.3,1.5-4.9,4.7-4.9c1,0,2.1,0,3,0c4.3,0.1,5.3,1,5.3,5.3C295.1,198.6,295.1,208.4,295.1,218.1z"/>
		<path class="st1" d="M281.3,162.5c0-1.3,0-2.8,0-4.1c0.1-1.5,0.9-2.8,2.4-3.1c3.4-0.6,7-0.4,10.5-0.1c0.4,0,0.9,0.4,1.2,0.7
			c0.9,1.2,0.6,10.9-0.3,12.1c-0.7,1-1.8,1.3-3,1.5c-1.2,0-2.5,0-3.7,0C281.2,169.5,281.2,169.5,281.3,162.5z"/>
	</g>
</g>
</svg>
