<?xml version="1.0" encoding="utf-8"?>
<!-- Generator: Adobe Illustrator 26.3.1, SVG Export Plug-In . SVG Version: 6.00 Build 0)  -->
<svg version="1.1" id="Layer_1" xmlns="http://www.w3.org/2000/svg" xmlns:xlink="http://www.w3.org/1999/xlink" x="0px" y="0px"
	 viewBox="0 0 595.3 595.3" style="enable-background:new 0 0 595.3 595.3;" xml:space="preserve">
<style type="text/css">
	.st0{fill:#FFFFFF;}
	.st1{fill:#0058A3;}
	.st2{fill:#FAD73C;}
</style>
<path class="st0" d="M297.6,595.3L297.6,595.3C133.3,595.3,0,462,0,297.6v0C0,133.3,133.3,0,297.6,0h0
	C462,0,595.3,133.3,595.3,297.6v0C595.3,462,462,595.3,297.6,595.3z"/>
<g>
	<path class="st1" d="M559.6,309.6c-3.3,1-6.7,0.5-10,0.2c-1.4-0.1-2.1-1.3-3-2.3c-5.3-6-10.6-12.1-15.9-18.1
		c-0.5-0.5-0.8-1.3-1.7-1.4c-0.6,0.8-0.3,1.6-0.3,2.4c0,5.4-0.1,10.8,0,16.2c0,2.2-0.9,3.2-3.1,3.4c-4.8,0.4-5.7-0.4-5.7-5.2
		c0-18.9,0-37.8,0-56.7c0-4,4.1-6.3,7.7-4.2c1.4,0.8,1.1,2.2,1.1,3.4c0,10.5,0,20.9,0,31.4c0,0.9,0,1.8,0,2.9c1.3-0.1,1.8-1,2.4-1.6
		c4.8-4.6,9.5-9.3,14.3-14c1.5-1.4,8.8-2.2,10.5-1.2c1.7,1.1,0.5,2-0.3,2.8c-3.7,3.5-7.4,7-11.1,10.4c-2,1.9-3.9,3.7-5.9,5.6
		c-0.7,0.7-1.3,1.3-0.3,2.3c7.1,7.3,14.2,14.7,21.3,22.1C559.6,308.6,559.6,309.1,559.6,309.6z"/>
	<path class="st2" d="M559.6,343.5c-1.7,4.2-4.2,7.4-9,8.3c-5.6,1.1-11.5-3.2-12.3-9c-0.8-6,3.5-11.5,9.3-12
		c5.8-0.5,9.2,1.9,12.1,8.6C559.6,340.8,559.6,342.2,559.6,343.5z"/>
	<path class="st1" d="M35.7,279.1c0-8.6,0-17.2,0-25.8c0-4.9,0.2-5.1,5.2-5c0.2,0,0.3,0,0.5,0c2.9,0.1,3.6,0.7,3.6,3.6
		c0,6.2,0.1,12.3,0,18.5c-0.1,2.5,0.6,3.4,3.2,3.4c7.6-0.2,15.2-0.2,22.9,0c2.7,0.1,3.3-0.9,3.3-3.4c-0.2-6.2-0.1-12.5,0-18.7
		c0-2.9,0.5-3.3,3.4-3.4c0.5,0,1,0,1.5,0c4,0,4.4,0.4,4.4,4.3c0,17.6,0,35.3,0,52.9c0,1.6,0.4,3.5-1.5,4.2c-2.1,0.9-4.5,0.8-6.7,0
		c-1.3-0.5-1.2-1.9-1.2-3.1c0-7.2-0.1-14.3,0-21.5c0-2.4-0.6-3.2-3.1-3.2c-7.8,0.1-15.6,0.1-23.4,0c-2.2,0-2.9,0.7-2.9,2.9
		c0.1,7,0,14,0,21c0,1.5,0.3,3.4-1.5,3.9c-2.2,0.7-4.7,1-6.9-0.3c-1.1-0.6-0.9-1.9-0.9-3C35.6,297.3,35.7,288.2,35.7,279.1z"/>
	<path class="st1" d="M217.9,304.1c-3.8,4.4-8.1,6.4-13.1,6.9c-7,0.6-13.1-1.4-17-7.5c-5.7-8.8-6.4-18.4-2.6-28.1
		c5.4-14.1,23.7-15,32-6c0.7-0.8,0.4-1.8,0.4-2.6c0-6.3,0-12.6,0-19c0-1.5-0.2-3.4,1.6-3.9c2.1-0.6,4.4-0.8,6.4,0.3
		c1.3,0.7,1.1,2.2,1.1,3.4c0,7.3,0,14.7,0,22c0,11.8,0,23.6,0,35.4c0,4.5-2.4,6.2-6.7,4.9c-1.2-0.4-1.8-1.2-1.9-2.4
		C218.1,306.6,218,305.7,217.9,304.1z M217.7,287.4c0.1-4.3-0.8-8.3-3.4-11.8c-5.6-7.5-16.6-6.3-20.2,2.3
		c-2.8,6.8-2.5,13.8,1.2,20.2c4.3,7.6,14.5,7.7,19.4,0.4C216.9,295.2,217.9,291.4,217.7,287.4z"/>
	<path class="st1" d="M392.5,270c1.1-1,2.1-2.2,3.4-3c5.9-4,12.3-4.5,18.8-1.7c6.2,2.6,8.3,8.1,8.8,14.3c0.8,8.9,0.3,17.9,0.4,26.8
		c0,3-0.9,3.7-4.3,3.8c-3.6,0-4.7-0.7-4.7-3.7c-0.1-7.4-0.1-14.8-0.1-22.3c0-1.6-0.1-3.2-0.4-4.8c-0.7-3.7-2.2-6.8-6.1-8
		c-4.3-1.3-8.1-0.3-11.3,2.7c-3.8,3.5-4.8,8.3-4.9,13.1c-0.2,6.3,0,12.6-0.1,19c0,3.5-0.7,4-4.5,4c-3.7,0-4.3-0.5-4.3-3.9
		c0-19.6,0-39.1,0-58.7c0-3.6,0.4-3.9,4.5-3.9c3.9,0,4.3,0.4,4.3,3.8c0,6.7,0,13.3,0,20C392.1,268.3,391.8,269.1,392.5,270z"/>
	<path class="st1" d="M359.8,247.2c3.4-0.2,7.1,0.6,10.8,1.5c1.9,0.5,2.9,1.6,2.7,3.7c-0.1,0.6,0,1.2-0.1,1.8
		c-0.2,3.9-0.5,4-4.1,2.8c-14.7-5-28.9,1.6-32.1,16c-3.2,14.5,5,28.2,20.3,29.7c4.3,0.4,8.6-0.3,12.7-1.6c2.8-0.9,3-0.7,3.3,2.1
		c0.5,5.3,1.3,6.1-5.8,7.2c-10,1.6-19.7,0.8-28.3-5.1c-10.6-7.3-14-18.1-12.6-30.2C328.7,257.6,341.3,247.2,359.8,247.2z"/>
	<path class="st1" d="M116.5,263.9c13.9,0,23.4,9.4,23.5,23.3c0.1,13.2-10.4,24-23.4,24c-13.1,0-23.6-10.5-23.4-23.8
		C93.3,271.8,104.5,263.2,116.5,263.9z M130.2,287.5c0.1-3.9-0.8-7.5-3.1-10.8c-4.6-6.7-14.6-7.6-19.9-1.9
		c-5.7,6.2-6.2,17.2-1.1,23.9c5.6,7.3,16.7,6.7,21.5-1.1C129.5,294.5,130.3,291.1,130.2,287.5z"/>
	<path class="st1" d="M457.9,289.5c-4.5,0-9,0.1-13.5,0c-2.3-0.1-2.7,0.8-2.3,2.9c1.8,8.2,9.3,13,17.8,11.4c2.7-0.5,5.2-1.4,7.7-2.5
		c2.6-1.2,3.1-0.8,3.1,2c0.1,4.6-0.3,5.1-4.7,6.5c-6.1,1.8-12.3,2-18.5,0.3c-6.1-1.7-10.4-5.4-12.9-11.2c-4.3-9.7-2.6-22.4,4-29
		c6.2-6.2,13.9-7.5,22.1-5.2c7.6,2.1,10.9,8,12.5,15.2c0.5,2.2,0.5,4.5,0.7,6.8c0.2,2.1-0.5,2.9-2.7,2.9
		C466.8,289.4,462.4,289.5,457.9,289.5z M453.1,282.7c3.1,0,6.2,0,9.4,0c1.5,0,2.3-0.6,2-2.1c-0.6-3.5-2.1-6.6-5.4-8.4
		c-7.2-3.9-15.9,0.6-17,8.7c-0.2,1.7,0.8,1.8,1.9,1.8C447,282.7,450.1,282.7,453.1,282.7z"/>
	<path class="st1" d="M265.6,304.9c-6.2,6.4-13.3,7.4-21.1,5.2c-5.7-1.7-8.9-5.7-9.5-11.8c-0.5-5.3,2.2-10.4,7.1-13
		c6.3-3.4,13.1-3.7,20-3.5c3,0.1,3.1,0,2.6-2.9c-1-5.5-3.7-7.8-9.6-8.1c-3.7-0.2-7.2,0.6-10.6,2.2c-1.4,0.7-2.9,1.3-4-0.5
		c-1.1-1.8-0.6-4.5,1-5.4c7.2-3.8,14.8-4.8,22.6-2c5.8,2,8.2,6.7,9.1,12.4c0.6,3.9,0.4,7.9,0.4,11.9c0,5.6,0.1,11.1,0.1,16.7
		c0,3.4-0.5,4-3.3,4.1c-3.8,0.1-4.4-0.4-4.6-3.9C265.8,306,265.7,305.6,265.6,304.9z M259.4,288.5c-3.4,0.3-7.7,0.3-11.6,2.5
		c-2.4,1.4-3.7,3.5-3.5,6.2c0.1,2.7,1.8,4.5,4.1,5.6c7.2,3.6,16-1.5,16.4-9.6C265.1,288.5,265.1,288.5,259.4,288.5z"/>
	<path class="st1" d="M299.7,300.8c0.7-2.1,1.4-4,2-5.8c3-9,6-18.1,9.1-27.1c0.9-2.5,6.7-4.3,8.7-2.6c1.1,0.9,0.3,2,0,3
		c-3.2,8.9-6.5,17.7-9.7,26.6c-4.8,13.4-9.5,26.9-14.3,40.3c-1.2,3.3-1.5,3.4-4.3,1.2c-5.1-4-4.6-3-2.5-8.6
		c1.6-4.2,3.1-8.4,4.9-12.5c1.2-2.7,1-5.1,0-7.7c-4.9-13.1-9.7-26.2-14.5-39.4c-1.1-3.1-0.8-3.5,2.5-3.6c0.8,0,1.5,0,2.3,0
		c2.5-0.1,3.9,1,4.7,3.5c3.1,9.9,6.4,19.7,9.7,29.6C298.5,298.6,298.6,299.6,299.7,300.8z"/>
	<path class="st1" d="M502.5,264c2.6-0.2,5.1,0.1,7.5,0.8c2.3,0.7,3.4,5.2,1.7,6.9c-0.8,0.8-1.7,0.4-2.6,0.2
		c-2.4-0.6-4.8-1.1-7.3-0.9c-7.3,0.6-12.4,5.9-13.3,13.6c-0.3,2.9-0.2,5.7,0.6,8.5c2.3,8.1,9.5,12.3,17.7,10.3
		c1.1-0.3,2.1-0.6,3.1-1c1.6-0.6,2.3-0.1,2.6,1.5c1,4.6,0,6-4.6,6.7c-8.7,1.4-16.6-0.3-22.7-7c-6.5-7.1-7.7-15.6-4.9-24.6
		c2.6-8.3,8.5-13.1,17-14.9c0.4-0.1,0.8-0.2,1.3-0.2C500,264,501.3,264,502.5,264z"/>
	<path class="st1" d="M157.2,277.4c0,9.7,0,19.4,0,29.1c0,3.4-0.2,3.6-3.6,3.6c-0.8,0-1.5,0-2.3,0c-2.2,0-3.3-1.1-3.3-3.3
		c0-0.4,0-0.8,0-1.3c0-19.2,0-38.4,0-57.6c0-1.5-0.3-3.4,1.5-3.9c2.1-0.6,4.4-0.8,6.4,0.2c1.4,0.7,1.2,2.5,1.2,3.9c0,8,0,16,0,24
		C157.2,273.9,157.2,275.6,157.2,277.4z"/>
	<path class="st1" d="M176.1,287.9c0,6.5-0.1,13,0,19.5c0,2.1-0.8,2.9-2.8,2.8c-0.8-0.1-1.7,0-2.5,0c-2.4,0-3.5-1.1-3.5-3.5
		c0-12.9,0-25.8,0-38.7c0-2.2,1-3.3,3.2-3.3c0.7,0,1.4,0,2,0c2.9,0.1,3.6,0.7,3.6,3.6C176.1,274.7,176.1,281.3,176.1,287.9z"/>
	<path class="st2" d="M496.1,341.5c0-6.1,4.4-10.6,10.4-10.7c6,0,10.9,4.7,10.9,10.7c0,5.5-5.1,10.5-10.6,10.6
		C501,352.1,496.1,347.3,496.1,341.5z"/>
	<path class="st2" d="M422,330.8c5.8,0,10.6,4.7,10.6,10.3c0.1,5.9-4.9,10.9-10.7,10.9c-5.8-0.1-10.7-4.9-10.6-10.7
		C411.3,335.5,416,330.8,422,330.8z"/>
	<path class="st2" d="M474.8,341.5c0,5.8-4.9,10.6-10.7,10.6c-5.6,0-10.6-5.2-10.6-10.8c0-5.7,4.9-10.4,10.9-10.4
		C470.4,330.9,474.9,335.4,474.8,341.5z"/>
	<path class="st2" d="M337.1,330.8c5.9,0,10.7,4.8,10.7,10.5c0,5.8-4.9,10.7-10.7,10.7c-5.8,0-10.6-4.8-10.7-10.7
		C326.3,335.7,331.2,330.8,337.1,330.8z"/>
	<path class="st2" d="M379.7,330.8c5.8,0,10.6,4.7,10.7,10.4c0.1,5.6-5.1,10.8-10.6,10.9c-6,0-10.8-4.9-10.7-11.1
		C369.1,335.1,373.6,330.8,379.7,330.8z"/>
	<path class="st1" d="M166.8,250.3c0-0.9,0-1.9,0-2.8c0.1-1,0.6-1.9,1.6-2.1c2.3-0.4,4.7-0.3,7.1-0.1c0.3,0,0.6,0.3,0.8,0.5
		c0.6,0.8,0.4,7.4-0.2,8.2c-0.5,0.7-1.2,0.9-2,1c-0.8,0-1.7,0-2.5,0C166.7,255,166.7,255,166.8,250.3z"/>
</g>
</svg>
