<svg xmlns="http://www.w3.org/2000/svg" xml:space="preserve" id="Layer_1" x="0" y="0" style="enable-background:new 0 0 595.3 595.3" version="1.1" viewBox="0 0 595.3 595.3"><style>.st0{fill:#fff}.st1{fill:#0058a3}.st2{fill:#fad73c}</style><path d="M297.6 595.3C133.3 595.3 0 462 0 297.6 0 133.3 133.3 0 297.6 0 462 0 595.3 133.3 595.3 297.6c0 164.4-133.3 297.7-297.7 297.7" class="st0"/><path d="M584.9 375.9c.5-2 1.1-4 1.6-6zM586.4 369.9" class="st0"/><path d="M432.4 380.1c-4.9 1.5-9.9.7-14.8.3-2.1-.1-3.1-1.9-4.4-3.4-7.8-8.9-15.7-17.9-23.5-26.8-.7-.7-1.2-1.9-2.5-2.1-.9 1.2-.4 2.4-.4 3.6 0 8-.1 16 0 24 0 3.3-1.3 4.7-4.6 5-7.1.6-8.4-.6-8.4-7.7v-83.9c0-5.9 6.1-9.3 11.4-6.2 2.1 1.2 1.6 3.3 1.6 5v50.8c1.9-.1 2.7-1.5 3.6-2.4 7.1-6.8 14.1-13.8 21.2-20.7 2.2-2.1 13-3.3 15.5-1.8 2.5 1.6.7 3-.4 4.1-5.5 5.2-10.9 10.4-16.4 15.4-3 2.8-5.8 5.5-8.7 8.3-1 1-1.9 1.9-.4 3.4 10.5 10.8 21 21.8 31.5 32.7-.3.9-.3 1.7-.3 2.4M185.1 321.5c1.6-1.5 3.1-3.3 5-4.4 8.7-5.9 18.2-6.7 27.8-2.5 9.2 3.8 12.3 12 13 21.2 1.2 13.2.4 26.5.6 39.7 0 4.4-1.3 5.5-6.4 5.6-5.3 0-7-1-7-5.5-.1-10.9-.1-21.9-.1-33 0-2.4-.1-4.7-.6-7.1-1-5.5-3.3-10.1-9-11.8-6.4-1.9-12-.4-16.7 4-5.6 5.2-7.1 12.3-7.3 19.4-.3 9.3 0 18.6-.1 28.1 0 5.2-1 5.9-6.7 5.9-5.5 0-6.4-.7-6.4-5.8v-86.9c0-5.3.6-5.8 6.7-5.8 5.8 0 6.4.6 6.4 5.6v29.6c.2 1.2-.2 2.4.8 3.7M136.8 287.8c5-.3 10.5.9 16 2.2 2.8.7 4.3 2.4 4 5.5-.1.9 0 1.8-.1 2.7-.3 5.8-.7 5.9-6.1 4.1-21.8-7.4-42.8 2.4-47.5 23.7-4.7 21.5 7.4 41.7 30 43.9 6.4.6 12.7-.4 18.8-2.4 4.1-1.3 4.4-1 4.9 3.1.7 7.8 1.9 9-8.6 10.7-14.8 2.4-29.1 1.2-41.9-7.5C90.6 363 85.6 347 87.7 329.1c3-25.9 21.7-41.3 49.1-41.3M281.9 350.4c-6.7 0-13.3.1-20 0-3.4-.1-4 1.2-3.4 4.3 2.7 12.1 13.8 19.2 26.3 16.9 4-.7 7.7-2.1 11.4-3.7 3.8-1.8 4.6-1.2 4.6 3 .1 6.8-.4 7.5-7 9.6-9 2.7-18.2 3-27.4.4-9-2.5-15.4-8-19.1-16.6-6.4-14.4-3.8-33.1 5.9-42.9 9.2-9.2 20.6-11.1 32.7-7.7 11.2 3.1 16.1 11.8 18.5 22.5.7 3.3.7 6.7 1 10.1.3 3.1-.7 4.3-4 4.3-6.3-.4-12.8-.2-19.5-.2m-7.1-10.1h13.9c2.2 0 3.4-.9 3-3.1-.9-5.2-3.1-9.8-8-12.4-10.7-5.8-23.5.9-25.2 12.9-.3 2.5 1.2 2.7 2.8 2.7 4.5-.1 9.1-.1 13.5-.1M347.9 312.6c3.8-.3 7.5.1 11.1 1.2 3.4 1 5 7.7 2.5 10.2-1.2 1.2-2.5.6-3.8.3-3.6-.9-7.1-1.6-10.8-1.3-10.8.9-18.3 8.7-19.7 20.1-.4 4.3-.3 8.4.9 12.6 3.4 12 14.1 18.2 26.2 15.2 1.6-.4 3.1-.9 4.6-1.5 2.4-.9 3.4-.1 3.8 2.2 1.5 6.8 0 8.9-6.8 9.9-12.9 2.1-24.6-.4-33.6-10.4-9.6-10.5-11.4-23.1-7.3-36.4 3.8-12.3 12.6-19.4 25.2-22 .6-.1 1.2-.3 1.9-.3 2.1.2 4 .2 5.8.2" class="st1"/><path d="M432.4 430.3c-2.5 6.2-6.2 10.9-13.3 12.3-8.3 1.6-17-4.7-18.2-13.3-1.2-8.9 5.2-17 13.8-17.8 8.6-.7 13.6 2.8 17.9 12.7-.2 2.1-.2 4.1-.2 6.1M338.4 427.3c0-9 6.5-15.7 15.4-15.8 8.9 0 16.1 7 16.1 15.8 0 8.1-7.5 15.5-15.7 15.7-8.5 0-15.8-7.1-15.8-15.7M228.8 411.5c8.6 0 15.7 7 15.7 15.2.1 8.7-7.3 16.1-15.8 16.1-8.6-.1-15.8-7.3-15.7-15.8 0-8.6 6.9-15.5 15.8-15.5M306.9 427.3c0 8.6-7.3 15.7-15.8 15.7-8.3 0-15.7-7.7-15.7-16 0-8.4 7.3-15.4 16.1-15.4 8.9 0 15.6 6.7 15.4 15.7M103.2 411.5c8.7 0 15.8 7.1 15.8 15.5 0 8.6-7.3 15.8-15.8 15.8-8.6 0-15.7-7.1-15.8-15.8-.2-8.3 7-15.5 15.8-15.5M166.2 411.5c8.6 0 15.7 7 15.8 15.4.1 8.3-7.5 16-15.7 16.1-8.9 0-16-7.3-15.8-16.4 0-8.8 6.7-15.1 15.7-15.1" class="st2"/><path d="M87.4 205.1v-38.2c0-7.3.3-7.5 7.7-7.4h.7c4.3.1 5.3 1 5.3 5.3 0 9.2.1 18.2 0 27.4-.1 3.7.9 5 4.7 5 11.2-.3 22.5-.3 33.9 0 4 .1 4.9-1.3 4.9-5-.3-9.2-.1-18.5 0-27.7 0-4.3.7-4.9 5-5h2.2c5.9 0 6.5.6 6.5 6.4v78.3c0 2.4.6 5.2-2.2 6.2-3.1 1.3-6.7 1.2-9.9 0-1.9-.7-1.8-2.8-1.8-4.6 0-10.7-.1-21.2 0-31.8 0-3.6-.9-4.7-4.6-4.7-11.5.1-23.1.1-34.6 0-3.3 0-4.3 1-4.3 4.3.1 10.4 0 20.7 0 31.1 0 2.2.4 5-2.2 5.8-3.3 1-7 1.5-10.2-.4-1.6-.9-1.3-2.8-1.3-4.4 0-13.7.2-27.1.2-40.6M356.9 242.1c-5.6 6.5-12 9.5-19.4 10.2-10.4.9-19.4-2.1-25.2-11.1-8.4-13-9.5-27.2-3.8-41.6 8-20.9 35.1-22.2 47.3-8.9 1-1.2.6-2.7.6-3.8v-28.1c0-2.2-.3-5 2.4-5.8 3.1-.9 6.5-1.2 9.5.4 1.9 1 1.6 3.3 1.6 5v85c0 6.7-3.6 9.2-9.9 7.3-1.8-.6-2.7-1.8-2.8-3.6 0-1.3-.1-2.6-.3-5m-.2-24.7c.1-6.4-1.2-12.3-5-17.5-8.3-11.1-24.6-9.3-29.9 3.4-4.1 10.1-3.7 20.4 1.8 29.9 6.4 11.2 21.5 11.4 28.7.6 3.2-4.9 4.6-10.5 4.4-16.4M206.9 182.6c20.6 0 34.6 13.9 34.8 34.5.1 19.5-15.4 35.5-34.6 35.5-19.4 0-34.9-15.5-34.6-35.2.1-23.1 16.7-35.8 34.4-34.8m20.3 34.9c.1-5.8-1.2-11.1-4.6-16-6.8-9.9-21.6-11.2-29.4-2.8-8.4 9.2-9.2 25.4-1.6 35.4 8.3 10.8 24.7 9.9 31.8-1.6 2.7-4.6 3.9-9.6 3.8-15M427.5 243.3c-9.2 9.5-19.7 10.9-31.2 7.7-8.4-2.5-13.2-8.4-14.1-17.5-.7-7.8 3.3-15.4 10.5-19.2 9.3-5 19.4-5.5 29.6-5.2 4.4.1 4.6 0 3.8-4.3-1.5-8.1-5.5-11.5-14.2-12-5.5-.3-10.7.9-15.7 3.3-2.1 1-4.3 1.9-5.9-.7-1.6-2.7-.9-6.7 1.5-8 10.7-5.6 21.9-7.1 33.4-3 8.6 3 12.1 9.9 13.5 18.3.9 5.8.6 11.7.6 17.6 0 8.3.1 16.4.1 24.7 0 5-.7 5.9-4.9 6.1-5.6.1-6.5-.6-6.8-5.8.1-.4 0-1-.2-2m-9.1-24.3c-5 .4-11.4.4-17.2 3.7-3.6 2.1-5.5 5.2-5.2 9.2.1 4 2.7 6.7 6.1 8.3 10.7 5.3 23.7-2.2 24.3-14.2.4-7 .4-7-8-7M478 237.2c1-3.1 2.1-5.9 3-8.6 4.4-13.3 8.9-26.8 13.5-40.1 1.3-3.7 9.9-6.4 12.9-3.8 1.6 1.3.4 3 0 4.4-4.7 13.2-9.6 26.2-14.4 39.4-7.1 19.8-14.1 39.8-21.2 59.6-1.8 4.9-2.2 5-6.4 1.8-7.5-5.9-6.8-4.4-3.7-12.7 2.4-6.2 4.6-12.4 7.3-18.5 1.8-4 1.5-7.5 0-11.4-7.3-19.4-14.4-38.8-21.5-58.3-1.6-4.6-1.2-5.2 3.7-5.3h3.4c3.7-.1 5.8 1.5 7 5.2 4.6 14.6 9.5 29.1 14.4 43.8.2 1.3.4 2.7 2 4.5M267.1 202.6v43.1c0 5-.3 5.3-5.3 5.3h-3.4c-3.3 0-4.9-1.6-4.9-4.9V159c0-2.2-.4-5 2.2-5.8 3.1-.9 6.5-1.2 9.5.3 2.1 1 1.8 3.7 1.8 5.8v35.5c.1 2.6.1 5.1.1 7.8M295.1 218.1c0 9.6-.1 19.2 0 28.9 0 3.1-1.2 4.3-4.1 4.1-1.2-.1-2.5 0-3.7 0-3.6 0-5.2-1.6-5.2-5.2v-57.3c0-3.3 1.5-4.9 4.7-4.9h3c4.3.1 5.3 1 5.3 5.3zM281.3 162.5v-4.1c.1-1.5.9-2.8 2.4-3.1 3.4-.6 7-.4 10.5-.1.4 0 .9.4 1.2.7.9 1.2.6 10.9-.3 12.1-.7 1-1.8 1.3-3 1.5h-3.7c-7.2 0-7.2 0-7.1-7" class="st1"/></svg>