<svg xmlns="http://www.w3.org/2000/svg" xml:space="preserve" style="enable-background:new 0 0 595.3 595.3" viewBox="0 0 595.3 595.3"><path d="M297.6 595.3C133.3 595.3 0 462 0 297.6 0 133.3 133.3 0 297.6 0 462 0 595.3 133.3 595.3 297.6c0 164.4-133.3 297.7-297.7 297.7" style="fill:#fff"/><path d="M297.6 108.3c44.9 0 89.4-.3 134.2 0 33.6.3 55.1 20.1 55.4 52.8.7 91 .7 182.4 0 273.4-.3 31-22.8 52.4-53.8 52.4-90.4 0-181.1-.3-271.4.3-30.3.3-54.4-23.4-54.4-54.1.3-89.7 0-179.7 0-269.4 0-34.6 20.8-55.1 55.7-55.4 44.6-.4 89.4 0 134.3 0m-54.1 244.3c14.8-18.1 30.3-32.3 45.2-47.2 6.3-6.3 6.3-10.2 0-16.5-13.9-13.2-26.7-27-40.2-40.6-2.6-3-7.6-6.6 1.3-6.9 5.9-.3 4.9-4.6 4.9-7.9v-56.1c0-8.9-4-11.5-12.5-11.5-19.8.3-39.6 0-59 0-17.8 0-18.1.3-18.1 18.8v232.5c0 7.3 3 11.5 10.6 11.5H245c6.3 0 9.2-3.3 9.2-10.2-.3-18.5-.3-36.6 0-55.1-.2-6.5.2-12.4-10.7-10.8m107.5 0c-10.9-.3-12.2 4.6-12.2 11.5.3 17.8.3 35.3 0 53.1-.3 8.6 3.3 12.2 11.9 12.2H417c7.6 0 11.5-3.3 11.5-11.5V177.5c0-8.2-3.6-11.2-11.5-11.2-21.8.3-43.5.3-65.3 0-8.9 0-12.9 3.3-12.5 12.5.3 16.8.3 33.3 0 50.1 0 7.6-.7 14.8 13.5 15.5-17.5 16.8-32 31.3-47.2 45.2-5.9 5.6-6.9 9.9-.3 16.2 14.8 14.2 29.3 29.7 45.8 46.8" style="fill:#f25621"/></svg>