<?xml version="1.0" encoding="utf-8"?>
<!-- Generator: Adobe Illustrator 26.3.1, SVG Export Plug-In . SVG Version: 6.00 Build 0)  -->
<svg version="1.1" id="Layer_1" xmlns="http://www.w3.org/2000/svg" xmlns:xlink="http://www.w3.org/1999/xlink" x="0px" y="0px"
	 viewBox="0 0 595.3 595.3" style="enable-background:new 0 0 595.3 595.3;" xml:space="preserve">
<style type="text/css">
	.st0{fill:#FFFFFF;}
	.st1{fill:#F25621;}
</style>
<path class="st0" d="M297.6,595.3L297.6,595.3C133.3,595.3,0,462,0,297.6v0C0,133.3,133.3,0,297.6,0h0
	C462,0,595.3,133.3,595.3,297.6v0C595.3,462,462,595.3,297.6,595.3z"/>
<g>
	<path class="st1" d="M93.3,240.2c13.6,0,27.1-0.1,40.7,0c10.2,0.1,16.7,6.1,16.8,16c0.2,27.6,0.2,55.3,0,82.9
		c-0.1,9.4-6.9,15.9-16.3,15.9c-27.4,0-54.9-0.1-82.3,0.1c-9.2,0.1-16.5-7.1-16.5-16.4c0.1-27.2,0-54.5,0-81.7
		c0-10.5,6.3-16.7,16.9-16.8C66.1,240.1,79.7,240.2,93.3,240.2z M76.9,314.3c4.5-5.5,9.2-9.8,13.7-14.3c1.9-1.9,1.9-3.1,0-5
		c-4.2-4-8.1-8.2-12.2-12.3c-0.8-0.9-2.3-2,0.4-2.1c1.8-0.1,1.5-1.4,1.5-2.4c0-5.7,0-11.3,0-17c0-2.7-1.2-3.5-3.8-3.5
		c-6,0.1-12,0-17.9,0c-5.4,0-5.5,0.1-5.5,5.7c0,18.9,0,37.9,0,56.8c0,4.6,0,9.1,0,13.7c0,2.2,0.9,3.5,3.2,3.5c7,0,14,0,21,0
		c1.9,0,2.8-1,2.8-3.1c-0.1-5.6-0.1-11.1,0-16.7C80.1,315.6,80.2,313.8,76.9,314.3z M109.5,314.3c-3.3-0.1-3.7,1.4-3.7,3.5
		c0.1,5.4,0.1,10.7,0,16.1c-0.1,2.6,1,3.7,3.6,3.7c6.7,0,13.4,0,20.1,0c2.3,0,3.5-1,3.5-3.5c0-24.3,0-48.6,0-72.9
		c0-2.5-1.1-3.4-3.5-3.4c-6.6,0.1-13.2,0.1-19.8,0c-2.7,0-3.9,1-3.8,3.8c0.1,5.1,0.1,10.1,0,15.2c0,2.3-0.2,4.5,4.1,4.7
		c-5.3,5.1-9.7,9.5-14.3,13.7c-1.8,1.7-2.1,3-0.1,4.9C100.1,304.4,104.5,309.1,109.5,314.3z"/>
	<path d="M376.6,280.9c5.5,0,5.5,0,7,5.2c0.7,2.3,1.4,4.6,2.1,6.9c0.2,0.7,0.3,1.8,1.4,1.7c0.8-0.1,0.9-1,1.1-1.6
		c1.1-3.4,2.4-6.9,3.4-10.3c0.5-1.6,1.2-2,2.8-2.1c7.4-0.3,7.4-0.3,9.7,6.7c0.7,2,1.4,4,2.1,6c0.2,0.6,0.4,1.5,1.3,1.4
		c0.8-0.1,0.7-0.9,0.9-1.4c1-3.4,2.1-6.8,3-10.2c0.4-1.5,1-2.4,2.9-2.3c2.3,0.2,4.7,0.2,7,0c1.9-0.1,2,0.7,1.5,2.2
		c-3.3,10-6.5,19.9-9.7,29.9c-0.1,0.3-0.1,0.7-0.3,0.8c-2.6,1.9-5.6,0.5-8.5,0.9c-1.4,0.2-1.9-0.8-2.3-1.9
		c-1.3-3.8-2.7-7.6-4.1-11.4c-0.2-0.6-0.3-1.5-1.3-1.4c-0.8,0.1-0.8,0.9-1,1.4c-1.3,3.7-2.7,7.4-3.9,11.2c-0.5,1.6-1.3,2.2-3,2.2
		c-7.5,0.2-7.5,0.3-9.7-6.7c-2.6-8-5.1-15.9-7.7-23.9c-1-3.2-1-3.2,2.4-3.2C374.7,280.9,375.6,280.9,376.6,280.9z"/>
	<path d="M461.7,297.5c0-4.8,0-9.5,0-14.3c0-1.1-0.2-2.4,1.5-2.3c7.1,0.3,14.2-0.8,21.2,0.7c4.5,1,7.6,3.7,8.5,8.4
		c0.9,4.7-0.2,8.9-4.3,11.8c-1.7,1.1-1.5,2.1-0.5,3.4c1.6,2.3,3.2,4.7,4.8,7c1.2,1.7,0.7,2.4-1.3,2.3c-0.1,0-0.2,0-0.3,0
		c-6.7,1.1-12-0.6-14.7-7.5c-0.4-1.1-1.2-2.7-2.9-2.1c-1.5,0.6-0.8,2.1-0.8,3.2c-0.1,6.3-0.1,6.3-6.4,6.3c-4.9,0-4.9,0-4.9-4.8
		C461.7,305.6,461.7,301.6,461.7,297.5z M476.5,296.8c0.9,0,1.7,0,2.5-0.2c1.9-0.3,3.2-1.3,3.2-3.4c0-2-1.4-2.8-3.1-3
		c-1.5-0.2-3-0.1-4.5-0.1c-0.5,0-1.2,0-1.2,0.6c-0.1,1.8-0.4,3.7,0.1,5.4C473.7,297.5,475.5,296.5,476.5,296.8z"/>
	<path d="M174.7,297.6c0-4.8,0.1-9.5,0-14.3c0-1.8,0.4-2.4,2.3-2.5c8.9-0.2,9-0.3,8.9,8.7c0,2.6,0.8,3.2,3.3,3.1c6.9-0.1,7,0,7-6.9
		c0-0.6,0.1-1.2,0-1.8c-0.3-2.4,0.6-3.1,3-3.1c8.3,0.1,8.3,0,8.3,8.1c0,7.5-0.1,15,0.1,22.5c0.1,2.5-0.8,3.3-3.1,3
		c-2.7-0.4-6.1,1.2-7.8-0.7c-1.5-1.7-0.6-5.1-0.4-7.7c0.3-3.1-0.8-3.9-3.8-3.8c-6.4,0.3-6.4,0.1-6.4,6.4c0,5.8,0,5.8-5.7,5.8
		c-5.5,0-5.5,0-5.5-5.6C174.7,305.1,174.7,301.3,174.7,297.6z"/>
	<path d="M526.8,297.7c0-4.9,0-9.7,0-14.6c0-0.9-0.4-2.2,1.2-2.2c6.4,0.2,13-0.8,19.3,0.8c8.1,2.1,12.6,8.2,12.2,16.5
		c-0.3,8.1-5.8,14.2-13.9,15.6c-5.7,1-11.5,0.4-17.2,0.6c-1.7,0.1-1.7-0.9-1.7-2.2C526.8,307.4,526.8,302.6,526.8,297.7z M538,297.6
		C538,297.6,538,297.6,538,297.6c0,1.8,0,3.6,0,5.5c0,0.9,0.2,1.4,1.3,1.6c4.1,0.6,8.3-1.9,8.8-5.6c0.7-4.6-1.8-7.8-6.6-8.4
		c-2.6-0.3-4.1,0.3-3.6,3.3C538.2,295.2,538,296.4,538,297.6z"/>
	<path d="M229.3,280.2c10.7,0.4,18.2,8,17.8,18.2c-0.4,9.8-8.8,17-19.4,16.7c-10-0.3-17.5-8.3-17.2-18.2
		C210.9,287.2,219.2,279.8,229.3,280.2z M221.9,297.6c0,4.2,3.1,7.6,7,7.6c3.9,0,7-3.4,7-7.6c0-4.3-3-7.5-7-7.6
		C224.9,290,221.9,293.2,221.9,297.6z"/>
	<path d="M458.9,297.5c0.1,9.7-7.8,17.4-17.9,17.5c-10.5,0.1-18.5-7.3-18.6-17.1c-0.1-10,7.7-17.7,18.3-17.9
		C450.8,280,458.8,287.5,458.9,297.5z M440.8,290c-4.1,0-7.1,3.1-7.1,7.4c0,4.4,2.9,7.7,6.8,7.8c3.8,0.1,7.2-3.3,7.2-7.5
		C447.7,293.5,444.6,290.1,440.8,290z"/>
	<path d="M316.1,297.4c0-4.8,0.1-9.5,0-14.3c0-1.8,0.5-2.5,2.4-2.5c7.9,0.1,15.8,0.1,23.7,0c1.8,0,2.5,0.5,2.5,2.4
		c-0.2,8.3,0.9,6.8-6.6,6.9c-3,0.1-6.1,0-9.1,0c-1.1,0-2,0-2,1.5c0,1.4,0.5,2,2,1.9c3.9-0.1,7.9,0.1,11.8,0c1.9-0.1,2.7,0.5,2.7,2.5
		c-0.1,6.8,0.5,5.4-5.4,5.6c-2.5,0.1-5.1-0.1-7.6,0.1c-1.3,0.1-3.5-1.1-3.5,1.9c0.1,2.7,2,1.7,3.3,1.7c3.9,0.1,7.9,0.1,11.8,0
		c2-0.1,2.8,0.4,2.8,2.7c0,6.5,0.1,6.5-6.3,6.5c-6.6,0-13.2-0.1-19.7,0.1c-2.3,0.1-3-0.8-2.9-3C316.2,306.7,316.1,302.1,316.1,297.4
		z"/>
	<path d="M264.5,280.2c4.3,0,8.4,0.9,12.2,3.1c1.7,1,2.1,2,0.7,3.5c-0.3,0.4-0.6,0.8-0.9,1.2c-2.8,3.9-2.8,3.9-7.4,2.2
		c-1.8-0.7-3.7-1.1-5.6-1.2c-1,0-2.2,0.2-2.5,1.3c-0.3,1.4,1,1.6,1.9,1.8c3.6,1,7.3,1.4,10.8,3c3.7,1.7,6,4.3,5.8,8.7
		c-0.2,4.4-2.2,7.5-6.1,9.4c-1.9,0.9-4,1.5-6.1,1.6c-6.3,0.4-12.3-0.4-17.7-3.9c-1.7-1.1-2-2.1-0.4-3.5c0.2-0.2,0.4-0.5,0.6-0.7
		c1.3-1.3,2-3.3,3.7-3.9c1.7-0.6,2.9,1.4,4.5,1.9c2.4,0.8,4.8,1.5,7.4,1.4c1.1,0,2.5,0.1,2.6-1.4c0.1-1.3-1.2-1.5-2.1-1.7
		c-3.5-0.9-7.1-1.4-10.5-2.9c-3.3-1.6-5.7-3.9-5.9-7.7c-0.3-4,1.2-7.2,4.6-9.6C257.3,280.4,260.9,280.3,264.5,280.2z"/>
	<path d="M297.3,280.9c4.4,0,8.7,0,13.1,0c1.6,0,2.4,0.4,2.4,2.2c-0.2,8.6,1.1,7.3-6.8,7.2c-2.6,0-3.2,0.8-3.2,3.3
		c0.2,6,0,11.9,0.1,17.9c0,2.2-0.5,3.2-2.8,3c-2-0.2-4.1-0.2-6.1,0c-1.9,0.1-2.4-0.6-2.4-2.4c0.1-6.4-0.1-12.8,0.1-19.1
		c0-2.1-0.7-2.7-2.6-2.5c-0.1,0-0.2,0-0.3,0c-7.3-0.1-7.2-0.1-7-7.3c0-1.7,0.5-2.3,2.2-2.2C288.3,281,292.8,280.9,297.3,280.9z"/>
	<path d="M348,297.5c0-4.9,0.1-9.7,0-14.6c0-1.7,0.6-2.2,2.3-2.3c8.9-0.5,8.8-0.5,8.8,8.1c0,4.4,0.1,8.9,0,13.3
		c-0.1,1.9,0.5,2.7,2.5,2.6c3.7-0.2,7.5,0,11.2-0.1c1.6,0,2.1,0.5,2.2,2.1c0.4,7.7,0.5,7.7-7.2,7.7c-5.5,0-10.9-0.1-16.4,0.1
		c-2.6,0.1-3.6-0.5-3.4-3.3C348.1,306.6,348,302.1,348,297.5z"/>
	<path d="M497,297.6c0-4.8,0.1-9.5,0-14.3c0-2,0.7-2.6,2.6-2.7c8.6-0.3,8.6-0.3,8.6,8.4c0,4.2,0.1,8.3-0.1,12.5
		c-0.1,2.4,0.5,3.5,3.1,3.2c3.2-0.3,6.5,0,9.7-0.1c2.1-0.1,3.1,0.5,3.1,2.8c0,6.9,0.1,6.9-6.8,6.9c-5.8,0-11.6-0.1-17.3,0
		c-2.2,0.1-3.1-0.5-3-2.9C497.1,306.9,497,302.3,497,297.6z"/>
</g>
</svg>
