<?xml version="1.0" encoding="utf-8"?>
<!-- Generator: Adobe Illustrator 26.3.1, SVG Export Plug-In . SVG Version: 6.00 Build 0)  -->
<svg version="1.1" id="Layer_1" xmlns="http://www.w3.org/2000/svg" xmlns:xlink="http://www.w3.org/1999/xlink" x="0px" y="0px"
	 viewBox="0 0 595.3 595.3" style="enable-background:new 0 0 595.3 595.3;" xml:space="preserve">
<style type="text/css">
	.st0{fill:#FFFFFF;}
	.st1{fill:#F25621;}
</style>
<path class="st0" d="M297.6,595.3L297.6,595.3C133.3,595.3,0,462,0,297.6l0,0C0,133.3,133.3,0,297.6,0l0,0
	C462,0,595.3,133.3,595.3,297.6l0,0C595.3,462,462,595.3,297.6,595.3z"/>
<path class="st1" d="M297.6,108.3c44.9,0,89.4-0.3,134.2,0c33.6,0.3,55.1,20.1,55.4,52.8c0.7,91,0.7,182.4,0,273.4
	c-0.3,31-22.8,52.4-53.8,52.4c-90.4,0-181.1-0.3-271.4,0.3c-30.3,0.3-54.4-23.4-54.4-54.1c0.3-89.7,0-179.7,0-269.4
	c0-34.6,20.8-55.1,55.7-55.4C207.9,107.9,252.7,108.3,297.6,108.3z M243.5,352.6c14.8-18.1,30.3-32.3,45.2-47.2
	c6.3-6.3,6.3-10.2,0-16.5c-13.9-13.2-26.7-27-40.2-40.6c-2.6-3-7.6-6.6,1.3-6.9c5.9-0.3,4.9-4.6,4.9-7.9c0-18.8,0-37.3,0-56.1
	c0-8.9-4-11.5-12.5-11.5c-19.8,0.3-39.6,0-59,0c-17.8,0-18.1,0.3-18.1,18.8c0,62.3,0,125,0,187.3c0,15.2,0,30,0,45.2
	c0,7.3,3,11.5,10.6,11.5c23.1,0,46.2,0,69.3,0c6.3,0,9.2-3.3,9.2-10.2c-0.3-18.5-0.3-36.6,0-55.1C254,356.9,254.4,351,243.5,352.6z
	 M351,352.6c-10.9-0.3-12.2,4.6-12.2,11.5c0.3,17.8,0.3,35.3,0,53.1c-0.3,8.6,3.3,12.2,11.9,12.2c22.1,0,44.2,0,66.3,0
	c7.6,0,11.5-3.3,11.5-11.5c0-80.1,0-160.3,0-240.4c0-8.2-3.6-11.2-11.5-11.2c-21.8,0.3-43.5,0.3-65.3,0c-8.9,0-12.9,3.3-12.5,12.5
	c0.3,16.8,0.3,33.3,0,50.1c0,7.6-0.7,14.8,13.5,15.5c-17.5,16.8-32,31.3-47.2,45.2c-5.9,5.6-6.9,9.9-0.3,16.2
	C320,320,334.5,335.5,351,352.6z"/>
</svg>
