<?xml version="1.0" encoding="utf-8"?>
<!-- Generator: Adobe Illustrator 26.3.1, SVG Export Plug-In . SVG Version: 6.00 Build 0)  -->
<svg version="1.1" id="Layer_1" xmlns="http://www.w3.org/2000/svg" xmlns:xlink="http://www.w3.org/1999/xlink" x="0px" y="0px"
	 viewBox="0 0 595.3 595.3" style="enable-background:new 0 0 595.3 595.3;" xml:space="preserve">
<style type="text/css">
	.st0{fill:#FFFFFF;}
	.st1{fill:#464748;}
	.st2{fill-rule:evenodd;clip-rule:evenodd;fill:url(#App-Icon-Shape_00000117641593876807186940000014960880699435031477_);}
	.st3{fill:#27BBA4;}
</style>
<path class="st0" d="M297.6,595.3L297.6,595.3C133.3,595.3,0,462,0,297.6v0C0,133.3,133.3,0,297.6,0h0
	C462,0,595.3,133.3,595.3,297.6v0C595.3,462,462,595.3,297.6,595.3z"/>
<g id="_x31_022--hotellook_x5F_new">
	<g>
		<path id="Hotellook" class="st1" d="M148.9,264.1h12.2v28.2h32.2v-28.2h12.2V334h-12.2v-31h-32.2v31h-12.2V264.1z M214.1,310.3
			c0-3.7,0.6-7.1,1.9-10.2s3.1-5.6,5.3-7.8c2.2-2.2,4.8-3.8,7.9-5s6.3-1.8,9.7-1.8c3.4,0,6.6,0.6,9.7,1.8c3,1.2,5.7,2.8,7.9,5
			c2.2,2.2,4,4.8,5.3,7.8c1.3,3,1.9,6.4,1.9,10.2s-0.6,7.1-1.9,10.2c-1.3,3.1-3.1,5.7-5.3,7.9c-2.2,2.2-4.8,3.9-7.9,5.2
			c-3,1.2-6.3,1.9-9.7,1.9c-3.4,0-6.6-0.6-9.7-1.9s-5.7-3-7.9-5.2s-4-4.8-5.3-7.9S214.1,314,214.1,310.3z M225.4,310.4
			c0,1.8,0.3,3.6,0.8,5.4c0.5,1.8,1.4,3.4,2.5,4.8c1.1,1.4,2.5,2.6,4.2,3.5c1.7,0.9,3.7,1.4,6,1.4s4.3-0.5,6-1.4
			c1.7-0.9,3.1-2.1,4.2-3.5c1.1-1.4,1.9-3,2.5-4.8c0.5-1.8,0.8-3.6,0.8-5.4c0-1.8-0.3-3.6-0.8-5.4c-0.5-1.8-1.4-3.4-2.5-4.8
			c-1.1-1.4-2.5-2.6-4.2-3.4s-3.7-1.3-6-1.3s-4.3,0.4-6,1.3s-3.1,2-4.2,3.4s-1.9,3-2.5,4.8C225.7,306.8,225.4,308.6,225.4,310.4z
			 M266.5,295.6v-9.4h8.1v-13.5H286v13.5h11.6v9.4H286v21.7c0,2.1,0.4,3.8,1.1,5.2c0.7,1.4,2.4,2,5,2c0.8,0,1.6-0.1,2.5-0.2
			c0.9-0.2,1.7-0.4,2.4-0.7l0.4,9.2c-1,0.4-2.3,0.7-3.7,0.9s-2.8,0.3-4.1,0.3c-3.1,0-5.6-0.4-7.5-1.3c-1.9-0.9-3.5-2.1-4.6-3.6
			s-1.9-3.3-2.3-5.3c-0.4-2-0.6-4.1-0.6-6.4v-21.8H266.5z M335.9,305.5c0-1.5-0.2-2.9-0.6-4.3c-0.4-1.4-1.1-2.6-2-3.6
			s-2.1-1.9-3.5-2.5c-1.4-0.6-3.1-0.9-4.9-0.9c-3.5,0-6.5,1.1-9,3.2c-2.4,2.1-3.8,4.9-4.1,8.2H335.9z M347.2,311.1v1.6
			c0,0.5,0,1-0.1,1.6H312c0.1,1.7,0.6,3.3,1.3,4.7c0.7,1.4,1.7,2.6,2.9,3.6c1.2,1,2.6,1.8,4.1,2.4c1.5,0.6,3.1,0.9,4.8,0.9
			c2.9,0,5.3-0.5,7.3-1.6c2-1.1,3.6-2.6,4.9-4.5l7.7,6.3c-4.6,6.3-11.2,9.4-19.8,9.4c-3.6,0-6.9-0.6-9.9-1.7s-5.6-2.8-7.8-4.9
			c-2.2-2.1-3.9-4.7-5.2-7.7s-1.9-6.5-1.9-10.4c0-3.8,0.6-7.2,1.9-10.4s3-5.8,5.1-8c2.2-2.2,4.8-3.9,7.7-5.1c3-1.2,6.2-1.8,9.7-1.8
			c3.2,0,6.2,0.5,8.9,1.6c2.7,1.1,5.1,2.7,7.1,4.8s3.5,4.8,4.7,8C346.6,303.1,347.2,306.8,347.2,311.1z M355.7,259.9H367V334h-11.3
			V259.9z M378.4,259.9h11.3V334h-11.3V259.9z M399.6,310.3c0-3.7,0.6-7.1,1.9-10.2c1.3-3,3.1-5.6,5.3-7.8c2.2-2.2,4.8-3.8,7.9-5
			s6.3-1.8,9.7-1.8c3.4,0,6.6,0.6,9.7,1.8c3,1.2,5.7,2.8,7.9,5c2.2,2.2,4,4.8,5.3,7.8c1.3,3,1.9,6.4,1.9,10.2s-0.6,7.1-1.9,10.2
			c-1.3,3.1-3.1,5.7-5.3,7.9c-2.2,2.2-4.8,3.9-7.9,5.2c-3,1.2-6.3,1.9-9.7,1.9c-3.4,0-6.6-0.6-9.7-1.9s-5.7-3-7.9-5.2
			c-2.2-2.2-4-4.8-5.3-7.9C400.3,317.4,399.6,314,399.6,310.3z M410.9,310.4c0,1.8,0.3,3.6,0.8,5.4c0.5,1.8,1.4,3.4,2.5,4.8
			c1.1,1.4,2.5,2.6,4.2,3.5c1.7,0.9,3.7,1.4,6,1.4s4.3-0.5,6-1.4c1.7-0.9,3.1-2.1,4.2-3.5c1.1-1.4,1.9-3,2.5-4.8
			c0.5-1.8,0.8-3.6,0.8-5.4c0-1.8-0.3-3.6-0.8-5.4c-0.5-1.8-1.4-3.4-2.5-4.8s-2.5-2.6-4.2-3.4s-3.7-1.3-6-1.3s-4.3,0.4-6,1.3
			c-1.7,0.9-3.1,2-4.2,3.4c-1.1,1.4-1.9,3-2.5,4.8C411.2,306.8,410.9,308.6,410.9,310.4z M454.8,310.3c0-3.7,0.6-7.1,1.9-10.2
			c1.3-3,3.1-5.6,5.3-7.8c2.2-2.2,4.8-3.8,7.9-5c3-1.2,6.3-1.8,9.7-1.8c3.4,0,6.6,0.6,9.7,1.8s5.7,2.8,7.9,5c2.2,2.2,4,4.8,5.3,7.8
			s1.9,6.4,1.9,10.2s-0.6,7.1-1.9,10.2s-3.1,5.7-5.3,7.9c-2.2,2.2-4.8,3.9-7.9,5.2s-6.3,1.9-9.7,1.9c-3.4,0-6.6-0.6-9.7-1.9
			c-3-1.2-5.7-3-7.9-5.2c-2.2-2.2-4-4.8-5.3-7.9C455.5,317.4,454.8,314,454.8,310.3z M467.6,310.4c0,1.8,0.3,3.6,0.8,5.4
			c0.5,1.8,1.4,3.4,2.5,4.8c1.1,1.4,2.5,2.6,4.2,3.5c1.7,0.9,3.7,1.4,6,1.4s4.3-0.5,6-1.4c1.7-0.9,3.1-2.1,4.2-3.5
			c1.1-1.4,1.9-3,2.5-4.8c0.5-1.8,0.8-3.6,0.8-5.4c0-1.8-0.3-3.6-0.8-5.4c-0.5-1.8-1.4-3.4-2.5-4.8c-1.1-1.4-2.5-2.6-4.2-3.4
			s-3.7-1.3-6-1.3s-4.3,0.4-6,1.3c-1.7,0.9-3.1,2-4.2,3.4s-1.9,3-2.5,4.8C467.9,306.8,467.6,308.6,467.6,310.4z M514.3,259.9h11.5
			v46.9h0.3l17.5-19.8h14.8l-20,21.3l21.2,25.8h-15.3l-18.2-24.1h-0.3V334h-11.5V259.9z"/>
		<g id="Group-11">
			
				<linearGradient id="App-Icon-Shape_00000125575593601786582680000013818583489529125275_" gradientUnits="userSpaceOnUse" x1="48.0401" y1="538.9285" x2="52.7608" y2="534.2078" gradientTransform="matrix(20 0 0 -20 -925.1646 11029)">
				<stop  offset="0" style="stop-color:#15ACAC"/>
				<stop  offset="1" style="stop-color:#3FD09A"/>
			</linearGradient>
			
				<path id="App-Icon-Shape" style="fill-rule:evenodd;clip-rule:evenodd;fill:url(#App-Icon-Shape_00000125575593601786582680000013818583489529125275_);" d="
				M107.6,250.4c13.6,0,22.4,8.9,22.4,22.4v49.6c0,13.6-8.9,22.4-22.4,22.4H58.1c-13.6,0-22.4-8.9-22.4-22.4v-49.6
				c0-13.6,8.9-22.4,22.4-22.4H107.6z"/>
			<g id="Group-13" transform="translate(5.063291, 2.028125)">
				<path id="Combined-Shape-Copy" class="st0" d="M79.6,273.2c0.8-2.8,4-4.5,6.9-3.4s4.4,4.4,3.4,7.2c-0.7,1.9-3,6.4-8.8,7.8
					c-6.2,1.6-8.8,0-12.2,1s-4.8,3.3-5.6,6.2c-0.8,2.8-7.6,28.5-7.6,28.5c-0.8,3.1,1.2,6.3,4.4,7.2l20,5.5c3.2,0.8,6.5-1,7.3-4.1
					l13.2-50.1c2.2-8.4-2.8-17.1-11.6-19.4c-8.7-2.4-17.5,2.3-19.7,10.7c-0.8,2.8,0.9,5.9,3.8,6.5C76.1,277.7,78.9,276.1,79.6,273.2
					z"/>
				<polygon id="H" class="st3" points="70.1,296.3 64.1,318.7 68.6,319.9 71.2,310.2 79.4,312.4 76.8,322.1 81.3,323.3 87.3,300.9 
					82.8,299.7 80.5,308.3 72.3,306.1 74.6,297.5 				"/>
			</g>
		</g>
	</g>
</g>
</svg>
