<svg xmlns="http://www.w3.org/2000/svg" xml:space="preserve" id="Layer_1" x="0" y="0" style="enable-background:new 0 0 595.3 595.3" version="1.1" viewBox="0 0 595.3 595.3"><style>.st1{fill:#ee2841}</style><path d="M297.6 595.3C133.3 595.3 0 462 0 297.6 0 133.3 133.3 0 297.6 0 462 0 595.3 133.3 595.3 297.6c0 164.4-133.3 297.7-297.7 297.7" style="fill:#fff"/><path d="M185.1 297.8V165.4c0-25.2 16-45.2 40.5-50.7 30.6-6.9 61.3 16.8 61.6 48.5.4 23 0 45.9 0 68.6 0 3.6.7 4.7 4.7 5.1 31.7 1.5 63.5 3.3 95.2 4.7 3.3 0 4-1.1 3.6-3.6v-61.3c0-13.9 4.7-25.5 15.7-33.9 13.1-9.8 27.3-11.7 42.3-4.7 15 6.9 22.6 19.3 23.7 35.7V429c0 20.4-12.4 36.5-31.4 41.2-24.1 5.8-49.2-11.7-50-36.5-.7-25.2-.4-50.7-.4-75.8 0-9.5 0-9.5-9.5-9.5h-89.7c-3.3 0-4.4.7-4.4 4.4v76.9c0 25.9-16.4 45.9-41.9 51.1-29.2 5.8-59.1-17.1-59.8-46.7-.7-29.9-.4-60.2-.4-90.1.2-15.2.2-30.5.2-46.2M178.2 143.2c-5.1 11.7-4 24.1-4 36.5v246.9c0 14.6 2.6 28.1 10.9 40.1 0 .4 0 .7.4 1.5-2.9-.7-5.1-2.2-7.3-3.6-15.3-9.8-24.1-24.1-24.1-42.3V184.9c0-16.8 7.7-30.3 21.2-40.1.7-1.3 1.4-2 2.9-1.6M146.8 163.6c-3.6 9.8-3.6 20.1-3.6 30.3V408c0 11.7-.7 23.7 4 35.4-1.1-.7-1.8-.7-2.2-1.1-13.5-9.8-21.9-23-21.9-39.7-.4-66-.4-132.4 0-198.4.4-17.6 9.1-31.1 23.7-40.6" class="st1"/><path d="M387.1 459c-11.3-4-19-11.3-24.1-21.9-2.2-4.7-3.3-9.5-3.3-14.6v-59.4c0-2.6 1.1-3.3 3.6-3.3 4 0 8.4.4 12.4 0 3.3-.4 4 1.1 4 4V424c0 12 1.1 23.7 7.7 33.9.1.3-.3.7-.3 1.1M357.6 449.1c-17.1-5.5-28.4-20.8-28.4-37.2v-48.5c0-3.3 1.1-3.6 4-3.6 4 .4 8.4.4 12.4 0 2.9 0 4 .7 3.6 3.6v48.5c-.4 12.8 0 25.6 8.4 37.2M387.5 147.2c-6.6 10.9-8 23-7.7 35.4.4 14.6 0 29.2 0 43.8 0 3.3-.7 4.4-4.4 4-4.4-.4-8.8-.7-13.1-.7-1.5 0-2.6-.4-2.6-2.2.4-17.1-1.8-34.3 1.1-51.1 2.6-14.6 12.5-24.1 26.7-29.2M356.9 158.1c-6.9 10.6-8 22.2-8 34.3.4 10.9 0 22.2 0 33.2 0 2.6-.7 3.6-3.3 3.3-4.7-.4-9.5-.7-14.2-.7-1.5 0-2.6-.4-2.2-2.2.4-12.8-1.5-25.9.7-38.3 2.6-14.2 11.3-24.1 24.4-29.9.7 0 1.1-.4 2.6.3" class="st1"/></svg>