<?xml version="1.0" encoding="utf-8"?>
<!-- Generator: Adobe Illustrator 26.3.1, SVG Export Plug-In . SVG Version: 6.00 Build 0)  -->
<svg version="1.1" id="Layer_1" xmlns="http://www.w3.org/2000/svg" xmlns:xlink="http://www.w3.org/1999/xlink" x="0px" y="0px"
	 viewBox="0 0 595.3 595.3" style="enable-background:new 0 0 595.3 595.3;" xml:space="preserve">
<style type="text/css">
	.st0{fill:#FFFFFF;}
	.st1{fill:#F2C259;}
	.st2{fill:#1F3894;}
</style>
<path class="st0" d="M297.6,595.3L297.6,595.3C133.3,595.3,0,462,0,297.6l0,0C0,133.3,133.3,0,297.6,0l0,0
	C462,0,595.3,133.3,595.3,297.6l0,0C595.3,462,462,595.3,297.6,595.3z"/>
<g id="Ir6i8a_00000139284211975796073280000015162403114161108120_">
	<g>
		<path class="st1" d="M183.1,284.3c0,8.6,0,17.3,0,25.9c-0.1,7.9-3.8,11.9-11.5,11.9c-17.5,0.1-35,0.1-52.5,0
			c-7.6,0-11.7-4.2-11.8-11.9c-0.1-17.3-0.1-34.6,0-51.9c0.1-7.9,4.2-11.9,12.3-12c17.1-0.1,34.2-0.1,51.4,0c8.4,0,12.1,4,12.2,12.5
			C183.1,267.4,183.1,275.9,183.1,284.3z"/>
		<path class="st2" d="M446.3,297.3c0-6,0.2-11.9-0.1-17.9c-0.3-5.8,2.3-8.9,7.8-10.3c8.5-2.1,17-3.8,25.1,1.2
			c2.5,1.5,4-0.4,5.8-1.1c14-5.7,28.3,0.6,30.4,13.8c0.8,5.1,0.4,10.3,0.4,15.5c0,5.8-0.1,11.5,0,17.3c0.1,4-1.3,7.1-5.6,7
			c-4-0.1-5.3-3.1-5.2-6.8c0.1-9.4,0.1-18.8,0-28.2c-0.1-7.2-4.2-11.1-10.7-10.5c-4.9,0.4-8,1.9-7.7,8.1c0.6,10,0.1,20,0.2,29.9
			c0,4.2-1.1,7.6-5.8,7.5c-4.4-0.1-5.3-3.6-5.3-7.5c0-9.8,0-19.6,0-29.4c0-3.4-0.4-6.7-4.2-8c-4.3-1.5-8.8-1-12.9,0.7
			c-1.6,0.7-0.9,2.8-0.9,4.2c0,10.6-0.1,21.1,0,31.7c0,4.1-0.5,8.3-5.7,8.3c-5.1-0.1-5.6-4.2-5.5-8.4
			C446.4,308.8,446.3,303.1,446.3,297.3z"/>
		<path class="st2" d="M257.2,285c0-9.4-0.1-18.8,0-28.2c0.1-6.7,2.4-9.1,9-9.2c5.6,0,11.2-0.3,16.7,0.4
			c14.1,1.9,22.8,10.3,24.3,24.3c0.9,8.1,0.9,16.5,0.1,24.7c-1.6,14.9-11.6,23.9-26.9,24.9c-5,0.3-10,0.2-15,0.1
			c-5.5-0.2-8-2.7-8.1-8.3C257.1,304.2,257.2,294.6,257.2,285z M268.6,284.3c0,5.9,0,11.9,0,17.8c0,9.3,0,9.3,9.6,9
			c11.2-0.3,17.4-5.7,17.9-16c0.3-6.9,0.3-13.8,0-20.7c-0.4-9.5-6.2-15.1-15.7-15.8c-2.7-0.2-5.4,0-8.1-0.2c-3.1-0.3-3.9,1.1-3.9,4
			C268.7,269.8,268.6,277,268.6,284.3z"/>
		<path class="st2" d="M437.2,298.5c0,4.8-0.1,9.6,0,14.4c0.1,4-1.8,6.6-5.5,7.7c-7.6,2.3-15.4,3.4-23.3,1.7
			c-8.3-1.8-13.6-8-13.8-16.2c-0.2-7.9,4.7-13.9,12.9-16.3c5.1-1.5,10.3-1,15.5-0.9c2.9,0,3.7-1.1,3.4-3.7c-0.5-4.6-3-7.4-7.7-7.8
			c-4.3-0.4-8.4,0.3-12.2,2.5c-3.1,1.8-6.2,1.8-7.9-1.6c-1.8-3.4,0.1-6,3.2-7.5c6.9-3.4,14.2-4.7,21.8-3c8.2,1.8,13.3,7.9,13.7,16.3
			C437.3,288.9,437.1,293.7,437.2,298.5C437.1,298.5,437.1,298.5,437.2,298.5z M418.1,299c-2.5,0.2-5,0.1-7.4,0.7
			c-4.9,1.3-6.6,6.7-3.6,10.4c2.6,3.2,15.5,4.2,18.5,1.5c0.5-0.5,0.6-1.3,0.8-2C428,300.9,426.6,299.1,418.1,299z"/>
		<path class="st2" d="M371.6,300.4c-2.7,0-5.4,0-8.1,0c-5.6,0-6.6,1.6-4.4,6.8c2,4.8,6.1,6.1,10.8,5.8c3.5-0.2,6.7-1.4,10-2.7
			c3-1.2,5.4-0.2,6.8,2.5c1.5,2.9,0.4,5.5-2.4,6.7c-9.3,4.1-18.4,5-28.2,0.4c-12.4-5.7-12.4-43.8,0-49.5c8-3.8,18.7-4.3,25.6,0.9
			c6.5,4.9,10.2,16.2,7.8,23.9c-1,3.3-3.5,5-6.9,5.1C378.9,300.5,375.3,300.4,371.6,300.4z M368.3,290.2c2.5,0,5,0,7.5,0
			c1.8,0,2.9-0.4,2.8-2.5c-0.4-4.8-2.1-8.8-7.2-9.9c-4.8-1-9.3-0.4-11.8,4.7c-2.9,5.8-1.7,7.7,4.7,7.8
			C365.6,290.2,367,290.2,368.3,290.2z"/>
		<path class="st2" d="M231.1,300.4c-2.9,0-5.8,0.3-8.6-0.1c-5.6-0.7-5.5,2.3-4.3,6.1c1.6,5,5.4,6.7,10.3,6.6
			c3.7-0.1,7.2-1.3,10.5-2.7c3.3-1.3,5.8-0.3,7.2,2.7c1.3,2.9,0,5.4-2.8,6.7c-7.8,3.4-15.8,4.9-24,1.9c-6.4-2.3-10.7-6.9-12-13.6
			c-1.7-8.3-1.8-16.8-0.1-25.2c2-10.1,10.9-16.2,21.8-15.6c10.7,0.6,18.7,7.9,19.8,18.1c0.3,2.5,0.2,5,0.2,7.5
			c0,4.9-2.7,7.4-7.5,7.6C238.1,300.5,234.6,300.4,231.1,300.4z M228.1,290.2c2.5,0,5,0,7.5,0c1.4,0,2.8,0,2.5-2.1
			c-0.6-4.3-1.6-8.5-6.3-10c-4.4-1.4-8.8-1.2-11.9,2.9c-1.8,2.3-3,5.4-1.9,8.1c1,2.4,4,0.9,6.1,1.2
			C225.4,290.3,226.7,290.2,228.1,290.2z"/>
		<path class="st2" d="M542.5,267.2c4.3,0,8.4,0.7,12.3,2.4c3.1,1.3,5.3,3.4,3.8,7.2c-1.4,3.4-4.2,3.7-7.2,2.7
			c-3.5-1.2-7-2.2-10.7-2c-3.3,0.1-6.2,1-6.8,4.8c-0.6,3.6,1.8,5.2,4.7,6.2c3.3,1.1,6.6,2,9.8,3.2c7.9,2.8,11.4,7.9,11.1,15.5
			c-0.3,7.4-5.1,13.3-12.7,15.2c-6.9,1.7-13.7,0.7-20.3-1.7c-3.3-1.2-5.3-3.6-4-7.1c1.5-3.8,4.5-4.2,8.1-2.6c3.9,1.8,8.1,2.6,12.3,2
			c2.8-0.4,5.3-1.6,5.6-4.9c0.3-2.9-1.4-4.7-3.9-5.8c-3.2-1.3-6.4-2.5-9.6-3.7c-9.4-3.5-13.7-9.5-12.4-17.5
			c1.3-8.1,7.9-13.4,17.3-13.9C540.9,267.1,541.7,267.2,542.5,267.2z"/>
		<path class="st1" d="M80.9,337.6c-2.1,0-4.2,0.1-6.3,0c-1.5-0.1-3.2-0.3-4.4-1.1c-8.6-6.4-4.4-15.5-4.5-23.5
			c-0.1-4.8,5.3-7.6,11.8-7.7c18.7-0.2,20.2,1.2,20.1,19C97.6,335.5,95,337.6,80.9,337.6z"/>
		<path class="st2" d="M316.8,299.3c0-5.9-0.3-11.9,0.1-17.8c0.8-12.3,13.5-17.4,25.3-12.6c2.1,0.9,2.9,3,2.5,5.3
			c-0.5,2.6-2.3,4-4.8,4.1c-1.3,0.1-2.6-0.4-3.9-0.7c-6.1-1-8.3,0.7-8.3,6.8c-0.1,10.7,0,21.5,0,32.2c0,2.7-0.8,4.9-3.5,6
			c-2.3,0.9-4.1,0.2-5.8-1.3c-1.6-1.5-1.5-3.4-1.5-5.4C316.8,310.4,316.8,304.9,316.8,299.3C316.8,299.3,316.8,299.3,316.8,299.3z"
			/>
		<path class="st1" d="M47.8,348.9c-9.5,0-12.2-2.5-12.2-11.6c0-9.3,3-12.2,12.5-12.2c8.7,0,11.4,2.8,11.4,11.8
			C59.6,346.6,57.3,348.9,47.8,348.9z"/>
	</g>
</g>
</svg>
