<?xml version="1.0" encoding="utf-8"?>
<!-- Generator: Adobe Illustrator 26.3.1, SVG Export Plug-In . SVG Version: 6.00 Build 0)  -->
<svg version="1.1" id="Layer_1" xmlns="http://www.w3.org/2000/svg" xmlns:xlink="http://www.w3.org/1999/xlink" x="0px" y="0px"
	 viewBox="0 0 595.3 595.3" style="enable-background:new 0 0 595.3 595.3;" xml:space="preserve">
<style type="text/css">
	.st0{fill:#FFFFFF;}
</style>
<path class="st0" d="M297.6,595.3L297.6,595.3C133.3,595.3,0,462,0,297.6l0,0C0,133.3,133.3,0,297.6,0l0,0
	C462,0,595.3,133.3,595.3,297.6l0,0C595.3,462,462,595.3,297.6,595.3z"/>
<path d="M182.6,466.7c-27,0-53.5,0-80.5,0c-7.2,0-13.5,0-14-10.1c0-9.2,5.3-10.1,12.1-10.1c4.8-0.5,9.2-1,14-1.4
	c18.8-2.4,25.1-8.2,25.1-27.5c0-78.6,0-157.2,0-235.8c0-17.8-6.8-23.6-28.4-28.9c-8.7-2.4-24.6,1.9-21.7-14.9
	c2.4-15.4,16.4-7.2,24.6-7.2c49.7-1,98.8-0.5,148.5-0.5c5.8,0,14.5-3.4,14.9,8.2c0.5,10.6-5.8,11.1-14,12.5
	c-34.2,5.3-37.1,9.2-37.1,43.4c0,24.1,0.5,48.2,0,72.3c0,9.6,1.9,14.5,13,14.5c39.5-0.5,79.1-0.5,118.6,0c8.7,0,12.5-2.4,12.5-11.6
	c-0.5-28,0.5-55.5-0.5-83.4c-0.5-21.2-7.2-28.4-28-33.3c-3.9-1-8.2-1.9-12.5-2.4c-8.2-1-7.7-7.2-7.7-13c0-6.8,4.8-7.2,9.6-7.2
	c55.9,0,111.4,0,167.3,0c5.3,0,9.2,1.9,8.7,8.2c-0.5,5.3,0,11.1-7.2,11.6c-0.5,0-1,0-1.4,0c-39.5,9.6-39.5,9.6-39.5,49.7
	c0,70.9,0,141.3,0,212.2c0,22.2,6.3,29.4,28.9,32.8c1.4,0,3.4,0,4.8,0.5c7.7,1.4,15.9,1.9,14.5,13.5c-1.4,11.1-9.6,7.7-15.4,8.2
	c-47.3,0-94.5,0-142.2,0c-5.3,0-10.6,0-15.9,0c-7.2,0.5-12.5-1-12.5-10.1c0-7.7,3.9-10.1,10.6-10.6c5.3-0.5,10.6-1,15.4-1.9
	c12.5-1.4,21.2-7.7,21.2-20.7c0.5-36.2,0.5-72.3,1-108.5c0-6.8-3.9-8.7-10.1-8.7c-41,0-82,0-123,0c-7.2,0-10.1,2.9-10.1,10.1
	c0,32.8-0.5,66.1,0.5,98.8c0.5,16.4,10.6,26,28,28.4c4.8,0.5,9.2,1,14,1.4c7.7,1,8.7,5.8,8.7,12.5c0,7.2-4.3,8.7-10.1,8.7
	C238.5,466.2,210.5,466.2,182.6,466.7z"/>
</svg>
