<?xml version="1.0" encoding="utf-8"?>
<!-- Generator: Adobe Illustrator 26.3.1, SVG Export Plug-In . SVG Version: 6.00 Build 0)  -->
<svg version="1.1" id="Layer_1" xmlns="http://www.w3.org/2000/svg" xmlns:xlink="http://www.w3.org/1999/xlink" x="0px" y="0px"
	 viewBox="0 0 595.3 595.3" style="enable-background:new 0 0 595.3 595.3;" xml:space="preserve">
<style type="text/css">
	.st0{fill:#FFFFFF;}
	.st1{fill-rule:evenodd;clip-rule:evenodd;fill:url(#App-Icon-Shape_00000102532327412694501550000014315760746355119273_);}
	.st2{fill:#27BBA4;}
</style>
<path class="st0" d="M297.6,595.3L297.6,595.3C133.3,595.3,0,462,0,297.6l0,0C0,133.3,133.3,0,297.6,0l0,0
	C462,0,595.3,133.3,595.3,297.6l0,0C595.3,462,462,595.3,297.6,595.3z"/>
<g id="Group-11">
	
		<linearGradient id="App-Icon-Shape_00000097461891555698608430000004443891682732502174_" gradientUnits="userSpaceOnUse" x1="-64.8662" y1="48.6012" x2="-44.6458" y2="68.8216" gradientTransform="matrix(20 0 0 20 1392.8354 -876.5115)">
		<stop  offset="0" style="stop-color:#15ACAC"/>
		<stop  offset="1" style="stop-color:#3FD09A"/>
	</linearGradient>
	
		<path id="App-Icon-Shape" style="fill-rule:evenodd;clip-rule:evenodd;fill:url(#App-Icon-Shape_00000097461891555698608430000004443891682732502174_);" d="
		M403.7,95.5c58.3,0,95.9,38.1,95.9,95.9v212.5c0,58.3-38.1,95.9-95.9,95.9h-212c-58.3,0-95.9-38.1-95.9-95.9V191.4
		c0-58.3,38.1-95.9,95.9-95.9H403.7z"/>
	<g id="Group-13" transform="translate(5.063291, 2.028125)">
		<path id="Combined-Shape-Copy" class="st0" d="M300.4,199.8c3.4-12,17.1-19.3,29.6-14.6s18.8,18.8,14.6,30.8
			c-3,8.1-12.9,27.4-37.7,33.4c-26.6,6.9-37.7,0-52.3,4.3c-14.6,4.3-20.6,14.1-24,26.6c-3.4,12-32.6,122.1-32.6,122.1
			c-3.4,13.3,5.1,27,18.8,30.8l85.7,23.6c13.7,3.4,27.8-4.3,31.3-17.6l56.5-214.6c9.4-36-12-73.2-49.7-83.1
			c-37.3-10.3-75,9.9-84.4,45.8c-3.4,12,3.9,25.3,16.3,27.8C285.4,219.1,297.4,212.2,300.4,199.8z"/>
		<polygon id="H" class="st2" points="259.7,298.7 234,394.7 253.2,399.8 264.4,358.3 299.5,367.7 288.4,409.3 307.6,414.4 
			333.3,318.4 314.1,313.3 304.2,350.1 269.1,340.7 278.9,303.9 		"/>
	</g>
</g>
</svg>
