<?xml version="1.0" encoding="utf-8"?>
<!-- Generator: Adobe Illustrator 26.3.1, SVG Export Plug-In . SVG Version: 6.00 Build 0)  -->
<svg version="1.1" id="Layer_1" xmlns="http://www.w3.org/2000/svg" xmlns:xlink="http://www.w3.org/1999/xlink" x="0px" y="0px"
	 viewBox="0 0 595.3 595.3" style="enable-background:new 0 0 595.3 595.3;" xml:space="preserve">
<style type="text/css">
	.st0{fill:#FFFFFF;}
	.st1{fill:#01ADEF;}
	.st2{fill:#2F4364;}
	.st3{fill:#FDFDFE;}
</style>
<path class="st0" d="M297.6,595.3L297.6,595.3C133.3,595.3,0,462,0,297.6v0C0,133.3,133.3,0,297.6,0h0
	C462,0,595.3,133.3,595.3,297.6v0C595.3,462,462,595.3,297.6,595.3z"/>
<g>
	<path class="st1" d="M105.4,365.3c-15.8,0-31.6,0-47.4,0c-2.8,0-5.6-0.3-8.3-0.9c-7.4-1.7-11.2-5.9-12.2-13.3
		c-1.5-10.4-1.1-20.9-0.7-31.4c0.4-11,1.4-21.9,2.8-32.8c1.1-8.4,2.3-16.8,4.3-25.1c0.4-1.5,0.2-2.3-1.2-3.2
		c-5.6-3.7-8.1-10.2-6.7-16.4c1.4-6.6,6.3-11.3,12.9-12.5c6.9-1.3,14.2,2.5,17.2,9c0.7,1.5,1.2,2,3,1.5c24.3-6.8,48.7-6.8,73,0
		c1.5,0.4,2.1,0.2,2.7-1.3c2.9-6.5,9.3-10.1,16.4-9.4c6.3,0.6,12.1,5.6,13.7,11.8c1.7,6.9-0.9,13.6-6.9,17.6
		c-0.8,0.6-1.4,0.9-1.1,2.2c3.4,13.9,5,28.1,6.2,42.3c1.1,12.8,1.8,25.6,1.3,38.4c-0.1,3.6-0.6,7.1-1.1,10.7
		c-0.9,6.2-4.7,9.7-10.4,11.5c-3.2,1-6.5,1.3-9.8,1.3C137.3,365.3,121.4,365.3,105.4,365.3z M126.2,287.1c-0.1-2-1.3-2.8-3.2-2.8
		c-11.6,0-23.3,0-34.9,0c-1.9,0-3.1,0.7-3.2,2.8c-0.6,2.5-1.2,5-1.7,7.5c-1.9,10.2-3.9,20.4-4.3,30.8c-0.1,3.6,1.3,6,4.1,8
		c1.4,1,2.8,1.8,4.4,2.5c7.8,3.5,16,4.3,24.3,3.3c5.8-0.7,11.4-2.3,16.2-5.7c2.9-2,4.6-4.5,4.3-8.3
		C131.5,312.3,129.3,299.7,126.2,287.1z M129.1,287.3c0,5.5,4.4,9.9,9.9,9.8c5.5-0.1,9.7-4.7,9.5-10.2c-0.1-1.8-0.7-2.6-2.6-2.6
		c-4.6,0.1-9.2,0-13.8,0C129.4,284.3,129.2,284.6,129.1,287.3z M72.4,284.3c-2.6,0-5.1,0-7.7,0c-1.3,0-1.9,0.5-2,1.7
		c-0.3,4,1,7.2,4.4,9.4c3.4,2.2,7,2.2,10.4,0.1c3.4-2.1,4.9-5.3,4.6-9.4c-0.1-1.3-0.7-1.9-2.1-1.9C77.4,284.4,74.9,284.3,72.4,284.3
		z"/>
	<path class="st2" d="M253.1,260.7c0,9.6,0,19.2,0,28.8c0,1.5-0.3,2-1.9,2c-3-0.1-6-0.1-9,0c-1.5,0.1-2-0.4-2-1.9
		c0.1-7,0-14.1,0.1-21.1c0-1.6-0.2-2.3-2.1-2.3c-5.4,0.1-10.7,0.1-16.1,0c-1.6,0-2,0.5-2,2c0.1,7.1,0,14.2,0.1,21.3
		c0,1.5-0.3,2.1-1.9,2c-3.2-0.1-6.3-0.1-9.5,0c-1.3,0-1.6-0.4-1.6-1.6c0-19.5,0-39,0-58.4c0-1.3,0.4-1.6,1.6-1.6
		c3.2,0.1,6.5,0.1,9.7,0c1.4,0,1.7,0.5,1.7,1.8c-0.1,7,0,13.9-0.1,20.9c0,1.7,0.4,2.3,2.2,2.2c5.3-0.1,10.6-0.1,15.9,0
		c1.9,0,2.2-0.6,2.1-2.3c-0.1-6.9,0-13.8-0.1-20.7c0-1.5,0.3-2,1.9-2c2.9,0.1,5.9,0.1,8.8,0c1.7-0.1,2.2,0.3,2.2,2.1
		C253.1,241.5,253.1,251.1,253.1,260.7z"/>
	<path class="st1" d="M314.9,325.7c4.3-4.6,9.1-5.7,14.5-3.8c1.8,0.6,3.4,1.8,4.5,3.4c0.8,1.2,1.3,1.2,2.2,0.1
		c3.1-3.5,7.1-4.8,11.7-4.3c7.5,0.9,12.6,6.3,12.8,14.3c0.3,9.4,0.1,18.9,0.2,28.3c0,1.1-0.3,1.5-1.5,1.5c-2.7-0.1-5.4-0.1-8.2,0
		c-1.6,0.1-1.8-0.5-1.8-1.9c0-7.8,0-15.5,0-23.3c0-1.5-0.1-2.9-0.5-4.3c-0.8-2.4-2.3-3.6-4.6-3.7c-2.4-0.1-4.2,1-5.3,3.2
		c-0.8,1.7-0.9,3.5-0.9,5.4c0,7.5,0,15.1,0,22.6c0,1.6-0.4,2.2-2.1,2.1c-2.3-0.1-4.7-0.1-7,0c-1.7,0.1-2.2-0.4-2.2-2.2
		c0.1-8.2,0-16.4-0.1-24.6c-0.1-4-2-6.3-5.2-6.5c-3.4-0.3-6,2-6.2,5.9c-0.2,3.7-0.1,7.5-0.1,11.2c0,4.8,0,9.7,0,14.5
		c0,1.2-0.3,1.7-1.6,1.7c-2.7-0.1-5.4-0.1-8.2,0c-1.2,0-1.7-0.3-1.7-1.6c0-13.4,0-26.8,0-40.2c0-1.4,0.5-1.7,1.8-1.7
		c2.3,0.1,4.6,0.1,6.8,0c1.9-0.1,2.8,0.3,2.4,2.4C314.8,324.6,314.9,324.9,314.9,325.7z"/>
	<path class="st1" d="M228.9,365.7c-3.4,0-6.7,0.2-10-1c-7.1-2.5-11.8-7.3-14.1-14.4c-3.1-9.8-3.1-19.7,0.7-29.3
		c6.2-15.8,20.9-19.9,33.5-16c8.8,2.7,13,10.2,11.2,19.9c-0.2,1.3-0.8,1.7-2,1.6c-2.6-0.1-5.1,0-7.7,0c-0.7,0-1.4,0.2-1.4-1
		c0-8.4-4.9-11.9-13.1-9.5c-4.2,1.2-6.9,4.1-8.4,8.1c-2.6,7-2.9,14.2-0.7,21.3c2.2,7.1,9.5,10.6,16.6,8.4c3.9-1.2,6-4.5,5.6-9.1
		c-0.1-1.5,0.3-1.9,1.7-1.8c2.5,0.1,5,0.1,7.5,0c1.3-0.1,1.8,0.4,2.1,1.6c2.4,10.3-6.2,21.2-16.9,21.2
		C232,365.7,230.4,365.7,228.9,365.7z"/>
	<path class="st1" d="M447.1,326.2c3.6-4.2,7.7-5.5,12.4-5c7,0.8,12.2,6.7,12.3,14.3c0.2,9.4,0,18.9,0.1,28.3c0,1.3-0.4,1.6-1.6,1.6
		c-2.7-0.1-5.4-0.1-8.1,0c-1.5,0.1-1.8-0.5-1.8-1.9c0.1-7.7,0-15.4,0-23.1c0-1.2,0-2.3-0.3-3.5c-0.8-3-2.6-4.7-5.5-4.9
		c-3-0.2-5.5,1.3-6.6,4.1c-0.5,1.4-0.8,2.8-0.8,4.3c0,7.6-0.1,15.2,0,22.8c0,1.6-0.4,2.2-2.1,2.1c-2.6-0.1-5.1-0.1-7.7,0
		c-1.2,0-1.7-0.3-1.7-1.6c0-13.4,0-26.8,0-40.2c0-1.4,0.6-1.7,1.8-1.7c2.4,0.1,4.9,0.1,7.3,0c1.8-0.1,2.6,0.4,2.3,2.3
		C447.1,324.6,447.1,325,447.1,326.2z"/>
	<path class="st2" d="M428.9,262.7c-0.7,0-1.3,0-2,0c-1.8,0.1-3.6,0.4-2.7-2.5c0.3-0.8-0.3-1.7-1-2.3c-1.9-1.8-6.8-1.7-8.6,0.1
		c-1.4,1.4-1.1,3.3,0.7,4.4c1.8,1.2,3.9,1.6,6,2.1c2.5,0.6,5,1.2,7.4,2.2c4.5,1.9,7.2,5.2,7.4,10.2c0.2,5.5-1.4,10.3-6.7,12.8
		c-7,3.3-14.1,3.1-21-0.2c-5.2-2.5-7.3-8-5.6-13.1c0.4-1.1,0.9-1.7,2.2-1.6c2.4,0.1,4.8,0.1,7.3,0c1,0,1.4,0.1,1.1,1.3
		c-0.7,3.4,0.5,5.1,3.9,5.8c1.9,0.4,3.8,0.3,5.6-0.4c1.3-0.5,2.3-1.4,2.4-2.9c0.1-1.4-0.5-2.5-1.8-3.3c-2.1-1.3-4.5-1.7-6.8-2.3
		c-2.1-0.6-4.3-1.1-6.3-1.9c-4.3-1.6-6.9-4.7-7.3-9.3c-0.4-4.8,1-9,5.1-12c6-4.3,17.1-4,22.8,0.6c3.2,2.5,4.6,6.9,3.5,10.9
		c-0.3,1.1-0.8,1.6-2,1.5C431.4,262.6,430.1,262.7,428.9,262.7z"/>
	<path class="st2" d="M310,269.6c0-3.4,0-6.7,0-10.1c0-1.3-0.3-1.8-1.7-1.8c-4,0-4-0.1-4-4c0-1.5,0.1-3.1,0-4.6
		c-0.1-1.2,0.4-1.5,1.5-1.5c4.2-0.1,4.1-0.2,4.2-4.3c0-1.9-0.6-4.4,0.3-5.5c1.1-1.3,3.7-0.4,5.7-0.4c5-0.1,5,0,5,5.1
		c0,5.1,0,5.1,5.1,5.1c1.8,0,3.5,0.1,5.3,0c1.1,0,1.6,0.2,1.6,1.5c-0.1,2.4-0.1,4.8,0,7.2c0,1.2-0.4,1.5-1.5,1.5
		c-2.9-0.1-5.7,0-8.6,0c-1.2,0-1.8,0.2-1.8,1.6c0.1,5.9,0.1,11.9,0.1,17.8c0,0.9,0.2,1.9,0.4,2.8c0.2,1.2,1,1.7,2.2,1.6
		c1.2-0.2,1.7-1,1.5-2c-0.3-1.6,0.5-1.8,1.8-1.7c1.5,0.1,3.1,0.1,4.6,0c1.6-0.2,2,0.6,2.2,2c1.1,6.8-3,11.8-9.9,12.2
		c-8.8,0.4-13.2-3.5-13.8-12.2C309.9,276.3,310.1,272.9,310,269.6C310,269.6,310,269.6,310,269.6z"/>
	<path class="st2" d="M382.8,260c0-9.5,0-19.1,0-28.6c0-1.6,0.3-2.2,2-2.1c2.6,0.2,5.3,0.1,7.9,0c1.2,0,1.5,0.4,1.5,1.5
		c0,19.5,0,39,0,58.5c0,1.5-0.6,1.7-1.8,1.6c-2.6-0.1-5.1-0.1-7.7,0c-1.6,0.1-1.9-0.5-1.9-2C382.8,279.4,382.8,269.7,382.8,260z"/>
	<path class="st1" d="M415.8,343.6c0-6.5,0.1-13,0-19.5c0-1.8,0.5-2.3,2.2-2.2c2.5,0.1,5,0.1,7.5,0c1.2,0,1.5,0.4,1.5,1.5
		c0,13.5,0,26.9,0,40.4c0,1.3-0.5,1.6-1.7,1.6c-2.6-0.1-5.1-0.1-7.7,0c-1.4,0.1-1.9-0.4-1.9-1.8
		C415.8,356.9,415.8,350.2,415.8,343.6z"/>
	<path class="st1" d="M413.6,309.6c0-4.3,3.4-7.9,7.7-8c4.3-0.1,7.9,3.4,8,7.7c0.1,4.4-3.4,8.1-7.8,8.1
		C417.1,317.3,413.6,313.9,413.6,309.6z"/>
	<path class="st3" d="M126.2,287.1c3,12.5,5.2,25.2,6,38.1c0.2,3.8-1.5,6.3-4.3,8.3c-4.9,3.4-10.5,5-16.2,5.7
		c-8.4,1-16.5,0.2-24.3-3.3c-1.5-0.7-3-1.5-4.4-2.5c-2.8-1.9-4.2-4.4-4.1-8c0.4-10.4,2.4-20.6,4.3-30.8c0.5-2.5,1.1-5,1.7-7.5
		c0,0.2,0,0.4,0.1,0.6c3.9,9.6,9.9,17.7,17.9,24.3c1.8,1.5,3.7,1.4,5.6-0.3c1.9-1.7,3.8-3.4,5.6-5.3
		C119.4,300.8,123.5,294.4,126.2,287.1z"/>
	<path class="st2" d="M126.2,287.1c-2.7,7.3-6.8,13.7-12.2,19.3c-1.8,1.9-3.6,3.6-5.6,5.3c-1.9,1.6-3.8,1.7-5.6,0.3
		c-8-6.6-14-14.7-17.9-24.3c-0.1-0.2-0.1-0.4-0.1-0.6c0.1-2.1,1.3-2.8,3.2-2.8c11.6,0,23.3,0,34.9,0
		C124.9,284.3,126.1,285.1,126.2,287.1z"/>
	<path class="st2" d="M129.1,287.3c0-2.7,0.3-3,3-3c4.6,0,9.2,0.1,13.8,0c1.9,0,2.6,0.8,2.6,2.6c0.2,5.5-4.1,10.1-9.5,10.2
		C133.5,297.2,129.1,292.9,129.1,287.3z"/>
	<path class="st2" d="M72.4,284.3c2.5,0,5,0,7.5,0c1.4,0,2,0.6,2.1,1.9c0.3,4-1.2,7.2-4.6,9.4c-3.4,2.1-7,2.1-10.4-0.1
		c-3.4-2.2-4.7-5.5-4.4-9.4c0.1-1.3,0.8-1.8,2-1.7C67.2,284.4,69.8,284.3,72.4,284.3z"/>
	<path class="st1" d="M408.5,339c-0.3-3-1.2-5.9-2.5-8.6c-4.2-9.1-15.9-12.4-24.7-5.9c0-6.7-0.1-13,0-19.4c0-1.8-0.4-2.5-2.3-2.4
		c-2.3,0.2-4.6,0.2-6.8,0c-2-0.2-2.4,0.5-2.4,2.4c0.1,17.8,0,35.6,0.1,53.4c0,2.2-1,5.2,0.5,6.5c1.3,1.1,4.2,0.4,6.4,0.4
		c3.6,0,3.6,0,4.3-3.5c2.9,3.4,6.6,3.9,10.8,4c6.7,0.1,11.1-3.1,14.1-8.7C409,351.4,409.3,345.2,408.5,339z M396.6,350.5
		c-1.3,3.3-4,4.9-7.4,4.8c-3.3-0.1-5.6-1.9-6.9-5.2c-0.7-2-1-4-0.8-5.7c-0.1-3.3,0.4-6.1,1.8-8.6c1.4-2.6,3.6-4,6.6-3.9
		c3,0.1,5.2,1.5,6.4,4.3C398.2,340.8,398.5,345.7,396.6,350.5z"/>
	<path class="st1" d="M559.6,343.9c0-13,0-26.1,0-39.1c0-1.8-0.5-2.3-2.2-2.1c-2.2,0.1-4.4,0.1-6.6,0c-1.8-0.1-2.4,0.3-2.4,2.2
		c0.1,5.9,0.1,11.9,0,17.8c0,0.5,0.3,1.2-0.4,1.5c-9.1-6.1-19.2-3.5-23.8,6.5c-3.7,8-3.6,16.3-0.6,24.6c3.9,10.8,16.9,13.9,25.5,6.6
		c0.1,0.6,0.1,0.9,0.1,1.1c-0.3,1.9,0.5,2.4,2.3,2.3c2-0.2,4.1-0.1,6.2,0c1.5,0.1,1.8-0.5,1.8-1.9
		C559.6,357,559.6,350.5,559.6,343.9z M547.9,350.4c-0.1,0.3-0.3,0.5-0.4,0.8c-1.4,2.5-3.6,4.1-6.6,4c-3,0-5.5-1.3-6.9-4
		c-2.7-5.4-2.5-10.8,0.7-15.9c2.9-4.7,9.5-4.4,12.4,0.4c0.2,0.3,0.3,0.5,0.4,0.8c0.9,2,1.5,4.6,1.5,7.7
		C549,346.3,548.8,348.4,547.9,350.4z"/>
	<path class="st2" d="M298.9,258c-3.4-7.2-9.1-11.2-17.1-11.4c-8-0.1-14,3.5-17.6,10.6c-2.9,5.9-3.4,12.1-2.3,18.4
		c1.6,9.3,7.2,14.7,16.5,16c9.3,1.3,17.4-2.7,20.9-10.4c1.6-3.5,2.1-7.3,2.1-11.1C301.4,266,300.7,261.9,298.9,258z M288.8,276.1
		c-1.1,3.3-3.4,4.8-7.3,4.8c-3.9,0-6.6-1.5-7.5-4.8c-1.3-4.6-1.3-9.3,0.4-13.8c1.1-3,3.6-4.5,6.8-4.6c3.3-0.1,5.8,1.5,7.1,4.6
		c1,2.3,1.1,4.7,1.3,7.2C289.5,271.7,289.5,274,288.8,276.1z"/>
	<path class="st1" d="M294.3,332.1c-3.4-7.2-9.2-11-17.3-11c-8,0-13.8,3.7-17.4,10.9c-2.3,4.7-2.9,9.6-2.6,14.7
		c0.6,12.3,7.6,19,19.9,19c10.6,0,16.9-4.4,19.2-13.9C297.8,345,297.3,338.4,294.3,332.1z M284.9,348c-0.8,6.2-6.1,9.1-11.8,6.6
		c-2-0.9-3.1-2.4-3.7-4.4c-1.2-4.3-1.1-8.7,0.4-13c1.2-3.4,3.6-5.1,7.1-5.2c3.4,0,5.9,1.7,7.2,5.1c0.3,0.8,0.5,1.5,0.6,2.3
		c0.2,1.7,0.4,3.3,0.5,4.9C285.1,345.6,285.1,346.8,284.9,348z"/>
	<path class="st2" d="M371.5,276.6c-2,0.1-4,0.1-5.9,0c-1,0-1.4,0.2-1.4,1.3c0,2-1.2,3.2-3.1,3.8c-5.9,1.8-11.3-1.8-11.9-7.9
		c-0.1-1.3,0.1-1.8,1.6-1.8c3.4,0.1,6.9,0,10.4,0c3.6,0,7.2,0,10.8,0c0.7,0,1.5,0.1,1.7-0.9c1.4-5.8,1.9-11.6-1.4-17
		c-5.9-9.7-21.7-10.1-29-0.8c-4.7,6-5.5,12.9-5,20.2c1.2,14.7,16.4,23,29.5,16.3c4.6-2.3,6.7-6.5,5.9-11.2
		C373.5,277.3,373.1,276.5,371.5,276.6z M349.7,262.8c0.2-3,3.2-5.8,6.5-6.1c4.2-0.4,7,1.2,7.9,4.3c0.7,2.4,0.3,2.8-2.1,2.9
		c-1.7,0-3.4,0-5.1,0c-2.1,0-4.1,0-6.2,0C350,263.9,349.6,263.7,349.7,262.8z"/>
	<path class="st1" d="M491.5,346.4c3.5,0.1,6.9,0,10.4,0c2.6,0,5.3,0,7.9,0c4.4,0,4.5,0,5.1-4.3c0.8-5.9,0.4-11.6-4.1-16.2
		c-7.7-8-22.7-6.1-28.4,3.8c-4.6,8-4.9,16.5-1.8,25c2.1,5.8,6.4,9.4,12.4,10.8c2.9,0.7,6,0.1,9,0.2c3.4,0.1,6.3-1.1,8.9-3.3
		c3.1-2.6,4-6,3.3-9.9c-0.2-1-0.7-1.5-1.8-1.5c-2.1,0.1-4.1,0.1-6.2,0c-1.1,0-1.5,0.3-1.5,1.5c0,1.7-1.1,2.8-2.7,3.4
		c-5.8,2.1-11.6-1.5-12.2-7.6C489.6,346.9,489.9,346.3,491.5,346.4z M490.2,337.1c0.2-2.8,2.9-5.6,6.1-6.1c3.9-0.6,7,0.7,8.2,3.6
		c1.1,2.7,0.6,3.5-2.2,3.5c-1.6,0-3.2,0-4.8,0c-2,0-4,0-5.9,0C490.8,338,490.1,338.3,490.2,337.1z"/>
</g>
</svg>
