<?xml version="1.0" encoding="utf-8"?>
<!-- Generator: Adobe Illustrator 26.3.1, SVG Export Plug-In . SVG Version: 6.00 Build 0)  -->
<svg version="1.1" id="Layer_1" xmlns="http://www.w3.org/2000/svg" xmlns:xlink="http://www.w3.org/1999/xlink" x="0px" y="0px"
	 viewBox="0 0 595.3 595.3" style="enable-background:new 0 0 595.3 595.3;" xml:space="preserve">
<style type="text/css">
	.st0{fill:#FFFFFF;}
	.st1{fill:#01ADEF;}
	.st2{fill:#2F4364;}
</style>
<path class="st0" d="M297.6,595.3L297.6,595.3C133.3,595.3,0,462,0,297.6l0,0C0,133.3,133.3,0,297.6,0l0,0
	C462,0,595.3,133.3,595.3,297.6l0,0C595.3,462,462,595.3,297.6,595.3z"/>
<g>
	<path class="st1" d="M297.3,483.3c-43.2,0-86.3,0-129.5,0c-7.6,0-15.3-0.8-22.7-2.5c-20.2-4.6-30.6-16.1-33.3-36.3
		c-4.1-28.4-3-57.1-1.9-85.8c1.1-30.1,3.8-59.8,7.6-89.6c3-22.9,6.3-45.9,11.7-68.6c1.1-4.1,0.5-6.3-3.3-8.7
		c-15.3-10.1-22.1-27.9-18.3-44.8c3.8-18,17.2-30.9,35.2-34.1c18.9-3.6,38.8,6.8,47,24.6c1.9,4.1,3.3,5.5,8.2,4.1
		c66.4-18.6,133-18.6,199.4,0c4.1,1.1,5.7,0.5,7.4-3.6c7.9-17.8,25.4-27.6,44.8-25.7c17.2,1.6,33.1,15.3,37.4,32.2
		c4.6,18.9-2.5,37.2-18.9,48.1c-2.2,1.6-3.8,2.5-3,6c9.3,38,13.7,76.8,16.9,115.6c3,35,4.9,69.9,3.6,104.9c-0.3,9.8-1.6,19.4-3,29.2
		c-2.5,16.9-12.8,26.5-28.4,31.4c-8.7,2.7-17.8,3.6-26.8,3.6C384.5,483.3,341,483.3,297.3,483.3z M354.2,269.6
		c-0.3-5.5-3.6-7.6-8.7-7.6c-31.7,0-63.7,0-95.3,0c-5.2,0-8.5,1.9-8.7,7.6c-1.6,6.8-3.3,13.7-4.6,20.5
		c-5.2,27.9-10.7,55.7-11.7,84.1c-0.3,9.8,3.6,16.4,11.2,21.9c3.8,2.7,7.6,4.9,12,6.8c21.3,9.6,43.7,11.7,66.4,9
		c15.8-1.9,31.1-6.3,44.3-15.6c7.9-5.5,12.6-12.3,11.7-22.7C368.6,338.5,362.6,304.1,354.2,269.6z M362.1,270.2c0,15,12,27,27,26.8
		c15-0.3,26.5-12.8,26-27.9c-0.3-4.9-1.9-7.1-7.1-7.1c-12.6,0.3-25.1,0-37.7,0C362.9,262,362.4,262.8,362.1,270.2z M207.2,262
		c-7.1,0-13.9,0-21,0c-3.6,0-5.2,1.4-5.5,4.6c-0.8,10.9,2.7,19.7,12,25.7c9.3,6,19.1,6,28.4,0.3c9.3-5.7,13.4-14.5,12.6-25.7
		c-0.3-3.6-1.9-5.2-5.7-5.2C220.8,262.3,214,262,207.2,262z"/>
	<path class="st2" d="M354.2,269.6c-7.4,19.9-18.6,37.4-33.3,52.7c-4.9,5.2-9.8,9.8-15.3,14.5c-5.2,4.4-10.4,4.6-15.3,0.8
		c-21.9-18-38.2-40.2-48.9-66.4c-0.3-0.5-0.3-1.1-0.3-1.6c0.3-5.7,3.6-7.6,8.7-7.6c31.7,0,63.7,0,95.3,0
		C350.6,262,353.9,264.2,354.2,269.6z"/>
	<path class="st2" d="M362.1,270.2c0-7.4,0.8-8.2,8.2-8.2c12.6,0,25.1,0.3,37.7,0c5.2,0,7.1,2.2,7.1,7.1c0.5,15-11.2,27.6-26,27.9
		C374.1,297.2,362.1,285.5,362.1,270.2z"/>
	<path class="st2" d="M207.2,262c6.8,0,13.7,0,20.5,0c3.8,0,5.5,1.6,5.7,5.2c0.8,10.9-3.3,19.7-12.6,25.7
		c-9.3,5.7-19.1,5.7-28.4-0.3c-9.3-6-12.8-15-12-25.7c0.3-3.6,2.2-4.9,5.5-4.6C193,262.3,200.1,262,207.2,262z"/>
</g>
</svg>
