<svg xmlns="http://www.w3.org/2000/svg" xml:space="preserve" id="Layer_1" x="0" y="0" style="enable-background:new 0 0 595.3 595.3" version="1.1" viewBox="0 0 595.3 595.3"><style>.st1{fill:#c5e148}.st2{fill:#121920}.st3{fill:#fefefd}</style><path d="M297.6 595.3C133.3 595.3 0 462 0 297.6 0 133.3 133.3 0 297.6 0 462 0 595.3 133.3 595.3 297.6c0 164.4-133.3 297.7-297.7 297.7" style="fill:#fff"/><path d="M278.4 82.2H317c5.8 2.4 12 2.3 18 3.3 86.6 14.7 157.3 84.1 173.8 170.4 1.7 8.7 1.8 17.8 4.6 26.3v31.3c-2.8 5.9-2.3 12.4-3.3 18.6C491 449.5 380.2 529.5 263.2 510.2 146.9 491.1 67.8 384 84.1 268 96.6 179.4 161 108.7 247.9 88.1c10.1-2.4 20.3-3.9 30.5-5.9m19.3 32.3c-101.3 0-183.3 81.7-183.4 182.6-.1 100.9 81.5 183.5 181.3 183.6 102.1.1 184.9-81.3 185-181.9.1-102-81.4-184.2-182.9-184.3" class="st1"/><path d="M297.7 114.5c101.5 0 183 82.2 182.9 184.4-.1 100.6-82.9 182-185 181.9-99.8-.1-181.4-82.8-181.3-183.6.1-101 82.1-182.7 183.4-182.7M153.3 281.8v53.6c0 2.8-.1 4.9 3.9 4.8 16.4-.2 32.9.2 49.3-.2 13.8-.3 26.6-10.6 30.9-23.9 4.5-14 .8-26.7-10.7-36-1.7-1.4-2.9-2.2-1.1-4.6 14.3-19.3-.8-51.6-30.1-51.7-12.4 0-24.9.1-37.3-.1-4.1-.1-5 1.3-4.9 5.1.1 17.7 0 35.3 0 53m210.5-.1v54.1c0 2.7.1 4.4 3.7 4.3 16.6-.2 33.3.5 49.9-.3 13.7-.6 23.7-8.3 29.2-20.8 5.1-11.6 5.1-23.9-3.9-33.2-6-6.2-6.4-10-3.3-17.9 8.3-21-9.4-43.6-33.5-44.1-12.4-.3-24.9.1-37.3-.1-4.1-.1-4.9 1.3-4.9 5.1.2 17.6.1 35.2.1 52.9m-51.4 21c-5.9-7.6-11.4-15.2-17.4-22.4-2.5-3.1-2.9-4.6 1-7.1 6.9-4.5 12.4-10.4 11.8-19.6-.5-8.2-7.1-15-15.4-16-10.8-1.4-20.5 4-23.7 13.2-2.9 8.2-.7 15.9 3.4 23 1.8 3.2 2.1 5-1.6 6.9-4.7 2.4-8.3 6.3-11.4 10.5-11.7 15.8-2.7 37.3 16.7 39.5 8.1 1 15.9-1 22-6.3 5.9-5.1 9.4-4.7 15.4.5 13.3 11.5 28.3 6 32.2-11 .4-1.8 2.3-4.4-1.4-5.2-3-.6-3.9 1-4.8 3.7-2.5 7.8-7.6 9.3-14.2 4.4-2.1-1.6-3.7-3.7-5.6-5.4-2.8-2.5-2.7-4.7-.2-7.6 2.5-2.8 4.3-6.3 6.4-9.4 4.2-6.2 7.1-13.6 15.4-16.1 2.5-.7 1.2-3.1 1.2-4.6 0-2.2-1.9-1.5-3.2-1.5-6.8-.1-13.6-.1-20.5 0-1.6 0-3.9-.6-3.7 2.4.1 1.8-.3 3.4 2.4 4 5 1.1 5.2 5.1 4.2 9-1.5 5.7-5.2 10-9 15.1m-80.8 81.2c.2 2.8.2 5 .5 7.2 1.1 7.7 6.3 12.3 13.7 12.2 7.6-.1 12.6-4.6 13.5-12.4.6-4.6.5-9.2-.1-13.8-.9-7.1-5.7-11.5-12.8-11.8-7.6-.3-12.9 3.6-14.2 10.8-.4 2.8-.4 5.6-.6 7.8m90.1-18.4c-3 0-6 .1-9 0-2.6-.1-3.6.8-3.6 3.4.1 10.2.1 20.4 0 30.7 0 2.6 1.1 3.5 3.6 3.4 6-.1 12-.1 18 0 2.2 0 3.2-.7 3.2-3.1.1-2.7-1-3.5-3.6-3.4-2.8.1-5.6-.1-8.4.1-3.4.2-5.6-.1-5.6-4.6 0-4.4 2-5 5.5-4.7 2 .2 4-.1 6 .1 2.5.2 3.6-.7 3.5-3.4-.1-2.5-1.2-3-3.3-2.9-2.2.1-4.4-.1-6.6.1-3.3.3-5.1-.4-5.1-4.4 0-3.9 1.6-4.8 5-4.6 3 .2 6-.1 9 .1 2.6.1 3.5-1 3.4-3.5 0-2.4-1-3.2-3.2-3.1-2.8-.2-5.8-.2-8.8-.2M218 384.4c0-5.2-.1-10.4 0-15.6.1-2.7-1.1-3.4-3.6-3.4-2.3 0-4 .2-3.8 3.1.1 1.2 0 2.4 0 3.6 0 9.6 0 9.5-9.5 8.9-2.5-.2-3.6-.9-3.5-3.5.1-3.2 0-6.4 0-9.6 0-2.3-1.4-2.6-3.2-2.4-1.6.2-4-.8-4.1 2.1-.1 11 0 22-.1 33 0 2.4 1.7 2.4 3.3 2.3 1.6-.1 3.9.7 4-2.2.1-2.2.3-4.4 0-6.6-.8-5.4 1.2-7.2 6.8-7 4.9.1 7.1 1.2 6.3 6.3-.3 2 .1 4-.1 6-.2 2.5.6 3.7 3.3 3.6 2.5-.1 4.2-.4 4.1-3.5 0-5.1.1-10.1.1-15.1m174.1-19.1c-8.1.1-13.1 4-13.7 10.4-.5 6.6 3.2 10.3 11.7 11.5 1 .1 2 .3 3 .5 2.6.5 4.6 1.9 4.4 4.8-.3 2.9-2.5 3.9-5.1 4.2-3 .3-6 .1-8.7-1.6-3.1-1.9-4.7.9-5.7 2.6-1.2 2.2 1.5 2.9 2.9 3.5 5.3 2.5 10.9 2.9 16.4.9 5.4-1.9 8-5.9 7.5-11.6-.5-5.3-3.8-8.2-8.8-9.2-2.2-.4-4.4-.6-6.5-1.1-2-.5-3.8-1.5-3.7-4 .1-2.6 1.8-3.9 4.1-4.5 2.7-.7 5.2-.1 7.6 1.2 3 1.7 4.2-.9 5.1-2.5 1.4-2.4-1.4-2.8-2.7-3.5-2.6-1.4-5.4-1.8-7.8-1.6m-37.2 16c0-4-.1-8 0-12 .1-2.8-.8-3.9-3.8-3.9-2.8 0-3.9.9-3.8 3.8.1 10 .1 20 0 30 0 3 1.2 3.8 4 3.7 5-.1 10-.1 15 0 2.2 0 3.8-.1 3.8-3.1 0-2.8-1.2-3.2-3.6-3.4-11.7-.8-11.7-.8-11.7-12.8.1-.7.1-1.5.1-2.3m-75.3 5.8c0 4 .1 8 0 12-.1 2.8.8 3.8 3.7 3.8 3 0 3.7-1.2 3.7-3.9-.1-6.8.3-13.7-.1-20.5-.3-5 .8-7.7 6.4-6.7 2.6.4 3.5-.9 3.5-3.5-.1-2.5-1.2-3-3.4-3-6.8.1-13.6.1-20.5 0-2.4 0-3.1 1-3.1 3.2s.8 3.7 3.1 3.2c7.3-1.5 7.1 3.2 6.8 8-.2 2.6-.1 5-.1 7.4" class="st2"/><path d="M153.3 281.8c0-17.7.1-35.3-.1-53 0-3.8.9-5.2 4.9-5.1 12.4.2 24.9.1 37.3.1 29.3.1 44.4 32.4 30.1 51.7-1.7 2.3-.6 3.2 1.1 4.6 11.5 9.3 15.2 22 10.7 36-4.3 13.3-17 23.5-30.9 23.9-16.4.4-32.9 0-49.3.2-4 .1-3.9-1.9-3.9-4.8.1-17.9.1-35.8.1-53.6m39.5 11.9v.4c-5 0-11.6-1.9-14.5.5-3.4 2.9-.8 9.7-1.2 14.8-.1 1.2.1 2.4 0 3.6-.2 2.5.5 3.6 3.3 3.6 8.2-.1 16.4.2 24.6-.1 6.6-.2 10.9-4.9 11-11.1.1-6.5-4.3-11.2-11.2-11.6-4-.3-8-.1-12-.1m-3.7-46.4c-12.1 0-12.1 0-12.1 12 0 2.6.1 5.2 0 7.8-.1 2.4.8 3.1 3.1 3.1 5.6-.1 11.2.2 16.9-.1 6.4-.3 10.9-5.2 10.9-11.4 0-6.4-4.7-11.1-11.5-11.4-2.4-.1-4.8 0-7.3 0M363.8 281.7c0-17.6.1-35.3-.1-52.9 0-3.8.8-5.2 4.9-5.1 12.4.3 24.9-.1 37.3.1 24.1.5 41.8 23.1 33.5 44.1-3.2 8-2.7 11.7 3.3 17.9 9 9.3 9 21.6 3.9 33.2-5.5 12.5-15.5 20.2-29.2 20.8-16.6.8-33.3.1-49.9.3-3.6 0-3.7-1.6-3.7-4.3.1-18 0-36.1 0-54.1m38.6 34.9c4.5 0 8.2.1 11.8 0 7.5-.2 12.2-4.5 12.4-11.1.2-6.8-4.6-11.5-12.4-11.7-6.6-.2-13.3.4-19.8-.2-6.1-.6-7.7 1.7-7 7.4.6 4.9-2 11.4 1 14.5 3.2 3.4 9.8.4 14 1.1m-3-69.3c-2.2 0-4.4.2-6.6-.1-4-.5-5.8.7-5.4 5.1.4 4.8.1 9.6.1 14.4 0 2 .2 3.5 2.8 3.4 6-.1 12.1.2 18.1-.2 6-.4 10.1-5.5 10-11.5-.1-5.9-4.4-10.7-10.4-11.1-3-.2-5.8 0-8.6 0M312.4 302.7c3.7-5.1 7.5-9.4 8.9-15 1-4 .8-7.9-4.2-9-2.7-.6-2.3-2.2-2.4-4-.1-3 2.1-2.4 3.7-2.4 6.8-.1 13.6-.1 20.5 0 1.2 0 3.2-.7 3.2 1.5 0 1.6 1.3 3.9-1.2 4.6-8.2 2.4-11.2 9.8-15.4 16.1-2.1 3.2-3.9 6.6-6.4 9.4-2.5 2.9-2.6 5 .2 7.6 1.9 1.7 3.6 3.9 5.6 5.4 6.5 4.9 11.7 3.4 14.2-4.4.9-2.7 1.8-4.3 4.8-3.7 3.7.8 1.8 3.4 1.4 5.2-3.9 17-18.9 22.5-32.2 11-6-5.2-9.5-5.5-15.4-.5-6.1 5.2-13.9 7.2-22 6.3-19.4-2.3-28.4-23.7-16.7-39.5 3.1-4.2 6.8-8.1 11.4-10.5 3.7-1.9 3.4-3.8 1.6-6.9-4.1-7.2-6.2-14.8-3.4-23 3.2-9.3 12.9-14.6 23.7-13.2 8.3 1.1 14.8 7.8 15.4 16 .6 9.2-4.9 15.1-11.8 19.6-3.9 2.5-3.5 4-1 7.1 6.1 7.2 11.6 14.7 17.5 22.3m-24 17.1c3.3.2 6.4-1.5 9.6-3.2 2.8-1.5 3.8-2.7 1.3-5.7-6.3-7.7-12.5-15.6-18.3-23.8-2.6-3.6-4.4-2.8-7-.5-5.6 5-7.1 11.4-4.3 19 3.2 8.8 10.3 14.3 18.7 14.2m10.5-64.2c0-5-1.3-8.7-5.4-10.7-3.3-1.7-6.6-1.3-9.6 1-3.6 2.9-3.9 6.9-2.9 10.9 1 4.1 2.8 7.9 5.3 11.3.8 1.1 1.5 2.8 3.2 1.3 4.6-3.8 9.5-7.6 9.4-13.8" class="st3"/><path d="M231.6 383.9c.2-2.2.3-5 .7-7.7 1.3-7.2 6.6-11.2 14.2-10.8 7.1.3 11.9 4.7 12.8 11.8.6 4.6.6 9.2.1 13.8-1 7.8-5.9 12.3-13.5 12.4-7.4.1-12.7-4.5-13.7-12.2-.4-2.3-.5-4.5-.6-7.3m20.7.2c-.1-2.2-.1-4.6-.5-7-.5-3.4-2.7-5.4-6.1-5.4-3.3.1-5.6 1.7-6.2 5.3-.8 4.8-.8 9.6 0 14.3.5 3.5 2.6 5.4 6.1 5.3 3.8-.1 5.9-2.1 6.3-5.8.2-2.1.3-4.3.4-6.7M321.7 365.5c3 0 6 .1 9 0 2.3-.1 3.2.7 3.2 3.1 0 2.6-.8 3.7-3.4 3.5-3-.1-6 .1-9-.1-3.4-.2-5 .7-5 4.6 0 4.1 1.7 4.7 5.1 4.4 2.2-.2 4.4 0 6.6-.1 2.1-.1 3.3.4 3.3 2.9.1 2.7-1 3.6-3.5 3.4-2-.1-4 .1-6-.1-3.5-.3-5.5.3-5.5 4.7 0 4.5 2.2 4.8 5.6 4.6 2.8-.1 5.6.1 8.4-.1 2.5-.1 3.6.6 3.6 3.4-.1 2.4-1 3.1-3.2 3.1-6-.1-12-.1-18 0-2.5 0-3.6-.8-3.6-3.4.1-10.2.1-20.4 0-30.7 0-2.6 1-3.6 3.6-3.4 2.7.3 5.8.2 8.8.2M218 384.4c0 5-.1 10 .1 15 .1 3.2-1.5 3.5-4.1 3.5-2.7.1-3.5-1.1-3.3-3.6.1-2-.2-4 .1-6 .8-5.1-1.4-6.2-6.3-6.3-5.6-.2-7.6 1.6-6.8 7 .3 2.2.1 4.4 0 6.6-.1 2.9-2.3 2.1-4 2.2-1.6.1-3.3.2-3.3-2.3 0-11 0-22 .1-33 0-2.9 2.5-1.9 4.1-2.1 1.8-.2 3.2.1 3.2 2.4 0 3.2.1 6.4 0 9.6-.1 2.6 1 3.3 3.5 3.5 9.5.6 9.5.8 9.5-8.9 0-1.2.1-2.4 0-3.6-.2-2.9 1.5-3.1 3.8-3.1 2.5 0 3.7.7 3.6 3.4-.3 5.3-.2 10.5-.2 15.7M392.1 365.3c2.3-.1 5.1.2 7.6 1.6 1.3.7 4.1 1.1 2.7 3.5-.9 1.6-2.1 4.1-5.1 2.5-2.3-1.3-4.9-1.9-7.6-1.2-2.3.6-4 1.9-4.1 4.5-.1 2.5 1.7 3.5 3.7 4 2.1.5 4.4.7 6.5 1.1 5.1 1 8.4 3.8 8.8 9.2.5 5.7-2.1 9.8-7.5 11.6-5.5 1.9-11.1 1.6-16.4-.9-1.4-.7-4.1-1.4-2.9-3.5 1-1.8 2.6-4.5 5.7-2.6 2.7 1.7 5.7 1.9 8.7 1.6 2.6-.2 4.8-1.3 5.1-4.2.3-2.9-1.7-4.3-4.4-4.8-1-.2-2-.4-3-.5-8.5-1.2-12.2-4.9-11.7-11.5.8-6.4 5.8-10.4 13.9-10.4M354.9 381.3v2.4c0 11.9 0 12 11.7 12.8 2.4.2 3.6.6 3.6 3.4 0 3-1.7 3.1-3.8 3.1-5-.1-10-.1-15 0-2.7.1-4-.7-4-3.7.1-10 .1-20 0-30 0-2.9 1-3.8 3.8-3.8 3 0 3.9 1.1 3.8 3.9-.2 3.9-.1 7.9-.1 11.9M279.6 387.1c0-2.4-.1-4.8 0-7.2.3-4.9.6-9.5-6.8-8-2.3.5-3.1-1-3.1-3.2 0-2.3.7-3.3 3.1-3.2 6.8.1 13.6.1 20.5 0 2.2 0 3.3.5 3.4 3 .1 2.6-.9 3.9-3.5 3.5-5.6-1-6.7 1.7-6.4 6.7.4 6.8 0 13.6.1 20.5.1 2.7-.7 3.9-3.7 3.9-2.9 0-3.9-1-3.7-3.8.2-4.2.1-8.2.1-12.2" class="st1"/><path d="M192.8 293.7c4 0 8-.2 12 0 6.9.4 11.3 5.1 11.2 11.6-.1 6.2-4.4 10.9-11 11.1-8.2.3-16.4 0-24.6.1-2.8 0-3.5-1.1-3.3-3.6.1-1.2-.1-2.4 0-3.6.4-5.1-2.3-12 1.2-14.8 2.9-2.5 9.5-.5 14.5-.5zM189.1 247.3c2.4 0 4.8-.1 7.2 0 6.8.3 11.5 5 11.5 11.4 0 6.1-4.5 11-10.9 11.4-5.6.3-11.2 0-16.9.1-2.3.1-3.2-.7-3.1-3.1.2-2.6 0-5.2 0-7.8.2-12 .2-12 12.2-12M402.4 316.6c-4.2-.6-10.8 2.3-14.1-1.2-3-3.1-.3-9.6-1-14.5-.7-5.6.9-7.9 7-7.4 6.6.6 13.2 0 19.8.2 7.8.2 12.6 4.9 12.4 11.7-.2 6.6-5 10.9-12.4 11.1-3.6.1-7.2.1-11.7.1M399.4 247.3c2.8 0 5.6-.2 8.4 0 6 .5 10.3 5.2 10.4 11.1.1 6.1-4 11.1-10 11.5-6 .4-12 0-18.1.2-2.7.1-2.8-1.4-2.8-3.4.1-4.8.3-9.7-.1-14.4-.4-4.5 1.4-5.6 5.4-5.1 2.3.3 4.5.1 6.8.1M288.4 319.8c-8.4.1-15.5-5.5-18.7-14.1-2.8-7.7-1.3-14 4.3-19 2.6-2.3 4.4-3.2 7 .5 5.8 8.1 12 16 18.3 23.8 2.4 3 1.5 4.2-1.3 5.7-3.2 1.6-6.4 3.4-9.6 3.1M298.9 255.6c.1 6.2-4.7 10-9.3 13.9-1.7 1.5-2.4-.2-3.2-1.3-2.5-3.4-4.3-7.2-5.3-11.3-1-4.1-.7-8 2.9-10.9 2.9-2.4 6.2-2.8 9.6-1 3.9 2 5.2 5.6 5.3 10.6M252.3 384.1c-.1 2.4-.2 4.6-.4 6.8-.4 3.8-2.5 5.8-6.3 5.8-3.5.1-5.6-1.8-6.1-5.3-.7-4.8-.7-9.5 0-14.3.6-3.6 2.9-5.3 6.2-5.3 3.4-.1 5.6 2 6.1 5.4.4 2.2.4 4.7.5 6.9" class="st2"/></svg>