<?xml version="1.0" encoding="utf-8"?>
<!-- Generator: Adobe Illustrator 26.3.1, SVG Export Plug-In . SVG Version: 6.00 Build 0)  -->
<svg version="1.1" id="Layer_1" xmlns="http://www.w3.org/2000/svg" xmlns:xlink="http://www.w3.org/1999/xlink" x="0px" y="0px"
	 viewBox="0 0 595.3 595.3" style="enable-background:new 0 0 595.3 595.3;" xml:space="preserve">
<style type="text/css">
	.st0{fill:#FFFFFF;}
	.st1{fill:#9ECFC8;}
	.st2{fill:#003057;}
	.st3{fill:#B42857;}
</style>
<path class="st0" d="M297.6,595.3L297.6,595.3C133.3,595.3,0,462,0,297.6l0,0C0,133.3,133.3,0,297.6,0l0,0
	C462,0,595.3,133.3,595.3,297.6l0,0C595.3,462,462,595.3,297.6,595.3z"/>
<g>
	<rect x="95.6" y="296.8" class="st1" width="98.2" height="105"/>
	<path class="st2" d="M195.4,90.7c31.8,0,72.4-9.8,92.1,3.1c6.3,11.5,4.9,42.5,6,65.2c1.1,19.1,0,45.4,0,64.1
		c11.6-7.6,14.3-8.7,20.3-11.4c69.7-34.7,144.2-17.6,171.1,39.8c10.4,22.6,13.2,46.1,13.7,69.5c3.2,80.5-6.9,110.2-5.8,166
		c0,13.7,2.5,21-17.8,21c-74,0.8-73.5,1.6-74-51.9c-0.5-46.1,5.5-92.1-6.6-137.8c-4.4-16.4-11-31.2-39.5-32.8
		c-31.3-1.6-44.4,12.9-51.6,30.8c-11,28.5-8.2,58.1-11,87c-33.5,8.6-66.3,11.7-99.2-1.6c0-28.5-2.2-147.9-0.6-176.8
		C194.3,180.9,199.3,141.2,195.4,90.7z"/>
	<path class="st3" d="M194.3,507.1c0.5-35.1,0.5-70.2,1.1-105.4c32.4,0.8,64.2,1.6,96.5,2.7c0.5,29.3-8.4,58.1-6.8,87
		c0.5,11.7,4.1,17.2-12.9,16.4C245.8,507.1,220,507.5,194.3,507.1z"/>
</g>
<rect x="192.1" y="87.2" class="st2" width="101.8" height="196.6"/>
<rect x="401.4" y="358.5" class="st2" width="97.9" height="149.5"/>
<rect x="193.2" y="401.8" class="st3" width="99.6" height="106.2"/>
</svg>
