<?xml version="1.0" encoding="utf-8"?>
<!-- Generator: Adobe Illustrator 26.3.1, SVG Export Plug-In . SVG Version: 6.00 Build 0)  -->
<svg version="1.1" id="Layer_1" xmlns="http://www.w3.org/2000/svg" xmlns:xlink="http://www.w3.org/1999/xlink" x="0px" y="0px"
	 viewBox="0 0 595.3 595.3" style="enable-background:new 0 0 595.3 595.3;" xml:space="preserve">
<style type="text/css">
	.st0{fill:#FFFFFF;}
	.st1{fill:#EE2841;}
</style>
<path class="st0" d="M297.6,595.3L297.6,595.3C133.3,595.3,0,462,0,297.6v0C0,133.3,133.3,0,297.6,0h0
	C462,0,595.3,133.3,595.3,297.6v0C595.3,462,462,595.3,297.6,595.3z"/>
<g id="HiRaZM.tif_00000010998074713912763210000011419525906188619686_">
	<g>
		<path class="st1" d="M52.6,297.6c0-12.1,0-24.2,0-36.3c0-6.9,4.4-12.4,11.1-13.9c8.4-1.9,16.8,4.6,16.9,13.3
			c0.1,6.3,0,12.6,0,18.8c0,1,0.2,1.3,1.3,1.4c8.7,0.4,17.4,0.9,26.1,1.3c0.9,0,1.1-0.3,1-1c0-5.6,0-11.2,0-16.8
			c0-3.8,1.3-7,4.3-9.3c3.6-2.7,7.5-3.2,11.6-1.3c4.1,1.9,6.2,5.3,6.5,9.8c0,0.3,0,0.6,0,0.8c0,23.1,0,46.1,0,69.2
			c0,5.6-3.4,10-8.6,11.3c-6.6,1.6-13.5-3.2-13.7-10c-0.2-6.9-0.1-13.9-0.1-20.8c0-2.6,0-2.6-2.6-2.6c-8.2,0-16.4,0-24.6,0
			c-0.9,0-1.2,0.2-1.2,1.2c0,7,0,14.1,0,21.1c0,7.1-4.5,12.6-11.5,14c-8,1.6-16.2-4.7-16.4-12.8c-0.2-8.2-0.1-16.5-0.1-24.7
			C52.6,306.1,52.6,301.9,52.6,297.6z"/>
		<path class="st1" d="M438.9,314.9c-1.3,1.9-2.8,3.6-4.3,5.1c-4.7,4.7-10.4,6.2-16.9,5.6c-8-0.8-16-6.6-17.3-17.7
			c-0.8-6.6,0.6-12.7,5.3-17.6c4.6-4.8,10.4-6.4,16.9-5.9c3.9,0.3,7.4,1.7,10.4,4.4c1.7,1.6,1.6,4-0.2,5.2c-1.2,0.8-2.8,0.7-4.1-0.4
			c-1.4-1.2-3-2.2-4.9-2.6c-7.6-1.7-14.3,2.8-15.6,10.5c-0.6,3.6-0.4,7.1,1.1,10.4c3.4,7.2,11.9,9.6,18.6,5.3c3.9-2.5,6.5-6,8.8-9.9
			c0.3-0.5,0.2-0.9,0.2-1.4c-0.1-4.2,0.7-8.2,2.7-11.9c4.2-7.4,11.7-10.3,19.1-9.7c7.8,0.7,13.4,4.6,16.5,11.8
			c1.5,3.6,2,7.3,1.6,11.2c-0.5,5.2-2.4,9.7-6.2,13.3c-3.4,3.3-7.6,4.9-12.4,5.1c-4.9,0.3-9.5-0.8-13.6-3.8c-2.2-1.6-3.9-3.6-5.2-6
			C439.3,315.6,439.1,315.3,438.9,314.9z M444.4,304c0,3.6,0.5,6.1,1.7,8.5c2.1,4.3,5.6,6.7,10.4,6.9c4.8,0.1,8.5-1.9,10.8-6.2
			c2.8-5.3,2.9-10.8,0.1-16.2c-4.2-8-15.2-8.6-20.3-1.3C445.2,298.4,444.4,301.5,444.4,304z"/>
		<path class="st1" d="M317,307.3c-4.4,0-8.8,0-13.2,0c-0.9,0-1.2,0.3-1.1,1.2c0.9,6.5,6.3,11.2,12.9,11.3c3.8,0.1,7.2-1,10.3-3.1
			c1.4-0.9,3.2-0.6,4.2,0.7c0.9,1.3,0.7,3-0.7,4c-7.4,5.6-20.2,6.1-27.7-0.6c-0.5-0.5-1-1.3-1.6-1.4c-0.6-0.1-0.9,0.9-1.5,1.4
			c-2.6,2.2-5.3,4.2-8.8,4.7c-1.8,0.2-3.6,0.2-5.3-0.2c-3.5-0.9-5.7-3.4-6.1-7c-0.1-1.1-0.2-2.2-0.2-3.3c0-7.5,0-15,0-22.5
			c0-0.8-0.2-1.2-1.1-1.1c-0.9,0.1-1.8,0-2.7,0c-1.9-0.1-3.3-1.5-3.3-3.3c0-1.7,1.5-3,3.4-3.1c0.9,0,1.7-0.1,2.6,0
			c0.8,0.1,1.1-0.2,1.1-1.1c-0.1-2.2-0.1-4.4,0-6.6c0-1.7,1.1-3.1,2.7-3.5c1.6-0.4,3.2,0.3,4.1,1.7c0.4,0.7,0.5,1.5,0.5,2.3
			c0,2.1,0,4.1,0,6.2c0,0.7,0.2,1,0.9,1c1.4,0,2.8,0,4.2,0c1.8,0,3.2,1.3,3.3,3c0,1.7-1.4,3.2-3.2,3.3c-1.5,0.1-3,0-4.5,0
			c-0.6,0-0.8,0.2-0.8,0.8c0,7.5,0,15,0,22.5c0,2.6,1.2,4.1,3.3,4.5c1.1,0.2,2.1-0.1,3-0.6c1.9-1,3.3-2.5,4.8-4.1
			c0.4-0.4,0.1-0.8-0.1-1.1c-2.1-5.7-2.2-11.4,0.1-17c3.4-8.4,11.6-13.1,20.6-12.1c9.9,1.1,16.8,9.3,16.9,19.4
			c0,2.2-1.4,3.5-3.8,3.6C325.9,307.3,321.5,307.3,317,307.3C317,307.3,317,307.3,317,307.3z M314.8,302.1c3.8,0,7.5,0,11.3,0
			c0.5,0,1.1,0.1,1-0.8c-0.5-4.3-2.3-7.8-6.3-9.9c-6.8-3.5-16.4-0.8-18.1,9.4c-0.2,1,0.1,1.2,1.1,1.2
			C307.5,302.1,311.1,302.1,314.8,302.1z"/>
		<path class="st1" d="M178.8,297.4c0-7.7,0-15.3,0-23c0-0.7,0-1.4,0.2-2c0.7-1.9,2.6-3,4.6-2.7c1.8,0.3,3.2,2,3.3,4
			c0,5.9,0,11.9,0,17.8c0,0.3,0,0.6,0,0.8c-0.1,0.6,0.2,0.8,0.8,0.8c0.1,0,0.3,0,0.4,0c9.4,0,18.8,0,28.2,0c0.9,0,1.2-0.2,1.2-1.2
			c0-6,0-12,0-18c0-3.1,2.8-5.1,5.5-4c1.4,0.5,2.3,1.6,2.5,3c0.1,0.6,0.1,1.2,0.1,1.7c0,15.1,0,30.3,0,45.4c0,0.8,0,1.7-0.3,2.4
			c-0.7,1.9-2.5,2.9-4.6,2.5c-1.8-0.3-3.2-2-3.2-4.1c0-5.1,0-10.3,0-15.4c0-1.4-0.1-2.8,0-4.1c0-0.9-0.2-1.3-1.1-1.2
			c-0.9,0.1-1.8,0-2.7,0c-8.5,0-17,0-25.5,0c-1.1,0-1.3,0.3-1.3,1.3c0,6.5,0,13,0,19.6c0,1.9-1.3,3.6-3,4c-1.9,0.4-3.7-0.5-4.6-2.2
			c-0.4-0.8-0.4-1.6-0.4-2.4C178.8,312.8,178.8,305.1,178.8,297.4z"/>
		<path class="st1" d="M490.1,290.5c2.1-2.5,4.7-4.3,7.7-5.4c2.7-1,5.5-1.2,8.3-0.5c3.4,0.8,5.8,2.8,7.1,6.1
			c0.1,0.2,0.1,0.6,0.4,0.7c0.3,0.1,0.4-0.3,0.6-0.5c3.5-4.3,8-6.7,13.6-6.6c5.9,0.1,9.6,3.4,10.3,9.3c0.1,0.6,0.2,1.3,0.2,2
			c0,8.6,0,17.2,0,25.9c0,2-1.4,3.6-3.2,3.8c-2.4,0.2-4-1.3-4-3.8c0-7.4,0-14.8,0-22.2c0-1.1,0-2.1-0.3-3.2c-0.6-2.6-2.4-4-5-4.4
			c-2.7-0.4-5,0.5-7,2.1c-1.7,1.4-3.1,3-4.3,4.7c-0.4,0.5-0.4,1-0.4,1.6c0,7.2,0,14.4,0,21.6c0,1.8-1.2,3.3-2.9,3.5
			c-1.9,0.3-3.5-0.6-4.1-2.3c-0.2-0.6-0.2-1.2-0.2-1.8c0-7,0-14,0-21c0-1-0.1-2.1-0.1-3.1c-0.2-3-2.1-4.8-5-5.3
			c-2.5-0.4-4.7,0.3-6.6,1.9c-1.9,1.5-3.4,3.4-4.8,5.4c-0.3,0.5-0.3,1-0.3,1.5c0,6.8,0,13.7,0,20.5c0,0.6,0,1.3-0.1,1.8
			c-0.5,1.7-2.1,2.7-3.9,2.5c-1.6-0.2-3-1.5-3.1-3.2c0-0.2,0-0.4,0-0.6c0-10.9,0-21.8,0-32.7c0-3,2.9-4.8,5.4-3.3
			c1.1,0.6,1.8,1.6,1.8,2.9c0,0.7,0,1.5,0,2.2C489.9,290.4,490,290.5,490.1,290.5z"/>
		<path class="st1" d="M253.5,325.7c-12.7,0-20.7-7.4-21.8-18.2c-0.5-5.3,0.4-10.3,3.4-14.8c4.4-6.6,10.9-9.1,18.6-8.4
			c7,0.6,12.4,4,15.5,10.3c3.5,7,3.4,14.2-0.2,21.1C265.4,322.6,259.3,325.6,253.5,325.7z M264.1,304.9c-0.1-2.2-0.4-4.4-1.2-6.5
			c-2-4.8-5.6-7.7-10.9-7.8c-4.9-0.1-8.7,2-10.9,6.4c-2.8,5.6-2.7,11.3,0.6,16.8c4.5,7.5,15.5,7.4,20.1-0.1
			C263.4,311,264,308.1,264.1,304.9z"/>
		<path class="st1" d="M367.9,325.7c-6.1,0-11-1.2-15.2-4.4c-1.3-1-1.7-2.4-1.2-3.8c0.5-1.3,1.9-2.1,3.3-1.9c0.8,0.1,1.4,0.5,2,1
			c3.4,2.3,7.2,3.5,11.3,3.3c1.7-0.1,3.4-0.3,4.9-1.1c1.8-0.9,2.9-2.3,3-4.4c0.1-2.1-1-3.5-2.8-4.5c-2.5-1.4-5.2-1.8-8-2.5
			c-2.8-0.7-5.7-1.4-8.3-2.8c-6.6-3.4-6.5-11.7-2.6-15.9c2.3-2.5,5.2-3.8,8.5-4.3c6.1-0.9,11.8,0.1,16.9,3.7c1,0.7,1.6,1.7,1.4,3
			c-0.2,1.2-1,2-2.1,2.3c-1.1,0.3-1.9-0.1-2.8-0.7c-4.1-2.7-8.5-3.4-13.3-2.3c-1.1,0.2-2.1,0.8-3,1.5c-2.1,1.9-1.9,4.9,0.5,6.5
			c1.8,1.2,3.8,1.7,5.9,2.2c3,0.8,6.1,1.3,9.1,2.5c3,1.2,5.6,3,6.9,6.2c2.3,5.9-0.4,12-6.3,14.6
			C373.2,325.3,370.1,325.8,367.9,325.7z"/>
		<path class="st1" d="M50.7,255.2c-1.4,3.2-1.1,6.6-1.1,10c0,22.6,0,45.1,0,67.7c0,4,0.7,7.7,3,11c0,0.1,0,0.2,0.1,0.4
			c-0.8-0.2-1.4-0.6-2-1c-4.2-2.7-6.6-6.6-6.6-11.6c0-21.7,0-43.4,0-65.1c0-4.6,2.1-8.3,5.8-11C50.1,255.3,50.3,255.1,50.7,255.2z"
			/>
		<path class="st1" d="M346.3,297.4c0,8,0,16,0,24c0,2.4-1.7,3.9-4.1,3.7c-1.7-0.1-3-1.5-3.1-3.2c0-0.3,0-0.6,0-0.8
			c0-15.8,0-31.6,0-47.4c0-0.5,0-1.1,0.2-1.6c0.6-1.7,2.2-2.7,4.1-2.4c1.7,0.2,3,1.8,3,3.6C346.3,281.3,346.3,289.3,346.3,297.4z"/>
		<path class="st1" d="M42.1,260.8c-1,2.7-1,5.5-1,8.3c0,19.6,0,39.1,0,58.7c0,3.2-0.2,6.5,1.1,9.7c-0.3-0.2-0.5-0.2-0.6-0.3
			c-3.7-2.7-6-6.3-6-10.9c-0.1-18.1-0.1-36.3,0-54.4C35.7,267.1,38.1,263.4,42.1,260.8z"/>
		<path class="st1" d="M108,341.8c-3.1-1.1-5.2-3.1-6.6-6c-0.6-1.3-0.9-2.6-0.9-4c0-5.4,0-10.9,0-16.3c0-0.7,0.3-0.9,1-0.9
			c1.1,0,2.3,0.1,3.4,0c0.9-0.1,1.1,0.3,1.1,1.1c0,5.5,0,11,0,16.5c0,3.3,0.3,6.5,2.1,9.3C108.1,341.6,108,341.7,108,341.8z"/>
		<path class="st1" d="M99.9,339.1c-4.7-1.5-7.8-5.7-7.8-10.2c0-4.4,0-8.9,0-13.3c0-0.9,0.3-1,1.1-1c1.1,0.1,2.3,0.1,3.4,0
			c0.8,0,1.1,0.2,1,1c0,4.4,0,8.9,0,13.3C97.5,332.4,97.6,335.9,99.9,339.1z"/>
		<path class="st1" d="M108.1,256.3c-1.8,3-2.2,6.3-2.1,9.7c0.1,4,0,8,0,12c0,0.9-0.2,1.2-1.2,1.1c-1.2-0.1-2.4-0.2-3.6-0.2
			c-0.4,0-0.7-0.1-0.7-0.6c0.1-4.7-0.5-9.4,0.3-14C101.5,260.3,104.2,257.7,108.1,256.3z"/>
		<path class="st1" d="M99.7,259.3c-1.9,2.9-2.2,6.1-2.2,9.4c0.1,3,0,6.1,0,9.1c0,0.7-0.2,1-0.9,0.9c-1.3-0.1-2.6-0.2-3.9-0.2
			c-0.4,0-0.7-0.1-0.6-0.6c0.1-3.5-0.4-7.1,0.2-10.5c0.7-3.9,3.1-6.6,6.7-8.2C99.2,259.2,99.3,259.1,99.7,259.3z"/>
		<path class="st1" d="M398.1,320.6c0,2.8-2.5,5.2-5.2,5.1c-2.7-0.1-5-2.5-5-5.2c0.1-2.7,2.3-4.9,5.1-4.9
			C395.8,315.6,398.1,317.9,398.1,320.6z"/>
		<path class="st1" d="M555.4,274.3c0.5-1.4,1.1-2.6,1.5-3.9c0.3-0.7,0.7-1.2,1.5-1.1c0.8,0.1,1.2,0.8,1.1,1.6c0,1.8,0,3.6,0,5.4
			c0,0.6,0,1.2-0.8,1.2c-0.8,0-0.8-0.6-0.8-1.2c0-1.4,0-2.8,0-4.3c-0.1,0-0.2,0-0.3,0c-0.6,1.4-1.1,2.9-1.7,4.3
			c-0.2,0.5-0.2,1.2-0.8,1.2c-0.6,0-0.6-0.7-0.8-1.2c-0.6-1.4-1.1-2.9-1.8-4.5c-0.3,0.7-0.2,1.1-0.2,1.6c0,1.1,0,2.3,0,3.4
			c0,0.4-0.2,0.7-0.7,0.8c-0.5,0.1-0.8-0.2-0.9-0.7c0-2.1,0-4.2,0-6.3c0-0.6,0.5-1.1,1.2-1.2c0.7-0.1,1.1,0.3,1.4,0.9
			c0.4,1,0.8,2.1,1.2,3.2C555,273.6,555,274,555.4,274.3z"/>
		<path class="st1" d="M545.4,274c0-0.8,0-1.6,0-2.4c0-0.6-0.2-0.8-0.8-0.8c-0.6,0-1.6,0.3-1.5-0.7c0-1,1-0.6,1.6-0.6
			c1.2-0.1,2.5,0,3.7,0c0.5,0,1.1,0,1.1,0.7c0,0.6-0.5,0.7-1,0.7c-1.5,0.1-1.5,0.1-1.5,1.6c0,1.4,0,2.8,0,4.1c0,0.5-0.1,1-0.8,1
			c-0.6,0-0.8-0.5-0.8-1C545.4,275.6,545.4,274.8,545.4,274z"/>
	</g>
</g>
</svg>
