<?xml version="1.0" encoding="utf-8"?>
<!-- Generator: Adobe Illustrator 26.3.1, SVG Export Plug-In . SVG Version: 6.00 Build 0)  -->
<svg version="1.1" id="Layer_1" xmlns="http://www.w3.org/2000/svg" xmlns:xlink="http://www.w3.org/1999/xlink" x="0px" y="0px"
	 viewBox="0 0 595.3 595.3" style="enable-background:new 0 0 595.3 595.3;" xml:space="preserve">
<style type="text/css">
	.st0{fill:#FFFFFF;}
	.st1{fill:#C5E148;}
	.st2{fill:#121920;}
	.st3{fill:#FEFEFD;}
</style>
<path class="st0" d="M297.6,595.3L297.6,595.3C133.3,595.3,0,462,0,297.6l0,0C0,133.3,133.3,0,297.6,0l0,0
	C462,0,595.3,133.3,595.3,297.6l0,0C595.3,462,462,595.3,297.6,595.3z"/>
<g>
	<path class="st1" d="M278.4,82.2c12.9,0,25.7,0,38.6,0c5.8,2.4,12,2.3,18,3.3c86.6,14.7,157.3,84.1,173.8,170.4
		c1.7,8.7,1.8,17.8,4.6,26.3c0,10.4,0,20.9,0,31.3c-2.8,5.9-2.3,12.4-3.3,18.6C491,449.5,380.2,529.5,263.2,510.2
		C146.9,491.1,67.8,384,84.1,268C96.6,179.4,161,108.7,247.9,88.1C258,85.7,268.2,84.2,278.4,82.2z M297.7,114.5
		c-101.3,0-183.3,81.7-183.4,182.6c-0.1,100.9,81.5,183.5,181.3,183.6c102.1,0.1,184.9-81.3,185-181.9
		C480.7,196.8,399.2,114.6,297.7,114.5z"/>
	<path class="st2" d="M297.7,114.5c101.5,0,183,82.2,182.9,184.4c-0.1,100.6-82.9,182-185,181.9c-99.8-0.1-181.4-82.8-181.3-183.6
		C114.4,196.2,196.4,114.5,297.7,114.5z M153.3,281.8c0,17.9,0,35.7,0,53.6c0,2.8-0.1,4.9,3.9,4.8c16.4-0.2,32.9,0.2,49.3-0.2
		c13.8-0.3,26.6-10.6,30.9-23.9c4.5-14,0.8-26.7-10.7-36c-1.7-1.4-2.9-2.2-1.1-4.6c14.3-19.3-0.8-51.6-30.1-51.7
		c-12.4,0-24.9,0.1-37.3-0.1c-4.1-0.1-5,1.3-4.9,5.1C153.4,246.5,153.3,264.1,153.3,281.8z M363.8,281.7c0,18,0,36.1,0,54.1
		c0,2.7,0.1,4.4,3.7,4.3c16.6-0.2,33.3,0.5,49.9-0.3c13.7-0.6,23.7-8.3,29.2-20.8c5.1-11.6,5.1-23.9-3.9-33.2
		c-6-6.2-6.4-10-3.3-17.9c8.3-21-9.4-43.6-33.5-44.1c-12.4-0.3-24.9,0.1-37.3-0.1c-4.1-0.1-4.9,1.3-4.9,5.1
		C363.9,246.4,363.8,264,363.8,281.7z M312.4,302.7c-5.9-7.6-11.4-15.2-17.4-22.4c-2.5-3.1-2.9-4.6,1-7.1
		c6.9-4.5,12.4-10.4,11.8-19.6c-0.5-8.2-7.1-15-15.4-16c-10.8-1.4-20.5,4-23.7,13.2c-2.9,8.2-0.7,15.9,3.4,23c1.8,3.2,2.1,5-1.6,6.9
		c-4.7,2.4-8.3,6.3-11.4,10.5c-11.7,15.8-2.7,37.3,16.7,39.5c8.1,1,15.9-1,22-6.3c5.9-5.1,9.4-4.7,15.4,0.5
		c13.3,11.5,28.3,6,32.2-11c0.4-1.8,2.3-4.4-1.4-5.2c-3-0.6-3.9,1-4.8,3.7c-2.5,7.8-7.6,9.3-14.2,4.4c-2.1-1.6-3.7-3.7-5.6-5.4
		c-2.8-2.5-2.7-4.7-0.2-7.6c2.5-2.8,4.3-6.3,6.4-9.4c4.2-6.2,7.1-13.6,15.4-16.1c2.5-0.7,1.2-3.1,1.2-4.6c0-2.2-1.9-1.5-3.2-1.5
		c-6.8-0.1-13.6-0.1-20.5,0c-1.6,0-3.9-0.6-3.7,2.4c0.1,1.8-0.3,3.4,2.4,4c5,1.1,5.2,5.1,4.2,9C319.9,293.3,316.2,297.6,312.4,302.7
		z M231.6,383.9c0.2,2.8,0.2,5,0.5,7.2c1.1,7.7,6.3,12.3,13.7,12.2c7.6-0.1,12.6-4.6,13.5-12.4c0.6-4.6,0.5-9.2-0.1-13.8
		c-0.9-7.1-5.7-11.5-12.8-11.8c-7.6-0.3-12.9,3.6-14.2,10.8C231.8,378.9,231.8,381.7,231.6,383.9z M321.7,365.5c-3,0-6,0.1-9,0
		c-2.6-0.1-3.6,0.8-3.6,3.4c0.1,10.2,0.1,20.4,0,30.7c0,2.6,1.1,3.5,3.6,3.4c6-0.1,12-0.1,18,0c2.2,0,3.2-0.7,3.2-3.1
		c0.1-2.7-1-3.5-3.6-3.4c-2.8,0.1-5.6-0.1-8.4,0.1c-3.4,0.2-5.6-0.1-5.6-4.6c0-4.4,2-5,5.5-4.7c2,0.2,4-0.1,6,0.1
		c2.5,0.2,3.6-0.7,3.5-3.4c-0.1-2.5-1.2-3-3.3-2.9c-2.2,0.1-4.4-0.1-6.6,0.1c-3.3,0.3-5.1-0.4-5.1-4.4c0-3.9,1.6-4.8,5-4.6
		c3,0.2,6-0.1,9,0.1c2.6,0.1,3.5-1,3.4-3.5c0-2.4-1-3.2-3.2-3.1C327.7,365.5,324.7,365.5,321.7,365.5z M218,384.4
		c0-5.2-0.1-10.4,0-15.6c0.1-2.7-1.1-3.4-3.6-3.4c-2.3,0-4,0.2-3.8,3.1c0.1,1.2,0,2.4,0,3.6c0,9.6,0,9.5-9.5,8.9
		c-2.5-0.2-3.6-0.9-3.5-3.5c0.1-3.2,0-6.4,0-9.6c0-2.3-1.4-2.6-3.2-2.4c-1.6,0.2-4-0.8-4.1,2.1c-0.1,11,0,22-0.1,33
		c0,2.4,1.7,2.4,3.3,2.3c1.6-0.1,3.9,0.7,4-2.2c0.1-2.2,0.3-4.4,0-6.6c-0.8-5.4,1.2-7.2,6.8-7c4.9,0.1,7.1,1.2,6.3,6.3
		c-0.3,2,0.1,4-0.1,6c-0.2,2.5,0.6,3.7,3.3,3.6c2.5-0.1,4.2-0.4,4.1-3.5C217.9,394.4,218,389.4,218,384.4z M392.1,365.3
		c-8.1,0.1-13.1,4-13.7,10.4c-0.5,6.6,3.2,10.3,11.7,11.5c1,0.1,2,0.3,3,0.5c2.6,0.5,4.6,1.9,4.4,4.8c-0.3,2.9-2.5,3.9-5.1,4.2
		c-3,0.3-6,0.1-8.7-1.6c-3.1-1.9-4.7,0.9-5.7,2.6c-1.2,2.2,1.5,2.9,2.9,3.5c5.3,2.5,10.9,2.9,16.4,0.9c5.4-1.9,8-5.9,7.5-11.6
		c-0.5-5.3-3.8-8.2-8.8-9.2c-2.2-0.4-4.4-0.6-6.5-1.1c-2-0.5-3.8-1.5-3.7-4c0.1-2.6,1.8-3.9,4.1-4.5c2.7-0.7,5.2-0.1,7.6,1.2
		c3,1.7,4.2-0.9,5.1-2.5c1.4-2.4-1.4-2.8-2.7-3.5C397.3,365.5,394.5,365.1,392.1,365.3z M354.9,381.3c0-4-0.1-8,0-12
		c0.1-2.8-0.8-3.9-3.8-3.9c-2.8,0-3.9,0.9-3.8,3.8c0.1,10,0.1,20,0,30c0,3,1.2,3.8,4,3.7c5-0.1,10-0.1,15,0c2.2,0,3.8-0.1,3.8-3.1
		c0-2.8-1.2-3.2-3.6-3.4c-11.7-0.8-11.7-0.8-11.7-12.8C354.9,382.9,354.9,382.1,354.9,381.3z M279.6,387.1c0,4,0.1,8,0,12
		c-0.1,2.8,0.8,3.8,3.7,3.8c3,0,3.7-1.2,3.7-3.9c-0.1-6.8,0.3-13.7-0.1-20.5c-0.3-5,0.8-7.7,6.4-6.7c2.6,0.4,3.5-0.9,3.5-3.5
		c-0.1-2.5-1.2-3-3.4-3c-6.8,0.1-13.6,0.1-20.5,0c-2.4,0-3.1,1-3.1,3.2c0,2.2,0.8,3.7,3.1,3.2c7.3-1.5,7.1,3.2,6.8,8
		C279.5,382.3,279.6,384.7,279.6,387.1z"/>
	<path class="st3" d="M153.3,281.8c0-17.7,0.1-35.3-0.1-53c0-3.8,0.9-5.2,4.9-5.1c12.4,0.2,24.9,0.1,37.3,0.1
		c29.3,0.1,44.4,32.4,30.1,51.7c-1.7,2.3-0.6,3.2,1.1,4.6c11.5,9.3,15.2,22,10.7,36c-4.3,13.3-17,23.5-30.9,23.9
		c-16.4,0.4-32.9,0-49.3,0.2c-4,0.1-3.9-1.9-3.9-4.8C153.3,317.5,153.3,299.6,153.3,281.8z M192.8,293.7c0,0.1,0,0.3,0,0.4
		c-5,0-11.6-1.9-14.5,0.5c-3.4,2.9-0.8,9.7-1.2,14.8c-0.1,1.2,0.1,2.4,0,3.6c-0.2,2.5,0.5,3.6,3.3,3.6c8.2-0.1,16.4,0.2,24.6-0.1
		c6.6-0.2,10.9-4.9,11-11.1c0.1-6.5-4.3-11.2-11.2-11.6C200.8,293.5,196.8,293.7,192.8,293.7z M189.1,247.3c-12.1,0-12.1,0-12.1,12
		c0,2.6,0.1,5.2,0,7.8c-0.1,2.4,0.8,3.1,3.1,3.1c5.6-0.1,11.2,0.2,16.9-0.1c6.4-0.3,10.9-5.2,10.9-11.4c0-6.4-4.7-11.1-11.5-11.4
		C194,247.2,191.6,247.3,189.1,247.3z"/>
	<path class="st3" d="M363.8,281.7c0-17.6,0.1-35.3-0.1-52.9c0-3.8,0.8-5.2,4.9-5.1c12.4,0.3,24.9-0.1,37.3,0.1
		c24.1,0.5,41.8,23.1,33.5,44.1c-3.2,8-2.7,11.7,3.3,17.9c9,9.3,9,21.6,3.9,33.2c-5.5,12.5-15.5,20.2-29.2,20.8
		c-16.6,0.8-33.3,0.1-49.9,0.3c-3.6,0-3.7-1.6-3.7-4.3C363.9,317.8,363.8,299.7,363.8,281.7z M402.4,316.6c4.5,0,8.2,0.1,11.8,0
		c7.5-0.2,12.2-4.5,12.4-11.1c0.2-6.8-4.6-11.5-12.4-11.7c-6.6-0.2-13.3,0.4-19.8-0.2c-6.1-0.6-7.7,1.7-7,7.4c0.6,4.9-2,11.4,1,14.5
		C391.6,318.9,398.2,315.9,402.4,316.6z M399.4,247.3C399.4,247.3,399.4,247.3,399.4,247.3c-2.2,0-4.4,0.2-6.6-0.1
		c-4-0.5-5.8,0.7-5.4,5.1c0.4,4.8,0.1,9.6,0.1,14.4c0,2,0.2,3.5,2.8,3.4c6-0.1,12.1,0.2,18.1-0.2c6-0.4,10.1-5.5,10-11.5
		c-0.1-5.9-4.4-10.7-10.4-11.1C405,247.1,402.2,247.3,399.4,247.3z"/>
	<path class="st3" d="M312.4,302.7c3.7-5.1,7.5-9.4,8.9-15c1-4,0.8-7.9-4.2-9c-2.7-0.6-2.3-2.2-2.4-4c-0.1-3,2.1-2.4,3.7-2.4
		c6.8-0.1,13.6-0.1,20.5,0c1.2,0,3.2-0.7,3.2,1.5c0,1.6,1.3,3.9-1.2,4.6c-8.2,2.4-11.2,9.8-15.4,16.1c-2.1,3.2-3.9,6.6-6.4,9.4
		c-2.5,2.9-2.6,5,0.2,7.6c1.9,1.7,3.6,3.9,5.6,5.4c6.5,4.9,11.7,3.4,14.2-4.4c0.9-2.7,1.8-4.3,4.8-3.7c3.7,0.8,1.8,3.4,1.4,5.2
		c-3.9,17-18.9,22.5-32.2,11c-6-5.2-9.5-5.5-15.4-0.5c-6.1,5.2-13.9,7.2-22,6.3c-19.4-2.3-28.4-23.7-16.7-39.5
		c3.1-4.2,6.8-8.1,11.4-10.5c3.7-1.9,3.4-3.8,1.6-6.9c-4.1-7.2-6.2-14.8-3.4-23c3.2-9.3,12.9-14.6,23.7-13.2
		c8.3,1.1,14.8,7.8,15.4,16c0.6,9.2-4.9,15.1-11.8,19.6c-3.9,2.5-3.5,4-1,7.1C301,287.6,306.5,295.1,312.4,302.7z M288.4,319.8
		c3.3,0.2,6.4-1.5,9.6-3.2c2.8-1.5,3.8-2.7,1.3-5.7c-6.3-7.7-12.5-15.6-18.3-23.8c-2.6-3.6-4.4-2.8-7-0.5c-5.6,5-7.1,11.4-4.3,19
		C272.9,314.4,280,319.9,288.4,319.8z M298.9,255.6c0-5-1.3-8.7-5.4-10.7c-3.3-1.7-6.6-1.3-9.6,1c-3.6,2.9-3.9,6.9-2.9,10.9
		c1,4.1,2.8,7.9,5.3,11.3c0.8,1.1,1.5,2.8,3.2,1.3C294.1,265.6,299,261.8,298.9,255.6z"/>
	<path class="st1" d="M231.6,383.9c0.2-2.2,0.3-5,0.7-7.7c1.3-7.2,6.6-11.2,14.2-10.8c7.1,0.3,11.9,4.7,12.8,11.8
		c0.6,4.6,0.6,9.2,0.1,13.8c-1,7.8-5.9,12.3-13.5,12.4c-7.4,0.1-12.7-4.5-13.7-12.2C231.8,388.9,231.7,386.7,231.6,383.9z
		 M252.3,384.1c-0.1-2.2-0.1-4.6-0.5-7c-0.5-3.4-2.7-5.4-6.1-5.4c-3.3,0.1-5.6,1.7-6.2,5.3c-0.8,4.8-0.8,9.6,0,14.3
		c0.5,3.5,2.6,5.4,6.1,5.3c3.8-0.1,5.9-2.1,6.3-5.8C252.1,388.7,252.2,386.5,252.3,384.1z"/>
	<path class="st1" d="M321.7,365.5c3,0,6,0.1,9,0c2.3-0.1,3.2,0.7,3.2,3.1c0,2.6-0.8,3.7-3.4,3.5c-3-0.1-6,0.1-9-0.1
		c-3.4-0.2-5,0.7-5,4.6c0,4.1,1.7,4.7,5.1,4.4c2.2-0.2,4.4,0,6.6-0.1c2.1-0.1,3.3,0.4,3.3,2.9c0.1,2.7-1,3.6-3.5,3.4
		c-2-0.1-4,0.1-6-0.1c-3.5-0.3-5.5,0.3-5.5,4.7c0,4.5,2.2,4.8,5.6,4.6c2.8-0.1,5.6,0.1,8.4-0.1c2.5-0.1,3.6,0.6,3.6,3.4
		c-0.1,2.4-1,3.1-3.2,3.1c-6-0.1-12-0.1-18,0c-2.5,0-3.6-0.8-3.6-3.4c0.1-10.2,0.1-20.4,0-30.7c0-2.6,1-3.6,3.6-3.4
		C315.6,365.6,318.7,365.5,321.7,365.5z"/>
	<path class="st1" d="M218,384.4c0,5-0.1,10,0.1,15c0.1,3.2-1.5,3.5-4.1,3.5c-2.7,0.1-3.5-1.1-3.3-3.6c0.1-2-0.2-4,0.1-6
		c0.8-5.1-1.4-6.2-6.3-6.3c-5.6-0.2-7.6,1.6-6.8,7c0.3,2.2,0.1,4.4,0,6.6c-0.1,2.9-2.3,2.1-4,2.2c-1.6,0.1-3.3,0.2-3.3-2.3
		c0-11,0-22,0.1-33c0-2.9,2.5-1.9,4.1-2.1c1.8-0.2,3.2,0.1,3.2,2.4c0,3.2,0.1,6.4,0,9.6c-0.1,2.6,1,3.3,3.5,3.5
		c9.5,0.6,9.5,0.8,9.5-8.9c0-1.2,0.1-2.4,0-3.6c-0.2-2.9,1.5-3.1,3.8-3.1c2.5,0,3.7,0.7,3.6,3.4C217.9,374,218,379.2,218,384.4z"/>
	<path class="st1" d="M392.1,365.3c2.3-0.1,5.1,0.2,7.6,1.6c1.3,0.7,4.1,1.1,2.7,3.5c-0.9,1.6-2.1,4.1-5.1,2.5
		c-2.3-1.3-4.9-1.9-7.6-1.2c-2.3,0.6-4,1.9-4.1,4.5c-0.1,2.5,1.7,3.5,3.7,4c2.1,0.5,4.4,0.7,6.5,1.1c5.1,1,8.4,3.8,8.8,9.2
		c0.5,5.7-2.1,9.8-7.5,11.6c-5.5,1.9-11.1,1.6-16.4-0.9c-1.4-0.7-4.1-1.4-2.9-3.5c1-1.8,2.6-4.5,5.7-2.6c2.7,1.7,5.7,1.9,8.7,1.6
		c2.6-0.2,4.8-1.3,5.1-4.2c0.3-2.9-1.7-4.3-4.4-4.8c-1-0.2-2-0.4-3-0.5c-8.5-1.2-12.2-4.9-11.7-11.5
		C379,369.3,384,365.3,392.1,365.3z"/>
	<path class="st1" d="M354.9,381.3c0,0.8,0,1.6,0,2.4c0,11.9,0,12,11.7,12.8c2.4,0.2,3.6,0.6,3.6,3.4c0,3-1.7,3.1-3.8,3.1
		c-5-0.1-10-0.1-15,0c-2.7,0.1-4-0.7-4-3.7c0.1-10,0.1-20,0-30c0-2.9,1-3.8,3.8-3.8c3,0,3.9,1.1,3.8,3.9
		C354.8,373.3,354.9,377.3,354.9,381.3z"/>
	<path class="st1" d="M279.6,387.1c0-2.4-0.1-4.8,0-7.2c0.3-4.9,0.6-9.5-6.8-8c-2.3,0.5-3.1-1-3.1-3.2c0-2.3,0.7-3.3,3.1-3.2
		c6.8,0.1,13.6,0.1,20.5,0c2.2,0,3.3,0.5,3.4,3c0.1,2.6-0.9,3.9-3.5,3.5c-5.6-1-6.7,1.7-6.4,6.7c0.4,6.8,0,13.6,0.1,20.5
		c0.1,2.7-0.7,3.9-3.7,3.9c-2.9,0-3.9-1-3.7-3.8C279.7,395.1,279.6,391.1,279.6,387.1z"/>
	<path class="st2" d="M192.8,293.7c4,0,8-0.2,12,0c6.9,0.4,11.3,5.1,11.2,11.6c-0.1,6.2-4.4,10.9-11,11.1c-8.2,0.3-16.4,0-24.6,0.1
		c-2.8,0-3.5-1.1-3.3-3.6c0.1-1.2-0.1-2.4,0-3.6c0.4-5.1-2.3-12,1.2-14.8c2.9-2.5,9.5-0.5,14.5-0.5
		C192.8,293.9,192.8,293.8,192.8,293.7z"/>
	<path class="st2" d="M189.1,247.3c2.4,0,4.8-0.1,7.2,0c6.8,0.3,11.5,5,11.5,11.4c0,6.1-4.5,11-10.9,11.4c-5.6,0.3-11.2,0-16.9,0.1
		c-2.3,0.1-3.2-0.7-3.1-3.1c0.2-2.6,0-5.2,0-7.8C177.1,247.3,177.1,247.3,189.1,247.3z"/>
	<path class="st2" d="M402.4,316.6c-4.2-0.6-10.8,2.3-14.1-1.2c-3-3.1-0.3-9.6-1-14.5c-0.7-5.6,0.9-7.9,7-7.4
		c6.6,0.6,13.2,0,19.8,0.2c7.8,0.2,12.6,4.9,12.4,11.7c-0.2,6.6-5,10.9-12.4,11.1C410.5,316.6,406.9,316.6,402.4,316.6z"/>
	<path class="st2" d="M399.4,247.3c2.8,0,5.6-0.2,8.4,0c6,0.5,10.3,5.2,10.4,11.1c0.1,6.1-4,11.1-10,11.5c-6,0.4-12,0-18.1,0.2
		c-2.7,0.1-2.8-1.4-2.8-3.4c0.1-4.8,0.3-9.7-0.1-14.4c-0.4-4.5,1.4-5.6,5.4-5.1C394.9,247.5,397.1,247.3,399.4,247.3
		C399.4,247.3,399.4,247.3,399.4,247.3z"/>
	<path class="st2" d="M288.4,319.8c-8.4,0.1-15.5-5.5-18.7-14.1c-2.8-7.7-1.3-14,4.3-19c2.6-2.3,4.4-3.2,7,0.5
		c5.8,8.1,12,16,18.3,23.8c2.4,3,1.5,4.2-1.3,5.7C294.8,318.3,291.6,320.1,288.4,319.8z"/>
	<path class="st2" d="M298.9,255.6c0.1,6.2-4.7,10-9.3,13.9c-1.7,1.5-2.4-0.2-3.2-1.3c-2.5-3.4-4.3-7.2-5.3-11.3
		c-1-4.1-0.7-8,2.9-10.9c2.9-2.4,6.2-2.8,9.6-1C297.5,247,298.8,250.6,298.9,255.6z"/>
	<path class="st2" d="M252.3,384.1c-0.1,2.4-0.2,4.6-0.4,6.8c-0.4,3.8-2.5,5.8-6.3,5.8c-3.5,0.1-5.6-1.8-6.1-5.3
		c-0.7-4.8-0.7-9.5,0-14.3c0.6-3.6,2.9-5.3,6.2-5.3c3.4-0.1,5.6,2,6.1,5.4C252.2,379.4,252.2,381.9,252.3,384.1z"/>
</g>
</svg>
