<?xml version="1.0" encoding="utf-8"?>
<!-- Generator: Adobe Illustrator 26.3.1, SVG Export Plug-In . SVG Version: 6.00 Build 0)  -->
<svg version="1.1" id="Layer_1" xmlns="http://www.w3.org/2000/svg" xmlns:xlink="http://www.w3.org/1999/xlink" x="0px" y="0px"
	 viewBox="0 0 595.3 595.3" style="enable-background:new 0 0 595.3 595.3;" xml:space="preserve">
<style type="text/css">
	.st0{fill:#FFFFFF;}
	.st1{fill:#9ECFC8;}
	.st2{fill:#003057;}
	.st3{fill:#013157;}
	.st4{fill:#B42857;}
</style>
<path class="st0" d="M297.6,595.3L297.6,595.3C133.3,595.3,0,462,0,297.6v0C0,133.3,133.3,0,297.6,0h0
	C462,0,595.3,133.3,595.3,297.6v0C595.3,462,462,595.3,297.6,595.3z"/>
<g>
	<rect x="35.6" y="295.5" class="st1" width="17.9" height="26.9"/>
	<path class="st2" d="M53.8,242.7c5.8,0,13.2-2.5,16.8,0.8c3.6,3.4,0.9,10.9,1.1,16.7c0.2,4.9,0,9.8,0,14.6c1.8,0.7,2.6-0.4,3.7-1.1
		c12.7-8.9,26.3-4.5,31.2,10.2c1.9,5.8,2.4,11.8,2.5,17.8c0.2,14.4,0,28.8,0.2,43.1c0,3.5-0.8,4.8-4.5,4.8
		c-13.5,0.2-13.4,0.4-13.5-13.3c-0.1-11.8,1-23.6-1.2-35.3c-0.8-4.2-2-8-7.2-8.4c-5.7-0.4-8.1,3.3-9.4,7.9c-2,7.3-1.5,14.9-2,22.3
		c-6.1,2.2-12.1,2.8-18.1-0.6c0-7.3-0.4-37.7-0.1-45.1C53.6,265.8,52.4,254.2,53.8,242.7z"/>
	<path class="st2" d="M538.5,272.4c0.8,0.1,2.9,0.5,5,0.9c15.9,3.5,15.7,3.5,10.9,19.1c-1.1,3.5-2.1,3.9-5.2,2.4
		c-4.6-2.2-9.5-3.8-14.8-2.3c-2.9,0.8-5.8,2.3-6,5c-0.2,2.5,3.3,2.9,5.4,3.7c5.2,1.9,10.4,3.9,15.7,5.6c3.4,1.2,6,3.5,7.7,6.4
		c3.7,6.1,2.9,23.9-1.2,29.1c-6.7,8.6-18.5,12.7-28.5,10c-1-0.3-2.1-0.6-3.1-0.9c-14.1-4.3-15.8-8-10.1-21.6
		c0.9-2.1,1.7-2.7,4.1-1.6c5.8,2.8,11.7,5.7,18.4,4.4c2.6-0.5,6.3-0.7,6.8-3.9c0.5-3.6-3.5-3.8-5.8-4.9c-5.8-2.6-12.3-3.5-17.8-7
		c-4.3-2.7-6.7-6.3-7.8-11.1C507.9,287.5,519.2,272.3,538.5,272.4z"/>
	<path class="st2" d="M181.4,288.6c0-13.1,0.1-26.2-0.1-39.3c0-3.6,0.4-5.3,4.7-5.3c13.4,0,13.4-0.3,13.4,13.3c0,1.7,0.2,3.5,0,5.2
		c-0.7,6.4,0.3,9.4,8.4,9.9c8,0.5,2.5,8.8,3.6,13.5c0.6,2.4,1.9,7.6-3.7,6.6c-8.5-1.4-8.8,3.2-8.4,9.4c0.5,7.7-0.5,15.4,0.7,23.1
		c0.6,4,2.3,6.5,6.7,5.8c3.7-0.6,5.1,1.3,5.4,4.6c0.2,1.9,0.7,3.8,1.1,5.7c1.8,9.2,1.8,9.2-7.3,10.8c-12,2-19.9-3.2-23.2-15.7
		c-0.9-3.5-1.3-7.2-1.4-10.8c-0.2-12.2-0.1-24.5-0.1-36.7C181.5,288.6,181.5,288.6,181.4,288.6z"/>
	<path class="st3" d="M301.4,283.7c0,11.6,0.1,23.1,0,34.7c-0.1,4.9,1.2,8.5,6.5,9.5c2.6,0.5,3.5,2,3.4,4.5
		c-0.1,2.1,0.1,4.3,0.2,6.4c0.2,10.5-0.5,11.2-11.1,9.8c-9.9-1.3-15.7-8.3-17-20.9c-1.6-14.5-0.6-29.1-0.8-43.7
		c-0.1-12,0.1-24-0.1-36c-0.1-3.8,0.5-5.7,5.1-5.6c13.8,0.1,13.8-0.2,13.7,13.6c0,4.7-0.1,9.4-0.1,14.1c0,4.5,0,9,0,13.5
		C301.2,283.7,301.3,283.7,301.4,283.7z"/>
	<path class="st4" d="M53.6,349.4c0.1-9,0.1-18,0.2-27c5.9,0.2,11.7,0.4,17.6,0.7c0.1,7.5,0.1,15,0.4,22.4c0.1,3-0.9,4.3-4,4.1
		C63,349.4,58.3,349.5,53.6,349.4z"/>
	<path class="st2" d="M369.4,282.5c-4.9-10.2-14.5-14.1-24.6-11.2c-3.2,0.9-6,3-9.8,4.9c0-7.5,0-14.3,0-21.1
		c0-12.4,0-12.2-12.2-12.5c-4.9-0.1-6,1.2-6,6c0.2,31.3,0.4,62.6-0.1,93.9c-0.1,7,1.4,9.6,8.6,8.7c4.1-0.5,9.3,2,9-6.3
		c2.9,2,5,3.4,7,4.8c5.8,3.9,11.9,4.9,17.9,0.7c4.2-2.9,8.2-6.4,10.4-11.1C378.4,320.4,378.4,301.2,369.4,282.5z M354.1,324.9
		c-4.4,7.6-12.7,7-16.3-1c-1.8-4.1-3.1-8.5-2.9-13.1c-0.1-3.9,1-7.7,2.5-11.2c1.5-3.7,3.8-6.6,8.3-7c4.7-0.5,7.7,2.6,9.2,5.8
		C358.7,307.2,359.1,316.4,354.1,324.9z"/>
	<path class="st2" d="M503.9,256.7c0-4.5,1.2-9.9-0.9-13.1c-1.8-2.8-7.6,0-11.6-0.7c-0.6-0.1-1.3-0.1-1.9-0.2
		c-3.3-0.7-3.9,0.9-3.9,3.9c0.2,9.4,0.1,18.9,0.1,28.8c-0.5-0.2-1.1-0.2-1.6-0.6c-15.4-9.8-27-3-33.5,10.5
		c-5.7,11.8-5.4,24.5-4.1,37.2c0.9,8.5,3.4,16.3,9.6,22.5c8.5,8.5,16.1,12,26.1,3.2c1.2-1.1,2.8-1.8,5.6-3.6c-2.4,7.6,2,6.6,5.7,6.6
		c1.5,0,3-0.2,4.5,0c4.7,0.7,6.1-0.8,6.1-5.8C503.8,315.9,503.9,286.3,503.9,256.7z M481.6,326.9c-3.8,4.5-8.6,4.6-12.6,0.2
		c-4.2-4.6-4.7-10.4-5.2-16.1c-0.2-4,1.1-7.7,2.5-11.2c1.5-3.7,3.7-6.6,8.2-7.1c4.7-0.5,7.3,2.5,9.3,5.7
		C488.4,305.3,487,320.5,481.6,326.9z"/>
	<path class="st2" d="M171.1,293c-3.7-11.4-11.8-18.5-23.5-20.2c-10.3-1.5-18.8,3.1-25.1,11.3c-10.3,13.5-10.3,43.2,0,56.7
		c11.5,15.2,31.3,16,42.9,1.5c6.7-8.4,8.4-18.6,8.7-30.8C174.1,306.4,173.2,299.5,171.1,293z M151.5,326.9c-4,5.5-9.7,5.4-13.9,0.1
		c-4.8-6.1-5.4-22-1.1-28.2c4.8-6.8,12.6-6.3,16.5,1.2c2,3.8,3.1,8,2.9,11.4C155.9,317.7,154.6,322.7,151.5,326.9z"/>
	<path class="st2" d="M272.7,293.5c-3.1-11.1-10.4-19.1-22.1-20.7c-10.6-1.5-19.2,3.2-25.4,12c-10.2,14.3-9.9,41.4,0.4,55.5
		c8.2,11.2,21.1,15.4,33.3,10.5c5.1-2,10.1-5.3,12.2-9.9c1.2-2.7-3.5-6.7-5.5-10.2c-1.9-3.2-3.2-4.2-7.1-2c-8.9,5-14.2,3.5-21.8-5.1
		c8.1-2.6,15.3-5.2,22.7-7.3C277.5,311.4,277.7,311.5,272.7,293.5z M255.4,302.6c-5.3,1.6-10.7,3-16,4.5c-3.1,0.9-4.3-0.1-3.6-3.5
		c1.3-6.3,6.6-12,11.5-12.1c5.7,0,7.9,4.4,10.3,8.4C258.9,302.2,256.6,302.3,255.4,302.6z"/>
	<path class="st2" d="M439,309.4c-1.1-7.8-1.5-15.8-5.6-22.9c-5-8.5-12.2-14.1-22.3-13.9c-10.3,0.3-18.3,5.3-23.2,14.7
		c-6.4,12.2-6.6,25.1-4.1,38.3c2.7,14.7,11.5,24.2,26.2,27.4c10.4,2.2,18-4.1,23.9-11c3.5-4.1-3.6-7.6-4.9-11.8c-1-3-2.5-3.7-6-1.6
		c-8.7,5.2-15,3.7-22.3-4.6c11.6-3.6,22.7-6.9,33.7-10.5C436.3,312.8,439.5,312.9,439,309.4z M419.3,302.7c-6.4,2-12.8,4.1-20,5
		c0.5-4.1,1.7-7.5,3.6-10.5c2-3,4.5-5.9,8.7-5.5c4.5,0.5,7,3.7,9.2,7.2C422,300.9,421.5,302,419.3,302.7z"/>
</g>
</svg>
