<svg xmlns="http://www.w3.org/2000/svg" xml:space="preserve" id="Layer_1" x="0" y="0" style="enable-background:new 0 0 595.3 595.3" version="1.1" viewBox="0 0 595.3 595.3"><style>.st1{fill:#cd0b32}</style><path d="M297.6 595.3C133.3 595.3 0 462 0 297.6 0 133.3 133.3 0 297.6 0 462 0 595.3 133.3 595.3 297.6c0 164.4-133.3 297.7-297.7 297.7" style="fill:#fff"/><path d="M505.8 297.9c0 115.8-93.2 210.2-207.9 210.2S89.5 413.4 89.5 297.4c0-117.2 94.1-211.6 211.9-210.2 116.9 1.7 205 98.7 204.4 210.7M298.5 479.5c98.4 0 179.3-81.7 179.6-181.6.3-100.2-79.7-181.6-179.6-182.5-98.2-1.2-179.6 80.8-180.4 181.6-.9 100.3 80.2 182.5 180.4 182.5" class="st1"/><path d="M309.2 360.9c19.9-10.1 39-19.6 57.7-29.2 14.1-7.2 28-14.4 42.1-21.1 3.8-1.7 5.5-4 5.2-8.4-.3-33.5 2.6-28.6-27.4-34.4-34.6-6.4-69.3-13-103.9-19.1-5.8-.9-7.5-2.9-7.2-8.7.3-13 .3-25.7 0-38.7 0-5.8 1.7-8.1 8.1-7.5 46.5 5.8 93.2 11.3 140 16.5 6.9.9 9.5 4 9.5 10.4v112.6c0 3.8-.3 6.9-4.6 8.1-4.6.9-10.4 1.7-12.1-3.2-2.3-6.9-5.2-2-7.2-.9-29.2 16.5-58.3 32.9-87.5 49.1-7.8 4.3-14.7 7.5-12.7 18.8 1.2 6.1-4 8.1-9.5 8.1-5.8-.3-11-1.7-10.1-8.7 1.2-8.1-3.2-10.4-9.8-12.7-34.1-11.8-68.1-24-101.9-36.1-4.6-1.7-7.5-3.2-8.4 4-.6 4.6-5.8 5.2-9.8 4.6-4-.6-8.1-1.7-8.1-7.2 0-22.5-.3-45.3 0-67.8 0-7.5 5.8-5.8 10.1-4.6 28.6 7.5 56.9 15 85.5 22.5 16.7 4.3 33.2 8.9 49.9 13 8.7 2 12.4 7.2 12.7 15.6-.6 8.2-.6 16-.6 25" class="st1"/><path d="M185.9 277.2c24.5-6.9 46.8-13.3 68.7-19.3 1.7-.6 4 0 5.8.6 41.3 8.1 82.6 16.5 123.6 24.2 5.8 1.2 10.1 2.6 11 9.5.9 6.9-2.3 10.1-8.1 12.7-17.9 8.1-35.8 16.5-53.7 25.1-4.9 2.3-6.9 2.6-6.9-4 0-10.4-4.9-15-17.9-18.5-24-6.1-47.6-11.8-71.6-17.6-15.7-4.1-32.1-8.1-50.9-12.7" class="st1"/></svg>