<?xml version="1.0" encoding="utf-8"?>
<!-- Generator: Adobe Illustrator 26.3.1, SVG Export Plug-In . SVG Version: 6.00 Build 0)  -->
<svg version="1.1" id="Layer_1" xmlns="http://www.w3.org/2000/svg" xmlns:xlink="http://www.w3.org/1999/xlink" x="0px" y="0px"
	 viewBox="0 0 595.3 595.3" style="enable-background:new 0 0 595.3 595.3;" xml:space="preserve">
<style type="text/css">
	.st0{fill:#FFFFFF;}
	.st1{fill:#CD0B32;}
</style>
<path class="st0" d="M297.6,595.3L297.6,595.3C133.3,595.3,0,462,0,297.6l0,0C0,133.3,133.3,0,297.6,0l0,0
	C462,0,595.3,133.3,595.3,297.6l0,0C595.3,462,462,595.3,297.6,595.3z"/>
<g>
	<path class="st1" d="M505.8,297.9c0,115.8-93.2,210.2-207.9,210.2S89.5,413.4,89.5,297.4c0-117.2,94.1-211.6,211.9-210.2
		C418.3,88.9,506.4,185.9,505.8,297.9z M298.5,479.5c98.4,0,179.3-81.7,179.6-181.6c0.3-100.2-79.7-181.6-179.6-182.5
		c-98.2-1.2-179.6,80.8-180.4,181.6C117.2,397.3,198.3,479.5,298.5,479.5z"/>
	<path class="st1" d="M309.2,360.9c19.9-10.1,39-19.6,57.7-29.2c14.1-7.2,28-14.4,42.1-21.1c3.8-1.7,5.5-4,5.2-8.4
		c-0.3-33.5,2.6-28.6-27.4-34.4c-34.6-6.4-69.3-13-103.9-19.1c-5.8-0.9-7.5-2.9-7.2-8.7c0.3-13,0.3-25.7,0-38.7
		c0-5.8,1.7-8.1,8.1-7.5c46.5,5.8,93.2,11.3,140,16.5c6.9,0.9,9.5,4,9.5,10.4c0,37.5,0,75.1,0,112.6c0,3.8-0.3,6.9-4.6,8.1
		c-4.6,0.9-10.4,1.7-12.1-3.2c-2.3-6.9-5.2-2-7.2-0.9c-29.2,16.5-58.3,32.9-87.5,49.1c-7.8,4.3-14.7,7.5-12.7,18.8
		c1.2,6.1-4,8.1-9.5,8.1c-5.8-0.3-11-1.7-10.1-8.7c1.2-8.1-3.2-10.4-9.8-12.7c-34.1-11.8-68.1-24-101.9-36.1c-4.6-1.7-7.5-3.2-8.4,4
		c-0.6,4.6-5.8,5.2-9.8,4.6c-4-0.6-8.1-1.7-8.1-7.2c0-22.5-0.3-45.3,0-67.8c0-7.5,5.8-5.8,10.1-4.6c28.6,7.5,56.9,15,85.5,22.5
		c16.7,4.3,33.2,8.9,49.9,13c8.7,2,12.4,7.2,12.7,15.6C309.2,344.1,309.2,351.9,309.2,360.9z"/>
	<path class="st1" d="M185.9,277.2c24.5-6.9,46.8-13.3,68.7-19.3c1.7-0.6,4,0,5.8,0.6c41.3,8.1,82.6,16.5,123.6,24.2
		c5.8,1.2,10.1,2.6,11,9.5c0.9,6.9-2.3,10.1-8.1,12.7c-17.9,8.1-35.8,16.5-53.7,25.1c-4.9,2.3-6.9,2.6-6.9-4
		c0-10.4-4.9-15-17.9-18.5c-24-6.1-47.6-11.8-71.6-17.6C221.1,285.8,204.7,281.8,185.9,277.2z"/>
</g>
</svg>
