<?xml version="1.0" encoding="utf-8"?>
<!-- Generator: Adobe Illustrator 26.3.1, SVG Export Plug-In . SVG Version: 6.00 Build 0)  -->
<svg version="1.1" id="Layer_1" xmlns="http://www.w3.org/2000/svg" xmlns:xlink="http://www.w3.org/1999/xlink" x="0px" y="0px"
	 viewBox="0 0 595.3 595.3" style="enable-background:new 0 0 595.3 595.3;" xml:space="preserve">
<style type="text/css">
	.st0{fill:#FFFFFF;}
	.st1{fill:#CD0B32;}
</style>
<path class="st0" d="M297.6,595.3L297.6,595.3C133.3,595.3,0,462,0,297.6v0C0,133.3,133.3,0,297.6,0h0
	C462,0,595.3,133.3,595.3,297.6v0C595.3,462,462,595.3,297.6,595.3z"/>
<g>
	<path class="st1" d="M429.8,311.3c8.2,11.8,16.2,23.3,24.6,35.3c-8.9,0-17.1,0-25.3,0c-1.6,0-1.9-1.3-2.5-2.2
		c-6.2-9.6-12.4-19.2-18.4-28.8c-1.3-2.1-2.6-3-5.2-2.9c-7,0.2-14.1,0.2-21.1,0c-2.5-0.1-3.4,0.4-3.3,3.2c0.2,9.4,0,18.9,0.1,28.3
		c0,1.9-0.4,2.6-2.4,2.6c-6.6-0.1-13.1-0.1-19.7,0c-1.9,0-2.3-0.6-2.3-2.4c0-31.2,0-62.3,0-93.5c0-1.6,0.4-2.3,2.1-2.2
		c22.2,0.3,44.5-0.5,66.7,0.5c4.8,0.2,9.4,1.3,13.9,3.1c8,3.2,12.8,9.1,14.4,17.5c1.2,6.4,1.4,12.8,0.4,19.2
		C449.7,302.3,443.7,308.5,429.8,311.3z M400.8,295.3c5.5-0.1,12.2,0.3,18.8-0.3c5-0.5,7.9-2.9,9-7.6c1-4.1,1-8.3,0.1-12.4
		c-1-4-3.5-6.6-7.6-7.4c-1.7-0.3-3.5-0.6-5.3-0.6c-11.6-0.1-23.2,0-34.8-0.1c-1.8,0-2.4,0.5-2.4,2.3c0.1,7.9,0.1,15.9,0,23.8
		c0,1.9,0.6,2.3,2.4,2.3C387.2,295.2,393.5,295.3,400.8,295.3z"/>
	<path class="st1" d="M230,297.5c0-15.3,0.1-30.6-0.1-45.9c0-2.7,0.8-3.3,3.3-3.2c6.1,0.2,12.3,0.1,18.5,0c2,0,2.5,0.5,2.5,2.5
		c-0.1,11.4,0,22.8-0.1,34.2c0,2,0.4,2.7,2.6,2.7c17.4-0.1,34.7-0.1,52.1,0c2.3,0,2.7-0.7,2.7-2.8c-0.1-11.3,0-22.6-0.1-33.9
		c0-2.1,0.5-2.7,2.6-2.7c6.4,0.1,12.7,0.1,19.1,0c1.8,0,2.6,0.2,2.6,2.4c-0.1,31.2-0.1,62.3,0,93.5c0,1.9-0.7,2.3-2.4,2.3
		c-6.5-0.1-12.9-0.1-19.4,0c-2.2,0.1-2.6-0.8-2.5-2.7c0.1-11.1,0-22.2,0.1-33.4c0-2.3-0.6-2.8-2.8-2.8c-17.3,0.1-34.5,0.1-51.8,0
		c-2.2,0-2.8,0.5-2.8,2.8c0.1,11,0,22,0.1,33.1c0,2.2-0.4,3.1-2.9,3c-6.2-0.2-12.5-0.2-18.8,0c-2.1,0-2.6-0.6-2.6-2.7
		C230,328.5,230,313,230,297.5z"/>
	<path class="st1" d="M510.2,349.4c-14.5,0-28.7-1.4-42.6-5.6c-2.2-0.6-2.8-1.4-2.1-3.7c1.4-4.7,2.6-9.6,3.7-14.4
		c0.4-1.7,1.1-2,2.7-1.6c17.5,4.8,35.4,5.5,53.4,4.7c3.8-0.2,7.5-0.6,11.2-1.6c3-0.8,4.7-2.8,5-5.9c0.1-1.3,0.2-2.6,0.1-3.9
		c-0.3-4.8-1.7-6.3-6.4-7.1c-9.5-1.5-19.1-2-28.7-3c-7.4-0.8-14.8-1.8-22.1-3.3c-12.1-2.6-17.5-8.3-19.4-20.5
		c-1-6.5-1-13.1,0.7-19.5c1.9-7.1,6.5-11.9,13.5-14.3c7.7-2.7,15.7-3.4,23.7-3.7c16.3-0.7,32.3,0.5,48.1,4.8
		c4.1,1.1,4.1,1.1,3.1,5.1c-1.1,4.3-2.2,8.7-3.1,13c-0.4,1.9-0.9,2.4-2.9,1.9c-19-4.8-38.2-5.4-57.6-3.3c-6.3,0.7-8.6,3.6-7.9,9.8
		c0.4,4,1.9,5.7,5.9,6.4c11.9,2,23.9,2.7,35.8,4.2c6.2,0.8,12.4,1.6,18.6,2.5c8.3,1.2,13.3,6.2,15.3,14.2c2,8,2,16.1,0.2,24.2
		c-2.6,11.4-10.7,16.6-21.5,18.7C528,348.9,519.1,349.4,510.2,349.4z"/>
	<path class="st1" d="M179.8,297.7c0,40.1-32.3,72.8-72,72.8c-39.7,0-72.2-32.8-72.2-73c0-40.6,32.6-73.3,73.4-72.8
		C149.5,225.3,180,258.9,179.8,297.7z M108,360.6c34.1,0,62.1-28.3,62.2-62.9c0.1-34.7-27.6-62.9-62.2-63.2
		c-34-0.4-62.2,28-62.5,62.9C45.2,332.1,73.3,360.6,108,360.6z"/>
	<path class="st1" d="M111.7,319.5c6.9-3.5,13.5-6.8,20-10.1c4.9-2.5,9.7-5,14.6-7.3c1.3-0.6,1.9-1.4,1.8-2.9
		c-0.1-11.6,0.9-9.9-9.5-11.9c-12-2.2-24-4.5-36-6.6c-2-0.3-2.6-1-2.5-3c0.1-4.5,0.1-8.9,0-13.4c0-2,0.6-2.8,2.8-2.6
		c16.1,2,32.3,3.9,48.5,5.7c2.4,0.3,3.3,1.4,3.3,3.6c0,13,0,26,0,39c0,1.3-0.1,2.4-1.6,2.8c-1.6,0.3-3.6,0.6-4.2-1.1
		c-0.8-2.4-1.8-0.7-2.5-0.3c-10.1,5.7-20.2,11.4-30.3,17c-2.7,1.5-5.1,2.6-4.4,6.5c0.4,2.1-1.4,2.8-3.3,2.8c-2-0.1-3.8-0.6-3.5-3
		c0.4-2.8-1.1-3.6-3.4-4.4c-11.8-4.1-23.6-8.3-35.3-12.5c-1.6-0.6-2.6-1.1-2.9,1.4c-0.2,1.6-2,1.8-3.4,1.6c-1.4-0.2-2.8-0.6-2.8-2.5
		c0-7.8-0.1-15.7,0-23.5c0-2.6,2-2,3.5-1.6c9.9,2.6,19.7,5.2,29.6,7.8c5.8,1.5,11.5,3.1,17.3,4.5c3,0.7,4.3,2.5,4.4,5.4
		C111.7,313.7,111.7,316.4,111.7,319.5z"/>
	<path class="st1" d="M69,290.5c8.5-2.4,16.2-4.6,23.8-6.7c0.6-0.2,1.4,0,2,0.2c14.3,2.8,28.6,5.7,42.8,8.4c2,0.4,3.5,0.9,3.8,3.3
		c0.3,2.4-0.8,3.5-2.8,4.4c-6.2,2.8-12.4,5.7-18.6,8.7c-1.7,0.8-2.4,0.9-2.4-1.4c0-3.6-1.7-5.2-6.2-6.4c-8.3-2.1-16.5-4.1-24.8-6.1
		C81.2,293.5,75.5,292.1,69,290.5z"/>
</g>
</svg>
