<?xml version="1.0" encoding="utf-8"?>
<!-- Generator: Adobe Illustrator 26.3.1, SVG Export Plug-In . SVG Version: 6.00 Build 0)  -->
<svg version="1.1" id="Layer_1" xmlns="http://www.w3.org/2000/svg" xmlns:xlink="http://www.w3.org/1999/xlink" x="0px" y="0px"
	 viewBox="0 0 595.3 595.3" style="enable-background:new 0 0 595.3 595.3;" xml:space="preserve">
<style type="text/css">
	.st0{fill:#FDED4F;}
	.st1{fill:#FFFFFF;}
	.st2{fill:#1C1C1C;}
</style>
<path class="st0" d="M297.6,595.3L297.6,595.3C133.3,595.3,0,462,0,297.6l0,0C0,133.3,133.3,0,297.6,0l0,0
	C462,0,595.3,133.3,595.3,297.6l0,0C595.3,462,462,595.3,297.6,595.3z"/>
<path class="st1" d="M584.9,375.9c0.5-2,1.1-4,1.6-6L584.9,375.9z"/>
<polygon class="st1" points="586.4,369.9 586.4,369.9 586.4,369.9 "/>
<path class="st2" d="M489.9,332.2c-4.1-3.1-6.8-3.8-10,1c-2.8,4.1-6,8-9.4,11.6c-3.4,3.5-3.7,6.1,0.3,9.6c6.7,5.7,8.6,13.5,7.5,22
	c-1.6,11.9-14.2,20.8-27.3,19.4c-11.2-1.2-17.7-10.5-16.4-23.5c0.9-8.6,3.5-16.9,6.9-24.9c6.6-15.2,16-28.8,24.6-42.9
	c8.6-14,8.6-13.9-6-21c-18.3-8.9-18.4-9-27.3,9.3c-13.7,28.2-29.9,54.6-52,77.1c-4.4,4.5-9.3,8.3-15.5,10.5
	c-11,3.8-17.2-1.3-15.2-12.5c1.2-7,3.9-13.6,7.1-19.9c8.8-17.5,19-34.3,29.7-50.9c3.3-5.2,2.5-7.4-2.9-9.8
	c-6.2-2.7-12.4-5.8-18.2-9.3c-5.4-3.3-8-1.7-10.9,3.3c-11.2,18.6-21.7,37.7-30.9,57.3c-6.5,13.8-15.4,26.2-25.2,37.8
	c-4.6,5.4-10.4,9.6-17.4,11.8c-4.3,1.4-8.8,2.3-12.6-1.3c-3.7-3.5-2.9-8-1.8-12.5c2.4-9.1,8-16.4,13.5-23.8
	c6.1-8.2,11.8-16.6,14.2-26.9c4.9-20.9-7.3-37.1-28.8-38.2c-16.2-0.9-30.3,4.1-43.6,12.9c-5.3,3.5-9.9,8.2-17.2,11
	c2.9-9.3,8.2-16.3,11.5-24c1.6-3.7,4-5.5,8.1-6.2c22.2-4,43.7-10.5,64.8-18.3c9.4-3.5,18.2-8,25.9-14.5
	c14.4-12.1,20.1-33.6,13.6-50.7c-6.7-17.5-20.7-26.5-41.5-26.1c-22.6,0.3-40.1,11.1-53.9,27.9c-12.4,15-22.3,31.6-31.3,48.9
	c-2.8,5.4-6.2,8.4-12.3,9.4c-24.5,4.3-48.9,9-73.3,13.7c-7.5,1.5-17.5-2.1-22,4.5c-4.4,6.2-4.5,15.4-6.9,23.1
	c-1.8,5.7,0.6,6.4,5.3,5.5c10.5-1.8,21.2-3.5,31.7-5.3c18.8-3.2,37.5-6.5,56.1-9.8c1.2,3.3-0.5,5.2-1.5,7.3
	c-7.5,17.3-15,34.6-22.7,51.8c-10.3,23.2-20.7,46.3-31.2,69.5c-4.4,9.9-4.6,9.8,6.6,9.8c3.9,0,7.9,0.1,11.8,0
	c18.9-0.3,13.6,2.6,21.4-14c13.2-28,28-55.1,49.8-77.6c5.7-5.9,12.3-10.5,20.3-13c11.4-3.5,17.4,2,15,13.7
	c-1.5,7.3-5.7,13.5-9.8,19.5c-5.9,8.7-11,17.8-13.1,28.3c-5.3,25.1,9.3,43.1,34.8,43c18.9-0.2,35.4-6.7,49-19.7
	c4-3.8,5.9-3.8,9.7,0.3c6.8,7.4,15.6,11,25.9,11.3c16.4,0.5,30.1-6,41.8-16.8c3.4-3,6-6.9,9.5-11.2c7.3,18.9,13.1,26.5,25.3,30.9
	c20,7,40,7.7,59.4-2.5C513.2,402.5,517,352.5,489.9,332.2z M278.9,204c5.2-2.2,10.5-2.9,14.1,2.3c3.5,5.2,2.5,10.6-1.4,15.2
	c-2.3,2.8-5.1,5.4-8.1,7.3c-13.9,8.6-29,13.7-47.4,17C247.7,226.8,259.8,211.8,278.9,204z"/>
</svg>
