<?xml version="1.0" encoding="utf-8"?>
<!-- Generator: Adobe Illustrator 26.3.1, SVG Export Plug-In . SVG Version: 6.00 Build 0)  -->
<svg version="1.1" id="Layer_1" xmlns="http://www.w3.org/2000/svg" xmlns:xlink="http://www.w3.org/1999/xlink" x="0px" y="0px"
	 viewBox="0 0 595.3 595.3" style="enable-background:new 0 0 595.3 595.3;" xml:space="preserve">
<style type="text/css">
	.st0{fill:#FDED4F;}
	.st1{fill:#1C1C1C;}
	.st2{fill:#1F1F1F;}
	.st3{fill:#1E1E1E;}
	.st4{fill:#202020;}
	.st5{fill:#1D1D1D;}
	.st6{fill:#232323;}
</style>
<path class="st0" d="M297.6,595.3L297.6,595.3C133.3,595.3,0,462,0,297.6l0,0C0,133.3,133.3,0,297.6,0l0,0
	C462,0,595.3,133.3,595.3,297.6l0,0C595.3,462,462,595.3,297.6,595.3z"/>
<g>
	<path class="st1" d="M520,299.4c-4.8-3.6-7.9-4.4-11.6,1.2c-3.2,4.8-6.9,9.2-10.9,13.4c-3.9,4.1-4.3,7.1,0.4,11.1
		c7.8,6.6,10,15.6,8.7,25.5c-1.8,13.8-16.4,24.1-31.6,22.4c-12.9-1.4-20.5-12.1-19-27.2c1-10,4-19.5,8-28.8
		c7.6-17.6,18.5-33.3,28.5-49.6c9.9-16.2,9.9-16.1-6.9-24.3c-21.2-10.3-21.3-10.4-31.6,10.8c-15.8,32.6-34.6,63.2-60.2,89.2
		c-5.1,5.2-10.8,9.6-17.9,12.1c-12.7,4.4-19.9-1.5-17.6-14.5c1.4-8.1,4.5-15.7,8.2-23c10.2-20.3,22-39.7,34.3-58.9
		c3.8-6,2.9-8.6-3.4-11.3c-7.2-3.1-14.3-6.7-21-10.8c-6.2-3.8-9.2-2-12.6,3.8c-13,21.5-25.1,43.6-35.8,66.3
		c-7.5,16-17.8,30.3-29.1,43.7c-5.3,6.3-12,11.1-20.1,13.6c-5,1.6-10.2,2.7-14.6-1.5c-4.3-4.1-3.4-9.3-2.1-14.5
		c2.8-10.5,9.2-19,15.6-27.5c7.1-9.5,13.7-19.2,16.4-31.1c5.7-24.2-8.4-42.9-33.3-44.2c-18.7-1-35.1,4.7-50.4,14.9
		c-6.1,4.1-11.4,9.5-19.9,12.7c3.4-10.8,9.5-18.8,13.3-27.8c1.8-4.3,4.6-6.4,9.4-7.2c25.7-4.6,50.6-12.1,75-21.2
		c10.9-4,21.1-9.3,30-16.8c16.7-14,23.3-38.9,15.7-58.6c-7.8-20.3-24-30.6-48-30.2c-26.1,0.4-46.4,12.8-62.4,32.3
		c-14.3,17.4-25.8,36.6-36.2,56.6c-3.2,6.2-7.2,9.7-14.2,10.9c-28.3,5-56.6,10.4-84.8,15.9c-8.7,1.7-20.2-2.4-25.5,5.2
		c-5.1,7.2-5.2,17.8-8,26.7c-2.1,6.6,0.7,7.4,6.1,6.4c12.2-2.1,24.5-4,36.7-6.1c21.7-3.7,43.4-7.5,64.9-11.3c1.4,3.8-0.6,6-1.7,8.4
		c-8.7,20-17.4,40-26.3,59.9c-11.9,26.8-24,53.6-36.1,80.4c-5.1,11.4-5.3,11.3,7.6,11.3c4.5,0,9.1,0.1,13.6,0
		c21.9-0.4,15.7,3,24.7-16.2c15.3-32.4,32.4-63.7,57.6-89.8c6.6-6.8,14.2-12.2,23.5-15c13.2-4,20.1,2.3,17.4,15.9
		c-1.7,8.5-6.6,15.6-11.3,22.6c-6.8,10.1-12.7,20.6-15.2,32.7c-6.1,29,10.8,49.9,40.3,49.7c21.9-0.2,40.9-7.8,56.7-22.8
		c4.6-4.4,6.8-4.4,11.2,0.4c7.9,8.6,18.1,12.7,30,13.1c19,0.6,34.8-6.9,48.4-19.4c3.9-3.5,6.9-8,11-12.9
		c8.4,21.9,15.1,30.7,29.3,35.7c23.1,8.1,46.3,8.9,68.7-2.9C546.9,380.7,551.3,322.9,520,299.4z M275.9,151.1
		c6-2.5,12.1-3.4,16.3,2.7c4.1,6,2.9,12.3-1.6,17.6c-2.7,3.2-5.9,6.2-9.4,8.4c-16.1,9.9-33.6,15.9-54.8,19.7
		C239.8,177.5,253.8,160.1,275.9,151.1z"/>
	<path class="st2" d="M321,439.5c0-3-0.4-5.5-4.2-5.7c-4.4-0.2-4.8,2.6-4.8,5.9c0,7.5,0,15.1,0,22.7c-0.7,0.3-1.4,0.6-2.1,0.9
		c-5-8.5-10.1-16.9-15.1-25.4c-1.7-2.9-3.8-4.7-7.3-4.1c-4.3,0.8-3.6,4.4-3.6,7.2c-0.1,11.8-0.1,23.6,0,35.4c0,3-0.9,7.2,4.4,7.2
		c5.4,0,4.1-4.2,4.3-7.3c0.6-7.3-0.8-14.8,1.3-24.1c6.2,10.5,11.5,19.2,16.6,28c1.8,3.2,4.4,3.9,7.7,3.2c3.4-0.7,2.6-3.7,2.6-5.9
		C321,464.9,321,452.2,321,439.5z"/>
	<path class="st3" d="M162.5,433.1c-13.9,0.3-25.1,11.8-25,25.9c0.1,14.6,11.7,25.7,26.3,25.3c14.1-0.4,24.9-11.9,24.5-26.1
		C187.9,444.1,176.3,432.9,162.5,433.1z M162.8,476.1c-8.7,0-16.2-8.1-16.2-17.4c0.1-9.5,7.3-17,16.4-16.9c9,0.1,16.3,7.8,16.2,17.2
		C179.2,468.3,171.6,476.2,162.8,476.1z"/>
	<path class="st4" d="M432,461.7c5.8-3.4,6.5-10,4.9-16.3c-1.6-6.5-5.9-10.6-12.7-11.3c-5.1-0.5-10.3-0.3-15.4-0.6
		c-5.1-0.3-7,2.2-6.9,7.1c0.1,11.5-0.1,23,0.1,34.5c0.1,3.2-1.8,8.1,3.9,8.5c6.6,0.4,4.2-5.1,4.9-8.5c0.6-3-1.7-7.6,2.4-8.7
		c3.9-1.1,4.7,3.8,6.8,6.2c1.6,1.8,2.9,3.9,4.1,6c2.8,5.1,6.7,6.5,12.1,4.4c-0.4-4.3-3.5-7.1-5.8-10.1
		C427,468.3,425.8,465.4,432,461.7z M417.7,458.2c-6.1,0.5-6.9-3.1-6.8-7.9c0.1-4.9,0-9.5,6.5-8.5c6.2-0.2,11,1.2,11,8.1
		C428.3,456.9,423.2,457.7,417.7,458.2z"/>
	<path class="st5" d="M357.9,439.3c-1.3-3.4-2.8-6.1-7-5.6c-4.2-0.5-5.7,2.4-6.9,5.7c-4.4,11.9-9.1,23.7-13.3,35.7
		c-0.9,2.5-4.9,6.2,0.2,8.3c4.2,1.7,7-0.9,7.8-5.1c1.2-6.1,5.2-6.9,10.6-7.1c7.4-0.3,13,0.7,14.7,9.2c0.8,4,4.5,3.8,7.4,3
		c4.1-1.2,1.3-4.1,0.7-5.9C367.5,464.8,362.5,452.1,357.9,439.3z M355.3,463.4c-2.6,1-6.4,1-8.8-0.2c-3.4-1.7-0.4-4.8,0.2-7.1
		c0.8-3.1,2.2-6.1,4.3-11.5c2.2,5.8,3.8,8.8,4.4,12C355.8,458.7,359.2,461.8,355.3,463.4z"/>
	<path class="st2" d="M269.6,476.2c-3.3-0.1-6.7-0.3-10-0.2c-4.8,0.1-8.2-0.6-8.1-6.8c0.2-6.1,4.1-5.2,8-5.9
		c3.8-0.6,10.7,3,10.3-4.5c-0.3-6.5-6.7-2.8-10.2-3.8c-0.3-0.1-0.6,0-0.9,0c-4.7,0.4-7.3-1.2-7.3-6.5c0-5.3,2.4-6.9,7.2-6.6
		c3.3,0.2,6.7,0,10-0.1c2.3,0,4.2-0.7,4.5-3.4c0.3-3.1-1.5-4.6-4.3-4.5c-8.1,0-17.4-2.9-24,1.3c-5.5,3.5-1.3,12.4-2.2,18.8
		c-0.2,1.5,0,3,0,4.5c0,0,0,0,0.1,0c0,6.7,0,13.3,0,20c0,3,0.7,5.4,4.5,5.4c7.6,0,15.1,0,22.7,0c2.5,0,3.9-1.1,3.9-3.9
		C273.6,477.1,271.9,476.3,269.6,476.2z"/>
	<path class="st2" d="M212,433.5c-14.2-0.1-14.2-0.1-14.2,14.2c0,3.6,0,7.2,0,10.9c0,5.7-0.2,11.5,0.1,17.2c0.1,3.3-1.4,7.9,4.5,7.9
		c6.1,0,4.6-4.9,4.3-7.9c-0.9-8,2.2-10.5,10.1-10.2c10.9,0.4,17-5.7,17.1-15.4C234,438.9,227.1,433.6,212,433.5z M214,458
		c-6.3,0.5-8-2.7-7.2-8.3c-1-5.8,1.3-8.3,7.4-8c5.7,0.3,10.6,1.1,10.5,8.2C224.7,456.9,219.6,457.6,214,458z"/>
	<path class="st6" d="M389.7,459c0-6.9,0-13.8,0-20.8c0-2.9-1.6-4.4-4.5-4.4c-3.1,0-4.3,1.7-4.3,4.5c0,13.5,0,27.1,0,40.6
		c0,2.6,0.6,4.7,4,4.8c3.5,0.1,4.9-1.6,4.9-4.9C389.8,472.2,389.8,465.6,389.7,459C389.7,459,389.7,459,389.7,459z"/>
</g>
</svg>
