<?xml version="1.0" encoding="utf-8"?>
<!-- Generator: Adobe Illustrator 26.3.1, SVG Export Plug-In . SVG Version: 6.00 Build 0)  -->
<svg version="1.1" id="Layer_1" xmlns="http://www.w3.org/2000/svg" xmlns:xlink="http://www.w3.org/1999/xlink" x="0px" y="0px"
	 viewBox="0 0 595.3 595.3" style="enable-background:new 0 0 595.3 595.3;" xml:space="preserve">
<style type="text/css">
	.st0{fill:#FFFFFF;}
	.st1{fill:#7BB8AF;}
</style>
<path class="st0" d="M297.6,595.3L297.6,595.3C133.3,595.3,0,462,0,297.6l0,0C0,133.3,133.3,0,297.6,0l0,0
	C462,0,595.3,133.3,595.3,297.6l0,0C595.3,462,462,595.3,297.6,595.3z"/>
<path class="st0" d="M584.9,375.9c0.5-2,1.1-4,1.6-6L584.9,375.9z"/>
<polygon class="st0" points="586.4,369.9 586.4,369.9 586.4,369.9 "/>
<path class="st1" d="M297.9,94.4c32.3,43,51.6,88.2,53.8,139.8c2.2,48.4,5.4,51.6,52.7,44.1c28-4.3,54.8-12.9,80.7-24.7
	c5.4-3.2,12.9-8.6,18.3-2.2c7.5,7.5-2.2,14-6.5,19.4c-31.2,38.7-71,65.6-117.2,80.7c-25.8,8.6-28,21.5-19.4,44.1
	c12.9,31.2,31.2,58.1,54.8,81.7c5.4,5.4,11.8,8.6,12.9,23.7c-36.6-10.8-66.7-25.8-92.5-49.5c-17.2-16.1-34.4-32.3-48.4-50.5
	c-12.9-17.2-22.6-15.1-37.6-3.2c-29,22.6-50.5,50.5-67.7,82.8c-3.2,5.4-4.3,14-12.9,12.9c-8.6-2.2-6.5-10.8-6.5-17.2
	c1.1-48.4,16.1-92.5,44.1-132.3c20.4-30.1,21.5-31.2-11.8-50.5c-25.8-15.1-54.8-25.8-83.9-32.3c-7.5-1.1-21.5,2.2-21.5-8.6
	c0-11.8,14-10.8,22.6-11.8c47.3-10.8,93.6-7.5,139.8,6.5c21.5,6.5,29,1.1,34.4-18.3c10.8-35.5,7.5-71,6.5-106.5
	C292.5,112.7,290.3,106.2,297.9,94.4z"/>
</svg>
