<?xml version="1.0" encoding="utf-8"?>
<!-- Generator: Adobe Illustrator 26.3.1, SVG Export Plug-In . SVG Version: 6.00 Build 0)  -->
<svg version="1.1" id="Layer_1" xmlns="http://www.w3.org/2000/svg" xmlns:xlink="http://www.w3.org/1999/xlink" x="0px" y="0px"
	 viewBox="0 0 595.3 595.3" style="enable-background:new 0 0 595.3 595.3;" xml:space="preserve">
<style type="text/css">
	.st0{fill:#FFFFFF;}
	.st1{fill:#7BB8AF;}
</style>
<path class="st0" d="M297.6,595.3L297.6,595.3C133.3,595.3,0,462,0,297.6l0,0C0,133.3,133.3,0,297.6,0l0,0
	C462,0,595.3,133.3,595.3,297.6l0,0C595.3,462,462,595.3,297.6,595.3z"/>
<g id="nZ0F8s_00000144309923225260661680000003929643342129012386_">
	<g>
		<path class="st1" d="M94.7,283.3c0-5.3,0-10.5,0-15.8c0-2,0.8-2.8,2.8-2.8c7,0.1,14,0,21,0.1c3.9,0.1,7.1,1.7,8.9,5.4
			c1.7,3.7,1.1,7-1.6,10c-0.9,1-0.7,1.6,0.3,2.3c4.2,3.1,5.5,7.2,3.9,12.1c-1.7,5-5.8,7.4-10.7,7.6c-7.4,0.4-14.9,0.1-22.4,0.1
			c-2,0-2.3-1.2-2.3-2.7C94.7,294.2,94.7,288.7,94.7,283.3z M110.9,284.4c-2.7,0-5.4,0-8.1,0c-1.3,0-2.3,0.4-2.3,1.9
			c0,3.3,0,6.6,0,10c0,1.2,0.7,1.7,1.9,1.7c5.7-0.1,11.4,0.5,17-0.4c4-0.6,6.1-3.2,5.8-7.1c-0.2-3.5-2.8-5.9-6.7-6.1
			C116,284.3,113.5,284.4,110.9,284.4z M110.4,279.6C110.4,279.6,110.4,279.6,110.4,279.6c2.5,0,5.1,0.1,7.6-0.1
			c2.8-0.2,4.4-1.7,4.7-4.4c0.3-2.5-1-4.6-3.5-5.5c-1.2-0.4-2.4-0.6-3.6-0.6c-2.6,0-5.3,0-7.9,0c-8.6,0.2-7.2-1.5-7.4,7.9
			c0,1.9,0.7,2.7,2.6,2.7C105.5,279.6,108,279.6,110.4,279.6z"/>
		<path class="st1" d="M436.7,283.4c0-5.2,0.1-10.4,0-15.5c-0.1-2.5,0.9-3.2,3.2-3.2c5.9,0.1,11.8,0,17.6,0.1
			c6.3,0.1,10.9,3.5,12.4,9c1.5,5.7-0.8,11.8-6,14.7c-1.8,1-1.9,1.8-0.9,3.4c1.8,2.6,3.4,5.4,5.1,8c1,1.6,1,2.3-1.1,2.4
			c-2.2,0.1-3.8-0.3-4.9-2.5c-1.4-2.6-3.1-5.1-4.6-7.7c-0.7-1.2-1.7-1.9-3.2-1.9c-3.2,0-6.5,0-9.7,0c-1.8,0-2.5,0.8-2.5,2.5
			c0.1,2.2-0.1,4.4,0,6.6c0.1,1.9-0.5,2.9-2.7,2.9c-2.1,0-2.8-0.8-2.8-2.8C436.8,294.1,436.7,288.8,436.7,283.4z M451.5,285.9
			c2.1-0.1,4.7,0.3,7.3-0.3c4.2-1,6.4-3.8,6.3-8.1c0-4.3-2.1-6.9-6.3-7.8c-4.9-1-9.8-0.4-14.7-0.4c-1.4,0-1.6,1.1-1.6,2.2
			c0,4,0,8.1,0,12.1c0,1.7,0.7,2.4,2.4,2.3C446.9,285.8,448.9,285.9,451.5,285.9z"/>
		<path class="st1" d="M196.4,283.4c0-5.2,0.1-10.4,0-15.5c0-2.2,0.7-3.2,3-3.1c6.1,0.1,12.1,0,18.2,0.1c5.9,0.1,10.7,3.7,12,8.8
			c1.5,6-0.6,11.9-5.8,14.8c-2.2,1.2-2.1,2.1-0.8,3.9c1.7,2.4,3.3,5,4.8,7.5c1.3,2.1,1.1,2.3-1.5,2.5c-2.1,0.1-3.5-0.5-4.5-2.4
			c-1.4-2.6-3.1-5.1-4.6-7.7c-0.8-1.4-1.8-2-3.4-2c-3.2,0.1-6.5,0.1-9.7,0c-1.7,0-2.4,0.7-2.3,2.4c0.1,2.5,0,4.9,0,7.4
			c0,2-1.1,2.3-2.7,2.3c-1.6,0-2.8-0.4-2.7-2.3c0-0.2,0-0.4,0-0.5C196.4,294.1,196.4,288.7,196.4,283.4z M210.1,285.9
			C210.1,285.9,210.1,285.9,210.1,285.9c2.1,0,4.2,0.1,6.3,0c4.2-0.2,7.1-2.4,7.9-5.8c1.4-6.1-1.7-10.4-8.1-10.8
			c-4.1-0.3-8.2-0.1-12.4-0.1c-1.4,0-2.1,0.5-2.1,2c0,4.2,0,8.4,0,12.6c0,1.6,0.8,2.1,2.3,2.1C206.1,285.8,208.1,285.9,210.1,285.9z
			"/>
		<path class="st1" d="M265.8,264.3c1.6,0.1,3.8-0.1,6.1,0.5c10.3,2.8,13.7,10.7,13.3,20c-0.6,14.6-12.3,19.4-23.9,17.8
			c-15-2.1-21.9-17.8-13.7-30.7c3.2-5,8.1-7,13.8-7.6C262.6,264.2,263.9,264.3,265.8,264.3z M264.9,298.1c8.9,0,13.6-3.6,14.6-11.5
			c0.3-2.2,0.3-4.4,0-6.6c-0.7-4.5-2.4-8.5-7.1-10.3c-3.1-1.2-6.3-1.5-9.6-1.2c-3.7,0.4-7.4,1.2-9.7,4.5c-4.1,5.8-4,12.1-1.4,18.3
			C254.1,297.1,259.4,298.1,264.9,298.1z"/>
		<path class="st1" d="M147.3,283.5c0-5.2,0.1-10.4,0-15.5c-0.1-2.3,0.7-3.3,3.1-3.3c8.7,0.1,17.4,0,26.1,0c1.6,0,3,0,3,2.2
			c0,2.3-1.6,2.2-3.1,2.2c-6.8,0-13.7,0.1-20.5,0c-2.4,0-3.2,0.7-3.2,3.1c0,7.8-0.1,7.8,7.7,7.8c4.3,0,8.6,0,12.9,0
			c1.1,0,3-0.6,2.9,1.5c0,1.9-0.8,3.3-3.2,3.2c-5.6-0.1-11.2,0.1-16.8-0.1c-2.6-0.1-3.7,0.7-3.5,3.4c0.2,2.1,0.1,4.2,0,6.3
			c-0.2,2.4,0.9,3,3.1,3c7.2-0.1,14.4,0,21.6-0.1c2,0,2.9,0.7,2.8,2.8c-0.1,1.4-0.8,2-2.1,2c-9.5,0-19,0-28.4,0
			c-2,0-2.3-1.2-2.2-2.8C147.3,294.2,147.3,288.9,147.3,283.5z"/>
		<path class="st1" d="M316.6,264.3c3.8-0.1,7.5-0.1,11,1.1c0.7,0.3,1.5,0.5,2.2,0.8c1.9,0.8,1.6,2.4,1.3,3.8
			c-0.4,1.6-1.8,0.7-2.7,0.4c-5.6-1.6-11.3-2.5-17.2-1.3c-1.2,0.2-2.4,0.5-3.6,0.9c-1.9,0.7-3.2,2-3.1,4.1c0.1,2.1,1.4,3.4,3.4,3.8
			c3.9,0.8,7.8,1.4,11.7,2.1c2.7,0.5,5.4,0.9,7.9,1.9c3.4,1.2,5.8,3.4,6.3,7.1c0.6,4.3-0.3,8-4.2,10.6c-2.5,1.6-5.3,2.5-8.2,2.8
			c-6.6,0.7-13.1,0.9-19.5-1.4c-1.1-0.4-2.2-0.6-2.4-2.1c-0.4-2.4,0.3-3.2,2.7-2.5c6.6,1.8,13.2,2.6,20,1c1.2-0.3,2.4-0.7,3.4-1.3
			c2.1-1.2,3-3.1,2.8-5.6c-0.2-2.3-1.7-3.5-3.8-4.2c-3.8-1.2-7.8-1.3-11.7-2.1c-2.3-0.5-4.7-0.8-7-1.4c-4.1-1.1-6.6-3.8-7-7.4
			c-0.5-4.3,1.2-7.3,5.2-9.4C308.3,264.1,312.5,264.1,316.6,264.3z"/>
		<path class="st1" d="M404.5,264.8c1.9-0.4,3.1,0.6,4.1,2.7c4.7,10.5,9.5,20.9,14.3,31.4c0.4,1,1.8,2.1,0.4,3.2
			c-1.1,0.9-4.5,0.1-5.2-1.2c-0.8-1.4-1.5-2.8-2.1-4.2c-0.5-1.2-1.3-1.7-2.6-1.7c-6.2,0-12.5,0-18.7,0c-1.5,0-2.5,0.6-3,2
			c-0.5,1.1-1,2.2-1.6,3.3c-0.9,1.8-3.2,2.7-5,1.9c-1.5-0.6-0.6-1.6-0.3-2.4c2.7-5.9,5.4-11.8,8.1-17.7c2.2-4.8,4.4-9.6,6.6-14.3
			C400.8,264.7,400.9,264.7,404.5,264.8z M404.4,270.2c-0.2,0-0.5,0-0.7,0c-2.8,6.2-5.6,12.5-8.3,18.7c-0.5,1.1,0,1.7,1.2,1.7
			c4.9,0,9.8,0,14.7,0c1.2,0,1.9-0.5,1.3-1.8C409.8,282.6,407.1,276.4,404.4,270.2z"/>
		<path class="st1" d="M505.6,246c3,4,4.8,8.2,5,13c0.2,4.5,0.5,4.8,4.9,4.1c2.6-0.4,5.1-1.2,7.5-2.3c0.5-0.3,1.2-0.8,1.7-0.2
			c0.7,0.7-0.2,1.3-0.6,1.8c-2.9,3.6-6.6,6.1-10.9,7.5c-2.4,0.8-2.6,2-1.8,4.1c1.2,2.9,2.9,5.4,5.1,7.6c0.5,0.5,1.1,0.8,1.2,2.2
			c-3.4-1-6.2-2.4-8.6-4.6c-1.6-1.5-3.2-3-4.5-4.7c-1.2-1.6-2.1-1.4-3.5-0.3c-2.7,2.1-4.7,4.7-6.3,7.7c-0.3,0.5-0.4,1.3-1.2,1.2
			c-0.8-0.2-0.6-1-0.6-1.6c0.1-4.5,1.5-8.6,4.1-12.3c1.9-2.8,2-2.9-1.1-4.7c-2.4-1.4-5.1-2.4-7.8-3c-0.7-0.1-2,0.2-2-0.8
			c0-1.1,1.3-1,2.1-1.1c4.4-1,8.7-0.7,13,0.6c2,0.6,2.7,0.1,3.2-1.7c1-3.3,0.7-6.6,0.6-9.9C505.1,247.7,504.9,247.1,505.6,246z"/>
		<path class="st1" d="M361.9,264.8c5.4,0,10.7,0,16.1,0c1.5,0,2.8,0.2,2.8,2.2c0,2-1.2,2.3-2.8,2.2c-2.8,0-5.6,0-8.4,0
			c-5,0-5,0-5,4.9c0,8.4,0,16.9,0,25.3c0,2.1-0.6,3-2.8,3c-2.2,0-2.6-1.1-2.6-3c0-8.9,0-17.7,0-26.6c0-3.4-0.2-3.6-3.5-3.6
			c-3.4,0-6.8,0-10.3,0c-1.6,0-2.5-0.6-2.4-2.3c0-1.6,0.9-2.1,2.4-2.1C350.9,264.8,356.4,264.8,361.9,264.8z"/>
		<path class="st1" d="M70.4,283.3c0-5.3,0.1-10.5,0-15.8c0-2,0.8-2.8,2.8-2.8c2,0,2.6,0.9,2.6,2.7c0,10.7,0,21.4,0,32.1
			c0,1.8-0.5,2.8-2.5,2.8c-2,0-2.9-0.6-2.8-2.7C70.4,294.2,70.4,288.7,70.4,283.3z"/>
		<path class="st1" d="M262.5,337c1,0,1.6,0,2.2,0c0.6,0,1.3,0,1.5,0.7c0.2,0.6-0.5,0.8-0.8,1.2c-2.6,2.6-2.4,5.6,0.5,7.5
			c0.6,0.4,1.1,0.7,0.8,1.4c-0.2,0.7-0.9,0.8-1.5,0.7c-0.8-0.2-1.5-0.4-2.2-0.8c-1-0.6-1.8-0.8-2.9-0.1c-2.2,1.4-4.7,1.3-7.1,1
			c-5.3-0.6-7.5-5.3-4.6-9.8c0.7-1.1,0.8-1.9,0.5-3.1c-0.6-2.2,0.5-4.2,2.8-5c2.7-0.9,5.5-0.8,8.2,0.2c0.7,0.3,1.7,0.5,1.4,1.6
			c-0.3,1-1.2,0.8-2,0.5c-1.7-0.5-3.4-0.8-5.2-0.6c-1.1,0.1-2.1,0.4-2.6,1.5c-0.5,1.2,0.3,2,1.2,2.7c2.2,1.7,4.4,3.5,6.7,5.1
			c0.5,0.4,1.1,1.1,1.8,0.3c0.6-0.8,0.8-1.7,0.1-2.7c-0.5-0.7-2.4-0.5-1.6-1.8C260.3,336.5,261.8,337.2,262.5,337z M255.6,346.5
			c0.2,0,0.8,0,1.3-0.1c0.8-0.2,1.9-0.3,2.1-1.3c0.2-0.9-0.9-1.2-1.5-1.6c-1.4-1.1-2.8-2.1-4.1-3.2c-1.7-1.4-2.7-0.6-3.2,1.2
			C249.2,344.4,251.4,346.5,255.6,346.5z"/>
		<path class="st1" d="M388.2,339.6c0-2.3,0-4.6,0-6.8c0-1.4,0.7-2.1,2.1-2.1c2.7,0,5.4-0.1,8.2,0.1c2.3,0.2,4.1,1.3,5,3.6
			c1,2.5,0.7,5-1.3,6.5c-2.2,1.7-1.8,3.1-0.5,4.9c0.5,0.8,1.9,1.8,0.9,2.6c-1.3,0.9-2.5-0.2-3.1-1.5c-1.3-2.5-2.7-4.6-6.2-4.1
			c-1.6,0.3-2.4,0.8-2.3,2.4c0,0.3,0,0.7,0,1.1c-0.1,0.9,0.1,2.1-1.3,2.2c-1.4,0-1.4-1.1-1.4-2.1
			C388.2,344.2,388.2,341.9,388.2,339.6z M395.1,332.9c-1.2,0.5-3.6-1.1-4,1.7c-0.2,1.5-0.1,3,0,4.5c0,1.1,0.6,1.6,1.7,1.6
			c1.7,0,3.4,0.1,5-0.1c2.2-0.3,3.4-1.7,3.3-4C400.9,333.7,399.7,332.9,395.1,332.9z"/>
		<path class="st1" d="M289.1,339.7c0-2.2,0-4.4,0-6.6c-0.1-1.8,0.8-2.5,2.5-2.5c2.4,0.1,4.9,0,7.4,0.1c2.5,0.1,4.4,1.2,5.3,3.7
			c0.8,2.4,0.7,4.9-1.3,6.5c-2.2,1.7-1.8,3.1-0.4,5c0.5,0.7,1.8,1.7,0.5,2.6c-1.2,0.8-2.1-0.4-2.7-1.4c-1.4-2.2-2.4-4.7-5.9-4.2
			c-1.8,0.2-2.8,0.6-2.7,2.6c0,0.5,0,1.1-0.1,1.6c-0.1,0.7-0.3,1.4-1.2,1.5c-1,0.1-1.4-0.6-1.4-1.5
			C289.1,344.6,289.1,342.1,289.1,339.7C289.1,339.7,289.1,339.7,289.1,339.7z M296.3,332.9c-4.4,0-4.5,0-4.5,3
			c-0.1,4.9-0.1,5,4.9,4.8c0.9,0,1.7-0.2,2.6-0.4c1.7-0.5,2.5-1.7,2.5-3.5C301.9,333.8,300.5,332.9,296.3,332.9z"/>
		<path class="st1" d="M122,330.2c5.9,0,9.5,3.6,9.5,9.5c0,5.9-3.5,9.3-9.6,9.4c-5.6,0.1-9.4-4-9.3-9.8
			C112.7,333.7,116.4,330.1,122,330.2z M122,346.5c4.4,0,6.8-2.4,6.8-6.8c0-4.4-2.7-7.3-6.9-7.3c-4.1,0-6.6,2.8-6.7,7.2
			C115.3,344.1,117.6,346.5,122,346.5z"/>
		<path class="st1" d="M379.4,339.7c0,6.2-3.2,9.3-9.6,9.4c-5.4,0.1-8.9-3.7-8.9-9.5c0-5.9,3.4-9.3,9.3-9.3
			C376.1,330.2,379.4,333.6,379.4,339.7z M376.7,339.6c0-4.7-2.2-7.1-6.5-7.1c-4.2,0-6.6,2.6-6.6,7.1c0,4.8,2.2,7,6.9,7
			C374.6,346.5,376.7,344.2,376.7,339.6z"/>
		<path class="st1" d="M443.7,349.3c-1.8,0.1-3.5-0.2-5.2-0.7c-0.9-0.2-2.2-0.2-1.9-1.6c0.3-1.2,1.4-0.8,2.2-0.6
			c2.5,0.4,5,0.9,7.6,0.2c1.8-0.5,3.9-0.7,3.9-3.1c0-2.4-2.3-2.3-3.9-2.6c-2-0.5-4.2-0.6-6.2-1.1c-2.3-0.6-3.9-1.9-3.9-4.6
			c0-2.6,1.7-3.7,3.9-4.3c3.1-0.8,6.2-1,9.4-0.1c0.9,0.2,2.1,0.4,1.7,1.8c-0.3,1.1-1.4,0.8-2.2,0.7c-2.3-0.3-4.6-0.9-7-0.3
			c-1.3,0.4-2.7,0.8-2.8,2.3c0,1.7,1.6,1.9,2.8,2.2c1.6,0.3,3.3,0.5,4.9,0.7c3.9,0.6,6.2,2.5,6.2,5.3c0,2.8-2.3,5-6,5.6
			C446,349.2,444.8,349.2,443.7,349.3z"/>
		<path class="st1" d="M216.1,349.3c-1.9,0-3.7-0.2-5.5-0.8c-0.7-0.2-1.8-0.2-1.6-1.3c0.2-1.2,1.2-1.1,2.1-0.9
			c2.8,0.5,5.5,1,8.3,0.3c1.6-0.4,3.2-0.8,3.3-2.8c0.1-2.2-1.7-2.4-3.2-2.7c-2.2-0.5-4.5-0.7-6.7-1.3c-2.7-0.7-4.3-2.6-4.1-4.8
			c0.3-2.5,2-3.8,4.4-4.3c2.9-0.6,5.7-0.9,8.6-0.1c0.9,0.2,2.4,0.1,2.1,1.7c-0.3,1.5-1.6,1-2.6,0.8c-2.4-0.3-4.8-1-7.3-0.1
			c-1.2,0.4-2.5,0.9-2.4,2.4c0.1,1.4,1.4,1.7,2.5,2c2.4,0.5,4.9,0.7,7.2,1.3c3.7,1,5.2,3.9,3.9,7c-1.1,2.4-3.3,3-5.6,3.5
			C218.4,349.3,217.2,349.2,216.1,349.3z"/>
		<path class="st1" d="M343.9,349.2c-1.9,0.1-3.7-0.1-5.4-0.6c-0.8-0.3-2.3-0.1-2-1.5c0.2-1.4,1.5-0.9,2.4-0.7
			c2.7,0.4,5.4,0.9,8.1,0.2c1.6-0.4,3.2-0.9,3.2-2.9c0-2-1.7-2.3-3.1-2.6c-2.2-0.5-4.5-0.7-6.7-1.2c-2.4-0.6-4.2-2-4.2-4.7
			c0-2.2,1.7-3.8,4.5-4.4c3-0.6,6.1-0.9,9.1,0.1c0.7,0.2,1.6,0.6,1.3,1.6c-0.3,1-1.1,0.9-2,0.8c-2.2-0.3-4.3-1-6.5-0.5
			c-1.5,0.3-3.5,0.5-3.6,2.4c0,2.1,2,2.1,3.5,2.4c2.2,0.5,4.5,0.6,6.7,1.3c2.2,0.6,3.7,2.1,3.7,4.5c0,2-0.8,3.6-2.6,4.5
			C348.3,349,346.1,349.4,343.9,349.2z"/>
		<path class="st1" d="M163.7,339.4c0-2.2,0-4.4,0-6.6c0-1.6,0.7-2.2,2.2-2.2c3.3,0,6.7,0,10,0c0.8,0,1.8,0,1.8,1.1
			c0,1.1-1,1.1-1.7,1.1c-2.5,0-4.9,0.1-7.4,0c-2,0-2.2,1.2-2.2,2.7c0,1.6,0.6,2.4,2.3,2.4c2.1,0,4.2,0,6.3,0c0.8,0,1.7,0.1,1.6,1.2
			c-0.1,0.9-0.9,0.9-1.6,1c-1.9,0-3.9,0.2-5.8,0c-2.5-0.2-2.9,1.1-2.9,3.2c0,2.2,0.6,3.2,3,3.1c2.4-0.2,4.7,0,7.1,0
			c0.8,0,1.8-0.1,1.8,1c0,1.1-1,1.1-1.7,1.1c-3.6,0-7.2,0-10.8,0c-1.4,0-2-0.7-2-2.1C163.7,344.2,163.7,341.8,163.7,339.4z"/>
		<path class="st1" d="M313.4,339.7c0-2.2,0-4.4,0-6.6c0-1.6,0.6-2.5,2.3-2.4c3.3,0,6.7,0,10,0c0.8,0,1.8,0,1.8,1.1
			c0,1.1-1,1.1-1.8,1.1c-2.1,0-4.2,0.1-6.3,0c-1.8,0-3.3,0-3.3,2.5c0,2.4,1.3,2.7,3.2,2.6c1.8-0.1,3.7,0,5.5,0c0.7,0,1.6,0.1,1.6,1
			c0.1,1.1-0.9,1.2-1.7,1.2c-2.1,0-4.2,0.1-6.3,0c-2.5-0.1-2.2,1.6-2.3,3.2c0,1.6-0.1,3.1,2.2,3c2.6-0.1,5.3,0,7.9,0
			c0.8,0,1.8,0,1.8,1.1c0,1.1-1,1.1-1.8,1.1c-3.5,0-7,0-10.5,0c-1.7,0-2.3-0.8-2.3-2.4C313.4,344.1,313.4,341.9,313.4,339.7z"/>
		<path class="st1" d="M87.9,340.1c0-2.3,0-4.6,0-6.8c0-0.9,0.2-1.8,1.4-1.8c1.1,0.1,1.1,0.9,1.2,1.7c0.2,1.7-0.8,3.9,0.7,5
			c1.5,1.1,3.7,0.3,5.7,0.4c0.5,0,1.1,0,1.6,0c2.3,0.3,3.3-0.7,3-3c0-0.3-0.1-0.5,0-0.8c0.3-1.2-0.8-3.3,1.4-3.3
			c1.9,0,1.2,2,1.2,3.2c0.1,4,0,8.1,0,12.1c0,0.9,0.1,2.2-1.2,2.2c-1.6,0.1-1.4-1.3-1.4-2.3c-0.3-6-0.3-6-6.4-6
			c-0.5,0-1.1,0.1-1.6,0c-2.3-0.3-3.3,0.7-3,3c0.1,1.2,0,2.5,0,3.7c0,0.9-0.3,1.6-1.3,1.6c-1,0-1.3-0.8-1.3-1.7
			C87.9,345,87.9,342.5,87.9,340.1C87.9,340.1,87.9,340.1,87.9,340.1z"/>
		<path class="st1" d="M419.9,330.6c2.3,0,4.6,0,6.8,0c0.8,0,1.8,0,1.8,1c0.1,1.1-0.9,1.1-1.7,1.1c-5.4,0.6-5.4,0.6-5.4,6
			c0,2.5,0,5.1,0,7.6c0,1.1-0.1,2.2-1.6,2.2c-1.3-0.1-1.4-1.2-1.4-2.1c0-3.5-0.1-7,0-10.5c0.1-2.2-0.7-3.3-3-3.1
			c-1,0.1-1.9,0-2.9-0.1c-0.6,0-1.3-0.3-1.2-1.1c0-0.8,0.6-1,1.3-1C415,330.7,417.4,330.7,419.9,330.6
			C419.9,330.7,419.9,330.7,419.9,330.6z"/>
		<path class="st1" d="M146.9,330.7c2.4,0,4.7,0,7.1,0c0.7,0,1.5,0.1,1.5,1c0,1-0.8,1-1.5,1.1c-0.3,0-0.7,0-1,0c-5.3,0-5-0.6-5,5.2
			c0,2.8,0,5.6,0,8.4c0,1-0.1,2.1-1.4,2c-1.2-0.1-1.2-1.1-1.2-2c0-3.6-0.1-7.2,0-10.8c0.1-2.1-0.6-3-2.8-3c-1.4,0-4.1,1.1-4.1-1.1
			c0-1.8,2.8-0.8,4.3-1C144.1,330.5,145.5,330.6,146.9,330.7C146.9,330.6,146.9,330.7,146.9,330.7z"/>
		<path class="st1" d="M186.9,339.4c0-2.2,0-4.4,0-6.6c0-1,0-2.1,1.4-2c1.2,0.1,1.2,1.1,1.2,2c0,3.7,0.1,7.4,0,11
			c0,1.9,0.7,2.7,2.6,2.6c2.3-0.1,4.6,0,6.8,0c0.8,0,1.8-0.1,1.8,1c0.1,1.1-0.9,1.1-1.7,1.1c-3.4,0-6.8,0-10.2,0c-1.5,0-2-0.8-2-2.2
			C186.9,344.1,186.9,341.8,186.9,339.4z"/>
	</g>
</g>
</svg>
