<?xml version="1.0" encoding="UTF-8" standalone="yes"?>
<!-- Created with sK1/UniConvertor (http://sk1project.org/) -->
<svg xmlns="http://www.w3.org/2000/svg" xmlns:xlink="http://www.w3.org/1999/xlink"
  width="988.8pt" height="249.6pt" viewBox="0 0 988.8 249.6"
  fill-rule="evenodd">
<g>
<path style="stroke:none; fill:#ffffff" d="M 0 0L 0 22.4L 0.8 22.4C 3.32671 11.4834 11.8645 2.49915 23.2 0.800003C 16.8893 -1.84807 6.84066 0 0 0z"/>
<path style="stroke:none; fill:#f9c7b5" d="M 23.2 0L 23.2 0.800003L 31.2 0.800003C 28.6694 -0.261887 25.9315 0.000305176 23.2 0z"/>
<path style="stroke:none; fill:#ffffff" d="M 31.2 0L 31.2 0.800003C 68.7958 4.10313 55.5607 65.969 19.2 53.8605C 14.987 52.4575 11.1932 50.372 8.07472 47.1655C 4.40282 43.3899 2.00848 38.6877 0.8 33.6L 0 33.6L 0 249.6L 138.4 249.6L 138.4 248.8C 96.1864 248.45 67.3214 204.992 65.6315 166.4C 63.5197 118.173 95.7112 75.0782 145.6 73.2753C 158.778 72.799 172.446 77.0882 183.2 84.6168C 188.017 87.9888 191.774 93.1216 196.8 96L 196.8 12L 244 12L 244 245.6L 196.8 245.6L 196.8 225.6L 196 225.6C 185.898 238.858 168.751 248.079 152 248.8L 152 249.6L 301.6 249.6L 301.6 248.8C 292.433 248.794 283.098 246.862 274.4 243.999C 271.624 243.086 267.323 242.322 265.622 239.685C 263.571 236.506 264.8 230.046 264.8 226.4L 264.8 194.4C 277.535 202.252 290.227 208.8 305.6 208.8C 311.936 208.8 319.369 208.273 322.328 201.588C 328.459 187.741 307.213 179.585 298.4 174.409C 275.926 161.21 258.102 145.43 261.831 116.8C 266.461 81.2664 306.33 70.0107 336.8 74.0605C 343.163 74.9062 357.266 74.6653 361.918 79.6512C 364.399 82.3112 363.2 88.6432 363.2 92L 363.2 124.8C 351.256 118.515 336.254 112.079 322.4 114.063C 314.998 115.124 306.636 120.889 310.472 129.588C 313.142 135.646 321.016 138.815 326.4 141.939C 337.87 148.596 350.114 154.779 359.061 164.8C 389.706 199.12 359.505 248.682 316.8 248.8L 316.8 249.6L 988.8 249.6L 988.8 115.2L 960.8 115.2L 960.8 210.4L 960.8 234.4C 960.8 237.045 961.584 241.45 959.52 243.518C 957.008 246.03 950.448 244.8 947.2 244.8L 914.4 244.8L 914.4 115.2L 888 115.2L 888 86.4C 888 83.4472 886.976 77.9451 889.856 76.0222C 895.296 72.3896 910.304 75.2 916.8 75.2L 916.8 50.4C 916.8 47.4643 915.952 42.8275 917.624 40.2426C 919.76 36.9215 926.136 36.8651 929.6 36.0927C 940.016 33.7703 950.464 31.4805 960.8 28.8L 960.8 75.2L 988.8 75.2L 988.8 0L 31.2 0z"/>
<path style="stroke:none; fill:#f8b599" d="M 20 0.800003L 20 1.60001L 22.4 1.60001C 21.4014 1.0522 21.1612 1.00096 20 0.800003z"/>
<path style="stroke:none; fill:#f7936b" d="M 22.4 1.15126C 2.01681 4.36101 -6.77643 30.8582 6.77407 46.3278C 13.5166 54.0252 23.9154 55.5897 33.6 54.1593C 51.423 51.5268 59.2958 29.4346 51.2679 14.4C 45.6036 3.79189 33.9513 -0.66774 22.4 1.15126z"/>
<path style="stroke:none; fill:#fbdfd3" d="M 34.1334 1.06668C 33.7778 1.4222 34.6222 1.37776 34.6666 1.33333C 35.0222 0.977783 34.1778 1.02225 34.1334 1.06668z"/>
<path style="stroke:none; fill:#f9c7b5" d="M 17.6 1.60001L 18.4 2.40001L 17.6 1.60001z"/>
<path style="stroke:none; fill:#fbd2c3" d="M 36.5334 1.86668C 36.1778 2.22224 37.0222 2.17775 37.0666 2.13333C 37.4222 1.77783 36.5778 1.82222 36.5334 1.86668z"/>
<path style="stroke:none; fill:#f9c7b5" d="M 38.4 2.40001L 39.2 3.20001L 38.4 2.40001M 40 3.20001L 40.8 4L 40 3.20001z"/>
<path style="stroke:none; fill:#fbd2c3" d="M 41.6 4L 42.4 4.8L 41.6 4z"/>
<path style="stroke:none; fill:#f9c7b5" d="M 11.2 4.8L 12 5.60001L 11.2 4.8z"/>
<path style="stroke:none; fill:#fbd2c3" d="M 44.8 6.40001L 45.6 7.20001L 44.8 6.40001z"/>
<path style="stroke:none; fill:#f9c7b5" d="M 47.2 8.8L 48 9.60001L 47.2 8.8z"/>
<path style="stroke:none; fill:#fbd2c3" d="M 48 9.60001L 48.8 10.4L 48 9.60001z"/>
<path style="stroke:none; fill:#f9c7b5" d="M 4.8 11.2L 5.6 12L 4.8 11.2M 49.6 12L 50.4 12.8L 49.6 12z"/>
<path style="stroke:none; fill:#fbdfd3" d="M 196.8 12C 196.8 39.9534 193.753 69.8784 196.8 97.6L 197.6 97.6L 197.6 38.4C 197.6 30.7322 199.766 19.0682 196.8 12z"/>
<path style="stroke:none; fill:#f7936b" d="M 197.6 12L 197.6 97.6C 189.633 89.2768 181.609 81.5472 170.4 77.7648C 160.136 74.3012 149.164 72.8503 138.4 74.1722C 117.864 76.6944 99.428 84.3896 85.972 100.8C 51.0699 143.362 61.8331 226.798 119.2 244.574C 131.324 248.33 144.15 250.154 156.8 248.064C 173.95 245.23 185.644 236.999 197.6 224.8L 197.6 244.8L 243.2 244.8L 243.2 12L 197.6 12z"/>
<path style="stroke:none; fill:#f9c7b5" d="M 243.2 12L 243.2 245.6L 244 245.6L 244 80.8L 244 33.6C 244 27.1941 245.684 17.9196 243.2 12z"/>
<path style="stroke:none; fill:#fbd2c3" d="M 3.2 13.6L 4 14.4L 3.2 13.6M 2.4 15.2L 3.2 16L 2.4 15.2z"/>
<path style="stroke:none; fill:#f8b599" d="M 53.0666 18.9334C 53.0222 18.9778 52.9778 19.8222 53.3334 19.4666C 53.3778 19.4223 53.4222 18.5777 53.0666 18.9334z"/>
<path style="stroke:none; fill:#f9c7b5" d="M 53.8666 22.1334C 53.8222 22.1778 53.7778 23.0222 54.1334 22.6666C 54.1777 22.6223 54.2222 21.7777 53.8666 22.1334M 0 22.4L 0 24.8L 0.8 24.8C 0.599031 23.6387 0.547862 23.3987 0 22.4z"/>
<path style="stroke:none; fill:#f8ac8d" d="M 53.8666 23.7334C 53.8222 23.7778 53.7778 24.6223 54.1334 24.2666C 54.1777 24.2223 54.2222 23.3777 53.8666 23.7334M 0 24.8L 0 31.2L 0.8 31.2C 0.794222 28.9316 0.878184 26.8902 0 24.8z"/>
<path style="stroke:none; fill:#fbdfd3" d="M 959.736 29.0667C 959.376 29.4222 960.224 29.3779 960.264 29.3334C 960.624 28.9779 959.776 29.0222 959.736 29.0667z"/>
<path style="stroke:none; fill:#fbd2c3" d="M 955.736 29.8667C 955.376 30.2223 956.224 30.1778 956.264 30.1334C 956.624 29.7779 955.776 29.8222 955.736 29.8667z"/>
<path style="stroke:none; fill:#f7956f" d="M 957.336 29.8667C 956.976 30.2223 957.824 30.1778 957.864 30.1334C 958.224 29.7779 957.376 29.8222 957.336 29.8667z"/>
<path style="stroke:none; fill:#f57947" d="M 917.6 76L 888.8 76L 888.8 115.2L 914.4 115.2L 914.4 244L 960 244L 960 115.2L 988.8 115.2L 988.8 76L 960 76L 960 29.6C 949.824 31.5739 939.672 33.827 929.6 36.2994C 926.608 37.0336 920.432 37.2021 918.424 39.7821C 916.68 42.0258 917.6 46.9298 917.6 49.6L 917.6 76z"/>
<path style="stroke:none; fill:#f9b9a3" d="M 960 29.6L 960 76L 960.8 76L 960.8 44.8C 960.8 40.0905 961.832 33.9699 960 29.6z"/>
<path style="stroke:none; fill:#f7956f" d="M 953.336 30.6666C 952.976 31.0224 953.824 30.9777 953.864 30.9334C 954.224 30.5779 953.376 30.6223 953.336 30.6666z"/>
<path style="stroke:none; fill:#f9c7b5" d="M 0 31.2L 0 33.6L 0.8 33.6C 0.599035 32.4387 0.547842 32.1987 0 31.2z"/>
<path style="stroke:none; fill:#f8b599" d="M 53.6 31.2L 53.6 33.6L 54.4 33.6C 54.199 32.4386 54.1478 32.1987 53.6 31.2M 949.336 31.4666C 948.976 31.8224 949.824 31.7777 949.864 31.7334C 950.224 31.3779 949.376 31.4223 949.336 31.4666z"/>
<path style="stroke:none; fill:#f79181" d="M 946.136 32.2666C 945.776 32.6223 946.624 32.5777 946.664 32.5334C 947.024 32.1779 946.176 32.2223 946.136 32.2666z"/>
<path style="stroke:none; fill:#f9b9a3" d="M 942.136 33.0667C 941.776 33.4224 942.624 33.3777 942.664 33.3334C 943.024 32.9778 942.176 33.0223 942.136 33.0667z"/>
<path style="stroke:none; fill:#f8b599" d="M 938.936 33.8667C 938.576 34.2222 939.424 34.1778 939.464 34.1334C 939.824 33.7779 938.976 33.8223 938.936 33.8667M 1.06666 34.9334C 1.0222 34.9778 0.977784 35.8223 1.33334 35.4666C 1.37773 35.4223 1.42226 34.5778 1.06666 34.9334z"/>
<path style="stroke:none; fill:#f7956f" d="M 935.736 34.6666C 935.376 35.0223 936.224 34.9778 936.264 34.9334C 936.624 34.5779 935.776 34.6223 935.736 34.6666z"/>
<path style="stroke:none; fill:#f9b9a3" d="M 931.736 35.4666C 931.376 35.8224 932.224 35.7778 932.264 35.7334C 932.624 35.3779 931.776 35.4222 931.736 35.4666z"/>
<path style="stroke:none; fill:#fbd2c3" d="M 53.0666 36.5334C 53.0222 36.5779 52.9778 37.4222 53.3334 37.0667C 53.3778 37.0223 53.4222 36.1777 53.0666 36.5334z"/>
<path style="stroke:none; fill:#f79181" d="M 928.536 36.2666C 928.176 36.6223 929.024 36.5778 929.064 36.5334C 929.424 36.1779 928.576 36.2222 928.536 36.2666z"/>
<path style="stroke:none; fill:#fbdfd3" d="M 923.736 37.0667C 923.376 37.4222 924.224 37.3779 924.264 37.3334C 924.624 36.9779 923.776 37.0222 923.736 37.0667z"/>
<path style="stroke:none; fill:#f7956f" d="M 925.336 37.0667C 924.976 37.4222 925.824 37.3779 925.864 37.3334C 926.224 36.9779 925.376 37.0223 925.336 37.0667z"/>
<path style="stroke:none; fill:#f8b599" d="M 921.336 37.8667C 920.976 38.2223 921.824 38.1777 921.864 38.1334C 922.224 37.7778 921.376 37.8223 921.336 37.8667z"/>
<path style="stroke:none; fill:#f7956f" d="M 918.136 38.6666C 917.776 39.0223 918.624 38.9777 918.664 38.9334C 919.024 38.5779 918.176 38.6223 918.136 38.6666M 916.8 39.2L 916.8 76L 917.6 76C 917.6 65.5974 920.808 48.751 916.8 39.2z"/>
<path style="stroke:none; fill:#f9c7b5" d="M 50.4 41.6L 51.2 42.4L 50.4 41.6z"/>
<path style="stroke:none; fill:#fbd2c3" d="M 49.6 43.2L 50.4 44L 49.6 43.2z"/>
<path style="stroke:none; fill:#f9c7b5" d="M 5.6 44.8L 6.4 45.6L 5.6 44.8M 9.6 48.8L 10.4 49.6L 9.6 48.8z"/>
<path style="stroke:none; fill:#fbd2c3" d="M 10.4 49.6L 11.2 50.4L 10.4 49.6z"/>
<path style="stroke:none; fill:#f9c7b5" d="M 40.8 51.2L 41.6 52L 40.8 51.2z"/>
<path style="stroke:none; fill:#f8ac8d" d="M 14.9334 52.2666C 14.5778 52.6223 15.4222 52.5778 15.4666 52.5334C 15.8222 52.1778 14.9778 52.2222 14.9334 52.2666z"/>
<path style="stroke:none; fill:#fbd2c3" d="M 34.9334 53.8667C 34.5778 54.2222 35.4222 54.1778 35.4666 54.1334C 35.8222 53.7778 34.9778 53.8223 34.9334 53.8667z"/>
<path style="stroke:none; fill:#f9c7b5" d="M 21.6 54.4L 21.6 55.2L 24 55.2C 23.0013 54.6522 22.7613 54.601 21.6 54.4z"/>
<path style="stroke:none; fill:#f8ac8d" d="M 24 54.4L 24 55.2L 31.2 55.2C 28.8882 54.2296 26.5007 54.4014 24 54.4z"/>
<path style="stroke:none; fill:#fbdfd3" d="M 31.2 54.4L 31.2 55.2L 33.6 55.2C 32.6013 54.6522 32.3613 54.601 31.2 54.4M 476 72L 476 72.8L 480 72.8C 478.585 72.1769 477.571 72.0701 476 72z"/>
<path style="stroke:none; fill:#f9b9a3" d="M 480 72L 480 72.8L 482.4 72.8C 481.402 72.2522 481.162 72.201 480 72z"/>
<path style="stroke:none; fill:#fbdfd3" d="M 482.4 72L 482.4 72.8L 487.2 72.8C 485.558 72.1006 484.202 72.0378 482.4 72M 632.8 72L 632.8 72.8L 637.6 72.8C 635.958 72.1006 634.602 72.0378 632.8 72z"/>
<path style="stroke:none; fill:#f9b9a3" d="M 637.6 72L 637.6 72.8L 640.8 72.8C 639.595 72.2536 638.948 72.1393 637.6 72z"/>
<path style="stroke:none; fill:#fbdfd3" d="M 640.8 72L 640.8 72.8L 645.6 72.8C 643.958 72.1006 642.602 72.0378 640.8 72M 144.8 72.8L 144.8 73.6L 148 73.6C 146.795 73.0536 146.148 72.9393 144.8 72.8M 322.4 72.8L 322.4 73.6L 326.4 73.6C 324.985 72.9769 323.971 72.8701 322.4 72.8z"/>
<path style="stroke:none; fill:#f9b9a3" d="M 471.734 73.0667C 471.378 73.4223 472.222 73.3778 472.266 73.3334C 472.622 72.9778 471.778 73.0222 471.734 73.0667z"/>
<path style="stroke:none; fill:#f7956f" d="M 473.334 73.0667C 472.978 73.4223 473.822 73.3778 473.866 73.3334C 474.222 72.9778 473.378 73.0222 473.334 73.0667z"/>
<path style="stroke:none; fill:#f57947" d="M 437.6 96.8L 436.8 96.8L 436.8 76L 391.2 76L 391.2 244L 436.8 244L 436.8 176C 436.8 163.745 435.169 150.281 438.524 138.4C 443.373 121.23 464.166 111.632 480 121.183C 494.348 129.838 494.4 144.417 494.4 159.2L 494.4 244L 540.8 244L 540.8 156C 540.8 137.214 542.091 117.704 532.307 100.8C 513.944 69.0715 456.369 59.1202 437.6 96.8z"/>
<path style="stroke:none; fill:#f7956f" d="M 489.334 73.0667C 488.978 73.4224 489.822 73.3777 489.866 73.3334C 490.222 72.9778 489.378 73.0222 489.334 73.0667z"/>
<path style="stroke:none; fill:#f9b9a3" d="M 490.934 73.0667C 490.578 73.4224 491.422 73.3777 491.466 73.3334C 491.822 72.9779 490.978 73.0221 490.934 73.0667z"/>
<path style="stroke:none; fill:#fbd2c3" d="M 626.134 73.0667C 625.778 73.4224 626.622 73.3777 626.666 73.3334C 627.022 72.9778 626.178 73.0222 626.134 73.0667z"/>
<path style="stroke:none; fill:#f8b599" d="M 627.734 73.0667C 627.378 73.4223 628.222 73.3778 628.266 73.3334C 628.622 72.9778 627.778 73.0222 627.734 73.0667z"/>
<path style="stroke:none; fill:#f7956f" d="M 629.334 73.0667C 628.978 73.4224 629.822 73.3777 629.866 73.3334C 630.222 72.9778 629.378 73.0222 629.334 73.0667z"/>
<path style="stroke:none; fill:#f57947" d="M 702.4 191.2C 696.859 193.217 691.93 196.681 686.4 198.774C 662.766 207.717 627.545 213.534 609.174 191.197C 605.211 186.378 603.016 180.945 600.8 175.2C 609.846 173.046 620.329 174.4 629.6 174.4L 684 174.4C 691.749 174.4 707.149 177.398 714.054 173.918C 718.778 171.535 717.6 156.51 717.6 152C 717.6 127.174 707.891 103.533 688 88.012C 652.436 60.2625 596.087 71.2721 570.751 107.2C 552.752 132.724 549.863 170.817 562.65 199.2C 580.931 239.783 622.162 251.435 663.2 246.524C 672.82 245.373 682.032 243.132 691.2 239.998C 694.245 238.957 699.705 237.698 701.578 234.866C 703.548 231.886 702.4 225.83 702.4 222.4L 702.4 191.2z"/>
<path style="stroke:none; fill:#f7956f" d="M 648.534 73.0667C 648.178 73.4223 649.022 73.3778 649.066 73.3334C 649.422 72.9778 648.578 73.0222 648.534 73.0667z"/>
<path style="stroke:none; fill:#f9b9a3" d="M 650.134 73.0667C 649.778 73.4224 650.622 73.3777 650.666 73.3334C 651.022 72.9779 650.178 73.0222 650.134 73.0667z"/>
<path style="stroke:none; fill:#fbdfd3" d="M 651.734 73.0667C 651.378 73.4223 652.222 73.3778 652.266 73.3334C 652.622 72.9778 651.778 73.0222 651.734 73.0667z"/>
<path style="stroke:none; fill:#f9c7b5" d="M 134.4 73.6L 134.4 74.4L 137.6 74.4C 136.395 73.8536 135.748 73.7393 134.4 73.6z"/>
<path style="stroke:none; fill:#f8ac8d" d="M 137.6 73.6L 137.6 74.4L 140 74.4C 139.002 73.8522 138.762 73.801 137.6 73.6M 152 73.6L 152 74.4L 154.4 74.4C 153.402 73.8522 153.162 73.801 152 73.6z"/>
<path style="stroke:none; fill:#f9c7b5" d="M 154.4 73.6L 154.4 74.4L 156.8 74.4C 155.802 73.8522 155.562 73.801 154.4 73.6M 311.2 73.6L 311.2 74.4L 314.4 74.4C 313.195 73.8535 312.548 73.7393 311.2 73.6z"/>
<path style="stroke:none; fill:#f8ac8d" d="M 314.4 73.6L 314.4 74.4L 316.8 74.4C 315.802 73.8522 315.562 73.801 314.4 73.6z"/>
<path style="stroke:none; fill:#f7936b" d="M 265.6 195.2L 265.6 228.8C 265.6 232.026 264.378 238.448 266.882 240.926C 272.586 246.568 288.405 247.354 296 248.06C 326.103 250.859 363.303 243.878 370.031 208.8C 374.82 183.836 363.145 163.069 341.6 150.627C 332.875 145.589 323.052 141.021 315.212 134.665C 311.852 131.94 308.56 127.823 309.886 123.2C 311.802 116.516 319.351 113.679 325.6 113.603C 339.51 113.433 349.611 120.316 362.4 124L 362.4 91.2C 362.4 88.18 363.656 81.5048 361.118 79.3118C 355.565 74.5147 341.371 74.84 334.4 74.329C 305.59 72.2172 268.486 79.6146 262.66 113.6C 257.812 141.877 272.575 160.058 296 173.375C 304.427 178.166 328.53 187.703 322.461 200.799C 319.304 207.611 311.718 209.746 304.8 209.588C 290.111 209.252 278.325 201.218 265.6 195.2z"/>
<path style="stroke:none; fill:#f8ac8d" d="M 331.2 73.6L 331.2 74.4L 334.4 74.4C 333.195 73.8535 332.548 73.7393 331.2 73.6z"/>
<path style="stroke:none; fill:#f9c7b5" d="M 334.4 73.6L 334.4 74.4L 336.8 74.4C 335.802 73.8522 335.562 73.801 334.4 73.6z"/>
<path style="stroke:none; fill:#f8b599" d="M 467.734 73.8667C 467.378 74.2224 468.222 74.1777 468.266 74.1334C 468.622 73.7778 467.778 73.8222 467.734 73.8667z"/>
<path style="stroke:none; fill:#fbd2c3" d="M 495.734 73.8667C 495.378 74.2224 496.222 74.1777 496.266 74.1334C 496.622 73.7778 495.778 73.8223 495.734 73.8667z"/>
<path style="stroke:none; fill:#f9b9a3" d="M 622.134 73.8667C 621.778 74.2223 622.622 74.1778 622.666 74.1334C 623.022 73.7778 622.178 73.8222 622.134 73.8667z"/>
<path style="stroke:none; fill:#fbd2c3" d="M 655.2 73.6L 655.2 74.4L 657.6 74.4C 656.602 73.8522 656.362 73.801 655.2 73.6z"/>
<path style="stroke:none; fill:#f9c7b5" d="M 130.134 74.6666C 129.778 75.0222 130.622 74.9778 130.666 74.9334C 131.022 74.5778 130.178 74.6222 130.134 74.6666z"/>
<path style="stroke:none; fill:#f8ac8d" d="M 131.734 74.6666C 131.378 75.0222 132.222 74.9778 132.266 74.9334C 132.622 74.5778 131.778 74.6223 131.734 74.6666z"/>
<path style="stroke:none; fill:#f8b599" d="M 158.4 74.4L 158.4 75.2L 160.8 75.2C 159.802 74.6522 159.562 74.601 158.4 74.4z"/>
<path style="stroke:none; fill:#fbdfd3" d="M 306.134 74.6666C 305.778 75.0222 306.622 74.9778 306.666 74.9334C 307.022 74.5777 306.178 74.6223 306.134 74.6666z"/>
<path style="stroke:none; fill:#f8b599" d="M 307.2 74.4L 307.2 75.2L 309.6 75.2C 308.602 74.6522 308.362 74.601 307.2 74.4z"/>
<path style="stroke:none; fill:#f9c7b5" d="M 340 74.4L 340 75.2L 344 75.2C 342.585 74.5769 341.571 74.4701 340 74.4z"/>
<path style="stroke:none; fill:#f8b599" d="M 464.8 74.4L 465.6 75.2L 464.8 74.4z"/>
<path style="stroke:none; fill:#fbd2c3" d="M 498.934 74.6666C 498.578 75.0223 499.422 74.9778 499.466 74.9334C 499.822 74.5779 498.978 74.6222 498.934 74.6666z"/>
<path style="stroke:none; fill:#f7956f" d="M 618.934 74.6666C 618.578 75.0223 619.422 74.9778 619.466 74.9334C 619.822 74.5779 618.978 74.6222 618.934 74.6666z"/>
<path style="stroke:none; fill:#fbdfd3" d="M 659.734 74.6666C 659.378 75.0224 660.222 74.9777 660.266 74.9334C 660.622 74.5779 659.778 74.6223 659.734 74.6666z"/>
<path style="stroke:none; fill:#f8b599" d="M 126.934 75.4666C 126.578 75.8223 127.422 75.7778 127.466 75.7334C 127.822 75.3778 126.978 75.4222 126.934 75.4666z"/>
<path style="stroke:none; fill:#fbdfd3" d="M 163.734 75.4666C 163.378 75.8223 164.222 75.7778 164.266 75.7334C 164.622 75.3778 163.778 75.4222 163.734 75.4666z"/>
<path style="stroke:none; fill:#f9c7b5" d="M 302.934 75.4666C 302.578 75.8222 303.422 75.7778 303.466 75.7334C 303.822 75.3778 302.978 75.4222 302.934 75.4666z"/>
<path style="stroke:none; fill:#f8b599" d="M 345.6 75.2L 345.6 76L 348 76C 347.002 75.4522 346.762 75.401 345.6 75.2z"/>
<path style="stroke:none; fill:#fbdfd3" d="M 391.2 75.2L 391.2 76L 437.6 76C 433.23 74.1662 427.11 75.2 422.4 75.2L 391.2 75.2z"/>
<path style="stroke:none; fill:#f8b599" d="M 462.4 75.2L 463.2 76L 462.4 75.2z"/>
<path style="stroke:none; fill:#fbd2c3" d="M 501.334 75.4666C 500.978 75.8223 501.822 75.7778 501.866 75.7334C 502.222 75.3779 501.378 75.4222 501.334 75.4666z"/>
<path style="stroke:none; fill:#f7956f" d="M 615.734 75.4666C 615.378 75.8223 616.222 75.7777 616.266 75.7334C 616.622 75.3779 615.778 75.4222 615.734 75.4666z"/>
<path style="stroke:none; fill:#fbdfd3" d="M 662.934 75.4666C 662.578 75.8223 663.422 75.7777 663.466 75.7334C 663.822 75.3779 662.978 75.4222 662.934 75.4666M 712.8 75.2L 712.8 76L 766.4 76C 761.639 74.0022 754.736 75.2 749.6 75.2L 712.8 75.2M 827.2 75.2L 827.2 76L 880.8 76C 876.04 74.0023 869.136 75.2 864 75.2L 827.2 75.2M 888.8 75.2L 888.8 76L 916.8 76C 909.344 72.8709 896.904 75.2 888.8 75.2M 960.8 75.2L 960.8 76L 988.8 76C 981.344 72.871 968.904 75.2 960.8 75.2z"/>
<path style="stroke:none; fill:#f8b599" d="M 123.734 76.2666C 123.378 76.6223 124.222 76.5778 124.266 76.5334C 124.622 76.1778 123.778 76.2222 123.734 76.2666z"/>
<path style="stroke:none; fill:#fbd2c3" d="M 166.134 76.2666C 165.778 76.6223 166.622 76.5778 166.666 76.5334C 167.022 76.1778 166.178 76.2222 166.134 76.2666z"/>
<path style="stroke:none; fill:#f9c7b5" d="M 299.734 76.2666C 299.378 76.6222 300.222 76.5779 300.266 76.5334C 300.622 76.1778 299.778 76.2222 299.734 76.2666z"/>
<path style="stroke:none; fill:#fbd2c3" d="M 351.734 76.2666C 351.378 76.6222 352.222 76.5778 352.266 76.5334C 352.622 76.1777 351.778 76.2223 351.734 76.2666z"/>
<path style="stroke:none; fill:#fbdfd3" d="M 390.4 76L 390.4 244.8L 391.2 244.8L 391.2 126.4L 391.2 92C 391.2 87.0768 392.316 80.5656 390.4 76z"/>
<path style="stroke:none; fill:#f9b9a3" d="M 436.8 76L 436.8 96.8L 437.6 96.8C 438.224 91.1208 439.011 81.2688 436.8 76z"/>
<path style="stroke:none; fill:#fbd2c3" d="M 460 76L 460.8 76.8L 460 76z"/>
<path style="stroke:none; fill:#f8b599" d="M 503.2 76L 504 76.8L 503.2 76M 612.8 76L 613.6 76.8L 612.8 76z"/>
<path style="stroke:none; fill:#fbd2c3" d="M 665.334 76.2666C 664.978 76.6223 665.822 76.5778 665.866 76.5334C 666.222 76.1778 665.378 76.2222 665.334 76.2666z"/>
<path style="stroke:none; fill:#f7936b" d="M 712.8 76C 723.036 97.6384 740.005 117.37 752.842 137.6C 756.457 143.295 762.474 156.95 768.874 159.518C 773.047 161.191 779.553 160 784 160C 796.938 160 812.2 157.8 824.8 160.8C 818.704 146.306 801.232 134.362 797.6 119.2C 788.202 111.548 781.84 97.8696 774.861 88C 772.433 84.5664 769.87 78.9899 766.16 76.8223C 762.294 74.5637 754.762 76 750.4 76L 712.8 76z"/>
<path style="stroke:none; fill:#ef4f51" d="M 880 244C 877.592 237.643 872.736 232.146 869.136 226.4L 839.672 181.6C 836.064 175.969 827.488 167.466 826.608 160.8C 825.816 154.749 836.936 142.61 840.264 137.6C 853.76 117.318 868.952 97.2784 880.8 76L 843.2 76C 838.88 76 831.272 74.5461 827.456 76.8223C 820.336 81.0776 814.704 94.0672 809.936 100.8C 806.888 105.118 796.942 115.326 797.882 120.8C 798.458 124.148 801.968 127.702 803.888 130.4L 817.864 150.4C 819.64 153.034 823.224 156.73 823.488 160C 823.776 163.49 819.448 167.707 817.584 170.4L 803.536 190.4C 801.68 193.034 798.207 196.694 797.818 200C 797.165 205.562 807.152 215.6 810.288 220C 814.888 226.463 820.392 239.226 827.344 243.178C 831.136 245.329 838.16 244 842.4 244L 880 244z"/>
<path style="stroke:none; fill:#fbdfd3" d="M 888 76L 888 115.2L 888.8 115.2C 888.8 104.17 892.248 86.1216 888 76z"/>
<path style="stroke:none; fill:#f8ac8d" d="M 4 76.8L 4 245.6L 50.4 245.6L 50.4 244.8L 4.8 244.8L 4.8 126.4L 4.8 92.8C 4.8 87.8768 5.9159 81.3656 4 76.8z"/>
<path style="stroke:none; fill:#f7936b" d="M 4.8 76.8L 4.8 244.8L 50.4 244.8L 50.4 76.8L 4.8 76.8z"/>
<path style="stroke:none; fill:#f8ac8d" d="M 121.334 77.0667C 120.978 77.4222 121.822 77.3778 121.866 77.3334C 122.222 76.9778 121.378 77.0222 121.334 77.0667z"/>
<path style="stroke:none; fill:#fbd2c3" d="M 168.534 77.0667C 168.178 77.4222 169.022 77.3778 169.066 77.3334C 169.422 76.9778 168.578 77.0222 168.534 77.0667z"/>
<path style="stroke:none; fill:#f8b599" d="M 297.334 77.0667C 296.978 77.4222 297.822 77.3779 297.866 77.3334C 298.222 76.9777 297.378 77.0222 297.334 77.0667z"/>
<path style="stroke:none; fill:#f9c7b5" d="M 354.934 77.0667C 354.578 77.4221 355.422 77.3779 355.466 77.3334C 355.822 76.9777 354.978 77.0222 354.934 77.0667z"/>
<path style="stroke:none; fill:#f9b9a3" d="M 458.4 76.8L 459.2 77.6L 458.4 76.8M 505.6 76.8L 506.4 77.6L 505.6 76.8z"/>
<path style="stroke:none; fill:#f8b599" d="M 610.4 76.8L 611.2 77.6L 610.4 76.8M 667.2 76.8L 668 77.6L 667.2 76.8z"/>
<path style="stroke:none; fill:#fbd2c3" d="M 712.8 76.8L 713.6 77.6L 712.8 76.8z"/>
<path style="stroke:none; fill:#f8ac8d" d="M 118.934 77.8667C 118.578 78.2222 119.422 78.1778 119.466 78.1334C 119.822 77.7778 118.978 77.8223 118.934 77.8667z"/>
<path style="stroke:none; fill:#f8b599" d="M 294.934 77.8667C 294.578 78.2222 295.422 78.1778 295.466 78.1334C 295.822 77.7777 294.978 77.8223 294.934 77.8667z"/>
<path style="stroke:none; fill:#f9c7b5" d="M 358.134 77.8667C 357.778 78.2222 358.622 78.1778 358.666 78.1334C 359.022 77.7777 358.178 77.8223 358.134 77.8667z"/>
<path style="stroke:none; fill:#f9b9a3" d="M 456.8 77.6L 457.6 78.4L 456.8 77.6M 507.2 77.6L 508 78.4L 507.2 77.6M 608 77.6L 608.8 78.4L 608 77.6M 669.6 77.6L 670.4 78.4L 669.6 77.6z"/>
<path style="stroke:none; fill:#f9c7b5" d="M 767.2 77.6L 768 78.4L 767.2 77.6z"/>
<path style="stroke:none; fill:#f79181" d="M 825.6 77.6L 826.4 78.4L 825.6 77.6z"/>
<path style="stroke:none; fill:#f9b9a3" d="M 879.2 77.6L 880 78.4L 879.2 77.6z"/>
<path style="stroke:none; fill:#f8b599" d="M 116.534 78.6666C 116.178 79.0222 117.022 78.9778 117.066 78.9334C 117.422 78.5778 116.578 78.6223 116.534 78.6666z"/>
<path style="stroke:none; fill:#fbd2c3" d="M 172.8 78.4L 173.6 79.2L 172.8 78.4M 361.334 78.6666C 360.978 79.0222 361.822 78.9778 361.866 78.9334C 362.222 78.5777 361.378 78.6223 361.334 78.6666z"/>
<path style="stroke:none; fill:#f9b9a3" d="M 455.2 78.4L 456 79.2L 455.2 78.4z"/>
<path style="stroke:none; fill:#f8b599" d="M 508.8 78.4L 509.6 79.2L 508.8 78.4z"/>
<path style="stroke:none; fill:#fbd2c3" d="M 605.6 78.4L 606.4 79.2L 605.6 78.4z"/>
<path style="stroke:none; fill:#f8b599" d="M 671.2 78.4L 672 79.2L 671.2 78.4z"/>
<path style="stroke:none; fill:#f9b9a3" d="M 824.8 78.4L 825.6 79.2L 824.8 78.4z"/>
<path style="stroke:none; fill:#f9c7b5" d="M 114.4 79.2L 115.2 80L 114.4 79.2M 174.4 79.2L 175.2 80L 174.4 79.2z"/>
<path style="stroke:none; fill:#f8ac8d" d="M 290.934 79.4666C 290.578 79.8222 291.422 79.7779 291.466 79.7334C 291.822 79.3777 290.978 79.4223 290.934 79.4666z"/>
<path style="stroke:none; fill:#f9c7b5" d="M 362.4 79.2C 362.4 93.6048 364.938 110.778 361.6 124.8C 364.319 122.424 363.2 116.993 363.2 113.6C 363.2 103.835 366.166 88.1744 362.4 79.2z"/>
<path style="stroke:none; fill:#f9b9a3" d="M 510.4 79.2L 511.2 80L 510.4 79.2M 604 79.2L 604.8 80L 604 79.2z"/>
<path style="stroke:none; fill:#fbd2c3" d="M 673.6 79.2L 674.4 80L 673.6 79.2z"/>
<path style="stroke:none; fill:#f9c7b5" d="M 714.4 79.2L 715.2 80L 714.4 79.2M 176 80L 176.8 80.8L 176 80M 288.8 80L 289.6 80.8L 288.8 80z"/>
<path style="stroke:none; fill:#f9b9a3" d="M 452.8 80L 453.6 80.8L 452.8 80z"/>
<path style="stroke:none; fill:#fbd2c3" d="M 512 80L 512.8 80.8L 512 80z"/>
<path style="stroke:none; fill:#f9b9a3" d="M 602.4 80L 603.2 80.8L 602.4 80z"/>
<path style="stroke:none; fill:#fbd2c3" d="M 675.2 80L 676 80.8L 675.2 80z"/>
<path style="stroke:none; fill:#f79181" d="M 824 80L 824.8 80.8L 824 80z"/>
<path style="stroke:none; fill:#f9b9a3" d="M 877.6 80L 878.4 80.8L 877.6 80z"/>
<path style="stroke:none; fill:#f9c7b5" d="M 177.6 80.8L 178.4 81.6L 177.6 80.8M 287.2 80.8L 288 81.6L 287.2 80.8z"/>
<path style="stroke:none; fill:#f8b599" d="M 600.8 80.8L 601.6 81.6L 600.8 80.8z"/>
<path style="stroke:none; fill:#fbd2c3" d="M 676.8 80.8L 677.6 81.6L 676.8 80.8M 769.6 80.8L 770.4 81.6L 769.6 80.8z"/>
<path style="stroke:none; fill:#f9b9a3" d="M 823.2 80.8L 824 81.6L 823.2 80.8z"/>
<path style="stroke:none; fill:#fbd2c3" d="M 285.6 81.6L 286.4 82.4L 285.6 81.6z"/>
<path style="stroke:none; fill:#f9b9a3" d="M 450.4 81.6L 451.2 82.4L 450.4 81.6M 514.4 81.6L 515.2 82.4L 514.4 81.6M 599.2 81.6L 600 82.4L 599.2 81.6z"/>
<path style="stroke:none; fill:#fbd2c3" d="M 678.4 81.6L 679.2 82.4L 678.4 81.6M 716 81.6L 716.8 82.4L 716 81.6z"/>
<path style="stroke:none; fill:#f9b9a3" d="M 597.6 82.4L 598.4 83.2L 597.6 82.4M 876 82.4L 876.8 83.2L 876 82.4z"/>
<path style="stroke:none; fill:#f9c7b5" d="M 181.6 83.2L 182.4 84L 181.6 83.2z"/>
<path style="stroke:none; fill:#f9b9a3" d="M 516.8 83.2L 517.6 84L 516.8 83.2z"/>
<path style="stroke:none; fill:#fbd2c3" d="M 596 83.2L 596.8 84L 596 83.2z"/>
<path style="stroke:none; fill:#f8b599" d="M 680.8 83.2L 681.6 84L 680.8 83.2z"/>
<path style="stroke:none; fill:#fbd2c3" d="M 771.2 83.2L 772 84L 771.2 83.2z"/>
<path style="stroke:none; fill:#f9b9a3" d="M 821.6 83.2L 822.4 84L 821.6 83.2z"/>
<path style="stroke:none; fill:#f9c7b5" d="M 104.8 84L 105.6 84.8L 104.8 84z"/>
<path style="stroke:none; fill:#fbd2c3" d="M 281.6 84L 282.4 84.8L 281.6 84M 447.2 84L 448 84.8L 447.2 84z"/>
<path style="stroke:none; fill:#f8b599" d="M 517.6 84L 518.4 84.8L 517.6 84z"/>
<path style="stroke:none; fill:#fbd2c3" d="M 682.4 84L 683.2 84.8L 682.4 84z"/>
<path style="stroke:none; fill:#f9c7b5" d="M 717.6 84L 718.4 84.8L 717.6 84z"/>
<path style="stroke:none; fill:#fbd2c3" d="M 820.8 84L 821.6 84.8L 820.8 84M 184 84.8L 184.8 85.6L 184 84.8M 446.4 84.8L 447.2 85.6L 446.4 84.8z"/>
<path style="stroke:none; fill:#f9b9a3" d="M 593.6 84.8L 594.4 85.6L 593.6 84.8z"/>
<path style="stroke:none; fill:#f79181" d="M 874.4 84.8L 875.2 85.6L 874.4 84.8z"/>
<path style="stroke:none; fill:#f9c7b5" d="M 102.4 85.6L 103.2 86.4L 102.4 85.6z"/>
<path style="stroke:none; fill:#fbd2c3" d="M 445.6 85.6L 446.4 86.4L 445.6 85.6z"/>
<path style="stroke:none; fill:#f9b9a3" d="M 684.8 85.6L 685.6 86.4L 684.8 85.6z"/>
<path style="stroke:none; fill:#f9c7b5" d="M 772.8 85.6L 773.6 86.4L 772.8 85.6z"/>
<path style="stroke:none; fill:#f79181" d="M 820 85.6L 820.8 86.4L 820 85.6z"/>
<path style="stroke:none; fill:#fbd2c3" d="M 278.4 86.4L 279.2 87.2L 278.4 86.4z"/>
<path style="stroke:none; fill:#f8b599" d="M 444.8 86.4L 445.6 87.2L 444.8 86.4z"/>
<path style="stroke:none; fill:#fbd2c3" d="M 520.8 86.4L 521.6 87.2L 520.8 86.4z"/>
<path style="stroke:none; fill:#f9b9a3" d="M 591.2 86.4L 592 87.2L 591.2 86.4z"/>
<path style="stroke:none; fill:#f9c7b5" d="M 719.2 86.4L 720 87.2L 719.2 86.4z"/>
<path style="stroke:none; fill:#fbd2c3" d="M 819.2 86.4L 820 87.2L 819.2 86.4z"/>
<path style="stroke:none; fill:#f9c7b5" d="M 100 87.2L 100.8 88L 100 87.2z"/>
<path style="stroke:none; fill:#fbd2c3" d="M 444 87.2L 444.8 88L 444 87.2M 521.6 87.2L 522.4 88L 521.6 87.2z"/>
<path style="stroke:none; fill:#f79181" d="M 872.8 87.2L 873.6 88L 872.8 87.2z"/>
<path style="stroke:none; fill:#fbd2c3" d="M 188 88L 188.8 88.8L 188 88M 443.2 88L 444 88.8L 443.2 88M 522.4 88L 523.2 88.8L 522.4 88M 588.8 88L 589.6 88.8L 588.8 88z"/>
<path style="stroke:none; fill:#f9b9a3" d="M 688 88L 688.8 88.8L 688 88z"/>
<path style="stroke:none; fill:#f79181" d="M 818.4 88L 819.2 88.8L 818.4 88z"/>
<path style="stroke:none; fill:#f9c7b5" d="M 188.8 88.8L 189.6 89.6L 188.8 88.8z"/>
<path style="stroke:none; fill:#fbd2c3" d="M 442.4 88.8L 443.2 89.6L 442.4 88.8M 523.2 88.8L 524 89.6L 523.2 88.8z"/>
<path style="stroke:none; fill:#f8b599" d="M 588 88.8L 588.8 89.6L 588 88.8M 688.8 88.8L 689.6 89.6L 688.8 88.8z"/>
<path style="stroke:none; fill:#f9c7b5" d="M 720.8 88.8L 721.6 89.6L 720.8 88.8z"/>
<path style="stroke:none; fill:#f9b9a3" d="M 817.6 88.8L 818.4 89.6L 817.6 88.8z"/>
<path style="stroke:none; fill:#f9c7b5" d="M 96.8 89.6L 97.6 90.4L 96.8 89.6z"/>
<path style="stroke:none; fill:#fbd2c3" d="M 524 89.6L 524.8 90.4L 524 89.6z"/>
<path style="stroke:none; fill:#f79181" d="M 871.2 89.6L 872 90.4L 871.2 89.6z"/>
<path style="stroke:none; fill:#fbd2c3" d="M 524.8 90.4L 525.6 91.2L 524.8 90.4M 585.6 90.4L 586.4 91.2L 585.6 90.4z"/>
<path style="stroke:none; fill:#f9b9a3" d="M 584.8 91.2L 585.6 92L 584.8 91.2z"/>
<path style="stroke:none; fill:#fbd2c3" d="M 692 91.2L 692.8 92L 692 91.2z"/>
<path style="stroke:none; fill:#f9c7b5" d="M 722.4 91.2L 723.2 92L 722.4 91.2M 776.8 91.2L 777.6 92L 776.8 91.2z"/>
<path style="stroke:none; fill:#f9b9a3" d="M 816 91.2L 816.8 92L 816 91.2z"/>
<path style="stroke:none; fill:#f8b599" d="M 440 92L 440.8 92.8L 440 92M 584 92L 584.8 92.8L 584 92z"/>
<path style="stroke:none; fill:#fbd2c3" d="M 692.8 92L 693.6 92.8L 692.8 92z"/>
<path style="stroke:none; fill:#f79181" d="M 869.6 92L 870.4 92.8L 869.6 92z"/>
<path style="stroke:none; fill:#fbd2c3" d="M 439.2 92.8L 440 93.6L 439.2 92.8M 693.6 92.8L 694.4 93.6L 693.6 92.8z"/>
<path style="stroke:none; fill:#f9c7b5" d="M 193.6 93.6L 194.4 94.4L 193.6 93.6M 271.2 93.6L 272 94.4L 271.2 93.6z"/>
<path style="stroke:none; fill:#fbd2c3" d="M 694.4 93.6L 695.2 94.4L 694.4 93.6z"/>
<path style="stroke:none; fill:#f9c7b5" d="M 724 93.6L 724.8 94.4L 724 93.6M 778.4 93.6L 779.2 94.4L 778.4 93.6z"/>
<path style="stroke:none; fill:#f79181" d="M 814.4 93.6L 815.2 94.4L 814.4 93.6z"/>
<path style="stroke:none; fill:#fbd2c3" d="M 868.8 93.6L 869.6 94.4L 868.8 93.6M 194.4 94.4L 195.2 95.2L 194.4 94.4M 270.4 94.4L 271.2 95.2L 270.4 94.4z"/>
<path style="stroke:none; fill:#f9b9a3" d="M 528 94.4L 528.8 95.2L 528 94.4z"/>
<path style="stroke:none; fill:#fbd2c3" d="M 695.2 94.4L 696 95.2L 695.2 94.4z"/>
<path style="stroke:none; fill:#f79181" d="M 868 94.4L 868.8 95.2L 868 94.4z"/>
<path style="stroke:none; fill:#fbd2c3" d="M 90.4 95.2L 91.2 96L 90.4 95.2M 696 95.2L 696.8 96L 696 95.2M 696.8 96L 697.6 96.8L 696.8 96z"/>
<path style="stroke:none; fill:#f9c7b5" d="M 725.6 96L 726.4 96.8L 725.6 96M 780 96L 780.8 96.8L 780 96z"/>
<path style="stroke:none; fill:#f79181" d="M 812.8 96L 813.6 96.8L 812.8 96z"/>
<path style="stroke:none; fill:#fbd2c3" d="M 867.2 96L 868 96.8L 867.2 96M 268.8 96.8L 269.6 97.6L 268.8 96.8z"/>
<path style="stroke:none; fill:#f8b599" d="M 529.6 96.8L 530.4 97.6L 529.6 96.8z"/>
<path style="stroke:none; fill:#fbd2c3" d="M 697.6 96.8L 698.4 97.6L 697.6 96.8M 812 96.8L 812.8 97.6L 812 96.8z"/>
<path style="stroke:none; fill:#f79181" d="M 866.4 96.8L 867.2 97.6L 866.4 96.8z"/>
<path style="stroke:none; fill:#f9c7b5" d="M 727.2 98.4L 728 99.2L 727.2 98.4z"/>
<path style="stroke:none; fill:#f79181" d="M 811.2 98.4L 812 99.2L 811.2 98.4z"/>
<path style="stroke:none; fill:#fbd2c3" d="M 267.2 99.2L 268 100L 267.2 99.2z"/>
<path style="stroke:none; fill:#f9b9a3" d="M 531.2 99.2L 532 100L 531.2 99.2M 810.4 99.2L 811.2 100L 810.4 99.2z"/>
<path style="stroke:none; fill:#f79181" d="M 864.8 99.2L 865.6 100L 864.8 99.2z"/>
<path style="stroke:none; fill:#f8b599" d="M 576 100L 576.8 100.8L 576 100M 700 100L 700.8 100.8L 700 100z"/>
<path style="stroke:none; fill:#fbd2c3" d="M 266.4 100.8L 267.2 101.6L 266.4 100.8z"/>
<path style="stroke:none; fill:#f8b599" d="M 532 100.8L 532.8 101.6L 532 100.8z"/>
<path style="stroke:none; fill:#f9b9a3" d="M 575.2 100.8L 576 101.6L 575.2 100.8M 700.8 100.8L 701.6 101.6L 700.8 100.8z"/>
<path style="stroke:none; fill:#f9c7b5" d="M 728.8 100.8L 729.6 101.6L 728.8 100.8z"/>
<path style="stroke:none; fill:#f9b9a3" d="M 864 100.8L 864.8 101.6L 864 100.8z"/>
<path style="stroke:none; fill:#fbd2c3" d="M 84.8 101.6L 85.6 102.4L 84.8 101.6M 574.4 101.6L 575.2 102.4L 574.4 101.6z"/>
<path style="stroke:none; fill:#f9c7b5" d="M 784 101.6L 784.8 102.4L 784 101.6z"/>
<path style="stroke:none; fill:#f9b9a3" d="M 808.8 101.6L 809.6 102.4L 808.8 101.6z"/>
<path style="stroke:none; fill:#f79181" d="M 863.2 101.6L 864 102.4L 863.2 101.6z"/>
<path style="stroke:none; fill:#fbd2c3" d="M 265.6 102.4L 266.4 103.2L 265.6 102.4z"/>
<path style="stroke:none; fill:#f9b9a3" d="M 862.4 103.2L 863.2 104L 862.4 103.2z"/>
<path style="stroke:none; fill:#fbd2c3" d="M 703.2 104L 704 104.8L 703.2 104z"/>
<path style="stroke:none; fill:#f9c7b5" d="M 785.6 104L 786.4 104.8L 785.6 104z"/>
<path style="stroke:none; fill:#f79181" d="M 807.2 104L 808 104.8L 807.2 104M 861.6 104L 862.4 104.8L 861.6 104z"/>
<path style="stroke:none; fill:#f9c7b5" d="M 82.4 104.8L 83.2 105.6L 82.4 104.8z"/>
<path style="stroke:none; fill:#f9b9a3" d="M 572 104.8L 572.8 105.6L 572 104.8z"/>
<path style="stroke:none; fill:#fbd2c3" d="M 731.2 104.8L 732 105.6L 731.2 104.8z"/>
<path style="stroke:none; fill:#f8b599" d="M 534.4 105.6L 535.2 106.4L 534.4 105.6z"/>
<path style="stroke:none; fill:#f9b9a3" d="M 860.8 105.6L 861.6 106.4L 860.8 105.6z"/>
<path style="stroke:none; fill:#f8ac8d" d="M 264.266 106.934C 264.222 106.978 264.178 107.822 264.534 107.466C 264.578 107.422 264.622 106.578 264.266 106.934z"/>
<path style="stroke:none; fill:#f9b9a3" d="M 704.8 106.4L 705.6 107.2L 704.8 106.4z"/>
<path style="stroke:none; fill:#f9c7b5" d="M 787.2 106.4L 788 107.2L 787.2 106.4z"/>
<path style="stroke:none; fill:#f79181" d="M 805.6 106.4L 806.4 107.2L 805.6 106.4M 860 106.4L 860.8 107.2L 860 106.4z"/>
<path style="stroke:none; fill:#f9c7b5" d="M 80.8 107.2L 81.6 108L 80.8 107.2z"/>
<path style="stroke:none; fill:#f9b9a3" d="M 535.2 107.2L 536 108L 535.2 107.2z"/>
<path style="stroke:none; fill:#fbd2c3" d="M 732.8 107.2L 733.6 108L 732.8 107.2z"/>
<path style="stroke:none; fill:#f9b9a3" d="M 804.8 107.2L 805.6 108L 804.8 107.2z"/>
<path style="stroke:none; fill:#fbd2c3" d="M 569.6 108L 570.4 108.8L 569.6 108z"/>
<path style="stroke:none; fill:#f9b9a3" d="M 859.2 108L 860 108.8L 859.2 108z"/>
<path style="stroke:none; fill:#f8ac8d" d="M 263.466 109.334C 263.422 109.378 263.378 110.222 263.734 109.866C 263.778 109.822 263.822 108.978 263.466 109.334z"/>
<path style="stroke:none; fill:#fbd2c3" d="M 536 108.8L 536.8 109.6L 536 108.8z"/>
<path style="stroke:none; fill:#f79181" d="M 804 108.8L 804.8 109.6L 804 108.8z"/>
<path style="stroke:none; fill:#f9c7b5" d="M 79.2 109.6L 80 110.4L 79.2 109.6z"/>
<path style="stroke:none; fill:#fbd2c3" d="M 734.4 109.6L 735.2 110.4L 734.4 109.6M 789.6 109.6L 790.4 110.4L 789.6 109.6z"/>
<path style="stroke:none; fill:#f9b9a3" d="M 803.2 109.6L 804 110.4L 803.2 109.6z"/>
<path style="stroke:none; fill:#f79181" d="M 634.4 110.4L 634.4 111.2L 643.2 111.2C 640.454 110.048 637.36 110.4 634.4 110.4z"/>
<path style="stroke:none; fill:#fbd2c3" d="M 707.2 110.4L 708 111.2L 707.2 110.4z"/>
<path style="stroke:none; fill:#f9b9a3" d="M 857.6 110.4L 858.4 111.2L 857.6 110.4z"/>
<path style="stroke:none; fill:#f9c7b5" d="M 262.666 111.734C 262.622 111.778 262.578 112.622 262.934 112.266C 262.978 112.222 263.022 111.378 262.666 111.734z"/>
<path style="stroke:none; fill:#f7956f" d="M 537.066 111.734C 537.022 111.778 536.978 112.622 537.334 112.266C 537.378 112.222 537.422 111.378 537.066 111.734z"/>
<path style="stroke:none; fill:#fbd2c3" d="M 630.4 111.2L 630.4 112L 632.8 112C 631.802 111.452 631.562 111.401 630.4 111.2z"/>
<path style="stroke:none; fill:#ffffff" d="M 601.6 139.2L 672.8 139.2C 672.689 100.375 606.454 103.328 601.6 139.2z"/>
<path style="stroke:none; fill:#fbdfd3" d="M 645.334 111.466C 644.978 111.822 645.822 111.778 645.866 111.734C 646.222 111.378 645.378 111.422 645.334 111.466z"/>
<path style="stroke:none; fill:#f79181" d="M 646.934 111.466C 646.578 111.822 647.422 111.778 647.466 111.734C 647.822 111.378 646.978 111.422 646.934 111.466z"/>
<path style="stroke:none; fill:#f9b9a3" d="M 567.2 112L 568 112.8L 567.2 112z"/>
<path style="stroke:none; fill:#fbd2c3" d="M 649.6 112L 650.4 112.8L 649.6 112z"/>
<path style="stroke:none; fill:#f9b9a3" d="M 708 112L 708.8 112.8L 708 112z"/>
<path style="stroke:none; fill:#fbd2c3" d="M 736 112L 736.8 112.8L 736 112z"/>
<path style="stroke:none; fill:#f9c7b5" d="M 791.2 112L 792 112.8L 791.2 112z"/>
<path style="stroke:none; fill:#f9b9a3" d="M 801.6 112L 802.4 112.8L 801.6 112z"/>
<path style="stroke:none; fill:#f8b599" d="M 624 112.8L 624.8 113.6L 624 112.8M 652.8 112.8L 653.6 113.6L 652.8 112.8z"/>
<path style="stroke:none; fill:#fbd2c3" d="M 800.8 112.8L 801.6 113.6L 800.8 112.8z"/>
<path style="stroke:none; fill:#f9b9a3" d="M 856 112.8L 856.8 113.6L 856 112.8z"/>
<path style="stroke:none; fill:#fbd2c3" d="M 76.8 113.6L 77.6 114.4L 76.8 113.6z"/>
<path style="stroke:none; fill:#fbdfd3" d="M 320 113.6L 320 114.4L 323.2 114.4C 321.995 113.854 321.348 113.739 320 113.6z"/>
<path style="stroke:none; fill:#f9c7b5" d="M 328.8 113.6L 328.8 114.4L 332.8 114.4C 331.385 113.777 330.371 113.67 328.8 113.6z"/>
<path style="stroke:none; fill:#f8ac8d" d="M 333.334 113.866C 332.978 114.222 333.822 114.178 333.866 114.134C 334.222 113.778 333.378 113.822 333.334 113.866z"/>
<path style="stroke:none; fill:#fbd2c3" d="M 537.6 113.6L 538.4 114.4L 537.6 113.6M 654.4 113.6L 655.2 114.4L 654.4 113.6z"/>
<path style="stroke:none; fill:#f9b9a3" d="M 708.8 113.6L 709.6 114.4L 708.8 113.6M 336 114.4L 336 115.2L 338.4 115.2C 337.402 114.652 337.162 114.601 336 114.4z"/>
<path style="stroke:none; fill:#f9c7b5" d="M 737.6 114.4L 738.4 115.2L 737.6 114.4M 792.8 114.4L 793.6 115.2L 792.8 114.4z"/>
<path style="stroke:none; fill:#f79181" d="M 800 114.4L 800.8 115.2L 800 114.4z"/>
<path style="stroke:none; fill:#fbd2c3" d="M 76 115.2L 76.8 116L 76 115.2z"/>
<path style="stroke:none; fill:#f9c7b5" d="M 261.6 115.2L 261.6 117.6L 262.4 117.6C 262.199 116.438 262.148 116.198 261.6 115.2M 339.734 115.466C 339.378 115.822 340.222 115.778 340.266 115.734C 340.622 115.378 339.778 115.422 339.734 115.466z"/>
<path style="stroke:none; fill:#f9b9a3" d="M 709.6 115.2L 710.4 116L 709.6 115.2z"/>
<path style="stroke:none; fill:#fbd2c3" d="M 799.2 115.2L 800 116L 799.2 115.2z"/>
<path style="stroke:none; fill:#f9b9a3" d="M 854.4 115.2L 855.2 116L 854.4 115.2M 960 115.2L 960 244L 960.8 244L 960.8 153.6C 960.8 142.788 964.168 125.126 960 115.2M 342.934 116.266C 342.578 116.622 343.422 116.578 343.466 116.534C 343.822 116.178 342.978 116.222 342.934 116.266z"/>
<path style="stroke:none; fill:#fbd2c3" d="M 564.8 116L 565.6 116.8L 564.8 116z"/>
<path style="stroke:none; fill:#f9b9a3" d="M 659.2 116L 660 116.8L 659.2 116z"/>
<path style="stroke:none; fill:#fbd2c3" d="M 75.2 116.8L 76 117.6L 75.2 116.8z"/>
<path style="stroke:none; fill:#f8ac8d" d="M 346.134 117.066C 345.778 117.422 346.622 117.378 346.666 117.334C 347.022 116.978 346.178 117.022 346.134 117.066z"/>
<path style="stroke:none; fill:#f7956f" d="M 538.666 117.334C 538.622 117.378 538.578 118.222 538.934 117.866C 538.978 117.822 539.022 116.978 538.666 117.334z"/>
<path style="stroke:none; fill:#f9b9a3" d="M 616 116.8L 616.8 117.6L 616 116.8z"/>
<path style="stroke:none; fill:#fbd2c3" d="M 710.4 116.8L 711.2 117.6L 710.4 116.8M 739.2 116.8L 740 117.6L 739.2 116.8z"/>
<path style="stroke:none; fill:#f79181" d="M 798.4 116.8L 799.2 117.6L 798.4 116.8z"/>
<path style="stroke:none; fill:#f8ac8d" d="M 261.6 117.6L 261.6 120L 262.4 120C 262.199 118.838 262.148 118.598 261.6 117.6z"/>
<path style="stroke:none; fill:#f9c7b5" d="M 348 117.6L 348.8 118.4L 348 117.6z"/>
<path style="stroke:none; fill:#f9b9a3" d="M 460.534 117.866C 460.178 118.222 461.022 118.178 461.066 118.134C 461.422 117.778 460.578 117.822 460.534 117.866z"/>
<path style="stroke:none; fill:#fbdfd3" d="M 461.6 117.6L 461.6 118.4L 464 118.4C 463.002 117.852 462.762 117.801 461.6 117.6M 467.2 117.6L 467.2 118.4L 471.2 118.4C 469.785 117.777 468.771 117.67 467.2 117.6z"/>
<path style="stroke:none; fill:#fbd2c3" d="M 564 117.6L 564.8 118.4L 564 117.6z"/>
<path style="stroke:none; fill:#f9b9a3" d="M 661.6 117.6L 662.4 118.4L 661.6 117.6z"/>
<path style="stroke:none; fill:#fbd2c3" d="M 795.2 117.6L 796 118.4L 795.2 117.6z"/>
<path style="stroke:none; fill:#f9b9a3" d="M 797.6 117.6L 798.4 118.4L 797.6 117.6z"/>
<path style="stroke:none; fill:#f79181" d="M 852.8 117.6L 853.6 118.4L 852.8 117.6z"/>
<path style="stroke:none; fill:#fbd2c3" d="M 74.4 118.4L 75.2 119.2L 74.4 118.4z"/>
<path style="stroke:none; fill:#f8ac8d" d="M 152.8 118.4L 152.8 119.2L 158.4 119.2C 156.534 118.412 154.834 118.415 152.8 118.4z"/>
<path style="stroke:none; fill:#f9b9a3" d="M 456.8 118.4L 457.6 119.2L 456.8 118.4z"/>
<path style="stroke:none; fill:#f8b599" d="M 474.134 118.666C 473.778 119.022 474.622 118.978 474.666 118.934C 475.022 118.578 474.178 118.622 474.134 118.666M 613.6 118.4L 614.4 119.2L 613.6 118.4z"/>
<path style="stroke:none; fill:#fbdfd3" d="M 147.2 119.2L 147.2 120L 150.4 120C 149.195 119.454 148.548 119.339 147.2 119.2z"/>
<path style="stroke:none; fill:#ffffff" d="M 150.4 119.542C 143.639 120.511 137.743 122.396 132 126.157C 95.0872 150.326 118.975 208.508 161.6 202.969C 205.35 197.283 209.774 129.406 165.6 120.36C 160.586 119.333 155.493 118.813 150.4 119.542z"/>
<path style="stroke:none; fill:#fbd2c3" d="M 160.8 119.2L 160.8 120L 163.2 120C 162.202 119.452 161.962 119.401 160.8 119.2z"/>
<path style="stroke:none; fill:#f8ac8d" d="M 163.734 119.466C 163.378 119.822 164.222 119.778 164.266 119.734C 164.622 119.378 163.778 119.422 163.734 119.466z"/>
<path style="stroke:none; fill:#fbd2c3" d="M 352 119.2L 352.8 120L 352 119.2z"/>
<path style="stroke:none; fill:#f8b599" d="M 476.8 119.2L 477.6 120L 476.8 119.2z"/>
<path style="stroke:none; fill:#fbd2c3" d="M 563.2 119.2L 564 120L 563.2 119.2M 612.8 119.2L 613.6 120L 612.8 119.2z"/>
<path style="stroke:none; fill:#f9c7b5" d="M 740.8 119.2L 741.6 120L 740.8 119.2z"/>
<path style="stroke:none; fill:#fbd2c3" d="M 144.534 120.266C 144.178 120.622 145.022 120.578 145.066 120.534C 145.422 120.178 144.578 120.222 144.534 120.266z"/>
<path style="stroke:none; fill:#f9c7b5" d="M 166.134 120.266C 165.778 120.622 166.622 120.578 166.666 120.534C 167.022 120.178 166.178 120.222 166.134 120.266M 310.4 120L 311.2 120.8L 310.4 120z"/>
<path style="stroke:none; fill:#f9b9a3" d="M 478.4 120L 479.2 120.8L 478.4 120M 539.466 120.534C 539.422 120.578 539.378 121.422 539.734 121.066C 539.778 121.022 539.822 120.178 539.466 120.534z"/>
<path style="stroke:none; fill:#f79181" d="M 851.2 120L 852 120.8L 851.2 120z"/>
<path style="stroke:none; fill:#f8ac8d" d="M 169.334 121.066C 168.978 121.422 169.822 121.378 169.866 121.334C 170.222 120.978 169.378 121.022 169.334 121.066z"/>
<path style="stroke:none; fill:#f9b9a3" d="M 480 120.8L 480.8 121.6L 480 120.8z"/>
<path style="stroke:none; fill:#fbd2c3" d="M 712 120.8L 712.8 121.6L 712 120.8z"/>
<path style="stroke:none; fill:#f9c7b5" d="M 171.2 121.6L 172 122.4L 171.2 121.6z"/>
<path style="stroke:none; fill:#fbd2c3" d="M 309.866 122.134C 309.822 122.178 309.778 123.022 310.134 122.666C 310.178 122.622 310.222 121.778 309.866 122.134M 449.6 121.6L 450.4 122.4L 449.6 121.6z"/>
<path style="stroke:none; fill:#f9c7b5" d="M 742.4 121.6L 743.2 122.4L 742.4 121.6M 72.8 122.4L 73.6 123.2L 72.8 122.4z"/>
<path style="stroke:none; fill:#fbd2c3" d="M 172.8 122.4L 173.6 123.2L 172.8 122.4M 482.4 122.4L 483.2 123.2L 482.4 122.4z"/>
<path style="stroke:none; fill:#f79181" d="M 849.6 122.4L 850.4 123.2L 849.6 122.4z"/>
<path style="stroke:none; fill:#f9c7b5" d="M 136 123.2L 136.8 124L 136 123.2z"/>
<path style="stroke:none; fill:#fbd2c3" d="M 174.4 123.2L 175.2 124L 174.4 123.2z"/>
<path style="stroke:none; fill:#f8b599" d="M 447.2 123.2L 448 124L 447.2 123.2z"/>
<path style="stroke:none; fill:#fbdfd3" d="M 540 123.2L 540 125.6L 540.8 125.6C 540.599 124.438 540.548 124.198 540 123.2z"/>
<path style="stroke:none; fill:#f9b9a3" d="M 561.6 123.2L 562.4 124L 561.6 123.2z"/>
<path style="stroke:none; fill:#fbd2c3" d="M 667.2 123.2L 668 124L 667.2 123.2z"/>
<path style="stroke:none; fill:#f8b599" d="M 712.8 123.2L 713.6 124L 712.8 123.2z"/>
<path style="stroke:none; fill:#f8ac8d" d="M 72.2666 124.534C 72.2222 124.578 72.1778 125.422 72.5334 125.066C 72.5778 125.022 72.6222 124.178 72.2666 124.534z"/>
<path style="stroke:none; fill:#f9c7b5" d="M 176 124L 176.8 124.8L 176 124z"/>
<path style="stroke:none; fill:#fbd2c3" d="M 446.4 124L 447.2 124.8L 446.4 124z"/>
<path style="stroke:none; fill:#f8b599" d="M 668 124L 668.8 124.8L 668 124z"/>
<path style="stroke:none; fill:#f9c7b5" d="M 744 124L 744.8 124.8L 744 124z"/>
<path style="stroke:none; fill:#f8ac8d" d="M 309.066 125.334C 309.022 125.378 308.978 126.222 309.334 125.866C 309.378 125.822 309.422 124.978 309.066 125.334z"/>
<path style="stroke:none; fill:#fbd2c3" d="M 445.6 124.8L 446.4 125.6L 445.6 124.8M 560.8 124.8L 561.6 125.6L 560.8 124.8M 607.2 124.8L 608 125.6L 607.2 124.8z"/>
<path style="stroke:none; fill:#f79181" d="M 848 124.8L 848.8 125.6L 848 124.8z"/>
<path style="stroke:none; fill:#fbd2c3" d="M 132 125.6L 132.8 126.4L 132 125.6M 444.8 125.6L 445.6 126.4L 444.8 125.6z"/>
<path style="stroke:none; fill:#f7956f" d="M 540 125.6L 540 128.8L 540.8 128.8C 540.661 127.452 540.546 126.805 540 125.6z"/>
<path style="stroke:none; fill:#f8b599" d="M 713.6 125.6L 714.4 126.4L 713.6 125.6z"/>
<path style="stroke:none; fill:#f8ac8d" d="M 71.4666 126.934C 71.4222 126.978 71.3778 127.822 71.7334 127.466C 71.7778 127.422 71.8222 126.578 71.4666 126.934z"/>
<path style="stroke:none; fill:#f9b9a3" d="M 444 126.4L 444.8 127.2L 444 126.4z"/>
<path style="stroke:none; fill:#f9c7b5" d="M 745.6 126.4L 746.4 127.2L 745.6 126.4z"/>
<path style="stroke:none; fill:#fbd2c3" d="M 847.2 126.4L 848 127.2L 847.2 126.4M 180.8 127.2L 181.6 128L 180.8 127.2z"/>
<path style="stroke:none; fill:#f9b9a3" d="M 560 127.2L 560.8 128L 560 127.2z"/>
<path style="stroke:none; fill:#f79181" d="M 846.4 127.2L 847.2 128L 846.4 127.2z"/>
<path style="stroke:none; fill:#f8ac8d" d="M 261.6 128L 261.6 130.4L 262.4 130.4C 262.199 129.238 262.148 128.998 261.6 128z"/>
<path style="stroke:none; fill:#f9b9a3" d="M 488 128L 488.8 128.8L 488 128z"/>
<path style="stroke:none; fill:#f8b599" d="M 604.8 128L 605.6 128.8L 604.8 128M 670.4 128L 671.2 128.8L 670.4 128z"/>
<path style="stroke:none; fill:#fbd2c3" d="M 714.4 128L 715.2 128.8L 714.4 128z"/>
<path style="stroke:none; fill:#f8ac8d" d="M 70.6666 129.334C 70.6222 129.378 70.5778 130.222 70.9334 129.866C 70.9778 129.822 71.0222 128.978 70.6666 129.334z"/>
<path style="stroke:none; fill:#f9c7b5" d="M 747.2 128.8L 748 129.6L 747.2 128.8z"/>
<path style="stroke:none; fill:#f9b9a3" d="M 441.6 129.6L 442.4 130.4L 441.6 129.6z"/>
<path style="stroke:none; fill:#f8b599" d="M 559.2 129.6L 560 130.4L 559.2 129.6z"/>
<path style="stroke:none; fill:#f9b9a3" d="M 604 129.6L 604.8 130.4L 604 129.6z"/>
<path style="stroke:none; fill:#f79181" d="M 844.8 129.6L 845.6 130.4L 844.8 129.6z"/>
<path style="stroke:none; fill:#f9c7b5" d="M 261.866 130.934C 261.822 130.978 261.778 131.822 262.134 131.466C 262.178 131.422 262.222 130.578 261.866 130.934z"/>
<path style="stroke:none; fill:#fbd2c3" d="M 489.6 130.4L 490.4 131.2L 489.6 130.4M 671.2 130.4L 672 131.2L 671.2 130.4z"/>
<path style="stroke:none; fill:#f8b599" d="M 69.8666 131.734C 69.8222 131.778 69.7778 132.622 70.1334 132.266C 70.1778 132.222 70.2222 131.378 69.8666 131.734z"/>
<path style="stroke:none; fill:#fbd2c3" d="M 311.2 131.2L 312 132L 311.2 131.2z"/>
<path style="stroke:none; fill:#fbdfd3" d="M 540.8 131.2L 540.8 244.8L 541.6 244.8L 541.6 165.6C 541.6 155.835 544.566 140.174 540.8 131.2z"/>
<path style="stroke:none; fill:#f9b9a3" d="M 603.2 131.2L 604 132L 603.2 131.2z"/>
<path style="stroke:none; fill:#f7956f" d="M 715.466 131.734C 715.422 131.778 715.378 132.622 715.734 132.266C 715.778 132.222 715.822 131.378 715.466 131.734z"/>
<path style="stroke:none; fill:#f9c7b5" d="M 748.8 131.2L 749.6 132L 748.8 131.2z"/>
<path style="stroke:none; fill:#fbd2c3" d="M 844 131.2L 844.8 132L 844 131.2M 490.4 132L 491.2 132.8L 490.4 132z"/>
<path style="stroke:none; fill:#f7956f" d="M 558.666 132.534C 558.622 132.578 558.578 133.422 558.934 133.066C 558.978 133.022 559.022 132.178 558.666 132.534z"/>
<path style="stroke:none; fill:#f79181" d="M 843.2 132L 844 132.8L 843.2 132z"/>
<path style="stroke:none; fill:#f8b599" d="M 602.4 132.8L 603.2 133.6L 602.4 132.8z"/>
<path style="stroke:none; fill:#f9c7b5" d="M 69.0666 134.134C 69.0222 134.178 68.9778 135.022 69.3334 134.666C 69.3778 134.622 69.4222 133.778 69.0666 134.134z"/>
<path style="stroke:none; fill:#fbd2c3" d="M 313.6 133.6L 314.4 134.4L 313.6 133.6z"/>
<path style="stroke:none; fill:#f9c7b5" d="M 750.4 133.6L 751.2 134.4L 750.4 133.6z"/>
<path style="stroke:none; fill:#f9b9a3" d="M 842.4 133.6L 843.2 134.4L 842.4 133.6z"/>
<path style="stroke:none; fill:#fbd2c3" d="M 122.4 134.4L 123.2 135.2L 122.4 134.4M 188 134.4L 188.8 135.2L 188 134.4z"/>
<path style="stroke:none; fill:#f8b599" d="M 439.2 134.4L 440 135.2L 439.2 134.4M 557.866 134.934C 557.822 134.978 557.778 135.822 558.134 135.466C 558.178 135.422 558.222 134.578 557.866 134.934M 716.266 134.934C 716.222 134.978 716.178 135.822 716.534 135.466C 716.578 135.422 716.622 134.578 716.266 134.934z"/>
<path style="stroke:none; fill:#f79181" d="M 841.6 134.4L 842.4 135.2L 841.6 134.4z"/>
<path style="stroke:none; fill:#fbd2c3" d="M 262.666 135.734C 262.622 135.778 262.578 136.622 262.934 136.266C 262.978 136.222 263.022 135.378 262.666 135.734M 492.266 135.734C 492.222 135.778 492.178 136.622 492.534 136.266C 492.578 136.222 492.622 135.378 492.266 135.734z"/>
<path style="stroke:none; fill:#fbdfd3" d="M 601.866 135.734C 601.822 135.778 601.778 136.622 602.134 136.266C 602.178 136.222 602.222 135.378 601.866 135.734z"/>
<path style="stroke:none; fill:#f9b9a3" d="M 673.066 135.734C 673.022 135.778 672.978 136.622 673.334 136.266C 673.378 136.222 673.422 135.378 673.066 135.734z"/>
<path style="stroke:none; fill:#f9c7b5" d="M 316.8 136L 317.6 136.8L 316.8 136z"/>
<path style="stroke:none; fill:#f9b9a3" d="M 840.8 136L 841.6 136.8L 840.8 136z"/>
<path style="stroke:none; fill:#f9c7b5" d="M 68 136.8L 68 139.2L 68.8 139.2C 68.599 138.038 68.5478 137.798 68 136.8z"/>
<path style="stroke:none; fill:#f8b599" d="M 438.4 136.8L 439.2 137.6L 438.4 136.8z"/>
<path style="stroke:none; fill:#fbdfd3" d="M 557.066 137.334C 557.022 137.378 556.978 138.222 557.334 137.866C 557.378 137.822 557.422 136.978 557.066 137.334M 672.8 136.8C 669.906 141.263 659.255 139.2 654.4 139.2L 601.6 139.2L 601.6 140L 673.6 140C 673.461 138.652 673.346 138.005 672.8 136.8z"/>
<path style="stroke:none; fill:#f79181" d="M 840 136.8L 840.8 137.6L 840 136.8z"/>
<path style="stroke:none; fill:#f9c7b5" d="M 120 137.6L 120.8 138.4L 120 137.6M 190.4 137.6L 191.2 138.4L 190.4 137.6M 319.2 137.6L 320 138.4L 319.2 137.6z"/>
<path style="stroke:none; fill:#fbd2c3" d="M 493.066 138.134C 493.022 138.178 492.978 139.022 493.334 138.666C 493.378 138.622 493.422 137.778 493.066 138.134M 752.8 137.6L 753.6 138.4L 752.8 137.6M 263.466 138.934C 263.422 138.978 263.378 139.822 263.734 139.466C 263.778 139.422 263.822 138.578 263.466 138.934z"/>
<path style="stroke:none; fill:#f9c7b5" d="M 320.8 138.4L 321.6 139.2L 320.8 138.4z"/>
<path style="stroke:none; fill:#f7956f" d="M 557.066 138.934C 557.022 138.978 556.978 139.822 557.334 139.466C 557.378 139.422 557.422 138.578 557.066 138.934z"/>
<path style="stroke:none; fill:#f9b9a3" d="M 601.066 138.934C 601.022 138.978 600.978 139.822 601.334 139.466C 601.378 139.422 601.422 138.578 601.066 138.934z"/>
<path style="stroke:none; fill:#fbd2c3" d="M 716.8 138.4L 716.8 140.8L 717.6 140.8C 717.399 139.639 717.348 139.398 716.8 138.4z"/>
<path style="stroke:none; fill:#f9b9a3" d="M 839.2 138.4L 840 139.2L 839.2 138.4z"/>
<path style="stroke:none; fill:#f79181" d="M 838.4 139.2L 839.2 140L 838.4 139.2z"/>
<path style="stroke:none; fill:#fbdfd3" d="M 67.4666 140.534C 67.4222 140.578 67.3778 141.422 67.7334 141.066C 67.7778 141.022 67.8222 140.178 67.4666 140.534M 437.6 140L 437.6 142.4L 438.4 142.4C 438.199 141.238 438.148 140.998 437.6 140z"/>
<path style="stroke:none; fill:#fbd2c3" d="M 754.4 140L 755.2 140.8L 754.4 140M 264.266 141.334C 264.222 141.378 264.178 142.222 264.534 141.866C 264.578 141.822 264.622 140.978 264.266 141.334z"/>
<path style="stroke:none; fill:#f9c7b5" d="M 324.8 140.8L 325.6 141.6L 324.8 140.8z"/>
<path style="stroke:none; fill:#f7956f" d="M 717.066 141.334C 717.022 141.378 716.978 142.222 717.334 141.866C 717.378 141.822 717.422 140.978 717.066 141.334z"/>
<path style="stroke:none; fill:#f9b9a3" d="M 837.6 140.8L 838.4 141.6L 837.6 140.8z"/>
<path style="stroke:none; fill:#f8b599" d="M 67.2 141.6L 67.2 144L 68 144C 67.799 142.838 67.7478 142.598 67.2 141.6z"/>
<path style="stroke:none; fill:#fbd2c3" d="M 326.4 141.6L 327.2 142.4L 326.4 141.6z"/>
<path style="stroke:none; fill:#fbdfd3" d="M 493.6 141.6L 493.6 144.8L 494.4 144.8C 494.261 143.452 494.146 142.805 493.6 141.6z"/>
<path style="stroke:none; fill:#f8b599" d="M 556 141.6L 556 144L 556.8 144C 556.599 142.839 556.548 142.598 556 141.6z"/>
<path style="stroke:none; fill:#f79181" d="M 836.8 141.6L 837.6 142.4L 836.8 141.6z"/>
<path style="stroke:none; fill:#fbd2c3" d="M 756 142.4L 756.8 143.2L 756 142.4z"/>
<path style="stroke:none; fill:#f9c7b5" d="M 328.8 143.2L 329.6 144L 328.8 143.2z"/>
<path style="stroke:none; fill:#f7956f" d="M 436.8 143.2L 436.8 145.6L 437.6 145.6C 437.399 144.438 437.348 144.198 436.8 143.2z"/>
<path style="stroke:none; fill:#f9b9a3" d="M 836 143.2L 836.8 144L 836 143.2z"/>
<path style="stroke:none; fill:#fbd2c3" d="M 193.6 144L 194.4 144.8L 193.6 144z"/>
<path style="stroke:none; fill:#f9c7b5" d="M 330.4 144L 331.2 144.8L 330.4 144M 66.4 144.8L 66.4 148L 67.2 148C 67.0607 146.652 66.9464 146.005 66.4 144.8z"/>
<path style="stroke:none; fill:#fbdfd3" d="M 717.6 144.8L 717.6 148L 718.4 148C 718.261 146.652 718.146 146.005 717.6 144.8z"/>
<path style="stroke:none; fill:#f9c7b5" d="M 757.6 144.8L 758.4 145.6L 757.6 144.8z"/>
<path style="stroke:none; fill:#fbd2c3" d="M 265.6 145.6L 266.4 146.4L 265.6 145.6z"/>
<path style="stroke:none; fill:#f9b9a3" d="M 436.8 145.6L 436.8 244L 437.6 244L 437.6 175.2C 437.6 166.693 440.086 153.431 436.8 145.6z"/>
<path style="stroke:none; fill:#fbdfd3" d="M 555.466 146.134C 555.422 146.178 555.378 147.022 555.734 146.666C 555.778 146.622 555.822 145.778 555.466 146.134z"/>
<path style="stroke:none; fill:#f9b9a3" d="M 834.4 145.6L 835.2 146.4L 834.4 145.6z"/>
<path style="stroke:none; fill:#f9c7b5" d="M 334.4 146.4L 335.2 147.2L 334.4 146.4z"/>
<path style="stroke:none; fill:#fbd2c3" d="M 115.466 147.734C 115.422 147.778 115.378 148.622 115.734 148.266C 115.778 148.222 115.822 147.378 115.466 147.734M 266.4 147.2L 267.2 148L 266.4 147.2z"/>
<path style="stroke:none; fill:#f9b9a3" d="M 555.466 147.734C 555.422 147.778 555.378 148.622 555.734 148.266C 555.778 148.222 555.822 147.378 555.466 147.734z"/>
<path style="stroke:none; fill:#fbd2c3" d="M 759.2 147.2L 760 148L 759.2 147.2z"/>
<path style="stroke:none; fill:#f8ac8d" d="M 66.6666 148.534C 66.6222 148.578 66.5778 149.422 66.9334 149.066C 66.9778 149.022 67.0222 148.178 66.6666 148.534z"/>
<path style="stroke:none; fill:#fbdfd3" d="M 195.466 148.534C 195.422 148.578 195.378 149.422 195.734 149.066C 195.778 149.022 195.822 148.178 195.466 148.534z"/>
<path style="stroke:none; fill:#f9b9a3" d="M 717.6 148L 717.6 156.8L 718.4 156.8C 718.4 153.84 718.752 150.746 717.6 148M 832.8 148L 833.6 148.8L 832.8 148z"/>
<path style="stroke:none; fill:#fbd2c3" d="M 267.2 148.8L 268 149.6L 267.2 148.8z"/>
<path style="stroke:none; fill:#f9c7b5" d="M 338.4 148.8L 339.2 149.6L 338.4 148.8z"/>
<path style="stroke:none; fill:#f7956f" d="M 555.466 149.334C 555.422 149.378 555.378 150.222 555.734 149.866C 555.778 149.822 555.822 148.978 555.466 149.334z"/>
<path style="stroke:none; fill:#f9c7b5" d="M 340 149.6L 340.8 150.4L 340 149.6M 760.8 149.6L 761.6 150.4L 760.8 149.6z"/>
<path style="stroke:none; fill:#fbdfd3" d="M 114.666 150.934C 114.622 150.978 114.578 151.822 114.934 151.466C 114.978 151.422 115.022 150.578 114.666 150.934z"/>
<path style="stroke:none; fill:#f8b599" d="M 831.2 150.4L 832 151.2L 831.2 150.4z"/>
<path style="stroke:none; fill:#fbdfd3" d="M 196.266 151.734C 196.222 151.778 196.178 152.622 196.534 152.266C 196.578 152.222 196.622 151.378 196.266 151.734z"/>
<path style="stroke:none; fill:#f9c7b5" d="M 268.8 151.2L 269.6 152L 268.8 151.2z"/>
<path style="stroke:none; fill:#fbdfd3" d="M 65.6 152L 65.6 155.2L 66.4 155.2C 66.2607 153.852 66.1464 153.205 65.6 152z"/>
<path style="stroke:none; fill:#f9c7b5" d="M 344 152L 344.8 152.8L 344 152z"/>
<path style="stroke:none; fill:#f8b599" d="M 113.6 152.8L 113.6 155.2L 114.4 155.2C 114.199 154.038 114.148 153.798 113.6 152.8z"/>
<path style="stroke:none; fill:#fbdfd3" d="M 554.4 152.8L 554.4 156.8L 555.2 156.8C 555.13 155.229 555.023 154.215 554.4 152.8z"/>
<path style="stroke:none; fill:#f79181" d="M 829.6 152.8L 830.4 153.6L 829.6 152.8z"/>
<path style="stroke:none; fill:#f9c7b5" d="M 270.4 153.6L 271.2 154.4L 270.4 153.6M 346.4 153.6L 347.2 154.4L 346.4 153.6M 196.8 154.4L 196.8 157.6L 197.6 157.6C 197.461 156.252 197.346 155.605 196.8 154.4M 764 154.4L 764.8 155.2L 764 154.4M 65.6 155.2L 65.6 167.2L 66.4 167.2C 66.4 163.346 67.101 158.777 65.6 155.2z"/>
<path style="stroke:none; fill:#fbdfd3" d="M 113.866 155.734C 113.822 155.778 113.778 156.622 114.134 156.266C 114.178 156.222 114.222 155.378 113.866 155.734z"/>
<path style="stroke:none; fill:#f9c7b5" d="M 348.8 155.2L 349.6 156L 348.8 155.2z"/>
<path style="stroke:none; fill:#f79181" d="M 828 155.2L 828.8 156L 828 155.2z"/>
<path style="stroke:none; fill:#fbd2c3" d="M 272.8 156.8L 273.6 157.6L 272.8 156.8z"/>
<path style="stroke:none; fill:#f9b9a3" d="M 554.4 156.8L 554.4 163.2L 555.2 163.2C 555.194 160.931 555.278 158.89 554.4 156.8z"/>
<path style="stroke:none; fill:#fbdfd3" d="M 717.6 156.8L 717.6 160L 718.4 160C 718.261 158.652 718.146 158.005 717.6 156.8z"/>
<path style="stroke:none; fill:#f9c7b5" d="M 765.6 156.8L 766.4 157.6L 765.6 156.8z"/>
<path style="stroke:none; fill:#fbdfd3" d="M 196.8 157.6L 196.8 166.4L 197.6 166.4C 197.6 163.44 197.952 160.346 196.8 157.6z"/>
<path style="stroke:none; fill:#fbd2c3" d="M 273.6 157.6L 274.4 158.4L 273.6 157.6M 352 157.6L 352.8 158.4L 352 157.6z"/>
<path style="stroke:none; fill:#f79181" d="M 826.4 157.6L 827.2 158.4L 826.4 157.6z"/>
<path style="stroke:none; fill:#fbd2c3" d="M 274.4 158.4L 275.2 159.2L 274.4 158.4M 275.2 159.2L 276 160L 275.2 159.2z"/>
<path style="stroke:none; fill:#fbdfd3" d="M 767.466 159.734C 767.422 159.778 767.378 160.622 767.734 160.266C 767.778 160.222 767.822 159.378 767.466 159.734z"/>
<path style="stroke:none; fill:#f8ac8d" d="M 112.8 160L 112.8 162.4L 113.6 162.4C 113.399 161.238 113.348 160.998 112.8 160z"/>
<path style="stroke:none; fill:#fbd2c3" d="M 276 160L 276.8 160.8L 276 160z"/>
<path style="stroke:none; fill:#f57947" d="M 712.8 244L 749.6 244C 754.274 244 761.142 245.262 765.528 243.518C 771.905 240.98 777.279 228.657 781.139 223.2L 809.136 183.2C 814.088 176.21 820.92 168.802 824 160.8C 813.984 160.8 803.576 161.614 793.6 160.664C 786.849 160.022 775.35 157.797 768.947 160.482C 762.592 163.15 756.825 176.763 753.066 182.4C 739.586 202.622 724.618 222.774 712.8 244z"/>
<path style="stroke:none; fill:#f58161" d="M 791.2 160L 791.2 160.8L 824 160.8C 815.4 157.191 800.56 160 791.2 160z"/>
<path style="stroke:none; fill:#fbd2c3" d="M 276.8 160.8L 277.6 161.6L 276.8 160.8z"/>
<path style="stroke:none; fill:#f79181" d="M 825.6 160.8L 826.4 161.6L 825.6 160.8z"/>
<path style="stroke:none; fill:#f7956f" d="M 717.066 162.134C 717.022 162.178 716.978 163.022 717.334 162.666C 717.378 162.622 717.422 161.778 717.066 162.134z"/>
<path style="stroke:none; fill:#f8b599" d="M 766.4 161.6L 767.2 162.4L 766.4 161.6z"/>
<path style="stroke:none; fill:#f9b9a3" d="M 826.4 161.6L 827.2 162.4L 826.4 161.6z"/>
<path style="stroke:none; fill:#fbdfd3" d="M 554.4 163.2L 554.4 168L 555.2 168C 555.162 166.198 555.099 164.842 554.4 163.2z"/>
<path style="stroke:none; fill:#f9b9a3" d="M 717.066 163.734C 717.022 163.778 716.978 164.622 717.334 164.266C 717.378 164.222 717.422 163.378 717.066 163.734z"/>
<path style="stroke:none; fill:#f79181" d="M 827.2 163.2L 828 164L 827.2 163.2z"/>
<path style="stroke:none; fill:#fbd2c3" d="M 280.8 164L 281.6 164.8L 280.8 164z"/>
<path style="stroke:none; fill:#f9b9a3" d="M 764.8 164L 765.6 164.8L 764.8 164M 828 164L 828.8 164.8L 828 164z"/>
<path style="stroke:none; fill:#fbdfd3" d="M 717.066 165.334C 717.022 165.378 716.978 166.222 717.334 165.866C 717.378 165.822 717.422 164.978 717.066 165.334M 113.866 166.134C 113.822 166.178 113.778 167.022 114.134 166.666C 114.178 166.622 114.222 165.778 113.866 166.134z"/>
<path style="stroke:none; fill:#f9c7b5" d="M 283.2 165.6L 284 166.4L 283.2 165.6M 360 165.6L 360.8 166.4L 360 165.6z"/>
<path style="stroke:none; fill:#f79181" d="M 828.8 165.6L 829.6 166.4L 828.8 165.6z"/>
<path style="stroke:none; fill:#f8ac8d" d="M 197.066 166.934C 197.022 166.978 196.978 167.822 197.334 167.466C 197.378 167.422 197.422 166.578 197.066 166.934z"/>
<path style="stroke:none; fill:#f9b9a3" d="M 763.2 166.4L 764 167.2L 763.2 166.4M 829.6 166.4L 830.4 167.2L 829.6 166.4z"/>
<path style="stroke:none; fill:#fbdfd3" d="M 65.6 167.2L 65.6 170.4L 66.4 170.4C 66.2607 169.052 66.1464 168.405 65.6 167.2z"/>
<path style="stroke:none; fill:#f8b599" d="M 113.6 167.2L 113.6 169.6L 114.4 169.6C 114.199 168.438 114.148 168.198 113.6 167.2z"/>
<path style="stroke:none; fill:#fbd2c3" d="M 287.2 168L 288 168.8L 287.2 168z"/>
<path style="stroke:none; fill:#f79181" d="M 830.4 168L 831.2 168.8L 830.4 168z"/>
<path style="stroke:none; fill:#f9c7b5" d="M 362.4 168.8L 363.2 169.6L 362.4 168.8z"/>
<path style="stroke:none; fill:#f9b9a3" d="M 716.266 169.334C 716.222 169.378 716.178 170.222 716.534 169.866C 716.578 169.822 716.622 168.978 716.266 169.334M 761.6 168.8L 762.4 169.6L 761.6 168.8z"/>
<path style="stroke:none; fill:#f9c7b5" d="M 196.266 170.134C 196.222 170.178 196.178 171.022 196.534 170.666C 196.578 170.622 196.622 169.778 196.266 170.134M 114.666 170.934C 114.622 170.978 114.578 171.822 114.934 171.466C 114.978 171.422 115.022 170.578 114.666 170.934z"/>
<path style="stroke:none; fill:#f7956f" d="M 555.466 170.934C 555.422 170.978 555.378 171.822 555.734 171.466C 555.778 171.422 555.822 170.578 555.466 170.934z"/>
<path style="stroke:none; fill:#f79181" d="M 832 170.4L 832.8 171.2L 832 170.4z"/>
<path style="stroke:none; fill:#fbd2c3" d="M 292.8 171.2L 293.6 172L 292.8 171.2z"/>
<path style="stroke:none; fill:#f9c7b5" d="M 364 171.2L 364.8 172L 364 171.2z"/>
<path style="stroke:none; fill:#f9b9a3" d="M 760 171.2L 760.8 172L 760 171.2M 555.466 172.534C 555.422 172.578 555.378 173.422 555.734 173.066C 555.778 173.022 555.822 172.178 555.466 172.534z"/>
<path style="stroke:none; fill:#f8b599" d="M 66.6666 173.334C 66.6222 173.378 66.5778 174.222 66.9334 173.866C 66.9778 173.822 67.0222 172.978 66.6666 173.334z"/>
<path style="stroke:none; fill:#f9c7b5" d="M 195.466 173.334C 195.422 173.378 195.378 174.222 195.734 173.866C 195.778 173.822 195.822 172.978 195.466 173.334z"/>
<path style="stroke:none; fill:#fbd2c3" d="M 715.466 173.334C 715.422 173.378 715.378 174.222 715.734 173.866C 715.778 173.822 715.822 172.978 715.466 173.334z"/>
<path style="stroke:none; fill:#f79181" d="M 833.6 172.8L 834.4 173.6L 833.6 172.8z"/>
<path style="stroke:none; fill:#f8b599" d="M 115.466 174.134C 115.422 174.178 115.378 175.022 115.734 174.666C 115.778 174.622 115.822 173.778 115.466 174.134z"/>
<path style="stroke:none; fill:#fbdfd3" d="M 555.466 174.134C 555.422 174.178 555.378 175.022 555.734 174.666C 555.778 174.622 555.822 173.778 555.466 174.134z"/>
<path style="stroke:none; fill:#f9b9a3" d="M 758.4 173.6L 759.2 174.4L 758.4 173.6z"/>
<path style="stroke:none; fill:#fbd2c3" d="M 66.4 174.4L 66.4 176.8L 67.2 176.8C 66.999 175.638 66.9478 175.398 66.4 174.4z"/>
<path style="stroke:none; fill:#f9c7b5" d="M 298.4 174.4L 299.2 175.2L 298.4 174.4z"/>
<path style="stroke:none; fill:#f9b9a3" d="M 601.6 174.4L 601.6 175.2L 715.2 175.2C 706.226 171.434 690.565 174.4 680.8 174.4L 601.6 174.4z"/>
<path style="stroke:none; fill:#f7956f" d="M 601.066 175.734C 601.022 175.778 600.978 176.622 601.334 176.266C 601.378 176.222 601.422 175.378 601.066 175.734z"/>
<path style="stroke:none; fill:#f79181" d="M 835.2 175.2L 836 176L 835.2 175.2z"/>
<path style="stroke:none; fill:#f8ac8d" d="M 116.266 176.534C 116.222 176.578 116.178 177.422 116.534 177.066C 116.578 177.022 116.622 176.178 116.266 176.534z"/>
<path style="stroke:none; fill:#f9c7b5" d="M 194.4 176L 195.2 176.8L 194.4 176z"/>
<path style="stroke:none; fill:#f9b9a3" d="M 756.8 176L 757.6 176.8L 756.8 176z"/>
<path style="stroke:none; fill:#fbd2c3" d="M 302.4 176.8L 303.2 177.6L 302.4 176.8z"/>
<path style="stroke:none; fill:#f8ac8d" d="M 193.866 178.134C 193.822 178.178 193.778 179.022 194.134 178.666C 194.178 178.622 194.222 177.778 193.866 178.134z"/>
<path style="stroke:none; fill:#f9c7b5" d="M 304 177.6L 304.8 178.4L 304 177.6M 367.2 177.6L 368 178.4L 367.2 177.6z"/>
<path style="stroke:none; fill:#f9b9a3" d="M 556.266 178.134C 556.222 178.178 556.178 179.022 556.534 178.666C 556.578 178.622 556.622 177.778 556.266 178.134z"/>
<path style="stroke:none; fill:#fbd2c3" d="M 601.6 177.6L 602.4 178.4L 601.6 177.6z"/>
<path style="stroke:none; fill:#f9b9a3" d="M 836.8 177.6L 837.6 178.4L 836.8 177.6z"/>
<path style="stroke:none; fill:#f8b599" d="M 67.2 178.4L 67.2 180.8L 68 180.8C 67.799 179.638 67.7478 179.398 67.2 178.4z"/>
<path style="stroke:none; fill:#f9b9a3" d="M 755.2 178.4L 756 179.2L 755.2 178.4z"/>
<path style="stroke:none; fill:#f8b599" d="M 368.266 179.734C 368.222 179.778 368.178 180.622 368.534 180.266C 368.578 180.222 368.622 179.378 368.266 179.734z"/>
<path style="stroke:none; fill:#fbd2c3" d="M 308 180L 308.8 180.8L 308 180M 602.4 180L 603.2 180.8L 602.4 180z"/>
<path style="stroke:none; fill:#f9b9a3" d="M 838.4 180L 839.2 180.8L 838.4 180M 753.6 180.8L 754.4 181.6L 753.6 180.8z"/>
<path style="stroke:none; fill:#f8b599" d="M 369.066 182.134C 369.022 182.178 368.978 183.022 369.334 182.666C 369.378 182.622 369.422 181.778 369.066 182.134z"/>
<path style="stroke:none; fill:#fbd2c3" d="M 557.066 182.134C 557.022 182.178 556.978 183.022 557.334 182.666C 557.378 182.622 557.422 181.778 557.066 182.134z"/>
<path style="stroke:none; fill:#f8ac8d" d="M 191.466 182.934C 191.422 182.978 191.378 183.822 191.734 183.466C 191.778 183.422 191.822 182.578 191.466 182.934z"/>
<path style="stroke:none; fill:#f8b599" d="M 603.2 182.4L 604 183.2L 603.2 182.4z"/>
<path style="stroke:none; fill:#f9b9a3" d="M 840 182.4L 840.8 183.2L 840 182.4z"/>
<path style="stroke:none; fill:#f9c7b5" d="M 68 183.2L 68 185.6L 68.8 185.6C 68.599 184.438 68.5478 184.198 68 183.2M 313.6 183.2L 314.4 184L 313.6 183.2z"/>
<path style="stroke:none; fill:#fbd2c3" d="M 752 183.2L 752.8 184L 752 183.2z"/>
<path style="stroke:none; fill:#f9c7b5" d="M 120 184L 120.8 184.8L 120 184M 190.4 184L 191.2 184.8L 190.4 184z"/>
<path style="stroke:none; fill:#f8b599" d="M 604 184L 604.8 184.8L 604 184z"/>
<path style="stroke:none; fill:#f79181" d="M 840.8 184L 841.6 184.8L 840.8 184z"/>
<path style="stroke:none; fill:#f8b599" d="M 369.866 185.334C 369.822 185.378 369.778 186.222 370.134 185.866C 370.178 185.822 370.222 184.978 369.866 185.334z"/>
<path style="stroke:none; fill:#f9b9a3" d="M 841.6 184.8L 842.4 185.6L 841.6 184.8z"/>
<path style="stroke:none; fill:#fbd2c3" d="M 316.8 185.6L 317.6 186.4L 316.8 185.6M 750.4 185.6L 751.2 186.4L 750.4 185.6z"/>
<path style="stroke:none; fill:#f9c7b5" d="M 121.6 186.4L 122.4 187.2L 121.6 186.4z"/>
<path style="stroke:none; fill:#fbdfd3" d="M 69.0666 187.734C 69.0222 187.778 68.9778 188.622 69.3334 188.266C 69.3778 188.222 69.4222 187.378 69.0666 187.734z"/>
<path style="stroke:none; fill:#fbd2c3" d="M 122.4 187.2L 123.2 188L 122.4 187.2z"/>
<path style="stroke:none; fill:#f9b9a3" d="M 843.2 187.2L 844 188L 843.2 187.2z"/>
<path style="stroke:none; fill:#fbd2c3" d="M 370.4 188L 370.4 190.4L 371.2 190.4C 370.999 189.238 370.948 188.998 370.4 188M 558.666 188.534C 558.622 188.578 558.578 189.422 558.934 189.066C 558.978 189.022 559.022 188.178 558.666 188.534z"/>
<path style="stroke:none; fill:#f9b9a3" d="M 606.4 188L 607.2 188.8L 606.4 188z"/>
<path style="stroke:none; fill:#fbd2c3" d="M 69.8666 190.134C 69.8222 190.178 69.7778 191.022 70.1334 190.666C 70.1778 190.622 70.2222 189.778 69.8666 190.134z"/>
<path style="stroke:none; fill:#f9c7b5" d="M 320.8 189.6L 321.6 190.4L 320.8 189.6z"/>
<path style="stroke:none; fill:#f9b9a3" d="M 844.8 189.6L 845.6 190.4L 844.8 189.6z"/>
<path style="stroke:none; fill:#f8ac8d" d="M 370.666 190.934C 370.622 190.978 370.578 191.822 370.934 191.466C 370.978 191.422 371.022 190.578 370.666 190.934z"/>
<path style="stroke:none; fill:#f8b599" d="M 559.2 190.4L 560 191.2L 559.2 190.4z"/>
<path style="stroke:none; fill:#f9b9a3" d="M 701.6 190.4C 704.882 204.186 702.4 221.039 702.4 235.2L 703.2 235.2L 703.2 202.4C 703.2 198.871 704.425 192.869 701.6 190.4z"/>
<path style="stroke:none; fill:#f8b599" d="M 608.8 191.2L 609.6 192L 608.8 191.2z"/>
<path style="stroke:none; fill:#f9b9a3" d="M 609.6 192L 610.4 192.8L 609.6 192M 699.2 192L 700 192.8L 699.2 192z"/>
<path style="stroke:none; fill:#f8b599" d="M 746.4 192L 747.2 192.8L 746.4 192z"/>
<path style="stroke:none; fill:#f9b9a3" d="M 846.4 192L 847.2 192.8L 846.4 192z"/>
<path style="stroke:none; fill:#f9c7b5" d="M 70.4 192.8L 71.2 193.6L 70.4 192.8z"/>
<path style="stroke:none; fill:#fbdfd3" d="M 322.666 193.334C 322.622 193.378 322.578 194.222 322.934 193.866C 322.978 193.822 323.022 192.978 322.666 193.334z"/>
<path style="stroke:none; fill:#fbd2c3" d="M 560.266 193.334C 560.222 193.378 560.178 194.222 560.534 193.866C 560.578 193.822 560.622 192.978 560.266 193.334M 610.4 192.8L 611.2 193.6L 610.4 192.8z"/>
<path style="stroke:none; fill:#f9b9a3" d="M 697.6 192.8L 698.4 193.6L 697.6 192.8z"/>
<path style="stroke:none; fill:#fbd2c3" d="M 611.2 193.6L 612 194.4L 611.2 193.6M 696 193.6L 696.8 194.4L 696 193.6z"/>
<path style="stroke:none; fill:#f79181" d="M 847.2 193.6L 848 194.4L 847.2 193.6z"/>
<path style="stroke:none; fill:#fbd2c3" d="M 129.6 194.4L 130.4 195.2L 129.6 194.4z"/>
<path style="stroke:none; fill:#f9c7b5" d="M 264.8 194.4L 264.8 240.8L 265.6 240.8C 265.6 226.151 263.006 208.658 266.4 194.4L 264.8 194.4z"/>
<path style="stroke:none; fill:#f8b599" d="M 612 194.4L 612.8 195.2L 612 194.4z"/>
<path style="stroke:none; fill:#f9b9a3" d="M 744.8 194.4L 745.6 195.2L 744.8 194.4M 848 194.4L 848.8 195.2L 848 194.4z"/>
<path style="stroke:none; fill:#f9c7b5" d="M 71.2 195.2L 72 196L 71.2 195.2M 180 195.2L 180.8 196L 180 195.2M 266.4 195.2L 267.2 196L 266.4 195.2z"/>
<path style="stroke:none; fill:#f8ac8d" d="M 323.2 195.2L 323.2 198.4L 324 198.4C 323.861 197.052 323.746 196.405 323.2 195.2z"/>
<path style="stroke:none; fill:#f9b9a3" d="M 560.8 195.2L 561.6 196L 560.8 195.2z"/>
<path style="stroke:none; fill:#f8b599" d="M 612.8 195.2L 613.6 196L 612.8 195.2z"/>
<path style="stroke:none; fill:#fbd2c3" d="M 692.8 195.2L 693.6 196L 692.8 195.2z"/>
<path style="stroke:none; fill:#fbdfd3" d="M 371.2 196L 371.2 199.2L 372 199.2C 371.861 197.852 371.746 197.205 371.2 196z"/>
<path style="stroke:none; fill:#fbd2c3" d="M 691.2 196L 692 196.8L 691.2 196z"/>
<path style="stroke:none; fill:#f79181" d="M 848.8 196L 849.6 196.8L 848.8 196z"/>
<path style="stroke:none; fill:#f9c7b5" d="M 132.8 196.8L 133.6 197.6L 132.8 196.8M 177.6 196.8L 178.4 197.6L 177.6 196.8z"/>
<path style="stroke:none; fill:#fbd2c3" d="M 268.8 196.8L 269.6 197.6L 268.8 196.8z"/>
<path style="stroke:none; fill:#f9b9a3" d="M 689.6 196.8L 690.4 197.6L 689.6 196.8z"/>
<path style="stroke:none; fill:#f8b599" d="M 743.2 196.8L 744 197.6L 743.2 196.8z"/>
<path style="stroke:none; fill:#f9b9a3" d="M 849.6 196.8L 850.4 197.6L 849.6 196.8z"/>
<path style="stroke:none; fill:#fbd2c3" d="M 72 197.6L 72.8 198.4L 72 197.6M 134.4 197.6L 135.2 198.4L 134.4 197.6z"/>
<path style="stroke:none; fill:#f9b9a3" d="M 616 197.6L 616.8 198.4L 616 197.6z"/>
<path style="stroke:none; fill:#f8b599" d="M 688 197.6L 688.8 198.4L 688 197.6z"/>
<path style="stroke:none; fill:#f9c7b5" d="M 271.2 198.4L 272 199.2L 271.2 198.4z"/>
<path style="stroke:none; fill:#f7956f" d="M 686.134 198.666C 685.778 199.022 686.622 198.978 686.666 198.934C 687.022 198.578 686.178 198.622 686.134 198.666z"/>
<path style="stroke:none; fill:#f79181" d="M 850.4 198.4L 851.2 199.2L 850.4 198.4z"/>
<path style="stroke:none; fill:#fbd2c3" d="M 272.8 199.2L 273.6 200L 272.8 199.2z"/>
<path style="stroke:none; fill:#f9b9a3" d="M 618.4 199.2L 619.2 200L 618.4 199.2z"/>
<path style="stroke:none; fill:#fbd2c3" d="M 683.2 199.2L 684 200L 683.2 199.2z"/>
<path style="stroke:none; fill:#f9b9a3" d="M 741.6 199.2L 742.4 200L 741.6 199.2M 851.2 199.2L 852 200L 851.2 199.2z"/>
<path style="stroke:none; fill:#f8b599" d="M 171.734 200.266C 171.378 200.622 172.222 200.578 172.266 200.534C 172.622 200.178 171.778 200.222 171.734 200.266z"/>
<path style="stroke:none; fill:#fbd2c3" d="M 620 200L 620.8 200.8L 620 200z"/>
<path style="stroke:none; fill:#f8b599" d="M 681.334 200.266C 680.978 200.622 681.822 200.578 681.866 200.534C 682.222 200.178 681.378 200.222 681.334 200.266z"/>
<path style="stroke:none; fill:#fbd2c3" d="M 141.334 201.066C 140.978 201.422 141.822 201.378 141.866 201.334C 142.222 200.978 141.378 201.022 141.334 201.066z"/>
<path style="stroke:none; fill:#f9c7b5" d="M 169.6 200.8L 170.4 201.6L 169.6 200.8z"/>
<path style="stroke:none; fill:#f9b9a3" d="M 563.2 200.8L 564 201.6L 563.2 200.8z"/>
<path style="stroke:none; fill:#fbd2c3" d="M 621.6 200.8L 622.4 201.6L 621.6 200.8z"/>
<path style="stroke:none; fill:#f8b599" d="M 678.934 201.066C 678.578 201.422 679.422 201.378 679.466 201.334C 679.822 200.978 678.978 201.022 678.934 201.066z"/>
<path style="stroke:none; fill:#f9b9a3" d="M 796.534 201.066C 796.178 201.422 797.022 201.378 797.066 201.334C 797.422 200.978 796.578 201.022 796.534 201.066z"/>
<path style="stroke:none; fill:#f79181" d="M 852 200.8L 852.8 201.6L 852 200.8z"/>
<path style="stroke:none; fill:#fbd2c3" d="M 143.734 201.866C 143.378 202.222 144.222 202.178 144.266 202.134C 144.622 201.778 143.778 201.822 143.734 201.866z"/>
<path style="stroke:none; fill:#f9c7b5" d="M 166.934 201.866C 166.578 202.222 167.422 202.178 167.466 202.134C 167.822 201.778 166.978 201.822 166.934 201.866z"/>
<path style="stroke:none; fill:#fbd2c3" d="M 277.6 201.6L 278.4 202.4L 277.6 201.6z"/>
<path style="stroke:none; fill:#f9b9a3" d="M 623.2 201.6L 624 202.4L 623.2 201.6z"/>
<path style="stroke:none; fill:#f8b599" d="M 676.534 201.866C 676.178 202.222 677.022 202.178 677.066 202.134C 677.422 201.778 676.578 201.822 676.534 201.866z"/>
<path style="stroke:none; fill:#f9b9a3" d="M 740 201.6L 740.8 202.4L 740 201.6z"/>
<path style="stroke:none; fill:#fbd2c3" d="M 146.4 202.4L 146.4 203.2L 148.8 203.2C 147.802 202.652 147.562 202.601 146.4 202.4z"/>
<path style="stroke:none; fill:#fbdfd3" d="M 162.4 202.4L 162.4 203.2L 164.8 203.2C 163.802 202.652 163.562 202.601 162.4 202.4z"/>
<path style="stroke:none; fill:#f9b9a3" d="M 564 202.4L 564.8 203.2L 564 202.4z"/>
<path style="stroke:none; fill:#f8b599" d="M 624.8 202.4L 625.6 203.2L 624.8 202.4M 673.334 202.666C 672.978 203.022 673.822 202.978 673.866 202.934C 674.222 202.578 673.378 202.622 673.334 202.666z"/>
<path style="stroke:none; fill:#fbd2c3" d="M 74.4 203.2L 75.2 204L 74.4 203.2z"/>
<path style="stroke:none; fill:#f8ac8d" d="M 150.934 203.466C 150.578 203.822 151.422 203.778 151.466 203.734C 151.822 203.378 150.978 203.422 150.934 203.466z"/>
<path style="stroke:none; fill:#f9c7b5" d="M 152 203.2L 152 204L 159.2 204C 156.888 203.03 154.501 203.202 152 203.2z"/>
<path style="stroke:none; fill:#f8ac8d" d="M 159.734 203.466C 159.378 203.822 160.222 203.778 160.266 203.734C 160.622 203.378 159.778 203.422 159.734 203.466z"/>
<path style="stroke:none; fill:#fbd2c3" d="M 320.8 203.2L 321.6 204L 320.8 203.2z"/>
<path style="stroke:none; fill:#f9c7b5" d="M 370.4 203.2L 370.4 207.2L 371.2 207.2C 371.13 205.629 371.023 204.615 370.4 203.2z"/>
<path style="stroke:none; fill:#f8b599" d="M 627.2 203.2L 628 204L 627.2 203.2M 670.134 203.466C 669.778 203.822 670.622 203.778 670.666 203.734C 671.022 203.378 670.178 203.422 670.134 203.466z"/>
<path style="stroke:none; fill:#f79181" d="M 853.6 203.2L 854.4 204L 853.6 203.2z"/>
<path style="stroke:none; fill:#f9b9a3" d="M 564.8 204L 565.6 204.8L 564.8 204z"/>
<path style="stroke:none; fill:#fbd2c3" d="M 630.134 204.266C 629.778 204.622 630.622 204.578 630.666 204.534C 631.022 204.178 630.178 204.222 630.134 204.266M 664.8 204L 664.8 204.8L 667.2 204.8C 666.202 204.252 665.962 204.201 664.8 204z"/>
<path style="stroke:none; fill:#f9b9a3" d="M 738.4 204L 739.2 204.8L 738.4 204M 793.6 204L 794.4 204.8L 793.6 204z"/>
<path style="stroke:none; fill:#f79181" d="M 799.2 204L 800 204.8L 799.2 204z"/>
<path style="stroke:none; fill:#f9c7b5" d="M 75.2 204.8L 76 205.6L 75.2 204.8z"/>
<path style="stroke:none; fill:#fbd2c3" d="M 632.8 204.8L 632.8 205.6L 635.2 205.6C 634.202 205.052 633.961 205.001 632.8 204.8z"/>
<path style="stroke:none; fill:#fbdfd3" d="M 659.734 205.066C 659.378 205.422 660.222 205.378 660.266 205.334C 660.622 204.978 659.778 205.022 659.734 205.066z"/>
<path style="stroke:none; fill:#f9b9a3" d="M 661.334 205.066C 660.978 205.422 661.822 205.378 661.866 205.334C 662.222 204.978 661.378 205.022 661.334 205.066z"/>
<path style="stroke:none; fill:#fbdfd3" d="M 287.734 205.866C 287.378 206.222 288.222 206.178 288.266 206.134C 288.622 205.778 287.778 205.822 287.734 205.866z"/>
<path style="stroke:none; fill:#f9c7b5" d="M 318.4 205.6L 319.2 206.4L 318.4 205.6z"/>
<path style="stroke:none; fill:#fbd2c3" d="M 565.6 205.6L 566.4 206.4L 565.6 205.6z"/>
<path style="stroke:none; fill:#f7956f" d="M 636.534 205.866C 636.178 206.222 637.022 206.178 637.066 206.134C 637.422 205.778 636.578 205.822 636.534 205.866z"/>
<path style="stroke:none; fill:#f9b9a3" d="M 638.134 205.866C 637.778 206.222 638.622 206.178 638.666 206.134C 639.022 205.778 638.178 205.822 638.134 205.866z"/>
<path style="stroke:none; fill:#fbdfd3" d="M 639.2 205.6L 639.2 206.4L 642.4 206.4C 641.195 205.854 640.548 205.739 639.2 205.6M 649.6 205.6L 649.6 206.4L 653.6 206.4C 652.185 205.777 651.171 205.67 649.6 205.6z"/>
<path style="stroke:none; fill:#f9b9a3" d="M 653.6 205.6L 653.6 206.4L 656 206.4C 655.002 205.852 654.761 205.801 653.6 205.6z"/>
<path style="stroke:none; fill:#f7956f" d="M 656.534 205.866C 656.178 206.222 657.022 206.178 657.066 206.134C 657.422 205.778 656.578 205.822 656.534 205.866z"/>
<path style="stroke:none; fill:#f79181" d="M 855.2 205.6L 856 206.4L 855.2 205.6z"/>
<path style="stroke:none; fill:#f9c7b5" d="M 76 206.4L 76.8 207.2L 76 206.4z"/>
<path style="stroke:none; fill:#fbd2c3" d="M 290.134 206.666C 289.778 207.022 290.622 206.978 290.666 206.934C 291.022 206.578 290.178 206.622 290.134 206.666z"/>
<path style="stroke:none; fill:#f9b9a3" d="M 736.8 206.4L 737.6 207.2L 736.8 206.4M 792 206.4L 792.8 207.2L 792 206.4z"/>
<path style="stroke:none; fill:#f79181" d="M 800.8 206.4L 801.6 207.2L 800.8 206.4z"/>
<path style="stroke:none; fill:#fbdfd3" d="M 293.334 207.466C 292.978 207.822 293.822 207.778 293.866 207.734C 294.222 207.378 293.378 207.422 293.334 207.466z"/>
<path style="stroke:none; fill:#fbd2c3" d="M 76.8 208L 77.6 208.8L 76.8 208z"/>
<path style="stroke:none; fill:#f8b599" d="M 295.734 208.266C 295.378 208.622 296.222 208.578 296.266 208.534C 296.622 208.178 295.778 208.222 295.734 208.266z"/>
<path style="stroke:none; fill:#fbdfd3" d="M 297.334 208.266C 296.978 208.622 297.822 208.578 297.866 208.534C 298.222 208.178 297.378 208.222 297.334 208.266z"/>
<path style="stroke:none; fill:#f9c7b5" d="M 313.334 208.266C 312.978 208.622 313.822 208.578 313.866 208.534C 314.222 208.178 313.378 208.222 313.334 208.266z"/>
<path style="stroke:none; fill:#f79181" d="M 856.8 208L 857.6 208.8L 856.8 208z"/>
<path style="stroke:none; fill:#f9c7b5" d="M 300 208.8L 300 209.6L 303.2 209.6C 301.995 209.054 301.348 208.939 300 208.8z"/>
<path style="stroke:none; fill:#fbdfd3" d="M 303.2 208.8L 303.2 209.6L 310.4 209.6C 308.088 208.63 305.701 208.802 303.2 208.8z"/>
<path style="stroke:none; fill:#f8ac8d" d="M 310.934 209.066C 310.578 209.422 311.422 209.378 311.466 209.334C 311.822 208.978 310.978 209.022 310.934 209.066z"/>
<path style="stroke:none; fill:#fbd2c3" d="M 369.6 208.8L 369.6 211.2L 370.4 211.2C 370.199 210.038 370.148 209.798 369.6 208.8M 735.2 208.8L 736 209.6L 735.2 208.8z"/>
<path style="stroke:none; fill:#f9b9a3" d="M 790.4 208.8L 791.2 209.6L 790.4 208.8M 802.4 208.8L 803.2 209.6L 802.4 208.8M 568 209.6L 568.8 210.4L 568 209.6M 858.4 210.4L 859.2 211.2L 858.4 210.4M 733.6 211.2L 734.4 212L 733.6 211.2M 804 211.2L 804.8 212L 804 211.2z"/>
<path style="stroke:none; fill:#f9c7b5" d="M 79.2 212L 80 212.8L 79.2 212z"/>
<path style="stroke:none; fill:#fbd2c3" d="M 369.066 212.534C 369.022 212.578 368.978 213.422 369.334 213.066C 369.378 213.022 369.422 212.178 369.066 212.534z"/>
<path style="stroke:none; fill:#f9b9a3" d="M 569.6 212L 570.4 212.8L 569.6 212z"/>
<path style="stroke:none; fill:#f79181" d="M 804.8 212L 805.6 212.8L 804.8 212z"/>
<path style="stroke:none; fill:#f9b9a3" d="M 860 212.8L 860.8 213.6L 860 212.8M 732 213.6L 732.8 214.4L 732 213.6z"/>
<path style="stroke:none; fill:#fbd2c3" d="M 805.6 213.6L 806.4 214.4L 805.6 213.6z"/>
<path style="stroke:none; fill:#f9c7b5" d="M 80.8 214.4L 81.6 215.2L 80.8 214.4z"/>
<path style="stroke:none; fill:#fbd2c3" d="M 368.266 214.934C 368.222 214.978 368.178 215.822 368.534 215.466C 368.578 215.422 368.622 214.578 368.266 214.934M 571.2 214.4L 572 215.2L 571.2 214.4z"/>
<path style="stroke:none; fill:#f9b9a3" d="M 786.4 214.4L 787.2 215.2L 786.4 214.4z"/>
<path style="stroke:none; fill:#f79181" d="M 806.4 214.4L 807.2 215.2L 806.4 214.4z"/>
<path style="stroke:none; fill:#f8b599" d="M 572 215.2L 572.8 216L 572 215.2z"/>
<path style="stroke:none; fill:#f9b9a3" d="M 861.6 215.2L 862.4 216L 861.6 215.2z"/>
<path style="stroke:none; fill:#fbd2c3" d="M 730.4 216L 731.2 216.8L 730.4 216z"/>
<path style="stroke:none; fill:#f9c7b5" d="M 82.4 216.8L 83.2 217.6L 82.4 216.8z"/>
<path style="stroke:none; fill:#f9b9a3" d="M 784.8 216.8L 785.6 217.6L 784.8 216.8M 808 216.8L 808.8 217.6L 808 216.8M 863.2 217.6L 864 218.4L 863.2 217.6z"/>
<path style="stroke:none; fill:#fbd2c3" d="M 574.4 218.4L 575.2 219.2L 574.4 218.4M 84 219.2L 84.8 220L 84 219.2z"/>
<path style="stroke:none; fill:#f8b599" d="M 575.2 219.2L 576 220L 575.2 219.2z"/>
<path style="stroke:none; fill:#fbd2c3" d="M 783.2 219.2L 784 220L 783.2 219.2z"/>
<path style="stroke:none; fill:#f9b9a3" d="M 809.6 219.2L 810.4 220L 809.6 219.2z"/>
<path style="stroke:none; fill:#f9c7b5" d="M 84.8 220L 85.6 220.8L 84.8 220z"/>
<path style="stroke:none; fill:#f8b599" d="M 576 220L 576.8 220.8L 576 220z"/>
<path style="stroke:none; fill:#f79181" d="M 810.4 220L 811.2 220.8L 810.4 220z"/>
<path style="stroke:none; fill:#f9b9a3" d="M 864.8 220L 865.6 220.8L 864.8 220z"/>
<path style="stroke:none; fill:#fbd2c3" d="M 727.2 220.8L 728 221.6L 727.2 220.8z"/>
<path style="stroke:none; fill:#f9b9a3" d="M 780.8 222.4L 781.6 223.2L 780.8 222.4z"/>
<path style="stroke:none; fill:#f79181" d="M 812 222.4L 812.8 223.2L 812 222.4z"/>
<path style="stroke:none; fill:#f9b9a3" d="M 866.4 222.4L 867.2 223.2L 866.4 222.4z"/>
<path style="stroke:none; fill:#f9c7b5" d="M 364 223.2L 364.8 224L 364 223.2z"/>
<path style="stroke:none; fill:#fbd2c3" d="M 88 224L 88.8 224.8L 88 224M 88.8 224.8L 89.6 225.6L 88.8 224.8z"/>
<path style="stroke:none; fill:#fbdfd3" d="M 196.8 224.8L 196.8 245.6L 197.6 245.6C 197.6 239.391 199.206 230.535 196.8 224.8z"/>
<path style="stroke:none; fill:#fbd2c3" d="M 363.2 224.8L 364 225.6L 363.2 224.8z"/>
<path style="stroke:none; fill:#f8b599" d="M 724.8 224.8L 725.6 225.6L 724.8 224.8z"/>
<path style="stroke:none; fill:#f9b9a3" d="M 779.2 224.8L 780 225.6L 779.2 224.8z"/>
<path style="stroke:none; fill:#f79181" d="M 813.6 224.8L 814.4 225.6L 813.6 224.8z"/>
<path style="stroke:none; fill:#f9b9a3" d="M 868 224.8L 868.8 225.6L 868 224.8z"/>
<path style="stroke:none; fill:#fbd2c3" d="M 89.6 225.6L 90.4 226.4L 89.6 225.6M 90.4 226.4L 91.2 227.2L 90.4 226.4z"/>
<path style="stroke:none; fill:#f8b599" d="M 582.4 226.4L 583.2 227.2L 582.4 226.4z"/>
<path style="stroke:none; fill:#f79181" d="M 868.8 226.4L 869.6 227.2L 868.8 226.4z"/>
<path style="stroke:none; fill:#fbd2c3" d="M 91.2 227.2L 92 228L 91.2 227.2M 194.4 227.2L 195.2 228L 194.4 227.2z"/>
<path style="stroke:none; fill:#f8b599" d="M 583.2 227.2L 584 228L 583.2 227.2z"/>
<path style="stroke:none; fill:#f9b9a3" d="M 723.2 227.2L 724 228L 723.2 227.2z"/>
<path style="stroke:none; fill:#fbd2c3" d="M 777.6 227.2L 778.4 228L 777.6 227.2z"/>
<path style="stroke:none; fill:#f9b9a3" d="M 815.2 227.2L 816 228L 815.2 227.2M 869.6 227.2L 870.4 228L 869.6 227.2z"/>
<path style="stroke:none; fill:#fbd2c3" d="M 92 228L 92.8 228.8L 92 228M 193.6 228L 194.4 228.8L 193.6 228M 360.8 228L 361.6 228.8L 360.8 228M 584 228L 584.8 228.8L 584 228z"/>
<path style="stroke:none; fill:#f79181" d="M 816 228L 816.8 228.8L 816 228z"/>
<path style="stroke:none; fill:#fbd2c3" d="M 92.8 228.8L 93.6 229.6L 92.8 228.8z"/>
<path style="stroke:none; fill:#f9c7b5" d="M 192.8 228.8L 193.6 229.6L 192.8 228.8z"/>
<path style="stroke:none; fill:#f79181" d="M 870.4 228.8L 871.2 229.6L 870.4 228.8z"/>
<path style="stroke:none; fill:#fbd2c3" d="M 93.6 229.6L 94.4 230.4L 93.6 229.6z"/>
<path style="stroke:none; fill:#f8b599" d="M 721.6 229.6L 722.4 230.4L 721.6 229.6z"/>
<path style="stroke:none; fill:#f9b9a3" d="M 816.8 229.6L 817.6 230.4L 816.8 229.6M 871.2 229.6L 872 230.4L 871.2 229.6z"/>
<path style="stroke:none; fill:#f8b599" d="M 587.2 230.4L 588 231.2L 587.2 230.4M 775.2 230.4L 776 231.2L 775.2 230.4z"/>
<path style="stroke:none; fill:#f79181" d="M 817.6 230.4L 818.4 231.2L 817.6 230.4z"/>
<path style="stroke:none; fill:#fbd2c3" d="M 588 231.2L 588.8 232L 588 231.2z"/>
<path style="stroke:none; fill:#f79181" d="M 872 231.2L 872.8 232L 872 231.2z"/>
<path style="stroke:none; fill:#f9c7b5" d="M 189.6 232L 190.4 232.8L 189.6 232z"/>
<path style="stroke:none; fill:#f9b9a3" d="M 720 232L 720.8 232.8L 720 232z"/>
<path style="stroke:none; fill:#fbd2c3" d="M 818.4 232L 819.2 232.8L 818.4 232z"/>
<path style="stroke:none; fill:#f9b9a3" d="M 872.8 232L 873.6 232.8L 872.8 232z"/>
<path style="stroke:none; fill:#f9c7b5" d="M 97.6 232.8L 98.4 233.6L 97.6 232.8z"/>
<path style="stroke:none; fill:#fbd2c3" d="M 188.8 232.8L 189.6 233.6L 188.8 232.8z"/>
<path style="stroke:none; fill:#f9b9a3" d="M 590.4 232.8L 591.2 233.6L 590.4 232.8M 773.6 232.8L 774.4 233.6L 773.6 232.8z"/>
<path style="stroke:none; fill:#f79181" d="M 819.2 232.8L 820 233.6L 819.2 232.8z"/>
<path style="stroke:none; fill:#fbd2c3" d="M 188 233.6L 188.8 234.4L 188 233.6z"/>
<path style="stroke:none; fill:#f79181" d="M 873.6 233.6L 874.4 234.4L 873.6 233.6z"/>
<path style="stroke:none; fill:#f9b9a3" d="M 592.8 234.4L 593.6 235.2L 592.8 234.4M 718.4 234.4L 719.2 235.2L 718.4 234.4z"/>
<path style="stroke:none; fill:#f9c7b5" d="M 100.8 235.2L 101.6 236L 100.8 235.2z"/>
<path style="stroke:none; fill:#f9b9a3" d="M 820.8 235.2L 821.6 236L 820.8 235.2z"/>
<path style="stroke:none; fill:#f9c7b5" d="M 184.8 236L 185.6 236.8L 184.8 236z"/>
<path style="stroke:none; fill:#f79181" d="M 875.2 236L 876 236.8L 875.2 236z"/>
<path style="stroke:none; fill:#f9c7b5" d="M 103.2 236.8L 104 237.6L 103.2 236.8z"/>
<path style="stroke:none; fill:#fbd2c3" d="M 596.8 236.8L 597.6 237.6L 596.8 236.8z"/>
<path style="stroke:none; fill:#f8b599" d="M 697.6 236.8L 698.4 237.6L 697.6 236.8z"/>
<path style="stroke:none; fill:#f9b9a3" d="M 716.8 236.8L 717.6 237.6L 716.8 236.8z"/>
<path style="stroke:none; fill:#f9c7b5" d="M 350.4 237.6L 351.2 238.4L 350.4 237.6z"/>
<path style="stroke:none; fill:#f9b9a3" d="M 598.4 237.6L 599.2 238.4L 598.4 237.6M 696 237.6L 696.8 238.4L 696 237.6M 822.4 237.6L 823.2 238.4L 822.4 237.6z"/>
<path style="stroke:none; fill:#fbd2c3" d="M 181.6 238.4L 182.4 239.2L 181.6 238.4z"/>
<path style="stroke:none; fill:#f9b9a3" d="M 600 238.4L 600.8 239.2L 600 238.4z"/>
<path style="stroke:none; fill:#fbd2c3" d="M 694.4 238.4L 695.2 239.2L 694.4 238.4z"/>
<path style="stroke:none; fill:#f79181" d="M 823.2 238.4L 824 239.2L 823.2 238.4M 876.8 238.4L 877.6 239.2L 876.8 238.4z"/>
<path style="stroke:none; fill:#f9c7b5" d="M 107.2 239.2L 108 240L 107.2 239.2M 348 239.2L 348.8 240L 348 239.2z"/>
<path style="stroke:none; fill:#f9b9a3" d="M 601.6 239.2L 602.4 240L 601.6 239.2M 692 239.2L 692.8 240L 692 239.2M 715.2 239.2L 716 240L 715.2 239.2z"/>
<path style="stroke:none; fill:#fbd2c3" d="M 603.2 240L 604 240.8L 603.2 240z"/>
<path style="stroke:none; fill:#f8b599" d="M 689.6 240L 690.4 240.8L 689.6 240z"/>
<path style="stroke:none; fill:#fbd2c3" d="M 824 240L 824.8 240.8L 824 240M 177.6 240.8L 178.4 241.6L 177.6 240.8z"/>
<path style="stroke:none; fill:#f8b599" d="M 687.2 240.8L 688 241.6L 687.2 240.8z"/>
<path style="stroke:none; fill:#f9b9a3" d="M 768 240.8L 768.8 241.6L 768 240.8z"/>
<path style="stroke:none; fill:#f79181" d="M 824.8 240.8L 825.6 241.6L 824.8 240.8M 878.4 240.8L 879.2 241.6L 878.4 240.8z"/>
<path style="stroke:none; fill:#f9c7b5" d="M 112 241.6L 112.8 242.4L 112 241.6M 176 241.6L 176.8 242.4L 176 241.6z"/>
<path style="stroke:none; fill:#fbd2c3" d="M 268 241.6L 268.8 242.4L 268 241.6z"/>
<path style="stroke:none; fill:#f9b9a3" d="M 607.2 241.6L 608 242.4L 607.2 241.6z"/>
<path style="stroke:none; fill:#fbd2c3" d="M 685.334 241.866C 684.978 242.222 685.822 242.178 685.866 242.134C 686.222 241.778 685.378 241.822 685.334 241.866z"/>
<path style="stroke:none; fill:#f9b9a3" d="M 713.6 241.6L 714.4 242.4L 713.6 241.6z"/>
<path style="stroke:none; fill:#fbd2c3" d="M 113.6 242.4L 114.4 243.2L 113.6 242.4z"/>
<path style="stroke:none; fill:#f9c7b5" d="M 174.4 242.4L 175.2 243.2L 174.4 242.4M 270.4 242.4L 271.2 243.2L 270.4 242.4z"/>
<path style="stroke:none; fill:#f8b599" d="M 609.6 242.4L 610.4 243.2L 609.6 242.4z"/>
<path style="stroke:none; fill:#f9b9a3" d="M 682.134 242.666C 681.778 243.022 682.622 242.978 682.666 242.934C 683.022 242.578 682.178 242.622 682.134 242.666z"/>
<path style="stroke:none; fill:#f8b599" d="M 612 243.2L 612.8 244L 612 243.2z"/>
<path style="stroke:none; fill:#fbdfd3" d="M 679.734 243.466C 679.378 243.822 680.222 243.778 680.266 243.734C 680.622 243.378 679.778 243.422 679.734 243.466z"/>
<path style="stroke:none; fill:#f9b9a3" d="M 766.4 243.2L 767.2 244L 766.4 243.2z"/>
<path style="stroke:none; fill:#f79181" d="M 826.4 243.2L 827.2 244L 826.4 243.2z"/>
<path style="stroke:none; fill:#f9b9a3" d="M 880 243.2C 864.672 247.73 843.216 244 827.2 244L 827.2 244.8L 868 244.8C 870.136 244.8 881.032 245.692 880 243.2z"/>
<path style="stroke:none; fill:#f8ac8d" d="M 118.134 244.266C 117.778 244.622 118.622 244.578 118.666 244.534C 119.022 244.178 118.178 244.222 118.134 244.266z"/>
<path style="stroke:none; fill:#f8b599" d="M 275.734 244.266C 275.378 244.622 276.222 244.578 276.266 244.534C 276.622 244.178 275.778 244.222 275.734 244.266z"/>
<path style="stroke:none; fill:#fbd2c3" d="M 338.134 244.266C 337.778 244.622 338.622 244.578 338.666 244.534C 339.022 244.178 338.178 244.222 338.134 244.266z"/>
<path style="stroke:none; fill:#f9b9a3" d="M 391.2 244L 391.2 244.8L 436.8 244.8C 432.627 243.049 426.895 244 422.4 244L 391.2 244M 494.4 244L 494.4 244.8L 540.8 244.8C 536.43 242.966 530.31 244 525.6 244L 494.4 244M 614.134 244.266C 613.778 244.622 614.622 244.578 614.666 244.534C 615.022 244.178 614.178 244.222 614.134 244.266z"/>
<path style="stroke:none; fill:#fbdfd3" d="M 676.534 244.266C 676.178 244.622 677.022 244.578 677.066 244.534C 677.422 244.178 676.578 244.222 676.534 244.266z"/>
<path style="stroke:none; fill:#f9b9a3" d="M 712.8 244L 712.8 244.8L 766.4 244.8C 761.639 242.802 754.736 244 749.6 244L 712.8 244M 914.4 244L 914.4 244.8L 960 244.8C 955.824 243.049 950.096 244 945.6 244L 914.4 244z"/>
<path style="stroke:none; fill:#f8ac8d" d="M 120.534 245.066C 120.178 245.422 121.022 245.378 121.066 245.334C 121.422 244.978 120.578 245.022 120.534 245.066z"/>
<path style="stroke:none; fill:#f9b9a3" d="M 168.534 245.066C 168.178 245.422 169.022 245.378 169.066 245.334C 169.422 244.978 168.578 245.022 168.534 245.066z"/>
<path style="stroke:none; fill:#f8ac8d" d="M 197.6 244.8L 197.6 245.6L 243.2 245.6C 239.027 243.849 233.295 244.8 228.8 244.8L 197.6 244.8z"/>
<path style="stroke:none; fill:#f9c7b5" d="M 278.134 245.066C 277.778 245.422 278.622 245.378 278.666 245.334C 279.022 244.978 278.178 245.022 278.134 245.066z"/>
<path style="stroke:none; fill:#fbd2c3" d="M 335.734 245.066C 335.378 245.422 336.222 245.378 336.266 245.334C 336.622 244.978 335.778 245.022 335.734 245.066z"/>
<path style="stroke:none; fill:#f8b599" d="M 617.334 245.066C 616.978 245.422 617.822 245.378 617.866 245.334C 618.222 244.978 617.378 245.022 617.334 245.066z"/>
<path style="stroke:none; fill:#fbd2c3" d="M 672.534 245.066C 672.178 245.422 673.022 245.378 673.066 245.334C 673.422 244.978 672.578 245.022 672.534 245.066z"/>
<path style="stroke:none; fill:#f8b599" d="M 122.934 245.866C 122.578 246.222 123.422 246.178 123.466 246.134C 123.822 245.778 122.978 245.822 122.934 245.866z"/>
<path style="stroke:none; fill:#f8ac8d" d="M 282.134 245.866C 281.778 246.222 282.622 246.178 282.666 246.134C 283.022 245.778 282.178 245.822 282.134 245.866z"/>
<path style="stroke:none; fill:#fbd2c3" d="M 333.334 245.866C 332.978 246.222 333.822 246.178 333.866 246.134C 334.222 245.778 333.378 245.822 333.334 245.866z"/>
<path style="stroke:none; fill:#f9b9a3" d="M 620.534 245.866C 620.178 246.222 621.022 246.178 621.066 246.134C 621.422 245.778 620.578 245.822 620.534 245.866M 667.734 245.866C 667.378 246.222 668.222 246.178 668.266 246.134C 668.622 245.778 667.778 245.822 667.734 245.866z"/>
<path style="stroke:none; fill:#f9c7b5" d="M 125.334 246.666C 124.978 247.022 125.822 246.978 125.866 246.934C 126.222 246.578 125.378 246.622 125.334 246.666z"/>
<path style="stroke:none; fill:#fbd2c3" d="M 163.734 246.666C 163.378 247.022 164.222 246.978 164.266 246.934C 164.622 246.578 163.778 246.622 163.734 246.666z"/>
<path style="stroke:none; fill:#f8b599" d="M 284.8 246.4L 284.8 247.2L 287.2 247.2C 286.202 246.652 285.962 246.601 284.8 246.4z"/>
<path style="stroke:none; fill:#f9c7b5" d="M 330.134 246.666C 329.778 247.022 330.622 246.978 330.666 246.934C 331.022 246.578 330.178 246.622 330.134 246.666z"/>
<path style="stroke:none; fill:#f9b9a3" d="M 624.534 246.666C 624.178 247.022 625.022 246.978 625.066 246.934C 625.422 246.578 624.578 246.622 624.534 246.666z"/>
<path style="stroke:none; fill:#f7956f" d="M 626.134 246.666C 625.778 247.022 626.622 246.978 626.666 246.934C 627.022 246.578 626.178 246.622 626.134 246.666z"/>
<path style="stroke:none; fill:#f79181" d="M 661.334 246.666C 660.978 247.022 661.822 246.978 661.866 246.934C 662.222 246.578 661.378 246.622 661.334 246.666z"/>
<path style="stroke:none; fill:#fbd2c3" d="M 662.4 246.4L 662.4 247.2L 664.8 247.2C 663.801 246.652 663.562 246.601 662.4 246.4z"/>
<path style="stroke:none; fill:#f9c7b5" d="M 128.534 247.466C 128.178 247.822 129.022 247.778 129.066 247.734C 129.422 247.378 128.578 247.422 128.534 247.466z"/>
<path style="stroke:none; fill:#f8ac8d" d="M 130.134 247.466C 129.778 247.822 130.622 247.778 130.666 247.734C 131.022 247.378 130.178 247.422 130.134 247.466z"/>
<path style="stroke:none; fill:#f8b599" d="M 159.734 247.466C 159.378 247.822 160.222 247.778 160.266 247.734C 160.622 247.378 159.778 247.422 159.734 247.466z"/>
<path style="stroke:none; fill:#fbdfd3" d="M 288.534 247.466C 288.178 247.822 289.022 247.778 289.066 247.734C 289.422 247.378 288.578 247.422 288.534 247.466z"/>
<path style="stroke:none; fill:#f8b599" d="M 289.6 247.2L 289.6 248L 292 248C 291.002 247.452 290.762 247.401 289.6 247.2z"/>
<path style="stroke:none; fill:#fbdfd3" d="M 326.4 247.2L 326.4 248L 328.8 248C 327.802 247.452 327.562 247.401 326.4 247.2M 628 247.2L 628 248L 630.4 248C 629.401 247.452 629.162 247.401 628 247.2z"/>
<path style="stroke:none; fill:#f9b9a3" d="M 630.934 247.466C 630.578 247.822 631.422 247.778 631.466 247.734C 631.822 247.378 630.978 247.422 630.934 247.466z"/>
<path style="stroke:none; fill:#f7956f" d="M 632 247.2L 632 248L 634.4 248C 633.402 247.452 633.162 247.401 632 247.2M 651.2 247.2L 651.2 248L 654.4 248C 653.195 247.454 652.548 247.339 651.2 247.2z"/>
<path style="stroke:none; fill:#f9b9a3" d="M 654.4 247.2L 654.4 248L 656.8 248C 655.802 247.452 655.562 247.401 654.4 247.2z"/>
<path style="stroke:none; fill:#fbdfd3" d="M 657.334 247.466C 656.978 247.822 657.822 247.778 657.866 247.734C 658.222 247.378 657.378 247.422 657.334 247.466M 132.534 248.266C 132.178 248.622 133.022 248.578 133.066 248.534C 133.422 248.178 132.578 248.222 132.534 248.266z"/>
<path style="stroke:none; fill:#f8b599" d="M 133.6 248L 133.6 248.8L 136.8 248.8C 135.595 248.254 134.948 248.139 133.6 248M 154.4 248L 154.4 248.8L 156.8 248.8C 155.802 248.252 155.562 248.201 154.4 248z"/>
<path style="stroke:none; fill:#f9c7b5" d="M 293.6 248L 293.6 248.8L 296.8 248.8C 295.595 248.254 294.948 248.139 293.6 248z"/>
<path style="stroke:none; fill:#f8ac8d" d="M 296.8 248L 296.8 248.8L 299.2 248.8C 298.202 248.252 297.962 248.201 296.8 248M 319.2 248L 319.2 248.8L 321.6 248.8C 320.602 248.252 320.362 248.201 319.2 248z"/>
<path style="stroke:none; fill:#fbdfd3" d="M 321.6 248L 321.6 248.8L 324 248.8C 323.002 248.252 322.762 248.201 321.6 248M 637.6 248L 637.6 248.8L 646.4 248.8C 643.654 247.648 640.56 248 637.6 248M 138.4 248.8L 138.4 249.6L 142.4 249.6C 140.985 248.977 139.971 248.87 138.4 248.8z"/>
<path style="stroke:none; fill:#f9c7b5" d="M 142.4 248.8L 142.4 249.6L 152 249.6C 149.042 248.358 145.586 248.8 142.4 248.8z"/>
<path style="stroke:none; fill:#fbdfd3" d="M 301.6 248.8L 301.6 249.6L 305.6 249.6C 304.185 248.977 303.171 248.87 301.6 248.8z"/>
<path style="stroke:none; fill:#f9c7b5" d="M 305.6 248.8L 305.6 249.6L 313.6 249.6C 311.07 248.538 308.331 248.8 305.6 248.8z"/>
<path style="stroke:none; fill:#fbdfd3" d="M 313.6 248.8L 313.6 249.6L 316.8 249.6C 315.595 249.054 314.948 248.939 313.6 248.8z"/>
</g>
</svg>