<svg width="596" height="596" viewBox="0 0 596 596" fill="none" xmlns="http://www.w3.org/2000/svg">
<g clip-path="url(#clip0_57_9)">
<path d="M584.9 375.9C585.4 373.9 586 371.9 586.5 369.9L584.9 375.9Z" fill="white"/>
<path fill-rule="evenodd" clip-rule="evenodd" d="M116.257 136.454C117.695 138.337 222.48 297.68 222.48 297.982C222.48 298.196 199.071 333.88 170.459 377.28C141.848 420.681 117.885 457.048 117.208 458.095L115.978 460H167.455H218.931L239.606 430.339C250.978 414.026 276.275 377.739 295.823 349.702C315.371 321.665 331.382 298.532 331.403 298.296C331.424 298.06 306.125 261.446 275.185 216.933L218.928 136H167.42C126.271 136 115.981 136.091 116.257 136.454ZM263.607 136.454C263.907 136.956 274.512 153.058 305.127 199.494C316.375 216.556 327.891 234.025 330.716 238.316C349.23 266.428 354.89 275.013 361.931 285.664C366.284 292.249 369.844 297.8 369.841 298C369.839 298.2 345.997 334.527 316.859 378.728C287.72 422.929 263.757 459.297 263.608 459.546C263.39 459.909 273.725 459.998 314.812 459.992L366.289 459.983L373.039 450.286C384.077 434.429 451.368 337.888 470.006 311.168L479.043 298.213L422.665 217.113L366.289 136.014L314.812 136.007C273.727 136.001 263.39 136.091 263.607 136.454Z" fill="url(#paint0_linear_57_9)"/>
<path fill-rule="evenodd" clip-rule="evenodd" d="M265.127 138.629C269.352 144.9 370.1 297.859 370.1 298.002C370.1 298.146 364.345 306.912 347.712 332.105C344.418 337.094 337.26 347.952 331.805 356.233C321.97 371.164 319.05 375.593 303.101 399.772C293.459 414.388 287.086 424.066 282.434 431.156C280.6 433.95 275.569 441.583 271.254 448.119L263.407 460.003L314.809 459.911L366.212 459.819L378.612 442.04C385.432 432.262 403.815 405.894 419.463 383.445C435.111 360.995 454.827 332.712 463.276 320.594C471.724 308.476 478.637 298.397 478.637 298.196C478.637 297.996 472.076 288.4 464.058 276.873C456.039 265.345 448.006 253.79 446.205 251.196C444.404 248.602 430.27 228.275 414.795 206.025C399.321 183.775 383.146 160.509 378.851 154.323C374.556 148.136 369.955 141.524 368.628 139.628L366.214 136.182L314.784 136.09L263.354 135.998L265.127 138.629Z" fill="url(#paint1_linear_57_9)"/>
</g>
<defs>
<linearGradient id="paint0_linear_57_9" x1="297.51" y1="136" x2="297.51" y2="460" gradientUnits="userSpaceOnUse">
<stop stop-color="#F7936A"/>
<stop offset="1" stop-color="#F57B48"/>
</linearGradient>
<linearGradient id="paint1_linear_57_9" x1="370.995" y1="135.998" x2="370.995" y2="460.003" gradientUnits="userSpaceOnUse">
<stop stop-color="#F15051"/>
<stop offset="1" stop-color="#F15051"/>
</linearGradient>
<clipPath id="clip0_57_9">
<rect width="595.3" height="595.3" fill="white"/>
</clipPath>
</defs>
</svg>
