<?xml version="1.0" encoding="utf-8"?>
<!-- Generator: Adobe Illustrator 26.3.1, SVG Export Plug-In . SVG Version: 6.00 Build 0)  -->
<svg version="1.1" id="Layer_1" xmlns="http://www.w3.org/2000/svg" xmlns:xlink="http://www.w3.org/1999/xlink" x="0px" y="0px"
	 viewBox="0 0 595.3 595.3" style="enable-background:new 0 0 595.3 595.3;" xml:space="preserve">
<style type="text/css">
	.st0{fill:#FFFFFF;}
</style>
<path class="st0" d="M297.6,595.3L297.6,595.3C133.3,595.3,0,462,0,297.6v0C0,133.3,133.3,0,297.6,0h0
	C462,0,595.3,133.3,595.3,297.6v0C595.3,462,462,595.3,297.6,595.3z"/>
<g id="_x30_tRpgH_00000125564849749615602280000005649509888688545935_">
	<g>
		<path d="M222.5,261.9c0-16,0.1-31.9-0.1-47.9c0-2.4,0.5-3.3,3-3.1c3.2,0.2,6.5,0.2,9.7,0c2.3-0.1,2.8,0.7,2.8,2.8
			c-0.1,12.9,0,25.8-0.1,38.8c0,2.6,0.8,3.2,3.3,3.2c16.4-0.1,32.9-0.1,49.3,0c2.3,0,2.9-0.7,2.9-3c-0.1-12.9,0-25.8-0.1-38.8
			c0-2.4,0.6-3.3,3.1-3.1c3,0.2,6.1,0.2,9.1,0c2.8-0.2,3.3,0.9,3.3,3.4c-0.1,31.1-0.1,62.2-0.1,93.3c0,5.1,0,5.1-5.1,5.1
			c-2.5,0-5-0.1-7.5,0c-2.4,0.2-2.9-0.8-2.9-3c0.1-13.4,0-26.8,0.1-40.1c0-2.9-0.8-3.5-3.6-3.5c-16.2,0.1-32.5,0.1-48.7,0
			c-2.6,0-3.2,0.8-3.2,3.3c0.1,13.5,0,26.9,0.1,40.4c0,2.3-0.6,3.1-3,2.9c-3.1-0.2-6.3-0.3-9.4,0c-2.7,0.2-3.1-0.9-3.1-3.3
			C222.5,293.7,222.5,277.8,222.5,261.9z"/>
		<path d="M428.7,231.3c-1-1-2-2.1-2.9-3.1c-11.9-13.4-31.8-17-47.5-8.4c-7.2,3.9-12.4,10-15.5,17.5c-7.5,18.2-7.1,36.2,3.3,53.1
			c11.2,18.3,32.1,21.9,48.7,14.4c2.1-1,2.9-2.2,2.9-4.6c-0.1-11.1,0-22.2-0.1-33.2c0-2.7,0.8-3.3,3.3-3.2c3.3,0.2,6.6,0.1,10,0
			c1.6,0,2.3,0.5,2.2,2.2c-0.1,12.6,0,25.3,0,37.9c0,1.1,0,2.1-1.4,2.6c-11.6,4.3-23.2,8.1-35.7,7.8c-14.6-0.3-28-4.1-38.8-14.3
			c-15.3-14.5-19.5-32.4-14-52.2c6.3-22.7,25-36.9,48.8-38.4c12.1-0.8,23.9,1.2,35.7,3.8c0.8,0.2,1.8,0.2,1.8,1.3c0,5.5,0,11,0,16.4
			C429.1,231.1,428.9,231.2,428.7,231.3z"/>
		<path d="M162.2,261.6c0-15.9,0.1-31.7-0.1-47.6c0-2.4,0.6-3.2,3.1-3.1c3.3,0.2,6.6,0.2,10,0c1.9-0.1,2.3,0.7,2.3,2.4
			c-0.1,7.7,0,15.3,0,23c0,24.4,0,48.9,0.1,73.3c0,2.6-0.8,3.3-3.2,3.2c-3.1-0.2-6.3-0.2-9.4,0c-2.3,0.1-2.8-0.7-2.8-2.8
			C162.3,293.9,162.2,277.7,162.2,261.6z"/>
		<path d="M430.6,357.5c3.6,0.1,8.1,0.8,12,3.8c6.8,5.3,7.1,14.4,0.7,20.1c-6.7,6-20.9,6-27.5,0c-7.5-6.8-5.4-18,4.1-22.1
			C423,358,426.2,357.5,430.6,357.5z M430.4,383.1c1-0.1,2.8-0.2,4.5-0.6c5.2-1.2,8.5-4.8,9.1-9.5c0.6-4.6-1.6-8.9-5.9-10.9
			c-5.8-2.7-11.6-2.7-17.3,0.2c-7.3,3.7-7.6,13.7-0.8,18.2C422.9,382.4,426.2,383,430.4,383.1z"/>
		<path d="M106,386c-3.3,0.1-6.4-0.5-9.4-1.8c-5.2-2.3-8.7-5.9-8.9-11.9c-0.3-6.1,2.8-10.3,8.1-12.7c6.7-3.1,13.7-3,20.4,0
			c5.1,2.4,8.2,6.5,8,12.4c-0.2,6.1-3.7,9.8-8.9,12.1C112.3,385.5,109.2,386.1,106,386z M106.5,383.2c1.2-0.2,3.1-0.3,4.8-0.7
			c5.4-1.3,8.7-5.1,9-10.2c0.3-5.3-2.4-9-7.9-11c-4.1-1.4-8.3-1.5-12.5-0.2c-5.3,1.6-8.2,5-8.5,10c-0.3,4.9,2.3,8.6,7.4,10.8
			C101.1,382.8,103.5,382.9,106.5,383.2z"/>
		<path d="M340.6,385.3c-2.3,0.7-4,0.2-5.4-1.6c-1.5-2-3.4-3.6-4.9-5.6c-2.1-2.9-4.5-4.1-8.2-3.8c-4.5,0.4-4.1-0.6-4.1,4.2
			c0,1.7-0.1,3.3,0,5c0,1.4-0.2,2.2-1.9,2.2c-1.6,0-1.7-0.9-1.7-2.1c0-7.9,0-15.9,0-23.8c0-1.1,0.1-2,1.6-2
			c5.2,0.2,10.5-0.4,15.7,0.4c4.4,0.7,6.9,3.2,7.2,6.8c0.4,4-1.3,6.7-5.7,8.4c-1.9,0.7-1.8,1.2-0.6,2.5c2.6,2.8,5.1,5.8,7.7,8.7
			C340.6,384.7,340.5,384.9,340.6,385.3z M324.7,371.6c2-0.1,4.4,0.3,6.8-0.6c2.6-0.9,4-2.6,3.9-5.4c-0.1-2.7-1.7-4.1-4.2-4.7
			c-2.7-0.7-5.5-0.4-8.2-0.4c-4.8-0.1-4.8,0-4.8,4.8C318.1,371.6,318.1,371.6,324.7,371.6z"/>
		<path d="M482.7,385.3c-2.7,0.7-4.4,0.4-5.9-1.6c-1.3-1.9-3.4-3.2-4.5-5.2c-2.5-4.4-6.4-4.5-10.7-4.3c-1.4,0.1-2,0.6-1.9,2
			c0.1,2.5-0.1,5,0,7.5c0,1.4-0.5,2-1.9,2c-1.4,0-1.7-0.6-1.7-1.9c0-8,0-16,0-24c0-1.1,0.1-2,1.6-2c5.2,0.2,10.5-0.5,15.7,0.5
			c4.3,0.7,6.9,3.2,7.3,6.8c0.4,4-1.4,6.7-5.7,8.3c-2,0.7-1.7,1.3-0.6,2.6C477.1,378.9,479.7,381.9,482.7,385.3z M466.2,371.7
			c1.9-0.1,3.9,0,5.8-0.3c3.4-0.6,5.3-2.7,5.2-5.4c-0.1-2.7-1.7-4.6-5.2-5.1c-2.5-0.4-5.1-0.3-7.7-0.3c-5,0-4.5-1-4.5,4.5
			C459.7,371.6,459.8,371.6,466.2,371.7z"/>
		<path d="M50.9,371.6c0-3.9,0-7.8,0-11.6c0-1.4,0.3-2.2,2-2.2c1.6,0,1.8,0.8,1.8,2.1c0,2.9,0,5.7,0,8.6c0,1.4,0.5,1.9,2,1.9
			c5.8-0.1,11.6,0,17.4,0c1.5,0,1.9-0.6,1.9-2c-0.1-2.9,0-5.7,0-8.6c0-1.3,0.3-2,1.9-2c1.5,0,1.9,0.7,1.9,2c0,8,0,16.1,0,24.1
			c0,1.3-0.5,1.8-1.8,1.8c-1.4,0-2-0.5-1.9-1.9c0.1-2.8,0-5.5,0-8.3c0-1.5-0.3-2.2-2-2.2c-5.8,0.1-11.6,0.1-17.4,0
			c-1.5,0-1.9,0.6-1.9,2c0.1,2.9,0,5.7,0,8.6c0,1.3-0.4,1.8-1.7,1.8c-1.4,0-2-0.4-2-1.9C50.9,379.7,50.9,375.6,50.9,371.6z"/>
		<path d="M293,371.5c-1.5,2.2-2.6,4.2-4,6c-1.2,1.6-1.1,2.8,0.4,4c1.3,1,2.6,2.1,4.3,3.5c-3,1.2-4.7,0.7-6-1.2
			c-1.1-1.5-2.1-1.8-3.8-0.4c-3.4,2.7-7.4,3.3-11.5,1.9c-2.8-0.9-4.8-2.7-5.2-5.9c-0.3-3,0.7-5.4,3.2-7.2c0.3-0.2,0.6-0.5,0.9-0.6
			c2.1-0.8,2.3-1.7,0.8-3.7c-2.1-2.7-1.4-6.7,1-8.8c2.8-2.3,7.6-2.4,10.3-0.1c2.2,1.9,2.6,5.5,0.9,8.1c-0.9,1.4-2.2,2.2-3.6,2.9
			c-1.2,0.6-1.6,1.1-0.4,2.2c1.1,1,2,2.1,3.1,3.1c2.4,2.3,2.3,2.3,4.3-0.6C289,373.2,289.5,370.5,293,371.5z M277,383.1
			c1.8-0.1,3.8-0.5,5.6-1.9c1-0.8,1.3-1.3,0.2-2.3c-1.9-1.8-3.8-3.8-5.6-5.8c-0.9-1-1.7-1.1-2.9-0.5c-2.9,1.4-4.5,3.9-3.9,6.6
			C271,381.8,273.1,383.2,277,383.1z M282.5,363.8c0-2.3-1.7-3.8-4.2-3.8c-2.5,0-4.2,1.7-4.3,4.1c0,2.2,2,5.1,3.6,5
			C279.7,369,282.5,366,282.5,363.8z"/>
		<path d="M173.5,385.6c-3.3,0-6.6-0.1-10,0c-1.6,0-2.3-0.4-2.3-2.1c0.1-7.8,0.1-15.7,0-23.5c0-1.7,0.5-2.3,2.2-2.2
			c6.4,0.1,12.7,0,19.1,0c1,0,2.1-0.1,2.1,1.4c0,1.7-1.2,1.3-2.1,1.3c-5.1,0-10.1,0.1-15.2,0c-1.8,0-2.4,0.6-2.4,2.4
			c-0.1,7-0.1,7,6.9,7c2.7,0,5.3,0,8,0c1,0,1.8,0.1,1.8,1.5c0,1.4-0.9,1.4-1.9,1.4c-4.2,0-8.3,0.1-12.5,0c-1.8,0-2.3,0.6-2.4,2.4
			c-0.1,7.6-0.2,7.6,7.6,7.6c3.7,0,7.4,0,11.1,0c1,0,2.1-0.3,2.2,1.4c0.1,1.9-1.2,1.5-2.3,1.5C180.2,385.6,176.8,385.6,173.5,385.6z
			"/>
		<path d="M348.4,371.8c0-4,0-7.9,0-11.9c0-1.5,0.5-2.1,2.1-2.1c6.5,0.1,12.9,0,19.4,0c1,0,2.1-0.2,2.1,1.4c0,1.6-1.2,1.4-2.1,1.4
			c-5.2,0-10.3,0.1-15.5,0c-1.6,0-2.2,0.5-2.3,2.2c-0.2,7.2-0.3,7.2,7,7.2c2.5,0,5,0,7.5,0c1,0,2.4-0.3,2.3,1.5
			c-0.1,1.6-1.3,1.3-2.2,1.3c-4.1,0-8.1,0.1-12.2,0c-1.8-0.1-2.3,0.6-2.4,2.4c-0.1,7.6-0.2,7.6,7.3,7.6c3.8,0,7.6,0,11.3,0
			c1,0,2.1-0.2,2.1,1.4c0,1.6-1.1,1.4-2.1,1.4c-6.7,0-13.5,0-20.2,0c-1.7,0-2.2-0.7-2.2-2.3C348.4,379.5,348.4,375.6,348.4,371.8z"
			/>
		<path d="M392.2,386c-3.5,0.1-6.8-0.5-9.8-2.3c-1.6-1-2.9-2.3-3.5-4.1c-0.3-0.8-1.3-1.8,0-2.3c1-0.4,2.3-0.6,3.1,0.8
			c3.1,5.1,12.2,7,17.3,3.7c1.6-1,2.4-2.5,2.2-4.5c-0.2-1.8-1.4-2.7-2.9-3.3c-3.1-1.1-6.3-1.2-9.5-1.7c-1.9-0.3-3.8-0.8-5.5-1.6
			c-2.2-1.1-3.7-2.6-3.9-5.3c-0.1-2.7,1-4.8,3.3-5.9c5.7-2.8,11.6-2.8,17.3,0c1.4,0.7,2.5,2,3.1,3.4c0.3,0.7,1,1.7-0.1,2.1
			c-0.8,0.3-1.9,0.5-2.8-0.5c-3.6-4.2-9.8-5.6-14.8-3.3c-1.6,0.7-2.6,1.7-2.6,3.5c0,1.9,1.1,2.8,2.7,3.4c2.3,1,4.8,1.1,7.3,1.4
			c2.8,0.4,5.7,0.7,8.3,2c4.6,2.3,5.1,8.6,0.9,11.6C399.2,385.4,395.8,386,392.2,386z"/>
		<path d="M530.1,386c-3.8-0.2-8.5-0.8-11.5-5.4c-0.6-1-2-2.4-0.7-3.3c1.3-0.9,2.8-0.3,3.6,1.7c0.8,1.9,2.6,3.1,4.6,3.6
			c3.4,0.8,6.8,0.9,10.1,0c2.3-0.6,4.3-1.9,4.4-4.7c0.1-2.9-2-3.8-4.2-4.3c-2.9-0.6-5.8-1-8.7-1.4c-2.1-0.3-4.2-0.8-6-2
			c-3.6-2.3-4.1-7-0.9-9.9c4-3.7,15.5-3.8,19.6-0.2c0.7,0.7,1.3,1.5,1.8,2.4c0.4,0.7,1.3,1.8,0.2,2.4c-0.9,0.5-2.1,0.5-2.9-0.7
			c-3.3-4.2-10.5-5.5-15.2-2.9c-1.4,0.8-2.2,1.9-2.1,3.6c0.1,1.6,1.1,2.5,2.4,3.1c2.1,0.9,4.3,1.1,6.5,1.4c3.1,0.4,6.2,0.7,9.1,2.1
			c4.7,2.3,5.6,7.9,1.6,11.3C538.8,385.5,535.1,386,530.1,386z"/>
		<path d="M233.6,386c-3.2,0.1-6.2-0.5-9.1-2c-1.9-1-3.3-2.3-4.2-4.3c-0.4-0.8-1.4-2-0.1-2.5c1-0.4,2.5-0.8,3.2,1.1
			c1,2.8,3.3,4.1,6.1,4.5c3,0.5,6.1,0.6,9.1-0.3c2.3-0.7,4.3-2,4.3-4.7c0-2.8-2-3.8-4.3-4.2c-2.9-0.6-5.8-0.9-8.7-1.4
			c-2-0.3-4-0.9-5.7-1.9c-3.7-2.2-4.3-6.8-1.2-9.8c4.1-4,15.8-4,19.9,0c0.7,0.7,1.3,1.5,1.8,2.4c0.3,0.6,1.2,1.6,0,2.1
			c-0.9,0.3-1.9,0.5-2.8-0.5c-3.5-4.2-9.8-5.5-14.9-3.3c-1.6,0.7-2.6,1.8-2.6,3.6c0,1.8,1.2,2.8,2.7,3.4c1.9,0.8,3.9,1,5.9,1.2
			c3.3,0.4,6.6,0.7,9.6,2.2c4.4,2.3,5.1,8.1,1.2,11.2C241.5,385,238.1,386,233.6,386z"/>
		<path d="M140.9,357.8c3.7,0,7.4,0,11.1,0c1,0,2.1-0.1,2.1,1.5c0,1.6-1.2,1.3-2.2,1.3c-2.2,0-4.4,0.1-6.6,0c-2-0.1-2.7,0.5-2.7,2.6
			c0.1,6.7,0,13.5,0.1,20.2c0,1.6-0.3,2.4-2.1,2.3c-1.7-0.1-1.6-1.2-1.6-2.3c0-6.6-0.1-13.3,0.1-19.9c0.1-2.3-0.7-3.1-3-2.9
			c-1.9,0.2-3.9,0.1-5.8,0c-1-0.1-2.7,0.8-2.7-1.3c-0.1-2,1.5-1.4,2.6-1.4C133.7,357.8,137.3,357.8,140.9,357.8
			C140.9,357.8,140.9,357.8,140.9,357.8z"/>
		<path d="M499.7,357.8c3.4,0,6.8-0.1,10.2,0c1.1,0,3-0.8,3,1.3c0.1,2.4-2,1.3-3.1,1.4c-1.9,0.2-3.9,0.2-5.8,0
			c-1.8-0.1-2.4,0.6-2.3,2.4c0.1,6.5,0.1,12.9,0,19.4c0,1.3,0.9,3.4-1.9,3.3c-2.8,0-1.7-2.2-1.8-3.4c-0.1-6.3-0.2-12.5,0-18.8
			c0.1-2.4-0.7-3.1-3-2.9c-2.1,0.2-4.2,0.1-6.4,0c-1,0-2.1,0.3-2.2-1.3c0-1.6,1.1-1.4,2.1-1.4C492.3,357.8,496,357.8,499.7,357.8
			C499.7,357.8,499.7,357.8,499.7,357.8z"/>
		<path d="M193.2,371.6c0-3.9,0-7.7,0-11.6c0-1.1-0.1-2.2,1.6-2.2c1.7,0,2,0.8,2,2.2c0,6.7,0,13.5-0.1,20.2c0,2,0.5,2.7,2.6,2.6
			c4.4-0.2,8.9-0.1,13.3,0c1,0,2.1-0.2,2.1,1.4c0,1.6-1.1,1.4-2.1,1.4c-5.7,0-11.4,0-17.2,0.1c-1.9,0-2.4-0.7-2.3-2.5
			C193.3,379.3,193.2,375.5,193.2,371.6z"/>
		<path d="M442.9,212.1c3.4,0,6.2,2.8,6.2,6.1c-0.1,3.4-2.8,6.1-6.3,6c-3.4-0.1-6-2.6-6-5.9C436.8,214.8,439.4,212.1,442.9,212.1z
			 M447.9,218.2c0.1-2.8-2-5-4.7-5.1c-2.9-0.1-5.1,2-5.2,5c-0.1,2.9,1.8,5,4.7,5.1C445.6,223.3,447.8,221.2,447.9,218.2z"/>
		<path d="M445.1,220.9c-1.5,0.2-1.4-1.4-2.4-1.7c-0.9,0.2-0.1,2-1.3,1.6c-1-0.3-0.6-1.4-0.5-2.2c0.2-1.5-1.1-3.9,2.1-3.5
			c1.7,0.2,3.1,0.9,1.9,2.8C444.1,219.1,445.2,219.8,445.1,220.9z"/>
	</g>
</g>
</svg>
