<?xml version="1.0" encoding="utf-8"?>
<!-- Generator: Adobe Illustrator 26.3.1, SVG Export Plug-In . SVG Version: 6.00 Build 0)  -->
<svg version="1.1" id="Layer_1" xmlns="http://www.w3.org/2000/svg" xmlns:xlink="http://www.w3.org/1999/xlink" x="0px" y="0px"
	 viewBox="0 0 595.3 595.3" style="enable-background:new 0 0 595.3 595.3;" xml:space="preserve">
<style type="text/css">
	.st0{fill:#FFFFFF;}
</style>
<path class="st0" d="M297.6,595.3L297.6,595.3C133.3,595.3,0,462,0,297.6l0,0C0,133.3,133.3,0,297.6,0l0,0
	C462,0,595.3,133.3,595.3,297.6l0,0C595.3,462,462,595.3,297.6,595.3z"/>
<g>
	<path d="M175.8,297.8c0-23.5,0.1-46.8-0.1-70.3c0-3.5,0.7-4.8,4.4-4.5c4.7,0.3,9.5,0.3,14.2,0c3.4-0.1,4.1,1,4.1,4.1
		c-0.1,18.9,0,37.8-0.1,56.9c0,3.8,1.2,4.7,4.8,4.7c24.1-0.1,48.3-0.1,72.3,0c3.4,0,4.3-1,4.3-4.4c-0.1-18.9,0-37.8-0.1-56.9
		c0-3.5,0.9-4.8,4.5-4.5c4.4,0.3,8.9,0.3,13.3,0c4.1-0.3,4.8,1.3,4.8,5c-0.1,45.6-0.1,91.2-0.1,136.8c0,7.5,0,7.5-7.5,7.5
		c-3.7,0-7.3-0.1-11,0c-3.5,0.3-4.3-1.2-4.3-4.4c0.1-19.7,0-39.3,0.1-58.8c0-4.3-1.2-5.1-5.3-5.1c-23.8,0.1-47.7,0.1-71.4,0
		c-3.8,0-4.7,1.2-4.7,4.8c0.1,19.8,0,39.5,0.1,59.3c0,3.4-0.9,4.5-4.4,4.3c-4.5-0.3-9.2-0.4-13.8,0c-4,0.3-4.5-1.3-4.5-4.8
		C175.8,344.5,175.8,321.2,175.8,297.8z"/>
	<path d="M478.2,253c-1.5-1.5-2.9-3.1-4.3-4.5c-17.5-19.7-46.6-24.9-69.7-12.3c-10.6,5.7-18.2,14.7-22.7,25.7
		c-11,26.7-10.4,53.1,4.8,77.9c16.4,26.8,47.1,32.1,71.4,21.1c3.1-1.5,4.3-3.2,4.3-6.7c-0.1-16.3,0-32.6-0.1-48.7
		c0-4,1.2-4.8,4.8-4.7c4.8,0.3,9.7,0.1,14.7,0c2.3,0,3.4,0.7,3.2,3.2c-0.1,18.5,0,37.1,0,55.6c0,1.6,0,3.1-2.1,3.8
		c-17,6.3-34,11.9-52.4,11.4c-21.4-0.4-41.1-6-56.9-21c-22.4-21.3-28.6-47.5-20.5-76.6c9.2-33.3,36.7-54.1,71.6-56.3
		c17.7-1.2,35.1,1.8,52.4,5.6c1.2,0.3,2.6,0.3,2.6,1.9c0,8.1,0,16.1,0,24.1C478.8,252.7,478.5,252.8,478.2,253z"/>
	<path d="M87.3,297.4c0-23.3,0.1-46.5-0.1-69.8c0-3.5,0.9-4.7,4.5-4.5c4.8,0.3,9.7,0.3,14.7,0c2.8-0.1,3.4,1,3.4,3.5
		c-0.1,11.3,0,22.4,0,33.7c0,35.8,0,71.7,0.1,107.5c0,3.8-1.2,4.8-4.7,4.7c-4.5-0.3-9.2-0.3-13.8,0c-3.4,0.1-4.1-1-4.1-4.1
		C87.5,344.8,87.3,321,87.3,297.4z"/>
	<path d="M499,224.8c5,0,9.1,4.1,9.1,8.9c-0.1,5-4.1,8.9-9.2,8.8c-5-0.1-8.8-3.8-8.8-8.7C490.1,228.8,493.9,224.8,499,224.8z
		 M506.4,233.8c0.1-4.1-2.9-7.3-6.9-7.5c-4.3-0.1-7.5,2.9-7.6,7.3c-0.1,4.3,2.6,7.3,6.9,7.5C503,241.2,506.2,238.2,506.4,233.8z"/>
	<path d="M502.2,237.7c-2.2,0.3-2.1-2.1-3.5-2.5c-1.3,0.3-0.1,2.9-1.9,2.3c-1.5-0.4-0.9-2.1-0.7-3.2c0.3-2.2-1.6-5.7,3.1-5.1
		c2.5,0.3,4.5,1.3,2.8,4.1C500.8,235.1,502.4,236.1,502.2,237.7z"/>
</g>
</svg>
