<?xml version="1.0" encoding="utf-8"?>
<!-- Generator: Adobe Illustrator 26.3.1, SVG Export Plug-In . SVG Version: 6.00 Build 0)  -->
<svg version="1.1" id="Layer_1" xmlns="http://www.w3.org/2000/svg" xmlns:xlink="http://www.w3.org/1999/xlink" x="0px" y="0px"
	 viewBox="0 0 595.3 595.3" style="enable-background:new 0 0 595.3 595.3;" xml:space="preserve">
<style type="text/css">
	.st0{fill:#FFFFFF;}
	.st1{fill:#000075;}
	.st2{fill:none;}
	.st3{fill:#CCC7D2;}
</style>
<path class="st0" d="M297.6,595.3L297.6,595.3C133.3,595.3,0,462,0,297.6v0C0,133.3,133.3,0,297.6,0h0
	C462,0,595.3,133.3,595.3,297.6v0C595.3,462,462,595.3,297.6,595.3z"/>
<g>
	<path class="st1" d="M247.3,271.2c0-16.2,0.1-32.3-0.1-48.5c-0.1-5.1,1.7-7,6.8-6.9c11.6,0.3,23.2,0,34.7,0.1
		c16,0.3,33.5,19.3,32.6,35.2c-0.5,8.6-4.7,14.8-12,19.1c-5.9,3.4-12.3,5.7-18.7,8c-8.2,2.9-8.9,4.9-2.6,11.1
		c10.5,10.5,21.3,20.7,31.9,31.1c1.5,1.5,4.4,2.9,3.6,5c-1,2.8-4.2,1.4-6.4,1.4c-21,0.1-42-0.2-62.9,0.2c-6.2,0.1-7.9-2.3-7.9-8
		c0.2-16,0.1-31.9,0.1-47.9C246.9,271.2,247.1,271.2,247.3,271.2z"/>
	<path class="st1" d="M316.1,216.1c13.5,0,26.8-0.2,40,0.1c4,0.1,3.3,4.1,3.3,6.7c0.1,12.7,0.1,25.4,0.2,38.1
		c0,19.5-0.1,38.9,0.1,58.4c0.1,5.6-1.8,7.6-7.5,7.7c-7.1,0.2-12.4-1.6-17.3-7c-9.1-10-19-19.4-28.5-29c-5.3-5.3-5.2-5.6,2.1-8.3
		c4.1-1.5,7.9-3.6,11.6-6.1c18.7-12.6,17-41.9,1.6-54.3C319.6,220.9,317,219.9,316.1,216.1z"/>
	<path class="st1" d="M195.3,478.4c0-9.2,0.3-18.4-0.1-27.5c-0.3-6.4,2.2-8.4,8.4-8.1c9.6,0.4,19.2-0.2,28.8,0.3
		c16,0.8,24.7,15.3,17.4,28.5c-2.4,4.3-6,6.9-10.5,8.4c-4,1.3-3.7,2.8-0.9,5.2c7.3,6.5,11.3,15.5,16.8,23.3c1,1.4,2.4,2.9,1.1,4.7
		c-1.5,1.9-3.7,2.3-5.9,1.7c-3.3-0.9-5.7-3-7.5-5.9c-3.9-6.1-8.1-11.9-11.9-18.1c-5.1-8.4-12.9-8.7-21.3-8c-3.6,0.3-3.8,3.1-3.8,5.8
		c0,6.1,0,12.2-0.1,18.4c0,3.7-0.3,7.5-5.1,7.5c-4.7,0-5.4-3.5-5.4-7.3C195.3,497.7,195.3,488.1,195.3,478.4z M220.9,451.8
		c0-0.1,0-0.1,0-0.2c-3.5,0-7,0-10.5,0c-1.8,0-3.9,0.3-4.2,2.4c-0.8,5.6-0.9,11.3,0.1,16.9c0.4,2,2.4,2.4,4.2,2.4
		c7.2-0.1,14.4,0.1,21.6-0.4c5.7-0.5,9.8-5.4,9.8-10.6c0-5.1-4-9.7-9.9-10.4C228.4,451.5,224.6,451.8,220.9,451.8z"/>
	<path class="st1" d="M274.6,478.3c-0.2,4.4-0.1,8.7,1.3,12.9c2.9,9,9.2,13.6,18.3,14.4c8.7,0.8,16-3.4,20.1-11.7
		c1.4-2.8,2.2-5.8,6.5-4.8c3.9,0.9,5.7,2.3,3.9,6.8c-4.3,10.7-15.4,19.2-26.4,19.6c-13.9,0.4-25.9-6.7-31-18.9
		c-4-9.7-5.2-19.8-2.6-30.2c4.8-19.1,24.3-29.7,43-23.2c7.2,2.5,12.4,7.3,15.5,14.2c0.9,2,1.9,4.4-0.9,5.6c-2.5,1.1-5.4,2.4-7.7-0.6
		c-0.4-0.5-0.7-1.1-1-1.7c-6.3-9.6-12.4-12-23.3-9.4c-8.3,2-14.5,9.6-15.6,19C274.4,473.1,274.6,475.7,274.6,478.3z"/>
	<path class="st1" d="M394.4,478.1c0-25.9,19.1-41.6,42.2-35.2c8.1,2.2,13.8,7.3,17.3,14.8c0.9,1.8,2.4,4.4-0.8,5.5
		c-2.5,0.9-5.4,2.5-7.8-0.5c-0.5-0.7-0.8-1.5-1.3-2.3c-5.2-8.3-11.9-11.3-21.1-9.5c-9.4,1.9-15.8,8.1-17.2,17.4
		c-1.1,6.7-1,13.5,0.1,20.2c1.6,9.5,8.8,16.1,18.1,17.3c9.5,1.2,17.2-2.9,21.1-12c1.8-4.3,3.9-6,8.4-4c5.1,2.2,2.1,5.5,1,8.1
		c-4.7,10.8-13.8,16.4-25,17.5c-13,1.2-23.4-4.4-30-15.9C395.6,492.7,394,485.3,394.4,478.1z"/>
	<path class="st1" d="M355,482.6c0-7.9-0.3-15.8,0.1-23.6c0.3-5.9-2.1-7.9-7.7-7.4c-3.7,0.3-7.4,0-11.1,0c-2.8,0-4.6-0.9-4.6-4.1
		c0-3,1.5-4.4,4.4-4.5c16,0,31.9,0,47.9,0c2.6,0,4.1,1.2,4.2,3.9c0.1,2.9-1.1,4.6-4.2,4.6c-3.7,0-7.5,0.4-11.1,0
		c-5.9-0.6-8.1,1.4-7.9,7.7c0.4,16,0.1,31.9,0.1,47.9c0,2.5,0.5,5.6-3,6.5c-4,1-7,0.3-7-4.8C355.1,500.1,355,491.3,355,482.6
		C355,482.6,355,482.6,355,482.6z"/>
	<path class="st1" d="M179.9,478.6c0,9.8,0,19.7,0,29.5c0,3.3-0.4,6.5-4.5,6.6c-4.1,0.1-5.5-2.7-5.5-6.5c0.1-19.9,0.1-39.8,0.1-59.6
		c0-3.6,1-5.8,5.2-5.7c3.9,0.1,4.7,2.4,4.7,5.6C179.9,458.5,179.9,468.6,179.9,478.6z"/>
	<path class="st2" d="M368,361.2l-15.7,29.1c0.4-0.6,0.8-1.2,1.2-1.9C358,379.2,363.3,370.3,368,361.2z"/>
	<path class="st3" d="M344,392.1c-13.4-4.7-26.6-10-39.4-16.2c-37.5-18.4-70.4-43-98.8-73.6c-2-2.1-4.1-4.1-6.1-6.1
		c0.1,2.8,1.2,4.6,2.4,6.4c18.2,28,40.3,52.8,65.7,74.5c18.3,15.6,37.8,29.7,58.6,41.8c7.4,4.3,8,4,12.1-3.2l13.7-25.4
		C350.2,393,347.8,393.5,344,392.1z"/>
	<path class="st1" d="M452.7,273.4c-3.1-5.6-6.3-11.2-11-16.7c-0.1,3.8,1.5,6.2,2.5,8.8c4.6,11.6,8.2,23.4,10,35.9
		c4.4,31.2-24.1,55.4-44.4,57.6c-11.2,1.2-22.7,1.4-33.9-1.2c-3.7-0.9-6.1-0.1-7.9,3.5c-4.7,9.1-10,18-14.6,27.2
		c-0.4,0.8-0.8,1.4-1.2,1.9l-13.7,25.4c2.8-4.9,6.1-9.6,8.5-14.8c2.3-4.9,4.9-5.3,9.8-3.7c19.4,6.4,39.1,10.6,59.9,7.1
		c32.8-5.4,55.5-31.5,55.8-64.6C472.7,315.5,464.3,294,452.7,273.4z"/>
	<path class="st1" d="M355.9,169.1"/>
	<path class="st3" d="M377.7,169.1c3.9,0,5.9,1.4,6.8,5.4c7.9,36.4,9.8,73.1,4.4,110c-3.1,21.4-8,42.5-13.7,63.7
		c0.6-1.1,1.3-2.1,1.9-3.2c12.9-24.2,22-49.9,28.7-76.5c7.7-30.5,9.8-61.6,11.3-92.8c0.1-3.1-0.4-5.3-1.8-6.6L377.7,169.1z"/>
	<path class="st1" d="M409.1,168.2c-5.7-0.4-10.7-0.1-17-0.3c-6.8-0.2-9.1-2.4-10-8.7c-0.6-3.9-1.4-7.8-2.3-11.6
		c-2.2-8.9-5.3-17.4-9.4-25.7c-21-43.5-67.7-55.2-106.4-26.3c-19.3,14.4-33,33.6-43.9,54.8c-0.4,0.8-1.4,1.8,0.4,3.1
		c7.1-9.1,14.7-17.8,23.4-25.4c17.1-15.1,36.3-19.5,57.8-10.9c20,8,30.4,24.3,36.1,43.9c0.4,1.2,0.8,2.2,1.2,3.1
		c1.5,3.1,3.7,4.6,7,4.9h69.1C414,167.9,412.6,168.4,409.1,168.2z"/>
	<path class="st1" d="M167.6,242.9c4.2,7.3,3.4,7.9-4.3,14.4c-13.3,11.2-25.1,23.7-32.8,39.6c-17,35.3-5,72.2,29.7,90.4
		c18.1,9.5,37.8,13.7,58.1,14.3c6.4,0.2,12.9,2.2,20.9-1.1c-13.1-2.4-24.6-4.4-35.6-8.6c-34.3-13-47.3-48.3-29.5-80.4
		c4.2-7.5,9.7-14,15.8-20c2.7-2.6,3.1-4.8,1.3-7.9c-1.8-3.2-3.6-6.4-5.3-9.7l0,0L167.6,242.9z"/>
	<path class="st3" d="M293.7,171.6c-47.3,7.2-91.2,23.8-132.8,46.9c-4.2,2.3-5,4.9-2.5,9c2.5,4,4.9,8.1,7.3,12.2
		c0.2,0.3,0.3,0.5,0.5,0.8c0.6,1,1,1.8,1.5,2.5l18.2,31l0,0c-3.3-6-6.5-12-9.9-17.9c-1.9-3.3-2.5-5.8-0.1-8.3c0.5-0.5,1-1,1.8-1.5
		c4.8-3.3,9-7.6,13.6-11.3c41-33.1,87.8-53.6,139.1-64.3c1.9-0.4,3.9-0.4,6.3-2.7C321.5,169.3,307.5,169.5,293.7,171.6z"/>
</g>
</svg>
