<?xml version="1.0" encoding="utf-8"?>
<!-- Generator: Adobe Illustrator 26.3.1, SVG Export Plug-In . SVG Version: 6.00 Build 0)  -->
<svg version="1.1" id="Layer_1" xmlns="http://www.w3.org/2000/svg" xmlns:xlink="http://www.w3.org/1999/xlink" x="0px" y="0px"
	 viewBox="0 0 595.3 595.3" style="enable-background:new 0 0 595.3 595.3;" xml:space="preserve">
<style type="text/css">
	.st0{fill:#FFFFFF;}
	.st1{opacity:0.2;fill:#0062A4;}
	.st2{fill:#0D0D0D;}
	.st3{fill:#F49719;}
</style>
<path class="st0" d="M297.6,595.3L297.6,595.3C133.3,595.3,0,462,0,297.6v0C0,133.3,133.3,0,297.6,0h0
	C462,0,595.3,133.3,595.3,297.6v0C595.3,462,462,595.3,297.6,595.3z"/>
<path class="st1" d="M676.3,1838.2c-1.7-2.1-3.6-4.1-5.6-6c1,1.2,2.1,2.5,3,3.8C674.6,1836.7,675.5,1837.4,676.3,1838.2z"/>
<g>
	<path class="st2" d="M35.7,324.2c3-0.1,5.9-0.4,8.9-0.8c3.8-0.5,7.5-1.2,11.2-2.3c4.5-1.4,7.7-4,9.3-8.5c1-2.7,1.4-5.5,1.7-8.3
		c0.3-2.9,0.1-5.8,0.1-8.8c0.1-4.1,0-8.1,0.1-12.2c0.2-6.3,0-12.5,0.1-18.8c0.1-3.3,0-6.7,0.1-10c0-0.7,0.2-0.9,0.9-0.9
		c4.6,0,9.2,0,13.8,0c0.7,0,0.9,0.2,0.9,1c-0.1,6.1-0.1,12.2-0.2,18.4c-0.1,3.1,0,6.3-0.1,9.4c-0.2,6.4-0.2,12.9-0.3,19.3
		c-0.1,4.7-0.6,9.3-1.8,13.9c-1.5,5.8-4,11-8.4,15.1c-2.4,2.3-5.2,3.9-8.2,5.2c-3.7,1.6-7.5,2.3-11.4,3.1c-4.7,1-9.4,1.8-14.2,2.3
		c-0.2,0-0.5,0-0.7,0.2c-0.6,0-1.4,0.2-1.7-0.1c-0.3-0.3-0.1-1.1-0.1-1.7C35.7,334.6,35.7,329.4,35.7,324.2z"/>
	<path class="st2" d="M296.4,283.5c-0.6,0.9-1.2,1.8-1.8,2.7c-2.5,3.8-5.1,7.6-7.6,11.4c-4.7,7-9.4,14-14.1,21c-3,4.5-6,9-9,13.5
		c-3.3,5-10,6.4-14.8,3c-1.6-1.1-2.7-2.6-3.7-4.1c-4.6-6.9-9.3-13.8-13.9-20.7c-3.7-5.4-7.3-10.8-11-16.2c-2.4-3.6-4.8-7.1-7.2-10.7
		c-0.1-0.1-0.1-0.2-0.2-0.3c-0.2,0.4-0.1,0.7-0.1,1c0,16.8,0,33.7,0,50.5c0,0.3,0,0.5,0,0.8c0,0.5-0.2,0.7-0.7,0.7
		c-4.8,0-9.5,0-14.3,0c-0.7,0-0.8-0.4-0.8-1c0-8,0-16.1,0-24.1c0-16.2,0-32.3,0-48.5c0-2.7,0.7-5.2,2.9-7.1c1.4-1.2,3-1.8,4.8-1.9
		c2.2-0.1,4.3,0.3,6.2,1.4c1.1,0.7,2.1,1.6,2.9,2.7c4.2,5.9,8.3,11.8,12.4,17.7c2.6,3.6,5.1,7.3,7.7,10.9
		c3.8,5.4,7.6,10.8,11.4,16.3c2.8,3.9,5.5,7.8,8.3,11.7c0.4,0.5,0.7,1,1.1,1.5c0.3,0.5,0.4,0.3,0.7,0c1.5-2.2,3-4.4,4.5-6.6
		c4.7-6.8,9.4-13.6,14.1-20.4c2.6-3.8,5.2-7.5,7.7-11.3c2.1-3,4.2-6.1,6.3-9.1c2.1-3,4.1-6,6.2-9c1.2-1.8,2.4-3.5,4.4-4.7
		c2.8-1.6,7.4-1.6,9.9,0.4c2.1,1.7,3.3,4,3.5,6.6c0.1,1.3,0.1,2.7,0.1,4c0,22.9,0,45.9,0,68.8c0,0.2,0,0.5,0,0.7
		c0,0.6-0.2,0.8-0.8,0.8c-4.7,0-9.4,0-14.1,0c-0.6,0-0.8-0.2-0.8-0.8c0-17.2,0-34.3,0-51.5c0-0.1,0-0.1,0-0.2
		C296.5,283.6,296.5,283.6,296.4,283.5z"/>
	<path class="st3" d="M559.6,297.5c0.3,22.9-18.9,42.5-42.9,42c-22.2-0.5-41.3-18.9-41-42.7c0.3-22.2,18.6-41.3,42.2-41.2
		C541,255.7,559.9,274.7,559.6,297.5z M487.2,287.4c0,0.3,0.2,0.4,0.3,0.5c1.7,1.7,3.4,3.4,5.2,5c3.1,3,6.2,6,9.2,9.1
		c0.2,0.2,0.4,0.5,0.3,0.8c-0.4,2.2-0.8,4.4-1.2,6.7c-0.8,4.4-1.5,8.7-2.3,13.1c0,0.2-0.1,0.5,0,0.6c0.2,0.2,0.4-0.1,0.6-0.2
		c5.8-3.1,11.7-6.1,17.5-9.2c0.5-0.3,0.9-0.3,1.5,0c3,1.6,6.1,3.2,9.2,4.8c2.9,1.5,5.7,3,8.5,4.5c0.1,0.1,0.3,0.2,0.5,0.1
		c0.2-0.2,0-0.4,0-0.6c-0.4-2.4-0.8-4.8-1.2-7.2c-0.7-4.1-1.4-8.3-2.2-12.4c-0.1-0.4-0.1-0.7,0.2-1c2.7-2.6,5.4-5.2,8.1-7.9
		c2.1-2.1,4.3-4.2,6.4-6.2c0.1-0.1,0.4-0.3,0.3-0.5c-0.1-0.2-0.3-0.2-0.5-0.2c-2.4-0.3-4.8-0.7-7.1-1c-4.2-0.6-8.3-1.2-12.5-1.8
		c-0.5-0.1-0.9-0.3-1.1-0.8c-0.6-1.2-1.1-2.3-1.7-3.5c-2.4-4.7-4.7-9.5-7.1-14.2c-0.1-0.2-0.2-0.6-0.5-0.6c-0.3,0-0.3,0.4-0.5,0.6
		c-0.9,1.8-1.8,3.6-2.7,5.4c-2,4.1-4,8.2-6.1,12.3c-0.2,0.4-0.5,0.6-1,0.7c-5.6,0.8-11.2,1.6-16.8,2.4
		C489.6,286.9,488.4,287,487.2,287.4z"/>
	<path class="st2" d="M454.7,336.1c-2.6,0-5.2,0-7.7,0c-0.6,0-1-0.1-1.3-0.7c-1.6-2.8-3.2-5.5-4.7-8.3c-2.4-4.1-4.7-8.2-7.1-12.3
		c-0.4-0.7-0.8-0.9-1.6-0.9c-15,0-30.1,0-45.1,0c-0.8,0-1.3,0.3-1.7,1c-3.1,5.6-6.2,11.2-9.4,16.7c-0.7,1.3-1.4,2.5-2.1,3.8
		c-0.3,0.5-0.6,0.7-1.1,0.7c-5.6,0-11.1,0-16.7,0c-0.9,0-0.9-0.1-0.5-0.9c4.1-6.9,8.3-13.8,12.4-20.7c3-5,6-10,9-15.1
		c4.3-7.2,8.6-14.3,12.9-21.5c3.8-6.4,7.5-12.8,11.4-19.1c1.5-2.5,3.6-4.5,6.7-5.1c3.2-0.6,6,0.2,8.3,2.5c1.8,1.7,2.8,3.8,4,5.9
		c1.8,3,3.6,6.1,5.3,9.1c2.1,3.7,4.3,7.3,6.4,11c2.4,4.1,4.8,8.2,7.3,12.4c3.5,6,7,12,10.5,18c2.6,4.4,5.2,8.8,7.8,13.2
		c1.8,3.1,3.7,6.3,5.5,9.4c0.4,0.7,0.4,0.9-0.5,0.9C460,336.1,457.3,336.1,454.7,336.1z M409.4,298.3c2.2,0,4.3,0,6.5,0
		c2.4,0,4.8,0,7.2,0c0.5,0,0.8-0.1,0.4-0.7c-1.5-2.4-2.9-4.7-4.3-7.1c-1.9-3-3.7-6.1-5.6-9.1c-1.3-2.1-2.6-4.2-3.8-6.3
		c-0.4-0.7-0.5-0.7-0.9,0c-0.8,1.3-1.6,2.7-2.4,4c-3.7,6.1-7.3,12.2-11,18.4c-0.1,0.2-0.4,0.4-0.3,0.6c0.1,0.2,0.5,0.1,0.7,0.1
		C400.4,298.3,404.9,298.3,409.4,298.3z"/>
	<path class="st2" d="M181.9,284.2c0,9.7,0.1,19.5,0,29.2c0,4.8-1.4,9.2-4.5,13c-2.1,2.7-4.9,4.5-8,5.8c-4.2,1.8-8.7,2.6-13.3,3
		c-3.6,0.3-7.1,0.4-10.7,0.4c-4.7,0-9.5,0-14.2,0c-2.4,0-4.8,0-7.1-0.1c-3.9-0.2-7.7-0.7-11.4-1.8c-4.1-1.2-7.9-3.1-10.8-6.3
		c-2-2.2-3.3-4.7-4.2-7.6c-0.7-2.4-1-4.9-1-7.5c0-19,0-38.1,0-57.1c0-0.3,0-0.5,0-0.8c0-0.6,0.2-0.8,0.8-0.8c4.7,0,9.4,0,14.1,0
		c0.6,0,0.8,0.2,0.8,0.8c0,0.2,0,0.5,0,0.7c0,18.5,0,37,0,55.5c0,3.8,2,6.1,5.1,7.4c3.4,1.4,7,1.8,10.6,1.8c8,0,15.9,0,23.9,0
		c3.2,0,6.3-0.4,9.3-1.7c2.3-1,4.2-2.3,4.9-4.8c0.2-0.8,0.3-1.6,0.3-2.4c0-18.7,0-37.4,0-56.2c0-1.1,0-1.1,1.1-1.1
		c4.4,0,8.7,0,13.1,0c1.2,0,1.2,0,1.2,1.2C181.9,264.6,181.9,274.4,181.9,284.2C181.9,284.2,181.9,284.2,181.9,284.2z"/>
	<path class="st2" d="M327,294.6c0-13.3,0-26.5,0-39.8c0-1.2,0-1.2,1.2-1.2c4.5,0,8.9,0,13.4,0c1.1,0,1.1,0,1.1,1.1
		c0,26.6,0,53.3,0,79.9c0,1-0.1,1-1.1,1c-4.5,0-9,0-13.5,0c-1.1,0-1.1,0-1.1-1.1C327,321.2,327,307.9,327,294.6z"/>
</g>
</svg>
