<?xml version="1.0" encoding="utf-8"?>
<!-- Generator: Adobe Illustrator 26.3.1, SVG Export Plug-In . SVG Version: 6.00 Build 0)  -->
<svg version="1.1" id="Layer_1" xmlns="http://www.w3.org/2000/svg" xmlns:xlink="http://www.w3.org/1999/xlink" x="0px" y="0px"
	 viewBox="0 0 595.3 595.3" style="enable-background:new 0 0 595.3 595.3;" xml:space="preserve">
<style type="text/css">
	.st0{fill:#FFFFFF;}
	.st1{fill:#ED018C;}
</style>
<path class="st0" d="M297.6,595.3L297.6,595.3C133.3,595.3,0,462,0,297.6v0C0,133.3,133.3,0,297.6,0h0
	C462,0,595.3,133.3,595.3,297.6v0C595.3,462,462,595.3,297.6,595.3z"/>
<g>
	<path class="st1" d="M293.4,311.9c0.1,4.2,0.6,8.4,3.7,11.7c4.8,5.4,11.8,6.1,20.3,1.4c-0.6,3,1.3,2.8,3,2.8c2.6,0,5.1-0.1,7.7,0
		c2.1,0.1,2.9-0.6,2.9-2.8c-0.1-12.7-0.1-25.3,0-38c0-1.8-0.6-2.6-2.5-2.6c-2.9,0.1-5.7,0.1-8.6,0c-2.2-0.1-2.7,0.8-2.7,2.9
		c0.1,7,0,14.1,0.1,21.2c0,1.6-0.1,3.1-0.7,4.5c-0.8,1.9-2.4,2.8-4.4,2.8c-2,0-3.6-0.9-4.4-2.8c-0.5-1.3-0.7-2.7-0.7-4.2
		c0-7.2-0.1-14.3,0.1-21.5c0-2.1-0.5-3-2.7-2.9c-2.8,0.1-5.5,0.1-8.3,0c-2.2-0.1-2.8,0.8-2.8,2.9
		C293.4,295.6,293.2,303.8,293.4,311.9z"/>
	<path class="st1" d="M251.9,306.1c0,4.6,0,9.2,0,13.8c0,8,0,8,8,8c6.2,0,5.6,1,5.6-5.8c0-6.6-0.1-13.3,0-19.9
		c0.1-3.9,2-5.9,5.2-5.7c2.9,0.2,4.6,2.2,4.6,5.8c0,7.7,0.1,15.3,0,23c0,2,0.6,2.7,2.6,2.7c2.9-0.1,5.7-0.1,8.6,0
		c1.8,0.1,2.5-0.7,2.5-2.5c-0.1-9,0.2-18-0.1-26.9c-0.3-9.5-6.4-14.8-15.7-14.3c-2.3,0.1-4.3,1-6.3,2.1c-0.5,0.3-1.4,1.2-1.6,0.1
		c-0.3-2.3-1.9-1.7-3.2-1.8c-2.4-0.1-4.9,0.1-7.3-0.1c-2.2-0.1-3.1,0.6-3,2.9C252,293.7,251.9,299.9,251.9,306.1z"/>
	<path class="st1" d="M336.1,296.7c3.4-0.3,2.8,2.1,2.8,4c0,2.2,0,4.5,0,6.7c0,2.1,0,4.3,0,6.4c0.2,9,5.1,14,14.2,14
		c7.1,0,6.2,1.1,6.3-6c0-0.7-0.1-1.4,0-2.1c0.3-2.5-0.5-3.9-3.4-3.5c-2.3,0.3-3.4-0.7-3.4-3.1c0.1-4.7,0-9.4,0-14.1
		c0-1.5,0.4-2.2,2.1-2.2c4.6-0.2,4.6-0.3,4.6-5.1c0-0.5-0.1-1,0-1.5c0.4-2.9-0.6-4.5-3.8-4c-2.3,0.4-3.1-0.7-3-3c0.1-2.3,0-4.7,0-7
		c0-1.5-0.5-2.3-2.1-2.3c-3.2,0.1-6.3,0-9.5,0c-1.4,0-2,0.6-2,2c0,2.4-0.1,4.9,0,7.3c0,1.7-0.1,3.1-2.4,3c-1,0-1.5,0.6-1.5,1.6
		c0,2.6,0,5.1,0,7.7C335.1,296.1,335.4,296.8,336.1,296.7z"/>
	<path class="st1" d="M412.7,328c4.9,0.1,8.9-3.7,8.9-8.5c0-4.6-3.9-8.6-8.5-8.8c-4.7-0.1-8.9,3.9-8.9,8.6
		C404.2,324,408,327.9,412.7,328z"/>
	<path class="st1" d="M499,306.1c0,6.3,0,12.7,0,19c0,2.1,0.6,3,2.8,2.9c2.9-0.1,5.7-0.1,8.6,0c1.8,0.1,2.3-0.7,2.3-2.4
		c0-2.9,0-5.7,0-8.6c0-5.2-0.1-10.4,0.2-15.6c0.1-3.2,2-4.8,4.8-4.8c3,0,4.9,2.1,4.9,5.7c0.1,7.7,0.1,15.3,0,23c0,2,0.6,2.8,2.6,2.7
		c2.4-0.1,4.9-0.2,7.3,0c2.9,0.3,3.9-0.7,3.8-3.7c-0.2-7.4-0.1-14.9-0.1-22.4c0-2.8,1-4.8,4-5.3c3.3-0.6,5.6,1.5,5.6,5.1
		c0.1,7.8,0.1,15.5,0,23.3c0,2,0.6,3,2.8,2.9c2.9-0.1,5.7-0.1,8.6,0c1.6,0,2.4-0.5,2.4-2.3c-0.1-9.3,0.1-18.6-0.1-27.9
		c-0.2-7.1-5.6-12.8-12.3-13.5c-4.8-0.5-9.4-0.1-13.4,3.1c-0.8,0.6-1.4,1.1-2.4,0.2c-5.6-4.7-11.5-4.4-17.6-1.1
		c-0.5,0.3-1.4,1-1.5-0.4c-0.1-1.7-1.4-1.5-2.4-1.5c-2.8,0-5.5,0.1-8.3-0.1c-2.2-0.1-2.8,0.8-2.8,2.9C499,293.6,499,299.8,499,306.1
		z"/>
	<path class="st1" d="M244.5,286.1c-3,0.1-5.9,0.1-8.9,0c-1.7,0-2.4,0.7-2.4,2.4c0,12.4,0,24.7,0,37.1c0,1.7,0.7,2.4,2.4,2.3
		c3-0.1,5.9-0.1,8.9,0c1.9,0.1,2.5-0.7,2.4-2.5c-0.1-6.1,0-12.3,0-18.4c0-6.1-0.1-12.3,0-18.4C247,286.8,246.4,286.1,244.5,286.1z"
		/>
	<path class="st1" d="M458.3,310.7c0.8,10.7,7,16.9,17.5,17.5c10.7,0.7,18.2-5.6,19.6-16.2c0.6-4.5,0.5-9-0.2-13.4
		c-1-6.4-4.6-10.7-10.5-13.2c-3.1-1.3-6.4-1.3-9.6-1.2c-8.3,0.2-14.9,6.1-16.3,14.3c-0.4,2.5-0.6,5.1-0.5,7.6
		C458.2,307.6,458.1,309.2,458.3,310.7z M472.4,299.9c0.7-2.4,2.3-3.5,4.8-3.4c2.4,0.1,3.8,1.3,4.3,3.6c0.9,4,0.9,8.1,0,12.1
		c-0.5,2.4-2.1,3.7-4.5,3.7c-2.3,0-3.8-1-4.5-3.3c-0.7-2.2-0.4-4.4-0.5-6.7C472,303.9,471.8,301.9,472.4,299.9z"/>
	<path class="st1" d="M435.7,326.8c7.2,2.5,14.2,2,20.6-2.7c1.6-1.2,1.6-2.1,0.1-3.3c-1.9-1.7-3.7-3.5-5.4-5.4
		c-1.3-1.5-2.3-2-4.3-0.6c-3.5,2.4-7.3,0.8-8.4-3.2c-1-3.7-1-7.5,0.1-11.2c0.9-3.2,4.7-5.4,7.2-3.5c3.9,3,5.2,0.1,7.3-1.9
		c1.3-1.2,2.4-2.5,3.7-3.7c1.3-1.2,1.3-2-0.2-3.1c-3.8-2.9-8-4.3-12.8-4.1c-10.4,0-17.2,5.4-19,15.4c-0.8,4.2-0.9,8.5-0.1,12.8
		C425.8,319,428.8,324.5,435.7,326.8z"/>
	<path class="st1" d="M370.9,325.4c8.1,4,16.4,4.2,24.3-0.3c5.5-3.1,5.3-3.4,1-7.7c-0.4-0.4-0.9-0.8-1.3-1.3
		c-1.7-2.1-3.2-3.2-6.1-0.9c-3.7,2.9-9.7,1.9-11.9-1.3c-0.5-0.8-1.1-1.6-0.9-2.5c0.4-1.2,1.6-0.6,2.4-0.6c3.3-0.1,6.5,0,9.8,0
		c0,0,0,0,0,0c3.6,0,7.1,0,10.7,0c1.6,0,2.4-0.5,2.4-2.3c-0.1-3.2,0-6.3-0.6-9.4c-1.7-7.9-8-13.9-15.6-14.7
		c-9.7-1.1-17,2.5-20.5,10.5c-3.4,7.8-3.2,15.9,0,23.8C365.9,321.5,368,324,370.9,325.4z M380.5,295.6c2.8-0.5,5.3,0.2,6.7,3
		c0.8,1.8,0.8,2.9-1.6,2.8c-3.1-0.1-6.3,0-9.6,0C376.1,298.1,377.4,296.1,380.5,295.6z"/>
	<path class="st1" d="M101.3,323.8c4.6,3.6,10,4.4,15.6,4.5c4.9,0,9.8-0.5,14.1-3.3c4.5-2.9,6.7-8.1,5.9-13.5
		c-0.9-5.8-4.2-9.4-9.9-10.7c-3.1-0.7-6.2-0.9-9.4-1.2c-1.3-0.2-2.6-0.3-2.6-1.9c0-1.7,1.4-2.1,2.8-2.2c2.1-0.1,4.5-0.6,6.3,0.6
		c3.4,2.2,5.5,0.6,7.5-1.9c0.8-1,1.8-2,2.8-2.8c1.9-1.5,1.3-2.6-0.4-3.7c-2.5-1.7-5.2-2.8-8.2-3.1c-6-0.7-12-1.1-17.5,2.2
		c-5.3,3.1-7.6,8.6-6.3,15c1,5.3,4.4,8.2,10.8,9.1c2.9,0.4,5.9,0.7,8.8,1.1c1.1,0.1,1.9,0.7,2,1.9c0.1,1.3-0.8,1.8-1.8,2.1
		c-3.2,1.1-6.4,0.5-9.6-0.4c-1.7-0.5-2.8-2.9-4.7-2c-1.6,0.8-2.7,2.5-4,3.8c-0.8,0.8-1.5,1.7-2.4,2.4
		C98.9,321.4,99.6,322.5,101.3,323.8z"/>
	<path class="st1" d="M35.7,314.1c0,8.4,4.7,13.6,13,13.7c9.4,0.2,7.5,1.4,7.8-7.2c0-0.2,0-0.4,0-0.6c0.4-2.9-0.6-4.2-3.7-3.8
		c-2.7,0.4-3.5-1-3.5-3.6c0.1-6.4,0-12.8,0-19.3c0-6.5-0.1-13.1,0-19.6c0-2.2-0.6-3.2-2.9-3c-2.6,0.2-5.3,0.2-7.9,0
		c-2.4-0.2-2.9,0.8-2.9,3C35.7,287.1,35.7,300.6,35.7,314.1z"/>
	<path class="st1" d="M240.3,283.2c4.5,0,8.4-4,8.3-8.4c-0.1-4.5-3.9-8-8.4-8c-4.5,0-8.2,3.6-8.3,8.1
		C231.9,279.4,235.7,283.2,240.3,283.2z"/>
	<path class="st1" d="M70.3,327.7c4.5,0.9,9,0.8,13.2-2.8c-0.4,3.1,1.3,3,3.1,3c2.6-0.1,5.1-0.1,7.7,0c1.8,0.1,2.5-0.6,2.5-2.5
		c-0.1-9.2,0-18.4-0.1-27.6c0-3.5-1.4-6.6-3.9-9.1c-6.4-6.4-23.1-6.4-29.6-0.2c-1.2,1.2-1.2,1.9,0,2.9c1.7,1.5,3.2,3.1,4.8,4.8
		c1.4,1.5,2.4,2.3,4.5,0.6c2.4-1.9,5.4-1.8,8.2-0.7c1.7,0.6,2.5,2,2.4,3.9c-0.2,2.2-2,1.2-3.1,1.3c-2.2,0.2-4.5,0-6.7,0.1
		c-7.5,0.4-12.4,4.7-13,11.3C59.4,320.3,63.3,326.2,70.3,327.7z M77.3,310.7c0.8,0,1.6-0.1,2.4,0c1.1,0.2,2.9-0.9,3.2,1.3
		c0.3,1.7-0.3,3.2-1.9,4.2c-1.1,0.7-2.3,0.6-3.5,0.8c-2.1-0.2-4.3-0.4-4.3-3.2C73.3,311.1,75.3,310.8,77.3,310.7z"/>
	<path class="st1" d="M168.2,325.7c0,1.6,0.6,2.2,2.2,2.2c2.8,0,5.5-0.1,8.3,0c2.5,0.2,3.4-0.7,3.3-3.3c-0.2-7.7-0.1-15.3,0-23
		c0-3.8,2.8-6,6.3-5c2.6,0.7,3.4,2.7,3.4,5.2c0,7.7,0.1,15.3,0,23c0,2.2,0.7,3.2,3,3c2.4-0.1,4.9-0.2,7.3,0c2.7,0.2,3.5-0.7,3.5-3.4
		c-0.2-7.4-0.1-14.9,0-22.4c0-4.2,2.9-6.5,6.5-5.4c2.9,0.9,3.3,3.3,3.3,5.9c0,7.5,0,14.9,0,22.4c0,1.4-0.1,2.9,2.1,2.9
		c3.2-0.1,6.3-0.1,9.5,0c1.7,0,2.1-0.9,2.1-2.3c-0.1-9.5,0.4-19-0.3-28.5c-0.5-6.5-5-11.6-11.4-12.7c-4.8-0.8-9.6-0.5-13.8,2.5
		c-0.9,0.6-1.5,1.5-2.9,0.5c-6.1-4.9-12.4-4.2-19.2,0c0.4-2.3-0.5-3-2.5-2.9c-2.8,0.1-5.5,0.1-8.3,0c-1.6,0-2.4,0.4-2.4,2.3
		C168.2,299.8,168.2,312.7,168.2,325.7z"/>
	<path class="st1" d="M139.3,294.8c0,1.2,0.3,2.1,1.7,1.9c2.1-0.2,2.3,1,2.3,2.6c0,4.7,0,9.4,0,14.1c0,9.4,4.9,14.3,14.3,14.4
		c5.9,0.1,5.9,0.1,5.9-5.7c0-0.9-0.1-1.9,0-2.8c0.3-2.5-0.7-3.6-3.2-3.2c-2.5,0.3-3.6-0.9-3.5-3.4c0-4.7,0-9.4,0-14.1
		c0-1.4,0.4-1.9,1.9-2c4.9-0.3,4.9-0.3,4.9-5.4c0-0.9-0.1-1.8,0-2.8c0.2-1.9-0.7-2.4-2.5-2.5c-4.3-0.1-4.3-0.2-4.3-4.5
		c0-0.4,0-0.8,0-1.2c0-6.5,0-6.5-6.7-6.5c-1.2,0-2.5,0.1-3.7,0c-2.4-0.3-3.3,0.8-3.2,3.1c0.1,2.3,0,4.7,0,7c0,1.1-0.2,2.2-1.6,2.1
		c-2.2-0.1-2.5,1.2-2.4,2.9C139.4,291,139.4,292.9,139.3,294.8z"/>
</g>
</svg>
