<?xml version="1.0" encoding="utf-8"?>
<!-- Generator: Adobe Illustrator 26.3.1, SVG Export Plug-In . SVG Version: 6.00 Build 0)  -->
<svg version="1.1" id="Layer_1" xmlns="http://www.w3.org/2000/svg" xmlns:xlink="http://www.w3.org/1999/xlink" x="0px" y="0px"
	 viewBox="0 0 595.3 595.3" style="enable-background:new 0 0 595.3 595.3;" xml:space="preserve">
<style type="text/css">
	.st0{fill:#ED018C;}
	.st1{fill:#FFFFFF;}
</style>
<path class="st0" d="M297.6,595.3L297.6,595.3C133.3,595.3,0,462,0,297.6l0,0C0,133.3,133.3,0,297.6,0l0,0
	C462,0,595.3,133.3,595.3,297.6l0,0C595.3,462,462,595.3,297.6,595.3z"/>
<g>
	<path class="st1" d="M87.7,368.1c0,40,22.4,64.8,61.9,65.3c44.8,1,35.7,6.7,37.2-34.3c0-1,0-1.9,0-2.9c1.9-13.8-2.9-20-17.6-18.1
		c-12.9,1.9-16.7-4.8-16.7-17.2c0.5-30.5,0-61,0-92s-0.5-62.4,0-93.4c0-10.5-2.9-15.2-13.8-14.3c-12.4,1-25.3,1-37.6,0
		c-11.4-1-13.8,3.8-13.8,14.3C87.7,239.4,87.7,303.7,87.7,368.1z"/>
	<path class="st1" d="M218,423.3c0,7.6,2.9,10.5,10.5,10.5c13.3,0,26.2-0.5,39.5,0c11.9,1,16.2-3.3,15.7-15.7
		c-1-36.7-0.5-72.9,0-109.6c0-18.1,13.3-28.6,30-23.8c12.4,3.3,16.2,12.9,16.2,24.8c0,36.7,0.5,72.9,0,109.6
		c0,10.5,3.3,15.2,14.3,14.3c11.4-0.5,23.3-1,34.8,0c12.9,1,16.7-3.3,16.7-16.2c-1-35.3-0.5-71,0-106.7c0-20,13.8-31,31-25.7
		c13.8,4.3,15.7,15.7,15.7,28.1c0,35.7,0,71,0,106.7c0,6.7-0.5,13.8,10,13.8c15.2-0.5,30-0.5,45.3,0c8.1,0,10-4.3,10-11
		c-0.5-45.3,1.9-90.5-1.4-135.8c-2.4-31-23.8-55.3-54.3-60.5c-22.9-3.8-45.7-2.4-65.8,11.9c-4.3,2.9-7.1,7.1-13.8,2.4
		c-29.1-23.3-59.1-20-91.5,0c1.9-11-2.4-14.3-11.9-13.8c-13.3,0.5-26.2,0.5-39.5,0c-7.6,0-11.4,1.9-11.4,11
		C218,299.9,218,361.4,218,423.3z"/>
</g>
</svg>
