<?xml version="1.0" encoding="utf-8"?>
<!-- Generator: Adobe Illustrator 26.3.1, SVG Export Plug-In . SVG Version: 6.00 Build 0)  -->
<svg version="1.1" id="Layer_1" xmlns="http://www.w3.org/2000/svg" xmlns:xlink="http://www.w3.org/1999/xlink" x="0px" y="0px"
	 viewBox="0 0 595.3 595.3" style="enable-background:new 0 0 595.3 595.3;" xml:space="preserve">
<style type="text/css">
	.st0{fill:#FFFFFF;}
	.st1{opacity:0.2;fill:#0062A4;}
	.st2{fill:#3B0C80;}
</style>
<path class="st0" d="M297.6,595.3L297.6,595.3C133.3,595.3,0,462,0,297.6v0C0,133.3,133.3,0,297.6,0h0
	C462,0,595.3,133.3,595.3,297.6v0C595.3,462,462,595.3,297.6,595.3z"/>
<path class="st1" d="M676.3,1838.2c-1.7-2.1-3.6-4.1-5.6-6c1,1.2,2.1,2.5,3,3.8C674.6,1836.7,675.5,1837.4,676.3,1838.2z"/>
<g>
	<path class="st2" d="M240.9,328.5c-0.6-0.5-1.4-0.4-2.2-0.5c-6.4-1.4-10.4-5.6-11.4-12c-1.1-6.7-1.1-13.4,0-20.1
		c1.3-7.6,6.1-12.4,13.8-13.6c3.7-0.6,7.3-0.5,10.9,0.3c5.1,1,7.3,2.9,11.1,9c0.7-1.1,1.3-2.3,2-3.3c2.9-3.9,7-5.7,11.7-6.2
		c3.9-0.4,7.7-0.3,11.5,0.8c5.6,1.7,8.8,5.5,9.9,11c1.4,7.3,1.5,14.6,0,21.9c-1.5,6.9-5.7,11.1-12.8,12.3c-0.3,0.1-0.6,0.3-0.9,0.4
		c-2.9,0-5.8,0-8.7,0c-5.8-1.1-10.8-3.3-13-9.8c-1.8,4.1-4.4,6.9-8.1,8.4c-1.6,0.6-3.3,1-4.9,1.4
		C246.7,328.5,243.8,328.5,240.9,328.5z M240.8,297.5C240.8,297.5,240.8,297.5,240.8,297.5c0.4,5.9,0.6,11.9,1,17.8
		c0.2,2.8,1.5,4.1,3.9,4c3.2-0.1,4.4-1.4,4.3-4.5c-0.3-6.6-0.7-13.1-1.1-19.7c-0.2-2.6-1.5-3.8-3.9-3.7c-3,0.1-4.2,1.3-4.1,4.2
		C240.8,296.2,240.8,296.8,240.8,297.5z M284.3,304.1C284.3,304.1,284.3,304.1,284.3,304.1c0.1-2.7,0.3-5.5,0.4-8.2
		c0.1-2.7-1.1-4.2-3.8-4.4c-2.8-0.2-4.3,1.1-4.5,3.9c-0.3,6.6-0.7,13.2-1,19.7c-0.1,2.8,1.2,4.1,4.1,4.2c2.4,0.1,3.8-1.2,3.9-3.7
		C283.9,311.7,284.1,307.9,284.3,304.1z"/>
	<path class="st2" d="M35.6,268.3c4.9-0.5,9.8-0.8,14.6-1.4c2-0.3,2.4,0.2,2.4,2.1c-0.6,14.1-1.1,28.2-1.6,42.3c0,0.4,0,0.8-0.1,1.2
		c-0.2,1.6,0.3,2.2,2,2c5-0.5,10-0.8,15-1.2c1.6-0.2,2.3,0.1,2.4,1.9c0.2,3.2,0.7,6.4,1.2,9.6c0.2,1.7,0,2.4-2,2.4
		c-11.3-0.1-22.6,0-34,0C35.6,307.6,35.6,288,35.6,268.3z"/>
	<path class="st2" d="M377.3,328.5c-1.2-0.3-2.4-0.6-3.6-0.9c-6.5-1.7-10.5-7.8-9.5-14.5c0.1-0.9,0.5-1.2,1.4-1.1
		c3.6,0.4,7.3,0.8,10.9,1.3c1.2,0.1,0.8,1.1,0.9,1.8c0.6,3.6,2.6,5.2,5.5,4.5c1.6-0.4,2.7-1.4,3-3c0.3-1.6-0.4-2.8-1.7-3.7
		c-1.7-1.2-3.7-1.8-5.7-2.4c-1.8-0.6-3.7-1.2-5.4-1.9c-7.1-3-9.1-7.7-8.7-13.3c0.4-6.6,4.1-10.7,10.8-12.4c4.8-1.2,9.7-1.2,14.5,0
		c5.7,1.4,8.8,5.2,9.2,11c0.1,1.1-0.1,1.6-1.4,1.6c-3.2,0-6.3,0.2-9.5,0.4c-1.2,0.1-1.8-0.1-2-1.5c-0.3-2.6-2.1-3.8-4.7-3.4
		c-1.6,0.2-2.7,1-3.1,2.7c-0.3,1.6,0.2,2.8,1.7,3.7c2.4,1.4,5,1.9,7.5,2.8c1.2,0.4,2.5,0.7,3.7,1.2c6.4,2.7,9,7,8.6,13.9
		c-0.4,5.8-4.4,10.6-10.3,12.3c-1.1,0.3-2.3,0.3-3.3,0.9C383.1,328.5,380.2,328.5,377.3,328.5z"/>
	<path class="st2" d="M537,288c3.8-6.7,9.6-7.1,15.1-6.1c4.4,0.8,7.4,4.4,7.5,9.1c0.1,11.7,0,23.5,0,35.2c0,1.1-0.3,1.4-1.4,1.3
		c-4.3-0.4-8.7-0.6-13-0.9c-1.3-0.1-1.7-0.6-1.6-1.9c0.5-9,1-17.9,1.5-26.9c0-0.7,0-1.4,0-2.1c-0.1-2.3-1.2-3.4-3.5-3.5
		c-2.4-0.1-3.7,1-3.8,3.3c-0.1,6.6-0.1,13.2-0.1,19.8c0,3.2-0.1,6.3,0,9.5c0,1.3-0.4,1.7-1.7,1.6c-3.7-0.1-7.5-0.1-11.2,0
		c-1.6,0-2-0.5-2-2c0.1-8.7,0-17.4,0-26.2c0-0.9,0-1.8-0.1-2.7c-0.3-2.2-1.3-3.1-3.3-3.2c-2.2-0.1-3.3,0.8-3.7,3.1
		c-0.2,1.4-0.2,2.9-0.1,4.3c0.5,8.5,0.9,17,1.5,25.5c0.2,2.1-0.4,2.3-2.3,2c-4.2-0.6-8.4-0.9-12.6-1.3c-1.3-0.1-1.6-0.6-1.6-1.8
		c0-13.4,0-26.8,0-40.2c0-1.2,0.2-1.7,1.6-1.7c3.7,0.1,7.3,0.1,11,0c1.4,0,1.7,0.5,1.4,1.7c-0.2,0.9-0.4,1.9-0.6,2.8
		c-0.1,0.4-0.2,0.8,0.3,1c0.5,0.2,0.8-0.1,1-0.4c0.1-0.1,0.1-0.2,0.2-0.4c2.9-6.1,10.2-6.5,15.3-5.1C534,283,535.6,285.3,537,288z"
		/>
	<path class="st2" d="M316.4,288.9c2.4-5,6.1-7.1,11.1-7.1c5,0,8.7,1.7,10.9,6.7c2.8-5.3,7.1-6.9,12.4-6.6c6.7,0.4,10.2,4,10.3,10.7
		c0.1,9,0,18,0,27c0,2.1-0.1,4.1,0,6.2c0.1,1.3-0.4,1.7-1.7,1.6c-4.3-0.1-8.6-0.1-12.9,0c-1.5,0-1.7-0.6-1.6-1.9
		c0.5-9.6,0.9-19.2,1.4-28.8c0.1-2.7-0.9-4-3.4-4.1c-2.6-0.1-3.9,1.2-3.9,3.9c0,9-0.1,18,0,27c0,1.7-0.3,2.4-2.2,2.5
		c-3.5,0.2-7,0.7-10.5,1.2c-1.6,0.2-2.2-0.2-2.1-1.9c0.1-8.9,0-17.7,0-26.6c0-1,0-2.1-0.2-3.1c-0.3-1.9-1.5-2.9-3.5-2.9
		c-1.8,0-3,0.9-3.4,2.7c-0.4,1.8-0.2,3.6-0.1,5.3c0.5,8.2,0.9,16.3,1.5,24.5c0.1,1.6-0.3,2.1-1.9,2.1c-4.3-0.1-8.6-0.1-12.9,0
		c-1.3,0-1.6-0.4-1.6-1.7c0-13.8,0-27.6,0-41.4c0-1.2,0.3-1.5,1.5-1.5c3.7,0.1,7.5,0.1,11.2,0c1.4,0,1.6,0.5,1.4,1.7
		C316.2,285.7,316,287,316.4,288.9z"/>
	<path class="st2" d="M211.5,298.5c6.8,1.7,8.6,4.1,9.3,11.1c0.1,1.5,0.1,3,0.1,4.5c0.1,2.2,0.9,3.2,3.1,3.2c1.4,0,1.7,0.6,1.9,1.8
		c0.2,2.1,0.5,4.2,0.8,6.3c0.2,1.3-0.1,2.1-1.6,2.1c-4.3,0.1-8.6,0.3-12.8-0.3c-3.6-0.5-5.6-2.6-6.1-6.2c-0.4-2.9-0.5-5.7-0.4-8.6
		c0-0.6,0-1.2,0-1.9c-0.2-5.3-1.5-6.5-6.8-6.5c-4.1,0-4.1,0-3.8,4.1c0.4,5.9,0.8,11.8,1.3,17.6c0.1,1.6-0.4,1.9-1.8,1.9
		c-4.4,0.1-8.8,0.2-13.2,0.4c-1.6,0.1-1.9-0.5-1.9-2c0.1-9.9,0.3-19.8-0.1-29.6c-0.4-8.7-0.8-17.4-1.3-26.1c-0.1-1.3,0-1.8,1.5-1.8
		c8.6,0.1,17.1,0.1,25.7,0.1c1.9,0,3.7,0.2,5.5,0.6c6.4,1.6,9.6,5.7,10.3,13c0.3,2.8,0,5.6-0.8,8.4
		C219.2,295,216.4,297.5,211.5,298.5z M194.7,286.7c0,0,0.1,0,0.1,0c0,2.1,0,4.2,0,6.4c0,0.5-0.1,1.1,0.5,1.4c2.2,1.1,8-0.5,9.3-2.8
		c1.9-3.3,2.1-6.9,0.1-10.2c-1.8-2.8-4.8-2.8-7.8-2.3c-0.3,0.1-0.7,0.1-1,0.1c-1,0-1.3,0.4-1.3,1.4
		C194.7,282.7,194.7,284.7,194.7,286.7z"/>
	<path class="st2" d="M110.1,302.6c0,3.8,0,7.5,0,11.3c0,2.1,0.8,3.3,2.9,3.4c1.1,0,1.4,0.5,1.4,1.5c0.1,2.5,0.2,4.9,0.5,7.4
		c0.1,1.1-0.3,1.3-1.3,1.3c-3.8,0.1-7.6,0.1-11.4-0.4c-2.4-0.3-4.3-1.5-5.2-3.8c-0.6-1.4-1-1.2-1.7-0.1c-2.6,4.2-7.4,5.8-13.3,4.6
		c-4.9-1-7.4-3.8-8.4-9c-0.5-2.8-0.4-5.6,0.2-8.4c0.8-4,3.4-6.5,7-8c3.7-1.5,7.7-2,11.5-3.2c2.7-0.8,3.9-2.5,3.7-5.2
		c-0.2-2.2-1.4-3.5-3.5-3.6c-2.3-0.2-3.7,0.9-4.3,3c-0.8,3.1-0.8,3.1-4,2.6c-2.5-0.4-5-0.8-7.6-1c-1.5-0.1-1.6-0.7-1.5-2
		c0.8-5.6,5.7-10.1,12-11.1c4.3-0.7,8.5-0.6,12.8,0.3c6,1.3,9.5,5.3,9.7,11.4c0.1,2.9,0,5.9,0,8.9
		C109.9,302.6,110,302.6,110.1,302.6z M96.6,310.1c0-0.9,0-1.5,0-2.1c0-2.2-0.4-2.5-2.6-2.2c-4.8,0.7-6.9,3.2-6.6,8
		c0.1,2.6,1.6,4.5,3.8,4.7c2.3,0.2,4.3-1.2,5-3.8C96.6,313.1,96.7,311.5,96.6,310.1z"/>
	<path class="st2" d="M459.8,305.5c0-3.9,0.2-7.3,0.9-10.7c1.5-7.7,6.9-12.6,14.8-13.2c3-0.2,5.9-0.2,8.9,0.3
		c6.9,1.2,11.1,4.9,12.5,11.7c1.4,7.2,1.5,14.5,0,21.7c-1.7,7.8-6.5,11.8-15,12.7c-3.2,0.3-6.4,0.2-9.5-0.4c-7.2-1.4-11.1-6-12-13.8
		C459.9,310.8,459.7,307.9,459.8,305.5z M483.5,313.2C483.4,313.2,483.4,313.2,483.5,313.2c-0.2-3.2-0.4-6.4-0.6-9.7
		c-0.2-3.1-0.3-6.2-0.6-9.2c-0.2-2.4-1.7-3.4-4.1-3.3c-2.7,0.2-4,1.4-3.9,3.8c0.3,6.9,0.7,13.8,1.2,20.8c0.2,2.5,1.5,3.4,4.5,3.2
		c2.3-0.2,3.5-1.4,3.5-3.7C483.5,314.4,483.5,313.8,483.5,313.2z"/>
	<path class="st2" d="M163.5,307.4c-3.4,0-6.8,0-10.1,0c-1.2,0-1.7,0.3-1.7,1.6c0.1,2,0,4,0,6c0,2.7,1.2,4.1,3.6,4.4
		c3.1,0.4,5.2-0.7,6-3.1c0.4-1.1,0.5-2.3,0.5-3.5c0-1,0.5-1.3,1.4-1.2c3.5,0.5,7,0.9,10.5,1.3c1.2,0.1,1.4,0.7,1.4,1.8
		c-0.2,6.2-4.5,11.3-11,12.7c-4.5,0.9-9.1,0.8-13.6-0.1c-6.1-1.2-9.4-5.2-10.6-11c-1.5-7.1-1.6-14.3-0.2-21.5
		c1.6-8.2,5.6-11.9,14-13.1c3.3-0.5,6.6-0.4,9.9,0.3c6.8,1.4,10,6,11.3,12.4c0.8,3.9,0.6,7.8,0.6,11.7c0,1.2-0.7,1.3-1.6,1.3
		C170.4,307.4,167,307.4,163.5,307.4z M157.1,299.7c5.2,0,5.2,0,5.1-5.2c0-0.1,0-0.3,0-0.4c-0.1-1.4-0.8-2.5-1.9-3.2
		c-3.6-2.2-7.5-0.1-7.7,4C152.3,299.7,152.3,299.7,157.1,299.7z"/>
	<path class="st2" d="M434.7,305.7c0.1,2.7,0.2,6,0.5,9.2c0.2,2.5,1.3,3.6,3.5,3.8c2.5,0.2,3.9-0.7,4.6-3.2c0.5-1.7,0.4-3.5,0.4-5.3
		c0-1.1,0.3-1.7,1.5-1.5c3.5,0.5,7,0.9,10.5,1.3c1.5,0.2,1.3,1.2,1.2,2.1c-0.7,11.1-5.3,14.8-14.8,15.7c-3.2,0.3-6.5,0.1-9.7-0.5
		c-5.3-0.9-8.8-4-10.3-9c-2.8-9-2.7-18,0.2-26.9c1.9-5.7,6.1-8.9,12.2-9.7c3-0.4,6.1-0.5,9.1-0.2c8,0.9,12.4,5.6,13.2,13.9
		c0.4,4.5,0.4,4.5-4,4.5c-2.3,0-4.7-0.1-7,0c-1.7,0.1-2.2-0.6-2.1-2.1c0.1-1.3-0.1-2.6-0.5-3.9c-0.6-2.3-2-3.3-4.2-3.1
		c-2.2,0.1-3.5,1.3-3.8,3.6C434.7,298,434.9,301.5,434.7,305.7z"/>
	<path class="st2" d="M140.1,281.5c-0.9,3.5-1.7,6.7-2.5,10c-0.3,1.3-1.2,1.1-2.1,1.1c-3.6,0.1-3.6,0-3.6,3.6c0,5.5,0,11,0,16.5
		c0,3.9,0.7,4.5,4.6,4.7c1,0,1.5,0.2,1.6,1.3c0.3,2.4,0.8,4.7,1.2,7.1c0.2,1,0.1,1.4-1.2,1.5c-4.7,0.3-9.4,0.3-14.1-0.1
		c-4.4-0.4-6.6-3.2-6.7-8.4c-0.1-5.7,0-11.4-0.1-17.1c0-2.4-0.1-4.8,0-7.2c0.1-1.4-0.3-1.9-1.8-1.9c-3.2,0.1-3.2,0-3.2-3.1
		c0-0.3,0-0.5,0-0.8c0-3.6,0-3.7,3.7-4.2c1.2-0.1,1.3-0.7,1.3-1.6c0-3.8,0-7.7,0-11.5c0-1.1,0.1-1.8,1.5-1.9c4-0.4,8-0.9,11.9-1.4
		c1.2-0.2,1.2,0.6,1.1,1.4c-0.4,3.8-0.7,7.7-1.2,11.5c-0.2,1.7,0.2,2.2,1.9,1.9C134.9,282.2,137.3,281.9,140.1,281.5z"/>
	<path class="st2" d="M403.8,319c0-2.3,0-4.5,0-6.8c0-1.1,0.4-1.4,1.4-1.3c3.6,0.3,7.3,0.5,10.9,0.7c0.9,0,1.3,0.3,1.4,1.3
		c0.5,4.3,1,8.6,1.5,12.9c0.1,1.1-0.3,1.4-1.4,1.4c-4.2,0-8.4,0-12.6,0c-1,0-1.3-0.3-1.3-1.3C403.8,323.5,403.8,321.3,403.8,319z"/>
</g>
</svg>
