<?xml version="1.0" encoding="utf-8"?>
<!-- Generator: Adobe Illustrator 26.3.1, SVG Export Plug-In . SVG Version: 6.00 Build 0)  -->
<svg version="1.1" id="Layer_1" xmlns="http://www.w3.org/2000/svg" xmlns:xlink="http://www.w3.org/1999/xlink" x="0px" y="0px"
	 viewBox="0 0 595.3 595.3" style="enable-background:new 0 0 595.3 595.3;" xml:space="preserve">
<style type="text/css">
	.st0{fill:#FFFFFF;}
	.st1{fill:#3B0C80;}
</style>
<path class="st0" d="M297.6,595.3L297.6,595.3C133.3,595.3,0,462,0,297.6l0,0C0,133.3,133.3,0,297.6,0l0,0
	C462,0,595.3,133.3,595.3,297.6l0,0C595.3,462,462,595.3,297.6,595.3z"/>
<g>
	<path class="st1" d="M87.7,155.3c23.9-2.4,47.9-3.9,71.4-6.8c9.8-1.5,11.7,1,11.7,10.3c-2.9,68.9-5.4,137.8-7.8,206.7
		c0,2,0,3.9-0.5,5.9c-1,7.8,1.5,10.8,9.8,9.8c24.4-2.4,48.9-3.9,73.3-5.9c7.8-1,11.2,0.5,11.7,9.3c1,15.6,3.4,31.3,5.9,46.9
		c1,8.3,0,11.7-9.8,11.7c-55.2-0.5-110.5,0-166.2,0C87.7,347.4,87.7,251.6,87.7,155.3z"/>
	<path class="st1" d="M433.6,303c33.2,8.3,42,20,45.5,54.3c0.5,7.3,0.5,14.7,0.5,22c0.5,10.8,4.4,15.6,15.2,15.6
		c6.8,0,8.3,2.9,9.3,8.8c1,10.3,2.4,20.5,3.9,30.8c1,6.4-0.5,10.3-7.8,10.3c-21,0.5-42,1.5-62.6-1.5c-17.6-2.4-27.4-12.7-29.8-30.3
		c-2-14.2-2.4-27.9-2-42c0-2.9,0-5.9,0-9.3c-1-25.9-7.3-31.8-33.2-31.8c-20,0-20,0-18.6,20c2,28.8,3.9,57.7,6.4,86
		c0.5,7.8-2,9.3-8.8,9.3c-21.5,0.5-43,1-64.5,2c-7.8,0.5-9.3-2.4-9.3-9.8c0.5-48.4,1.5-96.8-0.5-144.7c-2-42.5-3.9-85-6.4-127.6
		c-0.5-6.4,0-8.8,7.3-8.8c42,0.5,83.6,0.5,125.6,0.5c9.3,0,18.1,1,26.9,2.9c31.3,7.8,46.9,27.9,50.3,63.5c1.5,13.7,0,27.4-3.9,41.1
		C471.2,285.8,457.5,298.1,433.6,303z M351.4,245.3h0.5c0,10.3,0,20.5,0,31.3c0,2.4-0.5,5.4,2.4,6.8c10.8,5.4,39.1-2.4,45.5-13.7
		c9.3-16.1,10.3-33.7,0.5-49.9c-8.8-13.7-23.5-13.7-38.1-11.2c-1.5,0.5-3.4,0.5-4.9,0.5c-4.9,0-6.4,2-6.4,6.8
		C351.4,225.7,351.4,235.5,351.4,245.3z"/>
</g>
</svg>
