<?xml version="1.0" encoding="utf-8"?>
<!-- Generator: Adobe Illustrator 26.3.1, SVG Export Plug-In . SVG Version: 6.00 Build 0)  -->
<svg version="1.1" id="Layer_1" xmlns="http://www.w3.org/2000/svg" xmlns:xlink="http://www.w3.org/1999/xlink" x="0px" y="0px"
	 viewBox="0 0 595.3 595.3" style="enable-background:new 0 0 595.3 595.3;" xml:space="preserve">
<style type="text/css">
	.st0{fill:#FFFFFF;}
	.st1{fill:#BE3734;}
	.st2{fill:#070707;}
</style>
<path class="st0" d="M297.6,595.3L297.6,595.3C133.3,595.3,0,462,0,297.6l0,0C0,133.3,133.3,0,297.6,0l0,0
	C462,0,595.3,133.3,595.3,297.6l0,0C595.3,462,462,595.3,297.6,595.3z"/>
<g>
	<path class="st1" d="M237.2,108.6c-9.7-0.7-19.7,0.4-29.6,2c-5.6,0.9-11.2,3.3-15.6,7c-5.5,4.5-5.5,11.2-4.3,17.6
		c1.8,9.5,6.6,17.8,11.4,26c12.7,21.6,28.5,41.1,43.2,61.3c11.8,16.3,23.4,32.5,30.9,51.3c0.5,1.3,1,1.9,2.9,1.4
		c31-9,63.2-13.1,93.7-24c11.2-4,22.2-8.3,32.2-14.9c3.5-2.3,7.1-4.1,11.4-4.6c5-0.6,8.3,2.6,7.3,7.6c-0.8,3.9-3.1,6.8-6.2,9.2
		c-4.5,3.6-9.7,5.7-14.9,8.2c-8.2,3.8-16.6,6.7-25.2,9.3c-30.3,9.3-61.6,13.9-92.3,21.2c-3.2,0.8-4.5,1.7-4.1,5.6
		c2.7,25.9-14.2,42.3-33.6,49.8c-16,6.2-32.6,7.5-49.4,2.5c-5.8-1.8-9.5-6-13.1-10.2c-3.4-4-2.4-11.8,1.4-17.2
		c5-7.1,11.9-11.9,19.4-16c8.9-4.8,18.1-9.2,27.7-12.3c8.3-2.8,16.3-6.4,24.8-8.3c2.4-0.6,3.3-1.2,2.2-4
		c-6.5-16.3-16-30.9-25.7-45.4c-12.9-19.3-27.4-37.6-39.7-57.4c-6.2-10-12.2-20.2-15.7-31.7C169,119,180.6,105,200.2,99
		c9.6-2.9,19.6-4.2,29.6-4.4c18.3-0.5,36.6,0,54.7,3.5c9.5,1.9,18.6,4.9,27.3,10c8.6,5.1,14.5,11.4,17.1,20.7
		c2.3,8.3,1.6,16.6-1.6,24.7c-4.3,10.8-9.9,20.8-17.8,29.6c-3.2,3.6-6,7.7-9.1,11.5c-3.8,4.5-9.1,5.6-14.4,5.7
		c-3.2,0.1-5-2.3-4.7-5.9c0.6-5.7,3.6-10.1,7.7-13.8c7.2-6.6,12.6-14.6,18.2-22.4c3.6-5,5.6-10.7,6.7-16.5
		c1.9-9.8-1.8-16.6-10.8-21.7c-8.7-4.9-18.4-7.2-28.1-8.8C262.6,109.3,250.2,108.1,237.2,108.6z M262.4,297.6
		c-1.1-1.2,1.7-5.4-2.5-4.3c-8.8,2.2-17.5,5-26.1,7.8c-8.3,2.8-15.7,7.6-23.3,11.6c-5.4,2.8-10.4,6.4-14.5,11.1
		c-2.7,3.1-2.4,4.4,1.3,6.2c8.2,4.2,17.4,3.6,25.9,2.9c5.9-0.4,12.2-2.9,17.9-5.8C253.1,321,261.8,312.4,262.4,297.6z"/>
	<path class="st2" d="M317.8,436.9c-1.5,0.2-2.4,0.4-3.2,0.5c-7.3,1-7.3,1-8.2,8.7c-0.1,1.3,0.2,2.9-1.7,2.9c-2,0-2.2-1.6-2-3.1
		c0.3-2.4,0.9-4.8,1.3-7.3c-1.8,0-3.7,0.1-5.6,0c-1.4-0.1-2.5-0.8-2.8-2.3c-0.2-1.3,0.5-2.2,1.4-3c1.5-1.4,3.1-0.1,2.8,0.9
		c-1,3.3,1.5,2.3,2.8,2.5c1.8,0.3,2.5-0.8,2.7-2.6c0.4-2.6,1.2-5.1,1.7-7.6c0.5-2.9-0.9-4.5-3.9-4.4c-13.1,0.5-26,8.9-30.9,19.5
		c-2.1,4.6-0.8,8.4,2.6,11.9c4.1,4.1,9.2,6.5,13.8,9.8c10.6,7.6,10.3,13.7-1.3,19.7c-6.8,3.5-14,5.3-21.5,6.4
		c-2.2,0.3-5.5,0.9-5.9-2c-0.4-3.1,3-4.2,5.3-5.6c0.3-0.2,0.9,0,1.2,0.3c0.5,0.5,0.3,1.1-0.2,1.5c-1.3,1-2.7,2-4.3,3.2
		c2.6,1.8,4.9,0.5,6.9,0.1c7.7-1.2,14.9-3.7,21.1-8.4c4.5-3.3,4.6-7.3,0.3-10.8c-4.7-3.7-9.7-6.9-14.5-10.4
		c-7.8-5.6-9-13.3-3.3-21.1c7.5-10.3,18.1-16.1,31.5-16.9c-4.4-4.1-7.3-8.6-7.7-14.6c-0.7-10.5,6.7-19.5,17.2-20.2
		c6.6-0.5,13-0.4,18.6,4.1c6.6,5.3,7.9,12.3,6.3,20c-1.6,7.4-8.1,12.3-15.8,13.6c-4.2,0.7-8.4-0.3-12.7-0.1
		c1.4,3.9,0.2,7.3-0.7,10.8c-0.6,2.3-0.3,3.5,2.5,3.2c3.3-0.4,7.2,1,8.5-3.8c0.4-1.5,1.2-2.7,2.9-2.8c0.9,0,1.6,0.6,1.9,1.5
		c0.7,2-1.7,2-2.2,4c5.4-0.3,10.6-0.4,15.8-0.9c14.7-1.4,29.4-0.5,44.1,0.1c1,0,2.3,0,2.2,1.4c-0.1,1.3-1.2,1.5-2.3,1.4
		c-4.6-0.3-9.3-0.5-13.9-1.1c-14.4-1.7-28.8-0.5-43.2,0.3c-3,0.2-4.4,1.6-5.5,4.4c-5,12.6-10.1,25.2-12.5,38.6
		c-0.4,2.4-1.6,5.6,0.4,7c2.3,1.6,4.4-1.4,6.1-2.8c6.5-5.2,12.6-10.9,18.1-17.1c1.5-1.6,3-3.1,4.9-4.2c4-2.2,6-1.3,6.9,3.1
		c0.8,4.3,2.3,5.1,6.7,4.2c4.1-0.9,7.6-2.9,10.3-6.1c0.8-1,1.2-2.3,2.9-1.8c1.9,0.5,0.5,2.3,1.3,3.4c1.6-1.3,3.1-2.6,4.7-3.8
		c1.1-0.9,2.2-2,3.9-0.8c1.5,1.1,1,2.5,1,3.9c0,1.6-1.4,2.9-0.9,4.8c5.5-1.4,10.3-4.8,16.1-5.3c0.9-0.1,1.6-1.6,2.4-2.4
		c1.7-1.6,3.7-2.4,6-1.7c1.8,0.5,2,2,1.7,3.5c-0.4,1.6-1.9,1.6-2.8,0.9c-1.5-1.2-2.5-1-3.7,0.3c-0.9,1-0.6,2,0.5,2.5
		c1.6,0.8,1.9,4.1,4.6,2.6c3.6-1.9,7-4.1,10.5-6c1.5-0.8,3.4-1.9,4.4,0.5c1,2.4-1.4,2.2-2.7,2.7c-3.9,1.5-7.4,3.8-11.1,5.8
		c-1.4,0.7-1.6,2-2,3.2c-0.9,2.8-2.7,4.8-5.1,6.2c-1.6,0.9-3.5,1.6-4.7,0c-1.1-1.3-0.3-3.1,0.8-4.4c1.1-1.2,2.4-2.2,3.4-3.4
		c0.9-1,3.4-1.5,2.4-3c-1.1-1.7-2.8-4.1-5.1-3.4c-7.8,2.2-16.6,2.4-20.7,11.7c-3,6.8-7.6,12.6-13.3,17.6c-1.9,1.7-4,2.9-6.4,3.6
		c-2.5,0.7-5,0.6-6.8-1.6c-1.9-2.3-1.2-4.7,0.2-6.8c4.2-6.3,10.1-10.8,16.3-14.9c2.4-1.6,4.9-3.2,7.5-4.3c3.5-1.5,4.8-4.2,5-8.6
		c-2.2,1.8-3.8,3.4-5.7,4.6c-1.5,1-3.3,2.8-5.1,0.1c-0.8-1.2-1.4-0.1-2.1,0.3c-2.3,1.2-4.6,2.4-7.2,2.8c-5.5,0.8-7.2-0.1-9.1-4.7
		c-11,2.6-17.9,11.4-26.3,17.9c-0.3,0.3-0.7,0.5-1.1,0.8c-2.5,1.6-4.9,4.6-8,2.4c-3.1-2.1-2.3-5.7-1.8-8.9
		c2.2-14,7.4-27.2,12.4-40.4C317.4,438.5,317.5,438,317.8,436.9z M317.5,390.5c-7.5,0-13,5.4-13,12.8c0,7.4,5.4,12.7,13,12.7
		c7.5,0,13.2-5.3,13.2-12.6C330.8,395.9,325.2,390.4,317.5,390.5z M367.5,475.7c-8.8,4.7-15.6,9.7-21.3,16.3c-1.2,1.4-3.2,3-1.8,4.8
		c1.5,2,3.9,1,5.9,0c0.8-0.4,1.5-0.9,2.2-1.4C359,490.5,363,483.7,367.5,475.7z"/>
	<path class="st2" d="M357.3,421.9c-2.7,0-6.2,0-9.8,0c2.2-3.7,2.2-33.7,0-37.4c4.1,0,8.2,0,12.9,0c-2.4,2-1.1,3.5,0.4,4.8
		c6.7,6,13.5,11.9,19.2,16.9c-0.4-5.5,0.8-13.4-0.6-21.5c2.8,0,6.4,0,9.8,0c-2.2,3.7-2.2,33.5,0.1,37.1c-0.9,0.1-1.8,0.2-2.6,0.1
		c-3.4-0.5-6.4,0.8-9.6-3.7c-5.4-7.6-13.5-13.4-20.2-19.6C357.1,405.6,356.2,413.7,357.3,421.9z"/>
	<path class="st2" d="M419.2,384.1c8.6-0.3,15.6,2.8,19.3,10.7c3.4,7.2,2.6,14.4-2.5,20.8c-6.7,8.3-22.7,9.5-31.7,2.3
		c-7.6-6.1-8.8-18.3-2.5-26.6C405.3,386.4,411,384.1,419.2,384.1z M418.6,416c7.7,0.2,13.6-5.2,13.7-12.6
		c0.1-7.1-5.3-12.7-12.5-12.9c-8-0.2-13.6,4.8-13.7,12.3C405.9,410.4,411.1,415.8,418.6,416z"/>
	<path class="st2" d="M238,403.2c0,11.5-8.8,19.6-21.5,19.5c-12.4-0.1-21.3-8.1-21.4-19.3c-0.1-11.6,8.5-19.2,21.7-19.2
		C229.6,384.1,237.9,391.6,238,403.2z M216.7,416c7.6,0,13-5.3,13-12.7c0-7.6-5.5-12.8-13.4-12.8c-7.6,0-12.6,5.2-12.5,13
		C203.8,411.1,208.9,416,216.7,416z"/>
	<path class="st2" d="M275.7,384.5c4.2,0,7.9,0,11.7,0c-2.1,4.1-2,33.8,0.3,37.2c-4,0-7.8,0-11.6,0c3.3-4.6,1.2-9.9,1.8-14.8
		c0.2-1.3-1-1.5-2.1-1.5c-5.8,0-11.7,0-17.5,0c-0.7,0-1.8,0-1.7,0.8c0.3,5.1-1.4,10.3,1.2,15.4c-3.5,0-7.2,0-10.8,0
		c2.3-4.2,2.2-33.5-0.4-37c4,0,7.7,0,11.5,0c-3.1,4.1-1.2,8.8-1.6,13.3c-0.2,1.6,1.2,1.3,2.1,1.3c5.7,0,11.4,0,17.1,0
		c0.9,0,2.4,0.5,2.2-1.1C277.3,393.6,279.5,388.8,275.7,384.5z"/>
	<path class="st2" d="M154.7,422c2.3-4.3,2.2-33.5-0.1-37.4c3.8,0,7.5,0,11.7,0c-1.9,1.6-2,3.6-2,5.7c0.1,7.4,0.1,14.8,0,22.3
		c0,2.3,0.3,3.4,3,3.3c6-0.2,11.9-0.1,17.9,0c1.7,0,3.1-0.5,4.5-1.9c0,3.4,0,6.3,0,9c-5.6-1.9-11.4-0.6-17.1-0.9
		C166.8,421.8,160.8,422,154.7,422z"/>
</g>
</svg>
