<?xml version="1.0" encoding="utf-8"?>
<!-- Generator: Adobe Illustrator 26.3.1, SVG Export Plug-In . SVG Version: 6.00 Build 0)  -->
<svg version="1.1" id="Layer_1" xmlns="http://www.w3.org/2000/svg" xmlns:xlink="http://www.w3.org/1999/xlink" x="0px" y="0px"
	 viewBox="0 0 595.3 595.3" style="enable-background:new 0 0 595.3 595.3;" xml:space="preserve">
<style type="text/css">
	.st0{fill:#FFFFFF;}
	.st1{fill:#CF381D;}
</style>
<path class="st0" d="M297.6,595.3L297.6,595.3C133.3,595.3,0,462,0,297.6l0,0C0,133.3,133.3,0,297.6,0l0,0
	C462,0,595.3,133.3,595.3,297.6l0,0C595.3,462,462,595.3,297.6,595.3z"/>
<path class="st1" d="M506.8,164.5c-4.5-23.5-16.2-42.7-34.6-57.6c-15.7-12.4-33.1-19.9-53.5-19.7c-80.3,0-160.6,0-240.9,0
	c-1,0-2-0.3-3,0.3c-3.5,0-7.1,0.5-10.6,1.3c-31.1,6.6-53.8,24-67.9,52.3c-6.6,13.1-9.3,27.3-9.3,41.9c0,6.6,0,13.1,0,19.9
	c0,69.4,0,139.1,0,208.5c0,6.1,0.5,12.4,1.5,18.4c8.6,45.4,46.2,74,84.1,77.3c2.3,0.3,4.5,0.3,6.8,1c78.8,0,157.3,0,236.1,0
	c1-0.5,2-0.3,2.8-0.3c8.8,0,17.4-1.5,25.8-4.5c26-9.3,44.9-26.8,56.3-52c5.3-11.9,8.1-24.5,8.1-37.4c0-77.8,0-155.5,0-233
	C508.3,175.1,507.8,169.8,506.8,164.5z M472.7,231.2c-7.1,12.6-13.9,25.2-20.4,37.9c-12.1,23.2-24.2,46.7-35.3,70.7
	c-7.3,15.7-12.9,32.1-17.9,48.7c-2.8,9.3-5.3,18.9-7.1,28.8c-1.5,7.6-1.5,15.1-0.5,23c0.8,6.1,2,11.9,3.5,17.7
	c0.5,1.5,0.5,3,0.8,4.5c0.3,7.3-3.5,10.1-9.3,11.1c-8.8,1.5-16.9-2.3-21.5-10.1c-3-5-4.5-10.6-4.5-16.7c-0.5-14.4,2-28.5,6.1-42.2
	c4-14.4,9.6-28.3,15.4-42.2c0.5-1,1-2.3,1.3-3.8c-2.3,0.5-4,1-6.1,1.5c-3.5,0.8-7.3,0.8-10.9,0c-6.1-1-10.9-4-14.4-9.1
	c-3.8-5.3-5.6-11.4-6.3-17.7c-0.8-7.1,0-13.9,1.5-21c-1,0.5-1.5,1.3-2,2c-9.8,13.1-19.4,26.3-29.3,39.6c-3.3,4.3-6.8,8.3-11.6,11.1
	c-4.3,2.5-8.8,3.8-13.9,2.8c-6.1-1-9.8-4.5-11.9-10.4c-1-2.8-1.3-5.8-1.3-8.8c0.5-7.1,0.8-14.1,1.3-21.5c0.8-8.3,1.5-16.9,2.5-25.2
	c0.5-4.3,1-8.6,1.5-12.9c-1-0.3-1,0.5-1.5,0.8c-1.5,1.8-2.5,4-3.8,6.1c-7.6,12.4-16.2,24-24.7,35.6c-5.6,7.3-11.1,14.4-16.2,22
	c-2.3,3.5-5.3,6.8-8.3,9.8c-5,4.8-13.9,4.8-19.2,0.3c-2.3-2-3.5-4.3-3.5-7.3c-0.3-5,0.8-9.8,1.5-14.6c1.5-10.9,3-21.7,4.5-32.6
	c0.8-5,1.3-9.8,2-14.9c0-0.8,0.3-1.5,0.3-2.5c-1.3,0-1.8,0.8-2.5,1.5c-2,1.8-3.8,4-5.6,6.3c-12.6,16.4-23.7,33.8-34.3,51.8
	c-1.5,2.5-3.3,5.3-4.8,7.8c-0.8,1.5-1.8,2.8-3,4c-4.5,4.8-10.4,5.8-15.9,3.3c-5.6-2.8-8.6-8.3-7.8-14.6c0.8-5.3,2.3-10.6,3.5-15.7
	c6.3-26.5,12.6-53.3,18.9-79.8c0.8-3.3,1.5-6.3,1.8-9.6c0-0.5,0.3-1-0.3-1.8c-1.8,0.3-3,1.3-4.3,2.5c-1.8,1.8-3,3.8-4.3,6.1
	c-1.3,2.5-2.5,5-4.3,7.3c-3.3,4.3-7.3,5.6-12.4,4.3c-5.6-1.5-8.6-6.3-7.8-12.4c0.3-2.3,0.8-4.8,1.8-6.8c3.3-7.8,7.3-15.1,12.1-22.2
	c4.3-6.3,9.8-11.4,16.9-14.1c3-1.3,6.1-2.3,9.3-2.3c9.6,0,14.4,4,15.9,12.9c1,5.6,0.5,11.4-0.3,16.9c-2.5,15.1-5.3,30-7.8,44.9
	c-0.5,2.5-0.5,5,0,7.6c2.8-1.3,4.3-3,5.8-5c14.9-20.2,29.5-40.6,44.4-60.8c2-2.5,3.8-5.3,6.3-7.6c4.8-4.3,10.4-5.6,16.4-3.3
	c6.1,2,8.6,6.6,7.3,12.9c-0.3,1.5-0.8,3-1.3,4.5c-7.3,22.7-14.6,45.4-21,68.7c-1,3.8-1.3,5.3-0.8,8.6c0.8,0.3,1-0.5,1.5-1
	c2.5-3,4.8-6.6,7.1-9.8c12.1-18.7,24.5-37.1,38.1-54.5c2.5-3.3,5-6.3,7.8-9.3c1.5-1.5,3-3,4.5-4.3c4.5-3.5,9.6-4.3,14.9-3
	c5.6,1.3,9.1,5.6,9.6,11.6c0.3,3.8-0.3,7.3-1.3,10.9c-3.5,12.6-6.8,25.2-9.6,37.9c-2.3,10.4-4,21-5.6,31.6c-0.3,2.5-0.5,5.3-0.5,7.8
	c0,1.3,0.3,2.5,0.8,3.8c0.5,1.5,1,1.8,2.5,0.8c1.3-0.8,2-1.8,3-3c6.3-8.1,11.9-16.4,17.4-24.7c7.1-10.9,14.1-22,20.7-33.1
	c2.5-4.3,4.8-8.8,7.1-13.6c4.8-9.8,9.6-19.7,14.4-29.8c2.5-5.3,5.6-10.6,10.4-14.6c4-3.5,8.6-4.3,13.6-2.8c7.3,2,10.6,8.1,8.8,15.7
	c-0.8,3-2,6.1-3.5,8.8c-11.4,21.5-18.9,44.2-25,67.4c-1.3,4.5-2,8.8-1.8,13.6c0,2.8,0.5,5.6,1.5,8.3c1.8,4.5,5.8,6.8,10.6,5.6
	c3.3-0.8,6.1-2.8,8.6-5c4-3.8,6.8-8.6,9.6-13.4c15.9-28.5,31.8-57.1,47.7-85.6c2.5-4.5,5.8-7.6,10.9-9.1c3.8-1,7.6-1,11.1,0.5
	c3.3,1.3,4.8,3.8,4.8,7.1C475.5,224.8,474.5,228.1,472.7,231.2z"/>
</svg>
