<?xml version="1.0" encoding="utf-8"?>
<!-- Generator: Adobe Illustrator 26.3.1, SVG Export Plug-In . SVG Version: 6.00 Build 0)  -->
<svg version="1.1" id="Layer_1" xmlns="http://www.w3.org/2000/svg" xmlns:xlink="http://www.w3.org/1999/xlink" x="0px" y="0px"
	 viewBox="0 0 595.3 595.3" style="enable-background:new 0 0 595.3 595.3;" xml:space="preserve">
<style type="text/css">
	.st0{fill:#FFFFFF;}
	.st1{fill:#D21235;}
</style>
<path class="st0" d="M297.6,595.3L297.6,595.3C133.3,595.3,0,462,0,297.6l0,0C0,133.3,133.3,0,297.6,0l0,0
	C462,0,595.3,133.3,595.3,297.6l0,0C595.3,462,462,595.3,297.6,595.3z"/>
<g>
	<path class="st1" d="M85.1,299.3c0-38.6,7.7-71.4,24.1-102.2c9.2-16.9,19.8-32.3,33.3-46.3c9.2-9.6,19.8-18.8,30.4-27
		c1.9-1.4,2.9-1.9,3.9,1c17.4,36.2,35.2,71.9,53.1,108c6.3,13,10.6,27,11.1,41.5c1,17.4-5.3,32.8-15,47.3
		c-11.1,16.9-26,28.9-45.3,35.2c-8.7,2.9-17.8,2.9-26.5,2.9c-12.5-0.5-24.6-1.9-36.2-6.3c-9.6-3.4-18.8-8.2-27-14.5
		c-1.4-1-1.9-2.4-2.4-4.3C86.5,321.4,85.1,308.4,85.1,299.3z"/>
	<path class="st1" d="M480.5,397.6C433.3,294.4,387,191.7,339.7,88.5c70.9,13.5,122,52.6,151,117.7
		C519.1,270.8,517.2,334.9,480.5,397.6z"/>
	<path class="st1" d="M125.1,415c62.7,6.3,133.1-49.2,136-113.3c3.4,7.2,6.8,14.5,9.6,21.7c6.3,14.5,13,28.5,19.3,42.9
		c9.2,20.3,18.3,40.5,27.5,61.3c8.2,17.8,15.9,35.7,24.1,53.5c1,1.9,1,2.9,0,4.8c-3.9,9.6-11.6,14.5-20.7,17.8
		c-13,4.8-27,4.8-40.5,3.9c-15-1-29.4-4.3-43.9-9.2c-24.6-8.2-47.3-19.3-68-34.7c-15.4-11.6-28.9-24.6-39.1-40.5
		C128,419.8,126.1,417.9,125.1,415z"/>
	<path class="st1" d="M256.3,87.5c6.3-1.4,9.6,1.9,12.5,8.2c15.4,35.2,31.8,69.9,47.7,104.7c13,28.5,26,57.4,39.5,85.9
		c16.4,36.2,33.3,72.3,49.7,109c8.2,17.8,16.4,35.7,24.6,53.5c0.5,1.4,0.5,2.4,0.5,3.9c-3.4,11.1-11.6,17.8-21.7,22.7
		c-1.9,1-2.4,0-3.4-1.9c-4.8-10.6-9.6-21.2-14.5-31.8c-13-28.5-26-56.9-39.1-84.9c-13.5-29.4-27-59.3-40.5-88.7
		c-15-32.8-29.9-65.6-44.9-97.9c-11.1-23.6-21.7-47.3-32.8-71.4c-1-1.9-1-2.9,1-4.3C240.8,89.9,247.6,87,256.3,87.5z"/>
</g>
</svg>
