<?xml version="1.0" encoding="utf-8"?>
<!-- Generator: Adobe Illustrator 26.3.1, SVG Export Plug-In . SVG Version: 6.00 Build 0)  -->
<svg version="1.1" id="Layer_1" xmlns="http://www.w3.org/2000/svg" xmlns:xlink="http://www.w3.org/1999/xlink" x="0px" y="0px"
	 viewBox="0 0 595.3 595.3" style="enable-background:new 0 0 595.3 595.3;" xml:space="preserve">
<style type="text/css">
	.st0{fill:#FFFFFF;}
	.st1{fill:#D21235;}
</style>
<path class="st0" d="M297.6,595.3L297.6,595.3C133.3,595.3,0,462,0,297.6v0C0,133.3,133.3,0,297.6,0h0
	C462,0,595.3,133.3,595.3,297.6v0C595.3,462,462,595.3,297.6,595.3z"/>
<g id="_x31_hMl1d.tif_00000051361779663238210660000006671357093765192618_">
	<g>
		<path class="st1" d="M194.7,301.2c-0.5,1.1-1,2.2-1.5,3.3c-1.7,3.7-3.4,7.4-5.1,11.1c-1.9,4.2-4,8.3-6.2,12.3
			c-2.6,4.8-5.4,9.5-9,13.7c-2.2,2.6-4.7,5-7.9,6.5c-3.1,1.5-6.3,1.9-9.7,1.5c-3.4-0.4-6.6-1.4-9.8-2.7c-0.8-0.3-1.5-0.8-2.2-1.4
			c-0.4-0.3-0.3-0.6-0.1-1c1.6-2.6,3.1-5.2,4.7-7.7c2-3.4,4.1-6.7,6.1-10.1c0.3-0.4,0.5-0.6,1-0.5c1.7,0.2,3.3,0.5,5,0.6
			c2.7,0.3,5.2-0.4,7.6-1.5c4-1.7,7.1-4.5,9.9-7.7c3.4-4.1,6.2-8.6,8.6-13.4c1.8-3.7,3.6-7.4,5.4-11.1c0.2-0.3,0.2-0.6,0-1
			c-3-6.4-5.9-12.7-8.9-19.1c-2.5-5.4-5-10.9-7.6-16.3c-0.2-0.4-0.2-0.6,0.3-0.9c4.7-2.4,9.4-4.8,14.2-7.3c1.8-0.9,3.5-1.8,5.3-2.8
			c0.4-0.2,0.6-0.1,0.7,0.3c1.1,2.5,2.3,5,3.4,7.5c2.2,4.7,4.3,9.4,6.5,14.1c2.7,5.9,5.4,11.9,8.2,17.8c2.7,5.9,5.4,11.7,8.1,17.6
			c0.4,1,0.9,1.9,1.4,3c0.4-0.8,0.7-1.4,1-2c1.8-3.7,3.6-7.4,5.4-11.1c0.3-0.5,0.3-0.9,0-1.4c-1.5-3.3-2.9-6.7-4.4-10.1
			c-2.6-5.8-5.1-11.7-7.7-17.5c-0.9-2-1.7-4-2.6-6c-0.2-0.4-0.1-0.5,0.2-0.7c6.2-3,12.3-6.1,18.5-9.2c0.5-0.2,0.6,0,0.7,0.3
			c1.4,3.1,2.9,6.3,4.3,9.4c1.4,3,2.7,6.1,4.1,9.1c2.3,5.1,4.6,10.3,7,15.4c3.2,7.1,6.4,14.2,9.6,21.3c3.3,7.3,6.6,14.5,9.9,21.8
			c2.2,4.9,4.4,9.9,6.7,14.8c0.3,0.6,0.1,0.6-0.4,0.6c-6.1,0-12.2,0-18.3-0.1c-1.5,0-3.1-0.1-4.6-0.1c-0.3,0-0.5-0.1-0.6-0.4
			c-1.9-4.2-3.8-8.3-5.6-12.5c-1.4-3.1-2.8-6.2-4.2-9.2c-2.3-5-4.5-10-6.8-15c-0.6-1.2-1.1-2.5-1.7-3.8c-1,2.1-2,4.2-3,6.2
			c-1.2,2.5-2.4,5-3.6,7.5c-0.2,0.4-0.2,0.7,0,1c2.4,5.4,4.7,10.8,7.1,16.2c1.5,3.4,3,6.8,4.4,10.3c0,0.1,0,0.1,0.1,0.3
			c-0.3,0-0.5,0-0.7,0c-7.8,0-15.7,0-23.5,0c-0.6,0-0.9-0.2-1.1-0.7c-2.3-5-4.6-9.9-6.9-14.9c-2.3-4.9-4.6-9.8-6.9-14.7
			c-1.5-3.3-3.1-6.6-4.6-9.9C194.9,301.4,194.8,301.3,194.7,301.2z"/>
		<path class="st1" d="M274.8,286.6c0.3-1.8,0.6-3.4,0.9-5.1c0.5-2.5,1.1-5,2.2-7.4c0.8-1.6,1.9-3.1,3.2-4.3
			c0.7-0.6,1.7-0.8,2.6-1.2c3.9-1.5,7.9-2.3,12-2.7c2.6-0.2,5.2-0.2,7.7-0.2c4.1,0,7.7,1.5,10.8,4.2c2.7,2.4,4.5,5.3,5.2,8.9
			c0.4,2,0.5,4.1,0.5,6.1c0,12.5,0,25.1,0,37.6c0,2.5,0.9,4.8,2.2,6.9c0.4,0.7,0.9,1.4,1.3,2.1c-0.2,0.2-0.4,0.1-0.6,0.1
			c-5.5,0-11,0-16.6,0c-0.5,0-0.8-0.1-1.1-0.5c-1.7-1.8-2.6-3.9-3.1-6.2c0-0.2,0-0.4-0.2-0.6c-1.3,1.1-2.6,2.2-4,3.1
			c-2.8,1.9-5.7,3.5-9,4.4c-3.3,0.9-6.4,0.5-9.4-1.3c-4.5-2.7-7.3-6.7-9-11.5c-1-2.8-1.5-5.7-1.3-8.7c0.3-4.3,1.3-8.4,3.9-12
			c1.9-2.6,4.3-4.6,7.1-6.2c3.4-2,7-3.4,10.7-4.8c2.8-1,5.5-2.1,8.2-3.4c1.1-0.6,2.1-1.4,2.7-2.6c0.9-1.8,0.2-4.6-2.9-5.1
			c-4.7-0.8-9.1,0.3-13.2,2.5c-3.7,2-6.9,4.6-10.1,7.3C275.2,286.3,275,286.4,274.8,286.6z M301.6,307.2c0.1-3.3-0.4-7.3-0.6-11.3
			c-0.1-2.7-1.7-3.3-3.7-3c-1.3,0.2-2.5,0.7-3.7,1.4c-3.6,2.3-6,5.5-7.4,9.5c-1.2,3.6-1.3,7.2-0.9,10.9c0.1,1.2,0.5,2.4,1.1,3.4
			c1.1,1.8,2.9,2.4,4.8,2.5c2.6,0.1,4.8-1,6.9-2.5c1.6-1.1,2.5-2.7,3-4.6C301.6,311.7,301.6,309.8,301.6,307.2z"/>
		<path class="st1" d="M487.4,297.9c0.2,3.2,0.1,6.5,0,9.7c-0.3,6.2-2.9,11.2-7.5,15.3c-2.2,2-4.5,4-7,5.7c-2.9,2-5.9,3.6-9.5,4.2
			c-2.8,0.5-5.4-0.1-7.9-1.2c-3.8-1.7-7.3-3.8-10.5-6.5c-3.7-3.2-6.6-7-7.6-11.9c-0.2-0.8-0.3-1.5-0.3-2.3
			c-0.1-4.8-0.5-9.6-0.4-14.5c0.1-3.5,0.3-7,0.9-10.5c0.2-1.1,0.1-2.2,0.4-3.3c0.8-2.9,2.5-5.4,4.9-7.3c2.2-1.7,4.5-3.3,6.9-4.5
			c3.8-1.9,7.5-3.9,11.7-5c3.4-0.9,6.4-0.2,9.3,1.7c3.5,2.3,6.8,4.9,9.7,8c1.6,1.7,3,3.5,4.2,5.5c0.8,1.3,1,2.8,1.4,4.3
			c1,3.4,0.9,6.8,1.3,10.3C487.4,296.2,487.4,297,487.4,297.9z M470.6,296.6c0.1-2.1-0.3-3.9-0.4-5.7c-0.2-2.5-0.3-5-0.8-7.5
			c-0.5-2.4-1.4-4.6-3.2-6.4c-1-1-2.1-1.9-3.7-1.8c-1.9,0.2-3.3,1.3-4.3,2.8c-1.8,2.5-2.5,5.5-2.7,8.5c-0.3,3-0.4,6.1-0.6,9.1
			c-0.2,3-0.1,6.1,0.2,9.1c0.2,2.8,0.6,5.6,1,8.4c0.2,1.6,0.4,3.2,1.1,4.7c0.7,1.5,1.4,3,2.8,3.9c1,0.7,2,1.2,3.2,0.9
			c2-0.5,3.5-1.8,4.5-3.5c2.2-4.1,2.9-8.7,3.1-13.3C470.7,302.7,470.7,299.5,470.6,296.6z"/>
		<path class="st1" d="M512.5,245.5c0,2.8,0,5.5,0,8.2c0,4,0,7.9,0,11.9c0,0.4,0.2,0.4,0.5,0.4c2.6,0,5.1,0,7.7,0
			c0.4,0,0.5,0,0.4,0.4c-0.6,1.7-1.3,3.3-1.9,5c-0.2,0.4-0.4,0.6-0.9,0.6c-1.7,0-3.4,0-5.1,0c-0.5,0-0.6,0.1-0.6,0.6
			c0,16.9,0,33.7,0,50.6c0,3,1.1,5.8,3.2,8.1c0.1,0.1,0.2,0.2,0.2,0.3c-0.2,0.1-0.5,0.1-0.7,0.1c-4.8,0-9.7,0-14.5,0
			c-0.9,0-1.6-0.3-2.3-0.9c-1.9-1.5-2.8-3.6-3.4-5.8c-0.9-3.3-1.1-6.6-1.3-10c-0.3-6.2-0.3-12.4-0.2-18.6c0.1-7.9,0-15.8,0.1-23.7
			c0-0.7-0.2-0.8-0.8-0.8c-2.9,0-5.7,0-8.6,0c-0.6,0-0.7-0.1-0.4-0.7c0.6-1.4,1.2-2.8,1.7-4.1c0.2-0.4,0.4-0.5,0.8-0.5
			c2.2,0,4.4,0,6.7,0c0.6,0,0.7-0.2,0.7-0.7c0-4.2,0-8.3,0-12.5c0-0.7,0.2-0.9,0.8-1.2c5.8-2.1,11.6-4.3,17.3-6.5
			C512.1,245.6,512.3,245.6,512.5,245.5z"/>
		<path class="st1" d="M551.3,245.5c0,2.7,0.1,5.3,0,7.8c-0.1,3.5,0,7-0.1,10.6c0,0.5,0,1.1,0,1.6c0,0.5,0.2,0.6,0.6,0.6
			c2.2,0,4.5,0,6.7,0c1.4,0,1.4,0,0.9,1.2c-0.5,1.4-1.1,2.8-1.6,4.3c-0.1,0.4-0.3,0.5-0.8,0.5c-1.7,0-3.4,0-5.1,0
			c-0.5,0-0.7,0.1-0.7,0.6c0,16.8,0,33.6,0,50.4c0,3.1,1.1,6,3.3,8.3c0.1,0.1,0.2,0.1,0.2,0.3c-0.2,0.1-0.5,0.1-0.7,0.1
			c-4.8,0-9.5,0-14.3,0c-1.3,0-2.2-0.4-3.1-1.3c-1.5-1.5-2.3-3.4-2.9-5.4c-0.7-2.5-0.9-5.1-1.1-7.6c-0.5-6.5-0.4-13.1-0.3-19.6
			c0.1-8.4,0-16.7,0.1-25.1c0-0.7-0.1-0.9-0.8-0.8c-2.9,0-5.7,0-8.6,0c-0.6,0-0.7-0.1-0.5-0.7c0.6-1.3,1.1-2.7,1.7-4
			c0.2-0.5,0.4-0.7,1-0.7c2.2,0,4.3,0,6.5,0c0.6,0,0.8-0.2,0.8-0.8c0-4.1,0-8.3,0-12.4c0-0.7,0.2-0.9,0.8-1.2
			c5.8-2.2,11.6-4.3,17.4-6.5C550.9,245.6,551.1,245.6,551.3,245.5z"/>
		<path class="st1" d="M349.2,331.6c-0.3,0.1-0.5,0.1-0.7,0.1c-5.2,0-10.4,0-15.7,0c-0.4,0-0.8-0.1-1.1-0.4c-2.5-2.2-3.7-5-4-8.2
			c-0.5-4.3-0.2-8.5-0.3-12.8c-0.1-6.8,0-13.5,0-20.3c0-5.5-0.1-11-0.2-16.5c0-2.1-0.5-4.2-1.8-6c-0.1-0.1-0.2-0.3-0.3-0.4
			c0.3-0.2,0.5-0.1,0.8-0.1c5.4,0,10.7,0,16.1,0c1,0,1.6,0.4,1.9,1.2c0.4,0.8,0.7,1.7,1,2.5c0.2,0.5,0.3,0.5,0.8,0.2
			c1.3-1.1,2.5-2.3,4.1-3.1c4.5-2.1,8.8-1.9,13,0.7c1,0.6,1.8,1.3,2.6,2.1c0.3,0.3,0.4,0.6,0.1,1.1c-2.3,3.5-4.5,7.1-6.8,10.6
			c-0.6,0.9-0.4,0.8-1.1,0.2c-3.4-2.6-8.3-2.7-11.7-0.2c-0.4,0.3-0.6,0.7-0.6,1.2c0,11.9,0,23.9,0,35.8c0,3.2,0.4,6.3,1.8,9.3
			C347.6,329.8,348.3,330.7,349.2,331.6z"/>
		<path class="st1" d="M391.8,331.7c-5.3,0-10.3-0.1-15.4,0.1c-1.7,0-2.7-0.7-3.6-1.9c-1.6-2.1-2.4-4.6-2.7-7.2
			c-0.5-4.2-0.2-8.4-0.3-12.7c-0.1-6.4,0-12.9,0-19.3c-0.1-5.7-0.1-11.5-0.1-17.2c0-2.2-0.6-4.2-1.9-6c-0.1-0.1-0.1-0.2-0.2-0.4
			c0.3-0.2,0.6-0.1,0.8-0.1c5.3,0,10.7,0,16,0c1,0,1.6,0.4,2,1.2c0.3,0.8,0.7,1.6,0.9,2.4c0.2,0.5,0.3,0.6,0.8,0.2
			c1.3-1.1,2.5-2.3,4.1-3.1c4.5-2,8.8-1.9,13,0.8c1,0.6,1.9,1.3,2.6,2.2c0.3,0.3,0.3,0.5,0.1,0.9c-2.3,3.6-4.6,7.2-6.9,10.8
			c-0.3,0.5-0.5,0.6-1,0.2c-3.4-2.7-8.4-2.7-11.7-0.3c-0.4,0.3-0.6,0.6-0.6,1.2c0,12,0,23.9,0,35.9c0,3.2,0.4,6.3,1.8,9.2
			C390.1,329.7,390.8,330.7,391.8,331.7z"/>
		<path class="st1" d="M434.5,332c-1.4,0-2.6,0-3.9,0c-4.4,0-8.8,0-13.2,0c-0.5,0-0.8-0.1-1.1-0.5c-1.7-1.9-2.7-4.1-3.2-6.6
			c-0.6-3.1-0.6-6.2-0.6-9.3c0-3.8-0.1-7.5-0.1-11.3c0.1-9.2,0.1-18.4,0.1-27.7c0-2.2,0-4.3-0.5-6.5c-0.3-1.2-0.8-2.3-1.5-3.3
			c0.2-0.2,0.4-0.1,0.6-0.1c5.1,0,10.1,0,15.2,0c0.6,0,1,0.2,1.3,0.6c0.2,0.3,0.4,0.6,0.5,0.9c1.4,2.6,2,5.3,2.1,8.3
			c0.1,7.3,0,14.6,0.1,21.9c0.1,7.5,0.1,15,0.1,22.5c0,2.5,0.4,4.8,1.4,7.1C432.7,329.5,433.5,330.7,434.5,332z"/>
		<path class="st1" d="M35.6,298.1c0-8,1.6-14.8,5-21.2c1.9-3.5,4.1-6.7,6.9-9.6c1.9-2,4.1-3.9,6.3-5.6c0.4-0.3,0.6-0.4,0.8,0.2
			c3.6,7.5,7.3,14.9,11,22.4c1.3,2.7,2.2,5.6,2.3,8.6c0.2,3.6-1.1,6.8-3.1,9.8c-2.3,3.5-5.4,6-9.4,7.3c-1.8,0.6-3.7,0.6-5.5,0.6
			c-2.6-0.1-5.1-0.4-7.5-1.3c-2-0.7-3.9-1.7-5.6-3c-0.3-0.2-0.4-0.5-0.5-0.9C35.9,302.7,35.6,300,35.6,298.1z"/>
		<path class="st1" d="M117.6,318.5c-9.8-21.4-19.4-42.7-29.2-64.1c14.7,2.8,25.3,10.9,31.3,24.4
			C125.6,292.2,125.2,305.5,117.6,318.5z"/>
		<path class="st1" d="M43.9,322.1c13,1.3,27.6-10.2,28.2-23.5c0.7,1.5,1.4,3,2,4.5c1.3,3,2.7,5.9,4,8.9c1.9,4.2,3.8,8.4,5.7,12.7
			c1.7,3.7,3.3,7.4,5,11.1c0.2,0.4,0.2,0.6,0,1c-0.8,2-2.4,3-4.3,3.7c-2.7,1-5.6,1-8.4,0.8c-3.1-0.2-6.1-0.9-9.1-1.9
			c-5.1-1.7-9.8-4-14.1-7.2c-3.2-2.4-6-5.1-8.1-8.4C44.5,323.1,44.1,322.7,43.9,322.1z"/>
		<path class="st1" d="M71.1,254.2c1.3-0.3,2,0.4,2.6,1.7c3.2,7.3,6.6,14.5,9.9,21.7c2.7,5.9,5.4,11.9,8.2,17.8
			c3.4,7.5,6.9,15,10.3,22.6c1.7,3.7,3.4,7.4,5.1,11.1c0.1,0.3,0.1,0.5,0.1,0.8c-0.7,2.3-2.4,3.7-4.5,4.7c-0.4,0.2-0.5,0-0.7-0.4
			c-1-2.2-2-4.4-3-6.6c-2.7-5.9-5.4-11.8-8.1-17.6c-2.8-6.1-5.6-12.3-8.4-18.4c-3.1-6.8-6.2-13.6-9.3-20.3
			c-2.3-4.9-4.5-9.8-6.8-14.8c-0.2-0.4-0.2-0.6,0.2-0.9C67.9,254.7,69.3,254.1,71.1,254.2z"/>
	</g>
</g>
</svg>
