<?xml version="1.0" encoding="utf-8"?>
<!-- Generator: Adobe Illustrator 26.3.1, SVG Export Plug-In . SVG Version: 6.00 Build 0)  -->
<svg version="1.1" id="Layer_1" xmlns="http://www.w3.org/2000/svg" xmlns:xlink="http://www.w3.org/1999/xlink" x="0px" y="0px"
	 viewBox="0 0 595.3 595.3" style="enable-background:new 0 0 595.3 595.3;" xml:space="preserve">
<style type="text/css">
	.st0{fill:#FFFFFF;}
	.st1{fill:#1C9AD5;}
	.st2{fill:#66656B;}
</style>
<path class="st0" d="M297.6,595.3L297.6,595.3C133.3,595.3,0,462,0,297.6l0,0C0,133.3,133.3,0,297.6,0l0,0
	C462,0,595.3,133.3,595.3,297.6l0,0C595.3,462,462,595.3,297.6,595.3z"/>
<g>
	<g>
		<g>
			<polygon class="st1" points="237.2,186.9 223.2,189.3 223.2,204.2 241.6,210.5 			"/>
		</g>
		<g>
			<polygon class="st1" points="288.7,128.2 328.9,167.3 354.3,162.9 317.8,128.2 			"/>
		</g>
		<g>
			<polygon class="st1" points="255.8,183.7 240.9,186.3 245.7,211.9 254.7,214.9 			"/>
		</g>
		<g>
			<polygon class="st1" points="223.2,185.5 236.4,183.2 230.8,153.5 223.2,162.9 			"/>
		</g>
		<g>
			<polygon class="st1" points="259.8,178.7 271.7,169.8 298.7,169.8 314.2,169.8 324.2,168.1 283.3,128.2 261.7,128.2 			"/>
		</g>
		<g>
			<polygon class="st1" points="332.2,170.5 360.6,198.2 372.1,189.8 372.1,179.9 357.7,166.2 			"/>
		</g>
		<g>
			<polygon class="st1" points="256,179.8 257.9,128.2 251.6,128.2 234,149.7 240.2,182.5 			"/>
		</g>
		<g>
			<polygon class="st1" points="233.1,144.8 246.7,128.2 229.9,128.2 			"/>
		</g>
		<g>
			<polygon class="st1" points="372.1,209.4 372.1,194.5 363.4,200.9 			"/>
		</g>
		<g>
			<polygon class="st1" points="258.3,220.1 256.5,268.7 257.4,273.4 307.6,236.8 			"/>
		</g>
		<g>
			<polygon class="st1" points="253.3,276.4 252.4,276.3 252.6,268.9 242.6,215.6 223.2,234.2 223.2,277.1 252.3,277.1 			"/>
		</g>
		<g>
			<polygon class="st1" points="359,162.1 372.1,159.8 372.1,128.2 323.4,128.2 			"/>
		</g>
		<g>
			<polygon class="st1" points="229.9,148.7 226.1,128.2 223.2,128.2 223.2,156.9 			"/>
		</g>
		<g>
			<polygon class="st1" points="312.1,238.3 258.7,277.1 372.1,277.1 372.1,258.6 			"/>
		</g>
		<g>
			<polygon class="st1" points="239.1,213.6 223.2,208.3 223.2,228.9 			"/>
		</g>
		<g>
			<polygon class="st1" points="338,181.5 319,203.8 298.7,227.5 278.3,203.8 260.4,182.9 259.6,183 258.4,216.2 311.4,234.1 
				357.5,200.5 			"/>
		</g>
		<g>
			<polygon class="st1" points="254.5,218.9 246.6,216.2 253.3,251.8 			"/>
		</g>
		<g>
			<polygon class="st1" points="372.1,174.6 372.1,163.7 362.4,165.4 			"/>
		</g>
		<g>
			<polygon class="st1" points="372.1,214.7 360.3,203.2 315.8,235.6 372.1,254.6 			"/>
		</g>
	</g>
	<g>
		<g>
			<polygon class="st2" points="78.7,389 96.6,389 115.9,344.8 134.2,389 152.1,389 116.3,313.2 			"/>
		</g>
		<g>
			<polygon class="st2" points="306.9,389 324.7,389 344.1,344.8 362.3,389 380.2,389 344.4,313.2 			"/>
		</g>
		<g>
			<polygon class="st2" points="480.8,313.2 443.2,389 461.1,389 480.5,344.8 498.7,389 516.6,389 			"/>
		</g>
		<g>
			<polygon class="st2" points="177.9,314.3 160.6,314.3 160.6,376.1 160.6,389 177.9,389 212.3,389 212.3,376.1 177.9,376.1 			"/>
		</g>
		<g>
			<polygon class="st2" points="295.6,315.7 295.7,315.7 260.3,354.8 229.7,320.8 224,314.3 221.6,314.3 221.6,389 238.9,389 
				238.9,355.4 260.4,376.1 262.7,373.2 262.8,373.3 281.9,354.9 281.9,389 299.2,389 299.2,314.3 296.8,314.3 			"/>
		</g>
		<g>
			<path class="st2" d="M418.4,344.2c-9.6-3.6-13.7-5.7-13.7-10.4c0-3.7,3.5-7.1,10.7-7.1c7.1,0,16.4,2.1,19.3,3.5l-0.2-13.3
				c-4.4-2.1-10.4-3.7-18.8-3.7c-17.3,0-27.9,9.5-27.9,22.1c0,10.7,8.1,17.5,20.3,21.9c8.9,3.1,12.3,5.7,12.3,10.3c0,4.8-4,8-11.7,8
				c-7.1,0-17.5-2.3-21.9-4.6v13.7c4.2,2.3,12.5,4.6,20.9,4.6c20.2,0,29.6-10.5,29.6-22.8C437.4,355.8,431.4,349,418.4,344.2z"/>
		</g>
	</g>
	<g>
		<path class="st1" d="M171.4,421.3v15.9h21.6v-15.9h5.8v38.1h-5.8v-17.9h-21.6v17.9h-5.8v-38.1H171.4z"/>
		<path class="st1" d="M266.7,440c0,13.1-9.3,20.1-20.7,20.1c-11.8,0-20-7.9-20-19.4c0-12.1,8.7-20,20.6-20
			C258.8,420.6,266.7,428.6,266.7,440z M232,440.5c0,8.2,5.2,15.5,14.3,15.5c9.1,0,14.3-7.2,14.3-15.8c0-7.6-4.6-15.5-14.2-15.5
			C236.8,424.7,232,432.2,232,440.5z"/>
		<path class="st1" d="M300.8,425.5h-13.6v-4.2h33v4.2h-13.6v33.9h-5.8V425.5z"/>
		<path class="st1" d="M368,441.6h-17.3v13.7h19.3v4.1H345v-38.1h24.1v4.1h-18.3v12H368V441.6z"/>
		<path class="st1" d="M397.3,421.3h5.8v34h19v4.1h-24.9V421.3z"/>
	</g>
</g>
</svg>
