<?xml version="1.0" encoding="utf-8"?>
<!-- Generator: Adobe Illustrator 26.3.1, SVG Export Plug-In . SVG Version: 6.00 Build 0)  -->
<svg version="1.1" id="Layer_1" xmlns="http://www.w3.org/2000/svg" xmlns:xlink="http://www.w3.org/1999/xlink" x="0px" y="0px"
	 viewBox="0 0 595.3 595.3" style="enable-background:new 0 0 595.3 595.3;" xml:space="preserve">
<style type="text/css">
	.st0{fill:#FFFFFF;}
	.st1{fill:#1C9AD5;}
</style>
<path class="st0" d="M297.6,595.3L297.6,595.3C133.3,595.3,0,462,0,297.6l0,0C0,133.3,133.3,0,297.6,0l0,0
	C462,0,595.3,133.3,595.3,297.6l0,0C595.3,462,462,595.3,297.6,595.3z"/>
<path class="st0" d="M584.9,375.9c0.5-2,1.1-4,1.6-6L584.9,375.9z"/>
<polygon class="st0" points="586.4,369.9 586.4,369.9 586.4,369.9 "/>
<g>
	<g>
		<polygon class="st1" points="156.5,260.9 123.8,266.5 123.8,301.3 166.8,316 		"/>
	</g>
	<g>
		<polygon class="st1" points="276.8,123.8 370.6,215.1 429.9,204.8 344.7,123.8 		"/>
	</g>
	<g>
		<polygon class="st1" points="199.9,253.4 165.1,259.5 176.3,319.2 197.4,326.3 		"/>
	</g>
	<g>
		<polygon class="st1" points="123.8,257.6 154.6,252.2 141.5,182.9 123.8,204.8 		"/>
	</g>
	<g>
		<polygon class="st1" points="209.3,241.7 237.1,220.9 300.1,220.9 336.3,220.9 359.6,217 264.1,123.8 213.7,123.8 		"/>
	</g>
	<g>
		<polygon class="st1" points="378.3,222.6 444.6,287.3 471.5,267.6 471.5,244.5 437.9,212.5 		"/>
	</g>
	<g>
		<polygon class="st1" points="200.4,244.3 204.8,123.8 190.1,123.8 149,174 163.5,250.6 		"/>
	</g>
	<g>
		<polygon class="st1" points="146.9,162.6 178.7,123.8 139.4,123.8 		"/>
	</g>
	<g>
		<polygon class="st1" points="471.5,313.4 471.5,278.6 451.2,293.6 		"/>
	</g>
	<g>
		<polygon class="st1" points="205.8,338.4 201.6,451.9 203.7,462.9 320.9,377.4 		"/>
	</g>
	<g>
		<polygon class="st1" points="194.1,469.9 192,469.6 192.5,452.4 169.1,327.9 123.8,371.3 123.8,471.5 191.8,471.5 		"/>
	</g>
	<g>
		<polygon class="st1" points="440.9,203 471.5,197.6 471.5,123.8 357.8,123.8 		"/>
	</g>
	<g>
		<polygon class="st1" points="139.4,171.7 130.6,123.8 123.8,123.8 123.8,190.8 		"/>
	</g>
	<g>
		<polygon class="st1" points="331.4,380.9 206.7,471.5 471.5,471.5 471.5,428.3 		"/>
	</g>
	<g>
		<polygon class="st1" points="160.9,323.2 123.8,310.8 123.8,358.9 		"/>
	</g>
	<g>
		<polygon class="st1" points="391.9,248.3 347.5,300.3 300.1,355.7 252.5,300.3 210.7,251.5 208.8,251.8 206,329.3 329.8,371.1 
			437.4,292.6 		"/>
	</g>
	<g>
		<polygon class="st1" points="196.9,335.6 178.4,329.3 194.1,412.4 		"/>
	</g>
	<g>
		<polygon class="st1" points="471.5,232.1 471.5,206.7 448.8,210.7 		"/>
	</g>
	<g>
		<polygon class="st1" points="471.5,325.8 443.9,298.9 340,374.6 471.5,419 		"/>
	</g>
</g>
</svg>
