<?xml version="1.0" encoding="utf-8"?>
<!-- Generator: Adobe Illustrator 26.3.1, SVG Export Plug-In . SVG Version: 6.00 Build 0)  -->
<svg version="1.1" id="Layer_1" xmlns="http://www.w3.org/2000/svg" xmlns:xlink="http://www.w3.org/1999/xlink" x="0px" y="0px"
	 viewBox="0 0 595.3 595.3" style="enable-background:new 0 0 595.3 595.3;" xml:space="preserve">
<style type="text/css">
	.st0{fill:#FED02F;}
	.st1{fill:#FFFFFF;}
</style>
<path class="st0" d="M297.6,595.3L297.6,595.3C133.3,595.3,0,462,0,297.6l0,0C0,133.3,133.3,0,297.6,0l0,0
	C462,0,595.3,133.3,595.3,297.6l0,0C595.3,462,462,595.3,297.6,595.3z"/>
<path class="st1" d="M584.9,375.9c0.5-2,1.1-4,1.6-6L584.9,375.9z"/>
<polygon class="st1" points="586.4,369.9 586.4,369.9 586.4,369.9 "/>
<g>
	<path class="st0" d="M297.3,534.5c-36.7,0-73.8,0-110.6,0c-15.6,0-30.9-1.1-46.2-4.4c-40.7-9.5-70.9-42.2-77.1-83.7
		c-2.2-15.6-2.9-31.3-2.9-46.9c0-71.7,0-143.3,0.4-215.4c0-12.7,0.7-25.5,3.3-38.2c8.7-44.4,42.2-75.7,86.6-82.2
		c15.3-2.2,30.6-2.9,45.8-2.9c70.2,0,140.4,0,210.6,0c15.3,0,30.6,1.1,45.8,4.4c41.8,9.1,73.5,43.7,78.9,86.2
		c2.2,16,2.5,32.4,2.5,48.7c0.4,65.1,0.4,130.2,0,195c0,18.9,0,37.8-4,56.7c-9.1,42.6-42.2,73.1-85.1,79.7
		c-12.7,1.8-25.5,2.9-38.2,2.9c-0.7,0-1.1,0-1.8,0C369.4,534.5,333.3,534.5,297.3,534.5z"/>
	<path d="M184.9,334.8c-8.4,0-15.6,0-22.9,0c-14.6,0-29.1,0-44,0c-3.3,0-4.7-0.7-4.4-4.4c0.4-2.9,0.4-5.8,0-8.7
		c-0.4-3.6,1.1-4.7,4.7-4.7c21.8,0,43.7,0,65.5,0c6.5,0,6.5,0,6.5-6.2c0-9.1,0-9.1-9.1-9.1c-19.3,0-38.6,0-57.8,0
		c-3.6,0-5.1-1.1-4.7-4.7c0.4-2.5,0.4-5.5,0-8.4c-0.4-3.6,1.5-4.4,4.7-4.4c20.7,0,41.5,0,62.2,0c4,0,5.1-1.1,5.1-5.1
		c-0.4-9.5,0.4-7.6-7.3-7.6c-20,0-40,0-59.7,0c-3.3,0-4.7-0.7-4.7-4.4c0-12.7,0-12.7,12.7-12.7c18.2,0,36.4,0,54.2,0
		c3.6,0,5.1-0.7,5.1-4.7c-0.4-9.8,1.1-8.4-8.4-8.7c-20.7,0-41.8,0-62.6,0c-4,0-5.5-0.7-5.5-5.1c0.4-12.4,0-12.4,12.4-12.4
		c5.1,0,10.2,0,14.9,0c2.5,0,4-0.7,3.3-3.3c-0.4-1.5-0.4-2.5-0.4-4c-0.7-6.9-0.7-6.9,6.5-6.9c2.9,0,5.5,0,8.4,0c6.2,0,6.2,0,7.3,6.5
		c1.1,8,1.1,8,9.1,8c18.2,0,36.4,0,54.9,0c3.6,0,5.5-0.7,6.2-5.1c1.1-9.5,1.5-9.5,10.9-9.5c2.9,0,6.2,0,9.1,0c2.5,0,3.3,1.1,2.9,3.3
		c-0.4,2.9-0.4,5.8-1.1,8.7c-0.7,2.9,0.7,3.3,3.3,3.3c7.6,0,15.6,0,23.3,0c3.3,0,4.4,1.1,4,4.4c-0.4,1.8,0,4,0,5.8
		c0,6.9,0,6.9-6.9,6.9c-21.5,0-42.6,0-64,0c-4.4,0-6.2,0.7-5.8,5.8c0.4,7.6,0,7.6,8,7.6c19.6,0,39.7,0,59.3,0c3.6,0,5.1,1.1,4.7,4.7
		c0,12.4,0,12.4-12.7,12.4c-18.2,0-36.4,0-54.2,0c-4,0-5.5,0.7-5.1,5.1c0.4,9.1-1.1,7.6,7.6,7.6c19.6,0,39.7,0,59.3,0
		c3.6,0,5.5,0.7,5.1,4.7c-0.4,2.9-0.4,5.8,0,8.7c0.4,3.3-1.1,4-4.4,4c-20.7,0-41.8,0-62.6,0c-3.6,0-5.5,0.7-5.1,4.7
		c0.4,10.5,0,10.5,10.9,10.5c20.4,0,40.7,0,61.1,0c3.6,0,5.1,0.7,5.1,4.7c0,12.7,0,12.7-12.7,12.7c-17.5,0-34.9,0-52.4,0
		c-1.5,0-3.3-0.4-5.1,0.7c2.5,4,6.2,6.9,10.2,9.8c17.5,13.1,37.5,18.9,58.9,21.5c4,0.4,4.4,1.5,2.2,4.4c-2.5,4-4.7,8-6.9,12.4
		c-1.1,2.2-2.2,2.9-4.7,2.5c-28.7-4.7-54.6-14.9-74.6-37.1c-1.1-1.5-2.2-2.2-4-0.4c-18.6,22.6-44,31.6-72,36.7
		c-4,0.7-8,0.7-12.4,1.5c-2.9,0.4-3.6-0.7-2.5-3.3c1.5-4,2.9-8.4,4-12.7c0.7-3.3,2.5-4,5.8-4.4c17.8-1.1,34.2-6.9,48.7-17.1
		C175.8,344.9,180.6,340.9,184.9,334.8z"/>
	<path d="M312.6,295.5c0-25.8,0-51.7,0-77.5c0-4,1.1-5.5,5.5-5.5c50.2,0,100,0,150.2,0c10.2,0,13.8,3.6,13.8,13.8
		c0,50.9,0,102.2,0,153.1c0,4-1.5,5.1-5.1,5.1c-50.2,0-100.4,0-150.6,0c-10.2,0-13.5-3.3-13.5-13.5
		C312.6,346,312.6,320.6,312.6,295.5z"/>
	<path class="st0" d="M460.7,298.7c0,21.1,0,41.8,0,62.9c0,4-1.1,5.1-5.1,5.1c-38.9,0-77.8,0-116.8,0c-4,0-5.1-1.1-5.1-5.1
		c0-41.8,0-84,0-125.9c0-4,1.1-5.1,5.1-5.1c38.9,0,77.8,0,116.8,0c4,0,5.1,1.1,5.1,5.1C460.7,256.9,460.7,277.6,460.7,298.7z"/>
	<path d="M344.3,357.7c9.8-14.9,16-29.8,21.1-45.5c3.6-11.6,5.8-23.6,7.6-35.6c0.7-4-0.7-5.1-4.4-5.1c-6.9,0.4-13.8,0-21.1,0
		c-2.5,0-3.6-0.7-3.6-3.6c-0.7-13.5-0.7-13.5,12.7-13.5c16.7,0,33.8,0,50.6,0c3.6,0,5.5-0.7,5.5-5.1c-0.4-9.8,0-9.8,10.2-9.8
		c10.2,0,10.2,0,10.2,10.2c0,3.6,1.1,4.7,4.7,4.4c3.6-0.4,7.3,0,10.9,0c2.9,0,3.6,1.1,3.6,3.6c0.4,12.7,0.7,12.7-12,12.7
		c-1.1,0-1.8,0-2.9,0c-3.6-0.4-4.7,1.1-4.7,4.7c0,17.1,0,34.2,0,51.7c0,9.1-2.2,18.2-4.7,26.9c-0.7,2.9-2.2,4-5.1,3.6
		c-5.1-0.4-10.2,0-15.6,0c-2.5,0-2.9-0.7-1.8-2.9c6.5-13.1,6.9-26.9,6.9-41.1c0-12.7,0-25.1,0-37.8c0-3.3-1.1-4.4-4.4-4.4
		c-13.5-0.4-13.1-0.4-15.6,13.1c-4,24-10.5,46.9-22.2,68.4c-1.8,3.3-4,4.7-8,4.7C356.6,357.3,351.2,357.7,344.3,357.7z"/>
</g>
</svg>
