<?xml version="1.0" encoding="utf-8"?>
<!-- Generator: Adobe Illustrator 26.3.1, SVG Export Plug-In . SVG Version: 6.00 Build 0)  -->
<svg version="1.1" id="Layer_1" xmlns="http://www.w3.org/2000/svg" xmlns:xlink="http://www.w3.org/1999/xlink" x="0px" y="0px"
	 viewBox="0 0 595.3 595.3" style="enable-background:new 0 0 595.3 595.3;" xml:space="preserve">
<style type="text/css">
	.st0{fill:#FFFFFF;}
	.st1{fill:#FED02F;}
</style>
<path class="st0" d="M297.6,595.3L297.6,595.3C133.3,595.3,0,462,0,297.6v0C0,133.3,133.3,0,297.6,0h0
	C462,0,595.3,133.3,595.3,297.6v0C595.3,462,462,595.3,297.6,595.3z"/>
<g>
	<path class="st1" d="M100.7,362.7c-10.1,0-20.3,0-30.4,0c-4.3,0-8.5-0.3-12.7-1.2c-11.2-2.6-19.5-11.6-21.2-23
		c-0.6-4.3-0.8-8.6-0.8-12.9c0-19.7,0-39.4,0.1-59.2c0-3.5,0.2-7,0.9-10.5c2.4-12.2,11.6-20.8,23.8-22.6c4.2-0.6,8.4-0.8,12.6-0.8
		c19.3,0,38.6,0,57.9,0c4.2,0,8.4,0.3,12.6,1.2c11.5,2.5,20.2,12,21.7,23.7c0.6,4.4,0.7,8.9,0.7,13.4c0.1,17.9,0.1,35.8,0,53.6
		c0,5.2,0,10.4-1.1,15.6c-2.5,11.7-11.6,20.1-23.4,21.9c-3.5,0.5-7,0.8-10.5,0.8c-0.2,0-0.3,0-0.5,0
		C120.5,362.7,110.6,362.7,100.7,362.7z"/>
	<path d="M209.3,275.8c0,2,0,4.2,0,6.3c0.3,16.6,0,33.2,0.1,49.7c0,0.8-0.2,1.2-1.1,1.2c-2.7,0-5.4,0-8.2,0c-0.9,0-1.2-0.3-1.1-1.2
		c0.1-1.3,0-2.7,0-4c0-22,0-44,0-66c0-1.9-0.1-1.6,1.6-1.6c2.5,0,5,0.1,7.5,0c2.6-0.1,4.2,1,5.4,3.4c6.8,14,13.8,27.9,20.7,41.8
		c0.2,0.4,0.4,0.8,0.7,1.3c1-2,1.9-3.8,2.9-5.7c6.6-13.2,13.1-26.4,19.7-39.7c0.4-0.8,0.8-1.2,1.8-1.1c2.8,0.1,5.5-0.2,8.3,0.2
		c2.1,0.3,2.9,1.2,3.2,3.2c0.1,0.8,0.2,1.7,0.2,2.5c0,21.8,0,43.5,0,65.3c0,1.2-0.3,1.7-1.6,1.6c-2.5-0.1-5.1-0.1-7.7,0
		c-0.8,0-1.2-0.2-1.2-1.1c0.1-17.7-0.2-35.3,0.2-53c0-1,0.2-2.1,0.3-3.3c-0.6,0.3-0.6,0.8-0.8,1.1c-6.2,12.7-12.4,25.4-18.6,38.1
		c-0.4,0.9-0.9,1.2-1.9,1.2c-2.5-0.1-4.9,0-7.4,0c-2.2,0-3.8-0.9-4.8-3c-5.9-12.1-11.8-24.2-17.7-36.3
		C209.6,276.4,209.4,276,209.3,275.8z"/>
	<path d="M514.3,307.7c0-7.9,0-15.9,0-23.8c0-1,0.2-1.5,1.2-1.9c9-4,18.3-5.6,28-4.3c5.6,0.8,10.4,3,13.4,8.1
		c1.8,3.1,2.6,6.6,2.6,10.1c0.1,12,0.1,24.1,0.1,36.1c0,0.7-0.2,0.9-0.9,0.9c-2.8,0-5.5-0.1-8.3,0c-1.1,0-0.9-0.7-0.9-1.3
		c0-10,0-20,0-30.1c0-2.7,0-5.4-0.4-8c-0.8-4.5-3.3-6.8-7.8-7.4c-5.3-0.7-10.5-0.2-15.6,1.3c-1,0.3-1.2,0.7-1.2,1.7
		c0,13.8,0,27.6,0,41.3c0,0.4,0,0.8,0,1.1c0.1,1-0.2,1.3-1.2,1.3c-2.6-0.1-5.1-0.1-7.7,0c-1.1,0-1.3-0.4-1.3-1.4
		C514.4,323.7,514.3,315.7,514.3,307.7z"/>
	<path d="M446.8,303.7c0,8,0,16,0,24.1c0,0.7,0,1.1-0.8,1.5c-9.3,4.2-18.9,5.8-29,4.2c-9.2-1.5-14.2-7.1-15-16.5
		c-0.2-2.3-0.2-4.6-0.2-6.9c0-10.1,0-20.2,0-30.3c0-1,0.2-1.4,1.3-1.3c2.5,0.1,5,0.1,7.5,0c1.1,0,1.4,0.3,1.4,1.4
		c0,8.6,0,17.1,0,25.7c0,3.9-0.1,7.9,0.3,11.8c0.6,4.7,2.8,7,7.4,7.7c5.3,0.8,10.6,0.5,15.8-1c1-0.3,1.3-0.7,1.3-1.8
		c0-14.1,0-28.2,0-42.3c0-1.1,0.2-1.5,1.4-1.4c2.5,0.1,5,0.1,7.5,0c1.1,0,1.3,0.3,1.3,1.3C446.8,287.7,446.8,295.7,446.8,303.7z"/>
	<path d="M394.4,323.1c-0.9,3-1.8,5.8-2.6,8.6c-0.1,0.4-0.2,0.8-0.7,0.9c-4.4,1.1-8.9,1.8-13.4,1.1c-4.1-0.6-6.7-3.1-8-7.1
		c-1.1-3.4-1.2-6.9-1.2-10.4c0-9.4,0-18.8,0-28.2c0-1.1-0.3-1.4-1.4-1.4c-1.8,0.1-3.7,0-5.5,0c-0.6,0-1-0.1-1-0.9c0-2.2,0-4.4,0-6.6
		c0-0.7,0.3-0.8,0.9-0.8c1.9,0,3.9,0,5.8,0c0.9,0,1.2-0.2,1.2-1.2c-0.1-4.7,0-9.4-0.1-14c0-1.2,0.3-1.4,1.4-1.3
		c2.6,0.1,5.2,0.1,7.8,0c0.9,0,1.1,0.3,1.1,1.1c0,4.7,0,9.4,0,14.2c0,1,0.3,1.3,1.3,1.2c4-0.1,7.9,0,11.9,0c1,0,1.1,0.2,0.8,1.1
		c-0.7,2.1-1.3,4.1-1.9,6.2c-0.2,0.8-0.6,1-1.4,1c-3.2-0.1-6.4,0-9.5,0c-0.8,0-1.2,0.1-1.2,1.1c0,9.9,0,19.8,0,29.7
		c0,1.9,0.1,3.8,0.8,5.5c0.6,1.6,1.6,2.3,3.3,2.3c3.5,0,6.9-0.8,10.2-1.8C393.4,323.4,393.8,323.3,394.4,323.1z"/>
	<path d="M350.9,305.8c0,8.6,0,17.3,0,25.9c0,0.9-0.2,1.3-1.2,1.3c-2.6-0.1-5.2-0.1-7.8,0c-1,0-1.2-0.3-1.2-1.2
		c0-17.4,0-34.8,0-52.2c0-0.9,0.2-1.2,1.1-1.1c2.6,0.1,5.3,0.1,7.9,0c1,0,1.2,0.3,1.2,1.2C350.8,288.3,350.9,297.1,350.9,305.8z"/>
	<path d="M340.3,262.9c0-1.3,0-2.6,0-3.9c0-0.6,0.2-0.9,0.8-0.9c2.4,0,4.8,0,7.3,0c1.9,0,2.9,1.1,3,3c0.1,2.5,0,5,0,7.5
		c0,0.7-0.3,0.8-0.9,0.8c-2.5,0-5,0-7.5-0.1c-1.6,0-2.6-1-2.7-2.7c0-0.1,0-0.2,0-0.3C340.3,265.3,340.3,264.1,340.3,262.9z"/>
	<path d="M69.8,307.8c-2.3,0-4.3,0-6.3,0c-4,0-8,0-12.1,0c-0.9,0-1.3-0.2-1.2-1.2c0.1-0.8,0.1-1.6,0-2.4c-0.1-1,0.3-1.3,1.3-1.3
		c6,0,12,0,18,0c1.8,0,1.8,0,1.8-1.7c0-2.5,0-2.5-2.5-2.5c-5.3,0-10.6,0-15.9,0c-1,0-1.4-0.3-1.3-1.3c0.1-0.7,0.1-1.5,0-2.3
		c-0.1-1,0.4-1.2,1.3-1.2c5.7,0,11.4,0,17.1,0c1.1,0,1.4-0.3,1.4-1.4c-0.1-2.6,0.1-2.1-2-2.1c-5.5,0-11,0-16.4,0
		c-0.9,0-1.3-0.2-1.3-1.2c0-3.5,0-3.5,3.5-3.5c5,0,10,0,14.9,0c1,0,1.4-0.2,1.4-1.3c-0.1-2.7,0.3-2.3-2.3-2.4c-5.7,0-11.5,0-17.2,0
		c-1.1,0-1.5-0.2-1.5-1.4c0.1-3.4,0-3.4,3.4-3.4c1.4,0,2.8,0,4.1,0c0.7,0,1.1-0.2,0.9-0.9c-0.1-0.4-0.1-0.7-0.1-1.1
		c-0.2-1.9-0.2-1.9,1.8-1.9c0.8,0,1.5,0,2.3,0c1.7,0,1.7,0,2,1.8c0.3,2.2,0.3,2.2,2.5,2.2c5,0,10,0,15.1,0c1,0,1.5-0.2,1.7-1.4
		c0.3-2.6,0.4-2.6,3-2.6c0.8,0,1.7,0,2.5,0c0.7,0,0.9,0.3,0.8,0.9c-0.1,0.8-0.1,1.6-0.3,2.4c-0.2,0.8,0.2,0.9,0.9,0.9
		c2.1,0,4.3,0,6.4,0c0.9,0,1.2,0.3,1.1,1.2c-0.1,0.5,0,1.1,0,1.6c0,1.9,0,1.9-1.9,1.9c-5.9,0-11.7,0-17.6,0c-1.2,0-1.7,0.2-1.6,1.6
		c0.1,2.1,0,2.1,2.2,2.1c5.4,0,10.9,0,16.3,0c1,0,1.4,0.3,1.3,1.3c0,3.4,0,3.4-3.5,3.4c-5,0-10,0-14.9,0c-1.1,0-1.5,0.2-1.4,1.4
		c0.1,2.5-0.3,2.1,2.1,2.1c5.4,0,10.9,0,16.3,0c1,0,1.5,0.2,1.4,1.3c-0.1,0.8-0.1,1.6,0,2.4c0.1,0.9-0.3,1.1-1.2,1.1
		c-5.7,0-11.5,0-17.2,0c-1,0-1.5,0.2-1.4,1.3c0.1,2.9,0,2.9,3,2.9c5.6,0,11.2,0,16.8,0c1,0,1.4,0.2,1.4,1.3c0,3.5,0,3.5-3.5,3.5
		c-4.8,0-9.6,0-14.4,0c-0.4,0-0.9-0.1-1.4,0.2c0.7,1.1,1.7,1.9,2.8,2.7c4.8,3.6,10.3,5.2,16.2,5.9c1.1,0.1,1.2,0.4,0.6,1.2
		c-0.7,1.1-1.3,2.2-1.9,3.4c-0.3,0.6-0.6,0.8-1.3,0.7c-7.9-1.3-15-4.1-20.5-10.2c-0.3-0.4-0.6-0.6-1.1-0.1
		c-5.1,6.2-12.1,8.7-19.8,10.1c-1.1,0.2-2.2,0.2-3.4,0.4c-0.8,0.1-1-0.2-0.7-0.9c0.4-1.1,0.8-2.3,1.1-3.5c0.2-0.9,0.7-1.1,1.6-1.2
		c4.9-0.3,9.4-1.9,13.4-4.7C67.3,310.6,68.6,309.5,69.8,307.8z"/>
	<path d="M104.9,297c0-7.1,0-14.2,0-21.3c0-1.1,0.3-1.5,1.5-1.5c13.8,0,27.5,0,41.3,0c2.8,0,3.8,1,3.8,3.8c0,14,0,28.1,0,42.1
		c0,1.1-0.4,1.4-1.4,1.4c-13.8,0-27.6,0-41.4,0c-2.8,0-3.7-0.9-3.7-3.7C104.9,310.9,104.9,303.9,104.9,297z"/>
	<path d="M328.9,293.7c-1.9-7.4-6.1-12.9-13.6-15.4c-3.3-1.1-6.7-1.2-10.2-0.9c-8.5,0.8-14.9,4.7-18.9,12.3
		c-4.5,8.7-5,17.9-2.8,27.3c2,8.5,7.4,13.8,15.9,15.9c4.8,1.2,9.7,1.2,14.6,0.8c3.9-0.4,7.6-1.2,11.2-2.7c0.4-0.2,0.9-0.2,1-0.8
		c0.7-3,1.4-6,2.1-9.1c-0.3,0.1-0.5,0.2-0.6,0.2c-6.3,3.2-13,4.2-19.9,4c-5.3-0.2-9.7-1.9-12.4-6.8c-1.2-2.2-1.8-4.7-2.2-7.1
		c-0.2-1.1,0-1.5,1.3-1.5c8.9,0.1,17.8,0,26.7,0c1.3,0,2.7,0,4-0.3c3-0.6,4.3-2,4.6-5.1C330.1,300.9,329.9,297.3,328.9,293.7z
		 M318.7,301.6c-4.1,0-8.2,0-12.3,0c-4.1,0-8.2,0-12.3,0c-0.8,0-1.1-0.1-0.9-1c0.6-3.4,1.5-6.7,3.7-9.5c3.5-4.6,10.7-6.5,16-4.3
		c2.6,1.1,4.3,3,5.3,5.5c1.1,2.6,1.5,5.4,1.5,8.2C319.8,301.4,319.5,301.6,318.7,301.6z"/>
	<path d="M501.4,294.6c0-8.1-4-13.5-11.7-16c-2.8-0.9-5.7-1.3-8.6-1.4c-6.2-0.1-12.3,0.7-18.3,2.5c-0.6,0.2-1.1,0.3-1.1,1.1
		c0,2.8,0,5.6,0,8.4c0.4,0.1,0.7-0.1,1-0.2c5.7-2.2,11.6-3.3,17.8-3.1c2.4,0.1,4.7,0.4,6.8,1.5c2.9,1.4,4.4,3.7,4.4,7
		c0,1,0,2.1,0,3.1c0.1,0.8-0.3,1-1,0.9c-1.7-0.2-3.4-0.3-5.1-0.4c-5.7-0.3-11.3,0.2-16.6,2.4c-6.7,2.8-10.7,7.6-11.2,15
		c-0.7,8.7,4,15.4,12.4,17.5c4.7,1.2,9.4,1,14.1,0.5c5.6-0.6,11-1.8,16.1-4.2c0.8-0.4,1.1-0.9,1.1-1.8
		C501.4,316.6,501.4,305.6,501.4,294.6z M491.7,315.1c0,2.5,0,4.9,0,7.4c0,0.7-0.2,1.1-0.9,1.3c-5.2,1.6-10.5,2.1-15.9,1.2
		c-5.7-1-7.4-5.1-6.7-10.3c0.4-3.3,2.3-5.5,5.3-6.8c2.3-1.1,4.9-1.5,7.4-1.6c3.3-0.2,6.5,0.1,9.8,0.3c0.8,0.1,1,0.4,1,1.2
		C491.7,310.1,491.7,312.6,491.7,315.1z"/>
	<path class="st1" d="M145.6,297.9c0,5.8,0,11.5,0,17.3c0,1.1-0.3,1.4-1.4,1.4c-10.7,0-21.4,0-32.1,0c-1.1,0-1.4-0.3-1.4-1.4
		c0-11.5,0-23.1,0-34.6c0-1.1,0.3-1.4,1.4-1.4c10.7,0,21.4,0,32.1,0c1.1,0,1.4,0.3,1.4,1.4C145.6,286.4,145.6,292.1,145.6,297.9z"/>
	<path d="M113.6,314.1c2.7-4.1,4.4-8.2,5.8-12.5c1-3.2,1.6-6.5,2.1-9.8c0.2-1.1-0.2-1.4-1.2-1.4c-1.9,0.1-3.8,0-5.8,0
		c-0.7,0-1-0.2-1-1c-0.2-3.7-0.2-3.7,3.5-3.7c4.6,0,9.3,0,13.9,0c1,0,1.5-0.2,1.5-1.4c-0.1-2.7,0-2.7,2.8-2.7c2.8,0,2.8,0,2.8,2.8
		c0,1,0.3,1.3,1.3,1.2c1-0.1,2,0,3,0c0.8,0,1,0.3,1,1c0.1,3.5,0.2,3.5-3.3,3.5c-0.3,0-0.5,0-0.8,0c-1-0.1-1.3,0.3-1.3,1.3
		c0,4.7,0,9.4,0,14.2c0,2.5-0.6,5-1.3,7.4c-0.2,0.8-0.6,1.1-1.4,1c-1.4-0.1-2.8,0-4.3,0c-0.7,0-0.8-0.2-0.5-0.8
		c1.8-3.6,1.9-7.4,1.9-11.3c0-3.5,0-6.9,0-10.4c0-0.9-0.3-1.2-1.2-1.2c-3.7-0.1-3.6-0.1-4.3,3.6c-1.1,6.6-2.9,12.9-6.1,18.8
		c-0.5,0.9-1.1,1.3-2.2,1.3C117,314,115.5,314.1,113.6,314.1z"/>
</g>
</svg>
