<?xml version="1.0" encoding="utf-8"?>
<!-- Generator: Adobe Illustrator 26.3.1, SVG Export Plug-In . SVG Version: 6.00 Build 0)  -->
<svg version="1.1" id="Layer_1" xmlns="http://www.w3.org/2000/svg" xmlns:xlink="http://www.w3.org/1999/xlink" x="0px" y="0px"
	 viewBox="0 0 595.3 595.3" style="enable-background:new 0 0 595.3 595.3;" xml:space="preserve">
<style type="text/css">
	.st0{fill:#FFFFFF;}
	.st1{fill:#DC3F42;}
	.st2{fill:url(#SVGID_1_);}
	.st3{fill:url(#SVGID_00000043426408871358683020000017856010339650268312_);}
</style>
<path class="st0" d="M297.6,595.3L297.6,595.3C133.3,595.3,0,462,0,297.6l0,0C0,133.3,133.3,0,297.6,0l0,0
	C462,0,595.3,133.3,595.3,297.6l0,0C595.3,462,462,595.3,297.6,595.3z"/>
<path class="st0" d="M584.9,375.9c0.5-2,1.1-4,1.6-6L584.9,375.9z"/>
<polygon class="st0" points="586.4,369.9 586.4,369.9 586.4,369.9 "/>
<g>
	<path class="st1" d="M184,201.7c-0.3-3.4-0.8-7-0.6-10.3c1.1-11.4-3.4-15.9-15.1-15.4c-15.4,0.8-30.7,0-45.8,0.3
		c-23.5,0-35.2,11.4-35.2,35.5c-0.3,59.8-0.3,119.2,0,179c0,21.2,12,33.2,33.2,34.1c11.7,0.6,23.7,0.3,35.5,0
		c20.1,0,27.1-7,27.1-26.8c0-35.5,0-71.2,0-106.7C183.4,283.5,184,209.8,184,201.7z"/>
	
		<linearGradient id="SVGID_1_" gradientUnits="userSpaceOnUse" x1="335.6239" y1="297.4355" x2="508.1118" y2="297.4355" gradientTransform="matrix(1 0 0 -1 0 595.2756)">
		<stop  offset="0" style="stop-color:#792916"/>
		<stop  offset="0.1924" style="stop-color:#D63E3F"/>
		<stop  offset="1" style="stop-color:#DC3F42"/>
	</linearGradient>
	<path class="st2" d="M507.3,253.4c-0.6-21.8-6.4-42.4-22.1-58.9c-23.2-24-71.5-31-103.9-15.6c-10.9,3.1-19,10.6-27.6,17.6
		c-3.9,3.1-7,7.3-11.2,10.1c-2,1.4-4.7,1.4-7,2c3.4,12,6.1,24,6.7,36.6c0.6,10.9,1.4,21.8,4.2,32.4c1.7-5.3,2.5-10.9,5-15.6
		c2.2-3.9,5.6-7,8.9-9.8c7.8-6.1,17.9-8.7,27.4-6.1c17.9,4.5,24,19.8,23.7,38c-0.6,35.2-0.3,70.4,0,105.5
		c0.3,23.7,11.7,35.2,35.5,35.5c12.6,0.3,25.1,0.3,38,0c14.8-0.3,22.6-7,22.6-21.5C508.2,353.6,508.5,303.3,507.3,253.4z"/>
	
		<linearGradient id="SVGID_00000003796987499199828610000003967658327008975539_" gradientUnits="userSpaceOnUse" x1="183.0499" y1="297.6256" x2="346.7926" y2="297.6256" gradientTransform="matrix(1 0 0 -1 0 595.2756)">
		<stop  offset="0" style="stop-color:#792916"/>
		<stop  offset="0.1924" style="stop-color:#D63E3F"/>
		<stop  offset="1" style="stop-color:#DC3F42"/>
	</linearGradient>
	<path style="fill:url(#SVGID_00000003796987499199828610000003967658327008975539_);" d="M346.8,277.7c-0.6-18.1-0.6-23.2-2.2-34.1
		c-2.2-14.5-4.5-21.8-8.9-34.9c-28.5-39.1-85.2-50.5-126.2-24.9c-10.3,6.4-24,17.3-25.4,17.9c0,8.1-2,72-0.3,69
		c5.3-10.3,13.1-25.4,30.2-25.4c24.9,0,34.3,10.3,34.9,35.7c0.8,36.9,0.3,73.4,0.6,110.3c0.3,21.8,12,33.2,33.5,33.8
		c11.2,0.3,22.3,0,33.2,0c23.2,0,28.8-5.6,29-29.3C346,356.4,343.4,317,346.8,277.7z"/>
</g>
</svg>
