<?xml version="1.0" encoding="utf-8"?>
<!-- Generator: Adobe Illustrator 26.3.1, SVG Export Plug-In . SVG Version: 6.00 Build 0)  -->
<svg version="1.1" id="Layer_1" xmlns="http://www.w3.org/2000/svg" xmlns:xlink="http://www.w3.org/1999/xlink" x="0px" y="0px"
	 viewBox="0 0 595.3 595.3" style="enable-background:new 0 0 595.3 595.3;" xml:space="preserve">
<style type="text/css">
	.st0{fill:#FFFFFF;}
	.st1{fill:#5F5C50;}
	.st2{fill:url(#SVGID_1_);}
	.st3{fill:#DC3F42;}
	.st4{fill:url(#SVGID_00000161620463844549717250000000841912440676271547_);}
	.st5{fill:url(#SVGID_00000049205687319147232340000018211045086790640814_);}
	.st6{fill:url(#SVGID_00000116228527555711550960000003750002525258079110_);}
	.st7{fill:#737373;}
	.st8{fill:#5D5D5D;}
</style>
<path class="st0" d="M297.6,595.3L297.6,595.3C133.3,595.3,0,462,0,297.6l0,0C0,133.3,133.3,0,297.6,0l0,0
	C462,0,595.3,133.3,595.3,297.6l0,0C595.3,462,462,595.3,297.6,595.3z"/>
<g>
	<path class="st1" d="M115.2,349.5c-0.1-1.3-1.2-1.4-2.2-1.4c-2.2,0-4.4,0-6.6,0c-1.1,0-2.3,0.1-2.4,1.6c-0.2,1.2,0.2,2.2,1.5,2.5
		c1.5,0.3,1.6,1.3,1.3,2.5c-1.1,4.7-2.2,9.4-3.3,14.1c-2.2-5.1-3.4-10.3-5-15.4c-0.6-2,0.1-5.2-3.4-5.2c-3.6-0.1-2.9,3.1-3.5,5.1
		c-1.6,5.2-2.9,10.4-4.3,15.7c-0.3,0-0.5-0.1-0.8-0.1c-1.1-4.6-2.1-9.3-3.2-13.9c-0.3-1.4-0.2-2.4,1.5-2.8c1.4-0.3,1.5-1.5,1.3-2.6
		c-0.2-1.2-1.2-1.4-2.2-1.4c-2.3,0-4.7,0-7,0c-0.8,0-1.7,0.1-1.9,1.2c-0.1,0.9-0.5,2.2,0.6,2.6c2.8,0.9,2.6,3.3,3.1,5.3
		c1.4,5.4,2.8,10.9,4.1,16.3c0.5,2.1,1,3.8,3.8,3.8c2.7,0,3.5-1.4,4-3.6c1.3-5,2.7-10,4-15c2.2,5,3.6,10.1,4.9,15.2
		c0.5,2,1.2,3.4,3.7,3.4c2.7,0,3.5-1.3,4-3.6c1.3-5.7,2.7-11.5,4.2-17.2c0.5-1.8,0.4-3.9,2.8-4.6
		C115.5,351.7,115.3,350.5,115.2,349.5z"/>
	<path class="st1" d="M450.4,373.4c-2.1-0.5-1.8-2.1-1.8-3.6c0-2.2,0.1-4.4-0.1-6.6c-0.3-6.2-5.3-9.1-11-6.4c-1,0.4-1.6,1.5-3,1.3
		c-0.7-2.5-0.2-5.1-0.4-7.7c-0.1-1.8-1.1-2.5-2.7-2.3c-1.9,0.2-4.4-1-5.7,1.1c-1,1.7,0.4,2.7,2.1,3.1c0.3,0.1,0.7,0.6,0.7,0.9
		c0.4,6.3,0.4,12.6,0,18.8c0,0.2-0.2,0.6-0.4,0.7c-1.5,0.7-2.8,1.6-2,3.4c0.8,1.8,2.6,1,4,1.1c1.4,0.1,2.7,0,4.1,0
		c1.1,0,2.3,0,2.5-1.5c0.1-1-0.1-1.7-1-2.5c-3-2.7-2.3-9.5,1.1-11.7c3.2-2,6-0.6,6.3,3.2c0.2,2.5,0.1,4.9,0.1,7.4c0,5.1,1,5.9,6,5.1
		c1-0.2,1.9-0.3,2.1-1.5C451.6,374.7,451.6,373.7,450.4,373.4z"/>
	<path class="st1" d="M150.1,357.7c-0.8-2.4-0.3-4.6-0.4-6.7c-0.1-1.2,0.1-2.7-1.6-2.8c-2.1-0.1-4.4-0.9-6.3,0.7
		c-0.7,0.6-0.7,2.3,0.2,2.6c3.6,1.2,2.5,4.1,2.5,6.5c0.1,4.8,0,9.6,0,14.4c0,5,0,5,5.1,3.7c1.1-0.3,1.8,0.5,2.6,0.8
		c5.5,1.9,10.7-0.7,12.2-6.3c1.2-4.5,0.8-8.8-2.6-12.2C158.4,354.8,154.2,355.6,150.1,357.7z M154.8,373.3c-3.1,0.1-5.3-2.6-5.2-6.5
		c0-3.7,2.1-6.3,5-6.4c3.1-0.1,5.2,2.6,5.2,6.6C159.8,370.7,157.8,373.2,154.8,373.3z"/>
	<path class="st1" d="M320,373.6c-2.7-0.7-2.1-2.8-2.2-4.6c-0.1-2,0.1-4.1-0.1-6.1c-0.4-5.6-4.5-8.2-9.8-6.4c-2.3,0.8-4.4,4.2-7,0.2
		c-0.5-0.7-2.9-0.2-4.3-0.2c-0.9,0-1.6,0.5-1.7,1.5c-0.1,0.8,0,1.5,0.8,2.2c3.1,2.8,3.5,10.6,0.6,13.3c-0.8,0.8-1,1.5-0.9,2.5
		c0.2,1.3,1.2,1.4,2.2,1.4c1.1,0,2.2,0,3.3,0c1.1,0,2.2,0,3.3,0c0.8,0,1.7-0.2,2-1.1c0.2-0.9,0.2-1.8-0.6-2.6
		c-2.8-2.9-2.7-8.4,0.1-11.1c1.4-1.4,3-1.9,4.9-1.4c1.9,0.6,2.2,2.2,2.2,3.9c0,2.5,0,4.9,0,7.4c0,5,1.1,5.9,6.1,5
		c0.8-0.1,1.7-0.2,1.9-1.2C320.9,375.1,321.1,373.8,320,373.6z"/>
	<path class="st1" d="M351.3,356.6c-2.6-0.5-5.7-1.2-8,0.4c-2.2,1.4,0.2,2.9,1.1,4.3c0.1,0.2,0,0.6-0.1,0.8c-1.2,2.8-1.6,6-3.9,9.3
		c-0.8-2-1.4-3.3-1.8-4.6c-0.6-2.5-3.2-5,0-7.6c0.5-0.4,0.4-2.1-0.7-2.4c-2.8-0.7-5.7-0.7-8.5,0c-0.9,0.2-0.9,1.3-0.8,2.1
		c0.1,0.8,0.5,1.3,1.2,1.4c1.6,0.4,1.9,1.8,2.4,3.1c1.6,3.8,3.1,7.6,4.6,11.4c1.9,4.7,0.6,6.7-4.5,6.6c-1.6,0-2.3,0.5-2.7,1.8
		c-0.5,1.8,0.9,2.1,2,2.4c4.2,1.3,8.5-0.8,10.4-5.2c2-4.6,3.7-9.4,5.7-14.1c1-2.3,1.1-5,3.9-6.4C353,359.2,353.1,356.9,351.3,356.6z
		"/>
	<path class="st1" d="M399.3,373.1c-1.5-0.6-1.1-2-1.2-3.2c-0.1-2.9,0-5.7,0-8.6c0-4.8-1.9-6.2-6.6-4.9c-0.9,0.2-1.6,0.5-1.7,1.5
		c-0.1,0.8,0,1.5,0.7,2.2c3.1,2.9,3,8.9-0.2,11.6c-1.3,1.1-2.8,1.8-4.5,1.1c-1.9-0.7-2.1-2.4-2.1-4.1c-0.1-3.3-0.1-6.6-0.1-9.8
		c0-1.7-0.8-2.6-2.5-2.5c-1.9,0.2-4.2-1-5.7,1.1c-0.5,0.7-0.5,2.2,0.7,2.5c3,0.6,2.3,2.9,2.4,4.8c0.1,2-0.1,4.1,0.1,6.2
		c0.5,5.1,3.8,7.5,8.8,6.5c2.1-0.4,3.6-1.8,5.5-3.2c0.4,3.2,2.6,3.2,4.9,3.1c1,0,2.4,0.3,2.8-1.1C401,374.9,400.9,373.7,399.3,373.1
		z"/>
	<path class="st1" d="M363.5,355.9c-6.5,0-11.4,4.7-11.4,10.9c0,6.2,4.9,10.8,11.5,10.8c6.6,0,11.5-4.7,11.5-10.9
		C375.1,360.6,370.1,355.9,363.5,355.9z M363.6,373.2c-3.5,0-6.5-3.1-6.4-6.6c0.1-3.4,3-6.3,6.3-6.3c3.5,0,6.4,3,6.3,6.6
		C369.8,370.4,367,373.2,363.6,373.2z"/>
	<path class="st1" d="M463.2,355.9c-6.5,0.1-11.5,4.9-11.4,11c0.1,6.1,5.1,10.7,11.7,10.7c6.6-0.1,11.4-4.7,11.3-11
		C474.7,360.4,469.8,355.9,463.2,355.9z M463.5,373.2c-3.6,0-6.4-2.9-6.4-6.5c0.1-3.5,2.8-6.3,6.2-6.4c3.5-0.1,6.4,3,6.4,6.6
		C469.6,370.4,466.8,373.2,463.5,373.2z"/>
	<path class="st1" d="M501.7,356.1c-6.5-1.1-11.9,3.1-12.4,9.5c-0.5,6.8,4.1,11.9,12,12c0.7-0.1,2.4-0.3,3.9-0.8
		c1.5-0.6,3.9-0.7,2.9-3.4c-0.9-2.5-2.6-1.1-4-0.6c-3.3,1.1-6.3,0.9-8.4-2.2c-1.2-1.7-1.2-3.1,1.5-3.1c2.2,0,4.4,0.1,6.6-0.1
		c1.8-0.1,4.2,1,5.2-1.1c0.9-2.1-0.2-4.3-1.3-6.2C506.3,357.7,504.3,356.5,501.7,356.1z M499.2,364.6c-1.2-0.9-3.8,1.1-3.7-1.6
		c0.1-2.1,2.2-2.9,4.3-2.9c1.8,0,3.6,0.9,3.5,2.7C503.2,365.7,500.5,363.7,499.2,364.6z"/>
	<path class="st1" d="M178,356c-6.3-0.7-11.4,3.4-11.9,9.6c-0.5,6.8,4.2,11.8,12.1,11.9c0.7-0.2,2.4-0.3,3.9-0.9
		c1.4-0.6,4-0.6,2.9-3.4c-0.9-2.5-2.5-1.2-4-0.6c-3.3,1.1-6.3,1-8.4-2.1c-1.1-1.6-1.3-3.2,1.5-3.1c2.2,0,4.4,0.1,6.6,0
		c1.8-0.1,4.2,1,5.2-1.2c0.9-2.1-0.1-4.3-1.3-6.2C183,357.6,180.8,356.4,178,356z M176.4,364.5c-1.4-0.6-3.9,0.8-4-1.4
		c-0.2-2.1,2-3.1,4.1-3.1c2-0.1,3.8,0.9,3.8,2.9C180.1,365.6,177.6,363.8,176.4,364.5z"/>
	<path class="st1" d="M266,356.1c-6.4-1.1-11.9,3-12.5,9.3c-0.7,6.9,4.2,12.1,11.9,12.1c0.7-0.1,2.2-0.1,3.4-0.6
		c1.5-0.7,4.4-0.5,3.6-3.4c-0.8-3.2-2.9-1.2-4.6-0.7c-3,0.9-5.8,0.7-7.7-2c-1.3-1.7-1.5-3.4,1.5-3.4c2.2,0,4.4,0,6.6,0
		c5.4,0,6.6-2.2,4-7C270.8,358,268.7,356.6,266,356.1z M263.7,364.5c-1.4-0.6-3.9,0.9-4-1.3c-0.2-2.1,2-3.1,4.1-3.1
		c1.9-0.1,3.8,0.8,3.8,2.9C267.4,365.6,264.9,363.8,263.7,364.5z"/>
	<path class="st1" d="M222.6,356.2c-4.2-0.7-8,0.3-10.6,3.8c-2.7,3.6-2.9,7.6-1,11.6c2,4.1,5.6,5.8,10.8,6c1-0.2,2.7-0.4,4.4-1
		c1.3-0.5,3.5-0.7,2.6-3.2c-1-2.5-2.5-1.3-4-0.7c-3.1,1.1-5.9,1-8.2-1.7c-0.6-0.7-1.2-1.6-0.8-2.6c0.4-1.2,1.6-0.9,2.5-0.9
		c2.2-0.1,4.4,0,6.6,0c5.1,0,6.2-1.8,4.1-6.5C227.6,358.3,225.5,356.6,222.6,356.2z M224,363c-0.2,2.5-2.6,0.9-4,1.5
		c-1.3-0.7-3.8,1-3.9-1.5c-0.1-2.1,2.1-3,4.2-3.1C222.3,360,224.2,361,224,363z"/>
	<path class="st1" d="M126,356.1c-6.4-1-11.8,3.2-12.4,9.5c-0.6,6.9,4.4,12.1,12.4,12c0.7-0.2,2.4-0.3,3.9-0.9
		c1.3-0.5,3.6-0.7,2.7-3.2c-0.8-2.4-2.4-1.5-3.9-0.8c-3,1.2-5.9,1.1-8.2-1.5c-0.6-0.7-1.2-1.6-0.9-2.6c0.3-1.3,1.5-1,2.4-1
		c2-0.1,4.1,0.1,6.1-0.1c1.8-0.2,4.2,1,5.2-1.2c0.9-2.2,0-4.6-1.4-6.6C130.4,357.6,128.4,356.5,126,356.1z M127.7,363.1
		c-0.3,2.4-2.7,0.8-4.1,1.5c-1.2-0.8-3.8,1-3.8-1.6c0-2.1,2.2-3,4.3-3C126.1,360,127.9,361.1,127.7,363.1z"/>
	<path class="st1" d="M253,357.2c-2.4-1.9-5.5-0.9-8.3-0.6c-1.5,0.1-1.6,1.8-1.1,2.6c3.5,4.7-1.4,7.8-2.4,11.8c-1-2.8-2-5.6-3-8.4
		c-0.2-0.6-0.3-1.2,0.1-1.9c2.1-3.9,1.9-4.2-2.6-4.3c-1.2,0-2.5,0-3.7,0c-1,0-2,0.2-2.2,1.4c-0.2,1-0.2,2.1,1,2.4
		c2,0.5,2.2,2.3,2.8,3.7c1.4,3.4,2.7,6.9,3.9,10.4c0.7,2.1,1.7,3.1,4.1,3.1c2.3,0,3.5-0.9,4.2-3c1.2-3.6,2.7-7.2,4-10.7
		c0.4-1.1,0.6-2.6,1.8-3.1C253.5,359.8,254.3,358.1,253,357.2z"/>
	<path class="st1" d="M414.1,356.8c-2,1.1-3.6,3-5.8,0c-0.6-0.8-3.1-0.4-4.7-0.4c-0.9,0-1.6,0.4-1.8,1.3c-0.1,1,0,1.7,1,2.4
		c2.9,2.2,3.3,10.7,0.5,13.1c-1,0.9-1.2,1.8-1,2.8c0.3,1.2,1.4,1.1,2.3,1.2c1,0,1.9,0,2.9,0c0,0,0,0,0,0c1.2,0,2.5,0.1,3.7,0
		c2.5-0.3,2.4-2.1,1.3-3.5c-3.9-5.1-2.7-10.2,3.4-12.5c2.3-0.8,2.1-2.4,1.7-3.9C416.9,355.4,415.2,356.1,414.1,356.8z"/>
	<path class="st1" d="M195.7,373.1c-1.9-0.9-1.8-2.5-1.8-4.2c0-2.9,0-5.7,0-8.6c0-2.3,0-4.6,0-7c0-5.1-1.8-6.5-6.7-5.3
		c-0.9,0.2-1.6,0.5-1.7,1.5c-0.1,0.8-0.2,1.9,0.7,2.1c2.9,0.7,2.3,3,2.3,4.9c0.1,4.8,0,9.5,0.1,14.3c0.1,3.3,1.5,5.8,5.1,6.3
		c1,0.1,2.3,0.4,2.8-0.9C197.1,375.1,197.2,373.8,195.7,373.1z"/>
	<path class="st1" d="M486.9,373c-5-1.6-2.8-5.8-3.3-9c-0.4-2.5,0.6-3.9,3.3-3.8c1,0,1.2-0.9,1.2-1.8c0-0.9-0.2-1.8-1.2-1.8
		c-2.7,0-3.6-1.3-3.5-3.8c0.1-1.4-0.9-1.8-2.2-1.9c-1.3,0-2.7,0.1-2.6,1.8c0.2,2.5-1.8,3.2-3,4.8c-2,2.7,3,2.6,2.5,5.1
		c-0.1,0.8,0,1.6,0,2.5c0.1,2.1-0.1,4.1,0.3,6.1c0.6,3.8,3.7,6.3,7.5,6.2c1.1,0,2.3,0,2.5-1.5C488.7,374.4,488.4,373.4,486.9,373z"
		/>
	<path class="st1" d="M518.9,373.1c-1.9-0.8-2-2.4-2-4.1c0-2.9,0-5.7,0-8.6c0,0,0,0,0,0c0-3.1,0-6.3,0-9.4c0-1.3-0.1-2.7-1.8-2.7
		c-2.1-0.1-4.5-0.9-6.2,0.8c-0.7,0.7-0.7,2.4,0.6,2.7c2.8,0.6,2.2,2.7,2.2,4.5c0.1,4.9,0,9.8,0.1,14.8c0.1,3.4,1.6,5.8,5.3,6.2
		c1,0.1,2.4,0.4,2.8-1C520.2,375.1,520.4,373.7,518.9,373.1z"/>
	<path class="st1" d="M208.4,373.8c-2.6-1.5-2-3.6-2.1-5.6c-0.1-3,0-6,0-9c0-1.5-0.3-2.9-2.2-2.8c-2.1,0.1-4.4-0.9-6.2,1
		c-0.5,0.6-0.5,2,0.1,2.2c4.2,1.4,2.5,4.8,2.9,7.6c-0.5,2.2,1,5-2.2,6.8c-1.3,0.7-1.1,3.2,1.4,3.3c2.3,0.2,4.7,0.2,7,0
		C209.7,377,209.8,374.5,208.4,373.8z"/>
	<path class="st1" d="M293.4,373.9c-3-1.6-2.1-4.1-2.2-6.4c-0.1-2.9-0.1-5.8,0-8.6c0-1.7-0.7-2.7-2.4-2.6c-2.1,0.2-4.5-1.1-6,1.2
		c-0.5,0.7-0.3,1.8,0.6,2.5c3.2,2.9,3.6,10.4,0.5,13.3c-0.8,0.8-1,1.6-0.9,2.5c0.2,1.3,1.2,1.4,2.1,1.4c1.1,0,2.2,0,3.3,0
		c0,0,0,0,0,0c1.2,0,2.5,0.2,3.7,0C294.3,376.8,294.6,374.6,293.4,373.9z"/>
	<g>
		<g>
			<linearGradient id="SVGID_1_" gradientUnits="userSpaceOnUse" x1="436.8811" y1="302.2827" x2="369.8383" y2="302.2827">
				<stop  offset="0" style="stop-color:#792916"/>
				<stop  offset="0.1924" style="stop-color:#D63E3F"/>
				<stop  offset="1" style="stop-color:#DC3F42"/>
			</linearGradient>
			<path class="st2" d="M435.9,292.1c-2.8,15.7-6.7,16.9-9,18.2c-2.8,1.6-9.7,3.7-14.6,3c-4.4-0.6-7.2-3.2-7.8-7.2
				c-0.7-4.2,1.2-7.1,4.8-9.1c5.3-3,17.8-6,18.2-6.1c2-0.4,3.9-0.9,5.7-1.8c0.2-0.1,0.5-0.2,0.7-0.4l0.1,0l0.3,0
				c1.7-5.6,1.6-11.2,0-16.8c-0.2,0-0.4,0.1-0.6,0.3l0,0c-2.5,0.8-4.9,1.6-7.4,2.4l0,0c-10,2.2-20.1,4.3-30.1,6.5
				c-4.7,1-9.3,2.4-13.6,4.5c-6.4,3.2-10.4,8.3-12,15.3c-2.9,13.1,3.6,24.9,16.2,29.5c4.2,1.5,8.5,2.2,12.9,2.3
				c9.9,0.2,19.7-0.4,28.4-6.2c1.8-1.4,5.4-3.7,8.1-5.8C438.4,311.1,434.8,301.7,435.9,292.1z"/>
			<path class="st3" d="M436.5,325c1.4,5.8,2.4,6.7,8.3,6.9c5.2,0.2,10.4,0.2,15.6,0.2c6.6,0,8.8-2.3,7.8-8.8
				c-0.8-5.3-0.7-10.6-0.7-16c0-11.2,0.1-22.5-0.1-33.7c-0.3-18.3-9.9-28.9-27.9-31.3c-3.9-0.5-7.9-0.9-11.9-1.1
				c-11.8-0.7-23.6-0.5-35,3c-9,2.7-15.7,8.2-19.1,17.3c-1.7,4.6-0.9,6.3,3.9,7.3c7.5,1.6,15.2,1.9,22.8,2.8c2,0.2,3.9-0.6,5-2.3
				c4.7-8.1,12.4-8.2,20.2-7.5c6,0.5,7.3,4,8,10.2C434.2,277.7,436.2,323.5,436.5,325z"/>
		</g>
		<g>
			<path class="st3" d="M521.3,255.7c0-8.4-4.1-12.5-12.7-12.6c-4.2,0-8.5,0-12.7,0c-6.2,0.1-8.8,2.5-8.8,8.7
				c-0.1,22.7-0.1,45.4,0,68.2c0,7.4,4.2,11.7,11.7,12c4.2,0.2,8.5,0.1,12.7,0.1c7.5,0,9.8-2.3,9.9-9.8c0-11.1,0-22.2,0-33.3
				C521.3,277.9,521.3,266.8,521.3,255.7z"/>
			<path class="st3" d="M495.1,232.5c5.5,0.1,11,0.1,16.4,0c5.5-0.1,9-3.3,9.6-8.8c0.3-3.5,0.1-7.1,0.2-10.7
				c0.1-2.6-1.2-3.7-3.8-3.6c-3.4,0.1-6.8,0-10.3,0c-3.2,0-6.3-0.1-9.4,0c-5.3,0.1-8.6,2.8-10.2,7.9c-0.7,2.3-0.6,4.6-0.6,6.9
				C487.2,229.7,489.7,232.4,495.1,232.5z"/>
		</g>
		<g>
			<path class="st3" d="M278.3,255.2c0-7.7-4.2-11.9-12-12c-4.2-0.1-8.5,0-12.7,0c-7.1,0-9.4,2.2-9.4,9.3c0,22.5,0,44.9,0,67.4
				c0,7.9,4.1,12.1,12.2,12.3c4.2,0.1,8.5,0.1,12.7,0c6.7-0.1,9.2-2.5,9.2-9.2c0.1-11.2,0-22.5,0-33.7
				C278.3,277.9,278.3,266.5,278.3,255.2z"/>
			<path class="st3" d="M252.2,232.5c5.3,0.1,10.7,0.1,16,0c6-0.1,9.7-3.6,10-9.7c0.2-3.3,0-6.6,0.1-9.9c0-2.7-1.3-3.6-3.8-3.6
				c-3.4,0.1-6.8,0-10.3,0c-3,0-6-0.1-9,0c-6.2,0.1-10.2,3.8-10.9,10c-0.2,1.6-0.2,3.3-0.1,4.9C244.3,229.8,246.8,232.4,252.2,232.5
				z"/>
		</g>
		<g>
			<path class="st3" d="M334.1,320.9c0.1-8.6-0.1-17.3,0.1-25.9c0.1-5.5,0.1-24.7,0-28.8c-0.2-5.5-0.1-11.1-0.2-16.6c0,0,0,0,0,0
				c0,0,0,0,0,0c-2.2-4.6-5.8-6.6-10.9-6.4c-4.8,0.1-9.6,0-14.4,0c-7.6,0-11,3.3-11,11c-0.1,22.3-0.1,44.6,0,67
				c0,7.6,3.5,10.9,11.2,11c4.7,0.1,9.3,0,14,0C330.6,332,334,328.7,334.1,320.9z"/>
			
				<linearGradient id="SVGID_00000132804878105514207370000011935766684088540061_" gradientUnits="userSpaceOnUse" x1="333.7561" y1="259.8507" x2="366.8793" y2="259.8507">
				<stop  offset="0" style="stop-color:#792916"/>
				<stop  offset="0.1924" style="stop-color:#D63E3F"/>
				<stop  offset="1" style="stop-color:#DC3F42"/>
			</linearGradient>
			<path style="fill:url(#SVGID_00000132804878105514207370000011935766684088540061_);" d="M364.9,244.5c-7.4-3.2-15-5.2-22.8-1.3
				c-3.5,0.7-5.4,3.4-7.4,5.9c-0.3,0.2-0.6,0.3-0.9,0.5c0,0,0,0,0,0c0.1,5.5,0.4,24.5,0.4,29.1c0.6-1.5,1.7-3.1,2.4-4.6
				c2.1-2.1,3.6-4.7,6.5-6h0c3.7-0.3,7.3-0.4,10.9,0.9c2.2,0.8,3.8-0.2,4.7-2.1c2.7-6,5.3-12,7.9-18
				C367.3,247,366.9,245.3,364.9,244.5z"/>
		</g>
		<g>
			<path class="st3" d="M108.6,252.2c-0.1-1.2-0.3-2.5-0.2-3.7c0.4-4.1-1.2-5.7-5.4-5.5c-5.5,0.3-11,0-16.4,0.1
				c-8.4,0-12.6,4.1-12.6,12.7c-0.1,21.4-0.1,42.7,0,64.1c0,7.6,4.3,11.9,11.9,12.2c4.2,0.2,8.5,0.1,12.7,0c7.2,0,9.7-2.5,9.7-9.6
				c0-12.7,0-25.5,0-38.2C108.4,281.5,108.6,255.1,108.6,252.2z"/>
			
				<linearGradient id="SVGID_00000018209598160782371270000000835520809611011717_" gradientUnits="userSpaceOnUse" x1="162.9249" y1="286.6905" x2="224.6934" y2="286.6905">
				<stop  offset="0" style="stop-color:#792916"/>
				<stop  offset="0.1924" style="stop-color:#D63E3F"/>
				<stop  offset="1" style="stop-color:#DC3F42"/>
			</linearGradient>
			<path style="fill:url(#SVGID_00000018209598160782371270000000835520809611011717_);" d="M224.4,270.7
				c-0.2-7.8-2.3-15.2-7.9-21.1c-8.3-8.6-25.6-11.1-37.2-5.6c-3.9,1.1-6.8,3.8-9.9,6.3c-1.4,1.1-2.5,2.6-4,3.6
				c-0.7,0.5-1.7,0.5-2.5,0.7c1.2,4.3,2.2,8.6,2.4,13.1c0.2,3.9,0.5,7.8,1.5,11.6c0.6-1.9,0.9-3.9,1.8-5.6c0.8-1.4,2-2.5,3.2-3.5
				c2.8-2.2,6.4-3.1,9.8-2.2c6.4,1.6,8.6,7.1,8.5,13.6c-0.2,12.6-0.1,25.2,0,37.8c0.1,8.5,4.2,12.6,12.7,12.7c4.5,0.1,9,0.1,13.6,0
				c5.3-0.1,8.1-2.5,8.1-7.7C224.7,306.6,224.8,288.6,224.4,270.7z"/>
			
				<linearGradient id="SVGID_00000127755273256633408110000018152742739639194298_" gradientUnits="userSpaceOnUse" x1="108.2909" y1="286.5899" x2="166.8869" y2="286.5899">
				<stop  offset="0" style="stop-color:#792916"/>
				<stop  offset="0.1924" style="stop-color:#D63E3F"/>
				<stop  offset="1" style="stop-color:#DC3F42"/>
			</linearGradient>
			<path style="fill:url(#SVGID_00000127755273256633408110000018152742739639194298_);" d="M166.9,279.4c-0.2-6.5-0.2-8.3-0.8-12.2
				c-0.8-5.2-1.6-7.8-3.2-12.5c-10.2-14-30.5-18.1-45.2-8.9c-3.7,2.3-8.6,6.2-9.1,6.4c0,2.9-0.7,25.8-0.1,24.7
				c1.9-3.7,4.7-9.1,10.8-9.1c8.9,0,12.3,3.7,12.5,12.8c0.3,13.2,0.1,26.3,0.2,39.5c0.1,7.8,4.3,11.9,12,12.1c4,0.1,8,0,11.9,0
				c8.3,0,10.3-2,10.4-10.5C166.6,307.6,165.7,293.5,166.9,279.4z"/>
		</g>
	</g>
	<path class="st7" d="M288.6,352.8c1.9,0,2.7-0.7,2.6-2.7c-0.1-1.9-1.3-2.1-3-2.1c-1.7-0.1-2.5,0.8-2.5,2.7
		C285.9,352.6,287.1,352.8,288.6,352.8z"/>
	<path class="st8" d="M203.4,352.7c1.5,0.1,2.8-0.1,2.9-2c0.1-2-0.9-2.6-2.7-2.6c-1.5,0-2.6,0.4-2.6,2.3
		C201,352.1,201.8,352.8,203.4,352.7z"/>
</g>
</svg>
