<?xml version="1.0" encoding="utf-8"?>
<!-- Generator: Adobe Illustrator 26.3.1, SVG Export Plug-In . SVG Version: 6.00 Build 0)  -->
<svg version="1.1" id="Layer_1" xmlns="http://www.w3.org/2000/svg" xmlns:xlink="http://www.w3.org/1999/xlink" x="0px" y="0px"
	 viewBox="0 0 595.3 595.3" style="enable-background:new 0 0 595.3 595.3;" xml:space="preserve">
<style type="text/css">
	.st0{fill:#FFFFFF;}
	.st1{fill:#CC363B;}
</style>
<path class="st0" d="M297.6,595.3L297.6,595.3C133.3,595.3,0,462,0,297.6l0,0C0,133.3,133.3,0,297.6,0l0,0
	C462,0,595.3,133.3,595.3,297.6l0,0C595.3,462,462,595.3,297.6,595.3z"/>
<path class="st1" d="M352.9,508.1c-45.4-1.4-90.2-10.1-131.8-31.6c-27.8-14.3-52.3-33-66.6-61.6c-20.9-41.6-16.4-80,13.9-117.3
	c7.8-9.5,16.4-18.2,26.4-25.4c2.3-1.7,4.9-4,7.5-0.7c2.3,3-0.3,4.8-2.2,6.8c-15.7,16.4-31.1,33.1-39.7,54.6
	c-6.4,16.1-7.2,32.5-3.2,49.5c9.7,40.6,38.2,63.6,74.1,79c47.9,20.4,98,30.1,150.3,25.4c10.8-1,21.4-2.8,31.5-7.2
	c19.2-8.4,25.6-22.2,18.3-41.9c-6.9-18.9-18.2-35.4-30.4-51.3c-24.5-31.9-54.9-57.7-84.9-84c-22-19.2-45.9-35.6-69.4-52.8
	c-12.9-9.5-25.3-19.7-35.3-32.3c-17.7-22.3-21.6-46.7-7.9-72.1c19.5-36.1,49.1-57.7,91.3-58c38.5-0.2,73.1,30.7,78.5,68.9
	c1,7.2,1.6,14.4,0.7,21.7c-0.6,4.9-2.8,7.2-7.9,6.1c-1.4-0.3-2.9-0.6-4.3-0.6c-6.2-0.1-7.8-3.1-7.5-9.2c1.2-25.1-8.4-45.3-29.9-58.5
	c-21.4-13.2-43.8-11.6-65.4-0.3c-19.8,10.4-33.9,26.4-41.6,47.6c-4.4,12.2-2.5,23.8,4.4,34.6c10.6,16.7,25.7,28.9,41.6,39.9
	c47.8,33.1,92.2,70.1,132,112.6c21.6,23.1,42,47.2,53.8,77.3c4.4,11.3,5.8,23.1,3.4,34.9c-3.5,17.5-15.1,28-31,34.7
	C400,506,377.1,508,352.9,508.1z"/>
</svg>
