<svg xmlns="http://www.w3.org/2000/svg" xml:space="preserve" style="enable-background:new 0 0 595.3 595.3" viewBox="0 0 595.3 595.3"><path d="M297.6 595.3C133.3 595.3 0 462 0 297.6 0 133.3 133.3 0 297.6 0 462 0 595.3 133.3 595.3 297.6c0 164.4-133.3 297.7-297.7 297.7" style="fill:#fff"/><path d="M352.9 508.1c-45.4-1.4-90.2-10.1-131.8-31.6-27.8-14.3-52.3-33-66.6-61.6-20.9-41.6-16.4-80 13.9-117.3 7.8-9.5 16.4-18.2 26.4-25.4 2.3-1.7 4.9-4 7.5-.7 2.3 3-.3 4.8-2.2 6.8-15.7 16.4-31.1 33.1-39.7 54.6-6.4 16.1-7.2 32.5-3.2 49.5 9.7 40.6 38.2 63.6 74.1 79 47.9 20.4 98 30.1 150.3 25.4 10.8-1 21.4-2.8 31.5-7.2 19.2-8.4 25.6-22.2 18.3-41.9-6.9-18.9-18.2-35.4-30.4-51.3-24.5-31.9-54.9-57.7-84.9-84-22-19.2-45.9-35.6-69.4-52.8-12.9-9.5-25.3-19.7-35.3-32.3-17.7-22.3-21.6-46.7-7.9-72.1 19.5-36.1 49.1-57.7 91.3-58 38.5-.2 73.1 30.7 78.5 68.9 1 7.2 1.6 14.4.7 21.7-.6 4.9-2.8 7.2-7.9 6.1-1.4-.3-2.9-.6-4.3-.6-6.2-.1-7.8-3.1-7.5-9.2 1.2-25.1-8.4-45.3-29.9-58.5-21.4-13.2-43.8-11.6-65.4-.3-19.8 10.4-33.9 26.4-41.6 47.6-4.4 12.2-2.5 23.8 4.4 34.6 10.6 16.7 25.7 28.9 41.6 39.9 47.8 33.1 92.2 70.1 132 112.6 21.6 23.1 42 47.2 53.8 77.3 4.4 11.3 5.8 23.1 3.4 34.9-3.5 17.5-15.1 28-31 34.7-21.6 9.1-44.5 11.1-68.7 11.2" style="fill:#cc363b"/></svg>