<?xml version="1.0" encoding="utf-8"?>
<!-- Generator: Adobe Illustrator 26.3.1, SVG Export Plug-In . SVG Version: 6.00 Build 0)  -->
<svg version="1.1" id="Layer_1" xmlns="http://www.w3.org/2000/svg" xmlns:xlink="http://www.w3.org/1999/xlink" x="0px" y="0px"
	 viewBox="0 0 595.3 595.3" style="enable-background:new 0 0 595.3 595.3;" xml:space="preserve">
<style type="text/css">
	.st0{fill:#FFFFFF;}
	.st1{fill:#FE363B;}
	.st2{fill:#111111;}
</style>
<path class="st0" d="M297.6,595.3L297.6,595.3C133.3,595.3,0,462,0,297.6v0C0,133.3,133.3,0,297.6,0h0
	C462,0,595.3,133.3,595.3,297.6v0C595.3,462,462,595.3,297.6,595.3z"/>
<g>
	<path class="st1" d="M46.3,304.1c-4.1,8.6-6.8,17.5-7.3,27.1c-1,19.9,6.7,35.8,21.5,48.6c15.8,13.7,34.8,20.2,54.7,25
		c22.5,5.4,45.2,8.2,68.2,3.4c0.2,0,0.4,0,0.6-0.1c21.7-4.5,27.7-16.8,17.9-36.6c-7.8-15.7-18.7-29.2-30.7-41.9
		c-18.4-19.5-39.3-36.1-61-51.7c-10.4-7.5-20.8-15-29.9-24.1c-15.4-15.5-17-30.8-5.1-49.1c14-21.5,33.4-30,57.8-25.1
		c20.4,4.1,35.7,24.8,33.6,45.3c-0.2,1.9-0.2,4-2.8,4c-2.2,0-3.3-1.4-3.6-3.6c-0.6-4.1-0.6-8.2-1.7-12.3
		c-5.8-21-25.5-32.7-46.6-27.3c-18.5,4.7-30.5,16.7-36.9,34.4c-3.1,8.4-0.5,15.8,4.9,22.5c9.3,11.6,20.8,20.6,32.8,29.2
		c25.3,18,49.5,37.5,70.1,61c10.8,12.3,20.9,25.1,27,40.6c7.5,19.3,1.9,31.7-17.5,39.1c-13.9,5.3-28.5,4.9-42.9,4.3
		c-29.7-1.1-57.5-8.8-82.3-25.7c-20.6-14-31.6-33.6-31.5-58.5C35.7,322.1,40,312.6,46.3,304.1z"/>
	<path class="st2" d="M279,378.5c-4.9,4.1-6,9.6-8.3,14.4c-0.7,1.5-0.8,3.5-2.9,3.5c-2,0-2.4-1.9-2.9-3.5c-0.7-1.9-1.4-3.9-2.4-5.7
		c-1.2-2.2-1.2-6.4-4.1-6c-3.4,0.5-1.3,4.5-1.7,6.8c-0.3,1.8,0,3.7,0,5.6c0,1.3-0.2,2.5-1.8,2.7c-2,0.3-2.6-1.1-2.6-2.6
		c-0.1-8.5,0-16.9,0-25.4c0-1.9,0.9-3.2,2.8-3.3c2.4-0.1,3.7,1.4,4.5,3.5c2.5,6.5,5,12.9,8.2,21.2c2.9-7.6,5.2-13.6,7.5-19.6
		c1-2.5,1.8-5.5,5.3-5.1c4,0.6,2.6,3.9,2.6,6.4c0,6.8,0,13.6,0.1,20.4c0,1.8,0.8,4.2-1.9,4.3c-3.2,0.2-2.4-2.5-2.4-4.5
		C279,387.3,279,382.9,279,378.5z"/>
	<path class="st2" d="M375.3,389.7c3-7.7,5.5-14,7.9-20.4c0.9-2.4,1.8-4.8,5.1-4.2c3.6,0.7,2.7,3.4,2.7,5.9
		c-0.1,7.2,0,14.5-0.1,21.7c0,1.7,0.2,3.7-2.1,3.7c-2.3,0-2.1-1.9-2.2-3.6c-0.2-5.1-0.5-10.2-1.9-15.6c-2.1,5.2-4.3,10.4-6.3,15.6
		c-0.6,1.6-1.1,3.5-3,3.6c-2,0.1-2.4-1.9-3-3.4c-2.1-5.1-3.9-10.3-7.5-16c-1.4,5.8-0.7,10.6-0.8,15.3c-0.1,1.9,0.4,4.2-2.3,4
		c-2.3-0.1-1.9-2.3-1.9-3.9c0-7.4,0-14.9,0-22.3c0-2-0.6-4.4,2.3-5c2.7-0.5,4.2,1.1,5.1,3.4C369.6,375.1,372.2,381.6,375.3,389.7z"
		/>
	<path class="st2" d="M476.1,385.7c0-0.8,0-1.7,0-2.5c0-7.3,7.2-12.3,13.8-8.9c2.9,1.5,4.8,1,7.3,0c6.1-2.3,9.8-0.1,10.3,6.2
		c0.3,4.1,0.2,8.3,0.1,12.4c0,1.4,0.3,3.3-1.7,3.4c-2.4,0.1-2.2-2-2.2-3.6c0-3.5,0-7-0.1-10.5c-0.1-2.7-1.1-5-4.3-5
		c-3.1,0-5.1,1.8-5.3,4.9c-0.3,3.9-0.2,7.9-0.2,11.8c0,1.4-0.6,2.5-2,2.6c-1.6,0-1.9-1.4-1.9-2.6c-0.1-3.7,0-7.4-0.1-11.2
		c-0.1-2.8-0.7-5.5-4.4-5.5c-3.5,0-5.2,2-5.2,5.5c0,3.7,0,7.4-0.1,11.2c0,1.4-0.6,2.5-2,2.5c-1.6,0-1.9-1.3-1.9-2.6
		C476.1,391,476.2,388.4,476.1,385.7C476.1,385.7,476.1,385.7,476.1,385.7z"/>
	<path class="st2" d="M458.8,364.2c3.5-0.1,6.5,1,9.1,3.3c0.9,0.8,1.4,1.7,0.8,2.7c-0.6,0.9-1.7,1.1-2.8,0.7
		c-2.5-0.9-4.7-2.7-7.4-2.9c-2.7-0.1-5,0.4-5.8,3.4c-0.8,2.9,0.5,4.7,3.2,5.7c3.1,1.2,6.2,2.2,9.2,3.5c3.8,1.7,5.6,4.6,5.2,8.9
		c-0.4,4.2-3.1,6.2-6.7,7.1c-5,1.3-9.8,1-14.2-2.1c-1.2-0.9-3.4-1.5-2-3.7c1.3-2.2,2.8-0.9,4.1,0.1c3.2,2.4,6.6,3.3,10.5,2
		c1.9-0.6,3.3-1.7,3.5-3.9c0.2-2.3-0.6-4.1-2.9-4.9c-2.3-0.8-4.7-1.6-7-2.4c-5.1-1.8-9.2-4.5-7.8-10.7
		C449.1,365.5,453.8,364.5,458.8,364.2z"/>
	<path class="st2" d="M539.8,380.4c0-3.9,0-7.9,0-11.8c0-1.6-0.1-3.7,2.2-3.7c2.1,0,1.9,2,1.8,3.3c-0.7,5.5,0.6,7.1,6.5,5.3
		c5.6-1.8,8.7,1,9.2,6.8c0.3,4.1,0.1,8.3,0.2,12.4c0,1.7,0.1,3.8-2.1,3.8c-2.5,0-2.5-2.2-2.6-4.1c0-3.3,0-6.6-0.1-9.9
		c-0.1-2.8-0.2-5.6-4.1-5.6c-3.5,0-6.2,1.3-6.7,5c-0.4,3.5-0.1,7-0.3,10.5c-0.1,1.5,0.6,3.9-1.8,3.9c-2.7,0-2.2-2.4-2.2-4.2
		C539.8,388.2,539.8,384.3,539.8,380.4z"/>
	<path class="st2" d="M420.9,397.5c-0.8-0.1-1.9-0.1-2.8-0.5c-2.2-0.7-6.1-1.2-5.2-3.9c1-3.3,3.7,0.1,5.7,0.4
		c2.8,0.5,5.8,1.3,6.9-1.9c1.3-3.9-2.2-3.9-4.7-4.8c-2.8-1-6.4-1.3-7.5-4.7c-1.2-3.6-0.1-6.6,3.6-8.2c4.1-1.8,8-1.1,11.5,1.8
		c0.3,0.3,0.3,1.2,0.1,1.7c-0.3,0.9-1.1,1.2-2,0.9c-1-0.3-1.8-0.9-2.8-1.2c-2.5-0.7-5.3-1.1-6.3,1.9c-1.1,3.3,2.3,3.2,4.1,4.1
		c0.7,0.4,1.6,0.4,2.4,0.6c3.7,1.3,7.1,2.9,6.3,7.8C429.1,396.4,425.2,397.2,420.9,397.5z"/>
	<path class="st2" d="M527.9,367.8c0.7,0.3,1.8,0.7,1.8,0.8c-1.1,3.8,7.7,5.9,1.5,10.9c-2.9,2.4-0.8,12,2.5,14.5
		c0.7,0.5,1.4,0.8,1.3,1.7c-0.1,0.9-0.8,1.3-1.7,1.5c-3.6,0.8-6.2-0.5-6.8-4.3c-0.8-5.5,0.5-11.1-2.3-16.7
		C523,374.2,525.5,370.2,527.9,367.8z"/>
	<path class="st2" d="M291.2,385.5c0-1.2,0-2.5,0-3.7c0.1-6.6,2.4-8.8,8.8-8.2c0.6,0.1,1.4,0.8,1.7,1.4c0.5,0.8,0.1,1.8-0.8,2
		c-7.9,1.3-5.3,7.5-5.9,12.2c-0.2,1.4,0.1,2.9,0.2,4.3c0.1,1.5-0.6,2.4-2.1,2.4c-1.6,0-2.1-1-2.1-2.4
		C291.1,390.9,291.1,388.2,291.2,385.5C291.1,385.5,291.2,385.5,291.2,385.5z"/>
	<path class="st2" d="M406.8,373.6c1-0.1,1.5,0.5,1.9,1.2c0.6,1.2,0.1,2.1-1,2.3c-6.5,1-5.3,6-5.7,10.4c-0.3,3,1.7,8.6-1.7,8.5
		c-4.2-0.2-1.3-5.7-2-8.8c-0.4-1.6-0.1-3.3-0.1-4.9C398.2,374.4,399.5,373.1,406.8,373.6z"/>
	<path class="st2" d="M514.6,385.1c0-2.9,0-5.7,0-8.6c0-1.1,0.5-2,1.8-2c1.2,0,2,0.8,2,1.8c0.1,6.1,0.1,12.3,0,18.4
		c0,1-0.9,1.9-2.1,1.7c-1.2-0.2-1.7-1.1-1.7-2.2C514.5,391.2,514.6,388.1,514.6,385.1C514.6,385.1,514.6,385.1,514.6,385.1z"/>
	<path class="st1" d="M391.8,286.2c-2.8-3.7-5.8-2.7-8.4-0.1c-4.7,4.6-9.1,9.6-13.8,14.3c-10.6,10.7-20.7,8.5-25.9-5.7
		c-0.7-1.9-1.2-4-1.6-6c-2.5-12-2.3-24.3-3.6-36.4c-0.7-6.1,0.9-10.7,5.6-14.8c3-2.6,6.3-5.3,7.6-9.5c-3.3,1.8-6.4,4-9.3,6.3
		c-2.7,2.1-4,1.3-4.4-1.8c-0.6-4.5-1.3-9-2-13.5c-0.2-1.7-0.5-3.4-2.8-3.3c-2.3,0.1-3.2,1.5-3.3,3.7c0,2.5-0.3,5,0,7.4
		c1.3,14.3-4.4,23.9-18.3,28.5c-1.4,0.4-2.6,1.2-3.9,1.9c-3.3,1.7-4.8,0.6-4.3-3c0.6-4.7,1.4-9.4,2.1-14.1c1.4-9,2.9-18,4.3-26.9
		c0.3-1.9,0.9-4.4-2-5.1c-3.3-0.9-2.9,2.1-3.7,3.7c-0.3,0.7-0.3,1.6-0.5,2.4c-3.1,13.9-6.3,27.8-9.3,41.7c-1,4.8-3.4,7-8.3,7.4
		c-7.5,0.7-14.9,0.8-22.3,0c-2-0.2-5.1-1.5-5.6,1.9c-0.5,3.5,2.4,3.7,4.9,4.1c7.4,1.1,14.9,0.9,22.3,0.1c3.8-0.4,5.6,0.6,4.3,4.8
		c-5.3,16.8-10.4,33.6-19.9,48.6c-0.9,1.5-1.4,3.8-3.8,3.5c-2.4-0.3-2.4-2.7-2.9-4.3c-4-13.5-7.9-27-11.8-40.4
		c-0.8-2.6-1.2-5.5-4.9-5.4c-3.2,0-3.9,2.6-4.8,4.9c-4.9,12.3-9.6,24.7-17.1,35.7c-1,1.5-1.4,3.8-3.8,3.5c-2.3-0.3-2.2-2.7-3-4.3
		c-5.9-13-9.5-26.9-14-40.4c-0.8-2.5-1-5.6-4.6-5.6c-3.4-0.1-4.3,2.7-5.5,5.1c-3.8,7.8-7.6,15.6-11.4,23.4c-0.6,1.2-1.1,3.1-2.9,2.6
		c-0.9-0.3-1.8-1.6-2.3-2.7c-3.6-7.6-5.4-15.6-6.1-23.9c-0.2-2.1-0.1-4.7-2.9-4.6c-3.5,0.1-2.6,3-2.6,5.2c0.3,9,2.2,17.6,6.3,25.7
		c1.8,3.6,2.9,8.7,7.6,9c5.1,0.3,5.8-5.2,7.8-8.6c4-6.7,6.3-14.2,11.4-21.2c0.9,2.3,1.5,3.8,2,5.3c4.2,12.3,8,24.8,13.4,36.7
		c3.7,8,6.7,8.4,12.4,1.6c5.5-6.5,9.6-13.9,13-21.8c2.1-4.9,4.3-9.8,6.6-15.1c2.2,2.6,2.4,5.2,3.1,7.5c3.2,11.5,5.9,23.2,11,34.2
		c3.7,8.1,6.9,8.5,12.2,1.5c7.1-9.5,11.7-20.4,15.6-31.5c1.7-4.8,2.8-9.9,5.5-14.3c0.6,0.1,1.3,0.2,1.9,0.3c0,4.7-0.2,9.4,0,14.1
		c0.5,13.5,2,26.8,7,39.5c2.5,6.2,6,6.6,9.7,1.2c2.6-3.7,4.8-7.8,6.6-11.9c7-16.5,10-34,12.5-51.6c0.6-4.2,0.4-8.6,3.4-12.8
		c0.6,5,1,9.3,1.5,13.6c0.8,7.6,2,15.2,5.1,22.3c5.9,13.5,19.1,16,29.4,5.4c2.9-3,5.6-6.1,8.3-9.2c10-11.3,10.3-11.3,16.3,2.8
		c3,6.9,4.7,14.4,8.8,21.8C403.5,313.8,394.1,289.2,391.8,286.2z M311.2,329.1c-0.7,1.6-0.7,4.2-3,4.2c-2.9,0-2.3-3-2.8-4.8
		c-4.8-18.4-4.9-37.1-3.8-56c0.3-5.3,2.6-8.8,7.7-10.8c4.6-1.8,9-4.2,13.3-6.5c3.5-1.8,5.6-1.9,5.1,0.9
		C324,282.4,321.6,306.7,311.2,329.1z"/>
	<path class="st2" d="M339.5,385.8c0.6-1.1,0.6-2.6-0.7-3.3c-1.3-0.8-2.4-0.1-2.8,1.3c-0.9,3.3-2.4,1.8-3.9,0.6
		c-4.2-3.3-0.9-5.7,0.9-8.3c2.3-3.3,2.9-6.6-0.3-9.5c-3-2.7-6.5-2.5-9.8-0.4c-3.3,2.1-3.9,5.4-2.8,8.8c0.9,2.8,0.4,4.8-1.7,6.6
		c-3.9,3.3-4.3,7.4-1.9,11.7c2.6,4.5,6.8,5.1,11.4,3.7c4-1.3,8-1.7,13.6-0.6C338.4,392.5,337.5,389.3,339.5,385.8z M328,368.4
		c1.9,0.2,3.1,1.4,2.9,3.3c-0.2,2.5-1.7,4.1-4.4,4.5c-2.4-0.4-2.6-2.4-2.5-4.2C324,369.6,325.4,368.2,328,368.4z M324.9,393.9
		c-3.7-0.2-5.4-2.6-5.1-6.2c0.2-2.5,1.6-4.1,4-4.7c1.4,0.1,7.4,7.2,6.9,8.2C329.5,393.5,327.1,394,324.9,393.9z"/>
</g>
</svg>
