<?xml version="1.0" encoding="utf-8"?>
<!-- Generator: Adobe Illustrator 26.3.1, SVG Export Plug-In . SVG Version: 6.00 Build 0)  -->
<svg version="1.1" id="Layer_1" xmlns="http://www.w3.org/2000/svg" xmlns:xlink="http://www.w3.org/1999/xlink" x="0px" y="0px"
	 viewBox="0 0 595.3 595.3" style="enable-background:new 0 0 595.3 595.3;" xml:space="preserve">
<style type="text/css">
	.st0{fill:#FFFFFF;}
	.st1{fill:#62B7EC;}
</style>
<path class="st0" d="M297.6,595.3L297.6,595.3C133.3,595.3,0,462,0,297.6l0,0C0,133.3,133.3,0,297.6,0l0,0
	C462,0,595.3,133.3,595.3,297.6l0,0C595.3,462,462,595.3,297.6,595.3z"/>
<path class="st1" d="M161.2,194.7c54.7-68.6,101.1-67.2,151.6,4.2c9.7-17.3,22.9-31.9,40.2-40.9c60.9-33.2,138.5,5.5,150.3,74.1
	c1.4,10.4,2.8,20.1,2.8,30.5c0,50.5,0,101.8,0,152.3c0,21.5-13.8,34.6-36,34.6c-21.5,0-34.6-13.2-34.6-34.6c0-45-0.7-90-0.7-135
	c0-12.5,1.4-24.2-3.5-36.7c-8.3-21.5-31.9-35.3-53.3-31.9c-25.6,4.8-44.3,24.2-44.3,49.2c0,50.5-0.7,101.8,0,152.3
	c0,15.9-5.5,27-20.1,33.2c-15.2,6.2-29.8,4.8-42.9-5.5c-7.6-6.2-9.7-15.2-9.7-24.9c0-50.5,0-101.1,0-151c0-29.8-21.5-53.3-49.9-53.3
	c-27.7-0.7-51.2,22.2-51.2,52.6c-0.7,31.9,0.7,63.7,0.7,96.3c0,20.8,0,41.5-0.7,62.3c-0.7,13.2-9.7,22.9-25.6,27
	c-24.9,6.2-45-9-45-33.9c0-76.2,0-153,0-229.2c0-18,8.3-28.4,24.9-32.5c15.9-4.2,35.3,3.5,42.9,15.9c2.1,4.2,2.8,8.3,2.8,13.2
	C159.2,185,157.8,189.9,161.2,194.7z"/>
</svg>
