<?xml version="1.0" encoding="utf-8"?>
<!-- Generator: Adobe Illustrator 26.3.1, SVG Export Plug-In . SVG Version: 6.00 Build 0)  -->
<svg version="1.1" id="Layer_1" xmlns="http://www.w3.org/2000/svg" xmlns:xlink="http://www.w3.org/1999/xlink" x="0px" y="0px"
	 viewBox="0 0 595.3 595.3" style="enable-background:new 0 0 595.3 595.3;" xml:space="preserve">
<style type="text/css">
	.st0{fill:#FFFFFF;}
	.st1{fill:none;}
	.st2{fill:#495426;}
	.st3{fill:#B9A63A;}
	.st4{fill:#E18A52;}
	.st5{fill:#7A8B3E;}
	.st6{fill:#36788F;}
</style>
<path class="st0" d="M297.6,595.3L297.6,595.3C133.3,595.3,0,462,0,297.6l0,0C0,133.3,133.3,0,297.6,0l0,0
	C462,0,595.3,133.3,595.3,297.6l0,0C595.3,462,462,595.3,297.6,595.3z"/>
<g>
	<path class="st1" d="M152.7,232.7L130.5,246c1.6,0.9,4.1,2.7,6.4,5.6c0.3,0.4,0.3,1,0,1.4c-0.3,0.4-0.9,0.5-1.3,0.2
		c-0.2-0.1-17.8-10.5-37.3-4.9c-17.4,4.9-41.9,16-48,18.7c6.7,6.5,14,13,15.5,13.3c1.9,0,4.8-1.1,5.2-1.3l7.7-4.5
		c0.2-0.1,0.3-0.1,0.5-0.1c0.4,0,0.7,0.2,0.9,0.5c0.3,0.5,0.1,1.1-0.4,1.4c-0.1,0.1-11.7,7-15,21.6c-3.2,14.3,2.9,28.9,20.4,48.6
		l28.1-22.1l-5.4-7.1c-0.3-0.4-0.3-1,0.1-1.4c0.4-0.4,1-0.4,1.4,0c0.1,0.1,13.9,11.3,33.5,9.1c13.9-1.6,28.9-6,42.7-12.3h-28.8
		v-57.1h20.8C171.3,245.5,158.5,236,152.7,232.7z"/>
	<path class="st2" d="M143.2,327c-13.4,1.5-24-2.8-29.9-6.1l2.3,3c0.3,0.5,0.3,1.1-0.2,1.5l-29.7,23.4c-0.2,0.2-0.4,0.2-0.6,0.2
		c-0.3,0-0.6-0.1-0.8-0.3c-18.5-20.7-25-36-21.6-51.2c1.6-7.2,5-12.5,8.2-16.3c-1.2,0.4-3.5,1.1-5.3,1.1c-2.4,0-12.3-9.4-18-14.9
		c-0.2-0.2-0.4-0.6-0.3-0.9c0.1-0.3,0.3-0.6,0.6-0.8c0.3-0.1,29.6-13.8,49.7-19.5c13.2-3.8,25.3-0.7,32.4,2.1
		c-1.3-0.8-2.2-1.2-2.2-1.2c-0.4-0.1-0.6-0.5-0.7-0.9c0-0.4,0.2-0.8,0.5-1l24.3-14.6c0.3-0.2,0.7-0.2,1,0c3.8,2.1,19.9,12.9,26.9,25
		h7c-1.9-4.2-4.7-8.4-9-12.1c-17-14.9-25.7-20.2-25.7-20.2l-29.9,19.1c0,0-17-5.8-41.7,3.2c-24.8,9.1-45,21.2-45,21.2v6.3l20.7,17.8
		c0,0-4.1,17.7,5.3,40c4.9,11.4,12.1,27.3,27.8,41.3l32.5-27.5c0,0,32.8,7.4,60.5-7.9c22-12.2,34.5-20.9,38.8-24h-30.8
		C175.5,320,158.6,325.2,143.2,327z"/>
	<path class="st3" d="M143,324.9c-19.7,2.2-33.4-8.9-33.5-9.1c-0.4-0.3-1-0.3-1.4,0c-0.4,0.4-0.4,1-0.1,1.4l5.4,7.1l-28.1,22.1
		c-17.5-19.7-23.6-34.3-20.4-48.6c3.3-14.6,14.8-21.6,15-21.6c0.5-0.3,0.7-0.9,0.4-1.4c-0.2-0.3-0.5-0.5-0.9-0.5
		c-0.2,0-0.4,0-0.5,0.1l-7.7,4.5c-0.5,0.2-3.4,1.3-5.2,1.3c-1.4-0.3-8.8-6.8-15.5-13.3c6-2.8,30.5-13.8,48-18.7
		c19.5-5.5,37.1,4.8,37.3,4.9c0.4,0.3,1,0.2,1.3-0.2c0.3-0.4,0.3-1,0-1.4c-2.3-2.9-4.8-4.6-6.4-5.6l22.2-13.3
		c5.8,3.3,18.7,12.8,24.9,22.9h1.2c-6.7-11.3-21.5-21.6-26.2-24.1l-24.3,14.6c0,0,4.1,1.6,7.8,6.2c0,0-17.9-10.8-38.1-5.1
		s-49.5,19.4-49.5,19.4s14.9,14.6,17.2,14.6c2.3,0,5.7-1.4,5.7-1.4l7.8-4.5c0,0-12,7-15.5,22.3c-3.4,15.3,3.7,30.6,21.3,50.3
		l29.7-23.4l-6-7.9c0,0,13.9,11.6,34.3,9.3c13.7-1.6,29.8-6.1,45-13.3h-2.5C171.8,318.9,156.8,323.3,143,324.9z"/>
	<path class="st3" d="M153.2,230.5c-0.3-0.2-0.7-0.2-1,0l-24.3,14.6c-0.3,0.2-0.5,0.6-0.5,1c0,0.4,0.3,0.7,0.7,0.9
		c0,0,0.9,0.4,2.2,1.2c-7.1-2.8-19.2-5.8-32.4-2.1c-20.1,5.7-49.4,19.3-49.7,19.5c-0.3,0.1-0.5,0.4-0.6,0.8
		c-0.1,0.3,0.1,0.7,0.3,0.9c5.7,5.6,15.6,14.9,18,14.9c1.8,0,4.1-0.7,5.3-1.1c-3.2,3.7-6.6,9.1-8.2,16.3c-3.4,15.2,3,30.6,21.6,51.2
		c0.2,0.2,0.5,0.3,0.8,0.3c0.2,0,0.5-0.1,0.6-0.2l29.7-23.4c0.4-0.4,0.5-1,0.2-1.5l-2.3-3c5.9,3.3,16.5,7.6,29.9,6.1
		c15.4-1.8,32.3-7,47.3-14.4h-2.4c-15.2,7.2-31.4,11.8-45,13.3c-20.4,2.3-34.3-9.3-34.3-9.3l6,7.9L85.1,348
		c-17.6-19.7-24.7-35-21.3-50.3c3.4-15.3,15.5-22.3,15.5-22.3l-7.8,4.5c0,0-3.4,1.4-5.7,1.4c-2.3,0-17.2-14.6-17.2-14.6
		s29.3-13.7,49.5-19.4s38.1,5.1,38.1,5.1c-3.7-4.5-7.8-6.2-7.8-6.2l24.3-14.6c4.7,2.5,19.5,12.9,26.2,24.1h1.2
		C173.1,243.4,157,232.6,153.2,230.5z"/>
	<g>
		<path class="st4" d="M224.6,347.4v-26h7.1c3.1,0,5.4,0.5,6.8,1.6c1.4,1.1,2.1,2.8,2.1,5.2c0,2.8-0.9,4.9-2.8,6.5
			c-1.9,1.6-4.5,2.4-7.8,2.4h-1.6v10.3H224.6z M228.2,334.3h1.5c2.2,0,3.9-0.5,5.1-1.5c1.2-1,1.8-2.4,1.8-4.3c0-1.6-0.5-2.7-1.4-3.3
			c-0.9-0.7-2.5-1-4.7-1h-2.3V334.3z"/>
		<path class="st4" d="M265.6,347.4v-26h3.7v23.3H281v2.8H265.6z"/>
		<path class="st4" d="M322.9,347.4l-2.8-7.2h-11l-2.9,7.2h-3.4l10.3-26h3.7l10.2,26H322.9z M319,337.5l-4.4-11.2l-4.4,11.2H319z"/>
		<path class="st4" d="M358,347.4v-23.3h-9.2v-2.8h22.2v2.8h-9.2v23.3H358z"/>
		<path class="st4" d="M395.6,347.4v-26h14.5v2.8h-10.9v8.7h9.1v2.7h-9.1v11.8H395.6z"/>
		<path class="st4" d="M446.5,348.1c-3.6,0-6.5-1.3-8.7-3.8c-2.2-2.5-3.3-5.8-3.3-9.9c0-4.1,1.1-7.4,3.3-9.9
			c2.2-2.5,5.2-3.7,8.9-3.7c3.7,0,6.6,1.2,8.8,3.7c2.2,2.5,3.3,5.8,3.3,9.9c0,4.2-1.1,7.5-3.3,10
			C453.3,346.8,450.3,348.1,446.5,348.1z M446.5,345.3c2.7,0,4.7-1,6.2-2.9c1.5-1.9,2.2-4.6,2.2-8.1c0-3.4-0.7-6-2.2-8
			c-1.5-1.9-3.5-2.9-6.1-2.9c-2.6,0-4.6,1-6.1,2.9c-1.5,1.9-2.2,4.6-2.2,8c0,3.4,0.7,6.1,2.2,8C442,344.3,444,345.3,446.5,345.3z"/>
		<path class="st4" d="M485.1,347.4v-26h7.9c2.5,0,4.4,0.6,5.7,1.7c1.3,1.1,2,2.7,2,4.8c0,3.5-1.8,5.9-5.3,7.4l8.7,12.2h-4.5
			l-7.4-11h-3.4v11H485.1z M488.7,333.7h1.2c4.6,0,7-1.8,7-5.5c0-2.7-1.9-4-5.8-4h-2.3V333.7z"/>
		<path class="st4" d="M528.9,347.4v-26h5.1l7.2,20.1l7.4-20.1h4.6v26h-3.4v-21.2l-7.2,19.4H539l-7-19.5v21.2H528.9z"/>
	</g>
	<g>
		<path class="st5" d="M91.2,305.6v-35.2h6.2v5c2.2-3.9,6-5.9,11.2-5.9c3.9,0,7.2,1.2,9.9,3.8c2.7,2.6,4,6.2,4,11v21.3h-6.2v-19.5
			c0-6.8-3.7-10.7-9-10.7c-2.8,0-5.2,1-7,3c-1.8,2-2.7,4.6-2.7,7.7v19.5H91.2z"/>
		<path class="st5" d="M165.7,307.9v-34.1h-5.1v-4.4h5.2v-13.8h5.1v13.8h10.3v4.4h-10.3v34.1C169.4,307.9,166.4,307.9,165.7,307.9z"
			/>
		<path class="st5" d="M177.9,291.9v-22.3h6.7v22.1c0,6.1,3.5,10,9.3,10c5.9,0,9.4-3.8,9.4-10v-22.1h6.6v22.3c0,10-6.1,15.9-16,15.9
			C184.1,307.9,177.9,301.7,177.9,291.9z"/>
		<path class="st5" d="M214.8,305.6V270h6.1v5.3c2.1-4.1,5.5-6.2,10.2-6.2c1.4,0,2.8,0.2,4.2,0.5l-0.6,6.2c-1.3-0.4-2.5-0.6-3.7-0.6
			c-5.7,0-9.8,3.9-9.8,11.6v18.9H214.8z"/>
		<path class="st5" d="M259.9,269.9h6.1v35.6h-6.1v-5c-3.2,3.9-7.4,5.9-12.5,5.9c-5.1,0-9.4-1.8-12.7-5.4c-3.4-3.7-5-8.1-5-13.5
			c0-5.3,1.7-9.7,5-13.1c3.4-3.5,7.6-5.2,12.7-5.2c5,0,9.2,2,12.5,6V269.9z M256.9,278.6c-2.3-2.5-5.2-3.7-8.8-3.7
			c-3.6,0-6.6,1.3-8.8,3.7c-2.2,2.5-3.3,5.5-3.3,9.1s1.1,6.6,3.3,9.1c2.2,2.5,5.1,3.7,8.8,3.7c3.6,0,6.6-1.3,8.8-3.7
			c2.3-2.5,3.4-5.5,3.4-9.2C260.3,284.1,259.1,281.1,256.9,278.6z"/>
		<path class="st5" d="M153.9,269.9h6.1v35.6h-6.1v-5c-3.2,3.9-7.4,5.9-12.5,5.9c-5.1,0-9.4-1.8-12.7-5.4c-3.4-3.7-5-8.1-5-13.5
			c0-5.3,1.7-9.7,5-13.1c3.4-3.5,7.6-5.2,12.7-5.2c5,0,9.2,2,12.5,6V269.9z M150.9,278.6c-2.3-2.5-5.2-3.7-8.8-3.7
			c-3.6,0-6.6,1.3-8.8,3.7c-2.2,2.5-3.3,5.5-3.3,9.1s1.1,6.6,3.3,9.1c2.2,2.5,5.1,3.7,8.8,3.7c3.6,0,6.6-1.3,8.8-3.7
			c2.3-2.5,3.4-5.5,3.4-9.2C154.3,284.1,153.2,281.1,150.9,278.6z"/>
		<path class="st5" d="M277.7,305.6h-5.5v-62.5h5.5V305.6z"/>
	</g>
	<g>
		<path class="st6" d="M313.7,290.8c0,4.3-1.2,8-3.5,11.1c-2.3,3.1-5.6,4.7-9.7,4.7h-17.7v-55.3h16.9c3.7,0,6.6,1.4,8.6,4.2
			c2.1,2.8,3.1,6,3.1,9.6c0,5-2.3,9.5-5.8,11.2C310.9,278.3,313.7,284.1,313.7,290.8z M288.5,258.3v15.4h10.3c4.2,0,6.8-3.8,6.8-8.1
			c0-3.9-2.5-7.3-6.6-7.3H288.5z M299.5,299.6c2.5,0,4.5-0.9,6-2.8c1.5-1.9,2.3-4.1,2.3-6.6c0-5.3-3.1-9.7-8.5-9.7h-10.8v19.1H299.5
			z"/>
		<path class="st6" d="M325.4,258.9c4.3-5.6,9.6-8.4,15.6-8.4c6.1,0,11.3,2.8,15.6,8.4c4.3,5.6,6.5,12.3,6.5,20.2
			c0,7.9-2.2,14.6-6.5,20.2c-4.3,5.5-9.6,8.3-15.8,8.3c-6.2,0-11.4-2.7-15.6-8.2c-4.2-5.5-6.3-12.1-6.3-20
			C318.9,271.3,321.1,264.5,325.4,258.9z M352.5,263.9c-3.1-4.1-7-6.1-11.5-6.1c-4.5,0-8.3,2.1-11.4,6.2c-3.1,4.1-4.7,9.1-4.7,15.2
			c0,6,1.6,11,4.6,15.1c3.1,4,6.9,6.1,11.5,6.1c4.6,0,8.4-2,11.5-6.1c3.1-4,4.7-9,4.7-15.1C357.2,273.1,355.7,268,352.5,263.9z"/>
		<path class="st6" d="M374.9,258.9c4.3-5.6,9.6-8.4,15.6-8.4s11.3,2.8,15.6,8.4c4.3,5.6,6.5,12.3,6.5,20.2c0,7.9-2.2,14.6-6.5,20.2
			c-4.3,5.5-9.6,8.3-15.8,8.3s-11.4-2.7-15.6-8.2c-4.2-5.5-6.3-12.1-6.3-20C368.4,271.3,370.6,264.5,374.9,258.9z M402,263.9
			c-3.1-4.1-7-6.1-11.5-6.1c-4.5,0-8.3,2.1-11.4,6.2c-3.1,4.1-4.7,9.1-4.7,15.2c0,6,1.6,11,4.6,15.1c3.1,4,6.9,6.1,11.5,6.1
			s8.4-2,11.5-6.1c3.1-4,4.7-9,4.7-15.1C406.7,273.1,405.2,268,402,263.9z"/>
		<path class="st6" d="M447.5,306.6l-15.1-24.2l-5.9,8.9v15.3h-5.8v-55.3h5.8v30.1l19.6-30.1h6.9l-16.9,26l18.5,29.2H447.5z"/>
		<path class="st6" d="M459.3,251.4h5.8v55.3h-5.8V251.4z"/>
		<path class="st6" d="M504.6,251.4h5.7v55.3h-3l-25.7-39.2v39.2h-5.7v-55.3h2.6l26.1,39.4V251.4z"/>
		<path class="st6" d="M524.5,299.4c-4.1-5.4-6.2-12.2-6.2-20.3c0-8.3,2.1-15.1,6.5-20.5c4.3-5.5,9.6-8.2,15.8-8.2
			c7.2,0,14,4.1,17.8,10.2l-4.1,4.9c-3.6-5.2-8.2-7.8-13.7-7.8c-4.6,0-8.5,2-11.7,6.1c-3.1,4-4.7,9.2-4.7,15.4
			c0,6.1,1.6,11.1,4.7,15.2c3.1,4,7,6,11.5,6c5.1,0,10.2-3,13.7-7.8v-11h-14.3v-6.9h19.8v21.2c-5.2,7.8-11.7,11.7-19.4,11.7
			C533.9,307.5,528.7,304.8,524.5,299.4z"/>
	</g>
</g>
</svg>
