<svg xmlns="http://www.w3.org/2000/svg" xml:space="preserve" id="Layer_1" x="0" y="0" style="enable-background:new 0 0 500 478.2" version="1.1" viewBox="0 0 500 478.2"><style>.st0{fill:#b0b0b1}</style><g id="H4g1AL.tif_00000159435617507023909920000011345257581089477563_"><path d="M325.1 287.1h-.3c-.1-.3-.4-.5-.6-.7l-19.1-19.1c-.5-.5-1.1-.8-1.8-.8H177.9c-1.7 0-3.3-.2-4.9-.6-6.3-1.6-13.2-8.1-13.2-17.5.1-35.6 0-71.2 0-106.8 0-5.1 1.7-9.5 5.4-13 .6-.6.5-.8 0-1.3-5.6-5.5-11.1-11.1-16.7-16.6-.5-.5-.5-.7 0-1.2 3.8-3.8 7.7-7.6 11.5-11.5.6-.6.9-.5 1.5 0 28.3 28.4 56.7 56.7 85 85l90.5 90.5c.6.6.6.9 0 1.5-3.8 3.7-7.5 7.5-11.3 11.3-.3.4-.6.5-.6.8m-56.9-56.5c-.1-.1-.1-.2-.1-.2l-13.2-13.2c-.3-.3-.5-.3-.8-.2-3 .7-6.1.7-9.1.2-11-1.9-20.4-12.7-17.7-26.6.1-.6 0-.9-.4-1.3l-12.4-12.4c-.7-.7-.7-.7-1.1.2-4.2 8.1-5.4 16.6-3.8 25.5 2.3 12.9 9.8 22.2 21.1 28.5 5 2.8 10.5 4 16.2 4.3 7.5.3 14.6-1.3 21.3-4.8M338.5 249.8c-4.5-4.5-9-9-13.6-13.5-4.8-4.8-9.5-9.6-14.3-14.4-7-7-14-14.1-21-21.1-.4-.4-.5-.7-.5-1.2 1.1-12-2.2-22.6-10.3-31.5-6.1-6.7-13.6-10.9-22.6-12.3-3.8-.6-7.5-.8-11.3-.6-.7 0-1.2-.2-1.8-.7l-20.7-20.7c-4.4-4.3-8.7-8.7-13.1-13-.4-.4-.5-.6-.1-1.1 4.2-4.5 8.4-9 12.5-13.6.3-.3.6-.5 1.1-.5H275c.6 0 1 .3 1.3.7 5.1 5.6 10.3 11.1 15.4 16.7.4.4.8.6 1.4.6 9.1 0 18.2.1 27.2 0s16.4 6.9 17.7 14.7c.1.4 0 .8.2 1.1.3 36.9.3 73.6.3 110.4" class="st0"/></g><path d="m80 369.8-30.8-31.2 1.5.4.1 29.6h-5.3v-41h.3l30.4 31.3-1.2-.3-.1-29.9h5.3v41.1H80zM88.3 356.9c0-2.3.5-4.3 1.6-6.2 1.1-1.8 2.6-3.3 4.5-4.4 1.9-1.1 4.1-1.6 6.6-1.6s4.6.5 6.5 1.6c1.9 1.1 3.3 2.5 4.4 4.4 1 1.8 1.6 3.9 1.6 6.2s-.5 4.3-1.6 6.2c-1 1.8-2.5 3.3-4.4 4.4-1.9 1.1-4.1 1.6-6.6 1.6s-4.6-.5-6.5-1.5c-1.9-1-3.4-2.4-4.5-4.2-1.1-1.9-1.6-4-1.6-6.5m5.2.1c0 1.5.3 2.8 1 4 .7 1.2 1.5 2.1 2.6 2.8 1.1.7 2.3 1 3.7 1 1.4 0 2.7-.3 3.8-1 1.1-.7 2-1.6 2.6-2.8.6-1.2 1-2.5 1-4s-.3-2.8-1-4c-.6-1.2-1.5-2.1-2.6-2.9-1.1-.7-2.4-1.1-3.8-1.1s-2.7.4-3.8 1.1c-1.1.7-2 1.7-2.6 2.9-.6 1.3-.9 2.6-.9 4M139 328.7h5.3v39.8H139zM159.2 345.8l.4 5.1-.3-.4c.8-1.7 2-3.1 3.6-4.1 1.6-1 3.4-1.5 5.4-1.5 1.2 0 2.4.2 3.4.6 1 .4 1.8 1 2.5 1.8.6.8 1.1 1.7 1.2 2.7l-.3.2c.9-1.7 2.1-3 3.7-3.9 1.6-.9 3.2-1.4 4.9-1.4 2.2 0 4 .6 5.3 1.9 1.3 1.3 2 2.9 2.1 4.9v16.9h-5.2v-15c0-1.2-.3-2.2-.9-2.9-.5-.8-1.5-1.2-2.8-1.2-1.3 0-2.5.4-3.6 1.2s-1.9 1.8-2.4 3.1c-.6 1.3-.9 2.7-.9 4.2v10.8h-5.2v-15c0-1.2-.3-2.2-.9-2.9-.6-.8-1.5-1.2-2.8-1.2-1.3 0-2.5.4-3.5 1.2s-1.8 1.8-2.4 3.1c-.6 1.3-.9 2.7-.9 4.2v10.7h-5.2v-22.8h4.8zM209.5 369.1c-2.1 0-4.1-.5-5.8-1.4-1.7-.9-3.1-2.3-4.2-4-1-1.8-1.5-4-1.5-6.5 0-2.6.5-4.8 1.6-6.6 1.1-1.8 2.5-3.2 4.3-4.2s3.8-1.5 5.9-1.5c2.1 0 3.9.5 5.4 1.5 1.5 1 2.6 2.1 3.3 3.4l-.3.8.5-4.8h4.7v22.8h-5.1v-5.9l.6 1.3c-.2.4-.5.8-1 1.4-.5.6-1.2 1.1-2 1.7-.8.6-1.7 1.1-2.8 1.5-1.1.3-2.3.5-3.6.5m1.3-4.2c1.3 0 2.4-.2 3.5-.7 1-.5 1.9-1.2 2.6-2 .7-.9 1.1-1.9 1.4-3.1v-4.5c-.3-1.1-.8-2.1-1.5-2.9-.7-.8-1.6-1.5-2.6-1.9s-2.1-.7-3.4-.7c-1.4 0-2.7.3-3.8 1-1.1.7-2 1.6-2.7 2.8-.7 1.2-1 2.6-1 4.1 0 1.5.3 2.8 1 4 .7 1.2 1.6 2.2 2.8 2.9 1.1.6 2.4 1 3.7 1M243.3 379.9c-1.7 0-3.2-.2-4.5-.6-1.3-.4-2.5-1-3.5-1.6-1-.7-2.1-1.5-3.1-2.3l3-3.5c1.2 1.1 2.4 2 3.7 2.6 1.2.6 2.6.9 4.2.9 1.7 0 3.2-.3 4.4-.9 1.2-.6 2.1-1.3 2.7-2.3.6-1 .9-2.1 1-3.5l.1-6.2.4 1c-.7 1.6-1.9 2.9-3.6 4-1.7 1.1-3.8 1.6-6.3 1.6-2.1 0-4-.5-5.7-1.6-1.8-1.1-3.2-2.5-4.2-4.3-1.1-1.8-1.6-3.9-1.6-6.1 0-2.4.5-4.5 1.7-6.3 1.1-1.8 2.6-3.3 4.4-4.3 1.8-1 3.8-1.6 5.9-1.6 2 0 3.9.4 5.5 1.2s2.9 1.9 3.7 3.2l-.3.9.5-4.4h4.7v23c0 2.1-.5 3.9-1.6 5.6-1 1.7-2.6 3-4.5 4-2 1-4.4 1.5-7 1.5m-7.9-23c0 1.5.4 2.8 1.1 4 .7 1.2 1.7 2.2 2.9 2.9 1.2.7 2.5 1 3.9 1s2.6-.2 3.7-.7c1.1-.5 2-1.2 2.7-2.1.7-.9 1.2-1.9 1.5-2.9v-4.6c-.3-1.1-.9-2.1-1.7-2.9-.8-.8-1.7-1.5-2.8-1.9-1.1-.5-2.2-.7-3.5-.7-1.4 0-2.7.3-3.9 1-1.2.7-2.1 1.6-2.9 2.8-.7 1.2-1 2.6-1 4.1M275.8 369.1c-2.6 0-4.8-.5-6.7-1.6-1.9-1-3.3-2.5-4.3-4.3-1-1.8-1.5-3.9-1.5-6.3 0-2.2.6-4.3 1.7-6.1s2.7-3.3 4.6-4.4c1.9-1.1 4-1.7 6.4-1.7 3 0 5.5.9 7.5 2.6 2 1.8 3.3 4.2 4.1 7.3l-18.8 6.6-1.2-3 15.4-5.7-1 .8c-.4-1.2-1.2-2.3-2.2-3.1-1-.9-2.4-1.3-4-1.3-1.4 0-2.6.3-3.7 1s-1.9 1.6-2.6 2.7c-.6 1.2-.9 2.5-.9 4s.3 2.9 1 4.1c.6 1.2 1.5 2.2 2.7 2.8 1.2.7 2.5 1 3.9 1 1 0 2-.2 2.9-.5.9-.4 1.8-.8 2.7-1.4l2.3 3.8c-1.1.8-2.4 1.4-3.8 1.9-1.8.6-3.2.8-4.5.8M312.5 328.7h23.6v5.1h-18.3v12.7h16v5.1h-16v16.9h-5.3zM338.7 356.9c0-2.3.5-4.3 1.6-6.2 1.1-1.8 2.6-3.3 4.5-4.4 1.9-1.1 4.1-1.6 6.6-1.6s4.6.5 6.5 1.6c1.9 1.1 3.3 2.5 4.4 4.4 1 1.8 1.6 3.9 1.6 6.2s-.5 4.3-1.6 6.2c-1 1.8-2.5 3.3-4.4 4.4-1.9 1.1-4.1 1.6-6.6 1.6s-4.6-.5-6.5-1.5c-1.9-1-3.4-2.4-4.5-4.2-1.1-1.9-1.6-4-1.6-6.5m5.1.1c0 1.5.3 2.8 1 4 .7 1.2 1.5 2.1 2.6 2.8 1.1.7 2.3 1 3.7 1 1.4 0 2.7-.3 3.8-1 1.1-.7 2-1.6 2.6-2.8.6-1.2 1-2.5 1-4s-.3-2.8-1-4c-.6-1.2-1.5-2.1-2.6-2.9-1.1-.7-2.4-1.1-3.8-1.1s-2.7.4-3.8 1.1c-1.1.7-2 1.7-2.6 2.9-.5 1.3-.9 2.6-.9 4M378 369.4c-2.1 0-3.9-.6-5.2-1.9-1.3-1.3-2-2.9-2.1-4.9v-16.9h5.2v15c.1 1.2.4 2.2 1.1 3 .7.8 1.7 1.2 3.1 1.2 1.2 0 2.4-.4 3.4-1.1 1-.8 1.8-1.8 2.4-3.1.6-1.3.9-2.8.9-4.4v-10.6h5.1v22.8h-4.7l-.4-5.6.3 1c-.5 1-1.2 2-2 2.8-.9.8-1.9 1.5-3.2 2-1.2.5-2.5.7-3.9.7M405.4 345.8l.4 5.6-.2-.9c.7-1.7 1.9-3 3.5-4 1.7-1 3.6-1.5 5.8-1.5 2.1 0 3.9.6 5.3 1.9 1.4 1.3 2.1 2.9 2.1 4.9v16.9h-5.2v-15.1c0-1.2-.4-2.2-1.1-3-.7-.8-1.7-1.2-3.2-1.2-1.3 0-2.5.4-3.6 1.1-1.1.7-1.9 1.7-2.5 3-.6 1.3-.9 2.8-.9 4.5v10.7h-5.2v-22.8h4.8zM440.5 369.1c-2.1 0-4-.5-5.7-1.5-1.7-1-3-2.4-4-4.3s-1.5-4-1.5-6.4c0-2.5.5-4.7 1.6-6.5 1.1-1.8 2.5-3.2 4.3-4.1 1.8-1 3.8-1.4 6.1-1.4 1.8 0 3.5.4 5.1 1.2 1.6.8 2.9 1.8 3.8 3.2l-.3 1.8V326h5.1v42.6h-5.1v-5.7l.6 1.4c-1.1 1.4-2.5 2.5-4.2 3.4-1.8 1-3.7 1.4-5.8 1.4m1.6-4.3c1.4 0 2.6-.3 3.6-.8s1.9-1.2 2.6-2.1c.7-.9 1.2-1.9 1.5-3.1v-4.3c-.3-1.1-.8-2.1-1.6-2.9s-1.7-1.5-2.7-2c-1-.5-2.2-.7-3.5-.7-1.4 0-2.6.3-3.8 1-1.2.7-2.1 1.6-2.8 2.8-.7 1.2-1 2.5-1 4.1 0 1.5.3 2.9 1 4 .7 1.2 1.6 2.1 2.8 2.9 1.3.7 2.5 1.1 3.9 1.1" class="st0"/></svg>