<?xml version="1.0" encoding="utf-8"?>
<!-- Generator: Adobe Illustrator 26.3.1, SVG Export Plug-In . SVG Version: 6.00 Build 0)  -->
<svg version="1.1" id="Layer_1" xmlns="http://www.w3.org/2000/svg" xmlns:xlink="http://www.w3.org/1999/xlink" x="0px" y="0px"
	 viewBox="0 0 500 478.2" style="enable-background:new 0 0 500 478.2;" xml:space="preserve">
<style type="text/css">
	.st0{fill:#B0B0B1;}
</style>
<g>
	<g id="H4g1AL.tif_00000159435617507023909920000011345257581089477563_">
		<g>
			<g>
				<path class="st0" d="M325.1,287.1c-0.1,0-0.2,0-0.3,0c-0.1-0.3-0.4-0.5-0.6-0.7c-6.4-6.4-12.7-12.7-19.1-19.1
					c-0.5-0.5-1.1-0.8-1.8-0.8c-41.8,0-83.6,0-125.4,0c-1.7,0-3.3-0.2-4.9-0.6c-6.3-1.6-13.2-8.1-13.2-17.5c0.1-35.6,0-71.2,0-106.8
					c0-5.1,1.7-9.5,5.4-13c0.6-0.6,0.5-0.8,0-1.3c-5.6-5.5-11.1-11.1-16.7-16.6c-0.5-0.5-0.5-0.7,0-1.2c3.8-3.8,7.7-7.6,11.5-11.5
					c0.6-0.6,0.9-0.5,1.5,0c28.3,28.4,56.7,56.7,85,85c30.2,30.2,60.3,60.3,90.5,90.5c0.6,0.6,0.6,0.9,0,1.5
					c-3.8,3.7-7.5,7.5-11.3,11.3C325.4,286.7,325.1,286.8,325.1,287.1z M268.2,230.6c-0.1-0.1-0.1-0.2-0.1-0.2
					c-4.4-4.4-8.8-8.8-13.2-13.2c-0.3-0.3-0.5-0.3-0.8-0.2c-3,0.7-6.1,0.7-9.1,0.2c-11-1.9-20.4-12.7-17.7-26.6
					c0.1-0.6,0-0.9-0.4-1.3c-4.1-4.1-8.2-8.2-12.4-12.4c-0.7-0.7-0.7-0.7-1.1,0.2c-4.2,8.1-5.4,16.6-3.8,25.5
					c2.3,12.9,9.8,22.2,21.1,28.5c5,2.8,10.5,4,16.2,4.3C254.4,235.7,261.5,234.1,268.2,230.6z"/>
			</g>
			<g>
				<path class="st0" d="M338.5,249.8c-4.5-4.5-9-9-13.6-13.5c-4.8-4.8-9.5-9.6-14.3-14.4c-7-7-14-14.1-21-21.1
					c-0.4-0.4-0.5-0.7-0.5-1.2c1.1-12-2.2-22.6-10.3-31.5c-6.1-6.7-13.6-10.9-22.6-12.3c-3.8-0.6-7.5-0.8-11.3-0.6
					c-0.7,0-1.2-0.2-1.8-0.7c-6.9-6.9-13.8-13.8-20.7-20.7c-4.4-4.3-8.7-8.7-13.1-13c-0.4-0.4-0.5-0.6-0.1-1.1
					c4.2-4.5,8.4-9,12.5-13.6c0.3-0.3,0.6-0.5,1.1-0.5c17.4,0,34.8,0,52.2,0c0.6,0,1,0.3,1.3,0.7c5.1,5.6,10.3,11.1,15.4,16.7
					c0.4,0.4,0.8,0.6,1.4,0.6c9.1,0,18.2,0.1,27.2,0c9-0.1,16.4,6.9,17.7,14.7c0.1,0.4,0,0.8,0.2,1.1
					C338.5,176.3,338.5,213,338.5,249.8z"/>
			</g>
		</g>
	</g>
	<g>
		<path class="st0" d="M80,369.8l-30.8-31.2l1.5,0.4l0.1,29.6h-5.3v-41h0.3l30.4,31.3l-1.2-0.3l-0.1-29.9h5.3v41.1H80z"/>
		<path class="st0" d="M88.3,356.9c0-2.3,0.5-4.3,1.6-6.2c1.1-1.8,2.6-3.3,4.5-4.4c1.9-1.1,4.1-1.6,6.6-1.6s4.6,0.5,6.5,1.6
			c1.9,1.1,3.3,2.5,4.4,4.4c1,1.8,1.6,3.9,1.6,6.2s-0.5,4.3-1.6,6.2c-1,1.8-2.5,3.3-4.4,4.4c-1.9,1.1-4.1,1.6-6.6,1.6
			c-2.5,0-4.6-0.5-6.5-1.5c-1.9-1-3.4-2.4-4.5-4.2C88.8,361.5,88.3,359.4,88.3,356.9z M93.5,357c0,1.5,0.3,2.8,1,4
			c0.7,1.2,1.5,2.1,2.6,2.8c1.1,0.7,2.3,1,3.7,1c1.4,0,2.7-0.3,3.8-1c1.1-0.7,2-1.6,2.6-2.8c0.6-1.2,1-2.5,1-4c0-1.5-0.3-2.8-1-4
			c-0.6-1.2-1.5-2.1-2.6-2.9c-1.1-0.7-2.4-1.1-3.8-1.1c-1.4,0-2.7,0.4-3.8,1.1c-1.1,0.7-2,1.7-2.6,2.9
			C93.8,354.3,93.5,355.6,93.5,357z"/>
		<path class="st0" d="M139,328.7h5.3v39.8H139V328.7z"/>
		<path class="st0" d="M159.2,345.8l0.4,5.1l-0.3-0.4c0.8-1.7,2-3.1,3.6-4.1c1.6-1,3.4-1.5,5.4-1.5c1.2,0,2.4,0.2,3.4,0.6
			c1,0.4,1.8,1,2.5,1.8c0.6,0.8,1.1,1.7,1.2,2.7l-0.3,0.2c0.9-1.7,2.1-3,3.7-3.9c1.6-0.9,3.2-1.4,4.9-1.4c2.2,0,4,0.6,5.3,1.9
			c1.3,1.3,2,2.9,2.1,4.9v16.9h-5.2v-15c0-1.2-0.3-2.2-0.9-2.9c-0.5-0.8-1.5-1.2-2.8-1.2c-1.3,0-2.5,0.4-3.6,1.2s-1.9,1.8-2.4,3.1
			c-0.6,1.3-0.9,2.7-0.9,4.2v10.8h-5.2v-15c0-1.2-0.3-2.2-0.9-2.9c-0.6-0.8-1.5-1.2-2.8-1.2c-1.3,0-2.5,0.4-3.5,1.2
			s-1.8,1.8-2.4,3.1c-0.6,1.3-0.9,2.7-0.9,4.2v10.7h-5.2v-22.8H159.2z"/>
		<path class="st0" d="M209.5,369.1c-2.1,0-4.1-0.5-5.8-1.4c-1.7-0.9-3.1-2.3-4.2-4c-1-1.8-1.5-4-1.5-6.5c0-2.6,0.5-4.8,1.6-6.6
			c1.1-1.8,2.5-3.2,4.3-4.2s3.8-1.5,5.9-1.5c2.1,0,3.9,0.5,5.4,1.5c1.5,1,2.6,2.1,3.3,3.4l-0.3,0.8l0.5-4.8h4.7v22.8h-5.1v-5.9
			l0.6,1.3c-0.2,0.4-0.5,0.8-1,1.4c-0.5,0.6-1.2,1.1-2,1.7c-0.8,0.6-1.7,1.1-2.8,1.5C212,368.9,210.8,369.1,209.5,369.1z
			 M210.8,364.9c1.3,0,2.4-0.2,3.5-0.7c1-0.5,1.9-1.2,2.6-2c0.7-0.9,1.1-1.9,1.4-3.1v-4.5c-0.3-1.1-0.8-2.1-1.5-2.9
			c-0.7-0.8-1.6-1.5-2.6-1.9s-2.1-0.7-3.4-0.7c-1.4,0-2.7,0.3-3.8,1c-1.1,0.7-2,1.6-2.7,2.8c-0.7,1.2-1,2.6-1,4.1c0,1.5,0.3,2.8,1,4
			c0.7,1.2,1.6,2.2,2.8,2.9C208.2,364.5,209.5,364.9,210.8,364.9z"/>
		<path class="st0" d="M243.3,379.9c-1.7,0-3.2-0.2-4.5-0.6c-1.3-0.4-2.5-1-3.5-1.6c-1-0.7-2.1-1.5-3.1-2.3l3-3.5
			c1.2,1.1,2.4,2,3.7,2.6c1.2,0.6,2.6,0.9,4.2,0.9c1.7,0,3.2-0.3,4.4-0.9c1.2-0.6,2.1-1.3,2.7-2.3c0.6-1,0.9-2.1,1-3.5l0.1-6.2
			l0.4,1c-0.7,1.6-1.9,2.9-3.6,4c-1.7,1.1-3.8,1.6-6.3,1.6c-2.1,0-4-0.5-5.7-1.6c-1.8-1.1-3.2-2.5-4.2-4.3c-1.1-1.8-1.6-3.9-1.6-6.1
			c0-2.4,0.5-4.5,1.7-6.3c1.1-1.8,2.6-3.3,4.4-4.3c1.8-1,3.8-1.6,5.9-1.6c2,0,3.9,0.4,5.5,1.2s2.9,1.9,3.7,3.2l-0.3,0.9l0.5-4.4h4.7
			v23c0,2.1-0.5,3.9-1.6,5.6c-1,1.7-2.6,3-4.5,4C248.3,379.4,245.9,379.9,243.3,379.9z M235.4,356.9c0,1.5,0.4,2.8,1.1,4
			c0.7,1.2,1.7,2.2,2.9,2.9c1.2,0.7,2.5,1,3.9,1c1.4,0,2.6-0.2,3.7-0.7c1.1-0.5,2-1.2,2.7-2.1c0.7-0.9,1.2-1.9,1.5-2.9v-4.6
			c-0.3-1.1-0.9-2.1-1.7-2.9c-0.8-0.8-1.7-1.5-2.8-1.9c-1.1-0.5-2.2-0.7-3.5-0.7c-1.4,0-2.7,0.3-3.9,1c-1.2,0.7-2.1,1.6-2.9,2.8
			C235.7,354,235.4,355.4,235.4,356.9z"/>
		<path class="st0" d="M275.8,369.1c-2.6,0-4.8-0.5-6.7-1.6c-1.9-1-3.3-2.5-4.3-4.3c-1-1.8-1.5-3.9-1.5-6.3c0-2.2,0.6-4.3,1.7-6.1
			s2.7-3.3,4.6-4.4c1.9-1.1,4-1.7,6.4-1.7c3,0,5.5,0.9,7.5,2.6c2,1.8,3.3,4.2,4.1,7.3l-18.8,6.6l-1.2-3l15.4-5.7l-1,0.8
			c-0.4-1.2-1.2-2.3-2.2-3.1c-1-0.9-2.4-1.3-4-1.3c-1.4,0-2.6,0.3-3.7,1c-1.1,0.7-1.9,1.6-2.6,2.7c-0.6,1.2-0.9,2.5-0.9,4
			s0.3,2.9,1,4.1c0.6,1.2,1.5,2.2,2.7,2.8c1.2,0.7,2.5,1,3.9,1c1,0,2-0.2,2.9-0.5c0.9-0.4,1.8-0.8,2.7-1.4l2.3,3.8
			c-1.1,0.8-2.4,1.4-3.8,1.9C278.5,368.9,277.1,369.1,275.8,369.1z"/>
		<path class="st0" d="M312.5,328.7h23.6v5.1h-18.3v12.7h16v5.1h-16v16.9h-5.3V328.7z"/>
		<path class="st0" d="M338.7,356.9c0-2.3,0.5-4.3,1.6-6.2c1.1-1.8,2.6-3.3,4.5-4.4c1.9-1.1,4.1-1.6,6.6-1.6c2.5,0,4.6,0.5,6.5,1.6
			c1.9,1.1,3.3,2.5,4.4,4.4c1,1.8,1.6,3.9,1.6,6.2s-0.5,4.3-1.6,6.2c-1,1.8-2.5,3.3-4.4,4.4c-1.9,1.1-4.1,1.6-6.6,1.6
			c-2.5,0-4.6-0.5-6.5-1.5c-1.9-1-3.4-2.4-4.5-4.2C339.2,361.5,338.7,359.4,338.7,356.9z M343.8,357c0,1.5,0.3,2.8,1,4
			c0.7,1.2,1.5,2.1,2.6,2.8c1.1,0.7,2.3,1,3.7,1c1.4,0,2.7-0.3,3.8-1c1.1-0.7,2-1.6,2.6-2.8c0.6-1.2,1-2.5,1-4c0-1.5-0.3-2.8-1-4
			c-0.6-1.2-1.5-2.1-2.6-2.9c-1.1-0.7-2.4-1.1-3.8-1.1c-1.4,0-2.7,0.4-3.8,1.1c-1.1,0.7-2,1.7-2.6,2.9
			C344.2,354.3,343.8,355.6,343.8,357z"/>
		<path class="st0" d="M378,369.4c-2.1,0-3.9-0.6-5.2-1.9c-1.3-1.3-2-2.9-2.1-4.9v-16.9h5.2v15c0.1,1.2,0.4,2.2,1.1,3
			c0.7,0.8,1.7,1.2,3.1,1.2c1.2,0,2.4-0.4,3.4-1.1c1-0.8,1.8-1.8,2.4-3.1c0.6-1.3,0.9-2.8,0.9-4.4v-10.6h5.1v22.8h-4.7l-0.4-5.6
			l0.3,1c-0.5,1-1.2,2-2,2.8c-0.9,0.8-1.9,1.5-3.2,2C380.7,369.2,379.4,369.4,378,369.4z"/>
		<path class="st0" d="M405.4,345.8l0.4,5.6l-0.2-0.9c0.7-1.7,1.9-3,3.5-4c1.7-1,3.6-1.5,5.8-1.5c2.1,0,3.9,0.6,5.3,1.9
			c1.4,1.3,2.1,2.9,2.1,4.9v16.9h-5.2v-15.1c0-1.2-0.4-2.2-1.1-3c-0.7-0.8-1.7-1.2-3.2-1.2c-1.3,0-2.5,0.4-3.6,1.1
			c-1.1,0.7-1.9,1.7-2.5,3c-0.6,1.3-0.9,2.8-0.9,4.5v10.7h-5.2v-22.8H405.4z"/>
		<path class="st0" d="M440.5,369.1c-2.1,0-4-0.5-5.7-1.5c-1.7-1-3-2.4-4-4.3c-1-1.9-1.5-4-1.5-6.4c0-2.5,0.5-4.7,1.6-6.5
			c1.1-1.8,2.5-3.2,4.3-4.1c1.8-1,3.8-1.4,6.1-1.4c1.8,0,3.5,0.4,5.1,1.2c1.6,0.8,2.9,1.8,3.8,3.2l-0.3,1.8v-25.1h5.1v42.6h-5.1
			v-5.7l0.6,1.4c-1.1,1.4-2.5,2.5-4.2,3.4C444.5,368.7,442.6,369.1,440.5,369.1z M442.1,364.8c1.4,0,2.6-0.3,3.6-0.8
			c1-0.5,1.9-1.2,2.6-2.1c0.7-0.9,1.2-1.9,1.5-3.1v-4.3c-0.3-1.1-0.8-2.1-1.6-2.9s-1.7-1.5-2.7-2c-1-0.5-2.2-0.7-3.5-0.7
			c-1.4,0-2.6,0.3-3.8,1c-1.2,0.7-2.1,1.6-2.8,2.8c-0.7,1.2-1,2.5-1,4.1c0,1.5,0.3,2.9,1,4c0.7,1.2,1.6,2.1,2.8,2.9
			C439.5,364.4,440.7,364.8,442.1,364.8z"/>
	</g>
</g>
</svg>
