<?xml version="1.0" encoding="utf-8"?>
<!-- Generator: Adobe Illustrator 26.3.1, SVG Export Plug-In . SVG Version: 6.00 Build 0)  -->
<svg version="1.1" id="Layer_1" xmlns="http://www.w3.org/2000/svg" xmlns:xlink="http://www.w3.org/1999/xlink" x="0px" y="0px"
	 viewBox="0 0 595.3 595.3" style="enable-background:new 0 0 595.3 595.3;" xml:space="preserve">
<style type="text/css">
	.st0{fill:#FFFFFF;}
	.st1{fill:#F0C415;}
	.st2{fill:#592E84;}
</style>
<path class="st0" d="M297.6,595.3L297.6,595.3C133.3,595.3,0,462,0,297.6v0C0,133.3,133.3,0,297.6,0h0
	C462,0,595.3,133.3,595.3,297.6v0C595.3,462,462,595.3,297.6,595.3z"/>
<g>
	<path class="st1" d="M193.4,268.6c4.3,4,3.9,6.5-1.4,8.8c-1.1,0.5-2.2,0.9-2.3,2.3c-0.1,1.6,1,1.9,2.2,2.3c2.1,0.6,3.6,1.9,3.6,4.1
		c0,2.4-1.4,3.9-3.8,4.4c-2.4,0.5-2.2,2.3-2.2,4c0,5.7,0,11.5,0,17.2c0,1.2,0,2.4-0.1,3.5c-0.3,2.7-1.3,5.1-4.5,4.9
		c-3-0.1-4.2-2.3-4.2-5.1c0-6.1,0-12.3,0-18.4c0-3,0.4-5.7-3.8-6.9c-3.2-1-3-5.8,0.2-7c2.9-1.1,3.6-2.8,3.9-5.5
		c0.5-4.5,3.7-7,7.7-8.6C190.3,268.6,191.8,268.6,193.4,268.6z"/>
	<path class="st2" d="M364.6,268.6c3.4,2.8,2.4,6.6,2.5,10.2c0,2.3-0.1,4.4,3.1,4.9c1.8,0.3,2.8,2,2.8,3.8c0.1,2.1-1,3.7-2.9,4.1
		c-2.8,0.6-3,2.4-2.9,4.7c0.1,3.3,0.1,6.5,0,9.8c0,2.7-0.1,5.1,2.6,6.9c1.6,1.1,1.7,3.2,0.9,5c-0.8,1.7-2.4,2.3-4.2,2.4
		c-4.2,0.1-8-3.7-8.2-8.4c-0.2-5.2-0.1-10.5,0-15.7c0-2.3-0.2-4.1-3-4.6c-2-0.4-3-2.1-3.1-4.1c0-1.9,1-3.6,2.8-3.9
		c3.6-0.6,3.3-3,3.3-5.5c0-3.6-1-7.5,3.3-9.7C362.5,268.6,363.6,268.6,364.6,268.6z"/>
	<path class="st1" d="M35.6,307.8c2.2-3.1,4.8-5.6,8.8-6.1c3.8-0.5,5.8,2,4.1,5.4c-0.9,1.7-0.7,2.9,0.3,4.3
		c6.7,10.5,21.8,10.9,29,0.7c1.1-1.6,2.2-3,0.8-5.3c-1.7-2.7,0.2-5.4,3.6-5.2c3,0.2,5.6,1.4,7.5,3.8c2.1,2.6,1.6,4.9-1.6,6.1
		c-1.6,0.6-2.5,1.6-3.4,3c-10.8,16.2-31.4,16.2-42-0.1c-1.9-2.9-5.9-2.6-7-5.9C35.6,308.3,35.6,308.1,35.6,307.8z"/>
	<path class="st1" d="M206,268.6c1.2,1.1,2.5,2,2.8,3.7c0.5,2.3,0.1,4.5-2,5.9c-1.7,1.1-3.6,0.9-5-0.6c-1.8-1.9-1.8-4.3-0.6-6.5
		c0.5-1,1.7-1.6,2.5-2.4C204.5,268.6,205.3,268.6,206,268.6z"/>
	<path class="st2" d="M505,301.9c0-4.3-0.1-8.6,0-12.9c0.1-4.8,2.4-6.4,6.9-4.8c1.5,0.5,2.8,0.3,4.2-0.1c5-1.5,9.7-0.8,13.9,2.1
		c1.9,1.4,3,1,4.8-0.2c11-6.9,24.2-0.1,24.8,12.9c0.2,5.3,0.1,10.7,0,16.1c0,2.9-1.1,5.3-4.4,5.3c-3.4,0-4.4-2.4-4.4-5.3
		c0-5,0-9.9,0-14.9c-0.1-4.9-2.6-7.9-6.8-8c-4.4-0.1-7.1,2.8-7.1,7.9c-0.1,4.8,0,9.7,0,14.5c0,3-0.9,5.7-4.5,5.7
		c-3.6,0-4.4-2.7-4.4-5.7c0-4.6,0-9.1,0-13.7c0-5.6-2.4-8.6-6.8-8.7c-4.5-0.1-7.1,3.1-7.1,8.9c0,4.6,0,9.1,0,13.7
		c0,3.1-1,5.7-4.6,5.6c-3.3-0.1-4.2-2.6-4.2-5.5C505,310.5,505,306.2,505,301.9z"/>
	<path class="st2" d="M349.7,302.2c0,4.3,0.1,8.6,0,12.9c-0.2,4.8-3.1,6.5-7.3,4c-1.6-0.9-2.7-0.3-4,0.1c-7.2,2.6-14.7,0.9-19.6-4.3
		c-5.2-5.6-6.4-14.6-3-21.6c3.2-6.6,9.9-10.5,17.3-10c1.4,0.1,2.9,0.3,4.2,0.9c2.1,0.8,3.9,1.3,6.2-0.2c2.9-1.9,6,0.4,6.2,4.5
		C349.8,293,349.7,297.6,349.7,302.2z M322.8,301.9c0,6,3.3,9.7,8.8,9.8c5.4,0.1,9.2-3.8,9.2-9.5c0-5.9-3.7-10.1-9.1-10.1
		C326.3,292.2,322.8,296,322.8,301.9z"/>
	<path class="st2" d="M391.6,320.5c-7.9,0-15.4-7.2-16.4-17.4c-0.9-9,5.8-17.8,14.7-19.6c9.3-1.9,18.2,3.5,20.9,12.5
		c1.9,6.6,0.3,8.8-6.4,8.8c-5.5,0-11,0-16.6,0c-0.9,0-2-0.4-2.5,0.6c-0.5,1.1,0.3,2,0.9,2.8c2.7,3.6,8.3,4.9,12.9,2.9
		c1.1-0.5,2.1-1.2,3.2-1.6c2.1-0.8,3.9-0.4,5.1,1.6c1.1,1.9,0.5,3.5-1,4.9C402.7,319.2,398.4,320.6,391.6,320.5z M394.2,297.6
		C394.2,297.6,394.2,297.6,394.2,297.6c2.1,0,4.2,0,6.3,0c0.8,0,1.8,0,2-0.9c0.1-0.5-0.3-1.2-0.7-1.7c-3.3-4.3-10.8-4.9-14.7-1.2
		c-0.8,0.8-2.1,1.6-1.8,2.8c0.4,1.4,2,0.9,3.1,0.9C390.3,297.7,392.2,297.6,394.2,297.6z"/>
	<path class="st2" d="M154.1,304.9c-3.1,0-6.3,0-9.4,0c-0.9,0-2-0.3-2.4,0.8c-0.3,0.9,0.3,1.8,0.9,2.5c2.8,3.3,6.3,4.6,10.5,3.8
		c1.5-0.3,3-1,4.3-1.7c2.3-1.2,4.6-1.7,6.3,0.8c1.9,2.8-0.1,4.6-2.2,6.2c-10.5,7.5-25.4,2.5-29-9.8c-2.4-8,0.6-16.5,7.4-21.1
		c6.3-4.3,14.9-4.1,21,0.6c4.2,3.2,6.4,7.5,7,12.7c0.4,3.4-1,5.3-4.6,5.3C160.7,304.9,157.4,304.8,154.1,304.9
		C154.1,304.9,154.1,304.9,154.1,304.9z M150.8,297.6C150.8,297.6,150.8,297.6,150.8,297.6c2.2,0,4.4,0,6.7,0c0.8,0,1.8,0.1,2-0.9
		c0.1-0.5-0.3-1.2-0.7-1.7c-3.3-4.3-10.8-5-14.7-1.2c-0.8,0.8-2.1,1.6-1.8,2.8c0.4,1.4,2,0.9,3.1,1
		C147.1,297.7,149,297.6,150.8,297.6z"/>
	<path class="st1" d="M270.7,304.8c-3,0-6,0-9.1,0c-1.1,0-2.6-0.4-3,1.2c-0.3,1.3,0.5,2.3,1.4,3.1c3.5,3,7.5,4.2,12.1,2.5
		c0.9-0.3,1.7-0.7,2.5-1.2c2.2-1.2,4.4-1.6,5.9,0.8c1.5,2.4,0,4.2-1.8,5.7c-6,4.9-16.8,4.7-23.1-0.4c-7.2-5.8-8.9-15.8-4.2-24.1
		c4.2-7.5,13.6-11,21.8-7.9c6.8,2.5,10.5,7.7,11.7,14.6c0.6,3.8-1.1,5.6-5,5.7C276.8,304.8,273.7,304.8,270.7,304.8
		C270.7,304.8,270.7,304.8,270.7,304.8z M267.1,297.6C267.1,297.6,267.1,297.6,267.1,297.6c2.5,0,5,0,7.5,0c1.8-0.1,1.9-1,1.1-2.3
		c-3.2-5.2-13.5-5.3-16.7-0.2c-1,1.5-0.8,2.5,1.2,2.5C262.4,297.7,264.7,297.6,267.1,297.6z"/>
	<path class="st2" d="M483.2,283.3c9.7,0.1,17.6,8.6,17.5,18.9c-0.1,10.3-8.1,18.6-18,18.5c-10-0.1-18.1-8.6-18-18.9
		C464.8,291.5,473.1,283.2,483.2,283.3z M482.9,311.7c5.5,0,9.4-4.1,9.3-9.9c-0.1-5.4-4.2-9.6-9.3-9.6c-5.4,0-9.1,3.9-9.1,9.6
		C473.6,307.8,477.2,311.7,482.9,311.7z"/>
	<path class="st2" d="M128.8,306.9c0,2.6,0,5.2,0,7.8c-0.1,3-1,5.7-4.6,5.6c-3.3-0.1-4.3-2.6-4.3-5.5c0-5,0-9.9,0-14.9
		c-0.1-4.9-2.6-7.7-6.9-7.8c-4.3-0.1-6.9,2.7-7,7.7c-0.1,5,0,9.9,0,14.9c0,3.1-0.9,5.7-4.5,5.6c-3.6,0-4.4-2.7-4.4-5.7
		c0-8.5-0.1-17,0-25.5c0.1-5,2.3-6.6,7-5c1.4,0.5,2.5,0.3,3.8,0c11.2-3,20.4,3.9,20.9,15.3C128.9,301.9,128.8,304.4,128.8,306.9z"/>
	<path class="st1" d="M213.3,301.8c0-4.1-0.2-8.1,0-12.2c0.3-5.5,2.3-6.9,7.5-5.2c1.4,0.4,2.6,0,3.8-0.4
		c10.1-2.9,19.8,4.1,20.1,14.5c0.1,5.4,0,10.7,0,16.1c0,2.9-0.6,5.5-4.1,5.6c-3.5,0.1-4.3-2.7-4.4-5.4c-0.2-5-0.1-9.9-0.2-14.9
		c-0.1-5-2.1-7.5-6.3-7.8c-4.3-0.3-7.2,2.1-7.6,7.1c-0.4,5.2-0.2,10.5-0.2,15.7c0,2.8-0.7,5.1-3.9,5.3c-3.3,0.3-4.4-2.1-4.6-4.7
		c-0.2-4.6-0.1-9.1-0.1-13.7C213.4,301.8,213.3,301.8,213.3,301.8z"/>
	<path class="st2" d="M448.5,320.5c-8.1,0-15.3-4.9-18-12.3c-2.8-7.8-0.3-15.9,6.5-21.3c6-4.7,15.1-4.9,21.8-0.7
		c2.6,1.6,3.9,3.8,2.3,6.6c-1.5,2.7-4.1,2.5-6.5,1c-3.1-1.9-6.4-2.3-9.8-1.2c-5.2,1.7-8,7.4-6.3,12.3c2,5.6,8.1,8.3,13.9,6.1
		c1.1-0.4,2.1-1.1,3.2-1.6c2.2-1,4.2-0.6,5.5,1.5c1.3,2.2,0.9,4.4-1.3,5.9C456.5,319.2,452.8,320.6,448.5,320.5z"/>
	<path class="st2" d="M63.5,274.7c12.2,0,23.3,10,24.4,22.2c0.1,1.3,1.3,3.9-0.9,3.8c-2.1-0.1-5.3,0.5-6.3-2.7
		c-0.2-0.6-0.2-1.3-0.3-1.9c-2-8.1-8.7-13.9-16.4-14C56,282,49.1,287.5,47,295.8c-0.4,1.7-0.4,3.5-2.7,4.2c-5.2,1.5-5.8,1.2-4.9-4.2
		C41.4,283.5,51.4,274.7,63.5,274.7z"/>
	<path class="st2" d="M292.8,301.5c0-4.3,0-8.6,0-12.9c0-2.1,0.6-3.9,2.7-4.8c1.9-0.8,3.7-0.4,5,1.1c1.3,1.4,2.5,1,3.8,0.3
		c2.2-1.1,4.6-1.9,7.2-1.8c2.2,0.1,3.9,0.9,4.4,3.1c0.6,2.3-0.6,3.7-2.5,4.8c-0.2,0.1-0.5,0.3-0.7,0.3c-9.3,2.3-12.1,8.6-11.1,17.4
		c0.3,2.3,0.1,4.7-0.1,7c-0.2,2.7-1.7,4.4-4.6,4.3c-2.7-0.1-4.1-1.8-4.1-4.4C292.7,311.2,292.8,306.4,292.8,301.5
		C292.8,301.5,292.8,301.5,292.8,301.5z"/>
	<path class="st1" d="M209.1,301.9c0,4.3,0.1,8.6,0,12.9c-0.1,2.8-0.9,5.4-4.4,5.4c-3.4,0-4.3-2.5-4.3-5.4c0-8.6,0-17.2,0-25.8
		c0-2.9,0.9-5.4,4.3-5.4c3.4,0,4.3,2.6,4.4,5.4C209.2,293.3,209.1,297.6,209.1,301.9z"/>
	<path class="st1" d="M426,302.2c0.1,2.8-2.8,5.9-5.6,6c-3.1,0.1-5.9-2.5-6-5.5c-0.1-3.1,2.5-5.9,5.5-5.9
		C423.1,296.8,425.9,299.3,426,302.2z"/>
</g>
</svg>
