<?xml version="1.0" encoding="utf-8"?>
<!-- Generator: Adobe Illustrator 26.3.1, SVG Export Plug-In . SVG Version: 6.00 Build 0)  -->
<svg version="1.1" id="Layer_1" xmlns="http://www.w3.org/2000/svg" xmlns:xlink="http://www.w3.org/1999/xlink" x="0px" y="0px"
	 viewBox="0 0 595.3 595.3" style="enable-background:new 0 0 595.3 595.3;" xml:space="preserve">
<style type="text/css">
	.st0{fill:#FFFFFF;}
	.st1{fill:#F0C415;}
	.st2{fill:#592E84;}
</style>
<path class="st0" d="M297.6,595.3L297.6,595.3C133.3,595.3,0,462,0,297.6l0,0C0,133.3,133.3,0,297.6,0l0,0
	C462,0,595.3,133.3,595.3,297.6l0,0C595.3,462,462,595.3,297.6,595.3z"/>
<g>
	<path class="st1" d="M89.2,351.3c16.6-23.3,36.1-42.2,66.3-45.9c28.6-3.8,43.7,15.1,30.9,40.7c-6.8,12.8-5.3,21.8,2.3,32.4
		c50.4,79.1,164.1,82.1,218.3,5.3c8.3-12,16.6-22.6,6-39.9c-12.8-20.3,1.5-40.7,27.1-39.1c22.6,1.5,42.2,10.5,56.5,28.6
		c15.8,19.6,12,36.9-12,45.9c-12,4.5-18.8,12-25.6,22.6c-81.3,122-236.4,122-316.2-0.8c-14.3-21.8-44.4-19.6-52.7-44.4
		C89.2,355.1,89.2,353.6,89.2,351.3z"/>
	<path class="st2" d="M299.3,102.1c91.9,0,175.4,75.3,183.7,167.1c0.8,9.8,9.8,29.4-6.8,28.6c-15.8-0.8-39.9,3.8-47.4-20.3
		c-1.5-4.5-1.5-9.8-2.3-14.3c-15.1-61-65.5-104.6-123.5-105.4c-60.2-0.8-112.2,40.7-128,103.1c-3,12.8-3,26.4-20.3,31.6
		c-39.1,11.3-43.7,9-36.9-31.6C132.9,168.4,208.2,102.1,299.3,102.1z"/>
</g>
</svg>
