<?xml version="1.0" encoding="utf-8"?>
<!-- Generator: Adobe Illustrator 26.3.1, SVG Export Plug-In . SVG Version: 6.00 Build 0)  -->
<svg version="1.1" id="Layer_1" xmlns="http://www.w3.org/2000/svg" xmlns:xlink="http://www.w3.org/1999/xlink" x="0px" y="0px"
	 viewBox="0 0 595.3 595.3" style="enable-background:new 0 0 595.3 595.3;" xml:space="preserve">
<style type="text/css">
	.st0{fill:#FFFFFF;}
	.st1{fill:#0296DA;}
	.st2{fill:url(#SVGID_1_);}
	.st3{fill:url(#SVGID_00000054265149614994363980000004357597637205120950_);}
	.st4{fill:url(#SVGID_00000047774835707559168980000009561111459156209328_);}
	.st5{fill:url(#SVGID_00000083776797655288855570000016586061947505409714_);}
	.st6{fill:url(#SVGID_00000101069637156871712390000003659377582922248618_);}
	.st7{fill:url(#SVGID_00000011724479014673599260000010587127680345462675_);}
	.st8{fill:#70BE45;}
	.st9{fill:url(#SVGID_00000021106113609112362190000013017341945106329789_);}
	.st10{fill:url(#SVGID_00000075868748778928692490000005692502698378921614_);}
	.st11{fill:url(#SVGID_00000005242781179311751220000016863769911115319187_);}
	.st12{fill:url(#SVGID_00000125571938645038651390000003375383366908413824_);}
	.st13{fill:url(#SVGID_00000030480976744549662920000015051829344702290347_);}
	.st14{fill:url(#SVGID_00000128459746185071021200000013784001298745893302_);}
	.st15{fill:url(#SVGID_00000003079216943035309810000002690875909395686798_);}
	.st16{fill:url(#SVGID_00000146491769221067781160000012552199371580819126_);}
	.st17{fill:url(#SVGID_00000163067939447321517000000003267840363938127787_);}
	.st18{fill:url(#SVGID_00000043438096634639963030000005654564341222710954_);}
	.st19{fill:url(#SVGID_00000005979040877856839450000001294177196483180208_);}
	.st20{fill:url(#SVGID_00000017474367941231422210000016484318276390236311_);}
</style>
<path class="st0" d="M297.6,595.3L297.6,595.3C133.3,595.3,0,462,0,297.6v0C0,133.3,133.3,0,297.6,0h0
	C462,0,595.3,133.3,595.3,297.6v0C595.3,462,462,595.3,297.6,595.3z"/>
<g>
	<path class="st1" d="M47.1,298.3c-1.5,2.5-3.3,4.8-4.6,7.4c-1.1,2.4-1.7,4.9-1,7.5c0.6,2.2,1.6,2.9,3.9,3c3.8,0.1,7.4-0.7,11-1.8
		c14.5-4.3,28.1-10.4,40.7-18.8c4.2-2.8,8.7-5.2,13-7.8c2.2-1.3,4.4-2.8,6.2-4.7c2.8-2.9,2.7-5.6-0.2-8.4c-1.1-1-2.3-1.7-3.4-2.7
		c4.4,0.6,8.7,1.2,12.3,3.8c2.5,1.8,3,4.2,1.7,7c-1.8,3.7-4.9,6.3-8.1,8.8c-3.9,3.2-8.2,5.8-12.5,8.5c-8.2,5.3-16.9,9.7-26,13.1
		c-0.5,0.2-1,0.4-1.7,0.7c0.5,0.4,1,0.2,1.4,0.2c7.7,0,15.4,0,23.2,0c2.1,0,2.8-0.8,2.8-3c-0.1-2.5-0.1-5.1-0.3-7.6
		c0-0.9,0.2-1.5,1.1-1.9c3.5-1.8,6.8-3.7,10-6c0.2-0.1,0.4-0.4,0.8-0.3c0.3,4.2-0.2,8.4-1.6,12.4c-4.6,12.6-13.7,20-26.8,22.4
		c-3.3,0.6-6.7,0.6-10,0c-6.8-1.3-13-4.2-17.9-9.2c-0.7-0.8-1.4-0.9-2.4-0.6c-4.5,1.2-9.2,2.1-13.9,2.4c-1.6,0.1-3.3,0-4.9-0.4
		c-3-0.7-4.4-2.5-4.3-5.6c0.1-2.5,1-4.8,2.2-7c2.4-4.4,5.6-8.2,9.1-11.7C47,298.2,47,298.3,47.1,298.3z"/>
	<g>
		<linearGradient id="SVGID_1_" gradientUnits="userSpaceOnUse" x1="444.6281" y1="281.9025" x2="444.6281" y2="315.1448">
			<stop  offset="0" style="stop-color:#A5CE39"/>
			<stop  offset="1" style="stop-color:#00AA4F"/>
		</linearGradient>
		<path class="st2" d="M445.6,281.9c3.9-0.1,7.5,0.8,10.4,3.7c1.8,1.8,2.6,4,3,6.5c0.1,0.8-0.1,1.2-1,1.1c-0.5-0.1-1-0.1-1.5,0
			c-2.3,0.3-4-0.5-5-2.7c-0.6-1.3-1.9-2-3.3-2.4c-3.9-1-7.7,0.2-9.8,3.4c-1.4,2.3-1.6,4.9-1.5,7.5c0.1,3,0.5,5.9,2.9,8.2
			c3.9,3.8,10.9,2.4,12.7-2.8c0.3-0.8,0.6-1.1,1.5-1c1.4,0.1,2.7,0.1,4.1,0c1.1-0.1,1.2,0.3,1.1,1.3c-0.8,5-3.5,8.3-8.4,9.8
			c-3.4,1-6.8,1.1-10.3,0.2c-5.2-1.3-8.8-5.5-9.7-10.7c-0.7-4.1-0.7-8.3,0.4-12.3c1.6-5.7,6.3-9.3,12.4-9.6
			C444.2,281.9,444.9,281.9,445.6,281.9z"/>
		
			<linearGradient id="SVGID_00000163061524616945408660000014683144802035200407_" gradientUnits="userSpaceOnUse" x1="532.1877" y1="289.2781" x2="532.1877" y2="314.8081">
			<stop  offset="0" style="stop-color:#A5CE39"/>
			<stop  offset="1" style="stop-color:#00AA4F"/>
		</linearGradient>
		<path style="fill:url(#SVGID_00000163061524616945408660000014683144802035200407_);" d="M535.5,303.7c-2.3,0-4.7,0-7,0
			c-0.9,0-1,0.3-0.9,1c0.3,1.9,1.1,3.7,3.1,4.3c2.1,0.6,4.1,0.4,5.6-1.4c0.6-0.7,1.3-0.9,2.2-0.9c1.2,0,2.5,0.1,3.7,0
			c1-0.1,1,0.3,0.7,1.1c-1.4,3.7-4,6-7.8,6.7c-4.3,0.8-8.3,0.3-11.4-3.3c-1.1-1.2-1.8-2.7-2.2-4.2c-0.8-3.1-0.9-6.2-0.2-9.3
			c1.3-5.8,6.1-9.1,12.1-8.3c6.2,0.8,9.6,4.5,10,10.8c0.2,3.5,0.2,3.5-3.3,3.5C538.6,303.7,537,303.7,535.5,303.7z M532.1,299.6
			c1.3,0,2.6,0,4,0c0.4,0,0.8,0,0.7-0.7c-0.2-2.5-1.9-4.2-4.3-4.2c-2.7-0.1-4.6,1.5-4.9,3.9c-0.1,0.7,0.1,1,0.8,1
			C529.6,299.6,530.9,299.6,532.1,299.6z"/>
		
			<linearGradient id="SVGID_00000125591692273128141790000017648430906381880472_" gradientUnits="userSpaceOnUse" x1="472.4867" y1="289.2798" x2="472.4867" y2="314.8373">
			<stop  offset="0" style="stop-color:#A5CE39"/>
			<stop  offset="1" style="stop-color:#00AA4F"/>
		</linearGradient>
		<path style="fill:url(#SVGID_00000125591692273128141790000017648430906381880472_);" d="M475.7,303.7c-2.3,0-4.7,0-7,0
			c-0.8,0-1.1,0.2-0.9,1c0.4,1.6,0.7,3.2,2.4,4.1c1.9,1,4.6,0.7,6-0.9c0.8-0.9,1.7-1.3,2.9-1.2c1,0.1,2,0.1,3,0
			c1.3-0.1,1.3,0.4,0.9,1.4c-1.2,3.1-3.3,5.3-6.5,6.1c-4.4,1.2-8.6,1-12.1-2.5c-1.3-1.3-2.1-2.9-2.6-4.6c-0.8-3.1-0.9-6.2-0.2-9.3
			c1.4-6,6.1-9.2,12.3-8.4c5.8,0.7,8.9,4.1,9.6,9.8c0.1,1.1,0.1,2.2,0.3,3.2c0.2,0.9-0.1,1.4-1.2,1.4
			C480.3,303.7,478,303.7,475.7,303.7z M472.3,299.6c1.3,0,2.6,0,4,0c0.6,0,0.8-0.2,0.7-0.8c-0.3-2.5-2-4.1-4.6-4.1
			c-2.5,0-4.4,1.6-4.6,4.1c-0.1,0.6,0.1,0.8,0.7,0.8C469.8,299.6,471.1,299.6,472.3,299.6z"/>
		
			<linearGradient id="SVGID_00000183953953030213547000000005991557146117230516_" gradientUnits="userSpaceOnUse" x1="496.7815" y1="289.3342" x2="496.7815" y2="314.4462">
			<stop  offset="0" style="stop-color:#A5CE39"/>
			<stop  offset="1" style="stop-color:#00AA4F"/>
		</linearGradient>
		<path style="fill:url(#SVGID_00000183953953030213547000000005991557146117230516_);" d="M486.1,305.7c0-2.1,0-4.2,0-6.3
			c0-6.1,2.6-8.5,8.2-9.8c2.8-0.6,5.5-0.1,8.1,1c3,1.3,4.4,3.6,4.8,6.6c0.2,1.3,0.2,2.6,0.2,3.9c0,4,0,8.1,0,12.1
			c0,0.7-0.1,1.1-0.9,1.1c-4.7,0.2-5.7-0.6-5.6-5.3c0-3.4,0-6.8,0-10.2c0-2.6-1.5-4.3-4.1-4.3c-2.4,0-4,0.8-4.4,3.8
			c-0.1,0.5-0.1,1.1-0.1,1.6c0,4.4,0,8.8,0.1,13.2c0,0.9-0.2,1.3-1.2,1.3c-1.4-0.1-2.7-0.1-4.1,0c-1,0.1-1.2-0.3-1.2-1.2
			C486.1,310.7,486.1,308.2,486.1,305.7C486.1,305.7,486.1,305.7,486.1,305.7z"/>
		
			<linearGradient id="SVGID_00000106134104825206757320000012626344558315324844_" gradientUnits="userSpaceOnUse" x1="514.5695" y1="282.6936" x2="514.5695" y2="314.4322">
			<stop  offset="0" style="stop-color:#A5CE39"/>
			<stop  offset="1" style="stop-color:#00AA4F"/>
		</linearGradient>
		<path style="fill:url(#SVGID_00000106134104825206757320000012626344558315324844_);" d="M509.5,296.9c0-4.3,0-8.6,0-13
			c0-0.9,0.2-1.4,1.2-1.2c0.3,0,0.6,0,1,0c3.3,0,4.3,0.9,4.3,4.2c0,0,0,0.1,0,0.1c0,2.8,0,2.9,2.8,2.9c0.8,0,1,0.2,1,1
			c0,1.9-0.9,3.1-2.8,3.4c-0.8,0.1-0.9,0.4-0.9,1.1c0,4,0,7.9,0,11.9c0,1.7,0.4,2.2,2.1,2c1.3-0.1,1.7,0.3,1.7,1.6
			c-0.1,3.4,0,3.4-3.5,3.4c-0.9,0-1.8,0-2.7-0.1c-2.8-0.2-4-1.4-4-4.3c-0.1-3.9,0-7.8,0-11.7C509.5,297.8,509.5,297.4,509.5,296.9
			C509.5,296.9,509.5,296.9,509.5,296.9z"/>
		
			<linearGradient id="SVGID_00000171720015447747335420000001537636731315722636_" gradientUnits="userSpaceOnUse" x1="552.672" y1="289.8684" x2="552.672" y2="314.3959">
			<stop  offset="0" style="stop-color:#A5CE39"/>
			<stop  offset="1" style="stop-color:#00AA4F"/>
		</linearGradient>
		<path style="fill:url(#SVGID_00000171720015447747335420000001537636731315722636_);" d="M549,314.4c-3.3,0-3.3,0-3.2-3.3
			c0.1-3.6-0.2-7.2,0.2-10.8c0.6-5.8,4-9.4,9.8-10.2c1-0.1,2.1-0.2,3.1-0.3c0.6-0.1,0.8,0.2,0.8,0.8c0,1.6,0,3.3,0,4.9
			c0,0.7-0.2,0.8-0.9,0.8c-0.9,0-1.7,0-2.6,0.2c-2.5,0.4-3.8,1.8-3.9,4.6c-0.1,3.8,0,7.6,0,11.5c0,2,0.3,1.7-1.8,1.7
			C550,314.4,549.5,314.4,549,314.4z"/>
	</g>
	<path class="st8" d="M82.2,285.3c-2.1,0-4.3,0-6.4,0c-0.7,0-1-0.2-1-1c-0.1-5.1-0.3-4,3.9-4.1c3.1-0.1,6.3,0,9.4,0
		c1.2,0,1.6,0.5,1.7,1.6c0.4,3.5,0.4,3.5-3.1,3.5C85.2,285.3,83.7,285.3,82.2,285.3z"/>
	
		<linearGradient id="SVGID_00000061472956941261869200000007142446772765855370_" gradientUnits="userSpaceOnUse" x1="202.3575" y1="281.8238" x2="202.3575" y2="315.1219">
		<stop  offset="0" style="stop-color:#A5CE39"/>
		<stop  offset="1" style="stop-color:#00AA4F"/>
	</linearGradient>
	<path style="fill:url(#SVGID_00000061472956941261869200000007142446772765855370_);" d="M142.5,298.6c-0.1-3.2,0.4-6.2,1.8-9
		c2.1-4.1,5.4-6.6,9.9-7.4c5.1-0.9,10-0.3,14.1,3.3c2.8,2.5,4.2,5.6,4.7,9.3c0.6,4.2,0.5,8.4-1.4,12.3c-2.2,4.8-6.1,7.3-11.3,7.9
		c-3,0.4-5.9,0.2-8.8-0.9c-5.1-2-7.8-5.9-8.8-11.1C142.5,301.4,142.4,300,142.5,298.6z M149,298.5c0,1.2,0.1,2.5,0.3,3.7
		c0.9,4.4,3.5,6.7,8.2,7.2c3.4,0.3,6.8-1.8,8.1-5.2c1.4-3.6,1.4-7.2,0.2-10.8c-1.3-4-4.2-5.9-8.5-5.8c-3.9,0.1-6.6,2.3-7.8,6.3
		C149.2,295.3,149,296.9,149,298.5z M254.1,303.8c-2.3,0-4.7,0-7,0c-0.8,0-1,0.2-0.9,1c0.3,1.9,1,3.7,3,4.3c2.1,0.7,4.1,0.5,5.7-1.4
		c0.6-0.7,1.3-0.9,2.2-0.9c1.2,0,2.4,0.1,3.6,0c1.2-0.1,1.1,0.4,0.8,1.2c-1,2.6-2.6,4.6-5.2,5.7c-4.6,1.8-9,1.9-13-1.4
		c-1.6-1.3-2.5-3.1-3.1-5.1c-1-3.5-1-6.9,0-10.4c1.5-5.3,6.2-8.1,12-7.4c5.8,0.8,9.2,4.3,9.8,10.2c0.1,1,0.1,2.1,0.2,3.1
		c0.1,0.8-0.3,1.1-1.1,1.1C258.8,303.7,256.5,303.8,254.1,303.8z M250.8,299.6c1.3,0,2.6,0,3.8,0c0.8,0,0.9-0.3,0.8-1
		c-0.4-2.5-2-3.9-4.4-3.9c-2.5,0-4.2,1.4-4.7,3.8c-0.2,0.8,0,1.1,0.8,1.1C248.3,299.6,249.6,299.6,250.8,299.6z M175.1,305.7
		c0,2.4,0.1,4.7,0,7.1c-0.1,1.4,0.4,1.7,1.7,1.6c1.1-0.1,2.2-0.1,3.3,0c1.4,0.2,1.7-0.4,1.6-1.7c-0.1-4.8,0-9.6,0-14.5
		c0-1,0.2-2,1-2.6c1.5-1.2,3.2-1.6,5.1-0.7c1.7,0.8,2.3,2.2,2.3,3.9c0,3.4,0,6.8,0,10.2c0,4.6,1,5.6,5.7,5.3c0.6,0,0.9-0.2,0.9-0.9
		c0-5.1,0.1-10.2-0.1-15.3c-0.2-4.6-2.2-6.9-6.6-8.3c-2.1-0.7-4.3-0.8-6.5-0.4c-5.7,1.1-8.2,4.1-8.2,9.8
		C175.1,301.5,175.1,303.6,175.1,305.7C175.1,305.7,175.1,305.7,175.1,305.7z M216.5,305.7c0,2.5,0,5.1,0,7.6c0,0.8,0.3,1.1,1.1,1.1
		c1.3-0.1,2.7-0.1,4,0c1.3,0.1,1.6-0.4,1.6-1.6c-0.1-4.6-0.1-9.3-0.1-13.9c0-1.2,0-2.4,1.2-3.3c1.6-1.2,3.3-1.4,5.1-0.6
		c1.7,0.8,2.2,2.3,2.2,4.1c0,3.4,0.1,6.7-0.1,10.1c-0.2,4.8,1.4,5.4,5.3,5.2c0.1,0,0.2,0,0.3,0c0.7,0.1,0.9-0.3,0.9-1
		c0-4.9,0.1-9.8-0.1-14.7c-0.1-4.9-2.3-7.5-6.7-8.8c-2.4-0.7-4.7-0.7-7.2-0.1c-5.1,1.3-7.2,3.9-7.4,9.1
		C216.5,301.1,216.5,303.4,216.5,305.7C216.5,305.7,216.5,305.7,216.5,305.7z M199,298.4c0,4.9,0,9.8,0,14.7c0,0.9,0.2,1.3,1.2,1.2
		c1.4-0.1,2.7-0.1,4.1,0c1.1,0.1,1.3-0.4,1.3-1.4c-0.1-8.4-0.1-16.7-0.1-25.1c0-4.6-0.7-5.2-5.3-5.2c-1,0-1.2,0.3-1.2,1.2
		C199.1,288.8,199.1,293.6,199,298.4C199,298.4,199,298.4,199,298.4z M208.4,302c0,3.7,0,7.5,0,11.2c0,1,0.3,1.3,1.2,1.2
		c1.3-0.1,2.7-0.1,4,0c1.1,0.1,1.5-0.2,1.5-1.4c-0.1-6,0-11.9-0.1-17.9c0-4.7-0.7-5.3-5.4-5.3c-1,0-1.2,0.4-1.2,1.3
		C208.5,294.8,208.4,298.4,208.4,302C208.4,302,208.4,302,208.4,302z M214.1,287.8c0.3,0,0.6,0,0.8-0.4c0.8-1.9-0.6-4.4-2.7-4.7
		c-0.6-0.1-1.2,0-1.8,0c-2,0-2,0-2,1.9c0,3.2,0,3.2,3.2,3.2C212.5,287.8,213.3,287.9,214.1,287.8z"/>
	<g>
		
			<linearGradient id="SVGID_00000150085628159539395540000014823214885272178111_" gradientUnits="userSpaceOnUse" x1="278.2215" y1="282.6781" x2="278.2215" y2="314.5515">
			<stop  offset="0" style="stop-color:#00A7E9"/>
			<stop  offset="1" style="stop-color:#263A97"/>
		</linearGradient>
		<path style="fill:url(#SVGID_00000150085628159539395540000014823214885272178111_);" d="M278.1,306c2-6.8,3.9-13.4,5.9-20.1
			c0.8-2.7,1.4-3.2,4.2-3.2c1.2,0,2.5,0,3.9,0c-0.7,2.1-1.4,4.1-2.1,6.1c-2.8,8.1-5.6,16.3-8.3,24.4c-0.3,0.9-0.7,1.2-1.7,1.1
			c-1.7-0.2-3.8,0.6-4.9-0.3c-1.1-0.9-1.3-2.9-1.8-4.5c-2.9-8.4-5.9-16.9-8.8-25.3c-0.5-1.6-0.5-1.6,1.2-1.6c1.4,0,2.8,0.1,4.2,0
			c1.1-0.1,1.6,0.3,1.9,1.4c1.9,6.8,3.8,13.6,5.7,20.3C277.7,304.8,277.9,305.3,278.1,306z"/>
		
			<linearGradient id="SVGID_00000139255756508196652040000013142696316849035913_" gradientUnits="userSpaceOnUse" x1="299.5676" y1="289.2455" x2="299.5676" y2="314.789">
			<stop  offset="0" style="stop-color:#00A7E9"/>
			<stop  offset="1" style="stop-color:#263A97"/>
		</linearGradient>
		<path style="fill:url(#SVGID_00000139255756508196652040000013142696316849035913_);" d="M309.9,301c0,2,0.2,4.3-0.3,6.6
			c-0.9,4-3.9,6.5-8.6,7c-2.7,0.3-5.4,0.5-7.9-0.7c-2.9-1.3-4-3.7-4-6.7c0-3,1-5.3,3.8-6.6c2.3-1.1,4.7-1.3,7.2-1.7
			c0.9-0.1,1.7-0.3,2.5-0.7c0.7-0.4,1.2-0.9,1.1-1.8c-0.1-0.9-0.7-1.3-1.4-1.5c-2.2-0.5-4.4-1-6.2,1.1c-0.3,0.3-0.6,0.2-0.9,0.2
			c-1.5,0-3,0-4.5,0c-1,0-0.9-0.4-0.7-1.1c0.8-2.7,2.6-4.4,5.2-5.2c3.6-1.1,7.2-0.9,10.7,0.4c2.6,1,4,3,4,5.8
			C310,297.7,309.9,299.2,309.9,301z M303.9,302.2c-2.3,0.6-4.5,1.2-6.7,1.9c-0.3,0.1-0.6,0.3-0.8,0.5c-1,0.7-1.2,1.7-1.1,2.8
			c0.1,1,0.5,1.7,1.5,2.1c2.9,1.2,6.5-0.7,7-3.7C303.9,304.6,303.9,303.5,303.9,302.2z"/>
		
			<linearGradient id="SVGID_00000129183145884877939650000003471646898092546451_" gradientUnits="userSpaceOnUse" x1="346.3092" y1="289.2454" x2="346.3092" y2="314.8384">
			<stop  offset="0" style="stop-color:#00A7E9"/>
			<stop  offset="1" style="stop-color:#263A97"/>
		</linearGradient>
		<path style="fill:url(#SVGID_00000129183145884877939650000003471646898092546451_);" d="M356.7,300.8c0,1.5,0,3.1,0,4.6
			c-0.1,4.5-2.6,7.7-7,8.8c-2.9,0.7-5.9,0.9-8.8,0c-3.3-1-4.8-3.2-5-6.6c-0.2-4.8,1.9-7.1,7.7-8.2c1.3-0.3,2.6-0.4,3.9-0.6
			c0.8-0.1,1.6-0.4,2.3-0.9c1.1-0.9,1-2.3-0.3-2.9c-1.8-0.8-3.6-0.7-5.5-0.2c-0.1,0-0.2,0.1-0.2,0.1c-1.9,2.4-4.5,0.8-6.7,1.2
			c-0.7,0.1-0.4-0.6-0.3-0.9c0.7-2.8,2.7-4.5,5.4-5.3c3.4-1,6.8-0.8,10.1,0.3c3,1,4.5,3.1,4.5,6.3
			C356.7,297.9,356.7,299.4,356.7,300.8C356.7,300.8,356.7,300.8,356.7,300.8z M350.6,302.1c-1.7,0.9-3.5,1.2-5.2,1.6
			c-0.7,0.2-1.3,0.4-1.9,0.7c-1.3,0.7-1.5,1.9-1.3,3.2c0.1,1.2,0.9,1.9,2.1,2.2c2.8,0.7,5.6-1,6.2-3.9
			C350.8,304.6,350.7,303.4,350.6,302.1z"/>
		
			<linearGradient id="SVGID_00000013154229090241916460000009932608609867828876_" gradientUnits="userSpaceOnUse" x1="390.9206" y1="289.2485" x2="390.9206" y2="314.7463">
			<stop  offset="0" style="stop-color:#00A7E9"/>
			<stop  offset="1" style="stop-color:#263A97"/>
		</linearGradient>
		<path style="fill:url(#SVGID_00000013154229090241916460000009932608609867828876_);" d="M402.2,302c0.1,2.3-0.3,4.4-1.1,6.4
			c-1.9,4.6-5.9,6.7-11.6,6.3c-4.8-0.4-8.1-3.2-9.3-7.9c-0.8-3.1-0.8-6.2-0.1-9.3c1.2-4.8,4.2-7.5,9.1-8.1c6-0.8,10.5,1.9,12.2,7.4
			C402,298.5,402.3,300.3,402.2,302z M386,301.3c0.1,1.8,0.1,3.2,0.5,4.6c0.7,2.3,2.1,3.5,4.2,3.6c2,0.1,3.8-1.2,4.5-3.3
			c0.9-2.7,1-5.4,0.1-8.1c-0.6-1.9-2.5-3.3-4.3-3.3c-2,0-3.6,1.1-4.4,3.1C386,299.1,386,300.4,386,301.3z"/>
		
			<linearGradient id="SVGID_00000000225022574583697550000010423594624511453356_" gradientUnits="userSpaceOnUse" x1="415.1261" y1="289.3712" x2="415.1261" y2="314.4023">
			<stop  offset="0" style="stop-color:#00A7E9"/>
			<stop  offset="1" style="stop-color:#263A97"/>
		</linearGradient>
		<path style="fill:url(#SVGID_00000000225022574583697550000010423594624511453356_);" d="M411,305.6c0,2.6,0,5.2,0,7.8
			c0,0.8-0.2,1-1,1c-1.6-0.1-3.1,0-4.7,0c-0.6,0-0.9-0.2-0.9-0.8c0.1-5.5-0.3-10.9,0.2-16.4c0.3-2.8,1.6-5,4.2-6.2
			c3.6-1.8,7.3-2.1,11.1-0.7c3.6,1.3,5.6,3.8,5.7,7.5c0.2,5.3,0.1,10.6,0.1,15.8c0,0.6-0.2,0.9-0.8,0.8c0,0-0.1,0-0.1,0
			c-4.6,0.2-5.4-0.6-5.4-5.2c0-3.4,0-6.8,0-10.2c0-2.3-1-3.7-2.9-4.2c-2.2-0.6-4,0.1-5.2,2c-0.3,0.4-0.3,0.7-0.3,1.1
			C411,300.4,411,303,411,305.6C411,305.6,411,305.6,411,305.6z"/>
		
			<linearGradient id="SVGID_00000182506622816927868810000015517473991210184083_" gradientUnits="userSpaceOnUse" x1="323.0589" y1="289.2678" x2="323.0589" y2="314.7751">
			<stop  offset="0" style="stop-color:#00A7E9"/>
			<stop  offset="1" style="stop-color:#263A97"/>
		</linearGradient>
		<path style="fill:url(#SVGID_00000182506622816927868810000015517473991210184083_);" d="M330.8,297.4c-0.5,0-1.1,0-1.6,0
			c-1,0.1-1.6-0.2-2.2-1.1c-1.9-2.6-6.4-2.2-7.7,0.9c-1.3,3.1-1.4,6.4,0,9.5c1.3,2.7,5.3,3.7,7.4,1.6c1.3-1.3,2.7-1.8,4.4-1.6
			c0.4,0,0.7,0,1.1,0c2.4,0,2.4,0.1,1.3,2.3c-2.7,5.2-7.8,6.3-12.7,5.5c-4.7-0.7-7.7-4.3-8.5-9.4c-0.4-2.4-0.4-4.8,0.2-7.2
			c1.4-6.1,6.1-9.3,12.3-8.6c4.3,0.5,7.4,2.6,9,6.7c0.4,0.9,0.4,1.5-0.9,1.3C332.1,297.4,331.4,297.4,330.8,297.4z"/>
		
			<linearGradient id="SVGID_00000059271355772846118950000011211636847756869508_" gradientUnits="userSpaceOnUse" x1="364.7827" y1="282.6657" x2="364.7827" y2="314.403">
			<stop  offset="0" style="stop-color:#00A7E9"/>
			<stop  offset="1" style="stop-color:#263A97"/>
		</linearGradient>
		<path style="fill:url(#SVGID_00000059271355772846118950000011211636847756869508_);" d="M359.7,297.1c0-4.4,0-8.7,0-13.1
			c0-1,0.2-1.3,1.2-1.3c3.9-0.1,5.4,0.7,5.1,5.1c0,0.1,0,0.2,0,0.3c0,1.8,0,1.8,1.8,1.8c2.1,0,2.6,0.9,1.7,2.8
			c-0.5,1-1.4,1.6-2.5,1.7c-0.9,0-1,0.4-1,1.1c0,4,0,7.9,0,11.9c0,1.6,0.4,2,2,2c1.8,0,1.8,0,1.8,1.8c0,3.1,0,3.1-3.1,3.1
			c-1,0-2.1,0-3.1-0.1c-2.8-0.3-3.9-1.5-4-4.3C359.6,305.7,359.6,301.4,359.7,297.1C359.7,297.1,359.7,297.1,359.7,297.1z"/>
		
			<linearGradient id="SVGID_00000013194513078857447070000018217572403870102401_" gradientUnits="userSpaceOnUse" x1="375.3491" y1="289.8327" x2="375.3491" y2="314.3936">
			<stop  offset="0" style="stop-color:#00A7E9"/>
			<stop  offset="1" style="stop-color:#263A97"/>
		</linearGradient>
		<path style="fill:url(#SVGID_00000013194513078857447070000018217572403870102401_);" d="M372.1,302c0-3.6,0-7.3,0-10.9
			c0-1,0.3-1.3,1.2-1.2c0.8,0.1,1.6,0,2.3,0c1.7,0.1,3,1.4,3,3.1c0,6.8,0,13.7,0,20.5c0,0.7-0.2,0.9-0.9,0.9c-1.4,0-2.8-0.1-4.2,0
			c-1,0.1-1.4-0.2-1.4-1.3C372.1,309.4,372.1,305.7,372.1,302C372.1,302,372.1,302,372.1,302z"/>
		
			<linearGradient id="SVGID_00000136396401053958241540000012880459797794497689_" gradientUnits="userSpaceOnUse" x1="375.4601" y1="282.7072" x2="375.4601" y2="287.8597">
			<stop  offset="0" style="stop-color:#00A7E9"/>
			<stop  offset="1" style="stop-color:#263A97"/>
		</linearGradient>
		<path style="fill:url(#SVGID_00000136396401053958241540000012880459797794497689_);" d="M375.4,287.9c-3.3,0-3.3,0-3.3-3.3
			c0-2.1-0.3-1.8,1.8-1.8c0.6,0,1.2,0,1.8,0c2.2,0.2,3.8,2.7,2.9,4.8c-0.2,0.4-0.5,0.3-0.8,0.4C377,287.9,376.2,287.9,375.4,287.9z"
			/>
	</g>
	<path class="st1" d="M46.9,298.1c0.1-0.1,0.3-0.2,0.4-0.4c0,0.1,0.1,0.1,0.1,0.2c-0.1,0.2-0.2,0.3-0.3,0.5
		C47,298.3,47,298.2,46.9,298.1z"/>
	<path class="st1" d="M47.6,297.5c0-0.1,0.1-0.1,0.1-0.2c0,0,0.1,0.1,0.1,0.1C47.7,297.4,47.7,297.4,47.6,297.5
		C47.6,297.5,47.6,297.5,47.6,297.5z"/>
	<path class="st1" d="M47.6,297.5c0.1,0.2,0,0.3-0.1,0.4c0,0-0.1-0.1-0.1-0.1C47.3,297.6,47.4,297.5,47.6,297.5
		C47.6,297.5,47.6,297.5,47.6,297.5z"/>
	<path class="st8" d="M44.8,310.7c-0.1-0.1-0.2-0.2,0-0.3c0,0,0.1,0.1,0.2,0.2C44.9,310.6,44.8,310.6,44.8,310.7z"/>
	
		<linearGradient id="SVGID_00000115499960753651736160000011984803145411563185_" gradientUnits="userSpaceOnUse" x1="79.1032" y1="264.5894" x2="79.1032" y2="313.3041">
		<stop  offset="0" style="stop-color:#A5CE39"/>
		<stop  offset="1" style="stop-color:#00AA4F"/>
	</linearGradient>
	<path style="fill:url(#SVGID_00000115499960753651736160000011984803145411563185_);" d="M113.1,281.5c-4-6.5-9.2-11.5-16.5-14.3
		c-12.9-5-27.7-2.8-37.7,8.2c-9,9.9-11.3,21.4-7.2,34.1c0.3,1,0.2,1.4-0.9,1.7c-2.1,0.5-4.1,0.3-6-0.6c0,0-0.1,0.1-0.1,0.1
		c0.8,1.6,2.3,2.1,3.9,2.4c3.5,0.6,7,0,10.5-0.6c1.2-0.2,1.5-0.8,1.4-1.9c-0.3-7.5-0.6-14.9-0.8-22.4c-0.1-2,0.7-2.8,2.8-2.8
		c2.7,0,5.4,0,8.1,0c1.9,0,1.9,0,1.5-1.9c-0.5-2.5,0.5-5.8,4.2-5.5c4,0.3,8.1,0.1,12.2,0.1c2,0,3.1,0.9,3.6,2.8
		c0.3,1.1,0.2,2.3,0.2,3.4c0,0.8,0.3,1.1,1.1,1.1c2.6,0,5.3,0,7.9,0c2.9,0,3.6,0.6,3.9,3.5c0,0.1,0.1,0.1,0.3,0.2
		c2.4-1.8,4.7-3.6,7.2-5.4C113.6,283,113.6,282.4,113.1,281.5z"/>
	
		<linearGradient id="SVGID_00000127738159728088641310000014130431321831223185_" gradientUnits="userSpaceOnUse" x1="83.6081" y1="265.8985" x2="83.6081" y2="274.9565">
		<stop  offset="0" style="stop-color:#FFFFFF"/>
		<stop  offset="1" style="stop-color:#FFFFFF;stop-opacity:0"/>
	</linearGradient>
	<path style="fill:url(#SVGID_00000127738159728088641310000014130431321831223185_);" d="M105.6,275c-14.9,0-29.3,0-44,0
		C70.5,263.9,91.8,261.9,105.6,275z"/>
</g>
</svg>
