<?xml version="1.0" encoding="utf-8"?>
<!-- Generator: Adobe Illustrator 26.3.1, SVG Export Plug-In . SVG Version: 6.00 Build 0)  -->
<svg version="1.1" id="Layer_1" xmlns="http://www.w3.org/2000/svg" xmlns:xlink="http://www.w3.org/1999/xlink" x="0px" y="0px"
	 viewBox="0 0 595.3 595.3" style="enable-background:new 0 0 595.3 595.3;" xml:space="preserve">
<style type="text/css">
	.st0{fill:#FFFFFF;}
	.st1{fill:#0296DA;}
	.st2{fill:#70BE45;}
	.st3{fill:url(#SVGID_1_);}
	.st4{fill:url(#SVGID_00000040555539354884697140000011639235316789237677_);}
</style>
<path class="st0" d="M297.6,595.3L297.6,595.3C133.3,595.3,0,462,0,297.6l0,0C0,133.3,133.3,0,297.6,0l0,0
	C462,0,595.3,133.3,595.3,297.6l0,0C595.3,462,462,595.3,297.6,595.3z"/>
<g>
	<path class="st1" d="M141.2,300.8c-6.8,11.4-15,21.8-20.9,33.7c-5,10.9-7.7,22.3-4.5,34.1c2.7,10,7.3,13.2,17.7,13.6
		c17.3,0.5,33.7-3.2,50-8.2c66-19.6,127.8-47.3,185.2-85.5c19.1-12.7,39.6-23.7,59.1-35.5c10-5.9,20-12.7,28.2-21.4
		c12.7-13.2,12.3-25.5-0.9-38.2c-5-4.5-10.5-7.7-15.5-12.3c20,2.7,39.6,5.5,56,17.3c11.4,8.2,13.6,19.1,7.7,31.8
		c-8.2,16.8-22.3,28.7-36.9,40c-17.7,14.6-37.3,26.4-56.9,38.7c-37.3,24.1-76.9,44.1-118.3,59.6c-2.3,0.9-4.5,1.8-7.7,3.2
		c2.3,1.8,4.5,0.9,6.4,0.9c35,0,70.1,0,105.6,0c9.6,0,12.7-3.6,12.7-13.6c-0.5-11.4-0.5-23.2-1.4-34.6c0-4.1,0.9-6.8,5-8.6
		c15.9-8.2,30.9-16.8,45.5-27.3c0.9-0.5,1.8-1.8,3.6-1.4c1.4,19.1-0.9,38.2-7.3,56.4c-20.9,57.3-62.3,91-121.9,101.9
		c-15,2.7-30.5,2.7-45.5,0c-30.9-5.9-59.1-19.1-81.4-41.9c-3.2-3.6-6.4-4.1-10.9-2.7c-20.5,5.5-41.9,9.6-63.2,10.9
		c-7.3,0.5-15,0-22.3-1.8c-13.6-3.2-20-11.4-19.6-25.5c0.5-11.4,4.5-21.8,10-31.8c10.9-20,25.5-37.3,41.4-53.2
		C140.7,300.4,140.7,300.8,141.2,300.8z"/>
	<path class="st2" d="M300.9,241.7c-9.6,0-19.6,0-29.1,0c-3.2,0-4.5-0.9-4.5-4.5c-0.5-23.2-1.4-18.2,17.7-18.7
		c14.1-0.5,28.7,0,42.8,0c5.5,0,7.3,2.3,7.7,7.3c1.8,15.9,1.8,15.9-14.1,15.9C314.5,241.7,307.7,241.7,300.9,241.7z"/>
	
		<linearGradient id="SVGID_1_" gradientUnits="userSpaceOnUse" x1="286.6074" y1="447.8364" x2="286.6074" y2="226.3124" gradientTransform="matrix(1 0 0 -1 0 595.2756)">
		<stop  offset="0" style="stop-color:#A5CE39"/>
		<stop  offset="1" style="stop-color:#00AA4F"/>
	</linearGradient>
	<path class="st3" d="M441.4,224.4c-18.2-29.6-41.9-52.3-75.1-65.1c-58.7-22.7-126-12.7-171.5,37.3c-40.9,45-51.4,97.4-32.8,155.1
		c1.4,4.5,0.9,6.4-4.1,7.7c-9.6,2.3-18.7,1.4-27.3-2.7l-0.5,0.5c3.6,7.3,10.5,9.6,17.7,10.9c15.9,2.7,31.8,0,47.8-2.7
		c5.5-0.9,6.8-3.6,6.4-8.6c-1.4-34.1-2.7-67.8-3.6-101.9c-0.5-9.1,3.2-12.7,12.7-12.7c12.3,0,24.6,0,36.9,0c8.6,0,8.6,0,6.8-8.6
		c-2.3-11.4,2.3-26.4,19.1-25c18.2,1.4,36.9,0.5,55.5,0.5c9.1,0,14.1,4.1,16.4,12.7c1.4,5,0.9,10.5,0.9,15.5c0,3.6,1.4,5,5,5
		c11.8,0,24.1,0,35.9,0c13.2,0,16.4,2.7,17.7,15.9c0,0.5,0.5,0.5,1.4,0.9c10.9-8.2,21.4-16.4,32.8-24.6
		C443.7,231.2,443.7,228.5,441.4,224.4z"/>
	
		<linearGradient id="SVGID_00000170958232551576757420000016211783591700537233_" gradientUnits="userSpaceOnUse" x1="307.2271" y1="441.8802" x2="307.2271" y2="400.6686" gradientTransform="matrix(1 0 0 -1 0 595.2756)">
		<stop  offset="0" style="stop-color:#FFFFFF"/>
		<stop  offset="1" style="stop-color:#FFFFFF;stop-opacity:0"/>
	</linearGradient>
	<path style="fill:url(#SVGID_00000170958232551576757420000016211783591700537233_);" d="M407.3,194.8c-67.8,0-133.3,0-200.2,0
		C247.6,144.3,344.5,135.2,407.3,194.8z"/>
</g>
</svg>
