<?xml version="1.0" encoding="utf-8"?>
<!-- Generator: Adobe Illustrator 26.3.1, SVG Export Plug-In . SVG Version: 6.00 Build 0)  -->
<svg version="1.1" id="Layer_1" xmlns="http://www.w3.org/2000/svg" xmlns:xlink="http://www.w3.org/1999/xlink" x="0px" y="0px"
	 viewBox="0 0 595.3 595.3" style="enable-background:new 0 0 595.3 595.3;" xml:space="preserve">
<style type="text/css">
	.st0{fill:#FFFFFF;}
	.st1{fill:#00263D;}
	.st2{fill:#00B0FF;}
</style>
<path class="st0" d="M297.6,595.3L297.6,595.3C133.3,595.3,0,462,0,297.6l0,0C0,133.3,133.3,0,297.6,0l0,0
	C462,0,595.3,133.3,595.3,297.6l0,0C595.3,462,462,595.3,297.6,595.3z"/>
<g>
	<path class="st1" d="M295.3,324.3c-10.9,9.1-21.8,17.8-32.7,26.9c-27.6,22.5-55.2,45-82.8,67.5c-5.4,4.7-8.3,4.7-13.1-1.5
		c-21.1-29.4-42.8-58.1-64.3-87.1c-1.5-2.2-4.4-4-2.9-6.9c1.5-2.5,4.7-1.5,7.3-1.5c6.9,0,13.8-0.4,20.7,0c6.5,0.4,9.4-2.2,11.6-8
		c12.3-35.2,23.6-70.4,37.4-104.9c19.6-48.6,53.4-81.3,107.1-90.4c4.4-0.7,9.1-0.7,13.4-0.7c49.7,0,99.5,0,149.2,0
		c5.8,0,11.6,0.7,17.4,1.8c24.7,4.7,37.4,21.4,34.8,46.5c-2.5,25.4-14.2,47.9-25,70.4c-3.6,7.3-5.8,0.4-7.3-1.8
		c-12.3-20-25-39.6-37-59.9c-3.3-5.8-5.4-5.8-10.5-1.5c-17.8,15.2-35.9,30.1-54.1,45.4c-3.3,2.5-5.8,2.5-9.8,1.8
		c-28.7-4.7-44.7-3.3-55.2,23.6c-9.4,23.6-20,47.2-30.5,70.4c-3.3,6.9-0.7,8.3,5.8,8c6.5-0.4,13.1,0,19.6,0
		C294.6,322.5,295,323.2,295.3,324.3z"/>
	<path class="st2" d="M299.7,297.5c11.6-9.8,23.6-19.2,35.2-29c26.5-21.8,53-43.6,79.5-65.3c4.7-4,6.9-3.6,10.2,1.8
		c17.1,29.4,34.8,58.4,51.9,87.5c4,6.5,3.3,7.3-4.4,7.6c-6.2,0-12.7,0.4-18.9,0c-5.8-0.4-9.1,2.2-11.3,7.6
		c-10.9,25.8-22.1,51.2-33.4,77c-14.9,34.8-37,63.2-71.9,79.9c-17.4,8.3-35.6,13.1-55.2,13.1c-46.5,0-92.9,0-139.4,0
		c-5.4,0-10.9-0.4-16.3-1.5c-23.2-5.4-32.3-18.5-28.7-42.1c2.2-15.6,8-29.8,14.2-44.3c2.5-5.4,4.7-5.1,8-0.7
		c14.5,18.9,29.8,37,43.9,55.9c4.4,5.8,7.6,6.9,13.8,1.8c25.8-21.4,51.9-42.1,77.7-63.5c6.2-5.1,12.3-8.3,20.7-7.3
		c14.2,1.5,24-5.4,29.8-17.8c8-17.1,14.9-34.1,22.5-51.2c2.2-4.7,0.4-6.5-4.4-6.2c-7.6,0-15.6,0-23.2,0
		C300.1,299.3,300.1,298.6,299.7,297.5z"/>
</g>
</svg>
