<?xml version="1.0" encoding="utf-8"?>
<!-- Generator: Adobe Illustrator 26.3.1, SVG Export Plug-In . SVG Version: 6.00 Build 0)  -->
<svg version="1.1" id="Layer_1" xmlns="http://www.w3.org/2000/svg" xmlns:xlink="http://www.w3.org/1999/xlink" x="0px" y="0px"
	 viewBox="0 0 595.3 595.3" style="enable-background:new 0 0 595.3 595.3;" xml:space="preserve">
<style type="text/css">
	.st0{fill:#FFFFFF;}
	.st1{fill:#00263D;}
	.st2{fill:#00B0FF;}
</style>
<path class="st0" d="M297.6,595.3L297.6,595.3C133.3,595.3,0,462,0,297.6v0C0,133.3,133.3,0,297.6,0h0
	C462,0,595.3,133.3,595.3,297.6v0C595.3,462,462,595.3,297.6,595.3z"/>
<g>
	<path class="st1" d="M221,347.5c-2.9-1.1-3.2-1.8-1.9-4.8c9.1-20.9,18.2-41.7,27.4-62.6c3.8-8.7,7.8-17.3,11.3-26.2
		c1.8-4.5,4.7-6.2,9.5-6.2c15.7,0.1,31.4,0,47.2,0.1c3.4,0,6.8,0,10.2,1c6.7,2,9.7,7,8.5,13.8c-1,5.8-4.1,10.8-6.4,16.1
		c-2.3,5.3-5.3,10-10.2,13.3c-1.1,0.8-2.3,1.4-3.5,2.1c0.5,0.7,1.1,0.7,1.6,0.9c5.7,2,7.9,5.9,6.6,11.9c-0.6,2.9-1.9,5.6-3.2,8.3
		c-2.7,5.6-5,11.4-8.2,16.8c-5.3,8.9-13.3,13.6-23.5,14.6c-2.9,0.3-5.8,0.5-8.7,0.8C258.9,347.5,240,347.5,221,347.5z M271.7,323.5
		C271.7,323.5,271.7,323.5,271.7,323.5c2.6,0,5.2,0,7.9-0.1c2.8-0.1,5.2-1.1,6.6-3.6c1.7-3.2,3.3-6.4,4.8-9.8
		c1.1-2.4,0.3-3.7-2.2-4.3c-0.8-0.2-1.6-0.3-2.4-0.4c-4.9,0-9.9,0-14.8,0c-1.2,0-1.9,0.4-2.3,1.5c-2.1,5-4.2,10-6.4,15
		c-0.5,1.1-0.2,1.6,1,1.6C266.5,323.5,269.1,323.5,271.7,323.5z M286.4,286.9C286.4,286.9,286.4,286.9,286.4,286.9
		c2.1,0,4.2,0,6.3,0c1.8,0,3.3-0.8,4.2-2.3c1.6-2.7,2.9-5.7,3.9-8.7c0.7-2.4-0.2-3.5-2.7-3.5c-4.1-0.1-8.2,0-12.2,0
		c-1,0-1.6,0.4-2,1.3c-1.7,3.9-3.4,7.7-5.1,11.6c-0.6,1.3-0.1,1.7,1.2,1.7C282.1,286.9,284.2,286.9,286.4,286.9z"/>
	<path class="st1" d="M126.7,347.5c-3.4-1.3-3.9-2.6-2.3-6.2c8.5-19.6,17.1-39.1,25.6-58.7c4.2-9.6,8.4-19.1,12.5-28.7
		c1.7-3.9,4.5-5.9,8.8-5.8c16.9,0.1,33.8,0,50.7,0c2.6,0,5.1,0.4,7.5,1.2c5.9,2,9,7.1,8.1,13.3c-0.5,3.9-1.8,7.6-3.3,11.2
		c-1.4,3.3-2.9,6.6-4.3,10c-2.8,7.2-7.4,12.9-14.3,16.7c-0.2,0.1-0.4,0.3-0.6,0.5c0.1,0.2,0.2,0.2,0.2,0.3
		c7.3,1.9,10.2,8.7,6.7,16.5c-3.4,7.5-6.7,15.1-9.9,22.8c-1.5,3.7-3.8,6.1-7.7,7c-8.6,0-17.2,0-25.8,0c-3.3-1.5-3.7-2.5-2.3-5.9
		c0.4-0.9,0.8-1.9,1.2-2.8c2.4-5.6,4.8-11.2,7.2-16.8c1.5-3.5,0.8-4.5-3-4.5c-3,0-6,0.1-8.9,0c-2-0.1-3,0.7-3.8,2.5
		c-2.9,6.9-6.1,13.6-8.9,20.5c-1.5,3.7-3.8,6.1-7.6,7.1C143.8,347.5,135.3,347.5,126.7,347.5z M188.7,293.1
		C188.7,293.1,188.7,293.1,188.7,293.1c1.9,0,3.8,0,5.7,0c2.2,0.1,3.8-0.8,4.7-2.8c2.1-4.6,4.2-9.1,6.2-13.7
		c1.1-2.6,0.3-3.8-2.4-3.8c-3.9-0.1-7.9,0-11.8,0c-0.8,0-1.6,0.1-2,1c-2.6,6-5.3,11.9-7.9,17.9c-0.5,1-0.1,1.5,1,1.5
		C184.3,293,186.5,293.1,188.7,293.1z"/>
	<path class="st1" d="M431.7,347.5c1.1-2.5,3.3-4.1,5-6c14.1-15.5,28.3-31,42.5-46.5c5.4-6,10.9-11.9,16.3-17.9
		c0.3-0.3,0.7-0.6,0.7-1.1c-0.7-0.5-1.5-0.2-2.3-0.2c-8,0-16,0-24,0c-0.6,0-1.4,0.3-1.8-0.4c-0.4-0.7,0.3-1.2,0.6-1.7
		c4.9-7.9,9.8-15.8,14.7-23.7c0.9-1.4,1.9-1.9,3.5-1.9c23.6,0,47.2,0,70.8,0c0.7,0,1.6-0.4,1.9,0.5c0.2,0.6-0.6,1.1-1,1.5
		c-20.3,22.4-40.6,44.8-60.9,67.2c-0.4,0.4-1.1,0.8-0.8,1.4c0.3,0.7,1.2,0.4,1.8,0.4c12.9,0,25.8,0,38.7,0c0.6,0,1.2,0,1.7,0
		c0.5,0,1.3-0.2,1.5,0.5c0.1,0.5-0.4,0.9-0.8,1.2c-5.3,5-10.6,9.9-15.9,14.9c-4.1,3.9-8.2,7.8-12.3,11.8
		C485,347.5,458.3,347.5,431.7,347.5z"/>
	<path class="st1" d="M374.4,347.5c-1.5-0.8-1.5-1.9-0.8-3.3c6.7-14.8,13.4-29.6,20.1-44.4c3.2-7,6.3-14,9.5-21c1.1-2.5,0.8-3-1.9-3
		c-4.7,0-9.3,0-14,0c-2.2,0-2.3-0.3-1.4-2.3c3.5-7.9,7.1-15.8,10.6-23.7c0.6-1.3,1.4-1.8,2.8-1.8c24.9,0,49.8,0,74.7,0
		c2.2,0,2.3,0.3,1.2,2.2c-4.9,8-9.9,15.9-14.7,23.9c-0.7,1.2-1.7,1.6-3,1.6c-4.8-0.1-9.6,0.1-14.4-0.1c-2.7-0.1-4.1,1-5.2,3.4
		c-9,20.9-18.1,41.8-27.2,62.7c-1,2.2-1.6,4.7-4.3,5.7C395.7,347.5,385.1,347.5,374.4,347.5z"/>
	<path class="st1" d="M314.1,347.5c-2.3-0.9-2-2.4-1.2-4.2c7.9-18,15.8-36,23.6-54c5.3-12,10.6-24,15.7-36.1c1.6-3.9,4-5.4,8.1-5.3
		c7.8,0.2,15.6,0.1,23.4,0.1c0.6,0,1.2,0,1.7,0c3.2,0.2,3.9,1.2,2.6,4.2c-7.6,17.3-15.3,34.5-22.9,51.8
		c-5.8,13.1-11.6,26.1-17.3,39.2c-1,2.3-2.4,3.9-4.9,4.5C333.4,347.5,323.7,347.5,314.1,347.5z"/>
	<path class="st1" d="M90.5,305c-3,2.5-6,4.9-9,7.4c-7.6,6.2-15.2,12.4-22.8,18.6c-1.5,1.3-2.3,1.3-3.6-0.4
		c-5.8-8.1-11.8-16-17.7-24c-0.4-0.6-1.2-1.1-0.8-1.9c0.4-0.7,1.3-0.4,2-0.4c1.9,0,3.8-0.1,5.7,0c1.8,0.1,2.6-0.6,3.2-2.2
		c3.4-9.7,6.5-19.4,10.3-28.9c5.4-13.4,14.7-22.4,29.5-24.9c1.2-0.2,2.5-0.2,3.7-0.2c13.7,0,27.4,0,41.1,0c1.6,0,3.2,0.2,4.8,0.5
		c6.8,1.3,10.3,5.9,9.6,12.8c-0.7,7-3.9,13.2-6.9,19.4c-1,2-1.6,0.1-2-0.5c-3.4-5.5-6.9-10.9-10.2-16.5c-0.9-1.6-1.5-1.6-2.9-0.4
		c-4.9,4.2-9.9,8.3-14.9,12.5c-0.9,0.7-1.6,0.7-2.7,0.5c-7.9-1.3-12.3-0.9-15.2,6.5c-2.6,6.5-5.5,13-8.4,19.4
		c-0.9,1.9-0.2,2.3,1.6,2.2c1.8-0.1,3.6,0,5.4,0C90.3,304.5,90.4,304.7,90.5,305z"/>
	<path class="st2" d="M91.7,297.6c3.2-2.7,6.5-5.3,9.7-8c7.3-6,14.6-12,21.9-18c1.3-1.1,1.9-1,2.8,0.5c4.7,8.1,9.6,16.1,14.3,24.1
		c1.1,1.8,0.9,2-1.2,2.1c-1.7,0-3.5,0.1-5.2,0c-1.6-0.1-2.5,0.6-3.1,2.1c-3,7.1-6.1,14.1-9.2,21.2c-4.1,9.6-10.2,17.4-19.8,22
		c-4.8,2.3-9.8,3.6-15.2,3.6c-12.8,0-25.6,0-38.4,0c-1.5,0-3-0.1-4.5-0.4c-6.4-1.5-8.9-5.1-7.9-11.6c0.6-4.3,2.2-8.2,3.9-12.2
		c0.7-1.5,1.3-1.4,2.2-0.2c4,5.2,8.2,10.2,12.1,15.4c1.2,1.6,2.1,1.9,3.8,0.5c7.1-5.9,14.3-11.6,21.4-17.5c1.7-1.4,3.4-2.3,5.7-2
		c3.9,0.4,6.6-1.5,8.2-4.9c2.2-4.7,4.1-9.4,6.2-14.1c0.6-1.3,0.1-1.8-1.2-1.7c-2.1,0-4.3,0-6.4,0C91.8,298.1,91.8,297.9,91.7,297.6z
		"/>
</g>
</svg>
