<?xml version="1.0" encoding="utf-8"?>
<!-- Generator: Adobe Illustrator 26.3.1, SVG Export Plug-In . SVG Version: 6.00 Build 0)  -->
<svg version="1.1" id="Layer_1" xmlns="http://www.w3.org/2000/svg" xmlns:xlink="http://www.w3.org/1999/xlink" x="0px" y="0px"
	 viewBox="0 0 595.3 595.3" style="enable-background:new 0 0 595.3 595.3;" xml:space="preserve">
<style type="text/css">
	.st0{fill:#FFFFFF;}
	.st1{fill:#8D2441;}
</style>
<path class="st0" d="M297.6,595.3L297.6,595.3C133.3,595.3,0,462,0,297.6l0,0C0,133.3,133.3,0,297.6,0l0,0
	C462,0,595.3,133.3,595.3,297.6l0,0C595.3,462,462,595.3,297.6,595.3z"/>
<g id="_x33_lMx3u.tif_00000065766184265853200540000016068405863398477985_">
	<g>
		<path class="st1" d="M401.3,186.7c3.8,11.4,7.9,21.8,8.7,33.1c0.3,4.7-1.4,9.3-4.5,13c-2.1,2.5-1.6,5.3-1.8,8.1
			c-0.1,1.9,1.8,1.9,3,2.2c11.8,3.7,23.2,8.3,34.2,13.9c0.5,0.3,1,0.5,1.4,1c-11.6-4.6-23.3-9.1-35.3-12.5
			c-12.2-3.5-24.6-6-37.2-7.7c-12.6-1.8-25.2-2.8-37.9-3c-12.6-0.1-25.1,0-37.6,1.4c-12.6,1.4-25.1,3.5-37.4,6.2
			c-12.3,2.8-24.4,6.4-36.5,10.2c5.8-3,11.9-5.2,18.1-7.2c6.2-2,12.5-3.7,18.7-5.5c3-0.9,3.9-2.6,2.1-4.9
			c-5.4-6.7-5.5-14.2-3.9-22.1c1.7-8.4,4.6-16.5,7.6-24.5c1.2,0.2,1.1,1.1,1.3,1.8c3,8.9,6,17.7,7.5,27c1,6.3-0.7,11.7-4.4,16.7
			c-0.7,0.9-1.9,1.7-1.2,3c0.8,1.4,2.1,0.3,3.1,0.1c4.6-0.8,9.2-1.8,13.8-2.5c1.9-0.3,2.4-1,2.5-2.9c0.1-4-0.2-7.4-2.9-11.1
			c-5.2-7-6-15.3-4.7-23.9c2.2-14.8,7.4-28.6,12.7-43.2c3.8,10.1,6.8,19.7,9.4,29.5c1.9,7.2,3.9,14.3,3.4,21.9
			c-0.4,6.5-2.6,12.4-6.8,17.2c-2.5,2.9-2.3,6-2.2,9.3c0,1.5,0.9,1.6,2.1,1.4c7.9-1.1,15.9-1.1,23.9-1.6c1.5-0.1,2.3-0.3,2.3-2.1
			c0-5.1,0.2-10.3,0.4-15.4c0-1-0.6-1.7-1.2-2.3c-11.2-12.3-14.4-27.2-12.6-43c3.1-26.8,12.5-52,22-77.1c0.1-0.2,0.3-0.3,0.8-0.9
			c3.1,9.4,6.2,18.5,9.1,27.7c5.1,16.1,10,32.2,12.3,49c2.2,16.4-2.6,30.7-13,43.2c-1.6,1.9-2.3,3.7-2.2,6.1c0.1,4.2,0,8.5-0.1,12.7
			c0,1.7,0.5,2.4,2.3,2.5c8,0.6,15.9,1.3,23.9,2.2c2.5,0.3,2.8-0.5,2.9-2.7c0.1-3.7-0.6-6.8-3-10.1c-5.8-8-6.2-17.2-4.5-26.6
			c2.5-13.5,7-26.4,11.9-39.2c0.1-0.3,0.4-0.5,0.8-1c5,15.3,10.7,30.1,12.4,46c0.9,8.6-1.8,16.2-7.3,22.9c-3,3.7-1.3,7.9-1.6,11.8
			c-0.1,1,1.2,0.8,1.9,1c5.8,1.3,11.6,2.6,17.3,3.9c0.7,0.2,1.8,0.7,2.2-0.2c0.6-1.7,1-3.9-0.2-5.3c-7-8.3-5.5-17.4-3.1-26.7
			C396,200.9,398.3,194.2,401.3,186.7z"/>
		<path class="st1" d="M386,283.3c-25.8,38.6-78.2,55.2-123,39.2c-47-16.8-76.3-62.4-71.8-112.2c4.5-48.7,40.5-82.3,71.7-91
			c-43.9,19.5-70,53.5-68.6,103.8c1.3,45.6,25.3,77.9,67.4,95.4C299.8,334.3,352.9,326,386,283.3z"/>
		<path d="M331.2,402.8c-0.8,1.4-0.5,2.7-0.5,3.9c0,17.6,0,35.2,0,52.8c0,1,0,2.1-0.1,3.1c-0.1,1.2-0.8,1.8-2.1,1.8
			c-1.3,0-1.9-0.6-2-1.8c0-0.8,0-1.6,0-2.4c0-20.7,0-41.3,0-62c0-1.6-0.9-3.7,1.4-4.4c2.5-0.8,4,0.8,5.2,2.8
			c10.8,18.2,21.7,36.5,32.6,54.7c0.9,1.4,1.4,3.1,2.9,4.1c1.3-1,0.7-2.4,0.7-3.5c0-17.7,0-35.4,0-53.1c0-0.9,0-1.8,0-2.7
			c0.1-1.4,0.7-2.4,2.3-2.3c1.5,0.1,1.8,1.1,1.8,2.4c0,3.7,0,7.3,0,11c0,17.7,0,35.4,0,53.1c0,1.5,1,3.7-1.6,4.3
			c-2.4,0.6-3.7-0.6-4.9-2.6c-11-18.5-22.2-37-33.3-55.5C333.1,405.1,332.7,403.7,331.2,402.8z"/>
		<path d="M165.1,429c0-10.4,0.1-20.8-0.1-31.2c0-3.2,0.9-4.5,4.3-4.3c6.5,0.4,13-0.4,19.5,0.7c14.2,2.4,22.2,14.5,18.5,27.8
			c-1.8,6.5-6.3,10.7-12.4,13.3c-3.7,1.6-3.7,1.7-1.2,5c5.3,6.9,10.7,13.7,16,20.6c0.7,0.9,2.4,2,1.2,3.1c-1.1,1.1-3,0.8-4.4-0.4
			c-0.7-0.6-1.2-1.3-1.8-2.1c-5.5-7.1-11.1-14.2-16.6-21.4c-1.3-1.7-2.7-2.5-4.9-2.3c-3.3,0.3-6.6,0.3-9.9,0.1
			c-3.1-0.2-4.3,0.9-4.2,4c0.2,6.2,0.1,12.3,0,18.5c0,1.5,0.9,3.9-1.9,3.9c-2.9,0-2.2-2.4-2.2-4.1C165,449.8,165.1,439.4,165.1,429z
			 M178.1,397.7c-1.9,0-3.9,0.1-5.8,0c-2-0.1-3,0.7-3,2.7c0,10.2,0,20.3,0,30.5c0,1.3,0.4,2.7,2,2.7c7.6,0.1,15.4,1,22.6-2.4
			c6.8-3.2,10.2-8.6,10.1-16.1c-0.1-7-4.3-12.8-11-15.4C188.2,397.9,183.2,397.6,178.1,397.7z"/>
		<path d="M497.7,429.1c0.1,7.8-1.4,15.2-5.2,22.1c-10.1,18.1-35.3,19.5-47.1,2.5c-9.3-13.3-9.3-35.7-0.2-49
			c11.7-16.9,36.3-16.1,46.8,1.5C495.9,412.6,497.7,420,497.7,429.1z M442.6,429.3c0,6,1.1,11.8,3.6,17.3c8,17.6,30,20.1,41.2,4.8
			c8.8-12,8.5-33.8-0.7-45.5c-9.7-12.4-28.1-12.2-37.5,0.5C444.2,413.2,442.6,421,442.6,429.3z"/>
		<path d="M157,426c-0.1,12.7-2.1,21.5-7.9,29c-11.4,14.6-33.9,13.9-44.5-1.4c-9.3-13.5-9.4-35.4-0.2-49c11-16.2,34.9-16.3,45.9,0
			C155.3,412.1,157,420.5,157,426z M101.8,426.5c0,9.9,1.4,16.1,4.5,21.9c9.1,16.9,31.7,17.8,41.3,1.2c7.9-13.6,7.7-27.9-0.2-41.4
			c-9.1-15.5-30.5-15.3-40.1-0.1C103.2,414.4,101.9,421.5,101.8,426.5z"/>
		<path d="M383.8,429.1c0-10.5,0.1-21,0-31.5c0-2.9,0.9-4.1,3.9-4c6.4,0.2,12.8-0.4,19.1,1c15.1,3.2,23.9,13.9,25.3,30.7
			c0.4,4.6,0.1,9.1-0.9,13.6c-3.6,16.2-15,25.2-32.6,25.5c-3.5,0.1-7.1-0.2-10.6,0.1c-3.3,0.2-4.4-0.9-4.4-4.3
			C383.9,449.8,383.8,439.4,383.8,429.1z M388,428.8c0,9.1,0.1,18.3-0.1,27.4c-0.1,3.1,1,4.3,4.2,4.1c3.2-0.3,6.4,0,9.6-0.2
			c12.4-0.8,21.6-8.1,24.9-19.5c2.1-7.4,2.2-14.9,0.2-22.3c-2.7-10.1-9.1-16.6-19.3-19.2c-5-1.3-10.2-1.2-15.3-1.3
			c-3.1-0.1-4.2,1-4.2,4.1C388.1,410.8,388,419.8,388,428.8z"/>
		<path d="M318.5,462.5c0.2,1.1,0,1.7-0.9,1.8c-1.1,0.1-2.4,0.3-3.1-0.9c-0.6-1-1-2.1-1.4-3.1c-2.4-6.5-4.9-13-7.2-19.6
			c-0.7-2-1.8-2.8-4-2.8c-7.3,0.1-14.6,0.1-21.9,0c-2.4,0-3.4,1-4.1,3.1c-2.2,6.2-4.5,12.4-6.8,18.6c-0.3,0.9-0.6,1.7-0.9,2.6
			c-0.6,1.8-1.9,2.7-3.7,2.1c-2-0.7-0.7-2.3-0.3-3.4c3.9-10.9,7.9-21.9,11.9-32.8c3.9-10.6,7.8-21.2,11.6-31.8
			c0.6-1.6,1.2-2.8,3.3-2.8c2.1,0,2.7,1.2,3.3,2.8c7.9,21.6,15.8,43.3,23.7,64.9C318.2,461.7,318.4,462.3,318.5,462.5z M290.9,433.7
			c3.2,0,6.4,0,9.6,0c2,0,2.6-0.8,1.9-2.8c-3.4-9.2-6.8-18.4-10.2-27.6c-0.3-0.7-0.4-1.8-1.4-1.7c-0.7,0.1-0.9,0.9-1.1,1.6
			c-3.4,9.2-6.8,18.4-10.2,27.6c-0.8,2.1,0,3,2.1,3C284.8,433.7,287.9,433.7,290.9,433.7z"/>
		<path d="M218.6,428.9c0-10.3,0-20.6,0-30.8c0-0.8,0-1.6,0-2.4c0.1-1.4,0.9-2,2.2-2c1.3,0,1.8,0.9,1.9,2c0.1,1.5,0.1,3,0.1,4.5
			c0,18.6,0.1,37.2-0.1,55.9c0,3.5,1,4.5,4.5,4.4c9-0.2,18-0.1,27.1-0.1c0.9,0,1.8,0,2.7,0.1c1.1,0.2,1.8,0.9,1.8,2.1
			c0,1.3-0.7,1.9-1.9,1.9c-1.8,0.1-3.7,0.1-5.5,0.1c-9.7,0-19.4-0.1-29.1,0c-2.8,0-3.8-0.9-3.8-3.8
			C218.6,450.1,218.6,439.5,218.6,428.9z"/>
		<path d="M234.1,499.4c0-7.3,0-14.5,0-21.8c0-1.2-0.6-3.5,0.8-3.5c2,0,1.1,2.4,1.1,3.6c0.1,7.4,0.1,14.8,0,22.3
			c0,1.3,0.9,3.3-1,3.9c-1.9,0.6-2.3-1.5-3-2.7c-4.1-6.7-8.1-13.5-12.2-20.2c-0.6-0.9-0.9-2.1-2.5-2.9c0,2.5,0,4.7,0,7
			c0,5.6,0,11.2,0,16.8c0,0.7,0.1,1.8-0.9,1.9c-1.1,0-0.9-1.1-0.9-1.8c0-8.7,0-17.4,0-26c0-0.9-0.2-2,1.1-2.1
			c1.1-0.1,1.6,0.7,2.1,1.5c2.9,4.8,5.7,9.6,8.6,14.4c2,3.3,4,6.6,6,9.9C233.5,499.5,233.8,499.4,234.1,499.4z"/>
		<path d="M334.5,502.8c0.1,0.5,0,0.9-0.5,1.1c-0.7,0.2-1.1-0.3-1.3-0.8c-1-2.5-2.1-5.1-2.9-7.7c-0.6-2-1.7-2.6-3.7-2.6
			c-9.2-0.2-9.2-0.2-12.4,8.3c-0.2,0.5-0.4,1.1-0.6,1.6c-0.3,0.8-0.7,1.6-1.7,1.2c-0.7-0.3-0.3-1.2-0.1-1.8
			c3.3-8.9,6.5-17.7,9.8-26.6c0.3-0.9,0.6-1.8,1.8-1.8c1,0,1.3,0.8,1.6,1.6c3.3,8.9,6.5,17.8,9.7,26.6
			C334.3,502.2,334.4,502.5,334.5,502.8z M322.8,476.5c-1.2,3-2,5.2-2.8,7.4c-2.7,7.3-2.7,7.3,5.2,6.9c0.2,0,0.5,0,0.7,0
			c1.6,0,2-0.8,1.5-2.2C325.9,484.9,324.5,481.1,322.8,476.5z"/>
		<path d="M356.8,473.1c2.1,1.8,1.7,3.1,1.7,4.3c0,7.8,0.1,15.5,0,23.3c0,1.1,0.7,2.8-0.9,3.3c-1.5,0.4-2-1.2-2.6-2.2
			c-4.1-6.8-8.2-13.7-12.3-20.5c-0.6-1-1-2.3-2.7-3.4c0,8.9,0,17.4,0,26.1c-2.1-0.3-1.7-1.6-1.7-2.5c0-8.3,0-16.7,0-25
			c0-1-0.4-2.3,0.9-2.6c1.4-0.4,1.9,1,2.5,1.9c4.2,7,8.4,14.1,12.6,21.2c0.6,1,1.2,1.9,2.6,2.7C356.8,491,356.8,482.5,356.8,473.1z"
			/>
		<path d="M295.8,473.7c1.3,0.8,1,1.9,1,2.8c0,8.2,0,16.5,0,24.7c0,0.9,0.4,2.5-0.9,2.5c-1.3,0-0.8-1.6-0.9-2.5c0-0.1,0-0.2,0-0.3
			c-0.2-8.1-0.2-8.1-8.4-8.1c-7.9,0-7.9,0-7.9,7.8c0,0.5,0,0.9,0,1.4c-0.1,0.8,0.1,1.9-1,1.8c-1.1-0.1-0.8-1.2-0.8-2
			c0-8.7,0-17.4,0-26.1c0-0.7-0.2-1.9,0.9-1.9c1,0,0.9,1.1,0.9,1.9c0,4,0.1,8,0,12c-0.1,2.2,0.6,3.2,2.9,3.1c3.5-0.1,7.1-0.1,10.6,0
			c2.4,0.1,2.9-0.9,2.9-3.1c-0.1-3.5,0-7.1,0-10.6C295,476.1,294.7,474.8,295.8,473.7z"/>
		<path class="st1" d="M234.5,371.9c1.9-5.7,3.9-11.4,5.8-17.1c0.3-0.9,0.6-1.7,0.9-2.6c0.2-0.5,0.5-1.1,1.2-1
			c0.8,0.1,0.7,0.8,0.8,1.3c0.4,4.4,0.8,8.9,1.1,13.3c0.2,2.9,0.3,5.9,0,8.9c-1.4-2.8-1-5.9-1.3-8.9c-0.3-3.1-0.6-6.2-1.7-9.5
			c-1.5,4.2-2.8,8.4-4.4,12.6c-0.8,2.1-0.8,5.8-2.7,5.7c-2.5,0-2.1-3.7-3-5.8c-1.7-4.2-3-8.5-5.2-12.7c-0.3,3.1-0.6,6.1-0.8,9.2
			c-0.2,3.2-0.1,6.4-1,9.5c-1.4-0.2-0.9-1.2-0.9-1.9c0.4-6.4,0.9-12.7,1.4-19.1c0.1-1-0.1-2.5,0.9-2.7c1.4-0.2,1.4,1.5,1.7,2.5
			c2.1,6.1,4.2,12.2,6.3,18.3C234,371.9,234.3,371.9,234.5,371.9z"/>
		<path d="M272.2,481.1c-1.4-0.2-1.6-1.5-2.3-2.3c-4.7-5.7-13.1-5.1-16.7,1.3c-3.2,5.7-3.3,11.6-0.2,17.4c3.7,6.8,12.2,7.3,17.1,1.3
			c0.6-0.8,0.9-1.9,2-2.1c1.1,1.5,0.1,2.4-0.6,3.4c-4.5,6.3-14.2,6.4-19,0.3c-4.7-6-4.8-16.7,0-22.8c4.8-6.1,14.5-6,19,0.3
			C272.4,479,272.4,479,272.2,481.1z"/>
		<path class="st1" d="M312.4,356.8c-0.9-0.5-1.2-0.5-1.3-0.7c-2.4-3.3-5.4-5.3-9.7-4.1c-4.5,1.3-6.1,4.9-6.7,9.1
			c-0.4,3.1,0,6.1,1.7,8.9c2.1,3.6,6,5.2,9.6,4c3.4-1.1,6.5-5.5,6.4-9c-0.1-1.7-1.2-1.7-2.4-1.7c-2,0-3.9,0-5.9-0.4
			c2.8-1.2,5.7-0.7,8.6-0.7c1.1,0,1,1,1,1.8c0.4,5.4-3.5,10.7-8.3,11.5c-5.4,0.9-9.9-2.2-11.5-7.9c-1.3-4.6-0.8-9.1,1.8-13.1
			c2.2-3.4,5.6-4.6,9.6-4C308.6,351,311,352.8,312.4,356.8z"/>
		<path class="st1" d="M415.3,375.2c-2.3-1.9-3.7-4.6-5.6-6.8c-0.9-1-1.4-2.2-3.1-2.4c-4.3-0.5-4.9,0-5,4.4c0,1.4,0,2.7,0,4.1
			c-1.6-0.1-1.2-1.1-1.2-1.7c0-6.4,0-12.8-0.1-19.1c0-2.2,0.7-3.2,3-3c2,0.2,4.1,0.2,6.1,0.6c3,0.7,5.1,2.5,5.7,5.7
			c0.5,3.2-0.2,6.1-3.2,7.6c-2.3,1.2-2.1,2.1-0.6,3.7c1.7,2,3.3,4.2,4.9,6.3C415.8,374.8,415.5,375,415.3,375.2z M401.6,358.3
			c0,6.5,0,6.5,3.6,6.5c5.4,0,8.8-2.4,8.8-6.4c0-4-3-6.2-8.5-6.2C401.6,352.1,401.6,352.1,401.6,358.3z"/>
		<path class="st1" d="M275.1,354.3c0,7,0,13.7,0,20.5c-1.5-0.3-1.1-1.3-1.1-2c0-6.5,0-13,0-19.5c0-0.8-0.4-2.1,0.8-2.3
			c1.1-0.2,1.5,0.8,1.9,1.6c3.2,5.4,6.4,10.8,9.7,16.1c0.6,1,0.9,2.3,2.7,3c0-7,0-13.7,0-20.6c1.7,0.6,1.2,1.7,1.2,2.4
			c0.1,6.2,0.1,12.3,0,18.5c0,0.9,0.6,2.3-0.5,2.8c-1.5,0.6-1.8-1-2.4-1.9c-3.2-5.3-6.3-10.6-9.5-15.8
			C277.2,356.2,277,355,275.1,354.3z"/>
		<path class="st1" d="M182,356.4c-1.8-0.1-2-1.3-2.7-2c-3.8-4-10-3.6-12.9,1c-3,4.7-3,9.7-0.3,14.6c2,3.6,5.9,5.1,9.6,3.9
			c3.3-1,6.5-5.6,6.3-9c-0.1-1.7-1.2-1.7-2.4-1.7c-2,0-3.9,0-5.9-0.4c2.8-1.2,5.7-0.7,8.5-0.7c1.3,0,1.1,1.2,1.1,2.1
			c0.2,5.4-3.7,10.6-8.5,11.3c-5.4,0.8-9.7-2.2-11.3-8.1c-1.2-4.5-0.9-8.9,1.7-12.8c2.1-3.2,5.3-4.6,9.1-4.2
			C177.9,350.9,180.4,352.7,182,356.4z"/>
		<path class="st1" d="M339.5,375.3c-2.2-1.9-3.9-4.4-5.6-6.8c-1.4-2.1-3.1-2.6-5.5-2.5c-2,0.1-2.6,0.9-2.5,2.7c0.1,2,0,4,0,6.3
			c-1.8-0.6-1.3-1.8-1.3-2.7c-0.1-6.2,0-12.3-0.1-18.5c0-2.3,0.7-3.4,3.1-3.2c1.9,0.2,3.9,0.2,5.8,0.6c3.2,0.7,5.3,2.6,5.8,5.9
			c0.5,3.1-0.4,5.8-3.2,7.3c-2.6,1.4-1.8,2.5-0.5,4.1c1.6,2,3.1,4.1,4.7,6.1C340,374.8,339.8,375,339.5,375.3z M325.9,358.3
			c0,0.6,0,1.1,0,1.7c0,4.9,0.4,5.3,5.3,4.7c0.3,0,0.7-0.1,1-0.2c4.2-0.9,6.2-3.4,5.7-7.1c-0.5-3.8-4-5.8-9.7-5.2
			c-4.4,0.4-1.4,3.9-2.3,5.8C325.9,358.1,325.9,358.2,325.9,358.3z"/>
		<path class="st1" d="M397.3,362.6c0,4.5-1,8.2-4.1,10.9c-4.6,4-12,2.3-14.7-3.3c-1.9-3.9-2.1-8.1-0.8-12.3
			c1.5-4.7,4.9-7.5,9.4-7.5c4.6,0,8,2.6,9.5,7.3C397.2,359.5,397.4,361.3,397.3,362.6z M396.1,362.5c0-0.3,0-1-0.1-1.7
			c-0.7-5.3-4.2-9-8.6-9.1c-4.4-0.1-7.8,3-9,8.3c-0.2,0.9-0.3,1.8-0.3,2.7c-0.1,6.7,3.6,11.6,8.9,11.7
			C392.3,374.5,396.2,369.6,396.1,362.5z"/>
		<path class="st1" d="M356.3,375.1c-3.9,0-7.8,0-11.7,0c-1,0-1.3-0.7-1.3-1.6c0-7,0-13.9,0-20.9c0-1.1,0.4-1.9,1.5-1.9
			c3.9-0.1,7.9,0,11.8,0.5c-2.6,1.3-5.4,1.1-8,0.9c-3.3-0.2-4.2,0.9-4.2,4.2c0.2,8.5,0.1,8.5,8.5,8.5c1.2,0,2.5,0,3.7,0
			c0,0.4,0.1,0.8,0.1,1.2c-2.7,0-5.3,0.2-8,0c-3.2-0.3-4.4,0.7-4.3,4.1c0,3.3,1.1,4.1,4.1,3.9C351,373.8,353.7,373.5,356.3,375.1z"
			/>
		<path class="st1" d="M220.3,375.2c-1.6-2-2.1-4.3-2.8-6.3c-0.7-2-1.6-2.9-3.9-2.9c-6.8,0-6.8-0.1-9.3,6.3c-0.4,0.9-0.3,2.4-2,2.6
			c0.2-2.4,1.3-4.4,2-6.5c1.9-5.4,3.9-10.7,5.8-16c0.3-0.8,0.5-1.6,1.5-1.6c0.6,0,0.9,0.6,1.1,1.2c2.5,6.9,5.1,13.9,7.6,20.8
			C220.6,373.4,221.2,374,220.3,375.2z M212,353.9c-0.3,0-0.6,0-0.9,0c-0.6,1.8-1.3,3.6-1.9,5.4c-2.1,5.7-1.8,6,4.3,5.5
			c1.6-0.1,2.4-0.5,1.7-2.3C214.1,359.7,213.1,356.8,212,353.9z"/>
		<path d="M362,474.2c6-1,12-0.7,18-0.6c0.4,0,0.9,0.2,1,0.7c0.1,0.6-0.4,0.8-0.8,0.9c-0.6,0.1-1.1,0.1-1.7,0.2
			c-5.9,0.3-5.9,0.3-5.9,6.4c0,6.5,0,13,0,19.5c0,0.9,0.4,2.5-1,2.5c-1.4-0.1-0.8-1.6-0.8-2.5c-0.1-7.4-0.2-14.8,0-22.2
			c0.1-2.9-0.9-3.8-3.7-3.6C365.3,475.5,363.5,475.8,362,474.2z"/>
		<path class="st1" d="M247.9,374.7c0-3.8,0-7.6,0-11.3c0-3.4,0.1-6.8,0-10.2c0-1.7,0.5-2.5,2.3-2.6c2.3,0,4.6,0.1,6.8,0.7
			c3.2,1,5.2,3.1,5.3,6.7c0.1,3.6-1.6,6.1-4.9,7.3c-0.6,0.2-1.3,0.4-2,0.6c-2,0.7-4.8-1.1-5.9,1.2c-0.8,1.7-0.3,4-0.4,6
			c0,0.5-0.2,1.1-0.2,1.6C248.6,374.7,248.3,374.7,247.9,374.7z M252.4,352.1c-2.6-0.8-3.4,0.9-3.2,3.8c0.2,1.8,0.2,3.7,0,5.5
			c-0.3,2.8,0.9,3.7,3.6,3.5c1.6-0.1,3.2-0.3,4.7-1c2.4-1.1,3.7-3,3.6-5.7c-0.1-2.6-1.4-4.2-3.6-5.3
			C256,352.2,254.5,352.2,252.4,352.1z"/>
		<path class="st1" d="M373.1,354.9c-1.5,0-1.7-1.2-2.5-1.8c-2-1.5-4.1-2-6.4-0.7c-2,1.1-2.8,2.9-2.7,5.1c0.1,2.5,1.8,3.5,3.9,4.2
			c1.7,0.6,3.5,1,5.2,1.6c3.6,1.4,5,4.9,3.4,8.3c-1.3,2.7-4.5,4.4-8.1,3.9c-2.6-0.3-5-1.2-5.9-5.2c3,3,5.5,4.9,9.2,3.5
			c2.4-0.9,3.9-2.3,4-5c0-2.6-1.6-3.9-3.8-4.6c-1.4-0.5-2.9-0.8-4.3-1.2c-2.8-0.9-4.8-2.4-4.9-5.7c0-3.1,1.1-5.4,4-6.5
			c2.9-1.1,5.6-0.5,7.8,1.7C372.6,353.2,373.2,353.7,373.1,354.9z"/>
		<path class="st1" d="M424.2,375.5c0-6.8-0.2-12.9,0.1-18.9c0.1-3.3-0.5-5.1-4.2-4.5c-0.9,0.1-2,0.3-3.1-1.2
			c5.3-0.3,10.3-0.5,15.4,0.1c-0.6,1.3-1.3,1.1-2,1.2c-4.9,0.3-4.9,0.3-4.9,5.4c0,4.7,0,9.4,0,14
			C425.3,372.6,425.8,373.8,424.2,375.5z"/>
		<path d="M208.7,488.9c0,4.4,0,8.9,0,13.3c0,0.6,0.1,1.6-0.8,1.6c-0.9,0-1-0.8-1-1.5c0-9,0-18,0-27c0-0.7,0.1-1.5,1-1.4
			c0.9,0.1,0.8,1,0.8,1.6C208.7,480,208.7,484.5,208.7,488.9z"/>
		<path d="M303.5,488.8c0-4.4,0-8.9,0-13.3c0-0.7-0.1-1.6,0.8-1.6c0.9,0,1,0.8,1,1.5c0,9,0,18,0,27c0,0.7-0.1,1.5-1,1.4
			c-0.9-0.1-0.7-1-0.8-1.6C303.5,497.7,303.5,493.3,303.5,488.8z"/>
		<path d="M388.4,488.9c0,4.3,0,8.7,0,13c0,0.7,0.4,1.8-0.7,2c-1.1,0.1-1.1-1-1.1-1.7c0-8.8,0-17.5,0-26.3c0-0.8-0.1-1.9,1-1.8
			c1.1,0.1,0.8,1.2,0.8,1.9C388.4,480.2,388.4,484.5,388.4,488.9z"/>
		<path class="st1" d="M199.7,375.1c-3.8,0-7.7,0-11.5,0c-1.1,0-1.7-0.6-1.7-1.7c0-7.4,0-14.7,0-22.4c1.6,0.7,1.2,1.7,1.2,2.4
			c0,5.6,0.1,11.2,0,16.8c-0.1,2.8,0.7,4,3.6,3.7c2.8-0.2,5.6,0,8.4,0C199.6,374.3,199.6,374.7,199.7,375.1z"/>
		<path class="st1" d="M268.2,351.3c0,7.8,0,15.6,0,23.3c-0.2,0-0.4,0-0.6,0c0-7.8,0-15.6,0-23.3C267.8,351.4,268,351.3,268.2,351.3
			z"/>
	</g>
</g>
</svg>
