<?xml version="1.0" encoding="utf-8"?>
<!-- Generator: Adobe Illustrator 26.3.1, SVG Export Plug-In . SVG Version: 6.00 Build 0)  -->
<svg version="1.1" id="Layer_1" xmlns="http://www.w3.org/2000/svg" xmlns:xlink="http://www.w3.org/1999/xlink" x="0px" y="0px"
	 viewBox="0 0 595.3 595.3" style="enable-background:new 0 0 595.3 595.3;" xml:space="preserve">
<style type="text/css">
	.st0{fill:#FFFFFF;}
	.st1{fill:#8D2441;}
</style>
<path class="st0" d="M297.6,595.3L297.6,595.3C133.3,595.3,0,462,0,297.6l0,0C0,133.3,133.3,0,297.6,0l0,0
	C462,0,595.3,133.3,595.3,297.6l0,0C595.3,462,462,595.3,297.6,595.3z"/>
<path class="st0" d="M584.9,375.9c0.5-2,1.1-4,1.6-6L584.9,375.9z"/>
<polygon class="st0" points="586.4,369.9 586.4,369.9 586.4,369.9 "/>
<g>
	<path class="st1" d="M447.7,257.4c6.7,20.2,14,38.6,15.4,58.6c0.5,8.3-2.5,16.5-8,23c-3.7,4.4-2.8,9.4-3.2,14.3
		c-0.2,3.4,3.2,3.4,5.3,3.9c20.9,6.5,41.1,14.7,60.5,24.6c0.9,0.5,1.8,0.9,2.5,1.8c-20.5-8.1-41.2-16.1-62.5-22.1
		c-21.6-6.2-43.5-10.6-65.8-13.6c-22.3-3.2-44.6-5-67.1-5.3c-22.3-0.2-44.4,0-66.6,2.5c-22.3,2.5-44.4,6.2-66.2,11
		c-21.8,5-43.2,11.3-64.6,18.1c10.3-5.3,21.1-9.2,32-12.7c11-3.5,22.1-6.5,33.1-9.7c5.3-1.6,6.9-4.6,3.7-8.7
		c-9.6-11.9-9.7-25.1-6.9-39.1c3-14.9,8.1-29.2,13.5-43.4c2.1,0.4,1.9,1.9,2.3,3.2c5.3,15.8,10.6,31.3,13.3,47.8
		c1.8,11.2-1.2,20.7-7.8,29.6c-1.2,1.6-3.4,3-2.1,5.3c1.4,2.5,3.7,0.5,5.5,0.2c8.1-1.4,16.3-3.2,24.4-4.4c3.4-0.5,4.2-1.8,4.4-5.1
		c0.2-7.1-0.4-13.1-5.1-19.6c-9.2-12.4-10.6-27.1-8.3-42.3c3.9-26.2,13.1-50.6,22.5-76.5c6.7,17.9,12,34.9,16.6,52.2
		c3.4,12.7,6.9,25.3,6,38.8c-0.7,11.5-4.6,21.9-12,30.4c-4.4,5.1-4.1,10.6-3.9,16.5c0,2.7,1.6,2.8,3.7,2.5c14-1.9,28.1-1.9,42.3-2.8
		c2.7-0.2,4.1-0.5,4.1-3.7c0-9,0.4-18.2,0.7-27.3c0-1.8-1.1-3-2.1-4.1c-19.8-21.8-25.5-48.1-22.3-76.1c5.5-47.4,22.1-92,38.9-136.5
		c0.2-0.4,0.5-0.5,1.4-1.6c5.5,16.6,11,32.7,16.1,49c9,28.5,17.7,57,21.8,86.7c3.9,29-4.6,54.3-23,76.5c-2.8,3.4-4.1,6.5-3.9,10.8
		c0.2,7.4,0,15-0.2,22.5c0,3,0.9,4.2,4.1,4.4c14.2,1.1,28.1,2.3,42.3,3.9c4.4,0.5,5-0.9,5.1-4.8c0.2-6.5-1.1-12-5.3-17.9
		c-10.3-14.2-11-30.4-8-47.1c4.4-23.9,12.4-46.7,21.1-69.4c0.2-0.5,0.7-0.9,1.4-1.8c8.8,27.1,18.9,53.3,21.9,81.4
		c1.6,15.2-3.2,28.7-12.9,40.5c-5.3,6.5-2.3,14-2.8,20.9c-0.2,1.8,2.1,1.4,3.4,1.8c10.3,2.3,20.5,4.6,30.6,6.9
		c1.2,0.4,3.2,1.2,3.9-0.4c1.1-3,1.8-6.9-0.4-9.4c-12.4-14.7-9.7-30.8-5.5-47.3C438.3,282.6,442.4,270.7,447.7,257.4z"/>
	<path class="st1" d="M420.6,428.4c-45.7,68.3-138.4,97.7-217.7,69.4C119.7,468,67.9,387.3,75.8,299.2
		c8-86.2,71.7-145.7,126.9-161.1C125,172.6,78.8,232.8,81.3,321.8c2.3,80.7,44.8,137.9,119.3,168.9C268.1,518.7,362,504,420.6,428.4
		z"/>
</g>
</svg>
