<svg xmlns="http://www.w3.org/2000/svg" xml:space="preserve" id="Layer_1" x="0" y="0" style="enable-background:new 0 0 595.3 595.3" version="1.1" viewBox="0 0 595.3 595.3"><style>.st0{fill:#fff}.st1{fill:#8d2441}</style><path d="M297.6 595.3C133.3 595.3 0 462 0 297.6 0 133.3 133.3 0 297.6 0 462 0 595.3 133.3 595.3 297.6c0 164.4-133.3 297.7-297.7 297.7" class="st0"/><path d="M584.9 375.9c.5-2 1.1-4 1.6-6zM586.4 369.9" class="st0"/><path d="M447.7 257.4c6.7 20.2 14 38.6 15.4 58.6.5 8.3-2.5 16.5-8 23-3.7 4.4-2.8 9.4-3.2 14.3-.2 3.4 3.2 3.4 5.3 3.9 20.9 6.5 41.1 14.7 60.5 24.6.9.5 1.8.9 2.5 1.8-20.5-8.1-41.2-16.1-62.5-22.1-21.6-6.2-43.5-10.6-65.8-13.6-22.3-3.2-44.6-5-67.1-5.3-22.3-.2-44.4 0-66.6 2.5-22.3 2.5-44.4 6.2-66.2 11-21.8 5-43.2 11.3-64.6 18.1 10.3-5.3 21.1-9.2 32-12.7 11-3.5 22.1-6.5 33.1-9.7 5.3-1.6 6.9-4.6 3.7-8.7-9.6-11.9-9.7-25.1-6.9-39.1 3-14.9 8.1-29.2 13.5-43.4 2.1.4 1.9 1.9 2.3 3.2 5.3 15.8 10.6 31.3 13.3 47.8 1.8 11.2-1.2 20.7-7.8 29.6-1.2 1.6-3.4 3-2.1 5.3 1.4 2.5 3.7.5 5.5.2 8.1-1.4 16.3-3.2 24.4-4.4 3.4-.5 4.2-1.8 4.4-5.1.2-7.1-.4-13.1-5.1-19.6-9.2-12.4-10.6-27.1-8.3-42.3 3.9-26.2 13.1-50.6 22.5-76.5 6.7 17.9 12 34.9 16.6 52.2 3.4 12.7 6.9 25.3 6 38.8-.7 11.5-4.6 21.9-12 30.4-4.4 5.1-4.1 10.6-3.9 16.5 0 2.7 1.6 2.8 3.7 2.5 14-1.9 28.1-1.9 42.3-2.8 2.7-.2 4.1-.5 4.1-3.7 0-9 .4-18.2.7-27.3 0-1.8-1.1-3-2.1-4.1-19.8-21.8-25.5-48.1-22.3-76.1 5.5-47.4 22.1-92 38.9-136.5.2-.4.5-.5 1.4-1.6 5.5 16.6 11 32.7 16.1 49 9 28.5 17.7 57 21.8 86.7 3.9 29-4.6 54.3-23 76.5-2.8 3.4-4.1 6.5-3.9 10.8.2 7.4 0 15-.2 22.5 0 3 .9 4.2 4.1 4.4 14.2 1.1 28.1 2.3 42.3 3.9 4.4.5 5-.9 5.1-4.8.2-6.5-1.1-12-5.3-17.9-10.3-14.2-11-30.4-8-47.1 4.4-23.9 12.4-46.7 21.1-69.4.2-.5.7-.9 1.4-1.8 8.8 27.1 18.9 53.3 21.9 81.4 1.6 15.2-3.2 28.7-12.9 40.5-5.3 6.5-2.3 14-2.8 20.9-.2 1.8 2.1 1.4 3.4 1.8 10.3 2.3 20.5 4.6 30.6 6.9 1.2.4 3.2 1.2 3.9-.4 1.1-3 1.8-6.9-.4-9.4-12.4-14.7-9.7-30.8-5.5-47.3 3.3-11.7 7.4-23.6 12.7-36.9" class="st1"/><path d="M420.6 428.4c-45.7 68.3-138.4 97.7-217.7 69.4-83.2-29.8-135-110.5-127.1-198.6 8-86.2 71.7-145.7 126.9-161.1C125 172.6 78.8 232.8 81.3 321.8c2.3 80.7 44.8 137.9 119.3 168.9 67.5 28 161.4 13.3 220-62.3" class="st1"/></svg>