<?xml version="1.0" encoding="utf-8"?>
<!-- Generator: Adobe Illustrator 26.3.1, SVG Export Plug-In . SVG Version: 6.00 Build 0)  -->
<svg version="1.1" id="Layer_1" xmlns="http://www.w3.org/2000/svg" xmlns:xlink="http://www.w3.org/1999/xlink" x="0px" y="0px"
	 viewBox="0 0 595.3 595.3" style="enable-background:new 0 0 595.3 595.3;" xml:space="preserve">
<style type="text/css">
	.st0{fill:#FFFFFF;}
	.st1{fill:#0F5DE4;}
</style>
<path class="st0" d="M297.6,595.3L297.6,595.3C133.3,595.3,0,462,0,297.6v0C0,133.3,133.3,0,297.6,0h0
	C462,0,595.3,133.3,595.3,297.6v0C595.3,462,462,595.3,297.6,595.3z"/>
<g id="ReoHBm.tif_00000177466786482755784350000010238029667498830995_">
	<g>
		<path class="st1" d="M35.6,291.4c0.5-1.4,0.3-2.9,0.6-4.3c2.5-10.6,9.1-17.3,19.3-20.7c2.1-0.7,4.2-1.2,6.4-1.1
			c11.5,0.5,21.1,4.6,26.3,15.5c7.3,15-1.5,33-17.9,37c-12.8,3.2-25.6-2.4-31.7-13.8c-1.7-3.2-2.6-6.5-2.8-10.1c0-0.4,0-0.9-0.3-1.3
			C35.6,292.2,35.6,291.8,35.6,291.4z M63.5,305.2c1,0.1,2.2-0.1,3.4-0.4c8.6-2.2,12.7-12.1,8.1-19.4c-3-4.8-8.9-7-14.9-5.8
			c-7.1,1.4-11.7,8.4-10,15.5C51.5,301.1,56.8,305.2,63.5,305.2z"/>
		<path class="st1" d="M256.5,265.4c12.7-0.2,24.2,8.7,26.7,21.9c1.7,9.2-0.7,17.4-7.4,24.1c-6.1,6.1-12.3,12.1-18.5,18.1
			c-0.7,0.6-1,0.6-1.6,0c-6.3-6.3-12.6-12.6-18.9-18.8c-0.4-0.4-0.8-0.9-0.6-1.5c0.2-0.7,0.8-0.8,1.4-0.9c5.7-0.8,11.3-1.6,17-2.4
			c3.2-0.5,6.4-0.8,9.1-2.7c4.5-3.1,6.6-7.4,5.9-12.7c-0.7-5.6-4-9.2-9.4-10.7c-6.4-1.8-13.3,1.2-16.1,7c-2,4.3-1.6,8.5,1,12.5
			c0.9,1.3,0.5,2.2-1.1,2.4c-3.7,0.5-7.3,1-11,1.5c-1.1,0.2-2.2-0.5-2.6-1.6c-0.9-2.1-1.2-4.4-1.4-6.7c-0.5-6.8,1.1-13.1,5.3-18.6
			c4.7-6,10.8-9.6,18.4-10.7c0.3,0,0.7-0.2,1-0.2C254.6,265.3,255.6,265.4,256.5,265.4z"/>
		<path class="st1" d="M392.2,291.8c0.1,12.1-8.5,22.8-20.5,26c-13.4,3.6-27.4-3.1-32.9-15.7c-4.3-9.8-1.8-21.4,6.3-29
			c4.6-4.4,10-7.3,16.3-7.6c12-0.5,26.2,4.8,30.2,21C392.1,288.3,392.2,290.2,392.2,291.8z M364.3,305.2c6.5,0.2,13.6-5,13.6-13.1
			c0-7.4-6-12.9-13.6-12.9c-7.5,0-13.3,5.7-13.3,12.9C351,299.5,356.7,305.2,364.3,305.2z"/>
		<path class="st1" d="M466.2,292.3c0-7.7,0-15.4,0-23.2c0-2,0.7-2.8,2.7-2.8c7.1,0,14.2-0.1,21.3,0c3.7,0.1,7.4,0.6,10.8,2.2
			c5.1,2.3,7.8,6.2,8.2,11.8c0.2,2.3,0,4.6-0.6,6.9c-1.4,5.5-5.2,8.6-10.5,10c-1.3,0.3-1.3,0.3-0.5,1.4c3.9,5.5,7.9,11,11.8,16.5
			c0.3,0.5,0.6,1,0.7,1.6c0.1,0.8-0.4,1.6-1.3,1.6c-3.6,0-7.3,0-10.9,0c-0.7,0-1.1-0.5-1.5-1c-4-5.5-8-11.1-12-16.6
			c-0.5-0.7-1-0.9-1.9-0.9c-2.8,0-2.8,0-2.8,2.9c0,4.4,0,8.8,0,13.3c0,1.6-0.8,2.5-2.4,2.5c-2.9,0-5.9,0-8.8,0
			c-1.6,0-2.3-0.8-2.3-2.4c0-3.9,0-7.9,0-11.8C466.2,300.1,466.2,296.2,466.2,292.3z M479.8,282.7c0,1.8,0,3.5,0,5.3
			c0,0.9,0.3,1.2,1.2,1.2c2,0,4,0,6,0c2.1-0.1,4.2-0.3,6-1.6c2-1.4,2.7-3.5,2.3-5.8c-0.4-2.8-2.3-4.4-4.9-4.9
			c-3.3-0.7-6.6-0.3-10-0.3c-0.6,0-0.7,0.4-0.7,0.9C479.8,279.2,479.8,281,479.8,282.7z"/>
		<path class="st1" d="M180.2,292.3c0-7.7,0-15.4,0-23.2c0-2,0.7-2.7,2.8-2.7c7.1,0,14.2-0.1,21.3,0c4.1,0.1,8.1,0.7,11.8,2.6
			c4.9,2.4,7.4,6.4,7.6,11.9c0.1,2.1,0,4.2-0.5,6.3c-1.4,5.3-4.9,8.5-10.1,10c-1.8,0.5-1.8,0.5-0.7,2c3.8,5.5,7.7,11.1,11.5,16.6
			c1,1.4,0.6,2.3-1.1,2.3c-3.3,0.1-6.6,0-9.9,0c-0.9,0-1.5-0.4-2.1-1.2c-4-5.8-8.1-11.5-12.2-17.3c-0.4-0.6-0.9-0.7-1.6-0.7
			c-2.9,0-2.9,0-2.9,2.8c0,4.7,0,9.3,0,14c0,1.7-0.8,2.6-2.6,2.6c-3,0-5.9,0-8.9,0c-1.6,0-2.5-0.9-2.5-2.6
			C180.2,307.9,180.2,300.1,180.2,292.3z M193.8,282.8c0,1.7,0,3.5,0,5.2c0,0.8,0.2,1.2,1.1,1.2c2.2,0,4.4,0,6.5,0
			c1.9-0.1,3.9-0.3,5.6-1.4c2-1.3,3.1-3.5,2.8-5.8c-0.4-2.7-2.1-4.5-5-5.1c-3.4-0.7-6.9-0.3-10.3-0.3c-0.6,0-0.7,0.4-0.7,0.9
			C193.8,279.2,193.8,281,193.8,282.8z"/>
		<path class="st1" d="M400,292.2c0-7.5,0-14.9,0-22.4c0-0.6,0-1.2,0.1-1.7c0.1-1,0.8-1.7,1.9-1.7c3.2,0,6.5,0,9.7,0
			c1.3,0,2.2,1.1,2.2,2.6c0,4.6,0,9.3,0,13.9c0,0.7-0.3,1.6,0.2,1.9c0.6,0.3,1.2-0.5,1.8-0.8c2-0.9,3.5-2.4,4.7-4.2
			c2.8-4.1,5.9-8,8.6-12.3c0.4-0.7,1.1-1.1,1.9-1.1c3.9,0,7.8,0,11.7,0c1.2,0,1.7,1.3,0.9,2.4c-1.7,2.4-3.4,4.9-5.1,7.3
			c-3,4.2-5.9,8.5-8.9,12.7c-0.5,0.7-0.6,1.2-0.1,2c4.8,8.4,9.6,16.8,14.4,25.1c0.6,1.1,0.3,2-1,2.1c-1.1,0.1-2.3,0.1-3.5,0.1
			c-2.7,0-5.3,0-8,0c-1.4,0-2.3-0.4-3.1-1.8c-2.9-5.7-6.1-11.3-9.1-17c-0.5-0.9-0.9-1.1-1.8-0.5c-0.9,0.6-1.8,1.1-2.7,1.6
			c-0.7,0.3-0.9,0.8-0.9,1.5c0,4.5,0,8.9,0,13.4c0,1.9-0.8,2.7-2.7,2.7c-2.8,0-5.6,0-8.4,0c-2.1,0-2.7-0.7-2.7-2.8
			C400,307.6,400,299.9,400,292.2z"/>
		<path class="st1" d="M559.6,285.7c0,5.2-0.1,10.4,0,15.6c0.1,3.1-0.9,5.8-2.5,8.4c-2.5,4.1-6.2,6.6-10.8,7.9
			c-6.8,1.8-13.7,1.9-20.3-0.8c-6.3-2.6-10.2-7.3-11.1-14.2c-0.2-1.8-0.4-3.5-0.4-5.3c0-9.3,0-18.5,0-27.8c0-2.2,0.9-3.1,3.1-3.1
			c2.7,0,5.5,0,8.2,0c2.2,0,3.1,0.9,3.1,3.1c0,9.3,0,18.6,0,27.9c0,1.4,0.2,2.8,0.6,4.1c1.6,6,7.5,6.9,11.5,5.2
			c3.5-1.5,4.7-4.4,4.9-7.8c0.5-9.5,0.1-19.1,0.2-28.7c0-0.5,0-1,0-1.5c0.1-1.3,1-2.2,2.3-2.2c3.1,0,6.3,0,9.4,0
			c1.4,0,1.8,0.5,1.8,1.8C559.6,274,559.6,279.8,559.6,285.7z"/>
		<path class="st1" d="M309.6,300.5c0.4-0.2,0.4-0.6,0.5-0.9c3-10.2,6-20.5,8.9-30.7c0.5-1.8,1-2.1,2.8-2.1c3.8,0,7.5,0,11.3,0
			c1.7,0,2.2,0.7,1.7,2.3c-5.3,15.4-10.6,30.9-16,46.3c-0.7,2.1-1,2.3-3.2,2.3c-4,0-8,0-12,0c-1.9,0-2.5-0.4-3-2.2
			c-5.1-15.3-10.2-30.6-15.2-45.9c-0.1-0.4-0.3-0.8-0.3-1.3c0-1,0.4-1.5,1.4-1.5c4,0,7.9,0,11.9,0c1.2,0,1.9,0.7,2.3,2.1
			c1,3.5,1.9,6.9,2.9,10.4c1.9,6.8,3.8,13.6,5.7,20.4C309.3,299.9,309.4,300.2,309.6,300.5z"/>
		<path class="st1" d="M109.1,318.7c-4.7,0.5-9.1-0.9-13.5-2.3c-2-0.6-2.4-1.6-1.7-3.6c0.7-1.8,1.3-3.6,2-5.3c0.7-1.7,2-2.4,3.7-1.8
			c3.1,0.9,6.2,1.8,9.4,2.1c1.7,0.2,3.3,0.1,4.9-0.3c1.2-0.3,2.1-1.1,2.6-2.2c0.6-1.3,0.3-2.9-0.8-3.9c-0.8-0.7-1.7-1.3-2.7-1.8
			c-3.7-1.9-7.6-3.3-11.3-5.3c-1.7-0.9-3.2-2.2-4.3-3.9c-1.2-1.8-2.7-3.4-3-5.7c-0.5-3.2-0.6-6.4,0.5-9.5c1.7-4.5,5.2-7,9.7-8.3
			c3.8-1.1,7.7-1.3,11.6-1.1c4.2,0.2,8.3,1,12.2,2.5c1.7,0.7,2.2,1.6,1.5,3.3c-0.8,2-1.6,3.9-2.4,5.8c-0.6,1.4-1.6,1.9-3.1,1.4
			c-2.6-1-5.2-1.6-7.9-2c-2.3-0.3-4.6-0.1-6.8,0.6c-1.7,0.5-2.4,3-1.2,4.3c0.5,0.6,1.2,1.1,1.9,1.5c3.3,1.6,6.6,3.4,10,4.9
			c2.3,1,4.4,2.5,6.3,4.2c5.6,5.1,5.9,14.3,0.9,19.9c-3.6,4.1-8.2,5.9-13.6,6.5C112.5,318.7,110.8,318.7,109.1,318.7z"/>
		<path class="st1" d="M147.3,297c0-6.1,0-12.2,0-18.3c0-0.9-0.3-1.2-1.2-1.2c-3,0.1-6.1,0-9.1,0c-1.9,0-2.8-1-2.9-2.8
			c0-1.9,0-3.7,0-5.6c0-1.8,1-2.8,2.9-2.8c11.7,0,23.4,0,35.1,0c1.6,0,2.5,0.9,2.6,2.4c0.1,1.9,0.1,3.7,0,5.6
			c-0.1,2.2-1.3,3.3-3.5,3.3c-2.8,0-5.5,0.1-8.3,0c-1.1,0-1.3,0.3-1.3,1.3c0,12,0,24.1,0,36.1c0,1.9-0.6,2.8-2.5,2.9
			c-3.2,0.1-6.4,0.1-9.6,0c-1.6-0.1-2.2-0.9-2.2-2.6C147.3,309.3,147.3,303.2,147.3,297z"/>
		<path class="st1" d="M461.4,312.3c-0.1,3.9-3.1,6.9-6.8,6.8c-3.7-0.1-7.1-3.5-7.1-7.2c0.1-3.4,3.6-6.4,7.5-6.3
			C458.6,305.6,461.5,308.6,461.4,312.3z"/>
	</g>
</g>
</svg>
