<?xml version="1.0" encoding="utf-8"?>
<!-- Generator: Adobe Illustrator 26.3.1, SVG Export Plug-In . SVG Version: 6.00 Build 0)  -->
<svg version="1.1" id="Layer_1" xmlns="http://www.w3.org/2000/svg" xmlns:xlink="http://www.w3.org/1999/xlink" x="0px" y="0px"
	 viewBox="0 0 595.3 595.3" style="enable-background:new 0 0 595.3 595.3;" xml:space="preserve">
<style type="text/css">
	.st0{fill:#FFFFFF;}
	.st1{fill:#003263;}
</style>
<path class="st0" d="M297.6,595.3L297.6,595.3C133.3,595.3,0,462,0,297.6l0,0C0,133.3,133.3,0,297.6,0l0,0
	C462,0,595.3,133.3,595.3,297.6l0,0C595.3,462,462,595.3,297.6,595.3z"/>
<path class="st0" d="M584.9,375.9c0.5-2,1.1-4,1.6-6L584.9,375.9z"/>
<polygon class="st0" points="586.4,369.9 586.4,369.9 586.4,369.9 "/>
<g>
	<path class="st1" d="M341,159.5l18.4-24.1c0,0-10.8,20-11.5,25.3L341,159.5z M334.4,131l0.9,28c0,0-5.7-1.4-10.3-1.4L334.4,131z
		 M302.7,156.8l5.1-28.5l6.2,28L302.7,156.8z M281.5,131l-0.7,28c0,0,5.7-1.4,10.3-1.4L281.5,131z M274.2,159.5l-18.4-24.1
		c0,0,10.8,20,11.5,25.3L274.2,159.5z M329.3,103.5c0-6.2,5.1-11,11-11c6.2,0,11,5.1,11,11c0,5.7-4.4,10.6-9.9,11l2.8,28.9
		c0,0,9.2-13.1,17.2-20.9c-1.6-1.8-2.5-4.4-2.5-7.1c0-6.2,5.1-11,11-11c6.2,0,11,5.1,11,11c0,5.7-4.4,10.6-10.1,11
		c-4.1,8.5-17.5,36.1-18.8,47.3c0,0-21.8-5.1-44.8-5.1c-26.9,0-45.5,5.1-45.5,5.1c-1.1-11.5-14.2-39-18.1-47.3h-1.1
		c-6.2,0-11-5.1-11-11c0-6.2,5.1-11,11-11s11,5.1,11,11c0,2.1-0.5,4.1-1.6,5.7c8.3,7.6,18.6,22.3,18.6,22.3l3-29.4
		c-5.1-0.9-8.7-5.5-8.7-10.8c0-6.2,5.1-11,11-11s11,5.1,11,11c0,3.4-1.6,6.7-4.1,8.7l12.9,29.2l7.3-33.8c-2.8-1.8-5.1-5.3-5.1-9.2
		c0-6.2,5.1-11,11-11s11,5.1,11,11c0,5.1-3.2,9.2-7.8,10.8l7.1,32.1l13.1-29.9C330.7,109.2,329.3,106.5,329.3,103.5"/>
	<path class="st1" d="M283.4,186.9l3.4-0.5c0.9,0,1.6,0.7,1.6,1.6v1.6c0,0.9-0.7,1.6-1.6,1.6h-3.4c-0.9,0-1.6-0.7-1.6-1.6v-1.1
		C281.8,187.5,282.5,186.9,283.4,186.9 M329.3,186.4l3.4,0.5c0.9,0,1.6,0.7,1.6,1.6v1.1c0,0.9-0.7,1.6-1.6,1.6h-3.4
		c-0.9,0-1.6-0.7-1.6-1.6V188C327.7,187.1,328.4,186.4,329.3,186.4 M313.2,184.8l3.4,0.5c0.9,0,1.6,0.7,1.6,1.6v2.8
		c0,0.9-0.7,1.6-1.6,1.6h-3.4c-0.9,0-1.6-0.7-1.6-1.6v-3C311.9,185.5,312.3,184.8,313.2,184.8 M299.5,185.2l3.4-0.5
		c0.9,0,1.6,0.7,1.6,1.6v3.2c0,0.9-0.7,1.6-1.6,1.6h-3.4c-0.9,0-1.6-0.7-1.6-1.6v-2.8C297.8,185.9,298.5,185.2,299.5,185.2
		 M270.7,200.6c0,0-3.9,0.5-3.9-3.7c0-4.4,4.4-3.9,4.4-3.9s2.3-1.6-1.6-3.9c-3.9-2.1-5.5-2.3-5.7-6.2c0,0,16.5-9,42.7-9h1.6
		c25.5,0,44.1,9,44.1,9c-0.2,3.7-1.6,3.9-5.7,6.2c-3.9,2.1-1.6,3.9-1.6,3.9s4.1-0.5,4.1,3.9c0,4.4-3.9,3.7-3.9,3.7h-37h-1.6H270.7z"
		/>
	<path class="st1" d="M179.8,275.9c-2.3-4.4,0.7,46.8-33.5,82.4l7.3,12.4c0,0,25.5-24.8,29.2-82C182.6,289,182.1,280.3,179.8,275.9"
		/>
	<path class="st1" d="M189.2,289.5c-2.5-4.1,2.1,52.8-30.3,90.2l7.8,11.9c0,0,25-30.3,25.7-87.5C192.7,304,191.8,293.9,189.2,289.5"
		/>
	<path class="st1" d="M346.1,324.2h-9.9V374h9.2c9.4,0,12.4-6.2,12.4-25.7C357.5,329.5,355,324.2,346.1,324.2"/>
	<path class="st1" d="M406.9,295.2c-59.5,2.1-79.5-31.9-79.5-31.9l4.8-6c33.8,37.7,71.9,30.1,71.9,30.1
		c-43.9-6.2-63.8-39.3-63.8-39.3l6.2-11.5l6.2,9.6c63.4,68.7,111.1,20,111.1,20C437,295.9,406.9,295.2,406.9,295.2 M351.1,381.8H336
		v35.4c0,4.4,0,7.3,1.1,8.5c0.5,0.5,1.1,0.7,2.1,0.7h4.4v7.6h-27.8v-7.6h4.4c0.9,0,1.6-0.2,2.1-0.7c1.1-1.1,1.1-4.1,1.1-8.5v-1.8
		v-81.1c0-4.1,0-7.3-1.1-8.5c-0.5-0.5-1.1-0.7-2.1-0.7h-4.4v-7.3h35.4c16.3,0,19.1,10.6,19.1,31
		C370.4,372.6,365.1,381.8,351.1,381.8 M300.8,277.3v220.2c-15.4-4.1-76-46.8-76-54.2c0-0.5,0-140.1,0-140.1
		c88.2-14.2,113.4-82.4,113.4-82.4h6.2C331.8,254.4,300.8,277.3,300.8,277.3 M204.8,295.5c-0.5,0-0.9-5.5,0-5.1
		c20.9-4.1,82-14,112.5-69.1l9.9-0.5C327.7,220.6,311.9,280.5,204.8,295.5 M275.6,220.1h10.6c0,0-21.1,37.7-53.7,45
		C229.4,265.6,264.1,244.7,275.6,220.1 M307.5,220.1c0,0-12.2,33.3-62,50.3c-2.8,0.9,40.4-22.3,51.4-50.3H307.5z M450.1,234.6
		c0,0,8.5-1.4,11,6.2c0,0,7.6,17.5-20,29.2c0,0-11.9,4.8-18.1,0C423,270.2,417.5,240.4,450.1,234.6 M164.9,270.4
		c-5.1,5.1-18.1,0-18.1,0c-27.8-11.9-20-29.2-20-29.2c2.8-7.6,11-6.2,11-6.2C170.6,240.6,164.9,270.4,164.9,270.4 M453.1,224.7
		c-33.1,0-53,35.1-53,35.1c-25.9,2.5-53.5-51.7-53.5-51.7h-79c-10.6,40.2-62.9,56-68.4,57.6l-1.6-2.8c0,0-19.5-43.2-57.6-40.4
		c0,0-32.6,2.8-23,39.5c0,0,7.6,28,43.9,35.8c-4.6,13.3-12.4,28.2-24.6,41.1l6.9,13.3c0,0,25.9-25.7,29.6-82.9
		c0,0,0.5-14.2-10.6-32.6c0,0,24.3,4.6,33.3,42.7c0,0,12.6,36.3-14.5,108.8l-5.7,12.4l9.2,9.4c0,0,24.1-55.1,23.4-103.3h1.4
		c2.8-0.2,5.3-0.5,8-0.9c-0.2,26.9-0.7,139.4-0.5,139.6c9,21.1,73.9,56,85,62.5l1.6-0.7c10.6-6,72.3-40.6,81.3-61.8
		c0.2-0.2-0.5-125.4-0.7-143.1h1.4c2.8,0,5.7,0,8.7-0.2l0.2,4.1c-0.7,48.5,23.2,102.4,23.2,102.4l8.5-8.3l-5.1-12.6
		c-14.2-39.5-17.7-68.2-16.5-86.8l5.1-0.5c-0.2,1.6,0,2.5,0,2.5c0.5,57.2,25.3,87.3,25.3,87.3l7.8-11.9
		c-22.7-26.4-26.6-61.1-28-78.1l6.2-0.7c5.7,50.5,27.8,70,27.8,70l7.3-11.9c-18.6-19.3-25.7-42-29.2-58.8c0,0,4.8-1.1,6.2-1.6
		c8.3,38.3,25.7,54,25.7,54l6.7-12.9c-12.2-12.9-20-27.6-24.6-40.9l-0.7-3.2c28.2-12.4,37.9-34.2,37.9-34.2
		C489.6,226.8,453.1,224.7,453.1,224.7"/>
	<path class="st1" d="M293,324.9h4.1v-7.6h-27.6v7.6h4.1c0.9,0,1.6,0.2,2.1,0.7c1.1,1.1,1.1,4.4,1.1,9v32.6h-27.8V334
		c0-4.4,0-7.3,1.1-8.5c0.5-0.5,1.1-0.7,2.1-0.7h4.4v-7.6h-27.3v7.6h4.4c0.9,0,1.6,0.2,2.1,0.7c1.1,1.1,1.1,4.4,1.1,9v80.6v1.6
		c0,4.4,0,7.6-1.1,9c-0.5,0.5-1.1,0.7-2.1,0.7h-4.4v7.6h28v-7.6h-4.4c-0.9,0-1.6-0.2-2.1-0.5c-1.1-1.1-1.1-3.9-1.1-8.5v-42.5h27.8
		v42.3c0,4.6,0,7.8-1.1,9c-0.5,0.5-1.1,0.7-2.1,0.7h-4.1v7.6h27.6v-7.6h-4.4c-0.9,0-1.6-0.2-2.1-0.7c-1.1-1.1-1.1-4.1-1.1-8.5v-81.3
		v-1.8c0-4.1,0-7.3,1.1-8.5C291.2,325.3,292.1,324.9,293,324.9"/>
</g>
</svg>
