<?xml version="1.0" encoding="utf-8"?>
<!-- Generator: Adobe Illustrator 26.3.1, SVG Export Plug-In . SVG Version: 6.00 Build 0)  -->
<svg version="1.1" id="Layer_1" xmlns="http://www.w3.org/2000/svg" xmlns:xlink="http://www.w3.org/1999/xlink" x="0px" y="0px"
	 viewBox="0 0 595.3 595.3" style="enable-background:new 0 0 595.3 595.3;" xml:space="preserve">
<style type="text/css">
	.st0{fill:#FFFFFF;}
	.st1{fill:#003263;}
</style>
<path class="st0" d="M297.6,595.3L297.6,595.3C133.3,595.3,0,462,0,297.6l0,0C0,133.3,133.3,0,297.6,0l0,0
	C462,0,595.3,133.3,595.3,297.6l0,0C595.3,462,462,595.3,297.6,595.3z"/>
<g>
	<g>
		<path class="st1" d="M87.7,397.1c0,4.2-0.2,3.9,3.9,4.4v1.2h-12v-1.2c4-0.5,3.8-0.3,3.8-4.4V377c0-4.2,0.2-3.9-3.8-4.4v-1.2h11.7
			c7.4,0,11.1,3,11.1,8.3c0,6.4-5.8,9.9-12.7,9.5v-0.9c5.6,0.1,8.2-3.3,8.2-8.2c0-5-2.4-7.3-7.4-7.3h-2.7
			C87.7,372.8,87.7,397.1,87.7,397.1z"/>
		<path class="st1" d="M126.2,390.6l-4.7-14.5h-0.1l-5.3,14.5H126.2z M115.4,392.3l-2.1,6c-0.6,1.7,0.3,3.2,2.2,3.2v1.2h-8.1v-1.2
			c1.2,0,2.5-0.8,3.2-2.2c1.9-3.9,7.1-18.6,10.9-28.4h2.5c3,9,7.6,22.8,9.1,26.7c1,2.5,1.7,3.9,3.6,3.9v1.2h-10.4v-1.2
			c2.8,0,3.1-1.5,2.4-3.5l-1.9-5.7H115.4L115.4,392.3z"/>
		<path class="st1" d="M142.6,401.5c4-0.5,3.9-0.3,3.9-4.4V377c0-4.2,0.2-3.9-3.9-4.4v-1.2h12v1.2c-4,0.5-3.8,0.3-3.8,4.4v20.8
			c0,3.1,1.7,3.5,5.7,3.5c6.5,0,6.2-1.8,8.2-6.6h1.1l-1.3,8h-22V401.5z"/>
		<path class="st1" d="M181.7,368.2h-1.8l6.2-6.2c0.6-0.8,1.9-1.5,2.7-1.5c0.9,0,1.5,0.7,1.5,1.7c0,0.8-1.2,1.6-2.1,2.1L181.7,368.2
			z M189.1,390.6l-4.7-14.5h-0.1l-5.3,14.5H189.1z M178.3,392.3l-2.1,6c-0.6,1.7,0.3,3.2,2.2,3.2v1.2h-8.1v-1.2
			c1.2,0,2.5-0.8,3.2-2.2c1.9-3.9,7.1-18.6,10.9-28.4h2.5c3,9,7.6,22.8,9.1,26.7c1,2.5,1.7,3.9,3.6,3.9v1.2h-10.4v-1.2
			c2.8,0,3.1-1.5,2.4-3.5l-1.9-5.7H178.3L178.3,392.3z"/>
		<path class="st1" d="M235.3,394.7l-1.3,5.6c0,1-0.8,1.2-2.1,1.6c-1.7,0.6-4.8,1.3-8.7,1.3c-9.1,0-17.4-4.4-17.4-16.3
			c0-6.9,5.9-16,17.9-16c4.4,0,6.4,0.8,8.6,1.5c1.2,0.4,1.7,1,1.7,1.7v5.7h-1.2c-0.1-3.6-2.4-7.5-9.5-7.5c-8.4,0-12.4,6-12.4,14.1
			c-0.1,8.9,4,15.2,13.2,15.2c6,0,8.7-3.4,10.2-6.9H235.3z"/>
		<path class="st1" d="M250.1,397.1c0,4.2-0.2,3.9,3.9,4.4v1.2h-12v-1.2c4-0.5,3.8-0.3,3.8-4.4V377c0-4.2,0.2-3.9-3.8-4.4v-1.2h12
			v1.2c-4,0.5-3.9,0.3-3.9,4.4V397.1z"/>
		<path class="st1" d="M288.2,387.5c0-10.7-5.7-15-11.2-15c-7.6,0-10.7,6.8-10.7,12.9c0,10.8,5.5,16.3,11.3,16.3
			C285.9,401.7,288.2,393.4,288.2,387.5 M261.2,387.6c0-9.6,7.5-16.8,16.8-16.8c9.7,0,15.3,8.4,15.3,15.2c0,9.4-7.1,17.1-17,17.1
			C267.8,403.2,261.2,396.3,261.2,387.6"/>
		<path class="st1" d="M316.8,401.5c4-0.5,3.9-0.3,3.9-4.4V377c0-4.2,0.2-3.9-3.9-4.4v-1.2h0.1h19.9v7.2h-1.2
			c-0.4-3.3-1.3-5.7-4.6-5.7H325v12.8h3.7c2.8,0,4-1.1,4.1-3.9h1.2v9.5h-1.2c-0.1-2.6-1.1-4.2-4.1-4.2H325v10.1
			c0,3.8,1.7,4.1,5.7,4.1c6.5,0,6.2-1.8,8.2-6.6h1.2l-1.3,8h-22V401.5z"/>
		<path class="st1" d="M361.3,378.1c-0.3-3.1-2.1-5.6-5.6-5.6c-2.6,0-4.9,1.3-4.9,4.6c0,3.1,3.1,5,7.6,8.4c4.7,3.5,6.2,5.8,6.2,9.5
			c0,5.3-5.5,8.2-10.8,8.2c-2.8,0-5.3-0.6-7.6-1.5c-0.2-0.1-0.3-0.3-0.3-0.6v-6.4h1.2c0.5,5,3.7,6.9,7.2,6.9c3.2,0,5.7-2.4,5.7-5.7
			c0-2.9-1.6-5.3-8.2-9.7c-2.4-1.6-5.4-3.3-5.4-8.2c0-4,4.5-7.2,9.6-7.2c1.9,0,4.5,0.2,6.2,0.8c0.3,0.1,0.3,0.3,0.3,0.5v5.9
			L361.3,378.1L361.3,378.1z"/>
		<path class="st1" d="M385.5,397.1c0,4.2-0.2,3.9,3.9,4.4v1.2h-12v-1.2c4-0.5,3.8-0.3,3.8-4.4v-24.2h-3.9c-3.9,0-4.8,2.4-6.2,5.4
			h-1.1l1.2-6.9h24.7l1.2,6.9h-1.1c-1.5-3-2.4-5.4-6.2-5.4h-4.1V397.1z"/>
		<path class="st1" d="M429.6,387.5c0-10.7-5.7-15-11.2-15c-7.6,0-10.7,6.8-10.7,12.9c0,10.8,5.5,16.3,11.3,16.3
			C427.3,401.7,429.6,393.4,429.6,387.5 M402.6,387.6c0-9.6,7.5-16.8,16.8-16.8c9.7,0,15.3,8.4,15.3,15.2c0,9.4-7.1,17.1-17,17.1
			C409.2,403.2,402.6,396.3,402.6,387.6"/>
		<path class="st1" d="M450.1,387.4h3.7c3.9,0,5.7-3,5.7-8c0-4.8-2.7-6.6-6-6.6h-3.5L450.1,387.4L450.1,387.4z M441.9,371.4h13
			c4.5,0,9,2.4,9,7.6c0,4.6-2.8,7.8-6.2,9.1l4.4,6.6c2.2,3.3,4.7,6.4,6.3,7.3v0.6h-4.6c-2.6,0-4.1-4.8-9.5-13.8h-4.2v8.2
			c0,4.2-0.2,3.9,3.9,4.4v1.2h-12v-1.2c4-0.5,3.9-0.3,3.9-4.4V377c0-4.2,0.2-3.9-3.9-4.4L441.9,371.4L441.9,371.4z"/>
		<path class="st1" d="M481.7,397.1c0,4.2-0.2,3.9,3.9,4.4v1.2h-12v-1.2c4-0.5,3.8-0.3,3.8-4.4V377c0-4.2,0.2-3.9-3.8-4.4v-1.2h12
			v1.2c-4,0.5-3.9,0.3-3.9,4.4V397.1z"/>
		<path class="st1" d="M492.5,401.5c4-0.5,3.9-0.3,3.9-4.4V377c0-4.2,0.2-3.9-3.9-4.4v-1.2h12v1.2c-4,0.5-3.9,0.3-3.9,4.4v20.8
			c0,3.1,1.7,3.5,5.7,3.5c6.5,0,6.2-1.8,8.2-6.6h1.1l-1.3,8h-21.9V401.5z"/>
		<polygon class="st1" points="171.6,433.6 171.6,428.5 164.8,428.5 164.8,433.6 163.2,433.6 163.2,422.6 164.8,422.6 164.8,427 
			171.6,427 171.6,422.6 173.3,422.6 173.3,433.6 		"/>
		<path class="st1" d="M178.9,428.1c0,2.6,1.8,4.4,4.5,4.4s4.5-1.7,4.5-4.3c0-2.7-1.7-4.4-4.5-4.4
			C180.7,423.8,178.9,425.5,178.9,428.1 M189.6,428.2c0,1.5-0.6,3-1.7,4.1c-1.1,1-2.7,1.7-4.6,1.7c-3.7,0-6.2-2.3-6.2-5.8
			c0-3.5,2.5-5.7,6.2-5.7C187.1,422.4,189.6,424.7,189.6,428.2"/>
		<polygon class="st1" points="196.4,433.6 196.4,424.2 192.3,424.2 192.3,422.6 202.4,422.6 202.4,424.2 198.1,424.2 198.1,433.6 
					"/>
		<polygon class="st1" points="205.5,433.6 205.5,422.6 214.5,422.6 214.5,424.2 207.2,424.2 207.2,427.2 214.1,427.2 214.1,428.7 
			207.2,428.7 207.2,432.1 214.6,432.1 214.6,433.6 		"/>
		<polygon class="st1" points="218.4,433.6 218.4,422.6 220.2,422.6 220.2,432.1 227,432.1 227,433.6 		"/>
		<path class="st1" d="M232.1,431.8v1.5c0,1.5-0.6,2.4-1.9,2.8v-0.9c0.6-0.2,0.9-0.7,0.9-1.5h-1v-1.8L232.1,431.8L232.1,431.8z"/>
		<path class="st1" d="M252.8,433.6l-0.2-1.5c-1.2,1.2-2.5,1.8-4.3,1.8c-3.5,0-5.8-2.3-5.8-5.7s2.4-5.8,6.1-5.8
			c1.7,0,3.2,0.6,4.2,1.5c0.6,0.6,1,1.2,1.2,2.3h-1.8c-0.3-0.8-0.5-1.1-1-1.5c-0.7-0.6-1.6-0.8-2.6-0.8c-2.6,0-4.4,1.7-4.4,4.3
			c0,2.7,1.7,4.4,4.4,4.4c1.4,0,2.6-0.5,3.3-1.5c0.4-0.6,0.6-1,0.8-1.9H249v-1.5h5.1v6L252.8,433.6L252.8,433.6z"/>
		<path class="st1" d="M259.4,428.1c0,2.6,1.8,4.4,4.5,4.4s4.5-1.7,4.5-4.3c0-2.7-1.7-4.4-4.5-4.4
			C261.2,423.8,259.4,425.5,259.4,428.1 M270.1,428.2c0,1.5-0.6,3-1.7,4.1c-1.1,1-2.7,1.7-4.6,1.7c-3.7,0-6.2-2.3-6.2-5.8
			c0-3.5,2.5-5.7,6.2-5.7C267.6,422.4,270.1,424.7,270.1,428.2"/>
		<polygon class="st1" points="273.9,433.6 273.9,422.6 275.7,422.6 275.7,432.1 282.5,432.1 282.5,433.6 		"/>
		<polygon class="st1" points="285.9,433.6 285.9,422.6 294.5,422.6 294.5,424.2 287.6,424.2 287.6,427.3 293.7,427.3 293.7,428.8 
			287.6,428.8 287.6,433.6 		"/>
		<path class="st1" d="M309.9,424.9c0-0.7-0.6-1.1-1.3-1.1c-0.8,0-1.3,0.4-1.3,1c0,0.6,0.1,0.8,1.1,1.7
			C309.4,426.2,309.9,425.6,309.9,424.9 M307.8,428.2c-1.4,0.5-2.1,1.2-2.1,2.1c0,1.2,1.2,2.1,2.9,2.1c1.2,0,2.1-0.3,2.8-1.1
			L307.8,428.2z M314.3,428.3c-0.1,0.8-0.3,1.8-0.9,2.7l2.8,2.6h-2.4l-1.5-1.3c-1.3,1.1-2.5,1.5-4,1.5c-1.3,0-2.6-0.4-3.3-1.1
			c-0.7-0.6-1-1.3-1-2.2c0-1.5,0.8-2.4,2.8-3.3c-1-1.1-1.2-1.5-1.2-2.2c0-1.5,1.2-2.4,3-2.4c1.7,0,2.8,0.9,2.8,2.3
			c0,0.8-0.3,1.5-0.9,1.9c-0.3,0.3-0.6,0.4-1.2,0.7l2.9,2.6c0.3-0.5,0.3-1,0.4-1.7H314.3L314.3,428.3z"/>
		<polygon class="st1" points="336.2,433.6 333.1,424.5 330,433.6 328.1,433.6 324.3,422.6 326.3,422.6 329.1,431.7 332.2,422.6 
			334.1,422.6 337.2,431.7 340.1,422.6 341.8,422.6 338.1,433.6 		"/>
		<polygon class="st1" points="344.9,433.6 344.9,422.6 353.9,422.6 353.9,424.2 346.6,424.2 346.6,427.2 353.5,427.2 353.5,428.7 
			346.6,428.7 346.6,432.1 354,432.1 354,433.6 		"/>
		<polygon class="st1" points="357.9,433.6 357.9,422.6 359.6,422.6 359.6,432.1 366.4,432.1 366.4,433.6 		"/>
		<polygon class="st1" points="369.9,433.6 369.9,422.6 371.5,422.6 371.5,432.1 378.4,432.1 378.4,433.6 		"/>
		<polygon class="st1" points="390.9,433.6 383.5,424.7 383.5,433.6 381.8,433.6 381.8,422.6 383.9,422.6 391.2,431.5 391.2,422.6 
			392.9,422.6 392.9,433.6 		"/>
		<polygon class="st1" points="397.2,433.6 397.2,422.6 406.2,422.6 406.2,424.2 399,424.2 399,427.2 405.8,427.2 405.8,428.7 
			399,428.7 399,432.1 406.4,432.1 406.4,433.6 		"/>
		<path class="st1" d="M417.7,425.8c-0.1-0.7-0.2-1-0.7-1.4c-0.6-0.4-1.3-0.7-2.4-0.7c-1.8,0-3,0.7-3,1.7c0,0.4,0.3,0.8,0.7,1.1
			c0.3,0.2,0.7,0.3,1.7,0.5l2.3,0.4c1.2,0.2,1.8,0.4,2.4,0.8c0.6,0.5,1,1.2,1,2.1c0,1.1-0.6,2.1-1.7,2.8c-0.9,0.5-1.9,0.7-3.3,0.7
			c-2.1,0-3.6-0.5-4.4-1.5c-0.6-0.7-0.8-1.3-0.8-2.5h1.7c0,0.8,0.2,1.3,0.6,1.7c0.6,0.6,1.6,0.8,2.8,0.8c1.9,0,3-0.7,3-1.9
			c0-0.8-0.6-1.2-2-1.5l-2.1-0.3c-1-0.2-1.9-0.4-2.5-0.7c-0.9-0.4-1.5-1.4-1.5-2.4c0-2.1,1.7-3.3,4.6-3.3c1.5,0,2.7,0.3,3.5,0.9
			c0.8,0.6,1.1,1.3,1.2,2.6H417.7z"/>
		<path class="st1" d="M431.1,425.8c-0.1-0.7-0.2-1-0.7-1.4c-0.6-0.4-1.3-0.7-2.4-0.7c-1.8,0-3,0.7-3,1.7c0,0.4,0.3,0.8,0.7,1.1
			c0.3,0.2,0.7,0.3,1.7,0.5l2.3,0.4c1.2,0.2,1.8,0.4,2.4,0.8c0.6,0.5,1,1.2,1,2.1c0,1.1-0.6,2.1-1.7,2.8c-0.9,0.5-1.9,0.7-3.3,0.7
			c-2.1,0-3.6-0.5-4.4-1.5c-0.6-0.7-0.8-1.3-0.8-2.5h1.7c0,0.8,0.2,1.3,0.6,1.7c0.6,0.6,1.6,0.8,2.8,0.8c1.9,0,3-0.7,3-1.9
			c0-0.8-0.6-1.2-2-1.5l-2.1-0.3c-1-0.2-1.9-0.4-2.5-0.7c-0.9-0.4-1.5-1.4-1.5-2.4c0-2.1,1.7-3.3,4.6-3.3c1.5,0,2.7,0.3,3.5,0.9
			c0.8,0.6,1.1,1.3,1.2,2.6H431.1z"/>
	</g>
	<g>
		<path class="st1" d="M316.6,190.8l8-10.5c0,0-4.7,8.7-5,11L316.6,190.8z M313.7,178.4l0.4,12.2c0,0-2.5-0.6-4.5-0.6L313.7,178.4z
			 M299.9,189.6l2.2-12.4l2.7,12.2L299.9,189.6z M290.7,178.4l-0.3,12.2c0,0,2.5-0.6,4.5-0.6L290.7,178.4z M287.5,190.8l-8-10.5
			c0,0,4.7,8.7,5,11L287.5,190.8z M311.5,166.4c0-2.7,2.2-4.8,4.8-4.8c2.7,0,4.8,2.2,4.8,4.8c0,2.5-1.9,4.6-4.3,4.8l1.2,12.6
			c0,0,4-5.7,7.5-9.1c-0.7-0.8-1.1-1.9-1.1-3.1c0-2.7,2.2-4.8,4.8-4.8c2.7,0,4.8,2.2,4.8,4.8c0,2.5-1.9,4.6-4.4,4.8
			c-1.8,3.7-7.6,15.7-8.2,20.6c0,0-9.5-2.2-19.5-2.2c-11.7,0-19.8,2.2-19.8,2.2c-0.5-5-6.2-17-7.9-20.6h-0.5c-2.7,0-4.8-2.2-4.8-4.8
			c0-2.7,2.2-4.8,4.8-4.8s4.8,2.2,4.8,4.8c0,0.9-0.2,1.8-0.7,2.5c3.6,3.3,8.1,9.7,8.1,9.7l1.3-12.8c-2.2-0.4-3.8-2.4-3.8-4.7
			c0-2.7,2.2-4.8,4.8-4.8s4.8,2.2,4.8,4.8c0,1.5-0.7,2.9-1.8,3.8l5.6,12.7l3.2-14.7c-1.2-0.8-2.2-2.3-2.2-4c0-2.7,2.2-4.8,4.8-4.8
			s4.8,2.2,4.8,4.8c0,2.2-1.4,4-3.4,4.7l3.1,14l5.7-13C312.1,168.9,311.5,167.7,311.5,166.4"/>
		<path class="st1" d="M291.5,202.7l1.5-0.2c0.4,0,0.7,0.3,0.7,0.7v0.7c0,0.4-0.3,0.7-0.7,0.7h-1.5c-0.4,0-0.7-0.3-0.7-0.7v-0.5
			C290.8,203,291.1,202.7,291.5,202.7 M311.5,202.5l1.5,0.2c0.4,0,0.7,0.3,0.7,0.7v0.5c0,0.4-0.3,0.7-0.7,0.7h-1.5
			c-0.4,0-0.7-0.3-0.7-0.7v-0.7C310.8,202.8,311.1,202.5,311.5,202.5 M304.5,201.8l1.5,0.2c0.4,0,0.7,0.3,0.7,0.7v1.2
			c0,0.4-0.3,0.7-0.7,0.7h-1.5c-0.4,0-0.7-0.3-0.7-0.7v-1.3C303.9,202.1,304.1,201.8,304.5,201.8 M298.5,202l1.5-0.2
			c0.4,0,0.7,0.3,0.7,0.7v1.4c0,0.4-0.3,0.7-0.7,0.7h-1.5c-0.4,0-0.7-0.3-0.7-0.7v-1.2C297.8,202.3,298.1,202,298.5,202 M286,208.7
			c0,0-1.7,0.2-1.7-1.6c0-1.9,1.9-1.7,1.9-1.7s1-0.7-0.7-1.7c-1.7-0.9-2.4-1-2.5-2.7c0,0,7.2-3.9,18.6-3.9h0.7
			c11.1,0,19.2,3.9,19.2,3.9c-0.1,1.6-0.7,1.7-2.5,2.7c-1.7,0.9-0.7,1.7-0.7,1.7s1.8-0.2,1.8,1.7c0,1.9-1.7,1.6-1.7,1.6h-16.1h-0.7
			H286z"/>
		<path class="st1" d="M246.4,241.5c-1-1.9,0.3,20.4-14.6,35.9l3.2,5.4c0,0,11.1-10.8,12.7-35.7
			C247.6,247.2,247.4,243.4,246.4,241.5"/>
		<path class="st1" d="M250.5,247.4c-1.1-1.8,0.9,23-13.2,39.3l3.4,5.2c0,0,10.9-13.2,11.2-38.1C252,253.7,251.6,249.3,250.5,247.4"
			/>
		<path class="st1" d="M318.8,262.5h-4.3v21.7h4c4.1,0,5.4-2.7,5.4-11.2C323.8,264.8,322.7,262.5,318.8,262.5"/>
		<path class="st1" d="M345.3,249.9c-25.9,0.9-34.6-13.9-34.6-13.9l2.1-2.6c14.7,16.4,31.3,13.1,31.3,13.1
			c-19.1-2.7-27.8-17.1-27.8-17.1l2.7-5l2.7,4.2c27.6,29.9,48.4,8.7,48.4,8.7C358.4,250.2,345.3,249.9,345.3,249.9 M321,287.6h-6.6
			V303c0,1.9,0,3.2,0.5,3.7c0.2,0.2,0.5,0.3,0.9,0.3h1.9v3.3h-12.1V307h1.9c0.4,0,0.7-0.1,0.9-0.3c0.5-0.5,0.5-1.8,0.5-3.7v-0.8
			v-35.3c0-1.8,0-3.2-0.5-3.7c-0.2-0.2-0.5-0.3-0.9-0.3h-1.9v-3.2h15.4c7.1,0,8.3,4.6,8.3,13.5C329.4,283.6,327.1,287.6,321,287.6
			 M299.1,242.1V338c-6.7-1.8-33.1-20.4-33.1-23.6c0-0.2,0-61,0-61c38.4-6.2,49.4-35.9,49.4-35.9h2.7
			C312.6,232.1,299.1,242.1,299.1,242.1 M257.3,250c-0.2,0-0.4-2.4,0-2.2c9.1-1.8,35.7-6.1,49-30.1l4.3-0.2
			C310.8,217.4,303.9,243.5,257.3,250 M288.1,217.2h4.6c0,0-9.2,16.4-23.4,19.6C268,237,283.1,227.9,288.1,217.2 M302,217.2
			c0,0-5.3,14.5-27,21.9c-1.2,0.4,17.6-9.7,22.4-21.9H302z M364.1,223.5c0,0,3.7-0.6,4.8,2.7c0,0,3.3,7.6-8.7,12.7
			c0,0-5.2,2.1-7.9,0C352.3,239,349.9,226,364.1,223.5 M239.9,239.1c-2.2,2.2-7.9,0-7.9,0c-12.1-5.2-8.7-12.7-8.7-12.7
			c1.2-3.3,4.8-2.7,4.8-2.7C242.4,226.1,239.9,239.1,239.9,239.1 M365.4,219.2c-14.4,0-23.1,15.3-23.1,15.3
			C331,235.6,319,212,319,212h-34.4c-4.6,17.5-27.4,24.4-29.8,25.1l-0.7-1.2c0,0-8.5-18.8-25.1-17.6c0,0-14.2,1.2-10,17.2
			c0,0,3.3,12.2,19.1,15.6c-2,5.8-5.4,12.3-10.7,17.9l3,5.8c0,0,11.3-11.2,12.9-36.1c0,0,0.2-6.2-4.6-14.2c0,0,10.6,2,14.5,18.6
			c0,0,5.5,15.8-6.3,47.4l-2.5,5.4l4,4.1c0,0,10.5-24,10.2-45h0.6c1.2-0.1,2.3-0.2,3.5-0.4c-0.1,11.7-0.3,60.7-0.2,60.8
			c3.9,9.2,32.2,24.4,37,27.2l0.7-0.3c4.6-2.6,31.5-17.7,35.4-26.9c0.1-0.1-0.2-54.6-0.3-62.3h0.6c1.2,0,2.5,0,3.8-0.1l0.1,1.8
			c-0.3,21.1,10.1,44.6,10.1,44.6l3.7-3.6l-2.2-5.5c-6.2-17.2-7.7-29.7-7.2-37.8l2.2-0.2c-0.1,0.7,0,1.1,0,1.1c0.2,24.9,11,38,11,38
			l3.4-5.2c-9.9-11.5-11.6-26.6-12.2-34l2.7-0.3c2.5,22,12.1,30.5,12.1,30.5l3.2-5.2c-8.1-8.4-11.2-18.3-12.7-25.6
			c0,0,2.1-0.5,2.7-0.7c3.6,16.7,11.2,23.5,11.2,23.5l2.9-5.6c-5.3-5.6-8.7-12-10.7-17.8l-0.3-1.4c12.3-5.4,16.5-14.9,16.5-14.9
			C381.3,220.1,365.4,219.2,365.4,219.2"/>
		<path class="st1" d="M295.7,262.8h1.8v-3.3h-12v3.3h1.8c0.4,0,0.7,0.1,0.9,0.3c0.5,0.5,0.5,1.9,0.5,3.9v14.2h-12.1v-14.4
			c0-1.9,0-3.2,0.5-3.7c0.2-0.2,0.5-0.3,0.9-0.3h1.9v-3.3H268v3.3h1.9c0.4,0,0.7,0.1,0.9,0.3c0.5,0.5,0.5,1.9,0.5,3.9v35.1v0.7
			c0,1.9,0,3.3-0.5,3.9c-0.2,0.2-0.5,0.3-0.9,0.3H268v3.3h12.2v-3.3h-1.9c-0.4,0-0.7-0.1-0.9-0.2c-0.5-0.5-0.5-1.7-0.5-3.7v-18.5
			h12.1V303c0,2,0,3.4-0.5,3.9c-0.2,0.2-0.5,0.3-0.9,0.3h-1.8v3.3h12v-3.3h-1.9c-0.4,0-0.7-0.1-0.9-0.3c-0.5-0.5-0.5-1.8-0.5-3.7
			v-35.4v-0.8c0-1.8,0-3.2,0.5-3.7C294.9,263,295.3,262.8,295.7,262.8"/>
	</g>
</g>
</svg>
