<?xml version="1.0" encoding="utf-8"?>
<!-- Generator: Adobe Illustrator 26.3.1, SVG Export Plug-In . SVG Version: 6.00 Build 0)  -->
<svg version="1.1" id="Layer_1" xmlns="http://www.w3.org/2000/svg" xmlns:xlink="http://www.w3.org/1999/xlink" x="0px" y="0px"
	 viewBox="0 0 595.3 595.3" style="enable-background:new 0 0 595.3 595.3;" xml:space="preserve">
<style type="text/css">
	.st0{fill:#FFFFFF;}
	.st1{fill:#55C1EF;}
	.st2{fill:#243366;}
</style>
<path class="st0" d="M297.6,595.3L297.6,595.3C133.3,595.3,0,462,0,297.6l0,0C0,133.3,133.3,0,297.6,0l0,0
	C462,0,595.3,133.3,595.3,297.6l0,0C595.3,462,462,595.3,297.6,595.3z"/>
<g>
	<path class="st1" d="M405.5,308.8c0-18.2,0.2-36.5-0.1-54.6c-0.1-5.6,2.1-7.7,7.6-7.4c5,0.3,10.1,0,15.1,0.1c3,0.1,6,0.2,6.8,3.9
		c0.4,2.3,1.7,1.5,2.9,0.8c13.4-7.8,26.5-7.5,38.8,2.4c2.6,2.1,3.8-0.3,5.3-1.4c16.9-12.8,41.4-5.8,48.5,13.9
		c1.4,3.9,1.8,7.9,1.8,12c0,27.8,0,55.4,0,83.2c0,7.5-0.9,8.3-8.2,8.4c-4.8,0-9.7-0.2-14.5,0.1c-5.3,0.3-7.3-2-7.3-7.3
		c0.1-25.6,0.1-51.1,0-76.8c0-8.2-6.4-12.4-13.7-9.1c-4.3,1.9-4.9,5.5-4.9,9.6c0.1,25,0,50,0,75.1c0,8-0.5,8.5-8.7,8.5
		c-4.5,0-9,0-13.3,0c-7.3,0-8.1-0.8-8.1-8c-0.1-25.4-0.4-50.8,0.1-76.2c0.2-7.8-7.4-11.9-14.1-8.9c-4.2,2-4.7,5.6-4.7,9.8
		c0.1,25,0,50,0,75.1c0,7.6-0.5,8.2-8.4,8.2c-4.7,0-9.3-0.3-14,0.1c-5.3,0.4-7.3-1.8-7.2-7.1C405.7,344.8,405.5,326.8,405.5,308.8z"
		/>
	<path class="st2" d="M318.5,297.7c0,13.3,0,26.7,0,40.1c0,20.3-14.2,33.1-32.2,32.2c-10.5-0.4-21-0.2-31.4,0
		c-4.5,0.1-6.4-1.9-6.3-6.3c0.1-5.6,0.2-11.2,0-16.8c-0.2-4.7,1.7-6.7,6.4-6.6c8.9,0.1,17.8-0.2,26.7-0.4c3.2-0.1,6.4-0.3,6.4-4.7
		c0.1-4.7-3.1-4.9-6.7-5c-5.8-0.1-11.6,0.4-17.4-0.8c-14.9-3-24.5-13.9-24.9-29.1c-0.3-15.5,0-31-0.1-46.5c0-4.7,1.9-6.6,6.6-6.4
		c5.6,0.3,11.3,0.3,16.8,0c5.1-0.3,6.9,2.1,6.8,6.9c-0.1,12.8,0.2,25.6-0.1,38.3c-0.1,5.6,2.1,7.9,7.6,7.4c1.5-0.2,3.1-0.1,4.7,0
		c4.7,0.3,6.6-2,6.5-6.6c-0.1-13,0.1-26-0.1-39c-0.1-5.3,1.9-7.3,7.2-7.1c5.2,0.3,10.5,0.3,15.7,0c5.5-0.4,7.7,1.8,7.5,7.3
		C318.3,269.1,318.5,283.4,318.5,297.7z"/>
	<path class="st1" d="M377,324c0,13.2-0.2,26.3,0.1,39.6c0.1,5.5-1.8,7.9-7.3,7.6c-4.8-0.3-9.7-0.2-14.5,0c-5.5,0.3-7.6-2.1-7.6-7.6
		c0.2-26.8-0.1-53.5,0.2-80.3c0.1-5.1-1.2-7.2-6.4-6.4c-1.9,0.3-3.9,0-5.8,0c-3.4,0-5.1-1.8-5.1-5c-0.1-6.4-0.1-12.8,0-19.2
		c0-3.5,1.9-5.1,5.5-5.3c11.3-0.4,20-5.3,25.8-15.1c1.4-2.4,3.8-4.4,5.8-6.4c2.2-2.1,5.1-2.1,7.6-1.2c2.7,0.9,1.5,3.7,1.6,5.6
		c0.2,4,0.3,8.2,0,12.2c-0.3,3.9,1.4,5,5.1,4.9c12.1-0.3,11.5-1.3,11.5,11.7c0,3.9-0.2,7.8,0,11.6c0.3,4.6-1.8,6.1-6.3,6.1
		c-10,0-10,0.2-10,10.3C377,299.5,377,311.7,377,324z"/>
	<path class="st2" d="M228.1,315.9c0-12.2,0-24.5,0-36.6c0-1.5-0.1-3.1-0.2-4.7c-0.5-13.5-7.7-22.8-20.8-25.7c-14-3-28.1-1-42.3-1.3
		c-3-0.1-3.6,2.4-3.6,4.9c0,5.5,0.2,10.8-0.1,16.3c-0.3,5,1.8,7,6.8,6.8c8-0.3,15.9,0,23.8-0.1c4.2,0,5.9,2.1,5.9,6.1
		c0,3.9-1.8,5.6-5.7,5.6c-4.5-0.1-9-0.1-13.3,0c-15.2,0.4-26.8,9.5-29.3,24.5c-1.8,10.8-1.5,22.1-0.2,33.1
		c1.8,14.6,9.2,22.3,23.8,24.3c14.8,2.1,29.8,1.1,44.7,0.4c6.9-0.3,10.3-5.1,10.4-12.4C228.1,343.4,228.1,329.6,228.1,315.9z
		 M198.2,336.9c-0.1,3.9-2.2,6-6.3,6c-2,0-3.9,0-5.8,0c-4.7,0.1-7.3-2.1-7.1-7c0.1-2.5,0-5,0-7.5c0-0.5,0-1.2,0-1.7
		c-0.9-13.3,3.5-11.6,14.7-11.3c3,0.1,4.4,2.9,4.5,5.8C198.3,326.5,198.3,331.7,198.2,336.9z"/>
	<path class="st2" d="M141.1,273.9c-0.7-17.5-13.8-27.2-29.5-26.6c-13.7,0.5-27.5,0.4-41.3,0c-5.8-0.2-7.3,2.1-7.3,7.3
		c0.2,17.8,0.1,35.6,0.1,53.5c0,17.6,0,35.3,0,52.9c0,8.8,0.1,8.9,8.6,8.9c4.8,0,9.7-0.2,14.5,0c4.7,0.2,6.7-1.8,6.6-6.5
		c-0.2-8.7,0.1-17.5-0.1-26.2c-0.1-2.8,0.7-3.8,3.6-3.6c5.6,0.2,11.3,0.2,16.8,0c15.6-0.4,26-9.7,27.6-25
		C142,297.2,141.5,285.5,141.1,273.9z M111.3,290.5c0,3.2-0.3,5.8-0.8,7.9c-1.7,6.2-6.2,7.3-15.7,5.3c-2.3-0.5-2.1-1.9-2.1-3.3
		c0-6.5,0-13.2,0-19.7c0-1.1-0.3-2.9,1-3c4.7-0.5,9.7-1.3,14.3,0.4c4,1.4,3.1,5.2,3.2,8.4C111.3,287.7,111.3,289,111.3,290.5z"/>
</g>
</svg>
