<?xml version="1.0" encoding="utf-8"?>
<!-- Generator: Adobe Illustrator 26.3.1, SVG Export Plug-In . SVG Version: 6.00 Build 0)  -->
<svg version="1.1" id="Layer_1" xmlns="http://www.w3.org/2000/svg" xmlns:xlink="http://www.w3.org/1999/xlink" x="0px" y="0px"
	 viewBox="0 0 595.3 595.3" style="enable-background:new 0 0 595.3 595.3;" xml:space="preserve">
<style type="text/css">
	.st0{fill:#FFFFFF;}
	.st1{fill:#55C1EF;}
	.st2{fill:#243366;}
</style>
<path class="st0" d="M297.6,595.3L297.6,595.3C133.3,595.3,0,462,0,297.6v0C0,133.3,133.3,0,297.6,0h0
	C462,0,595.3,133.3,595.3,297.6v0C595.3,462,462,595.3,297.6,595.3z"/>
<g>
	<path class="st1" d="M418,310.1c0-20.3,0.2-40.7-0.1-61c-0.1-6.3,2.4-8.6,8.5-8.3c5.6,0.3,11.3,0,16.9,0.1c3.3,0.1,6.7,0.2,7.6,4.4
		c0.5,2.6,1.9,1.7,3.2,0.9c15-8.7,29.6-8.4,43.3,2.7c2.9,2.4,4.2-0.3,5.9-1.6c18.9-14.3,46.2-6.5,54.2,15.5c1.6,4.3,2,8.8,2,13.4
		c0,31,0,61.9,0,92.9c0,8.4-1,9.3-9.2,9.4c-5.4,0-10.8-0.2-16.2,0.1c-5.9,0.3-8.1-2.2-8.1-8.1c0.1-28.6,0.1-57.1,0-85.7
		c0-9.1-7.2-13.8-15.3-10.2c-4.8,2.1-5.5,6.1-5.5,10.7c0.1,27.9,0,55.8,0,83.8c0,8.9-0.6,9.5-9.7,9.5c-5,0-10,0-14.9,0
		c-8.1,0-9-0.9-9-8.9c-0.1-28.4-0.5-56.7,0.1-85.1c0.2-8.7-8.3-13.3-15.7-9.9c-4.7,2.2-5.3,6.3-5.3,10.9c0.1,27.9,0,55.8,0,83.8
		c0,8.5-0.6,9.1-9.4,9.1c-5.2,0-10.4-0.3-15.6,0.1c-5.9,0.4-8.1-2-8-7.9C418.2,350.3,418,330.2,418,310.1z"/>
	<path class="st2" d="M320.9,297.7c0,14.9,0,29.8,0,44.8c0,22.7-15.8,36.9-35.9,36c-11.7-0.5-23.4-0.2-35,0c-5,0.1-7.1-2.1-7-7
		c0.1-6.3,0.2-12.5,0-18.8c-0.2-5.2,1.9-7.5,7.2-7.4c9.9,0.1,19.9-0.2,29.8-0.4c3.6-0.1,7.2-0.3,7.2-5.3c0.1-5.3-3.5-5.5-7.5-5.6
		c-6.5-0.1-12.9,0.4-19.4-0.9c-16.6-3.4-27.4-15.5-27.8-32.5c-0.3-17.3,0-34.6-0.1-51.9c0-5.3,2.1-7.4,7.4-7.2
		c6.3,0.3,12.6,0.3,18.8,0c5.7-0.3,7.7,2.4,7.6,7.7c-0.1,14.3,0.2,28.6-0.1,42.8c-0.1,6.3,2.4,8.8,8.5,8.3c1.7-0.2,3.5-0.1,5.2,0
		c5.3,0.3,7.4-2.2,7.3-7.4c-0.1-14.5,0.1-29-0.1-43.5c-0.1-5.9,2.1-8.2,8-7.9c5.8,0.3,11.7,0.3,17.5,0c6.1-0.4,8.6,2,8.4,8.2
		C320.7,265.7,320.9,281.7,320.9,297.7z"/>
	<path class="st1" d="M386.2,327c0,14.7-0.2,29.4,0.1,44.2c0.1,6.1-2,8.8-8.2,8.5c-5.4-0.3-10.8-0.2-16.2,0
		c-6.1,0.3-8.5-2.3-8.5-8.5c0.2-29.9-0.1-59.7,0.2-89.6c0.1-5.7-1.3-8-7.2-7.1c-2.1,0.3-4.3,0-6.5,0c-3.8,0-5.7-2-5.7-5.6
		c-0.1-7.1-0.1-14.3,0-21.4c0-3.9,2.1-5.7,6.1-5.9c12.6-0.5,22.3-5.9,28.8-16.9c1.6-2.7,4.2-4.9,6.5-7.2c2.5-2.4,5.7-2.3,8.5-1.3
		c3,1,1.7,4.1,1.8,6.3c0.2,4.5,0.3,9.1,0,13.6c-0.3,4.4,1.6,5.6,5.7,5.5c13.5-0.3,12.8-1.4,12.8,13.1c0,4.3-0.2,8.7,0,13
		c0.3,5.1-2,6.8-7,6.8c-11.2,0-11.2,0.2-11.2,11.5C386.2,299.7,386.2,313.3,386.2,327z"/>
	<path class="st2" d="M219.9,318c0-13.6,0-27.3,0-40.9c0-1.7-0.1-3.5-0.2-5.2c-0.6-15.1-8.6-25.5-23.2-28.7
		c-15.6-3.4-31.4-1.1-47.2-1.4c-3.4-0.1-4,2.7-4,5.5c0,6.1,0.2,12.1-0.1,18.2c-0.3,5.6,2,7.8,7.6,7.6c8.9-0.3,17.7,0,26.6-0.1
		c4.7,0,6.6,2.4,6.6,6.8c0,4.3-2,6.3-6.4,6.2c-5-0.1-10-0.1-14.9,0c-17,0.4-29.9,10.6-32.7,27.4c-2,12.1-1.7,24.7-0.2,36.9
		c2,16.3,10.3,24.9,26.6,27.1c16.5,2.3,33.3,1.2,49.9,0.5c7.7-0.3,11.5-5.7,11.6-13.8C220,348.7,219.9,333.3,219.9,318z
		 M186.6,341.4c-0.1,4.4-2.5,6.7-7,6.7c-2.2,0-4.3,0-6.5,0c-5.3,0.1-8.1-2.3-7.9-7.8c0.1-2.8,0-5.6,0-8.4c0-0.6,0-1.3,0-1.9
		c-1-14.9,3.9-13,16.4-12.6c3.4,0.1,4.9,3.2,5,6.5C186.7,329.8,186.7,335.6,186.6,341.4z"/>
	<path class="st2" d="M122.8,271.1c-0.8-19.5-15.4-30.4-32.9-29.7c-15.3,0.6-30.7,0.4-46.1,0c-6.5-0.2-8.2,2.3-8.1,8.2
		c0.2,19.9,0.1,39.8,0.1,59.7c0,19.7,0,39.4,0,59.1c0,9.8,0.1,9.9,9.6,9.9c5.4,0,10.8-0.2,16.2,0c5.2,0.2,7.5-2,7.4-7.3
		c-0.2-9.7,0.1-19.5-0.1-29.2c-0.1-3.1,0.8-4.2,4-4c6.3,0.2,12.6,0.2,18.8,0c17.4-0.5,29-10.8,30.8-27.9
		C123.8,297.1,123.3,284.1,122.8,271.1z M89.6,289.6c0,3.6-0.3,6.5-0.9,8.8c-1.9,6.9-6.9,8.2-17.5,5.9c-2.6-0.6-2.3-2.1-2.3-3.7
		c0-7.3,0-14.7,0-22c0-1.2-0.3-3.2,1.1-3.4c5.3-0.6,10.8-1.4,16,0.5c4.5,1.6,3.5,5.8,3.6,9.4C89.6,286.5,89.6,288,89.6,289.6z"/>
</g>
</svg>
