<?xml version="1.0" encoding="utf-8"?>
<!-- Generator: Adobe Illustrator 26.3.1, SVG Export Plug-In . SVG Version: 6.00 Build 0)  -->
<svg version="1.1" id="Layer_1" xmlns="http://www.w3.org/2000/svg" xmlns:xlink="http://www.w3.org/1999/xlink" x="0px" y="0px"
	 viewBox="0 0 595.3 595.3" style="enable-background:new 0 0 595.3 595.3;" xml:space="preserve">
<style type="text/css">
	.st0{fill:#FFFFFF;}
	.st1{fill:#F37435;}
</style>
<path class="st0" d="M297.6,595.3L297.6,595.3C133.3,595.3,0,462,0,297.6l0,0C0,133.3,133.3,0,297.6,0l0,0
	C462,0,595.3,133.3,595.3,297.6l0,0C595.3,462,462,595.3,297.6,595.3z"/>
<g>
	<path class="st1" d="M129.2,245c2.6-6.9,2.6-14.8,3.9-22.1C146.6,152.5,206,97.4,277.2,89.5c93.8-10.4,175.4,53,187.6,145.9
		c9.1,70.3-30.8,142-96,171.5c-5.6,2.6-9.6,2.6-14.3-2.2c-15.6-16.1-31.7-31.7-47.3-47.8c-1.7-1.7-4.8-3-3.5-6.1
		c0.9-3,4.3-2.2,6.5-2.6c49.5-8.7,82.9-46.9,82.5-94.7c-0.4-49.5-37.3-89-90.8-92.5c-45.6-3-86.4,27.4-96.4,74.3
		c-6.9,33,1.7,61.7,25.6,86c43,43.4,86.4,86.8,129.8,130.3c4.3,4.3,5.6,7.4,0.4,12.2c-13.5,13-26.5,26.1-39.5,39.5
		c-5.2,5.2-8.7,4.3-13-0.4c-44.3-44.3-89-88.1-132.4-132.4c-26.1-26.9-40.8-59.5-45.2-96.8c-0.4-3-1.3-6.1-2.2-9.1
		C129.2,257.6,129.2,251.1,129.2,245z"/>
	<path class="st1" d="M298.5,189.4c36.5,0,65.6,29.1,66.4,65.1c0.4,35.6-30.4,66-66.9,66c-35.6-0.4-66.4-30.8-65.6-66
		C232.5,218.5,262.1,189.4,298.5,189.4z"/>
</g>
</svg>
