<?xml version="1.0" encoding="utf-8"?>
<!-- Generator: Adobe Illustrator 26.3.1, SVG Export Plug-In . SVG Version: 6.00 Build 0)  -->
<svg version="1.1" id="Layer_1" xmlns="http://www.w3.org/2000/svg" xmlns:xlink="http://www.w3.org/1999/xlink" x="0px" y="0px"
	 viewBox="0 0 595.3 595.3" style="enable-background:new 0 0 595.3 595.3;" xml:space="preserve">
<style type="text/css">
	.st0{fill:#FFFFFF;}
	.st1{fill:#F37435;}
	.st2{fill:#4F4E4E;}
</style>
<path class="st0" d="M297.6,595.3L297.6,595.3C133.3,595.3,0,462,0,297.6v0C0,133.3,133.3,0,297.6,0h0
	C462,0,595.3,133.3,595.3,297.6v0C595.3,462,462,595.3,297.6,595.3z"/>
<g id="CVYI2b.tif_00000090296475431964234690000017661601339449945999_">
	<g>
		<path class="st1" d="M35.6,285.4c0.6-1.6,0.6-3.4,0.9-5.1c3.1-16.2,16.8-28.9,33.2-30.7c21.6-2.4,40.4,12.2,43.2,33.6
			c2.1,16.2-7.1,32.7-22.1,39.5c-1.3,0.6-2.2,0.6-3.3-0.5c-3.6-3.7-7.3-7.3-10.9-11c-0.4-0.4-1.1-0.7-0.8-1.4c0.2-0.7,1-0.5,1.5-0.6
			c11.4-2,19.1-10.8,19-21.8c-0.1-11.4-8.6-20.5-20.9-21.3c-10.5-0.7-19.9,6.3-22.2,17.1c-1.6,7.6,0.4,14.2,5.9,19.8
			c9.9,10,19.9,20,29.9,30c1,1,1.3,1.7,0.1,2.8c-3.1,3-6.1,6-9.1,9.1c-1.2,1.2-2,1-3-0.1c-10.2-10.2-20.5-20.3-30.5-30.5
			c-6-6.2-9.4-13.7-10.4-22.3c-0.1-0.7-0.3-1.4-0.5-2.1C35.6,288.3,35.6,286.8,35.6,285.4z"/>
		<path class="st2" d="M301.6,321.7c-0.8-0.2-1.2,0.3-1.7,0.5c-18.8,9.7-37.5-4.2-40-20.7c-1.9-12.6,2.2-22.9,12.9-30
			c8.8-5.9,18.2-5.8,27.6-0.9c1.5,0.8,2.2,1,3.2-0.6c1.3-2.3,3.7-3,6.3-2.6c2.5,0.4,4.2,2,4.9,4.4c0.3,0.9,0.4,2,0.4,3
			c0,14.3,0.1,28.6,0,42.9c-0.1,13.3-9.5,24.6-22.4,27.2c-6,1.2-11.9,0.5-17.4-2.4c-3.2-1.7-4.5-5.1-3.1-8.3
			c1.4-3.2,4.8-4.7,8.2-3.4c2.3,0.9,4.6,1.6,7.2,1.6c6.1,0,11.9-4,13.9-9.8C301.5,322.4,301.5,322,301.6,321.7z M287.7,312.4
			c1.6,0.1,3.6-0.2,5.5-1.1c9.9-4.6,12.2-18.7,4.4-26.8c-5.3-5.5-13.2-6.1-19.1-1.3c-3.5,2.8-5.4,6.4-6.1,10.7
			C270.8,303.6,277.8,312.4,287.7,312.4z"/>
		<path class="st1" d="M520.7,321.2c-4,2.2-7.8,3.6-12,4c-7.3,0.7-13.8-1.3-19.5-6c-15.4-12.7-14.1-36.2,1.8-47.2
			c9-6.2,18.6-6.3,28.3-1.3c1.5,0.8,2.1,0.8,3.1-0.7c1.6-2.4,4.7-3.3,7.2-2.5c2.6,0.8,4.2,3.1,4.2,6.2c0,15.3,0.1,30.6,0,45.9
			c-0.1,12.4-11.8,24.4-24.2,25.5c-5.4,0.5-10.5-0.2-15.3-2.6c-4.7-2.4-5.1-8.2-0.9-11.1c2.3-1.6,4.6-1.1,7.1-0.2
			c5.2,1.9,10.1,1.8,14.7-1.7C517.7,327.5,519.7,325,520.7,321.2z M521,296.4c0.1-2.1-0.1-4.2-0.9-6.2c-2.2-5.4-5.8-9.2-11.8-10.1
			c-5.6-0.9-10,1.3-13.4,5.5c-3.2,3.9-4,8.4-3.6,13.3c0.5,5.6,4.8,11.4,10,12.9c6,1.7,11.5,0.7,15.8-4.1
			C519.9,304.5,521.2,300.7,521,296.4z"/>
		<path class="st1" d="M353.5,306.9c0-10.4,0-20.9,0-31.3c0-2.1,0.1-4.2,1.6-6c2.8-3.3,7.6-3.1,10.3,0.5c1,1.3,1.6,1.4,2.9,0.7
			c20.6-10.9,41.7,5.2,41.5,25.7c-0.1,14-10,25.7-23.8,27.9c-6,1-11.9,0.2-17.4-2.9c-2.1-1.2-2.1-1.2-2.1,1.3c0,5.3,0,10.6,0,15.9
			c0,4.6-2.2,7.2-6.2,7.3c-4.4,0.1-6.8-2.4-6.9-7.1C353.5,328.2,353.5,317.6,353.5,306.9z M396.8,296.2c0-11.1-9.4-18.5-19.6-15.4
			c-7.3,2.2-11.7,10.6-10.3,19c1.1,6.8,9.3,14.5,18.5,12C392,310,396.8,303.6,396.8,296.2z"/>
		<path class="st2" d="M134.8,306.7c0-10.7,0-21.3,0-32c0-4,1.4-6.2,4.4-7.2c2.9-0.9,5.7,0.1,7.8,3.2c0.9,1.2,1.5,0.5,2.2,0.1
			c5.9-3.2,12.2-4.3,18.8-3.1c11.8,2.2,21,12.1,22.8,24.5c1.9,13.3-5.9,26.5-18.5,31c-7.5,2.6-15.1,2.2-22.2-1.6
			c-1.8-1-2.1-0.4-2.1,1.3c0,5.2,0,10.3,0,15.5c0,1.3-0.1,2.6-0.6,3.8c-1.3,3.1-4.2,4.5-8,3.8c-2.5-0.5-4.6-3.2-4.6-6.1
			c0-5.5,0-11,0-16.6C134.8,317.8,134.8,312.2,134.8,306.7z M148,296.5c0,0.5,0,1,0,1.5c0.3,8.6,8.5,15.3,17.1,13.9
			c6.8-1.1,11.9-6.4,12.8-13.8c1.3-10.8-7.7-20.7-19.3-17.4C152.1,282.6,148,288.8,148,296.5z"/>
		<path class="st2" d="M230.8,300.3c-5.7,0-11.4,0-17,0c-2.3,0-2.5,0.2-1.6,2.4c2.6,6.7,8.1,9.4,14.8,10c4.1,0.4,8-0.6,11.3-3.2
			c1-0.8,2.1-1.3,3.4-1.5c2.9-0.4,5.2,0.7,6.3,3.2c1,2.2,0.5,4.6-1.6,6.5c-4.2,3.8-9.1,6-14.6,6.8c-13.6,1.8-24.7-3.3-31-16
			c-8.2-16.7,2-37.2,20-40.8c16.9-3.3,33.2,9.7,33.2,26.5c0,3.9-2.1,6.1-6,6.1C242.2,300.3,236.5,300.3,230.8,300.3
			C230.8,300.3,230.8,300.3,230.8,300.3z M226.7,290.1c4.7,0,9.5,0,14.2,0c1.5,0,1.8-0.5,1.2-1.8c-1-2-2.6-3.7-4.3-5.2
			c-8.6-7.6-21.6-5.2-26,4.7c-0.9,2-0.7,2.3,1.4,2.3C217.7,290.2,222.2,290.1,226.7,290.1z"/>
		<path class="st1" d="M449.7,300.3c-5.5,0-11.1,0-16.6,0c-2.7,0-3,0.4-1.9,2.9c2.8,6.2,8,9,14.5,9.5c4.2,0.3,8.1-0.6,11.5-3.2
			c0.8-0.6,1.7-1.1,2.7-1.3c3-0.7,5.4,0.3,6.7,2.7c1.2,2.3,0.6,4.9-1.6,6.8c-4.3,3.8-9.4,6.1-15.1,6.7c-8.4,0.9-16.1-0.7-22.9-6.3
			c-11.6-9.6-13.6-28-4.2-39.9c5.6-7.1,12.9-11.1,22-11.1c15.3,0,25.5,10.6,27.8,23.3c1.1,6.4-0.5,10.3-8.4,9.9
			C459.3,300.1,454.5,300.3,449.7,300.3z M445.5,290.2c4.5,0,9,0,13.5,0c2.4,0,2.7-0.5,1.4-2.6c-2.3-3.7-5.6-6.2-9.7-7.8
			c-8.6-3.3-17.1,0.9-20.3,8.2c-0.9,2-0.7,2.2,1.5,2.2C436.5,290.2,441,290.2,445.5,290.2z"/>
		<path class="st1" d="M74.6,272.6c8.4,0,15.1,6.7,15.3,15c0.1,8.2-7,15.2-15.4,15.2c-8.2-0.1-15.3-7.1-15.1-15.2
			C59.4,279.3,66.2,272.6,74.6,272.6z"/>
		<path class="st2" d="M328,296.3c0-7.3,0-14.6,0-22c0-4.2,2.4-6.8,6.2-6.9c4-0.1,6.6,2.5,6.6,6.8c0.1,14.7,0.1,29.4,0,44.2
			c0,3.8-2.9,6.6-6.4,6.5c-3.6-0.1-6.3-2.8-6.3-6.6C328,310.9,328,303.6,328,296.3z"/>
		<path class="st1" d="M559.5,296.3c0,7.1,0,14.2,0,21.3c0,4.5-2.3,7.1-6.1,7.2c-3.8,0.1-6.6-2.8-6.6-7.1c-0.1-9.6,0-19.2,0-28.7
			c0-4.8-0.1-9.6,0-14.4c0.1-4.5,2.6-7.1,6.5-7.1c3.7,0,6.2,2.4,6.2,6.2C559.6,281.2,559.5,288.7,559.5,296.3
			C559.5,296.3,559.5,296.3,559.5,296.3z"/>
		<path class="st2" d="M328,256.5c-0.2-2.3,0.4-4.4,2.4-6c3.5-2.8,8.7-1.2,10.1,3.1c1.3,4.2-0.1,8.5-3.2,10.1
			c-4.2,2.1-9-0.7-9.2-5.5C328,257.7,328,257.2,328,256.5z"/>
		<path class="st1" d="M559.6,256.7c-0.1,1.1-0.1,2.2-0.4,3.2c-0.7,2.5-3.2,4.4-5.8,4.5c-2.4,0.1-5.1-1.6-6-3.9
			c-0.9-2.3-1-4.7-0.2-7c1-3,3.9-4.7,7-4.3c3.2,0.5,5.2,2.7,5.3,6.1C559.6,255.8,559.5,256.3,559.6,256.7
			C559.6,256.7,559.6,256.7,559.6,256.7z"/>
	</g>
</g>
</svg>
