<?xml version="1.0" encoding="utf-8"?>
<!-- Generator: Adobe Illustrator 26.3.1, SVG Export Plug-In . SVG Version: 6.00 Build 0)  -->
<svg version="1.1" id="Layer_1" xmlns="http://www.w3.org/2000/svg" xmlns:xlink="http://www.w3.org/1999/xlink" x="0px" y="0px"
	 viewBox="0 0 595.3 595.3" style="enable-background:new 0 0 595.3 595.3;" xml:space="preserve">
<style type="text/css">
	.st0{fill:#0077FF;}
	.st1{fill:#FFFFFF;}
</style>
<path class="st0" d="M297.6,595.3L297.6,595.3C133.3,595.3,0,462,0,297.6v0C0,133.3,133.3,0,297.6,0h0
	C462,0,595.3,133.3,595.3,297.6v0C595.3,462,462,595.3,297.6,595.3z"/>
<g>
	<path class="st1" d="M333.4,333.1c0,2.1,0.2,2.3,2.2,2.3c5.5,0,11,0,16.5,0c2.2,0,2.4-0.2,2.4-2.3c0-31.9,0-63.7,0-95.6
		c0-2.1-0.2-2.3-2.3-2.3c-5.3,0-10.7,0-16,0c-2.9,0-2.9,0-2.9,2.8c0,15.8,0,31.5,0,47.3C333.4,301.2,333.4,317.2,333.4,333.1z"/>
	<path class="st1" d="M370.1,335.4c5.3-0.1,10.5,0,15.8,0c2.4,0,2.4-0.1,2.4-2.4c0-10.8,0-21.6,0-32.5c0-10.9,0-21.9,0-32.8
		c0-2-0.1-2.2-2.2-2.2c-5.3,0-10.7,0-16,0c-2,0-2.2,0.2-2.2,2.1c0,21.9,0,43.7,0,65.6C368,334.8,368.5,335.4,370.1,335.4z"/>
	<path class="st1" d="M403.3,333c0,2.3,0.1,2.4,2.3,2.4c5.1,0,10.2,0,15.3,0c2.7,0,2.8,0,2.8-2.7c0-11.7-0.1-23.4,0-35.1
		c0-3.6,0-7.3,1.1-10.8c1.2-3.7,3.7-5.8,7.5-6.3c1.5-0.2,3.1-0.2,4.6,0c4.6,0.7,7.4,3.6,8,8.3c0.2,1.5,0.3,3.1,0.3,4.6
		c0,13.1,0,26.3,0,39.4c0,2.7,0,2.7,2.6,2.7c5,0,10,0,15,0c2.7,0,2.8,0,2.8-2.8c0-15.4,0-30.9,0-46.3c0-2.1-0.1-4.2-0.4-6.2
		c-1-7.7-5.2-12.7-12.6-14.9c-5.4-1.6-10.8-1.6-16.3-0.3c-3.5,0.8-6.8,2-9.6,4.4c-0.8,0.7-1.5,2.3-2.4,1.8c-0.8-0.4-0.3-2-0.3-3.1
		c-0.1-2-0.2-2.1-2.2-2.1c-5.3,0-10.7,0-16,0c-2.4,0-2.5,0.1-2.5,2.5c0,10.7,0,21.4,0,32.1C403.3,311.3,403.3,322.2,403.3,333z"/>
	<path class="st1" d="M378.8,258.8c6,0.1,11.1-4.8,11.2-10.9c0.1-6-4.8-11.1-10.9-11.1c-6.2-0.1-11,4.6-11.1,10.8
		C368,253.9,372.7,258.8,378.8,258.8z"/>
	<path class="st1" d="M487.4,331.9c8.5,6.2,18.2,7.6,28.4,6.2c12.4-1.7,21.4-8.5,28-18.9c0.6-1,0.3-1.4-0.6-1.9
		c-4.3-2.1-8.5-4.3-12.8-6.5c-1-0.5-1.6-0.4-2.1,0.6c-0.8,1.6-1.7,3.1-2.8,4.5c-4.4,5.7-12.5,8.1-19.8,5.9
		c-6-1.9-10.2-7.7-10.6-14.7c-0.1-2.3-0.1-2.4,2.3-2.4c7.5,0,15.1,0,22.6,0c7.7,0,15.4,0,23.1,0c2,0,2.2-0.2,2.2-2.2
		c-0.2-5.6-0.8-11.1-2.5-16.4c-3.5-10.8-10.4-18.2-21.3-21.5c-6-1.8-12.1-1.9-18.3-1c-11.4,1.7-19.9,7.7-24.8,18.2
		c-4.9,10.5-5.5,21.5-2.7,32.7C477.5,321.6,481.4,327.6,487.4,331.9z M495.6,290.3c1.9-9.7,11.2-14.9,20.3-11.3
		c5.8,2.3,7.5,6.9,8.1,11.8c0.2,1.2-0.8,1.1-1.6,1.1c-4.2,0-8.5,0-12.7,0c-4.2,0-8.5,0-12.7,0C495.8,292,495.3,291.6,495.6,290.3z"
		/>
	<path class="st1" d="M181.1,265.6c-5.3,0-10.7,0-16,0c-1.5,0-2.2,0.4-2.2,2c0,21.9,0,43.8,0,65.8c0,1.5,0.5,2.1,2,2
		c5.3-0.1,10.5,0,15.8,0c2.5,0,2.6-0.1,2.6-2.6c0-10.8,0-21.5,0-32.3c0-10.9,0-21.8,0-32.6C183.4,265.8,183.2,265.6,181.1,265.6z"/>
	<path class="st1" d="M553,272.3c3.8,0,6.7-2.8,6.7-6.6c0-3.8-3-6.9-6.7-6.8c-3.6,0-6.7,3.1-6.7,6.7
		C546.1,269.3,549.2,272.3,553,272.3z M553,259.8c3.1,0,5.7,2.8,5.7,5.9c0,3.1-2.8,5.9-5.8,5.8c-3.2,0-5.8-2.8-5.8-6
		C547.2,262.4,549.9,259.7,553,259.8z"/>
	<path class="st1" d="M113.8,333.2c0,2,0.2,2.2,2.1,2.2c5.2,0,10.4,0,15.7,0c2.5,0,2.6,0,2.6-2.6c0-12.5,0-24.9,0-37.4
		c0-6.4,2-8.9,8.2-10.5c3.1-0.8,6.3-1.3,9.6-1.7c1.5-0.2,2-0.8,2-2.3c-0.1-4.6,0-9.2,0-13.8c0-2-0.4-2.3-2.2-2
		c-1.8,0.3-3.7,0.7-5.5,1.1c-4.1,1-7.8,3-11.1,5.5c-0.3,0.3-0.7,0.7-1.2,0.4c-0.5-0.2-0.4-0.8-0.4-1.2c0-1.1-0.1-2.2,0-3.3
		c0.1-1.6-0.6-2.1-2.1-2.1c-5,0.1-10,0-15,0c-2.6,0-2.6,0.1-2.6,2.7c0,10.7,0,21.4,0,32.1C113.8,311.3,113.8,322.2,113.8,333.2z"/>
	<path class="st1" d="M173.3,258.8c6.1,0,11-5,11-11c0-6.1-4.9-10.9-11-10.9c-6.2,0-11,4.8-10.9,11
		C162.3,254,167.2,258.9,173.3,258.8z"/>
	<path class="st1" d="M37.8,360.1c5.4,0,10.9,0,16.3,0c2.1,0,2.2-0.1,2.2-2.3c0-8.1,0-16.2,0-24.2c0-0.7-0.4-1.6,0.4-2
		c0.6-0.3,1.2,0.4,1.7,0.7c5.1,3.2,10.6,5,16.7,4.7c10.6-0.4,18.7-5,23.8-14.3c5.8-10.6,6.7-22,4.3-33.8
		c-1.5-7.1-4.6-13.4-10.2-18.2c-6.8-6-14.9-7.6-23.7-6.6c-4.4,0.5-8.4,2-11.9,4.8c-1.1,0.8-2,1.8-3.4,3.1c0-1.8-0.1-3.1,0-4.4
		c0.1-1.5-0.5-2-2-2c-4.7,0.1-9.4,0-14.2,0c-2,0-2.2,0.1-2.2,2.1c0,30.1,0,60.1,0,90.2C35.6,359.9,35.8,360.1,37.8,360.1z
		 M55.5,298.1c0.2-3.7,0.8-7.4,2.4-10.9c0.7-1.6,1.6-3,2.7-4.3c6.4-7.2,16.8-5.7,21.1,3c1.8,3.7,2.7,8.4,2.7,14.1
		c0,5.5-0.8,10.8-3.7,15.7c-2.5,4.2-6.2,6.7-11.2,6.6c-5-0.1-8.8-2.6-11.2-7C55.6,309.8,55.2,304,55.5,298.1z"/>
	<path class="st1" d="M266.5,332.1c8.5,6,18.1,7.4,28.1,6c12.1-1.7,21.2-8.3,27.7-18.5c0.7-1.1,0.6-1.7-0.6-2.3
		c-3.8-1.9-7.6-3.8-11.3-5.8c-2.6-1.4-2.6-1.4-3.9,1.1c-5,9.2-13.5,11.5-21.8,9.2c-7-2-10-7.4-10.8-14.3c-0.3-2.7-0.2-2.8,2.5-2.8
		c7.5,0,14.9,0,22.4,0c7.7,0,15.4,0,23.1,0c2,0,2.2-0.2,2.1-2.2c-0.2-4.9-0.7-9.9-2-14.7c-2.6-9.4-7.7-16.8-16.7-21.2
		c-7.4-3.6-15.2-4.2-23.2-3.1c-11.7,1.6-20.2,7.7-25.2,18.4c-4.2,8.9-5.2,18.4-3.6,28C254.9,319.1,258.9,326.7,266.5,332.1z
		 M274.2,290.4c2-10.7,13.3-15.9,22.6-10.2c3.9,2.4,5.3,6.3,5.8,10.6c0.2,1.3-0.9,1.2-1.7,1.2c-4.2,0-8.3,0-12.5,0
		c-4.2,0-8.5,0-12.7,0C274.6,292,274,291.7,274.2,290.4z"/>
	<path class="st1" d="M215.3,336.5c11.4,3.9,22.3,2.7,32.4-4.1c3.4-2.3,3.4-2.4,0.8-5.5c-2.5-3.1-4.4-6.5-5.7-10.3
		c-0.1-0.4-0.2-1-0.6-1.1c-0.6-0.2-0.8,0.5-1.1,0.8c-0.3,0.3-0.5,0.6-0.7,0.9c-5.1,6.3-14.8,6.9-20.4,1c-4.6-4.8-5.9-10.9-6.1-15.8
		c0-6.8,1.4-12.2,3.8-16.1c2.6-4.2,6.3-6.7,11.4-6.6c5.6,0.1,9.7,2.8,12.5,7.5c0.2,0.3,0.3,0.9,0.9,0.8c0.4-0.1,0.4-0.6,0.6-0.9
		c1.6-4.9,4.2-9.3,7.6-13.2c0.9-1,0.7-1.6-0.3-2.3c-1.3-0.9-2.5-1.9-3.8-2.7c-7.1-4.3-14.8-5.7-23-4.8c-13.6,1.4-23.1,8.4-28.1,21.2
		c-2.7,6.8-3.2,13.9-2.7,21.2C193.8,320.7,202,331.9,215.3,336.5z"/>
	<path class="st1" d="M555.6,269.4l-1.9-3.1c0.3-0.1,0.5-0.3,0.7-0.5c0.2-0.2,0.3-0.5,0.4-0.8c0.1-0.3,0.1-0.6,0.1-0.9
		c0-0.4-0.1-0.7-0.2-1c-0.1-0.3-0.3-0.5-0.6-0.7c-0.2-0.2-0.5-0.4-0.9-0.5c-0.3-0.1-0.7-0.2-1.1-0.2h-2v7.7h1v-2.8h1.1
		c0.1,0,0.2,0,0.2,0l1.8,2.8H555.6z M552.3,265.6h-1.1v-2.9h1.2c0.3,0,0.5,0,0.7,0.1c0.2,0.1,0.3,0.2,0.5,0.4
		c0.1,0.1,0.2,0.3,0.3,0.5c0.1,0.2,0.1,0.3,0.1,0.5s0,0.3-0.1,0.5c0,0.2-0.1,0.3-0.2,0.5c-0.1,0.1-0.3,0.3-0.5,0.4
		C552.9,265.6,552.7,265.6,552.3,265.6z"/>
</g>
</svg>
