<?xml version="1.0" encoding="utf-8"?>
<!-- Generator: Adobe Illustrator 26.3.1, SVG Export Plug-In . SVG Version: 6.00 Build 0)  -->
<svg version="1.1" id="Layer_1" xmlns="http://www.w3.org/2000/svg" xmlns:xlink="http://www.w3.org/1999/xlink" x="0px" y="0px"
	 viewBox="0 0 595.3 595.3" style="enable-background:new 0 0 595.3 595.3;" xml:space="preserve">
<style type="text/css">
	.st0{fill:#FFFFFF;}
	.st1{fill:#ED0F69;}
	.st2{fill:#FCAF17;}
	.st3{fill:#60489D;}
	.st4{fill:#4AC0EE;}
</style>
<path class="st0" d="M297.6,595.3L297.6,595.3C133.3,595.3,0,462,0,297.6v0C0,133.3,133.3,0,297.6,0h0
	C462,0,595.3,133.3,595.3,297.6v0C595.3,462,462,595.3,297.6,595.3z"/>
<g>
	<g>
		<path class="st1" d="M66.3,297.9c-0.2,2.8-1.5,5-3.5,7c-5.6,5.5-11.1,10.9-16.7,16.4c-2.6,2.5-5.5,4.1-8.7,1.3
			c-3.3-2.9-1.5-5.8,0.8-8.5c3.9-4.5,7.6-9.1,11.6-13.5c2.1-2.3,2-4.1,0-6.3c-4.3-4.9-8.5-10-12.7-15.1c-1.7-2.1-2.1-4.5,0-6.7
			c2.2-2.3,5.1-2.4,7.2-0.3c6.8,6.5,13.4,13.2,20,20C65.9,293.7,66.2,295.9,66.3,297.9z"/>
		<path class="st2" d="M73.7,305.8c3.8,0.2,6.3,1.5,8.4,3.6c5.7,5.5,11.4,11.2,17,16.8c2.3,2.3,3.9,5.1,1,8
			c-2.8,2.8-5.7,1.4-8.2-0.6c-4.8-3.9-9.5-7.8-14.1-11.8c-2.3-2-4-2-6.4,0c-4.7,4.2-9.7,8.1-14.6,12.2c-2.3,1.9-4.8,2.6-7.2,0.4
			c-2.3-2.1-2.5-4.9-0.4-7.1c6.4-6.9,12.8-13.7,20.2-19.6C70.7,306.6,72.6,306.3,73.7,305.8z"/>
		<path class="st3" d="M83.5,297.5c-0.1-2.9,1.2-5.1,3.2-7c5.7-5.6,11.3-11.2,17-16.8c2.4-2.3,5-4,8.1-1.3c3.3,2.9,1.8,5.9-0.5,8.6
			c-3.7,4.4-7.4,8.7-11.3,12.9c-2.4,2.6-2.5,4.7,0,7.3c4,4.4,7.6,9.1,11.4,13.6c2.2,2.6,3.5,5.4,0.6,8.1c-2.8,2.6-5.8,1.4-8.2-0.9
			c-5.9-5.7-11.6-11.5-17.4-17.3C84.4,302.8,83.4,300.3,83.5,297.5z"/>
		<path class="st4" d="M74.6,289.1c-3-0.3-5.5-1.5-7.6-3.6c-5.4-5.4-10.8-10.7-16.2-16c-2.5-2.5-4.3-5.4-1.3-8.5
			c2.9-3,5.7-0.9,8.1,1.1c4.1,3.4,8.3,6.8,12.2,10.3c3.3,3,6.1,3.3,9.6,0c3.8-3.7,8-7.1,12.2-10.4c2.7-2.1,5.8-3.8,8.7-0.4
			c2.7,3.2,0.3,5.7-2,7.9c-5.4,5.4-10.8,10.7-16.2,16C80,287.6,77.7,289.2,74.6,289.1z"/>
	</g>
	<g>
		<path d="M144.3,297.2c0-8,0.2-15.9-0.1-23.9c-0.1-3.8,1.2-5.1,5-4.9c8.4,0.5,16.9-0.8,25.2,0.9c8.9,1.9,13.2,7.1,13.5,16.4
			c0.4,9.8-4,16.1-12.6,18.5c-5.7,1.6-11.5,1.1-17.2,0.9c-3.9-0.1-5.1,1.3-4.9,4.9c0.2,3.7-0.1,7.4,0.1,11c0.2,3.6-1.1,5.1-4.9,5
			c-3.9-0.1-4.3-2.1-4.2-5.1C144.4,313.2,144.3,305.2,144.3,297.2z M153.4,286.5c0,11.3,0,11.3,11.3,11.2c2.5,0,4.9-0.2,7.3-0.9
			c2.8-0.8,4.6-2.5,5.6-5.1c3.1-7.6-0.9-14.5-9.1-15.5C154.4,274.3,153.4,275,153.4,286.5z"/>
		<path d="M439.5,305c0,1.6,0,3.3,0,4.9c0,12.7-2.4,15.3-15.1,16.2c-4.3,0.3-8.6,0.4-12.8-0.8c-7.4-2.1-10.6-6.4-10.2-13.9
			c0.4-7.2,4.3-11.5,11.9-12.5c3.6-0.5,7.4-0.2,11.1-0.6c2.2-0.2,5.7,1.5,6.2-1.9c0.6-3.7-1.5-6.9-5.5-7.7c-3-0.6-6.1-0.3-9.2-0.5
			c-2.7-0.1-6.1,0.9-5.9-3.9c0.1-4.3,3.2-3.4,5.7-3.5c1,0,2.1,0,3.1,0c16.6,0,20.8,4.1,20.8,20.4C439.5,302.6,439.5,303.8,439.5,305
			z M430.7,311c1.2-4.8-1.1-6.3-5.9-5.8c-2.8,0.3-5.8-0.2-8.6,0.2c-4.7,0.7-7.2,5-5.6,9c1.7,4.3,8.1,6.2,15.3,5
			C431,318.6,431,315.1,430.7,311z"/>
		<path d="M518.4,305.3c-3.7,0-7.4,0.3-11.1-0.1c-4.7-0.4-4.6,1.9-3.4,5.1c1.7,4.9,5.1,7.9,10.4,8.3c3.7,0.2,7.4,0.2,11.1-0.3
			c3.3-0.4,3.9,1.6,4.6,3.8c0.8,2.6-1.1,3.3-3,3.5c-7.2,0.9-14.4,1.6-21.3-1.2c-5.7-2.3-9-6.9-10.5-12.7c-1.1-4.6-1.3-9.3-0.5-14
			c1.9-11.6,9.8-17.9,21.6-17c10.7,0.8,17.6,9,17.7,20.5c0,3.4-1.3,4.2-4.4,4.1C525.8,305.2,522.1,305.3,518.4,305.3z M513.6,299.1
			c1.4,0,2.9,0.3,4.3-0.1c2.3-0.6,6,2,6.7-1.7c0.6-3.2-1.5-6.2-4.5-8c-4.3-2.5-11-1.6-14,2c-1.6,1.9-3,4.3-2.1,6.6
			c0.9,2.3,3.6,0.9,5.5,1.1C510.7,299.2,512.1,299.1,513.6,299.1z"/>
		<path d="M310,305.3c-3.1,0-6.2,0-9.2,0c-6.2,0-7.1,1.6-4.2,7.1c4.3,7.9,11.9,6.7,19,6.2c2.6-0.2,4.7-0.6,5.9,2.6
			c1,2.5,0.5,3.6-2.1,4.4c-9.2,3-23.3,0.6-28.2-5.7c-6.9-8.7-6.6-18.7-2.8-28.4c3.5-9.1,13.9-12.9,24.4-9.8
			c7.9,2.3,14.1,12,13.2,20.6c-0.2,2.5-1.5,3-3.6,3C318.2,305.3,314.1,305.3,310,305.3z M306.1,299.1c1.4,0,2.9,0.2,4.3,0
			c2.1-0.3,5.2,1.4,6.1-1.1c0.9-2.8-0.9-5.5-3-7.6c-4.1-3.9-12.7-3-15.9,1.5c-1.3,1.8-2.8,4.1-1.9,6.2c1,2.2,3.6,0.8,5.5,1
			C302.8,299.2,304.4,299.1,306.1,299.1z"/>
		<path d="M466.8,316.6c4.8-11.3,8.9-21.2,13.1-31c0.5-1.3,1-2.9,2-3.7c2.1-1.7,4.9-1.5,7-0.4c2.7,1.4,0.5,3.7-0.2,5.3
			c-5,11.8-10.2,23.6-15,35.5c-1.4,3.4-3.5,3.9-6.6,3.9c-3.2-0.1-5.7-0.1-7.2-3.9c-4.7-11.9-10-23.7-15-35.5
			c-0.7-1.7-3.4-4.4,0.3-5.5c2.8-0.8,6.2-1.4,7.8,2.6c2.9,7.2,5.9,14.3,8.9,21.5C463.4,308.6,464.8,311.9,466.8,316.6z"/>
		<path d="M346.7,300.7c0-6.5-0.2-13.1,0.1-19.6c0.2-4.1-1.4-5.4-5.3-5.1c-3.3,0.3-6.6-0.1-9.9,0.1c-3,0.1-4-1.1-4-3.9
			c0-3,1.5-3.7,4.2-3.7c12.9,0.1,25.9,0.1,38.8,0c2.9,0,4.1,0.9,4.1,3.8c0,3-1.3,4.1-4.1,3.8c-0.4,0-0.8,0-1.2,0
			c-13.8,0.3-13.8,0.3-13.8,14.3c0,10.4-0.1,20.8,0.1,31.2c0,3.4-1.1,4.7-4.6,4.7c-3.6,0-4.6-1.4-4.5-4.8
			C346.9,314.5,346.7,307.6,346.7,300.7z"/>
		<path d="M272,326.1c-19.8,0-30.2-17.3-21.1-35c4-7.8,18.2-13,27.2-10.1c2.5,0.8,2.1,2.6,2.2,4.4c0.1,2-0.8,2.9-2.9,3
			c-3.5,0.1-7,0.1-10.4,0.8c-6.7,1.3-9.7,5.6-10,13.4c-0.2,8.6,2.7,13.6,9.4,15.2c2.8,0.6,5.7,0.6,8.6,0.8c2.5,0.2,5.5-0.8,5.4,3.6
			c0,4.2-2.6,3.9-5.3,3.9C274.1,326.1,273,326.1,272,326.1z"/>
		<path d="M541.4,292.4c0-5.9,0-11.8,0-17.8c0-2.9-0.9-6.2,4.2-6.3c5-0.1,4.5,3,4.5,6.1c0,11,0.2,22,0.1,33.1
			c0,5.1,0.8,9.4,6.8,10.6c3.6,0.8,2.6,3.7,2.4,6c-0.2,2.7-2.4,2.2-4.2,2c-8.9-0.7-13.3-5.2-13.8-14.1c0-0.4,0-0.8,0-1.2
			C541.4,304.7,541.4,298.6,541.4,292.4z"/>
		<path d="M194,310.3c0.2-4.1-0.2-9,0.7-13.8c2.5-12.9,14.1-15.7,23.2-15.5c2.9,0.1,3.1,1.9,3.2,4.2c0.1,2.3-0.9,3-3.2,3.4
			c-13.3,2-15.3,4.5-15.3,17.8c0,5.3-0.1,10.6,0,15.9c0.1,2.9-1.3,3.9-4.1,3.9c-2.9,0-4.8-0.6-4.6-4
			C194.1,318.5,194,314.8,194,310.3z"/>
		<path d="M373.7,311c0-3.3-0.2-6.5,0-9.8c0.8-13.3,9.2-20.7,22.7-20.2c2.7,0.1,4.2,0.7,4.3,3.7c0.1,3-1.3,3.6-4.1,3.9
			c-11.5,1.2-14.3,4.5-14.3,16.2c0,5.7-0.1,11.4,0,17.1c0.1,3.1-1.1,4.3-4.4,4.3c-3.2,0-4.5-1-4.4-4.2c0.2-3.7,0-7.3,0-11
			C373.7,311,373.7,311,373.7,311z"/>
		<path d="M230.5,303.5c0-6.1,0.1-12.2,0-18.4c0-2.7,0.8-4.2,3.9-4.2c2.8,0,4.9,0.3,4.9,3.8c0,12.7,0,25.3,0.1,38
			c0,3.3-2.1,3.3-4.6,3.4c-2.7,0.1-4.3-0.6-4.2-3.7C230.6,316.1,230.5,309.8,230.5,303.5z"/>
		<path d="M239.2,272.3c0.7,3.7-1.7,3.7-4.4,3.8c-2.9,0.1-4.4-0.5-4.4-3.9c0-3.6,1.8-3.8,4.5-3.8
			C237.7,268.4,239.9,268.7,239.2,272.3z"/>
	</g>
</g>
</svg>
