<?xml version="1.0" encoding="utf-8"?>
<!-- Generator: Adobe Illustrator 26.3.1, SVG Export Plug-In . SVG Version: 6.00 Build 0)  -->
<svg version="1.1" id="Layer_1" xmlns="http://www.w3.org/2000/svg" xmlns:xlink="http://www.w3.org/1999/xlink" x="0px" y="0px"
	 viewBox="0 0 595.3 595.3" style="enable-background:new 0 0 595.3 595.3;" xml:space="preserve">
<style type="text/css">
	.st0{fill:#FFFFFF;}
	.st1{fill:#ED0F69;}
	.st2{fill:#FCAF17;}
	.st3{fill:#60489D;}
	.st4{fill:#4AC0EE;}
</style>
<path class="st0" d="M297.6,595.3L297.6,595.3C133.3,595.3,0,462,0,297.6l0,0C0,133.3,133.3,0,297.6,0l0,0
	C462,0,595.3,133.3,595.3,297.6l0,0C595.3,462,462,595.3,297.6,595.3z"/>
<g>
	<path class="st1" d="M255.1,299c-1,14.2-7.6,25.4-17.8,35.6c-28.5,28-56.5,55.5-85,83.4c-13.2,12.7-28,20.9-44.3,6.6
		c-16.8-14.8-7.6-29.5,4.1-43.2c19.8-22.9,38.7-46.3,59-68.7c10.7-11.7,10.2-20.9,0-32.1c-21.9-24.9-43.2-50.9-64.6-76.8
		c-8.6-10.7-10.7-22.9,0-34.1c11.2-11.7,25.9-12.2,36.6-1.5c34.6,33.1,68.2,67.2,101.8,101.8C253.1,277.6,254.6,288.8,255.1,299z"/>
	<path class="st2" d="M292.8,339.2c19.3,1,32.1,7.6,42.7,18.3c29,28,58,57,86.5,85.5c11.7,11.7,19.8,25.9,5.1,40.7
		c-14.2,14.2-29,7.1-41.7-3.1c-24.4-19.8-48.3-39.7-71.7-60c-11.7-10.2-20.4-10.2-32.6,0c-23.9,21.4-49.4,41.2-74.3,62.1
		c-11.7,9.7-24.4,13.2-36.6,2c-11.7-10.7-12.7-24.9-2-36.1c32.6-35.1,65.1-69.7,102.8-99.7C277.5,343.3,287.2,341.7,292.8,339.2z"/>
	<path class="st3" d="M342.7,297c-0.5-14.8,6.1-25.9,16.3-35.6c29-28.5,57.5-57,86.5-85.5c12.2-11.7,25.4-20.4,41.2-6.6
		c16.8,14.8,9.2,30-2.5,43.8c-18.8,22.4-37.7,44.3-57.5,65.6c-12.2,13.2-12.7,23.9,0,37.1c20.4,22.4,38.7,46.3,58,69.2
		c11.2,13.2,17.8,27.5,3.1,41.2c-14.2,13.2-29.5,7.1-41.7-4.6c-30-29-59-58.5-88.5-88C347.2,323.9,342.1,311.2,342.7,297z"/>
	<path class="st4" d="M297.4,254.2c-15.3-1.5-28-7.6-38.7-18.3c-27.5-27.5-54.9-54.4-82.4-81.4c-12.7-12.7-21.9-27.5-6.6-43.2
		c14.8-15.3,29-4.6,41.2,5.6c20.9,17.3,42.2,34.6,62.1,52.4c16.8,15.3,31,16.8,48.8,0c19.3-18.8,40.7-36.1,62.1-52.9
		c13.7-10.7,29.5-19.3,44.3-2c13.7,16.3,1.5,29-10.2,40.2c-27.5,27.5-54.9,54.4-82.4,81.4C324.9,246.6,313.1,254.7,297.4,254.2z"/>
</g>
</svg>
