<?xml version="1.0" encoding="utf-8"?>
<!-- Generator: Adobe Illustrator 26.3.1, SVG Export Plug-In . SVG Version: 6.00 Build 0)  -->
<svg version="1.1" id="Layer_1" xmlns="http://www.w3.org/2000/svg" xmlns:xlink="http://www.w3.org/1999/xlink" x="0px" y="0px"
	 viewBox="0 0 595.3 595.3" style="enable-background:new 0 0 595.3 595.3;" xml:space="preserve">
<style type="text/css">
	.st0{fill:#FFFFFF;}
	.st1{fill:#529B37;}
	.st2{fill:#040404;}
</style>
<path class="st0" d="M297.6,595.3L297.6,595.3C133.3,595.3,0,462,0,297.6l0,0C0,133.3,133.3,0,297.6,0l0,0
	C462,0,595.3,133.3,595.3,297.6l0,0C595.3,462,462,595.3,297.6,595.3z"/>
<g id="Pevzfs.tif_00000147909438415928332440000015291627876748476824_">
	<g>
		<path class="st1" d="M86.8,246c1.8,1,3.8,0.9,5.8,1.4c21.8,5.3,36.1,24.8,34.9,47.7c-1.1,21-18.1,39.2-39.5,42.1
			c-24.5,3.3-47.5-13.4-51.6-37.7c-4.1-24.2,11.9-47.4,36.1-52.4c1-0.2,2.1,0,2.8-1C79,246,82.9,246,86.8,246z M84.2,285.6
			c0,7.3,0,14.7,0,22c0,1.5,0.4,2,1.9,2c4-0.1,8.1,0.1,12.1-0.1c9.8-0.4,17.2-9,16.6-19c-0.5-9.4-9.2-17.1-18.7-16.5
			c-0.5,0-1.3-0.2-1.4,0.4c-0.6,1.8-0.4,3.6-0.2,5.4c0.2,1.5,1.7,0.7,2.6,0.8c6.1,0.3,10.8,4.9,11.1,10.9c0.3,5.6-4,10.6-9.9,11.4
			c-1.5,0.2-3,0-4.5,0.2c-2.3,0.3-3.1-0.4-3.1-2.9c0.2-10.3,0.1-20.6,0.1-30.9c0-3.1-1.1-5.4-4-6.8c-2.3-1.1-2.7-0.8-2.7,1.7
			C84.2,271.3,84.2,278.4,84.2,285.6z M79,297.9c0-7.3,0-14.5,0-21.8c0-1.2,0-2.2-1.7-2.2c-4.5,0.2-9-0.3-13.4,0.3
			c-9.2,1-16.3,9.7-15.4,18.8c0.9,9.9,9.3,17.3,18.9,16.6c0.5,0,1.3,0.1,1.4-0.4c0.1-1.8,0.4-3.7,0-5.5c-0.3-1.3-1.8-0.6-2.8-0.6
			c-6.4-0.5-11-5.4-10.9-11.6c0.2-6,5-10.7,11.3-10.8c1.2,0,2.5,0.1,3.7,0c2.1-0.3,2.4,0.6,2.4,2.5c-0.1,10.5,0,21-0.1,31.5
			c0,3.1,1.2,5.4,4.1,6.7c1.6,0.7,2.6,0.7,2.5-1.6C79,312.4,79,305.1,79,297.9z"/>
		<path class="st2" d="M351.5,324.8c-0.5,5.1-0.5,5.1-5.7,5.1c-4.9,0-4.9,0-4.9-4.8c0-17.7,0.1-35.5-0.1-53.2c0-2.6,0.7-3.3,3.2-3
			c1.7,0.2,3.5,0.2,5.3,0c2-0.2,2.7,0.4,2.6,2.5c-0.1,7.7-0.1,15.4-0.1,23.2c0.4-0.1,0.6-0.2,0.8-0.3c9.7-9.4,25.3-4.1,29.6,7.7
			c4.1,11.1-0.6,23.5-10.8,27.6C363.7,332.5,357,331.3,351.5,324.8z M351.4,310.2c0,6.4,4.6,11.5,10.5,11.4c5.9,0,10.4-5,10.5-11.5
			c0.1-6.6-4.6-11.7-10.6-11.6C356.1,298.6,351.4,303.9,351.4,310.2z"/>
		<path class="st2" d="M171.8,325.2c-6.3,5.9-13.1,7.4-20.5,4.1c-7.6-3.4-10.9-9.8-11.3-17.8c-0.7-12.8,7.9-22.3,19.8-22.2
			c5,0.1,8.8,2.4,12.1,5.8c0.2-0.2,0.4-0.4,0.4-0.5c0-4.3,0-4.3,4.2-4.2c2.1,0,4.8-1,6,0.5c1,1.2,0.3,3.8,0.3,5.8
			c0,16.7,0,33.4,0.1,50c0,2-0.5,2.6-2.5,2.4c-2.1-0.2-4.2-0.2-6.3,0c-1.9,0.2-2.3-0.6-2.3-2.4C171.8,339.9,171.8,332.8,171.8,325.2
			z M151.1,310.1c0,6.6,4.7,11.6,10.7,11.5c5.8-0.1,10.3-5.1,10.3-11.4c0-6.5-4.8-11.8-10.6-11.7
			C155.5,298.6,151.1,303.6,151.1,310.1z"/>
		<path class="st2" d="M525.8,290.6c-5.3,5.8-10,11.1-14.9,16.4c-1.1,1.1-1,1.8-0.1,3c5.2,6.5,10.3,13,15.8,20c-4.8,0-9.2,0-13.7,0
			c-1.1,0-1.4-0.9-1.9-1.6c-3.9-5.1-7.7-10.2-11.5-15.3c-0.6-0.7-1.1-1.5-2.1-2.7c0,6.2-0.1,11.7,0,17.3c0,1.8-0.4,2.4-2.3,2.3
			c-2.4-0.2-4.7-0.1-7.1,0c-1.3,0.1-1.6-0.4-1.6-1.6c0-19.2,0-38.5,0-57.7c0-1.5,0.5-1.7,1.8-1.7c2.4,0.1,4.8,0.2,7.1,0
			c1.9-0.1,2.1,0.7,2.1,2.2c-0.1,11.3,0,22.6,0,33.8c0,0.5,0,1,0,2.1c3.9-4.5,7.5-8.3,10.7-12.5c2.3-3.1,4.9-4.6,8.8-4.1
			C519.6,290.8,522.4,290.6,525.8,290.6z"/>
		<path class="st2" d="M308.3,307.1c4.7-5.4,8.9-10.2,13-15.1c0.9-1.1,1.9-1.6,3.3-1.6c3.8,0.1,7.7,0,12.1,0
			c-2.3,2.5-4.2,4.6-6.1,6.7c-2.9,3.2-5.8,6.6-8.9,9.7c-1.1,1.2-1,1.8,0,3c5.2,6.5,10.3,13,15.8,19.9c-4.8,0-9.3,0-13.7,0
			c-1.1,0-1.4-0.9-1.9-1.6c-4.1-5.4-8.1-10.8-12.2-16.1c-0.3-0.5-0.7-0.9-1.5-1.9c0,6.1-0.1,11.7,0.1,17.2c0.1,2-0.5,2.6-2.5,2.4
			c-2.8-0.3-6.5,1.1-8.1-0.6c-1.4-1.5-0.4-5.2-0.4-7.9c0-16.7,0-33.4-0.1-50.1c0-2.1,0.5-2.7,2.6-2.6c1.9,0.2,3.9,0.2,5.8,0
			c2-0.2,2.6,0.4,2.6,2.5c-0.1,11.3-0.1,22.5-0.1,33.8C308.3,305.6,308.3,306,308.3,307.1z"/>
		<path class="st2" d="M458,331.1c-12.4,0-21.5-8.7-21.6-20.9c-0.1-11.9,8.9-20.7,21.3-20.8c12.4-0.1,21.5,8.6,21.6,20.5
			C479.5,322,470.4,331,458,331.1z M457.8,321.7c6.1,0.1,10.5-4.8,10.5-11.6c0-6.7-4.4-11.5-10.4-11.5c-6,0-10.3,4.8-10.3,11.5
			C447.6,316.9,451.8,321.6,457.8,321.7z"/>
		<path class="st2" d="M410.1,331.1c-12.5,0-21.5-8.7-21.5-20.9c-0.1-12,8.9-20.7,21.3-20.8c12.4,0,21.5,8.6,21.6,20.5
			C431.5,322.1,422.5,331,410.1,331.1z M399.7,310.4c0,0.5,0,1.5,0.2,2.4c0.9,4,2.8,7.2,7,8.4c3.7,1.1,7.2,0.5,10-2.2
			c4.5-4.4,4.5-13.2,0.1-17.6c-1.2-1.2-2.6-2-4.3-2.4C405.6,297.2,399.8,302.1,399.7,310.4z"/>
		<path class="st2" d="M218.6,323.9c-4.3,5.2-8.9,8.1-15.3,6.7c-6.3-1.3-10.4-5.6-11.1-12.6c-0.8-7.6-0.2-15.2-0.3-22.8
			c-0.1-4.8,0-4.8,4.7-4.8c6.2,0,6.2,0,6.2,6.2c0,5.1,0,10.1,0,15.2c0,1.2,0.2,2.4,0.3,3.6c0.4,2.7,1.5,5,4.3,5.8
			c3,0.8,5.8,0.1,8-2.2c2-2.1,2.8-4.6,2.8-7.4c0-6.4,0.1-12.8-0.1-19.1c0-1.8,0.5-2.3,2.2-2.1c2.3,0.1,4.6,0.1,6.8,0
			c1.4-0.1,2,0.2,2,1.8c-0.1,11.9-0.1,23.8,0,35.6c0,1.4-0.3,2-1.9,1.9c-2.2-0.1-4.4-0.1-6.6,0c-1.6,0.1-2.3-0.3-2.1-2
			C218.7,326.8,218.6,325.7,218.6,323.9z"/>
		<path class="st2" d="M542.8,331.1c-5.5,0-10.5-1.5-14.9-4.9c-1.2-0.9-1.7-1.7-0.2-2.8c0.4-0.2,0.6-0.6,0.9-0.9
			c1.3-1.3,2.4-3.1,4-3.8c1.8-0.8,2.8,1.8,4.4,2.4c2.8,1.2,5.6,2.1,8.6,1.1c1.7-0.6,2.8-1.7,2.9-3.6c0.1-1.8-1.1-2.7-2.6-3.3
			c-1.6-0.6-3.3-1.1-5-1.6c-1.8-0.6-3.7-1-5.5-1.7c-9.7-3.6-8.2-14.9-2.5-19.1c6.7-4.9,19.2-4.6,25.4,0.9c1.3,1.1,1.4,1.9,0,2.8
			c-0.3,0.2-0.5,0.5-0.8,0.7c-1.3,1.2-2.3,2.9-3.9,3.5c-1.6,0.6-2.6-1.5-4.1-2.1c-2.4-1-4.8-1.6-7.4-0.9c-1.7,0.5-3.2,1.3-3.3,3.3
			c-0.1,2,1.4,2.7,2.9,3.2c3.9,1.3,8,1.9,11.7,3.8c9.3,4.7,6.8,15.9,1.3,19.6c-1.8,1.2-3.8,2.1-6,2.6
			C546.8,330.9,544.8,331.1,542.8,331.1z"/>
		<path class="st2" d="M255.8,310.2c0.2-8.1,3.4-14.6,10.8-18.3c7.8-3.9,15.6-3.4,23,1.4c2,1.3,2.3,2.4,0.2,3.8
			c-0.3,0.2-0.5,0.5-0.7,0.7c-2.3,2.6-4,4.7-8.3,2c-4.7-3-10.2-0.2-12.5,5c-1.3,3-1.5,6.1-0.6,9.2c2.1,7.3,9.5,10,15.8,5.6
			c1.3-0.9,1.9-1,2.9,0.2c1.3,1.6,2.6,3.1,4.1,4.4c1.8,1.5,0.7,2.3-0.5,3.1c-7.5,4.7-15.5,5-23.4,1.3
			C259.2,325,256,318.5,255.8,310.2z"/>
		<path class="st2" d="M238,310.1c0-5.8,0.1-11.7,0-17.5c0-1.6,0.4-2.1,2-2c2.4,0.1,4.7,0.1,7.1,0c1.2,0,1.9,0.1,1.9,1.7
			c-0.1,12-0.1,24.1,0,36.1c0,1.3-0.4,1.7-1.7,1.6c-2.5-0.1-5.1-0.1-7.6,0c-1.5,0.1-1.7-0.5-1.7-1.8C238,322.1,238,316.1,238,310.1z
			"/>
		<path class="st2" d="M160.5,261.6c2.7-3.1,5.7-3.9,9.2-2.6c3.4,1.3,4.4,4.3,4.5,7.6c0.1,3.6-0.1,7.2,0.1,10.7
			c0.1,2.6-1.8,1.4-2.9,1.6c-1.2,0.2-2.4,0.3-2.3-1.7c0.2-3.2,0.1-6.5,0-9.7c-0.1-3.2-1.3-4.8-3.5-4.9c-2.6-0.1-4.7,1.8-4.8,4.8
			c-0.2,3.2-0.2,6.5,0,9.7c0.2,2.2-1.1,1.9-2.4,1.9c-1.3-0.1-2.8,0.6-2.7-1.9c0.2-5.2,0.1-10.5,0.1-15.7c0-1.3-0.4-2.8,1.8-2.5
			C158.9,259.3,161.1,258.4,160.5,261.6z"/>
		<path class="st2" d="M210.2,276.5c-1.1,0.9-1.9,1.8-2.8,2.3c-4.7,2.7-10.4-0.3-10.8-5.8c-0.3-4.2-0.1-8.4-0.1-12.6
			c0-2.3,1.8-1.1,2.7-1.2c0.9-0.1,2.4-0.7,2.4,1.3c-0.1,3.3-0.1,6.6,0,10c0.1,3.5,1.2,5,3.7,5c2.6,0,4.5-1.8,4.6-5
			c0.1-2.9,0.2-5.8,0-8.6c-0.1-2.1,0.3-2.8,2.6-2.8c2.2,0,2.5,0.8,2.5,2.7c-0.1,4.9,0,9.8-0.1,14.7c0,1,1.1,2.9-1.4,2.7
			C211.8,279,209.5,279.9,210.2,276.5z"/>
		<path class="st2" d="M184.9,259.1c1.8,0,3.7,0.1,5.5,0c1.9-0.2,2.6,0.3,2.5,2.4c0,2-0.8,2.4-2.5,2.1c-2.6-0.5-3.5,0.5-3.3,3.2
			c0.3,3.2-0.1,6.5,0.1,9.7c0.1,2.1-0.4,2.8-2.7,2.8c-2.2,0-2.6-0.7-2.5-2.7c0.2-3.4-0.1-6.8,0.1-10.2c0.2-2.3-0.5-3.1-2.8-2.8
			c-1.3,0.2-3,0.7-2.9-1.9c0-2.1,0.6-2.7,2.6-2.6C181.1,259.2,183,259.1,184.9,259.1z"/>
		<path class="st2" d="M236.8,259.1c2.1,0,4.2,0.1,6.3,0c2-0.2,1.9,0.9,1.8,2.2c-0.1,1.1,0.4,2.4-1.7,2.3c-4,0-4,0.1-4,4.2
			c0,3-0.2,5.9,0.1,8.9c0.2,2.2-0.7,2.5-2.6,2.5c-1.9,0-2.6-0.3-2.5-2.4c0.2-3.5-0.2-7,0.1-10.4c0.2-2.8-1.1-3.1-3.1-2.8
			c-1.9,0.3-2.8-0.2-2.7-2.4c0.1-1.8,0.7-2.2,2.3-2.1C232.8,259.1,234.8,259.1,236.8,259.1z"/>
		<path class="st2" d="M150.5,269.3c0,2.7-0.1,5.4,0,8.1c0.1,2.4-1.5,1.6-2.6,1.6c-1.2,0-2.6,0.6-2.6-1.7c0.1-5.5,0.2-11,0-16.5
			c-0.1-2.5,1.6-1.7,2.8-1.8c1.3-0.1,2.6-0.3,2.4,1.9C150.3,263.7,150.5,266.5,150.5,269.3z"/>
		<path class="st2" d="M225.1,269c0,2.8-0.1,5.6,0,8.4c0.1,2.4-1.4,1.6-2.6,1.7c-1.2,0-2.6,0.6-2.5-1.7c0.2-5.5,0.2-11,0-16.5
			c-0.1-2.5,1.5-1.8,2.7-1.8c1.3-0.1,2.6-0.3,2.4,1.9C224.9,263.6,225.1,266.3,225.1,269z"/>
		<path class="st2" d="M184.6,256.5c-1.6-0.2-2.7-1.2-2.8-3c-0.1-1.7,1.5-3.2,3.2-3.1c1.8,0.2,2.9,1.3,2.9,3.1
			C187.9,255.1,186.4,256.5,184.6,256.5z"/>
		<path class="st2" d="M233.7,253.5c0.1-1.9,1.1-3,2.9-3.1c1.8-0.1,3,0.9,3.1,2.8c0.1,2-1.1,3.1-3,3.2
			C234.9,256.4,233.9,255.3,233.7,253.5z"/>
	</g>
</g>
</svg>
