<?xml version="1.0" encoding="utf-8"?>
<!-- Generator: Adobe Illustrator 26.3.1, SVG Export Plug-In . SVG Version: 6.00 Build 0)  -->
<svg version="1.1" id="Layer_1" xmlns="http://www.w3.org/2000/svg" xmlns:xlink="http://www.w3.org/1999/xlink" x="0px" y="0px"
	 viewBox="0 0 595.3 595.3" style="enable-background:new 0 0 595.3 595.3;" xml:space="preserve">
<style type="text/css">
	.st0{fill:#529B37;}
	.st1{fill:#FFFFFF;}
</style>
<path class="st0" d="M297.6,595.3L297.6,595.3C133.3,595.3,0,462,0,297.6l0,0C0,133.3,133.3,0,297.6,0l0,0
	C462,0,595.3,133.3,595.3,297.6l0,0C595.3,462,462,595.3,297.6,595.3z"/>
<path class="st1" d="M584.9,375.9c0.5-2,1.1-4,1.6-6L584.9,375.9z"/>
<polygon class="st1" points="586.4,369.9 586.4,369.9 586.4,369.9 "/>
<circle class="st1" cx="297.6" cy="297.8" r="186.4"/>
<path class="st0" d="M324.5,58.3c9.4,5.2,19.9,4.7,30.3,7.3c113.9,27.7,188.7,129.6,182.4,249.3c-5.7,109.7-94.6,204.9-206.4,220
	c-128,17.2-248.2-70-269.7-197C39.7,211.4,123.3,90.1,249.8,64c5.2-1,11,0,14.6-5.2C283.7,58.3,304.1,58.3,324.5,58.3z M310.9,265.2
	c0,38.1,0,76.8,0,115c0,7.8,2.1,10.5,9.9,10.5c20.9-0.5,42.3,0.5,63.2-0.5c51.2-2.1,89.9-47,86.7-99.3
	c-2.6-49.1-48.1-89.4-97.7-86.2c-2.6,0-6.8-1-7.3,2.1c-3.1,9.4-2.1,18.8-1,28.2c1,7.8,8.9,3.7,13.6,4.2c31.9,1.6,56.4,25.6,58,57
	c1.6,29.3-20.9,55.4-51.7,59.6c-7.8,1-15.7,0-23.5,1c-12,1.6-16.2-2.1-16.2-15.2c1-53.8,0.5-107.7,0.5-161.5
	c0-16.2-5.7-28.2-20.9-35.5c-12-5.7-14.1-4.2-14.1,8.9C310.9,190.5,310.9,227.6,310.9,265.2z M283.7,329.5c0-38.1,0-75.8,0-113.9
	c0-6.3,0-11.5-8.9-11.5c-23.5,1-47-1.6-70,1.6c-48.1,5.2-85.2,50.7-80.5,98.2c4.7,51.7,48.6,90.4,98.8,86.7c2.6,0,6.8,0.5,7.3-2.1
	c0.5-9.4,2.1-19.3,0-28.7c-1.6-6.8-9.4-3.1-14.6-3.1c-33.4-2.6-57.5-28.2-57-60.6c1-31.4,26.1-55.9,59.1-56.4c6.3,0,13.1,0.5,19.3,0
	c11-1.6,12.5,3.1,12.5,13.1c-0.5,54.9,0,109.7-0.5,164.6c0,16.2,6.3,28.2,21.4,35c8.4,3.7,13.6,3.7,13.1-8.4
	C283.7,405.3,283.7,367.1,283.7,329.5z"/>
</svg>
