<?xml version="1.0" encoding="utf-8"?>
<!-- Generator: Adobe Illustrator 26.3.1, SVG Export Plug-In . SVG Version: 6.00 Build 0)  -->
<svg version="1.1" id="Layer_1" xmlns="http://www.w3.org/2000/svg" xmlns:xlink="http://www.w3.org/1999/xlink" x="0px" y="0px"
	 viewBox="0 0 595.3 595.3" style="enable-background:new 0 0 595.3 595.3;" xml:space="preserve">
<style type="text/css">
	.st0{fill:#FFFFFF;}
	.st1{fill:#BBD147;}
</style>
<path class="st0" d="M297.6,595.3L297.6,595.3C133.3,595.3,0,462,0,297.6v0C0,133.3,133.3,0,297.6,0h0
	C462,0,595.3,133.3,595.3,297.6v0C595.3,462,462,595.3,297.6,595.3z"/>
<g>
	<g>
		<path class="st1" d="M471,324.5c-1.6-0.5-3.4-0.7-5.1-0.8c-15.5-0.5-30.9-1.1-46.4-1.3c-14.1-0.2-28.3,0.3-42.4,0.7
			c-9.8,0.3-19.6,0.8-29.3,1.3c-15,0.8-30,2.1-44.9,3.6c-19.4,1.9-38.8,4.4-58,7.4c-26.7,4.2-53.1,9.3-79.3,15.6
			c-4.2,1-40.8,11-43.7,11.9c-1.9,0.6-3.9,1.2-5.8,1.8c-1.9,0.6-3.3,1.6-4.5,3.1c-0.5,0.6-1,1.2-0.6,2c0.4,0.8,1.2,0.9,1.9,0.9
			c1.3,0,2.7,0,4-0.2c3.9-0.7,7.9-1.3,11.8-2c3.1-0.5,86.9-14,123.8-18c21.2-2.3,42.5-4.3,63.8-5.6c15.2-0.9,30.5-1.6,45.7-1.5
			c6.7,0,13.3,0.8,20,0.5c2.5-0.1,4.9-0.4,7.3-1.2c1.2-0.4,2.5-0.9,2.5-2.2c0-2.3,1.5-2,2.9-2c14.1,0,28.3,0.4,42.4-0.5
			c4.6-0.3,9.3-0.5,13.7-2c2.5-0.8,2.7-1.4,1.7-3.8c4.3,0.1,8.6-0.1,12.8-0.5c2.5-0.2,5-0.4,6.9-2.2
			C474.3,327.4,473.9,325.3,471,324.5z"/>
		<path class="st1" d="M520.7,331.1c-0.3-2-1.9-2.5-3.5-3c-2.5-0.8-5.1-0.8-7.7-1.1c-8.5-0.8-17-1.3-25.4-1.5
			c-1.8-0.1-3.6,0.3-5,1.5c-1,0.8-1.9,1.9-1.6,3.3c0.3,1.5,1.8,1.7,3,1.9c2.1,0.3,4.3,0.3,6.5,0.5c2.1,0.2,4,0.6,4.6,3.1
			c0.3,1.4,1.7,2,3,2.4c2.5,0.7,5,0.9,7.5,0.8c0.4,0,0.9,0,1.3,0c5.3-0.3,10.4-0.9,15-3.8C519.8,334.2,520.9,333,520.7,331.1z"/>
	</g>
	<g id="isAL7F.tif_00000008139416300239086380000010233750566767025024_">
		<g>
			<path d="M559.6,276.1c-1,3.4-2.8,5.9-6.8,6c-3.4,0-6.2-2.4-6.6-5.8c-0.4-3.2,1.7-6.2,4.9-7.1c3.2-0.9,6.6,0.8,7.8,3.9
				c0.3,0.7,0.5,1.4,0.7,2.1C559.6,275.5,559.6,275.8,559.6,276.1z M552.9,281c3.1,0,5.5-2.5,5.4-5.6c-0.1-3-2.5-5.3-5.5-5.4
				c-3.1,0-5.6,2.4-5.5,5.5C547.3,278.6,549.8,281.1,552.9,281z"/>
			<path d="M96.6,293.6c-0.3-1.1-2.4-0.9-1.8-2.3c0.5-1.2,2-1.1,3.2-1.2c5.8-0.2,11.6-0.7,17.4-1.9c3.9-0.8,7.6-2.1,11-4.4
				c6.3-4.3,7.4-10.5,3-16.6c-2.1-2.9-4.7-5.4-7.9-7.2c-19.2-10.9-39.7-16.7-62-15.7c-5.6,0.3-11.2,1-16.6,2.6
				c-1.8,0.5-3.7,0.7-5.5,0.1c-1.7-0.5-2.1-1.6-1.3-3.1c0.6-1,1.3-2,2.2-2.8c6.3-5.9,13.4-10.8,21.6-13.8c4.8-1.8,9.6-1.9,14.8-1.1
				c6.3,1,12.8,1.5,19,3c13.7,3.3,26.4,8.8,37.2,18c5.2,4.4,9.6,9.6,12.5,15.9c6.1,13.2,1.2,25.2-12.3,30.7
				c-4.6,1.9-9.5,2.7-14.5,2.7c-1.2,0-2.3,0-3.5,0c5.9,14.5,14.2,27.3,22.3,40.1c7,11.2,14.5,22.1,22,33c1.1,1.7,2.2,3.4,3.2,5.1
				c0.8,1.6,0.3,2.4-1.6,2.4c-2,0-3.8-0.7-5.5-1.6c-8.4-4.5-16.1-9.9-22.9-16.6c-10.8-10.7-20.3-22.5-28.2-35.5
				c-4.5-7.5-8.5-15.3-11.8-23.4c-1.3-3.3-0.7-4.6,2.8-5.6C94.3,294,95.5,293.8,96.6,293.6z"/>
			<path d="M259.5,308.7c-4.2,3.7-8.9,6.4-13.9,8.6c-2.8,1.2-5.6,2.2-8.6,2.6c-7.6,1.2-13.4-2.4-14.3-10c-2.2-17,2.5-32,15.2-43.9
				c7.8-7.3,14.9-6.9,22.7,0.5c2,1.9,3.7,4.1,5.4,6.5c0.4-3.7,0.9-7.4,1.3-11.1c1.7-17.5,2.6-35,2.3-52.6c0-1.9-0.3-3.9-0.2-5.8
				c0-1.2,0-2.7,1.4-3.3c1.3-0.6,2.3,0.4,3.2,1.1c2.1,1.5,3.6,3.5,5.2,5.5c4.5,5.8,8.4,12,9.9,19.4c0.8,3.9,0.7,7.8-0.7,11.7
				c-0.7,1.9-0.6,4.1-1,6.2c-2.8,17.2-8.3,33.6-13.9,50c-2.8,8.4-5.8,16.8-9.2,25c-0.7,1.7-1.4,3.3-2.5,4.7
				c-1.1,1.4-2.2,1.4-3.2-0.1c-0.8-1.1-1-2.5-1.1-3.8c-0.1-2.9,0.2-5.7,1.2-8.4C259,310.5,259.3,309.6,259.5,308.7z M263.5,288.2
				c-6.6,1.5-10.1-0.2-12.7-5.7c-0.6-1.2-0.8-2.4,0.3-3.5c1-1.2,0.8-4.2-0.4-5c-1.5-1.1-2.6,0.3-3.4,1.2c-6.7,7.2-10.2,15.7-10,25.6
				c0.2,6.6,4.9,7.7,9.5,6.9c1.6-0.3,3-1,4.3-1.8c3.2-2,5.7-4.7,8.3-7.4C262.3,295.6,263.5,292.3,263.5,288.2z"/>
			<path d="M39.4,370.4c-0.1-7,2.1-12.9,3.9-18.8c4.2-13.6,10.3-26.4,16.6-39.1c8.4-16.9,17.5-33.5,27-49.8c1.4-2.3,2.8-4.6,4.6-6.6
				c0.6-0.6,1.2-1.5,2.2-1.2c1,0.3,1.1,1.4,1.3,2.2c0.6,3.1,0,6.1-1.3,9c-10.6,23.2-17.6,47.6-24.7,71.9
				c-3.9,13.3-7.4,26.8-10.8,40.2c-0.9,3.5-1,7.1-1,10.7c0,1.4-0.1,2.8-0.3,4.2c-0.1,0.9-0.4,1.8-1.5,2c-1.1,0.3-1.9-0.2-2.5-1
				c-1.1-1.4-1.6-3-2-4.7c-0.2-1-0.8-1.6-1.6-2.2C43.7,382.8,38.7,377.9,39.4,370.4z"/>
			<path d="M182.5,320.8c-1.4,1.2-2.9,2.3-4.2,3.6c-4.7,4.6-10.4,7.2-16.9,8.1c-6.7,0.9-11.3-2.3-13-8.8c-1.2-4.9-0.6-9.8,0.8-14.6
				c2.2-7.6,6.2-14.4,10.8-20.8c2.7-3.8,5.8-7.4,8.9-10.9c3.6-4.1,8-5,13-3.7c3.2,0.8,5.1,3.2,6.5,6.6c0.8-2.1,1.3-3.7,2-5.4
				c0.5-1.2,1.1-2.5,1.9-3.5c1.9-2.8,4.2-2.8,6,0.1c0.9,1.4,1.9,2,3.5,2.5c4.3,1.2,5.3,3.9,3,7.3c-1.8,2.8-2,6.4-3,9.6
				c-1.9,6.4-4.2,12.8-4.8,19.5c-0.1,0.5-0.1,1-0.1,1.6c0,0.8-0.1,1.8,0.8,2.2c0.8,0.4,1.4-0.3,2-0.7c3.5-2.3,7-4.5,11-6.1
				c0.8-0.3,1.9-1.2,2.6-0.1c0.7,0.9-0.1,1.9-0.6,2.7c-1.5,2.5-3.7,4.3-6,6c-1.9,1.4-3.1,3.1-3.1,5.6c0,1.7-1.1,2.9-2.4,3.8
				c-3,2.1-6.4,3.4-9.9,3.9c-4.4,0.7-7.1-1.4-8.1-5.7C182.8,322.4,182.6,321.5,182.5,320.8z M164.6,315.5c-0.1,4.8,2.1,6.6,6.4,5.6
				c1.9-0.5,3.7-1.2,5.4-2.2c3.2-2.1,5.6-5,6.1-8.7c0.9-5.7,1.6-11.4,3.1-16.9c1-3.7,0.8-7-1-10.4c-1.4-2.5-1.8-2.8-3.7-0.7
				c-6.6,7.1-11.3,15.3-14.5,24.4C165.3,309.6,164.9,312.8,164.6,315.5z"/>
			<path d="M292.1,290.8c0.1-7.3,0.9-14.5,2.7-21.5c0.6-2.3,1.5-4.5,3.1-6.4c1.9-2.2,4-2.7,6.6-1.8c1.3,0.4,2.6,0.7,3.8,1.2
				c3.2,1.3,4.9,3.8,4.5,7.2c-0.3,2.8-1.1,5.4-2,8c-0.2,0.4-0.4,0.9-0.7,1.1c-3.6,2.2-3.7,6.1-4.5,9.6c-1,4.3-0.4,8.6-0.6,12.9
				c-0.1,2,0.9,2.5,2.8,1.4c3.6-2,6.9-4.6,9.7-7.5c9-9.4,17.4-19.3,24.7-30.2c1.5-2.2,2.5-4.7,3.8-7.1c1.5-2.8,3.8-3.2,5.4-0.7
				c4.5,6.8,10.5,12.6,14.4,20c1.6,3,3.1,6.1,4.1,9.4c1.7,5.3,0.5,9.8-2.9,14c-4.4,5.3-10.4,7.8-17,9.1c-3.6,0.7-7.3,1-10.9,0.9
				c-0.2,0-0.5,0-0.7,0c-1.4-0.2-3-0.3-3.6-1.8c-0.6-1.7,1-2.5,2-3.4c0.6-0.5,1.3-0.8,1.9-1.1c8.2-3.9,11.6-10.8,9.8-19.7
				c-0.6-2.9-1.8-5.7-3-8.4c-0.7-1.4-1.1-1.4-2.1-0.2c-6.1,7.2-12.4,14.2-19,20.9c-4.5,4.6-9.4,8.8-14.8,12.3
				c-2.2,1.4-4.5,2.6-7.1,3.3c-3.6,0.9-5.2,0.1-6.9-3.2c-2.5-4.9-3.2-10.2-3.4-15.6C292.1,292.6,292.1,291.7,292.1,290.8z"/>
			<path d="M524.3,277c-4.1,5-7.3,9.8-9.6,15.2c-1.9,4.3-4.1,8.4-7.1,12.1c-2,2.5-4.3,4.6-7.2,5.9c-3.5,1.6-6.2,0.6-7.6-3
				c-1.5-3.9-1.8-8-1.7-12.1c0.3-8.6,2-17,4.6-25.3c0.8-2.7,1.9-5.2,3.8-7.3c2.2-2.4,4.5-2.9,7.4-1.5c0.2,0.1,0.4,0.2,0.6,0.3
				c7.2,3.2,8.8,10.3,3.7,16.6c-0.2,0.3-0.5,0.7-0.8,0.8c-1.9,0.4-2.9,1.7-3.5,3.4c-0.9,2.3-1.1,4.6-0.8,7c0.1,1.2,0.8,1.2,1.5,0.4
				c0.7-0.9,1.3-2,1.9-3c3.2-5.8,6.2-11.8,11.3-16.3c0.7-0.6,1.4-1.2,2.1-1.6c3-1.8,5.2-1.2,6.8,2c4,7.8,8.1,15.5,12.7,22.9
				c2,3.1,4.1,6,7,8.4c2.7,2.3,5.1,4.9,6.7,8.1c2,4,0.8,6.8-3.5,8.1c-3.3,1-6.8,1.1-10.2,0.9c-1.5-0.1-2.7-0.9-3.7-1.9
				c-1.2-1.1-2.3-2.4-2.9-4c-4.3-10.5-8.9-20.9-11-32.1C524.6,279.9,524.5,278.7,524.3,277z"/>
			<path d="M442,308c-7,0-10.7-4.3-9.6-10.8c0.7-4.6,2.7-8.7,4.7-12.8c4.6-9.3,10.1-18.1,15.8-26.8c1-1.6,2.3-2.9,3.9-4
				c1.1-0.7,2.3-1.4,3.6-1c1.8,0.5,3.5,0.6,5.3,0.6c1.8,0,2.4,1.2,1.9,2.8c-0.4,1-0.9,2-1.6,2.9c-6.8,9.9-11.2,20.9-14.3,32.4
				c-0.4,1.5-1,3.2,0.4,4.4c1.5,1.3,3.1,0.2,4.6-0.3c3.2-1.1,5-4.2,7.9-5.8c0.9-0.5,0.4-2,0.2-3c-0.5-3.1-1.4-6.1-2.4-9.1
				c-0.7-1.9-1-3.9-0.7-5.9c0.2-1.6,1-2.8,2.6-3.3c1.6-0.5,2.7,0.5,3.6,1.6c1.4,1.7,2.4,3.8,3.1,5.9c1.5,4.2,2.8,8.4,3.4,12.7
				c0.6,4.1-1,6-5,6.7c-2.7,0.4-4.6,2.2-6.4,3.9c-5.4,5.1-11.9,7.5-19.1,8.6C443.2,308,442.4,308,442,308z"/>
			<path d="M391.2,308c-1.1-0.1-2.5,0.2-3.9-0.2c-1-0.3-1.9-0.7-2.1-1.8c-0.2-1.1,0.2-2.1,1.1-2.8c0.8-0.6,1.7-1,2.6-1.4
				c8.3-3.6,12-10.8,10.2-19.6c-0.6-3-1.8-5.8-3.1-8.6c-0.6-1.2-1-1.6-2.2-0.6c-3.6,2.9-7.3,5.7-10.9,8.6c-0.8,0.6-1.6,1.6-2.8,1.1
				c-1.2-0.5-1.1-1.9-1.1-3c0.1-3.2,0.9-5.8,3.9-7.8c6.1-4.1,10.9-9.5,13.5-16.6c1.3-3.6,4.2-6.2,7.9-7.5c1.3-0.5,2.7-0.6,3.7,0.7
				c1,1.4,0.7,2.8-0.4,4.1c-0.4,0.5-0.8,0.9-1.2,1.3c-3.3,2.6-3.5,5.9-2.2,9.5c1.1,3.2,2.8,5.9,5.7,7.9c3.7,2.6,6.9,5.7,9.3,9.6
				c3.3,5.3,3.2,10.4-0.3,15.5c-4.3,6.4-10.8,9.2-18,10.7C397.7,307.6,394.6,307.9,391.2,308z"/>
			<path d="M327.2,232.6c0,1.4-0.8,3.8-2.7,5.4c-3,2.6-6.4,4.7-10.1,6.1c-2.4,0.9-3.2,0.3-2.9-2.3c0.5-4.1,1-8.1,1.8-12.1
				c0.8-4.1,4.3-6.6,7.9-6.1C324.6,224.1,327.1,227.4,327.2,232.6z"/>
			<path d="M555.4,279.2c-1.5-0.1-1.5-1.4-2-2.1c-0.4-0.5-0.6-1.3-1.4-1.1c-0.9,0.2-0.5,1.1-0.6,1.7c-0.1,0.5,0.1,1.2-0.9,1.8
				c-0.4-2.4-0.2-4.7-0.1-6.9c0-0.7,3.5-1,4.6-0.3c1.1,0.6,1.5,2,0.7,2.6c-1.9,1.3-0.9,2.4-0.2,3.7
				C555.4,278.7,555.4,278.9,555.4,279.2z M553.1,273c-0.6,0.2-1.6-0.4-1.7,0.8c-0.1,0.9,0.5,1.1,1.2,1.1c0.8-0.1,1.8,0.3,2-0.8
				C554.9,273,553.9,273,553.1,273z"/>
		</g>
	</g>
</g>
</svg>
