<?xml version="1.0" encoding="utf-8"?>
<!-- Generator: Adobe Illustrator 26.3.1, SVG Export Plug-In . SVG Version: 6.00 Build 0)  -->
<svg version="1.1" id="Layer_1" xmlns="http://www.w3.org/2000/svg" xmlns:xlink="http://www.w3.org/1999/xlink" x="0px" y="0px"
	 viewBox="0 0 595.3 595.3" style="enable-background:new 0 0 595.3 595.3;" xml:space="preserve">
<style type="text/css">
	.st0{fill:#FFFFFF;}
	.st1{fill:#BF0000;}
</style>
<path class="st0" d="M297.6,595.3L297.6,595.3C133.3,595.3,0,462,0,297.6l0,0C0,133.3,133.3,0,297.6,0l0,0
	C462,0,595.3,133.3,595.3,297.6l0,0C595.3,462,462,595.3,297.6,595.3z"/>
<g id="jqK2LF.tif">
	<g>
		<path class="st1" d="M157.2,257c0-49.5,0-99,0-148.5c0-20.4,0.3-21,21.2-20.6c34.3,0.7,68.8-3.2,102.9,2.1
			c48.1,7.4,80.6,35.4,95,81.5c14.4,45.9,1.6,86.4-32.6,119.6c-7.8,7.6-8.6,12-1.8,20.6c26,33.4,51.3,67.4,76.7,101.3
			c2.5,3.3,7.9,6.7,5.4,11.2c-2.4,4.1-8.2,2-12.5,2c-16.9,0.2-33.9-0.6-50.8,0.3c-11.2,0.6-18-3.9-24.3-12.6
			c-20.4-28.1-41.5-55.8-62.5-83.6c-5.6-7.4-38.6-12.4-46-7.2c-4.4,3.1-3.2,8-3.3,12.3c-0.1,25.4-0.4,50.8,0.1,76.3
			c0.2,10.9-3.7,15.3-14.8,14.7c-12.9-0.7-25.9-0.8-38.8,0c-12.1,0.7-14-5.7-14-15.6C157.4,359.6,157.3,308.3,157.2,257z
			 M224.6,204.6c0,13.4,0.2,26.7-0.1,40.1c-0.1,7.6,2.4,11.8,10.7,11.5c11.1-0.3,22.3,0.4,33.4-0.4c27.8-1.9,46.9-23.6,46.4-52.1
			c-0.5-27.4-20.3-47.7-48.1-48.8c-9.8-0.4-19.6,0.2-29.4-0.2c-10-0.5-13.4,4.2-13,13.7C224.9,180.5,224.6,192.5,224.6,204.6z"/>
		<path class="st1" d="M489.1,463.3c-31.6,4.5-63.2,9-94.8,13.4c-74.1,10.3-148.1,20.3-222.2,31c-9.3,1.3-16.3-0.2-23.2-6.3
			c-12.7-11.1-25.9-21.7-38.9-32.7c-1.9-1.6-4.8-3.3-3.7-6.4c1.1-3.1,4.4-2.3,7-2.5c1.8-0.2,3.6-0.1,5.3-0.1
			c120.3,0,240.5,0,360.8,0c3.1,0,6.1,0.3,9.2,0.5C488.9,461.2,489,462.3,489.1,463.3z"/>
	</g>
</g>
</svg>
