<svg xmlns="http://www.w3.org/2000/svg" xml:space="preserve" id="Layer_1" x="0" y="0" style="enable-background:new 0 0 595.3 595.3" version="1.1" viewBox="0 0 595.3 595.3"><style>.st1{fill:#bf0000}</style><path d="M297.6 595.3C133.3 595.3 0 462 0 297.6 0 133.3 133.3 0 297.6 0 462 0 595.3 133.3 595.3 297.6c0 164.4-133.3 297.7-297.7 297.7" style="fill:#fff"/><g id="jqK2LF.tif"><path d="M157.2 257V108.5c0-20.4.3-21 21.2-20.6 34.3.7 68.8-3.2 102.9 2.1 48.1 7.4 80.6 35.4 95 81.5 14.4 45.9 1.6 86.4-32.6 119.6-7.8 7.6-8.6 12-1.8 20.6 26 33.4 51.3 67.4 76.7 101.3 2.5 3.3 7.9 6.7 5.4 11.2-2.4 4.1-8.2 2-12.5 2-16.9.2-33.9-.6-50.8.3-11.2.6-18-3.9-24.3-12.6-20.4-28.1-41.5-55.8-62.5-83.6-5.6-7.4-38.6-12.4-46-7.2-4.4 3.1-3.2 8-3.3 12.3-.1 25.4-.4 50.8.1 76.3.2 10.9-3.7 15.3-14.8 14.7-12.9-.7-25.9-.8-38.8 0-12.1.7-14-5.7-14-15.6.3-51.2.2-102.5.1-153.8m67.4-52.4c0 13.4.2 26.7-.1 40.1-.1 7.6 2.4 11.8 10.7 11.5 11.1-.3 22.3.4 33.4-.4 27.8-1.9 46.9-23.6 46.4-52.1-.5-27.4-20.3-47.7-48.1-48.8-9.8-.4-19.6.2-29.4-.2-10-.5-13.4 4.2-13 13.7.4 12.1.1 24.1.1 36.2M489.1 463.3c-31.6 4.5-63.2 9-94.8 13.4-74.1 10.3-148.1 20.3-222.2 31-9.3 1.3-16.3-.2-23.2-6.3-12.7-11.1-25.9-21.7-38.9-32.7-1.9-1.6-4.8-3.3-3.7-6.4 1.1-3.1 4.4-2.3 7-2.5 1.8-.2 3.6-.1 5.3-.1h360.8c3.1 0 6.1.3 9.2.5.3 1 .4 2.1.5 3.1" class="st1"/></g></svg>