<?xml version="1.0" encoding="utf-8"?>
<!-- Generator: Adobe Illustrator 26.3.1, SVG Export Plug-In . SVG Version: 6.00 Build 0)  -->
<svg version="1.1" id="Layer_1" xmlns="http://www.w3.org/2000/svg" xmlns:xlink="http://www.w3.org/1999/xlink" x="0px" y="0px"
	 viewBox="0 0 595.3 595.3" style="enable-background:new 0 0 595.3 595.3;" xml:space="preserve">
<style type="text/css">
	.st0{fill:#FFFFFF;}
	.st1{fill:#00B900;}
</style>
<path class="st0" d="M297.6,595.3L297.6,595.3C133.3,595.3,0,462,0,297.6v0C0,133.3,133.3,0,297.6,0h0
	C462,0,595.3,133.3,595.3,297.6v0C595.3,462,462,595.3,297.6,595.3z"/>
<g>
	<g>
		<path class="st1" d="M81.7,317.4c-3.7,0-7-0.2-10.4,0.1c-2.3,0.1-3.7-0.6-5-2.5c-3.5-4.9-7.2-9.6-10.8-14.4
			c-0.7-0.9-1.4-1.3-2.5-1.2c-1.5,0.1-3.1,0.1-4.7,0c-1.6-0.2-1.9,0.5-1.9,1.9c0.1,4.8,0,9.5,0.1,14.3c0,1.3-0.3,1.8-1.7,1.7
			c-2.5-0.1-4.9-0.1-7.4,0c-1.5,0.1-1.8-0.4-1.8-1.9c0-17.3,0-34.6,0-52c0-1,0-2,0-3c0-0.9,0.3-1.3,1.2-1.3
			c6.4,0.1,12.7-0.1,19.1,0.2c8.6,0.4,16.7,8.5,17.7,17c0.9,7.5-1.6,13.8-7.4,18.6c-0.9,0.8-0.6,1.3,0,1.9
			c4.9,6.4,9.7,12.8,14.5,19.1C81,316.4,81.3,316.8,81.7,317.4z M46.5,279.4c0,2.7,0,5.3,0,8c0,1,0.3,1.3,1.3,1.3c2-0.1,4,0,6,0
			c5-0.2,8.8-3.7,9.2-8.5c0.4-4.5-2.7-8.7-7.4-9.7c-2.8-0.5-5.6-0.1-8.4-0.2c-0.9,0-0.7,0.7-0.7,1.2
			C46.5,274.1,46.5,276.8,46.5,279.4z"/>
		<path class="st1" d="M108.8,315.5c-0.4-0.1-0.8,0.2-1.1,0.4c-7.9,4.8-17.5,2.5-23.4-3.7c-9.2-9.7-9.1-26.9,0.2-36.5
			c5.9-6,15.8-8.2,23.2-3.4c0.7,0.5,1.4,0.8,1.3-0.6c0-0.6,0.3-0.8,0.8-0.8c2.9,0,5.7,0,8.6,0c0.7,0,1,0.2,1,1c0,0.6,0,1.3,0,2
			c0,13.9,0,27.8,0,41.7c0,1.4-0.4,1.7-1.7,1.7c-2.2-0.1-4.4,0-6.6,0C109.1,317.2,109.1,317.2,108.8,315.5z M88.4,294
			c0,3.6,0.8,6.7,2.8,9.5c3.9,5.4,11.2,5.5,15.2,0.2c3.8-5,3.8-13.7,0-18.8c-3.8-5.1-10.6-5.3-14.7-0.5
			C89.3,287.3,88.5,290.6,88.4,294z"/>
		<path class="st1" d="M166.7,317.4c-1.3,0-2.6,0-3.9,0c-2.8,0-5.6-0.1-8.4,0c-1.5,0.1-2.4-0.5-3.3-1.6c-4.3-5.3-8.7-10.6-13-15.9
			c-0.4-0.5-0.7-1.1-1.3-1.4c-0.4,0.6-0.3,1.1-0.3,1.6c0,5.3,0,10.5,0,15.8c0,1.1-0.3,1.5-1.4,1.4c-2.6-0.1-5.2-0.1-7.8,0
			c-1.2,0-1.5-0.3-1.5-1.5c0-14.6,0-29.2,0-43.9c0-5.1,0-10.2,0-15.3c0-1.1,0.3-1.5,1.4-1.4c2.6,0.1,5.1,0.1,7.7,0
			c1.5-0.1,1.7,0.5,1.7,1.8c0,9.3,0,18.5,0,27.8c0,0.6,0,1.2,0,1.9c0.9-0.1,1.1-0.7,1.4-1.1c3.6-4.5,7.2-9,10.7-13.6
			c0.6-0.8,1.3-1.2,2.4-1.2c4.3,0.1,8.5,0,12.8,0c0,0.7-0.5,1-0.8,1.4c-5.2,6.3-10.4,12.7-15.7,19c-0.9,1.1-1.1,1.8,0,2.9
			c6.3,7.2,12.5,14.5,18.7,21.8C166.2,316.4,166.7,316.7,166.7,317.4z"/>
		<path class="st1" d="M263.6,297.5c-4.7,0-9.3,0-14,0c-0.9,0-1.4,0.2-1.2,1.3c1,4.3,3.3,7.6,7.4,9.4c4.3,1.9,9.1,0.5,12.4-3.7
			c1-1.2,1.6-1.2,2.7-0.4c2.1,1.3,4.3,2.6,6.5,3.7c0.9,0.5,0.8,0.9,0.3,1.6c-5,6.5-11.4,10-19.7,9.3c-5.8-0.5-10.5-3.3-14.3-7.7
			c-7.8-9-8.2-23.9-0.8-33.2c4.9-6.2,11.5-8.8,19.3-7.5c8,1.4,13.2,6.3,15.9,13.9c1.3,3.8,1.5,7.7,1.1,11.7c-0.1,1.5-0.7,1.7-2,1.7
			C272.7,297.4,268.1,297.4,263.6,297.5z M258.4,288.2c2.8,0,5.6,0,8.4,0c1.3,0,1.4-0.4,1.1-1.5c-1.3-4.5-4.9-7.2-9.4-7.1
			c-4.4,0-8.3,3.2-9.5,7.4c-0.3,1-0.1,1.2,0.9,1.2C252.7,288.2,255.5,288.2,258.4,288.2z"/>
		<path class="st1" d="M262.2,326.7c-7.2,0.6-14.8,1.2-22.4,1.9c-8.8,0.8-17.5,1.6-26.3,2.3c-7.6,0.7-15.3,1.2-22.9,1.9
			c-7.6,0.6-15.3,1.4-22.9,2c-7.6,0.7-15.3,1.2-22.9,1.9c-7.6,0.6-15.3,1.3-22.9,2c-4.8,0.4-9.6,0.8-14.4,1.2c-0.5,0-0.9,0-1.2-0.4
			c-4.1-4.4-8.2-8.7-12.1-12.8C149.9,326.7,206.2,326.7,262.2,326.7z"/>
		<path class="st1" d="M283.4,294.2c0-7.3,0-14.5,0-21.8c0-1.2,0.3-1.6,1.5-1.5c2.6,0.1,5.2,0,7.8,0c0.5,0,1.2-0.1,1.1,0.8
			c0,1.1,0.6,0.8,1.1,0.5c1.8-1,3.7-1.8,5.8-2.1c9.8-1.3,18.6,4.8,20.7,14.5c0.4,1.9,0.6,3.8,0.6,5.8c0,8.5,0,17,0,25.5
			c0,1.2-0.3,1.6-1.5,1.5c-2.4-0.1-4.8-0.1-7.2,0c-1.3,0.1-1.7-0.3-1.7-1.7c0.1-8.4,0-16.7,0-25.1c0-2.1-0.3-4.1-1.4-5.9
			c-1.8-3-5.2-4.7-8.3-4.3c-3.9,0.6-6.7,3.1-7.6,6.9c-0.3,1-0.3,2.1-0.3,3.1c0,8.4,0,16.8,0,25.2c0,1.2-0.2,1.7-1.6,1.6
			c-2.6-0.1-5.1-0.1-7.7,0c-1.3,0.1-1.6-0.4-1.6-1.6C283.4,308.6,283.4,301.4,283.4,294.2z"/>
		<path class="st1" d="M205.2,294.1c0,7.1,0,14.2,0,21.3c0,1.5-0.4,1.9-1.9,1.8c-2.5-0.1-5,0-7.5,0c-0.6,0-1.1,0-1.2-0.9
			c-0.2-1-0.8-0.2-1.2,0c-4.5,2.5-9.3,2.9-14.1,1.2c-7.6-2.6-11.6-8.3-12.6-16.1c-0.9-7.2-0.2-14.4-0.3-21.6c0-2.5,0.1-5,0-7.5
			c0-1.2,0.4-1.4,1.5-1.4c2.6,0.1,5.1,0.1,7.7,0c1.3,0,1.6,0.5,1.6,1.6c0,8.4,0,16.7,0,25.1c0,1.5,0.1,3,0.7,4.4
			c1.6,4.1,5.4,6.3,9.8,5.6c4-0.7,7.1-4.5,7.1-9c0.1-8.6,0.1-17.2,0-25.8c0-1.4,0.3-1.9,1.8-1.9c2.3,0.1,4.6,0.1,6.9,0
			c1.6-0.1,1.9,0.5,1.9,2C205.2,279.9,205.2,287,205.2,294.1z"/>
		<path class="st1" d="M225.5,292.8c0,3.4-0.2,6.7,0,10.1c0.3,4.3,3.7,6.2,7.6,4.5c0.7-0.3,1.1-0.3,1.6,0.4c1.8,2.5,3.7,4.9,5.5,7.3
			c0.3,0.4,0.9,0.8-0.1,1.3c-6.8,3.3-14,3.5-19.8-1.5c-3.7-3.2-5.4-7.3-5.4-12.1c-0.1-6.5-0.1-12.9,0-19.4c0-1.2-0.4-1.7-1.6-1.6
			c-1,0.1-2,0-3,0c-0.8,0-1.1-0.3-1.1-1.1c0-2.9,0-5.8,0-8.7c0-0.8,0.4-1.1,1.1-1c1,0,2-0.1,3,0c1.3,0.1,1.6-0.5,1.6-1.7
			c-0.1-2.9,0-5.8,0-8.7c0-1.2,0.4-1.5,1.5-1.4c2.5,0.1,4.9,0.1,7.4,0c1.3,0,1.8,0.3,1.7,1.7c-0.1,2.8,0,5.7,0,8.6
			c0,1.1,0.3,1.6,1.5,1.6c2.2-0.1,4.3,0,6.5,0c0.9,0,1.2,0.2,1.2,1.2c-0.1,3,0,5.9,0,8.9c0,0.8-0.3,1-1,1c-2.3,0-4.5,0-6.8,0
			c-1,0-1.4,0.3-1.4,1.4c0,3.2,0,6.3,0,9.5C225.4,292.8,225.4,292.8,225.5,292.8z"/>
	</g>
	<g>
		<path class="st1" d="M346.9,275.2c0.7-0.9,0.9-2,1.8-2.7c1-0.8,2.1-1.2,3.4-1.2c11.3,0,22.6,0,33.9,0c2.9,0,5.1,2.2,5.1,4.8
			c0,2.7-2.2,4.9-5.2,4.9c-3.3,0-6.5,0.1-9.8,0c-1.4,0-1.8,0.4-1.8,1.8c0,13.1-0.1,26.2,0.1,39.2c0,3.6-1,6-4.6,7c-0.5,0-1,0-1.5,0
			c-3.6-1.1-4.7-3.5-4.6-7.2c0.2-13,0-26.1,0.1-39.1c0-1.3-0.4-1.8-1.7-1.8c-3.3,0.1-6.6,0-9.9,0c-1.4,0-2.6-0.5-3.6-1.4
			c-0.8-0.7-1-1.7-1.6-2.5C346.9,276.5,346.9,275.8,346.9,275.2z"/>
		<path class="st1" d="M448,286.5c0.5-0.4,0.5-1,0.7-1.5c1.2-2.5,3.3-3.5,6-3c2.5,0.5,4.1,2.5,4.1,5.2c0,11.8,0,23.5,0,35.3
			c0,3.2-1.9,4.9-4.1,5.5c-2.6,0.6-5-0.6-6.2-3.2c-0.3-0.6-0.4-1.5-1.3-0.5c-5.2,5.6-13.1,5.5-19.1,2.2c-6.2-3.4-9.8-8.8-11.2-15.6
			c-1.8-8.5-0.1-16.2,5.9-22.7c4.9-5.3,11.1-7.6,18.4-6.1c2.2,0.5,4,1.7,5.6,3.3C447.2,285.8,447.4,286.3,448,286.5z M448.3,305.3
			c0-3.8-0.8-7.3-3.1-10.2c-3.8-4.7-10.4-4.9-14.4-0.4c-4.9,5.4-5,15.2-0.3,20.7c4.3,5,11.2,4.7,15.1-0.6
			C447.6,311.8,448.4,308.6,448.3,305.3z"/>
		<path class="st1" d="M528.2,307.9c-4.2,0-8.5,0-12.7,0c-1.2,0-1.5,0.4-1.3,1.5c0.9,4.1,3,7.2,7.2,8.5c4,1.3,7.6,0.5,10.6-2.6
			c2.2-2.3,5.7-2.3,7.9-0.1c2,2.1,1.6,5-0.6,7.4c-9.7,10.3-31.7,7.6-36.2-10.9c-1.8-7.5-1-14.8,3.4-21.4c4.3-6.4,10.4-9.8,18.2-9.2
			c8.1,0.6,13.6,5.3,17.1,12.4c1.7,3.4,2.5,7,2.5,10.8c0,2.3-1.3,3.6-3.6,3.6C536.5,307.9,532.4,307.9,528.2,307.9z M523.2,299.2
			c2.5,0,5-0.1,7.5,0c1.2,0,1.4-0.4,1.1-1.4c-1.1-4.4-4.3-7-8.4-7c-4.3,0-7.7,2.7-8.8,7.1c-0.3,1.1,0.1,1.4,1.1,1.4
			C518.2,299.1,520.7,299.2,523.2,299.2z"/>
		<path class="st1" d="M482,312.4c0.6-0.5,0.6-1.2,0.8-1.8c2.5-8.4,4.9-16.8,7.4-25.1c0.7-2.5,2.7-4,5.1-4.1
			c2.6-0.1,4.6,1.1,5.5,3.3c0.6,1.4,0.5,2.8,0.1,4.2c-3.6,11.4-7.2,22.8-10.9,34.1c-1.1,3.4-4.2,5.6-7.7,5.7c-3.7,0-6.8-2.3-8-5.9
			c-2.4-7.2-4.7-14.4-7-21.6c-1.4-4.2-2.8-8.4-4.1-12.6c-0.8-2.6,0.3-5.1,2.5-6.4c2.1-1.3,5-0.9,6.8,0.9c0.9,0.9,1.3,2,1.7,3.2
			c2.4,8.3,4.9,16.6,7.3,24.9C481.6,311.5,481.7,312,482,312.4z"/>
		<path class="st1" d="M549,297.4c0-8.6,0-17.2,0-25.8c0-2.5,1.6-4.5,4-5.2c2.3-0.6,4.6,0.4,5.9,2.4c0.6,0.9,0.7,1.9,0.7,2.9
			c0,17.1,0,34.2,0,51.4c0,3.3-2.3,5.6-5.4,5.6c-3,0-5.3-2.5-5.3-5.7C548.9,314.4,549,305.9,549,297.4z"/>
		<path class="st1" d="M402.1,286.4c2.2-2.3,4.7-3.8,7.7-4.6c2.4-0.7,4.8,0.1,5.9,2c1.1,1.7,0.8,4.3-0.6,5.8c-0.9,1-2.1,1.4-3.4,1.7
			c-4.6,1-7.4,3.9-8.5,8.4c-0.3,1.2-0.4,2.5-0.4,3.8c0,6.6,0,13.1,0,19.7c0,2.7-2,4.9-4.5,5.2c-2.8,0.3-5.2-1.2-6-3.9
			c-0.2-0.7-0.2-1.4-0.2-2.1c0-11.6,0-23.2,0-34.8c0-3.2,1.3-5.1,3.7-5.5c3-0.5,4.6,0.5,5.8,3.8C401.8,286,401.9,286.1,402.1,286.4z
			"/>
	</g>
</g>
</svg>
