<svg xmlns="http://www.w3.org/2000/svg" xml:space="preserve" id="Layer_1" x="0" y="0" style="enable-background:new 0 0 595.3 595.3" version="1.1" viewBox="0 0 595.3 595.3"><style>.st1{fill:#fff}</style><path d="M297.6 595.3C133.3 595.3 0 462 0 297.6 0 133.3 133.3 0 297.6 0 462 0 595.3 133.3 595.3 297.6c0 164.4-133.3 297.7-297.7 297.7" style="fill:#ff234f"/><path d="M584.9 375.9c.5-2 1.1-4 1.6-6zM437.1 112.9c-17.9 32.1-34.6 62.3-51.1 91.8-13.4-3.4-25.7-8.3-38.4-9.4-38.7-3.2-68.6 24.5-73.9 67.6-1.8 14.6-2.8 29.4-2.8 44.2-.3 60.8-.1 121.7-.1 182.5v16.3H159.7c-.3-2.4-1.1-5.2-1.1-8 0-71-1.6-142 .9-212.9 1.1-29.8 7.7-60.4 17.2-88.8C195 141 235.6 107.8 292.2 95.4c43.7-9.5 87.2-8.4 129.1 9.8 5 2.1 9.7 4.7 15.8 7.7" class="st1"/></svg>