<?xml version="1.0" encoding="utf-8"?>
<!-- Generator: Adobe Illustrator 26.3.1, SVG Export Plug-In . SVG Version: 6.00 Build 0)  -->
<svg version="1.1" id="Layer_1" xmlns="http://www.w3.org/2000/svg" xmlns:xlink="http://www.w3.org/1999/xlink" x="0px" y="0px"
	 viewBox="0 0 595.3 595.3" style="enable-background:new 0 0 595.3 595.3;" xml:space="preserve">
<style type="text/css">
	.st0{fill:#FFFFFF;}
	.st1{fill:#FF244F;}
</style>
<path class="st0" d="M297.6,595.3L297.6,595.3C133.3,595.3,0,462,0,297.6l0,0C0,133.3,133.3,0,297.6,0l0,0
	C462,0,595.3,133.3,595.3,297.6l0,0C595.3,462,462,595.3,297.6,595.3z"/>
<g id="zo7O1O.tif_00000059297392489194660640000014790092122125690004_">
	<g>
		<path class="st1" d="M395.9,196.5c-55.5,0-100.1,40.5-104.8,95.4c-0.8,9.8-6.9,6.6-11.9,7.1c-7.5,0.7-5.4-4.8-5-8.4
			c5.3-58.4,49.6-102.6,107.4-109.5c58.6-7,120.1,31.1,133.6,97.2c9.1,44.5-13.7,97-52.7,120.8c-3.6,2.2-6.4,3.5-8.2-1.6
			c-1.5-4.3-7.8-7.6,0-13c29.6-20.5,45.7-48.8,45.7-85.4c0-47.8-34.7-90.3-81.5-100.3C410.9,197.1,403.2,197,395.9,196.5z"/>
		<path class="st1" d="M362.9,407.2c-11.6,9.3-22.9,9.6-34.3,3.1c-3.1-1.8-5.1-1.4-8.1,0.1c-24.7,12.3-45.9-0.1-46.5-27.5
			c-0.5-20.3,0.2-40.6-0.3-60.9c-0.2-7.5,4.5-6.2,8.8-6.2c4.3,0,8.9-1.3,8.7,6.2c-0.4,19.7-0.1,39.4-0.1,59.1
			c0,4.5,0.1,9.1,2.9,12.9c3.8,5.2,9,6.6,15,4.3c5.5-2.1,6-5.7,5-11.4c-4.1-22.3,10.9-41.2,31.4-40.6c6,0.2,10.7,4.9,15.6,5.3
			c3.5,0.3,8-4.6,13.6-4.2c5,0.4,6.6,2,6.6,7c-0.2,17,0,34-0.2,51c0,2.9,2.5,8.5-3.5,8.2C372.3,413.4,364.3,418.2,362.9,407.2z
			 M363.8,380.9c0.1-10.3-7.2-18.7-16.3-18.9c-9.2-0.1-16.7,8.1-16.8,18.4c-0.1,10.3,7.2,18.8,16.3,19
			C355.9,399.6,363.7,391.1,363.8,380.9z"/>
		<path class="st1" d="M217.5,354.5c10.4-9.3,20.3-10.7,30.5-5.2c10.5,5.7,12.8,15.7,12.8,26.7c-0.1,10.7-0.3,21.5,0.1,32.2
			c0.2,6.1-3.4,6-7.5,5.6c-3.9-0.4-9.6,2.4-9.6-5.4c0.1-10.7,0.2-21.5-0.1-32.2c-0.2-9.6-4.5-14.2-12.3-14.4
			c-7.7-0.1-13.5,5.7-13.7,14.5c-0.3,10.4-0.5,20.9,0,31.3c0.4,7.7-4.6,6.1-8.8,6.1c-4.2,0-8.9,1.5-8.8-6.1
			c0.4-28.6,0.3-57.3,0-85.9c-0.1-7.6,4.7-6,8.9-6.1c4.3,0,9.1-1.3,8.7,6.3C217.1,332.1,217.5,342.2,217.5,354.5z"/>
		<path class="st1" d="M165.4,386.9c-6,0-12-0.1-18,0.1c-1.6,0-4.1-0.7-4.5,1.6c-0.2,1.5,0.8,3.4,1.8,4.7c4.8,6.4,15.1,8.5,23.5,3.2
			c8.3-5.1,11.4,1.8,14,5.8c2.8,4.3-3.3,6-6.2,7.8c-14,8.2-32.4,5.9-43-5.1c-10.2-10.6-12.2-31.5-4.1-44.2
			c7.8-12.4,24.7-17.8,39.7-12.6c14.1,4.8,21.9,18.3,20.3,34.1c-0.4,4.2-2.2,4.8-5.7,4.8C177.4,386.7,171.4,386.8,165.4,386.9z
			 M156.1,374.7c3.3,0,6.5,0.1,9.8,0c2-0.1,4.4,0.5,5.3-2c0.8-2.2-0.8-4-2-5.6c-4.9-6.2-16-7.1-22.4-1.6c-2.2,1.9-5,4.2-3.9,7.3
			c1.1,3.1,4.6,1.6,7.1,1.9C151.9,374.9,154,374.7,156.1,374.7z"/>
		<path class="st1" d="M394,358c0-10.2,0.4-20.3-0.1-30.5c-0.4-7.5,4.3-6.4,8.7-6.3c4.3,0,9.7-1.3,8.6,6.2c0,0.3,0,0.6,0,0.9
			c0.5,19,0.5,19.1,20.3,19.2c5.7,0,9.4,0.3,9.4,7.9c0,7.6-3.5,7.9-9.3,7.9c-20.6,0-20.6,0.1-20.3,20.7c0.2,11.9,6,17.5,17.5,14.9
			c8.7-2,9,4.7,10.4,8.9c1.9,5.8-4.2,5.4-7.4,6c-24.9,4.4-37.6-6.4-37.6-31.6C394,374.2,394,366.1,394,358z"/>
		<path class="st1" d="M78.2,394.1c0-7.7-0.1-15.4,1.4-23.1c3.4-18.3,21.1-28.6,38.6-22.1c1.4,0.5,5.3,0.6,3.3,3.7
			c-2.6,3.9-2.5,10.3-9,11.1c-15.1,1.9-17,4.1-17,19.6c0,8.3-0.3,16.7,0.1,25c0.4,7.9-5.2,5.5-9.1,5.6c-3.8,0.1-8.9,1.6-8.3-5.5
			C78.5,403.6,78.2,398.9,78.2,394.1z"/>
	</g>
</g>
</svg>
