<?xml version="1.0" encoding="utf-8"?>
<!-- Generator: Adobe Illustrator 26.3.1, SVG Export Plug-In . SVG Version: 6.00 Build 0)  -->
<svg version="1.1" id="Layer_1" xmlns="http://www.w3.org/2000/svg" xmlns:xlink="http://www.w3.org/1999/xlink" x="0px" y="0px"
	 viewBox="0 0 595.3 595.3" style="enable-background:new 0 0 595.3 595.3;" xml:space="preserve">
<style type="text/css">
	.st0{fill:#FFFFFF;}
	.st1{fill:#FC7E28;}
</style>
<path class="st0" d="M297.6,595.3L297.6,595.3C133.3,595.3,0,462,0,297.6l0,0C0,133.3,133.3,0,297.6,0l0,0
	C462,0,595.3,133.3,595.3,297.6l0,0C595.3,462,462,595.3,297.6,595.3z"/>
<path class="st1" d="M156,291.2c9.3-10.3,19.6-10.6,31.8-7.9c7.8,1.6,11,5,10.9,12.8c-0.3,12.9,1.2,25.6,7.1,37.4
	c1.3,2.6,2.1,5.6,0.9,8.5c-4.4,9.9-14.7,11.8-23,16.3c-5.3,2.9-9-2.2-12.8-5.3c-13.4-10.9-35.9-11.9-50-2.5
	c-14.9,9.9-21.8,29.7-16.5,47.1c5.7,19,24,31.9,42.2,29.9c23.1-2.5,38.4-17.5,39.4-39.4c0.4-11,4.9-19,15-23.5
	c2.9-1.3,5.7-3.1,8.2-4.9c4.9-3.5,9-2.8,13.1,1.5c9.9,10.2,21.2,18.2,34.3,23.7c5.6,2.4,7.2,6,5.4,11.9c-2.6,8.7-5.4,17.2-7.4,26
	c-2.2,10.4-7.7,16.8-18.1,20c-17.4,5.4-26.3,25.5-20.2,42.7c6,17.1,25.8,26.8,42.7,21c24.3-8.2,31.6-37.7,13.4-55.8
	c-7.1-6.9-8.8-13.4-5.6-22.5c3.2-9,5.6-18.4,8.1-27.7c1.8-6.6,5.6-9.9,12.7-9.6c18,0.7,34.7-3.8,50.2-12.9c6-3.5,10.7-2.6,15.7,2.1
	c9.9,9.6,19.4,19.4,30,28.1c10,8.2,13.8,16.5,10,30c-4.7,16.8,4.6,33.7,20,43c14,8.4,33.1,7.2,46.2-2.6
	c13.8-10.6,19.9-27.8,15.5-44.3c-6.9-25.3-32.1-37.5-57.5-27.7c-6.3,2.5-12.1,4-17.7-1.5c-11.5-11.2-23.2-22.2-35-33.1
	c-5.7-5.3-6.2-10.7-1.2-16.9c15-18.5,21.5-39.7,19.7-63.6c-0.3-3.8,0.3-7.5,3.2-10.4c9.9-9.7,28-8.1,36.1,3.2
	c11,15.6,33,18.8,48,7.1c12.4-9.6,15.5-22.4,11.9-36.8c-3.2-13.1-11.9-21.5-25.3-23.7c-14.9-2.5-28,0.6-35.9,15.2
	c-7.8,14.1-21.8,16.5-35.8,18.7c-4,0.6-7.2-1.9-9.6-5.2c-2.2-3.1-4-6.5-6.5-9.4c-6-7.1-4.6-12.9,1.9-18.8
	c12.1-11,24.3-21.9,35.5-33.8c9-9.6,17.4-12.9,30.8-7.5c18.5,7.5,39.6-1,51.2-18.2c11-16.6,9.6-39.1-3.5-54.4
	c-13.7-15.9-34.6-20.7-53.1-12.2c-22.8,10.4-32.2,32.7-24,57.7c1.9,6,3.8,11.6-1.8,16.9c-15.7,14.9-31.2,29.7-46.8,44.7
	c-4.3,4.1-8.7,4.3-13.2,0.6c-6.6-5.3-14.1-9.3-22.1-12.4c-5.9-2.2-8.7-6.5-8.5-12.8c0.1-10.7,0.3-21.6,0-32.4
	c-0.1-8.5,2.8-14.9,10.3-19.7c14.1-9.1,18.5-26.6,11.6-41.6c-5.9-12.5-19.6-20.2-33.8-18.7c-13.5,1.5-25.8,12.4-28.8,25.8
	c-3.2,14.1,2.5,28.4,16,35.6c9,4.7,12.2,11,11.2,20.5c-0.3,3.2,0,6.5,0,9.6c-0.1,0-0.3,0-0.4,0c0,4.4,0.1,8.7,0,13.1
	c-0.4,11.8-2.1,13.4-13.7,14.4c-10.2,0.9-20.3,2.4-29.9,5.9c-23.4,8.7-39.6,25.2-50.8,46.9c-2.1,4.1-3.7,9.4-8.8,10.2
	c-9,1.2-18-1.2-26.6-3.2c-5.4-1.3-6-7.4-7.9-11.9c-9.6-22.1-35.5-28.1-53.7-12.5c-14.9,12.8-15.9,34.6-2.4,49
	C121.5,305.3,142.7,305.9,156,291.2z"/>
</svg>
