<svg xmlns="http://www.w3.org/2000/svg" xml:space="preserve" style="enable-background:new 0 0 595.3 595.3" viewBox="0 0 595.3 595.3"><path d="M297.6 595.3C133.3 595.3 0 462 0 297.6 0 133.3 133.3 0 297.6 0 462 0 595.3 133.3 595.3 297.6c0 164.4-133.3 297.7-297.7 297.7" style="fill:#fff"/><path d="M156 291.2c9.3-10.3 19.6-10.6 31.8-7.9 7.8 1.6 11 5 10.9 12.8-.3 12.9 1.2 25.6 7.1 37.4 1.3 2.6 2.1 5.6.9 8.5-4.4 9.9-14.7 11.8-23 16.3-5.3 2.9-9-2.2-12.8-5.3-13.4-10.9-35.9-11.9-50-2.5-14.9 9.9-21.8 29.7-16.5 47.1 5.7 19 24 31.9 42.2 29.9C169.7 425 185 410 186 388.1c.4-11 4.9-19 15-23.5 2.9-1.3 5.7-3.1 8.2-4.9 4.9-3.5 9-2.8 13.1 1.5 9.9 10.2 21.2 18.2 34.3 23.7 5.6 2.4 7.2 6 5.4 11.9-2.6 8.7-5.4 17.2-7.4 26-2.2 10.4-7.7 16.8-18.1 20-17.4 5.4-26.3 25.5-20.2 42.7 6 17.1 25.8 26.8 42.7 21 24.3-8.2 31.6-37.7 13.4-55.8-7.1-6.9-8.8-13.4-5.6-22.5 3.2-9 5.6-18.4 8.1-27.7 1.8-6.6 5.6-9.9 12.7-9.6 18 .7 34.7-3.8 50.2-12.9 6-3.5 10.7-2.6 15.7 2.1 9.9 9.6 19.4 19.4 30 28.1 10 8.2 13.8 16.5 10 30-4.7 16.8 4.6 33.7 20 43 14 8.4 33.1 7.2 46.2-2.6 13.8-10.6 19.9-27.8 15.5-44.3-6.9-25.3-32.1-37.5-57.5-27.7-6.3 2.5-12.1 4-17.7-1.5-11.5-11.2-23.2-22.2-35-33.1-5.7-5.3-6.2-10.7-1.2-16.9 15-18.5 21.5-39.7 19.7-63.6-.3-3.8.3-7.5 3.2-10.4 9.9-9.7 28-8.1 36.1 3.2 11 15.6 33 18.8 48 7.1 12.4-9.6 15.5-22.4 11.9-36.8-3.2-13.1-11.9-21.5-25.3-23.7-14.9-2.5-28 .6-35.9 15.2-7.8 14.1-21.8 16.5-35.8 18.7-4 .6-7.2-1.9-9.6-5.2-2.2-3.1-4-6.5-6.5-9.4-6-7.1-4.6-12.9 1.9-18.8 12.1-11 24.3-21.9 35.5-33.8 9-9.6 17.4-12.9 30.8-7.5 18.5 7.5 39.6-1 51.2-18.2 11-16.6 9.6-39.1-3.5-54.4-13.7-15.9-34.6-20.7-53.1-12.2-22.8 10.4-32.2 32.7-24 57.7 1.9 6 3.8 11.6-1.8 16.9-15.7 14.9-31.2 29.7-46.8 44.7-4.3 4.1-8.7 4.3-13.2.6-6.6-5.3-14.1-9.3-22.1-12.4-5.9-2.2-8.7-6.5-8.5-12.8.1-10.7.3-21.6 0-32.4-.1-8.5 2.8-14.9 10.3-19.7 14.1-9.1 18.5-26.6 11.6-41.6-5.9-12.5-19.6-20.2-33.8-18.7-13.5 1.5-25.8 12.4-28.8 25.8-3.2 14.1 2.5 28.4 16 35.6 9 4.7 12.2 11 11.2 20.5-.3 3.2 0 6.5 0 9.6h-.4c0 4.4.1 8.7 0 13.1-.4 11.8-2.1 13.4-13.7 14.4-10.2.9-20.3 2.4-29.9 5.9-23.4 8.7-39.6 25.2-50.8 46.9-2.1 4.1-3.7 9.4-8.8 10.2-9 1.2-18-1.2-26.6-3.2-5.4-1.3-6-7.4-7.9-11.9-9.6-22.1-35.5-28.1-53.7-12.5-14.9 12.8-15.9 34.6-2.4 49 13.2 14.3 34.4 14.9 47.7.2" style="fill:#fc7e28"/></svg>