<?xml version="1.0" encoding="utf-8"?>
<!-- Generator: Adobe Illustrator 26.3.1, SVG Export Plug-In . SVG Version: 6.00 Build 0)  -->
<svg version="1.1" id="Layer_1" xmlns="http://www.w3.org/2000/svg" xmlns:xlink="http://www.w3.org/1999/xlink" x="0px" y="0px"
	 viewBox="0 0 841.9 595.3" style="enable-background:new 0 0 841.9 595.3;" xml:space="preserve">
<style type="text/css">
	.st0{fill:#FC7E28;}
	.st1{fill:#060504;}
	.st2{fill:#FFFFFF;}
	.st3{fill:#F58931;}
	.st4{fill:#EE4324;}
</style>
<g>
	<path class="st0" d="M718.6,297.6C718.6,133.3,585.3,0,420.9,0S123.3,133.3,123.3,297.6c0,43.9,9.5,85.6,26.6,123.2H692
		C709.1,383.3,718.6,341.6,718.6,297.6z"/>
	<path class="st1" d="M420.9,595.3c120.5,0,224.2-71.6,271-174.5H149.9C196.8,523.7,300.5,595.3,420.9,595.3z"/>
	<path class="st2" d="M324.8,224.6c6.3-7,13.3-7.2,21.6-5.4c5.3,1.1,7.5,3.4,7.4,8.7c-0.2,8.8,0.8,17.4,4.8,25.4
		c0.9,1.8,1.4,3.8,0.6,5.8c-3,6.7-10,8-15.6,11.1c-3.6,2-6.1-1.5-8.7-3.6c-9.1-7.4-24.4-8.1-34-1.7c-10.1,6.7-14.8,20.2-11.2,32
		c3.9,12.9,16.3,21.7,28.7,20.3c15.7-1.7,26.1-11.9,26.8-26.8c0.3-7.5,3.3-12.9,10.2-16c2-0.9,3.9-2.1,5.6-3.3
		c3.3-2.4,6.1-1.9,8.9,1c6.7,6.9,14.4,12.4,23.3,16.1c3.8,1.6,4.9,4.1,3.7,8.1c-1.8,5.9-3.7,11.7-5,17.7
		c-1.5,7.1-5.2,11.4-12.3,13.6c-11.8,3.7-17.9,17.3-13.7,29c4.1,11.6,17.5,18.2,29,14.3c16.5-5.6,21.5-25.6,9.1-37.9
		c-4.8-4.7-6-9.1-3.8-15.3c2.2-6.1,3.8-12.5,5.5-18.8c1.2-4.5,3.8-6.7,8.6-6.5c12.2,0.5,23.6-2.6,34.1-8.8c4.1-2.4,7.3-1.8,10.7,1.4
		c6.7,6.5,13.2,13.2,20.4,19.1c6.8,5.6,9.4,11.2,6.8,20.4c-3.2,11.4,3.1,22.9,13.6,29.2c9.5,5.7,22.5,4.9,31.4-1.8
		c9.4-7.2,13.5-18.9,10.5-30.1c-4.7-17.2-21.8-25.5-39.1-18.8c-4.3,1.7-8.2,2.7-12-1c-7.8-7.6-15.8-15.1-23.8-22.5
		c-3.9-3.6-4.2-7.3-0.8-11.5c10.2-12.6,14.6-27,13.4-43.2c-0.2-2.6,0.2-5.1,2.2-7.1c6.7-6.6,19-5.5,24.5,2.2
		c7.5,10.6,22.4,12.8,32.6,4.8c8.4-6.5,10.5-15.2,8.1-25c-2.2-8.9-8.1-14.6-17.2-16.1c-10.1-1.7-19,0.4-24.4,10.3
		c-5.3,9.6-14.8,11.2-24.3,12.7c-2.7,0.4-4.9-1.3-6.5-3.5c-1.5-2.1-2.7-4.4-4.4-6.4c-4.1-4.8-3.1-8.8,1.3-12.8
		c8.2-7.5,16.5-14.9,24.1-23c6.1-6.5,11.8-8.8,20.9-5.1c12.6,5.1,26.9-0.7,34.8-12.4c7.5-11.3,6.5-26.6-2.4-37
		c-9.3-10.8-23.5-14.1-36.1-8.3c-15.5,7.1-21.9,22.2-16.3,39.2c1.3,4.1,2.6,7.9-1.2,11.5c-10.7,10.1-21.2,20.2-31.8,30.4
		c-2.9,2.8-5.9,2.9-9,0.4c-4.5-3.6-9.6-6.3-15-8.4c-4-1.5-5.9-4.4-5.8-8.7c0.1-7.3,0.2-14.7,0-22c-0.1-5.8,1.9-10.1,7-13.4
		c9.6-6.2,12.6-18.1,7.9-28.3c-4-8.5-13.3-13.7-23-12.7c-9.2,1-17.5,8.4-19.6,17.5c-2.2,9.6,1.7,19.3,10.9,24.2
		c6.1,3.2,8.3,7.5,7.6,13.9c-0.2,2.2,0,4.4,0,6.5c-0.1,0-0.2,0-0.3,0c0,3,0.1,5.9,0,8.9c-0.3,8-1.4,9.1-9.3,9.8
		c-6.9,0.6-13.8,1.6-20.3,4c-15.9,5.9-26.9,17.1-34.5,31.9c-1.4,2.8-2.5,6.4-6,6.9c-6.1,0.8-12.2-0.8-18.1-2.2
		c-3.7-0.9-4.1-5-5.4-8.1c-6.5-15-24.1-19.1-36.5-8.5c-10.1,8.7-10.8,23.5-1.6,33.3C301.4,234.2,315.8,234.6,324.8,224.6z"/>
	<g id="vqMvHg.tif_00000125583478228072374830000013290063821525896580_">
		<g>
			<path class="st3" d="M348.7,506.9c-2.6,0.4-5.2,0.2-7.8-0.1c-0.6-0.1-1.3-0.2-1.8-0.3c-5.3-1-5.3-1.1-4.6-6.4
				c0.2-1.3,0.5-1.6,1.8-1.1c2.9,1.2,6,1.9,9.2,1.7c2-0.1,4-0.3,4.7-2.4c0.8-2.3-1.1-3.5-2.7-4.5c-2.7-1.8-5.6-3.2-8.3-4.8
				c-3.2-1.9-4.9-4.6-4.6-8.4c0.3-3.8,2.6-6.2,5.8-7.8c5.5-2.7,11.1-2,16.6-0.1c2.4,0.8,0.7,2.7,0.9,4.1c0.2,2-0.3,2.9-2.7,1.8
				c-2.8-1.3-5.8-1.8-8.9-1.1c-2.9,0.7-3.4,3-1.3,5c1.4,1.3,3.2,2,4.9,2.8c1.8,0.9,3.6,1.8,5.3,2.8c3.5,2.1,5,5.2,4.6,9.3
				c-0.4,3.8-2.6,6.2-5.9,7.7C352.2,505.9,350.5,506.6,348.7,506.9z"/>
			<path class="st2" d="M489.1,477.1c2.1-2.1,3.6-3.9,5.8-4.8c8-3.4,16.1,0.8,16.8,9.3c0.6,7.6,0.2,15.4,0.3,23c0,2.5-2,1.3-3.2,1.5
				c-1.2,0.2-2.4,0.2-2.4-1.7c0.1-5.6,0.1-11.2,0-16.9c0-1.6-0.1-3.2-0.3-4.8c-0.6-3.1-1.9-5.7-5.4-6.6c-3.6-0.9-6.6,0.1-9,2.8
				c-1.9,2.1-2.6,4.7-2.6,7.5c0,5.6-0.1,11.2,0.1,16.9c0.1,2.2-0.6,2.9-2.9,2.8c-2-0.1-3-0.2-3-2.7c0.2-9.6,0.2-19.3,0-29
				c0-2.5,1-2.7,3-2.7c2,0,3.2,0.3,2.8,2.6C489,475.2,489.1,475.8,489.1,477.1z"/>
			<path class="st2" d="M534.6,506.9c-1.9,0.3-3.9,0.4-5.7,0c-4.3-1.2-8.9-5.3-9.1-11.7c-0.3-7.1-0.1-14.2-0.2-21.4
				c0-2.5,1.7-1.6,3-1.7c1.3-0.1,2.6-0.3,2.6,1.8c-0.1,5.2-0.1,10.5,0,15.7c0,1.6,0.1,3.2,0.3,4.8c0.6,5.2,3.3,7.8,7.9,7.9
				c4.5,0.1,8.4-3.2,9-7.8c0.7-4.8,0.2-9.7,0.3-14.6c0-1.5,0-3,0-4.5c0-3.3,1.2-4.1,4.5-3.4c1,0.2,1.1,0.8,1.1,1.6
				c0,10.3,0,20.6,0,30.9c0,2.3-1.6,1.8-2.8,1.8c-1.2,0-2.9,0.5-2.8-1.8c0-0.8,0-1.7,0-3.5C540.3,504.3,537.3,506.4,534.6,506.9z"/>
			<path class="st2" d="M429.6,500.1c3.1-8.5,6.1-16.7,9.1-25c1.1-3,2.9-3.9,6-3.1c1.7,0.4,0.5,1.4,0.3,1.9
				c-3.4,8.6-6.9,17.2-10.4,25.8c-0.5,1.2-1.1,2.4-1.4,3.7c-0.6,2.4-2,3-4.3,2.9c-1.6-0.1-2.6-0.4-3.2-2c-3.7-10-7.5-20-11.4-29.9
				c-0.8-1.9-0.4-2.2,1.6-2.4c3.1-0.3,4.2,0.9,5.1,3.7C423.7,483.7,426.6,491.7,429.6,500.1z"/>
			<path class="st2" d="M416.6,505.2c-0.3-0.6-0.5-1.2-0.8-1.8c-5.3-14-10.6-28.1-15.7-42.2c-0.9-2.6-2.7-2-4.5-2.1
				c-1.8-0.2-2.9,0.2-3.5,2.2c-2.6,7.5-7.8,21.4-10.8,29.6c0,0,0,0,0,0c-0.2,0.5-0.3,0.9-0.5,1.4c0,0,0,0,0,0l0,0
				c-1.7,4.8-3.5,9.7-5.2,14.5c2,0,4.1,0.1,6.1,0.1c1.6-4.5,3.2-9,4.9-13.5h0c0,0,0,0,0,0c0.1-0.4,0.3-0.8,0.4-1.1c0,0,0,0,0,0
				c2.2-6.4,6.7-19.1,8.5-24.6c0.2-0.3,0.6-1.4,0.9-0.9c0.2,0.4,0.5,1.3,0.7,1.9c4.6,12.7,9.2,25.4,13.8,38.1c1.4,0,2.8-0.1,4.2,0
				C416.4,506.9,416.8,506.4,416.6,505.2z"/>
			<path class="st4" d="M397,485.1c1.5,0,2.3,0.7,2.7,2.1c0.7,2.1,1.5,4.3,2.3,6.3c0.6,1.6,0.5,2-1.4,1.6
				c-4.5-1.1-32.7-7.6-39.4-9.2C374.9,485.3,394.5,485.1,397,485.1z"/>
			<path class="st3" d="M291.6,504.9c-3.6-7.3-4.8-15.8-10.7-22.1c0.7-0.3,1.4-0.6,2.1-0.9c4.5-2.2,6.6-5.7,6.5-10.6
				c-0.1-4.8-2.1-8.3-6.6-10.2c-3-1.3-6.2-1.9-9.4-1.9c-5.7-0.1-11.4-0.1-17.1-0.1c0,15.9,0,31.9,0,47.8c2.3-0.1,4.6-0.3,6.8-0.2
				c2.1,0.1,2.6-0.7,2.5-2.6c-0.1-5.1,0-10.1,0-15.2c0-0.9-0.2-1.8,1.2-2.2c4-1,8.2,1,9.8,4.9c1.1,2.7,2.1,5.4,3.1,8.1
				c2.7,7.2,2.7,7.2,10.3,6.9c0.1,0,0.2,0,0.3,0C291.7,506.8,292.3,506.2,291.6,504.9z M275.9,479.1c-2.9,1.3-5.9,0.9-8.9,1
				c-1.2,0-1.3-0.8-1.3-1.7c0-1.8,0-3.5,0-5.3c0-0.9,0-1.9,0-2.8c0.1-4.6-0.8-4.4,4.4-4.3c1.6,0,3.2,0.2,4.8,0.6
				c3.3,0.8,4.9,2.6,5.2,5.8C280.2,475.4,278.8,477.8,275.9,479.1z"/>
			<path class="st3" d="M307.1,491.7c6.4,0.1,12.7-0.1,19.1,0.1c2.6,0.1,3.5-0.8,3-3.2c-0.1-0.5,0-0.9,0-1.4
				c-0.6-6.2-2.4-11.9-8.8-14.7c-10.9-4.8-22.3,1.3-24.4,12.8c-1.9,10.5,5.5,20.7,13.3,21.6c4.6,0.5,9.3,0.2,13.9-0.6
				c4-0.2,3.1-3.1,3.2-5.5c0.1-1.7-0.4-2.2-2.1-1.4c-3.2,1.5-6.6,1.6-10,1.4c-4.2-0.2-7.6-2.7-9-6.3
				C304.5,492.6,304.6,491.7,307.1,491.7z M305.3,483.2c1.4-4,4.4-6.4,8.1-6.2c3.5,0.2,6.2,2.8,7.2,6.6c0.4,1.6,0.3,2.7-1.9,2.6
				c-2-0.2-4,0-6,0c-1.8,0-3.6-0.1-5.4,0C304.5,486.5,304.6,485.2,305.3,483.2z"/>
			<path class="st2" d="M454.9,490.5c5.2,0.1,10.4,0,15.7,0c7,0,7,0,6.2-7c-1.4-10.9-13.6-16.2-22.6-9.6c-7,5.1-8,12.4-6.8,20.2
				c1.1,6.8,5.1,11.1,12,12.7c2.3,0,4.6,0,6.8,0.1c1.6-0.5,3.3-0.8,4.9-1.4c3.9-1.5,4.3-2.3,3-6.7c-1.8,1.1-3.6,2.2-5.6,2.7
				c-8,2.4-14.6-1.4-15.6-8.9C452.7,491.1,453,490.5,454.9,490.5z M453.2,484.1c1-5.4,6.6-9.2,11.8-7.9c3.5,0.9,6.3,4.6,6.3,8.1
				c0,1.2-0.6,1.4-1.6,1.4c-2.6,0-5.1,0-7.7,0c-2.5,0-4.9,0-7.4,0C453.5,485.7,452.9,485.5,453.2,484.1z"/>
			<path class="st2" d="M563.2,490.5c5,0.1,10.1,0,15.1,0c8,0,8,0,6.4-7.9c-2.1-10.5-13.7-15.1-22.5-8.7c-6.8,4.9-8,12-6.9,19.6
				c1,7.1,6.6,12.5,12.3,13.3c2.3,0.3,4.6,0.3,6.8,0c1.5-0.2,3-0.7,4.4-1.2c4.1-1.5,4.5-2.1,3.5-6.9c-1.8,1.1-3.6,2.2-5.5,2.8
				c-8,2.4-14.6-1.2-15.8-8.6C560.8,491.1,561.2,490.5,563.2,490.5z M561.2,484.3c0.8-5.2,6.3-9.2,11.4-8.2c3.9,0.8,6.6,4.1,6.7,8
				c0,1.2-0.4,1.6-1.6,1.6c-2.5-0.1-4.9,0-7.4,0c-2.6,0-5.1,0-7.7,0C561.7,485.7,561,485.7,561.2,484.3z"/>
		</g>
	</g>
</g>
</svg>
