<svg xmlns="http://www.w3.org/2000/svg" xml:space="preserve" id="Layer_1" x="0" y="0" style="enable-background:new 0 0 595.3 595.3" version="1.1" viewBox="0 0 595.3 595.3"><style>.st1{fill:#17331c}</style><path d="M297.6 595.3C133.3 595.3 0 462 0 297.6 0 133.3 133.3 0 297.6 0 462 0 595.3 133.3 595.3 297.6c0 164.4-133.3 297.7-297.7 297.7" style="fill:#fff"/><g id="z0sLGC.tif"><path d="M249.1 285.9c11.3 0 22.5.2 33.8-.1 5.4-.1 8.2 2.2 10.1 7.1 3.4 8.7 10.1 15.9 21 15.9 9.9 0 19.9.6 29.8-.3 6.1-.6 11.6-4.9 12.3-9.4 1-6.3-3.8-12.4-11.1-13.6-9.9-1.6-19.8-.6-29.7-.9-1.2 0-2.3.1-3.5 0-1.7-.1-2.1-1.1-1.2-2.3 4.8-6.5 9.7-12.9 14.5-19.3 1-1.3 2.2-1.3 3.5-1.3 20 0 40.1.1 60.1 0 2.7 0 3.9.7 3.7 3.6-.2 3.8-.6 7.7.1 11.4 1.2 6.4-1.8 9.9-7.2 11.9-3.5 1.3-4.2 3.6-4.1 6.9.1 8.1.1 16.2.1 24.3 0 2.1 0 3.8-2.8 4.9-14.2 5.3-28.9 5.7-43.3 2.5-9.9-2.2-19.5-5.5-29.8-5.1-9.1.3-17.6 2.6-26.4 4.9-11.6 3.1-23.7 4-35.3.2-7.6-2.5-11.9-9.3-16.4-15.6-4.9-6.8-8.9-14.3-14.6-20.6-1-1.1-2.6-2.7-1.5-4.4.9-1.3 2.7-.6 4.1-.6 11.3-.1 22.6-.1 33.8-.1" class="st1"/><path d="M246.9 278.6c-8.6 0-17.2-.2-25.8.1-3.8.1-3.7-1.6-2.8-4.2 5.9-18.7 15.6-35.4 29.8-48.9 11.7-11.2 24.7-20.4 40-26.8 19-8 38.3-9.7 58.3-7.6 4.5.5 7.4 2.1 6.7 7.4-.4 2.9-.1 6-.1 8.9 0 7.2 0 7.8-7 8.2-10 .6-19.3 3.6-28.2 7.8-8.4 3.9-15.8 9.5-22.2 16.4-6.4 7-11.3 14.7-14.7 23.4-1.5 3.8-2.6 7.8-3.2 11.8-.5 3.1-1.7 3.7-4.5 3.6-8.7-.2-17.5-.1-26.3-.1m2.4-7c5.6 0 11.3-.2 16.9.1 4 .2 5.6-1.7 6.4-5.1 1.2-5.6 3-10.9 6.6-15.6 1.7-2.3 1.9-4.4-2.4-4.3-10.8.2-21.5.2-32.3-.1-3.4-.1-5.2 1.6-7.3 3.8-4.5 4.8-5.9 11.3-9 16.9-1.2 2.1-1.2 4.5 2.7 4.4 6.1-.2 12.2-.1 18.4-.1m26.5-57.6h42.5c2 0 4.1-.2 5.8-1 4.9-2.6 10.4-2.9 15.7-3.8 1.5-.3 2.8-.8 4.1-1.4 3.4-1.7 1.4-4.7 1.7-7 .2-1.4-.3-3.1-2.3-3.2-8.6-.6-17.3-1.4-25.7.3-10.2 2-20.4 4.4-29.7 9-4 1.8-8.6 2.8-12.1 7.1m-29.9 25.7h35.2c1.3 0 2.7.2 3.7-1 5-6.3 11.4-11.2 18.2-16.7h-32.2c-10.6 0-20.6 7-24.9 17.7M201.1 326v14.9c0 1.5.6 3.9-2.1 3.4-2.5-.4-6.3 2.1-7.3-1.6-1-3.8-2.4-2.2-4-1.2-6.4 3.8-13.4 4.3-20.5 3.6-9.1-.8-15.7-8-14.7-16 .6-4.9 2.9-9 8.3-11.5 8.7-4 18.2-2.5 27-4.9 1.2-.3 2.9.6 3.4-1.2.4-1.4.1-2.7-1-4.1-2.5-3-5.5-4.8-9.5-5-6.5-.4-12.8.2-19 2.3-1.2.4-3.7 2-3.7-1 0-2.4-1.8-6.4 2.1-7 9.5-1.5 19.2-2.4 28.6-.1 7.4 1.8 11.9 6.2 12.2 15.4.3 4.7.2 9.3.2 14m-9.7.1c-1.2-2.1 2.8-6.7-2.9-6.9-7-.3-13.8.7-20.3 3.1-4.6 1.7-8.7 8.3-3.7 12.9 3.5 3.2 14.7 4.2 20.3 1.3 4.2-2.2 8.6-4.1 6.6-10.4M453.5 325.7v15.4c0 1.7.2 3.8-2.3 3.3-2.4-.5-6 2.1-7.1-1.8-.7-2.6-1.4-2.4-3.2-1.4-6.4 3.4-13.1 4.8-20.4 4.2-5.7-.4-10.1-3-13.6-7.4-4.6-5.8-1.8-16.4 4.8-19.6 5.4-2.7 11.1-4 17-3.9 4.5 0 8.6-1.8 13.2-1.9 3.4-.1 2.4-3.1 1.1-4.7-2.5-3.1-5.7-5-9.9-5.4-6.3-.5-12.4.5-18.5 2.2-1.5.4-4.3 2.4-4.2-1.5.1-2.6-1.6-6.2 3.4-6.7 8.4-.8 16.8-1.2 25.2-.3 7.5.8 15.4 9 14.5 16.6-.4 4.2 0 8.6 0 12.9m-17.8-6.3c-4.8-.6-9.9 1.5-15.1 3-3.3 1-5.8 3.3-6.1 7.2-.3 3.7 1.4 6.8 4.6 7.7 6 1.8 12.2 1.7 18.2-1 4.4-2 7.3-3.9 6.8-9.6-.6-7.6-.1-7.6-8.4-7.3M527.9 321.4H511c-4.1 0-5.4 2.3-3.5 6 3.6 7.1 9.2 11 17.4 11.1 6.6.1 13-.5 19.1-3.6.9-.5 3.3-3.7 4.2-.5.7 2.4 1.8 6.2-2.3 7.5-3.7 1.2-7.2 2.8-11.3 3-8.5.3-16.8.4-25.1-3.1-10.1-4.2-14.3-18.9-11.7-27.4 6.1-20 22.8-21.1 37.2-17.8 9.4 2.1 15.1 12.3 14.1 22.4-.2 2.5-1.7 2.4-3.4 2.4zm-4.5-6.1c3.8 0 7.6.1 11.4 0 1.7-.1 4.1 1.1 4.8-1.2.6-1.9-.1-4-1.4-5.9-6.7-10-25.3-8.2-30.7 3.6-1.2 2.6-.3 3.6 2.5 3.5 4.5-.1 9 0 13.4 0M378.8 337.1c-.7 5.1-4.8 8-8.2 9.6-9.6 4.3-19.8 5.6-30.2 2.3-13.6-4.3-27.2-8.8-41.9-7-7.2.9-13.7 4.3-20.2 6.9-4.5 1.8-7.2 1-10.5-1.4-1-.7-1.4-2.2-2.9-2.5-.8-.2-2.1-.7-1.9-1.9.3-1.7 1.8-1.1 2.8-1.1 8.8-.2 16.8-3.8 25.2-5.9 11.5-2.8 23.6-3.6 35.1.7 13.7 5.2 27.5 6.4 41.7 3.4 3.6-.8 6.9-3 11-3.1M71.6 344.5c-6 1.3-5.9-5.4-7.9-9.2-5.2-10.1-9.6-20.7-15.4-30.5-.2-.4-.4-.9-.5-1.4-.3-2.3-3.5-4.8-.9-6.9 2.6-2 8.5.5 9.9 3.7 4.6 10 9.3 19.9 13.7 30 .6 1.4 1.3 2.5 2.5 2.6.6.1 1.8-1.3 2.2-2.3 2.7-5.9 5.2-11.8 7.8-17.7 2.2-5 4.8-9.8 7-14.9 1.6-3.5 5.8-1.9 8.4-1.3 3.2.7.6 3.6 0 4.8-6.7 13.3-13.4 26.6-19.3 40.3-1.4 3.4-3.8 2.3-7.5 2.8M142.2 311c0 9.9-.2 19.9.1 29.8.1 4-2 3.8-4.6 3.7-2.5-.1-5.2.9-5.2-3.6.2-19.7.2-39.4 0-59.1 0-6 4.4-2.7 6.7-3.5 3.1-1 3 1.5 2.9 3.5.1 9.7.1 19.4.1 29.2M481.4 311.6c0 9.7-.2 19.5.1 29.2.1 3.4-1.5 3.8-4.2 3.6-2.5-.2-5.6.8-5.6-3.5.1-19.5.1-39 0-58.5 0-4.3 2.6-4 5.5-4.2 3.3-.2 4.2.9 4.2 4.2-.1 9.7 0 19.5 0 29.2M118.5 320.9c0 6.6-.2 13.3.1 19.9.2 4.5-2.6 3.5-5.2 3.6-2.6.1-4.7.4-4.7-3.6.3-13.6.3-27.2 0-40.7-.1-4 2.1-3.7 4.7-3.6 2.5.1 5.4-.9 5.1 3.6-.3 6.9 0 13.9 0 20.8" class="st1"/><path d="M337.8 359.5c-17.4 4-33.8 2.6-50.3-3.2 17.2-5.3 33.7-5.7 50.3 3.2M250.3 404.9c-7.2-.2-9.7-3-9.8-10.4 0-6.6 4.3-10.5 10.7-10.3 5.8.2 10.1 4.1 9.7 11.2-.3 7.1-3.1 9.6-10.6 9.5m.3-3.7c4.8.3 5.5-3.9 5.4-6.2-.1-2.6-.7-6.9-5-7.1-4.8-.2-4.9 4.3-5.1 7-.4 2.6.4 6.5 4.7 6.3M394.3 404.9c-.5-.1-2.3-.4-4.1-.7-2.1-.3-2.4-1.7-1.9-3.3.5-1.6 1.7-1 2.8-.6.9.3 1.9.7 2.8.8 2.3.2 5.7.9 6.1-1.6.4-2.3-3.1-1.9-5-2.5-3.1-1.1-7-1.9-6.6-6.4.3-4.2 3.3-6.2 7.3-6.3 2.5-.1 5 .2 7.4.6 2.4.4 2 2.6 1.5 4-.6 1.8-1.9.9-2.9 0-.4-.4-1.1-.8-1.7-.8-2.4-.1-5.7-1.3-6.3 1.8-.3 1.6 2.8 2.8 5.1 3.2 5.8.9 8.1 4.5 5.8 8.9-1 2-3.8 2.9-10.3 2.9M327 384.6h.5c2.5.4 6.8-1.3 6.9 1.6.1 3.4-4.2 1.4-6.5 1.8-1.4.2-2.6.3-2.7 2.1 0 1.8.8 2.6 2.7 2.7 1.7.1 4.9-1.2 4.9 1.3 0 2.2-3.3.9-5.1 1.1-2.3.2-2.5 1.7-2.6 3.5-.1 2.2 1.4 2.1 2.9 2.3 2.2.3 6.3-1.4 6.2 1.8-.1 3.3-4.3 1.7-6.6 1.8-8 .2-8 .1-8.1-8v-4.5c.1-7.5.1-7.5 7.5-7.5M200.8 394.5c0-2.1-.1-4.3 0-6.4 0-1.5-.6-3.5 2.1-3.6 2.5-.1 2.5 1.6 2.3 3.3-.2 2.3.4 4.5 2.9 4.9 3.1.5 6.2.5 5.7-4.2-.2-1.9-.7-4.3 2.6-4 3.5.3 2.2 2.5 2 4.6-.3 4.1-.2 8.2 0 12.3.1 1.9.2 3.2-2.2 3.3-2.6.2-2.4-1.4-2.5-3.2-.1-2.8 1.1-6.3-3.9-6.3-4 0-5 2.2-4.8 5.7.1 1.7.6 3.9-2.4 3.7-2.7-.2-1.8-2.3-1.9-3.7.1-2.1.1-4.2.1-6.4M290.1 384.6c2.3 0 4.6-.1 6.9.1.9.1 2 .3 2.1 1.6.1 1.4-.9 1.9-1.8 1.7-5.5-.8-4.7 2.9-4.7 6.2 0 2.6-.1 5.3 0 7.9.1 2-.8 2.6-2.7 2.6-1.8 0-2.8-.6-2.8-2.5.1-3.3-.1-6.6 0-9.9.1-2.6-.3-4.6-3.7-4.2-1.2.1-2.9.3-2.8-1.8.1-2 1.7-1.7 3-1.7 2.2-.2 4.3-.1 6.5 0 0-.1 0-.1 0 0M533.6 272.7c2.1 0 3.5-.1 4.8 0 1.8.1 2 1.5.8 2.2-4.7 3-6.5 8.7-10.9 12-2 1.5-3.7 1.7-5.8 1.7-.8 0-1.9-.1-2.2-.5-.6-.9.1-1.6.9-2.4 2.3-2.3 2.9-5.6 4.6-8.4 2.1-3.6 4.4-5.5 7.8-4.6M361.3 404.7h-3c-1.1 0-2.5.2-2.8-1.3-.1-1 .5-1.6 1.5-2.3 3-2.2 2.7-11-.4-13.2-.8-.5-1.3-1-1.2-1.9.1-1.2 1-1.6 2.1-1.6 2.5 0 5 0 7.4.1 1.1 0 2.5 0 2.8 1.4.4 1.7-1.1 1.6-2.1 2.1-2.9 1.5-3.5 11.1-.7 12.8 1.1.7 3 1 2.6 2.5-.4 1.8-2.4 1.2-3.8 1.3-.7.1-1.6.1-2.4.1M112.9 288.6c-3.1.6-4.5-.3-4.6-4.3-.1-4.5 2.2-4.3 5.5-4.5 3.8-.2 5 .8 5.2 4.8.2 5.2-3 4-6.1 4M330.4 377.4c-.1.5-.1 1-.3 1.4-1 1.7-1.7 4-4.3 3.9-.6 0-.8-1-.6-1.6.8-2.5 1.8-4.7 5.2-3.7" class="st1"/></g></svg>