<?xml version="1.0" encoding="utf-8"?>
<!-- Generator: Adobe Illustrator 26.3.1, SVG Export Plug-In . SVG Version: 6.00 Build 0)  -->
<svg version="1.1" id="Layer_1" xmlns="http://www.w3.org/2000/svg" xmlns:xlink="http://www.w3.org/1999/xlink" x="0px" y="0px"
	 viewBox="0 0 595.3 595.3" style="enable-background:new 0 0 595.3 595.3;" xml:space="preserve">
<style type="text/css">
	.st0{fill:#FFFFFF;}
	.st1{fill:#17331C;}
</style>
<path class="st0" d="M297.6,595.3L297.6,595.3C133.3,595.3,0,462,0,297.6l0,0C0,133.3,133.3,0,297.6,0l0,0
	C462,0,595.3,133.3,595.3,297.6l0,0C595.3,462,462,595.3,297.6,595.3z"/>
<g id="z0sLGC.tif">
	<g>
		<path class="st1" d="M249.1,285.9c11.3,0,22.5,0.2,33.8-0.1c5.4-0.1,8.2,2.2,10.1,7.1c3.4,8.7,10.1,15.9,21,15.9
			c9.9,0,19.9,0.6,29.8-0.3c6.1-0.6,11.6-4.9,12.3-9.4c1-6.3-3.8-12.4-11.1-13.6c-9.9-1.6-19.8-0.6-29.7-0.9c-1.2,0-2.3,0.1-3.5,0
			c-1.7-0.1-2.1-1.1-1.2-2.3c4.8-6.5,9.7-12.9,14.5-19.3c1-1.3,2.2-1.3,3.5-1.3c20,0,40.1,0.1,60.1,0c2.7,0,3.9,0.7,3.7,3.6
			c-0.2,3.8-0.6,7.7,0.1,11.4c1.2,6.4-1.8,9.9-7.2,11.9c-3.5,1.3-4.2,3.6-4.1,6.9c0.1,8.1,0.1,16.2,0.1,24.3c0,2.1,0,3.8-2.8,4.9
			c-14.2,5.3-28.9,5.7-43.3,2.5c-9.9-2.2-19.5-5.5-29.8-5.1c-9.1,0.3-17.6,2.6-26.4,4.9c-11.6,3.1-23.7,4-35.3,0.2
			c-7.6-2.5-11.9-9.3-16.4-15.6c-4.9-6.8-8.9-14.3-14.6-20.6c-1-1.1-2.6-2.7-1.5-4.4c0.9-1.3,2.7-0.6,4.1-0.6
			C226.6,285.9,237.9,285.9,249.1,285.9z"/>
		<path class="st1" d="M246.9,278.6c-8.6,0-17.2-0.2-25.8,0.1c-3.8,0.1-3.7-1.6-2.8-4.2c5.9-18.7,15.6-35.4,29.8-48.9
			c11.7-11.2,24.7-20.4,40-26.8c19-8,38.3-9.7,58.3-7.6c4.5,0.5,7.4,2.1,6.7,7.4c-0.4,2.9-0.1,6-0.1,8.9c0,7.2,0,7.8-7,8.2
			c-10,0.6-19.3,3.6-28.2,7.8c-8.4,3.9-15.8,9.5-22.2,16.4c-6.4,7-11.3,14.7-14.7,23.4c-1.5,3.8-2.6,7.8-3.2,11.8
			c-0.5,3.1-1.7,3.7-4.5,3.6C264.5,278.5,255.7,278.6,246.9,278.6z M249.3,271.6c5.6,0,11.3-0.2,16.9,0.1c4,0.2,5.6-1.7,6.4-5.1
			c1.2-5.6,3-10.9,6.6-15.6c1.7-2.3,1.9-4.4-2.4-4.3c-10.8,0.2-21.5,0.2-32.3-0.1c-3.4-0.1-5.2,1.6-7.3,3.8
			c-4.5,4.8-5.9,11.3-9,16.9c-1.2,2.1-1.2,4.5,2.7,4.4C237,271.5,243.1,271.6,249.3,271.6z M275.8,214c14.8,0,28.6,0,42.5,0
			c2,0,4.1-0.2,5.8-1c4.9-2.6,10.4-2.9,15.7-3.8c1.5-0.3,2.8-0.8,4.1-1.4c3.4-1.7,1.4-4.7,1.7-7c0.2-1.4-0.3-3.1-2.3-3.2
			c-8.6-0.6-17.3-1.4-25.7,0.3c-10.2,2-20.4,4.4-29.7,9C283.9,208.7,279.3,209.7,275.8,214z M245.9,239.7c12,0,23.6,0,35.2,0
			c1.3,0,2.7,0.2,3.7-1c5-6.3,11.4-11.2,18.2-16.7c-11.3,0-21.7,0-32.2,0C260.2,222,250.2,229,245.9,239.7z"/>
		<path class="st1" d="M201.1,326c0,5,0,9.9,0,14.9c0,1.5,0.6,3.9-2.1,3.4c-2.5-0.4-6.3,2.1-7.3-1.6c-1-3.8-2.4-2.2-4-1.2
			c-6.4,3.8-13.4,4.3-20.5,3.6c-9.1-0.8-15.7-8-14.7-16c0.6-4.9,2.9-9,8.3-11.5c8.7-4,18.2-2.5,27-4.9c1.2-0.3,2.9,0.6,3.4-1.2
			c0.4-1.4,0.1-2.7-1-4.1c-2.5-3-5.5-4.8-9.5-5c-6.5-0.4-12.8,0.2-19,2.3c-1.2,0.4-3.7,2-3.7-1c0-2.4-1.8-6.4,2.1-7
			c9.5-1.5,19.2-2.4,28.6-0.1c7.4,1.8,11.9,6.2,12.2,15.4C201.2,316.7,201.1,321.3,201.1,326C201.1,326,201.1,326,201.1,326z
			 M191.4,326.1c-1.2-2.1,2.8-6.7-2.9-6.9c-7-0.3-13.8,0.7-20.3,3.1c-4.6,1.7-8.7,8.3-3.7,12.9c3.5,3.2,14.7,4.2,20.3,1.3
			C189,334.3,193.4,332.4,191.4,326.1z"/>
		<path class="st1" d="M453.5,325.7c0,5.1,0,10.3,0,15.4c0,1.7,0.2,3.8-2.3,3.3c-2.4-0.5-6,2.1-7.1-1.8c-0.7-2.6-1.4-2.4-3.2-1.4
			c-6.4,3.4-13.1,4.8-20.4,4.2c-5.7-0.4-10.1-3-13.6-7.4c-4.6-5.8-1.8-16.4,4.8-19.6c5.4-2.7,11.1-4,17-3.9c4.5,0,8.6-1.8,13.2-1.9
			c3.4-0.1,2.4-3.1,1.1-4.7c-2.5-3.1-5.7-5-9.9-5.4c-6.3-0.5-12.4,0.5-18.5,2.2c-1.5,0.4-4.3,2.4-4.2-1.5c0.1-2.6-1.6-6.2,3.4-6.7
			c8.4-0.8,16.8-1.2,25.2-0.3c7.5,0.8,15.4,9,14.5,16.6C453.1,317,453.5,321.4,453.5,325.7z M435.7,319.4c-4.8-0.6-9.9,1.5-15.1,3
			c-3.3,1-5.8,3.3-6.1,7.2c-0.3,3.7,1.4,6.8,4.6,7.7c6,1.8,12.2,1.7,18.2-1c4.4-2,7.3-3.9,6.8-9.6
			C443.5,319.1,444,319.1,435.7,319.4z"/>
		<path class="st1" d="M527.9,321.4c-5.6,0-11.2,0-16.9,0c-4.1,0-5.4,2.3-3.5,6c3.6,7.1,9.2,11,17.4,11.1c6.6,0.1,13-0.5,19.1-3.6
			c0.9-0.5,3.3-3.7,4.2-0.5c0.7,2.4,1.8,6.2-2.3,7.5c-3.7,1.2-7.2,2.8-11.3,3c-8.5,0.3-16.8,0.4-25.1-3.1
			c-10.1-4.2-14.3-18.9-11.7-27.4c6.1-20,22.8-21.1,37.2-17.8c9.4,2.1,15.1,12.3,14.1,22.4c-0.2,2.5-1.7,2.4-3.4,2.4
			C539.8,321.4,533.9,321.4,527.9,321.4z M523.4,315.3c3.8,0,7.6,0.1,11.4,0c1.7-0.1,4.1,1.1,4.8-1.2c0.6-1.9-0.1-4-1.4-5.9
			c-6.7-10-25.3-8.2-30.7,3.6c-1.2,2.6-0.3,3.6,2.5,3.5C514.5,315.2,519,315.3,523.4,315.3z"/>
		<path class="st1" d="M378.8,337.1c-0.7,5.1-4.8,8-8.2,9.6c-9.6,4.3-19.8,5.6-30.2,2.3c-13.6-4.3-27.2-8.8-41.9-7
			c-7.2,0.9-13.7,4.3-20.2,6.9c-4.5,1.8-7.2,1-10.5-1.4c-1-0.7-1.4-2.2-2.9-2.5c-0.8-0.2-2.1-0.7-1.9-1.9c0.3-1.7,1.8-1.1,2.8-1.1
			c8.8-0.2,16.8-3.8,25.2-5.9c11.5-2.8,23.6-3.6,35.1,0.7c13.7,5.2,27.5,6.4,41.7,3.4C371.4,339.4,374.7,337.2,378.8,337.1z"/>
		<path class="st1" d="M71.6,344.5c-6,1.3-5.9-5.4-7.9-9.2c-5.2-10.1-9.6-20.7-15.4-30.5c-0.2-0.4-0.4-0.9-0.5-1.4
			c-0.3-2.3-3.5-4.8-0.9-6.9c2.6-2,8.5,0.5,9.9,3.7c4.6,10,9.3,19.9,13.7,30c0.6,1.4,1.3,2.5,2.5,2.6c0.6,0.1,1.8-1.3,2.2-2.3
			c2.7-5.9,5.2-11.8,7.8-17.7c2.2-5,4.8-9.8,7-14.9c1.6-3.5,5.8-1.9,8.4-1.3c3.2,0.7,0.6,3.6,0,4.8C91.7,314.7,85,328,79.1,341.7
			C77.7,345.1,75.3,344,71.6,344.5z"/>
		<path class="st1" d="M142.2,311c0,9.9-0.2,19.9,0.1,29.8c0.1,4-2,3.8-4.6,3.7c-2.5-0.1-5.2,0.9-5.2-3.6c0.2-19.7,0.2-39.4,0-59.1
			c0-6,4.4-2.7,6.7-3.5c3.1-1,3,1.5,2.9,3.5C142.2,291.5,142.2,301.2,142.2,311z"/>
		<path class="st1" d="M481.4,311.6c0,9.7-0.2,19.5,0.1,29.2c0.1,3.4-1.5,3.8-4.2,3.6c-2.5-0.2-5.6,0.8-5.6-3.5
			c0.1-19.5,0.1-39,0-58.5c0-4.3,2.6-4,5.5-4.2c3.3-0.2,4.2,0.9,4.2,4.2C481.3,292.1,481.4,301.9,481.4,311.6z"/>
		<path class="st1" d="M118.5,320.9c0,6.6-0.2,13.3,0.1,19.9c0.2,4.5-2.6,3.5-5.2,3.6c-2.6,0.1-4.7,0.4-4.7-3.6
			c0.3-13.6,0.3-27.2,0-40.7c-0.1-4,2.1-3.7,4.7-3.6c2.5,0.1,5.4-0.9,5.1,3.6C118.2,307,118.5,314,118.5,320.9z"/>
		<path class="st1" d="M337.8,359.5c-17.4,4-33.8,2.6-50.3-3.2C304.7,351,321.2,350.6,337.8,359.5z"/>
		<path class="st1" d="M250.3,404.9c-7.2-0.2-9.7-3-9.8-10.4c0-6.6,4.3-10.5,10.7-10.3c5.8,0.2,10.1,4.1,9.7,11.2
			C260.6,402.5,257.8,405,250.3,404.9z M250.6,401.2c4.8,0.3,5.5-3.9,5.4-6.2c-0.1-2.6-0.7-6.9-5-7.1c-4.8-0.2-4.9,4.3-5.1,7
			C245.5,397.5,246.3,401.4,250.6,401.2z"/>
		<path class="st1" d="M394.3,404.9c-0.5-0.1-2.3-0.4-4.1-0.7c-2.1-0.3-2.4-1.7-1.9-3.3c0.5-1.6,1.7-1,2.8-0.6
			c0.9,0.3,1.9,0.7,2.8,0.8c2.3,0.2,5.7,0.9,6.1-1.6c0.4-2.3-3.1-1.9-5-2.5c-3.1-1.1-7-1.9-6.6-6.4c0.3-4.2,3.3-6.2,7.3-6.3
			c2.5-0.1,5,0.2,7.4,0.6c2.4,0.4,2,2.6,1.5,4c-0.6,1.8-1.9,0.9-2.9,0c-0.4-0.4-1.1-0.8-1.7-0.8c-2.4-0.1-5.7-1.3-6.3,1.8
			c-0.3,1.6,2.8,2.8,5.1,3.2c5.8,0.9,8.1,4.5,5.8,8.9C403.6,404,400.8,404.9,394.3,404.9z"/>
		<path class="st1" d="M327,384.6c0.2,0,0.3,0,0.5,0c2.5,0.4,6.8-1.3,6.9,1.6c0.1,3.4-4.2,1.4-6.5,1.8c-1.4,0.2-2.6,0.3-2.7,2.1
			c0,1.8,0.8,2.6,2.7,2.7c1.7,0.1,4.9-1.2,4.9,1.3c0,2.2-3.3,0.9-5.1,1.1c-2.3,0.2-2.5,1.7-2.6,3.5c-0.1,2.2,1.4,2.1,2.9,2.3
			c2.2,0.3,6.3-1.4,6.2,1.8c-0.1,3.3-4.3,1.7-6.6,1.8c-8,0.2-8,0.1-8.1-8c0-1.5,0-3,0-4.5C319.6,384.6,319.6,384.6,327,384.6z"/>
		<path class="st1" d="M200.8,394.5c0-2.1-0.1-4.3,0-6.4c0-1.5-0.6-3.5,2.1-3.6c2.5-0.1,2.5,1.6,2.3,3.3c-0.2,2.3,0.4,4.5,2.9,4.9
			c3.1,0.5,6.2,0.5,5.7-4.2c-0.2-1.9-0.7-4.3,2.6-4c3.5,0.3,2.2,2.5,2,4.6c-0.3,4.1-0.2,8.2,0,12.3c0.1,1.9,0.2,3.2-2.2,3.3
			c-2.6,0.2-2.4-1.4-2.5-3.2c-0.1-2.8,1.1-6.3-3.9-6.3c-4,0-5,2.2-4.8,5.7c0.1,1.7,0.6,3.9-2.4,3.7c-2.7-0.2-1.8-2.3-1.9-3.7
			C200.8,398.8,200.8,396.7,200.8,394.5z"/>
		<path class="st1" d="M290.1,384.6c2.3,0,4.6-0.1,6.9,0.1c0.9,0.1,2,0.3,2.1,1.6c0.1,1.4-0.9,1.9-1.8,1.7c-5.5-0.8-4.7,2.9-4.7,6.2
			c0,2.6-0.1,5.3,0,7.9c0.1,2-0.8,2.6-2.7,2.6c-1.8,0-2.8-0.6-2.8-2.5c0.1-3.3-0.1-6.6,0-9.9c0.1-2.6-0.3-4.6-3.7-4.2
			c-1.2,0.1-2.9,0.3-2.8-1.8c0.1-2,1.7-1.7,3-1.7C285.8,384.4,287.9,384.5,290.1,384.6C290.1,384.5,290.1,384.5,290.1,384.6z"/>
		<path class="st1" d="M533.6,272.7c2.1,0,3.5-0.1,4.8,0c1.8,0.1,2,1.5,0.8,2.2c-4.7,3-6.5,8.7-10.9,12c-2,1.5-3.7,1.7-5.8,1.7
			c-0.8,0-1.9-0.1-2.2-0.5c-0.6-0.9,0.1-1.6,0.9-2.4c2.3-2.3,2.9-5.6,4.6-8.4C527.9,273.7,530.2,271.8,533.6,272.7z"/>
		<path class="st1" d="M361.3,404.7c-1,0-2,0-3,0c-1.1,0-2.5,0.2-2.8-1.3c-0.1-1,0.5-1.6,1.5-2.3c3-2.2,2.7-11-0.4-13.2
			c-0.8-0.5-1.3-1-1.2-1.9c0.1-1.2,1-1.6,2.1-1.6c2.5,0,5,0,7.4,0.1c1.1,0,2.5,0,2.8,1.4c0.4,1.7-1.1,1.6-2.1,2.1
			c-2.9,1.5-3.5,11.1-0.7,12.8c1.1,0.7,3,1,2.6,2.5c-0.4,1.8-2.4,1.2-3.8,1.3C363,404.7,362.1,404.7,361.3,404.7
			C361.3,404.7,361.3,404.7,361.3,404.7z"/>
		<path class="st1" d="M112.9,288.6c-3.1,0.6-4.5-0.3-4.6-4.3c-0.1-4.5,2.2-4.3,5.5-4.5c3.8-0.2,5,0.8,5.2,4.8
			C119.2,289.8,116,288.6,112.9,288.6z"/>
		<path class="st1" d="M330.4,377.4c-0.1,0.5-0.1,1-0.3,1.4c-1,1.7-1.7,4-4.3,3.9c-0.6,0-0.8-1-0.6-1.6
			C326,378.6,327,376.4,330.4,377.4z"/>
	</g>
</g>
</svg>
