<?xml version="1.0" encoding="utf-8"?>
<!-- Generator: Adobe Illustrator 26.3.1, SVG Export Plug-In . SVG Version: 6.00 Build 0)  -->
<svg version="1.1" id="Layer_1" xmlns="http://www.w3.org/2000/svg" xmlns:xlink="http://www.w3.org/1999/xlink" x="0px" y="0px"
	 viewBox="0 0 595.3 595.3" style="enable-background:new 0 0 595.3 595.3;" xml:space="preserve">
<style type="text/css">
	.st0{fill:#FFFFFF;}
	.st1{fill:#D22C35;}
</style>
<path class="st0" d="M297.6,595.3L297.6,595.3C133.3,595.3,0,462,0,297.6l0,0C0,133.3,133.3,0,297.6,0l0,0
	C462,0,595.3,133.3,595.3,297.6l0,0C595.3,462,462,595.3,297.6,595.3z"/>
<g id="s1OSoE.tif_00000168094613258921670270000006513039468668360079_">
	<g>
		<path class="st1" d="M177.5,186.1c0.9,0.2,1.7,0.1,2.6,0.2c9.2,0.4,18.3,1.9,26.9,5.3c7.2,2.8,13.6,6.8,18.7,12.6
			c5,5.6,8.2,12.2,9.8,19.5c1.1,5.2,1.5,10.5,1.2,15.8c-1,13.8-6.9,25-17.7,33.6c-4,3.2-8.4,5.6-13.2,7.5c-0.5,0.2-0.7,0.3-0.3,0.9
			c4.7,7,8.9,14.3,13.2,21.5c3.6,6.1,7.8,11.6,13.2,16.2c3,2.5,6.3,4.5,10.1,5.8c0.4,0.1,0.6,0.3,0.5,0.7c-1.3,5.6-4,10.4-8.9,13.7
			c-3.1,2-6.5,2.9-10.2,3.1c-9.6,0.4-17.1-3.6-23.2-10.7c-3.5-4-6.3-8.5-9-13c-4.8-8-9.1-16.2-13.9-24.2c-2.3-3.9-5.4-7-9.7-8.7
			c-2-0.8-4.1-1.2-6.2-1.2c-7,0-13.9,0-20.9-0.1c-1,0-1,0-1,1c0,17.7,0,35.4,0,53.1c0,1.5,0.2,1.3-1.3,1.3c-9.7,0-19.4,0-29.2,0
			c-0.4,0-0.7,0-1.1,0c0-51,0-102.1,0-153.1c0-0.6,0.1-0.7,0.7-0.7C131.4,186.1,154.5,186.1,177.5,186.1z M139.4,236.6
			c0,7.4,0,14.8,0,22.2c0,0.7,0.2,0.9,0.9,0.9c12.9,0,25.8,0,38.8,0c3.1,0,6.1-0.4,9.1-1.3c6.7-2.1,11.6-6.2,14.2-12.8
			c1.7-4.4,1.9-8.9,1.1-13.5c-1.1-6.5-4.3-11.6-10.1-14.9c-4.3-2.4-9-3.4-13.9-3.4c-13-0.1-26,0-39.1,0c-1,0-1,0-1,1
			C139.4,222,139.4,229.3,139.4,236.6z"/>
		<path class="st1" d="M487.6,186.1c0,0.1,0,0.2,0,0.3c0,30.5,0.1,61-0.1,91.5c-0.1,11.8-2.5,23.1-7.9,33.6
			c-7.4,14.4-19.1,23.6-34.6,28c-5.7,1.6-11.6,2.5-17.6,2.8c-9.4,0.4-18.6-0.2-27.7-2.7c-8.1-2.2-15.5-5.9-21.8-11.5
			c-6.1-5.4-10.4-12-13.5-19.4c-2.4-5.9-3.9-12-4.8-18.3c-0.7-5.2-1-10.4-1-15.7c0-29.3,0-58.6,0-87.8c0-0.2,0-0.4,0-0.7
			c0.4,0,0.9,0,1.3,0c1.1,0.3,2.2,0.2,3.3,0.3c4.8,0.5,9.5,1.5,13.9,3.5c4.7,2.1,8.5,5.2,10.9,9.9c1.6,3.2,2.2,6.7,2.2,10.2
			c0,20.4,0,40.7,0,61.1c0,3.7,0.1,7.4,0.4,11.1c0.5,4.7,1.3,9.2,3,13.6c3.1,8.1,8.7,13.5,17.1,15.9c6.9,1.9,13.8,2,20.8,0.8
			c10.7-1.9,17.8-8.1,21.4-18.3c2.2-6.3,3-12.8,3-19.4c0-29.4,0-58.8,0-88.1c0-0.1,0-0.3,0-0.4C466.5,186.1,477,186.1,487.6,186.1z"
			/>
		<path class="st1" d="M281.5,186.1c1.2,0.3,2.4,0.2,3.6,0.3c5.4,0.6,10.6,1.8,15.5,4.4c5.6,3,9.4,7.5,10.7,13.8
			c0.4,1.8,0.5,3.7,0.5,5.6c0,27.3,0,54.7,0,82c0,15.6,0,31.2,0,46.8c0,1,0,1-1,1c-9.9,0-19.7,0-29.6,0c-1,0-1,0-1-1
			c0-50.8,0-101.6,0-152.5c0-0.1,0-0.2,0-0.4C280.6,186.1,281.1,186.1,281.5,186.1z"/>
		<path class="st1" d="M296.2,388.5c1,0,2.1,0,3.1,0c0.4,0,0.6,0.1,0.6,0.6c0.1,2.3,0.1,2.3-2.2,2.3c-1.8,0-1.8,0-2,1.8
			c-0.3,2.6-0.9,5.1-2.1,7.5c-0.2,0.4-0.1,0.7,0.2,1.1c1.7,2.1,3.4,4.2,5.1,6.3c0.4,0.4,0.3,0.6-0.2,0.7c-1.8,0.6-3.4,0.2-4.7-1.2
			c-0.8-0.9-1.7-1.9-2.5-2.8c-0.3-0.4-0.5-0.4-0.9,0c-1.7,1.8-3.7,3.3-6.2,4c-2.8,0.7-5.5,0.6-8.1-0.6c-3.1-1.4-4.7-4-4.9-7.3
			c-0.3-5.1,2.1-8.8,6.9-11c0.8-0.4,0.8-0.4,0.3-1.1c-2-3-2.1-6.5-0.1-8.9c1.9-2.3,4.6-3,7.5-2.8c1.6,0.1,3.2,0.5,4.6,1.4
			c1.5,1,1.3,3.2-0.2,4c-0.4,0.2-0.6,0-0.9-0.3c-1-0.9-2.1-1.6-3.5-1.7c-1.6-0.2-3.1,0.1-4.1,1.4c-1,1.3-0.9,2.7-0.4,4.2
			c0.4,1,1.1,1.9,1.7,2.8c2.4,3,4.8,5.9,7.2,8.8c0.1,0.2,0.2,0.5,0.5,0.5c0.2-0.1,0.3-0.4,0.3-0.6c0.9-2.6,1.3-5.3,1.1-8.1
			c0-0.6,0.2-0.8,0.8-0.8C294.3,388.5,295.3,388.5,296.2,388.5z M282,405.7c2.8,0.1,4.9-1.6,6.7-3.9c0.3-0.3,0-0.5-0.1-0.7
			c-2.3-2.9-4.6-5.7-7-8.6c-0.2-0.3-0.4-0.4-0.8-0.2c-1.1,0.5-2.1,1.1-3,1.9c-2,1.8-2.7,4-2.4,6.6
			C275.8,403.8,278.3,405.7,282,405.7z"/>
		<path class="st1" d="M164.1,392.4c0,3.7-0.4,6.8-1.8,9.7c-2.2,4.5-5.8,6.9-10.8,7.1c-3.1,0.1-6-0.4-8.6-2.3
			c-2.4-1.8-3.8-4.2-4.6-6.9c-1.4-5.2-1.5-10.4,0.6-15.4c2.5-5.9,7.7-8.1,13.4-7.7c3.7,0.3,6.8,1.8,8.9,4.9c1.4,2,2.1,4.3,2.5,6.7
			C164,389.9,164.2,391.4,164.1,392.4z M141.5,391.9c0,3.5,0.2,6.1,1.2,8.4c0.9,2.1,2.2,3.8,4.3,4.7c3.7,1.5,9.3,1.1,11.6-4.7
			c1-2.5,1.2-5,1.2-7.6c0-2.4-0.3-4.7-1.2-7c-1.4-3.5-4-5.3-7.7-5.3c-4,0-6.8,1.7-8.3,5.2C141.8,387.9,141.6,390.4,141.5,391.9z"/>
		<path class="st1" d="M413.3,392.7c-0.1,3.4-0.4,6.5-1.9,9.4c-2.2,4.5-5.8,6.8-10.8,7c-3.5,0.2-6.7-0.5-9.3-2.9
			c-2.2-1.9-3.4-4.4-4.1-7.2c-1.2-5.1-1.2-10.2,1.1-15.1c2.6-5.6,7.7-7.5,13.1-7.1c4.1,0.3,7.3,2.1,9.4,5.6c1.2,2,1.9,4.3,2.2,6.6
			C413.2,390.4,413.2,391.7,413.3,392.7z M409.1,392.9c-0.1-2.2-0.2-4.3-0.9-6.4c-0.8-2.5-2.2-4.7-4.9-5.6c-4-1.4-9.8-0.7-11.8,5.5
			c-0.9,2.8-1,5.6-0.8,8.5c0.1,2,0.5,3.9,1.3,5.7c1.5,3.3,4.1,5.1,7.8,5.1c3.7,0,6.3-1.7,7.9-5C408.8,398.2,409.1,395.6,409.1,392.9
			z"/>
		<path class="st1" d="M314.6,393c0-4.9,0-9.8,0-14.7c0-0.7,0.3-0.8,0.8-0.9c3.1-0.3,6.3-0.5,9.4-0.1c1.6,0.2,3.2,0.5,4.6,1.1
			c2.5,1.1,3.9,3.2,4.2,5.9c0.3,2.3,0.1,4.5-1,6.5c-1.1,2-2.8,3.4-5,4c-0.6,0.2-0.6,0.4-0.3,0.9c2.6,4,5.1,8.1,7.7,12.2
			c0.5,0.7,0.4,0.8-0.4,1c-2.1,0.4-3.6-0.2-4.7-2c-2.2-3.4-4.4-6.8-6.6-10.3c-0.4-0.6-0.8-0.8-1.4-0.8c-0.9,0.1-1.7,0-2.6,0
			c-0.5,0-0.7,0.2-0.7,0.7c0,3.7,0,7.5,0,11.2c0,0.7-0.2,0.9-0.9,0.9c-0.8-0.1-1.7-0.1-2.5,0c-0.6,0-0.7-0.3-0.7-0.8
			C314.6,402.9,314.6,397.9,314.6,393z M318.5,386.5c0,1.7,0,3.5,0,5.2c0,0.5,0.1,0.7,0.6,0.7c1.6-0.1,3.2,0,4.9-0.1
			c3.5-0.4,5.4-2.3,5.6-5.8c0.2-2.8-1-4.8-3.4-5.5c-2.3-0.7-4.7-0.6-7.1-0.4c-0.4,0-0.6,0.2-0.6,0.7
			C318.6,383,318.5,384.8,318.5,386.5z"/>
		<path class="st1" d="M419.9,393c0-4.8,0-9.7,0-14.5c0-0.7,0.2-1,1-1c3.1-0.2,6.1-0.4,9.2-0.1c1.4,0.1,2.8,0.4,4.2,0.9
			c2.6,1,4.2,2.8,4.7,5.5c0.4,2.1,0.3,4.1-0.4,6c-1,2.6-2.9,4.3-5.5,5.2c-0.6,0.2-0.6,0.4-0.3,0.8c2.6,4.1,5.2,8.1,7.7,12.2
			c0.4,0.7,0.4,0.8-0.4,0.9c-2.1,0.5-3.6-0.2-4.8-2c-2.2-3.5-4.5-6.9-6.6-10.4c-0.3-0.5-0.7-0.7-1.3-0.7c-0.9,0.1-1.8,0.1-2.6,0
			c-0.7,0-0.8,0.2-0.8,0.9c0,3.7,0,7.4,0,11.1c0,0.6-0.1,0.9-0.8,0.8c-0.8-0.1-1.6-0.1-2.3,0c-0.7,0.1-0.8-0.2-0.8-0.9
			C419.9,402.8,419.9,397.9,419.9,393z M423.8,386.5c0,1.8,0,3.5,0,5.3c0,0.4,0.1,0.6,0.6,0.6c1.6,0,3.3,0,4.9-0.2
			c3.3-0.4,5.2-2.1,5.5-5.3c0.3-3.3-0.8-5.4-3.8-6.1c-2.2-0.5-4.4-0.4-6.6-0.3c-0.5,0-0.7,0.2-0.7,0.8
			C423.8,383.1,423.8,384.8,423.8,386.5z"/>
		<path class="st1" d="M107.9,392.9c0-4.9,0-9.8,0-14.8c0-0.6,0.2-0.8,0.8-0.9c2-0.2,3.2,0.8,3.2,2.9c0,3.2,0,6.4,0,9.7
			c0,0.6,0.1,0.8,0.7,0.8c4.5,0,8.9,0,13.4,0c0.7,0,0.8-0.2,0.8-0.8c0-3.9,0-7.8,0-11.7c0-0.6,0.2-0.8,0.7-0.8
			c2.1-0.2,3.2,0.8,3.2,3c0,4.3,0,8.7,0,13c0,4.8,0,9.6,0,14.4c0,0.6-0.2,0.8-0.8,0.8c-0.8-0.1-1.7-0.1-2.5,0
			c-0.6,0-0.7-0.2-0.7-0.8c0-4.2,0-8.5,0-12.7c0-1,0-1-1-1c-4.3,0-8.7,0-13,0c-0.7,0-0.9,0.2-0.9,0.9c0,4.3,0,8.5,0,12.8
			c0,0.6-0.1,0.8-0.7,0.8c-0.8-0.1-1.7-0.1-2.5,0c-0.6,0-0.8-0.1-0.8-0.8C107.9,402.8,107.9,397.9,107.9,392.9z"/>
		<path class="st1" d="M194.3,393c0-4.9,0-9.8,0-14.7c0-0.6,0.1-0.9,0.8-0.8c5.4,0,10.9,0,16.3,0c0.6,0,0.8,0.2,0.8,0.8
			c0,1.6-0.8,2.6-2.4,2.6c-3.6,0-7.1,0-10.7,0c-0.7,0-0.9,0.2-0.9,0.9c0,2.7,0,5.3,0,8c0,0.6,0.2,0.8,0.8,0.8c3,0,5.9,0,8.9,0
			c0.7,0,1,0.2,0.9,0.9c-0.1,0.6,0,1.3,0,1.9c0,0.5-0.2,0.6-0.6,0.6c-3,0-6,0-9.1,0c-0.7,0-0.9,0.2-0.9,0.9c0,3.1,0,6.1,0,9.2
			c0,1,0,1,1,1c3.5,0,7.1,0,10.6,0c0.5,0,1.1,0,1.6,0.2c1.2,0.4,1.8,1.8,1.4,2.9c-0.1,0.3-0.3,0.3-0.5,0.3c-0.8,0-1.5,0-2.3,0
			c-5,0-9.9,0-14.9,0c-0.7,0-0.8-0.2-0.8-0.8C194.3,402.8,194.3,397.9,194.3,393z"/>
		<path class="st1" d="M340.5,393c0-4.9,0-9.8,0-14.7c0-0.7,0.2-0.9,0.9-0.9c5.4,0,10.8,0,16.2,0c0.7,0,0.9,0.2,0.9,0.9
			c0,1.6-0.9,2.4-2.5,2.5c-3.5,0-7.1,0-10.6,0c-0.8,0-1,0.2-0.9,1c0,2.6,0,5.1,0,7.7c0,1,0,1,1,1c2.9,0,5.8,0,8.8,0
			c0.6,0,0.9,0.1,0.8,0.8c-0.1,0.6-0.1,1.3,0,1.9c0.1,0.6-0.1,0.8-0.8,0.8c-2.9,0-5.9,0-8.8,0c-1,0-1,0-1,1c0,3.1,0,6.2,0,9.3
			c0,0.7,0.2,0.9,0.9,0.9c3.6,0,7.2,0,10.8,0c0.5,0,1.1,0,1.6,0.2c1.1,0.4,1.8,1.8,1.4,2.9c-0.1,0.2-0.2,0.3-0.4,0.3
			c-0.2,0-0.3,0-0.5,0c-5.6,0-11.2,0-16.8,0c-0.8,0-0.9-0.2-0.9-1C340.5,402.7,340.5,397.9,340.5,393z"/>
		<path class="st1" d="M370.9,409.2c-2.2,0-4.3-0.3-6.3-1.1c-0.7-0.3-1.4-0.7-2-1.1c-0.9-0.7-1-1.4-0.6-2.4c0.2-0.5,0.5-0.9,0.7-1.3
			c0.3-0.5,0.5-0.4,0.9-0.1c2.4,1.8,5,2.7,8,2.6c0.8,0,1.5-0.1,2.2-0.4c2.1-0.7,3.4-2.1,3.6-4.3c0.2-2.3-0.4-4.2-2.5-5.4
			c-1.4-0.8-2.9-1.3-4.4-1.8c-1.2-0.4-2.4-0.8-3.5-1.4c-3.3-1.6-4.8-4.3-4.5-7.9c0.3-3.5,2.1-5.8,5.4-7c3.8-1.4,7.6-0.9,11.3,0.8
			c0.2,0.1,0.3,0.2,0.5,0.3c2,1.2,2.1,2.4,0.5,4.1c-0.3,0.3-0.5,0.4-0.9,0.1c-2.2-1.8-4.8-2.6-7.6-2.5c-0.8,0-1.6,0.2-2.4,0.5
			c-3.1,1.3-3.7,5.5-1,7.6c1.2,0.9,2.6,1.4,4,1.9c1.6,0.5,3.1,1,4.6,1.8c3.7,2,5.3,5.1,4.6,9.4c-0.5,3.7-3.1,6.4-6.9,7.3
			C373.4,409.1,372.2,409.2,370.9,409.2z"/>
		<path class="st1" d="M247.1,409.2c-2.2,0.1-4.3-0.3-6.4-1.1c-0.8-0.3-1.4-0.7-2.1-1.2c-0.8-0.6-0.9-1.3-0.5-2.3c0,0,0-0.1,0.1-0.1
			c0.3-0.5,0.5-1.2,1-1.5c0.6-0.3,1,0.5,1.5,0.7c2.9,1.7,5.9,2.5,9.2,1.7c2-0.5,3.3-1.7,3.7-3.8c0.4-2.3,0-4.3-2-5.8
			c-1.3-0.9-2.9-1.4-4.4-1.9c-1.4-0.4-2.7-0.9-4-1.6c-3.3-1.7-4.7-4.4-4.4-8c0.3-3.3,2-5.6,5.1-6.8c4-1.5,7.9-1.1,11.7,0.8
			c0.1,0.1,0.3,0.2,0.4,0.2c2.1,1.4,1.7,2.6,0.2,4.2c-0.3,0.3-0.4,0.1-0.6-0.1c-2.2-1.8-4.8-2.6-7.6-2.5c-0.8,0-1.6,0.2-2.3,0.5
			c-1.5,0.6-2.5,1.7-2.7,3.3c-0.3,1.8,0.2,3.3,1.7,4.4c1.3,1,2.8,1.5,4.3,2c1.8,0.6,3.6,1.2,5.2,2.3c3.2,2.1,4,5.2,3.5,8.8
			c-0.6,4.5-4.2,7.2-8.9,7.6C248.2,409.2,247.6,409.2,247.1,409.2z"/>
		<path class="st1" d="M476.8,409.2c-2.2,0-4.3-0.3-6.3-1.1c-0.8-0.3-1.5-0.7-2.2-1.3c-0.7-0.6-0.8-1.2-0.5-2.1
			c0-0.1,0.1-0.2,0.1-0.3c0.8-1.7,0.8-1.7,2.3-0.7c2.8,1.8,5.9,2.6,9.2,1.7c2-0.5,3.4-1.8,3.7-3.9c0.4-2.2,0-4.2-2-5.7
			c-1.3-1-2.9-1.4-4.4-1.9c-1.4-0.4-2.7-0.9-4-1.5c-3.4-1.7-4.8-4.5-4.4-8.2c0.3-3.4,2.2-5.6,5.3-6.7c3.8-1.4,7.5-0.9,11.1,0.7
			c0.3,0.1,0.5,0.3,0.8,0.5c2.1,1.4,1.6,2.6,0.1,4.2c-0.3,0.3-0.4,0-0.6-0.1c-2.3-1.9-4.9-2.7-7.9-2.5c-0.8,0-1.5,0.2-2.2,0.5
			c-3.2,1.3-3.7,5.5-1,7.6c1.2,0.9,2.6,1.4,4,1.9c1.6,0.5,3.1,1,4.6,1.8c3.8,2.1,5.3,5.4,4.5,9.9c-0.7,3.7-3.7,6.4-7.7,7
			C478.6,409.1,477.7,409.2,476.8,409.2z"/>
		<path class="st1" d="M455.6,394.8c0,4.3,0,8.6,0,12.9c0,0.7-0.2,0.9-0.9,0.9c-0.8-0.1-1.6,0-2.4,0c-0.6,0-0.7-0.2-0.7-0.7
			c0-3.1,0-6.2,0-9.3c0-5.5,0-11,0-16.6c0-1.1,0-1.1-1.1-1.1c-2.6,0-5.3,0-7.9,0c-0.7,0-1-0.2-1-0.9c0-1.3,0.6-2.1,1.9-2.4
			c0.4-0.1,0.8-0.1,1.3-0.1c6.7,0,13.4,0,20.1,0c0.8,0,0.9,0.3,0.9,0.9c0,1.4-0.9,2.4-2.3,2.5c-2.3,0.1-4.6,0.1-7,0.1c-1,0-1,0-1,1
			C455.6,386.2,455.6,390.5,455.6,394.8z"/>
		<path class="st1" d="M175.8,394.7c0-4.3,0-8.6,0-13c0-0.7-0.2-0.9-0.8-0.9c-2.7,0-5.5,0-8.2,0c-0.8,0-0.9-0.3-1-0.9
			c0-1.2,0.6-2.1,1.7-2.4c0.5-0.1,0.9-0.2,1.4-0.2c6.7,0,13.4,0,20.2,0c0.7,0,0.9,0.2,0.9,0.9c0,1.5-0.8,2.5-2.3,2.5
			c-2.3,0.1-4.6,0.1-7,0c-0.7,0-1,0.1-1,0.9c0,8.6,0,17.2,0,25.9c0,0.7-0.1,0.9-0.9,0.9c-0.8-0.1-1.6-0.1-2.3,0
			c-0.7,0.1-0.9-0.2-0.8-0.9C175.8,403.3,175.8,399,175.8,394.7z"/>
		<path class="st1" d="M218,393c0-4.9,0-9.8,0-14.8c0-0.7,0.2-0.9,0.9-0.9c1.9-0.1,3,0.8,3,2.7c0.1,1.8,0,3.6,0,5.4
			c0,6.2,0,12.5,0,18.7c0,1,0,1,1,1c3,0,6.1,0,9.1,0c0.4,0,0.8,0,1.3,0.1c2,0.2,2.3,1.6,2.2,3.1c0,0.4-0.4,0.3-0.6,0.3
			c-2.3,0-4.7,0-7,0c-3,0-6.1,0-9.1,0c-0.6,0-0.7-0.2-0.7-0.7C218,402.9,218,397.9,218,393z"/>
	</g>
</g>
</svg>
