<?xml version="1.0" encoding="utf-8"?>
<!-- Generator: Adobe Illustrator 26.3.1, SVG Export Plug-In . SVG Version: 6.00 Build 0)  -->
<svg version="1.1" id="Layer_1" xmlns="http://www.w3.org/2000/svg" xmlns:xlink="http://www.w3.org/1999/xlink" x="0px" y="0px"
	 viewBox="0 0 595.3 595.3" style="enable-background:new 0 0 595.3 595.3;" xml:space="preserve">
<style type="text/css">
	.st0{fill:#D22C35;}
	.st1{fill:#FFFFFF;}
</style>
<path class="st0" d="M297.6,595.3L297.6,595.3C133.3,595.3,0,462,0,297.6l0,0C0,133.3,133.3,0,297.6,0l0,0
	C462,0,595.3,133.3,595.3,297.6l0,0C595.3,462,462,595.3,297.6,595.3z"/>
<path class="st1" d="M584.9,375.9c0.5-2,1.1-4,1.6-6L584.9,375.9z"/>
<polygon class="st1" points="586.4,369.9 586.4,369.9 586.4,369.9 "/>
<g>
	<path class="st1" d="M164.3,211c1,0.2,1.9,0.1,2.9,0.2c10.2,0.4,20.3,2.1,29.8,5.9c8,3.1,15.1,7.5,20.7,14
		c5.5,6.2,9.1,13.5,10.9,21.6c1.2,5.8,1.7,11.6,1.3,17.5c-1.1,15.3-7.6,27.7-19.6,37.2c-4.4,3.5-9.3,6.2-14.6,8.3
		c-0.6,0.2-0.8,0.3-0.3,1c5.2,7.8,9.9,15.9,14.6,23.8c4,6.8,8.6,12.9,14.6,18c3.3,2.8,7,5,11.2,6.4c0.4,0.1,0.7,0.3,0.6,0.8
		c-1.4,6.2-4.4,11.5-9.9,15.2c-3.4,2.2-7.2,3.2-11.3,3.4c-10.6,0.4-19-4-25.7-11.9c-3.9-4.4-7-9.4-10-14.4
		c-5.3-8.9-10.1-18-15.4-26.8c-2.5-4.3-6-7.8-10.8-9.6c-2.2-0.9-4.5-1.3-6.9-1.3c-7.8,0-15.4,0-23.2-0.1c-1.1,0-1.1,0-1.1,1.1
		c0,19.6,0,39.2,0,58.9c0,1.7,0.2,1.4-1.4,1.4c-10.8,0-21.5,0-32.4,0c-0.4,0-0.8,0-1.2,0c0-56.5,0-113.2,0-169.7
		c0-0.7,0.1-0.8,0.8-0.8C113.2,211,138.8,211,164.3,211z M122.1,266.9c0,8.2,0,16.4,0,24.6c0,0.8,0.2,1,1,1c14.3,0,28.6,0,43,0
		c3.4,0,6.8-0.4,10.1-1.4c7.4-2.3,12.9-6.9,15.7-14.2c1.9-4.9,2.1-9.9,1.2-15c-1.2-7.2-4.8-12.9-11.2-16.5c-4.8-2.7-10-3.8-15.4-3.8
		c-14.4-0.1-28.8,0-43.3,0c-1.1,0-1.1,0-1.1,1.1C122.1,250.7,122.1,258.8,122.1,266.9z"/>
	<path class="st1" d="M508.1,211c0,0.1,0,0.2,0,0.3c0,33.8,0.1,67.6-0.1,101.4c-0.1,13.1-2.8,25.6-8.8,37.2
		c-8.2,16-21.2,26.2-38.4,31c-6.3,1.8-12.9,2.8-19.5,3.1c-10.4,0.4-20.6-0.2-30.7-3c-9-2.4-17.2-6.5-24.2-12.7
		c-6.8-6-11.5-13.3-15-21.5c-2.7-6.5-4.3-13.3-5.3-20.3c-0.8-5.8-1.1-11.5-1.1-17.4c0-32.5,0-65,0-97.3c0-0.2,0-0.4,0-0.8
		c0.4,0,1,0,1.4,0c1.2,0.3,2.4,0.2,3.7,0.3c5.3,0.6,10.5,1.7,15.4,3.9c5.2,2.3,9.4,5.8,12.1,11c1.8,3.5,2.4,7.4,2.4,11.3
		c0,22.6,0,45.1,0,67.7c0,4.1,0.1,8.2,0.4,12.3c0.6,5.2,1.4,10.2,3.3,15.1c3.4,9,9.6,15,19,17.6c7.6,2.1,15.3,2.2,23.1,0.9
		c11.9-2.1,19.7-9,23.7-20.3c2.4-7,3.3-14.2,3.3-21.5c0-32.6,0-65.2,0-97.7c0-0.1,0-0.3,0-0.4C484.7,211,496.3,211,508.1,211z"/>
	<path class="st1" d="M279.6,211c1.3,0.3,2.7,0.2,4,0.3c6,0.7,11.8,2,17.2,4.9c6.2,3.3,10.4,8.3,11.9,15.3c0.4,2,0.6,4.1,0.6,6.2
		c0,30.3,0,60.6,0,90.9c0,17.3,0,34.6,0,51.9c0,1.1,0,1.1-1.1,1.1c-11,0-21.8,0-32.8,0c-1.1,0-1.1,0-1.1-1.1c0-56.3,0-112.6,0-169
		c0-0.1,0-0.2,0-0.4C278.6,211,279.2,211,279.6,211z"/>
</g>
</svg>
