<?xml version="1.0" encoding="UTF-8"?>
<svg width="140px" height="52px" viewBox="0 0 140 52" version="1.1" xmlns="http://www.w3.org/2000/svg" xmlns:xlink="http://www.w3.org/1999/xlink">
    <title>RMS Logo_Primary_On Navy_HZ_RGB</title>
    <g id="Page-1" stroke="none" stroke-width="1" fill="none" fill-rule="evenodd">
        <g id="RMS_Homepage-21/12" transform="translate(-334.000000, -7110.000000)" fill-rule="nonzero">
            <g id="RMS-Logo_Primary_On-Navy_HZ_RGB" transform="translate(334.000000, 7110.000000)">
                <g id="Group" transform="translate(60.739715, 12.310680)" fill="#FFFFFF">
                    <path d="M21.6041003,9.61165049 C21.6041003,4.13592233 17.240615,0.582524272 11.1899155,0.582524272 L0,0.582524272 L0,26.8349515 L5.58526112,26.8349515 L5.58526112,18.6796117 L6.28341876,18.6796117 C9.69663388,23.7864078 15.3400748,26.815534 21.507134,26.815534 L21.507134,21.7087379 C18.2684582,21.7087379 15.2237152,20.5436893 12.8577365,18.4854369 C13.8080066,18.3495146 14.9522094,18.1165049 16.1158055,17.7475728 C19.6065937,16.6019417 21.6041003,13.4368932 21.6041003,9.61165049 Z M10.9959828,13.5533981 L5.60465438,13.5533981 L5.60465438,5.66990291 L10.9959828,5.66990291 C13.8080066,5.66990291 16.077019,7.18446602 16.077019,9.61165049 C16.0964122,12 13.8080066,13.5533981 10.9959828,13.5533981 Z" id="Shape"></path>
                    <polygon id="Path" points="40.0277047 16.0194175 30.2341044 0.563106796 26.219698 0.563106796 26.219698 26.8349515 31.8631389 26.8349515 31.7855659 12.4660194 38.3792769 22.8543689 38.3792769 22.8932039 41.6567392 22.8932039 48.2116637 12.5825243 48.2116637 26.8349515 53.7969248 26.8349515 53.7969248 0.563106796 49.8213049 0.563106796"></polygon>
                    <path d="M71.2508658,11.6116505 L68.0121901,10.9514563 C65.6268181,10.4854369 64.3080759,9.70873786 64.3080759,7.94174757 C64.3080759,5.90291262 65.7043912,4.73786408 68.4388419,4.73786408 C71.5999446,4.73786408 72.2205292,6.29126214 72.569608,8.60194175 L78.077296,8.60194175 C77.4567115,1.80582524 72.4144618,0 68.0121901,0 C62.000277,0 58.4125225,3.3592233 58.4125225,8.40776699 C58.4125225,12.5048544 60.6815348,15.0873786 65.8983239,16.1359223 L70.184236,16.9514563 C72.8411137,17.4563107 73.4616983,18.5825243 73.4616983,19.6504854 C73.4616983,21.4174757 71.9102369,22.4660194 69.1369996,22.4660194 C65.6268181,22.4660194 63.3190193,20.815534 62.8923674,18.1359223 L57.3458928,18.1359223 C57.8113312,24 62.504502,27.3592233 68.8461006,27.3592233 C75.1295193,27.3592233 79.2602854,24.038835 79.2602854,19.0291262 C79.2408921,14.6213592 76.2737221,12.6990291 71.2508658,11.6116505 Z" id="Path"></path>
                </g>
                <path d="M25.9675855,0 C12.0626126,0 0.678764372,11.0097087 0.0387865355,24.776699 C0.0193932678,25.184466 0,25.592233 0,26 C0,26.407767 0.0193932678,26.815534 0.0387865355,27.223301 C0.678764372,40.9902913 12.0626126,52 25.9675855,52 C40.2798171,52 51.9351711,40.3300971 51.9351711,26 C51.9351711,11.6504854 40.2992104,0 25.9675855,0 Z M36.071478,25.9805825 C36.071478,31.5533981 31.5528467,36.0776699 25.9869788,36.0776699 C20.421111,36.0776699 15.9024796,31.5533981 15.9024796,25.9805825 C15.9024796,20.407767 20.421111,15.8834951 25.9869788,15.8834951 C31.5528467,15.8834951 36.071478,20.4271845 36.071478,25.9805825 Z M25.9675855,14.2330097 C19.4902341,14.2330097 14.2152653,19.5145631 14.2152653,26 C14.2152653,32.4854369 19.4902341,37.7669903 25.9675855,37.7669903 C27.5772268,37.7669903 29.1092949,37.4368932 30.4862169,36.8543689 C28.5468902,38.038835 26.2778778,38.7378641 23.8537194,38.7378641 C16.8333564,38.7378641 11.1317357,33.0291262 11.1317357,26 C11.1317357,18.9708738 16.8333564,13.2621359 23.8537194,13.2621359 C26.2778778,13.2621359 28.5662834,13.9417476 30.4862169,15.1456311 C29.1092949,14.5436893 27.5772268,14.2330097 25.9675855,14.2330097 Z M23.8731126,11.592233 C15.9412661,11.592233 9.50270121,18.0582524 9.50270121,25.9805825 C9.50270121,33.9029126 15.9606594,40.368932 23.8731126,40.368932 C25.9094057,40.368932 27.8487325,39.9417476 29.5941266,39.184466 C27.305721,40.5631068 24.6294501,41.3398058 21.7592464,41.3398058 C13.3037817,41.3398058 6.41917163,34.4466019 6.41917163,25.9805825 C6.41917163,17.5145631 13.3037817,10.6213592 21.7592464,10.6213592 C24.6100568,10.6213592 27.305721,11.4174757 29.5941266,12.776699 C27.8293392,12.0194175 25.8900125,11.592233 23.8731126,11.592233 Z M39.2713672,25.9805825 C39.2713672,15.1456311 30.4668237,6.33009709 19.6453802,6.33009709 C18.5787505,6.33009709 17.5121208,6.42718447 16.4842776,6.58252427 C18.1714919,6.11650485 19.9362793,5.88349515 21.7398532,5.88349515 C32.8134091,5.88349515 41.8118853,14.9126214 41.8118853,25.9805825 C41.8118853,37.0485437 32.7940158,46.0776699 21.7398532,46.0776699 C19.916886,46.0776699 18.1520986,45.8252427 16.4842776,45.3786408 C17.5121208,45.5533981 18.5593573,45.631068 19.625987,45.631068 C30.4668237,45.6504854 39.2713672,36.8349515 39.2713672,25.9805825 Z M1.70660756,25.0679612 C2.19143926,15.5728155 10.0457127,8 19.6453802,8 C22.9422358,8 26.0257653,8.89320388 28.6632498,10.4466019 C26.5493836,9.49514563 24.2027982,8.97087379 21.7398532,8.97087379 C12.3535116,8.97087379 4.73195733,16.6019417 4.73195733,26 C4.73195733,35.3786408 12.3535116,43.0291262 21.7398532,43.0291262 C24.2027982,43.0291262 26.5493836,42.5048544 28.6632498,41.5533981 C26.0063721,43.1067961 22.9228425,44 19.625987,44 C10.0263194,44 2.15265272,36.4271845 1.6872143,26.9320388 C1.66782103,26.6213592 1.66782103,26.3106796 1.66782103,26 C1.66782103,25.6699029 1.6872143,25.3786408 1.70660756,25.0679612 Z M21.7592464,47.7669903 C33.7442859,47.7669903 43.4990996,38 43.4990996,26 C43.4990996,14 33.7442859,4.21359223 21.7592464,4.21359223 C20.5180773,4.21359223 19.3156947,4.33009709 18.1327054,4.52427184 C19.9556725,4.03883495 21.8949993,3.76699029 23.8731126,3.76699029 C36.1102646,3.76699029 46.0590109,13.7281553 46.0590109,25.9805825 C46.0590109,38.2330097 36.1102646,48.1941748 23.8731126,48.1941748 C21.8949993,48.1941748 19.9556725,47.9223301 18.1327054,47.4368932 C19.3156947,47.6504854 20.5180773,47.7669903 21.7592464,47.7669903 Z M25.9675855,50.3300971 C23.8149328,50.3300971 21.7398532,50.038835 19.7423466,49.5145631 C21.0804821,49.7475728 22.4574041,49.8834951 23.8537194,49.8834951 C37.0023549,49.8834951 47.7074387,39.1650485 47.7074387,26 C47.7074387,12.8349515 37.0023549,2.11650485 23.8537194,2.11650485 C22.4574041,2.11650485 21.0804821,2.25242718 19.7423466,2.48543689 C21.7204599,1.96116505 23.8149328,1.66990291 25.9675855,1.66990291 C39.3683336,1.66990291 50.2673758,12.5825243 50.2673758,26 C50.2867433,39.3980583 39.3683336,50.3300971 25.9675855,50.3300971 Z" id="Shape" fill="#00CDD6"></path>
            </g>
        </g>
    </g>
</svg>