<?xml version="1.0" encoding="utf-8"?>
<!-- Generator: Adobe Illustrator 26.3.1, SVG Export Plug-In . SVG Version: 6.00 Build 0)  -->
<svg version="1.1" id="Layer_1" xmlns="http://www.w3.org/2000/svg" xmlns:xlink="http://www.w3.org/1999/xlink" x="0px" y="0px"
	 viewBox="0 0 595.3 595.3" style="enable-background:new 0 0 595.3 595.3;" xml:space="preserve">
<style type="text/css">
	.st0{fill:#FFFFFF;}
	.st1{fill:url(#SVGID_1_);}
	.st2{fill:url(#SVGID_00000085230593329844104830000013123213370044020123_);}
	.st3{fill:url(#SVGID_00000088103909606751793750000009593270417177865863_);}
	.st4{fill:url(#SVGID_00000124877723847718776120000003748160052007814284_);}
	.st5{fill:url(#SVGID_00000145020260221334979280000011309559996398858113_);}
	.st6{fill:url(#SVGID_00000010302285889861441880000012546439041030030244_);}
	.st7{fill:#0092C6;}
	.st8{fill:url(#SVGID_00000106845225351631355900000006006996916755419321_);}
	.st9{fill:url(#SVGID_00000121978551587926211870000003911938341436390322_);}
	.st10{fill:url(#SVGID_00000090987971535974633850000011818894962644809137_);}
	.st11{fill:url(#SVGID_00000135667757908848024340000010368891940913414047_);}
	.st12{fill:url(#SVGID_00000153675085471564329000000015062818865712733081_);}
	.st13{fill:url(#SVGID_00000054242827694642481640000004183615842135411875_);}
	.st14{fill:url(#SVGID_00000063604401591134780850000008872943443704919481_);}
	.st15{fill:url(#SVGID_00000151539517343703658620000015291571090182121140_);}
	.st16{fill:url(#SVGID_00000023959213599497540970000013848313838002269324_);}
	.st17{fill:none;}
	.st18{fill:url(#SVGID_00000091717971793196249040000004669142877800164267_);}
	.st19{fill:url(#SVGID_00000072993844315016702570000015590231975358629784_);}
</style>
<path class="st0" d="M297.6,595.3L297.6,595.3C133.3,595.3,0,462,0,297.6v0C0,133.3,133.3,0,297.6,0h0
	C462,0,595.3,133.3,595.3,297.6v0C595.3,462,462,595.3,297.6,595.3z"/>
<g>
	<linearGradient id="SVGID_1_" gradientUnits="userSpaceOnUse" x1="173.7418" y1="309.8217" x2="547.0655" y2="309.8217">
		<stop  offset="0" style="stop-color:#005B97"/>
		<stop  offset="1" style="stop-color:#0092C6"/>
	</linearGradient>
	<path class="st1" d="M547.1,310c-0.6,0-1.1,0-1.7,0c-3,0-6,0-9.1,0.2c-2.7,0.1-5.4,0-8,0.1c-2.8,0.1-5.6,0-8.4,0.1
		c-2.7,0.1-5.4,0-8.1,0.1c-2.8,0.1-5.7,0-8.5,0.1c-3.3,0.1-6.6,0-9.9,0.1c-3.9,0.1-7.9,0-11.8,0.1c-4.3,0.1-8.5,0-12.8,0.1
		c-5.3,0.1-10.5,0-15.8,0.1c-6.3,0.2-12.6,0-18.9,0.1c-9.5,0.2-19,0-28.5,0.1c-23.2,0.2-46.5,0.1-69.7,0.1c-2.6,0-5.3,0-7.9,0
		c-12.8,0-25.7,0-38.5-0.2c-6.4-0.1-12.9,0-19.3-0.1c-5.3-0.1-10.5,0-15.8-0.1c-4.4-0.1-8.8,0-13.1-0.1c-3.9-0.1-7.7,0-11.6-0.1
		c-3.5-0.1-6.9,0-10.4-0.1c-2.8-0.1-5.5,0-8.3-0.1c-2.8-0.1-5.6,0-8.4-0.1c-2.8-0.1-5.6,0-8.4-0.1c-2.6-0.1-5.3-0.1-7.9-0.1
		c-4-0.1-7.9-0.2-11.9-0.3c-0.1,0-0.2,0-0.5,0c1-0.3,1.9-0.2,2.8-0.2c3.5-0.1,6.9,0,10.4-0.2c2.6-0.1,5.2,0,7.8-0.1
		c2.9-0.1,5.8,0,8.7-0.1c2.7-0.1,5.4,0,8-0.1c2.9-0.1,5.8,0,8.7-0.1c3.5-0.1,7,0,10.5-0.1c4.1-0.1,8.2,0,12.3-0.1
		c3.7-0.1,7.4,0,11.1-0.1c6.1-0.1,12.3,0,18.4-0.1c6.6-0.1,13.1,0,19.7-0.1c14.3-0.2,28.7,0,43-0.1c16.7-0.1,33.4-0.1,50.1,0
		c13.3,0.1,26.6,0,39.9,0.1c7.4,0.1,14.9,0,22.3,0.1c5.3,0.1,10.6,0,15.9,0.1c4.5,0.1,9.1,0,13.6,0.1c4,0.1,7.9,0,11.9,0.1
		c3.7,0.1,7.3,0,11,0.1c2.8,0.1,5.6,0,8.4,0.1c2.8,0.1,5.5,0,8.3,0.1c2.8,0.1,5.5,0,8.3,0.1c2.7,0.1,5.4,0,8.2,0.1
		c4.3,0.1,8.6,0.2,12.9,0.3c0.4,0,0.7,0.1,1.1,0.1C547.1,309.9,547.1,309.9,547.1,310z"/>
	
		<linearGradient id="SVGID_00000082330064811839694470000015213597401589703870_" gradientUnits="userSpaceOnUse" x1="457.7413" y1="277.8374" x2="497.3546" y2="277.8374">
		<stop  offset="0" style="stop-color:#FF4102"/>
		<stop  offset="1" style="stop-color:#FF6C02"/>
	</linearGradient>
	<path style="fill:url(#SVGID_00000082330064811839694470000015213597401589703870_);" d="M477.6,275.9c2.9,0,5.7,0,8.6,0
		c0.9,0,0.9,0,0.9-0.8c0-4.2,0-8.5,0-12.7c0-1.3-0.5-1.9-1.7-2.1c-0.9-0.2-1.7-0.3-2.6-0.5c-0.7-0.1-0.7-0.3-0.7-1.2
		c0-0.6,0.4-0.5,0.8-0.5c4.6,0,9.1,0,13.7,0c0.3,0,0.7-0.1,0.8,0.5c0.1,0.8,0,1-0.7,1.2c-0.9,0.2-1.8,0.4-2.7,0.6
		c-1.1,0.2-1.6,0.8-1.6,1.9c0,10.4,0,20.9,0,31.3c0,1.1,0.4,1.6,1.5,1.9c0.9,0.2,1.9,0.5,2.8,0.6c0.8,0.1,0.7,0.6,0.7,1.1
		c0,0.6-0.4,0.5-0.8,0.5c-4.6,0-9.1,0-13.7,0c-0.3,0-0.7,0.1-0.8-0.5c-0.1-0.8,0-1,0.6-1.1c1-0.2,1.9-0.4,2.9-0.6
		c1-0.2,1.5-0.8,1.5-1.8c0-4.9,0-9.8,0-14.7c0-0.5-0.2-0.7-0.7-0.7c-5.9,0-11.7,0-17.6,0c-0.5,0-0.7,0.2-0.7,0.7c0,4.9,0,9.8,0,14.7
		c0,1.1,0.4,1.5,1.4,1.8c1,0.2,1.9,0.5,2.9,0.6c0.7,0.1,0.6,0.7,0.6,1.1c0,0.5-0.4,0.5-0.7,0.5c-4.6,0-9.2,0-13.8,0
		c-0.4,0-0.7,0-0.7-0.5c0-0.4-0.2-1,0.5-1.1c1-0.2,2-0.4,3-0.6c1-0.2,1.4-0.8,1.4-1.7c0-10.5,0-21,0-31.6c0-1.1-0.4-1.6-1.5-1.8
		c-0.9-0.2-1.9-0.4-2.8-0.6c-0.7-0.1-0.6-0.6-0.7-1.1c0-0.6,0.3-0.6,0.8-0.6c4.6,0,9.2,0,13.8,0c0.4,0,0.8,0,0.8,0.5
		c0,0.5,0.1,1-0.6,1.1c-0.9,0.2-1.9,0.4-2.8,0.6c-1.1,0.2-1.6,0.8-1.6,1.9c0,4.3,0,8.6,0,12.9c0,0.6,0.2,0.8,0.8,0.8
		C471.8,275.9,474.7,275.9,477.6,275.9C477.6,275.9,477.6,275.9,477.6,275.9z"/>
	
		<linearGradient id="SVGID_00000159471062186372822470000002243078935600760743_" gradientUnits="userSpaceOnUse" x1="255.909" y1="283.2869" x2="303.7991" y2="283.2869">
		<stop  offset="0" style="stop-color:#005B97"/>
		<stop  offset="1" style="stop-color:#0092C6"/>
	</linearGradient>
	<path style="fill:url(#SVGID_00000159471062186372822470000002243078935600760743_);" d="M265,273.6c0.8-0.9,1.4-1.7,2.2-2.3
		c3-2.6,7.8-3.1,11.2-1.2c1.5,0.8,2.5,2,3.1,3.6c0.1,0.2,0.1,0.4,0.3,0.4c0.2,0,0.2-0.2,0.3-0.4c1.5-2,3.3-3.7,5.9-4.4
		c1.8-0.5,3.7-0.5,5.5,0c3.5,0.9,5.3,3.3,6,6.7c0.2,1,0.3,2.1,0.3,3.1c0,4.8,0,9.6,0,14.4c0,1.3,0.3,1.7,1.6,2.1
		c0.7,0.2,1.3,0.4,2,0.5c0.6,0.1,0.5,0.6,0.5,1c0,0.4-0.3,0.5-0.7,0.5c-4,0-8,0-12.1,0c-0.3,0-0.6,0-0.6-0.5c0-0.4-0.1-0.9,0.4-1
		c0.8-0.2,1.6-0.4,2.4-0.6c1.1-0.2,1.5-0.7,1.5-1.8c0-4.9,0-9.8,0-14.7c0-1-0.1-1.9-0.3-2.8c-0.5-2.2-1.8-3.6-4.2-3.9
		c-2.7-0.3-5.2,0.3-7.2,2.3c-0.4,0.3-0.5,0.7-0.5,1.2c0,5.9,0,11.9,0,17.8c0,1.1,0.3,1.5,1.4,1.8c0.7,0.2,1.4,0.4,2.1,0.5
		c0.6,0.2,0.5,0.7,0.5,1.1c0,0.5-0.4,0.4-0.7,0.4c-4,0-8,0-11.9,0c-0.3,0-0.7,0-0.7-0.4c0-0.4-0.1-0.9,0.5-1
		c0.8-0.1,1.5-0.3,2.3-0.5c1.1-0.3,1.5-0.7,1.5-1.9c0-4.8,0-9.6,0-14.3c0-1.1-0.1-2.2-0.4-3.2c-0.6-2.3-2-3.5-4.3-3.8
		c-2.4-0.2-4.6,0.3-6.6,1.8c-0.7,0.5-1,1.2-1,2.1c0,5.7,0,11.5,0,17.2c0,1.3,0.3,1.7,1.5,2c0.7,0.2,1.4,0.4,2,0.5
		c0.6,0.1,0.5,0.6,0.5,1.1c0,0.5-0.3,0.5-0.7,0.5c-4,0-8,0-11.9,0c-0.3,0-0.7,0-0.7-0.5c0-0.4-0.1-0.9,0.6-1
		c0.8-0.1,1.5-0.3,2.3-0.5c1-0.3,1.5-0.8,1.5-1.9c0-2.3,0-4.5,0-6.8c0-3.8,0-7.6,0-11.4c0-1.4-0.4-1.9-1.7-2.4
		c-0.7-0.3-1.5-0.5-2.2-0.8c-0.3-0.1-0.5-0.3-0.5-0.7c0-0.4,0.2-0.4,0.5-0.5c2.6-0.6,5.2-1.2,7.8-1.8c0.8-0.2,0.8-0.1,0.8,0.6
		C265,271.2,265,272.3,265,273.6z"/>
	
		<linearGradient id="SVGID_00000149350102131944445730000006801119724797526925_" gradientUnits="userSpaceOnUse" x1="161.0911" y1="277.8329" x2="198.1626" y2="277.8329">
		<stop  offset="0" style="stop-color:#FF4102"/>
		<stop  offset="1" style="stop-color:#FF6C02"/>
	</linearGradient>
	<path style="fill:url(#SVGID_00000149350102131944445730000006801119724797526925_);" d="M168.9,297.6c-2.3,0-4.7,0-7,0
		c-0.3,0-0.7,0.1-0.8-0.5c-0.1-0.8,0-1,0.7-1.1c0.9-0.2,1.8-0.4,2.7-0.6c1.2-0.3,1.6-0.7,1.6-2c0-6.9,0-13.9,0-20.8
		c0-3.4,0-6.8,0-10.3c0-1.4-0.4-1.9-1.8-2.1c-0.9-0.2-1.7-0.4-2.6-0.5c-0.7-0.1-0.6-0.6-0.6-1.1c0-0.6,0.4-0.6,0.8-0.6
		c4.5,0,8.9,0,13.4,0c2.5,0,5,0.1,7.4,0.8c1.9,0.6,3.7,1.3,5.1,2.8c1.4,1.4,2,3.1,2.2,5c0.7,5.8-3.1,10.3-8.1,12
		c-0.7,0.2-0.7,0.2-0.3,0.9c3.3,4.4,6.7,8.8,10,13.2c1.2,1.6,2.6,2.8,4.6,3c0.4,0,0.9,0.2,1.3,0.3c0.4,0.1,0.5,0.3,0.5,0.6
		c0,0.9,0,0.9-0.9,0.9c-1.9,0-3.7,0-5.6,0c-2,0-3.5-0.7-4.7-2.3c-3.5-4.9-7.1-9.8-10.6-14.7c-0.3-0.4-0.6-0.6-1-0.7
		c-1-0.2-2-0.4-3.1-0.6c-0.8-0.1-0.8-0.1-0.8,0.7c0,2,0,4,0,5.9c0,2.5,0,5.1,0,7.6c0,1.2,0.4,1.7,1.6,1.9c1,0.2,2,0.4,3.1,0.6
		c0.7,0.1,0.8,0.3,0.7,1.1c0,0.6-0.5,0.5-0.8,0.5C173.6,297.6,171.3,297.6,168.9,297.6z M174.6,260.4c-1,0-1.7,0-2.4,0
		c-0.5,0-0.7,0.1-0.7,0.7c0,5.2,0,10.5,0,15.7c0,0.5,0.2,0.7,0.7,0.7c1.6,0.2,3.1,0.2,4.7,0.1c2.7-0.2,4.9-1.4,6.4-3.8
		c1.3-2.2,1.5-4.7,1-7.1c-0.6-3.2-2.5-5.1-5.6-5.9C177.2,260.4,175.7,260.3,174.6,260.4z"/>
	
		<linearGradient id="SVGID_00000087383841340996831370000008649212509770663857_" gradientUnits="userSpaceOnUse" x1="530.5885" y1="276.3943" x2="559.6378" y2="276.3943">
		<stop  offset="0" style="stop-color:#005B97"/>
		<stop  offset="1" style="stop-color:#0092C6"/>
	</linearGradient>
	<path style="fill:url(#SVGID_00000087383841340996831370000008649212509770663857_);" d="M540,273.6c1-1.2,1.9-2.2,3.1-3
		c4-2.7,11.4-2.4,14.7,3.8c1.2,2.3,1.8,4.8,1.9,7.4c0.1,3-0.3,6-1.5,8.8c-2.1,4.8-6.6,7.8-11.8,7.9c-3.7,0-7.2-0.6-10.5-2.2
		c-0.6-0.3-0.8-0.6-0.8-1.3c0-11.4,0-22.7,0-34.1c0-1.5-0.3-2-1.7-2.5c-0.7-0.3-1.4-0.5-2.2-0.8c-0.3-0.1-0.5-0.3-0.5-0.6
		c0-0.4,0.3-0.5,0.6-0.6c2.7-0.6,5.4-1.3,8.1-1.9c0.6-0.2,0.7,0.1,0.7,0.6c0,3.9,0,7.8,0,11.7C540,268.9,540,271.1,540,273.6z
		 M540,284.5c0,2.9,0,5.8,0,8.7c0,0.3,0,0.7,0.3,0.9c1.4,1.1,3,2,4.8,2.1c3.1,0.3,5.5-1,7.3-3.6c1.3-1.9,1.8-4,2-6.3
		c0.3-3.2,0-6.3-1.3-9.3c-2.2-5.2-8.9-6.4-12.7-2.4c-0.4,0.4-0.5,0.8-0.5,1.3C540,278.8,540,281.7,540,284.5z"/>
	
		<linearGradient id="SVGID_00000124862976736799331370000012311569920155875222_" gradientUnits="userSpaceOnUse" x1="306.4113" y1="277.8781" x2="333.1776" y2="277.8781">
		<stop  offset="0" style="stop-color:#FF4102"/>
		<stop  offset="1" style="stop-color:#FF6C02"/>
	</linearGradient>
	<path style="fill:url(#SVGID_00000124862976736799331370000012311569920155875222_);" d="M331.1,263.9c0,1.3,0,2.6,0,4
		c0,0.3,0.1,0.7-0.4,0.8c-0.7,0.1-1.2,0-1.4-0.5c-0.5-1.4-1.1-2.8-1.5-4.2c-0.3-0.9-0.8-1.6-1.6-2.1c-3.2-1.8-6.7-2.6-10.3-1.2
		c-2.3,0.9-3.5,2.7-3.5,5.2c0,1,0,1.9,0.2,2.8c0.6,2.6,2.4,4.1,4.8,5.1c2.1,0.8,4.4,1.3,6.5,2c1.7,0.6,3.4,1.3,5,2.3
		c2.6,1.7,4.1,4,4.3,7.1c0.2,3.8-0.8,7.2-3.8,9.8c-2.3,2.1-5.1,3.1-8.2,3.5c-4.1,0.5-8.1-0.6-12-1.7c-0.5-0.2-1-0.3-1.5-0.5
		c-0.5-0.1-0.7-0.4-0.7-0.9c-0.1-2.1-0.3-4.2-0.4-6.4c-0.1-0.9-0.1-1.8-0.2-2.7c0-0.4,0.1-0.5,0.5-0.5c1.1-0.1,1.1-0.1,1.5,0.9
		c0.6,1.4,1.1,2.8,1.7,4.2c0.4,1,1.1,1.8,2,2.3c2.7,1.5,5.6,2.6,8.8,2.6c4.4,0,7.2-3,7.3-7.3c0.1-3.6-1.8-5.8-5.3-7.3
		c-2.2-0.9-4.6-1.3-6.8-2.1c-2.4-0.7-4.6-1.8-6.2-3.8c-2.7-3.5-2.9-7.3-1.1-11.2c2.1-4.5,5.9-6.6,10.8-6.9c3.8-0.2,7.4,0.6,11,1.7
		c0.5,0.1,0.6,0.4,0.6,0.9C331.1,261.2,331.1,262.5,331.1,263.9z"/>
	<path class="st7" d="M156,297.3c-0.1,2.5-0.9,4.7-2.6,6.5c-3.8,3.9-7.6,7.7-11.4,11.6c-0.4,0.4-0.7,0.5-1.2,0
		c-1.6-1.6-3.3-3.2-4.9-4.8c-0.4-0.4-0.4-0.7,0-1.1c2.3-2.3,4.6-4.6,6.9-6.9c3.1-3.1,3.1-7.4,0-10.5c-2.3-2.3-4.7-4.6-7-6.9
		c-0.4-0.4-0.4-0.7,0-1.1c1.7-1.7,3.3-3.4,5-5c0.3-0.3,0.5-0.3,0.8,0c2.3,2.3,4.7,4.6,7,6.9c1.6,1.5,3.2,3.1,4.7,4.6
		C155.1,292.5,155.9,294.8,156,297.3z"/>
	
		<linearGradient id="SVGID_00000086658978165324771120000000914918828619090090_" gradientUnits="userSpaceOnUse" x1="400.9328" y1="283.7546" x2="432.3223" y2="283.7546">
		<stop  offset="0" style="stop-color:#005B97"/>
		<stop  offset="1" style="stop-color:#0092C6"/>
	</linearGradient>
	<path style="fill:url(#SVGID_00000086658978165324771120000000914918828619090090_);" d="M423,293.8c-0.9,0.9-1.7,1.7-2.6,2.5
		c-2,1.6-4.3,2-6.8,1.9c-1.8-0.1-3.5-0.5-5-1.6c-1.9-1.5-2.7-3.5-3.1-5.7c-0.1-0.8-0.1-1.5-0.1-2.3c0-4.3,0-8.5,0-12.8
		c0-1.6-0.4-2.1-1.9-2.7c-0.7-0.2-1.3-0.5-2-0.7c-0.4-0.1-0.6-0.3-0.6-0.7c0-0.4,0.3-0.4,0.6-0.5c2.6-0.6,5.3-1.1,7.9-1.7
		c0.8-0.2,0.8-0.1,0.8,0.7c0,5.8,0,11.5,0,17.3c0,1.1,0.1,2.3,0.3,3.4c0.6,2.4,1.8,3.6,4.2,4c2.4,0.3,4.6-0.1,6.6-1.4
		c0.2-0.1,0.3-0.3,0.5-0.4c0.7-0.5,1-1.2,1-2.1c0-5,0-10,0-15c0-1.5-0.3-1.9-1.7-2.4c-0.7-0.3-1.5-0.5-2.2-0.8
		c-0.3-0.1-0.6-0.2-0.6-0.7c0-0.4,0.3-0.5,0.6-0.6c2.7-0.6,5.4-1.3,8.1-1.9c0.7-0.2,0.6,0.2,0.6,0.7c0,4.9,0,9.8,0,14.7
		c0,2.4,0,4.8,0,7.1c0,1.4,0.4,1.9,1.7,2.4c0.7,0.2,1.5,0.5,2.2,0.7c0.3,0.1,0.6,0.2,0.6,0.7c0,0.4-0.3,0.5-0.6,0.5
		c-2.6,0.7-5.1,1.3-7.7,2c-0.9,0.2-1,0.1-1-0.8C423,296.2,423,295,423,293.8z"/>
	
		<linearGradient id="SVGID_00000088816811578810528720000013949044595058377625_" gradientUnits="userSpaceOnUse" x1="498.832" y1="283.7549" x2="530.2203" y2="283.7549">
		<stop  offset="0" style="stop-color:#005B97"/>
		<stop  offset="1" style="stop-color:#0092C6"/>
	</linearGradient>
	<path style="fill:url(#SVGID_00000088816811578810528720000013949044595058377625_);" d="M520.9,293.8c-0.9,0.9-1.7,1.8-2.6,2.5
		c-2,1.6-4.4,1.9-6.8,1.8c-1.1,0-2.1-0.2-3.1-0.6c-2.5-1-4-3-4.7-5.5c-0.3-1.1-0.4-2.2-0.4-3.3c0-4.3,0-8.7,0-13
		c0-1.7-0.3-2.2-2-2.8c-0.7-0.2-1.3-0.5-2-0.7c-0.3-0.1-0.5-0.3-0.5-0.6c0-0.4,0.3-0.5,0.6-0.6c2.7-0.6,5.3-1.1,8-1.7
		c0.8-0.2,0.8-0.1,0.8,0.7c0,5.8,0,11.5,0,17.3c0,1.1,0.1,2.3,0.3,3.4c0.5,2.3,1.8,3.7,4.2,3.9c2.4,0.3,4.7-0.1,6.8-1.5
		c0.2-0.1,0.4-0.3,0.6-0.4c0.7-0.5,0.9-1.1,0.9-2c0-5,0-10.1,0-15.1c0-1.5-0.3-1.9-1.7-2.4c-0.8-0.3-1.5-0.5-2.3-0.8
		c-0.3-0.1-0.5-0.3-0.5-0.6c0-0.4,0.2-0.5,0.5-0.5c2.8-0.7,5.5-1.3,8.3-2c0.4-0.1,0.6,0.1,0.6,0.5c0,0.6,0,1.1,0,1.7
		c0,6.7,0,13.5,0,20.2c0,1.5,0.4,2.1,1.9,2.5c0.7,0.2,1.4,0.4,2.1,0.7c0.3,0.1,0.5,0.3,0.5,0.6c0,0.4-0.3,0.4-0.5,0.5
		c-2.6,0.7-5.2,1.3-7.8,2c-0.8,0.2-1,0.1-1-0.7C520.9,296.2,520.9,295,520.9,293.8z"/>
	
		<linearGradient id="SVGID_00000074431058747484730360000014345840741360270260_" gradientUnits="userSpaceOnUse" x1="355.5794" y1="283.6119" x2="382.2172" y2="283.6119">
		<stop  offset="0" style="stop-color:#005B97"/>
		<stop  offset="1" style="stop-color:#0092C6"/>
	</linearGradient>
	<path style="fill:url(#SVGID_00000074431058747484730360000014345840741360270260_);" d="M372,293.7c-1.4,2.1-3.2,3.4-5.5,4
		c-2.6,0.7-5.2,0.9-7.7-0.7c-3.5-2.3-4.4-7.4-1.8-10.8c1.7-2.3,4-3.4,6.6-4.2c2.3-0.7,4.7-0.9,7.1-0.5c0,0,0,0,0.1,0
		c1.3,0.1,1.3,0.1,1.3-1.2c0-1.6,0-3.2,0-4.8c0-0.4-0.1-0.8-0.2-1.3c-0.4-1.5-1.4-2.2-3.3-2.3c-2-0.1-3.8,0.5-5.5,1.5
		c-1.2,0.7-2.3,1.5-3.5,2.4c-0.2,0.1-0.4,0.3-0.6,0.4c-0.5,0.2-0.8,0.1-0.9-0.4c-0.2-1.2-0.5-2.4-0.7-3.6c-0.1-0.3,0-0.5,0.3-0.7
		c4-2.1,8.2-3,12.7-1.9c4.2,1.1,6.6,4.2,6.6,8.6c0,4.9-0.1,9.8-0.1,14.7c0,1.5,0.9,2.3,2.4,2.1c0.6-0.1,1.2-0.2,1.8-0.3
		c0.3-0.1,0.7-0.3,0.9,0c0.2,0.3,0,1.2-0.3,1.5c-0.7,0.6-1.5,1-2.4,1.4c-1.2,0.5-2.5,0.9-3.9,0.8c-2.2-0.3-3.4-1.4-3.5-3.6
		C372.1,294.3,372.1,294.1,372,293.7z M372.1,287.7C372.1,287.7,372.1,287.7,372.1,287.7c0-1.3,0-2.6,0-3.9c0-0.4-0.1-0.6-0.6-0.6
		c-2.3,0-4.5,0.2-6.6,1.1c-3.1,1.2-4.4,3.5-3.8,6.8c0.3,1.9,1.6,3.4,3.5,3.7c2.8,0.5,5.2-0.3,7.2-2.3c0.3-0.3,0.4-0.7,0.4-1.2
		C372.1,290.1,372.1,288.9,372.1,287.7z"/>
	
		<linearGradient id="SVGID_00000123402380326587498500000009800264949984657035_" gradientUnits="userSpaceOnUse" x1="197.1956" y1="283.6867" x2="223.8044" y2="283.6867">
		<stop  offset="0" style="stop-color:#005B97"/>
		<stop  offset="1" style="stop-color:#0092C6"/>
	</linearGradient>
	<path style="fill:url(#SVGID_00000123402380326587498500000009800264949984657035_);" d="M210.3,298.4c-3.6,0-6.7-1.1-9.3-3.7
		c-2-2-3-4.5-3.5-7.3c-0.7-3.8-0.4-7.5,1.3-11.1c2.3-4.7,6.1-7.1,11.4-7.3c2.8-0.1,5.4,0.5,7.8,2.1c2.6,1.7,4.2,4.2,5,7.1
		c1.1,3.7,1.1,7.5-0.1,11.2C220.9,295.1,216.3,298.4,210.3,298.4z M218.4,284.2c0-1.6-0.2-3-0.4-4.5c-0.4-2.2-1-4.3-2.4-6
		c-2.4-3.2-6.6-3.7-9.5-1.2c-1.5,1.3-2.2,3-2.7,4.8c-0.8,2.7-0.8,5.5-0.6,8.3c0.2,2.1,0.6,4.2,1.6,6.1c1.7,3.7,4.6,5.1,8.2,4.3
		c2-0.4,3.3-1.9,4.2-3.7C218.1,289.9,218.3,287,218.4,284.2z"/>
	
		<linearGradient id="SVGID_00000027583808015619341200000004471315280155875512_" gradientUnits="userSpaceOnUse" x1="226.665" y1="283.6782" x2="253.3026" y2="283.6782">
		<stop  offset="0" style="stop-color:#005B97"/>
		<stop  offset="1" style="stop-color:#0092C6"/>
	</linearGradient>
	<path style="fill:url(#SVGID_00000027583808015619341200000004471315280155875512_);" d="M226.7,284.3c0-4,0.8-7.2,2.9-10.1
		c2.1-2.9,4.9-4.5,8.3-5c2.5-0.4,4.9-0.2,7.3,0.7c3.2,1.3,5.5,3.6,6.7,6.8c2,5.1,2,10.1-0.6,15c-2.3,4.3-6,6.5-11,6.7
		c-3.1,0.1-6-0.5-8.5-2.4c-2.9-2.2-4.3-5.2-4.9-8.6C226.7,286.1,226.6,285,226.7,284.3z M240.5,296.3c1.6,0.1,3.1-0.6,4.3-2
		c1.2-1.3,1.8-2.7,2.3-4.4c0.9-3.4,0.9-6.9,0.3-10.4c-0.4-2.2-1.1-4.3-2.6-6.2c-2.3-2.9-6.4-3.3-9.2-1c-1.6,1.3-2.3,3.2-2.8,5.1
		c-0.7,2.8-0.8,5.6-0.5,8.4c0.2,2.3,0.7,4.4,1.9,6.4C235.4,294.8,237.3,296.4,240.5,296.3z"/>
	
		<linearGradient id="SVGID_00000008116388298766828390000014292785161813567923_" gradientUnits="userSpaceOnUse" x1="434.7579" y1="283.6977" x2="455.1586" y2="283.6977">
		<stop  offset="0" style="stop-color:#005B97"/>
		<stop  offset="1" style="stop-color:#0092C6"/>
	</linearGradient>
	<path style="fill:url(#SVGID_00000008116388298766828390000014292785161813567923_);" d="M434.8,292.6c0-1,0-2.1,0-3.1
		c0-0.3,0-0.7,0.4-0.7c0.5,0,1.1-0.3,1.3,0.4c0.3,0.9,0.6,1.7,0.8,2.6c0.2,0.8,0.7,1.4,1.4,1.9c2,1.3,4.2,2,6.5,2.1
		c1.7,0.1,3.4-0.2,4.6-1.6c2.1-2.4,1.1-5.9-1.9-7.1c-1.4-0.5-2.9-0.9-4.3-1.3c-1.3-0.3-2.5-0.6-3.7-1.1c-2.8-1.2-4.4-3.4-4.7-6.4
		c-0.5-4.6,2.7-7.7,6.5-8.8c2.3-0.7,4.6-0.6,7-0.3c1.4,0.2,2.8,0.5,4.1,0.8c0.4,0.1,0.6,0.2,0.6,0.7c0.1,2.1,0.3,4.3,0.4,6.4
		c0,0.3,0.2,0.8-0.4,0.8c-0.8,0.1-1.2,0-1.4-0.5c-0.3-0.9-0.7-1.8-1-2.7c-0.3-0.8-0.8-1.4-1.5-1.8c-2.1-1.2-4.3-1.8-6.7-1.3
		c-1.7,0.4-2.9,1.3-3.2,3c-0.4,1.9,0,3.6,1.7,4.9c1,0.7,2.2,1,3.3,1.3c1.9,0.6,3.9,1,5.7,1.8c1.5,0.6,2.8,1.4,3.7,2.7
		c1.5,2.1,1.4,4.3,0.8,6.6c-0.9,3.2-3.3,5-6.4,5.8c-3.8,1-7.6,0.6-11.3-0.6c-0.5-0.2-1-0.4-1.5-0.5c-0.6-0.1-0.8-0.5-0.8-1.1
		C434.8,294.6,434.8,293.6,434.8,292.6z"/>
	
		<linearGradient id="SVGID_00000175306389469347819980000008829347168843773873_" gradientUnits="userSpaceOnUse" x1="335.3071" y1="280.1457" x2="354.4281" y2="280.1457">
		<stop  offset="0" style="stop-color:#005B97"/>
		<stop  offset="1" style="stop-color:#0092C6"/>
	</linearGradient>
	<path style="fill:url(#SVGID_00000175306389469347819980000008829347168843773873_);" d="M339.8,282.9c0-3.2,0-6.5,0-9.7
		c0-0.6-0.2-0.8-0.8-0.8c-1,0-2,0-3.1,0c-0.3,0-0.6,0-0.6-0.4c0-0.4-0.2-0.9,0.4-1.1c0.3-0.1,0.6-0.2,0.9-0.3
		c2.9-0.7,3.6-1.6,3.8-4.6c0-0.8,0.1-1.6,0.1-2.4c0-0.5,0.2-0.7,0.7-0.7c0.9-0.2,1.9-0.4,2.8-0.6c0.7-0.2,0.8-0.1,0.8,0.7
		c0,2,0,4.1,0,6.1c0,0.9,0,0.9,0.9,0.9c2.7,0,5.4,0,8,0c0.8,0,0.8,0,0.6,0.8c-0.6,1.6-0.6,1.6-2.3,1.6c-2.2,0-4.3,0-6.5,0
		c-0.6,0-0.7,0.2-0.7,0.7c0,6.2,0,12.5,0,18.7c0,1,0.5,1.6,1.2,2c1.7,1.1,3.6,1.3,5.6,0.9c0.6-0.1,1.3-0.3,1.9-0.6
		c0.4-0.2,0.6,0,0.6,0.4c0.1,0.7-0.1,1.2-0.8,1.6c-2.2,1.3-4.5,2.1-7.1,2c-1.4-0.1-2.8-0.4-4-1.2c-1.7-1-2.4-2.6-2.4-4.5
		C339.8,289.2,339.8,286,339.8,282.9z"/>
	
		<linearGradient id="SVGID_00000165203909765691482810000008816960706506290575_" gradientUnits="userSpaceOnUse" x1="381.747" y1="280.1562" x2="400.8371" y2="280.1562">
		<stop  offset="0" style="stop-color:#005B97"/>
		<stop  offset="1" style="stop-color:#0092C6"/>
	</linearGradient>
	<path style="fill:url(#SVGID_00000165203909765691482810000008816960706506290575_);" d="M386.2,283c0-3.3,0-6.5,0-9.8
		c0-0.6-0.2-0.9-0.8-0.8c-1,0.1-2,0-3,0c-0.3,0-0.7,0-0.6-0.4c0-0.4-0.3-1,0.4-1.2c0.6-0.2,1.2-0.3,1.8-0.5c1.9-0.6,2.7-1.6,2.8-3.6
		c0.1-1,0.1-2,0.1-2.9c0-0.6,0.2-0.9,0.8-1c0.9-0.2,1.8-0.3,2.7-0.6c0.5-0.1,0.7,0,0.7,0.6c0,2.1,0,4.2,0,6.3c0,0.8,0,0.8,0.9,0.8
		c2.7,0,5.4,0,8,0c0.9,0,0.9,0.1,0.6,0.8c-0.6,1.6-0.6,1.6-2.3,1.6c-2.2,0-4.3,0-6.5,0c-0.5,0-0.7,0.1-0.7,0.7c0,6.1,0,12.3,0,18.4
		c0,1.2,0.6,1.9,1.6,2.5c2.1,1.1,4.2,1.1,6.4,0.4c0.1,0,0.3-0.1,0.4-0.1c0.3,0,0.6-0.5,1,0c0.2,0.3,0.1,1.4-0.3,1.6
		c-3,1.9-6.2,2.9-9.8,1.9c-2.1-0.6-3.6-1.9-4.1-4.2c-0.1-0.4-0.1-0.8-0.1-1.3C386.2,289.2,386.2,286.1,386.2,283z"/>
	
		<linearGradient id="SVGID_00000081626740392395720750000010513425996126510768_" gradientUnits="userSpaceOnUse" x1="253.6434" y1="326.6284" x2="467.0833" y2="326.6284">
		<stop  offset="0" style="stop-color:#FF4102"/>
		<stop  offset="1" style="stop-color:#FF6C02"/>
	</linearGradient>
	<path style="fill:url(#SVGID_00000081626740392395720750000010513425996126510768_);" d="M422.8,334.5c-0.7,0-1.5,0-2.2,0
		c-0.4,0-0.6-0.2-0.6-0.6c0-0.4,0-0.9,0-1.3c0-0.2,0-0.4,0.1-0.5c0.6-0.2,0.5-0.8,0.5-1.2c0-0.9,0-1.9,0-2.8c0-0.4-0.1-0.7-0.6-0.7
		c-1.8,0-1.5-0.2-1.6,1.5c0,0.6,0,1.3,0,1.9c0,0.5-0.1,1,0.5,1.3c0.2,0.1,0.1,0.5,0.1,0.7c0,1.9,0.2,1.7-1.6,1.7c-1.1,0-2.3,0-3.4,0
		c-0.5,0-0.8-0.2-0.7-0.7c0-0.3,0-0.6,0-1c0-0.6,0-1,0.8-0.9c0.4,0,0.4-0.3,0.4-0.6c0-1,0-1.9,0-2.9c0-2.2,0-4.4,0-6.6
		c0-0.5-0.1-0.8-0.7-0.8c-0.4,0-0.5-0.2-0.5-0.5c0-0.5,0-1,0-1.5c0-0.4,0.2-0.5,0.5-0.5c1.6,0,3.1,0,4.7,0c0.4,0,0.5,0.2,0.5,0.6
		c0,0.5,0,1,0,1.5c0,0.1-0.1,0.4-0.1,0.4c-0.6,0.2-0.5,0.8-0.5,1.2c0,0.7,0,1.4,0,2.1c0,0.4,0.1,0.6,0.6,0.6c1.9,0,1.6,0.2,1.6-1.5
		c0-0.5,0-0.9,0-1.4c0-0.4,0.1-0.8-0.4-1c-0.1,0-0.1-0.2-0.2-0.4c-0.3-1.9-0.1-2.1,1.8-2.1c1.1,0,2.2,0,3.3,0c0.5,0,0.8,0.2,0.7,0.7
		c0,0.3,0,0.6,0,0.9c0.1,0.6-0.1,1-0.8,1c-0.4,0-0.4,0.3-0.4,0.6c0,1,0,2,0,2.9c0,2.2,0,4.4,0,6.6c0,0.5,0.1,0.8,0.7,0.8
		c0.4,0,0.6,0.2,0.6,0.6c0,2.3,0.3,1.9-1.8,2C423.5,334.6,423.2,334.6,422.8,334.5C422.8,334.5,422.8,334.5,422.8,334.5z M272,330.4
		c0,1.1,0,2.2,0,3.3c0,0,0,0,0,0.1c-0.1,0.6,0.2,0.8,0.8,0.8c0.6,0,1.3,0,1.9,0c2.1,0,1.8,0.3,1.8-1.9c0,0,0-0.1,0-0.1
		c0-0.3-0.1-0.6-0.5-0.5c-0.6,0-0.7-0.3-0.7-0.7c0-1.7,0-3.3,0-5c0-1.8-1-3-2.6-3.2c-0.7-0.1-1.3,0.1-2,0.4
		c-0.7,0.3-0.7,0.3-0.7-0.4c0-1.2,0-2.5,0-3.7c0-0.6-0.2-0.8-0.8-0.8c-0.7,0-1.3,0-2,0c-2.2,0-1.8-0.4-1.8,2c0,0.3,0.2,0.5,0.5,0.5
		c0.6,0,0.7,0.2,0.7,0.7c0,2.1,0,4.2,0,6.3c0,1.1,0,2.1,0,3.2c0,0.3,0,0.6-0.3,0.6c-0.9-0.1-0.8,0.5-0.8,1.1c0,0.3,0,0.6,0,0.9
		c0,0.5,0.2,0.6,0.6,0.6c1,0,2,0,3.1,0c2.2,0,1.8,0.4,1.8-2c0-0.3-0.1-0.6-0.5-0.6c-0.3,0-0.4-0.2-0.4-0.5c0-1.6,0-3.3,0-4.9
		c0-0.3,0.2-0.5,0.5-0.7c0.8-0.3,1.4,0,1.4,1C272,328,272,329.2,272,330.4C272,330.4,272,330.4,272,330.4z M332.6,329.8
		c-0.2-1-0.4-2-0.6-3c-0.1-0.4-0.4-0.9,0.3-1c0.1,0,0.1-0.3,0.1-0.4c0-0.5,0-1,0-1.5c0-0.3-0.1-0.5-0.5-0.5c-1.2,0-2.3,0-3.5,0
		c-0.2,0-0.4,0-0.5,0.2c-0.1,0.7-0.1,1.3,0,2c0,0.1,0.1,0.2,0.3,0.2c0.4,0,0.5,0.4,0.5,0.7c0.5,2.1,1,4.2,1.5,6.3
		c0.4,1.8,0.4,1.8,2.3,1.8c1,0,1,0,1.2-1c0.3-1.2,0.6-2.4,1-3.5c0.3,0.8,0.6,1.7,0.8,2.5c0.5,2,0.5,2,2.7,2c0.5,0,0.8-0.2,0.9-0.7
		c0.5-2.4,1.1-4.9,1.6-7.3c0.1-0.4,0.1-0.8,0.7-0.9c0.2,0,0.2-0.3,0.2-0.5c0-0.5,0-0.9,0-1.4c0-0.4-0.1-0.5-0.5-0.5
		c-0.9,0-1.7,0-2.6,0c-0.2,0-0.5,0-0.5,0.2c0,0.6,0,1.2-0.1,1.8c0,0.3,0.2,0.4,0.4,0.5c0.2,0.1,0.1,0.3,0.1,0.4
		c-0.2,1.2-0.4,2.3-0.6,3.5c-0.4-1.5-0.7-3-1-4.5c-0.4-2-0.4-2-2.4-1.9c-0.4,0-0.6,0.1-0.7,0.6c-0.1,0.5-0.2,1-0.3,1.4
		C333.2,326.9,332.9,328.4,332.6,329.8C332.6,329.8,332.6,329.8,332.6,329.8z M254.5,318.6c-0.8,0-0.8,0.1-0.8,0.8
		c0,1.1,0,2.3,0,3.4c0,2.1-0.3,1.8,1.9,1.8c0.4,0,0.6-0.2,0.6-0.6c0-0.7,0-1.4,0-2.1c0-0.4,0.1-0.7,0.6-0.7c0.6,0,0.5,0.4,0.5,0.7
		c0,2,0,4,0,6.1c0,1.1,0,2.3,0,3.4c0,0.3,0,0.5-0.3,0.6c-0.9,0.2-0.9,0.2-0.9,1.2c0,0.2,0,0.4,0,0.6c0,0.5,0.2,0.8,0.7,0.8
		c1.3,0,2.6,0,3.9,0c2.1,0,1.7,0.3,1.8-1.8c0-0.5-0.1-0.8-0.7-0.7c-0.4,0-0.6-0.2-0.6-0.6c0-3.2,0-6.4,0-9.6c0-0.4,0.1-0.6,0.6-0.6
		c0.5,0,0.7,0.2,0.6,0.6c0,0.4,0,0.7,0,1.1c0,2-0.4,1.7,1.8,1.7c0.5,0,0.7-0.2,0.7-0.7c0-1.5,0-3.1,0-4.6c0-0.6-0.2-0.8-0.7-0.7
		c-1.6,0-3.2,0-4.8,0S256.1,318.6,254.5,318.6z M383.1,334.6c1.8,0,1.5,0.2,1.6-1.6c0-0.9,0-1-0.9-1c-0.4,0-0.6-0.1-0.6-0.6
		c0-1,0-2.1,0-3.1c0-0.4,0.1-0.6,0.6-0.6c0.4,0,0.7,0,1.1,0c0.2,0,0.4-0.1,0.5-0.3c0-0.7,0.2-1.4-0.1-2c-0.3-0.5-0.9-0.2-1.4-0.2
		c-0.4,0-0.6-0.1-0.6-0.6c0-1,0-1.9,0-2.9c0-0.4,0.2-0.5,0.5-0.5c0.6,0,1.1,0,1.7,0c0.4,0,0.6,0.2,0.6,0.6c0,0.5,0,1,0,1.5
		c0,0.4,0.2,0.6,0.6,0.6c0.6,0,1.1,0,1.7,0c0.5,0,0.6-0.2,0.6-0.6c0-1.3,0-2.5,0-3.8c0-0.7-0.2-0.8-0.9-0.8c-2.8,0-5.5,0-8.3,0
		c-2,0-1.7-0.3-1.7,1.8c0,0.5,0.2,0.8,0.7,0.7c0.5-0.1,0.7,0.2,0.7,0.7c0,1.7,0,3.4,0,5c0,1.5,0,2.9,0,4.4c0,0.3,0,0.6-0.5,0.7
		c-0.9,0.1-0.9,0.1-0.9,1.1c0,0.2,0,0.3,0,0.5c0,1,0,1,1,1c0.8,0,1.6,0,2.4,0C381.8,334.6,382.5,334.6,383.1,334.6z M297.5,334
		c1.7,1.3,4.5,0.7,5.3-2c0.7-2.1,0.1-4-1.4-5.7c-0.8-0.9-1.8-1.7-2.7-2.6c-0.5-0.5-0.8-1-0.7-1.8c0-0.4,0.2-0.8,0.7-0.9
		c0.5-0.1,0.9,0,1.2,0.5c0.1,0.2,0.2,0.4,0.2,0.6c0.3,1.4,0.3,1.4,1.7,1.4c0.1,0,0.3,0,0.4,0c0.4,0,0.5-0.2,0.5-0.6
		c0-1.3,0-2.5,0-3.8c0-0.2,0-0.5-0.3-0.5c-0.7-0.1-1.3-0.1-2,0c-0.2,0-0.2,0.2-0.2,0.3c0,0.4-0.2,0.4-0.4,0.2
		c-1.5-1.3-4.6-0.8-5.2,2c-0.4,1.8,0.1,3.4,1.4,4.8c0.8,0.9,1.7,1.7,2.5,2.5c0.6,0.6,1.1,1.3,1.1,2.2c0,0.8-0.4,1.3-1,1.4
		c-0.6,0.1-1.2-0.4-1.3-1.2c-0.1-0.5,0.1-1.2-0.3-1.5c-0.4-0.3-1.1-0.1-1.6-0.1c0,0,0,0-0.1,0c-0.4,0-0.6,0.2-0.6,0.6c0,1,0,2,0,3
		c0,1.9-0.3,1.6,1.7,1.7c0.5,0,0.9-0.1,0.8-0.8C297.3,333.9,297.4,333.9,297.5,334z M350.7,325.9c-0.2-1.2-0.8-2-1.9-2.5
		c-1.5-0.6-3-0.5-4.5,0.2c-0.7,0.3-1.2,0.8-1.7,1.4c-0.3,0.4-0.3,0.7,0.3,0.8c0.6,0.1,1.2,0.2,1.7,0.4c0.4,0.1,0.7,0.1,0.9-0.3
		c0.2-0.4,0.6-0.4,1-0.4c0.4,0.1,0.6,0.4,0.7,0.8c0.1,0.4,0,0.8,0.1,1.1c0,0.4-0.1,0.5-0.5,0.3c-1-0.5-2-0.5-2.9,0.1
		c-1.3,0.7-2,2.3-1.8,4.1c0.4,2.4,2.6,3.6,4.6,2.5c0.3-0.2,0.6-0.5,0.7,0.2c0,0.2,0.3,0.2,0.5,0.2c1.1,0,2.2,0,3.3,0
		c0.4,0,0.7-0.1,0.6-0.5c-0.1-0.7,0.4-1.5-0.4-2c0,0,0,0-0.1,0c-0.5,0-0.5-0.3-0.5-0.7c0-0.8,0-1.5,0-2.5
		C350.7,328,350.8,327,350.7,325.9z M347,331.9c-0.5,0.4-1.1,0.2-1.4-0.4c-0.2-0.4-0.2-0.9,0-1.3c0.2-0.5,0.5-0.8,1-0.7
		c0.5,0.1,0.8,0.4,0.7,0.9c0,0.1,0,0.2,0,0.3C347.3,331.2,347.4,331.7,347,331.9z M434.9,324.7c-1.6-2.1-4.9-2.2-6.6-0.2
		c-1.8,2.2-2,6-0.3,8.4c1.9,2.6,5.6,2.5,7.3-0.3c0.7-1.1,1-2.4,0.9-3.6C436.2,327.4,435.8,326,434.9,324.7z M430.6,326.7
		c0.1-0.5,0.3-0.9,0.9-0.9c0.6,0,0.8,0.4,0.9,0.9c0.4,1.5,0.4,3.1,0,4.7c-0.1,0.4-0.3,0.8-0.9,0.8c-0.5,0-0.7-0.4-0.8-0.8
		c-0.3-0.8-0.2-1.6-0.2-2.3C430.4,328.2,430.4,327.4,430.6,326.7z M388.8,332.9c1.8,2.6,5.4,2.6,7.1,0.1c1.5-2.2,1.5-5.6,0.1-7.8
		c-1.7-2.6-5.2-2.7-7.1-0.2c-0.9,1.2-1.2,2.6-1.2,4.1C387.7,330.4,388,331.7,388.8,332.9z M391.5,326.7c0.1-0.5,0.3-0.9,0.9-0.9
		c0.6,0,0.8,0.4,0.9,0.9c0.4,1.5,0.4,3.1,0,4.6c-0.1,0.4-0.3,0.9-0.9,0.9c-0.6,0-0.8-0.4-0.9-0.9c-0.2-0.7-0.2-1.5-0.2-2.2
		C391.2,328.2,391.2,327.4,391.5,326.7z M312.8,325.4c-1.6-2.8-5.2-3.1-7.3-0.6c-1.7,2.2-1.7,6.2,0.1,8.4c1.9,2.3,5.3,2.1,6.9-0.3
		c0.8-1.2,1.1-2.5,1.1-4C313.7,327.7,313.5,326.5,312.8,325.4z M309.8,331.4c-0.1,0.4-0.3,0.7-0.8,0.7c-0.5,0-0.7-0.3-0.8-0.7
		c-0.4-1.6-0.4-3.2,0-4.8c0.1-0.4,0.4-0.7,0.8-0.8c0.5,0,0.7,0.3,0.9,0.7c0.3,0.8,0.3,1.7,0.3,2.5
		C310.2,329.8,310.1,330.6,309.8,331.4z M318,334.6c0.3,0,0.6,0,0.9,0c2.2,0,1.8,0.3,1.8-1.9c0-0.5-0.1-0.7-0.6-0.7
		c-0.4,0-0.6-0.2-0.6-0.6c0-1.7,0-3.3,0-5c0-0.2,0-0.5,0.3-0.5c0.9,0.1,0.9-0.5,0.8-1c0-0.3,0-0.5,0-0.8c0-0.5-0.1-0.7-0.6-0.7
		c-0.2,0-0.5,0-0.5-0.3c0-0.6,0-1.2,0-1.8c0-0.4,0.4-0.6,0.7-0.3c0.4,0.4,0.7,0.2,1.1,0c0.4-0.2,0.8-0.4,1.2-0.6
		c0.7-0.3,0.8-0.6,0.1-1.1c-1.2-1-2.6-1.1-4.1-0.6c-1.4,0.4-2.2,1.4-2.5,2.8c-0.1,0.5-0.1,0.9-0.1,1.4c0,0.3-0.1,0.5-0.4,0.5
		c-0.6,0-0.5,0.5-0.4,0.9c0.1,0.5-0.4,1.3,0.4,1.6c0.3,0.1,0.4,0.2,0.4,0.5c0,1.7,0,3.4,0,5.1c0,0.2,0,0.5-0.3,0.5
		c-0.6,0-0.6,0.4-0.6,0.8c0,0.3,0,0.7,0,1c0,0.5,0.2,0.7,0.7,0.7C316.6,334.5,317.3,334.6,318,334.6C318,334.6,318,334.6,318,334.6z
		 M367,329.5c0.6,0,1.3,0,1.9,0c0.3,0,0.5-0.1,0.5-0.5c0-1.2,0-2.4-0.5-3.5c-0.7-1.6-1.9-2.4-3.6-2.4c-1.7,0-3.1,0.7-3.7,2.4
		c-0.9,2.3-0.8,4.7,0.1,7.1c0.6,1.6,2,2.3,3.6,2.2c1.7,0,2.9-0.8,3.7-2.4c0.2-0.3,0.1-0.6-0.3-0.7c-0.5-0.2-1-0.3-1.5-0.6
		c-0.5-0.2-0.9-0.3-1.1,0.4c-0.1,0.4-0.5,0.7-0.9,0.6c-0.4,0-0.6-0.3-0.7-0.8c-0.1-0.5-0.1-1-0.1-1.5c0-0.4,0.2-0.5,0.5-0.5
		C365.7,329.5,366.3,329.5,367,329.5C367,329.5,367,329.5,367,329.5z M364.7,327.7C364.7,327.7,364.6,327.7,364.7,327.7
		c-0.4-0.5-0.2-1.1-0.1-1.6c0.1-0.4,0.3-0.6,0.7-0.6c0.4,0,0.5,0.3,0.6,0.6c0.1,0.3,0.1,0.5,0.1,0.6
		C366,327.7,365.4,328.1,364.7,327.7z M278.2,332.8c0.8,1.6,2.1,2.2,3.8,2.1c1.6-0.1,2.8-0.9,3.6-2.4c0.2-0.3,0-0.5-0.3-0.6
		c-0.5-0.2-1.1-0.4-1.6-0.6c-0.5-0.2-0.8-0.3-1,0.4c-0.1,0.5-0.4,0.7-0.9,0.7c-0.5,0-0.7-0.4-0.8-0.9c-0.1-0.4-0.1-0.8-0.1-1.3
		c-0.1-0.5,0.1-0.7,0.6-0.7c1.3,0,2.5,0,3.8,0c0.5,0,0.7-0.2,0.7-0.7c0-1-0.1-1.9-0.4-2.8c-0.5-1.7-2-2.9-3.7-2.9
		c-1.8-0.1-3.3,1-3.9,2.7c-0.4,1-0.5,2-0.5,3.2C277.5,330.2,277.6,331.5,278.2,332.8z M280.9,327c0-0.3,0.1-0.6,0.2-0.9
		c0.1-0.3,0.3-0.5,0.6-0.5c0.3,0,0.5,0.2,0.6,0.5c0.2,0.4,0.2,0.9,0.2,1.4c-0.1,0.6-0.5,0.3-0.8,0.4
		C280.8,327.8,280.8,327.8,280.9,327z M450.1,329.5c0.7,0,1.3,0,2,0c0.3,0,0.5-0.1,0.5-0.4c0.1-1.5,0-2.9-0.8-4.2
		c-0.8-1.3-2-1.9-3.4-1.8c-1.6,0.1-2.8,0.7-3.4,2.2c-1,2.4-1,4.9,0,7.3c0.7,1.6,2,2.2,3.7,2.2c1.7-0.1,2.9-0.9,3.6-2.4
		c0.2-0.4,0.1-0.5-0.3-0.7c-0.5-0.2-1-0.3-1.5-0.6c-0.5-0.2-0.9-0.3-1.1,0.5c-0.1,0.4-0.5,0.7-0.9,0.6c-0.5,0-0.6-0.4-0.7-0.8
		c-0.1-0.5-0.1-0.9-0.1-1.4c0-0.5,0.1-0.7,0.6-0.6C448.9,329.5,449.5,329.5,450.1,329.5C450.1,329.5,450.1,329.5,450.1,329.5z
		 M447.7,327c0-0.4,0.1-0.7,0.2-1.1c0.1-0.3,0.3-0.4,0.6-0.4c0.3,0,0.4,0.2,0.5,0.4c0.2,0.5,0.3,0.9,0.2,1.4c0,0.6-0.5,0.3-0.8,0.4
		C447.8,327.9,447.6,327.5,447.7,327z M458,319.4c0-0.6-0.2-0.8-0.7-0.7c-0.7,0-1.4,0-2,0c-2.2,0-1.8-0.4-1.9,2
		c0,0.4,0.1,0.6,0.5,0.6c0.5,0,0.6,0.2,0.6,0.7c0,1.4,0,2.9,0,4.3c0,1.7,0,3.4,0,5.1c0,0.3,0.1,0.7-0.4,0.7c-0.8,0-0.8,0.4-0.8,1
		c0,0.3,0,0.6,0,1c0,0.4,0.2,0.6,0.6,0.6c1.5,0,3,0,4.5,0c0.4,0,0.6-0.2,0.6-0.6c0-0.5,0-0.9,0-1.4c0-0.3-0.1-0.6-0.5-0.5
		c-0.6,0-0.7-0.3-0.7-0.8c0-2,0-3.9,0-5.9C458,323.3,458,321.4,458,319.4z M466.9,332.8c0.5-1.6,0-3.3-1.3-4.4
		c-0.7-0.5-1.4-1-2.1-1.5c-0.3-0.2-0.5-0.4-0.6-0.7c-0.1-0.4-0.1-0.8,0.4-0.9c0.4-0.1,0.8,0,0.9,0.4c0.2,0.6,0.6,0.7,1.1,0.7
		c0.3,0,0.7,0,1,0c0.4,0,0.6-0.2,0.6-0.6c0-0.6,0-1.2,0-1.8c0-0.4-0.2-0.5-0.5-0.5c-0.4,0-0.9,0-1.3,0c-0.4,0-0.7,0-0.7,0.5
		c-2.1-1.7-4.1-0.1-4.3,1.8c-0.2,1.5,0.3,2.8,1.5,3.7c0.6,0.5,1.3,1,1.9,1.4c0.2,0.2,0.5,0.4,0.6,0.7c0.1,0.3,0.1,0.7-0.2,0.9
		c-0.4,0.2-0.9,0.1-1-0.3c-0.2-0.8-0.7-0.8-1.3-0.8c-1.6,0-1.4-0.1-1.4,1.4c0,2-0.4,1.8,1.8,1.8c0.4,0,0.7-0.1,0.6-0.6
		C464.3,335.3,466.3,334.7,466.9,332.8z M402.9,324.2c0.1-0.6-0.2-0.9-0.8-0.8c-0.7,0-1.4,0-2.1,0c-2,0-1.7-0.3-1.7,1.8
		c0,0.5,0.2,0.8,0.7,0.7c0.3,0,0.5,0.1,0.5,0.5c0,1.7,0,3.4,0,5.2c0,0.2-0.1,0.5-0.3,0.4c-0.8-0.1-0.8,0.5-0.8,1.1c0,0.3,0,0.7,0,1
		c0,0.4,0.2,0.5,0.5,0.5c1.6,0,3.2,0,4.8,0c0.4,0,0.6-0.2,0.5-0.5c0-0.4,0-0.9,0-1.3c0-0.5-0.2-0.7-0.7-0.7c-0.5,0-0.6-0.2-0.6-0.6
		c0-0.7,0-1.4,0-2c0.1-1.3,0.7-2,1.9-2.2c0.4-0.1,0.5-0.3,0.5-0.6c0-0.9,0-1.7,0-2.6c0-0.5-0.2-0.6-0.7-0.5
		c-0.9,0.2-1.3,0.8-1.8,1.5C402.9,324.6,402.8,324.4,402.9,324.2z M357.3,324.1c0-0.5-0.2-0.7-0.7-0.7c-0.7,0-1.4,0-2,0
		c-2.1,0-1.7-0.4-1.8,1.8c0,0.4,0.1,0.7,0.6,0.7c0.3,0,0.5,0.1,0.5,0.4c0,1.7,0,3.4,0,5.2c0,0.2-0.1,0.5-0.3,0.4
		c-0.8-0.1-0.9,0.4-0.8,1c0,0.3,0,0.6,0,0.8c0,0.5,0.2,0.7,0.7,0.7c1.1,0,2.2,0,3.3,0c2.1,0,1.7,0.3,1.8-1.8c0-0.6-0.2-0.8-0.7-0.7
		c-0.4,0-0.6-0.1-0.5-0.5c0-0.8,0-1.7,0.1-2.5c0.2-1,0.7-1.8,1.8-1.9c0.4-0.1,0.5-0.3,0.5-0.6c0-0.8,0-1.5,0-2.3
		c0-1-0.3-1.1-1.2-0.7c-0.2,0.1-0.4,0.2-0.6,0.4c-0.3,0.3-0.5,0.8-0.8,1.2C357.3,324.7,357.3,324.4,357.3,324.1z M322.5,329.4
		c0,0.9,0,1.8,0,2.7c0,2,1.3,3,3.2,2.7c1.5-0.2,1.5-0.2,1.5-1.7c0-0.2,0-0.5,0-0.7c0-0.3-0.1-0.4-0.4-0.4c-0.7,0.1-0.9-0.4-0.9-0.9
		c0-1.5,0-3.1,0-4.6c0-0.3,0.1-0.4,0.5-0.5c0.9-0.1,0.9-0.1,0.9-1c0-0.2,0-0.5,0-0.7c0-0.5-0.1-0.9-0.7-0.8
		c-0.5,0.1-0.7-0.2-0.6-0.7c0-0.9,0-1.8,0-2.7c0-0.1,0-0.3-0.1-0.4c-0.2-0.1-0.3,0.1-0.4,0.2c-0.8,0.6-1.5,1.2-2.3,1.8
		c-0.4,0.3-0.6,0.7-0.6,1.2c0.1,0.4-0.1,0.7-0.6,0.7c-0.4,0-0.5,0.3-0.4,0.6c0.1,0.6-0.4,1.4,0.4,1.8c0,0,0.1,0,0.1,0
		c0.4,0,0.5,0.2,0.5,0.6C322.5,327.5,322.5,328.4,322.5,329.4C322.5,329.4,322.5,329.4,322.5,329.4z M438.3,329.4c0,1,0,1.9,0,2.9
		c0.1,1.4,0.9,2.4,2.1,2.5c0.7,0.1,1.4,0,2.1-0.2c0.3-0.1,0.4-0.2,0.4-0.5c0-0.6,0-1.1,0-1.7c0-0.3-0.1-0.4-0.4-0.4
		c-0.7,0.1-0.9-0.4-0.9-0.9c0-1.5,0-3.1,0-4.6c0-0.3,0.1-0.4,0.4-0.5c1-0.1,1-0.2,1-1.1c0-0.2,0-0.4,0-0.6c0-0.6-0.1-0.9-0.8-0.8
		c-0.5,0.1-0.6-0.2-0.6-0.6c0-0.9,0-1.8,0-2.7c0-0.2,0.1-0.4-0.1-0.5c-0.2-0.1-0.3,0.1-0.5,0.2c-0.7,0.5-1.3,1.1-2.1,1.6
		c-0.5,0.4-0.8,0.8-0.7,1.4c0,0.2,0,0.5-0.3,0.5c-0.7,0-0.7,0.4-0.7,0.9c0,0.4,0,0.7,0,1.1c0,0.3,0.1,0.5,0.4,0.5
		c0.5,0,0.6,0.3,0.6,0.7C438.3,327.5,438.3,328.4,438.3,329.4C438.3,329.4,438.3,329.4,438.3,329.4z"/>
	<path d="M88.8,289.1C88.8,289.1,88.8,289.1,88.8,289.1L88.8,289.1L88.8,289.1z"/>
	<path d="M83.5,276.3"/>
	<path class="st17" d="M97.6,305.5c-2.4,2.4-5.3,5.3-5.3,5.3l-3.8-3.8c2-2,3.9-4,5.9-6c1.8-1.9,1.8-4.6,0-6.4
		c-1.8-1.8-3.7-3.6-5.5-5.4l3.2-4.5c0,0,1.3,1.3,2.3,2.2c2.3,2.3,4.6,4.5,6.9,6.8c2.2,2.2,2.1,5.9,0,8.2
		C100,303.1,98.8,304.3,97.6,305.5z"/>
	
		<linearGradient id="SVGID_00000140697573264094380960000015023130346880956569_" gradientUnits="userSpaceOnUse" x1="35.6378" y1="297.6378" x2="131.196" y2="297.6378">
		<stop  offset="0" style="stop-color:#FF4102"/>
		<stop  offset="1" style="stop-color:#FF6C02"/>
	</linearGradient>
	<path style="fill:url(#SVGID_00000140697573264094380960000015023130346880956569_);" d="M79.5,280c-0.2-0.2-0.3-0.3-0.2-0.2
		C79.4,279.9,79.5,279.9,79.5,280z M85.6,309c-2.1-2.1-4.2-4.1-6.3-6.2c-1.4-1.4-2.1-3.1-2.1-5.5c0.1-1.4,0.7-3.1,2-4.4
		c2.1-2.1,4.1-4.2,6.2-6.3c0.3-0.3,0.5-0.4,0.9-0.1c0,0-5.6-5.5-6.8-6.6c0.2,0.2,0.2,0.5-0.2,0.8c-3.4,3.4-6.7,6.8-10.1,10.2
		c-1.6,1.7-2.7,3.6-2.9,6c-0.3,3.1,0.7,5.7,2.9,7.8c3.1,3.1,6.2,6.1,9.4,9.2c0.4,0.4,0.8,0.8,1.3,1.2c0.2,0.2,0.3,0.3,0.1,0.6
		l6.5-6.6C86.1,309.4,85.9,309.3,85.6,309z M130.9,326.7c-3.4,3.5-6.9,6.9-10.3,10.4c-1,1-1.9,2-2.9,2.9c-1.6,1.4-3.5,2.2-5.6,2.3
		c-0.1,0-0.2,0.1-0.4,0.1c-0.2,0-0.4,0-0.6,0c-0.2,0-0.3-0.1-0.5-0.1c-2.1-0.2-4-1-5.6-2.4c-1.1-1-2.1-2-3.2-3.1
		c-4-3.9-7.9-7.8-11.8-11.7c-0.4-0.4-0.6-0.3-0.9,0c-2.9,2.9-5.8,5.8-8.6,8.8c-3.3,3.3-8.4,3.4-11.7,0.2c-4.8-4.7-9.6-9.4-14.4-14.2
		c-4.2-4.1-8.3-8.2-12.4-12.2c-0.9-0.9-1.7-1.7-2.7-2.6c-1.8-1.6-3.2-3.6-3.6-6.1c0-0.6,0-1.3,0-1.9c0.2-0.8,0.4-1.6,0.7-2.3
		c0.6-1.4,1.6-2.4,2.6-3.5c4.8-4.9,9.7-9.8,14.6-14.7c4.9-4.9,9.7-9.9,14.5-14.8c3.4-3.4,8.4-3.5,11.9-0.1c2.9,2.8,5.8,5.7,8.6,8.5
		c0.4,0.4,0.6,0.5,1.1,0c3-3.1,6.1-6.1,9.1-9.2c1.7-1.8,3.4-3.5,5.2-5.3c4-4,9.9-4,13.9,0c1.7,1.7,3.4,3.4,5.2,5.1
		c2.5,2.4,4.9,4.9,7.4,7.3c0.4,0.4,0.4,0.6,0,1c-1.7,1.6-3.3,3.3-4.9,5c-0.4,0.4-0.6,0.4-1,0c-2.2-2.2-4.5-4.4-6.8-6.7
		c-0.7-0.7-1.4-1.4-2.2-2.1c-2.6-2.4-6.9-2.3-9.5,0.2c-3.5,3.5-7,7.1-10.5,10.6c-0.3,0.3-0.2,0.5,0,0.8c3.9,3.8,7.8,7.7,11.7,11.5
		c1.1,1.1,2.2,2.1,3.3,3.2c3.2,3.2,3.2,8.4,0,11.6c-2.8,2.9-5.6,5.7-8.5,8.6c-2,2.1-4,4.1-6.1,6.2c-0.4,0.4-0.4,0.6,0,1
		c3.5,3.4,6.9,6.8,10.4,10.2c2.8,2.7,7.2,2.7,9.9-0.1c2.8-2.8,5.6-5.6,8.3-8.4c0.6-0.6,0.6-0.6,1.3,0c1.6,1.6,3.3,3.2,4.9,4.8
		C131.3,326.1,131.3,326.3,130.9,326.7z M90.9,313c3.6-3.6,7.2-7.3,10.8-10.9c1.2-1.2,1.8-2.6,1.7-4.2c0-1.7-0.4-3-1.5-4.1
		c-3.8-3.8-7.7-7.6-11.6-11.4c-0.1-0.1-0.3-0.4-0.5-0.2c-0.1,0.1-0.1,0.2-0.1,0.3l-6.3-6.2c0.1,0,0.2,0,0.3-0.1
		c0.2-0.2-0.1-0.4-0.2-0.6c-1.7-1.7-3.5-3.5-5.2-5.1c-2.6-2.4-6.1-2.3-8.6,0.2c-4.3,4.4-8.6,8.8-13,13.2c-3.3,3.3-6.6,6.7-9.9,10
		c-1.2,1.2-1.7,2.6-1.7,4.3c0,2,1,3.4,2.3,4.8c4.8,4.7,9.6,9.4,14.4,14.1c2.8,2.7,5.5,5.5,8.3,8.2c1.2,1.2,2.6,1.8,4.2,1.7
		c1.8,0,3.2-0.6,4.4-1.8c1.7-1.7,3.4-3.5,5.1-5.2c0.1-0.1,0.4-0.3,0.2-0.5c-0.2-0.2-0.3-0.1-0.3-0.1c1.3-1.3,6.2-6.4,6.2-6.4
		c0,0.1,0,0.2,0.1,0.2C90.5,313.7,90.7,313.2,90.9,313z"/>
	<path d="M90,282.7l-0.2-0.2C89.8,282.6,89.9,282.6,90,282.7z"/>
	
		<linearGradient id="SVGID_00000132791734834941699660000016572711061948391301_" gradientUnits="userSpaceOnUse" x1="45.8281" y1="297.9522" x2="102.7544" y2="297.9522">
		<stop  offset="0" style="stop-color:#005B97"/>
		<stop  offset="1" style="stop-color:#0092C6"/>
	</linearGradient>
	<path style="fill:url(#SVGID_00000132791734834941699660000016572711061948391301_);" d="M101.2,293.7c-2.3-2.3-4.6-4.5-6.9-6.8
		c-1-1-2.3-2.2-2.3-2.2l-8.5-8.4c-0.1,0-0.2-0.2-0.3-0.3l-1.5-1.5c0,0-1.6-1.6-3.1-3.1c-2.7-2.7-6.4-2.6-9.1,0.1
		c-2.7,2.8-5.4,5.5-8.1,8.2c-4.6,4.7-9.2,9.4-13.8,14c-2.4,2.4-2.4,6.2,0.1,8.6c5,4.9,9.9,9.8,14.9,14.7c2.5,2.4,4.9,4.8,7.4,7.2
		c2.5,2.4,5.8,2.7,8.3,0.7c0.9-0.7,1.7-1.6,2.5-2.4c0.7-0.7,1.5-1.5,1.5-1.5l7.9-8c0.1-0.1,0.2-0.3,0.4-0.4l1.9-1.9
		c0,0,2.9-3,5.3-5.3c1.2-1.2,2.4-2.4,3.5-3.6C103.3,299.6,103.3,295.9,101.2,293.7z M94.4,301c-2,2-3.9,4-5.9,6
		c-0.7,0.7-1.3,1.4-2,2.1c0,0-0.1,0.1-0.1,0.1l-6.5,6.6c0,0,0,0-0.1,0.1c0,0-0.1,0.1-0.1,0.1l-1.1,1.1c0,0-0.1,0.1-0.1,0.1l-0.1,0.1
		c-0.4,0.4-0.7,0.7-1.1,1c-1.7,1.5-4.3,1.4-6-0.2c-3.5-3.4-7-6.9-10.5-10.3c-2.2-2.2-4.4-4.4-6.6-6.5c-0.9-0.9-1.3-1.9-1.3-3.2
		c0-1.3,0.5-2.3,1.4-3.2c2.5-2.5,4.9-5,7.4-7.5c3.1-3.1,6.2-6.3,9.3-9.4c1.9-1.9,4.6-1.9,6.5,0l11.3,11.1c0,0,0.1,0.1,0.1,0.1
		c1.9,1.8,3.7,3.6,5.5,5.4C96.2,296.4,96.2,299.1,94.4,301z"/>
</g>
</svg>
