<?xml version="1.0" encoding="utf-8"?>
<!-- Generator: Adobe Illustrator 26.3.1, SVG Export Plug-In . SVG Version: 6.00 Build 0)  -->
<svg version="1.1" id="Layer_1" xmlns="http://www.w3.org/2000/svg" xmlns:xlink="http://www.w3.org/1999/xlink" x="0px" y="0px"
	 viewBox="0 0 595.3 595.3" style="enable-background:new 0 0 595.3 595.3;" xml:space="preserve">
<style type="text/css">
	.st0{fill:#FFFFFF;}
	.st1{fill:#0092C6;}
	.st2{fill:url(#SVGID_1_);}
	.st3{fill:url(#SVGID_00000137841141225104943770000011911486429740574592_);}
</style>
<path class="st0" d="M297.6,595.3L297.6,595.3C133.3,595.3,0,462,0,297.6l0,0C0,133.3,133.3,0,297.6,0l0,0
	C462,0,595.3,133.3,595.3,297.6l0,0C595.3,462,462,595.3,297.6,595.3z"/>
<g>
	<path class="st1" d="M506.6,296.8c-0.3,8.7-3.1,16.3-9,22.6c-13.2,13.6-26.4,26.8-39.6,40.3c-1.4,1.4-2.4,1.7-4.2,0
		c-5.6-5.6-11.5-11.1-17-16.7c-1.4-1.4-1.4-2.4,0-3.8c8-8,16-16,24-24c10.8-10.8,10.8-25.7,0-36.5c-8-8-16.3-16-24.3-24
		c-1.4-1.4-1.4-2.4,0-3.8c5.9-5.9,11.5-11.8,17.4-17.4c1-1,1.7-1,2.8,0c8,8,16.3,16,24.3,24c5.6,5.2,11.1,10.8,16.3,16
		C503.5,280.1,506.3,288.1,506.6,296.8z"/>
	
		<linearGradient id="SVGID_1_" gradientUnits="userSpaceOnUse" x1="88.6548" y1="297.6256" x2="420.4362" y2="297.6256" gradientTransform="matrix(1 0 0 -1 0 595.2756)">
		<stop  offset="0" style="stop-color:#FF4102"/>
		<stop  offset="1" style="stop-color:#FF6C02"/>
	</linearGradient>
	<path class="st2" d="M240.8,236.7c-0.7-0.7-1-1-0.7-0.7C240.5,236.3,240.8,236.3,240.8,236.7z M262,337.4
		c-7.3-7.3-14.6-14.2-21.9-21.5c-4.9-4.9-7.3-10.8-7.3-19.1c0.3-4.9,2.4-10.8,6.9-15.3c7.3-7.3,14.2-14.6,21.5-21.9
		c1-1,1.7-1.4,3.1-0.3c0,0-19.5-19.1-23.6-22.9c0.7,0.7,0.7,1.7-0.7,2.8c-11.8,11.8-23.3,23.6-35.1,35.4
		c-5.6,5.9-9.4,12.5-10.1,20.8c-1,10.8,2.4,19.8,10.1,27.1c10.8,10.8,21.5,21.2,32.7,32c1.4,1.4,2.8,2.8,4.5,4.2
		c0.7,0.7,1,1,0.3,2.1l22.6-22.9C263.8,338.8,263.1,338.5,262,337.4z M419.4,398.9c-11.8,12.2-24,24-35.8,36.1
		c-3.5,3.5-6.6,6.9-10.1,10.1c-5.6,4.9-12.2,7.6-19.5,8c-0.3,0-0.7,0.3-1.4,0.3s-1.4,0-2.1,0c-0.7,0-1-0.3-1.7-0.3
		c-7.3-0.7-13.9-3.5-19.5-8.3c-3.8-3.5-7.3-6.9-11.1-10.8c-13.9-13.6-27.4-27.1-41-40.7c-1.4-1.4-2.1-1-3.1,0
		c-10.1,10.1-20.2,20.2-29.9,30.6c-11.5,11.5-29.2,11.8-40.7,0.7c-16.7-16.3-33.4-32.7-50-49.3c-14.6-14.2-28.8-28.5-43.1-42.4
		c-3.1-3.1-5.9-5.9-9.4-9c-6.3-5.6-11.1-12.5-12.5-21.2c0-2.1,0-4.5,0-6.6c0.7-2.8,1.4-5.6,2.4-8c2.1-4.9,5.6-8.3,9-12.2
		c16.7-17,33.7-34.1,50.7-51.1c17-17,33.7-34.4,50.4-51.4c11.8-11.8,29.2-12.2,41.3-0.3c10.1,9.7,20.2,19.8,29.9,29.5
		c1.4,1.4,2.1,1.7,3.8,0c10.4-10.8,21.2-21.2,31.6-32c5.9-6.3,11.8-12.2,18.1-18.4c13.9-13.9,34.4-13.9,48.3,0
		c5.9,5.9,11.8,11.8,18.1,17.7c8.7,8.3,17,17,25.7,25.4c1.4,1.4,1.4,2.1,0,3.5c-5.9,5.6-11.5,11.5-17,17.4c-1.4,1.4-2.1,1.4-3.5,0
		c-7.6-7.6-15.6-15.3-23.6-23.3c-2.4-2.4-4.9-4.9-7.6-7.3c-9-8.3-24-8-33,0.7c-12.2,12.2-24.3,24.7-36.5,36.8c-1,1-0.7,1.7,0,2.8
		c13.6,13.2,27.1,26.8,40.7,40c3.8,3.8,7.6,7.3,11.5,11.1c11.1,11.1,11.1,29.2,0,40.3c-9.7,10.1-19.5,19.8-29.5,29.9
		c-6.9,7.3-13.9,14.2-21.2,21.5c-1.4,1.4-1.4,2.1,0,3.5c12.2,11.8,24,23.6,36.1,35.4c9.7,9.4,25,9.4,34.4-0.3
		c9.7-9.7,19.5-19.5,28.8-29.2c2.1-2.1,2.1-2.1,4.5,0c5.6,5.6,11.5,11.1,17,16.7C420.8,396.8,420.8,397.5,419.4,398.9z M280.5,351.3
		c12.5-12.5,25-25.4,37.5-37.9c4.2-4.2,6.3-9,5.9-14.6c0-5.9-1.4-10.4-5.2-14.2c-13.2-13.2-26.8-26.4-40.3-39.6
		c-0.3-0.3-1-1.4-1.7-0.7c-0.3,0.3-0.3,0.7-0.3,1l-21.9-21.5c0.3,0,0.7,0,1-0.3c0.7-0.7-0.3-1.4-0.7-2.1
		c-5.9-5.9-12.2-12.2-18.1-17.7c-9-8.3-21.2-8-29.9,0.7c-14.9,15.3-29.9,30.6-45.2,45.9c-11.5,11.5-22.9,23.3-34.4,34.7
		c-4.2,4.2-5.9,9-5.9,14.9c0,6.9,3.5,11.8,8,16.7c16.7,16.3,33.4,32.7,50,49c9.7,9.4,19.1,19.1,28.8,28.5c4.2,4.2,9,6.3,14.6,5.9
		c6.3,0,11.1-2.1,15.3-6.3c5.9-5.9,11.8-12.2,17.7-18.1c0.3-0.3,1.4-1,0.7-1.7c-0.7-0.7-1-0.3-1-0.3c4.5-4.5,21.5-22.2,21.5-22.2
		c0,0.3,0,0.7,0.3,0.7C279.1,353.8,279.8,352,280.5,351.3z"/>
	
		<linearGradient id="SVGID_00000013159416435577979040000008545731499971191217_" gradientUnits="userSpaceOnUse" x1="123.7907" y1="296.6775" x2="321.7556" y2="296.6775" gradientTransform="matrix(1 0 0 -1 0 595.2756)">
		<stop  offset="0" style="stop-color:#005B97"/>
		<stop  offset="1" style="stop-color:#0092C6"/>
	</linearGradient>
	<path style="fill:url(#SVGID_00000013159416435577979040000008545731499971191217_);" d="M316.2,284.3c-8-8-16-15.6-24-23.6
		c-3.5-3.5-8-7.6-8-7.6l-29.5-29.2c-0.3,0-0.7-0.7-1-1l-5.2-5.2c0,0-5.6-5.6-10.8-10.8c-9.4-9.4-22.2-9-31.6,0.3
		c-9.4,9.7-18.8,19.1-28.1,28.5c-16,16.3-32,32.7-47.9,48.6c-8.3,8.3-8.3,21.5,0.3,29.9c17.4,17,34.4,34.1,51.8,51.1
		c8.7,8.3,17,16.7,25.7,25c8.7,8.3,20.2,9.4,28.8,2.4c3.1-2.4,5.9-5.6,8.7-8.3c2.4-2.4,5.2-5.2,5.2-5.2l27.4-27.8
		c0.3-0.3,0.7-1,1.4-1.4l6.6-6.6c0,0,10.1-10.4,18.4-18.4c4.2-4.2,8.3-8.3,12.2-12.5C323.5,304.8,323.5,291.9,316.2,284.3z
		 M292.6,309.6c-6.9,6.9-13.6,13.9-20.5,20.8c-2.4,2.4-4.5,4.9-6.9,7.3l-0.3,0.3l-22.6,22.9c0,0,0,0-0.3,0.3l-0.3,0.3l-3.8,3.8
		l-0.3,0.3l-0.3,0.3c-1.4,1.4-2.4,2.4-3.8,3.5c-5.9,5.2-14.9,4.9-20.8-0.7c-12.2-11.8-24.3-24-36.5-35.8
		c-7.6-7.6-15.3-15.3-22.9-22.6c-3.1-3.1-4.5-6.6-4.5-11.1c0-4.5,1.7-8,4.9-11.1c8.7-8.7,17-17.4,25.7-26.1
		c10.8-10.8,21.5-21.9,32.3-32.7c6.6-6.6,16-6.6,22.6,0l39.3,38.6l0.3,0.3c6.6,6.3,12.9,12.5,19.1,18.8
		C298.9,293.7,298.9,303,292.6,309.6z"/>
</g>
</svg>
