<?xml version="1.0" encoding="utf-8"?>
<!-- Generator: Adobe Illustrator 26.3.1, SVG Export Plug-In . SVG Version: 6.00 Build 0)  -->
<svg version="1.1" id="Layer_1" xmlns="http://www.w3.org/2000/svg" xmlns:xlink="http://www.w3.org/1999/xlink" x="0px" y="0px"
	 viewBox="0 0 595.3 595.3" style="enable-background:new 0 0 595.3 595.3;" xml:space="preserve">
<style type="text/css">
	.st0{fill:#FFFFFF;}
	.st1{fill:#F48220;}
</style>
<path class="st0" d="M298,595.3L298,595.3C133.6,595.3,0.4,462,0.4,297.6v0C0.4,133.3,133.6,0,298,0h0
	c164.4,0,297.6,133.3,297.6,297.6v0C595.7,462,462.4,595.3,298,595.3z"/>
<g id="CmKUjk_00000095324555587234275570000014916682878351486387_">
	<g>
		<path class="st1" d="M35.6,196.5c5.6,0,11.3,0.1,16.9,0c1.7,0,2.3,0.5,2.2,2.3c-0.1,21.1,0,42.1,0,63.2c0,0.5,0,1.1,0,1.6
			c0,0.5-0.2,1.2,0.5,1.4c0.6,0.2,0.7-0.5,1.1-0.8c5.9-6,11.7-12.1,17.6-18.1c4.9-5.1,9.9-10.1,14.8-15.2
			c7.3-7.4,14.6-14.8,21.8-22.3c3.6-3.7,7.2-7.3,10.7-11c0.7-0.8,1.5-1.1,2.5-1.1c5.8,0,11.6,0,17.4,0c0.6,0,1.4-0.2,1.6,0.5
			c0.2,0.5-0.2,1-0.7,1.4c-3.3,2.7-6,6-9,9c-4.6,4.6-9.2,9.2-13.7,13.8c-14.3,14.3-28.6,28.7-42.9,43c-1.2,1.2-0.9,1.8,0.1,2.7
			c4.6,4.3,9.1,8.7,13.6,13.1c5,4.9,10,9.9,15.1,14.7c13.6,12.9,26.9,26,40.5,38.9c2.6,2.5,5,5.2,7.5,7.8c-0.3,0.2-0.8,0-1.4,0
			c-7.1,0-14.3,0-21.4,0c-1,0-1.8-0.2-2.6-0.9c-10.9-10.6-21.8-21.3-32.7-31.9c-7.1-6.9-14.2-13.8-21.4-20.7
			c-5.8-5.6-11.6-11.3-17.4-16.9c-0.4-0.4-0.7-1.2-1.4-0.8c-0.5,0.3-0.2,1-0.2,1.5c0,22.5,0,44.9,0,67.4c0,2.3,0,2.3-2.4,2.3
			c-5.6,0.1-11.1-0.2-16.7,0.2C35.6,293.4,35.6,244.9,35.6,196.5z"/>
		<path class="st1" d="M248.7,324c0-20.6,0-41.2,0-61.8c0-2.8,0-2.8,2.9-2.8c3.6,0,7.1,0,10.7,0c1.3,0,1.8,0.4,1.8,1.8
			c0.1,3.1,0.4,6.3,0.7,9.4c0,0.5-0.1,1.1,0.4,1.3c0.6,0.3,0.8-0.4,1-0.8c7.1-9.3,16.8-13.8,28.3-14.7c12.2-0.9,22.6,3.2,31,12.1
			c6.6,7,10.1,15.5,11.3,25c1.1,9.1,0.3,18-3.4,26.5c-1.9,4.4-4.5,8.3-7.7,11.9c-6.2,6.9-13.9,11.2-23,12.3
			c-13.9,1.6-26-2.3-35.3-13.2c-0.3-0.3-0.5-1-1.1-0.8c-0.7,0.3-0.3,1.1-0.3,1.6c0,18,0,36.1,0,54.1c0,3.2,0.2,2.8-2.8,2.8
			c-4,0-8,0-12,0c-2.3,0-2.4,0-2.4-2.4C248.7,365.7,248.7,344.9,248.7,324C248.7,324,248.7,324,248.7,324z M293,269.4
			c-9.4,0-18.5,5-23.3,13.1c-5.8,9.9-6.2,20.4-2.4,31.1c2.2,6.3,6.3,11.2,12.2,14.6c14,7.9,31.1,2.3,37.6-12.5
			c3.4-7.9,3.9-16.1,2-24.3C316.2,278.1,305.6,269.2,293,269.4z"/>
		<path class="st1" d="M430.9,300.5c0,13.1,0,26.2,0,39.2c0,1.5-0.4,2-1.9,1.9c-3.9-0.1-7.9-0.1-11.8,0c-1.3,0-1.7-0.4-1.7-1.7
			c-0.2-3.3-0.4-6.5-0.7-9.8c0-0.5,0.1-1.1-0.5-1.2c-0.5-0.1-0.6,0.5-0.9,0.8c-7.5,9.5-17.5,14.2-29.4,14.8
			c-11.5,0.6-21.2-3.4-29.3-11.5c-6.2-6.3-9.9-13.9-11.4-22.5c-2-11.3-1.2-22.4,4.3-32.7c6.7-12.6,16.9-20.1,31.3-21.5
			c9.7-0.9,18.5,1.8,26.4,7.1c3,2,5.7,4.5,7.8,7.4c0.3,0.4,0.5,1.2,1.1,0.9c0.6-0.2,0.4-1,0.4-1.5c0.3-3.1,0.5-6.1,0.7-9.2
			c0.1-1.3,0.5-1.8,1.8-1.8c3.9,0.1,7.8,0.1,11.6,0c1.6-0.1,2,0.5,2,2.1C430.8,274.5,430.9,287.5,430.9,300.5z M383.6,269.4
			c-6.7,0.4-14.3,4.3-19.2,12.6c-5.4,9.1-6.2,19-3.5,29.1c3.1,11.4,10.5,18.9,22.4,20.4c10.9,1.4,20-3,26.2-12.3
			c5.7-8.5,6.3-18,4.2-27.7C410.9,279,399.8,269.2,383.6,269.4z"/>
		<path class="st1" d="M559.5,300.6c0,13,0,25.9,0,38.9c0,1.8-0.5,2.3-2.3,2.2c-3.7-0.1-7.4-0.1-11.1,0c-1.4,0-2.1-0.2-2.1-1.8
			c-0.2-3.6-0.6-7.2-1-10.8c0-0.4,0.1-0.9-0.4-1.1c-0.5-0.2-0.7,0.4-0.9,0.7c-9.5,12.1-22.1,17.2-37.2,15.9
			c-11.7-1-20-7.3-23.8-19.2c-1.6-5.1-2.3-10.3-2.4-15.6c-0.1-16,0-32,0-48c0-2.4,0-2.4,2.4-2.4c4.2,0,8.5,0.1,12.7,0
			c1.6,0,2.1,0.5,2.1,2.1c-0.1,15.8,0,31.6,0,47.4c0,3.2,0.4,6.3,1.3,9.3c2.3,7.9,7.4,12,15.5,12.8c11.5,1.1,23.7-6.6,28.1-16.5
			c1.2-2.7,1.8-5.6,1.8-8.6c0-14.7,0-29.3,0-44c0-2.5,0-2.5,2.5-2.5c4.1,0,8.2,0.1,12.4,0c1.9-0.1,2.4,0.5,2.4,2.3
			C559.4,274.7,559.5,287.6,559.5,300.6z"/>
		<path class="st1" d="M446.1,268.9c0-23.4,0-46.7,0-70.1c0-2.4,0-2.4,2.3-2.3c4.3,0,8.6,0.1,12.9,0c1.5,0,2,0.5,2,2
			c0,47.1,0,94.2,0,141.3c0,1.6-0.6,1.9-2,1.9c-4.4-0.1-8.7-0.1-13.1,0c-1.7,0-2.2-0.4-2.2-2.1C446.1,316,446,292.5,446.1,268.9
			C446,268.9,446.1,268.9,446.1,268.9z"/>
		<path class="st1" d="M157.4,300.6c0-13,0-25.9,0-38.9c0-1.8,0.4-2.5,2.3-2.4c3.5,0.2,7,0.2,10.5,0c1.9-0.1,2.5,0.7,2.6,2.4
			c0.2,3.4,0.5,6.8,0.8,10.1c0,0.5-0.1,1.1,0.4,1.3c0.6,0.2,0.7-0.5,1-0.9c4.5-6.2,10.3-10.6,17.4-13.4c4-1.6,8.1-2.4,12.4-2.7
			c0.9-0.1,1.2,0.3,1.2,1.1c0,5,0,10.1,0,15.1c0,1.4-1,1-1.7,0.9c-4-0.6-8-0.3-11.9,0.7c-7.8,2-13.9,6.1-17,13.9
			c-0.9,2.3-1.1,4.7-1.1,7.1c0,14.8,0,29.6,0,44.3c0,1.8-0.5,2.3-2.2,2.2c-4.1-0.1-8.1,0-12.2,0c-2.6,0-2.6,0-2.6-2.7
			c0-12.2,0-24.3,0-36.5C157.4,301.9,157.4,301.2,157.4,300.6C157.4,300.6,157.4,300.6,157.4,300.6z"/>
		<path class="st1" d="M233.6,300.6c0,13,0,25.9,0,38.9c0,1.7-0.4,2.3-2.2,2.3c-4.4-0.1-8.8-0.1-13.3,0c-1.3,0-1.8-0.3-1.8-1.7
			c0-26.2,0-52.4,0-78.6c0-1.6,0.6-1.9,2-1.9c4.3,0.1,8.6,0.1,12.9,0c1.8-0.1,2.4,0.5,2.4,2.3C233.5,274.7,233.6,287.6,233.6,300.6
			C233.6,300.6,233.6,300.6,233.6,300.6z"/>
		<path class="st1" d="M224.9,230.3c5.8-0.1,10.1,4.1,10.1,10c0.1,5.2-4.6,9.9-9.7,9.9c-5.8,0-10.2-4.2-10.3-9.9
			C214.9,234.7,219.2,230.3,224.9,230.3z"/>
		<path d="M436.9,381.7c0.7-1.6,0.9-2.8,1-4.1c0.1-0.7,0.2-1.1,1.1-1.1c1,0,0.8,0.7,0.7,1.3c-0.1,1.5-0.4,3-1.1,4.4
			c-0.5,1-0.3,1.7,0.3,2.4c1,1.3,2,2.7,3,4.2c-1.3,0.4-2.1,0.2-2.8-0.9c-0.3-0.5-0.7-0.9-0.9-1.3c-0.7-1.3-1.3-1.3-2.3-0.1
			c-2.5,3-5.9,3.6-9.6,2.7c-5.1-1.3-7.1-8-3.6-12.4c1-1.3,2.1-2.3,3.5-3.2c1.4-0.9,1.8-1.6,0.5-3c-1-1.1-1.8-2.5-2.1-4
			c-0.6-2.6,0.1-4.8,2-6.1c2-1.4,5.2-1.3,7,0.1c1.7,1.3,2.4,3.8,1.6,6.3c-0.7,2-2.1,3.5-3.7,4.8c-0.9,0.7-1.1,1.2-0.3,2.2
			C433.1,376.4,434.9,379,436.9,381.7z M429.5,388c2.5-0.1,4.5-1.6,6.2-3.7c0.4-0.5,0.2-0.9-0.1-1.3c-2-2.8-4-5.6-6-8.4
			c-0.4-0.5-0.6-0.9-1.3-0.3c-1.6,1.4-3.4,2.6-4.4,4.5C421.6,382.9,424.4,387.9,429.5,388z M433.8,365c0-1.5-0.5-2.7-2-3.4
			c-1.4-0.7-2.8-0.6-4.1,0.4c-1.2,0.9-1.6,2.2-1.4,3.7c0.4,1.9,1.4,3.4,2.6,4.9c0.3,0.4,0.6,0.6,1,0.2
			C431.9,369.3,433.7,367.7,433.8,365z"/>
		<path d="M385,374.8c0.4-0.5,0.3-1,0.3-1.5c0-0.7,0.2-1.1,1-1.1c0.9,0,0.7,0.6,0.7,1.1c0,4.1,0,8.2,0,12.3c0,2.1,0.2,4.2-0.2,6.3
			c-0.8,4.2-3.4,6.5-7.8,6.8c-2.2,0.1-4.3-0.4-6.3-1.2c-1-0.4-1.4-1.1-1-2.2c3.7,1.5,7.4,3,11.1,0.3c2.1-1.6,2.8-4.6,2.2-9.2
			c-2.2,2.5-4.9,3.6-8.1,3.1c-2.1-0.4-3.8-1.4-5.1-3.2c-2.8-3.8-2.3-9.8,1.1-12.8C376.4,370.6,381.2,371,385,374.8z M385.2,380.6
			c0-4.3-2.7-7.2-6.7-7.2c-3.9,0-6.7,3-6.7,7.2c0,4.3,2.8,7.5,6.7,7.5C382.5,388,385.3,384.9,385.2,380.6z"/>
		<path d="M475.8,374.4c0,4.4,0,8.8,0,13.3c0,0.7,0.3,1.5-1,1.5c-1.3,0-0.9-0.9-0.9-1.5c0-3.9,0-7.7,0-11.6c0-1.1-0.3-1.5-1.4-1.5
			c-5.1,0-10.3,0-15.4,0c-1.2,0-1.4,0.5-1.4,1.5c0,3.9,0,7.7,0,11.6c0,0.6,0.4,1.5-0.9,1.5c-1.2,0-1-0.8-1-1.4c0-8.8,0-17.7,0-26.5
			c0-0.6-0.4-1.5,0.9-1.5c1.4,0,1,1,1,1.6c0,3.3,0,6.7,0,10c0,1.1,0.4,1.5,1.5,1.5c5.1,0,10.2,0,15.3,0c1.2,0,1.6-0.3,1.6-1.6
			c-0.1-3.3-0.1-6.5,0-9.8c0-0.6-0.5-1.7,0.9-1.7c1.4,0,1,1,1,1.7C475.8,365.6,475.8,370,475.8,374.4
			C475.8,374.4,475.8,374.4,475.8,374.4z"/>
		<path d="M150.7,385.1c0.1,1,0.3,1.8-0.7,2.3c-6.1,3.4-15.6,3.4-20.6-3.7c-5.5-7.8-2.7-19.9,5.7-23.6c5-2.2,9.9-1.6,14.7,0.9
			c1.1,0.6,1.1,0.6,0.8,2.3c-8.5-4-14.9-3.4-19.1,1.8c-3.9,4.9-3.8,13.5,0.2,18.3C135.8,388.6,142.6,389.2,150.7,385.1z"/>
		<path d="M546.8,375.2c2.2-2.5,4.4-3.8,7.3-3.6c2.7,0.2,4.4,1.5,5,4.2c0.9,4.1,0.3,8.3,0.4,12.5c0,0.7-0.5,0.7-1,0.7
			c-0.8,0.1-0.9-0.3-0.9-1c0-2.6,0-5.2,0-7.8c0-0.8,0-1.7-0.1-2.5c-0.4-3.8-3.5-5.6-6.9-3.8c-2.4,1.2-3.8,3.1-3.8,5.9
			c0,2.7,0,5.3,0,8c0,0.8-0.1,1.3-1.1,1.2c-1,0-0.8-0.7-0.8-1.2c0-9,0-17.9,0-26.9c0-0.6-0.2-1.3,0.9-1.4c1.2,0,1,0.8,1,1.5
			c0,3.9,0,7.9,0,11.8C546.8,373.5,546.8,374.1,546.8,375.2z"/>
		<path d="M407.1,375c0.1-0.8,0.2-1.3,0.1-1.9c0-0.7,0.2-1,0.9-1c0.8,0,0.8,0.5,0.8,1.1c0,1.4,0,2.8,0,4.2c0,3.3,0,6.7,0,10
			c0,0.6,0.5,1.6-0.8,1.6c-1.3,0.1-0.8-0.9-0.9-1.5c-0.1-0.3,0.1-0.7-0.3-1c-4.4,3.9-9.4,4.1-12.7,0.5c-3.3-3.6-3.1-10.2,0.4-13.4
			C398.2,370.6,403.3,371,407.1,375z M393.9,380.5c0,4.3,2.7,7.5,6.7,7.5c3.9,0,6.6-3,6.7-7.3c0.1-4.4-2.7-7.4-6.7-7.4
			C396.6,373.3,393.9,376.2,393.9,380.5z"/>
		<path d="M515.7,375c0.1-0.9,0.1-1.4,0.1-1.9c0-0.7,0.3-0.9,1-0.9c0.7,0,0.8,0.3,0.8,0.9c0,5,0,10.1,0,15.1c0,0.6-0.1,0.9-0.8,0.9
			c-0.7,0-0.9-0.2-1-0.9c0-0.5,0.2-1.1-0.2-1.6c-4.9,4-9.6,4.1-12.8,0.4c-3.2-3.7-2.9-10,0.5-13.3
			C505.9,371.3,511.6,370.2,515.7,375z M502.5,380.6c0,4.3,2.8,7.4,6.7,7.4c3.9,0,6.6-3,6.6-7.3c0-4.4-2.7-7.4-6.7-7.4
			C505.2,373.3,502.5,376.3,502.5,380.6z"/>
		<path d="M351.3,359.8c-3.2,5.4-6.4,10.6-9.6,15.9c-0.7,1.1-1,2.1-1,3.4c0.1,2.9,0,5.8,0,8.7c0,0.7,0.1,1.3-1,1.3
			c-1.1,0-1-0.6-1-1.3c0-3,0-6,0-9.1c0-1-0.2-1.8-0.8-2.7c-3.3-5.3-6.5-10.7-9.8-16.2c1.5-0.6,2.2,0,2.9,1.2c2.5,4.2,5,8.3,7.5,12.4
			c1.1,1.8,1.1,1.8,2.2-0.1c2.5-4.1,5.1-8.2,7.5-12.4C349.1,359.8,349.8,359.3,351.3,359.8z"/>
		<path d="M495.8,386.1c0.5,1.3-0.2,1.9-1.2,2.5c-3.8,2-8.9,1.2-11.3-1.8c-2.7-3.4-2.6-9.3,0.2-12.5c2.1-2.4,5.6-3.3,8.6-2.1
			c2.5,1,4,3.3,4,6.1c0,1.1-0.3,1.6-1.5,1.6c-3.3-0.1-6.5,0-9.8,0c-1.4,0-1.6,0.5-1.5,1.7c0.3,5,5,7.8,9.9,6
			C494,387.1,494.9,386.6,495.8,386.1z M488.7,378.3C488.7,378.3,488.7,378.3,488.7,378.3c1.3,0,2.5,0,3.8,0c1.8,0,2.1-0.4,1.4-2.1
			c-0.8-2-2.9-3.1-5.3-2.9c-2.2,0.2-4.6,2.2-5,4.2c-0.2,0.9,0.4,0.8,0.9,0.9C485.9,378.3,487.3,378.3,488.7,378.3z"/>
		<path d="M222,386.2c0.4,1,0.1,1.6-0.8,2.2c-4,2.6-10,1.4-12.4-2.5c-2.7-4.5-1.2-11,3-13.3c2.5-1.3,5-1.3,7.4,0.2
			c2.1,1.3,3,3.2,3,5.7c0,1.1-0.4,1.5-1.5,1.4c-3.3-0.1-6.7,0-10,0c-1.2,0-1.5,0.5-1.4,1.6c0.4,5.1,4.9,7.9,9.8,6.1
			C220.2,387.2,221.1,386.6,222,386.2z M215,378.3C215,378.3,215,378.3,215,378.3c1.2,0,2.4,0,3.6,0c2.1,0,2.4-0.6,1.4-2.5
			c-1-1.9-3.2-2.9-5.5-2.5c-2,0.3-4.3,2.4-4.6,4.1c-0.1,0.8,0.2,0.8,0.8,0.8C212.1,378.3,213.5,378.3,215,378.3z"/>
		<path d="M169.6,386.1c0.3,1,0.2,1.7-0.7,2.2c-3.3,1.7-6.6,2.1-9.9,0.1c-3.6-2.2-4.2-5.7-3.8-9.5c0.4-3.5,2.3-5.9,5.8-7
			c4.5-1.3,8.8,1.7,8.9,6.1c0,1.2-0.2,1.8-1.7,1.8c-3.2-0.1-6.4,0-9.6-0.1c-1.5,0-1.7,0.6-1.6,1.8c0.5,5.3,5.6,8,10.7,5.6
			C168.3,386.9,168.9,386.5,169.6,386.1z M162.6,378.3C162.6,378.3,162.6,378.3,162.6,378.3c1.1,0,2.3,0,3.4,0
			c2.1,0,2.5-0.7,1.5-2.6c-1-1.8-3.1-2.8-5.4-2.4c-2.1,0.3-4.3,2.3-4.7,4.1c-0.2,0.9,0.2,0.9,0.9,0.9
			C159.7,378.3,161.2,378.3,162.6,378.3z"/>
		<path d="M299.8,371.6c5.1,0,8.8,3.8,8.8,9.1c0,5.2-3.8,9-8.9,9c-5.1,0-8.9-3.8-8.9-9C290.7,375.4,294.5,371.6,299.8,371.6z
			 M299.8,373.3c-4.1,0-7.1,3-7.1,7.3c-0.1,4.2,3,7.4,7,7.5c4,0,7.1-3.1,7.1-7.3C306.8,376.5,303.8,373.3,299.8,373.3z"/>
		<path d="M357,371.6c5.1,0,8.9,3.9,8.9,9c0,5.3-3.9,9.1-9,9.1c-5.1-0.1-8.8-3.9-8.8-9.2C348.2,375.4,351.9,371.6,357,371.6z
			 M357,373.3c-4,0-7,3.2-7,7.4c0,4.2,3.1,7.4,7.1,7.4c4,0,7-3.2,7-7.4C364,376.4,361,373.3,357,373.3z"/>
		<path d="M177.3,375.3c2.1-2.5,4.4-3.8,7.3-3.6c2.7,0.2,4.4,1.5,5,4.2c0.7,3,0.3,6,0.4,9c0,0.9,0,1.8,0,2.7c0,0.7,0.3,1.5-1,1.5
			c-1.1,0-0.8-0.8-0.9-1.4c0-2.5,0-5.1,0-7.6c0-0.2,0-0.5,0-0.7c0-4.1-1.4-5.9-4.5-6c-3.2,0-6.3,2.8-6.4,6.2c-0.1,2.6,0,5.2-0.1,7.8
			c0,0.6,0.5,1.7-0.8,1.8c-1.4,0-0.9-1-0.9-1.7c0-4.5,0-9.1,0-13.6c0-0.6-0.5-1.6,0.8-1.6c1.3,0,0.8,0.9,0.9,1.5
			C177.3,374.1,177.3,374.5,177.3,375.3z"/>
		<path d="M282.2,381.4c0-2-0.1-4,0-6c0.1-1.3-0.4-1.7-1.7-1.7c-0.6,0-1.8,0.6-1.7-0.8c0-1.2,1.1-0.8,1.7-0.7
			c1.4,0.1,1.8-0.4,1.7-1.8c-0.1-2.5-0.2-5.1,0.2-7.6c0.5-2.7,2.5-4.2,5-3.9c0.5,0.1,1.1,0.1,1.1,0.9c0,0.9-0.6,0.7-1.1,0.7
			c-2.1,0.1-3,0.7-3.1,2.7c-0.2,2.6-0.1,5.3-0.2,8c0,0.7,0.4,0.9,1,0.9c0.8,0,1.7,0,2.5,0c0.6,0,0.9,0.2,0.8,0.9
			c0,0.6-0.4,0.7-0.8,0.7c-0.1,0-0.2,0-0.4,0c-3.2,0.2-3.2,0.2-3.2,3.4c0,3.5,0,7,0,10.5c0,0.7,0.1,1.3-0.9,1.3
			c-1.1,0-0.9-0.7-0.9-1.3C282.2,385.6,282.2,383.5,282.2,381.4C282.2,381.4,282.2,381.4,282.2,381.4z"/>
		<path d="M523.8,374.4c0-4.4,0-8.8,0-13.2c0-0.6-0.3-1.5,0.9-1.5c1.2,0,0.9,0.8,0.9,1.5c0,8.8,0,17.7,0,26.5c0,0.6,0.3,1.5-0.9,1.5
			c-1.2,0-0.9-0.8-0.9-1.5C523.8,383.2,523.8,378.8,523.8,374.4z"/>
		<path d="M203.8,387.2c0.4,1.6-0.5,2-1.6,2.2c-1.9,0.4-3.4-0.2-4-1.6c-0.3-0.7-0.3-1.5-0.3-2.3c0-3.3-0.1-6.7,0-10
			c0-1.4-0.4-1.9-1.7-1.7c-0.4,0.1-0.7,0-1.1,0c-0.5,0-0.8-0.1-0.8-0.7c0-0.6,0.2-0.9,0.8-0.9c0.5,0,1.1,0,1.6,0
			c0.9,0.1,1.2-0.3,1.1-1.2c0-1.1,0-2.3,0-3.4c0-0.7,0.3-1,1-0.9c0.6,0,0.9,0.3,0.9,0.9c0,0.5,0,1.1,0,1.6c0,2.7,0,2.7,2.7,3
			c0.5,0.1,0.9,0.1,0.9,0.8c0,0.8-0.4,0.9-1,0.8c-0.4,0-0.7,0-1.1,0c-1.2-0.2-1.6,0.3-1.6,1.5c0.1,3.1,0,6.2,0,9.2
			C199.6,387.9,200.5,388.5,203.8,387.2z"/>
		<path d="M539.7,387.2c0.3,2-1,2.1-2.2,2.2c-2.1,0.2-3.4-0.6-3.7-2.4c-0.2-1.2-0.1-2.4-0.1-3.6c0-2.5-0.1-5.1,0-7.6
			c0.1-1.5-0.3-2.3-2-2c-0.4,0.1-0.7,0-1.1,0c-0.5,0-0.5-0.4-0.6-0.7c0-0.4,0.1-0.8,0.5-0.8c0.5,0,1-0.1,1.4,0
			c1.3,0.2,1.7-0.4,1.6-1.7c-0.1-1,0-1.9,0-2.9c0-0.6,0.1-1,0.9-1c0.7,0,1,0.3,0.9,1c0,0.8,0.1,1.7,0,2.5c-0.2,1.5,0.2,2.3,1.9,2
			c0.3-0.1,0.6,0,0.9,0c0.6,0,0.8,0.3,0.8,0.9c0,0.6-0.4,0.6-0.8,0.7c-0.9,0.1-2.2-0.5-2.7,0.5c-0.4,0.8-0.1,1.9-0.2,2.9
			c0,2.5,0,5,0,7.4C535.6,387.9,536.5,388.5,539.7,387.2z"/>
		<path d="M230,374.7c1.2-1.5,2.8-2.6,4.7-3c0.5-0.1,1.3-0.5,1.3,0.6c0,0.7,0,1.1-1,1.3c-3.6,0.6-5.3,2.7-5.3,6.3c0,2.4,0,4.8,0,7.2
			c0,0.7,0.6,1.9-0.9,1.8c-1.4,0-0.8-1.1-0.9-1.7c0-4.5,0-9.1,0-13.6c0-0.6-0.4-1.5,0.9-1.5c1.1,0,0.8,0.8,0.9,1.4
			C229.7,374,229.5,374.4,230,374.7z"/>
		<path d="M315.5,375c1.6-1.8,3.1-2.9,5.1-3.3c0.5-0.1,1.1-0.3,1.2,0.6c0,0.6,0.1,1.1-0.8,1.3c-4.1,0.9-5.4,2.6-5.4,6.8
			c0,2.5,0,5,0,7.4c0,0.7,0,1.2-0.9,1.2c-0.9,0-0.9-0.6-0.9-1.2c0-4.7,0-9.4,0-14.2c0-0.6-0.4-1.4,0.7-1.5c1.2-0.1,0.9,0.8,1,1.5
			C315.4,374,315.4,374.3,315.5,375z"/>
	</g>
</g>
</svg>
