<?xml version="1.0" encoding="utf-8"?>
<!-- Generator: Adobe Illustrator 26.3.1, SVG Export Plug-In . SVG Version: 6.00 Build 0)  -->
<svg version="1.1" id="Layer_1" xmlns="http://www.w3.org/2000/svg" xmlns:xlink="http://www.w3.org/1999/xlink" x="0px" y="0px"
	 viewBox="0 0 595.3 595.3" style="enable-background:new 0 0 595.3 595.3;" xml:space="preserve">
<style type="text/css">
	.st0{fill:#FFFFFF;}
	.st1{fill:#F48220;}
</style>
<path class="st0" d="M297.6,595.3L297.6,595.3C133.3,595.3,0,462,0,297.6l0,0C0,133.3,133.3,0,297.6,0l0,0
	C462,0,595.3,133.3,595.3,297.6l0,0C595.3,462,462,595.3,297.6,595.3z"/>
<path class="st0" d="M584.9,375.9c0.5-2,1.1-4,1.6-6L584.9,375.9z"/>
<polygon class="st0" points="586.4,369.9 586.4,369.9 586.4,369.9 "/>
<g id="ZSbKcL.tif">
	<g>
		<path class="st1" d="M505.4,289.9c0,5.1,0,10.2,0,15.2c-0.1,1-0.4,2-0.4,3c-1.2,28.9-8.5,56.3-21.5,82.2
			c-17.1,33.9-41.4,61.4-73.4,81.9c-39.8,25.5-83.3,36-130.3,32.3c-24.5-2-47.9-8.3-70.1-18.9c-45.8-21.8-79.5-55.8-100.8-101.8
			c-18.5-39.8-23-81.6-15.2-124.5c7.5-41,26.1-76.6,55.2-106.3c36.6-37.2,81.1-58.3,133.4-62.3c23.2-1.8,46.2-0.1,68.6,6.2
			c51.9,14.4,92.9,43.9,122,89.4c18.3,28.5,29,59.7,31.7,93.6C504.8,283.2,504.5,286.6,505.4,289.9z M297.6,463.8
			c20,0,39.5-2.9,58.3-9.8c21.2-7.7,39.7-19.6,56-35.1c15.5-14.7,28.4-31.5,37.1-51.1c17.7-39.9,19.4-80.9,6.9-122.4
			c-9.3-31-27.9-56-52.5-76.6c-28.7-24.1-62.1-36-99.4-37.1c-30.1-0.9-59,4.4-85.5,19.1c-33.1,18.3-57.9,44.6-73.4,79.2
			c-11.1,24.8-14.7,51-13.3,78c1.5,29.1,9.7,56.1,25.9,80.5c16.1,24.2,36.9,43.5,62.6,57.1C244.5,458.4,270.4,463.7,297.6,463.8z"/>
		<path class="st1" d="M301.1,318.4c-0.9,0-1.7,0-2.6,0c-27.1,0-54.1,0-81.2,0.1c-2.2,0-2.8-0.6-2.7-2.7c0.1-12.1,0.1-24.1,0-36.2
			c0-2.1,0.6-2.6,2.7-2.6c27,0.1,54,0,80.9,0c0.9,0,1.9,0,2.9,0c0.1-1.1-0.8-1.5-1.4-2.1c-9.8-9.8-19.6-19.7-29.5-29.4
			c-1.2-1.2-1.5-1.9-0.1-3.3c8.7-8.6,17.4-17.2,25.9-25.9c1.3-1.3,2-1.2,3.2,0.1c26.6,26.7,53.3,53.3,80,80c1.2,1.2,1.1,1.8-0.1,2.9
			c-26.7,26.6-53.3,53.3-80,80c-1.2,1.2-1.8,1.4-3.2,0.1c-8.6-8.8-17.3-17.5-26.1-26.1c-1.2-1.2-1.1-1.8,0-2.9
			c9.9-9.8,19.7-19.6,29.5-29.4c0.6-0.6,1.3-1.1,2-1.6C301.4,318.9,301.3,318.6,301.1,318.4z"/>
	</g>
</g>
</svg>
