<svg xmlns="http://www.w3.org/2000/svg" xml:space="preserve" id="Layer_1" x="0" y="0" style="enable-background:new 0 0 595.3 595.3" version="1.1" viewBox="0 0 595.3 595.3"><style>.st0{fill:#fff}.st1{fill:#271b18}.st3{fill:#4874b8}.st4{fill:#e40265}.st5{fill:#fefefe}</style><path d="M297.6 595.3C133.3 595.3 0 462 0 297.6 0 133.3 133.3 0 297.6 0 462 0 595.3 133.3 595.3 297.6c0 164.4-133.3 297.7-297.7 297.7" class="st0"/><path d="M584.9 375.9c.5-2 1.1-4 1.6-6zM586.4 369.9" class="st0"/><path d="M528.7 328.1v62.7c0 18.6-16.2 34.8-34.8 34.8H369.4c-13.8 0-24-6.4-31.2-17.8-1.2-1.9-2.5-3.3-4.4-4.4-7.1-4-12.2-9.9-15.2-17.4-1-2.6-2.2-3.4-4.9-3.3-12.9.1-25.8.2-38.6 0-3.7-.1-4.4.9-4.4 4.5.1 19.7-11.4 34.4-29.6 38.1-1.9.4-4 .4-6 .4H120c-13.8 0-24-6.3-31.2-17.8-1.2-1.9-2.5-3.3-4.4-4.4-11.4-7.3-17.8-17.5-17.8-31.3V249c0-20.2 15.8-36.2 36.1-36.3 27.3-.1 54.7 0 82 0 6.3 0 6.3 0 6.4-6.2.1-18.1 11.7-32.5 29.2-36.2 2.1-.4 4.3-.5 6.4-.5h115.1c13.7 0 23.8 6.3 30.9 17.5 1.4 2.1 2.9 3.7 5 5 6.9 4.1 11.9 9.8 14.8 17.3 1 2.6 2.3 3.3 5 3.3 25.2-.1 50.4 0 75.6-.1 15-.1 26.4 6.1 34 19.2.9 1.5 2 2.3 3.4 3.1 11.9 7.3 18.3 17.6 18.3 31.8-.2 20.2-.1 40.7-.1 61.2m-4.4.2c0-20.5.1-40.9-.1-61.4-.1-12.8-5.9-22.4-17.2-28.6-1.2-.7-2.5-1.2-3.2-2.6-6.8-13.6-18.3-18.7-33-18.5-25.6.3-51.2 0-76.8.1-2.7 0-3.9-.6-4.7-3.4-2.4-8.1-7.5-14.4-15.1-18.4-2.3-1.2-3.7-2.9-4.9-5-6-10.4-15-16.2-26.9-16.3-38.5-.3-77-.2-115.5 0-14.3.1-26.8 10.3-30.2 24.2-1.1 4.5-1.4 9.1-.9 13.6.4 4.1-.6 5.5-5.2 5.4-28.8-.3-57.5-.2-86.3-.1-18.8.1-33 13.3-33.1 31.5-.2 41.2-.2 82.4 0 123.6.1 12.2 6.1 21.5 16.8 27.5 2 1.1 3.3 2.4 4.4 4.4 6.1 10.9 15.5 16.7 27.9 16.8 38.1.2 76.1.1 114.2 0 14.8 0 27.2-10.2 30.7-24.6 1.2-4.8.9-9.7.8-14.5-.1-3 .5-4.2 3.9-4.2 15.9.2 31.8.1 47.7 0 2.4 0 3.5.5 4.2 3 2.5 8.7 7.9 15.1 15.9 19.3 1.4.7 2.6 1.5 3.4 3 6.5 12.4 16.9 18 30.7 18 39.5-.1 79 0 118.5 0 20.6 0 34.1-13.5 34.1-34.1-.1-19.5-.1-39.1-.1-58.7" class="st1"/><path d="M431.1 408.9h-59.2c-11.5 0-17.7-4.5-21.3-15.4-.4-1.3-.8-2-2.4-2.5-10.8-3.3-15.5-9.6-15.4-20.8.1-3.7-.7-4.8-4.6-4.8-23.5.2-46.9.2-70.4 0-3.2 0-4.2.8-4 4 .3 6.1.1 12.3.1 18.5-.1 12.7-8.2 20.9-21 20.9-21.8.1-43.5 0-65.3 0h-45.5c-11 0-17.7-5-20.9-15.4-.4-1.4-.9-2-2.3-2.4-10.8-3.3-15.6-9.8-15.6-21.2v-92.7c0-8.7-.1-17.5 0-26.2.1-13.4 8.1-21.3 21.5-21.3 32.9 0 65.8-.1 98.7.1 4 0 4.8-1.1 4.6-4.8-.3-6.1-.2-12.3-.1-18.5.3-12.1 8.3-20.1 20.4-20.1 37.4-.1 74.7-.1 112.1 0 10.4 0 16.9 5.1 20 15.4.4 1.3.9 2 2.4 2.5 11 3.5 15.6 9.7 15.5 21.2-.1 3.7 1.1 4.4 4.6 4.4 29.9-.1 59.8-.1 89.7-.1 11.9 0 17.9 4.2 21.5 15.6.5 1.6 1.4 1.9 2.6 2.2 10.5 3.4 15.3 9.8 15.3 21 .1 21.8 0 43.5 0 65.3v52.8c0 14.7-7.8 22.4-22.6 22.4-19.5-.1-39-.1-58.4-.1m-90.5-98.8v60.1c0 8.9 4.4 13.4 13.4 13.4h119.4c8.8 0 13.3-4.4 13.3-13.1V250.7c0-8.7-4.5-13.2-13.2-13.2H354.1c-9 0-13.5 4.4-13.5 13.3-.1 19.8 0 39.6 0 59.3M216 266.7v60.1c0 9.2 4.5 13.7 13.7 13.7 32.9 0 65.8-.1 98.7.1 3.6 0 4.5-1.1 4.5-4.6-.1-28.9-.1-57.8-.1-86.7 0-10.4 7-18.3 17.4-19.5 2.8-.3 3.2-1.5 3.2-3.8-.1-6.1.1-12.3-.1-18.5-.2-8.7-4.7-13.2-13.3-13.2H229.3c-9 0-13.2 4.3-13.2 13.5-.1 19.7-.1 39.3-.1 58.9M91.3 310.2V369c0 10.8 3.9 14.6 14.8 14.6h109.5c8.2 0 12.7-4.5 12.8-12.7.1-6.4 0-12.9 0-19.3 0-1.6.2-2.8-2.2-3.3-12.5-2.3-18-9-18-21.5 0-28.2-.1-56.4.1-84.6 0-3.8-1-4.7-4.8-4.7-32.8.2-65.5.1-98.3.1-9.6 0-13.8 4.2-13.8 13.8-.1 19.6-.1 39.2-.1 58.8" class="st1"/><path d="M340.6 310.1v-59.2c0-8.9 4.5-13.3 13.5-13.3h119.4c8.7 0 13.2 4.5 13.2 13.2v119.8c0 8.7-4.5 13.1-13.3 13.1H354c-9 0-13.4-4.5-13.4-13.4-.1-20.1 0-40.2 0-60.2m27.5 46.7c1.3 1.2 2.2 2 3.2 2.9 9.8 8.6 21.1 13 34.2 12.5 18.3-.7 30.7-9.2 35.2-24.1 4.9-16.1-.7-32-15.2-42.6-3.6-2.6-7.3-5-11.4-6.8-2.9-1.2-2.5-2.1-.6-4 8-8.1 16-16.4 23.9-24.7 3-3.1 5-6.8 3.1-11.2-2-4.6-6-5.6-10.6-5.6-19.3.1-38.6 0-58 .1-1.7 0-3.5.2-5.1.6-3.8 1.1-6 4.5-5.6 8.6.3 4 2.3 6.8 6.2 7.7 1.8.4 3.7.5 5.5.5h34.8c1.3 0 2.8-.5 4.3.8-.9 1-1.6 2-2.5 2.8-6.3 6.5-12.6 12.9-18.9 19.3-6.8 7-5.7 11.9 3.2 15.5 5.2 2 10.4 4.1 15.1 7 4.4 2.7 8.4 5.9 11 10.6 6.7 11.9.8 24.6-12.5 27.1-12.3 2.3-27.2-5.9-32.1-17.4-.6-1.4-.3-2.4.1-3.7 1.8-5.7 3.6-11.4 5.3-17.2 1.6-5.5-.7-10-5.8-11.7-5.6-1.8-10.3.4-12.2 6.2-5.4 16.6-10.7 33.2-15.9 49.8-1.8 5.7.5 10 6 11.8 5.6 1.9 10.4-.4 12.3-6 1.2-2.8 2-5.7 3-8.8m112.7 4.3c-.2-.7-.4-2.1-.8-3.4-5.4-16.1-10.8-32.2-16.3-48.2-2.1-6.3-6.4-8.6-12.2-6.7-5.7 1.8-7.9 6.4-5.8 12.6 2.4 7.5 5 14.9 7.5 22.3 3 8.9 5.8 17.9 8.9 26.8 1.7 4.9 5.7 7 10.8 6.1 4.6-.9 7.8-4.5 7.9-9.5m-7.8-77c-.1-5.5-4.4-9.7-9.9-9.6-5.4.1-9.8 4.7-9.7 10 .1 5.3 4.8 9.8 10.1 9.7 5.4-.2 9.6-4.6 9.5-10.1m0-25.9c-.1-5.5-4.4-9.7-9.9-9.6-5.4.1-9.8 4.6-9.7 9.9.1 5.4 4.8 9.8 10 9.7 5.4 0 9.7-4.5 9.6-10" style="fill:#fcdf00"/><path d="M216 266.7v-58.8c0-9.2 4.2-13.5 13.2-13.5h110.7c8.6 0 13.2 4.5 13.3 13.2.1 6.1 0 12.3.1 18.5 0 2.3-.4 3.5-3.2 3.8-10.4 1.2-17.3 9-17.4 19.5-.1 28.9-.1 57.8.1 86.7 0 3.5-.8 4.6-4.5 4.6-32.9-.1-65.8-.1-98.7-.1-9.2 0-13.7-4.5-13.7-13.7.1-20.1.1-40.2.1-60.2m70.5-13.4c1.1-2.3 2.9-3.3 4.3-4.6 8.4-7.8 16.9-15.4 25.3-23.2 3.1-2.9 4.8-6.5 3-10.8-1.7-4.1-5.2-5.4-9.4-5.4H235c-6.2 0-10.1 3.5-10.1 8.7.1 5.4 3.6 8.6 10 8.6H289.6c-9.1 8.3-17.4 15.7-25.6 23.2-1.5 1.3-3 2.7-4.2 4.3-3.1 4.1-2.1 8.3 2.4 10.8 2 1.1 4.3 1.5 6.5 2 9.8 2.1 19.5 4.4 28 10.2 4.5 3.1 7.9 6.9 8 12.9.1 9.5-4.3 15.3-13.8 18.9-2.9 1.1-4.3.9-5.6-2.5-7-18.1-23.7-27.7-43-25-12.9 1.8-20.8 12.3-18.4 24.7 1.5 7.7 6.9 12.3 13.6 15.6 9 4.5 18.7 6.2 28.6 6.5 14.1.5 28.1-.4 40.9-7.2 21.2-11.3 23.7-40.6 4.9-55.4-7.5-5.9-16.2-9.3-25.4-12.3" class="st3"/><path d="M91.3 310.2v-58.8c0-9.6 4.2-13.8 13.8-13.8 32.8 0 65.5.1 98.3-.1 3.7 0 4.8.9 4.8 4.7-.2 28.2-.1 56.4-.1 84.6 0 12.5 5.6 19.3 18 21.5 2.4.4 2.2 1.7 2.2 3.3 0 6.4.1 12.9 0 19.3-.1 8.2-4.5 12.7-12.8 12.7H106c-10.9 0-14.8-3.8-14.8-14.6.1-19.6.1-39.2.1-58.8m73.9-40c-8.9 8.1-16.9 15.3-24.9 22.6-3.2 2.9-7.7 5.6-6.4 10.8 1.4 5.5 6.8 5.9 11.4 6.9 10.2 2.2 20.4 4.7 28.8 11.3 8.9 7 8.4 20.3-.7 27-2.2 1.6-4.8 2.6-7.2 3.7-2.8 1.3-4 .6-5.1-2.5-6.3-16.8-21.1-26.4-39.1-25.6-14.4.6-23.9 10.1-22.6 22.9 1 10.1 8 15.4 16.5 19 14.1 5.9 29 6.2 43.9 4.7 8-.8 15.7-2.8 23-6.4 20.8-10.3 23.2-41.6 5.6-55-6.6-5-13.8-8.5-21.6-11.2-1.5-.5-3.3-.5-4.6-2.1 8.4-7.7 16.6-15.2 24.8-22.7 2.3-2.1 4.7-4.3 6.6-6.7 2.1-2.6 2.5-5.7 1.1-8.9-1.5-3.3-4.3-5-7.9-5-25.9 0-51.8-.1-77.7 0-5.6 0-8.8 4.2-8.2 9.7.5 4.7 3.8 7.4 9.3 7.4 17.9.2 35.8.1 55 .1" class="st4"/><path d="M368.1 356.8c-1 3.1-1.8 6-2.8 8.8-1.9 5.6-6.7 7.9-12.3 6-5.5-1.8-7.8-6.1-6-11.8 5.2-16.6 10.5-33.2 15.9-49.8 1.9-5.8 6.6-8 12.2-6.2 5 1.7 7.4 6.1 5.8 11.7-1.6 5.8-3.5 11.5-5.3 17.2-.4 1.2-.7 2.3-.1 3.7 4.9 11.5 19.8 19.7 32.1 17.4 13.4-2.5 19.2-15.1 12.5-27.1-2.6-4.6-6.6-7.8-11-10.6-4.8-2.9-10-5-15.1-7-8.9-3.5-10-8.4-3.2-15.5 6.3-6.5 12.6-12.9 18.9-19.3.9-.9 1.6-1.9 2.5-2.8-1.5-1.2-3-.8-4.3-.8h-34.8c-1.9 0-3.8 0-5.5-.5-3.9-1-5.9-3.8-6.2-7.7-.3-4.1 1.9-7.4 5.6-8.6 1.6-.5 3.4-.6 5.1-.6 19.3 0 38.6 0 58-.1 4.6 0 8.7.9 10.6 5.6 1.9 4.5-.1 8.1-3.1 11.2-7.9 8.3-15.9 16.5-23.9 24.7-1.9 1.9-2.3 2.8.6 4 4.1 1.7 7.8 4.1 11.4 6.8 14.5 10.6 20.2 26.4 15.2 42.6-4.5 14.9-16.9 23.4-35.2 24.1-13 .5-24.4-3.9-34.2-12.5-1.2-.9-2.1-1.7-3.4-2.9M480.8 361.1c0 5-3.3 8.6-8 9.5-5.1.9-9.1-1.2-10.8-6.1-3.1-8.9-5.9-17.9-8.9-26.8-2.5-7.4-5-14.9-7.5-22.3-2-6.2.1-10.7 5.8-12.6 5.8-1.9 10 .4 12.2 6.7 5.5 16.1 10.9 32.1 16.3 48.2.5 1.3.7 2.7.9 3.4M473 284.1c.1 5.5-4.1 9.9-9.5 10.1-5.3.1-9.9-4.3-10.1-9.7-.1-5.3 4.3-9.9 9.7-10 5.5-.1 9.8 4 9.9 9.6M473 258.2c.1 5.5-4.1 10-9.6 10.1-5.3.1-9.9-4.3-10-9.7-.1-5.4 4.2-9.9 9.7-9.9 5.5-.1 9.8 4 9.9 9.5" class="st1"/><path d="M286.5 253.3c9.3 3 17.9 6.3 25.3 12.1 18.9 14.8 16.4 44.1-4.9 55.4-12.8 6.8-26.8 7.6-40.9 7.2-9.9-.3-19.6-2-28.6-6.5-6.6-3.3-12-7.9-13.6-15.6-2.5-12.3 5.5-22.9 18.4-24.7 19.3-2.7 36.1 6.9 43 25 1.3 3.3 2.6 3.5 5.6 2.5 9.5-3.5 13.9-9.4 13.8-18.9 0-6-3.5-9.8-8-12.9-8.4-5.8-18.1-8.2-28-10.2-2.2-.5-4.5-.8-6.5-2-4.5-2.5-5.5-6.7-2.4-10.8 1.2-1.6 2.7-2.9 4.2-4.3 8.2-7.5 16.4-14.9 25.6-23.2H234.8c-6.4 0-10-3.2-10-8.6 0-5.2 3.9-8.7 10.1-8.7h74.7c4.2 0 7.6 1.3 9.4 5.4 1.8 4.3.1 7.9-3 10.8-8.4 7.8-16.9 15.5-25.3 23.2-1.4 1.5-3.1 2.6-4.2 4.8m-19.1 58.1c-2.4-6.1-6-10.3-11-12.5-3.3-1.5-6.7-2.5-10.3-1.6-4.1 1.1-5.2 4.5-2.4 7.8 1.3 1.6 3.1 2.5 5 3.2 5.9 2.2 12 3.3 18.7 3.1M165.2 270.2h-55c-5.5 0-8.8-2.7-9.3-7.4-.6-5.5 2.6-9.7 8.2-9.7 25.9-.1 51.8-.1 77.7 0 3.6 0 6.3 1.7 7.9 5 1.5 3.2 1 6.3-1.1 8.9-2 2.4-4.3 4.6-6.6 6.7-8.2 7.6-16.5 15.1-24.8 22.7 1.2 1.6 3.1 1.6 4.6 2.1 7.7 2.7 15 6.2 21.6 11.2 17.7 13.5 15.2 44.7-5.6 55-7.3 3.6-15 5.6-23 6.4-14.9 1.5-29.8 1.2-43.9-4.7-8.6-3.6-15.6-8.9-16.5-19-1.2-12.9 8.2-22.3 22.6-22.9 18-.8 32.8 8.8 39.1 25.6 1.1 3 2.3 3.7 5.1 2.5 2.5-1.1 5-2.1 7.2-3.7 9.2-6.7 9.6-20 .7-27-8.4-6.7-18.6-9.1-28.8-11.3-4.6-1-10-1.4-11.4-6.9-1.3-5.2 3.2-7.8 6.4-10.8 8-7.4 16.1-14.6 24.9-22.7m-22.2 85c-2.3-8.1-9.9-14.2-17.9-14.5-2.9-.1-6 0-6.9 3.5-.8 3.4 1.5 5.3 4.2 6.7 6.4 3.3 13.4 3.9 20.6 4.3" class="st5"/><path d="M267.4 311.4c-6.7.2-12.8-.9-18.7-3.1-1.9-.7-3.6-1.6-5-3.2-2.8-3.2-1.8-6.7 2.4-7.8 3.6-1 7.1.1 10.3 1.6 5 2.2 8.6 6.4 11 12.5" class="st3"/><path d="M143 355.2c-7.2-.3-14.2-1-20.6-4.3-2.6-1.4-5-3.3-4.2-6.7.9-3.5 4-3.6 6.9-3.5 8 .2 15.6 6.3 17.9 14.5" class="st4"/></svg>