<?xml version="1.0" encoding="utf-8"?>
<!-- Generator: Adobe Illustrator 26.3.1, SVG Export Plug-In . SVG Version: 6.00 Build 0)  -->
<svg version="1.1" id="Layer_1" xmlns="http://www.w3.org/2000/svg" xmlns:xlink="http://www.w3.org/1999/xlink" x="0px" y="0px"
	 viewBox="0 0 595.3 595.3" style="enable-background:new 0 0 595.3 595.3;" xml:space="preserve">
<style type="text/css">
	.st0{fill:#FFFFFF;}
	.st1{fill:#000066;}
	.st2{fill:#FF6800;}
</style>
<path class="st0" d="M297.6,595.3L297.6,595.3C133.3,595.3,0,462,0,297.6v0C0,133.3,133.3,0,297.6,0h0
	C462,0,595.3,133.3,595.3,297.6v0C595.3,462,462,595.3,297.6,595.3z"/>
<g id="Q4qxha_00000008131078459892642140000011045492397422376609_">
	<g>
		<path class="st1" d="M184.5,271.7c-0.6-0.4-1.3-0.2-1.9-0.2c-14.5,0-29,0-43.5,0c-1.1,0-2.1-0.1-3.2-0.2c-3.1-0.6-5.1-2.8-5.1-5.6
			c0.1-2.6,2.3-4.9,5.3-5.3c0.8-0.1,1.5-0.1,2.3-0.1c21.3,0,42.6,0,63.9,0c2,0,4,0.2,5.7,1.5c2.6,1.9,3.1,4.6,1.2,7.3
			c-0.7,1-1.7,1.7-2.6,2.4c-7.7,5.5-15.4,11-23.1,16.5c-0.5,0.3-1,0.5-1.3,1.3c3.7,1,7.3,1.9,10.9,3.2c4.6,1.6,8.9,3.7,12.9,6.5
			c12.2,8.6,9.7,25.1-0.6,31.9c-5.8,3.8-12.3,5.7-19.1,6.6c-12.1,1.7-24.2,1.8-36.2-0.6c-4.3-0.9-8.5-2.1-12.4-4.2
			c-1.7-0.9-3.3-2-4.7-3.4c-4.8-4.8-4.7-11.8,0.2-16.4c3.9-3.6,8.7-4.9,13.8-5.2c10.7-0.7,20.4,1.6,28.7,8.8c2.8,2.5,5,5.5,6.4,9
			c0.3,0.9,0.7,1.1,1.7,0.9c3-0.7,5.9-1.6,8.6-3.2c3.6-2.2,5.4-5.3,5.4-9.5c0-3-1.5-5.2-3.8-6.9c-3.8-2.9-8.3-4.5-12.8-5.8
			c-5.1-1.5-10.3-2.4-15.6-3.2c-1.9-0.3-3.7-0.8-5.3-1.9c-2.1-1.6-2.4-3.6-0.7-5.6c0.8-0.9,1.7-1.6,2.7-2.3
			c6.9-4.9,13.7-9.7,20.5-14.6C183.5,272.6,184.1,272.4,184.5,271.7z M166.6,327.4c0-0.4,0-0.5-0.1-0.6c-0.1-0.3-0.2-0.5-0.4-0.8
			c-2.5-4.1-6.2-6.4-10.7-7.5c-2.5-0.7-5.1-1.1-7.7-0.4c-1.1,0.3-2.1,0.8-2.4,2.1c-0.3,1.3,0.4,2.3,1.3,3.1c1.1,0.9,2.3,1.4,3.6,1.8
			C155.6,326.8,161,327.2,166.6,327.4z"/>
		<path class="st1" d="M90.8,271.5c-0.9,0-1.5,0-2.2,0c-14.6,0-29.1,0-43.7,0c-1,0-2-0.1-3-0.2c-3.1-0.6-5.1-2.8-5.1-5.5
			c0-2.7,2.2-5,5.3-5.5c0.8-0.1,1.7-0.1,2.5-0.1c21.1,0,42.2,0,63.4,0c1.7,0,3.4,0.1,5,0.9c3.7,1.9,4.3,5.6,1.4,8.6
			c-0.5,0.5-1.2,1-1.8,1.5c-7.7,5.5-15.4,11-23.1,16.6c-0.5,0.4-1.1,0.6-1.5,1.4c3.7,1,7.5,1.9,11.1,3.2c4.2,1.5,8.2,3.3,11.9,5.8
			c13.8,9,10.9,26.8-1.2,33.6c-5.5,3.1-11.4,4.8-17.6,5.7c-12,1.7-24,1.8-36-0.6c-5.9-1.2-11.6-2.9-16.4-6.8
			c-6-4.9-5.7-13.7,0.5-18.2c1.6-1.2,3.4-2.3,5.3-2.8c14.1-3.6,26.8-1.4,37.6,8.9c2.2,2.1,3.7,4.6,4.8,7.4c0.4,1,0.8,1.2,1.8,0.9
			c3.3-0.8,6.5-1.7,9.3-3.7c6.2-4.4,6.3-12.1,0.1-16.4c-4.8-3.4-10.4-4.9-16.1-6.3c-3.8-0.9-7.8-1.6-11.7-2.2
			c-1.7-0.3-3.4-0.7-4.8-1.6c-2.6-1.6-2.9-3.8-0.9-6.1c0.8-0.9,1.7-1.6,2.7-2.3c6.9-4.9,13.8-9.7,20.7-14.6
			C89.8,272.5,90.4,272.3,90.8,271.5z M70.2,327.3c0.8-0.2,2,0.5,2.3-0.3c0.3-0.7-0.6-1.6-1.1-2.3c-3-3.8-7-5.8-11.7-6.7
			c-1.9-0.3-3.7-0.6-5.6-0.1c-1.2,0.3-2.4,0.8-2.7,2.2c-0.3,1.5,0.6,2.5,1.7,3.3c1.1,0.8,2.4,1.3,3.7,1.7
			C61.1,326.6,65.6,326.9,70.2,327.3z"/>
		<path class="st1" d="M277.4,288.9c3.5,1.4,6.8,2.7,9.8,4.3c3.5,1.8,6.8,3.9,9.6,6.6c10.1,9.6,8.8,24.9-2.7,32.7
			c-4.7,3.2-10.1,4.6-15.6,5.3c-10.2,1.3-20,0-29.3-4.7c-2.8-1.4-5.3-3.1-7.8-5.1c-0.8,1.9-1.5,3.6-2.2,5.4
			c-1.1,3.1-3.3,4.5-6.4,4.8c-2.3,0.3-4.5-0.2-6.5-1.2c-2.9-1.5-3.8-3.9-2.6-6.9c4.2-10.5,8.5-20.9,12.7-31.4
			c2.2-5.3,6.8-7.1,12.1-4.8c3.7,1.6,4.7,4,3.2,7.7c-1.4,3.6-2.8,7.3-4.3,10.9c-0.4,1-0.3,1.7,0.3,2.6c4.4,6.1,10.5,9.4,17.7,10.8
			c5,1,9.9,0.8,14.6-1.1c7.7-3.1,9.7-11.5,4.1-17.6c-3.9-4.3-9-6.4-14.3-8.2c-2.9-1-6-1.9-8.9-2.9c-1.9-0.6-3.8-1.5-4-3.8
			c-0.2-2.2,1-3.8,2.7-5.1c6.5-5.1,12.9-10.2,19.5-15.4c-0.7-0.5-1.4-0.4-2-0.4c-11.2,0-22.4,0-33.5,0c-1.1,0-2.1-0.1-3.2-0.3
			c-3.1-0.7-5-3-4.9-5.7c0.1-2.6,2.4-4.8,5.4-5.2c0.7-0.1,1.4-0.1,2.1-0.1c17.1,0,34.2,0,51.3,0c1.9,0,3.8,0.2,5.4,1.2
			c2.9,1.8,3.5,4.5,1.7,7.4c-0.7,1.1-1.6,1.9-2.6,2.7C292,277.2,284.8,282.9,277.4,288.9z"/>
		<path class="st1" d="M327.4,337.3c-4,0-6.1-1.4-7.6-5.1c-4.4-10.5-8.8-21-13.2-31.5c-1.3-3.1-0.5-5.5,2.5-7.1
			c2.4-1.2,4.9-1.6,7.6-1c2.2,0.5,3.9,1.7,4.8,3.9c4.7,11,9.4,21.9,14,32.9c1.1,2.6,0.4,4.7-2,6.3
			C331.6,336.8,329.5,337.3,327.4,337.3z"/>
		<path class="st1" d="M353.1,317.5c0-5.7,0-11.5,0-17.2c0-1.3,0.2-1.9,1.7-1.8c2.1,0.1,4.3,0.1,6.4,0c1.1,0,1.6,0.3,1.5,1.5
			c-0.1,2.2,0.1,4.4-0.1,6.6c-0.1,1.3,0.4,1.7,1.6,2c7.9,1.9,15.5,4.5,23,7.7c2.1,0.9,2.1,0.9,0.9,2.8c-0.9,1.3-1.8,2.6-2.6,4
			c-0.7,1.2-1.3,1.1-2.4,0.6c-6-3.2-12.3-5.7-18.8-7.8c-1.3-0.4-1.7-0.3-1.7,1.2c0.1,6,0,12.1,0.1,18.1c0,1.2-0.3,1.7-1.6,1.6
			c-2.2-0.1-4.4-0.1-6.6,0c-1.2,0-1.5-0.4-1.5-1.5C353.2,329.4,353.1,323.4,353.1,317.5z"/>
		<path class="st1" d="M419.8,310.6c7.1,0,14.2,0,21.3,0c1.1,0,1.5,0.1,1.3,1.4c-2.1,12.6-8.9,19.5-22.3,22.6
			c-4.4,1-8.9,1.6-13.5,1.9c-1,0.1-1.4-0.2-1.7-1.1c-0.5-1.3-1-2.7-1.6-3.9c-0.6-1.3-0.1-1.4,1.1-1.5c5.6-0.2,11.2-0.8,16.6-2.5
			c4.6-1.5,8.4-4,10.4-8.7c0.8-2,0.9-2-1.2-2c-10.5,0-21,0-31.6,0c-1.3,0-1.9-0.2-1.7-1.6c0.2-1.5-0.6-3.5,0.3-4.4
			c0.9-1,2.9-0.3,4.4-0.3C407.6,310.6,413.7,310.6,419.8,310.6z"/>
		<path class="st1" d="M530.6,316.9c0-5.6,0.1-11.1,0-16.7c0-1.5,0.5-1.8,1.8-1.7c1.8,0.1,3.6,0.1,5.3,0c1.4-0.1,1.8,0.3,1.8,1.7
			c-0.1,8.2,0,16.4,0,24.7c0,1.9,0.1,2,1.8,1.3c5.5-2.2,8.4-6.7,9.9-12.2c0.6-2.2,0.6-2.2,2.6-1.4c1.6,0.6,3.2,1.3,4.8,1.8
			c1.1,0.4,1.3,0.9,0.9,2c-3,9.4-9.4,15.1-18.7,17.6c-2.9,0.8-5.8,1.1-8.7,1.4c-1.3,0.1-1.5-0.4-1.4-1.4
			C530.6,328.3,530.6,322.6,530.6,316.9z"/>
		<path class="st1" d="M469.5,301.9c2.9,0.3,5.6,1,7.9,2.9c7.9,6.6,15.8,13.4,23.7,20c0.8,0.7,0.8,1.1,0,1.7
			c-1.6,1.4-3.2,2.8-4.7,4.3c-0.9,0.9-1.5,0.9-2.4,0c-6.7-6.2-13.5-12.2-20.2-18.4c-0.5-0.4-1-0.9-1.5-1.3c-1.9-1.5-3.4-1.4-5.1,0.4
			c-3.3,3.6-6.6,7.1-9.8,10.7c-0.9,1.1-1.5,1.3-2.6,0.2c-1.5-1.6-3.2-3-4.8-4.4c-0.6-0.5-0.6-0.8,0-1.4c4-3.6,7.8-7.4,11.8-11
			C464.7,303,467.2,301.8,469.5,301.9z"/>
		<path class="st1" d="M522.1,308.1c0.1,5.6-0.3,12.2-2.3,18.6c-1,3.4-2.5,6.5-5,9.1c-0.7,0.8-1.3,0.8-2.1,0.1c-1.6-1.4-3.3-2.7-5-4
			c-0.4-0.4-1-0.6-0.3-1.3c3.7-3.8,4.7-8.6,5.3-13.6c0.7-5.5,0.3-11.1,0.4-16.7c0-1.3,0.3-1.8,1.7-1.7c1.9,0.1,3.8,0.1,5.7,0
			c1.3-0.1,1.6,0.4,1.5,1.6C522.1,302.5,522.1,304.8,522.1,308.1z"/>
		<path class="st2" d="M388.4,271.9c0-2.5,0.1-5.1,0-7.6c-0.1-1.6,0.4-2.2,2.1-2.1c2.7,0.1,5.3,0,8,0.1c1.2,0,1.8-0.3,1.6-1.6
			c-0.1-1,0-1.8,1.4-1.8c1.5,0,1.7,0.7,1.5,1.9c-0.1,1.2,0.4,1.5,1.5,1.5c2.8-0.1,5.7,0,8.5,0c1.2,0,1.7,0.3,1.7,1.6
			c-0.1,5.1,0,10.3,0,15.4c0,1.7-0.8,2.5-2.5,2.6c-1.4,0.1-2.8,0-4.3,0c-0.9,0-1.2-0.5-1.2-1.3c0-1,0.6-0.9,1.3-1
			c3.7-0.2,3.7-0.2,3.7-3.9c0-3.1-0.1-6.3,0-9.4c0-1.4-0.5-1.9-1.9-1.8c-1.8,0.1-3.5,0.1-5.3,0c-1.2,0-1.4,0.5-1,1.5
			c1.3,3.1,3.5,5.3,6.4,6.9c0.4,0.2,1.5,0.2,0.9,1.1c-0.5,0.7-0.9,1.8-2.2,1c-2.5-1.5-4.7-3.4-6.1-6c-0.6-1.2-1-1.2-1.8-0.1
			c-1.5,2.4-3.6,4.2-5.9,5.8c-1.1,0.8-1.7,0.3-2.3-0.6c-0.8-1.1,0.4-1.1,0.9-1.4c2.6-1.6,4.8-3.6,6.2-6.4c0.6-1.2,0.4-1.9-1.1-1.8
			c-1.7,0.1-3.3,0.1-5,0c-1.6-0.1-2.1,0.4-2.1,2c0.1,4.5,0,9,0,13.5c0,0.8,0.1,1.7-1.2,1.8c-1.3,0.1-2-0.2-2-1.7
			C388.5,277.2,388.4,274.5,388.4,271.9z"/>
		<path class="st1" d="M419.5,304.9c-5.7,0-11.5,0-17.2,0c-1.4,0-1.8-0.4-1.6-1.7c0.1-1.1,0.1-2.3,0-3.4c-0.1-1.2,0.4-1.4,1.4-1.4
			c11.7,0,23.4,0,35.1,0c1.2,0,1.5,0.4,1.5,1.5c-0.1,1.1-0.1,2.3,0,3.4c0.1,1.3-0.4,1.6-1.6,1.5
			C431.2,304.9,425.3,304.9,419.5,304.9z"/>
		<path class="st2" d="M510.6,267.8c-1.6-1.3-3.4-1.9-5.1-2.8c-0.5-0.3-1.6-0.2-1.1-1.1c0.4-0.8,1.1-1.4,2.2-1
			c0.4,0.2,0.9,0.3,1.3,0.6c2.9,2,5.3,0.6,8-0.8c-0.6-0.7-1.3-0.5-1.9-0.5c-4.7,0-9.5,0-14.2,0c-0.7,0-1.7,0.3-1.8-0.9
			c-0.1-1.4,1-1,1.8-1c6.9,0,13.7,0,20.6,0c0.7,0,1.6-0.3,1.8,0.9c0.2,0.9-0.4,1.4-1.2,1.8c-2.1,1-4.2,2.1-6.4,2.6
			c-1.6,0.3-0.6,1.6-1,2.3c-0.3,0.6,0.9,0.4,1.4,0.4c2.6,0,5.2,0,7.8,0c0.6,0,1.4-0.3,1.7,0.6c0.2,0.7,0.2,1.5-0.4,2.2
			c-1.8,1.9-3.8,3.7-6.1,5.1c-1.1,0.7-1.7-0.3-2.2-0.9c-0.7-0.8,0.4-0.9,0.8-1.2c1.3-1,2.7-1.8,4.1-3.5c-2.9,0-5.5,0-8,0
			c-1,0-0.7,0.9-0.7,1.5c0,2.4,0,4.7,0,7.1c0,2-0.8,2.9-2.9,3c-1.7,0.1-3.4,0-5.1,0.1c-1.1,0-1.3-0.7-1.4-1.5
			c-0.2-1.1,0.8-0.8,1.3-0.8c4.9-0.2,4.9-0.2,4.9-5c0-4.4,0-4.4-4.4-4.4c-2.4,0-4.8,0-7.3,0c-0.7,0-1.4,0-1.4-1.1
			c0-1.1,0.7-1.2,1.5-1.2c3.8,0,7.6,0,11.4,0C509,268.1,509.7,268.3,510.6,267.8z"/>
		<path class="st2" d="M366.6,260.3c3.9,0,7.8,0,11.7,0c1.3,0,1.8,0.4,1.8,1.7c-0.1,6.1,0,12.3,0,18.4c0,0.6,0.2,1.4-0.8,1.5
			c-0.7,0.1-1.6,0.4-2-0.6c-0.3-0.7-0.9-0.6-1.5-0.6c-6.1,0-12.2,0-18.3,0c-0.6,0-1.3,0-1.7,0.7c-0.4,0.9-1.3,0.7-2,0.5
			c-0.8-0.2-0.6-0.9-0.6-1.5c0-6.2,0-12.4,0-18.6c0-1.2,0.4-1.6,1.5-1.5C358.7,260.4,362.7,260.3,366.6,260.3z M366.8,278.8
			c3,0,5.9-0.1,8.9,0c1.3,0,1.7-0.5,1.7-1.7c-0.1-4.4-0.1-8.8,0-13.1c0-1.4-0.5-1.7-1.8-1.7c-6,0-11.9,0-17.9,0
			c-1.3,0-1.8,0.5-1.8,1.8c0,4.4,0.1,8.8,0,13.1c0,1.4,0.6,1.7,1.8,1.7C360.7,278.8,363.8,278.8,366.8,278.8z"/>
		<path class="st1" d="M317.4,256.9c2.1,0,4,0.5,5.7,1.7c3.4,2.4,3.5,6.6,0.3,9.2c-3.1,2.6-8.5,2.6-11.7,0.1c-3.2-2.6-3.2-6.5,0-9.1
			C313.3,257.4,315.3,256.9,317.4,256.9z"/>
		<path class="st1" d="M317.3,274c2.4,0,4.5,0.6,6.2,2.1c2.9,2.5,2.9,6.2,0,8.7c-3.1,2.7-8.7,2.7-11.9,0.1c-3.2-2.6-3.1-6.7,0.2-9.2
			C313.5,274.5,315.4,274,317.3,274z"/>
		<path class="st2" d="M433,273.7c-0.1,2.1,0.1,4.3-0.4,6.4c-0.4,1.7-4,3-5.3,1.9c-0.4-0.3-0.6-0.8-0.5-1.3c0.1-0.5,0.6-0.4,1-0.5
			c2.5-0.3,2.8-0.6,2.8-3.1c0-1.8,0-3.7,0-5.5c0-0.9,0.2-1.8-1.2-1.9c-1.4,0-1.3,1-1.3,1.8c-0.2,3.2-1.2,6.3-2.9,9
			c-0.3,0.5-0.5,1.6-1.5,0.9c-0.7-0.5-1.8-1.1-0.9-2.4c2.7-4,2.7-8.6,2.6-13.2c0-0.9-0.3-1.3-1.2-1.3c-0.8,0-1.4-0.2-1.4-1.2
			c0.1-1.1,0.9-1,1.6-0.9c1.7,0.2,2.8-0.1,2.5-2.2c-0.1-1,0.7-1,1.5-1c0.8,0,1.7,0,1.6,1.1c-0.2,2,0.9,2.3,2.5,2.1
			c0.6-0.1,1.2,0,1.8,0c0.7,0,0.9,0.4,0.9,1c0,0.7-0.2,1.2-1,1.2c-1.5,0-3,0.1-4.4,0c-1.2-0.1-1.7,0.4-1.7,1.6
			c-0.1,1.3,0.6,1.4,1.6,1.5c3.5,0.1,3.5,0.1,3.5,3.6C432.9,272.1,433,272.9,433,273.7z"/>
		<path class="st2" d="M440.3,276.3c0,1.5,0,3.1,0,4.6c0,0.9-0.4,1.3-1.3,1.3c-0.9,0-1.5-0.2-1.5-1.2c0-2.7,0-5.4,0-8.2
			c0-0.9,0.3-2-1.3-1.9c-0.7,0.1-0.8-0.8-0.9-1.3c-0.1-0.6,0.6-0.6,1-0.7c3.7-0.6,7.4-1.7,10.8-3.3c0.8-0.4,1.3-0.2,1.9,0.3
			c0.8,0.7,0.7,1.1-0.2,1.5c-1.2,0.5-2.3,1-3.4,1.4c-1.4,0.5-0.7,1.4-0.4,2.2c0.3,0.9,0.7,1.3,1.7,0.7c0.8-0.5,1.8-0.9,2.6-1.5
			c1-0.7,1.7-0.3,2.2,0.5c0.7,1.1-0.6,1-1,1.4c-0.6,0.5-1.4,0.9-2.1,1.3c-1.8,1-1.9,1.1-0.6,2.7c1,1.3,2.2,2.3,3.5,3.3
			c0.4,0.3,1.5,0.5,0.7,1.4c-0.6,0.7-1.3,1.9-2.6,0.8c-1.7-1.4-3.3-3-4.6-4.9c-1.1-1.6-2-3.4-2.6-5.2c-0.2-0.5-0.3-1.1-1-1
			c-0.8,0.1-0.9,0.6-0.9,1.3C440.3,273.1,440.3,274.7,440.3,276.3C440.3,276.3,440.3,276.3,440.3,276.3z"/>
		<path class="st2" d="M556.1,270.9c0-1.5,0-3,0-4.4c0-1.2-0.3-1.9-1.7-1.8c-0.6,0.1-1.2,0.1-1.8,0c-2.7-0.4-5.1,0.1-6.6,2.7
			c-0.6,1-1.4,1-2.3,0.1c-0.6-0.6-0.6-1,0-1.6c1.6-1.6,2.8-3.5,3.6-5.6c0.5-1.5,1.8-1.1,2.7-0.8c1,0.3,0.4,1.2,0.1,1.8
			c-0.5,1.2-0.2,1.6,1.1,1.6c2.2,0,4.4,0,6.6,0c0.9,0,1.3,0.3,1.3,1.2c-0.1,5.1,0,10.2-0.7,15.2c-0.3,2.2-1.2,2.9-3.4,3
			c-1.7,0-3.3,0-5,0c-1.2,0-1.6-0.6-1.6-1.6c0-1.2,1-0.7,1.6-0.8c1.1-0.1,2.1-0.1,3.2,0c1.7,0.2,2.4-0.6,2.6-2.3
			C555.8,275.4,555.9,273.1,556.1,270.9z"/>
		<path class="st2" d="M538.4,276.9c0,1.3,0,2.6,0,3.9c0,1-0.4,1.3-1.4,1.3c-1,0-1.4-0.4-1.3-1.4c0-2.5,0-5,0-7.4
			c0-1.2-0.3-1.8-1.6-1.6c-0.7,0.1-1.4,0-2.1,0.1c-0.7,0-1.3,0-1.3-1c0-0.8,0.5-0.9,1.2-0.9c0.5,0,1,0,1.4-0.2
			c1.8-0.9,1.8-2,0.2-3.3c-0.6-0.4-1.1-0.9-1.7-1.3c-1.4-0.8-0.4-1.8,0.2-1.9c2-0.2,2.4-1.9,3.4-3c0.4-0.5,0.7-1,1.5-0.8
			c1.1,0.3,1.6,0.7,0.7,1.8c-0.7,0.8-1.3,1.7-1.9,2.5c-0.5,0.6-0.5,1.1,0.2,1.6c0.6,0.5,1.1,0.5,1.6-0.2c0.6-0.8,1.3-1.6,1.8-2.4
			c0.7-1.1,1.7-0.8,2.4-0.3c0.8,0.6-0.1,1.1-0.5,1.6c-1.2,1.5-2.5,3-3.8,4.4c-0.3,0.3-0.7,0.6-0.4,1c0.2,0.3,0.7,0.3,1,0.2
			c0.8-0.3,2.6,0.6,1.9-1.6c-0.1-0.4,0.3-0.6,0.6-0.7c0.5-0.1,1.1-0.3,1.4,0.3c0.5,1,1.1,2,1.6,3c0.2,0.4,0.1,0.7-0.3,0.9
			c-0.6,0.2-1.2,0.5-1.8,0.2c-2.4-1.1-3-0.7-3,1.9C538.4,274.8,538.4,275.8,538.4,276.9C538.4,276.9,538.4,276.9,538.4,276.9z"/>
		<path class="st2" d="M480,267.1c2.7,0,5.3,0,8,0c0.8,0,1.4,0.1,1.4,1.1c0,1-0.6,1.1-1.4,1.1c-3.5,0.2-3.5,0.2-3.5,3.8
			c0,2.2,0,4.5,0,6.7c0,1.6-0.7,2.3-2.2,2.3c-1.8,0-3.5,0-5.3,0c-1,0-1.4-0.4-1.5-1.4c-0.1-1.2,0.8-0.9,1.5-0.9
			c4.5-0.1,4.5-0.1,4.5-4.7c0-1.4-0.1-2.8,0-4.3c0.1-1.2-0.4-1.7-1.6-1.7c-2.6,0.1-5.2,0-7.8,0c-0.9,0-1.7,0.1-1.6-1.2
			c0.1-1.3,0.9-1,1.7-1C474.6,267.1,477.3,267.1,480,267.1z"/>
		<path class="st2" d="M463.4,277.2c0-0.7,0-1.3,0-2c0-0.8,0.3-1.9-0.3-2.4c-0.7-0.5-1.3,0.5-1.9,0.9c-0.5,0.3-1,0.2-1.1-0.3
			c-0.2-0.7-1.3-1.4-0.2-2.2c2.6-1.8,5-4,6.9-6.6c0.7-1,1.7-0.4,2.4,0.1c1,0.6,0.1,1.2-0.3,1.5c-2.2,1.9-2.5,4.3-2.3,7
			c0.2,2.4,0,4.8,0,7.3c0,1.2-0.4,1.5-1.6,1.5c-1.2,0-1.6-0.4-1.6-1.5C463.5,279.5,463.4,278.3,463.4,277.2
			C463.4,277.2,463.4,277.2,463.4,277.2z"/>
		<path class="st2" d="M445.7,264.3c-0.8,0-1.5,0.1-2.3,0c-2.4-0.3-4.5,0.1-6.1,2.2c-0.4,0.6-1.1,1.4-2.1,0.7
			c-0.8-0.6-1.4-1.1-0.2-2c1.7-1.4,3.1-3.1,4-5.1c0.7-1.6,1.9-0.7,2.7-0.5c1,0.2,0.2,1,0,1.4c-0.4,1.1,0.2,1.1,0.9,1.1
			c2.6,0,5.2,0,7.8,0c0.7,0,1.6-0.2,1.7,1c0,1.3-0.9,1.2-1.7,1.2C448.8,264.3,447.3,264.3,445.7,264.3z"/>
		<path class="st1" d="M483.6,302.2c1.2-0.6,2.3-1.1,3.4-1.7c0.5-0.3,0.9-0.1,1.3,0.2c1.5,1.4,3,2.9,4.3,4.5c0.5,0.6,0.5,1-0.3,1.3
			c-0.1,0-0.1,0.1-0.2,0.1c-3.1,1.8-3.1,1.8-5.4-0.9C485.8,304.6,484.7,303.4,483.6,302.2z"/>
		<path class="st1" d="M490.5,299.2c1.1-0.6,2.2-1.1,3.3-1.7c0.5-0.2,0.9-0.2,1.3,0.1c1.6,1.3,3.1,2.7,4.4,4.3
			c0.2,0.2,0.6,0.5,0.4,0.7c-1,1-2.4,1.5-3.7,2.1c-0.7,0.4-0.9-0.5-1.3-0.9C493.5,302.4,492,300.9,490.5,299.2z"/>
		<path class="st2" d="M479.5,262.3c-2.2,0-4.5,0-6.7,0c-0.7,0-1.3-0.1-1.3-1c0-0.9,0.6-1.1,1.3-1.1c4.7,0,9.3,0,14,0
			c0.8,0,1.2,0.2,1.2,1.1c0,1-0.7,1-1.3,1C484.2,262.3,481.8,262.3,479.5,262.3z"/>
		<path class="st2" d="M461.4,266.2c-0.9,0-1.3-0.7-1.6-1.3c-0.5-0.8,0.3-0.9,0.7-1.1c2-1.1,3.8-2.4,5.2-4.2c0.9-1.1,1.8-0.5,2.5,0
			c0.7,0.6-0.2,1.1-0.5,1.5c-1.4,1.8-3.2,3.3-5.2,4.5C462.1,265.8,461.7,266,461.4,266.2z"/>
		<path class="st2" d="M547.9,268.9c0.8,0,1.1,0.4,1.3,0.7c0.8,1,1.5,2.1,2.2,3.2c0.4,0.6,1,1.3-0.2,1.9c-0.9,0.4-1.7,0.7-2.3-0.6
			c-0.5-1.1-1.3-2.1-1.9-3.1c-0.2-0.4-0.9-0.8-0.5-1.3C546.9,269.2,547.6,269.1,547.9,268.9z"/>
		<path class="st2" d="M531,279.1c0.4-1.6,0.7-3,0.8-4.5c0-0.6,0.1-1.1,0.9-0.9c0.7,0.2,1.8-0.1,1.7,1.1c-0.1,1.7-0.4,3.4-0.9,5
			c-0.3,0.9-1,0.6-1.6,0.4C531.2,280,530.7,279.7,531,279.1z"/>
		<path class="st2" d="M541.9,278.9c-0.8,0.1-1.2-0.1-1.3-0.8c-0.2-1.1-0.4-2.2-0.6-3.3c-0.1-0.6,0.1-1,0.7-1.2
			c0.6-0.2,1.2-0.1,1.4,0.6c0.4,1.2,0.8,2.5,1,3.7C543.3,279,542.3,278.8,541.9,278.9z"/>
		<path class="st2" d="M372.8,274.9c0.6,0,1.2,0,1.7,0c0.6,0,1.1,0.1,1.1,0.8c0,0.7-0.3,1-0.9,1c-5.3,0-10.6-0.1-16-0.1
			c-0.6,0-1-0.3-1-1c0.1-0.8,0.6-0.7,1.2-0.8c1.5,0,3.1,0,4.6,0c1.5,0,1.4-1,1.4-1.9c0-1,0.2-2.1-1.4-2.1c-1.2,0-2.4,0-3.5,0
			c-0.6,0-1.1-0.1-1.1-0.8c0-0.8,0.6-0.8,1.1-0.8c1,0,2,0,3,0c1.2,0.1,1.9-0.1,1.9-1.6c0-1.5-0.9-1.5-2-1.5c-1.2,0-2.5,0-3.7,0
			c-0.6,0-1-0.2-1-0.9c0-0.7,0.4-0.9,1-0.9c4.9,0,9.8,0,14.7,0c0.6,0,1,0.2,1.1,0.9c0,0.8-0.5,1-1.1,1c-1.7,0-3.3,0-5,0
			c-1.2,0-1.3,0.6-1.3,1.6c0,1,0.3,1.6,1.4,1.5c1.4-0.1,2.8,0,4.3,0c0.6,0,1.4-0.1,1.4,0.9c0,0.8-0.4,1-1.1,1
			c-1.1,0-0.8,0.7-0.4,1.2c0.8,0.9,0.9,1.7-0.6,2.2C372.6,274.6,372.7,274.7,372.8,274.9z M369.9,274.8c0.2-0.1,1,0.4,1.4-0.3
			c0.3-0.6-0.3-1.1-0.6-1.6c-0.2-0.4-0.6-0.8-0.5-1.1c0.4-0.9-0.3-0.8-0.8-0.9c-1.1-0.1-1.9,0.1-1.8,1.5
			C367.7,273.7,367.3,275.2,369.9,274.8z"/>
	</g>
</g>
</svg>
