<?xml version="1.0" encoding="utf-8"?>
<!-- Generator: Adobe Illustrator 26.3.1, SVG Export Plug-In . SVG Version: 6.00 Build 0)  -->
<svg version="1.1" id="Layer_1" xmlns="http://www.w3.org/2000/svg" xmlns:xlink="http://www.w3.org/1999/xlink" x="0px" y="0px"
	 viewBox="0 0 595.3 595.3" style="enable-background:new 0 0 595.3 595.3;" xml:space="preserve">
<style type="text/css">
	.st0{fill:#FFFFFF;}
	.st1{fill:#ECA946;}
	.st2{fill:#0A0A0A;}
</style>
<path class="st0" d="M297.6,595.3L297.6,595.3C133.3,595.3,0,462,0,297.6l0,0C0,133.3,133.3,0,297.6,0l0,0
	C462,0,595.3,133.3,595.3,297.6l0,0C595.3,462,462,595.3,297.6,595.3z"/>
<g id="MtPkWr.tif_00000057142061159167334310000013794860975752782246_">
	<g>
		<path class="st1" d="M268.4,157.7c0-17.9,16.1-32.6,36.8-31.3c18.3,1.1,32.9,18.9,30.3,37.7c-1.4,10.6-6.5,19.1-16,24.9
			c-23.3,14.1-46.4,28.5-69.6,42.9c-2.4,1.5-3.3,1.3-4-1.3c-0.4-1.6-1.1-3.2-1.6-4.8c-2.1-6.4-2.1-6.4,3.7-9.9
			c21.4-13.1,42.6-26.3,64.2-39c7.8-4.6,9.9-14.2,8.1-21.9c-1.7-7.1-9-13.2-16.7-13.7c-8.5-0.6-16.2,4.2-19.4,12.1
			c-3.1,7.6-0.9,16.4,5.9,21.6c2.7,2,2.4,2.9-0.2,4.5c-2.4,1.4-4.8,3-6.9,4.8c-2.2,1.9-3.8,1.3-5.5-0.6
			C271.6,176.7,268.3,169,268.4,157.7z"/>
		<path class="st1" d="M251.5,295.5c-8.6-0.1-8.6-0.1-10.9-7.6c-7.1-22.7-14.2-45.5-21.4-68.2c-2.7-8.5-11.3-14.4-19.5-13.6
			c-9.2,1-16.5,7.8-17.5,16.4c-1.1,9.5,4,17.9,13,20.8c5.7,1.8,11.4,1.1,16.4-2.4c2.4-1.7,3.3-1.1,3.9,1.5c0.7,2.8,1.5,5.6,2.5,8.4
			c0.9,2.4,0.4,3.6-2,4.8c-12.2,6.1-27.4,4-37.8-5.4c-10.1-9.2-13.7-24.3-8.7-37.1c4.9-12.7,17.4-21.4,30.8-21.5
			c15.5-0.1,28.4,9.1,33.1,23.8c8.2,25.5,16.2,51,24.4,76.4c1,3.1,0.3,4.1-2.8,3.7C253.6,295.4,252.1,295.5,251.5,295.5z"/>
		<path class="st1" d="M275.4,303c14.1,0,28.2,0,42.3,0c4.7,0,4.7,0,3.1,4.2c-1,2.5-2,5-2.7,7.5c-0.7,2.8-2.2,3.5-4.9,3.4
			c-20.9-0.8-41.8-0.3-62.7-0.6c-5.4-0.1-10.7-0.2-16.1-0.1c-11.2,0.2-19.5,9.7-18.4,20.8c1.1,10.8,11.4,18.7,22,16.7
			c11.4-2.1,18.1-12.6,15.2-23.6c-1.1-4-1.1-4,2.9-3.8c2.4,0.1,4.9,0.3,7.3,0.1c3.4-0.4,4.7,1,5,4.3c1.2,14.1-3.6,25.5-15.7,33
			c-11.6,7.2-23.9,7.2-35.6,0c-19.7-12.3-21.5-39.5-3.8-54.5c5.7-4.8,12.5-7.4,20.1-7.5C247.4,303,261.4,303,275.4,303z"/>
		<path class="st1" d="M388.4,334.7c0,17-13.3,31.9-29.7,33.3c-18.4,1.5-33.6-9.9-37.1-27.4c-1.5-7.9,0.3-15.1,2.9-22.4
			c8.5-23.7,17-47.4,25.4-71.1c0.8-2.2,1.5-2.7,3.4-1.1c3.1,2.5,7.7,4.1,9.3,7.3c1.7,3.4-1.7,7.5-3,11.2
			c-7.3,20.7-14.8,41.5-22.3,62.1c-5.1,14,4.2,27.7,18.4,27c9.9-0.5,18-8.9,18-19c0.1-10-7.5-18.5-17.5-18.9
			c-3.6-0.2-3.5-1.4-2.3-3.9c1.1-2.5,2.2-5.2,3-7.8c0.8-2.6,2.1-3,4.6-2.4C377.7,304.9,388.4,318.1,388.4,334.7z"/>
		<path class="st1" d="M395.5,258.6c-7.2,0.3-13.7-2-19.4-6.2c-21.5-15.5-42.9-31.1-64.4-46.6c-2.3-1.7-2.1-2.4,0.2-3.6
			c3.7-2,7.1-5.9,11.1-5.9c3.8,0,6.8,4.2,10.2,6.6c17,12.4,33.9,24.8,50.9,37.2c9,6.5,20.2,5,27-3.7c6.2-8,4.7-19.5-3.6-26.4
			c-9.6-8-24.4-3.8-29.3,8.1c-1.6,3.9-1.6,3.9-5.1,1.3c-1.8-1.3-3.4-2.8-5.3-3.9c-3.1-1.8-3.3-3.8-1.6-6.9
			c7.4-13.2,22.9-20.1,37.6-16.5c14.6,3.6,25.1,16.6,25.5,31.7C429.8,243.6,415.1,258.6,395.5,258.6z"/>
		<path class="st2" d="M199.8,443.2c0,3.3-0.2,6.6,0.1,9.8c0.3,3.7-2.1,3.4-4.5,3.5c-2.5,0-4.5,0-4.3-3.6c0.3-6.4,0-12.9,0.1-19.3
			c0-2,0.1-3.6-2.8-3.3c-2.6,0.3-2.5-1.8-2.5-3.5c0-1.7-0.2-3.8,2.5-3.4c2.9,0.4,2.7-1.4,2.7-3.3c0.4-9.1,5.4-13.1,13.7-11.3
			c3.6,0.8,3,3.3,2.9,5.6c-0.2,3-2.3,1.1-3.5,1.1c-1.5,0-2.9,0-3.8,1.5c-1,1.8-0.8,3.7-0.5,5.7c0.1,0.6,0.7,0.5,1.2,0.5
			c0.9,0,1.7,0,2.6,0c6.7,0,6.7,0,7.8-6.6c1.1-7,7.4-10.7,14.1-8.4c3.1,1.1,2.4,3.6,2.2,5.8c-0.3,2.7-2.1,0.9-3.3,0.8
			c-1.7-0.2-3.2,0.2-4.1,1.8c-1,1.9-1.1,4.1-0.5,6c0.5,1.3,2.2,0.7,3.3,0.6c2.5-0.2,3.5,0.8,3.5,3.3c0,2.3-0.4,4.2-3.4,3.7
			c-3.1-0.5-3.8,0.8-3.7,3.8c0.2,6.4-0.1,12.9,0.1,19.3c0.1,3.4-2.1,3.1-4.1,3c-2-0.1-4.6,0.7-4.6-2.9c0.1-6.6-0.1-13.1,0.1-19.7
			c0.1-2.5-0.4-3.6-3.3-3.6c-8,0.2-8,0-8,8.2C199.8,440,199.8,441.6,199.8,443.2z"/>
		<path class="st2" d="M133.2,457.1c-4.3,0.1-7.4-0.8-10.4-2c-1.5-0.6-2.9-1.6-3-3.3c-0.1-1.8-0.9-3.9,0.8-5.2
			c1.4-1.1,2.5,0.8,3.8,1.3c3,1.2,5.9,2.3,9.2,1.9c2.6-0.4,5-1.4,5.7-4.3c0.7-3-1.1-4.9-3.5-6.1c-2.6-1.4-5.2-2.5-7.8-3.9
			c-4.9-2.5-7.6-6.3-7.4-11.9c0.2-5.8,3.6-10.2,9.2-11.7c3.8-1,7.7-0.9,11.5,0.1c4.3,1.1,5.2,2.6,4.9,7c-0.2,2.1-1,2.6-2.8,1.5
			c-2.7-1.7-5.5-2.5-8.7-2.3c-2.2,0.1-4.1,0.8-4.7,3.2c-0.6,2.4,0.2,4.4,2.3,5.6c2.3,1.3,4.8,2.4,7.2,3.5c7.3,3.5,10.1,8.1,9.1,14.8
			c-1,6.3-5.8,10.5-13.2,11.6C134.2,457.1,133.2,457.1,133.2,457.1z"/>
		<path class="st2" d="M344.5,411.2c2.7-0.1,5.3,0.3,7.8,1.3c1,0.4,2.2,0.8,2.6,1.9c0.8,2,1.1,4.3,0,6c-1.2,1.8-2.7-0.4-4-0.9
			c-2.4-0.9-4.9-1.5-7.5-1.2c-2.1,0.2-3.7,1.1-4.3,3.3c-0.6,2.2,0.3,3.8,1.9,5.1c2.1,1.7,4.7,2.6,7.1,3.6c7.3,3.2,10.2,7.4,9.8,13.7
			c-0.6,7.4-5.8,12.2-14.1,13c-3.4,0.3-6.7-0.3-10-1.3c-3.7-1.1-5.1-3.3-4.7-7c0.3-2.4,0.9-3.2,3.2-1.8c2.9,1.8,6.1,3,9.6,2.8
			c3.1-0.1,5.8-1,6.6-4.5c0.7-3.2-1.4-5-3.9-6.3c-2.4-1.2-4.8-2.2-7.2-3.5c-6.2-3.4-8.8-8.7-7.4-14.7c1.3-5.7,6.2-9.3,13-9.7
			C343.5,411.1,344,411.2,344.5,411.2z"/>
		<path class="st2" d="M270.7,422.6c11.8,0,17.9,7.9,15.8,20.6c-2,12.3-15.9,18.3-26.3,11.4c-5.5-3.7-7.9-13.3-5.3-21.2
			C257.3,426.1,262.4,422.7,270.7,422.6z M277.9,439.8c0-6-1.9-9.5-5.6-10.3c-4.6-1-8,1.3-9.1,6.1c-1.6,7.3,0.6,13.3,5.1,14.3
			c0.4,0.1,0.7,0.1,1.1,0.1C275,450.4,277.9,446.8,277.9,439.8z"/>
		<path class="st2" d="M434.7,444.5c1.9-6.1,3.8-12.2,5.8-18.2c1-3,5.8-4.5,8.3-2.7c1.3,1,0.6,2.2,0.2,3.3
			c-3.6,10.6-7.1,21.2-10.7,31.7c-0.8,2.4-1.7,4.8-2.5,7.2c-0.6,1.9-1.7,2.7-3.6,2.9c-6.3,0.7-7.3-0.2-4.6-5.7
			c2.2-4.5,1.6-8.3-0.2-12.5c-3.1-7.4-5.8-14.9-8.5-22.5c-0.5-1.5-2.6-3.7,0.5-4.8c3.4-1.2,6.8-0.2,7.8,2.3c1.8,5,3.6,10.1,5.3,15.1
			c0.4,1.2,0.9,2.5,1.3,3.7C434.2,444.5,434.5,444.5,434.7,444.5z"/>
		<path class="st2" d="M414.4,443.7c0,3,0.1,6.1,0,9.1c0,1.2,0.7,3.1-1.1,3.4c-1.9,0.4-4.5,1.3-5.7-0.7c-1.2-2-2-1-3.1-0.4
			c-3.5,2.1-7.3,2.6-11.2,1.3c-4.4-1.5-6.7-4.4-6.8-8.8c-0.1-4.5,1.9-7.5,6.2-9.3c3-1.2,6.2-1.2,9.3-1.6c1.3-0.2,3.8,1.5,3.9-1.6
			c0.1-2.7-0.3-5.2-3.6-5.9c-3.5-0.7-6.7,0.3-9.9,1.6c-1.2,0.5-2.7,2.3-3.6,0.2c-0.8-1.8-1.2-4.1,0.8-5.7c4.2-3.5,16.5-3.8,20.9-0.6
			c2.2,1.6,3.5,3.8,3.6,6.4c0.2,4.1,0,8.3,0,12.4C414.1,443.7,414.3,443.7,414.4,443.7z M402.4,442.2c-5.2,0.1-7.7,1.7-7.6,4.8
			c0.2,3,2.1,3.9,4.8,3.8c3.7-0.1,6-2.6,6.2-6.1C406.1,441.6,404.2,442.2,402.4,442.2z"/>
		<path class="st2" d="M301.7,427c2.8-2.4,6-4.5,10.2-4.4c5.8,0.2,10,3.3,10.4,9.1c0.5,7.5,0.4,15.1,0.3,22.6c-0.1,3.4-3,2-4.8,2.1
			c-1.8,0.2-3.8,0.2-3.8-2.6c0.1-4.6,0-9.2,0-13.9c0-1.3,0-2.7-0.1-4c-0.3-4-2.1-5.9-5.1-5.8c-3.1,0.1-6.6,3.5-6.7,6.5
			c-0.1,5.6-0.1,11.2,0,16.8c0.1,3.3-2.1,3.1-4.1,3c-2-0.1-4.7,0.8-4.7-2.8c0.1-9.2,0.1-18.5,0-27.7c0-2.2,1.2-2.8,2.9-2.7
			c1.7,0.1,4.1-1,4.5,2.1C300.9,425.8,300.7,426.5,301.7,427z"/>
		<path class="st2" d="M173.7,453.6c-4.5,3.3-9.1,4.6-14.2,2.6c-3.8-1.4-6-4.5-6.2-8.6c-0.1-4.2,1.8-7.1,5.6-9
			c3.3-1.5,6.8-1.5,10.3-1.9c1.2-0.1,3.5,1.4,3.6-1.5c0.1-2.5-0.2-5-3.2-5.9c-3.6-1-7,0.1-10.3,1.4c-1.3,0.5-2.9,2.6-3.9,0.2
			c-0.8-1.8-1.1-4.1,1-5.7c4.1-3.2,15.9-3.7,20.4-0.9c2.3,1.5,3.8,3.5,4,6.2c0.8,7.9,0.2,15.8,0.4,23.7c0,1.3-0.6,2.1-1.9,2.1
			C177,456.4,174.3,457.4,173.7,453.6z M172.9,445c0-2.8,0-2.8-3.1-2.8c-5.6,0-8,1.5-7.9,4.8c0.1,3,2,3.9,4.6,3.8
			C170.1,450.8,172.9,448.3,172.9,445z"/>
		<path class="st2" d="M365.8,440.1c0-2.2-0.1-4.4,0-6.6c0.1-2.1-0.1-3.5-2.8-3.3c-2.4,0.2-2.1-1.9-2.1-3.4c0-1.4-0.5-3.7,2-3.5
			c3,0.2,3-1.3,3-3.5c-0.1-4.1,3.6-6.2,7.5-4.4c1.5,0.7,1.2,2.1,1.1,3.1c-0.6,3.7,0.7,5.4,4.6,4.7c2.5-0.5,3.4,0.7,3.5,3.2
			c0,2.7-0.7,4.3-3.7,3.7c-3.4-0.6-4.7,0.5-4.4,4.2c0.4,3.7,0,7.5,0.1,11.3c0.1,2.7,1.5,4.3,4.5,3.9c1.1-0.1,2.7-2,3.2,0.4
			c0.4,2,1.1,4.5-1.3,6c-5.5,3.5-13.8-0.2-14.7-6.6c-0.4-3.1-0.4-6.3-0.5-9.4C365.7,440.1,365.8,440.1,365.8,440.1z"/>
		<path class="st2" d="M464.9,422.6c2.4,0,4.4,0.2,6.2,0.8c2.5,0.8,3.9,4.1,2.8,6.5c-0.7,1.5-1.5,0.6-2.4,0.3
			c-2.2-0.8-4.3-1.8-6.7-1.6c-1.8,0.1-3.5,0.8-4,2.6c-0.6,2.1,1.1,3.1,2.7,3.8c2.3,1.1,4.7,1.9,7,3.1c3.7,1.9,5.7,4.9,5.3,9.2
			c-0.3,4.1-2.5,7-6.4,8.5c-4.9,2-9.8,1.7-14.5-0.3c-2.1-0.9-3.3-4.7-2.2-6.5c0.9-1.5,1.9-0.5,2.8,0c2.3,1.3,4.7,2,7.3,1.8
			c2-0.1,4-0.5,4.3-3c0.3-2.2-1.1-3.3-2.9-4.1c-1.5-0.6-2.9-1.2-4.4-1.9c-5.8-2.5-8.1-6-7.2-11.2c0.8-4.6,4.6-7.6,10.4-8
			C463.9,422.7,464.6,422.7,464.9,422.6z"/>
		<path class="st2" d="M239.2,427.8c2.7-3,5-5.5,8.9-5.1c4.7,0.4,3,3.8,3.2,6.3c0.3,3-1.6,2.3-3.5,1.9c-3.5-0.6-7.4,3.2-7.5,7.2
			c-0.1,5.1-0.2,10.2,0,15.3c0.2,3.6-2.1,3.2-4.3,3.2c-2.1,0-4.5,0.5-4.4-3.1c0.2-8.5,0-17,0.1-25.5c0-2.2-0.8-4.8,3-4.9
			C237.6,423,239.6,423.6,239.2,427.8z"/>
	</g>
</g>
</svg>
