<?xml version="1.0" encoding="utf-8"?>
<!-- Generator: Adobe Illustrator 26.3.1, SVG Export Plug-In . SVG Version: 6.00 Build 0)  -->
<svg version="1.1" id="Layer_1" xmlns="http://www.w3.org/2000/svg" xmlns:xlink="http://www.w3.org/1999/xlink" x="0px" y="0px"
	 viewBox="0 0 595.3 595.3" style="enable-background:new 0 0 595.3 595.3;" xml:space="preserve">
<style type="text/css">
	.st0{fill:#FFFFFF;}
	.st1{fill:#3E90CD;}
	.st2{fill:#F5B947;}
	.st3{fill:#58BD79;}
</style>
<path class="st0" d="M297.6,595.3L297.6,595.3C133.3,595.3,0,462,0,297.6l0,0C0,133.3,133.3,0,297.6,0l0,0
	C462,0,595.3,133.3,595.3,297.6l0,0C595.3,462,462,595.3,297.6,595.3z"/>
<path class="st0" d="M584.9,375.9c0.5-2,1.1-4,1.6-6L584.9,375.9z"/>
<polygon class="st0" points="586.4,369.9 586.4,369.9 586.4,369.9 "/>
<g>
	<path class="st1" d="M376.9,160.4c1.9-1.6,4.4-3.1,4.4-6.5c-0.9-1.6-2.2-3.7-3.4-5.3c-15.9-19-32-37.7-47.6-56.6
		c-5.3-6.5-8.7-5.9-14.6-0.9c-55.4,47-111.1,93.3-166.8,140.3c-8.7,7.2-8.7,7.5-1.2,16.2c12.1,14.3,23.6,28.9,36.4,42.6
		c5.3,5.9,9.3,13.7,15.9,18.4l136.6-114.2C350.1,183.1,363.5,171.6,376.9,160.4z"/>
	<path class="st2" d="M450.3,351.1c-13.7-15.6-26.8-31.4-39.8-47.6c-5-6.2-10.6-11.5-16.8-15.6l-83.1,70c-1.6,3.1-5.9,5.3-9,7.5
		c-6.8,5.6-13.4,11.2-20.2,16.8l-3.4,3.1l0,0c-19.9,16.5-39.5,33.3-59.4,49.8c-4.4,3.4-5,6.5-1.2,10.6
		c16.5,19.3,33.3,38.9,49.5,58.5c4.4,5.3,7.2,5,12.4,0.6c28-24,56.6-47.6,84.9-71.6c28.3-23.6,56.6-47.6,85.3-71.3
		C453.8,358.6,454.7,355.8,450.3,351.1z"/>
	<path class="st3" d="M299.1,348.6c4.4,1.9,11.5,1.6,12.1,6.5c0,0.9,0,1.9-0.6,2.8l83.1-70c-4-2.8-8.4-5-13.4-6.8
		c-30.5-11.2-60.4-23.6-90.5-35.8c-9.3-3.7-9.3-4-1.2-10.6l-88.7,73.7c1.2,0.9,2.5,1.6,4,2.2C235.6,323.4,267.7,335.9,299.1,348.6z"
		/>
</g>
</svg>
