<?xml version="1.0" encoding="utf-8"?>
<!-- Generator: Adobe Illustrator 26.3.1, SVG Export Plug-In . SVG Version: 6.00 Build 0)  -->
<svg version="1.1" id="Layer_1" xmlns="http://www.w3.org/2000/svg" xmlns:xlink="http://www.w3.org/1999/xlink" x="0px" y="0px"
	 viewBox="0 0 595.3 595.3" style="enable-background:new 0 0 595.3 595.3;" xml:space="preserve">
<style type="text/css">
	.st0{fill:#FFFFFF;}
	.st1{fill:url(#SVGID_1_);}
	.st2{fill:#F5B947;}
	.st3{fill:#58BD79;}
	.st4{fill:#3E90CD;}
	.st5{fill:none;}
</style>
<path class="st0" d="M297.6,595.3L297.6,595.3C133.3,595.3,0,462,0,297.6l0,0C0,133.3,133.3,0,297.6,0l0,0
	C462,0,595.3,133.3,595.3,297.6l0,0C595.3,462,462,595.3,297.6,595.3z"/>
<g>
	<linearGradient id="SVGID_1_" gradientUnits="userSpaceOnUse" x1="151.5257" y1="273.7759" x2="543.0484" y2="273.7759">
		<stop  offset="0" style="stop-color:#58BD79"/>
		<stop  offset="0.9994" style="stop-color:#3E90CD"/>
	</linearGradient>
	<path class="st1" d="M377.2,263.2c-0.3-3.1-0.9-6.2-1-9.3c-0.1-7.6,0-15.3-0.1-23c0-2.3,0.8-3.1,3.1-3.1c3.7,0.1,7.4,0.2,11.1,0
		c2.8-0.2,3.1,1.3,3.1,3.6c0,17.1,0,34.3,0,51.4c0,11.1-0.1,22.1,0,33.2c0,2.5-0.7,3.5-3.3,3.4c-3.2-0.2-6.5-0.2-9.7,0
		c-2.4,0.1-3.4-0.8-3.2-3.2c0.1-1.1,0.4-2.4-0.4-3.4c-0.2,0-0.5,0-0.6,0.1c-10.5,14.5-35,10.8-44.8-6.9c-6.7-12.3-5.6-30.1,3.9-41.3
		c8.4-9.8,23.6-13.2,34.4-7.2C372.5,259,374.4,261.4,377.2,263.2z M344.5,288.2c0,0.4,0,1.1,0,1.7c0.3,12.2,13,19.8,23.8,14.2
		c6.9-3.5,10.4-12.3,8.5-20.7c-2.3-9.6-11.1-15-20.3-12.6C350.2,272.5,343.9,279.3,344.5,288.2z M169.7,228.6
		c-15.8,7.2-20.9,27-7.8,39.9c4.5,4.5,10.1,7,16,9.1c6.1,2.2,12.3,4.1,17.4,8.3c5.6,4.5,5.2,13.2-0.9,17c-7.5,4.6-17.6,2.5-22.7-4.7
		c-1.4-2.1-2.5-4.3-3.4-6.6c-0.6-1.6-1.4-2.2-3.1-1.5c-4,1.7-8,3.3-12.1,4.8c-1.7,0.6-2,1.5-1.4,3.2c2.4,6.8,6.2,12.6,12.1,16.8
		c10.6,7.7,22.3,8.7,34.5,4.5c9.9-3.5,16.6-10.2,18.2-21c1.6-11-1.8-20-11.1-26.5c-5.3-3.8-11.5-5.9-17.6-8
		c-5-1.7-10.1-3.3-13.9-7.2c-3.7-3.8-3-9.4,1.4-12.4c7.3-5,17.2-2.9,21.6,4.8c1.2,2.1,2.2,2.4,4.3,1.4c3.2-1.5,6.4-2.9,9.7-4.1
		c2.5-0.9,2.8-2,1.6-4.3c-5.8-11.6-15.6-16.4-28.1-16.5C178,225.7,175.1,226.1,169.7,228.6z M509.8,321.6
		c-18.2,0.7-33.6-13.5-33.4-33.5c0.2-19.7,13.9-33.6,33.4-33.6c19.7,0,33.4,13.9,33.3,33.9C543,307.9,529.3,321.6,509.8,321.6z
		 M525.7,288.2c0-1,0.1-2,0-3c-0.7-6.2-3.7-10.9-9.3-13.4c-5.5-2.5-11-2-16,1.6c-6.7,4.7-9,16.3-4.9,23.8c2.2,4.1,5.4,7.3,10.1,8.4
		C516.9,308.1,525.8,300.5,525.7,288.2z M436.1,321.6c-19.4,0-33.4-14.1-33.4-33.6c0-19.4,14.2-33.5,33.7-33.5
		c19.3,0,33.5,14.2,33.4,33.8C469.6,308.2,454.7,322.3,436.1,321.6z M420,288.1c0,0.7,0,1.5,0,2.2c0.5,7.9,6.2,14.3,13.8,15.5
		c7.5,1.1,14.5-2.9,17.3-10.3c2-5.3,2-10.7-0.4-15.9c-3.6-7.9-12-11.3-20.2-8.4C424,273.6,420,280.1,420,288.1z M235.9,313.5
		c7,6.4,15.5,8.5,24.8,8.1c12-0.4,20.6-6.2,26.7-16.1c0.9-1.4,0.5-2.2-0.9-2.8c-3.4-1.5-6.8-2.8-10.1-4.5c-2.4-1.2-3.7-1-5.4,1.4
		c-6.7,9.4-21.1,8.3-26.6-1.9c-1.9-3.5-2.1-7.2-2-11c0.1-7.5,4.2-13.6,10.6-15.6c6.5-2.1,14.2-0.7,18.1,6.2c0.7,1.3,1.6,1.5,3,0.9
		c3-1.3,6-2.4,8.9-3.7c5.2-2.3,5.3-2.4,2-7.1c-8.8-12.6-24.6-15.5-38.5-10.9c-13.3,4.4-21.9,17.4-21.4,31.1
		C225,298.2,228.5,306.7,235.9,313.5z M299.1,316.2c0,2.3,0.7,3.4,3.2,3.3c3.8-0.2,7.6-0.1,11.3,0c2,0,2.8-0.7,2.8-2.8
		c0-19.1,0-38.1,0-57.2c0-2.2-0.9-2.9-3-2.8c-3.6,0.1-7.2,0.2-10.8,0c-2.7-0.1-3.6,0.8-3.5,3.5c0.1,9.2,0,18.4,0,27.6
		C299.1,297.3,299.2,306.7,299.1,316.2z M319,237.9c0.1-5.8-5.3-11-11.3-11c-5.9,0-10.7,4.9-10.8,10.7c-0.1,6.2,4.7,10.9,11,11
		C314.1,248.6,318.8,244,319,237.9z"/>
	<g>
		<path class="st2" d="M176.7,356.1c0,3.5,0,7,0,10.5c0,1.2-0.1,2.3-1.7,2.3c-1.6,0-1.7-1.1-1.8-2.3c0-2.3-0.1-4.6,0-6.9
			c0.1-2-0.6-2.9-2.7-2.8c-2.4,0.1-4.8,0.1-7.2,0c-2-0.1-2.9,0.7-2.8,2.7c0.1,2.2,0,4.4,0,6.6c0,1.3,0,2.7-1.9,2.7
			c-1.6,0-1.9-1.2-1.9-2.5c0-7.1,0-14.2,0-21.3c0-1.4,0.3-2.6,2.1-2.6c1.7,0,1.7,1.3,1.8,2.6c0,2,0,4.1,0,6.1c0,1.6,0.7,2.4,2.3,2.3
			c2.7,0,5.4,0,8,0c1.6,0,2.3-0.8,2.3-2.4c0-1.7-0.1-3.5,0-5.3c0.1-1.3-0.6-3.3,1.8-3.3c2.1,0,1.6,1.9,1.6,3.2
			C176.7,349.3,176.7,352.7,176.7,356.1C176.7,356.1,176.7,356.1,176.7,356.1z"/>
		<path class="st2" d="M223.4,360.8c-1.5,0-3,0-4.4,0c-2.3-0.1-2.2,1.1-1.4,2.6c1.5,2.9,5.2,3.6,7.8,1.6c0.4-0.3,0.8-0.8,1.2-1.1
			c1.1-1,2.1-0.4,3,0.3c1,0.9,0.1,1.7-0.5,2.4c-4.1,5.1-13,3.5-15.5-2.8c-2.8-6.9,2.5-14.2,9.7-13.4c4.2,0.5,7.6,4.6,7.4,8.7
			c-0.1,1.4-0.9,1.7-2,1.7C226.9,360.8,225.2,360.8,223.4,360.8C223.4,360.8,223.4,360.8,223.4,360.8z M222,357.5c0.8,0,1.7,0,2.5,0
			c0.7,0,1.7,0.3,1.9-0.7c0.2-0.9-0.5-1.6-1.1-2.1c-1.8-1.3-3.8-1.4-5.8-0.5c-1,0.5-2.1,1.2-1.8,2.5c0.3,1.1,1.5,0.7,2.4,0.8
			C220.7,357.6,221.3,357.5,222,357.5z"/>
		<path class="st2" d="M198.8,360.1c-0.1,5.4-4.4,9.7-9.5,9.5c-5.4-0.2-9.5-4.6-9.3-10c0.2-5.2,4.6-9.4,9.7-9.3
			C195.1,350.4,198.9,354.6,198.8,360.1z M194.9,359.8c0-3.8-2.1-6.1-5.6-6.1c-3.1,0-5.5,2.8-5.5,6.4c0.1,3.5,2.5,6.2,5.7,6.1
			C192.8,366.2,194.9,363.6,194.9,359.8z"/>
		<path class="st2" d="M208.8,369.2c-3.3,0-5.3-1.9-5.5-5.1c-0.1-1.9,0-3.9,0-5.8c0-1.8,0.4-3.6-2.1-4.5c-1.1-0.4-1.1-2.2,0.1-2.6
			c1.8-0.7,2.1-1.8,2-3.4c0-1.2,0.1-2.3,1.7-2.3c1.6-0.1,2.2,0.9,2.1,2.3c-0.1,2.1,0.6,3.4,2.9,3.3c0.8,0,1.3,0.6,1.4,1.5
			c0,1-0.5,1.7-1.4,1.7c-2.7,0-2.9,1.6-2.8,3.6c0.1,1.7,0,3.3,0,5c0,1.6,0.3,2.9,2.3,3.1c1.4,0.1,2,1.1,1.8,2.3
			C211,369.5,209.6,369,208.8,369.2z"/>
		<path class="st2" d="M233.2,355.8c0-3.5,0-7,0-10.5c0-1.2,0.1-2.5,1.8-2.6c1.8-0.1,2,1.2,2,2.6c0,7.1,0,14.1,0,21.2
			c0,1.3-0.3,2.5-1.9,2.5c-1.6,0-1.9-1.2-1.9-2.5C233.2,362.9,233.2,359.3,233.2,355.8z"/>
	</g>
	<g>
		<path class="st3" d="M290.2,361.5c0-1.6,0-3.1,0-4.7c0-1.3-0.2-2.4-1.8-2.6c-1-0.1-1.5-0.7-1.5-1.7c0-1,0.5-1.6,1.5-1.7
			c1.9-0.2,1.7-1.6,1.8-2.9c0.3-3.6,3-6,6.5-5.7c1,0.1,2.2,0.2,2.3,1.5c0.1,1.3-0.6,2.1-1.9,2.1c-1.1,0.1-2,0.3-2.6,1.3
			c-0.6,0.9-0.9,1.8-0.5,2.9c0.4,0.9,1.4,0.8,2.2,0.8c0.9,0,1.8,0,2.8,0c1.6,0.1,2.4-0.5,2.5-2.2c0-1.4-0.2-3.2,2-3.2
			c2.1,0,1.8,1.8,1.8,3.1c0,1.6,0.7,2.4,2.3,2.4c1.1,0,2,0.4,2,1.7c0,1.4-1,1.7-2.1,1.7c-1.9,0-2.3,1.1-2.3,2.7c0,1.7,0,3.3,0,5
			c0,2,0.3,3.7,2.8,4c1.1,0.1,1.5,1,1.5,2c-0.1,1.1-1,1.1-1.8,1.2c-3.2,0.4-5.4-1.2-6-4.3c-0.5-2.6-0.3-5.1-0.2-7.7
			c0-1.9-0.6-2.8-2.7-2.9c-4.8-0.1-5,0-5,4.7c0,2.6,0,5.2,0,7.7c0,1.2-0.2,2.3-1.7,2.3c-1.5,0-1.8-1-1.8-2.2
			C290.2,365,290.2,363.2,290.2,361.5C290.2,361.5,290.2,361.5,290.2,361.5z"/>
		<path class="st3" d="M324.4,356.6c-1,3-1.9,6.1-2.9,9.1c-0.5,1.5-0.7,3.2-2.8,3.3c-2.4,0.1-2.5-1.8-3-3.3c-1.4-4-2.6-8.1-3.9-12.1
			c-0.3-1-1.1-2.2,0.7-2.7c1.5-0.4,2.5,0.2,2.9,1.7c0.9,3.3,2,6.7,3.1,10.4c1.9-3.2,2.3-6.5,3.5-9.4c0.6-1.4,0.9-3,3.1-2.9
			c2.2,0.1,2.3,1.8,2.8,3.3c1,2.9,1.9,5.7,3.4,8.7c0.8-2.5,1.5-5,2.3-7.4c0.4-1.1,0.6-2.3,1.1-3.4c0.6-1.3,1.8-1.3,2.9-0.9
			c1.1,0.4,0.6,1.4,0.4,2.1c-1.4,4.6-2.9,9.1-4.4,13.7c-0.4,1.3-1.1,2.3-2.7,2.2c-1.5-0.1-2-1.1-2.4-2.3c-1.1-3.4-2.2-6.7-3.4-10.1
			C324.8,356.6,324.6,356.6,324.4,356.6z"/>
		<path class="st3" d="M256.4,342c2.3,0.1,4.6,1.1,6.3,3.3c0.6,0.8,1.4,1.7,0.2,2.6c-0.9,0.7-2.1,1.1-2.9-0.1
			c-1.4-1.9-3.4-2.1-5.5-1.8c-1.5,0.2-2.6,1-2.9,2.5c-0.4,1.6,0.3,2.7,1.7,3.4c1.4,0.7,2.8,1.3,4.3,1.9c2,0.8,4,1.6,5.3,3.3
			c2,2.4,2.3,5.1,1,8c-1.5,3.3-4.5,4.2-7.7,4.5c-3.8,0.3-7.8-2.3-9.1-5.6c-0.4-1-0.5-1.8,0.7-2.2c1-0.4,2-1.1,2.8,0.5
			c1.3,2.8,3.5,3.9,6.5,3.5c1.9-0.3,3.3-1.3,3.6-3.3c0.3-1.8-0.4-3.3-2.1-4.1c-1.9-0.9-3.9-1.6-5.9-2.4c-2.8-1.2-5-2.9-5.2-6.2
			C247.2,345.3,251,341.8,256.4,342z"/>
		<path class="st3" d="M379.1,369.6c-4.2-0.2-6.9-1.9-8.5-5.1c-1.9-3.9-1.5-7.7,1.2-11.1c2.4-3,5.7-3.6,9.3-2.8
			c3.4,0.7,5.8,3.8,6.2,7.3c0.2,1.9-0.4,3-2.5,3c-2.9-0.1-5.9,0-8.8,0c-0.7,0-1.6-0.2-2,0.6c-0.4,0.8,0.1,1.6,0.5,2.3
			c1.8,2.6,5.2,3.2,7.7,1.2c0.4-0.3,0.7-0.6,1-0.9c1-1,2.1-0.6,2.9,0.2c0.9,0.9,0.1,1.7-0.4,2.4
			C384.1,368.5,381.5,369.6,379.1,369.6z M378.6,357.5C378.6,357.5,378.6,357.5,378.6,357.5c0.8,0,1.6,0,2.5,0
			c0.7,0,1.6,0.1,1.9-0.7c0.3-0.9-0.5-1.5-1.1-2c-1.5-1.1-3.2-1.3-4.9-0.7c-1.2,0.4-2.6,1.1-2.4,2.5c0.2,1.5,1.8,0.7,2.8,0.9
			C377.7,357.6,378.1,357.5,378.6,357.5z"/>
		<path class="st3" d="M355.1,362c0,1.7,0.1,3.5,0,5.2c-0.1,2-1.7,2.5-2.8,1.3c-1.2-1.3-1.7-0.5-2.7,0c-3,1.7-6.4,1.3-8.7-1
			c-3.2-3.2-2.3-8,1.9-9.7c2.1-0.8,4.3-1.1,6.5-0.5c0.6,0.2,1.6,0.6,2-0.2c0.4-0.8-0.3-1.6-0.9-2.1c-2-1.8-4.2-1.8-6.4-0.5
			c-0.9,0.5-1.6,1.2-2.7,0.5c-1.5-0.9-1.9-1.8-0.4-2.9c3-2.2,6.3-2.6,9.7-1.3c3.4,1.3,4.6,4,4.5,7.5
			C355.1,359.6,355.1,360.8,355.1,362C355.1,362,355.1,362,355.1,362z M347.9,360.3c-3.1,0-5.1,1.2-4.9,3.1c0.1,2.1,1.6,2.8,3.4,2.8
			c2.1,0.1,5.2-2.3,5-4C351.2,359.9,349.1,360.6,347.9,360.3z"/>
		<path class="st3" d="M266.9,359.9c0-5.8,3.8-9.7,9.4-9.6c5.4,0,9.1,4,9.1,9.6c0,5.7-3.9,9.8-9.4,9.7
			C270.6,369.5,266.9,365.5,266.9,359.9z M281.8,360c0-3.6-2.4-6.2-5.7-6.2c-3.2,0-5.7,2.9-5.7,6.3c0.1,3.3,2.8,6.1,5.9,6.1
			C279.4,366.1,281.8,363.4,281.8,360z"/>
		<path class="st3" d="M362,352.9c1.7-1.4,3.1-2.5,5.1-2.6c1,0,2.2-0.1,2.3,1.3c0.1,1.2-0.3,2.1-1.7,2.5c-5.4,1.5-5.4,1.7-5.5,7.4
			c0,1.7,0,3.5,0,5.2c0,1.4-0.5,2.4-2.1,2.3c-1.5-0.1-1.7-1.1-1.7-2.3c0-4.4,0-8.8,0-13.2c0-1-0.1-2.1,1.2-2.5
			C361,350.6,361.8,351.3,362,352.9z"/>
	</g>
	<g>
		<path class="st4" d="M499.7,362.4c0,1.5,0,2.9,0,4.4c-0.1,2-1.3,2.8-2.9,1.9c-1.3-0.8-2.1-0.4-3.3,0.1c-3.9,1.7-8.3,0.1-9.6-3.3
			c-1.7-4.3,1.3-8.2,6.8-8.5c0.8-0.1,1.6,0.2,2.5,0.2c0.8,0,2,0.9,2.4-0.3c0.5-1.2-0.6-2-1.6-2.6c-1.9-1-3.8-1-5.4,0.3
			c-1.6,1.3-2.9,0.8-3.7-0.5c-0.9-1.4,0.7-2.1,1.6-2.7c6.1-3.7,13-0.1,13.3,7C499.8,359.8,499.7,361.1,499.7,362.4
			C499.7,362.4,499.7,362.4,499.7,362.4z M492.4,360.3c-3.2,0-5.1,1.1-5,3c0.1,2,1.6,2.8,3.4,2.9c2.2,0.1,5-2.2,4.8-4
			C495.4,360,493.6,360.5,492.4,360.3z"/>
		<path class="st4" d="M445.4,359.6c0.1-5.6,3.9-9.4,9.4-9.4c5.3,0,9.3,4.2,9.3,9.6c0,5.6-4.1,9.8-9.5,9.7
			C449.2,369.6,445.3,365.3,445.4,359.6z M460.3,359.8c0-3.3-2.4-6-5.4-6.1c-3.3-0.1-5.9,2.7-5.9,6.3c0,3.3,2.7,6.2,5.8,6.2
			C457.9,366.2,460.3,363.4,460.3,359.8z"/>
		<path class="st4" d="M522.4,359.9c0-5.8,3.8-9.7,9.4-9.7c5.2,0,9.4,4.3,9.3,9.6c0,5.6-4.1,9.8-9.5,9.8
			C526.4,369.6,522.4,365.4,522.4,359.9z M537.3,359.9c0-3.5-2.5-6.2-5.6-6.2c-3.2,0-5.8,2.8-5.7,6.2c0.1,3.3,2.7,6.2,5.7,6.3
			C534.8,366.2,537.3,363.4,537.3,359.9z"/>
		<path class="st4" d="M543.5,359.9c0-2.3,0-4.6,0-6.9c0-0.8,0.1-1.7,1.1-2c0.8-0.2,1.7-0.3,2.2,0.6c0.6,1.2,1.1,0.5,1.7,0.1
			c6.2-3.5,11.1-0.7,11.2,6.3c0,2.9,0,5.7,0,8.6c0,1.1,0,2.3-1.6,2.4c-1.7,0.1-1.8-1.2-1.9-2.4c-0.1-2.9,0-5.9-0.3-8.8
			c-0.3-3-1.7-4.1-4.2-4c-2.3,0.1-4,1.7-4.2,4.3c-0.2,2.7-0.1,5.3-0.1,8c0,1.4,0,3-2,2.9c-2.1,0-1.8-1.7-1.8-3
			C543.5,364,543.5,361.9,543.5,359.9C543.5,359.9,543.5,359.9,543.5,359.9z"/>
		<path class="st4" d="M407.1,359.8c0-2.3,0-4.6,0-6.9c0-1.7,1.3-2.7,2.4-1.9c1.7,1.2,2.7,0.2,4-0.3c4.5-1.8,9,0.6,9.5,5.3
			c0.4,3.6,0.2,7.4,0.1,11c0,1.2-0.6,1.9-1.9,1.9c-1.2,0-1.9-0.7-1.9-1.9c0-2.9-0.1-5.9-0.1-8.8c0-2.2-0.6-4-3.2-4.5
			c-2.4-0.4-4.4,0.9-5.1,3.6c-0.8,2.9-0.3,5.9-0.4,8.8c-0.1,1.3,0.2,2.8-1.7,2.8c-2,0-1.8-1.5-1.8-2.8
			C407,364.1,407.1,362,407.1,359.8C407.1,359.8,407.1,359.8,407.1,359.8z"/>
		<path class="st4" d="M426.6,359.7c0-2.2,0-4.4,0-6.6c0-0.8,0-1.8,1-2.1c0.8-0.3,1.7-0.3,2.2,0.6c0.7,1.4,1.3,0.4,1.9,0
			c5.9-3.3,10.9-0.5,10.9,6.2c0,2.6,0.1,5.2,0,7.7c-0.1,1.3,0.7,3.3-1.6,3.4c-2.4,0.1-1.7-1.9-1.8-3.3c-0.1-2.4,0-4.8-0.1-7.2
			c-0.1-3.1-1.6-4.7-4.2-4.7c-2.5,0-4.3,1.8-4.5,4.6c-0.1,2.7,0,5.3-0.1,8c0,1.2-0.1,2.5-1.8,2.6c-1.8,0.1-2-1.2-2-2.6
			C426.6,364.2,426.6,362,426.6,359.7z"/>
		<path class="st4" d="M482.1,352.4c-0.1,0.4-0.3,1.1-0.6,1.8c-1.8,4.2-3.5,8.5-5.3,12.7c-0.5,1.2-1.1,2.1-2.5,2.1
			c-1.6,0-2.2-0.9-2.8-2.2c-1.8-4.4-3.6-8.9-5.3-13.3c-0.3-0.9-1.3-2,0.2-2.5c1.3-0.5,2.6-0.3,3.2,1.3c1.1,2.8,2.1,5.7,3.3,8.5
			c0.3,0.8,0.4,2.2,1.4,2.1c1.1,0,1-1.4,1.3-2.2c1.2-2.8,2.3-5.6,3.4-8.5c0.5-1.3,1.5-1.5,2.7-1.4
			C481.9,351,482.3,351.3,482.1,352.4z"/>
		<path class="st4" d="M510.1,369.2c-3.6,0-5.7-1.9-5.8-5.3c-0.1-1.8,0-3.7,0-5.5c0-1.8,0.4-3.6-2.1-4.5c-1.2-0.5-1.2-2.3,0.2-2.8
			c1.7-0.6,1.9-1.7,1.9-3.2c0-1.3,0.3-2.4,1.9-2.5c1.7-0.1,2,1,1.9,2.4c-0.1,1.9,0.3,3.3,2.7,3.1c1.1-0.1,1.7,0.6,1.6,1.7
			c0,1-0.6,1.6-1.6,1.5c-2.5-0.1-2.9,1.4-2.8,3.4c0.1,1.7,0,3.3,0,5c0,1.7,0.5,3.1,2.5,3.3c1.3,0.2,2,1.1,1.8,2.3
			C512.2,369.5,510.9,369,510.1,369.2z"/>
		<path class="st4" d="M398.8,355.6c0-3.5,0-7,0-10.5c0-1.4,0.2-2.6,2.1-2.5c1.7,0,1.9,1.2,1.9,2.5c0,7.1,0,14.1,0,21.2
			c0,1.4-0.2,2.7-2,2.7c-1.9,0.1-1.9-1.3-1.9-2.6C398.8,362.8,398.8,359.2,398.8,355.6z"/>
		<path class="st4" d="M515.8,359.9c0-2.3,0-4.6,0-6.9c0-1.3,0.4-2.1,1.9-2.1c1.5,0,1.9,0.8,2,2.1c0,4.6,0,9.2,0,13.8
			c0,1.4-0.5,2.3-2.1,2.3c-1.5,0-1.8-1-1.8-2.3C515.8,364.5,515.8,362.2,515.8,359.9z"/>
	</g>
	<path class="st5" d="M86.9,319.8c0.9-0.8,2.4-1.5,2.9-2.4l-9.3,7.9C82.6,323.4,84.7,321.6,86.9,319.8z"/>
	<path class="st4" d="M111,253.9c0.6-0.5,1.4-1,1.4-2.1c-0.3-0.5-0.7-1.2-1.1-1.7C106.2,244,101,238,96,231.9
		c-1.7-2.1-2.8-1.9-4.7-0.3c-17.8,15.1-35.7,30-53.6,45.1c-2.8,2.3-2.8,2.4-0.4,5.2c3.9,4.6,7.6,9.3,11.7,13.7
		c1.7,1.9,3,4.4,5.1,5.9L98,264.8C102.4,261.2,106.7,257.5,111,253.9z"/>
	<path class="st2" d="M134.6,315.2c-4.4-5-8.6-10.1-12.8-15.3c-1.6-2-3.4-3.7-5.4-5l-26.7,22.5c-0.5,1-1.9,1.7-2.9,2.4
		c-2.2,1.8-4.3,3.6-6.5,5.4l-1.1,1l0,0c-6.4,5.3-12.7,10.7-19.1,16c-1.4,1.1-1.6,2.1-0.4,3.4c5.3,6.2,10.7,12.5,15.9,18.8
		c1.4,1.7,2.3,1.6,4,0.2c9-7.7,18.2-15.3,27.3-23c9.1-7.6,18.2-15.3,27.4-22.9C135.7,317.6,136,316.7,134.6,315.2z"/>
	<path d="M80.4,325.2c-0.4,0.3-0.8,0.6-1.1,1l0,0L80.4,325.2z"/>
	<path class="st3" d="M86,314.4c1.4,0.6,3.7,0.5,3.9,2.1c0,0.3,0,0.6-0.2,0.9l26.7-22.5c-1.3-0.9-2.7-1.6-4.3-2.2
		c-9.8-3.6-19.4-7.6-29.1-11.5c-3-1.2-3-1.3-0.4-3.4l-28.5,23.7c0.4,0.3,0.8,0.5,1.3,0.7C65.6,306.3,75.9,310.3,86,314.4z"/>
</g>
</svg>
