<?xml version="1.0" encoding="utf-8"?>
<!-- Generator: Adobe Illustrator 26.3.1, SVG Export Plug-In . SVG Version: 6.00 Build 0)  -->
<svg version="1.1" id="Layer_1" xmlns="http://www.w3.org/2000/svg" xmlns:xlink="http://www.w3.org/1999/xlink" x="0px" y="0px"
	 viewBox="0 0 595.3 595.3" style="enable-background:new 0 0 595.3 595.3;" xml:space="preserve">
<style type="text/css">
	.st0{fill:#FFFFFF;}
	.st1{fill:#ABABAB;}
	.st2{fill:#ACACAC;}
	.st3{fill:#B1B1B1;}
	.st4{fill:#ADADAD;}
	.st5{fill:#EA9CC3;}
	.st6{fill:#D5306D;}
	.st7{fill:#B82D69;}
	.st8{fill:#871A39;}
	.st9{fill:#99275B;}
	.st10{fill:#CA2F6D;}
	.st11{fill:#DF56A4;}
	.st12{fill:#F3CCE1;}
</style>
<path class="st0" d="M297.6,595.3L297.6,595.3C133.3,595.3,0,462,0,297.6l0,0C0,133.3,133.3,0,297.6,0l0,0
	C462,0,595.3,133.3,595.3,297.6l0,0C595.3,462,462,595.3,297.6,595.3z"/>
<g>
	<g>
		<path class="st1" d="M547.1,313.7c-1.9-0.2-3.9,0-5.6-0.5c-3.5-1.2-9.9,0.9-9.8-4c0.1-4.9,6.1-2.2,9.4-2.8
			c9.4-1.6,13.9-7.9,12.8-18.9c-0.3-3.1-1.6-5.9,2.3-8.4c2.8-1.7,0.1-2.9-1.9-3.1c-4.4-0.6-8.9,0.7-13.1-1.4c0,0,0,0,0,0
			c-19.3-1.2-23.8,13.3-16.5,27.7c2.3,4.6,2.9,11.2-1.7,16c-7.2,7.5-4.9,17,5.3,19.7c11.7,3.1,22.7,1.9,31.4-7.9c0-3.2,0-6.5,0-9.7
			C556.6,316.1,552.2,314.3,547.1,313.7z M537.7,280.2c7.3,0,10.8,3.4,10.7,10.5c-0.1,7.3-3.3,10.3-10.9,10.2
			c-7.5-0.1-10.5-3.3-10.3-10.8C527.3,283.4,530.6,280.3,537.7,280.2z M549.7,331.4c-3.7,2.1-7.9,2.8-12.9,2.7
			c-0.7-0.1-2.1-0.1-3.5-0.3c-4.4-0.7-8.5-2.3-8.4-7.5c0-5,3.8-7.3,8.1-8.3c5.6-1.3,11.2,0.1,16.6,1.4c2.5,0.6,3.9,2.5,4,5.1
			C553.6,327.6,552.3,329.9,549.7,331.4z"/>
		<path class="st1" d="M286.3,274.8c-4-0.3-8.9,4.4-11.5,0.1c-1.9-3.1-0.6-8.1-0.8-12.2c0-0.2,0-0.5,0-0.7c-0.4-2.3,1-6-2.7-6.1
			c-3.8-0.2-2.9,3.5-2.9,5.8c-0.1,8.3-0.1,16.6-0.1,25c0,8.1,0,16.2,0,24.3c0,0.5-0.1,0.9,0,1.4c0.3,1.7-0.1,5,2.1,4.1
			c4.9-2,8.6,1.3,12.8,1.8c9.6,1.2,16.4-3.2,18.9-12.5c1.6-6,1.5-11.9,0.1-17.8C300.2,279.7,294.6,275.4,286.3,274.8z M279,312.3
			c-3.4-1-5.1-2.8-5-6.4c0.1-5.1,0.3-10.2-0.1-15.2c-0.6-6.7,2.2-9.9,8.8-10.4c7.5-0.6,12.3,2.4,13.5,9c0.5,2.5,0.4,5.1,0.5,5.8
			C296.7,310.6,290.6,315.8,279,312.3z"/>
		<path class="st1" d="M152,276.3c-1.8,0.5-3.9,1.8-5.3,1.3c-5.8-2.3-5.1,1.6-5.1,4.8c-0.1,8.1,0,16.2,0,24.3c0,8.6,0,17.1,0,25.7
			c0,0.5,0,0.9,0.1,1.4c0.2,1.8,0.2,4,2.8,4.1c2.6,0.1,2.8-2.1,2.8-4c0.1-4.2,0.2-8.3,0.1-12.5c-0.1-3.6,0.3-5.5,5.1-4.3
			c14.8,3.6,22.3-1.8,24-16.8c0.4-3.2,0.1-6.5-0.4-9.6C173.5,277.2,165.1,272.3,152,276.3z M169.7,302.7
			c-0.7,7.4-5.4,11.1-12.9,10.5c-7.9-0.6-9.5-2.3-9.6-10.3c0-2.3,0-4.6,0-6.9c0-1.6,0-3.2,0-4.8c0.1-8.5,1.4-10.2,9-10.8
			c7.7-0.6,12.5,2.8,13.3,10C170.1,294.4,170.1,298.6,169.7,302.7z"/>
		<path class="st2" d="M207.7,274.9c-10-0.9-16.9,4.3-19,14.4c-0.9,4.1-0.8,8.3-0.3,12.4c1.7,12.9,9.4,18.6,22.5,16.4
			c3.1-0.5,8.9,0.4,8.1-4.2c-0.7-4-5.6-0.9-8.5-0.7c-8.3,0.6-13.6-2-15.3-7.9c-1-3.6-0.4-5.9,4.1-5.8c5.1,0.1,10.3-0.2,15.4,0
			c5.4,0.3,8-1.7,7.2-6.6C221.8,281.7,216.9,275.7,207.7,274.9z M204.4,294.2c-2.8-1.4-8.6,3-9.5-3.7c-0.8-5.3,4.8-10.2,10.8-10.3
			c5.5-0.1,9.8,3.8,10,9.3C215.9,293.8,214.9,294.2,204.4,294.2z"/>
		<path class="st1" d="M428.6,297.3c-2.9-3-2.4-5.4,0.4-8.3c4-4.1,9.1-7.1,13.1-13c-13.1-0.3-16,12.8-25.6,16.3
			c-0.1-1.9-0.3-3.3-0.3-4.7c0-8.8,0-17.6-0.1-26.4c0-2.1,0.7-5.4-2.5-5.5c-3.9-0.1-2.8,3.5-3,5.8c-0.2,3.5-0.1,6.9-0.1,10.4
			c0,13.4,0,26.8,0.1,40.2c0,2-0.3,4.7,2.7,4.7c3.1,0,2.7-2.7,2.8-4.6c0.2-2.8,0.1-5.5,0.2-8.3c0.2-2.8,1.6-5,4.2-5.8
			c2.6-0.8,3.5,1.8,4.8,3.3c3.5,4.3,7,8.7,10.4,13.1c2.2,2.9,4.8,3.8,8.8,1.9c-2.8-3.5-5.2-6.6-7.7-9.6
			C434,303.7,431.5,300.4,428.6,297.3z"/>
		<path class="st1" d="M389,276.8c-9-4.5-20.6-1.3-24.5,6.5c-5.4,11-1.8,29.5,6.4,33.3c0.6,0.3,1.3,0.5,2,0.7
			c15.1,4.9,24.9-3.4,24.9-22.4C397.4,288.8,397.2,281,389,276.8z M391.7,300.6c-1.2,9.7-6.2,14-14.6,12.4c-6.6-1.3-9-5.6-8.9-16.4
			c0-12.1,3.7-16.9,12.8-16.3C389.5,280.8,393.3,288.1,391.7,300.6z"/>
		<path class="st1" d="M339,275.8c-9.9-3-19.1,0.6-22.4,8.8c-4.9,12.2-1,28.4,7.7,32.2c0.6,0.3,1.3,0.5,2,0.7
			c14.4,4.6,23.7-3.3,23.8-20.3C350.2,283.8,347.3,278.4,339,275.8z M344.3,296.5c0.1,13-4.7,18.4-14.4,16.5
			c-4.3-0.8-7.1-3.1-8.1-7.5c-1.1-4.8-1.5-9.5-0.6-14.4c1.5-8.2,5.1-11.4,12.5-10.8c6.8,0.5,10.2,4.3,10.6,12.1
			C344.3,293.7,344.3,295.1,344.3,296.5z"/>
		<path class="st2" d="M509.8,301.5c0-3.9,0.3-7.9-0.1-11.8c-1.2-12.9-8.5-17.5-21.3-13.6c-1.9,0.6-3.8,2.4-6,1.3
			c-4-2.1-4.5,0.5-4.5,3.3c-0.1,10.6-0.1,21.2,0,31.9c0,2,0,4.6,3.1,4.3c2.5-0.2,2.5-2.5,2.5-4.3c0.1-7.2,0.1-14.3,0.1-21.5
			c0-8.7,2.1-10.9,10.4-11c7.2,0,9.3,2.4,9.3,11.2c0,6.7,0,13.4,0.1,20.1c0,2.4-0.4,5.7,3.4,5.6c3.3-0.1,3-3,3.1-5.3
			c0.1-3.5,0-6.9,0-10.4C510,301.5,509.9,301.5,509.8,301.5z"/>
		<path class="st2" d="M254.9,275.1c-1.1-0.2-2.3-0.2-3.5-0.2c-5-0.1-9.2,4.4-14.8,2c-1.7-0.7-2,2.1-2,3.6c-0.1,5.3,0,10.6,0,15.9
			c0,0,0.1,0,0.1,0c0,5.8,0,11.5,0,17.3c0,1.7,0.5,3.3,2.7,3.3c2.1,0,2.7-1.6,2.8-3.3c0.1-5.3,0.2-10.6,0.2-15.9
			c0-14.4,0-14.5,14.2-17.7c1.4-0.3,2.9-0.6,2.9-2.3C257.5,276.1,256.3,275.3,254.9,275.1z"/>
		<path class="st3" d="M462.4,299.7c-0.2-6.2,0-12.5-0.1-18.7c0-2.1-0.1-4.5-3-4.7c-3.4-0.2-3.5,2.5-3.5,4.8c-0.1,4.4,0,8.8,0,13.2
			c0,0,0.1,0,0.1,0c0,4.9-0.2,9.7,0.1,14.6c0.2,3.6,1.3,6.9,5,8.5c1,0.4,2.4,0.5,3.3,0.1c1.2-0.6,1.2-2.1,0.5-3
			C461.1,309.9,462.6,304.7,462.4,299.7z"/>
		<path class="st4" d="M124.9,301.9c-0.1-6.9,0-13.8-0.1-20.7c0-2,0-4.3-3-4.7c-2,0.3-2.5,1.8-2.5,3.5c0,10.3-0.1,20.7,0.2,31
			c0.1,3.1,1.8,5.7,5.2,6.7c1.1,0.3,2.4,0.6,3.3-0.4c0.9-1,0.8-2.3-0.1-3.1C124,310.7,125,306.1,124.9,301.9z"/>
		<path class="st3" d="M463.3,260.6c0.4-2.8-1.5-4.1-4.1-4.5c-2.7,0.2-4.6,1.5-4.6,4.2c0,2.3,1.3,4,3.8,4.2
			C461.1,264.7,462.9,263.2,463.3,260.6z"/>
		<path class="st4" d="M126.7,260.7c-0.2-2.7-1.5-4.4-4.3-4.4c-2.7,0-4.4,1.6-4.4,4.3c0,2.4,1.5,3.9,3.9,4
			C124.6,264.7,126.2,263.3,126.7,260.7z"/>
	</g>
	<g>
		<polygon class="st5" points="96.9,246.8 81.6,255.2 66.3,263.7 66.3,246.8 66.3,229.8 81.6,238.3 		"/>
		<polygon class="st6" points="96.9,280.7 81.6,289.2 66.3,297.6 66.3,280.7 66.3,263.7 81.6,272.2 		"/>
		<polygon class="st7" points="96.9,314.6 81.6,323.1 66.3,331.6 66.3,314.6 66.3,297.6 81.6,306.1 		"/>
		<polygon class="st8" points="96.9,348.5 81.6,357 66.3,365.5 66.3,348.5 66.3,331.6 81.6,340.1 		"/>
		<polygon class="st9" points="66.3,331.6 81.6,323.1 96.9,314.6 96.9,331.6 96.9,348.5 81.6,340.1 		"/>
		<polygon class="st10" points="66.3,297.6 81.6,289.2 96.9,280.7 96.9,297.6 96.9,314.6 81.6,306.1 		"/>
		<polygon class="st11" points="66.3,263.7 81.6,255.2 96.9,246.8 96.9,263.7 96.9,280.7 81.6,272.2 		"/>
		<polygon class="st12" points="35.7,246.8 51,255.2 66.3,263.7 66.3,246.8 66.3,229.8 51,238.3 		"/>
		<polygon class="st11" points="35.7,280.7 51,289.2 66.3,297.6 66.3,280.7 66.3,263.7 51,272.2 		"/>
		<polygon class="st10" points="35.7,314.6 51,323.1 66.3,331.6 66.3,314.6 66.3,297.6 51,306.1 		"/>
		<polygon class="st9" points="35.7,348.5 51,357 66.3,365.5 66.3,348.5 66.3,331.6 51,340.1 		"/>
		<polygon class="st7" points="66.3,331.6 51,323.1 35.7,314.6 35.7,331.6 35.7,348.5 51,340.1 		"/>
		<polygon class="st6" points="66.3,297.6 51,289.2 35.7,280.7 35.7,297.6 35.7,314.6 51,306.1 		"/>
		<polygon class="st5" points="66.3,263.7 51,255.2 35.6,246.8 35.6,263.7 35.7,280.7 51,272.2 		"/>
	</g>
</g>
</svg>
