<?xml version="1.0" encoding="utf-8"?>
<!-- Generator: Adobe Illustrator 26.3.1, SVG Export Plug-In . SVG Version: 6.00 Build 0)  -->
<svg version="1.1" id="Layer_1" xmlns="http://www.w3.org/2000/svg" xmlns:xlink="http://www.w3.org/1999/xlink" x="0px" y="0px"
	 viewBox="0 0 595.3 595.3" style="enable-background:new 0 0 595.3 595.3;" xml:space="preserve">
<style type="text/css">
	.st0{fill:#FFFFFF;}
	.st1{fill:url(#SVGID_1_);}
	.st2{fill:url(#SVGID_00000078753469333057345780000015482499289982933414_);}
	.st3{fill:url(#SVGID_00000030458208541365734880000008635584134226228123_);}
	.st4{fill:url(#SVGID_00000072979462228915759810000011769421044721734052_);}
	.st5{fill:url(#SVGID_00000168087748028255934290000013581472085673386377_);}
	.st6{fill:url(#SVGID_00000062894748620645892870000007324030444282873992_);}
	.st7{fill:url(#SVGID_00000016784184456800008140000002680161794465846949_);}
	.st8{fill:url(#SVGID_00000055670568064321519820000016290767531815136429_);}
	.st9{fill:url(#SVGID_00000075132645110730308060000011055326093236127619_);}
	.st10{fill:url(#SVGID_00000042007459725943215210000010649943573510280339_);}
	.st11{fill:url(#SVGID_00000052817308833309989050000013850414939958657665_);}
	.st12{fill:url(#SVGID_00000074432699975892895650000016209326085488443532_);}
	.st13{fill:url(#SVGID_00000079476701418192539350000008271670253708873861_);}
	.st14{fill:url(#SVGID_00000103956163801812353190000008684326108431077558_);}
</style>
<path class="st0" d="M297.6,595.3L297.6,595.3C133.3,595.3,0,462,0,297.6l0,0C0,133.3,133.3,0,297.6,0l0,0
	C462,0,595.3,133.3,595.3,297.6l0,0C595.3,462,462,595.3,297.6,595.3z"/>
<g>
	<g>
		<linearGradient id="SVGID_1_" gradientUnits="userSpaceOnUse" x1="534.8535" y1="293.0873" x2="57.6392" y2="293.0873">
			<stop  offset="0" style="stop-color:#DC3F42"/>
			<stop  offset="0.5339" style="stop-color:#FF6B47"/>
			<stop  offset="1" style="stop-color:#DC3F42"/>
		</linearGradient>
		<path class="st1" d="M66.7,307.8c-2.4,0-5.4-0.5-9-1.5v-4.9c3.9,1.8,7.2,2.7,9.7,2.7c2,0,3.5-0.5,4.7-1.5c1.2-1,1.8-2.4,1.8-4.1
			c0-1.4-0.4-2.5-1.2-3.5c-0.8-1-2.2-2-4.3-3.2l-2.4-1.4c-3-1.7-5.1-3.3-6.3-4.8s-1.8-3.3-1.8-5.3c0-2.7,1-4.9,2.9-6.7
			c2-1.7,4.5-2.6,7.5-2.6c2.7,0,5.6,0.5,8.6,1.4v4.5c-3.7-1.5-6.5-2.2-8.3-2.2c-1.7,0-3.1,0.5-4.3,1.4c-1.1,0.9-1.7,2.1-1.7,3.5
			c0,1.2,0.4,2.2,1.2,3.1s2.3,2,4.5,3.2l2.5,1.4c3,1.7,5.1,3.3,6.3,4.9c1.2,1.5,1.8,3.4,1.8,5.5c0,3-1.1,5.5-3.4,7.3
			C73.4,306.9,70.4,307.8,66.7,307.8z"/>
		
			<linearGradient id="SVGID_00000145054729764652218090000004046148936542461322_" gradientUnits="userSpaceOnUse" x1="534.8535" y1="293.0873" x2="57.6392" y2="293.0873">
			<stop  offset="0" style="stop-color:#DC3F42"/>
			<stop  offset="0.5339" style="stop-color:#FF6B47"/>
			<stop  offset="1" style="stop-color:#DC3F42"/>
		</linearGradient>
		<path style="fill:url(#SVGID_00000145054729764652218090000004046148936542461322_);" d="M90.8,307v-35.1h19.6v3.7H95.8v11.3H108
			v3.7H95.8v12.7h15.6v3.7H90.8z"/>
		
			<linearGradient id="SVGID_00000109724023581755122080000017037986669255537301_" gradientUnits="userSpaceOnUse" x1="534.8535" y1="293.0873" x2="57.6392" y2="293.0873">
			<stop  offset="0" style="stop-color:#DC3F42"/>
			<stop  offset="0.5339" style="stop-color:#FF6B47"/>
			<stop  offset="1" style="stop-color:#DC3F42"/>
		</linearGradient>
		<path style="fill:url(#SVGID_00000109724023581755122080000017037986669255537301_);" d="M136.9,307.8c-5.4,0-9.7-1.6-12.6-4.8
			c-3-3.2-4.5-7.7-4.5-13.6c0-5.8,1.5-10.4,4.5-13.6c3-3.2,7.3-4.8,12.8-4.8c3.1,0,6.8,0.5,11,1.5v4.7c-4.8-1.7-8.5-2.5-11.1-2.5
			c-3.8,0-6.8,1.3-8.8,3.9c-2.1,2.6-3.1,6.2-3.1,10.9c0,4.5,1.1,8,3.3,10.6c2.2,2.6,5.3,3.9,9.1,3.9c3.3,0,6.9-1,10.7-3.1v4.3
			C144.8,307,141,307.8,136.9,307.8z"/>
		
			<linearGradient id="SVGID_00000124124752633018140600000007227595558561346703_" gradientUnits="userSpaceOnUse" x1="534.8535" y1="293.0873" x2="57.6392" y2="293.0873">
			<stop  offset="0" style="stop-color:#DC3F42"/>
			<stop  offset="0.5339" style="stop-color:#FF6B47"/>
			<stop  offset="1" style="stop-color:#DC3F42"/>
		</linearGradient>
		<path style="fill:url(#SVGID_00000124124752633018140600000007227595558561346703_);" d="M160.1,271.9h5V294c0,3.5,0.7,6.1,2,7.7
			c1.3,1.6,3.4,2.4,6.2,2.4c2.8,0,4.8-0.8,5.9-2.3c1.2-1.5,1.7-4.1,1.7-7.7v-22.3h4.4v22.2c0,4.8-1,8.3-2.9,10.4s-5.1,3.3-9.4,3.3
			c-4.4,0-7.6-1.1-9.7-3.4c-2.1-2.3-3.1-5.7-3.1-10.5V271.9z"/>
		
			<linearGradient id="SVGID_00000075162896774451904360000000821969086611785356_" gradientUnits="userSpaceOnUse" x1="534.8535" y1="293.0873" x2="57.6392" y2="293.0873">
			<stop  offset="0" style="stop-color:#DC3F42"/>
			<stop  offset="0.5339" style="stop-color:#FF6B47"/>
			<stop  offset="1" style="stop-color:#DC3F42"/>
		</linearGradient>
		<path style="fill:url(#SVGID_00000075162896774451904360000000821969086611785356_);" d="M198.8,307v-35.1h10.6
			c3.4,0,5.9,0.7,7.7,2.2c1.8,1.5,2.7,3.6,2.7,6.5c0,4.7-2.4,8-7.1,10l11.7,16.4h-6.1l-10-14.8h-4.6V307H198.8z M203.7,288.4h1.6
			c6.3,0,9.4-2.5,9.4-7.4c0-3.6-2.6-5.4-7.9-5.4h-3.1V288.4z"/>
		
			<linearGradient id="SVGID_00000145016966386139813920000004573975023023856557_" gradientUnits="userSpaceOnUse" x1="534.8535" y1="293.0873" x2="57.6392" y2="293.0873">
			<stop  offset="0" style="stop-color:#DC3F42"/>
			<stop  offset="0.5339" style="stop-color:#FF6B47"/>
			<stop  offset="1" style="stop-color:#DC3F42"/>
		</linearGradient>
		<path style="fill:url(#SVGID_00000145016966386139813920000004573975023023856557_);" d="M234.3,307v-35.1h19.6v3.7h-14.6v11.3
			h12.2v3.7h-12.2v12.7H255v3.7H234.3z"/>
		
			<linearGradient id="SVGID_00000093172613964710916390000003847637011087146423_" gradientUnits="userSpaceOnUse" x1="534.8535" y1="293.0873" x2="57.6392" y2="293.0873">
			<stop  offset="0" style="stop-color:#DC3F42"/>
			<stop  offset="0.5339" style="stop-color:#FF6B47"/>
			<stop  offset="1" style="stop-color:#DC3F42"/>
		</linearGradient>
		<path style="fill:url(#SVGID_00000093172613964710916390000003847637011087146423_);" d="M261,315.1v-3.5h24.3v3.5H261z"/>
		
			<linearGradient id="SVGID_00000134243130918708029160000009965231115674303906_" gradientUnits="userSpaceOnUse" x1="534.8535" y1="293.0873" x2="57.6392" y2="293.0873">
			<stop  offset="0" style="stop-color:#DC3F42"/>
			<stop  offset="0.5339" style="stop-color:#FF6B47"/>
			<stop  offset="1" style="stop-color:#DC3F42"/>
		</linearGradient>
		<path style="fill:url(#SVGID_00000134243130918708029160000009965231115674303906_);" d="M294.6,307v-35.1h9.1
			c3.5,0,6.2,0.7,8.1,2s2.8,3.2,2.8,5.7c0,4.2-2.4,7.3-7.2,9.1c5.7,1.8,8.6,4.9,8.6,9.5c0,2.8-0.9,5-2.8,6.5
			c-1.9,1.5-4.6,2.3-8.2,2.3H294.6z M299.5,287.3h1.6c2.7,0,4.7-0.6,6.2-1.7s2.2-2.7,2.2-4.8c0-3.4-2.7-5.2-8-5.2h-1.9V287.3z
			 M299.5,303.3h1c3.6,0,6-0.2,7.1-0.7c2.1-0.9,3.1-2.5,3.1-4.8c0-2.1-0.9-3.8-2.8-5.2c-1.9-1.4-4.2-2.1-7-2.1h-1.4V303.3z"/>
		
			<linearGradient id="SVGID_00000064331229448560416960000016978733888182970550_" gradientUnits="userSpaceOnUse" x1="534.8535" y1="293.0873" x2="57.6392" y2="293.0873">
			<stop  offset="0" style="stop-color:#DC3F42"/>
			<stop  offset="0.5339" style="stop-color:#FF6B47"/>
			<stop  offset="1" style="stop-color:#DC3F42"/>
		</linearGradient>
		<path style="fill:url(#SVGID_00000064331229448560416960000016978733888182970550_);" d="M341.5,307.8c-4.9,0-8.8-1.7-11.7-5.1
			c-3-3.4-4.4-7.8-4.4-13.4c0-5.6,1.5-10,4.5-13.4c3-3.3,7-5,11.9-5c5,0,8.9,1.7,11.9,5c3,3.3,4.5,7.8,4.5,13.3
			c0,5.7-1.5,10.2-4.5,13.5C350.6,306.2,346.6,307.8,341.5,307.8z M341.6,304.1c3.6,0,6.4-1.3,8.3-3.9c2-2.6,2.9-6.2,2.9-10.9
			c0-4.6-1-8.1-2.9-10.7c-2-2.6-4.7-3.9-8.2-3.9c-3.5,0-6.2,1.3-8.2,3.9c-2,2.6-2.9,6.2-2.9,10.8c0,4.6,1,8.2,2.9,10.8
			C335.4,302.8,338.1,304.1,341.6,304.1z"/>
		
			<linearGradient id="SVGID_00000120535642868486300830000013410126369261665162_" gradientUnits="userSpaceOnUse" x1="534.8535" y1="293.0873" x2="57.6392" y2="293.0873">
			<stop  offset="0" style="stop-color:#DC3F42"/>
			<stop  offset="0.5339" style="stop-color:#FF6B47"/>
			<stop  offset="1" style="stop-color:#DC3F42"/>
		</linearGradient>
		<path style="fill:url(#SVGID_00000120535642868486300830000013410126369261665162_);" d="M384,307.8c-4.9,0-8.8-1.7-11.7-5.1
			c-3-3.4-4.4-7.8-4.4-13.4c0-5.6,1.5-10,4.5-13.4c3-3.3,7-5,11.9-5c5,0,8.9,1.7,11.9,5c3,3.3,4.5,7.8,4.5,13.3
			c0,5.7-1.5,10.2-4.5,13.5C393.2,306.2,389.1,307.8,384,307.8z M384.1,304.1c3.6,0,6.4-1.3,8.3-3.9c2-2.6,2.9-6.2,2.9-10.9
			c0-4.6-1-8.1-2.9-10.7c-2-2.6-4.7-3.9-8.2-3.9c-3.5,0-6.2,1.3-8.2,3.9c-2,2.6-2.9,6.2-2.9,10.8c0,4.6,1,8.2,2.9,10.8
			C378,302.8,380.7,304.1,384.1,304.1z"/>
		
			<linearGradient id="SVGID_00000035509592775390218430000014854113590038605199_" gradientUnits="userSpaceOnUse" x1="534.8535" y1="293.0873" x2="57.6392" y2="293.0873">
			<stop  offset="0" style="stop-color:#DC3F42"/>
			<stop  offset="0.5339" style="stop-color:#FF6B47"/>
			<stop  offset="1" style="stop-color:#DC3F42"/>
		</linearGradient>
		<path style="fill:url(#SVGID_00000035509592775390218430000014854113590038605199_);" d="M412.5,307v-35.1h4.7v17.2l14.2-17.2h5
			l-13.7,16.7l16.2,18.3h-6.3l-15.3-17.8V307H412.5z"/>
		
			<linearGradient id="SVGID_00000016070347734940989730000007434305203001068970_" gradientUnits="userSpaceOnUse" x1="534.8535" y1="293.0873" x2="57.6392" y2="293.0873">
			<stop  offset="0" style="stop-color:#DC3F42"/>
			<stop  offset="0.5339" style="stop-color:#FF6B47"/>
			<stop  offset="1" style="stop-color:#DC3F42"/>
		</linearGradient>
		<path style="fill:url(#SVGID_00000016070347734940989730000007434305203001068970_);" d="M449,307v-35.1h5V307H449z"/>
		
			<linearGradient id="SVGID_00000062877876086814828520000013605561646576975748_" gradientUnits="userSpaceOnUse" x1="534.8535" y1="293.0873" x2="57.6392" y2="293.0873">
			<stop  offset="0" style="stop-color:#DC3F42"/>
			<stop  offset="0.5339" style="stop-color:#FF6B47"/>
			<stop  offset="1" style="stop-color:#DC3F42"/>
		</linearGradient>
		<path style="fill:url(#SVGID_00000062877876086814828520000013605561646576975748_);" d="M467.8,307v-35.1h4.9l17.6,27.1v-27.1
			h4.3V307h-4.9l-17.7-27.1V307H467.8z"/>
		
			<linearGradient id="SVGID_00000017507028920097693940000009872644339743734971_" gradientUnits="userSpaceOnUse" x1="534.8535" y1="293.0873" x2="57.6392" y2="293.0873">
			<stop  offset="0" style="stop-color:#DC3F42"/>
			<stop  offset="0.5339" style="stop-color:#FF6B47"/>
			<stop  offset="1" style="stop-color:#DC3F42"/>
		</linearGradient>
		<path style="fill:url(#SVGID_00000017507028920097693940000009872644339743734971_);" d="M534.9,306c-4.2,1.2-8,1.8-11.1,1.8
			c-5.6,0-9.9-1.6-12.8-4.8c-3-3.2-4.5-7.7-4.5-13.6c0-5.8,1.5-10.3,4.5-13.6c3-3.2,7.2-4.8,12.7-4.8c3.6,0,7.3,0.5,11.1,1.6v4.6
			c-4.8-1.6-8.5-2.5-11.1-2.5c-3.8,0-6.7,1.3-8.8,3.9c-2.1,2.6-3.1,6.2-3.1,10.9c0,4.6,1.1,8.2,3.4,10.8c2.2,2.6,5.4,3.8,9.4,3.8
			c1.7,0,3.5-0.3,5.4-0.9v-11.4h5V306z"/>
	</g>
</g>
</svg>
