<?xml version="1.0" encoding="utf-8"?>
<!-- Generator: Adobe Illustrator 26.3.1, SVG Export Plug-In . SVG Version: 6.00 Build 0)  -->
<svg version="1.1" id="Layer_1" xmlns="http://www.w3.org/2000/svg" xmlns:xlink="http://www.w3.org/1999/xlink" x="0px" y="0px"
	 viewBox="0 0 595.3 595.3" style="enable-background:new 0 0 595.3 595.3;" xml:space="preserve">
<style type="text/css">
	.st0{fill:#FFFFFF;}
	.st1{fill:#363C44;}
	.st2{fill:#4BACE7;}
</style>
<path class="st0" d="M297.6,595.3L297.6,595.3C133.3,595.3,0,462,0,297.6l0,0C0,133.3,133.3,0,297.6,0l0,0
	C462,0,595.3,133.3,595.3,297.6l0,0C595.3,462,462,595.3,297.6,595.3z"/>
<g>
	<path class="st1" d="M100,272.2c-12.7-9.9-26.7-13.8-42.5-8.5c-13.9,4.7-22.6,17.4-21.8,31.9c0.5,9.7,4.8,17.9,11.6,24.7
		c7.4,7.5,16.3,11.8,27.2,12c12.3-0.3,23.4-4.4,32.3-13.5c9.1-9.3,10.8-22.5,4.4-33.8C108.4,280,104.6,275.7,100,272.2z M87.3,315
		c-0.8,0-1.7,0-2.5,0c-7.6-0.2-14.3-2.9-20.1-7.9c-7.3-6.2-8.8-16.3-3.8-24.7c7.6-12.7,23.8-15.6,35.4-6.2c6.1,4.9,10.2,11,10.5,19
		C107.1,306.8,99.2,314.7,87.3,315z"/>
	<path class="st1" d="M177.9,284.3c-0.1-3.5-0.3-3.5-3.8-3.5c-4.1,0-4.1,0-4.2,4c0,0.3,0.2,0.7-0.2,0.9c-0.6,0-0.7-0.5-1-0.8
		c-6.7-6.8-18.1-6.7-24.5,0.4c-4.9,5.4-5.9,11.9-4.4,18.8c2.1,9.8,11.1,15.6,20.5,13.6c3.8-0.8,6.9-3,9.6-6.2c0,2.4,0.1,4.2,0,6
		c-0.3,4.8-3.2,8.2-7.9,9.2c-5.8,1.3-11.1-0.8-14.2-5.8c-0.8-1.3-1.4-1.1-2.4-0.5c-1.4,0.9-2.8,1.9-4.3,2.7c-1.1,0.6-1.2,1-0.4,2
		c5.4,7.3,12.7,9.8,21.5,8.9c10.1-1.1,16-7.6,16-17.7c0-5.3,0-10.6-0.1-15.9C178.1,295,178.1,289.6,177.9,284.3z M158.7,310.6
		c-6.7,0.1-11.1-4.7-11.2-11.8c0-6.9,4.5-11.6,11-11.5c7,0.1,11.4,4.7,11.4,11.9C169.9,305.8,165.2,310.6,158.7,310.6z"/>
	<path class="st1" d="M261.1,294.5c-0.8-5.2-2.9-9.7-7.5-12.4c-10.9-6.6-26.3-1.9-28.7,12.8c-1.7,10.8,3.9,21.4,15.3,23.2
		c7.9,1.3,14.6-0.9,19.4-7.6c0.8-1.1,0.9-1.9-0.5-2.5c-1.5-0.7-2.9-1.5-4.3-2.4c-0.9-0.5-1.2-0.3-1.7,0.5c-2.6,4.2-6.9,5.8-11.8,4.9
		c-4.2-0.8-6.9-3.7-7.9-8.1c-0.3-1.3-0.1-1.7,1.3-1.7c4.1,0.1,8.2,0,12.4,0c0,0,0-0.1,0-0.1c4.2,0,8.4-0.1,12.6,0
		c1.5,0,1.8-0.5,1.7-1.8C261.2,297.7,261.3,296.1,261.1,294.5z M250.5,295.1c-2.6,0-5.2,0-7.8,0c0,0,0,0.1,0,0.1
		c-2.7,0-5.5-0.1-8.2,0c-1.2,0.1-1.2-0.4-1-1.3c1-4.5,4.2-7.2,9-7.6c4.6-0.3,8.3,1.9,9.8,6.1C253.1,294.6,252.8,295.1,250.5,295.1z"
		/>
	<path class="st2" d="M392.1,278.6c-7.5-1.8-16.3,0.8-20.5,7.9c-3,4.9-3.6,10.2-2.4,15.6c1.6,7.5,6,12.8,13.7,14.5
		c8,1.8,15.2,0.2,20.4-6.8c1.5-2.1,1.5-2.1-0.8-3.4c-1-0.6-2.1-1.1-3.1-1.7c-1.2-0.7-1.7-0.6-2.5,0.7c-2.4,3.9-6.5,5.4-11.4,4.5
		c-4-0.8-6.9-3.7-7.9-7.8c-0.3-1.4,0-1.8,1.4-1.9c4.3-0.3,8.6,0,13.3-0.2c1.1,0,2.6,0,4,0c1.5,0,3,0,4.5,0c4.7,0,4.7,0,4.5-4.8
		C405,286.8,400,280.5,392.1,278.6z M395.2,294.1c-2.7-0.1-5.5,0-8.2,0c0,0,0,0,0,0c-2.7,0-5.4-0.1-8,0c-1.9,0.1-1.6-1-1.3-2.1
		c1.4-4.9,6.7-7.8,11.9-6.7c3.7,0.8,6.5,3.6,7.1,7C396.9,293.5,396.7,294.1,395.2,294.1z"/>
	<path class="st2" d="M446.2,290.6c-1-8.4-7.8-13.2-16.3-12.3c-4.5,0.5-8.2,2.4-11,6.4c-0.5-2.1,0.6-4.4-0.6-5.4
		c-1.3-1.1-3.5-0.2-5.3-0.3c-0.1,0-0.1,0-0.2,0c-1.6-0.2-2.3,0.4-2.3,2.2c0.2,10.3,0.2,20.6,0.3,30.9c0,0.9,0.1,1.8,0,2.7
		c-0.1,1,0.3,1.4,1.3,1.4c1.6-0.1,3.3-0.1,4.9,0c1.7,0.2,2-0.5,2-2.1c-0.1-6.2-0.1-12.4,0-18.6c0-2.7,0.9-5.1,2.8-7.1
		c2.6-2.7,7.5-3.6,11.3-2.1c3.6,1.4,5.2,3.9,5.2,8.5c0,6.4,0.1,12.8,0,19.2c0,1.6,0.5,2.2,2.2,2.1c1.6-0.1,3.1-0.1,4.7,0
		c1,0,1.4-0.2,1.4-1.3C446.5,306.6,447.1,298.6,446.2,290.6z"/>
	<path class="st1" d="M219.2,281.9c0-1.2-0.4-1.6-1.6-1.5c-1.6,0.1-3.1,0.1-4.7,0c-1.6-0.1-1.9,0.4-1.9,1.9c-0.1,6.3,0.5,12.7,0,19
		c-0.6,7.3-6,11.1-13.2,9.3c-3.4-0.8-5.6-3.2-5.9-6.6c-0.6-5.6-0.2-11.2-0.4-16.8c0-2.1,1-5.1-0.4-6.1c-1.6-1.1-4.4-0.3-6.7-0.4
		c-0.8,0-1.1,0.2-1.1,1.1c0.1,8.1-0.3,16.2,0.4,24.2c0.5,5.6,4.6,10.2,10.1,11.6c6.8,1.7,12.6-0.1,17.6-5.4c0,1.2,0.1,2.5,0,3.7
		c-0.1,1.4,0.4,1.8,1.8,1.7c1.5-0.1,3-0.2,4.5-0.1c1.5,0.1,1.9-0.3,1.9-1.8c-0.1-4.8-0.1-9.7-0.1-14.5
		C219.4,294.8,219.2,288.4,219.2,281.9z"/>
	<path class="st2" d="M361.8,302.8c-1.5-0.2-3.1-0.6-4.6-1c-1.3-0.4-1.9-0.1-2.3,1.3c-1.6,5.5-6.7,8.3-12.3,6.9
		c-5.4-1.3-8.3-5.3-8.5-11.6c0-0.2,0-0.4,0-0.6c0-6,3.7-11,8.9-11.8c4.9-0.7,10.3,0.8,12.1,7.6c0.2,0.7,0.6,0.9,1.3,0.7
		c2-0.6,4-1.1,6.1-1.6c0.8-0.2,1-0.4,0.7-1.2c-0.7-2.1-1.5-4-2.7-5.8c-4.7-6.9-14.7-8.7-22.1-6.1c-11,3.9-15.9,16.6-10.7,27.4
		c4.3,8.9,14.1,12.7,24.1,9.6c5.8-1.8,9.5-5.8,11.3-11.5C363.6,303.8,363.3,303,361.8,302.8z"/>
	<path class="st2" d="M558.4,301.7c-1.5-0.3-3-0.5-4.4-1c-1.6-0.5-2.4-0.4-2.9,1.5c-1.3,4.4-4.5,6.7-8.7,6.8
		c-7.9,0.3-12.5-5.7-12-13.3c0.3-4.7,2.4-8.4,7-10.2c5.3-2.2,12.3,0,13.9,6.7c0.3,1.1,0.7,1.1,1.6,0.9c1.8-0.5,3.5-0.9,5.3-1.3
		c1.3-0.3,1.4-0.8,1-2c-2.4-7.7-8.8-12.3-19.3-12.4c-6,0.1-12.2,3.1-15.8,10.1c-3.4,6.6-3.2,13.4,0.6,19.8c4.4,7.5,13,10.8,21.7,8.7
		c6.7-1.6,11.1-5.6,13.1-12.3C559.9,302.2,559.5,301.9,558.4,301.7z"/>
	<path class="st1" d="M289.5,297.9c-2.3-1.4-4.9-2.1-7.4-3c-2.1-0.8-4.4-1.3-6.3-2.6c-1-0.7-1.9-1.5-1.7-2.8c0.2-1.4,1-2.5,2.4-3.1
		c1.2-0.5,2.5-0.6,3.9-0.5c2.2,0.2,4.3,1,6.4,1.8c1.2,0.4,2.3,1.9,3.3,1.3c1-0.6,1.4-2.1,2-3.3c1.4-2.6,1.4-2.7-1.3-4
		c-6-2.9-12.1-4.1-18.4-1.2c-4.1,1.8-6.4,5.9-6.3,10.4c0.2,4.5,2.8,7.2,6.7,8.9c3.5,1.6,7.4,2.1,10.9,3.8c1.6,0.8,2.9,1.8,2.8,3.8
		c-0.2,1.9-1.7,3.2-3.9,3.5c-3.5,0.5-6.9-0.2-10-1.8c-1.5-0.8-3.3-2.5-4.3-2.1c-1.3,0.5-2,2.7-3,4.1c-0.7,0.9-0.8,1.5,0.4,2.3
		c4.4,3,9.3,4.6,15.8,4.7c1.5,0,4.1-0.4,6.6-1.6c3.9-1.9,6.1-5,6.4-9.3C294.8,303,293,300.1,289.5,297.9z"/>
	<path class="st2" d="M471.3,309.1c-1.5,0.3-3.1,0.5-4.7,0.6c-3,0.2-3.9-0.6-3.9-3.5c-0.1-6.6-0.1-13.2-0.1-19.8
		c0-1.1,0.4-1.5,1.5-1.4c2.6,0.1,5.2,0,7.9,0c1.2,0,1.7-0.4,1.6-1.6c-0.1-1.3-0.1-2.6,0-3.9c0.1-1.2-0.3-1.6-1.6-1.6
		c-2.5,0.1-5-0.1-7.5,0.1c-1.8,0.1-2.1-0.5-2-2.1c0.1-2.3,0-4.7,0-7c0-1.1-0.3-1.5-1.4-1.4c-1.8,0.1-3.7,0.1-5.5,0.1
		c-1.1,0-1.5,0.4-1.5,1.5c0.1,2.3-0.2,4.7,0.2,7c0.2,1.4-0.2,2.1-1.8,2.1c-3.2,0-3.2,0.1-3.2,3.2c0,0.1,0,0.3,0,0.4
		c0,3.2,0.1,3.3,3.3,3.3c1.3,0,1.7,0.3,1.7,1.6c-0.1,3.6,0,7.2,0,10.8c0,0,0.1,0,0.1,0c0,3.5,0,6.9,0,10.4c0,0.3,0,0.5,0.1,0.8
		c0.4,5.4,3.1,8,8.5,8.2c2.6,0.1,5.1-0.2,7.6-0.5c2.9-0.4,2.9-0.4,2.9-3.4c0-0.7-0.1-1.3,0-2C473.9,309,472.9,308.8,471.3,309.1z"/>
	<path class="st1" d="M320,309.1c-1.6,0.4-3.2,0.5-4.9,0.6c-2.9,0.2-3.8-0.7-3.8-3.6c-0.1-6.5-0.1-13.1-0.2-19.6
		c0-1.4,0.5-1.6,1.7-1.6c2.6,0.1,5.2,0,7.9,0c1,0,1.4-0.3,1.4-1.3c-0.1-1.5-0.1-3,0-4.5c0-0.9-0.3-1.2-1.2-1.2
		c-2.7,0.1-5.5,0-8.2,0.1c-1.2,0-1.6-0.2-1.6-1.5c0.1-2.6,0-5.2,0-7.8c0-0.8-0.2-1.3-1.2-1.3c-1.9,0.1-3.8,0.2-5.7,0.1
		c-1.2,0-1.4,0.5-1.4,1.5c0.1,2.4-0.2,4.9,0.1,7.2c0.2,1.7-0.5,1.8-1.8,1.9c-3.1,0.1-3,0.2-3,3.3c0,0.1,0,0.1,0,0.2
		c0,3.3,0,3.4,3.3,3.4c1.1,0,1.6,0.2,1.6,1.5c-0.1,3.7,0,7.4,0,11.2c0.1,0,0.1,0,0.2,0c0,3.5,0,6.9,0,10.4c0,0.3,0,0.5,0,0.8
		c0.3,5,3,7.6,7.9,7.9c2.6,0.2,5.2-0.1,7.8-0.4c3.1-0.4,3.1-0.4,3.1-3.6c0-0.6-0.1-1.2,0-1.8C322.4,309.2,321.8,308.7,320,309.1z"/>
	<path class="st2" d="M501.2,279.2c0-0.8-0.3-1.1-1.1-1.2c-4.8-0.1-9.5,0.2-13.1,4.9c0-1.4-0.1-2.2,0-2.9c0.1-1.4-0.4-1.8-1.8-1.7
		c-1.7,0.1-3.4,0.1-5.1,0c-0.9,0-1.3,0.2-1.3,1.2c0.1,11.6,0.1,23.1,0.2,34.7c0,1,0.3,1.4,1.4,1.3c1.6-0.1,3.2-0.2,4.7,0
		c1.9,0.2,2.5-0.5,2.4-2.4c-0.5-6.1-0.2-12.3-0.3-18.4c-0.1-6.6,2.7-9.3,9.2-9.3c1.2,0,2.4,0,3.5,0c1,0,1.5-0.2,1.4-1.3
		C501.2,282.5,501.2,280.9,501.2,279.2z"/>
	<path class="st2" d="M513.6,278.1c-1.4,0.1-2.9,0.1-4.3,0.1c-2.9,0-2.6-0.3-2.6,2.5c0,8.7,0,17.5,0,26.2c0.1,0,0.2,0,0.3,0
		c0,1.4,0,2.9,0,4.3c0,4.1,0,4.1,4.2,4.1c0.9,0,1.7-0.1,2.6,0c1.1,0.1,1.5-0.3,1.5-1.4c-0.1-11.5-0.2-23-0.3-34.4
		C515,278.4,514.6,278,513.6,278.1z"/>
	<path class="st2" d="M510.8,261.2c-3.5-0.1-6.1,2.5-6.1,6c0,3.4,2.4,5.8,6,5.8c3.5,0,6.1-2.4,6.2-5.7
		C517,263.8,514.4,261.3,510.8,261.2z"/>
	<path class="st2" d="M91.8,290.6c-3.1-8-15.1-13.3-23.1-6.1c-6,5.4-6.3,15.3,2.4,19.5c5.7,2.8,11.5,2.1,16.7-1.6
		c2.8-2,4.7-4.7,4.5-8.3C92.3,292.9,92.2,291.7,91.8,290.6z"/>
</g>
</svg>
