<?xml version="1.0" encoding="utf-8"?>
<!-- Generator: Adobe Illustrator 26.3.1, SVG Export Plug-In . SVG Version: 6.00 Build 0)  -->
<svg version="1.1" id="Layer_1" xmlns="http://www.w3.org/2000/svg" xmlns:xlink="http://www.w3.org/1999/xlink" x="0px" y="0px"
	 viewBox="0 0 595.3 595.3" style="enable-background:new 0 0 595.3 595.3;" xml:space="preserve">
<style type="text/css">
	.st0{fill:#FFFFFF;}
	.st1{fill:url(#SVGID_1_);}
	.st2{fill:url(#SVGID_00000076586962192181044210000008518398353297667720_);}
	.st3{fill:url(#SVGID_00000056386046894819916720000005000110744553664418_);}
</style>
<path class="st0" d="M297.6,595.3L297.6,595.3C133.3,595.3,0,462,0,297.6l0,0C0,133.3,133.3,0,297.6,0l0,0
	C462,0,595.3,133.3,595.3,297.6l0,0C595.3,462,462,595.3,297.6,595.3z"/>
<path class="st0" d="M584.9,375.9c0.5-2,1.1-4,1.6-6L584.9,375.9z"/>
<polygon class="st0" points="586.4,369.9 586.4,369.9 586.4,369.9 "/>
<g>
	<g>
		
			<linearGradient id="SVGID_1_" gradientUnits="userSpaceOnUse" x1="2540.8718" y1="316.3918" x2="87.3102" y2="316.3918" gradientTransform="matrix(1 0 0 -1 0 595.2756)">
			<stop  offset="0" style="stop-color:#DC3F42"/>
			<stop  offset="0.5339" style="stop-color:#FF6B47"/>
			<stop  offset="1" style="stop-color:#DC3F42"/>
		</linearGradient>
		<path class="st1" d="M133.9,373.5c-12.3,0-27.8-2.6-46.3-7.7v-25.2c20.1,9.3,37,13.9,49.9,13.9c10.3,0,18-2.6,24.2-7.7
			s9.3-12.3,9.3-21.1c0-7.2-2.1-12.9-6.2-18c-4.1-5.1-11.3-10.3-22.1-16.5l-12.3-7.2c-15.4-8.7-26.2-17-32.4-24.7
			c-6.2-7.7-9.3-17-9.3-27.2c0-13.9,5.1-25.2,14.9-34.4c10.3-8.7,23.1-13.4,38.6-13.4c13.9,0,28.8,2.6,44.2,7.2v23.1
			c-19-7.7-33.4-11.3-42.7-11.3c-8.7,0-15.9,2.6-22.1,7.2c-5.7,4.6-8.7,10.8-8.7,18c0,6.2,2.1,11.3,6.2,15.9
			c4.1,4.6,11.8,10.3,23.1,16.5l12.9,7.2c15.4,8.7,26.2,17,32.4,25.2c6.2,7.7,9.3,17.5,9.3,28.3c0,15.4-5.7,28.3-17.5,37.5
			C168.3,368.9,152.9,373.5,133.9,373.5z"/>
		
			<linearGradient id="SVGID_00000181807881676562164470000016349160375067027626_" gradientUnits="userSpaceOnUse" x1="1632.8961" y1="193.2546" x2="-820.6655" y2="193.2546" gradientTransform="matrix(1 0 0 -1 0 595.2756)">
			<stop  offset="0" style="stop-color:#DC3F42"/>
			<stop  offset="0.5339" style="stop-color:#FF6B47"/>
			<stop  offset="1" style="stop-color:#DC3F42"/>
		</linearGradient>
		<path style="fill:url(#SVGID_00000181807881676562164470000016349160375067027626_);" d="M224.9,411v-18h124.9v18H224.9z"/>
		
			<linearGradient id="SVGID_00000137837541254054510850000001055530430792750211_" gradientUnits="userSpaceOnUse" x1="1632.8961" y1="316.1347" x2="-820.6655" y2="316.1347" gradientTransform="matrix(1 0 0 -1 0 595.2756)">
			<stop  offset="0" style="stop-color:#DC3F42"/>
			<stop  offset="0.5339" style="stop-color:#FF6B47"/>
			<stop  offset="1" style="stop-color:#DC3F42"/>
		</linearGradient>
		<path style="fill:url(#SVGID_00000137837541254054510850000001055530430792750211_);" d="M397.7,369.4V188.9h46.8
			c18,0,31.9,3.6,41.6,10.3c9.8,6.7,14.4,16.5,14.4,29.3c0,21.6-12.3,37.5-37,46.8c29.3,9.3,44.2,25.2,44.2,48.8
			c0,14.4-4.6,25.7-14.4,33.4s-23.7,11.8-42.2,11.8H397.7z M422.8,268.1h8.2c13.9,0,24.2-3.1,31.9-8.7c7.7-5.7,11.3-13.9,11.3-24.7
			c0-17.5-13.9-26.7-41.1-26.7h-9.8v60.2H422.8z M422.8,350.3h5.1c18.5,0,30.8-1,36.5-3.6c10.8-4.6,15.9-12.9,15.9-24.7
			c0-10.8-4.6-19.5-14.4-26.7c-9.8-7.2-21.6-10.8-36-10.8h-7.2L422.8,350.3L422.8,350.3z"/>
	</g>
</g>
</svg>
