<?xml version="1.0" encoding="utf-8"?>
<!-- Generator: Adobe Illustrator 26.3.1, SVG Export Plug-In . SVG Version: 6.00 Build 0)  -->
<svg version="1.1" id="Layer_1" xmlns="http://www.w3.org/2000/svg" xmlns:xlink="http://www.w3.org/1999/xlink" x="0px" y="0px"
	 viewBox="0 0 595.3 595.3" style="enable-background:new 0 0 595.3 595.3;" xml:space="preserve">
<style type="text/css">
	.st0{fill:#FFFFFF;}
	.st1{fill:#DCEDED;}
	.st2{opacity:0.5;fill:#E5D9B0;enable-background:new    ;}
	.st3{opacity:0.5;fill:#BD3B76;enable-background:new    ;}
</style>
<path d="M297.6,595.3L297.6,595.3C133.3,595.3,0,462,0,297.6l0,0C0,133.3,133.3,0,297.6,0l0,0C462,0,595.3,133.3,595.3,297.6l0,0
	C595.3,462,462,595.3,297.6,595.3z"/>
<path class="st0" d="M584.9,375.9c0.5-2,1.1-4,1.6-6L584.9,375.9z"/>
<polygon class="st0" points="586.4,369.9 586.4,369.9 586.4,369.9 "/>
<g>
	<path class="st1" d="M167.1,263.6c0,0,36.3-66.8,91.2-24.1S342.8,333,380.9,333c54.6,0,99.5-48,99.5-48s-47.7,19.4-81.7,9.6
		c-76.4-22.2-113.3-82.8-166.3-82.8S167.1,263.6,167.1,263.6z"/>
	<path class="st2" d="M194.4,304.4c0,0,36.3-66.8,91.2-24.1c55.1,42.9,84.6,93.4,122.6,93.4c54.6,0,99.5-48,99.5-48
		s-47.7,19.4-81.7,9.6c-76.4-22.2-113.3-82.8-166.3-82.8S194.4,304.4,194.4,304.4z"/>
	<path class="st3" d="M130.2,314.2c0,0,36.3-66.8,91.2-24.1s84.6,93.4,122.6,93.4c54.6,0,99.5-48,99.5-48s-47.7,19.4-81.7,9.6
		c-76.4-22.2-113.5-83-166.3-83S130.2,314.2,130.2,314.2z"/>
	<path class="st1" d="M87.6,310.8c0,0,36.3-66.8,91.2-24.1s84.6,93.4,122.6,93.4c54.6,0,99.5-48,99.5-48s-47.7,19.4-81.7,9.6
		c-76.4-22.2-113.5-83-166.3-83S87.6,310.8,87.6,310.8z"/>
</g>
</svg>
