<?xml version="1.0" encoding="utf-8"?>
<!-- Generator: Adobe Illustrator 26.3.1, SVG Export Plug-In . SVG Version: 6.00 Build 0)  -->
<svg version="1.1" id="Layer_1" xmlns="http://www.w3.org/2000/svg" xmlns:xlink="http://www.w3.org/1999/xlink" x="0px" y="0px"
	 viewBox="0 0 595.3 595.3" style="enable-background:new 0 0 595.3 595.3;" xml:space="preserve">
<style type="text/css">
	.st0{fill:#FFFFFF;}
	.st1{fill:#D8CB9D;}
	.st2{font-family:'SegmentB-KeyRegular';}
	.st3{font-size:33.1063px;}
	.st4{fill:#CEE0E0;}
	.st5{fill:#DCEDED;}
	.st6{opacity:0.5;fill:#E5D9B0;}
	.st7{opacity:0.5;fill:#BD3B76;}
</style>
<path d="M297.6,595.3L297.6,595.3C133.3,595.3,0,462,0,297.6l0,0C0,133.3,133.3,0,297.6,0l0,0C462,0,595.3,133.3,595.3,297.6l0,0
	C595.3,462,462,595.3,297.6,595.3z"/>
<g>
	<g>
		<path class="st0" d="M75.2,344l9.7-0.9v28.8c0,5.9,3.7,8.2,9.2,8.2c5.5,0,9.2-2.3,9.2-8.2v-14.4c0-12.9-6.7-25.1-13.6-37.3
			c-7.2-12.9-14.5-25.8-14.5-39.8V268c0-10,8.3-15.2,21-15.2c12.4,0,20.6,5.1,20.6,15.2v25.2l-9.7,0.9V268c0-5.9-3.7-8.2-9.2-8.2
			c-5.5,0-9.2,2.3-9.2,8.2v12.3c0,12.3,6.6,24.1,13.4,36.3c7.3,12.9,14.7,26.2,14.7,40.9v14.4c0,10-8.3,15.2-21,15.2
			c-12.4,0-20.6-5.1-20.6-15.2V344z"/>
		<path class="st0" d="M133.6,386.2V253.6h35v6.6h-21.5v53.1h17.2v6.6h-17.2v59.7h21.5v6.6H133.6z"/>
		<path class="st0" d="M179.4,344l9.7-0.9v28.8c0,5.9,3.7,8.2,9.2,8.2c5.5,0,9.2-2.3,9.2-8.2v-14.4c0-12.9-6.7-25.1-13.6-37.3
			c-7.2-12.9-14.5-25.8-14.5-39.8V268c0-10,8.3-15.2,21-15.2c12.4,0,20.6,5.1,20.6,15.2v25.2l-9.7,0.9V268c0-5.9-3.7-8.2-9.2-8.2
			c-5.5,0-9.2,2.3-9.2,8.2v12.3c0,12.3,6.6,24.1,13.4,36.3c7.3,12.9,14.7,26.2,14.7,40.9v14.4c0,10-8.3,15.2-21,15.2
			c-12.4,0-20.6-5.1-20.6-15.2V344z"/>
		<path class="st0" d="M237.9,386.2V253.6h13.5v132.6H237.9z"/>
		<path class="st0" d="M270.1,386.2l-0.3-132.6h16.9l7.5,43.4c2.8,15.8,5,30.6,6.5,42.9h3.1c1.4-12.3,3.8-27.1,6.5-42.9l7.5-43.4
			h18.2v132.6h-13.3l0.3-60.5c0.1-17.2,1.2-35.2,2-46.8h-3.3l-16.6,107.3h-7.5l-17.2-107.3h-3.3c0.8,10.8,2,29.6,2.1,46.8l0.4,60.5
			H270.1z"/>
		<path class="st0" d="M354.3,386.2V253.6h20.2c16.9,0,25.1,5.1,25.1,16.1v34.1c0,7.2-5.8,10.8-14.7,12.1v1.9
			c8.9,1.3,14.7,4.9,14.7,12.1v40.2c0,11-8.3,16.1-25.1,16.1H354.3z M367.7,313.5h6.7c8,0,11.7-2.3,11.7-9.7v-34.1
			c0-7.2-3.7-9.5-11.7-9.5h-6.7V313.5z M367.7,379.6h6.7c8,0,11.7-2.3,11.7-9.5v-40.2c0-7.4-3.7-9.7-11.7-9.7h-6.7V379.6z"/>
		<path class="st0" d="M417.5,386.2V253.6h20.2c16.9,0,25.1,5.1,25.1,16.1v37.3c0,7.2-5.8,10.8-14.7,12.1v1.9
			c8.9,1.3,14.7,4.9,14.7,12.1v35.3c0,8.3,1.5,14,4.9,17.8h-14.1c-3.4-3.8-4.3-9.7-4.3-17.8v-35.3c0-7.4-3.7-9.7-11.7-9.7H431v62.8
			H417.5z M431,316.6h6.7c8,0,11.7-2.3,11.7-9.7v-37.3c0-7.2-3.7-9.5-11.7-9.5H431V316.6z"/>
		<path class="st0" d="M473.9,386.2l15.4-132.6h15.3l15.4,132.6h-13.8l-3.8-42.6h-14.4l-3.9,42.6H473.9z M488.7,337.3H502l-2.7-33.1
			c-0.9-11.3-1.5-19.5-2.2-30h-3.1c-1,10.9-1.7,19-2.7,30L488.7,337.3z"/>
	</g>
	<text transform="matrix(4.9312 0 0 1 147.5176 435.551)" class="st1 st2 st3">HOTEL &amp; SPA</text>
	<g>
		<polygon class="st4" points="212.2,447.2 216.7,456.2 226.7,457.7 219.5,464.7 221.2,474.6 212.2,470 203.3,474.6 205,464.7 
			197.8,457.7 207.8,456.2 		"/>
		<polygon class="st4" points="269.7,447.2 274.1,456.2 284.1,457.7 276.9,464.7 278.6,474.6 269.7,470 260.8,474.6 262.5,464.7 
			255.2,457.7 265.2,456.2 		"/>
		<polygon class="st4" points="326.5,447.2 331,456.2 341,457.7 333.7,464.7 335.5,474.6 326.5,470 317.6,474.6 319.3,464.7 
			312.1,457.7 322.1,456.2 		"/>
		<polygon class="st4" points="383.1,447.2 387.5,456.2 397.5,457.7 390.3,464.7 392,474.6 383.1,470 374.1,474.6 375.8,464.7 
			368.6,457.7 378.6,456.2 		"/>
	</g>
	<g>
		<path class="st5" d="M216.3,153c0,0,22.6-41.6,56.8-15s52.7,58.2,76.4,58.2c34,0,62-29.9,62-29.9s-29.7,12.1-50.9,6
			C313,158.5,290,120.7,257,120.7S216.3,153,216.3,153z"/>
		<path class="st6" d="M233.3,178.4c0,0,22.6-41.6,56.8-15c34.3,26.7,52.7,58.2,76.4,58.2c34,0,62-29.9,62-29.9s-29.7,12.1-50.9,6
			C330,183.9,307,146.1,274,146.1S233.3,178.4,233.3,178.4z"/>
		<path class="st7" d="M193.3,184.5c0,0,22.6-41.6,56.8-15s52.7,58.2,76.4,58.2c34,0,62-29.9,62-29.9s-29.7,12.1-50.9,6
			c-47.6-13.8-70.7-51.7-103.6-51.7S193.3,184.5,193.3,184.5z"/>
		<path class="st5" d="M166.8,182.4c0,0,22.6-41.6,56.8-15s52.7,58.2,76.4,58.2c34,0,62-29.9,62-29.9s-29.7,12.1-50.9,6
			c-47.6-13.8-70.7-51.7-103.6-51.7S166.8,182.4,166.8,182.4z"/>
	</g>
</g>
</svg>
