<?xml version="1.0" encoding="utf-8"?>
<!-- Generator: Adobe Illustrator 26.3.1, SVG Export Plug-In . SVG Version: 6.00 Build 0)  -->
<svg version="1.1" id="Layer_1" xmlns="http://www.w3.org/2000/svg" xmlns:xlink="http://www.w3.org/1999/xlink" x="0px" y="0px"
	 viewBox="0 0 595.3 595.3" style="enable-background:new 0 0 595.3 595.3;" xml:space="preserve">
<style type="text/css">
	.st0{fill:#1882FF;}
	.st1{fill:#FFFFFF;}
</style>
<path class="st0" d="M297.6,595.3L297.6,595.3C133.3,595.3,0,462,0,297.6l0,0C0,133.3,133.3,0,297.6,0l0,0
	C462,0,595.3,133.3,595.3,297.6l0,0C595.3,462,462,595.3,297.6,595.3z"/>
<path class="st1" d="M584.9,375.9c0.5-2,1.1-4,1.6-6L584.9,375.9z"/>
<polygon class="st1" points="586.4,369.9 586.4,369.9 586.4,369.9 "/>
<circle class="st1" cx="295.4" cy="295.4" r="235.9"/>
<g>
	<path class="st0" d="M331.4,55.9c39.9,10,78.5,23.4,110.9,49.9c25.8,21,48.2,45.5,63.4,75.1c2.1,4.1,6.9,9,3.4,13.8
		c-3.4,4.5-9.3,2.4-14.5,1.4c-37.5-6.9-75.1-14.1-112.6-20.7c-6.5-1-16.5-6.2-17.9,4.5c-1.4,10,2.8,20.3,16.9,20.3
		c21.7,0,43.4,0,65.4,1.7c-13.8,7.2-28.6,7.2-43,10c-37.5,6.9-75.1,13.4-112.6,20c-3.4,0.7-8.6,3.1-10-2.4c-1-3.4,2.8-5.9,5.5-7.6
		c5.2-3.4,12.1-5.9,10-13.4c-2.8-10-11.4-3.1-16.9-4.8c-52.7-14.5-91.2,14.8-130.5,41.7c-6.5,4.5-11,11-14.8,17.9
		c-9.3,16.9-4.5,33.7,12.4,42.7c7.6,4.1,15.5,6.9,23.8,8.3c9.3,1.4,18.9,2.4,28.2,4.8c12.7,2.8,30,2.8,32.7,18.6
		c2.8,16.2-12.7,24.1-24.8,30.6c-35.5,18.9-74.4,28.2-113.3,36.2c-10.7,2.1-13.4-5.2-16.9-12.4c-10.3-21.3-13.4-44.8-20.7-67.1
		c0-20,0-40.3,0-60.3c1-4.1,2.4-8.6,3.4-12.7c18.6-86.4,68.2-147,150.8-180.8c16.5-6.9,34.4-9.3,51.3-14.8
		C284.2,55.9,308,55.9,331.4,55.9z"/>
	<path class="st0" d="M534.5,294.5c-4.5,97.4-47.9,172.2-137,214.2c-89.5,42-176,30.3-254.8-30.6c-17.2-13.1-30.6-29.6-43.4-46.5
		c-6.5-8.6-4.8-12.1,5.9-14.1c32.7-6.2,64.7-13.8,95.4-26.9c13.1-5.5,25.8-11,36.5-20.7c19.6-18.2,17.6-41.3-4.5-56.5
		c-11.7-7.9-25.1-9-38.2-11.7c-10.3-2.1-21-3.8-31.3-6.9c-17.9-5.5-20-13.4-7.9-27.9c13.4-16.2,30.6-27.9,50.3-35.8
		c12.4-5.2,25.1-9.6,37.9-13.8c4.5-1.4,11-4.8,14.1-0.3c3.4,5.5-2.1,10.7-5.5,14.5c-7.9,8.6-16.9,16.5-25.5,24.4
		c-4.5,4.1-11.4,7.9-6.2,14.8c4.5,5.9,12.7,4.1,16.9-0.3c20.3-22.4,48.2-20,74.4-24.1c11-1.7,22-3.8,33.1-5.9
		c12.1-2.4,15.5,0.3,10.3,12.7c-18.9,44.8-37.5,89.9-56.1,135c-3.1,7.6-5.5,15.8-8.3,23.8c-1,3.4-1,6.9,2.8,8.6c3.4,1.7,7.2,0,9-2.8
		c3.4-5.2,6.2-10.7,8.6-16.2c20.7-47.9,41.7-95.4,62-143.2c3.4-8.3,8.3-13.8,17.2-16.9c39.3-12.1,78.9-22.4,118.8-31
		c10.7-2.4,12.4,4.5,14.8,11.7C530.7,245.2,535.2,269.4,534.5,294.5z"/>
</g>
</svg>
