<?xml version="1.0" encoding="utf-8"?>
<!-- Generator: Adobe Illustrator 26.3.1, SVG Export Plug-In . SVG Version: 6.00 Build 0)  -->
<svg version="1.1" id="Layer_1" xmlns="http://www.w3.org/2000/svg" xmlns:xlink="http://www.w3.org/1999/xlink" x="0px" y="0px"
	 viewBox="0 0 595.3 595.3" style="enable-background:new 0 0 595.3 595.3;" xml:space="preserve">
<style type="text/css">
	.st0{fill:#FFFFFF;}
	.st1{fill:#1882FF;}
</style>
<path class="st0" d="M297.6,595.3L297.6,595.3C133.3,595.3,0,462,0,297.6v0C0,133.3,133.3,0,297.6,0h0
	C462,0,595.3,133.3,595.3,297.6v0C595.3,462,462,595.3,297.6,595.3z"/>
<g id="BK5MNo.tif_00000147190493844439365620000004602301036102976128_">
	<g>
		<path class="st1" d="M115.9,222.6c11.6,2.9,22.8,6.8,32.2,14.5c7.5,6.1,14,13.2,18.4,21.8c0.6,1.2,2,2.6,1,4
			c-1,1.3-2.7,0.7-4.2,0.4c-10.9-2-21.8-4.1-32.7-6c-1.9-0.3-4.8-1.8-5.2,1.3c-0.4,2.9,0.8,5.9,4.9,5.9c6.3,0,12.6,0,19,0.5
			c-4,2.1-8.3,2.1-12.5,2.9c-10.9,2-21.8,3.9-32.7,5.8c-1,0.2-2.5,0.9-2.9-0.7c-0.3-1,0.8-1.7,1.6-2.2c1.5-1,3.5-1.7,2.9-3.9
			c-0.8-2.9-3.3-0.9-4.9-1.4c-15.3-4.2-26.5,4.3-37.9,12.1c-1.9,1.3-3.2,3.2-4.3,5.2c-2.7,4.9-1.3,9.8,3.6,12.4
			c2.2,1.2,4.5,2,6.9,2.4c2.7,0.4,5.5,0.7,8.2,1.4c3.7,0.8,8.7,0.8,9.5,5.4c0.8,4.7-3.7,7-7.2,8.9c-10.3,5.5-21.6,8.2-32.9,10.5
			c-3.1,0.6-3.9-1.5-4.9-3.6c-3-6.2-3.9-13-6-19.5c0-5.8,0-11.7,0-17.5c0.3-1.2,0.7-2.5,1-3.7c5.4-25.1,19.8-42.7,43.8-52.5
			c4.8-2,10-2.7,14.9-4.3C102.2,222.6,109.1,222.6,115.9,222.6z"/>
		<path class="st1" d="M174.9,291.9c-1.3,28.3-13.9,50-39.8,62.2c-26,12.2-51.1,8.8-74-8.9c-5-3.8-8.9-8.6-12.6-13.5
			c-1.9-2.5-1.4-3.5,1.7-4.1c9.5-1.8,18.8-4,27.7-7.8c3.8-1.6,7.5-3.2,10.6-6c5.7-5.3,5.1-12-1.3-16.4c-3.4-2.3-7.3-2.6-11.1-3.4
			c-3-0.6-6.1-1.1-9.1-2c-5.2-1.6-5.8-3.9-2.3-8.1c3.9-4.7,8.9-8.1,14.6-10.4c3.6-1.5,7.3-2.8,11-4c1.3-0.4,3.2-1.4,4.1-0.1
			c1,1.6-0.6,3.1-1.6,4.2c-2.3,2.5-4.9,4.8-7.4,7.1c-1.3,1.2-3.3,2.3-1.8,4.3c1.3,1.7,3.7,1.2,4.9-0.1c5.9-6.5,14-5.8,21.6-7
			c3.2-0.5,6.4-1.1,9.6-1.7c3.5-0.7,4.5,0.1,3,3.7c-5.5,13-10.9,26.1-16.3,39.2c-0.9,2.2-1.6,4.6-2.4,6.9c-0.3,1-0.3,2,0.8,2.5
			c1,0.5,2.1,0,2.6-0.8c1-1.5,1.8-3.1,2.5-4.7c6-13.9,12.1-27.7,18-41.6c1-2.4,2.4-4,5-4.9c11.4-3.5,22.9-6.5,34.5-9
			c3.1-0.7,3.6,1.3,4.3,3.4C173.8,277.6,175.1,284.6,174.9,291.9z"/>
		<path class="st1" d="M230.2,253.6c-12.2,5-23.3,11.4-30.7,22.5c-3.7,5.5-2.6,7.8,4.1,8.4c5.5,0.5,11.1,0.3,16.6,0.4
			c4.8,0.1,9.4,1.1,13.5,3.7c9.7,6.1,11.2,16.9,3.6,25.4c-5.9,6.5-13.2,11-20.9,15.1c-8.9,4.7-18.3,8.6-27.7,12.2
			c-1.8,0.7-3.7,1.3-5.6,1.7c-3.9,0.8-8.1,0.5-9.5-3.7c-1.5-4.3,2.5-5.9,5.6-7.2c9.6-4,19.4-7.6,28.7-12.6
			c6.5-3.5,12.7-7.4,17.8-12.8c1.7-1.9,4.1-3.9,2.8-6.8c-1.2-2.7-4.2-3-6.8-3.1c-5.2-0.3-10.4-0.2-15.7-0.2c-3.3,0-6.5-0.4-9.7-1.3
			c-12.1-3.6-15.9-13.5-9.5-24.4c3-5.1,7.2-9.3,11.5-13.2c9-8,19.2-14,30.6-17.8c5.4-1.8,10.8-1.5,14.8,3.1c4.1,4.7,2.5,9.7,0,14.5
			c-3.3,6.2-7.6,11.8-12.7,16.6c-0.7,0.7-1.4,1.4-2.2,1.9c-3.5,2.2-6.9,2.3-9.7-1c-2.8-3.3-1.4-6.4,1.4-8.9
			C224.6,262.7,227.7,258.5,230.2,253.6z"/>
		<path class="st1" d="M527.4,284.6c2.2-2.1,4.1-3.8,6-5.5c5.9-5.1,13.6-6.2,19.5-2.8c5.5,3.2,7.9,10.5,6.1,18.1
			c-2.6,10.9-9.7,18.6-18.3,25c-5.6,4.2-11.5,8.1-18.3,10.2c-2.7,0.9-3.8,2.5-4.2,5.2c-1.6,10.6-3.3,21.2-3.6,31.9
			c-0.2,4.5-2.5,6.1-6.6,5.9c-4.8-0.2-6.5-2.1-6.1-6.8c2.5-28.5,7.5-56.6,13.6-84.5c1.4-6.2,4.9-7.5,10.3-4.3
			C529,278.9,528.1,281.6,527.4,284.6z M529.8,311c8-4,14-9.7,16.7-18.3c0.5-1.7,2.1-4-0.2-5.3c-2.3-1.3-4.5,0.2-6,2
			C534.9,295.7,532.1,303.2,529.8,311z"/>
		<path class="st1" d="M261.1,295.3c4.5-4.4,8.1-8.2,13.6-5.7c5.5,2.5,6.5,7.8,6.7,13.1c0.4,10.3-1.7,20.3-2.9,30.5
			c-0.4,3.7-3.3,4.1-6.2,3.9c-3.1-0.2-6-1-5.7-5.1c0.4-5.2,0.9-10.3,1.5-15.5c0.3-2.7,0.7-5.4,0.2-8.8c-3,2.7-4.7,6-6.3,9.1
			c-3.1,5.7-5.9,11.6-8.8,17.4c-3.1,6.1-4.6,7-9.1,5.4c-5.2-1.9-5.9-3.2-4.2-9.9c5.3-20.8,10.3-41.6,14.2-62.6
			c1.3-7.2,2.5-14.4,3.5-21.6c0.5-3.9,2.4-5.5,6.2-4.8c3.6,0.7,6.6,1.7,6,6.5c-1.8,14.2-4.6,28.2-7.5,42.1
			C262.1,290.9,261.8,292.5,261.1,295.3z"/>
		<path class="st1" d="M462.4,247.7c6.5,0.3,11.7-0.4,16.9,0.6c3.1,0.6,6,1.8,4.8,5.7c-1,3.4-1.9,7.1-7,6.4
			c-7.1-1-14.3-0.5-21.5-0.1c-4.7,0.3-6.1,2.4-6.5,6.5c-1.8,17.8-5.6,35.3-8.7,52.8c-0.8,4.3-1.5,8.6-2.3,13
			c-0.8,4.7-2.5,5.8-7.5,5.1c-4-0.6-5.4-2.5-4.7-6.7c3.5-20.8,7.9-41.5,10.7-62.4c0.8-6.1,0.5-6.7-5.6-5.7c-5.5,0.8-11,1.5-16.2,3.5
			c-4.5,1.7-6.3-0.8-7.5-4.4c-1.3-3.8-0.4-6.3,3.8-7.4C428.3,249.8,445.9,248,462.4,247.7z"/>
		<path class="st1" d="M372.3,324.9c0.1-14.9,15.6-35.3,30-39.3c4.9-1.4,9.8-1.5,13.7,2.5c4.1,4.2,4.5,9.4,3.1,14.6
			c-3.2,11.5-17.3,22.8-29.8,20.2c-1.6-0.3-3.5-1-3.8,1.5c-0.3,2.6,1.5,3.4,3.7,3.4c6.4-0.1,12.2-2.5,17.4-5.8
			c4.5-2.8,7.1-1.8,10.1,3.5c1.5,2.6,1.1,5-1.6,6.7c-8.3,5.1-17.2,8.7-27.1,8.4C378.3,340.3,372.3,334,372.3,324.9z"/>
		<path class="st1" d="M316.8,325.2c-2.8,1.8-5.6,3.9-8.5,5.4c-5.9,3-12,3.8-17.4-0.8c-5.1-4.3-5.3-10.1-3.5-16.1
			c3.5-11.4,10-20.7,20-27.3c5-3.3,10.5-4.4,16.3-2.7c1.8,0.6,3.2,0.9,4.6-1.1c2.3-3.3,5.2-1.7,7.8-0.4c2.7,1.4,4,3.3,2.9,6.7
			c-5.3,15.4-8.1,31.3-10.3,47.4c-0.7,5.1-2.2,6.6-6.7,6.1c-4.7-0.5-6-2.2-5.5-7.6c0.3-2.9,0.6-5.8,0.9-8.7
			C317.4,325.9,317.1,325.7,316.8,325.2z M299.4,316.7c-0.2,1.6-0.5,2.7,0.5,3.3c1.3,0.8,2.5-0.2,3.6-0.8
			c7.2-4.5,12.8-10.5,16.9-17.8c0.8-1.5,2.8-2.7,1.1-4.6c-1.6-1.8-3.7-2.1-5.8-0.9C307.2,300.7,302.1,308.1,299.4,316.7z"/>
		<path class="st1" d="M360.8,295c3.9-2.4,7.6-4.1,11.6-4.9c3-0.6,6.3-1,7.4,2.6c1.1,3.6,0.6,7.8-3.2,9.3
			c-14.5,6.1-20.7,18.1-24.3,32.1c-1.3,5-4.6,4.8-8.2,4.3c-4-0.5-4.9-3.1-4.1-6.7c3.1-15.1,6-30.3,9.1-45.4c0.5-2.6,1-5.8,5.1-5
			c4.6,0.9,7.1,3.9,6.7,7.9C360.8,291.1,359.6,292.7,360.8,295z"/>
		<path class="st1" d="M469.1,294.6c4-1.5,7.6-3.9,11.8-4.6c3-0.4,6.4-1.1,7.4,2.6c0.9,3.4,0.8,7.8-3.1,9.4c-14.5,6-20.8,18-24.3,32
			c-1.2,4.9-4.4,5-8.1,4.5c-4.2-0.6-5-3.1-4.2-7c3.1-14.7,5.9-29.6,8.9-44.3c0.6-2.9,0.8-6.6,5.5-5.7c4.8,0.9,7.1,3.9,6.4,8.6
			C469.1,291.5,468.4,292.9,469.1,294.6z"/>
		<path class="st1" d="M486.8,325.6c2.1-11.2,4.5-23.7,6.9-36.3c0.9-5.1,4.4-7.2,9.4-5.7c2.3,0.7,3.6,2,3.2,4.6
			c-1.7,13.8-5.1,27.4-7.7,41c-0.7,3.6-4.1,3.7-7.2,3.1C488.4,331.8,486,330.7,486.8,325.6z"/>
		<path class="st1" d="M512.8,251.5c-1.1,5.9-2,11.8-3.2,17.7c-0.8,4-3.9,3.8-6.9,3.2c-3.1-0.6-5.7-1.7-5-5.7
			c0.9-5.6,1.8-11.2,2.7-16.8c0.7-4.2,3.7-4.9,7.3-4.7C511.4,245.4,513.1,247.6,512.8,251.5z"/>
	</g>
</g>
</svg>
