<svg xmlns="http://www.w3.org/2000/svg" xml:space="preserve" id="Layer_1" x="0" y="0" style="enable-background:new 0 0 595.3 595.3" version="1.1" viewBox="0 0 595.3 595.3"><style>.st0{fill:#fff}</style><path d="M297.6 595.3C133.3 595.3 0 462 0 297.6 0 133.3 133.3 0 297.6 0 462 0 595.3 133.3 595.3 297.6c0 164.4-133.3 297.7-297.7 297.7" class="st0"/><path d="M584.9 375.9c.5-2 1.1-4 1.6-6zM586.4 369.9" class="st0"/><path d="M217.5 299.5h9.9c9.5 0 13 4.6 13 11.5v2.9c0 7.7-2.5 10.1-6.5 11.3 4.5.9 8 4.1 8 11.1v4c0 9.9-3.4 14.5-15 14.5h-9.4v-55.2zm10.4 24.2c6.5 0 8.4-2.5 8.4-9.9V311c0-5.4-2.6-8.7-9.4-8.7h-5.5v21.4zm-6.5 28h5.4c8.8 0 11-3.5 11-11.7v-4c0-6.7-3.7-9.6-10.2-9.6h-6.2v25.3zM264.3 334.1l-4 20.6h-3.8l11-55.2h5.4l11.4 55.2h-4l-4.2-20.6zm11.4-2.9c-3.1-15-4.9-24.9-5.4-29.1h-.2c-.2 4-2.9 17-5.1 29.1zM300.5 354.7v-55.2h5.3c4.9 12.7 16.5 43.4 18 49.6h.2c-.3-8-.5-15.9-.5-24.7v-24.7h4.2v55.2h-5.2c-5.4-14.2-16.6-44.8-18.7-51.2.4 6.6.8 16.8.8 26.8v24.4h-4.2v-.2zM216.9 244.1v3c0 6.5 2.8 9.9 8.1 9.9 5.4 0 8.1-2.6 8.1-11.5 0-7.2-1.9-10.5-8.7-15-7-4.7-10.3-7.3-10.3-15.8 0-6.9 2.4-13.1 11.1-13 7.4.1 10.6 3.9 10.6 12.1v2.2H232v-2.2c0-5.5-1.4-9.2-7-9.2-5.7 0-7.2 4.4-7.2 9.6 0 6.6 1.6 8.7 7.8 12.9 8.3 5.6 11.1 8.7 11.1 18 0 7.9-2 14.8-11.8 14.8-9 0-12-5.3-12-12.8V244h4zM257.7 202.5v45.3c0 5.2 2.3 9.3 8.2 9.3 6.2 0 8.2-3.4 8.2-9.2v-45.3h4v45.1c0 8.7-4.5 12.6-12.3 12.6-7.8 0-12-4-12-12.3v-45.3h3.9v-.2zM323.4 259.4h-3.2c-.1-.8-.3-4.3-.3-5.6-1.6 4.7-5.3 6.3-9.8 6.3-8.8 0-11.7-5.5-11.7-14.1v-30.3c0-9.4 4.7-14 12.9-14 9.4 0 12.2 5.2 12.2 13.6v1h-3.9v-.8c0-5-.6-10.7-8.3-10.7-5.6 0-8.8 2.8-8.8 11.3v29.5c0 6.7 1.9 11.5 8 11.5 7.9 0 9-6.5 9-15.2V232h-9.4v-3h13.1v30.5h.2zM347.7 202.5v57h-3.2v-57zM217.5 446.8h2.9V464h12.8v-17.2h2.9v39.5h-2.9v-20.2h-12.8v20.2h-2.9zM268.5 455.7v21.4c0 6.3-3.5 9.7-10.6 9.7-8.1 0-10.3-4.2-10.3-9.7v-21.4c0-5.8 3.2-9.4 10.6-9.4 7.9.1 10.3 4.5 10.3 9.4m-17.6.3v21.2c0 5.6 2.9 7.6 7.2 7.6 4.6 0 7.2-2 7.2-7.9v-20.8c0-5.3-2.7-7.6-7.2-7.6-5-.1-7.2 2.1-7.2 7.5M281.7 446.8v31.4c0 3.7 1.9 6.5 6.8 6.5 5 0 6.8-2.4 6.8-6.4v-31.4h3.2v31.3c0 5.9-3.7 8.8-10 8.8-6.4 0-9.8-2.7-9.8-8.6V447h3zM310 475.7v2.1c0 4.5 2.1 6.9 6.1 6.9 4.1 0 6.1-1.9 6.1-7.9 0-5-1.4-7.3-6.5-10.4-5.2-3.2-7.7-5.1-7.7-10.8 0-4.8 1.8-9.2 8.2-9.1 5.5.1 7.9 2.6 7.9 8.4v1.6h-2.8V455c0-3.9-1-6.4-5.2-6.4-4.3 0-5.3 3-5.3 6.7 0 4.6 1.1 5.9 5.8 9 6.3 4 8.2 5.9 8.2 12.5 0 5.5-1.5 10.3-8.9 10.3-6.7 0-9-3.7-9-8.9V476h3v-.3zM347.5 466.1h-10v18.2h11.3l-.4 2.1H335v-39.5h13.1v2.1h-10.6v15h10zM217.3 147.8v3c0 6.5 2.4 9.9 7.1 9.9 4.7 0 7.1-2.6 7.1-11.5 0-7.2-1.6-10.5-7.5-15-6.1-4.7-9-7.3-9-15.8 0-6.9 2.1-13.1 9.6-13 6.4.1 9.3 3.9 9.3 12.1v2.2h-3.2v-2.2c0-5.5-1.1-9.2-6.1-9.2s-6.3 4.4-6.3 9.6c0 6.6 1.4 8.7 6.8 12.9 7.3 5.6 9.7 8.7 9.7 18 0 7.9-1.8 14.8-10.3 14.8-7.8 0-10.4-5.3-10.4-12.8v-3.1zM253.9 106.2h4.1v24.7h17.7v-24.7h4.1v57h-4.1V134H258v29.2h-4.1zM325.7 119v30.9c0 9.1-4.6 14-13.9 14-10.6 0-13.6-5.9-13.6-14v-30.8c0-8.4 4.2-13.6 13.9-13.6 10.4-.1 13.6 6.5 13.6 13.5m-23.2.3v30.5c0 8.1 3.8 11 9.5 11 5.9 0 9.4-2.9 9.4-11.4v-29.9c0-7.6-3.5-11-9.5-11-6.5 0-9.4 3.2-9.4 10.8M348.5 106.2v45.3c0 5.2 2.2 9.3 8 9.3 5.9 0 8-3.4 8-9.2v-45.3h3.9v45.1c0 8.7-4.4 12.6-12 12.6s-11.7-4-11.7-12.3v-45.3h3.8zM206.3 398.1h182.6v4.8H206.3z"/><path d="M422.8 534.8H172.5V60.5h250.3zM177 530.2h241.2V65H177z"/></svg>