<?xml version="1.0" encoding="utf-8"?>
<!-- Generator: Adobe Illustrator 26.3.1, SVG Export Plug-In . SVG Version: 6.00 Build 0)  -->
<svg version="1.1" id="Layer_1" xmlns="http://www.w3.org/2000/svg" xmlns:xlink="http://www.w3.org/1999/xlink" x="0px" y="0px"
	 viewBox="0 0 595.3 595.3" style="enable-background:new 0 0 595.3 595.3;" xml:space="preserve">
<style type="text/css">
	.st0{fill:#FFFFFF;}
</style>
<path class="st0" d="M298,595.3L298,595.3C133.6,595.3,0.4,462,0.4,297.6v0C0.4,133.3,133.6,0,298,0h0
	c164.4,0,297.6,133.3,297.6,297.6v0C595.7,462,462.4,595.3,298,595.3z"/>
<g>
	<g>
		<g>
			<path d="M221.2,299.4h9.5c9.1,0,12.5,4.4,12.5,11v2.8c0,7.4-2.4,9.7-6.2,10.8c4.3,0.9,7.7,3.9,7.7,10.6v3.8
				c0,9.5-3.3,13.9-14.4,13.9h-9V299.4z M231.2,322.6c6.2,0,8.1-2.4,8.1-9.5v-2.7c0-5.2-2.5-8.3-9-8.3H225v20.5H231.2z M225,349.5
				h5.2c8.4,0,10.5-3.4,10.5-11.2v-3.8c0-6.4-3.5-9.2-9.8-9.2H225V349.5z"/>
			<path d="M266.1,332.6l-3.8,19.7h-3.6l10.5-52.9h5.2l10.9,52.9h-3.8l-4-19.7H266.1z M277,329.8c-3-14.4-4.7-23.9-5.2-27.9h-0.2
				c-0.2,3.8-2.8,16.3-4.9,27.9H277z"/>
			<path d="M300.8,352.3v-52.9h5.1c4.7,12.2,15.8,41.6,17.3,47.5h0.2c-0.3-7.7-0.5-15.2-0.5-23.7v-23.7h4v52.9h-5
				c-5.2-13.6-15.9-42.9-17.9-49.1H304c0.4,6.3,0.8,16.1,0.8,25.7v23.4H300.8z"/>
		</g>
		<g>
			<path d="M220.6,246.3v2.9c0,6.2,2.7,9.5,7.8,9.5c5.2,0,7.8-2.5,7.8-11c0-6.9-1.8-10.1-8.3-14.4c-6.7-4.5-9.9-7-9.9-15.1
				c0-6.6,2.3-12.6,10.6-12.5c7.1,0.1,10.2,3.7,10.2,11.6v2.1h-3.6v-2.1c0-5.3-1.3-8.8-6.7-8.8c-5.5,0-6.9,4.2-6.9,9.2
				c0,6.3,1.5,8.3,7.5,12.4c8,5.4,10.6,8.3,10.6,17.3c0,7.6-1.9,14.2-11.3,14.2c-8.6,0-11.5-5.1-11.5-12.3v-3H220.6z"/>
			<path d="M259.8,206.4v43.4c0,5,2.2,8.9,7.9,8.9c5.9,0,7.9-3.3,7.9-8.8v-43.4h3.8v43.2c0,8.3-4.3,12.1-11.8,12.1
				c-7.5,0-11.5-3.8-11.5-11.8v-43.4H259.8z"/>
			<path d="M322.7,261h-3.1c-0.1-0.8-0.3-4.1-0.3-5.4c-1.5,4.5-5.1,6-9.4,6c-8.4,0-11.2-5.3-11.2-13.5v-29c0-9,4.5-13.4,12.4-13.4
				c9,0,11.7,5,11.7,13v1h-3.7v-0.8c0-4.8-0.6-10.3-8-10.3c-5.4,0-8.4,2.7-8.4,10.8v28.3c0,6.4,1.8,11,7.7,11
				c7.6,0,8.6-6.2,8.6-14.6v-9.4H310v-2.9h12.6V261z"/>
			<path d="M346,206.4V261h-3.1v-54.6H346z"/>
		</g>
		<g>
			<path d="M221.2,440.6h2.8v16.5h12.3v-16.5h2.8v37.9h-2.8v-19.4H224v19.4h-2.8V440.6z"/>
			<path d="M270.1,449.2v20.5c0,6-3.4,9.3-10.2,9.3c-7.8,0-9.9-4-9.9-9.3v-20.5c0-5.6,3.1-9,10.2-9
				C267.8,440.2,270.1,444.5,270.1,449.2z M253.2,449.4v20.3c0,5.4,2.8,7.3,6.9,7.3c4.4,0,6.9-1.9,6.9-7.6v-19.9
				c0-5.1-2.6-7.3-6.9-7.3C255.3,442.2,253.2,444.3,253.2,449.4z"/>
			<path d="M282.8,440.6v30.1c0,3.5,1.8,6.2,6.5,6.2c4.8,0,6.5-2.3,6.5-6.1v-30.1h3.1v30c0,5.7-3.5,8.4-9.6,8.4
				c-6.1,0-9.4-2.6-9.4-8.2v-30.1H282.8z"/>
			<path d="M309.9,468.3v2c0,4.3,2,6.6,5.8,6.6c3.9,0,5.8-1.8,5.8-7.6c0-4.8-1.3-7-6.2-10c-5-3.1-7.4-4.9-7.4-10.4
				c0-4.6,1.7-8.8,7.9-8.7c5.3,0.1,7.6,2.5,7.6,8.1v1.5h-2.7v-1.4c0-3.7-1-6.1-5-6.1c-4.1,0-5.1,2.9-5.1,6.4c0,4.4,1.1,5.7,5.6,8.6
				c6,3.8,7.9,5.7,7.9,12c0,5.3-1.4,9.9-8.5,9.9c-6.4,0-8.6-3.5-8.6-8.5v-2.1H309.9z"/>
			<path d="M345.8,459.1h-9.6v17.4H347l-0.4,2h-12.8v-37.9h12.6v2h-10.2v14.5h9.6V459.1z"/>
		</g>
		<g>
			<path d="M221,154v2.9c0,6.2,2.3,9.5,6.8,9.5c4.5,0,6.8-2.5,6.8-11c0-6.9-1.5-10.1-7.2-14.4c-5.8-4.5-8.6-7-8.6-15.1
				c0-6.6,2-12.6,9.2-12.5c6.1,0.1,8.9,3.7,8.9,11.6v2.1h-3.1v-2.1c0-5.3-1.1-8.8-5.8-8.8c-4.8,0-6,4.2-6,9.2
				c0,6.3,1.3,8.3,6.5,12.4c7,5.4,9.3,8.3,9.3,17.3c0,7.6-1.7,14.2-9.9,14.2c-7.5,0-10-5.1-10-12.3v-3H221z"/>
			<path d="M256.1,114.1h3.9v23.7h17v-23.7h3.9v54.6H277v-28h-17v28h-3.9V114.1z"/>
			<path d="M324.9,126.4V156c0,8.7-4.4,13.4-13.3,13.4c-10.2,0-13-5.7-13-13.4v-29.5c0-8.1,4-13,13.3-13
				C321.9,113.4,324.9,119.7,324.9,126.4z M302.7,126.7v29.2c0,7.8,3.6,10.5,9.1,10.5c5.7,0,9-2.8,9-10.9v-28.7
				c0-7.3-3.4-10.5-9.1-10.5C305.5,116.3,302.7,119.4,302.7,126.7z"/>
			<path d="M346.8,114.1v43.4c0,5,2.1,8.9,7.7,8.9c5.7,0,7.7-3.3,7.7-8.8v-43.4h3.7v43.2c0,8.3-4.2,12.1-11.5,12.1
				c-7.3,0-11.2-3.8-11.2-11.8v-43.4H346.8z"/>
		</g>
		<rect x="210.5" y="393.9" width="175" height="4.6"/>
	</g>
	<g>
		<path d="M418,525H178.1V70.3H418V525z M182.4,520.6h231.2v-446H182.4V520.6z"/>
	</g>
</g>
</svg>
