<?xml version="1.0" encoding="utf-8"?>
<!-- Generator: Adobe Illustrator 26.3.1, SVG Export Plug-In . SVG Version: 6.00 Build 0)  -->
<svg version="1.1" id="Layer_1" xmlns="http://www.w3.org/2000/svg" xmlns:xlink="http://www.w3.org/1999/xlink" x="0px" y="0px"
	 viewBox="0 0 595.3 595.3" style="enable-background:new 0 0 595.3 595.3;" xml:space="preserve">
<style type="text/css">
	.st0{fill:#FFFFFF;}
	.st1{fill:#F0592A;}
	.st2{fill:#6D6E72;}
	.st3{fill:#6D6E71;}
	.st4{fill:#6C6E71;}
</style>
<path class="st0" d="M297.6,595.3L297.6,595.3C133.3,595.3,0,462,0,297.6v0C0,133.3,133.3,0,297.6,0h0
	C462,0,595.3,133.3,595.3,297.6v0C595.3,462,462,595.3,297.6,595.3z"/>
<g>
	<path class="st1" d="M92.4,244.1c-15.1,7.8-24.5,19.5-26.8,36.3c-2.2,16.6,3.6,30.3,15.9,41.6c-13,2.6-30.8-3.7-40.3-19.6
		c-9.4-15.8-6.7-36.7,6.3-49.7C60.6,239.6,79.9,237.9,92.4,244.1z"/>
	<path class="st1" d="M82.9,273.5c13.1-2.3,31.8,3.9,41.1,21.1c8.4,15.7,5.3,36-7.5,48.4c-13,12.6-32.1,14.2-44.3,8.1
		c14.8-7.6,24.3-19.2,26.6-35.7C101.1,298.9,95.5,285,82.9,273.5z"/>
	<path class="st2" d="M255.1,310.5c3.6-11.9,7-23.2,10.4-34.5c2-6.7,2-6.8,9-6.7c2.3,0,5.2-0.9,6.7,0.4c1.4,1.3,0.7,4.2,0.9,6.4
		c1.6,16.2,3.3,32.4,5,48.5c0.2,1.5-0.4,1.6-1.6,1.6c-2.4,0-4.8-0.1-7.2,0c-1.9,0.1-2.4-0.6-2.6-2.3c-0.5-7.3-1.2-14.6-1.8-21.9
		c-0.4-4.7-0.8-9.5-1.6-14.4c-1.4,4.5-2.9,9-4.3,13.5c-2.4,7.5-4.7,15-7,22.5c-0.5,1.6-1.2,2.1-2.8,2c-2.2-0.1-4.4-0.2-6.6,0
		c-2,0.2-2.7-0.7-3.2-2.5c-3.7-11.9-7.5-23.9-11.7-35.8c-0.5,6.7-1.1,13.4-1.6,20.1c-0.4,5.5-0.9,10.9-1.2,16.4
		c-0.1,1.9-0.9,2.6-2.8,2.4c-2.4-0.2-4.8-0.1-7.2,0c-1.2,0-1.5-0.4-1.3-1.6c1.4-13.8,2.8-27.6,4.2-41.4c0.4-4,0.9-8.1,1.2-12.1
		c0.1-1.5,0.7-1.9,2.1-1.9c3.1,0.1,6.2,0.2,9.3,0c2.2-0.2,3,0.6,3.6,2.7c3.6,12.4,7.4,24.7,11.2,37
		C254.5,309.2,254.7,309.5,255.1,310.5z"/>
	<path class="st3" d="M495.5,298.7c0.6-1.1,1.2-2.3,1.9-3.4c1.5-2.2,3.6-3.4,6.2-3.5c3.3-0.1,6.6,0,9.8,0c1.2,0,1.9,0.4,1.8,1.7
		c0,0.2,0,0.4,0,0.5c0.2,7,0.2,7-6.7,7c-3.7,0-7.4,0-11.2-0.1c-1.8,0-2.5,0.5-2.4,2.4c0.1,3.9,0.1,7.8,0,11.7
		c-0.1,1.7,0.5,2.1,2.1,2.1c6.5-0.1,12.9,0.1,19.4-0.1c2,0,2.7,0.5,2.4,2.5c-0.3,2.1,0.9,4.9-0.6,6.3c-1.4,1.3-4.1,0.4-6.2,0.4
		c-8.9,0-17.7,0-26.6,0.1c-2,0-2.5-0.5-2.5-2.5c0.1-17.3,0.1-34.7,0-52c0-2,0.5-2.5,2.5-2.5c9.9,0.1,19.8,0.1,29.7,0
		c1.8,0,2.4,0.4,2.4,2.3c0,6.8,0,6.8-6.9,6.8c-4.6,0-9.2,0-13.8,0c-1.2,0-2,0.1-2,1.7c0.1,6.2,0,12.4,0,18.6
		C495.2,298.6,495.3,298.6,495.5,298.7z"/>
	<path class="st4" d="M175.5,268c4.7,0.2,9.1,1.1,13.5,2.5c1.4,0.4,1.7,1,1,2.2c-0.1,0.2-0.1,0.3-0.2,0.5c-0.8,1.9-1.2,4.6-2.6,5.7
		c-1.5,1.1-3.9-0.7-6-1c-2.6-0.3-5.1-0.6-7.7-0.2c-2.2,0.3-3.8,1.5-4.5,3.6c-0.7,2.1-0.1,3.8,1.3,5.4c2.7,2.9,6.3,4.6,9.7,6.4
		c2.8,1.5,5.6,3.1,8,5.2c5.3,4.6,7.5,10.3,5.6,17.1c-1.8,6.6-6.9,9.9-13.2,11.2c-7.8,1.6-15.3,0-22.5-3.1c-1.2-0.5-1.5-1.1-0.9-2.4
		c0.9-2,1.2-4.7,2.7-5.9c1.7-1.4,3.8,1,5.9,1.5c3.6,0.8,7.1,1.7,10.7,1c2.9-0.5,5.3-1.8,6.2-4.7c0.9-3-0.3-5.3-2.7-7.2
		c-2.4-1.9-5-3.3-7.7-4.7c-3.8-1.9-7.5-4-10.5-7.1c-4.3-4.5-5.2-9.8-3.4-15.5c1.7-5.5,6-8.3,11.4-9.6
		C171.6,268.3,173.6,268.3,175.5,268z"/>
	<path class="st2" d="M463.5,302.7c0,7.1-0.1,14.2,0,21.2c0,1.7-0.5,2.3-2.2,2.2c-2.4-0.1-4.8-0.2-7.2,0c-2,0.2-2.5-0.6-2.5-2.5
		c0.1-13.5,0-27.1,0-40.6c0-1-0.1-2,0-2.9c0.1-1.4-0.5-1.8-1.8-1.8c-3.6,0.1-7.3-0.1-10.9,0.1c-1.8,0.1-2.2-0.6-2.2-2.3
		c0-6.9-0.1-6.9,6.8-6.9c10.9,0,21.8,0,32.7,0c1.7,0,2.5,0.4,2.1,2.2c-0.1,0.6,0,1.2,0,1.9c0,5.1,0,5.1-5,5.1c-2,0-4.1,0-6.1,0
		c-3.8,0-3.8,0-3.8,3.9C463.5,289.1,463.5,295.9,463.5,302.7z"/>
	<path class="st2" d="M343.8,297.4c0-8.6,0.1-17.2,0-25.7c0-2,0.6-2.6,2.5-2.5c2.5,0.2,5,0.2,7.4,0c1.8-0.1,2.2,0.5,2.2,2.3
		c-0.1,14.2,0,28.3-0.1,42.5c0,2.7,0.8,3.2,3.3,3.1c5-0.2,10.1,0,15.1-0.1c1.7,0,2.5,0.3,2.5,2.3c0,6.9,0.1,6.9-6.8,6.9
		c-7.8,0-15.6-0.1-23.4,0.1c-2.3,0-2.8-0.7-2.7-2.8C343.8,314.7,343.8,306.1,343.8,297.4z"/>
	<path class="st3" d="M527,297.4c0-8.6,0.1-17.2-0.1-25.8c0-2.1,0.6-2.6,2.5-2.5c2.3,0.2,4.6,0.2,6.9,0c2.1-0.2,2.4,0.7,2.4,2.5
		c-0.1,14.2,0,28.3-0.1,42.5c0,2.2,0.5,2.9,2.8,2.8c5.2-0.2,10.5,0.1,15.7-0.1c2.1-0.1,2.5,0.6,2.5,2.6c-0.1,6.7,0,6.7-6.8,6.7
		c-7.9,0-15.8-0.1-23.7,0c-1.7,0-2.3-0.5-2.2-2.2C527.1,315.1,527,306.3,527,297.4z"/>
	<path class="st2" d="M213.5,297.6c0,8.8-0.1,17.5,0,26.3c0,1.9-0.6,2.4-2.4,2.3c-2.3-0.2-4.6-0.2-6.9,0c-2,0.2-2.5-0.5-2.5-2.5
		c0.1-13,0-26,0-39c0-4.3,0.1-8.7-0.1-13c-0.1-2.2,0.7-2.7,2.7-2.5c2.3,0.2,4.6,0.1,6.9,0c1.7-0.1,2.2,0.4,2.2,2.2
		C213.4,280.1,213.5,288.9,213.5,297.6z"/>
	<path class="st3" d="M435.2,292.5c-2.8-21-21.1-28.2-37-22.7c-11.3,3.9-17.8,14.4-17.8,28.4c-0.2,2.8,0.3,5.9,1.2,9
		c2.7,9.6,8.6,16.4,18.5,18.9c10,2.5,19.2,1.1,26.8-6.4C434.5,312.2,436.6,302.8,435.2,292.5z M417.9,313.4
		c-6.3,6.8-16.4,6.1-21.3-1.8c-5.3-8.7-5.4-17.8-0.8-26.8c2.5-4.9,6.9-7.7,12.5-7.5c5.6,0.2,9.6,3.2,12.2,8.1
		c2.1,3.9,2.6,8.2,2.8,12.5C423,303.6,422,309,417.9,313.4z"/>
	<path class="st3" d="M320.4,268.7c-7.4-1.3-14.6-0.3-21.9,0.9c-1.8,0.3-2.1,1-2.1,2.6c0.1,8.7,0,17.4,0,26c0,4.3,0,8.5,0,12.8
		c0,4.3,0.1,8.5,0,12.8c0,1.8,0.3,2.6,2.3,2.4c2.5-0.2,5-0.1,7.4,0.1c1.8,0.1,2.5-0.4,2.4-2.3c-0.1-5.8,0-11.5-0.1-17.3
		c0-1.8,0.4-2.6,2.3-2.4c2.7,0.2,5.5,0,8.2-0.4c7.4-1.1,13.3-4.5,16.2-11.7C339.3,281.7,332.3,270.7,320.4,268.7z M323.9,288.4
		c-0.9,3.7-3.9,6.2-7.7,6.5c-7.7,0.7-7.7,0.7-7.7-6.7c0-0.6,0-1.2,0-1.9c0-1.8,0.2-3.6,0-5.3c-0.4-2.8,0.9-3.6,3.4-3.7
		c2.9-0.1,5.6,0.1,8.1,1.7C323.4,281.1,324.8,284.6,323.9,288.4z"/>
</g>
</svg>
