<?xml version="1.0" encoding="utf-8"?>
<!-- Generator: Adobe Illustrator 26.3.1, SVG Export Plug-In . SVG Version: 6.00 Build 0)  -->
<svg version="1.1" id="Layer_1" xmlns="http://www.w3.org/2000/svg" xmlns:xlink="http://www.w3.org/1999/xlink" x="0px" y="0px"
	 viewBox="0 0 595.3 595.3" style="enable-background:new 0 0 595.3 595.3;" xml:space="preserve">
<style type="text/css">
	.st0{fill:#EDCB47;}
</style>
<path class="st0" d="M297.6,595.3L297.6,595.3C133.3,595.3,0,462,0,297.6l0,0C0,133.3,133.3,0,297.6,0l0,0
	C462,0,595.3,133.3,595.3,297.6l0,0C595.3,462,462,595.3,297.6,595.3z"/>
<g id="wohdDr.tif_00000156570841763969040580000001809746649370023569_">
	<g>
		<path d="M299,288.4c7.5,5.1,9.5,9.8,7.8,17.8c-1.3,6.1-6.9,10.8-14.4,11.9c-8.2,1.1-16.5,0.4-24.7,0.5c-2.6,0-3.2-1.5-3.2-3.8
			c0-16.5,0-33,0-49.5c0-2.2,0.2-4,3.1-3.9c8.1,0.2,16.1-0.5,24.2,0.7c6.3,1,12.1,3.1,13.7,10.1C306.9,278.9,305.3,284.6,299,288.4z
			 M277.2,300.2c0,8,0,8,5.7,8c8,0,11.5-2.2,11.3-7.3c-0.1-4.7-3.4-6.3-10.8-6.8C277.9,293.7,276.3,296,277.2,300.2z M282.9,284.1
			c1.6-0.2,3.2-0.3,4.8-0.6c3.2-0.6,5.1-2.4,5.1-5.8c0-3.2-2-4.8-4.9-5.4c-1.6-0.3-3.2-0.2-4.8-0.5c-4.8-0.8-6.2,1.4-6,6
			C277.2,282.1,277.5,285.2,282.9,284.1z"/>
		<path d="M534.5,337.6c-4.3,0.2-8.6-0.1-12.6-2.1c-8.4-4.1-9.1-13.8-1.4-18.8c2-1.3,3-1.8,1.1-4.2c-2.2-2.9-1.7-6.2,1.1-8.7
			c1.7-1.6,1.8-2.4,0.1-4.2c-5-4.8-5.5-10.7-3-16.9c2.5-6,7.7-8.4,13.8-8.4c7.5-0.1,15,0.3,22.6,0.5c1.7,0,3.3,0.3,3.4,2.5
			c0.2,2.1,0.2,4.2-2.4,4.6c-3.5,0.5-3.4,2.2-2.8,5.2c1.6,8.5-3.7,15.2-12.6,16.8c-1.1,0.2-2.2,0.1-3.2,0.4c-2.6,0.7-7.5-2-7.2,2.5
			c0.2,3.6,5,1.9,7.8,2.2c2.5,0.3,5,0,7.5,0.2c6.8,0.7,10.9,3.7,12.1,8.8c1.5,6.5-1.2,12.7-7.1,16
			C546.3,337.1,540.5,337.9,534.5,337.6z M534.7,329.4c4.1,0.2,7.6-0.3,10.8-2.2c1.7-1,2.5-2.5,2.2-4.5c-0.3-1.9-1.8-2.7-3.4-2.9
			c-3.7-0.3-7.5-0.5-11.2-0.4c-3.4,0.1-6.8,1.1-6.7,5.3c0.1,3.9,3.5,4.4,6.7,4.7C533.7,329.4,534.5,329.4,534.7,329.4z M542.6,289.4
			c0-4.9-2.2-7.6-6-7.7c-4-0.1-6.2,2.7-6.1,7.7c0.1,4.1,1.5,7.1,6.2,7C541.6,296.4,542.5,293.1,542.6,289.4z"/>
		<path d="M419.8,292.7c3.8-4.1,6.8-7.6,9.9-10.9c7.3-7.9,7.3-7.9,20.1-6.4c-4.1,4.4-7.6,8.2-11.1,12.1c-5.9,6.4-5.9,6.4-0.8,13.2
			c3.5,4.7,7,9.5,10.6,14.2c1.8,2.4,2.1,3.5-1.6,3.8c-6.5,0.6-12-0.2-15.2-6.9c-1.2-2.6-3.2-4.8-5-7c-0.9-1.1-1.3-3.5-3.5-2.4
			c-1.7,0.9-3.5,2-3.5,4.4c0,1.8-0.2,3.6,0,5.4c0.7,5.2-1.3,6.8-6.5,6.7c-4.6-0.1-6.1-1.3-6-6.1c0.3-16.7,0.3-33.4,0-50
			c-0.1-5,2.4-5.1,6-5c3.3,0.1,6.9-0.8,6.7,4.8C419.5,272.2,419.8,281.8,419.8,292.7z"/>
		<path d="M483.9,279.7c3.1-2.3,5.6-4.4,8.8-5.1c12.7-2.9,20.8,3.4,20.9,16.5c0.1,7.5-0.3,15.1,0.1,22.6c0.4,5.6-3.1,4.9-6.5,5
			c-3.8,0.2-6.6,0-6.2-5.3c0.5-6.6,0.2-13.3,0.1-19.9c-0.1-6.5-2-9.1-6.5-9.3c-5.4-0.3-8.6,2.7-9,9.1c-0.4,6.8-0.5,13.6-0.2,20.4
			c0.2,5-2.5,5.1-6.1,5c-3.4-0.1-6.9,0.8-6.7-4.9c0.3-10.6,0-21.2,0.2-31.8c0.1-2.5-1.9-6.3,2.5-7
			C479.1,274.4,483.2,273.9,483.9,279.7z"/>
		<path d="M402,298c-0.4,12.6-10.7,22.2-23.3,21.8c-12.6-0.5-22.1-10.7-21.6-23.4c0.4-12.2,10.9-22,23-21.5
			C392.8,275.4,402.4,285.5,402,298z M390.7,297.2c-0.1-7.1-4.5-11.6-11.2-11.6c-6.6,0-11.1,4.8-11.2,11.8c0,7.2,4.7,12.1,11.6,11.9
			C386.4,309.1,390.7,304.2,390.7,297.2z"/>
		<path d="M310.5,297.2c0-12.4,9.8-22.3,22.1-22.3c12.7,0,22.7,9.9,22.8,22.4c0,12.6-9.9,22.4-22.6,22.5
			C320.2,319.9,310.4,310,310.5,297.2z M332.9,285.6c-6.7-0.1-11.2,4.5-11.3,11.5c-0.1,7.1,4.1,12,10.7,12.1
			c6.8,0.2,11.6-4.7,11.7-11.8C344,290.4,339.6,285.7,332.9,285.6z"/>
		<path d="M88.5,297c0-5.9,0-11.8,0-17.7c0-1.4-0.3-3.1,1.7-3.4c1.7-0.2,3.8-0.7,4.3,1.9c0.5,2.7,1.6,1.9,3.2,0.8
			c8.2-5.2,14.5-4.9,21.9,1.3c2.1,1.7,2.7,0.4,3.8-0.6c3.2-3,7.1-4.1,11.3-4.2c9.3-0.2,14.5,4.5,14.8,13.8c0.2,8.6,0,17.2,0.1,25.8
			c0,2.5-0.5,4.1-3.5,4.1c-2.9,0-3.6-1.4-3.6-4c0.1-7.9,0.1-15.8,0-23.7c-0.1-6.5-2.3-9.3-7.5-9.8c-6.4-0.6-10.8,2.1-11.9,8.2
			c-1.5,8.1-0.3,16.4-0.7,24.7c-0.1,1.6,0.8,3.9-1.8,4.4c-2.8,0.5-5.4,0.6-5.3-3.7c0.2-7.7,0.1-15.4,0-23.1
			c-0.1-7.2-2.4-10.2-8-10.5c-6.7-0.4-11.1,2.8-11.6,9.8c-0.6,7.5-0.3,15-0.4,22.6c0,2.5,0.6,5.1-3.5,5.2c-4,0-3.6-2.5-3.6-5
			C88.5,308.1,88.5,302.5,88.5,297z"/>
		<path d="M165.8,314.7c0,6.8-0.1,13.1,0,19.3c0,2.3-0.5,3.7-3.2,3.7c-2.7,0-3.8-0.9-3.8-3.7c0.1-18.3,0-36.5,0.1-54.8
			c0-1.6-0.1-3.1,2.3-3.5c3.8-0.7,3.6,2.5,4.9,4.8c3.3-3.3,7-5.1,11.5-5.5c8.5-0.7,15.1,3.5,17.9,11.6c2.4,7,2.4,14.1,0.1,21.1
			C191.3,319.9,178.7,323.1,165.8,314.7z M165.6,296.8c0.3,2.5,0.5,5,1,7.4c1.3,6.5,4.7,9.2,11.2,9.2c7.4,0,11.6-5.6,11.9-15.5
			c0.3-10.2-3.8-16.4-11.1-16.8C169.9,280.5,165.8,285.5,165.6,296.8z"/>
		<path d="M239.2,298.8c-3.6,0-7.2,0.2-10.8,0c-3.5-0.2-3.8,1.5-3.2,4.3c1.4,6.4,5.8,10,12.7,10.2c3.6,0.1,7.1-0.6,10.6-1.5
			c1.3-0.3,3-1.5,3.5,0.7c0.5,1.8,0.7,3.7-1.6,5.1c-11.6,6.7-28.5,0.5-31.8-12.1c-1.6-6.2-1.5-12.5,0.7-18.5
			c3.5-9.5,12.8-14,22.7-11.3c7.9,2.2,13.4,11.6,12.2,20.5c-0.3,2.2-1.2,2.7-3.1,2.7C247.1,298.7,243.1,298.8,239.2,298.8
			C239.2,298.8,239.2,298.8,239.2,298.8z M235.1,292.8c2.5,0,5-0.2,7.5,0c3.8,0.3,4.1-1.8,3.4-4.7c-1-3.7-3.2-6.3-7.2-7
			c-4.3-0.7-8.2,0.1-11,3.8c-1.5,2-3.2,4.5-2.3,6.8c0.9,2.2,3.8,0.7,5.8,1C232.6,293,233.8,292.8,235.1,292.8z"/>
		<path d="M47.7,319.4c-2.8,0.1-6-0.3-9.1-1.3c-3-0.9-3.3-3.2-2.7-5.5c0.8-3.1,2.8-0.9,4.2-0.5c4.2,1.3,8.4,1.8,12.8,1.3
			c3-0.3,5.7-1.3,6.5-4.6c0.8-3.5-1.4-5.4-4.2-6.7c-3.7-1.8-7.6-3.2-11.4-4.9c-6.5-3-8.9-6.8-8.1-12.4c0.7-4.9,4.7-8.1,11.1-9.3
			c4.7-0.9,9.3-0.5,13.8,0.8c1.7,0.5,4.8,0,4,3.6c-0.8,3.3-2.7,3.6-5.6,2.5c-3.8-1.4-7.7-1.7-11.7-0.9c-2.2,0.4-4.2,1.2-4.7,3.7
			c-0.6,2.7,0.7,4.6,3,5.7c3.3,1.5,6.6,2.8,9.9,4.2c8.6,3.6,11.8,7.7,10.7,14c-1.1,6.5-6.7,10.2-15.5,10.4
			C49.9,319.4,49.1,319.4,47.7,319.4z"/>
		<path d="M465,296.9c0,5.9-0.1,11.8,0,17.7c0.2,5.2-3.5,3.9-6.3,4c-2.8,0-6.3,1.1-6.2-4.1c0.2-11.8,0.2-23.6,0-35.4
			c-0.1-5.5,3.6-4.1,6.6-4.3c3.1-0.1,6.2-0.5,6,4.4C464.7,285.1,465,291.1,465,296.9z"/>
		<path d="M210.7,288.2c0,8.6,0,17.2,0,25.8c0,2.5-0.1,4.6-3.6,4.6c-3.6,0-3.4-2.2-3.4-4.7c0-17.2,0-34.4,0-51.7
			c0-2.5,0-4.7,3.5-4.6c3.5,0,3.5,2.2,3.5,4.7C210.7,271,210.7,279.6,210.7,288.2z"/>
		<path d="M79.6,297.8c0,5.7-0.1,11.4,0,17.2c0,2.4-0.7,3.6-3.3,3.7c-2.7,0-3.8-1-3.8-3.8c0.1-11.8,0.1-23.6,0-35.4
			c0-2.6,0.7-3.9,3.6-3.9c3,0,3.5,1.5,3.5,4C79.5,285.7,79.6,291.8,79.6,297.8z"/>
		<path d="M465.3,264.2c-0.2,4-2.6,5.6-6.7,5.6c-4,0-6.6-1.7-6.6-6c0-4.3,2.6-5.9,6.7-5.8C462.7,258,465.3,259.5,465.3,264.2z"/>
		<path d="M80.1,264.5c-0.2,2.7-1.4,4.4-4.4,4.2c-2.8-0.2-3.6-2.1-3.6-4.4c0-2.4,1.1-4.2,3.8-4.2C78.9,260,80,261.8,80.1,264.5z"/>
	</g>
</g>
</svg>
