<?xml version="1.0" encoding="utf-8"?>
<!-- Generator: Adobe Illustrator 26.3.1, SVG Export Plug-In . SVG Version: 6.00 Build 0)  -->
<svg version="1.1" id="Layer_1" xmlns="http://www.w3.org/2000/svg" xmlns:xlink="http://www.w3.org/1999/xlink" x="0px" y="0px"
	 viewBox="0 0 595.3 595.3" style="enable-background:new 0 0 595.3 595.3;" xml:space="preserve">
<style type="text/css">
	.st0{fill:#EDCB47;}
	.st1{fill:#FFFFFF;}
</style>
<path class="st0" d="M297.6,595.3L297.6,595.3C133.3,595.3,0,462,0,297.6l0,0C0,133.3,133.3,0,297.6,0l0,0
	C462,0,595.3,133.3,595.3,297.6l0,0C595.3,462,462,595.3,297.6,595.3z"/>
<path class="st1" d="M584.9,375.9c0.5-2,1.1-4,1.6-6L584.9,375.9z"/>
<polygon class="st1" points="586.4,369.9 586.4,369.9 586.4,369.9 "/>
<g>
	<g>
		<path d="M136.4,346.8c10.7,7.3,13.5,14,11.1,25.4c-1.9,8.7-9.8,15.4-20.5,17c-11.7,1.6-23.5,0.6-35.2,0.7c-3.7,0-4.6-2.1-4.6-5.4
			c0-23.5,0-47.1,0-70.6c0-3.1,0.3-5.7,4.4-5.6c11.6,0.3,23-0.7,34.5,1c9,1.4,17.3,4.4,19.5,14.4
			C147.7,333.3,145.4,341.4,136.4,346.8z M105.3,363.7c0,11.4,0,11.4,8.1,11.4c11.4,0,16.4-3.1,16.1-10.4c-0.1-6.7-4.8-9-15.4-9.7
			C106.3,354.4,104,357.7,105.3,363.7z M113.4,340.7c2.3-0.3,4.6-0.4,6.8-0.9c4.6-0.9,7.3-3.4,7.3-8.3c0-4.6-2.9-6.8-7-7.7
			c-2.3-0.4-4.6-0.3-6.8-0.7c-6.8-1.1-8.8,2-8.6,8.6C105.3,337.9,105.7,342.3,113.4,340.7z"/>
		<path d="M472.2,417c-6.1,0.3-12.3-0.1-18-3c-12-5.8-13-19.7-2-26.8c2.9-1.9,4.3-2.6,1.6-6c-3.1-4.1-2.4-8.8,1.6-12.4
			c2.4-2.3,2.6-3.4,0.1-6c-7.1-6.8-7.8-15.3-4.3-24.1c3.6-8.6,11-12,19.7-12c10.7-0.1,21.4,0.4,32.2,0.7c2.4,0,4.7,0.4,4.8,3.6
			c0.3,3,0.3,6-3.4,6.6c-5,0.7-4.8,3.1-4,7.4c2.3,12.1-5.3,21.7-18,24c-1.6,0.3-3.1,0.1-4.6,0.6c-3.7,1-10.7-2.9-10.3,3.6
			c0.3,5.1,7.1,2.7,11.1,3.1c3.6,0.4,7.1,0,10.7,0.3c9.7,1,15.5,5.3,17.3,12.5c2.1,9.3-1.7,18.1-10.1,22.8
			C489,416.3,480.8,417.4,472.2,417z M472.5,405.3c5.8,0.3,10.8-0.4,15.4-3.1c2.4-1.4,3.6-3.6,3.1-6.4c-0.4-2.7-2.6-3.9-4.8-4.1
			c-5.3-0.4-10.7-0.7-16-0.6c-4.8,0.1-9.7,1.6-9.6,7.6c0.1,5.6,5,6.3,9.6,6.7C471.1,405.3,472.2,405.3,472.5,405.3z M483.8,348.3
			c0-7-3.1-10.8-8.6-11c-5.7-0.1-8.8,3.9-8.7,11c0.1,5.8,2.1,10.1,8.8,10C482.3,358.3,483.6,353.5,483.8,348.3z"/>
		<path d="M308.6,353c5.4-5.8,9.7-10.8,14.1-15.5c10.4-11.3,10.4-11.3,28.7-9.1c-5.8,6.3-10.8,11.7-15.8,17.3
			c-8.4,9.1-8.4,9.1-1.1,18.8c5,6.7,10,13.5,15.1,20.2c2.6,3.4,3,5-2.3,5.4c-9.3,0.9-17.1-0.3-21.7-9.8c-1.7-3.7-4.6-6.8-7.1-10
			c-1.3-1.6-1.9-5-5-3.4c-2.4,1.3-5,2.9-5,6.3c0,2.6-0.3,5.1,0,7.7c1,7.4-1.9,9.7-9.3,9.6c-6.6-0.1-8.7-1.9-8.6-8.7
			c0.4-23.8,0.4-47.6,0-71.3c-0.1-7.1,3.4-7.3,8.6-7.1c4.7,0.1,9.8-1.1,9.6,6.8C308.2,323.7,308.6,337.4,308.6,353z"/>
		<path d="M400.1,334.4c4.4-3.3,8-6.3,12.5-7.3c18.1-4.1,29.7,4.8,29.8,23.5c0.1,10.7-0.4,21.5,0.1,32.2c0.6,8-4.4,7-9.3,7.1
			c-5.4,0.3-9.4,0-8.8-7.6c0.7-9.4,0.3-19,0.1-28.4c-0.1-9.3-2.9-13-9.3-13.3c-7.7-0.4-12.3,3.9-12.8,13c-0.6,9.7-0.7,19.4-0.3,29.1
			c0.3,7.1-3.6,7.3-8.7,7.1c-4.8-0.1-9.8,1.1-9.6-7c0.4-15.1,0-30.2,0.3-45.3c0.1-3.6-2.7-9,3.6-10
			C393.2,326.9,399.1,326.2,400.1,334.4z"/>
		<path d="M283.3,360.5c-0.6,18-15.3,31.7-33.2,31.1c-18-0.7-31.5-15.3-30.8-33.4c0.6-17.4,15.5-31.4,32.8-30.7
			C270.1,328.3,283.8,342.7,283.3,360.5z M267.1,359.4c-0.1-10.1-6.4-16.5-16-16.5c-9.4,0-15.8,6.8-16,16.8c0,10.3,6.7,17.3,16.5,17
			C261,376.4,267.1,369.4,267.1,359.4z"/>
		<path d="M152.8,359.4c0-17.7,14-31.8,31.5-31.8c18.1,0,32.4,14.1,32.5,31.9c0,18-14.1,31.9-32.2,32.1
			C166.6,391.8,152.6,377.6,152.8,359.4z M184.7,342.9c-9.6-0.1-16,6.4-16.1,16.4c-0.1,10.1,5.8,17.1,15.3,17.3
			c9.7,0.3,16.5-6.7,16.7-16.8C200.6,349.7,194.3,343,184.7,342.9z"/>
		<path d="M373.1,359c0,8.4-0.1,16.8,0,25.2c0.3,7.4-5,5.6-9,5.7c-4,0-9,1.6-8.8-5.8c0.3-16.8,0.3-33.7,0-50.5
			c-0.1-7.8,5.1-5.8,9.4-6.1c4.4-0.1,8.8-0.7,8.6,6.3C372.7,342.1,373.1,350.7,373.1,359z"/>
		<path d="M373.5,312.3c-0.3,5.7-3.7,8-9.6,8c-5.7,0-9.4-2.4-9.4-8.6c0-6.1,3.7-8.4,9.6-8.3C369.8,303.5,373.5,305.6,373.5,312.3z"
			/>
	</g>
	<g>
		<path d="M257.7,234.4c0-8.4,0-16.8,0-25.2c0-2-0.4-4.4,2.4-4.8c2.4-0.3,5.4-1,6.1,2.7c0.7,3.9,2.3,2.7,4.6,1.1
			c11.7-7.4,20.7-7,31.2,1.9c3,2.4,3.9,0.6,5.4-0.9c4.6-4.3,10.1-5.8,16.1-6c13.3-0.3,20.7,6.4,21.1,19.7c0.3,12.3,0,24.5,0.1,36.8
			c0,3.6-0.7,5.8-5,5.8c-4.1,0-5.1-2-5.1-5.7c0.1-11.3,0.1-22.5,0-33.8c-0.1-9.3-3.3-13.3-10.7-14c-9.1-0.9-15.4,3-17,11.7
			c-2.1,11.6-0.4,23.4-1,35.2c-0.1,2.3,1.1,5.6-2.6,6.3c-4,0.7-7.7,0.9-7.6-5.3c0.3-11,0.1-22,0-32.9c-0.1-10.3-3.4-14.5-11.4-15
			c-9.6-0.6-15.8,4-16.5,14c-0.9,10.7-0.4,21.4-0.6,32.2c0,3.6,0.9,7.3-5,7.4c-5.7,0-5.1-3.6-5.1-7.1
			C257.7,250.2,257.7,242.2,257.7,234.4z"/>
		<path d="M367.9,259.6c0,9.7-0.1,18.7,0,27.5c0,3.3-0.7,5.3-4.6,5.3c-3.9,0-5.4-1.3-5.4-5.3c0.1-26.1,0-52,0.1-78.1
			c0-2.3-0.1-4.4,3.3-5c5.4-1,5.1,3.6,7,6.8c4.7-4.7,10-7.3,16.4-7.8c12.1-1,21.5,5,25.5,16.5c3.4,10,3.4,20.1,0.1,30.1
			C404.3,267.1,386.3,271.6,367.9,259.6z M367.6,234.1c0.4,3.6,0.7,7.1,1.4,10.6c1.9,9.3,6.7,13.1,16,13.1c10.6,0,16.5-8,17-22.1
			c0.4-14.5-5.4-23.4-15.8-24C373.8,210.9,367.9,218,367.6,234.1z"/>
		<path d="M472.6,237c-5.1,0-10.3,0.3-15.4,0c-5-0.3-5.4,2.1-4.6,6.1c2,9.1,8.3,14.3,18.1,14.5c5.1,0.1,10.1-0.9,15.1-2.1
			c1.9-0.4,4.3-2.1,5,1c0.7,2.6,1,5.3-2.3,7.3c-16.5,9.6-40.6,0.7-45.3-17.3c-2.3-8.8-2.1-17.8,1-26.4c5-13.5,18.3-20,32.4-16.1
			c11.3,3.1,19.1,16.5,17.4,29.2c-0.4,3.1-1.7,3.9-4.4,3.9C483.8,236.8,478.1,237,472.6,237L472.6,237z M466.7,228.4
			c3.6,0,7.1-0.3,10.7,0c5.4,0.4,5.8-2.6,4.8-6.7c-1.4-5.3-4.6-9-10.3-10c-6.1-1-11.7,0.1-15.7,5.4c-2.1,2.9-4.6,6.4-3.3,9.7
			c1.3,3.1,5.4,1,8.3,1.4C463.2,228.7,464.9,228.4,466.7,228.4z"/>
		<path d="M199.5,266.3c-4,0.1-8.6-0.4-13-1.9c-4.3-1.3-4.7-4.6-3.9-7.8c1.1-4.4,4-1.3,6-0.7c6,1.9,12,2.6,18.3,1.9
			c4.3-0.4,8.1-1.9,9.3-6.6c1.1-5-2-7.7-6-9.6c-5.3-2.6-10.8-4.6-16.3-7c-9.3-4.3-12.7-9.7-11.6-17.7c1-7,6.7-11.6,15.8-13.3
			c6.7-1.3,13.3-0.7,19.7,1.1c2.4,0.7,6.8,0,5.7,5.1c-1.1,4.7-3.9,5.1-8,3.6c-5.4-2-11-2.4-16.7-1.3c-3.1,0.6-6,1.7-6.7,5.3
			c-0.9,3.9,1,6.6,4.3,8.1c4.7,2.1,9.4,4,14.1,6c12.3,5.1,16.8,11,15.3,20c-1.6,9.3-9.6,14.5-22.1,14.8
			C202.6,266.3,201.5,266.3,199.5,266.3z"/>
		<path d="M431.9,221.9c0,12.3,0,24.5,0,36.8c0,3.6-0.1,6.6-5.1,6.6c-5.1,0-4.8-3.1-4.8-6.7c0-24.5,0-49.1,0-73.7c0-3.6,0-6.7,5-6.6
			c5,0,5,3.1,5,6.7C431.9,197.3,431.9,209.6,431.9,221.9z"/>
		<path d="M245,235.5c0,8.1-0.1,16.3,0,24.5c0,3.4-1,5.1-4.7,5.3c-3.9,0-5.4-1.4-5.4-5.4c0.1-16.8,0.1-33.7,0-50.5
			c0-3.7,1-5.6,5.1-5.6c4.3,0,5,2.1,5,5.7C244.9,218.3,245,227,245,235.5z"/>
		<path d="M245.7,188.1c-0.3,3.9-2,6.3-6.3,6c-4-0.3-5.1-3-5.1-6.3c0-3.4,1.6-6,5.4-6C244,181.6,245.6,184.2,245.7,188.1z"/>
	</g>
</g>
</svg>
