<?xml version="1.0" encoding="utf-8"?>
<!-- Generator: Adobe Illustrator 26.3.1, SVG Export Plug-In . SVG Version: 6.00 Build 0)  -->
<svg version="1.1" id="Layer_1" xmlns="http://www.w3.org/2000/svg" xmlns:xlink="http://www.w3.org/1999/xlink" x="0px" y="0px"
	 viewBox="0 0 595.3 595.3" style="enable-background:new 0 0 595.3 595.3;" xml:space="preserve">
<style type="text/css">
	.st0{fill:#FFFFFF;}
	.st1{fill:#F0592A;}
</style>
<path class="st0" d="M297.6,595.3L297.6,595.3C133.3,595.3,0,462,0,297.6l0,0C0,133.3,133.3,0,297.6,0l0,0
	C462,0,595.3,133.3,595.3,297.6l0,0C595.3,462,462,595.3,297.6,595.3z"/>
<g>
	<path class="st1" d="M335.5,100c-55.8,28.8-90.5,72.1-99,134.1c-8.1,61.3,13.3,112,58.8,153.7c-48,9.6-113.8-13.7-148.9-72.4
		c-34.7-58.4-24.8-135.6,23.3-183.7C218,83.4,289.3,77.1,335.5,100z"/>
	<path class="st1" d="M300.4,208.6c48.4-8.5,117.5,14.4,151.9,78c31,58,19.6,133-27.7,178.9c-48,46.6-118.6,52.5-163.7,29.9
		c54.7-28.1,89.8-71,98.3-131.9S347,251.1,300.4,208.6z"/>
</g>
</svg>
