<?xml version="1.0" encoding="utf-8"?>
<!-- Generator: Adobe Illustrator 26.3.1, SVG Export Plug-In . SVG Version: 6.00 Build 0)  -->
<svg version="1.1" id="Layer_1" xmlns="http://www.w3.org/2000/svg" xmlns:xlink="http://www.w3.org/1999/xlink" x="0px" y="0px"
	 viewBox="0 0 595.3 595.3" style="enable-background:new 0 0 595.3 595.3;" xml:space="preserve">
<style type="text/css">
	.st0{fill:#FFFFFF;}
	.st1{opacity:0.2;fill:#0062A4;}
	.st2{fill:#0EB6D8;}
</style>
<path class="st0" d="M297.6,595.3L297.6,595.3C133.3,595.3,0,462,0,297.6v0C0,133.3,133.3,0,297.6,0h0
	C462,0,595.3,133.3,595.3,297.6v0C595.3,462,462,595.3,297.6,595.3z"/>
<path class="st1" d="M676.3,1838.2c-1.7-2.1-3.6-4.1-5.6-6c1,1.2,2.1,2.5,3,3.8C674.6,1836.7,675.5,1837.4,676.3,1838.2z"/>
<g>
	<path class="st2" d="M355.9,196.5c0-4.1-1.3-6.2-5.9-6.1c-18.1,0.2-36.3,0.1-54.4,0.1c0-0.1,0-0.2,0-0.3c-18.1,0-36.3,0-54.4,0
		c-4.5,0-7.4,0.9-7.4,6.3c0.1,36.1,0.1,72.3,0,108.4c0,4.9,2,6.8,6.9,6.8c36.1-0.1,72.1-0.1,108.2,0c4.8,0,7.1-1.6,7.1-6.7
		C355.8,268.8,355.9,232.7,355.9,196.5z M251.8,195c30.9,0,61.8,0,92.7,0c0.2,0.5,0.3,0.9,0.5,1.4c-3.4,1.5-6.7,3.1-10.1,4.6
		c-10.8,4.7-21.7,9.3-32.6,14c-2.5,1.1-5,2.3-7.7,1.2c-14.5-6.3-29-12.7-43.5-19C251.4,196.4,251.6,195.7,251.8,195z M241.7,196
		c15.7,7.6,31.5,15.2,47.2,22.9c2.4,1.2,2.2,2.9,0.4,4.6c-7.2,6.8-14.4,13.5-21.7,20.2c-1.5,1.4-3.1,1.8-4.2-0.3
		c-7.8-15.3-15.6-30.7-23.3-46C240.7,197,241.2,196.5,241.7,196z M240.1,300.7c-0.6-0.2-1.1-0.4-1.7-0.6c0-31.6,0-63.2,0-96.2
		c4.8,5,6,10.5,8.4,15.2c4.5,8.8,8.5,17.8,12.7,26.7c1,2.2,2.2,4.4,1.2,6.9C253.8,268.6,246.9,284.6,240.1,300.7z M329.2,307.2
		c-26.6,0.1-53.1,0.1-79.7,0.1c-8.4,0-8.7-0.4-5.4-7.8c5.9-13.2,12-26.3,17.9-39.4c1.5-3.3,3-6.4,7.4-3.4
		c23.5,15.9,47.1,31.9,70.6,47.9c0.3,0.2,0.5,0.8,1,1.8C336.9,307.8,333,307.1,329.2,307.2z M309.2,278.6
		c-11.5-7.9-22.9-16.2-34.7-23.7c-5.9-3.8-5.6-6.5-0.6-10.7c6.3-5.3,12.2-11,18.1-16.7c2.9-2.8,5-3,7.4,0.7
		c15.8,24.3,31.6,48.5,47.5,72.7c0.3,0.5,0.3,1.3,0.7,4C333.9,295.4,321.5,287,309.2,278.6z M351.2,296.1c0,0.4-0.3,0.9-1.2,3.4
		c-5.5-8.7-10.1-16.1-14.8-23.6c-10.5-16.5-20.8-33-31.5-49.3c-2.9-4.4-2.3-6.6,2.5-8.7c13.2-5.9,26.3-12.1,39.4-18.3
		c3.8-1.8,5.9-1.5,5.9,3.4C351.3,234.1,351.3,265.1,351.2,296.1z"/>
	<path class="st2" d="M344.4,336.3c-6.8-0.1-5.5,4.7-5.5,8.6c-0.1,9.1,0,18.3,0,27.4c0,1.9,0.8,4.4-1.1,5.4c-2.5,1.2-3.7-1.7-5.1-3
		c-11.7-11.5-23.3-23.1-34.9-34.7c-1.2-1.1-2.3-3.1-4.1-2.6c-2.3,0.7-1.6,3.2-1.6,5c-0.1,18.1-0.1,36.1,0,54.2c0,3.3-0.3,7,4.7,7.4
		c5.5,0.5,5.7-3.5,5.8-7.1c0.3-9.4,0.3-18.8,0.5-28.2c0-1.8-0.8-4.3,1.4-5.2c2.2-1,3.3,1.4,4.6,2.7c11.9,11.7,23.7,23.4,35.6,35.1
		c1.1,1.1,2.3,3.2,4.1,2c0.8-0.6,0.9-2.6,0.9-3.9c0.1-9.4,0-18.8,0-28.2c0-8.7,0.1-17.3-0.1-26C349.5,341.4,351.2,336.4,344.4,336.3
		z"/>
	<path class="st2" d="M404.5,337.9c-8.3-2-16.8-1.7-25.2-1.7c-5.1,0-6.7,2.3-6.6,7.1c0.2,8.9,0.1,17.8,0.1,26.7
		c0,9.1,0.1,18.3,0,27.4c-0.1,4.4,1.4,6.8,6.2,6.7c6.8-0.2,13.6,0.3,20.3-0.3c17.7-1.4,29.7-13.3,31.1-30.5
		C431.9,355.4,422.4,342.3,404.5,337.9z M416,383.4c-5,8.9-18.7,14.3-29.1,11.8c-3.6-0.8-3.7-3.3-3.8-6c-0.1-6.2,0-12.5,0-18.7
		c0-6.2,0-12.5,0-18.7c0-2.8,0.5-5,4-5.8c9.6-2,22.4,2.4,27.9,10.2C421,364.9,421.2,374.1,416,383.4z"/>
	<path class="st2" d="M270.1,395.5c-3.9-0.1-7.7-0.1-11.6-0.2c-15.7-0.4-14.9,3.6-14.7-16.1c0-4,1.8-5.7,5.7-5.6
		c5.6,0.1,11.1,0.1,16.7,0.1c3.1,0,5.1-1.1,5-4.6c-0.1-3.3-2.1-4-4.8-4c-5.1,0-10.2-0.3-15.2,0c-5.8,0.4-8-2.1-7.4-7.6
		c0.1-0.5,0-1,0-1.4c0-10.1,0-10.2,9.9-10.2c4.6,0,9.2,0,13.8-0.1c3,0,5.1-1,5.2-4.5c0.1-3.8-1.9-5.1-5.4-5.1
		c-9.2,0-18.4,0.2-27.6,0c-4.7-0.1-6.4,2.1-6.3,6.6c0.2,8.9,0,17.8,0,26.7c0,0,0.1,0,0.1,0c0,9.4,0,18.8,0,28.2
		c0,3.5,0.9,6.2,5.2,6.2c10.4-0.1,20.8,0,31.2-0.1c2.8,0,4.5-1.3,4.4-4.4C274.2,396.7,272.5,395.6,270.1,395.5z"/>
	<path class="st2" d="M152.2,337.4c-7.8-2.1-15.9-0.9-23.8-1.3c-5.2-0.3-6.7,2.3-6.6,7c0.2,8.9,0.1,17.8,0.1,26.7c0,0,0,0,0,0
		c0,9.1,0,18.3,0,27.4c0,3.6,0.2,6.9,5.2,6.7c5-0.1,5-3.5,5.1-7c0-4.1,0.2-8.2,0-12.3c-0.3-5.4,2.2-7.3,7.3-7.1
		c4.1,0.2,8.2,0.1,12.2-1c9.8-2.6,15.3-9.6,15.3-20C167.1,346.1,162.5,340.2,152.2,337.4z M156.4,360.5c-1.7,6.2-17,11.6-22.2,7.8
		c-1.5-1.1-1.9-2.7-1.9-4.4c-0.1-2.6-0.1-5.3-0.1-7.9c0-10.1,0.3-10.4,10.6-10.2C154.1,346,159,351.3,156.4,360.5z"/>
	<path class="st2" d="M528.1,397.2c-5.1-13-10.4-25.9-15.9-38.7c-3.2-7.5-5.6-15.3-11-23.8c-9.2,22.3-17.8,43.2-26.3,64.1
		c-0.7,1.7-1.8,4.1,0.9,4.8c3,0.8,6.4,1.5,8.6-1.6c1.1-1.5,1.6-3.5,2.3-5.3c5.3-13.2,5.3-13.1,19.2-12.8c4.6,0.1,7.2,1.6,8.6,6
		c1.2,3.6,2.8,7.1,4.3,10.7c1.9,4.4,6,4.3,9.2,3.2C532.1,402.3,528.9,399.1,528.1,397.2z M500.5,375.3c-3.7-0.2-5.7-1.2-4.1-5.2
		c1.4-3.5,1.9-7.4,5.5-11.4c1.6,3.7,2.9,6.5,4,9.3C508.3,374.3,507.3,375.6,500.5,375.3z"/>
	<path class="st2" d="M94.4,368.4c-4-2.3-8.1-4.3-12.2-6.4c-4.8-2.5-7.5-6.3-5.8-11.8c1.7-5.5,6.4-6.2,11.2-5.6
		c2.8,0.3,5.6,1.2,8.4,2.1c3.1,1,4.4-0.7,5.6-3c1.1-2.2,0.3-3.5-1.5-4.8c-7.9-6-26.7-3.4-31.8,4.4c-6.2,9.4-2.6,20.9,8.6,27.4
		c4.2,2.4,8.7,4.3,12.8,6.8c4.4,2.7,7.2,6.8,5.5,12.2c-1.7,5.2-6.2,6.3-11.1,6.1c-3.9-0.1-7.6-1.2-11.1-3.1c-3.2-1.7-5,0.3-6.5,2.7
		c-1.9,3,0.4,4.4,2.5,5.6c4.5,2.6,9.4,3.6,13.8,4.1c11,0.5,20.2-5.2,22.4-13.3C108.1,381.9,104.6,374.3,94.4,368.4z"/>
	<path class="st2" d="M213.4,395.5c-3.1-0.1-6.3-0.1-9.4-0.1c-12.2,0-12.2,0-12.2-12.5c0-13.2,0-26.5,0-39.7c0-3.6-0.3-6.7-5.2-6.9
		c-5-0.1-5.3,2.9-5.3,6.6c0.1,8.9,0,17.8,0,26.7c0,9.4,0,18.8,0,28.2c0,3,0.2,6.1,4.3,6.1c9.2,0.1,18.4,0.1,27.6,0
		c2.9,0,4.4-1.5,4.4-4.5C217.5,396.7,215.9,395.6,213.4,395.5z"/>
	<path class="st2" d="M452,336.2c-5.1,0.1-4.9,3.5-4.9,7c0,8.7,0,17.3,0,26c0,0,0,0,0,0c0,9.4,0,18.8,0,28.2c0,3.7,0.4,6.7,5.4,6.6
		c4.4-0.1,5-2.9,5-6.3c0-18.3,0-36.6,0-54.9C457.6,339,456.8,336.1,452,336.2z"/>
</g>
</svg>
