<?xml version="1.0" encoding="utf-8"?>
<!-- Generator: Adobe Illustrator 26.3.1, SVG Export Plug-In . SVG Version: 6.00 Build 0)  -->
<svg version="1.1" id="Layer_1" xmlns="http://www.w3.org/2000/svg" xmlns:xlink="http://www.w3.org/1999/xlink" x="0px" y="0px"
	 viewBox="0 0 595.3 595.3" style="enable-background:new 0 0 595.3 595.3;" xml:space="preserve">
<style type="text/css">
	.st0{fill:#FFFFFF;}
	.st1{fill:#ED1D24;}
</style>
<path class="st0" d="M297.6,595.3L297.6,595.3C133.3,595.3,0,462,0,297.6l0,0C0,133.3,133.3,0,297.6,0l0,0
	C462,0,595.3,133.3,595.3,297.6l0,0C595.3,462,462,595.3,297.6,595.3z"/>
<g>
	<path class="st1" d="M56.3,347.9c2.1-2.6,4.3-5.2,6.6-7.9c0.5,0.5,1,1.1,1.5,1.6c10.5,10.8,23,15.1,37.7,11.3
		c10-2.6,16.1-11,16.6-21.3c0.3-9.3-3.3-16.7-10.7-22.5c-5.7-4.4-12.3-7.5-18.9-10.8c-5.4-2.8-11-5.4-15.9-9.2
		c-6.1-4.6-10.5-10.2-12.3-17.7c-4.6-18.9,6.9-36.6,26.1-39.7c12.8-2.1,24.8,0.2,35.1,8.2c1.3,1,2.5,2.3,3.8,3.4
		c0.7,0.7,0.8,1.1,0.2,1.8c-1.6,2-3.1,4.1-4.8,6.2c-0.5,0.7-0.8,0.8-1.5,0.2c-7.5-8.4-17.2-11.5-28.2-10.5c-11.8,1-21.2,9.5-21,22.5
		c0.2,5.2,2.1,9.8,5.7,13.6c3.1,3.3,6.9,5.7,11,8c5.7,3.1,11.6,6.1,17.5,9.3c5.1,2.8,10,6.1,14.1,10.2c8.4,8.4,11.2,18.7,9.8,30.2
		c-1.1,9.5-5.2,17.4-13.3,23c-4.6,3.3-9.7,5.1-15.3,5.7c-10.5,1.5-20.5,0.3-30.2-4.3c-4.9-2.5-9.2-5.6-12.8-9.7
		c-0.3-0.3-0.7-1-1.3-1.1C56.3,348.1,56.3,348.1,56.3,347.9z"/>
	<path class="st1" d="M251.7,256.9c-0.3,0.8-0.2,1.5-0.2,2.1c0,33.5,0,66.7,0,100.2c0,2.6,0.2,2.3-2.3,2.3c-2.3,0-4.6,0-6.9,0
		c-1.1,0-1.6-0.3-1.5-1.5c0-0.5,0-0.8,0-1.3c0-41,0-82,0-123c0-0.5,0-1,0-1.6s0.3-1.1,1-1.1c3,0,5.9,0,8.9,0c1,0,1.1,0.8,1.5,1.3
		c7.9,14.4,15.9,28.7,23.8,43.1c10.5,19.2,21,38.2,31.7,57.4c0.2,0.5,0.3,1,1,1.3c0.3-0.7,0.2-1.3,0.2-2c0-33,0-65.9,0-98.7
		c0-2.3,0-2.3,2.3-2.3s4.6,0,6.9,0c1,0,1.6,0.3,1.5,1.5c0,0.5,0,0.8,0,1.3c0,41,0,82,0,123c0,0.5,0,0.8,0,1.3
		c0.2,1.1-0.5,1.5-1.5,1.3c-2.5,0-4.9,0-7.4,0c-1.1,0-1.6-0.3-2.1-1.3c-5.6-10.3-11.3-20.7-16.9-31.2c-13-23.6-25.7-47.2-38.7-70.8
		C252.5,257.9,252.3,257.2,251.7,256.9z"/>
	<path class="st1" d="M422.4,361.5c-4.1,0-7.9,0-11.6,0c-1,0-1-0.8-1.3-1.3c-9-15.6-18-31.2-27.1-46.7c-1.6-2.8-3.1-5.4-4.8-8.2
		c-0.7,0.3-0.8,1-1.1,1.5c-10.2,17.7-20.3,35.4-30.5,53.1c-0.7,1.1-1.3,1.6-2.6,1.6c-3.4-0.2-6.9,0-10.5,0c0-0.8,0.5-1.3,0.7-1.8
		c12.3-20.7,24.4-41.3,36.7-62.2c0.7-1.1,0.7-2,0-3.1c-11.6-19.8-23.1-39.7-34.8-59.5c-1-1.6-1-1.8,1-1.8c3.1,0,6.1,0,9.2,0
		c1.3,0,1.8,0.5,2.5,1.5c9.3,16.7,18.9,33.6,28.2,50.3c0.3,0.5,0.7,1,0.8,1.5c0.7-0.3,0.8-0.8,1.1-1.3c9.5-16.7,19-33.5,28.4-50.3
		c0.7-1.1,1.3-1.8,2.8-1.6c3,0.2,5.7,0,8.7,0c2,0,2,0,1,1.6c-9.5,16.2-18.9,32.5-28.4,48.7c-2.1,3.6-4.1,7.2-6.4,10.8
		c-0.7,1.1-0.7,2,0,3.1c12.3,20.7,24.6,41.5,36.7,62.3C421.7,360.2,421.9,360.7,422.4,361.5z"/>
	<path class="st1" d="M502.1,363.8c-13.4-0.2-25.3-4.6-34.6-14.4c-1-1-1.1-1.8-0.2-2.8c1.6-1.6,3-3.6,4.4-5.4c0.7-1,1.1-1,2,0
		c5.1,6.1,11.6,10.2,19.4,12.1c7.5,2,14.9,2,22.1-1.3c8.4-3.8,12.5-10.5,13.1-19.4c0.8-9.8-3.1-17.7-11-23.8
		c-5.2-3.9-11-6.7-16.9-9.7c-5.2-2.6-10.7-5.2-15.4-8.7c-6.4-4.4-11.5-10-13.8-17.7c-5.6-19.2,5.9-37.7,25.6-41
		c13.6-2.3,26.2,0.3,36.9,9.5c3.1,2.6,3.1,2.6,0.7,5.9c-1,1.3-2,2.5-2.8,3.8c-0.7,1-1,1.1-2,0.2c-3.8-4.3-8.5-7.4-14.1-8.9
		c-7.2-2-14.3-2.5-21.5,0.5c-14.6,5.9-18,24.9-6.4,35.3c4.4,3.9,9.5,6.7,14.6,9.3c5.7,3,11.5,5.7,16.9,9.2c6.6,4.1,12.5,9,16.2,16.1
		c6.4,12.1,4.8,29-3.6,39.2c-5.2,6.2-12.1,9.7-20,11.2C508.5,363.7,505.2,363.8,502.1,363.8z"/>
	<path class="st1" d="M182.5,295.8c3.1-5.7,5.9-11.2,8.9-16.7c7.9-14.8,15.6-29.7,23.5-44.4c0.5-1.1,1.1-1.5,2.5-1.5
		c2.8,0.2,5.7,0,8.5,0c1.3,0,1.5,0.3,0.8,1.5c-6.7,12.3-13.3,24.6-20,36.9c-6.1,11.2-12.1,22.3-18.2,33.5c-0.5,1-0.8,2-0.8,3.1
		c0,17.2,0,34.4,0,51.7c0,1.5-0.5,1.8-1.8,1.8c-2.5-0.2-4.9,0-7.4,0c-0.8,0-1.3-0.3-1.1-1.1c0-1.3,0-2.6,0-3.9c0-15.9,0-31.8,0-47.9
		c0-1.5-0.3-2.6-1-3.9c-12.6-23.3-25.1-46.4-37.7-69.7c-1.1-1.8-1.1-1.8,1-1.8c2.8,0,5.6,0,8.4,0c1.3,0,1.8,0.3,2.5,1.5
		c10.3,19.7,20.7,39.4,31,59.2C181.6,294.3,182,295,182.5,295.8z"/>
	<path class="st1" d="M439.4,297.2c0-20.7,0-41.3,0-62c0-1.6,0.3-2.1,2-2c2.5,0.2,4.9,0,7.4,0c1,0,1.3,0.3,1.3,1.3
		c0,0.3,0,0.5,0,0.8c0,41.5,0,82.8,0,124.3c0,2.1,0.3,2-2,2c-2.3,0-4.8,0-7.1,0c-1.1,0-1.5-0.3-1.5-1.5c0-5.4,0-10.8,0-16.1
		C439.4,328.4,439.4,312.8,439.4,297.2z"/>
</g>
</svg>
