<?xml version="1.0" encoding="utf-8"?>
<!-- Generator: Adobe Illustrator 26.3.1, SVG Export Plug-In . SVG Version: 6.00 Build 0)  -->
<svg version="1.1" xmlns="http://www.w3.org/2000/svg" xmlns:xlink="http://www.w3.org/1999/xlink" x="0px" y="0px"
	 viewBox="0 0 1809.04 595.28" style="enable-background:new 0 0 1809.04 595.28;" xml:space="preserve">
<style type="text/css">
	.st0{fill:#EE4A4C;}
	.st1{fill:none;}
	.st2{fill:url(#SVGID_1_);}
	.st3{fill:url(#SVGID_00000114785543889988179670000007720597192911037575_);}
	.st4{fill:#9B9B9B;}
	.st5{fill:#E5E5E5;}
	.st6{fill:url(#SVGID_00000113320087213635708110000004554818035874743168_);}
	.st7{fill:#BFBFBF;}
	.st8{fill:#FFFFFF;}
	.st9{fill:#DB3B43;}
	.st10{fill:#C42C3A;}
	.st11{fill:url(#SVGID_00000056409663350503651940000002073743929267916422_);}
	.st12{display:none;}
	.st13{display:inline;}
	.st14{fill:#0F1921;}
	.st15{fill:url(#SVGID_00000009586194203618535510000013493234306305817731_);}
	.st16{fill:url(#SVGID_00000043436983313222131340000006371972752994416295_);}
	.st17{fill:url(#SVGID_00000110434385935840418520000007807157966789941913_);}
	.st18{fill:url(#SVGID_00000020364867948397951180000016318882955997881535_);}
	.st19{fill:url(#SVGID_00000016052565760163478220000017504297635484966846_);}
	.st20{fill:url(#SVGID_00000106831002803755610860000008837087350888698529_);}
	.st21{display:inline;fill:#0F1921;}
	.st22{fill:url(#SVGID_00000021111463399522967550000017036138939983302330_);}
	.st23{fill:url(#SVGID_00000116220984686029866900000016080009708434439305_);}
	.st24{fill:url(#SVGID_00000019637978271043238700000012121063318839793025_);}
	.st25{display:inline;fill:#FFFFFF;}
	.st26{fill:url(#SVGID_00000110470255083002240010000002828227266069956255_);}
	.st27{fill:url(#SVGID_00000056412828429141212010000015673030108377449395_);}
	.st28{fill:url(#SVGID_00000099624360488260188420000015985799982397398421_);}
</style>
<g id="Layer_1">
	<g>
		<path class="st0" d="M100.73,403.39l-9.85,5.69c-7.59,4.38-17.28,1.78-21.66-5.8h0c-4.38-7.59-1.78-17.28,5.8-21.66l9.85-5.69
			c7.59-4.38,17.28-1.78,21.66,5.8l0,0C110.91,389.31,108.32,399.01,100.73,403.39z"/>
		<path class="st0" d="M104.91,471.34l-15.57,8.99c-7.59,4.38-17.28,1.78-21.66-5.8l0,0c-4.38-7.59-1.78-17.28,5.8-21.66l15.57-8.99
			c7.59-4.38,17.28-1.78,21.66,5.8l0,0C115.1,457.26,112.5,466.96,104.91,471.34z"/>
		<path class="st0" d="M150.24,485.06l-15.57,8.99c-7.59,4.38-17.28,1.78-21.66-5.8l0,0c-4.38-7.59-1.78-17.28,5.8-21.66l15.57-8.99
			c7.59-4.38,17.28-1.78,21.66,5.8l0,0C160.43,470.98,157.83,480.68,150.24,485.06z"/>
		<path class="st1" d="M255.43,421.89c-0.41,0.3-0.8,0.57-1.17,0.83C254.66,422.45,255.05,422.18,255.43,421.89z"/>
		<linearGradient id="SVGID_1_" gradientUnits="userSpaceOnUse" x1="364.7531" y1="135.294" x2="87.607" y2="239.0901">
			<stop  offset="0" style="stop-color:#EE5D5F"/>
			<stop  offset="1" style="stop-color:#631F1F"/>
		</linearGradient>
		<path class="st2" d="M211.39,161.79c0,11.4,3.42,23.05,11.73,29.51c12.01,9.32,41.75,27.11,65.45,40.67
			c34.82-19.97,68.85-41.03,68.85-71.81c0-34.44-27.91-62.35-62.35-62.35c-9,0-18.08,1.23-25.27,5.35
			c-2.92,1.67-28.64,16.54-40.55,23.42C217.64,133.28,211.39,147.37,211.39,161.79z"/>
		
			<linearGradient id="SVGID_00000003080329004120167220000000036563306223252912_" gradientUnits="userSpaceOnUse" x1="110.5692" y1="389.7007" x2="306.2769" y2="389.7007">
			<stop  offset="0" style="stop-color:#EE4A4C"/>
			<stop  offset="0.9994" style="stop-color:#631F1F"/>
		</linearGradient>
		<path style="fill:url(#SVGID_00000003080329004120167220000000036563306223252912_);" d="M255.43,421.89
			c10.45-7.68,17.23-20.05,17.23-34.01c0-11.4-3.52-22.92-11.73-29.51c-17.51-14.03-69.65-43.06-69.65-43.06l-37.5,21.38
			c-0.55,0.24-1.09,0.5-1.62,0.8l-33.57,19.16c-6.74,3.84-9.59,11.87-7.16,18.94c0.32,0.93,0.73,1.85,1.23,2.74
			c4.35,7.62,14.06,10.28,21.68,5.93l14.84-8.47c-6.72,4.64-8.88,13.72-4.76,20.94c3.13,5.48,9.03,8.39,14.93,7.98
			c-1.45,0.34-2.89,0.89-4.25,1.67l-33.57,19.16c-2.71,1.54-4.79,3.77-6.15,6.33c-2.47,4.65-2.58,10.43,0.22,15.35
			c4.27,7.49,13.72,10.18,21.27,6.15c0.14-0.07,0.27-0.14,0.41-0.22l31.02-17.7c-6.34,4.73-8.31,13.55-4.29,20.6
			c1.54,2.7,3.75,4.77,6.3,6.13c4.66,2.49,10.45,2.61,15.38-0.2l11.44-6.53l5.09-2.9c0.41-0.26,0.81-0.51,1.21-0.78h0.01l30.25-17.2
			l16.2-9.21l2.79-1.59c0.54-0.33,1.06-0.69,1.58-1.05C254.64,422.47,255.02,422.19,255.43,421.89z"/>
		<g>
			<path class="st0" d="M252.68,423.78c0.48-0.3,1.02-0.66,1.58-1.05C253.74,423.08,253.22,423.44,252.68,423.78z"/>
		</g>
		<g>
			<path class="st0" d="M345.92,263.33c-0.19-0.12-0.39-0.23-0.58-0.34c0,0-93.96-49.98-121.89-71.48
				c-8.84-6.81-12.06-18.32-12.06-29.72c0-15.15,7.13-29.02,19.86-36.37l-81.52,47.08c-21.5,12.23-42.92,31.62-42.92,59.27
				c0,21.82,11.21,41,28.17,52.15c1.23,0.85,98.09,52.8,125.95,74.46c8.31,6.46,11.73,18.11,11.73,29.51
				c0,15.04-8.17,28.37-19.98,35.89l92.46-52.4c0.04-0.02,0.08-0.04,0.12-0.07c18.8-10.74,31.47-30.98,31.47-54.18
				C376.73,294.2,364.36,274.16,345.92,263.33z"/>
		</g>
	</g>
	<g>
		<rect x="449.02" y="89.12" class="st0" width="10.79" height="416.43"/>
	</g>
	<g>
		<rect x="449.02" y="89.12" class="st0" width="10.79" height="416.43"/>
	</g>
	<g>
		<rect x="449.02" y="89.12" class="st0" width="10.79" height="416.43"/>
	</g>
	<g>
		<g>
			<g>
				<path class="st0" d="M1497.51,360.69c-4.29,4.29-9.49,6.44-15.59,6.44c-6.1,0-11.26-2.14-15.47-6.44
					c-4.21-4.29-6.31-9.4-6.31-15.34c0-6.1,2.1-11.3,6.31-15.59c4.21-4.29,9.36-6.44,15.47-6.44c6.1,0,11.3,2.15,15.59,6.44
					c4.29,4.29,6.44,9.49,6.44,15.59C1503.95,351.29,1501.8,356.4,1497.51,360.69z"/>
			</g>
		</g>
		<path class="st1" d="M1638.84,288.17c0-2.57-0.26-5.04-0.73-7.41l0.13,14.14C1638.63,292.74,1638.84,290.5,1638.84,288.17z"/>
		<path class="st4" d="M1659.5,232.36c-11.67-11.67-25.17-18.92-40.48-21.76c8.48,13.53,18.76,36.74,19.08,70.11l0,0.06
			c0.48,2.37,0.73,4.83,0.73,7.41c0,2.33-0.21,4.57-0.6,6.74l0.6,64.05l43.81,21.78v-92.57
			C1682.65,266.39,1674.93,247.79,1659.5,232.36z"/>
		<path class="st1" d="M1638.1,280.71l0,0.06c0,0,0-0.08,0-0.19C1638.1,280.62,1638.1,280.66,1638.1,280.71z"/>
		<path class="st5" d="M1628.57,313.05c-6.85,6.85-15.14,10.27-24.88,10.27c-9.74,0-18.03-3.42-24.87-10.27
			c-6.85-6.85-10.27-15.14-10.27-24.88c0-9.73,3.42-18.02,10.27-24.87c6.84-6.85,15.14-10.27,24.87-10.27
			c9.73,0,18.03,3.42,24.88,10.27c5.04,5.04,8.21,10.87,9.54,17.47l0-0.06c0-0.04,0-0.09,0-0.13c-0.08-2.53-2.76-33.09-83.82-54.01
			c-2.19,1.79-4.32,3.72-6.4,5.79c-15.43,15.43-23.14,34.03-23.14,55.81c0,21.78,7.71,40.39,23.14,55.81
			c15.43,15.43,34.03,23.14,55.81,23.14c12.04,0,23.76-2.72,35.15-8.17l-0.6-64.05C1636.99,301.79,1633.77,307.84,1628.57,313.05z"
			/>
		
			<linearGradient id="SVGID_00000080911267953954827280000010844509649405243051_" gradientUnits="userSpaceOnUse" x1="1524.7361" y1="244.8965" x2="1638.8374" y2="244.8965">
			<stop  offset="0" style="stop-color:#FFFFFF"/>
			<stop  offset="1" style="stop-color:#000000"/>
		</linearGradient>
		<path style="fill:url(#SVGID_00000080911267953954827280000010844509649405243051_);" d="M1638.1,280.58
			c-0.34-33.3-10.61-56.47-19.07-69.98c-4.93-0.91-10.04-1.38-15.34-1.38c-18.85,0-35.32,5.79-49.41,17.35
			C1635.34,247.49,1638.02,278.04,1638.1,280.58z"/>
		<path class="st7" d="M1638.1,280.58c-0.34-33.3-10.61-56.47-19.07-69.98c-4.93-0.91-10.04-1.38-15.34-1.38
			c-18.85,0-35.32,5.79-49.41,17.35C1635.34,247.49,1638.02,278.04,1638.1,280.58z"/>
		<path class="st8" d="M1722.99,205.01c5.45,0,10.06-1.94,13.86-5.82c3.8-3.88,5.69-8.54,5.69-13.98c0-5.45-1.9-10.11-5.69-13.99
			c-3.8-3.87-8.41-5.81-13.86-5.81c-5.44,0-10.11,1.94-13.98,5.81c-3.88,3.88-5.82,8.54-5.82,13.99c0,5.44,1.94,10.11,5.82,13.98
			C1712.88,203.07,1717.54,205.01,1722.99,205.01z"/>
		<path class="st5" d="M1716.87,265.15c8.37-25.19,21.01-45.9,27.65-55.81l-31.38,15.78c-7.47,3.76-12.18,11.4-12.18,19.76v122.25
			h18.62h5.4c-1.58-2.34-3.03-4.7-4.36-7.09C1703.32,328.91,1707.26,294.08,1716.87,265.15z"/>
		<path class="st7" d="M1744.52,209.34c-6.64,9.91-19.29,30.62-27.65,55.81c-9.61,28.93-13.54,63.76,3.76,94.89
			c1.33,2.39,2.78,4.75,4.36,7.09h19.78V209.22L1744.52,209.34z"/>
		<g>
			<path class="st0" d="M1360.89,165.41v121.48c0,21.49,8.17,42.36,23.42,57.5c15.27,15.16,33.7,22.74,55.29,22.74v-36.42
				c0-3.91-2.9-7.2-6.77-7.73C1371.77,314.64,1360.89,165.41,1360.89,165.41z"/>
		</g>
		<g>
			<path class="st9" d="M1404.7,288.17V187.43l-43.81-22.03c0,0,10.97,149.96,72.4,157.65c-0.78-0.27-0.98-0.33-2.61-0.83
				c-5.78-1.76-11.09-4.56-15.7-9.18C1408.12,306.2,1404.7,297.91,1404.7,288.17z"/>
		</g>
		<path class="st1" d="M1285.27,258.6c-5.53-3.55-11.59-5.32-18.19-5.32c-6.77,0-12.91,1.78-18.44,5.32
			c-5.53,3.55-9.78,8.21-12.75,13.98h62.12C1295.05,266.8,1290.8,262.15,1285.27,258.6z"/>
		<g>
			<path class="st10" d="M1310.39,354.01c8.41-5.64,15.37-12.45,20.9-20.42c4.17-6.01-0.04-14.23-7.36-14.23h-40.77
				c0,0-18.74,32.69-71.53,24.75c15.35,15.34,33.82,23.02,55.44,23.02C1282.92,367.13,1297.35,362.76,1310.39,354.01z"/>
		</g>
		<path class="st1" d="M1242.73,313.48c-0.66-0.63-1.29-1.29-1.89-1.96C1241.44,312.19,1242.07,312.85,1242.73,313.48z"/>
		<path class="st1" d="M1277.55,321.66c0.82-0.26,1.63-0.53,2.43-0.85C1279.27,321.09,1278.46,321.38,1277.55,321.66z"/>
		<path class="st1" d="M1243.61,314.3c0.65,0.58,1.32,1.14,2.02,1.68C1244.93,315.44,1244.26,314.89,1243.61,314.3z"/>
		<path class="st1" d="M1273.42,322.69c1.22-0.22,2.42-0.51,3.6-0.86C1275.94,322.15,1274.72,322.44,1273.42,322.69z"/>
		<path class="st1" d="M1253.03,320.44c0.83,0.37,1.67,0.7,2.53,0.99C1254.72,321.14,1253.88,320.82,1253.03,320.44z"/>
		<path class="st1" d="M1270.75,323.1c0.61-0.06,1.2-0.16,1.8-0.26C1271.97,322.95,1271.37,323.03,1270.75,323.1z"/>
		<path class="st1" d="M1246.59,316.72c0.89,0.65,1.8,1.24,2.72,1.79C1248.37,317.95,1247.46,317.35,1246.59,316.72z"/>
		<path class="st1" d="M1250,318.9c0.82,0.47,1.65,0.89,2.5,1.29C1251.67,319.8,1250.83,319.37,1250,318.9z"/>
		<path class="st1" d="M1238.53,308.66c0.56,0.79,1.16,1.55,1.79,2.29C1239.69,310.21,1239.11,309.44,1238.53,308.66z"/>
		<g>
			<path class="st9" d="M1277.55,321.66c-0.18,0.06-0.34,0.11-0.53,0.17c-1.18,0.35-2.38,0.64-3.6,0.86
				c-0.29,0.05-0.57,0.11-0.87,0.16c-0.6,0.09-1.19,0.19-1.8,0.26c-4.39,0.51-9.63,0.28-15.2-1.67c-0.86-0.3-1.7-0.63-2.53-0.99
				c-0.18-0.08-0.35-0.17-0.53-0.25c-0.85-0.39-1.68-0.82-2.5-1.29c-0.13-0.07-0.26-0.13-0.39-0.2c-0.1-0.06-0.19-0.13-0.29-0.19
				c-0.92-0.55-1.83-1.14-2.72-1.79c-0.33-0.24-0.64-0.49-0.96-0.74c-0.7-0.54-1.37-1.1-2.02-1.68c-0.3-0.27-0.59-0.54-0.87-0.82
				c-0.66-0.63-1.29-1.29-1.89-1.96c-0.17-0.19-0.35-0.38-0.52-0.57c-0.63-0.74-1.23-1.5-1.79-2.29
				c-21.91-29.77-4.74-91.92-4.71-92.02c-8.01,3.78-15.41,9.06-22.19,15.85c-15.35,15.35-23.02,33.91-23.02,55.69
				c0,21.95,7.67,40.59,23.02,55.94c52.79,7.94,71.53-24.75,71.53-24.75s-1.17,0.67-3.19,1.46
				C1279.18,321.14,1278.37,321.4,1277.55,321.66z"/>
		</g>
		<path class="st8" d="M1339.42,257.57l3.71,11.45C1342.19,265.08,1340.95,261.26,1339.42,257.57z"/>
		<path class="st5" d="M1246.29,316.51c-0.23-0.17-0.43-0.35-0.66-0.53c0.32,0.25,0.63,0.5,0.96,0.74
			C1246.49,316.65,1246.39,316.59,1246.29,316.51z"/>
		<path class="st5" d="M1240.32,310.95c0.17,0.2,0.35,0.38,0.52,0.57C1240.67,311.33,1240.49,311.14,1240.32,310.95z"/>
		<path class="st5" d="M1243.61,314.3c-0.3-0.27-0.59-0.54-0.87-0.82C1243.02,313.76,1243.31,314.03,1243.61,314.3z"/>
		<path class="st5" d="M1252.5,320.19c0.18,0.08,0.35,0.17,0.53,0.25C1252.85,320.36,1252.68,320.27,1252.5,320.19z"/>
		<g>
			<g>
				<path class="st0" d="M1238.53,308.66c-2.09-2.94-3.72-6.22-4.87-9.84h110.89c0.49-3.46,0.74-7.01,0.74-10.64
					c0-6.69-0.73-13.07-2.17-19.15l-3.71-11.45c-3.82-9.15-9.48-17.51-17.02-25.09c-15.26-15.35-33.7-23.02-55.32-23.02
					c-12.06,0-23.15,2.39-33.25,7.17C1233.8,216.74,1216.62,278.88,1238.53,308.66z M1248.64,258.6c5.53-3.55,11.67-5.32,18.44-5.32
					c6.6,0,12.66,1.78,18.19,5.32c5.53,3.55,9.77,8.21,12.75,13.98h-62.12C1238.86,266.8,1243.11,262.15,1248.64,258.6z"/>
			</g>
		</g>
		<path class="st5" d="M1283.17,319.36c-1.04,0.56-2.11,1.02-3.19,1.46C1281.99,320.03,1283.17,319.36,1283.17,319.36z"/>
		<path class="st5" d="M1250,318.9c-0.23-0.13-0.46-0.26-0.69-0.39c0.1,0.06,0.19,0.13,0.29,0.19
			C1249.74,318.78,1249.86,318.83,1250,318.9z"/>
		<path class="st5" d="M1272.55,322.85c0.3-0.05,0.58-0.1,0.87-0.16C1273.13,322.75,1272.84,322.8,1272.55,322.85z"/>
		<path class="st5" d="M1270.75,323.1c-1.21,0.12-2.43,0.21-3.68,0.21c-4.07,0-7.91-0.64-11.52-1.89
			C1261.12,323.38,1266.36,323.61,1270.75,323.1z"/>
		<path class="st5" d="M1277.02,321.83c0.19-0.05,0.35-0.11,0.53-0.17C1277.37,321.72,1277.2,321.78,1277.02,321.83z"/>
		<path class="st1" d="M1169.77,322.26c0.19,0.08,0.38,0.14,0.57,0.22C1170.14,322.4,1169.96,322.33,1169.77,322.26z"/>
		<g>
			<path class="st0" d="M1170.33,322.47c-0.19-0.07-0.38-0.13-0.57-0.22c-36.89-14.97-51.94-156.36-51.94-156.36v43.32h-15.59v24.5
				h15.59v76.48c0,15.68,5.61,29.08,16.83,40.22c11.22,11.14,24.67,16.71,40.35,16.71h3.96v-37.94c0-3.01-2.29-5.37-5.27-5.83
				C1172.56,323.17,1171.44,322.88,1170.33,322.47z"/>
		</g>
		<g>
			<path class="st9" d="M1169.77,322.26c-1.47-0.64-2.82-1.55-4.04-2.77c-2.56-2.56-3.84-5.65-3.84-9.28v-76.48h15.59v-24.5h-15.59
				v-21.29l-44.06-22.03C1117.83,165.9,1132.88,307.29,1169.77,322.26z"/>
		</g>
		<path class="st1" d="M1048.81,271.34c-1.58-2.87-3.61-5.55-6.09-8.04c-6.85-6.85-15.14-10.27-24.88-10.27
			c-9.74,0-18.03,3.42-24.88,10.27c-6.85,6.85-10.27,15.14-10.27,24.87c0,9.57,3.42,17.78,10.27,24.63
			c6.85,6.85,15.14,10.27,24.88,10.27c9.73,0,18.03-3.42,24.88-10.27c4.96-4.96,8.1-10.65,9.47-17.05
			C1053.74,286.28,1052.29,278.22,1048.81,271.34z"/>
		<path class="st5" d="M1048.81,271.34c3.49,6.88,4.93,14.94,3.38,24.41c0.52-2.43,0.8-4.95,0.8-7.58
			C1052.98,281.97,1051.58,276.37,1048.81,271.34z"/>
		<g>
			<path class="st9" d="M1048.81,271.34c2.78,5.03,4.18,10.64,4.18,16.83c0,2.63-0.28,5.15-0.8,7.58c-0.01,0.08-0.02,0.15-0.03,0.23
				c0,0,28.51-48.58,13.11-70.99c-13.65-10.5-29.45-15.77-47.42-15.77c-21.78,0-40.39,7.71-55.81,23.14
				C962.02,232.36,1031.27,236.76,1048.81,271.34z"/>
		</g>
		<g>
			<path class="st0" d="M983.51,295.92l0.03,0.05c-0.55-2.49-0.86-5.09-0.86-7.8c0-9.73,3.42-18.02,10.27-24.87
				c6.85-6.85,15.14-10.27,24.88-10.27c9.73,0,18.03,3.42,24.88,10.27c2.49,2.49,4.51,5.17,6.09,8.04
				c-17.53-34.58-86.78-38.98-86.78-38.98c-15.43,15.43-23.14,34.03-23.14,55.81c0,21.78,7.71,40.39,23.14,55.81
				c10.52,10.52,22.52,17.45,36,20.8C975.03,333.73,983.51,295.92,983.51,295.92z"/>
		</g>
		<g>
			<path class="st10" d="M1073.65,232.36c-2.7-2.7-5.5-5.15-8.39-7.37c15.4,22.42-13.11,70.99-13.11,70.99
				c0.01-0.08,0.02-0.15,0.03-0.23c-1.37,6.4-4.51,12.09-9.47,17.05c-6.85,6.85-15.14,10.27-24.88,10.27
				c-7.45,0-14.05-2.02-19.81-6.04c-1.76-1.23-3.46-2.63-5.06-4.24c-4.91-4.9-8.02-10.52-9.41-16.83l-0.03-0.05
				c0,0-8.48,37.81,14.51,68.86c6.28,1.56,12.89,2.35,19.81,2.35c4.77,0,9.37-0.39,13.84-1.13c15.93-2.64,29.92-9.96,41.98-22.01
				c15.43-15.43,23.14-34.03,23.14-55.81C1096.79,266.39,1089.08,247.79,1073.65,232.36z"/>
		</g>
		<path class="st1" d="M870.57,323.07c1.15,0,2.19-0.28,3.14-0.77C872.7,322.57,871.69,322.84,870.57,323.07z"/>
		<g>
			<path class="st9" d="M912.77,288.91c-5.69-8.58-13.24-14.85-22.65-18.81l-21.53-8.91c0,0,47.63,49.65,5.12,61.1
				c-1.12,0.59-2.36,0.87-3.76,0.75c-1.54-0.13-3-0.9-4.04-2.04c-1.18-1.29-1.77-2.75-1.77-4.36c0-1.32,0.25-2.31,0.74-2.97h-28.97
				c-8.98,0-15.75,8.58-13.2,17.19c2.28,7.67,6.18,14.56,11.72,20.68c9.41,10.39,21.45,15.59,36.14,15.59
				c14.02,0,25.99-4.86,35.89-14.6c9.9-9.73,14.85-21.61,14.85-35.64C921.31,306.82,918.46,297.49,912.77,288.91z"/>
		</g>
		<g>
			<path class="st0" d="M868.59,261.19c-1.49-0.66-2.23-1.9-2.23-3.71c0-1.15,0.41-2.18,1.24-3.09c0.82-0.9,1.81-1.36,2.97-1.36
				c1.81,0,3.13,0.83,3.96,2.48h27.06c10.09,0,16.85-10.64,12.29-19.64c-2.37-4.69-5.59-9.04-9.65-13.03
				c-9.24-9.07-20.22-13.61-32.92-13.61c-13.53,0-25.08,4.66-34.65,13.98c-9.57,9.32-14.36,20.75-14.36,34.28
				c0,10.07,2.8,19.14,8.41,27.23c5.61,8.09,12.95,13.95,22.03,17.57l19.8,7.92c3.13,1.15,4.7,3.3,4.7,6.44
				c0,1.82-0.66,3.34-1.98,4.58c-0.48,0.45-1.01,0.79-1.56,1.08C916.22,310.85,868.59,261.19,868.59,261.19z"/>
		</g>
		<g>
			<path class="st0" d="M766.12,209.22l-30.44,83.66l-37.62-83.66c0,0,38.4,92.91,16.09,142.81l-3.96,10.4
				c-2.48,6.76-6.6,12.21-12.38,16.34c-2.82,2.01-5.8,3.58-8.94,4.69c-6.32,2.23-10.36,8.43-10.36,15.13v30.68
				c16-0.17,30.73-4.91,44.18-14.23c13.44-9.32,23.06-21.82,28.83-37.5l61.38-168.31H766.12z"/>
		</g>
		<g>
			<path class="st9" d="M698.05,209.22h-48.02l64.11,142.81C736.45,302.12,698.05,209.22,698.05,209.22z"/>
		</g>
		<path class="st1" d="M595.09,323.07c1.15,0,2.19-0.28,3.14-0.77C597.21,322.57,596.2,322.84,595.09,323.07z"/>
		<g>
			<path class="st9" d="M637.28,288.91c-5.69-8.58-13.24-14.85-22.65-18.81l-21.53-8.91c0,0,47.63,49.65,5.12,61.1
				c-1.12,0.59-2.36,0.87-3.76,0.75c-1.54-0.13-3-0.9-4.04-2.04c-1.18-1.29-1.77-2.75-1.77-4.36c0-1.32,0.25-2.31,0.74-2.97h-28.97
				c-8.98,0-15.75,8.58-13.2,17.19c2.28,7.67,6.18,14.56,11.72,20.68c9.41,10.39,21.45,15.59,36.14,15.59
				c14.02,0,25.99-4.86,35.89-14.6c9.9-9.73,14.85-21.61,14.85-35.64C645.82,306.82,642.98,297.49,637.28,288.91z"/>
		</g>
		<g>
			<path class="st0" d="M593.1,261.19c-1.49-0.66-2.23-1.9-2.23-3.71c0-1.15,0.41-2.18,1.24-3.09c0.82-0.9,1.81-1.36,2.97-1.36
				c1.81,0,3.13,0.83,3.96,2.48h27.06c10.09,0,16.85-10.64,12.29-19.64c-2.37-4.69-5.59-9.04-9.65-13.03
				c-9.24-9.07-20.22-13.61-32.92-13.61c-13.53,0-25.08,4.66-34.65,13.98c-9.57,9.32-14.36,20.75-14.36,34.28
				c0,10.07,2.8,19.14,8.41,27.23c5.61,8.09,12.95,13.95,22.03,17.57l19.8,7.92c3.13,1.15,4.7,3.3,4.7,6.44
				c0,1.82-0.66,3.34-1.98,4.58c-0.48,0.45-1.01,0.79-1.56,1.08C640.73,310.85,593.1,261.19,593.1,261.19z"/>
		</g>
		<g>
			<path class="st1" d="M1638.84,288.17c0-2.57-0.26-5.04-0.73-7.41l0.13,14.14C1638.63,292.74,1638.84,290.5,1638.84,288.17z"/>
			<g>
				<path class="st0" d="M1659.5,232.36c-11.67-11.67-25.17-18.92-40.48-21.76c8.48,13.53,18.76,36.74,19.08,70.11l0,0.06
					c0.48,2.37,0.73,4.83,0.73,7.41c0,2.33-0.21,4.57-0.6,6.74l0.6,64.05l43.81,21.78v-92.57
					C1682.65,266.39,1674.93,247.79,1659.5,232.36z"/>
			</g>
			<path class="st1" d="M1638.1,280.71l0,0.06c0,0,0-0.08,0-0.19C1638.1,280.62,1638.1,280.66,1638.1,280.71z"/>
			<g>
				<path class="st10" d="M1628.57,313.05c-6.85,6.85-15.14,10.27-24.88,10.27c-9.74,0-18.03-3.42-24.87-10.27
					c-6.85-6.85-10.27-15.14-10.27-24.88c0-9.73,3.42-18.02,10.27-24.87c6.84-6.85,15.14-10.27,24.87-10.27
					c9.73,0,18.03,3.42,24.88,10.27c5.04,5.04,8.21,10.87,9.54,17.47l0-0.06c0-0.04,0-0.09,0-0.13
					c-0.08-2.53-2.76-33.09-83.82-54.01c-2.19,1.79-4.32,3.72-6.4,5.79c-15.43,15.43-23.14,34.03-23.14,55.81
					c0,21.78,7.71,40.39,23.14,55.81c15.43,15.43,34.03,23.14,55.81,23.14c12.04,0,23.76-2.72,35.15-8.17l-0.6-64.05
					C1636.99,301.79,1633.77,307.84,1628.57,313.05z"/>
			</g>
			
				<linearGradient id="SVGID_00000174559602639681849300000016350007713608508084_" gradientUnits="userSpaceOnUse" x1="1524.7361" y1="244.8965" x2="1638.8374" y2="244.8965">
				<stop  offset="0" style="stop-color:#FFFFFF"/>
				<stop  offset="1" style="stop-color:#000000"/>
			</linearGradient>
			<path style="fill:url(#SVGID_00000174559602639681849300000016350007713608508084_);" d="M1638.1,280.58
				c-0.34-33.3-10.61-56.47-19.07-69.98c-4.93-0.91-10.04-1.38-15.34-1.38c-18.85,0-35.32,5.79-49.41,17.35
				C1635.34,247.49,1638.02,278.04,1638.1,280.58z"/>
			<g>
				<path class="st9" d="M1638.1,280.58c-0.34-33.3-10.61-56.47-19.07-69.98c-4.93-0.91-10.04-1.38-15.34-1.38
					c-18.85,0-35.32,5.79-49.41,17.35C1635.34,247.49,1638.02,278.04,1638.1,280.58z"/>
			</g>
			<g>
				<path class="st0" d="M1722.99,205.01c5.45,0,10.06-1.94,13.86-5.82c3.8-3.88,5.69-8.54,5.69-13.98c0-5.45-1.9-10.11-5.69-13.99
					c-3.8-3.87-8.41-5.81-13.86-5.81c-5.44,0-10.11,1.94-13.98,5.81c-3.88,3.88-5.82,8.54-5.82,13.99c0,5.44,1.94,10.11,5.82,13.98
					C1712.88,203.07,1717.54,205.01,1722.99,205.01z"/>
			</g>
			<g>
				<path class="st0" d="M1716.87,265.15c8.37-25.19,21.01-45.9,27.65-55.81l-31.38,15.78c-7.47,3.76-12.18,11.4-12.18,19.76v122.25
					h18.62h5.4c-1.58-2.34-3.03-4.7-4.36-7.09C1703.32,328.91,1707.26,294.08,1716.87,265.15z"/>
			</g>
			<g>
				<path class="st9" d="M1744.52,209.34c-6.64,9.91-19.29,30.62-27.65,55.81c-9.61,28.93-13.54,63.76,3.76,94.89
					c1.33,2.39,2.78,4.75,4.36,7.09h19.78V209.22L1744.52,209.34z"/>
			</g>
		</g>
	</g>
</g>
<g id="Layer_2" class="st12">
	<g class="st13">
		<circle class="st14" cx="682.95" cy="848.52" r="125"/>
		<g>
			
				<linearGradient id="SVGID_00000102529444896098350890000008445864630947893177_" gradientUnits="userSpaceOnUse" x1="634.6845" y1="914.9505" x2="719.6" y2="914.9505">
				<stop  offset="0" style="stop-color:#FFFFFF"/>
				<stop  offset="1" style="stop-color:#767474"/>
			</linearGradient>
			<path style="fill:url(#SVGID_00000102529444896098350890000008445864630947893177_);" d="M675.36,914.33l-2.16,1.23
				C673.94,915.19,674.66,914.78,675.36,914.33z"/>
			<path class="st8" d="M675.88,914c-0.17,0.11-0.34,0.22-0.52,0.33l13.07-7.46c0.11-0.06,0.21-0.12,0.31-0.19L675.88,914
				L675.88,914z"/>
			<path class="st0" d="M633.49,892.62l-6.99,4.03c-2.45,1.42-5.58,0.58-7-1.88l-1.62-2.8c-1.41-2.45-0.58-5.58,1.88-7l6.99-4.03
				c2.45-1.41,5.58-0.58,7,1.88l1.62,2.8C636.78,888.07,635.94,891.21,633.49,892.62z"/>
			<path class="st0" d="M635.27,921.51l-9.42,5.44c-2.45,1.42-5.58,0.58-7-1.88l-1.62-2.8c-1.41-2.45-0.58-5.58,1.88-7l9.42-5.44
				c2.45-1.41,5.58-0.58,7,1.88l1.62,2.8C638.56,916.96,637.72,920.09,635.27,921.51z"/>
			<path class="st0" d="M654.54,927.34l-9.42,5.44c-2.45,1.41-5.58,0.58-7-1.88l-1.62-2.8c-1.41-2.45-0.58-5.58,1.88-7l9.42-5.44
				c2.45-1.42,5.58-0.58,7,1.88l1.62,2.8C657.83,922.79,656.99,925.93,654.54,927.34z"/>
			<path class="st1" d="M697.85,901.3c-0.17,0.13-0.34,0.24-0.5,0.35C697.52,901.54,697.69,901.42,697.85,901.3z"/>
			
				<linearGradient id="SVGID_00000181087028151921302120000005382954318994010271_" gradientUnits="userSpaceOnUse" x1="744.3264" y1="779.4611" x2="626.5089" y2="823.5858">
				<stop  offset="0" style="stop-color:#EE5D5F"/>
				<stop  offset="1" style="stop-color:#631F1F"/>
			</linearGradient>
			<path style="fill:url(#SVGID_00000181087028151921302120000005382954318994010271_);" d="M679.13,790.73
				c0,4.84,1.45,9.8,4.99,12.54c5.1,3.96,17.75,11.52,27.82,17.29c14.8-8.49,29.27-17.44,29.27-30.53
				c0-14.64-11.87-26.51-26.51-26.51c-3.83,0-7.68,0.52-10.74,2.27c-1.24,0.71-12.17,7.03-17.24,9.96
				C681.79,778.61,679.13,784.59,679.13,790.73z"/>
			
				<linearGradient id="SVGID_00000011730865645207201390000004684687599501525913_" gradientUnits="userSpaceOnUse" x1="636.2703" y1="887.6119" x2="719.4676" y2="887.6119">
				<stop  offset="0" style="stop-color:#EE4A4C"/>
				<stop  offset="0.9994" style="stop-color:#631F1F"/>
			</linearGradient>
			<path style="fill:url(#SVGID_00000011730865645207201390000004684687599501525913_);" d="M697.85,901.3
				c4.44-3.27,7.32-8.52,7.32-14.46c0-4.84-1.5-9.75-4.99-12.54c-7.44-5.96-29.61-18.31-29.61-18.31l-15.94,9.09
				c-0.23,0.1-0.46,0.21-0.69,0.34l-14.27,8.14c-2.86,1.63-4.08,5.05-3.04,8.05c0.14,0.4,0.31,0.79,0.52,1.16
				c1.85,3.24,5.98,4.37,9.22,2.52l6.31-3.6c-2.85,1.97-3.78,5.83-2.02,8.9c1.33,2.33,3.84,3.57,6.35,3.39
				c-0.62,0.15-1.23,0.38-1.81,0.71l-14.27,8.14c-1.15,0.66-2.03,1.6-2.61,2.69c-1.05,1.98-1.1,4.44,0.09,6.53
				c1.82,3.18,5.83,4.33,9.04,2.61c0.06-0.03,0.12-0.06,0.17-0.09l13.19-7.52c-2.7,2.01-3.53,5.76-1.82,8.76
				c0.65,1.15,1.59,2.03,2.68,2.61c1.98,1.06,4.44,1.11,6.54-0.09l4.86-2.78l2.16-1.23c0.17-0.11,0.35-0.22,0.52-0.33h0l12.86-7.31
				l6.89-3.92l1.19-0.67c0.23-0.14,0.45-0.3,0.67-0.45C697.52,901.54,697.68,901.43,697.85,901.3z"/>
			<g>
				<path class="st0" d="M696.68,902.1c0.2-0.13,0.43-0.28,0.67-0.45C697.13,901.8,696.91,901.96,696.68,902.1z"/>
			</g>
			<g>
				<path class="st0" d="M736.32,833.89c-0.08-0.05-0.17-0.1-0.25-0.15c0,0-39.94-21.25-51.82-30.39
					c-3.76-2.89-5.13-7.79-5.13-12.63c0-6.44,3.03-12.34,8.44-15.46l-34.65,20.02c-9.14,5.2-18.25,13.44-18.25,25.2
					c0,9.27,4.76,17.43,11.97,22.17c0.52,0.36,41.7,22.45,53.54,31.65c3.53,2.75,4.99,7.7,4.99,12.54c0,6.4-3.48,12.06-8.5,15.26
					l39.31-22.28c0.02-0.01,0.03-0.02,0.05-0.03c7.99-4.56,13.38-13.17,13.38-23.03C749.42,847.01,744.16,838.49,736.32,833.89z"/>
			</g>
		</g>
		<g>
			<path class="st0" d="M682.95,731.52c31.25,0,60.63,12.17,82.73,34.27s34.27,51.48,34.27,82.73s-12.17,60.63-34.27,82.73
				s-51.48,34.27-82.73,34.27s-60.63-12.17-82.73-34.27s-34.27-51.48-34.27-82.73s12.17-60.63,34.27-82.73
				S651.7,731.52,682.95,731.52 M682.95,728.52c-66.27,0-120,53.73-120,120s53.73,120,120,120s120-53.73,120-120
				S749.23,728.52,682.95,728.52L682.95,728.52z"/>
		</g>
	</g>
	<g class="st13">
		<circle class="st8" cx="992.06" cy="848.52" r="125"/>
		<g>
			
				<linearGradient id="SVGID_00000010270839760045139720000007957015591302161545_" gradientUnits="userSpaceOnUse" x1="943.7901" y1="914.9505" x2="1028.7056" y2="914.9505">
				<stop  offset="0" style="stop-color:#FFFFFF"/>
				<stop  offset="1" style="stop-color:#767474"/>
			</linearGradient>
			<path style="fill:url(#SVGID_00000010270839760045139720000007957015591302161545_);" d="M984.47,914.33l-2.16,1.23
				C983.05,915.19,983.77,914.78,984.47,914.33z"/>
			<path class="st8" d="M984.98,914c-0.17,0.11-0.34,0.22-0.52,0.33l13.07-7.46c0.11-0.06,0.21-0.12,0.31-0.19L984.98,914
				L984.98,914z"/>
			<path class="st0" d="M942.59,892.62l-6.99,4.03c-2.45,1.42-5.58,0.58-7-1.88l-1.62-2.8c-1.41-2.45-0.58-5.58,1.88-7l6.99-4.03
				c2.45-1.41,5.58-0.58,7,1.88l1.62,2.8C945.88,888.07,945.04,891.21,942.59,892.62z"/>
			<path class="st0" d="M944.37,921.51l-9.42,5.44c-2.45,1.42-5.58,0.58-7-1.88l-1.62-2.8c-1.41-2.45-0.58-5.58,1.88-7l9.42-5.44
				c2.45-1.41,5.58-0.58,7,1.88l1.62,2.8C947.66,916.96,946.82,920.09,944.37,921.51z"/>
			<path class="st0" d="M963.64,927.34l-9.42,5.44c-2.45,1.41-5.58,0.58-7-1.88l-1.62-2.8c-1.41-2.45-0.58-5.58,1.88-7l9.42-5.44
				c2.45-1.42,5.58-0.58,7,1.88l1.62,2.8C966.93,922.79,966.09,925.93,963.64,927.34z"/>
			<path class="st1" d="M1006.96,901.3c-0.17,0.13-0.34,0.24-0.5,0.35C1006.63,901.54,1006.8,901.42,1006.96,901.3z"/>
			
				<linearGradient id="SVGID_00000132791155967862245690000012451370843154877839_" gradientUnits="userSpaceOnUse" x1="1053.432" y1="779.4611" x2="935.6144" y2="823.5858">
				<stop  offset="0" style="stop-color:#EE5D5F"/>
				<stop  offset="1" style="stop-color:#631F1F"/>
			</linearGradient>
			<path style="fill:url(#SVGID_00000132791155967862245690000012451370843154877839_);" d="M988.23,790.73
				c0,4.84,1.45,9.8,4.99,12.54c5.1,3.96,17.75,11.52,27.82,17.29c14.8-8.49,29.27-17.44,29.27-30.53
				c0-14.64-11.87-26.51-26.51-26.51c-3.83,0-7.68,0.52-10.74,2.27c-1.24,0.71-12.17,7.03-17.24,9.96
				C990.89,778.61,988.23,784.59,988.23,790.73z"/>
			
				<linearGradient id="SVGID_00000072257025579271949380000002093856370906496666_" gradientUnits="userSpaceOnUse" x1="945.3759" y1="887.6119" x2="1028.5732" y2="887.6119">
				<stop  offset="0" style="stop-color:#EE4A4C"/>
				<stop  offset="0.9994" style="stop-color:#631F1F"/>
			</linearGradient>
			<path style="fill:url(#SVGID_00000072257025579271949380000002093856370906496666_);" d="M1006.96,901.3
				c4.44-3.27,7.32-8.52,7.32-14.46c0-4.84-1.5-9.75-4.99-12.54c-7.44-5.96-29.61-18.31-29.61-18.31l-15.94,9.09
				c-0.23,0.1-0.46,0.21-0.69,0.34l-14.27,8.14c-2.86,1.63-4.08,5.05-3.04,8.05c0.14,0.4,0.31,0.79,0.52,1.16
				c1.85,3.24,5.98,4.37,9.22,2.52l6.31-3.6c-2.85,1.97-3.78,5.83-2.02,8.9c1.33,2.33,3.84,3.57,6.35,3.39
				c-0.62,0.15-1.23,0.38-1.81,0.71l-14.27,8.14c-1.15,0.66-2.03,1.6-2.61,2.69c-1.05,1.98-1.1,4.44,0.09,6.53
				c1.82,3.18,5.83,4.33,9.04,2.61c0.06-0.03,0.12-0.06,0.17-0.09l13.19-7.52c-2.7,2.01-3.53,5.76-1.82,8.76
				c0.65,1.15,1.59,2.03,2.68,2.61c1.98,1.06,4.44,1.11,6.54-0.09l4.86-2.78l2.16-1.23c0.17-0.11,0.35-0.22,0.52-0.33h0l12.86-7.31
				l6.89-3.92l1.19-0.67c0.23-0.14,0.45-0.3,0.67-0.45C1006.62,901.54,1006.78,901.43,1006.96,901.3z"/>
			<g>
				<path class="st0" d="M1005.79,902.1c0.2-0.13,0.43-0.28,0.67-0.45C1006.24,901.8,1006.02,901.96,1005.79,902.1z"/>
			</g>
			<g>
				<path class="st0" d="M1045.43,833.89c-0.08-0.05-0.17-0.1-0.25-0.15c0,0-39.94-21.25-51.82-30.39
					c-3.76-2.89-5.13-7.79-5.13-12.63c0-6.44,3.03-12.34,8.44-15.46l-34.65,20.02c-9.14,5.2-18.25,13.44-18.25,25.2
					c0,9.27,4.76,17.43,11.97,22.17c0.52,0.36,41.7,22.45,53.54,31.65c3.53,2.75,4.99,7.7,4.99,12.54c0,6.4-3.48,12.06-8.5,15.26
					l39.31-22.28c0.02-0.01,0.03-0.02,0.05-0.03c7.99-4.56,13.38-13.17,13.38-23.03C1058.52,847.01,1053.26,838.49,1045.43,833.89z"
					/>
			</g>
		</g>
		<g>
			<path class="st0" d="M992.06,731.52c31.25,0,60.63,12.17,82.73,34.27s34.27,51.48,34.27,82.73s-12.17,60.63-34.27,82.73
				s-51.48,34.27-82.73,34.27s-60.63-12.17-82.73-34.27c-22.1-22.1-34.27-51.48-34.27-82.73s12.17-60.63,34.27-82.73
				C931.42,743.69,960.81,731.52,992.06,731.52 M992.06,728.52c-66.27,0-120,53.73-120,120s53.73,120,120,120s120-53.73,120-120
				S1058.33,728.52,992.06,728.52L992.06,728.52z"/>
		</g>
	</g>
	<path class="st21" d="M782.95,1265.99h-200c-13.81,0-25-11.19-25-25v-200c0-13.81,11.19-25,25-25h200c13.81,0,25,11.19,25,25v200
		C807.95,1254.8,796.76,1265.99,782.95,1265.99z"/>
	<g class="st13">
		
			<linearGradient id="SVGID_00000104692694207268205670000013851986779372288131_" gradientUnits="userSpaceOnUse" x1="634.6845" y1="1207.4175" x2="719.6" y2="1207.4175">
			<stop  offset="0" style="stop-color:#FFFFFF"/>
			<stop  offset="1" style="stop-color:#767474"/>
		</linearGradient>
		<path style="fill:url(#SVGID_00000104692694207268205670000013851986779372288131_);" d="M675.36,1206.8l-2.16,1.23
			C673.94,1207.66,674.66,1207.24,675.36,1206.8z"/>
		<path class="st8" d="M675.88,1206.47c-0.17,0.11-0.34,0.22-0.52,0.33l13.07-7.46c0.11-0.06,0.21-0.12,0.31-0.19L675.88,1206.47
			L675.88,1206.47z"/>
		<path class="st0" d="M633.49,1185.09l-6.99,4.03c-2.45,1.41-5.58,0.58-7-1.88l-1.62-2.8c-1.41-2.45-0.58-5.58,1.88-7l6.99-4.03
			c2.45-1.41,5.58-0.58,7,1.88l1.62,2.8C636.78,1180.54,635.94,1183.67,633.49,1185.09z"/>
		<path class="st0" d="M635.27,1213.98l-9.42,5.44c-2.45,1.42-5.58,0.58-7-1.88l-1.62-2.8c-1.41-2.45-0.58-5.58,1.88-7l9.42-5.44
			c2.45-1.41,5.58-0.58,7,1.88l1.62,2.8C638.56,1209.43,637.72,1212.56,635.27,1213.98z"/>
		<path class="st0" d="M654.54,1219.81l-9.42,5.44c-2.45,1.41-5.58,0.58-7-1.88l-1.62-2.8c-1.41-2.45-0.58-5.58,1.88-7l9.42-5.44
			c2.45-1.42,5.58-0.58,7,1.88l1.62,2.8C657.83,1215.26,656.99,1218.39,654.54,1219.81z"/>
		<path class="st1" d="M697.85,1193.76c-0.17,0.13-0.34,0.24-0.5,0.35C697.52,1194,697.69,1193.89,697.85,1193.76z"/>
		
			<linearGradient id="SVGID_00000096754244750816818860000004889522637349064094_" gradientUnits="userSpaceOnUse" x1="744.3264" y1="1071.9281" x2="626.5089" y2="1116.0529">
			<stop  offset="0" style="stop-color:#EE5D5F"/>
			<stop  offset="1" style="stop-color:#631F1F"/>
		</linearGradient>
		<path style="fill:url(#SVGID_00000096754244750816818860000004889522637349064094_);" d="M679.13,1083.19
			c0,4.84,1.45,9.8,4.99,12.54c5.1,3.96,17.75,11.52,27.82,17.29c14.8-8.49,29.27-17.44,29.27-30.53
			c0-14.64-11.87-26.51-26.51-26.51c-3.83,0-7.68,0.52-10.74,2.27c-1.24,0.71-12.17,7.03-17.24,9.96
			C681.79,1071.07,679.13,1077.06,679.13,1083.19z"/>
		
			<linearGradient id="SVGID_00000150785191389743849930000012034818899808247738_" gradientUnits="userSpaceOnUse" x1="636.2703" y1="1180.0789" x2="719.4676" y2="1180.0789">
			<stop  offset="0" style="stop-color:#EE4A4C"/>
			<stop  offset="0.9994" style="stop-color:#631F1F"/>
		</linearGradient>
		<path style="fill:url(#SVGID_00000150785191389743849930000012034818899808247738_);" d="M697.85,1193.76
			c4.44-3.27,7.32-8.52,7.32-14.46c0-4.84-1.5-9.75-4.99-12.54c-7.44-5.96-29.61-18.31-29.61-18.31l-15.94,9.09
			c-0.23,0.1-0.46,0.21-0.69,0.34l-14.27,8.14c-2.86,1.63-4.08,5.05-3.04,8.05c0.14,0.4,0.31,0.79,0.52,1.16
			c1.85,3.24,5.98,4.37,9.22,2.52l6.31-3.6c-2.85,1.97-3.78,5.83-2.02,8.9c1.33,2.33,3.84,3.57,6.35,3.39
			c-0.62,0.15-1.23,0.38-1.81,0.71l-14.27,8.14c-1.15,0.66-2.03,1.6-2.61,2.69c-1.05,1.98-1.1,4.44,0.09,6.53
			c1.82,3.18,5.83,4.33,9.04,2.61c0.06-0.03,0.12-0.06,0.17-0.09l13.19-7.52c-2.7,2.01-3.53,5.76-1.82,8.76
			c0.65,1.15,1.59,2.03,2.68,2.61c1.98,1.06,4.44,1.11,6.54-0.09l4.86-2.78l2.16-1.23c0.17-0.11,0.35-0.22,0.52-0.33h0l12.86-7.31
			l6.89-3.92l1.19-0.67c0.23-0.14,0.45-0.3,0.67-0.45C697.52,1194.01,697.68,1193.89,697.85,1193.76z"/>
		<g>
			<path class="st0" d="M696.68,1194.57c0.2-0.13,0.43-0.28,0.67-0.45C697.13,1194.27,696.91,1194.42,696.68,1194.57z"/>
		</g>
		<g>
			<path class="st0" d="M736.32,1126.36c-0.08-0.05-0.17-0.1-0.25-0.15c0,0-39.94-21.25-51.82-30.39
				c-3.76-2.89-5.13-7.79-5.13-12.63c0-6.44,3.03-12.34,8.44-15.46l-34.65,20.02c-9.14,5.2-18.25,13.44-18.25,25.2
				c0,9.27,4.76,17.43,11.97,22.17c0.52,0.36,41.7,22.45,53.54,31.65c3.53,2.75,4.99,7.7,4.99,12.54c0,6.4-3.48,12.06-8.5,15.26
				l39.31-22.28c0.02-0.01,0.03-0.02,0.05-0.03c7.99-4.56,13.38-13.17,13.38-23.03C749.42,1139.48,744.16,1130.96,736.32,1126.36z"
				/>
		</g>
	</g>
	<g class="st13">
		<path class="st0" d="M777.95,1023.99c12.13,0,22,9.87,22,22v190c0,12.13-9.87,22-22,22h-190c-12.13,0-22-9.87-22-22v-190
			c0-12.13,9.87-22,22-22H777.95 M777.95,1020.99h-190c-13.81,0-25,11.19-25,25v190c0,13.81,11.19,25,25,25h190
			c13.81,0,25-11.19,25-25v-190C802.95,1032.18,791.76,1020.99,777.95,1020.99L777.95,1020.99z"/>
	</g>
	<path class="st25" d="M1092.06,1265.99h-200c-13.81,0-25-11.19-25-25v-200c0-13.81,11.19-25,25-25h200c13.81,0,25,11.19,25,25v200
		C1117.06,1254.8,1105.86,1265.99,1092.06,1265.99z"/>
	<g class="st13">
		
			<linearGradient id="SVGID_00000076576276689943913900000016411729565268774288_" gradientUnits="userSpaceOnUse" x1="943.7901" y1="1207.4175" x2="1028.7056" y2="1207.4175">
			<stop  offset="0" style="stop-color:#FFFFFF"/>
			<stop  offset="1" style="stop-color:#767474"/>
		</linearGradient>
		<path style="fill:url(#SVGID_00000076576276689943913900000016411729565268774288_);" d="M984.47,1206.8l-2.16,1.23
			C983.05,1207.66,983.77,1207.24,984.47,1206.8z"/>
		<path class="st8" d="M984.98,1206.47c-0.17,0.11-0.34,0.22-0.52,0.33l13.07-7.46c0.11-0.06,0.21-0.12,0.31-0.19L984.98,1206.47
			L984.98,1206.47z"/>
		<path class="st0" d="M942.59,1185.09l-6.99,4.03c-2.45,1.41-5.58,0.58-7-1.88l-1.62-2.8c-1.41-2.45-0.58-5.58,1.88-7l6.99-4.03
			c2.45-1.41,5.58-0.58,7,1.88l1.62,2.8C945.88,1180.54,945.04,1183.67,942.59,1185.09z"/>
		<path class="st0" d="M944.37,1213.98l-9.42,5.44c-2.45,1.42-5.58,0.58-7-1.88l-1.62-2.8c-1.41-2.45-0.58-5.58,1.88-7l9.42-5.44
			c2.45-1.41,5.58-0.58,7,1.88l1.62,2.8C947.66,1209.43,946.82,1212.56,944.37,1213.98z"/>
		<path class="st0" d="M963.64,1219.81l-9.42,5.44c-2.45,1.41-5.58,0.58-7-1.88l-1.62-2.8c-1.41-2.45-0.58-5.58,1.88-7l9.42-5.44
			c2.45-1.42,5.58-0.58,7,1.88l1.62,2.8C966.93,1215.26,966.09,1218.39,963.64,1219.81z"/>
		<path class="st1" d="M1006.96,1193.76c-0.17,0.13-0.34,0.24-0.5,0.35C1006.63,1194,1006.8,1193.89,1006.96,1193.76z"/>
		
			<linearGradient id="SVGID_00000123428987431744334980000010702946295439732358_" gradientUnits="userSpaceOnUse" x1="1053.432" y1="1071.9281" x2="935.6144" y2="1116.0529">
			<stop  offset="0" style="stop-color:#EE5D5F"/>
			<stop  offset="1" style="stop-color:#631F1F"/>
		</linearGradient>
		<path style="fill:url(#SVGID_00000123428987431744334980000010702946295439732358_);" d="M988.23,1083.19
			c0,4.84,1.45,9.8,4.99,12.54c5.1,3.96,17.75,11.52,27.82,17.29c14.8-8.49,29.27-17.44,29.27-30.53
			c0-14.64-11.87-26.51-26.51-26.51c-3.83,0-7.68,0.52-10.74,2.27c-1.24,0.71-12.17,7.03-17.24,9.96
			C990.89,1071.07,988.23,1077.06,988.23,1083.19z"/>
		
			<linearGradient id="SVGID_00000096779395974756706250000003114151160812027268_" gradientUnits="userSpaceOnUse" x1="945.3759" y1="1180.0789" x2="1028.5732" y2="1180.0789">
			<stop  offset="0" style="stop-color:#EE4A4C"/>
			<stop  offset="0.9994" style="stop-color:#631F1F"/>
		</linearGradient>
		<path style="fill:url(#SVGID_00000096779395974756706250000003114151160812027268_);" d="M1006.96,1193.76
			c4.44-3.27,7.32-8.52,7.32-14.46c0-4.84-1.5-9.75-4.99-12.54c-7.44-5.96-29.61-18.31-29.61-18.31l-15.94,9.09
			c-0.23,0.1-0.46,0.21-0.69,0.34l-14.27,8.14c-2.86,1.63-4.08,5.05-3.04,8.05c0.14,0.4,0.31,0.79,0.52,1.16
			c1.85,3.24,5.98,4.37,9.22,2.52l6.31-3.6c-2.85,1.97-3.78,5.83-2.02,8.9c1.33,2.33,3.84,3.57,6.35,3.39
			c-0.62,0.15-1.23,0.38-1.81,0.71l-14.27,8.14c-1.15,0.66-2.03,1.6-2.61,2.69c-1.05,1.98-1.1,4.44,0.09,6.53
			c1.82,3.18,5.83,4.33,9.04,2.61c0.06-0.03,0.12-0.06,0.17-0.09l13.19-7.52c-2.7,2.01-3.53,5.76-1.82,8.76
			c0.65,1.15,1.59,2.03,2.68,2.61c1.98,1.06,4.44,1.11,6.54-0.09l4.86-2.78l2.16-1.23c0.17-0.11,0.35-0.22,0.52-0.33h0l12.86-7.31
			l6.89-3.92l1.19-0.67c0.23-0.14,0.45-0.3,0.67-0.45C1006.62,1194.01,1006.78,1193.89,1006.96,1193.76z"/>
		<g>
			<path class="st0" d="M1005.79,1194.57c0.2-0.13,0.43-0.28,0.67-0.45C1006.24,1194.27,1006.02,1194.42,1005.79,1194.57z"/>
		</g>
		<g>
			<path class="st0" d="M1045.43,1126.36c-0.08-0.05-0.17-0.1-0.25-0.15c0,0-39.94-21.25-51.82-30.39
				c-3.76-2.89-5.13-7.79-5.13-12.63c0-6.44,3.03-12.34,8.44-15.46l-34.65,20.02c-9.14,5.2-18.25,13.44-18.25,25.2
				c0,9.27,4.76,17.43,11.97,22.17c0.52,0.36,41.7,22.45,53.54,31.65c3.53,2.75,4.99,7.7,4.99,12.54c0,6.4-3.48,12.06-8.5,15.26
				l39.31-22.28c0.02-0.01,0.03-0.02,0.05-0.03c7.99-4.56,13.38-13.17,13.38-23.03C1058.52,1139.48,1053.26,1130.96,1045.43,1126.36
				z"/>
		</g>
	</g>
	<g class="st13">
		<path class="st0" d="M1087.06,1023.99c12.13,0,22,9.87,22,22v190c0,12.13-9.87,22-22,22h-190c-12.13,0-22-9.87-22-22v-190
			c0-12.13,9.87-22,22-22H1087.06 M1087.06,1020.99h-190c-13.81,0-25,11.19-25,25v190c0,13.81,11.19,25,25,25h190
			c13.81,0,25-11.19,25-25v-190C1112.06,1032.18,1100.86,1020.99,1087.06,1020.99L1087.06,1020.99z"/>
	</g>
</g>
</svg>
