<?xml version="1.0" encoding="utf-8"?>
<!-- Generator: Adobe Illustrator 26.3.1, SVG Export Plug-In . SVG Version: 6.00 Build 0)  -->
<svg version="1.1" xmlns="http://www.w3.org/2000/svg" xmlns:xlink="http://www.w3.org/1999/xlink" x="0px" y="0px"
	 viewBox="0 0 800 1024" style="enable-background:new 0 0 800 1024;" xml:space="preserve">
<style type="text/css">
	.st0{display:none;}
	.st1{display:inline;}
	.st2{fill:none;}
	.st3{fill:url(#SVGID_1_);}
	.st4{fill:#8B8B8C;}
	.st5{fill:url(#SVGID_00000142149548896097231580000017980150412478596543_);}
	.st6{fill:#EE4A4C;}
	.st7{fill:url(#SVGID_00000180324699921494212800000014320239173252031648_);}
	.st8{fill:url(#SVGID_00000149382073635233216630000013644852457467104159_);}
</style>
<g id="Layer_1" class="st0">
	<g class="st1">
		<path class="st2" d="M373.66,160.4c0-0.04,0-0.07,0-0.11C373.66,160.33,373.66,160.36,373.66,160.4z"/>
		<path class="st2" d="M532,734.4c-1.94-25.77-11.06-50.75-29.92-65.34c-0.04-0.03-0.08-0.06-0.12-0.09
			c0.04,0.03,0.09,0.07,0.13,0.1C520.73,683.92,530.01,708.68,532,734.4z"/>
		<path class="st2" d="M385.99,218.24c-8.56-15.75-12.34-35.12-12.38-54.21C373.66,183.13,377.21,202.35,385.99,218.24z"/>
		
			<linearGradient id="SVGID_1_" gradientUnits="userSpaceOnUse" x1="552.7707" y1="-720.5281" x2="34.3461" y2="-359.8849" gradientTransform="matrix(1 -2.232854e-03 2.232854e-03 1 234.3445 739.2124)">
			<stop  offset="0" style="stop-color:#818181"/>
			<stop  offset="0.9994" style="stop-color:#525353"/>
		</linearGradient>
		<path class="st3" d="M373.66,160.29c0,0.04,0,0.07,0,0.11c-0.03,1.21-0.05,2.42-0.05,3.63c0.04,19.1,3.82,38.46,12.38,54.21
			c4.69,8.49,10.86,16.03,18.78,22.11c34.75,26.62,109.15,70.24,176.78,108.22c20.74-11.96,74.73-42.82,81.69-46.8
			c48.98-27.96,84.27-78.07,85.63-138.02c0.03-1.35,0.05-2.71,0.04-4.07C748.73,71.29,676.92-0.2,588.54,0
			c-28.97,0.06-56.12,7.82-79.53,21.33c-0.06,0.04-0.13,0.07-0.19,0.11c-21.54,12.5-60.82,35.32-84.72,49.2
			C392.7,89.07,374.71,122.95,373.66,160.29z"/>
		<path class="st4" d="M65.29,800.33l25.28-14.67c19.46-11.31,26.1-36.25,14.8-55.72c-11.3-19.48-36.24-26.1-55.72-14.8
			l-25.28,14.67c-19.48,11.3-26.1,36.24-14.8,55.72C20.87,805.01,45.82,811.63,65.29,800.33z"/>
		<path class="st4" d="M116.52,904.59c-11.3-19.48-36.24-26.1-55.72-14.8l-39.98,23.2c-19.48,11.3-26.1,36.24-14.8,55.72
			c11.3,19.48,36.24,26.1,55.72,14.8l39.98-23.2C121.18,949.01,127.81,924.06,116.52,904.59z"/>
		<path class="st4" d="M177.39,924.77l-39.98,23.2c-19.48,11.3-26.1,36.24-14.8,55.72c11.3,19.48,36.24,26.1,55.72,14.8l39.98-23.2
			c19.47-11.3,26.1-36.24,14.8-55.72C221.81,920.1,196.87,913.48,177.39,924.77z"/>
		
			<linearGradient id="SVGID_00000071561328132760571260000010429094999510824882_" gradientUnits="userSpaceOnUse" x1="-118.5845" y1="1013.9473" x2="384.4527" y2="1013.9473" gradientTransform="matrix(1 -2.232854e-03 -2.232854e-03 -1 236.633 1764.1117)">
			<stop  offset="0" style="stop-color:#818181"/>
			<stop  offset="0.9994" style="stop-color:#525353"/>
		</linearGradient>
		<path style="fill:url(#SVGID_00000071561328132760571260000010429094999510824882_);" d="M481.57,836.99l-0.33,0.19
			c30.32-19.38,51.25-53.69,51.16-92.35c-0.01-3.48-0.14-6.96-0.41-10.43c-1.99-25.72-11.27-50.47-29.91-65.33
			c-0.04-0.03-0.09-0.07-0.13-0.1c-28.73-22.2-85.74-56.74-144.04-90.36c-20.81-11.91-35.1-19.82-35.1-19.82l-96.26,55.17
			c-1.41,0.61-2.81,1.3-4.17,2.08l-86.19,49.43c-17.29,9.92-24.58,30.56-18.3,48.74c0.83,2.39,1.88,4.75,3.19,7.02
			c11.22,19.57,36.19,26.34,55.76,15.11l38.09-21.84c-17.24,11.96-22.75,35.32-12.12,53.86c8.07,14.07,23.25,21.53,38.41,20.42
			c-3.74,0.88-7.41,2.3-10.91,4.32l-86.19,49.43c-6.95,3.99-12.28,9.71-15.76,16.31c-6.33,11.97-6.59,26.83,0.65,39.45
			c11.03,19.23,35.32,26.08,54.72,15.68c0.34-0.19,0.7-0.37,1.04-0.56l79.64-45.68c-16.28,12.19-21.28,34.89-10.91,52.98
			c3.97,6.93,9.67,12.24,16.23,15.73c11.98,6.37,26.88,6.64,39.53-0.61l29.37-16.85l13.07-7.5c1.04-0.67,2.09-1.32,3.12-2h0.01
			l77.66-44.4l41.58-23.77l7.18-4.09c0,0,0,0,0.01,0c0,0,0,0-0.01,0C481.36,837.13,481.46,837.06,481.57,836.99z"/>
		<path class="st6" d="M481.26,837.2c0.13-0.08,0.26-0.17,0.39-0.25l-0.08,0.04C481.46,837.06,481.36,837.13,481.26,837.2z"/>
		<path class="st6" d="M481.57,836.99c-0.11,0.07-0.21,0.14-0.32,0.21c0,0,0,0,0.01,0C481.36,837.13,481.46,837.06,481.57,836.99
			L481.57,836.99z"/>
		<path class="st6" d="M373.61,164.03c0-1.21,0.01-2.42,0.05-3.63C373.63,161.61,373.61,162.82,373.61,164.03z"/>
		<path class="st4" d="M719.99,424.25c-0.5-0.3-1-0.58-1.5-0.88c0,0-64.59-34.17-136.94-74.8
			c-67.63-37.98-142.03-81.6-176.78-108.22c-7.93-6.07-14.1-13.62-18.78-22.11c-8.78-15.9-12.34-35.11-12.38-54.21
			c0-1.21,0.01-2.42,0.05-3.63c0-0.04,0-0.07,0-0.11c1.05-37.34,19.03-71.22,50.44-89.64c0.12-0.07,0.24-0.15,0.36-0.22
			l-209.25,121.5c-55.2,31.56-110.15,81.51-110,152.59c0.13,56.08,29.04,105.33,72.7,133.89c1.9,1.3,92.41,49.7,180.01,100.21
			c42.92,24.56,113.59,66.12,144.04,90.36c0.04,0.03,0.08,0.06,0.12,0.09c18.86,14.6,27.98,39.57,29.92,65.34
			c0.27,3.47,0.41,6.96,0.42,10.44c0.08,35.88-17.29,67.69-44.09,87.5c-1.06,0.77-2.05,1.47-3.01,2.15c0,0-0.01,0.01-0.01,0.01
			c-1.3,0.9-2.53,1.74-3.65,2.45L718.6,701.98c0.1-0.05,0.2-0.11,0.3-0.17c48.27-27.7,80.73-79.82,80.59-139.44
			C799.36,503.42,767.44,451.99,719.99,424.25z"/>
		<path class="st6" d="M481.24,837.18l0.33-0.19c1.27-0.81,2.51-1.66,3.74-2.51c0,0-0.01,0.01-0.01,0.01c0,0,0.01-0.01,0.01-0.01
			c0.97-0.68,1.95-1.38,3.01-2.15c-1.06,0.77-2.05,1.47-3.01,2.14c1.02-0.69,2.02-1.41,3.01-2.14c26.8-19.81,44.17-51.62,44.09-87.5
			c-0.01-3.48-0.15-6.97-0.42-10.44c0.26,3.47,0.4,6.95,0.41,10.43C532.49,783.49,511.56,817.8,481.24,837.18z"/>
		<path class="st6" d="M357.91,578.61c58.3,33.61,115.31,68.15,144.04,90.36C471.5,644.72,400.83,603.17,357.91,578.61z"/>
		<path class="st6" d="M488.32,832.34c-0.99,0.73-1.99,1.45-3.01,2.14C486.28,833.81,487.26,833.11,488.32,832.34z"/>
		<path class="st6" d="M481.57,836.99l0.08-0.04c1.12-0.71,2.36-1.55,3.65-2.45C484.07,835.34,482.83,836.19,481.57,836.99z"/>
		<path class="st6" d="M481.57,836.99L481.57,836.99c1.27-0.81,2.5-1.65,3.73-2.5c0,0,0.01-0.01,0.01-0.01
			C484.08,835.33,482.84,836.19,481.57,836.99z"/>
	</g>
</g>
<g id="Layer_2">
	<g>
		<path class="st2" d="M373.66,160.4c0-0.04,0-0.07,0-0.11C373.66,160.33,373.66,160.36,373.66,160.4z"/>
		<path class="st2" d="M532,734.4c-1.94-25.77-11.06-50.75-29.92-65.34c-0.04-0.03-0.08-0.06-0.12-0.09
			c0.04,0.03,0.09,0.07,0.13,0.1C520.73,683.92,530.01,708.68,532,734.4z"/>
		<path class="st2" d="M385.99,218.24c-8.56-15.75-12.34-35.12-12.38-54.21C373.66,183.13,377.21,202.35,385.99,218.24z"/>
		
			<linearGradient id="SVGID_00000049904670176752338410000012160247908183201966_" gradientUnits="userSpaceOnUse" x1="552.7707" y1="-720.5281" x2="34.3461" y2="-359.8849" gradientTransform="matrix(1 -2.232854e-03 2.232854e-03 1 234.3445 739.2124)">
			<stop  offset="0" style="stop-color:#EE4A4C"/>
			<stop  offset="0.9994" style="stop-color:#631F1F"/>
		</linearGradient>
		<path style="fill:url(#SVGID_00000049904670176752338410000012160247908183201966_);" d="M373.66,160.29c0,0.04,0,0.07,0,0.11
			c-0.03,1.21-0.05,2.42-0.05,3.63c0.04,19.1,3.82,38.46,12.38,54.21c4.69,8.49,10.86,16.03,18.78,22.11
			c34.75,26.62,109.15,70.24,176.78,108.22c20.74-11.96,74.73-42.82,81.69-46.8c48.98-27.96,84.27-78.07,85.63-138.02
			c0.03-1.35,0.05-2.71,0.04-4.07C748.73,71.29,676.92-0.2,588.54,0c-28.97,0.06-56.12,7.82-79.53,21.33
			c-0.06,0.04-0.13,0.07-0.19,0.11c-21.54,12.5-60.82,35.32-84.72,49.2C392.7,89.07,374.71,122.95,373.66,160.29z"/>
		<path class="st6" d="M65.29,800.33l25.28-14.67c19.46-11.31,26.1-36.25,14.8-55.72c-11.3-19.48-36.24-26.1-55.72-14.8
			l-25.28,14.67c-19.48,11.3-26.1,36.24-14.8,55.72C20.87,805.01,45.82,811.63,65.29,800.33z"/>
		<path class="st6" d="M116.52,904.59c-11.3-19.48-36.24-26.1-55.72-14.8l-39.98,23.2c-19.48,11.3-26.1,36.24-14.8,55.72
			c11.3,19.48,36.24,26.1,55.72,14.8l39.98-23.2C121.18,949.01,127.81,924.06,116.52,904.59z"/>
		<path class="st6" d="M177.39,924.77l-39.98,23.2c-19.48,11.3-26.1,36.24-14.8,55.72c11.3,19.48,36.24,26.1,55.72,14.8l39.98-23.2
			c19.47-11.3,26.1-36.24,14.8-55.72C221.81,920.1,196.87,913.48,177.39,924.77z"/>
		
			<linearGradient id="SVGID_00000172417000758346128120000007070181459134728350_" gradientUnits="userSpaceOnUse" x1="-118.5845" y1="1013.9473" x2="384.4527" y2="1013.9473" gradientTransform="matrix(1 -2.232854e-03 -2.232854e-03 -1 236.633 1764.1117)">
			<stop  offset="0" style="stop-color:#EE4A4C"/>
			<stop  offset="0.9994" style="stop-color:#631F1F"/>
		</linearGradient>
		<path style="fill:url(#SVGID_00000172417000758346128120000007070181459134728350_);" d="M481.57,836.99l-0.33,0.19
			c30.32-19.38,51.25-53.69,51.16-92.35c-0.01-3.48-0.14-6.96-0.41-10.43c-1.99-25.72-11.27-50.47-29.91-65.33
			c-0.04-0.03-0.09-0.07-0.13-0.1c-28.73-22.2-85.74-56.74-144.04-90.36c-20.81-11.91-35.1-19.82-35.1-19.82l-96.26,55.17
			c-1.41,0.61-2.81,1.3-4.17,2.08l-86.19,49.43c-17.29,9.92-24.58,30.56-18.3,48.74c0.83,2.39,1.88,4.75,3.19,7.02
			c11.22,19.57,36.19,26.34,55.76,15.11l38.09-21.84c-17.24,11.96-22.75,35.32-12.12,53.86c8.07,14.07,23.25,21.53,38.41,20.42
			c-3.74,0.88-7.41,2.3-10.91,4.32l-86.19,49.43c-6.95,3.99-12.28,9.71-15.76,16.31c-6.33,11.97-6.59,26.83,0.65,39.45
			c11.03,19.23,35.32,26.08,54.72,15.68c0.34-0.19,0.7-0.37,1.04-0.56l79.64-45.68c-16.28,12.19-21.28,34.89-10.91,52.98
			c3.97,6.93,9.67,12.24,16.23,15.73c11.98,6.37,26.88,6.64,39.53-0.61l29.37-16.85l13.07-7.5c1.04-0.67,2.09-1.32,3.12-2h0.01
			l77.66-44.4l41.58-23.77l7.18-4.09c0,0,0,0,0.01,0c0,0,0,0-0.01,0C481.36,837.13,481.46,837.06,481.57,836.99z"/>
		<path class="st6" d="M481.26,837.2c0.13-0.08,0.26-0.17,0.39-0.25l-0.08,0.04C481.46,837.06,481.36,837.13,481.26,837.2z"/>
		<path class="st6" d="M481.57,836.99c-0.11,0.07-0.21,0.14-0.32,0.21c0,0,0,0,0.01,0C481.36,837.13,481.46,837.06,481.57,836.99
			L481.57,836.99z"/>
		<path class="st6" d="M373.61,164.03c0-1.21,0.01-2.42,0.05-3.63C373.63,161.61,373.61,162.82,373.61,164.03z"/>
		<path class="st6" d="M719.99,424.25c-0.5-0.3-1-0.58-1.5-0.88c0,0-64.59-34.17-136.94-74.8
			c-67.63-37.98-142.03-81.6-176.78-108.22c-7.93-6.07-14.1-13.62-18.78-22.11c-8.78-15.9-12.34-35.11-12.38-54.21
			c0-1.21,0.01-2.42,0.05-3.63c0-0.04,0-0.07,0-0.11c1.05-37.34,19.03-71.22,50.44-89.64c0.12-0.07,0.24-0.15,0.36-0.22
			l-209.25,121.5c-55.2,31.56-110.15,81.51-110,152.59c0.13,56.08,29.04,105.33,72.7,133.89c1.9,1.3,92.41,49.7,180.01,100.21
			c42.92,24.56,113.59,66.12,144.04,90.36c0.04,0.03,0.08,0.06,0.12,0.09c18.86,14.6,27.98,39.57,29.92,65.34
			c0.27,3.47,0.41,6.96,0.42,10.44c0.08,35.88-17.29,67.69-44.09,87.5c-1.06,0.77-2.05,1.47-3.01,2.15c0,0-0.01,0.01-0.01,0.01
			c-1.3,0.9-2.53,1.74-3.65,2.45L718.6,701.98c0.1-0.05,0.2-0.11,0.3-0.17c48.27-27.7,80.73-79.82,80.59-139.44
			C799.36,503.42,767.44,451.99,719.99,424.25z"/>
		<path class="st6" d="M481.24,837.18l0.33-0.19c1.27-0.81,2.51-1.66,3.74-2.51c0,0-0.01,0.01-0.01,0.01c0,0,0.01-0.01,0.01-0.01
			c0.97-0.68,1.95-1.38,3.01-2.15c-1.06,0.77-2.05,1.47-3.01,2.14c1.02-0.69,2.02-1.41,3.01-2.14c26.8-19.81,44.17-51.62,44.09-87.5
			c-0.01-3.48-0.15-6.97-0.42-10.44c0.26,3.47,0.4,6.95,0.41,10.43C532.49,783.49,511.56,817.8,481.24,837.18z"/>
		<path class="st6" d="M357.91,578.61c58.3,33.61,115.31,68.15,144.04,90.36C471.5,644.72,400.83,603.17,357.91,578.61z"/>
		<path class="st6" d="M488.32,832.34c-0.99,0.73-1.99,1.45-3.01,2.14C486.28,833.81,487.26,833.11,488.32,832.34z"/>
		<path class="st6" d="M481.57,836.99l0.08-0.04c1.12-0.71,2.36-1.55,3.65-2.45C484.07,835.34,482.83,836.19,481.57,836.99z"/>
		<path class="st6" d="M481.57,836.99L481.57,836.99c1.27-0.81,2.5-1.65,3.73-2.5c0,0,0.01-0.01,0.01-0.01
			C484.08,835.33,482.84,836.19,481.57,836.99z"/>
	</g>
</g>
</svg>
