<svg xmlns="http://www.w3.org/2000/svg" width="596" height="596" fill="none"><g clip-path="url(#a)"><path fill="#fff" d="M584.9 375.9c.5-2 1.1-4 1.6-6z"/><path fill="url(#b)" d="M286.021 147.058v.047a65.91 65.91 0 0 0-.021 1.541c.017 8.11 1.639 16.33 5.311 23.017 2.012 3.605 4.659 6.806 8.056 9.388 14.908 11.302 46.824 29.823 75.837 45.949 8.897-5.078 32.058-18.181 35.044-19.871 21.011-11.871 36.15-33.148 36.734-58.602.013-.573.021-1.151.017-1.728-.077-37.53-30.883-67.884-68.797-67.799-12.428.026-24.075 3.32-34.117 9.057-.026.017-.056.03-.082.046-9.24 5.308-26.091 14.997-36.343 20.89-13.471 7.826-21.188 22.211-21.639 38.065"/><path fill="#EE4A4C" d="m154.795 420.65 10.649-6.251c8.198-4.819 10.995-15.446 6.235-23.743-4.76-8.3-15.266-11.121-23.472-6.306l-10.65 6.251c-8.206 4.815-10.994 15.442-6.234 23.743 4.76 8.3 15.27 11.121 23.472 6.306M176.644 464.727c-4.835-8.369-15.507-11.212-23.843-6.358l-17.108 9.967c-8.336 4.854-11.169 15.568-6.333 23.937 4.835 8.369 15.507 11.212 23.843 6.358l17.108-9.967c8.327-4.854 11.164-15.573 6.333-23.937M202.799 473.366l-17.107 9.968c-8.335 4.854-11.168 15.569-6.332 23.938 4.835 8.37 15.506 11.214 23.842 6.359l17.107-9.967c8.331-4.855 11.168-15.57 6.332-23.939-4.835-8.365-15.506-11.209-23.842-6.359"/><path fill="url(#c)" d="m332.289 436.295-.141.082c12.95-8.311 21.89-23.023 21.852-39.601a60.157 60.157 0 0 0-.175-4.473c-.85-11.029-4.814-21.642-12.776-28.014l-.055-.043c-12.272-9.519-36.622-24.33-61.524-38.747-8.888-5.107-14.992-8.499-14.992-8.499l-41.115 23.657c-.603.262-1.201.558-1.782.892l-36.814 21.196c-7.385 4.254-10.499 13.105-7.816 20.901a17.513 17.513 0 0 0 1.362 3.01c4.793 8.392 15.458 11.295 23.817 6.479l16.269-9.365c-7.363 5.129-9.717 15.146-5.176 23.096a17.421 17.421 0 0 0 16.406 8.756 17.08 17.08 0 0 0-4.66 1.853l-36.815 21.196a17.37 17.37 0 0 0-6.731 6.994c-2.704 5.132-2.815 11.505.277 16.916 4.712 8.246 15.087 11.184 23.373 6.724.145-.082.299-.159.444-.24l34.017-19.588c-6.954 5.227-9.09 14.961-4.66 22.718a17.379 17.379 0 0 0 6.932 6.745c5.117 2.732 11.481 2.848 16.884-.261l12.545-7.226 5.583-3.216c.444-.287.892-.566 1.332-.857h.005l33.17-19.04 17.76-10.192 3.067-1.754h.005-.005c.047-.039.09-.069.137-.099"/><path fill="#EE4A4C" d="M434.106 260.4c-.213-.128-.427-.248-.64-.376 0 0-27.537-14.622-58.383-32.007-28.833-16.252-60.553-34.917-75.368-46.308-3.381-2.597-6.012-5.828-8.007-9.461-3.743-6.803-5.261-15.023-5.278-23.196 0-.518.004-1.036.021-1.554v-.047c.448-15.978 8.114-30.475 21.505-38.357.051-.03.102-.064.153-.094l-89.211 51.99c-23.534 13.505-46.962 34.878-46.898 65.294.056 23.997 12.381 45.071 30.995 57.292.81.556 39.398 21.266 76.746 42.88 18.298 10.509 48.428 28.293 61.41 38.665l.051.038c8.041 6.248 11.929 16.933 12.756 27.96a59.98 59.98 0 0 1 .179 4.467c.034 15.353-7.371 28.965-18.797 37.441-.452.33-.874.629-1.284.92l-.004.005a47.36 47.36 0 0 1-1.556 1.048l101.017-57.758c.043-.022.085-.047.128-.073 20.579-11.853 34.418-34.155 34.359-59.667-.056-25.225-13.664-47.232-33.894-59.102"/></g><defs><linearGradient id="b" x1="462.698" x2="242.153" y1="86.409" y2="242.16" gradientUnits="userSpaceOnUse"><stop stop-color="#EE4A4C"/><stop offset=".999" stop-color="#631F1F"/></linearGradient><linearGradient id="c" x1="176.052" x2="390.913" y1="399.177" y2="398.699" gradientUnits="userSpaceOnUse"><stop stop-color="#EE4A4C"/><stop offset=".999" stop-color="#631F1F"/></linearGradient><clipPath id="a"><path fill="#fff" d="M0 0h595.3v595.3H0z"/></clipPath></defs></svg>