<?xml version="1.0" encoding="utf-8"?>
<!-- Generator: Adobe Illustrator 26.3.1, SVG Export Plug-In . SVG Version: 6.00 Build 0)  -->
<svg version="1.1" id="Layer_1" xmlns="http://www.w3.org/2000/svg" xmlns:xlink="http://www.w3.org/1999/xlink" x="0px" y="0px"
	 viewBox="0 0 595.3 595.3" style="enable-background:new 0 0 595.3 595.3;" xml:space="preserve">
<style type="text/css">
	.st0{fill:#FFFFFF;}
	.st1{fill:#FF5F00;}
	.st2{fill:#006934;}
</style>
<path class="st0" d="M297.6,595.3L297.6,595.3C133.3,595.3,0,462,0,297.6l0,0C0,133.3,133.3,0,297.6,0l0,0
	C462,0,595.3,133.3,595.3,297.6l0,0C595.3,462,462,595.3,297.6,595.3z"/>
<g>
	<path class="st1" d="M294.1,343.5c22.1-23.6,44.3-47.1,66.4-70.7c0.8,0.5,1.6,0.9,2.4,1.4c-1.1,2.8-1.5,6.1-3.3,8.4
		c-20.7,26.7-41.7,53.1-62.5,79.7c-2.7,3.4-5,7.1-7.9,10.3c-1.3,1.4-4,3-5.4,2.5c-1.8-0.6-3.4-3-4.2-4.9c-0.8-1.9-0.7-4.2-0.9-6.4
		c-1.8-23.1,3.7-45.5,7.6-68c0.7-3.9,0.4-7.9,0.6-11.9c-0.6-0.3-1.2-0.5-1.9-0.8c-1.7,1.8-3.3,3.5-4.9,5.3
		c-30.7,34.9-61.3,69.7-91.9,104.6c-6,6.8-12.8,12.3-21.7,14.8c-11.6,3.3-20.1-2.7-20.6-14.9c-0.6-13.8,4.2-26.2,8.8-38.9
		c6.5-17.9,12.5-36.1,17.6-54.4c1.5-5.5-0.2-12.5-2.1-18.2c-1.7-5.2-2.2-9.8-0.2-14.8c8.1-20.4,22.9-34.2,42.6-43
		c5-2.2,10.2-4.3,15.5-5.7c2.3-0.6,6.3-0.3,7.5,1.2c1.4,1.8,1.5,5.7,0.5,8c-4.8,11.9-10.2,23.5-15.4,35.2
		c-7.1,16.2-14.7,32.3-21.2,48.8c-4.2,10.6-6.8,21.7-10,32.7c-0.6,2-1,4.6-0.2,6.4c1.2,2.6,3.1,5.8,5.4,6.7c1.9,0.7,5.9-1,7.4-2.9
		c28.5-36.4,56.7-73,85-109.5c5.7-7.3,11.1-14.9,17.2-21.9c2.7-3.1,6.5-6.3,10.3-7.3c10.7-2.8,18.4,5.4,15,16.3
		c-5.3,16.9-11.8,33.4-17.9,50c-5.7,15.5-11.9,30.8-17.4,46.4c-1.6,4.4-1.6,9.4-2.3,14.2C292.6,342.6,293.4,343.1,294.1,343.5z"/>
	<path class="st2" d="M194.2,349.8c2.2-7.3,3.7-14.7,6.6-21.7c13.3-33.1,27.1-66.1,40.5-99.1c2.2-5.4,3.9-11.2,5.1-16.9
		c1.2-5.5-1.8-9-7.2-10.5c-2.1-0.6-4.3-1.1-6.4-1.2c-20.9-0.2-41.9-1.2-62.8-0.3c-18.3,0.8-26-4.2-36.9-21.2
		c-2.1-3.3-1.1-5.6,2.9-6.5c0.8-0.2,1.6-0.3,2.3-0.3c30.2,0.2,60.4-0.1,90.6,1c26.5,0.9,48.5-6.6,64.7-28.5c2.3-3.2,4.3-8.1,9.5-6.4
		c5.7,1.9,3.5,7.3,3.3,11.3c-0.8,14.8,3.4,19.3,18.3,19.2c22.7-0.1,45.4-0.3,68.1-0.1c2.8,0,5.6,1.9,8.3,2.9c-1.2,2.7-1.9,5.6-3.6,8
		c-10.3,14.8-25.1,18.3-42.2,17c-10.2-0.8-20.5-0.2-30.8-0.2c-6.9,0-13.9,0.4-20.7-0.2c-12.9-1.2-21.2,4.2-27.3,15.4
		c-23.8,43.4-48.1,86.6-72.3,129.8c-1.9,3.5-4.7,6.5-7.1,9.7C196.1,350.6,195.2,350.2,194.2,349.8z"/>
	<path d="M349.2,352.4c0.9-3.9,2.2-11.6,4.3-19.2c10.4-36.4,21-72.8,31.4-109.2c5.2-18.4,15.3-33.7,28.9-46.8
		c0.9-0.8,1.8-1.6,2.7-2.3c4-2.9,8-3,12-0.2s4.8,6.7,3,11c-4.6,10.9-9.4,21.7-14,32.6c-9.2,21.6-18.3,43.2-27.3,64.9
		c-1.2,2.9-2.3,6.1-2.2,9.1c0.1,3.5,0.5,8.1,2.8,10c1.8,1.5,6.5-0.1,9.8-0.7c6.3-1.2,12.5-3.3,18.8-3.8c2.3-0.2,6,2.5,7.1,4.8
		c0.8,1.8-0.8,5.7-2.5,7.5c-18,18.6-36.1,37-54.3,55.4c-1.6,1.6-3.4,3.5-5.5,4.2C354.7,373.4,348.9,368.2,349.2,352.4z"/>
	<path class="st2" d="M330.4,416.3c3.5,3.6,1.3,6.5-0.4,9.3c-18.8,32.2-46.9,51.7-82.7,60.4c-16.3,4-32.9,5.2-49.3,1.2
		c-7.5-1.8-15.3-4.9-21.3-9.5c-17.3-13.2-28.6-30.5-29.9-52.9c-0.5-8.2,0.6-9.3,8.6-10.1c16.6-1.7,28.7-11,39.8-22.5
		c2-2.1,5.5-2.9,8.2-4.3c1.1,2.9,3.2,5.9,3.2,8.8c0,17.7,1.8,35.1,7.2,52c0.2,0.7,0.1,1.6,0.3,3.6c-3.2-0.8-5.9-1.3-8.5-2.2
		c-3.8-1.3-7.5-4.7-11.1,0.1c-3.3,4.3-3.2,12.5,1,15.8c3.4,2.7,7.7,4.8,12,6c15.6,4.3,30.9,2.3,46-2.8c25.4-8.6,46.4-24.2,65.7-42.4
		C322.9,423.4,326.6,419.9,330.4,416.3z"/>
	<path class="st1" d="M415.1,289.1c-15.8-0.4-17.1-2.1-12-16.9c4.3-12.7,8.9-25.2,13.6-37.8c3.5-9.2,16.7-14.6,25.4-9.8
		c2,1.1,3.8,5.3,3.3,7.6c-2,9.2-4.9,18.2-7.4,27.3c-1.4,5.1-2.9,10.2-4.2,15.4C430.5,287.5,428.2,289.4,415.1,289.1z"/>
	<path d="M409.3,140.9c7.6-11.6,14.8-22.6,22-33.5c0.6-0.8,1.9-1.6,2.9-1.6c9.4-0.1,18.8-0.1,29-0.1c-1,12-1.9,23.4-2.9,35.2
		C443.4,140.9,426.8,140.9,409.3,140.9z"/>
	<path class="st1" d="M407.4,332.7c-11.5,25.3-23,50.7-34.5,76c-0.7-0.1-1.4-0.2-2.1-0.2c-0.3-1.8-1-3.6-0.7-5.3
		c2.2-13.2,4.6-26.3,7-39.5c0.2-1.1,0.9-2.2,1.7-3c9-9.6,18.1-19.2,27.1-28.8C406.4,332.1,406.9,332.4,407.4,332.7z"/>
</g>
</svg>
