<svg xmlns="http://www.w3.org/2000/svg" xml:space="preserve" style="enable-background:new 0 0 595.3 595.3" viewBox="0 0 595.3 595.3"><path d="M297.6 595.3C133.3 595.3 0 462 0 297.6 0 133.3 133.3 0 297.6 0 462 0 595.3 133.3 595.3 297.6c0 164.4-133.3 297.7-297.7 297.7" style="fill:#fff"/><path d="M149.9 276.6v-43.5c0-13.9 5.3-30.4-19.1-29.7-8.6.4-7.1-10.1-7.5-16.9 0-6.8-1.1-16.1 8.3-15.8 27.4.8 21-19.9 23.3-34.9 1.1-8.6-1.9-18.4 11.3-21.8 22.5-6 28.5-2.3 27.4 22.1-1.1 21.4 0 38.3 28.9 33.4 15.4-2.6 13.9 9.8 15 19.5 1.1 12-4.9 18.4-16.1 15.8-27-6.4-28.2 9.4-27.4 29.3 1.1 25.2.4 50.3.8 75.5.4 18.8 8.6 31.5 28.5 31.2 15.4-.4 17.3 7.1 17.3 19.5 0 13.5-5.3 18-18.8 19.9-46.2 5.3-70.2-14.3-70.9-60.1-1-14.6-.6-29.2-1-43.5.4 0 .4 0 0 0" style="fill:#fb5c1c"/><path d="M409.2 342.5c-27.1-2.6-54.4-.6-81.7-1.2-8.7-.2-17.4-.2-24.9-5.5-9.3-6.3-13.2-17.4-8.3-27.1s11.9-15.8 23.9-11.5c4.2 1.4 8.9 2 13.4 2.4 32.8 3.4 64.5 1.6 91.7-20.2 31.6-25.3 34.2-65.8 5.3-93.9-9.5-9.3-5.5-14.2 1.4-20.4 4-3.6 9.1-5.1 14.6-6.1 8.7-1.6 21 4.2 25.5-3.6 4-7.3 1.2-18.4 1.4-27.9 0-2 0-4-.2-6.3-.2-2.2-1.4-3.2-3.8-4-18.6-5.9-54.8 3.8-61.3 21.9-9.1 24.9-24.9 22.5-43.5 18.8-.8-.2-1.6-.2-2.4-.2-24.5-.8-48.8.4-71 11.9-44.3 23.3-49.8 78.3-10.9 109.5 1.4 1.2 3.8 1.8 3.8 5.3-15.4 8.9-30.3 19.4-34 39-3.8 19.8 5.9 34.8 20.4 48.2-18.8 9.9-32 22.7-33.6 43.9-2 30.3 15.4 51.8 50.2 60.7 26.5 6.7 53.6 9.1 80.9 6.9 25.5-2 50.8-5.5 73-20.2 26.3-17.6 37.8-44.1 31.2-72.2-6.7-26.3-30.3-45.1-61.1-48.2m-56-150.9c25.5.6 40.9 16 40.3 39.9-.8 25.1-16.2 38.4-43.1 38-26.9-.6-43.9-15.6-43.5-38.2.4-25.3 18-40.3 46.3-39.7m56.6 245.8c-15.6 9.1-33 9.5-55.4 9.5-11.3.2-27.7-1.4-43.5-6.9-11.3-4-20.6-10.5-26.5-21-5.1-8.7-4-17 1.2-25.5 5.5-8.9 12.1-5.5 19.4-4.2 26.1 4.9 52.6 2.6 79.1 2.8 7.5 0 14.8.4 21.9 3.2 9.1 3.4 15.6 9.7 16.6 19.6.8 10.2-4.3 17.5-12.8 22.5" style="fill:#0b2d61"/></svg>