<?xml version="1.0" encoding="utf-8"?>
<!-- Generator: Adobe Illustrator 26.3.1, SVG Export Plug-In . SVG Version: 6.00 Build 0)  -->
<svg version="1.1" id="Layer_1" xmlns="http://www.w3.org/2000/svg" xmlns:xlink="http://www.w3.org/1999/xlink" x="0px" y="0px"
	 viewBox="0 0 595.3 595.3" style="enable-background:new 0 0 595.3 595.3;" xml:space="preserve">
<style type="text/css">
	.st0{fill:#FFFFFF;}
	.st1{fill:#0B2D61;}
	.st2{fill:#FB5C1C;}
</style>
<path class="st0" d="M297.6,595.3L297.6,595.3C133.3,595.3,0,462,0,297.6v0C0,133.3,133.3,0,297.6,0h0
	C462,0,595.3,133.3,595.3,297.6v0C595.3,462,462,595.3,297.6,595.3z"/>
<g>
	<path class="st1" d="M448.6,319.7c-4.5,7.3-10.8,10.9-19.3,9.5c-7.8-1.3-12.7-5.9-13.1-13.8c-0.6-13-0.7-26-0.5-39.1
		c0.1-6.5,5.6-2.6,8.5-3.4c2.7-0.8,4.6,0.3,4.5,3.8c-0.2,10.4,0,20.8-0.1,31.2c0,4.8,0.8,9.4,6.2,10.5c5.4,1.1,9.4-1.9,12-6.5
		c2.3-4.1,2-8.7,2.1-13.1c0.2-7.1,0.4-14.3,0-21.4c-0.3-5.4,3.1-4.6,6.3-4.5c3.1,0.1,6.5-1.2,6.4,4.4c-0.3,15.5-0.3,31,0,46.4
		c0.1,4.5-1.9,5.1-5.5,4.7c-3.1-0.3-7,1.1-6.5-4.4C449.7,322.7,450.2,321.2,448.6,319.7z"/>
	<path class="st1" d="M547.3,318.9c-5.7,8.1-12,12.2-21,10.2c-7.4-1.7-11.9-6.4-12.1-14.1c-0.4-12.8-0.3-25.7-0.3-38.5
		c0-6.4,5-2.9,7.7-3.6c2.8-0.6,5.2-0.3,5.1,3.8c-0.2,10.4,0,20.8-0.1,31.2c0,4.8,0.7,9.1,6.2,10.5c4.4,1.1,10.1-2.2,12.3-7.1
		c1.8-4,1.8-8.3,1.9-12.6c0.1-7.1,0.3-14.3-0.1-21.4c-0.3-4.9,2.5-4.7,5.8-4.4c3.1,0.3,7.1-1.6,7,4.5c-0.3,15.1-0.2,30.2,0,45.3
		c0,3.7-0.2,6.1-5.1,5.9c-4.3-0.2-7.9-0.1-6.8-6C547.7,321.8,547.5,321,547.3,318.9z"/>
	<path class="st2" d="M194.2,308.4c3.5-10.3,7-20.6,10.4-31c0.8-2.4,1.5-4.4,4.7-4.7c5.7-0.4,6.5,0.4,4.7,5.8
		c-5.1,15-10.3,30-15.3,45.1c-1.1,3.5-2.7,4.8-6.5,4.8c-3.8,0-5.9-1.1-7.1-4.8c-4.9-14.7-10.1-29.2-15-43.9
		c-0.7-2.1-3.8-4.7-0.3-6.6c3.9-2.1,10.7,0.2,11.9,3.6c3.7,10.5,7.3,21.1,11,31.7C193.2,308.3,193.7,308.4,194.2,308.4z"/>
	<path class="st2" d="M42.7,301.4c0-3.9,0-7.7,0-11.6c0-3.7,1.4-8.1-5.1-7.9c-2.3,0.1-1.9-2.7-2-4.5c0-1.8-0.3-4.3,2.2-4.2
		c7.3,0.2,5.6-5.3,6.2-9.3c0.3-2.3-0.5-4.9,3-5.8c6-1.6,7.6-0.6,7.3,5.9c-0.3,5.7,0,10.2,7.7,8.9c4.1-0.7,3.7,2.6,4,5.2
		c0.3,3.2-1.3,4.9-4.3,4.2c-7.2-1.7-7.5,2.5-7.3,7.8c0.3,6.7,0.1,13.4,0.2,20.1c0.1,5,2.3,8.4,7.6,8.3c4.1-0.1,4.6,1.9,4.6,5.2
		c0,3.6-1.4,4.8-5,5.3c-12.3,1.4-18.7-3.8-18.9-16C42.7,309.1,42.8,305.2,42.7,301.4C42.8,301.4,42.8,301.4,42.7,301.4z"/>
	<path class="st2" d="M282.1,290c0-10.6,0.2-21.2-0.1-31.8c-0.2-5.6,3.3-4.8,6.8-5c3.9-0.2,6,0.6,5.9,5.2
		c-0.2,21.4-0.3,42.8-0.1,64.2c0.1,4.9-1.8,5.7-6.1,5.6c-4.3-0.1-6.8-0.5-6.6-5.9C282.4,311.7,282.1,300.8,282.1,290z"/>
	<path class="st1" d="M488.5,282.8c3.3-5.6,6.1-9.6,11.1-11.1c3.4-1.1,5.2-0.9,5.3,3.5c0.1,5.6,0.3,9.8-7.2,10.9
		c-5.3,0.8-6.8,6.5-7.8,11.4c-1.8,8.3-0.9,16.7-0.7,25c0.1,4.4-0.9,6.3-5.7,5.9c-4.1-0.3-7.3,0.4-7.1-5.8c0.5-14.7,0.2-29.3,0.1-44
		c0-3.5-0.2-6.2,4.9-6.1c4.6,0.1,7.6,0.6,6.6,6.2C487.7,279.4,488,280.2,488.5,282.8z"/>
	<path class="st2" d="M89,281.8c3.6-4.7,6.7-8.7,12.2-10.3c2.7-0.7,4.4-0.4,4.3,2.9c-0.2,4.9,1.8,10.3-6.5,11.3
		c-5.6,0.7-7.3,6.5-8.4,11.6c-1.9,8.5-0.8,17.1-0.8,25.6c0,4.8-2,5.3-5.9,5.1c-3.6-0.2-6.8,0.5-6.7-5c0.3-14.9,0.2-29.7,0-44.6
		c0-4,0.9-5.9,5.4-5.8c4.2,0.1,6.8,0.6,6,5.6C88.6,279.4,88.9,280.6,89,281.8z"/>
	<path class="st1" d="M388.7,318.7c-13.4-1.3-26.9-0.3-40.4-0.6c-4.3-0.1-8.6-0.1-12.3-2.7c-4.6-3.1-6.5-8.6-4.1-13.4
		c2.4-4.8,5.9-7.8,11.8-5.7c2.1,0.7,4.4,1,6.6,1.2c16.2,1.7,31.9,0.8,45.3-10c15.6-12.5,16.9-32.5,2.6-46.4c-4.7-4.6-2.7-7,0.7-10.1
		c2-1.8,4.5-2.5,7.2-3c4.3-0.8,10.4,2.1,12.6-1.8c2-3.6,0.6-9.1,0.7-13.8c0-1,0-2-0.1-3.1c-0.1-1.1-0.7-1.6-1.9-2
		c-9.2-2.9-27.1,1.9-30.3,10.8c-4.5,12.3-12.3,11.1-21.5,9.3c-0.4-0.1-0.8-0.1-1.2-0.1c-12.1-0.4-24.1,0.2-35.1,5.9
		c-21.9,11.5-24.6,38.7-5.4,54.1c0.7,0.6,1.9,0.9,1.9,2.6c-7.6,4.4-15,9.6-16.8,19.3c-1.9,9.8,2.9,17.2,10.1,23.8
		c-9.3,4.9-15.8,11.2-16.6,21.7c-1,15,7.6,25.6,24.8,30c13.1,3.3,26.5,4.5,40,3.4c12.6-1,25.1-2.7,36.1-10
		c13-8.7,18.7-21.8,15.4-35.7C415.6,329.5,403.9,320.2,388.7,318.7z M361,244.1c12.6,0.3,20.2,7.9,19.9,19.7
		c-0.4,12.4-8,19-21.3,18.8c-13.3-0.3-21.7-7.7-21.5-18.9C338.3,251.2,347,243.8,361,244.1z M389,365.6c-7.7,4.5-16.3,4.7-27.4,4.7
		c-5.6,0.1-13.7-0.7-21.5-3.4c-5.6-2-10.2-5.2-13.1-10.4c-2.5-4.3-2-8.4,0.6-12.6c2.7-4.4,6-2.7,9.6-2.1c12.9,2.4,26,1.3,39.1,1.4
		c3.7,0,7.3,0.2,10.8,1.6c4.5,1.7,7.7,4.8,8.2,9.7C395.7,359.5,393.2,363.1,389,365.6z"/>
	<path class="st2" d="M160.3,287c-0.6-7.8-3.8-11.8-11.3-14c-5.1-1.5-10.3-2.1-15.7-1.2c-6.5,1.1-13,2.3-17.1,8.2
		c-1.4,2.1-4.7,5.2-1.3,7.1c2.7,1.5,6.9,3.6,10-1.4c3.5-5.7,15-7.2,20.3-3.3c3,2.2,3.7,5.4,3.1,8.7c-0.7,3.8-4,1.9-6,2
		c-7.7,0.5-15.5,1.1-22.5,4.8c-6.3,3.4-9.3,9.8-8.3,16.9c1,7,5.9,12.3,13,13.7c9.7,1.8,17.7-0.6,23.7-10.5c0.7,3.5,0.8,5.5,1.5,7.4
		c1.7,4.7,5.8,2.3,9,2.7c1.8,0.2,3.3-0.5,2.9-2.8C159.2,312.7,161.3,299.8,160.3,287z M148.4,306.1c-0.8,9-7.4,14.9-15.9,13.9
		c-4-0.4-7-2.3-8.1-6.3c-1.1-4.1,0.5-7.2,3.7-9.6c4.3-3.2,9.4-3.6,15.2-4.1C147.9,298.8,148.8,301.5,148.4,306.1z"/>
	<path class="st2" d="M236.6,301.7c4.9,0.2,9.8,0,14.7,0c5.1,0,10.2-0.1,15.3,0c2.8,0.1,4-0.7,4-3.8c0.2-12.3-8.2-23.7-19.3-25.8
		c-13.4-2.6-24.8,3.5-29.5,15.9c-3.3,8.8-3.1,17.7,0.4,26.3c3.8,9.4,11.3,14.3,21.3,14.8c10.3,0.4,18.9-2.9,24-12.5
		c0.7-1.3,3-3.9,0.3-4.5c-3.7-0.7-8-3.5-11.4,1.8c-3.6,5.5-9.3,6.9-15.1,4.8c-6-2.1-8.1-6.9-8.8-12.8
		C232.3,303,233.3,301.6,236.6,301.7z M235.2,285.8c2.8-4.3,6.9-6.2,12-5.3c5.1,0.9,8.4,4,9.8,8.9c0.9,3.1,0.3,5.1-3.7,4.9
		c-2.8-0.2-5.7,0-8.5,0c-1.8,0-3.7,0.2-5.5,0c-2.1-0.2-5,1.2-6.2-1.1C231.9,290.5,233.7,287.9,235.2,285.8z"/>
</g>
</svg>
