<?xml version="1.0" encoding="utf-8"?>
<!-- Generator: Adobe Illustrator 26.3.1, SVG Export Plug-In . SVG Version: 6.00 Build 0)  -->
<svg version="1.1" id="Layer_1" xmlns="http://www.w3.org/2000/svg" xmlns:xlink="http://www.w3.org/1999/xlink" x="0px" y="0px"
	 viewBox="0 0 595.3 595.3" style="enable-background:new 0 0 595.3 595.3;" xml:space="preserve">
<style type="text/css">
	.st0{fill:#FFFFFF;}
	.st1{fill:#63A1D4;}
	.st2{fill:url(#SVGID_1_);}
</style>
<path class="st0" d="M297.6,595.3L297.6,595.3C133.3,595.3,0,462,0,297.6l0,0C0,133.3,133.3,0,297.6,0l0,0
	C462,0,595.3,133.3,595.3,297.6l0,0C595.3,462,462,595.3,297.6,595.3z"/>
<g>
	<g>
		<path class="st1" d="M433,267.1c-6.9-1.2-13.9-2-20.9-0.9c-9.6,1.5-14.4,7.2-14.5,16.9c0,4.4,0,8.8,0,13.2c0,4.7-0.1,9.5,0,14.2
			c0.1,8.5,4.6,14,12.9,15.8c5.8,1.3,11.7,1,17.5,0.2c7.2-1,7.1-1,6.4-8.2c-0.3-2.8-1.3-2.9-3.6-2.5c-4.7,0.8-9.4,1.4-14.2,0.9
			c-5-0.5-7.5-2.7-7.5-7.4c-0.2-8.7-0.1-17.3,0-26c0.1-4.3,2.4-6.5,6.7-7.1c3.8-0.5,7.7-0.2,11.5,0.3c7.1,0.8,7,0.8,7.7-6.4
			C435.2,268.3,434.8,267.5,433,267.1z"/>
		<path class="st1" d="M358.3,282.6c-4.8-1.3-9.7-1.2-14.4,0.1c-5.6,1.6-9.2,5.3-10.1,11c-1.1,6.7-0.9,13.5-0.3,20.2
			c0.8,7.4,4.6,11.1,12,12.6c5.4,1.1,10.9,0.8,16.2-0.4c7.8-1.9,6.4-0.3,4.9-8.2c-0.3-1.5-0.8-1.7-2.3-1.3
			c-4.4,1.2-8.9,1.9-13.4,1.5c-4.9-0.4-6.9-2.7-6.7-7.5c0.1-1.4,0.4-2,1.9-1.9c3.4,0.1,6.8,0,10.2,0c3.4,0,6.8,0,10.2,0
			c1.3,0,2.2-0.1,2.1-1.8c-0.2-4.2,0.1-8.4-0.4-12.5C367.6,288.5,364.3,284.2,358.3,282.6z M355.9,299.9c-1.7-0.1-3.4,0-5.1,0
			c-0.7,0-1.4,0.1-2,0c-1.5-0.3-3.9,1.1-4.4-1c-0.6-2.4-0.2-5.1,2.1-6.7c2.7-1.9,5.8-1.9,8.7-0.6c2.5,1.1,2.7,3.6,2.9,6
			C358.3,299.3,357.8,300,355.9,299.9z"/>
		<path class="st1" d="M282.8,309.8c0-4.4,0-8.8,0-13.2c-0.1-9.6-4.2-13.9-13.8-14.8c-4.2-0.4-8.4-0.2-12.5,0.5
			c-8,1.5-6.6,0.1-5.6,7.4c0.3,2.1,1.1,2.3,2.8,2c3.2-0.7,6.5-0.9,9.8-0.9c7.1,0,8.5,1.5,8.4,8.5c0,2.2-0.8,2.6-2.8,2.5
			c-3.5-0.1-7-0.1-10.5,0.1c-2.9,0.1-5.8,0.8-7.5,3.3c-3.6,5-3.4,10.6-1.1,16c2,4.8,6.3,6,11.2,5.8c2.9-0.1,5.6-0.8,8.2-1.8
			c1.6-0.6,3.6-3.1,4.6,0.7c0.1,0.2,1,0.3,1.6,0.3c1.7,0,3.4-0.1,5.1,0c1.9,0.2,2.3-0.6,2.2-2.3
			C282.7,319.2,282.8,314.5,282.8,309.8z M268.8,317.5c-1.6,0.3-3.1,0.7-4.6,0.8c-3.6,0.2-4.9-0.8-5-3.9c-0.2-3.4,0.9-4.5,4.6-4.6
			c0.9,0,1.8,0,2.7,0c0.5,0,1-0.1,1.3,0c1.3,0.5,3.8-1.4,3.9,1.6C271.8,313.9,272.6,316.8,268.8,317.5z"/>
		<path class="st1" d="M218.1,266.6c-11.4,0.1-22.9,0.1-34.3,0.1c-7.4,0-7.3,0-7.3,7.4c0,2.2,0.7,2.6,2.7,2.6
			c3.6-0.1,7.3,0.1,10.9-0.1c2.5-0.1,3.2,0.4,3.2,3.1c-0.2,12.6-0.1,25.2-0.1,37.8c0,2.8-0.9,6.5,0.5,8.1c1.7,1.9,5.5,0.3,8.4,0.7
			c2.2,0.3,2.6-0.7,2.6-2.7c-0.1-7.4,0-14.9,0-22.3c0-5-0.1-9.9,0-14.9c0.1-3.2-1.4-7.5,0.6-9.4c1.8-1.6,6-0.4,9.2-0.4
			c6.9,0,6.8,0,7-6.8C221.7,267.1,220.7,266.6,218.1,266.6z"/>
		<path class="st1" d="M321.3,282.6c-2.5-0.2-3.3,0.9-3.9,3c-2.8,9.7-5.8,19.3-9.1,30c-2.7-8.9-5.1-16.9-7.6-25
			c-2.5-8.3-2.5-8.2-11.3-8c-2.3,0-2.3,0.8-1.7,2.6c4.3,13,8.5,26,12.6,39.1c0.5,1.6,1.2,2.1,2.8,2.1c3.2-0.1,6.3-0.2,9.5,0
			c2.1,0.1,3.3-0.4,3.8-2.7c0.7-2.9,1.8-5.8,2.8-8.7c3.4-10.7,6.8-21.3,10.4-32.4C326.7,282.6,324,282.8,321.3,282.6z"/>
		<path class="st1" d="M511.5,282.6c-5.4-1-10.8-1.3-16.2-0.1c-6.5,1.4-10.2,5.5-10.7,12.2c-0.3,3.2,0,6.5,0,9.8
			c0,3.3-0.2,6.5,0,9.8c0.5,6.7,4.2,10.7,10.8,12.2c3.7,0.8,7.4,0.8,11.1,0.6c7.7-0.5,7.6-0.5,6.6-7.9c-0.3-2.3-1.2-2.6-3.1-2.1
			c-2.8,0.7-5.6,0.7-8.4,0.6c-4.3-0.3-6.1-2.1-6.2-6.4c-0.1-3.7,0-7.4,0-11.1c0-7.4,1.8-9.1,9.3-8.8c0.7,0,1.4,0.1,2,0.1
			c6.3,0.6,6.2,0.6,7-5.5C514,283.8,513.5,283,511.5,282.6z"/>
		<path class="st1" d="M388,295c0-7.9,0-15.7,0-23.6c0-8.4,0-8.3-8.3-7c-2.2,0.3-2.9,1.1-2.9,3.4c0.1,16.9,0.1,33.7,0.1,50.6
			c0,8,0,7.9,8.2,7.9c2.3,0,3.1-0.5,3-3C387.9,313.9,388,304.5,388,295z"/>
		<path class="st1" d="M454.8,294.8c0-7.9,0-15.7,0-23.6c0-8.1,0-8-8.1-6.9c-2.5,0.3-3,1.2-3,3.6c0.1,16.8,0.1,33.5,0.1,50.3
			c0,8.2,0,8.1,8.2,8.1c2.2,0,2.8-0.6,2.8-2.8C454.7,314,454.8,304.4,454.8,294.8z"/>
		<path class="st1" d="M532.8,294.8c0-7.9,0-15.8,0-23.6c0-8.1,0-8-8.1-6.9c-2.4,0.3-3.1,1.2-3,3.6c0.1,16.8,0.1,33.5,0.1,50.3
			c0,8.2,0,8.1,8.3,8.1c2.2,0,2.8-0.6,2.8-2.8C532.8,314,532.8,304.4,532.8,294.8z"/>
		<path class="st1" d="M242.6,281.9c-4,1.1-7.4,3.3-11.5,5.5c0.9-5.4-2.5-5-5.7-4.8c-0.5,0-0.9,0.1-1.4,0c-2.2-0.3-2.9,0.5-2.9,2.8
			c0.1,10.9,0.1,21.8,0.1,32.7c0,8.2,0,8.1,8.2,8.2c2.5,0,3-0.8,2.9-3.1c-0.2-4.7,0.5-9.5-0.2-14.2c-1.3-8.5,1.5-14,9.9-16.4
			c0.9-0.3,2-0.6,1.7-2.1C243.3,287.7,243.5,284.8,242.6,281.9z"/>
		<path class="st1" d="M554.3,317.3c-2.6-4.3-5.2-8.6-7.8-13c2.6-4.5,5.2-8.9,7.8-13.4c1.5-2.6,5-6.2,4-7.6
			c-1.6-2.2-5.8-0.4-8.9-0.8c-1.8-0.2-2.9,0.5-3.8,2.1c-3.3,5.9-6.7,11.7-10.1,17.5c-0.8,1.4-1,2.4-0.1,3.9
			c3.8,6.1,7.4,12.3,11.1,18.5c0.6,1,1.2,1.8,2.6,1.8c3.3-0.1,6.7,0,10.6,0C557.7,323,556,320.1,554.3,317.3z"/>
		<path class="st1" d="M475.7,304.8c0-4.7,0-9.4,0-14.1c0-8,0-7.9-8-8c-2.7,0-3.1,0.9-3.1,3.3c0.1,10.8,0.1,21.6,0.1,32.3
			c0,8.2,0,8.1,8.2,8.2c2.5,0,3-0.8,2.9-3.1C475.6,317.1,475.7,310.9,475.7,304.8z"/>
		<path class="st1" d="M468.6,276.6c7.1-0.3,7.1-0.1,7.1-7.4c0-5.2,0-5.2-5.2-5.2c-5.8,0-5.8,0-5.8,6.4c0,0.8,0.1,1.6,0,2.3
			C464.1,275.9,465.3,276.7,468.6,276.6z"/>
	</g>
	<linearGradient id="SVGID_1_" gradientUnits="userSpaceOnUse" x1="95.4359" y1="238.5205" x2="95.4359" y2="356.7794">
		<stop  offset="0" style="stop-color:#63A1D4"/>
		<stop  offset="1" style="stop-color:#050708"/>
	</linearGradient>
	<path class="st2" d="M70.9,287.1c-12.8,0.8-24.1,4.4-35.2,8.9c0-1.4,0-2.7,0-4.1c0.9-2.5,2.8-3.3,5.3-3.8
		c8.3-1.6,16.6-3.2,25.1-2.8C67.4,285.3,69,285.1,70.9,287.1z M105.8,269.7c0.1,1.1-0.4,2.6,1.5,3c1-1.6,0.9-3.4,0.9-5.2
		c0.1-7.9-1.3-15.6-2.8-23.4c-0.5-2.8-1.5-5-4.5-5.7c-0.9,0-1.8,0-2.7,0c-0.2,0.8-0.5,1.4,0,2.4
		C102.2,250.1,105.2,259.6,105.8,269.7z M100.6,267.1c0.4,1.3,0,3.8,1.6,3.5c1.7-0.3,0.7-2.7,0.5-4.1c-1.5-9.8-5.1-19-9.3-28
		c-1.1,0-2.3,0-3.4,0c-1.6,0.9-2.3,1.6-1,3.7C93.9,250,98.1,258.2,100.6,267.1z M66.6,292.4c0.8-0.2,1.9-0.3,1.8-2
		c-11.8,0.5-22.3,4.8-32.7,9.6c0,0.9,0,1.8,0,2.7c0.7,3.1,2.2,2.5,4.4,1.2C48.3,298.8,56.9,294.5,66.6,292.4z M153.8,300.4
		c-10.1,3.9-20.3,7.6-31.3,7.9c-0.8,0-1.7,0.2-1.6,1.2c0.1,0.9,1,0.6,1.6,0.7c9.2,1.1,18.2-0.6,27.1-2.5c5.2-1.1,5.5-1.6,5.2-7.4
		C154.4,300.3,154.1,300.2,153.8,300.4z M39.9,284.5c1-0.1,2-0.3,3-0.4c9-1.6,18.1-2.5,27.3-1.2c0.9,0.1,2,0.4,2.3-0.7
		c0.4-1.4-1.1-1.2-1.8-1.4c-8.3-2.5-16.9-2.8-25.5-2.8c-4.7,0-5.1,0.8-6.7,6.4C39.1,284.5,39.5,284.6,39.9,284.5z M110.5,273.1
		c-0.1,0.8-0.3,1.8,0.7,2c1.4,0.4,1.1-1,1.4-1.7c2.4-8,2.8-16.3,2.7-24.6c-0.1-5.5-0.5-6-6.4-7.3c-0.6,0.8,0,1.5,0.1,2.2
		C110.7,253.5,112,263.2,110.5,273.1z M151.5,291.6c-8.6,4.9-17.3,9.6-27.2,11.8c-0.8,0.2-1.8,0.2-1.6,1.3c0.2,1.3,1.5,0.5,2.2,0.7
		c5.8-0.1,24.6-5.9,29.1-8.9c2.5-1.6,0.9-3.8,0.3-5.4C153.6,289.5,152.3,291.2,151.5,291.6z M118.3,313.3c1.4,1.8,2.6,2,3.8,2.3
		c7.4,1.7,15,2.2,22.6,2.1c5.7-0.1,6.4-0.6,7.5-6.9C141.2,313.4,130.1,313.8,118.3,313.3z M115.1,278.5c1.1,0.5,1.2-0.7,1.5-1.3
		c3.5-6.6,5.6-13.7,7.4-20.9c1.4-6,1.3-6.2-4.7-9.3c-0.4,10.2-1.2,20-4.5,29.5C114.5,277.2,114.2,278.1,115.1,278.5z M74.7,276.9
		c-6.6-3.5-13.8-5.7-21-7.4c-6.2-1.5-6.2-1.5-9.6,4.7c10.4,0.5,20.4,1.1,29.9,4.6c0.7,0.2,1.4,0.4,1.8-0.3
		C76.5,277.3,75.3,277.2,74.7,276.9z M114.9,317.5c-0.5,1.1,0.7,1.2,1.3,1.5c7.9,4.2,16.4,6.3,25,8.2c1.1,0.2,1.7,0,2.3-0.8
		c1.1-1.4,2.1-2.8,3.5-4.6c-10.4-1.4-20.6-0.7-30-4.8C116.3,316.7,115.3,316.6,114.9,317.5z M148.4,284
		c-7.1,5.6-14.5,10.7-22.9,14.3c-0.9,0.4-2.8,0.4-2.1,1.9c0.4,1.1,1.8,0.2,2.7,0c9.2-2.5,17.3-7.3,25.3-12.4
		c0.6-0.4,1.5-0.6,1.4-1.7c-0.6-1.2-0.8-2.7-2-3.4C149.8,282.1,149.1,283.4,148.4,284z M67.5,295.9c-0.1-0.8-0.8-0.6-1.5-0.6
		c-0.6,0.2-1.4,0.4-2.1,0.6c-5,1.2-9.5,3.8-14.1,6c-3.7,1.8-7.2,4.1-10.8,6.3c-2.4,1.5-0.1,2.9,0.3,4.3c0.4,1.2,1.2,1,2.1,0.3
		c7.7-6.3,15.8-12,25.1-15.7C67,296.9,67.6,296.6,67.5,295.9z M81.1,244.9c4,5,7.9,10.1,11,15.7c1.5,2.7,2.7,5.7,4.1,8.5
		c0.3,0.6,0.6,1.3,1.5,1c0.3-0.1,0.4-0.7,0.5-0.9c-0.1-0.5-0.2-0.9-0.3-1.2c-2.6-9.5-7.5-18-12.9-26.2c-1.5-2.3-3.1-0.1-4.3,0.5
		C78.8,243.2,80.6,244.2,81.1,244.9z M72.6,313.3c-1-0.6-1.3,0.5-1.8,1.1c-5.2,6.3-9,13.5-12.5,20.8c-0.7,1.4,2.2,6,3.7,6
		c1-0.1,0.8-0.9,1-1.5c1.1-2.4,1.2-5.1,2.2-7.7c2.3-5.6,4.1-11.4,7.4-16.6C73.1,314.7,73.4,313.8,72.6,313.3z M54.7,266
		c7.9,2.2,15.7,4.9,22.9,9.1c0.8,0.5,1.7,1.1,2.3,0c0.5-1-0.7-1.2-1.2-1.7c-6.3-5-13.4-8.7-20.6-12.2c-0.4-0.2-0.8-0.3-1.2-0.5
		c-1.3,0.1-2,1-2.8,1.8c-0.7,0.7-2,1.2-1.8,2.2C52.3,265.9,53.8,265.8,54.7,266z M118.2,282.1c1.1,0.8,1.6-0.5,2-1.1
		c5.1-6.2,8.8-13.3,12.3-20.5c0.1-0.3,0.2-0.6,0.5-1.2c-0.6-1.8-2.1-3.6-3.8-4.2c-1.8-0.6-1.4,1.8-1.7,2.8c-2.3,7.5-4.8,15-8.9,21.8
		C118.2,280.5,117.2,281.4,118.2,282.1z M136.5,329.8c-8-2.2-15.9-5-23.3-8.8c-0.4-0.2-0.9-1.2-1.6-0.2c-1,1.3,0.4,1.6,0.9,2
		c6.4,4.9,13.5,8.7,20.7,12.1c1.3,0.6,5.7-2.3,5.7-3.8C138.5,329.9,137.3,330,136.5,329.8z M123.2,295.5c0.7,1.1,1.9,0,2.7-0.4
		c8.1-3.6,15.1-8.8,21.9-14.5c0.5-0.4,1.1-0.8,1.2-1.7c-0.6-0.9-1.2-2.1-2.1-2.8c-1.2-1-1.7,0.6-2.3,1.2c-6,6.1-12.4,11.8-19.8,16.2
		C124,294,122.4,294.3,123.2,295.5z M74.4,248.8c3.3,3.4,6.7,6.7,9.7,10.4c2.6,3.2,5.1,6.6,7.2,10.2c0.3,0.6,0.6,1.3,1.5,1
		c0.5-0.2,0.6-0.7,0.5-1.1c0-0.1,0-0.2-0.1-0.3c-3.8-8.8-9.3-16.4-15.7-23.5c-1.6-1.7-2.5,0.5-3.6,1.2
		C72.3,247.5,73.8,248.2,74.4,248.8z M120.5,286.5c1,1,1.8-0.4,2.4-0.9c5.2-4.6,9.6-9.8,13.7-15.3c3.2-4.2,3.2-4.2-0.9-7.8
		c-1,0.7-1.3,1.8-1.8,2.8c-3.7,6.6-7.4,13.1-12.5,18.8C120.9,284.7,119.5,285.4,120.5,286.5z M67.9,300.4c-1-1-2-0.2-2.9,0.2
		c-8.2,3.4-14.8,9.3-21.9,14.4c-2.4,1.8-0.3,2.9,0.5,4.1c1.3,2.1,2,0.1,2.7-0.6c6.2-6.2,12.5-12.3,20.3-16.6
		C67.2,301.7,67.9,301.4,67.9,300.4z M82.2,269.7c-4.3-4.8-9.3-8.8-14.5-12.7c-4.1-3.1-4.1-3.1-8.4,1c9,4.2,16.7,9.8,25.1,15.8
		C84.2,271.3,83,270.6,82.2,269.7z M128.9,336.5c-6.9-3.9-13.9-7.6-19.9-13c-0.4-0.4-0.9-0.7-1.4-1.1c-0.4,0.3-0.9,0.5-1.1,0.8
		c-0.3,0.6,0.3,1,0.6,1.4c5.5,6.3,11.9,11.6,18.8,16.3c2.2,1.5,3.7-1.2,4.8-2.5C131.9,337.1,129.7,336.9,128.9,336.5z M70.5,310.1
		c-0.2-0.4-0.2-0.8-0.4-1c-0.6-0.5-1,0-1.4,0.4c-6.3,5.5-11.7,11.8-16.5,18.6c-1.5,2.2,0.9,3.6,2.2,4.6c1.6,1.3,1.8-0.9,2.3-1.7
		c3.7-6.6,7.4-13.3,12.5-19C69.7,311.4,70.1,310.7,70.5,310.1z M123.7,288.6c-0.7,0.6-2.2,1.1-1.4,2.3c0.8,1.1,1.8-0.1,2.6-0.6
		c6.9-4.4,12.7-10,18.4-15.8c0.4-0.4,0.7-0.8,1.2-1.5c-0.9-1.1-1.5-2.4-2.6-3.1c-1.2-0.9-1.7,0.7-2.2,1.4
		C134.8,277.5,129.8,283.6,123.7,288.6z M67.9,306.6c0.4-0.3,0.7-0.8,1.1-1.2c-0.2-0.4-0.3-0.9-0.5-1c-0.9-0.3-1.5,0.3-2.1,0.7
		c-6.7,4.8-13.2,9.9-18.8,16c-2.1,2.3,0,3.2,1,4.4c1.6,1.8,2-0.4,2.6-1.1C56.5,318.3,61,311.4,67.9,306.6z M68.9,254.1
		c6.3,4.8,12.3,9.9,17.4,16c0.5,0.6,1,1.9,2,1.1c0.9-0.7-0.1-1.7-0.5-2.4c-4.4-7-10.2-12.9-16.2-18.6c-0.4-0.4-0.9-0.6-1.4-1.1
		c-1.1,1-2.5,1.7-3,2.8C66.7,253,68.2,253.5,68.9,254.1z M122.6,342.1c-5.7-4.5-11.5-9-16.4-14.4c-0.7-0.8-1.6-1.9-2.9-2
		c-0.6,0.5-0.5,1.1-0.1,1.6c4.5,7.1,10.2,13.1,16.4,18.7c1.9,1.7,2.9-0.9,4-1.8C124.9,343.1,123.2,342.6,122.6,342.1z M93.3,338.2
		c-0.9-4-3-7.6-3.4-11.8c-0.1-0.8-0.4-1.8-1.3-1.7c-1.4,0.1-0.8,1.4-0.7,2.1c0.2,4.1,1.2,8.1,2.3,12.1c1.9,4.9,4.1,9.6,5.5,14.6
		c1,3.4,3,3.4,5.6,3c1.3-0.2,2.1-0.3,1-2C98.9,349.3,95.8,344,93.3,338.2z M67.5,338.1c-2.2,7.2-2,7.6,4.2,10.4c0-2.8,0-5.5,0-8.1
		c1.3-7.5,2.2-15.1,3.5-22.6C71.4,324.1,68.4,330.7,67.5,338.1z M101.5,340.2c-2.1-3.8-4.1-7.5-6.3-11.2c-0.3-0.5-0.4-1.5-1.3-1.2
		c-1.1,0.3-0.7,1.4-0.5,2c1.7,4.3,2.8,8.9,5.7,12.7c2,3.6,4.1,7.1,6.1,10.7c1.1,2,2.5,1.8,4.1,0.8c2-1.2,0.8-2.4-0.1-3.6
		C106.6,347,104.1,343.6,101.5,340.2z M85.1,325.4c0-1,0-2.3-1.3-2.3c-1.1,0-0.9,1.4-1,2.2c-0.4,5.2-0.1,10.5,0.6,15.7
		c1.4,3.4,1.4,7,2.2,10.5c1.3,5.5,1.6,5.8,7.5,5c-2.3-5.2-4.3-10.6-5.9-16.1C85.9,335.5,85.3,330.5,85.1,325.4z M116.3,347
		c-2.2-2.3-4.4-4.5-6.6-6.8c-3.7-4.7-7.2-9.6-11.7-13.7c2.2,6.1,5.2,11.7,9.6,16.5c1.8,2.3,3.7,4.5,5.4,6.8c1.8,2.3,2.7-0.2,3.8-0.8
		C118.5,348.2,116.8,347.6,116.3,347z M80.4,322.1c0.2-0.7-0.2-1.4-0.9-1.6c-0.9-0.2-1,0.6-1.2,1.3c-1.4,5-2.6,10.1-2.4,15.4
		c-0.1,3.2-0.2,6.5-0.3,9.7c0,5.4,0.7,6.2,6.6,7.3c-1.6-5.9-2.4-11.8-2.7-17.8C80.1,331.7,79.4,326.9,80.4,322.1z"/>
</g>
</svg>
