<?xml version="1.0" encoding="utf-8"?>
<!-- Generator: Adobe Illustrator 26.3.1, SVG Export Plug-In . SVG Version: 6.00 Build 0)  -->
<svg version="1.1" id="Layer_1" xmlns="http://www.w3.org/2000/svg" xmlns:xlink="http://www.w3.org/1999/xlink" x="0px" y="0px"
	 viewBox="0 0 595.3 595.3" style="enable-background:new 0 0 595.3 595.3;" xml:space="preserve">
<style type="text/css">
	.st0{fill:#FFFFFF;}
	.st1{fill:#D2AA55;}
	.st2{fill:#1C3161;}
</style>
<path class="st0" d="M297.6,595.3L297.6,595.3C133.3,595.3,0,462,0,297.6v0C0,133.3,133.3,0,297.6,0h0
	C462,0,595.3,133.3,595.3,297.6v0C595.3,462,462,595.3,297.6,595.3z"/>
<g>
	<path class="st1" d="M325.2,329.4c0,3.4,0,6.8,0,10.2c0,1-0.1,1.9-1.3,2.1c-1,0.1-2.2,0.4-2.6-0.9c-0.5-1.8-1.2-1.1-2.1-0.3
		c-2.6,2.2-5.6,2.5-8.7,1.6c-3.1-0.9-5-2.9-5-6.2c-0.1-5.5-0.1-11.1-0.1-16.6c0-1.5,0.5-2.3,2.1-2.3c1.6,0,2.1,0.9,2.1,2.4
		c0,4.6,0.1,9.2,0,13.8c0,2.7,0.7,4.9,3.7,5.5c2.5,0.5,5.4-1,6.6-3.5c0.7-1.5,1-3.1,1-4.8c0-3.7,0-7.4,0-11.1c0-1.4,0.3-2.4,2-2.4
		c1.8,0,2.3,0.9,2.3,2.5C325.1,322.7,325.2,326.1,325.2,329.4z"/>
	<path class="st1" d="M236.4,338.7c-3.5,3.6-7.1,4.6-11.2,3.1c-2.7-1-4.3-2.9-4.4-5.7c-0.1-5.6-0.1-11.3-0.1-16.9
		c0-1.3,0.3-2.2,1.8-2.3c1.7,0,2.1,0.9,2.1,2.3c0,4.2,0,8.4,0,12.6c0.1,4.7,1.4,6.6,4.5,6.9c3.6,0.3,6.5-2.3,6.9-6.4
		c0.3-4.2,0.2-8.4,0.2-12.6c0-1.6,0.1-2.9,2.2-2.8c1.9,0,2.1,1.3,2.1,2.7c0,6.5,0,12.9,0,19.4c0,1.2,0.2,2.5-1.6,2.8
		C237.2,342.1,236.5,341,236.4,338.7z"/>
	<path class="st1" d="M107.3,335.6c1.8-5,3.5-10,5.3-15.1c0.3-0.9,0.6-1.8,1-2.6c0.9-1.6,2.5-1.5,3.8-1c1.5,0.6,0.4,1.8,0.1,2.6
		c-2.5,6.6-5.1,13.2-7.5,19.9c-0.6,1.5-1.4,2.3-3.1,2.3c-1.8,0-2.5-0.9-3.1-2.4c-2.3-6.5-4.7-12.9-7-19.4c-0.3-0.9-1.8-2.4,0.2-3.1
		c1.7-0.5,3.4-0.4,4.1,1.9c1.2,4.1,2.6,8.2,3.9,12.3c0.5,1.5,1,3,1.5,4.6C106.8,335.7,107,335.7,107.3,335.6z"/>
	<path class="st1" d="M44.3,341.9c-3.5,0-5.1-1.4-5.2-5.1c-0.2-4.2-0.1-8.4-0.1-12.6c0-1.7,0.3-3.4-2.2-4c-1.6-0.4-1.6-2.6-0.1-3
		c2.4-0.7,2.3-2.3,2.3-4c0-1.4-0.1-3,2.1-3.1c2.4-0.1,2.2,1.6,2.2,3.2c-0.1,2,0.1,3.7,2.8,3.7c1,0,1.3,0.8,1.3,1.8
		c0,1-0.4,1.7-1.4,1.6c-2.6-0.1-2.7,1.5-2.7,3.5c0.1,3.7,0,7.4,0,11.1c0,1.4,0,2.8,1.7,3.2c1.2,0.3,2.6,0.3,2.3,2.1
		C47.1,342.2,45.5,341.8,44.3,341.9z"/>
	<path class="st1" d="M249.9,329.9c0-2,0-3.9,0-5.9c0-1.8,0.3-3.6-2.4-3.7c-0.9,0-1-0.9-1-1.6c0-0.8,0.3-1.6,1.1-1.6
		c2.7-0.2,2.3-2.1,2.4-3.8c0-1.6-0.1-3.2,2.2-3.1c2.2,0.1,2.1,1.6,2,3.1c-0.1,2,0,3.8,2.7,3.9c0.9,0,1.1,0.8,1.1,1.6
		c0,0.9-0.3,1.7-1.3,1.8c-2.3,0.1-2.5,1.5-2.5,3.3c0.1,3.7,0,7.4,0,11.1c0,1.8,0.1,3.3,2.4,3.6c1.2,0.1,1.4,1,1.4,2
		c-0.1,1-0.7,1.3-1.6,1.5c-3.6,0.8-6.2-1-6.4-4.6C249.8,334.8,249.9,332.3,249.9,329.9C249.9,329.9,249.9,329.9,249.9,329.9z"/>
	<path class="st1" d="M58.2,320c1.9-1.6,3.2-3.1,5.2-3.5c1.2-0.2,2.4-0.5,2.6,1.2c0.1,1.2,0.5,2.6-1.4,3.2c-5.6,1.8-6.4,2.9-6.5,8.7
		c0,3.3,0,6.6,0,9.9c0,1.4-0.4,2.4-2.1,2.4c-1.6,0-2.2-0.9-2.2-2.3c0-6.8,0-13.6,0-20.3c0-1.3,0.4-2.1,1.9-2.3
		C57.9,316.6,58,318,58.2,320z"/>
	<path class="st1" d="M155.5,324.9c0,4.6,0,9.2,0,13.9c0,1.5,0.1,3-2.1,3c-2.1,0-2.2-1.3-2.2-2.8c0-9.3,0-18.7,0-28
		c0-1.4-0.1-3,2.1-3c2.4,0,2.2,1.6,2.2,3.2C155.5,315.7,155.5,320.3,155.5,324.9z"/>
	<path class="st1" d="M268.5,329.5c0,3.2,0,6.4,0,9.5c0,1.4-0.1,2.7-2,2.7c-1.8,0-2.3-1-2.3-2.5c0-6.7,0-13.3,0-20
		c0-1.4,0.4-2.4,2.1-2.4c1.8-0.1,2.2,1,2.2,2.6C268.5,322.7,268.5,326.1,268.5,329.5z"/>
	<path class="st1" d="M268.5,310c0.1,1.7-0.6,2.4-2.1,2.4c-1.6,0-2.1-0.8-2.1-2.3c0-1.5,0.6-2.3,2.2-2.3
		C267.9,307.9,268.6,308.6,268.5,310z"/>
	<path class="st1" d="M555.4,245C555.4,245,555.4,245,555.4,245c-1.1,0.2-2.2,0.3-3.3,0.5c-17.7,3.6-35.4,7.2-53.1,10.9
		c-8.4,1.7-17,2.7-24,8.7c-3.9,3.4-5.6,7.9-7.8,12.2c0,0.1,0.3,0.3,0.4,0.4c2.6,0.3,5-0.3,7.4-1.3c3.6-1.4,7.3-2.7,11-4
		c11.5-4.3,23.1-8.2,34.5-12.8c7.8-3.1,15.7-6.3,23.6-9.3c3.2-1.4,6.4-2.7,9.7-3.8c0.1,0.1,0.1,0.1,0.3,0.2c0,0,0,0,0,0c0,0,0,0,0,0
		c-3.1,1.2-6.2,2.5-9.3,3.7c0,0,0,0,0,0c0,0,0,0,0,0c-23.3,10-46.6,20-69.8,30c-0.7,0.3-1.5,0.5-2.3,0.8c0,0,0,0,0,0v0
		c-1.9,0.9-3.7,1.8-5.6,2.5c-1.8,0.7-3.2,1.8-4.3,3.3c-1.8,2.4-3.6,4.8-5.5,7c-1.4,1.7-1.4,2.6,0.8,3.6c3.7,1.6,7.3,3.4,10.7,5.4
		c2.2,1.2,3.8,1.1,5.8-0.3c27.5-18.9,55-37.8,82.6-56.6c0,0,0,0,0,0c0,0,0,0,0,0c0.9-0.5,1.9-0.9,2.5-2.2
		C558,244.2,556.7,244.3,555.4,245z"/>
	<path class="st1" d="M297.2,319.1c0-0.9,0-2-1.2-2.2c-1-0.2-2.4-0.5-2.7,0.7c-0.7,2.6-1.6,0.8-2.4,0.3c-4.1-2.9-9.5-2.1-12.7,1.8
		c-1,1.2-1.7,2.6-2.1,4.1c-1.2,4.1-0.9,8.2,0.7,12.1c2.8,6.6,8.2,8.1,16.2,4.2c0,3.1,0,6.1,0,9c0,1.3,0.5,2.1,2,2.2
		c1.6,0.1,2.2-0.7,2.2-2.2C297.2,339.1,297.2,329.1,297.2,319.1z M292.2,334.9c-1.2,2.4-3.2,3.8-5.9,3.8c-2.5,0-4.3-1.3-5.3-3.6
		c-1.6-3.6-1.7-7.4-0.4-11.1c0.9-2.5,2.8-3.7,5.5-3.8c2.8-0.1,4.8,1,5.9,3.6c0.9,2,1.1,4.2,1.1,7
		C293.1,331.8,292.9,333.4,292.2,334.9z"/>
	<path class="st1" d="M185.1,327.1c-0.3-4.2-1.8-7.9-5.8-9.9c-3.9-2-7.6-1.1-11.6,2.2c0-3.7,0-6.6,0-9.5c0-1.4-0.7-2-2.1-2
		c-1.4,0-2.1,0.6-2.1,2c0,9.9,0,19.9,0,29.8c0,1.9,2.2,2.8,3.4,1.4c1-1.2,1.3-1.2,2.5-0.4c4.5,3.1,10.5,1.7,13.3-3
		C184.8,334.5,185.4,330.9,185.1,327.1z M179.8,334.7c-1.1,2.5-3,4-5.7,3.9c-2.8-0.1-4.9-1.6-5.8-4.3c-1.3-3.8-0.9-7.5,0.7-11.1
		c1.1-2.5,3.3-3.2,5.9-3c2.5,0.1,4.3,1.3,5.2,3.7c0.7,1.8,0.9,3.6,0.8,5.5C180.9,331.2,180.6,333,179.8,334.7z"/>
	<path class="st1" d="M129.2,330.8c2.1-0.1,4.1,0,6.2,0c1.5,0,3.1,0,4.6,0c4.4,0,4.4-0.1,3.8-4.3c-0.2-1.1-0.4-2.2-0.8-3.3
		c-1.4-4-4.1-6.7-8.5-7c-4.5-0.3-8.5,1.1-10.8,5.2c-2.7,4.8-3,10-0.6,15.1c1.9,4,5.4,5.8,9.7,5.9c4.3,0,7.8-1.5,9.9-5.5
		c0.4-0.8,1.4-2,0.3-2.7c-1.1-0.7-2.6-0.7-3.6,0.6c-0.4,0.5-0.6,1.1-1,1.5c-1.8,2-4.1,2.7-6.7,2.1c-2.4-0.5-4.1-1.9-4.9-4.2
		C125.9,331.8,126.6,330.9,129.2,330.8z M126.9,324.3c1.2-2.7,3.2-4.1,6.3-4.1c2.7,0,4.7,1.2,5.8,3.7c0.9,2.1,0.4,3.4-2.1,3.3
		c-1.3,0-2.7,0-4,0c-1.3,0-2.7,0-4,0C126.7,327.2,126.1,326.3,126.9,324.3z"/>
	<path class="st1" d="M346.7,316.5c-6-1.4-11.6,1.7-13.4,7.5c-1.1,3.5-1.2,7.1-0.2,10.6c1.3,4.6,4.8,7.4,9.6,7.8
		c4.8,0.4,9-1.8,10.8-5.6c0.4-0.8,1.3-2,0-2.7c-1.1-0.5-2.4-0.6-3.3,0.6c-0.4,0.5-0.6,1.1-1,1.5c-1.8,1.9-4,2.8-6.7,2.2
		c-2.5-0.5-4.2-2-5-4.4c-0.7-2.1-0.4-3.4,2.2-3.3c2.1,0.1,4.1,0,6.2,0c0,0,0,0,0,0c2.3,0,4.5,0,6.8,0c1.3,0,2.1-0.3,2.3-1.9
		C355.3,323.6,351.5,317.6,346.7,316.5z M348.1,327.2c-1.5,0-3.1,0-4.6,0c0,0,0,0,0,0c-1.1,0-2.2,0-3.4,0c-1-0.1-2.2,0.4-2.8-0.7
		c-0.6-1.1,0.1-2.2,0.7-3.1c1.6-2.5,3.9-3.5,6.8-3.2c2.7,0.3,4.2,1.8,5.1,4.2C350.5,326.2,350.2,327.3,348.1,327.2z"/>
	<path class="st1" d="M92.1,338.9c-2.1-0.5-1.9-2.1-1.9-3.6c0-1.8,0-3.7,0-5.5c0-2,0-3.9,0-5.9c-0.1-4.1-1.9-6.2-5.8-7.2
		c-2.7-0.7-5.3-0.5-7.9,0.2c-2.3,0.6-4.1,1.9-5,4.2c-0.4,1.1-1.3,2.5,0.2,3.3c1.4,0.7,2.6,0.3,3.5-1.4c1.6-3.2,6-4.1,9-2.2
		c1.4,0.9,1.9,2.1,1.7,3.7c-0.2,1.7-1.3,2.1-2.8,2.3c-2.6,0.4-5.3,0.6-7.9,1.2c-3.9,1-5.8,4-5.4,8.1c0.3,3.5,2.7,5.8,6.5,6.3
		c2.8,0.4,5.4-0.3,7.6-1.9c1.3-0.9,2.1-1.6,3.3,0.3c1,1.6,2.9,1.3,4.5,1.1c0.7-0.1,1.1-0.5,1.2-1.2C93,339.9,92.9,339.1,92.1,338.9z
		 M85.8,332.3c-0.1,3.7-3.2,6.6-7.9,6.5c-1.8-0.1-3.6-0.8-3.9-3.4c-0.3-2.5,1.1-3.8,3.4-4.3c1.9-0.4,3.9-0.5,5.7-1
		C85.3,329.5,85.9,330.2,85.8,332.3z"/>
	<g>
		<path class="st2" d="M448.1,319.7c2.5-2.5,5-3.7,8.1-3.6c4.7,0.3,7.7,3,7.9,7.8c0.2,5.2,0,10.5,0.1,15.7c0,1.5-0.4,2.2-2.1,2.2
			c-1.8,0-2.3-0.7-2.3-2.4c0.1-4.4,0.1-8.8,0-13.2c0-4.1-1.2-5.7-4.2-6.1c-3.5-0.4-6.2,1.5-7,5.1c-1,4.6-0.3,9.2-0.5,13.8
			c0,1.5,0.1,2.8-2.1,2.8c-2.2,0-2.2-1.2-2.2-2.8c0-6.5,0-12.9,0-19.4c0-1.2-0.5-2.8,1.7-2.9C447.3,316.6,448.2,317.3,448.1,319.7z"
			/>
		<path class="st2" d="M394.5,319.8c2.9-3,5.9-4.1,9.5-3.4c4,0.8,6.3,3.3,6.4,7.5c0.1,5.2,0,10.5,0,15.7c0,1.8-0.6,2.3-2.3,2.3
			c-1.7,0-2-0.8-2-2.3c0.1-4.4,0-8.8,0-13.2c0-4.2-1.3-5.9-4.4-6.2c-3.4-0.3-6.1,1.7-6.8,5.3c-0.8,4.6-0.2,9.2-0.3,13.8
			c0,1.7-0.4,2.7-2.4,2.6c-1.5-0.1-2-0.7-2-2.1c0-7,0-14,0-20.9c0-1.1,0.2-1.9,1.6-2.1C393.8,316.5,394.5,317.5,394.5,319.8z"/>
		<path class="st2" d="M418.6,325c0-4.8,0-9.6,0-14.5c0-1.6,0.1-2.7,2.2-2.8c2.2,0,2.2,1.2,2.2,2.8c0,9.5,0,19.1,0,28.6
			c0,1.6-0.1,2.8-2.2,2.7c-2.2,0-2.2-1.2-2.2-2.8C418.7,334.4,418.6,329.7,418.6,325C418.6,325,418.6,325,418.6,325z"/>
		<path class="st2" d="M435.6,329.3c0,3.5-0.1,7,0,10.4c0,1.6-0.5,2.2-2.1,2.2c-1.5,0-2.3-0.4-2.3-2.1c0.1-7.1,0-14.1,0-21.2
			c0-1.6,0.8-1.9,2.1-1.9c1.5,0,2.3,0.3,2.3,2C435.6,322.3,435.6,325.8,435.6,329.3C435.6,329.3,435.6,329.3,435.6,329.3z"/>
		<path class="st2" d="M433.3,307.9c2.1-0.4,2.3,0.7,2.4,2.3c0,1.6-0.4,2.4-2.2,2.4c-1.8,0-2.2-0.8-2.2-2.4
			C431.3,308.6,431.5,307.4,433.3,307.9z"/>
		<path class="st2" d="M477.9,330.7c2.1,0.1,4.3,0,6.5,0c1.1,0,2.3,0,3.4,0c6.6,0,7-0.5,5.1-6.9c-1.4-4.7-4.5-7.4-8.9-7.7
			c-5.2-0.3-9.4,1.9-11.3,6.3c-1.9,4.3-2.2,8.8-0.5,13.2c1.7,4.4,5.1,6.5,9.7,6.8c5,0.2,8.8-1.9,10.6-5.9c0.3-0.8,1.3-1.9,0.2-2.4
			c-1.1-0.6-2.6-0.8-3.7,0.4c-0.4,0.4-0.6,1.1-1,1.6c-1.9,2.3-4.3,3-7.2,2.4c-2.8-0.6-4.1-2.5-4.8-5
			C475.4,331.7,475.7,330.6,477.9,330.7z M475.9,325.4c0.5-2.7,3.5-5.2,6.4-5.3c3.2-0.1,5.6,1.6,6.4,4.6c0.4,1.6,0.3,2.6-1.7,2.4
			c-1.5-0.1-3.1,0-4.6,0c0,0,0,0,0,0c-1.7,0-3.5,0-5.2,0C475.9,327.2,475.7,326.5,475.9,325.4z"/>
		<path class="st2" d="M381.8,322.1c-1.4-2.9-3.7-4.8-7-5.6c-8-1.9-14.4,3.7-14.5,13.3c0.1,0.6,0.2,1.9,0.5,3.2
			c1.3,5.8,5.4,9.3,11,9.3c5.3,0.1,9.6-3.3,11-9C383.9,329.6,383.6,325.7,381.8,322.1z M379,329.2c0,1.8-0.2,3.3-0.8,4.8
			c-1.2,3.1-3.6,4.8-6.5,4.7c-3.1-0.2-5-2-6-4.9c-1.1-3.1-1.1-6.2,0.1-9.3c1.1-2.9,3.2-4.5,6.3-4.5c3.1,0,5.1,1.8,6.2,4.7
			C378.7,326.2,379.1,327.8,379,329.2z"/>
	</g>
	<path class="st1" d="M208.2,317.8c-6.3-4-14.2-0.9-16.6,6.4c-2.2,6.6,0.2,14.1,5.4,16.8c8.3,4.3,16.7-1.7,16.7-12.9
		C213.5,324.6,212.4,320.5,208.2,317.8z M202.1,338.7c-4.2-0.1-7.1-4.1-7.1-9.6c0.1-5.4,3-9.2,7.1-9.2c4.3,0,7.1,3.7,7.1,9.4
		C209.3,335,206.4,338.8,202.1,338.7z"/>
</g>
</svg>
