<?xml version="1.0" encoding="utf-8"?>
<!-- Generator: Adobe Illustrator 26.3.1, SVG Export Plug-In . SVG Version: 6.00 Build 0)  -->
<svg version="1.1" id="Layer_1" xmlns="http://www.w3.org/2000/svg" xmlns:xlink="http://www.w3.org/1999/xlink" x="0px" y="0px"
	 viewBox="0 0 595.3 595.3" style="enable-background:new 0 0 595.3 595.3;" xml:space="preserve">
<style type="text/css">
	.st0{fill:#FFFFFF;}
	.st1{fill:url(#SVGID_1_);}
</style>
<path class="st0" d="M297.6,595.3L297.6,595.3C133.3,595.3,0,462,0,297.6l0,0C0,133.3,133.3,0,297.6,0l0,0
	C462,0,595.3,133.3,595.3,297.6l0,0C595.3,462,462,595.3,297.6,595.3z"/>
<path class="st0" d="M584.9,375.9c0.5-2,1.1-4,1.6-6L584.9,375.9z"/>
<polygon class="st0" points="586.4,369.9 586.4,369.9 586.4,369.9 "/>
<linearGradient id="SVGID_1_" gradientUnits="userSpaceOnUse" x1="297.65" y1="507.6592" x2="297.65" y2="87.3427" gradientTransform="matrix(1 0 0 -1 0 595.2756)">
	<stop  offset="0" style="stop-color:#63A1D4"/>
	<stop  offset="1" style="stop-color:#050708"/>
</linearGradient>
<path class="st1" d="M210.1,260.3c-45.5,2.8-85.7,15.6-125.1,31.6c0-5,0-9.6,0-14.6c3.2-8.9,10-11.7,18.8-13.5
	c29.5-5.7,59-11.4,89.2-10C197.7,253.9,203.4,253.2,210.1,260.3z M334.2,198.4c0.4,3.9-1.4,9.2,5.3,10.7c3.6-5.7,3.2-12.1,3.2-18.5
	c0.4-28.1-4.6-55.4-10-83.2c-1.8-10-5.3-17.8-16-20.3c-3.2,0-6.4,0-9.6,0c-0.7,2.8-1.8,5,0,8.5C321.4,128.8,332,162.5,334.2,198.4z
	 M315.7,189.2c1.4,4.6,0,13.5,5.7,12.4c6-1.1,2.5-9.6,1.8-14.6c-5.3-34.8-18.1-67.5-33.1-99.5c-3.9,0-8.2,0-12.1,0
	c-5.7,3.2-8.2,5.7-3.6,13.2C291.9,128.4,306.8,157.6,315.7,189.2z M194.8,279.1c2.8-0.7,6.8-1.1,6.4-7.1
	c-41.9,1.8-79.3,17.1-116.2,34.1c0,3.2,0,6.4,0,9.6c2.5,11,7.8,8.9,15.6,4.3C129.8,301.9,160.4,286.6,194.8,279.1z M504.8,307.5
	c-35.9,13.9-72.2,27-111.2,28.1c-2.8,0-6,0.7-5.7,4.3c0.4,3.2,3.6,2.1,5.7,2.5c32.7,3.9,64.7-2.1,96.3-8.9
	c18.5-3.9,19.5-5.7,18.5-26.3C506.9,307.2,505.8,306.8,504.8,307.5z M99.9,251c3.6-0.4,7.1-1.1,10.7-1.4c32-5.7,64.3-8.9,97-4.3
	c3.2,0.4,7.1,1.4,8.2-2.5c1.4-5-3.9-4.3-6.4-5c-29.5-8.9-60.1-10-90.6-10c-16.7,0-18.1,2.8-23.8,22.7C97.1,251,98.5,251.4,99.9,251z
	 M350.9,210.5c-0.4,2.8-1.1,6.4,2.5,7.1c5,1.4,3.9-3.6,5-6c8.5-28.4,10-57.9,9.6-87.4c-0.4-19.5-1.8-21.3-22.7-25.9
	c-2.1,2.8,0,5.3,0.4,7.8C351.6,140.9,356.2,175.3,350.9,210.5z M496.6,276.3c-30.6,17.4-61.5,34.1-96.7,41.9
	c-2.8,0.7-6.4,0.7-5.7,4.6c0.7,4.6,5.3,1.8,7.8,2.5c20.6-0.4,87.4-21,103.4-31.6c8.9-5.7,3.2-13.5,1.1-19.2
	C504,268.8,499.4,274.9,496.6,276.3z M378.6,353.4c5,6.4,9.2,7.1,13.5,8.2c26.3,6,53.3,7.8,80.3,7.5c20.3-0.4,22.7-2.1,26.7-24.5
	C460,353.8,420.5,355.2,378.6,353.4z M367.2,229.7c3.9,1.8,4.3-2.5,5.3-4.6c12.4-23.5,19.9-48.7,26.3-74.3c5-21.3,4.6-22-16.7-33.1
	c-1.4,36.3-4.3,71.1-16,104.8C365.1,225.1,364,228.3,367.2,229.7z M223.6,224c-23.5-12.4-49-20.3-74.6-26.3
	c-22-5.3-22-5.3-34.1,16.7c37,1.8,72.5,3.9,106.3,16.3c2.5,0.7,5,1.4,6.4-1.1C230,225.4,225.8,225.1,223.6,224z M366.5,368.3
	c-1.8,3.9,2.5,4.3,4.6,5.3c28.1,14.9,58.3,22.4,88.9,29.1c3.9,0.7,6,0,8.2-2.8c3.9-5,7.5-10,12.4-16.3c-37-5-73.2-2.5-106.6-17.1
	C371.5,365.5,367.9,365.1,366.5,368.3z M485.6,249.3c-25.2,19.9-51.5,38-81.4,50.8c-3.2,1.4-10,1.4-7.5,6.8c1.4,3.9,6.4,0.7,9.6,0
	c32.7-8.9,61.5-25.9,89.9-44.1c2.1-1.4,5.3-2.1,5-6c-2.1-4.3-2.8-9.6-7.1-12.1C490.5,242.5,488.1,247.1,485.6,249.3z M198,291.6
	c-0.4-2.8-2.8-2.1-5.3-2.1c-2.1,0.7-5,1.4-7.5,2.1c-17.8,4.3-33.8,13.5-50.1,21.3c-13.2,6.4-25.6,14.6-38.4,22.4
	c-8.5,5.3-0.4,10.3,1.1,15.3c1.4,4.3,4.3,3.6,7.5,1.1c27.4-22.4,56.2-42.7,89.2-55.8C196.3,295.1,198.4,294,198,291.6z M246.4,110.3
	c14.2,17.8,28.1,35.9,39.1,55.8c5.3,9.6,9.6,20.3,14.6,30.2c1.1,2.1,2.1,4.6,5.3,3.6c1.1-0.4,1.4-2.5,1.8-3.2
	c-0.4-1.8-0.7-3.2-1.1-4.3c-9.2-33.8-26.7-64-45.8-93.1c-5.3-8.2-11-0.4-15.3,1.8C238.2,104.2,244.6,107.8,246.4,110.3z
	 M216.2,353.4c-3.6-2.1-4.6,1.8-6.4,3.9c-18.5,22.4-32,48-44.4,73.9c-2.5,5,7.8,21.3,13.2,21.3c3.6-0.4,2.8-3.2,3.6-5.3
	c3.9-8.5,4.3-18.1,7.8-27.4c8.2-19.9,14.6-40.5,26.3-59C217.9,358.4,219,355.2,216.2,353.4z M152.5,185.3
	c28.1,7.8,55.8,17.4,81.4,32.3c2.8,1.8,6,3.9,8.2,0c1.8-3.6-2.5-4.3-4.3-6c-22.4-17.8-47.6-30.9-73.2-43.4c-1.4-0.7-2.8-1.1-4.3-1.8
	c-4.6,0.4-7.1,3.6-10,6.4c-2.5,2.5-7.1,4.3-6.4,7.8C144,184.9,149.3,184.6,152.5,185.3z M378.2,242.5c3.9,2.8,5.7-1.8,7.1-3.9
	c18.1-22,31.3-47.3,43.7-72.9c0.4-1.1,0.7-2.1,1.8-4.3c-2.1-6.4-7.5-12.8-13.5-14.9c-6.4-2.1-5,6.4-6,10
	c-8.2,26.7-17.1,53.3-31.6,77.5C378.2,236.8,374.7,240,378.2,242.5z M443.3,412c-28.4-7.8-56.5-17.8-82.8-31.3
	c-1.4-0.7-3.2-4.3-5.7-0.7c-3.6,4.6,1.4,5.7,3.2,7.1c22.7,17.4,48,30.9,73.6,43c4.6,2.1,20.3-8.2,20.3-13.5
	C450.4,412.4,446.1,412.8,443.3,412z M396,290.1c2.5,3.9,6.8,0,9.6-1.4c28.8-12.8,53.7-31.3,77.8-51.5c1.8-1.4,3.9-2.8,4.3-6
	c-2.1-3.2-4.3-7.5-7.5-10c-4.3-3.6-6,2.1-8.2,4.3c-21.3,21.7-44.1,41.9-70.4,57.6C398.8,284.8,393.2,285.9,396,290.1z M222.6,124.2
	c11.7,12.1,23.8,23.8,34.5,37c9.2,11.4,18.1,23.5,25.6,36.3c1.1,2.1,2.1,4.6,5.3,3.6c1.8-0.7,2.1-2.5,1.8-3.9c0-0.4,0-0.7-0.4-1.1
	c-13.5-31.3-33.1-58.3-55.8-83.5c-5.7-6-8.9,1.8-12.8,4.3C215.1,119.5,220.4,122,222.6,124.2z M386.4,258.1c3.6,3.6,6.4-1.4,8.5-3.2
	c18.5-16.3,34.1-34.8,48.7-54.4c11.4-14.9,11.4-14.9-3.2-27.7c-3.6,2.5-4.6,6.4-6.4,10c-13.2,23.5-26.3,46.6-44.4,66.8
	C387.8,251.7,382.8,254.2,386.4,258.1z M199.4,307.5c-3.6-3.6-7.1-0.7-10.3,0.7c-29.1,12.1-52.6,33.1-77.8,51.2
	c-8.5,6.4-1.1,10.3,1.8,14.6c4.6,7.5,7.1,0.4,9.6-2.1c22-22,44.4-43.7,72.2-59C197,312.2,199.4,311.1,199.4,307.5z M250.3,198.4
	c-15.3-17.1-33.1-31.3-51.5-45.1c-14.6-11-14.6-11-29.9,3.6c32,14.9,59.4,34.8,89.2,56.2C257.4,204.1,253.1,201.6,250.3,198.4z
	 M416.3,435.9c-24.5-13.9-49.4-27-70.7-46.2c-1.4-1.4-3.2-2.5-5-3.9c-1.4,1.1-3.2,1.8-3.9,2.8c-1.1,2.1,1.1,3.6,2.1,5
	c19.5,22.4,42.3,41.2,66.8,57.9c7.8,5.3,13.2-4.3,17.1-8.9C426.9,438,419.1,437.3,416.3,435.9z M208.7,342c-0.7-1.4-0.7-2.8-1.4-3.6
	c-2.1-1.8-3.6,0-5,1.4c-22.4,19.5-41.6,41.9-58.6,66.1c-5.3,7.8,3.2,12.8,7.8,16.3c5.7,4.6,6.4-3.2,8.2-6
	c13.2-23.5,26.3-47.3,44.4-67.5C205.8,346.6,207.3,344.2,208.7,342z M397.8,265.6c-2.5,2.1-7.8,3.9-5,8.2c2.8,3.9,6.4-0.4,9.2-2.1
	c24.5-15.6,45.1-35.5,65.4-56.2c1.4-1.4,2.5-2.8,4.3-5.3c-3.2-3.9-5.3-8.5-9.2-11c-4.3-3.2-6,2.5-7.8,5
	C437.2,226.2,419.5,247.8,397.8,265.6z M199.4,329.6c1.4-1.1,2.5-2.8,3.9-4.3c-0.7-1.4-1.1-3.2-1.8-3.6c-3.2-1.1-5.3,1.1-7.5,2.5
	c-23.8,17.1-46.9,35.2-66.8,56.9c-7.5,8.2,0,11.4,3.6,15.6c5.7,6.4,7.1-1.4,9.2-3.9C158.9,371.2,174.9,346.6,199.4,329.6z M203,143
	c22.4,17.1,43.7,35.2,61.8,56.9c1.8,2.1,3.6,6.8,7.1,3.9c3.2-2.5-0.4-6-1.8-8.5c-15.6-24.9-36.3-45.8-57.6-66.1
	c-1.4-1.4-3.2-2.1-5-3.9c-3.9,3.6-8.9,6-10.7,10C195.2,139.1,200.5,140.9,203,143z M393.9,455.8c-20.3-16-40.9-32-58.3-51.2
	c-2.5-2.8-5.7-6.8-10.3-7.1c-2.1,1.8-1.8,3.9-0.4,5.7c16,25.2,36.3,46.6,58.3,66.5c6.8,6,10.3-3.2,14.2-6.4
	C402,459.3,396,457.5,393.9,455.8z M289.7,441.9c-3.2-14.2-10.7-27-12.1-41.9c-0.4-2.8-1.4-6.4-4.6-6c-5,0.4-2.8,5-2.5,7.5
	c0.7,14.6,4.3,28.8,8.2,43c6.8,17.4,14.6,34.1,19.5,51.9c3.6,12.1,10.7,12.1,19.9,10.7c4.6-0.7,7.5-1.1,3.6-7.1
	C309.6,481.3,298.6,462.5,289.7,441.9z M198,441.5c-7.8,25.6-7.1,27,14.9,37c0-10,0-19.5,0-28.8c4.6-26.7,7.8-53.7,12.4-80.3
	C211.9,391.8,201.2,415.2,198,441.5z M318.9,449c-7.5-13.5-14.6-26.7-22.4-39.8c-1.1-1.8-1.4-5.3-4.6-4.3c-3.9,1.1-2.5,5-1.8,7.1
	c6,15.3,10,31.6,20.3,45.1c7.1,12.8,14.6,25.2,21.7,38c3.9,7.1,8.9,6.4,14.6,2.8c7.1-4.3,2.8-8.5-0.4-12.8
	C337,473.2,328.1,461.1,318.9,449z M260.6,396.4c0-3.6,0-8.2-4.6-8.2c-3.9,0-3.2,5-3.6,7.8c-1.4,18.5-0.4,37.3,2.1,55.8
	c5,12.1,5,24.9,7.8,37.3c4.6,19.5,5.7,20.6,26.7,17.8c-8.2-18.5-15.3-37.7-21-57.2C263.4,432.3,261.3,414.5,260.6,396.4z
	 M371.5,473.2c-7.8-8.2-15.6-16-23.5-24.2c-13.2-16.7-25.6-34.1-41.6-48.7c7.8,21.7,18.5,41.6,34.1,58.6c6.4,8.2,13.2,16,19.2,24.2
	c6.4,8.2,9.6-0.7,13.5-2.8C379.3,477.4,373.2,475.3,371.5,473.2z M243.9,384.7c0.7-2.5-0.7-5-3.2-5.7c-3.2-0.7-3.6,2.1-4.3,4.6
	c-5,17.8-9.2,35.9-8.5,54.7c-0.4,11.4-0.7,23.1-1.1,34.5c0,19.2,2.5,22,23.5,25.9c-5.7-21-8.5-41.9-9.6-63.3
	C242.8,418.8,240.3,401.7,243.9,384.7z"/>
</svg>
