<?xml version="1.0" encoding="utf-8"?>
<!-- Generator: Adobe Illustrator 26.3.1, SVG Export Plug-In . SVG Version: 6.00 Build 0)  -->
<svg version="1.1" id="Layer_1" xmlns="http://www.w3.org/2000/svg" xmlns:xlink="http://www.w3.org/1999/xlink" x="0px" y="0px"
	 viewBox="0 0 595.3 595.3" style="enable-background:new 0 0 595.3 595.3;" xml:space="preserve">
<style type="text/css">
	.st0{fill:#FFFFFF;}
	.st1{fill:#FA7823;}
	.st2{fill:#005EB8;}
</style>
<path class="st0" d="M297.6,595.3L297.6,595.3C133.3,595.3,0,462,0,297.6l0,0C0,133.3,133.3,0,297.6,0l0,0
	C462,0,595.3,133.3,595.3,297.6l0,0C595.3,462,462,595.3,297.6,595.3z"/>
<path class="st0" d="M584.9,375.9c0.5-2,1.1-4,1.6-6L584.9,375.9z"/>
<polygon class="st0" points="586.4,369.9 586.4,369.9 586.4,369.9 "/>
<g>
	<path class="st1" d="M470.9,471.8c0-38.2,1.3-76.4-1.7-114.5c-1.7-20.6-8.8-37.3-34.4-44.9c26-8,33.1-26,33.6-46.6
		c0.8-36.1,1.3-72.2,0-108.3c-1.3-35.2-19.3-51.2-54.5-51.2c-26.9,0-53.3,0-80.1,0c-18.5,0-19.7,1.3-19.7,19.3
		c0,93.6,0,186.7,0,280.3c0,23.5,0,46.6,0,70.1c0,10.1,4.2,14.7,14.7,14.7c11.3-0.4,23.1,0,34.4,0c15.5,0,17.6-2.5,17.6-18
		c0-40.7,0-81.4,0-122.1c0-4.2-2.1-10.1,4.2-11.7c6.3-1.3,11.7,0.4,15.9,5.9c2.9,4.2,2.1,8.8,2.1,13.4c0,38.6,0.4,77.2,0,115.8
		c0,11.7,5,16.4,15.9,16.4c10.9,0,22.2,0,33.1,0C467.1,490.2,470.9,486.9,470.9,471.8z M403.3,175.6c0,30.6,0,61.3,0,91.5
		c0,3.8,0,7.6-0.4,11.3c-1.3,7.6-6.7,8.8-13,9.2c-8,0-7.1-5.5-7.1-10.5c0-18.5,0-37.3,0-55.8c0-18,0-36.5,0-54.5
		c0-5-1.3-10.9,6.7-10.9c6.7,0,13,1.7,13.8,10.1C403.3,168.4,403.3,172.2,403.3,175.6z"/>
	<path class="st2" d="M176.2,489c10.1-0.4,20.6,0,30.6,0c21,0,21.4-0.4,21.4-21.4c0-99,0-197.6,0-296.6c0-8.8,0.4-13.8,11.7-13.8
		c24.8,0.4,25.2-0.8,25.2-25.6c0-2.5,0-5,0-7.6c-0.4-16.4-3.4-19.3-19.3-19.3c-30.6,0-61.3,0-91.5,0s-30.2,0-30.2,30.2
		c0,21.8,0.8,23.5,23.1,22.7c12.2-0.4,14.7,4.2,14.7,15.1c-0.4,49.5-0.4,99.4-0.4,148.9c0,50.8,0,102,0,152.7
		C161.1,484.8,164.8,489.4,176.2,489z"/>
</g>
</svg>
