<?xml version="1.0" encoding="utf-8"?>
<!-- Generator: Adobe Illustrator 26.3.1, SVG Export Plug-In . SVG Version: 6.00 Build 0)  -->
<svg version="1.1" id="Layer_1" xmlns="http://www.w3.org/2000/svg" xmlns:xlink="http://www.w3.org/1999/xlink" x="0px" y="0px"
	 viewBox="0 0 595.3 595.3" style="enable-background:new 0 0 595.3 595.3;" xml:space="preserve">
<style type="text/css">
	.st0{fill:#FFFFFF;}
	.st1{fill:#41486A;}
</style>
<path class="st0" d="M297.6,595.3L297.6,595.3C133.3,595.3,0,462,0,297.6l0,0C0,133.3,133.3,0,297.6,0l0,0
	C462,0,595.3,133.3,595.3,297.6l0,0C595.3,462,462,595.3,297.6,595.3z"/>
<g>
	<path class="st1" d="M168.3,337.9c-11.4,11.1-16,11.3-23.4,1.3c-0.5,0.2-1.1,0.4-1.4,0.8c-10.5,11.7-24,9.1-29.4-5.6
		c-2.3-6.2-2.8-12.5-2.2-19c0.3-3.8-0.4-5.8-4.7-5.2c-5.1,0.7-8.3-2.2-10.6-7.2c-3.3,4.6-4,9.1-5.1,13.4c-1.8,7-3.2,14.1-3.5,21.3
		c-0.3,7.6-3.3,9.3-9.9,5.4c-2.4-1.4-4-2.7-6.8-0.3c-5.5,4.8-12,8.1-19.3,4.5c-7.8-3.8-10.8-11.1-11.4-19.3c-0.8-11.5,2-22.7,4-34
		c0.4-2.6,1.1-5.1,1.6-7.7c0.6-3.1,0.1-5.2-3.7-5.2c-3.7,0-6.5-1.6-6.9-5.4c-0.4-4.2,3.6-4.9,6.2-5c9.6-0.2,9.7-7.9,12.1-14
		c2.4-6.1,6.4-7.1,10.3-2.7c1.5,1.6,2.2,3.6,1.4,5.5c-2.8,6.5,0.6,7.1,5.8,6.6c4.2-0.4,7.3,1.7,9.8,4.9c2,2.6,1.6,4.6-1.8,5.2
		c-4.1,0.7-8.3,1.1-12.5,1.4c-4.5,0.3-6.7,2.4-7.6,6.9c-3,15-6.3,29.8-8.2,45c-0.9,7.2,2.3,9.8,9.1,7.3c10.9-4,16.2-11.6,16.6-23.2
		c0.2-8.4,0.7-16.8,1.2-25.2c0.2-3.6,1-7.2,5.8-6.8c4.4,0.4,7.1,2.8,6.6,7.6c-0.3,3.6-0.8,7.1-0.8,10.8c3.1-5.5,4.1-11.8,6-17.7
		c0.7-2.3,1.2-4.7,2.2-6.8c1.9-3.7,5.1-5.1,9.1-3.7c4,1.5,4.6,4.6,3.4,8.4c-1.6,5-3.2,9.9-4.6,15c-0.8,3-1.4,6.5,2.2,7.8
		c4,1.4,5.6-2.2,6.9-5.1c1.5-3.3,2.5-6.8,4-10.1c3.1-6.7,7.3-12.5,14.3-15.7c8.7-3.9,14.7,0,20.9,6.9c7.1,7.8,3.5,14.4,1.9,21.8
		c-1.9,8.8-4.2,17.6-3.8,26.7c0.2,3.5-0.1,7.8,4.7,8.6c5.1,0.9,7.1-2.9,8.3-7c1.4-4.8,2.5-9.8,1.9-14.8c-1.5-12.1,0.7-24,0.3-36.1
		c-0.1-3.6-0.3-7.9,5.3-7.5c4.9,0.4,7.8,3,7.1,8.4c-1.5,12.4-1.6,24.8-1.2,37.3c0.1,1.9,0.3,3.8,1.2,5.7c2.2-9.3,4.3-18.6,6.7-27.8
		c1.9-7.2,4.2-14.2,6.5-21.3c0.9-2.7,2-5.3,4-7.4c1.8-1.8,3.9-2.1,6-0.8c2.2,1.2,2.2,3.1,1.5,5.2c-0.4,1.1-0.8,2.3-1.2,3.4
		c-9.3,23.7-15.3,48.1-17.4,73.5c-0.2,2.8-0.8,5.3-4.1,5.7c-4.4,0.4-7.7-1.3-10.3-4.9C169.1,344.7,170.1,340.9,168.3,337.9z
		 M124.2,324.6c0,1.4-0.1,2.8,0,4.2c0.3,3.1-0.1,7.1,3.8,7.9c3.8,0.8,5.4-2.8,6.8-5.7c3.9-7.7,6.2-16,7.9-24.5
		c0.4-2.1,1.2-5-0.9-6.2c-4.6-2.7-2.6-5.7-1.4-9.1c1.3-3.6,3.7-8.9-0.6-10.7c-4.4-1.8-6.5,3.7-8,7.2
		C126.8,299.5,124.8,312,124.2,324.6z"/>
	<path class="st1" d="M297.8,295.3c5.7-5.7,10.1-10.3,14.7-14.7c4.1-3.9,8.6-7.2,14.3-8.6c2.2-0.6,4.6-0.7,5.8,1.7
		c1.2,2.3-0.6,3.8-2.1,5c-8.4,6.9-16.1,14.5-23.7,22.2c-3.2,3.2-3.3,5.9-0.5,9.3c8.7,10.8,17.3,21.7,24.9,33.2
		c1.8,2.7,5.6,5.8,0.7,9.1c-4.7,3.3-8.1,2.5-11.5-2.7c-6.4-9.7-13-19.3-20.2-28.5c-1-1.2-1.6-3.4-3.4-2.9c-2.2,0.6-1.4,3-1.5,4.7
		c-0.1,6.2,0,12.4-0.1,18.7c0,2.3,0.5,5.3-2.5,6.1c-3,0.8-6.7,0.3-8-2.6c-2-4.7-3.5-2.5-5.8-0.5c-1.6,1.4-3.6,2.6-5.6,3.4
		c-9.3,3.5-16.6-0.6-18-10.5c-0.9-6.4-0.2-12.8,0.7-19.2c1.6-11.7,3.9-23.4,6.6-34.9c1.7-7.2,3.6-8.5,9.1-7.3
		c6.4,1.4,5.5,5.7,4.3,10.3c-3.1,11.8-5.9,23.8-7.9,35.9c-0.7,4.2-0.8,8.4-0.6,12.6c0.1,2.1,0.5,4.1,2.8,4.9c2.2,0.8,4-0.4,5.5-1.7
		c4.1-3.8,6.4-8.8,7.1-14.3c1.8-13.9,3.1-27.9,4.9-41.8c1.5-11.7,3.3-23.4,5.1-35.1c0.6-3.8,1.5-7.2,6.8-6.2c4.7,0.9,7,3,6.1,8.3
		C302.9,263.9,300.6,278.7,297.8,295.3z"/>
	<path class="st1" d="M534.3,298.3c-6.2,14.4-9.2,28.6-11.2,43.1c-0.5,3.9-0.3,8.2-5.7,8.1c-5.1-0.1-6.7-4.3-6.8-8.4
		c-0.2-11.6-0.1-23.3,0-34.9c0-1.2,0-2.3-0.5-3.6c-4.1,10-7.2,20.2-8.8,30.9c-0.3,2-0.6,4-0.9,6c-0.4,2.9-1.1,5.8-4.5,6.3
		c-3.7,0.5-6.1-1.5-7.7-4.6c-2.1-4.2-2.9-8.9-2.7-13.5c0.8-16.6,2.2-33.2,6.7-49.4c0.9-3.3,1.4-7.8,6.6-6.7c5.3,1.1,5.4,5.1,4.5,9.4
		c-2.1,10-4.4,19.9-4.9,30.2c3.6-9.7,7.1-19.5,10.8-29.2c1.5-4,2.8-8.3,8.8-6.6c5.6,1.6,6.1,5.3,5.4,10.3
		c-1.1,9.1-1.8,18.3-1.9,27.7c3.2-9.5,6.3-19.1,9.7-28.5c1.5-4.1,3.4-8.2,5.2-12.2c1.4-3.2,3.4-5.4,7.5-4.3c4,1.2,7,3.2,6.9,7.9
		c0,6.5-1.9,12.7-3.2,19c-2.2,10.4-4.9,20.7-4.3,31.5c0.2,3.2-0.2,6.9,4,7.8c3.8,0.8,5-2.4,6.6-5c1-1.5,1.3-4.6,3.9-3.6
		c2.5,1,1.9,3.7,1.3,5.9c-1.5,5.3-4.5,9.4-9.5,11.9c-6.9,3.5-13.7,0.5-16.2-7.1c-3.4-10.1-1.1-20.3,0.5-30.3
		C534.2,304,535,301.7,534.3,298.3z"/>
	<path class="st1" d="M442.6,333.9c-1.3,1.9-2.2,3.4-3.2,4.8c-10.1,14.5-30.7,12.7-38.3-3.3c-7.5-16-2.3-45.8,10.4-58.3
		c4.8-4.8,10.7-6.4,17.2-3.9c6.2,2.4,8.5,7.5,8.9,13.8c0.3,5.2-1,10-3.9,14.3c-2.4,3.6-5.9,5-9.9,2.8c-3.9-2.2-3.2-5.5-1.5-8.9
		c1.4-2.7,2.6-5.5,2.7-8.5c0.1-1.9,0.8-4.4-1.8-5.1c-2.3-0.7-3.7,1.2-4.8,2.9c-3.7,5.7-5.3,12.1-6.7,18.6c-1.9,9.1-2.9,18.3-1,27.5
		c1.8,8.4,8.4,10.9,15.3,5.7c8.6-6.4,12-15.9,13.4-26.1c1.5-11.2,3.8-22.2,9.4-32.2c2.9-5.3,5.7-11.2,13.7-7.3
		c1.2,0.6,3.1-0.4,4.7-0.4c6.9-0.1,12.2,4.5,14.3,12.3c2.9,10.6,1.3,21.1-0.5,31.6c-1.2,7.1-3.2,14.1-6.7,20.5
		c-7.8,14.3-20.3,15-29.7,1.7C444,335.8,443.4,335,442.6,333.9z M473.3,291.5c0-2,0.1-4,0-6c-0.2-2.6,0-5.7-3.2-6.4
		c-3.3-0.8-5.2,1.6-6.7,4.1c-3.5,5.9-5.9,12.3-7.6,18.9c-0.5,1.9-0.6,4.7-1.9,5.6c-6,3.9-4.6,9.7-4.4,15.1c0.2,5,0.4,11.2,6.3,12.3
		c6.3,1.2,8.7-4.8,10.7-9.6C470.9,314.7,472.7,303.2,473.3,291.5z"/>
	<path class="st1" d="M209,316.4c-2.4,6.4-2.4,13-1.4,19.6c0.9,6.3,7,9,12.9,5.5c9.8-5.8,15-15,16.4-26.1c2.7-22.1,5.4-44.2,9.7-66
		c0.7-3.4,0-8.4,5.8-8.1c4.8,0.3,7.5,4.4,6.5,10.3c-3.4,20-6.6,40-8.7,60.1c-1.1,10.6-1.7,21.2-2.8,31.7c-0.6,5.8-3.1,7.1-7.8,3.6
		c-3.8-2.7-5.4-1.7-8.1,1.4c-7.5,8.5-19.3,8.2-27-0.3c-6.2-6.9-7.7-15.3-7-24.2c1.1-15.4,4.5-30.1,11.7-43.9
		c4.2-8,9.3-11.7,14.4-10.6c5.7,1.2,9,7.2,9.2,16.5c0.2,7.9-0.5,15.6-3.5,23C224.9,319.6,219,321.8,209,316.4z M221.2,278.8
		c-5.7,8.4-8,17.9-10,27.4c-0.4,1.7,0,3.3,1.8,4c1.9,0.7,3.2-0.6,3.9-2C221.7,298.9,223,289.1,221.2,278.8z"/>
	<path class="st1" d="M327.3,314.6c0.2-13.5,3.8-26.2,10.6-37.8c2.6-4.4,5.6-8.9,11.9-5.1c0.3,0.2,0.8,0.2,1.2,0.2
		c14.5,1,17.8,3.6,19.4,17.8c1.8,16.1-0.9,31.6-8.2,46.2c-3.2,6.4-8,11.5-15.8,11.2c-8-0.3-12.5-5.8-15.5-12.5
		C328.1,328.3,327.3,321.5,327.3,314.6z M361.2,293.7c0-3.3,0.1-5.1,0-6.9c-0.1-2.6,0.1-5.6-3-6.6c-3.3-1.1-5.2,1.3-6.8,3.7
		c-3.2,4.7-4.9,10.1-6.7,15.4c-1.1,3.2-1,8.1-3.2,9.5c-6.1,3.9-4.3,9.3-4.2,14.3c0.1,5.3-0.1,12.2,6.7,13.1
		c6.4,0.9,8.8-5.5,10.7-10.5C358.9,315,360.9,303.8,361.2,293.7z"/>
	<path class="st1" d="M283.2,253.3c0,5.8-4.1,10.9-9,10.8c-5.4-0.1-6.4-4.2-6.6-8.3c-0.4-6.9,3.7-12.9,8.2-12.7
		C279.8,243.3,283.2,248.1,283.2,253.3z"/>
	<path class="st1" d="M389.3,334.7c0,5.4-4.2,10.4-8.9,10.2c-5.6-0.1-6.2-4.1-6.2-8.4c0-6.5,2.9-10.8,7.1-10.8
		C385.3,325.7,389.3,330.2,389.3,334.7z"/>
</g>
</svg>
