<?xml version="1.0" encoding="utf-8"?>
<!-- Generator: Adobe Illustrator 26.3.1, SVG Export Plug-In . SVG Version: 6.00 Build 0)  -->
<svg version="1.1" id="Layer_1" xmlns="http://www.w3.org/2000/svg" xmlns:xlink="http://www.w3.org/1999/xlink" x="0px" y="0px"
	 viewBox="0 0 595.3 595.3" style="enable-background:new 0 0 595.3 595.3;" xml:space="preserve">
<style type="text/css">
	.st0{fill:#FFFFFF;}
	.st1{fill:#7BAED4;}
	.st2{fill:#F58025;}
	.st3{fill:#003E74;}
</style>
<path class="st0" d="M297.6,595.3L297.6,595.3C133.3,595.3,0,462,0,297.6v0C0,133.3,133.3,0,297.6,0h0
	C462,0,595.3,133.3,595.3,297.6v0C595.3,462,462,595.3,297.6,595.3z"/>
<g>
	<path class="st1" d="M138.4,287.9c-4.7,0-8.3-1.5-11.9-2.8c-3-1-6-2.2-9.2-2.6c-2.7-0.4-3.2-0.1-2.8,2.6c0.9,6.1,1.2,12.3,3.2,18.3
		c0.4,1.2,0.6,2.5,0.8,3.8c0.2,1.3-0.3,1.6-1.6,1.5c-1.8-0.3-3.1-1.2-3.9-2.9c-1.4-3.2-2.7-6.5-3.7-9.9c-0.2-0.8-0.4-1.6-0.3-2.5
		c0.2-1.4-0.2-2.7-0.8-3.9c-0.6-1.3-1-1.3-1.9-0.2c-1.3,1.6-2.4,3.3-3.6,5c-2.6,3.7-5.8,6.6-10.3,7.6c-1.9,0.4-3.7-0.4-4.6-1.9
		c-0.3-0.4-0.3-0.8,0-1.2c0.6-0.7,0.6-1.5,0.1-2.3c-1.4-2.3-1.2-4.6,0.1-6.9c1.4-2.3,2.8-4.5,4-7c0.5-1.1,1.2-2.1,1.4-3.3
		c0.1-0.7,0-1.1-0.7-1.3c-1.4-0.6-2.9-1-4.3-1.3c-2-0.5-4-0.9-5.7-2.1c-2.6-1.8-4.2-4-3.8-7.3c0.2-1.4,0.2-2.9,0.6-4.3
		c0.7-2.4,2.4-3.1,4.7-1.9c1.1,0.6,2.3,0.9,3.6,0.9c1.2,0,2.4,0.3,3.6,0.6c2.6,0.6,5.2,1.2,7.8,1.5c1.7,0.2,2.2-0.3,1.9-2.1
		c-0.6-3.6-1.6-7.1-2.4-10.6c-0.6-2.5-1-5-1.4-7.6c-0.3-1.7,0.4-2.4,2-2.6c0.4-0.1,0.7,0.3,1,0.5c2.8,2,5.2,4.5,7.5,7
		c1.5,1.6,2.9,3.2,4.3,4.8c0.7,0.8,1.3,0.8,1.7-0.3c0.6-1.5,1.3-3,1.6-4.7c1-4.3,2.6-8.4,5.2-11.9c1.5-2,3.7-2.3,5.7-0.9
		c1,0.7,2.2,1,3,1.7c1.7,1.7,3.4,3.5,4.9,5.4c1.1,1.4,0.8,3.7-0.7,4.7c-2.6,1.7-4,4.3-5.5,6.8c-1.6,2.6-3.2,5.2-4.8,7.8
		c-0.3,0.5-0.6,1.1-0.9,1.7c-0.3,0.6-0.2,1.2,0.3,1.7c3,3.1,5.9,6.3,9.2,9c1.4,1.2,3,2.1,4.8,2.5c4.3,1.2,6.3,4.5,7.8,8.4
		c0.2,0.6,0,0.9-0.5,1.2C141.9,287.5,139.9,288,138.4,287.9z"/>
	<path class="st2" d="M81.1,313.1c0,0.6,0.1,1.2-0.1,1.7c-0.2,0.7-0.5,1.5-1.5,1c-0.6-0.3-0.8,0.2-1.1,0.5c-1.3,1.1-1.3,1.2-2.7,0.1
		c-1-0.8-2.1-1.2-3.3-1c-2,0.2-4,0-6,0.4c-0.3,0.1-0.7,0.1-1,0.2c-0.8,0.2-0.8,0.6-0.3,1.1c1,1,2.1,1.9,3.2,2.9c2.3,2,4.5,4,6.6,6.2
		c0.5,0.5,1,1,1.2,1.6c0.2,0.4,0.4,1.1-0.5,1c-0.5,0-0.5,0.3-0.6,0.6c-0.2,0.8-0.8,1.1-1.5,1.4c-0.4,0.2-1-0.1-1.2,0.8
		c-0.1,0.4-0.9,0.1-1.2-0.2c-0.7-0.6-1.5-1.2-2.1-1.9c-2.4-2.4-5.2-4.4-7.2-7.2c-0.5-0.7-1-0.8-1.3,0.2c-1.6,4.2-3.7,8.2-5,12.5
		c-0.1,0.3-0.1,0.6-0.5,0.7c-0.4,0.1-0.6-0.3-0.8-0.5c-1.8-1.8-1.1-3.9-1-6c0.2-3.9,1-7.7,1.3-11.6c0.1-1.1-0.2-1.6-1.5-1.8
		c-4.7-0.5-9.5-1.1-14.2-1.7c-0.8-0.1-1.6-0.3-2.4-0.7c-0.6-0.3-0.8-0.6-0.2-1.1c1.1-1,2-2.2,3.2-3c1-0.7,2-1.1,3.2-1.4
		c1.7-0.4,3.2-1,4.9-1.5c0.7-0.2,0.4-0.6,0.1-0.9c-1-1.2-2.1-2.4-3.1-3.6c-0.7-0.8-0.9-1.5-0.2-2.4c0.5-0.6,0.8-1.2,1-2
		c0.2-0.7,0.7-0.8,1.2-0.3c2.4,2.7,5.7,4.2,8.4,6.6c0.4,0.4,0.7,0.3,0.9-0.3c0.3-1.4,0.9-2.6,1.4-3.9c0.9-2.3,2.5-3.6,5-3.8
		c0.3,0,0.7,0,0.9-0.2c1.3-1.1,2.7-0.3,4.1-0.1c0.8,0.1,1.1,0.5,0.8,1.4c-1,2.7-1.1,5.6-2,8.4c-0.2,0.7,0.1,1.1,0.9,1.2
		c1.2,0.1,2.4-0.2,3.6-0.3c3.3-0.3,6.4-0.2,9.1,2.1C80.7,309.6,81.1,310.6,81.1,313.1z"/>
	<path class="st3" d="M114.9,333.9c-2.1,0.2-4.5,0.4-6.9,0.7c-0.4,0-0.9,0-1,0.4c-0.1,0.3,0.3,0.5,0.6,0.8c1.9,2,3.4,4.2,4.2,6.9
		c0,0.1,0,0.1,0.1,0.2c0.1,0.5,0.3,1,0,1.5c-0.6-0.4-1.4,0.2-1.9-0.5c-0.5-0.6-0.9-1.2-1.2-1.9c-0.7-1.7-2-2.8-3.4-3.9
		c-0.6-0.5-0.8,0-1,0.4c-0.9,2-1.8,3.9-2.7,5.9c-0.4,0.8-0.8,1.5-1.3,2.2c-0.6,0.9-1.5,0.9-2.4,0.4c-1.6-0.9-2.8-4.7-1.9-5.9
		c0.8-1,1.2-2.3,1.9-3.4c0.2-0.4,0.4-0.7,0.6-1.1c0.4-0.8,0.2-1-0.7-1.1c-2.7-0.3-5.4-0.3-8-1.3c-1.1-0.4-1.8-1-2.1-2.2
		c-0.2-0.7,0.1-1,0.6-1.1c0.3-0.1,0.6-0.1,0.9-0.1c2.3,0.1,4.4-0.9,6.5-1.6c0.9-0.3,1-0.8,0.4-1.4c-1.2-1.2-2.1-2.7-2.8-4.2
		c-0.2-0.5-0.6-1,0-1.5c0.5-0.4,1.1-0.2,1.6,0.1c1.9,1.1,3.5,2.7,4.9,4.4c1.9,2.3,1.6,1.9,2.5-0.4c0.8-1.8,1.3-3.7,2.3-5.4
		c1-1.8,4.1-3.3,6.1-2.8c0.5,0.1,1-0.1,1.5-0.1c1.5,0,2,0.7,1.6,2.2c-0.9,3-2.5,5.7-4.2,8.3c-0.5,0.8-0.5,1,0.5,1.2
		c2,0.4,4,0.7,6,0.9c0.6,0.1,1,0.3,1.3,0.8c0.1,0.3,0.3,0.5,0.4,0.8c0.9,1.5,0.6,2-1.2,2.1C116.1,334,115.7,333.9,114.9,333.9z"/>
	<g>
		<path class="st3" d="M559.6,304.8c-0.5,1.3-1.1,2.6-2.2,3.5c-2.6,2.1-6.3,1.5-8.1-1.3c-1.8-2.8-0.9-6.2,2-7.8
			c2.9-1.6,6.5-0.3,7.8,2.8c0.1,0.3,0.3,0.7,0.5,1C559.6,303.6,559.6,304.2,559.6,304.8z M554.1,299.6c-2.8,0-4.7,1.7-4.7,4.4
			c0,2.8,1.9,4.9,4.4,4.9c2.8,0,4.6-1.8,4.6-4.6C558.3,301.3,556.7,299.6,554.1,299.6z"/>
		<path class="st3" d="M242.4,338.3c-0.9,0.7-1.5,1.4-2.2,1.9c-5.6,4.4-11.9,5.7-18.8,3.6c-4.7-1.5-7.6-4.8-8.5-9.6
			c-0.8-4.8,0.6-9,4.5-12.1c3.5-2.9,7.6-4.4,11.9-5.6c3.9-1.2,7.8-2,11.8-2.7c0.8-0.1,1.1-0.5,1-1.3c-0.1-0.8,0-1.7-0.2-2.5
			c-0.4-2.9-2-4.8-4.8-5.6c-3.5-1-6.9-0.8-10.2,0.7c-2.4,1.1-4.1,2.8-5.3,5.1c-0.3,0.6-0.5,0.7-1.1,0.4c-2-0.9-4-1.8-6-2.6
			c-0.8-0.3-0.7-0.7-0.3-1.2c2-3.2,4.8-5.5,8.2-7.1c6.4-2.9,13-3.1,19.6-0.5c5.6,2.2,8.4,6.5,8.4,12.6c0,7,0,14.1,0,21.1
			c0,3.3,0.2,6.6,1,9.9c0.2,0.7,0,1-0.8,1c-2.2,0-4.5-0.1-6.7,0c-0.9,0-1.1-0.3-1.2-1.1C242.7,341.3,242.6,339.9,242.4,338.3z
			 M241.9,325.8c0-1.7,0-3.3,0-5c0-0.6-0.1-0.8-0.8-0.6c-4.1,0.8-8.2,1.7-12.1,3.3c-2.4,1-4.6,2.1-6.3,4.1c-1.4,1.6-2.1,3.4-1.6,5.5
			c0.7,3.2,4.3,5.6,7.8,5.2c5-0.6,9.1-3.1,12.6-6.6c0.4-0.4,0.4-0.8,0.4-1.2C241.9,328.9,241.9,327.4,241.9,325.8z"/>
		<path class="st3" d="M322.4,323c-4.8,0-9.5,0-14.3,0c-1,0-1.3,0.3-1.2,1.3c0.4,3.1,1.2,6.1,3,8.7c5.5,8.1,16.1,6.4,20.7,0.7
			c0.5-0.6,1-1.3,1.4-2c0.3-0.5,0.5-0.6,1-0.2c1.4,1.4,2.9,2.8,4.3,4.2c0.4,0.4,0.4,0.7,0.1,1.1c-1.1,1.5-2.3,2.9-3.6,4.2
			c-2.2,2-4.7,3.2-7.7,3.5c-4.2,0.4-8.4,0.6-12.5-0.6c-8.6-2.6-13.4-8.6-14.9-17.3c-1-6-0.5-11.9,2-17.5
			c3.9-8.5,11.9-12.3,20.9-11.2c11.2,1.4,15.7,9.8,16.2,18.1c0.1,1.9,0,3.8,0.1,5.7c0,1-0.2,1.3-1.3,1.3
			C332,323,327.2,323,322.4,323z M318.3,316.6c3.4,0,6.8,0,10.2,0c0.7,0,1.1-0.1,0.9-0.9c-0.1-0.9-0.1-1.8-0.3-2.7
			c-0.9-4-2.8-7.4-7-8.5c-4.3-1.1-8.2-0.4-11.4,2.9c-2.3,2.3-3.1,5.4-3.6,8.5c-0.1,0.8,0.4,0.8,0.9,0.8
			C311.4,316.6,314.8,316.6,318.3,316.6z"/>
		<path class="st3" d="M525.9,330.9c0.7-2.2,1.4-4.3,2.1-6.5c2.7-8.3,5.4-16.6,8-24.9c0.3-1,0.7-1.3,1.7-1.2c2.1,0.1,4.2,0.1,6.4,0
			c1.1,0,1.1,0.3,0.8,1.2c-3.8,11.2-7.6,22.4-11.4,33.6c-1.5,4.6-3.1,9.2-4.6,13.7c-1.5,4.4-3.8,8.3-7.8,11
			c-3.7,2.5-7.9,3.1-12.2,2.8c-1.1-0.1-2.2-0.3-3.3-0.3c-0.9,0-0.9-0.4-0.7-1.1c0.5-1.5,1-2.9,1.4-4.4c0.2-0.8,0.7-1,1.5-0.9
			c2,0.2,4,0.2,6-0.2c3.2-0.7,5.3-2.7,6.8-5.5c0.1-0.3,0.2-0.6,0.4-0.8c0.9-1.9,1.1-3.8,0.3-5.9c-5.1-13.8-10-27.6-15-41.4
			c-0.5-1.5-0.5-1.5,1-1.5c1.8,0,3.6,0,5.3,0c0.9,0,1.2,0.3,1.5,1.1c3.7,10.1,7.5,20.2,11.2,30.4c0.1,0.3,0.3,0.7,0.4,1
			C525.8,330.9,525.9,330.9,525.9,330.9z"/>
		<path class="st3" d="M363.7,321.3c0.1-5.1,1-10.1,3.8-14.5c3.6-5.6,8.8-8.6,15.4-9c11.9-0.7,19.5,7.1,21.3,17.8
			c0.9,5.4,0.7,10.7-1.2,15.9c-3.1,8.6-10.1,13.4-19.2,13.3c-8.8-0.1-15.7-5.2-18.6-13.8C364.2,327.8,363.8,324.6,363.7,321.3z
			 M372.2,320.9c0,4.2,0.5,8,2.3,11.5c2.1,3.9,5.3,6.1,9.8,6.1c4.6,0,7.9-2.2,9.7-6.2c3.3-7.3,3.2-14.8-0.1-22.2
			c-1-2.3-2.8-4.1-5.1-5.1c-4.6-2-11.6-1.3-14.8,5.9C372.6,314.2,372.1,317.7,372.2,320.9z"/>
		<path class="st3" d="M409.7,321.2c0-5.1,0.9-9.9,3.6-14.3c3.7-5.9,9-8.9,15.9-9.1c4.7-0.2,9.1,0.7,13,3.6c3,2.2,4.9,5.3,6.4,8.7
			c0.2,0.5,0,0.6-0.4,0.7c-2.2,0.7-4.5,1.3-6.7,2c-0.6,0.2-0.7-0.1-0.9-0.5c-0.3-1-0.8-2-1.4-3c-4-6.7-13.6-7-18-0.5
			c-1.7,2.4-2.4,5.1-2.8,7.9c-0.6,4.9-0.5,9.7,1.3,14.4c3.3,8.6,14.4,10.4,20.3,3.3c0.9-1.1,1.7-2.2,2.4-3.4
			c0.3-0.5,0.7-0.6,1.2-0.4c1.9,0.7,3.8,1.3,5.7,2c0.6,0.2,0.8,0.4,0.4,1c-3.5,5.4-7.9,9.7-14.6,10.8c-7.2,1.1-13.8,0.1-19.1-5.3
			c-3.6-3.7-5.3-8.3-6-13.4C409.8,324.2,409.7,322.7,409.7,321.2z"/>
		<path class="st3" d="M275.4,333.9c0.7-2.3,1.5-4.6,2.2-6.9c2.9-9.2,5.9-18.3,8.8-27.5c0.3-0.8,0.6-1.1,1.5-1.1
			c2.1,0.1,4.2,0,6.5,0c-0.6,1.8-1.1,3.6-1.6,5.3c-4.1,12.9-8.1,25.8-12.2,38.8c-0.3,0.9-0.7,1.3-1.7,1.3c-2.6-0.1-5.3-0.1-7.9,0
			c-0.7,0-1.1-0.2-1.4-0.9c-4.6-14.5-9.3-29-13.9-43.4c-0.3-0.9-0.1-1,0.7-1c2.2,0,4.3,0.1,6.5,0c0.9,0,1.2,0.3,1.4,1.1
			c3.5,11.1,7.1,22.3,10.7,33.4c0.1,0.3,0.2,0.6,0.3,1C275.2,333.9,275.3,333.9,275.4,333.9z"/>
		<path class="st3" d="M500.3,298.5c-0.5,2-1,3.8-1.5,5.7c-0.2,0.6-0.5,0.6-1,0.6c-2.4,0-4.8,0-7.2,0c-0.8,0-1.2,0.2-1.2,1.1
			c0,9.8,0,19.7,0,29.5c0,1.8,0.7,2.5,2.6,2.8c2.7,0.4,5.4,0.1,8.1-0.3c1.5-0.2,1.5-0.3,1.1,1.2c-0.3,1.4-0.7,2.7-1,4.1
			c-0.1,0.5-0.3,0.8-0.9,0.9c-3.9,0.9-7.8,1.1-11.7,0.4c-4.5-0.8-6.7-3.7-6.7-8.3c0-9.9,0-19.8,0-29.7c0-1.9,0.2-1.6-1.7-1.6
			c-1.5,0-3,0-4.4,0c-0.6,0-0.8-0.2-0.8-0.8c0-1.6,0-3.2,0-4.8c0-0.6,0.2-0.8,0.8-0.8c1.7,0,3.3,0,5,0c0.8,0,1.1-0.2,1.1-1.1
			c0-3.4,0-6.9,0-10.3c0-0.8,0.2-1.2,1-1.5c2.2-0.9,4.4-1.8,6.6-2.8c0.8-0.3,1-0.2,0.9,0.6c0,4.6,0,9.3,0,13.9
			c0,0.9,0.2,1.2,1.1,1.1C493.7,298.5,496.9,298.5,500.3,298.5z"/>
		<path class="st3" d="M164,282.8c0,0.4,0,0.8,0,1.2c0,4.4,0,8.8,0,13.2c0,1.5,0,1.5,1.5,1.5c2.8,0,5.7,0,8.5,0c0.8,0,1,0.2,0.7,1
			c-0.4,1.5-0.8,3-1.2,4.5c-0.1,0.7-0.5,0.8-1.1,0.8c-2.4,0-4.8,0-7.3,0c-0.8,0-1,0.2-1,1c0,9.9,0,19.8,0,29.7
			c0,1.5,0.5,2.2,2.1,2.5c2.7,0.6,5.4,0.3,8-0.1c2.1-0.3,2.1-0.4,1.6,1.7c-0.3,1.2-0.7,2.4-0.9,3.6c-0.1,0.4-0.3,0.6-0.7,0.7
			c-4.1,0.8-8.2,1.1-12.3,0.2c-4-0.9-6.2-3.7-6.3-7.9c0-10.1,0-20.1,0-30.2c0-1.1-0.3-1.4-1.3-1.3c-1.5,0.1-3.1,0-4.7,0
			c-0.7,0-0.9-0.2-0.9-0.9c0-1.5,0-3,0-4.5c0-0.6,0.2-0.9,0.8-0.8c1.7,0,3.3,0,5,0c0.8,0,1-0.2,1-1c0-3.5,0-7,0-10.5
			c0-0.7,0.2-1.1,0.9-1.3c2.2-0.9,4.3-1.8,6.5-2.7C163.2,282.9,163.5,282.7,164,282.8z"/>
		<path class="st3" d="M355.9,279.9c0,0.5,0,0.9,0,1.3c0,20.4,0,40.9,0,61.3c0,1.2-0.4,1.4-1.5,1.4c-2-0.1-4-0.1-6,0
			c-0.9,0-1.2-0.2-1.1-1.1c0-6.7,0-13.5,0-20.2c0-12.6,0-25.3,0-37.9c0-1,0.3-1.4,1.2-1.7C350.9,282,353.3,280.9,355.9,279.9z"/>
		<path class="st3" d="M193.6,305.9c0.7-0.9,1.3-1.7,1.8-2.4c3.2-3.9,7.4-5.7,12.4-5.7c0.6,0,1,0.1,1,0.9c0,1.8,0,3.6,0,5.4
			c0,0.5,0,0.9-0.7,0.9c-7.2,0.2-11,4.7-13.6,10.7c-0.7,1.7-1,3.5-1,5.4c0,7.2,0,14.4,0,21.5c0,0.9-0.2,1.3-1.2,1.2
			c-2.1-0.1-4.2-0.1-6.2,0c-0.8,0-1.1-0.2-1.1-1c0-1.7,0-3.3,0-5c0-12.6,0-25.2,0-37.9c0-1.5,0-1.5,1.5-1.5c2,0,4,0,6,0
			c0.7,0,1,0.2,1,0.9c0,2,0,3.9,0,5.9C193.4,305.5,193.5,305.6,193.6,305.9z"/>
		<path class="st3" d="M464.9,321.3c0,7.1,0,14.2,0,21.3c0,1.1-0.3,1.3-1.3,1.3c-1.9-0.1-3.9-0.1-5.8,0c-1,0-1.3-0.3-1.3-1.3
			c0-7.9,0-15.7,0-23.6c0-6.4,0-12.8,0-19.2c0-1,0.2-1.4,1.3-1.3c2,0.1,4,0.1,6,0c0.9,0,1.1,0.2,1.1,1.1
			C464.9,306.8,464.9,314.1,464.9,321.3z"/>
		<path class="st3" d="M464.9,287.6c0,1.2,0,2.3,0,3.5c0,0.6-0.2,0.8-0.8,0.8c-2.3,0-4.5,0-6.8,0c-0.7,0-0.9-0.2-0.9-0.9
			c0-2.2,0-4.5,0-6.7c0-0.6,0.2-0.9,0.9-0.8c2.3,0,4.5,0,6.8,0c0.6,0,0.8,0.2,0.8,0.8C464.9,285.4,464.9,286.5,464.9,287.6z"/>
		<path class="st3" d="M556.6,307c-0.7,0.2-1,0-1.3-0.4c-0.4-0.6-0.8-1.2-1.2-1.8c-0.2-0.4-0.6-0.5-1-0.4c-0.5,0.1-0.3,0.5-0.3,0.8
			c0,0.4,0,0.8,0,1.2c0,0.4-0.1,0.6-0.6,0.6c-0.4,0-0.5-0.2-0.5-0.6c0-1.7,0-3.4,0-5.1c0-0.5,0.2-0.7,0.7-0.6c0.8,0,1.6,0,2.4,0
			c0.9,0.1,1.5,0.5,1.7,1.4c0.2,0.9,0,1.6-0.9,1.9c-0.5,0.2-0.5,0.4-0.2,0.8C555.7,305.6,556.1,306.3,556.6,307z M553.6,301.6
			c-0.9-0.3-0.8,0.3-0.9,1.1c-0.1,1,0.4,1,1.2,1c0.7,0,1.6,0,1.6-1C555.4,301.7,554.6,301.6,553.6,301.6z"/>
	</g>
</g>
</svg>
