<?xml version="1.0" encoding="utf-8"?>
<!-- Generator: Adobe Illustrator 26.3.1, SVG Export Plug-In . SVG Version: 6.00 Build 0)  -->
<svg version="1.1" id="Layer_1" xmlns="http://www.w3.org/2000/svg" xmlns:xlink="http://www.w3.org/1999/xlink" x="0px" y="0px"
	 viewBox="0 0 595.3 595.3" style="enable-background:new 0 0 595.3 595.3;" xml:space="preserve">
<style type="text/css">
	.st0{fill:#FFFFFF;}
	.st1{fill:#D2AA55;}
</style>
<path class="st0" d="M297.6,595.3L297.6,595.3C133.3,595.3,0,462,0,297.6l0,0C0,133.3,133.3,0,297.6,0l0,0
	C462,0,595.3,133.3,595.3,297.6l0,0C595.3,462,462,595.3,297.6,595.3z"/>
<path class="st1" d="M490.6,180.1L490.6,180.1c-4.5,0.8-9,1.2-13.4,2c-72.1,14.7-144.2,29.3-216.2,44.4c-34.2,6.9-69.2,11-97.7,35.4
	c-15.9,13.8-22.8,32.2-31.8,49.7c0,0.4,1.2,1.2,1.6,1.6c10.6,1.2,20.4-1.2,30.1-5.3c14.7-5.7,29.7-11,44.8-16.3
	c46.8-17.5,94.1-33.4,140.5-52.1c31.8-12.6,63.9-25.7,96.1-37.9c13-5.7,26.1-11,39.5-15.5c0.4,0.4,0.4,0.4,1.2,0.8l0,0l0,0
	c-12.6,4.9-25.2,10.2-37.9,15.1l0,0l0,0c-94.9,40.7-189.8,81.4-284.2,122.2c-2.9,1.2-6.1,2-9.4,3.3l0,0l0,0
	c-7.7,3.7-15.1,7.3-22.8,10.2c-7.3,2.9-13,7.3-17.5,13.4c-7.3,9.8-14.7,19.5-22.4,28.5c-5.7,6.9-5.7,10.6,3.3,14.7
	c15.1,6.5,29.7,13.8,43.6,22c9,4.9,15.5,4.5,23.6-1.2c112-77,224-153.9,336.4-230.5l0,0l0,0c3.7-2,7.7-3.7,10.2-9
	C501.2,176.8,495.9,177.3,490.6,180.1z"/>
</svg>
