<?xml version="1.0" encoding="utf-8"?>
<!-- Generator: Adobe Illustrator 26.3.1, SVG Export Plug-In . SVG Version: 6.00 Build 0)  -->
<svg version="1.1" id="Layer_1" xmlns="http://www.w3.org/2000/svg" xmlns:xlink="http://www.w3.org/1999/xlink" x="0px" y="0px"
	 viewBox="0 0 595.3 595.3" style="enable-background:new 0 0 595.3 595.3;" xml:space="preserve">
<style type="text/css">
	.st0{fill:#FFFFFF;}
	.st1{fill:#7BAED4;}
	.st2{fill:#F58025;}
	.st3{fill:#003E74;}
</style>
<path class="st0" d="M297.6,595.3L297.6,595.3C133.3,595.3,0,462,0,297.6l0,0C0,133.3,133.3,0,297.6,0l0,0
	C462,0,595.3,133.3,595.3,297.6l0,0C595.3,462,462,595.3,297.6,595.3z"/>
<path class="st0" d="M584.9,375.9c0.5-2,1.1-4,1.6-6L584.9,375.9z"/>
<polygon class="st0" points="586.4,369.9 586.4,369.9 586.4,369.9 "/>
<g>
	<path class="st1" d="M479.3,285.7c-17.7,0-31.2-5.6-44.8-10.5c-11.3-3.8-22.6-8.3-34.6-9.8c-10.2-1.5-12-0.4-10.5,9.8
		c3.4,23,4.5,46.3,12,68.9c1.5,4.5,2.3,9.4,3,14.3s-1.1,6-6,5.6c-6.8-1.1-11.7-4.5-14.7-10.9c-5.3-12-10.2-24.5-13.9-37.3
		c-0.8-3-1.5-6-1.1-9.4c0.8-5.3-0.8-10.2-3-14.7c-2.3-4.9-3.8-4.9-7.2-0.8c-4.9,6-9,12.4-13.6,18.8c-9.8,13.9-21.8,24.8-38.8,28.6
		c-7.2,1.5-13.9-1.5-17.3-7.2c-1.1-1.5-1.1-3,0-4.5c2.3-2.6,2.3-5.6,0.4-8.7c-5.3-8.7-4.5-17.3,0.4-26c5.3-8.7,10.5-16.9,15.1-26.4
		c1.9-4.1,4.5-7.9,5.3-12.4c0.4-2.6,0-4.1-2.6-4.9c-5.3-2.3-10.9-3.8-16.2-4.9c-7.5-1.9-15.1-3.4-21.5-7.9
		c-9.8-6.8-15.8-15.1-14.3-27.5c0.8-5.3,0.8-10.9,2.3-16.2c2.6-9,9-11.7,17.7-7.2c4.1,2.3,8.7,3.4,13.6,3.4c4.5,0,9,1.1,13.6,2.3
		c9.8,2.3,19.6,4.5,29.4,5.6c6.4,0.8,8.3-1.1,7.2-7.9c-2.3-13.6-6-26.7-9-39.9c-2.3-9.4-3.8-18.8-5.3-28.6c-1.1-6.4,1.5-9,7.5-9.8
		c1.5-0.4,2.6,1.1,3.8,1.9c10.5,7.5,19.6,16.9,28.2,26.4c5.6,6,10.9,12,16.2,18.1c2.6,3,4.9,3,6.4-1.1c2.3-5.6,4.9-11.3,6-17.7
		c3.8-16.2,9.8-31.6,19.6-44.8c5.6-7.5,13.9-8.7,21.5-3.4c3.8,2.6,8.3,3.8,11.3,6.4c6.4,6.4,12.8,13.2,18.4,20.3
		c4.1,5.3,3,13.9-2.6,17.7c-9.8,6.4-15.1,16.2-20.7,25.6c-6,9.8-12,19.6-18.1,29.4c-1.1,1.9-2.3,4.1-3.4,6.4s-0.8,4.5,1.1,6.4
		c11.3,11.7,22.2,23.7,34.6,33.9c5.3,4.5,11.3,7.9,18.1,9.4c16.2,4.5,23.7,16.9,29.4,31.6c0.8,2.3,0,3.4-1.9,4.5
		C492.4,284.2,484.9,286,479.3,285.7z"/>
	<path class="st2" d="M263.6,380.5c0,2.3,0.4,4.5-0.4,6.4c-0.8,2.6-1.9,5.6-5.6,3.8c-2.3-1.1-3,0.8-4.1,1.9
		c-4.9,4.1-4.9,4.5-10.2,0.4c-3.8-3-7.9-4.5-12.4-3.8c-7.5,0.8-15.1,0-22.6,1.5c-1.1,0.4-2.6,0.4-3.8,0.8c-3,0.8-3,2.3-1.1,4.1
		c3.8,3.8,7.9,7.2,12,10.9c8.7,7.5,16.9,15.1,24.8,23.3c1.9,1.9,3.8,3.8,4.5,6c0.8,1.5,1.5,4.1-1.9,3.8c-1.9,0-1.9,1.1-2.3,2.3
		c-0.8,3-3,4.1-5.6,5.3c-1.5,0.8-3.8-0.4-4.5,3c-0.4,1.5-3.4,0.4-4.5-0.8c-2.6-2.3-5.6-4.5-7.9-7.2c-9-9-19.6-16.6-27.1-27.1
		c-1.9-2.6-3.8-3-4.9,0.8c-6,15.8-13.9,30.9-18.8,47.1c-0.4,1.1-0.4,2.3-1.9,2.6c-1.5,0.4-2.3-1.1-3-1.9c-6.8-6.8-4.1-14.7-3.8-22.6
		c0.8-14.7,3.8-29,4.9-43.7c0.4-4.1-0.8-6-5.6-6.8c-17.7-1.9-35.8-4.1-53.5-6.4c-3-0.4-6-1.1-9-2.6c-2.3-1.1-3-2.3-0.8-4.1
		c4.1-3.8,7.5-8.3,12-11.3c3.8-2.6,7.5-4.1,12-5.3c6.4-1.5,12-3.8,18.4-5.6c2.6-0.8,1.5-2.3,0.4-3.4c-3.8-4.5-7.9-9-11.7-13.6
		c-2.6-3-3.4-5.6-0.8-9c1.9-2.3,3-4.5,3.8-7.5c0.8-2.6,2.6-3,4.5-1.1c9,10.2,21.5,15.8,31.6,24.8c1.5,1.5,2.6,1.1,3.4-1.1
		c1.1-5.3,3.4-9.8,5.3-14.7c3.4-8.7,9.4-13.6,18.8-14.3c1.1,0,2.6,0,3.4-0.8c4.9-4.1,10.2-1.1,15.4-0.4c3,0.4,4.1,1.9,3,5.3
		c-3.8,10.2-4.1,21.1-7.5,31.6c-0.8,2.6,0.4,4.1,3.4,4.5c4.5,0.4,9-0.8,13.6-1.1c12.4-1.1,24.1-0.8,34.3,7.9
		C262.1,367.3,263.6,371.1,263.6,380.5z"/>
	<path class="st3" d="M390.8,458.8c-7.9,0.8-16.9,1.5-26,2.6c-1.5,0-3.4,0-3.8,1.5c-0.4,1.1,1.1,1.9,2.3,3
		c7.2,7.5,12.8,15.8,15.8,26c0,0.4,0,0.4,0.4,0.8c0.4,1.9,1.1,3.8,0,5.6c-2.3-1.5-5.3,0.8-7.2-1.9c-1.9-2.3-3.4-4.5-4.5-7.2
		c-2.6-6.4-7.5-10.5-12.8-14.7c-2.3-1.9-3,0-3.8,1.5c-3.4,7.5-6.8,14.7-10.2,22.2c-1.5,3-3,5.6-4.9,8.3c-2.3,3.4-5.6,3.4-9,1.5
		c-6-3.4-10.5-17.7-7.2-22.2c3-3.8,4.5-8.7,7.2-12.8c0.8-1.5,1.5-2.6,2.3-4.1c1.5-3,0.8-3.8-2.6-4.1c-10.2-1.1-20.3-1.1-30.1-4.9
		c-4.1-1.5-6.8-3.8-7.9-8.3c-0.8-2.6,0.4-3.8,2.3-4.1c1.1-0.4,2.3-0.4,3.4-0.4c8.7,0.4,16.6-3.4,24.5-6c3.4-1.1,3.8-3,1.5-5.3
		c-4.5-4.5-7.9-10.2-10.5-15.8c-0.8-1.9-2.3-3.8,0-5.6c1.9-1.5,4.1-0.8,6,0.4c7.2,4.1,13.2,10.2,18.4,16.6c7.2,8.7,6,7.2,9.4-1.5
		c3-6.8,4.9-13.9,8.7-20.3c3.8-6.8,15.4-12.4,23-10.5c1.9,0.4,3.8-0.4,5.6-0.4c5.6,0,7.5,2.6,6,8.3c-3.4,11.3-9.4,21.5-15.8,31.2
		c-1.9,3-1.9,3.8,1.9,4.5c7.5,1.5,15.1,2.6,22.6,3.4c2.3,0.4,3.8,1.1,4.9,3c0.4,1.1,1.1,1.9,1.5,3c3.4,5.6,2.3,7.5-4.5,7.9
		C395.3,459.2,393.8,458.8,390.8,458.8z"/>
</g>
</svg>
