<svg xmlns="http://www.w3.org/2000/svg" xml:space="preserve" id="Layer_1" x="0" y="0" style="enable-background:new 0 0 595.3 595.3" version="1.1" viewBox="0 0 595.3 595.3"><style>.st1{fill:#41486a}</style><path d="M297.6 595.3C133.3 595.3 0 462 0 297.6 0 133.3 133.3 0 297.6 0 462 0 595.3 133.3 595.3 297.6c0 164.4-133.3 297.7-297.7 297.7" style="fill:#fff"/><path d="M168.3 337.9c-11.4 11.1-16 11.3-23.4 1.3-.5.2-1.1.4-1.4.8-10.5 11.7-24 9.1-29.4-5.6-2.3-6.2-2.8-12.5-2.2-19 .3-3.8-.4-5.8-4.7-5.2-5.1.7-8.3-2.2-10.6-7.2-3.3 4.6-4 9.1-5.1 13.4-1.8 7-3.2 14.1-3.5 21.3-.3 7.6-3.3 9.3-9.9 5.4-2.4-1.4-4-2.7-6.8-.3-5.5 4.8-12 8.1-19.3 4.5-7.8-3.8-10.8-11.1-11.4-19.3-.8-11.5 2-22.7 4-34 .4-2.6 1.1-5.1 1.6-7.7.6-3.1.1-5.2-3.7-5.2-3.7 0-6.5-1.6-6.9-5.4-.4-4.2 3.6-4.9 6.2-5 9.6-.2 9.7-7.9 12.1-14 2.4-6.1 6.4-7.1 10.3-2.7 1.5 1.6 2.2 3.6 1.4 5.5-2.8 6.5.6 7.1 5.8 6.6 4.2-.4 7.3 1.7 9.8 4.9 2 2.6 1.6 4.6-1.8 5.2-4.1.7-8.3 1.1-12.5 1.4-4.5.3-6.7 2.4-7.6 6.9-3 15-6.3 29.8-8.2 45-.9 7.2 2.3 9.8 9.1 7.3 10.9-4 16.2-11.6 16.6-23.2.2-8.4.7-16.8 1.2-25.2.2-3.6 1-7.2 5.8-6.8 4.4.4 7.1 2.8 6.6 7.6-.3 3.6-.8 7.1-.8 10.8 3.1-5.5 4.1-11.8 6-17.7.7-2.3 1.2-4.7 2.2-6.8 1.9-3.7 5.1-5.1 9.1-3.7 4 1.5 4.6 4.6 3.4 8.4-1.6 5-3.2 9.9-4.6 15-.8 3-1.4 6.5 2.2 7.8 4 1.4 5.6-2.2 6.9-5.1 1.5-3.3 2.5-6.8 4-10.1 3.1-6.7 7.3-12.5 14.3-15.7 8.7-3.9 14.7 0 20.9 6.9 7.1 7.8 3.5 14.4 1.9 21.8-1.9 8.8-4.2 17.6-3.8 26.7.2 3.5-.1 7.8 4.7 8.6 5.1.9 7.1-2.9 8.3-7 1.4-4.8 2.5-9.8 1.9-14.8-1.5-12.1.7-24 .3-36.1-.1-3.6-.3-7.9 5.3-7.5 4.9.4 7.8 3 7.1 8.4-1.5 12.4-1.6 24.8-1.2 37.3.1 1.9.3 3.8 1.2 5.7 2.2-9.3 4.3-18.6 6.7-27.8 1.9-7.2 4.2-14.2 6.5-21.3.9-2.7 2-5.3 4-7.4 1.8-1.8 3.9-2.1 6-.8 2.2 1.2 2.2 3.1 1.5 5.2-.4 1.1-.8 2.3-1.2 3.4-9.3 23.7-15.3 48.1-17.4 73.5-.2 2.8-.8 5.3-4.1 5.7-4.4.4-7.7-1.3-10.3-4.9-2.3-3-1.3-6.8-3.1-9.8m-44.1-13.3c0 1.4-.1 2.8 0 4.2.3 3.1-.1 7.1 3.8 7.9 3.8.8 5.4-2.8 6.8-5.7 3.9-7.7 6.2-16 7.9-24.5.4-2.1 1.2-5-.9-6.2-4.6-2.7-2.6-5.7-1.4-9.1 1.3-3.6 3.7-8.9-.6-10.7-4.4-1.8-6.5 3.7-8 7.2-5 11.8-7 24.3-7.6 36.9M297.8 295.3c5.7-5.7 10.1-10.3 14.7-14.7 4.1-3.9 8.6-7.2 14.3-8.6 2.2-.6 4.6-.7 5.8 1.7 1.2 2.3-.6 3.8-2.1 5-8.4 6.9-16.1 14.5-23.7 22.2-3.2 3.2-3.3 5.9-.5 9.3 8.7 10.8 17.3 21.7 24.9 33.2 1.8 2.7 5.6 5.8.7 9.1-4.7 3.3-8.1 2.5-11.5-2.7-6.4-9.7-13-19.3-20.2-28.5-1-1.2-1.6-3.4-3.4-2.9-2.2.6-1.4 3-1.5 4.7-.1 6.2 0 12.4-.1 18.7 0 2.3.5 5.3-2.5 6.1-3 .8-6.7.3-8-2.6-2-4.7-3.5-2.5-5.8-.5-1.6 1.4-3.6 2.6-5.6 3.4-9.3 3.5-16.6-.6-18-10.5-.9-6.4-.2-12.8.7-19.2 1.6-11.7 3.9-23.4 6.6-34.9 1.7-7.2 3.6-8.5 9.1-7.3 6.4 1.4 5.5 5.7 4.3 10.3-3.1 11.8-5.9 23.8-7.9 35.9-.7 4.2-.8 8.4-.6 12.6.1 2.1.5 4.1 2.8 4.9 2.2.8 4-.4 5.5-1.7 4.1-3.8 6.4-8.8 7.1-14.3 1.8-13.9 3.1-27.9 4.9-41.8 1.5-11.7 3.3-23.4 5.1-35.1.6-3.8 1.5-7.2 6.8-6.2 4.7.9 7 3 6.1 8.3-2.9 14.7-5.2 29.5-8 46.1M534.3 298.3c-6.2 14.4-9.2 28.6-11.2 43.1-.5 3.9-.3 8.2-5.7 8.1-5.1-.1-6.7-4.3-6.8-8.4-.2-11.6-.1-23.3 0-34.9 0-1.2 0-2.3-.5-3.6-4.1 10-7.2 20.2-8.8 30.9l-.9 6c-.4 2.9-1.1 5.8-4.5 6.3-3.7.5-6.1-1.5-7.7-4.6-2.1-4.2-2.9-8.9-2.7-13.5.8-16.6 2.2-33.2 6.7-49.4.9-3.3 1.4-7.8 6.6-6.7 5.3 1.1 5.4 5.1 4.5 9.4-2.1 10-4.4 19.9-4.9 30.2 3.6-9.7 7.1-19.5 10.8-29.2 1.5-4 2.8-8.3 8.8-6.6 5.6 1.6 6.1 5.3 5.4 10.3-1.1 9.1-1.8 18.3-1.9 27.7 3.2-9.5 6.3-19.1 9.7-28.5 1.5-4.1 3.4-8.2 5.2-12.2 1.4-3.2 3.4-5.4 7.5-4.3 4 1.2 7 3.2 6.9 7.9 0 6.5-1.9 12.7-3.2 19-2.2 10.4-4.9 20.7-4.3 31.5.2 3.2-.2 6.9 4 7.8 3.8.8 5-2.4 6.6-5 1-1.5 1.3-4.6 3.9-3.6 2.5 1 1.9 3.7 1.3 5.9-1.5 5.3-4.5 9.4-9.5 11.9-6.9 3.5-13.7.5-16.2-7.1-3.4-10.1-1.1-20.3.5-30.3.3-2.4 1.1-4.7.4-8.1M442.6 333.9c-1.3 1.9-2.2 3.4-3.2 4.8-10.1 14.5-30.7 12.7-38.3-3.3-7.5-16-2.3-45.8 10.4-58.3 4.8-4.8 10.7-6.4 17.2-3.9 6.2 2.4 8.5 7.5 8.9 13.8.3 5.2-1 10-3.9 14.3-2.4 3.6-5.9 5-9.9 2.8-3.9-2.2-3.2-5.5-1.5-8.9 1.4-2.7 2.6-5.5 2.7-8.5.1-1.9.8-4.4-1.8-5.1-2.3-.7-3.7 1.2-4.8 2.9-3.7 5.7-5.3 12.1-6.7 18.6-1.9 9.1-2.9 18.3-1 27.5 1.8 8.4 8.4 10.9 15.3 5.7 8.6-6.4 12-15.9 13.4-26.1 1.5-11.2 3.8-22.2 9.4-32.2 2.9-5.3 5.7-11.2 13.7-7.3 1.2.6 3.1-.4 4.7-.4 6.9-.1 12.2 4.5 14.3 12.3 2.9 10.6 1.3 21.1-.5 31.6-1.2 7.1-3.2 14.1-6.7 20.5-7.8 14.3-20.3 15-29.7 1.7-.6-.6-1.2-1.4-2-2.5m30.7-42.4c0-2 .1-4 0-6-.2-2.6 0-5.7-3.2-6.4-3.3-.8-5.2 1.6-6.7 4.1-3.5 5.9-5.9 12.3-7.6 18.9-.5 1.9-.6 4.7-1.9 5.6-6 3.9-4.6 9.7-4.4 15.1.2 5 .4 11.2 6.3 12.3 6.3 1.2 8.7-4.8 10.7-9.6 4.4-10.8 6.2-22.3 6.8-34M209 316.4c-2.4 6.4-2.4 13-1.4 19.6.9 6.3 7 9 12.9 5.5 9.8-5.8 15-15 16.4-26.1 2.7-22.1 5.4-44.2 9.7-66 .7-3.4 0-8.4 5.8-8.1 4.8.3 7.5 4.4 6.5 10.3-3.4 20-6.6 40-8.7 60.1-1.1 10.6-1.7 21.2-2.8 31.7-.6 5.8-3.1 7.1-7.8 3.6-3.8-2.7-5.4-1.7-8.1 1.4-7.5 8.5-19.3 8.2-27-.3-6.2-6.9-7.7-15.3-7-24.2 1.1-15.4 4.5-30.1 11.7-43.9 4.2-8 9.3-11.7 14.4-10.6 5.7 1.2 9 7.2 9.2 16.5.2 7.9-.5 15.6-3.5 23-4.4 10.7-10.3 12.9-20.3 7.5m12.2-37.6c-5.7 8.4-8 17.9-10 27.4-.4 1.7 0 3.3 1.8 4 1.9.7 3.2-.6 3.9-2 4.8-9.3 6.1-19.1 4.3-29.4" class="st1"/><path d="M327.3 314.6c.2-13.5 3.8-26.2 10.6-37.8 2.6-4.4 5.6-8.9 11.9-5.1.3.2.8.2 1.2.2 14.5 1 17.8 3.6 19.4 17.8 1.8 16.1-.9 31.6-8.2 46.2-3.2 6.4-8 11.5-15.8 11.2-8-.3-12.5-5.8-15.5-12.5-2.8-6.3-3.6-13.1-3.6-20m33.9-20.9c0-3.3.1-5.1 0-6.9-.1-2.6.1-5.6-3-6.6-3.3-1.1-5.2 1.3-6.8 3.7-3.2 4.7-4.9 10.1-6.7 15.4-1.1 3.2-1 8.1-3.2 9.5-6.1 3.9-4.3 9.3-4.2 14.3.1 5.3-.1 12.2 6.7 13.1 6.4.9 8.8-5.5 10.7-10.5 4.2-10.7 6.2-21.9 6.5-32M283.2 253.3c0 5.8-4.1 10.9-9 10.8-5.4-.1-6.4-4.2-6.6-8.3-.4-6.9 3.7-12.9 8.2-12.7 4 .2 7.4 5 7.4 10.2M389.3 334.7c0 5.4-4.2 10.4-8.9 10.2-5.6-.1-6.2-4.1-6.2-8.4 0-6.5 2.9-10.8 7.1-10.8 4 0 8 4.5 8 9" class="st1"/></svg>