<?xml version="1.0" encoding="utf-8"?>
<!-- Generator: Adobe Illustrator 26.3.1, SVG Export Plug-In . SVG Version: 6.00 Build 0)  -->
<svg version="1.1" id="Layer_1" xmlns="http://www.w3.org/2000/svg" xmlns:xlink="http://www.w3.org/1999/xlink" x="0px" y="0px"
	 viewBox="0 0 595.3 595.3" style="enable-background:new 0 0 595.3 595.3;" xml:space="preserve">
<style type="text/css">
	.st0{fill:#FFFFFF;}
	.st1{fill:#444444;}
	.st2{fill:#169DC2;}
	.st3{fill:#1CA0E1;}
	.st4{fill:#0780A9;}
</style>
<path class="st0" d="M297.6,595.3L297.6,595.3C133.3,595.3,0,462,0,297.6v0C0,133.3,133.3,0,297.6,0h0
	C462,0,595.3,133.3,595.3,297.6v0C595.3,462,462,595.3,297.6,595.3z"/>
<g>
	<g>
		<path class="st1" d="M35.6,297.9c1-0.9,2.2-0.9,3.5-0.9c4.3,0,4.3,0,4.3-4.4c0-3,0-5.9,0-8.9c0-2.6,0.5-3.1,3-3.1c2,0,3.9,0,5.9,0
			c2-0.1,2.9,0.8,2.9,2.8c-0.1,3.6,0.1,7.2,0,10.8c-0.1,2,0.7,2.9,2.8,2.8c2.6-0.1,5.2,0,7.8,0c2.7,0,2.9,0.3,2.9,3
			c0,1.4,0,2.9,0.1,4.3c0.2,1.8-0.7,2.5-2.3,2.6c-3,0-6.1,0-9.1,0c-1.1,0-2.1,0.1-2.1,1.5c0,8.3-0.3,16.6,0.2,24.9
			c0.4,6.6,4.1,9.6,10.8,10c3.8,0.2,3.8,0.2,3.8,3.9c0,1.4,0,2.9,0,4.3c0,1.5-0.7,2.4-2.1,2.5c-8.8,0.6-20-2.1-23.4-13.3
			c-0.8-2.6-1.3-5.2-1.3-7.9c0-7.6,0-15.3,0-22.9c0-3-0.1-3-3-3.1c-1.6,0-3.2,0.2-4.4-1.3C35.6,303.1,35.6,300.5,35.6,297.9z"/>
		<path class="st1" d="M395.9,295.7c0,6.2,0,12.4,0,18.6c0,2.4,0.5,2.7,2.8,2.5c3.7-0.4,6.2-2.6,8.3-5.4c3.3-4.3,6.5-8.7,9.6-13.1
			c1.1-1.6,2.4-2.3,4.3-2.2c2.6,0.1,5.2,0,7.8,0c0.7,0,1.5-0.1,1.9,0.7c0.4,0.8-0.2,1.3-0.7,1.9c-4.8,6.4-9.7,12.7-14.5,19.1
			c0,0.1-0.1,0.1-0.1,0.2c-3.2,4.6-2.9,3.3-0.2,7.3c5.7,8.5,11.4,17,17.1,25.5c1.3,2,0.9,2.7-1.4,2.8c-2.9,0.1-5.8,0-8.7,0
			c-1.4,0-2.5-0.5-3.2-1.7c-4-6.3-8.1-12.6-12.1-18.9c-1-1.6-2-3.1-3.4-4.4c-1.8-1.7-4-1.8-6.3-1.5c-1.4,0.2-1.2,1.4-1.2,2.4
			c0,6.8,0,13.7,0,20.5c0,3.4-0.3,3.7-3.7,3.7c-2,0-4,0-6.1,0c-1.6,0-2.4-0.8-2.4-2.4c0-0.9,0-1.7,0-2.6c0-23.6,0-47.3,0-70.9
			c0-3.6,0.1-3.6,3.6-3.6c2,0,3.9,0.1,5.9,0c2-0.1,2.7,0.8,2.7,2.7C395.8,283,395.9,289.4,395.9,295.7z"/>
		<path class="st1" d="M374.2,324.9c0.3,17-13.7,30-31.1,30.1c-17.1,0.1-31-13.4-31-29.8c0-17.2,13.5-30.3,31.1-30.4
			C360.8,294.7,374.8,308.6,374.2,324.9z M343.7,305.2c-11-0.2-19.2,8.1-19.4,19.5c-0.1,10.7,8.2,19.9,18.6,19.7
			c11-0.2,19-7.3,19.2-19.5C362.2,313.7,355.1,306,343.7,305.2z"/>
		<path class="st1" d="M257.9,326.9c-6,0-12,0-18,0c-2.3,0-2.6,0.4-2.2,2.7C240,341,250.1,346,260.4,344c4.1-0.8,7.8-2.5,11.1-5.1
			c1.3-1,2.1-0.6,2.8,0.6c1.1,1.8,2.1,3.6,3.1,5.5c0.7,1.2,0.2,2.1-0.8,2.8c-4.1,3.1-8.6,5.2-13.6,6.4c-8.5,2-16.6,0.7-24-3.7
			c-8-4.8-12.5-12.1-13.6-21.3c-1-8.5,0.4-16.7,6-23.7c6.7-8.4,15.7-11.5,26.2-10.3c12.5,1.4,19.9,10.9,21.2,22.5
			c0.3,2.4,0.3,4.7,0.1,7.1c-0.2,1.8-1,2.3-2.7,2.3C270.1,326.9,264,326.9,257.9,326.9z M252.3,317.8c4,0,7.9-0.1,11.9,0
			c2.1,0.1,2.7-0.7,2.3-2.7c-0.7-3.5-2.2-6.5-5.3-8.5c-8.3-5.4-20.9-0.1-22.9,9.5c-0.4,1.7,0.7,1.6,1.7,1.6
			C244.1,317.8,248.2,317.8,252.3,317.8z"/>
		<path class="st1" d="M150.6,347.9c-3.8,4.3-8.7,6.3-14,6.8c-7.6,0.8-14.6-0.9-19.4-7.2c-6.7-8.8-3.8-20.5,6.1-25.7
			c6-3.1,12.5-3.9,19.1-4.5c1.7-0.1,3.5,0,5.2,0c2.4,0,2.7-0.3,2.5-2.8c-0.3-5.2-4.3-8.9-9.6-9.3c-5.9-0.4-11.2,1.2-16.1,4.2
			c-1.6,1-2.5,0.7-3.3-0.8c-0.9-1.7-1.8-3.3-2.7-4.9c-0.7-1.3-0.4-2.2,0.9-3.1c3.5-2.4,7.4-3.9,11.5-4.8c6.7-1.5,13.5-1.6,20,1.3
			c5.8,2.6,9.2,7.1,10.6,13.1c0.7,2.9,1,6,0.9,9c-0.1,10.3,0,20.6,0,30.9c0,3.2-0.4,3.5-3.5,3.5c-1.5,0-3,0-4.6,0
			c-2.9-0.1-3.2-0.4-3.3-3.2C151.1,349.7,151.2,349,150.6,347.9z M146.4,326.5c-4.5,0.4-9.5,0.3-14.3,2.2c-4.5,1.8-6.7,5-6.1,9.5
			c0.4,3.5,3.8,6.3,8.2,6.8c9.3,1.2,15.2-6.9,16.1-14.8C150.5,326.6,150.3,326.4,146.4,326.5z"/>
		<path class="st1" d="M472.7,347.9c-2.8,2.8-5.8,4.9-9.4,5.9c-7.8,2.2-15.1,1.5-21.7-3.8c-8.5-6.8-7.6-21.2,1.8-27
			c5.2-3.2,11-4.5,17-5.3c3.2-0.4,6.3-0.4,9.5-0.4c1.8,0,2.4-0.7,2.3-2.5c-0.2-4.4-2.7-8-7-9.1c-5.1-1.3-10-0.6-14.8,1.6
			c-1.5,0.7-3,1.5-4.4,2.3c-1.1,0.7-1.8,0.5-2.5-0.6c-1-1.7-1.9-3.4-2.9-5c-0.9-1.4-0.6-2.5,0.8-3.5c3.4-2.2,7-3.7,10.9-4.6
			c6.2-1.5,12.5-1.7,18.6,0.3c7.6,2.5,12.5,9.3,13,17.3c0.8,12.4,0.2,24.8,0.4,37.2c0,2.4-0.5,2.9-2.9,3c-1.7,0-3.5,0-5.2,0
			c-2.5,0-3-0.5-3.1-3C473.1,349.8,473.3,349,472.7,347.9z M468.9,326.5c-2.7,0.2-5.4,0.1-8,0.5c-3.5,0.6-7.2,1-10.1,3.5
			c-4.4,3.8-3.9,10.2,1.2,13.1c3.3,1.9,6.8,1.9,10.2,0.6c6.3-2.5,9-7.8,10-14.1C472.9,326.6,472.7,326.5,468.9,326.5z"/>
		<path class="st1" d="M195.3,339.1c1.5-4,2.8-7.9,4.2-11.7c3.5-9.7,6.9-19.4,10.4-29.1c0.5-1.5,1.4-2.2,3.1-2.1
			c2.6,0.1,5.2,0,7.8,0c2.1,0,2.4,0.5,1.6,2.5c-3.5,9.4-7,18.8-10.5,28.2c-3,8.1-6.1,16.2-9,24.3c-0.6,1.8-1.6,2.6-3.5,2.5
			c-2.2-0.1-4.3,0-6.5,0c-4.1,0-4.1,0-5.6-3.9c-2.2-5.7-4.3-11.5-6.4-17.2c-4.2-11.3-8.5-22.5-12.7-33.8c-0.8-2.1-0.5-2.5,1.8-2.6
			c2.5,0,4.9,0,7.4,0c1.8,0,2.8,0.7,3.4,2.4c4.5,12.5,9,25,13.5,37.4C194.6,336.9,194.5,338.1,195.3,339.1z"/>
		<path class="st1" d="M288.2,308.3c0-10.4,0-20.8,0-31.1c0-2.9,0.2-3.1,3.1-3.1c2.3,0,4.6,0,6.9,0c1.5,0,2,0.8,2,2.2
			c-0.5,12.9-0.1,25.8-0.2,38.7c0,6.5,0,13,0,19.5c0,1.1,0.1,2.3,0.3,3.4c0.8,4.5,1.3,4.9,5.8,5.4c1.5,0.2,2,0.8,2,2.2
			c0,1.9-0.1,3.9,0,5.8c0.1,1.9-0.9,2.7-2.6,2.8c-9.9,0.6-16.9-4-17.4-14.9c0-0.1,0-0.3,0-0.4C288.2,328.6,288.2,318.4,288.2,308.3z
			"/>
		<path class="st1" d="M90.3,306.6c2-2.4,3.5-4.9,5.9-6.8c3.5-2.8,7.4-4.3,12-4.1c2,0.1,3,0.8,2.9,2.8c-0.1,2.2,0,4.5,0,6.7
			c0,1.3-0.6,2.1-2.1,2c-8.9-0.5-14.4,5-16.8,12c-1.3,3.8-1.7,7.7-1.8,11.7c-0.1,6.6,0,13.3,0,19.9c0,2.6-0.3,2.8-2.9,2.9
			c-2,0-4.1-0.1-6.1,0c-2,0.1-2.9-0.8-2.9-2.9c0.1-5.3,0-10.5,0-15.8c0-11.9,0-23.8,0-35.7c0-3,0.2-3.2,3.2-3.2c2.1,0,4.2,0,6.3,0
			c1.6,0,2.2,0.7,2.2,2.2C90.3,301.1,90.3,303.8,90.3,306.6z"/>
	</g>
	<g>
		<path class="st2" d="M528.5,294.5c1.1-2.9,2.7-5.4,4.4-7.9c7.6-11.4,16.1-22.1,25.8-31.9c0.5-0.5,1.4-1.1,0.9-2
			c-0.4-0.8-1.3-0.3-2-0.2c-11.4,1.6-22.3,4.7-32.7,9.5c0,9.8,0.1,31.7,2.2,37.8c0.3,0.5,0.7,1,1,1.5c0.2,0.3,0.6,0.5,1,0.5
			C527.8,299.5,527.5,297.1,528.5,294.5z"/>
		<path class="st3" d="M544.9,315.4c-6-3.2-11.5-6.9-15.3-12.7c-0.2-0.3-0.4-0.6-0.6-1c-0.4,0-0.8-0.2-1-0.5c-0.3-0.4-0.7-0.9-1-1.5
			c-3.7-6.2-6.2-18.4-8.9-28.9c-0.9-3.7-0.8-12.8-0.8-12.8c0.1-5.3,0.3-10.6,0.7-15.8c0.1-0.7,0-1.3-0.3-1.6l0,0
			c-0.3-0.3-0.8-0.4-1.7-0.1c-6.9,2.1-12.8,5.7-17.5,11.1c-2.6,2.9-4.1,6.3-3.8,10.3c0.3,3.4,1.2,6.7,2.3,9.9c1,3,1.9,6.1,1.6,9.3
			c-0.4,5.3-2.9,6.6-7.7,4.3c-2.9-1.4-6.1-2.7-9.3-1c-2.3,1.2-4.5,1.8-7.1,1.1c-1.3-0.3-2.7-0.6-4.1-0.7c-2.4-0.2-4.7-0.8-7.2-0.6
			c0.1,0.6,0.4,0.7,0.7,0.7c3.4,0.9,6.8,1.8,10.2,2.7c4.9,1.4,9.7,3,13,7.3c1.5,1.9,3,3.8,4.7,5.4c3.6,3.3,8.2,4.5,12.8,5.4
			c11.8,2.4,23.5,4.7,34.5,9.9c1.5,0.7,3,1.4,4.6,2c1,0.4,2.3,0.3,2.7-0.7C547,315.7,545.6,315.7,544.9,315.4z"/>
		<path class="st4" d="M524.8,261.9c-1.6,0.7-3.1,1.6-4.7,2.3c-0.6,0.3-1.8,1-2.6-0.2c0.1,2.3,0.2,4.8,0.7,6.8
			c2.7,10.6,5.2,22.8,8.9,28.9C524.9,293.6,524.7,271.8,524.8,261.9z"/>
	</g>
</g>
</svg>
