<svg xmlns="http://www.w3.org/2000/svg" xml:space="preserve" style="enable-background:new 0 0 595.3 595.3" viewBox="0 0 595.3 595.3"><path d="M297.6 595.3C133.3 595.3 0 462 0 297.6 0 133.3 133.3 0 297.6 0 462 0 595.3 133.3 595.3 297.6c0 164.4-133.3 297.7-297.7 297.7" style="fill:#fff"/><path d="M490.6 180.1c-4.5.8-9 1.2-13.4 2-72.1 14.7-144.2 29.3-216.2 44.4-34.2 6.9-69.2 11-97.7 35.4-15.9 13.8-22.8 32.2-31.8 49.7 0 .4 1.2 1.2 1.6 1.6 10.6 1.2 20.4-1.2 30.1-5.3 14.7-5.7 29.7-11 44.8-16.3 46.8-17.5 94.1-33.4 140.5-52.1 31.8-12.6 63.9-25.7 96.1-37.9 13-5.7 26.1-11 39.5-15.5.4.4.4.4 1.2.8-12.6 4.9-25.2 10.2-37.9 15.1-94.9 40.7-189.8 81.4-284.2 122.2-2.9 1.2-6.1 2-9.4 3.3-7.7 3.7-15.1 7.3-22.8 10.2-7.3 2.9-13 7.3-17.5 13.4-7.3 9.8-14.7 19.5-22.4 28.5-5.7 6.9-5.7 10.6 3.3 14.7 15.1 6.5 29.7 13.8 43.6 22 9 4.9 15.5 4.5 23.6-1.2 112-77 224-153.9 336.4-230.5 3.7-2 7.7-3.7 10.2-9-7 1.2-12.3 1.7-17.6 4.5" style="fill:#d2aa55"/></svg>