<?xml version="1.0" encoding="utf-8"?>
<!-- Generator: Adobe Illustrator 26.3.1, SVG Export Plug-In . SVG Version: 6.00 Build 0)  -->
<svg version="1.1" id="Layer_1" xmlns="http://www.w3.org/2000/svg" xmlns:xlink="http://www.w3.org/1999/xlink" x="0px" y="0px"
	 viewBox="0 0 595.3 595.3" style="enable-background:new 0 0 595.3 595.3;" xml:space="preserve">
<style type="text/css">
	.st0{fill:#FFFFFF;}
	.st1{fill:#005EB8;}
	.st2{fill:#FA7823;}
</style>
<path class="st0" d="M297.6,595.3L297.6,595.3C133.3,595.3,0,462,0,297.6v0C0,133.3,133.3,0,297.6,0h0
	C462,0,595.3,133.3,595.3,297.6v0C595.3,462,462,595.3,297.6,595.3z"/>
<g>
	<path class="st1" d="M77.8,321.4c2.2,0,4.5,0,6.7,0c4.8,0,5.1-0.4,5.1-5.2c0-9.5,0-19,0-28.5c0-1.2-0.3-2.6,1.6-2.6
		c1.6,0,3.1,0.4,3.4,2.3c0.1,0.9,0.1,1.8,0.1,2.7c0,8.9,0,17.8,0,26.7c0,3.7,0.8,4.4,4.5,4.4c2.7,0,5.5,0,8.2,0
		c2.4,0,3.5-1.2,3.5-3.6c0-9,0-18-0.1-27c-0.1-5.2-1.6-9.8-7.8-11.8c5.5-2.7,6.9-4.7,7.3-10.1c0.6-9,0.7-18,0.1-27
		c-0.6-8.6-4.6-12-13.2-12c-6.2,0-12.3,0-18.5,0c-4.7,0-5.2,0.5-5.2,5.2c0,27.1,0,54.2,0,81.3c0,0.2,0,0.4,0,0.6
		C73.5,320.8,74,321.3,77.8,321.4z M91.7,241.4c1.5,0,2.8,0.4,3.3,2.1c0.1,0.4,0.1,0.8,0.1,1.2c0,8.3,0,16.6,0,24.9
		c0,1.4-0.4,2.6-1.9,3.1c-1.8,0.6-3.2,0.4-3.2-2c0-4.6,0-9.1,0-13.7c0,0,0,0,0,0c0-4.3,0-8.7,0-13C90,242.8,89.8,241.3,91.7,241.4z"
		/>
	<path class="st2" d="M462.6,260c0-6.1,0.1-12.1-0.1-18.2c-0.3-7.8-4.5-11.9-12.2-12.1c-7-0.1-14,0-20.9-0.1c-2.8,0-3.8,1.1-3.8,3.8
		c0,27.9,0,55.9,0,83.8c0,2.8,1.1,4,4,4c6.4-0.1,12.8,0,19.1,0c9.6,0,13.8-4.2,13.9-13.9c0-6.9,0-13.8,0-20.6
		c0-5.7-1.2-10.7-8.1-13.1C461.8,271.2,462.6,265.8,462.6,260z M446.9,305.5c0,1.5-0.1,2.8-1.7,3.5c-2.1,0.9-3.4,0.2-3.4-2.1
		c-0.1-4.1,0-8.3,0-12.4c0-3.9,0-7.9,0-11.8c0-1.3-0.1-2.7,1.9-2.7c1.9,0,3.2,0.7,3.2,2.8c0,2.9,0,5.9,0,8.8
		C446.9,296.2,446.9,300.8,446.9,305.5z M446.9,264.3c0,1.8-0.6,3.1-2.8,3.2c-1.6,0.1-2.4-0.2-2.4-2.1c0.1-3.6,0-7.3,0-10.9
		c0-3.4,0-6.9,0-10.3c0-1.3-0.5-3.1,1.8-3c2,0.1,3.3,0.9,3.3,3.1c0,3,0,6,0,9.1C446.9,257,446.9,260.7,446.9,264.3z"/>
	<path class="st2" d="M300.8,316.8c0-9.1,0.3-18.2-0.4-27.3c-0.4-4.9-2.1-8.9-8.2-10.7c6.2-1.9,7.9-6.2,8-11.1
		c0.2-8.6,0.3-17.2,0-25.8c-0.3-8.4-4.6-12.2-13-12.2c-6.4,0-12.7,0-19.1,0c-4.4,0-4.7,0.3-4.7,4.6c0,22.3,0,44.5,0,66.8
		c0,5.6,0,11.1,0,16.7c0,2.4,1,3.5,3.5,3.5c2.7-0.1,5.5,0,8.2,0c3.7,0,4.2-0.6,4.2-4.3c0-9.7,0-19.4,0-29.1c0-1-0.5-2.4,1-2.8
		c1.5-0.3,2.8,0.1,3.8,1.4c0.7,1,0.5,2.1,0.5,3.2c0,9.2,0.1,18.4,0,27.6c0,2.8,1.2,3.9,3.8,3.9c2.6,0,5.3,0,7.9,0
		C299.9,321.2,300.8,320.4,300.8,316.8z M284.7,246.2c0,7.3,0,14.6,0,21.8c0,0.9,0,1.8-0.1,2.7c-0.3,1.8-1.6,2.1-3.1,2.2
		c-1.9,0-1.7-1.3-1.7-2.5c0-4.4,0-8.9,0-13.3c0-4.3,0-8.7,0-13c0-1.2-0.3-2.6,1.6-2.6c1.6,0,3.1,0.4,3.3,2.4
		C284.7,244.5,284.7,245.4,284.7,246.2z"/>
	<path class="st2" d="M419.4,271.9C419.4,271.9,419.5,271.9,419.4,271.9c0.1-12.7,0.1-25.5,0.1-38.2c0-3.7-0.4-4.1-4-4.1
		c-2.2,0-4.5,0-6.7,0c-5.3,0-5.3,0.1-5.3,5.2c0,23.3,0,46.5,0,69.8c0,1.1,0.1,2.2-0.1,3.3c-0.2,1.4-1.2,2.1-2.6,2
		c-1.4-0.1-2-0.9-2.1-2.2c-0.1-1-0.1-2-0.1-3c0-23,0-45.9,0-68.9c0-1,0-2,0-3c-0.1-2.3-1.3-3.5-3.6-3.5c-2.3,0-4.7,0-7,0
		c-5.1,0-5.6,0.5-5.6,5.5c0,23.7,0,47.3,0,71c0,1.5,0,3,0.2,4.5c0.6,7.5,4.6,11.3,12.1,11.7c3.9,0.2,7.9,0.1,11.8,0
		c9-0.1,12.8-3.7,12.9-12.7C419.5,296.8,419.4,284.4,419.4,271.9z"/>
	<path class="st1" d="M187.3,314.8c0.9-10,1.9-19.9,2.8-29.9c1.7-17.3,3.3-34.6,5-51.9c0.2-2.5-0.8-3.5-3.3-3.5
		c-2.9,0.1-5.9,0.1-8.8,0c-2.9-0.2-4.2,0.8-4.4,3.9c-0.4,8.8-1.1,17.6-1.7,26.3c-0.7,10.5-1.4,21-2,31.4c-0.2,0-0.5,0-0.7,0.1
		c-0.3-4.4-0.6-8.8-0.9-13.1c-1-15-2-30.1-2.9-45.1c-0.2-2.6-1.3-3.6-3.8-3.5c-2.5,0.1-5.1,0-7.6,0c-5.2,0-5.6,0.5-5,5.8
		c0.8,7.1,1.5,14.3,2.2,21.4c2,20.1,4,40.2,6,60.3c0.3,2.8,1.6,4,4.3,4c4.7,0,9.3,0,14,0C186.5,321.1,186.8,320.8,187.3,314.8z"/>
	<path class="st1" d="M152.8,289.7c-1.8-18.8-3.7-37.6-5.4-56.4c-0.3-2.9-1.6-3.8-4.3-3.7c-5.4,0.1-10.7,0-16.1,0
		c-3.7,0-4.3,0.6-4.6,4.4c-0.9,9.3-1.8,18.5-2.7,27.8c-1.9,18.7-3.7,37.4-5.6,56.1c-0.2,2.3,0.8,3.2,2.9,3.3c2.9,0.1,5.9,0.1,8.8,0
		c2.3,0,3.4-1.2,3.6-3.6c0.3-5.1,0.9-10.3,1.1-15.4c0.1-3,1-4.6,4.3-4.1c0.5,0.1,1,0.1,1.5,0c1.9-0.2,2.7,0.6,2.8,2.6
		c0.2,4.4,0.7,8.9,1,13.3c0.5,7.2,0.5,7.2,7.8,7.2c1.1,0,2.2,0,3.3,0c4.1-0.1,4.7-0.8,4.3-4.9C154.5,307.4,153.7,298.5,152.8,289.7z
		 M135.1,285.5c-1.4-0.1-3.2,0.5-3-2.1c0.9-11.5,1.7-23.1,2.6-34.6c0.2,0,0.3,0,0.5,0c0.6,8.5,1.3,16.9,1.9,25.4
		c0.2,3,0.4,6.1,0.7,9.1C137.8,285.3,136.7,285.7,135.1,285.5z"/>
	<path class="st2" d="M522.8,308.6c0.1,9.1,4.4,13.3,13.5,13.4c3.6,0,7.3,0.1,10.9,0c7.7-0.1,11.3-3.2,11.7-10.9
		c0.4-6.7,0.2-13.4,0.2-20c0-2.1-1.1-3.1-3.3-3.1c-2.8,0-5.7,0-8.5,0c-2.6,0-3.7,1.1-3.6,3.7c0.1,4.9,0,9.7,0,14.6
		c0,1.8-0.1,3.7-2.6,3.6c-2.3,0-2.3-1.8-2.3-3.5c0-20.8,0-41.7,0-62.5c0-1.9,0.3-3.7,2.6-3.6c2.4,0,2.4,2,2.4,3.8
		c0,3.9,0.1,7.9,0,11.8c0,2.6,1.2,3.7,3.7,3.6c2.7-0.1,5.5,0,8.2,0c2.4,0,3.6-1.2,3.7-3.5c0.2-6,0.3-11.9-0.6-17.9
		c-0.9-5.6-3.9-8.7-9.6-9.4c-5.9-0.6-11.9-0.6-17.9,0c-4.2,0.4-6.7,3-7.8,7c-0.6,2.1-0.8,4.2-0.8,6.3c0,10.9,0,21.9,0,32.8
		C522.8,286.1,522.7,297.3,522.8,308.6z"/>
	<path class="st2" d="M363.9,229.6c-6.5-0.1-13,0-19.4,0c-4,0-4.5,0.5-4.5,4.6c0,13.7,0,27.3,0,41c0,13.9,0,27.7,0,41.6
		c0,3.6,0.8,4.4,4.5,4.5c2.2,0,4.5,0,6.7,0c4.3,0,5-0.7,5-4.9c0-8.7,0.1-17.4,0-26.1c0-2.2,0.7-3.1,3-3c2.4,0.1,4.8-0.1,7.3-0.4
		c7.7-0.8,10.5-3.8,10.6-11.6c0.1-10.9,0.2-21.9,0-32.8C376.8,233.7,372.7,229.7,363.9,229.6z M361.2,271.6c0,1.5-0.3,2.8-2,3.3
		c-1.9,0.6-3.2,0.4-3.1-2.1c0.1-5,0-9.9,0-14.9c0-4.6,0-9.3,0-13.9c0-1.2-0.3-2.8,1.8-2.8c1.8,0,2.9,0.6,3.2,2.5
		c0.1,0.4,0.1,0.8,0.1,1.2C361.2,253.8,361.2,262.7,361.2,271.6z"/>
	<path class="st1" d="M226,319.6c0.6-3.2,1-6.6-0.1-9.6c-1-2.5-4-1-6.1-1.3c-0.8-0.1-1.6-0.1-2.4,0c-2.3,0.3-3-0.8-2.9-3
		c0.1-6.2,0-12.3,0-18.5c0-6.4,0-6.4,6.5-6.4c3.9,0,4.4-0.5,4.5-4.3c0.1-9.2,0-8.1-7.7-8c-2.6,0-3.3-1-3.2-3.4
		c0.1-6.6,0.2-13.2,0-19.7c-0.1-2.9,1-3.6,3.7-3.5c9.1,0.1,8.2,1,8.2-8.3c0-3.5-0.5-3.9-4.1-4c-6.5,0-13,0-19.4,0
		c-3.9,0-4.4,0.5-4.4,4.4c0,13.8,0,27.5,0,41.3c0,0.9,0,1.8,0,2.7c0,13.1,0,26.1,0,39.2c0,2.2,0.4,3.9,3,3.9c7.3,0,14.6,0,21.9,0
		C224.4,321.1,225.8,320.8,226,319.6z"/>
	<path class="st2" d="M335,318.1c0-2,0-4,0-6.1c0-2.2-0.9-3.4-3.3-3.3c-1.8,0.1-3.7-0.1-5.5,0.1c-2.5,0.2-3.4-0.7-3.4-3.2
		c0.2-6.1,0-12.1,0-18.2c0-6.5,0-6.5,6.6-6.6c4,0,4.3-0.4,4.3-4.3c0.1-8.9,0.3-8.1-7.8-7.9c-2.6,0-3.3-0.9-3.2-3.3
		c0.1-6.5,0.2-13,0-19.4c-0.1-3.1,0.9-3.9,3.9-3.9c8.6,0.1,8.2,1.5,8.2-8.3c0-2.8-1.1-4-4-3.9c-6.6,0.1-13.2,0-19.7,0
		c-3.7,0-4.2,0.5-4.2,4.2c0,13.8,0,27.5,0,41.3c0,14.1,0,28.1,0,42.2c0,2.3,0.7,3.9,3.1,3.9c7.3,0.1,14.6,0.1,21.9,0
		C333.9,321.1,335,320.1,335,318.1z"/>
	<path class="st1" d="M48.1,320.9c2.4-0.1,4.9,0,7.3,0c5,0,5.1-0.1,5.1-5.1c0-23.6,0-47.1,0-70.7c0-2.1,0.1-3.3,2.8-3.3
		c5.9,0.1,6-0.2,6-6.1c0-0.6,0-1.2,0-1.8c-0.1-3.9-0.8-4.6-4.6-4.6c-7.3,0-14.6,0-21.8,0c-7.2,0-7.2,0-7.2,7.2
		c0,5.2,0.2,5.6,5.5,5.4c2.9-0.1,3.5,1,3.5,3.6c-0.1,11.8-0.1,23.7-0.1,35.5c0,12.1,0,24.3,0,36.4C44.5,319.9,45.4,321,48.1,320.9z"
		/>
	<path class="st1" d="M255.7,321.1c2.3,0,3.5-1,3.5-3.5c-0.1-10,1.1-9.1-8.5-9c-2.4,0-3.1-0.7-3.1-3.1c0.1-11.5,0-23.1,0-34.6
		c0-12.4,0-24.9,0-37.3c0-3.6-0.5-4-4.1-4c-2.5,0-5.1,0-7.6,0c-4,0-4.3,0.4-4.3,4.4c0,13.8,0,27.5,0,41.3c0,13.9,0.1,27.7,0,41.6
		c0,3,1,4.3,4,4.3C242.3,321.1,249,321.1,255.7,321.1z"/>
	<path class="st2" d="M491.9,321.2c3.3,0,4.2-0.8,4.2-4.1c0-8.9,1-8.7-8.2-8.4c-2.8,0.1-3.4-0.9-3.4-3.5c0.1-13,0.1-26.1,0.1-39.1
		c0-10.8,0-21.6,0-32.5c0-3.6-0.4-4-4.1-4c-2.5,0-5.1,0-7.6,0c-4,0-4.3,0.3-4.3,4.4c0,13.8,0,27.5,0,41.3c0,13.8,0,27.5,0,41.3
		c0,3.9,0.7,4.7,4.5,4.7C479.3,321.3,485.6,321.3,491.9,321.2z"/>
	<path class="st2" d="M503.9,321.2c2.6,0,5.3,0.1,7.9,0c3.9-0.1,4.6-0.8,4.6-4.6c0-13.8,0-27.5,0-41.3c0-13.7,0-27.3,0-41
		c0-4.5-0.2-4.7-4.6-4.7c-2,0-4,0-6.1,0c-5.3,0-5.5,0.2-5.5,5.4c0,26.8,0,53.6,0,80.4c0,0.7,0,1.4,0,2.1
		C500.4,319.9,501.6,321.2,503.9,321.2z"/>
	<path class="st2" d="M554.5,346.4c-19,0-38,0-57,0c-4.8,0-9.5,0-14.3,0c-2.4,0-3.5,1.1-3.5,3.5c0,2.1,0,4.2,0,6.4
		c0,4.5,0.5,5,5.1,5c11.6,0,23.3,0,34.9,0c11.7,0,23.5,0,35.2,0c3.8,0,4.6-0.8,4.7-4.6c0-1.7,0-3.4,0-5.2
		C559.5,347.1,558.9,346.4,554.5,346.4z"/>
	<path class="st2" d="M119,346.4c-23.2,0-46.4,0-69.5,0c-0.6,0-1.2,0-1.8,0c-2.1,0-3.2,1-3.1,3.2c0.1,2.2,0,4.5,0,6.7
		c0,4.7,0.3,5,5,5c11.5,0,23.1,0,34.6,0c11.9,0,23.9,0,35.8,0c3.4,0,4.1-0.7,4.1-4.1c0-1.9,0-3.8,0-5.8
		C124.1,346.8,123.7,346.4,119,346.4z"/>
	<path class="st1" d="M371.8,339.5c-1.8,0.1-2.2,1.2-2.6,2.4c-1.2,3.3-2.5,6.6-4,10.8c-1.7-4.4-3.2-7.9-4.4-11.4
		c-0.8-2.2-2.4-1.8-3.9-1.7c-1.7,0.1-1.3,1.5-1.3,2.5c0,7.3,0,14.5-0.1,21.8c0,1.9,0.6,2.7,2.6,2.7c1.9,0,3.1-0.4,3-2.7
		c-0.1-3,0-5.9,0-8.9c1.2,1.6,1.7,3.3,2.3,5c0.3,0.9,0.5,1.7,1.7,1.8c1.4,0.1,1.7-0.8,2-1.8c0.7-1.9,1.3-3.8,1.9-5.7
		c0.2,0,0.4,0.1,0.6,0.1c0,3.1,0.1,6.3,0,9.4c-0.1,1.8,0.4,2.8,2.5,2.8c2.1,0,2.8-0.7,2.8-2.8c-0.1-7.2-0.1-14.3,0-21.5
		C374.9,340,374,339.5,371.8,339.5z"/>
	<path class="st1" d="M440.7,339.5c-2,0-2.7,0.7-2.6,2.6c0.1,3.1,0,6.1,0,9.2c-2.1-3.3-3.6-6.6-5-10.1c-0.8-2.1-2.5-1.8-4-1.6
		c-1.7,0.1-1.3,1.6-1.3,2.6c0,7.3,0,14.5-0.1,21.8c0,1.9,0.6,2.7,2.6,2.7c2.1,0,2.9-0.8,2.8-2.9c-0.1-2.7,0-5.4,0-8.1
		c0.3-0.1,0.5-0.1,0.8-0.2c1.4,3.2,2.9,6.3,4.2,9.6c0.8,2,2.3,1.6,3.8,1.5c1.6-0.1,1.5-1.4,1.5-2.5c0-7.4,0-14.7,0-22.1
		C443.5,340,442.6,339.6,440.7,339.5z"/>
	<path class="st1" d="M284.7,357.3c-0.5-1.4-0.5-2.4,0.6-3.8c2.5-3.2,2.2-6.9,0.8-10.4c-1.3-3.2-4.4-3.5-7.4-3.5c-1.5,0-3,0.1-4.5,0
		c-1.9-0.1-2.5,0.7-2.4,2.5c0.1,3.6,0,7.3,0,10.9c0,3.7,0.1,7.5,0,11.2c-0.1,2.4,1.2,2.5,3,2.5c2,0,2.7-0.7,2.6-2.7
		c-0.1-2,0-4,0-6.1c0-0.7-0.2-1.6,0.8-1.7c0.9-0.1,1.1,0.7,1.3,1.4c0.8,2.5,1.6,5,2.5,7.5c0.9,2.5,3.1,1.6,4.7,1.3
		c2.1-0.4,0.6-2,0.3-2.9C286.3,361.4,285.5,359.4,284.7,357.3z M279.3,351.2c-2.6,0.1-2-1.8-1.9-3.1c0.1-1.3-1.1-3.5,1.7-3.6
		c2.3,0,2.6,1.5,2.6,3.4C281.6,349.4,281.6,351.1,279.3,351.2z"/>
	<path class="st1" d="M207.5,357.3c-0.5-1.4-0.5-2.4,0.5-3.8c2.5-3.2,2.2-7.1,0.7-10.6c-1.3-3.1-4.3-3.2-7.2-3.3c-1.5,0-3,0.1-4.5,0
		c-1.9-0.1-2.5,0.7-2.4,2.5c0.1,3.6,0,7.3,0,10.9c0,3.8,0.1,7.7,0,11.5c-0.1,2.1,1.2,2.2,2.7,2.2c1.5,0,2.9-0.1,2.8-2.2
		c-0.1-2,0-4,0-6.1c0-0.7-0.3-1.8,0.8-2c1.1-0.2,1.2,0.9,1.5,1.6c0.8,2.4,1.5,4.8,2.3,7.2c0.9,2.5,3.1,1.6,4.7,1.3
		c2.2-0.4,0.5-2,0.3-2.9C209.1,361.5,208.3,359.4,207.5,357.3z M202,351.2c-2.8,0.1-1.7-2-2.1-3.3c0.4-1.3-0.7-3.4,1.9-3.4
		c2.4,0,2.6,1.8,2.6,3.5C204.4,349.6,204,351.1,202,351.2z"/>
	<path class="st1" d="M329,341.7c0-2.2-1.3-2.1-2.8-2.1c-1.5,0-2.9-0.2-2.8,2.1c0.1,2.3,0,4.7,0,7c0,1.5-0.7,1.9-2,1.9
		c-1.4,0-2.4-0.3-2.3-2c0.1-2.2-0.1-4.5,0-6.7c0.1-2.3-1.2-2.3-2.9-2.3c-1.7,0-2.6,0.4-2.5,2.4c0.1,3.6,0,7.3,0,10.9
		c0,3.8,0.1,7.7,0,11.5c-0.1,2,1,2.4,2.6,2.3c1.5,0,2.9-0.1,2.8-2.2c-0.1-2,0-4,0-6.1c0-1.5-0.4-3.1,2.1-3.1c2.4,0,2.2,1.4,2.2,3
		c0,2,0.1,4.1,0,6.1c-0.1,2,0.9,2.4,2.6,2.3c1.6,0,3,0.1,3-2.3C329,356.8,329,349.3,329,341.7z"/>
	<path class="st1" d="M191,341.8c0-1.5-0.5-2.1-2.1-2.2c-2.6-0.2-3.8,0.4-3.7,3.4c0.2,5.4,0.1,10.9,0,16.4c0,1.4-0.3,2.7-2.1,2.7
		c-1.7,0-2.2-1.2-2.4-2.6c-0.1-0.8,0-1.6,0-2.4c0-5.1-0.1-10.1,0-15.2c0-2-0.9-2.4-2.6-2.3c-1.6,0.1-3.1-0.1-2.9,2.2
		c0.1,3,0,6.1,0,9.1c0,0,0,0,0,0c0,2.9-0.1,5.9,0,8.8c0.2,4.7,3.6,7.6,8.2,7.3c4-0.3,7.2-3.5,7.3-8.2
		C191.1,353.1,190.9,347.4,191,341.8z"/>
	<path class="st1" d="M410.3,353c-0.7-1.6-0.6-2.9,0.2-4.3c1.5-2.8,2.9-5.7,4.4-8.7c-5.1-0.9-5.1-0.9-7,3.3
		c-0.9,2.1-1.9,4.3-2.9,6.4c-0.7-2.6-0.8-5-0.6-7.4c0.1-2.1-0.7-2.8-2.8-2.8c-2.1,0-2.6,0.8-2.6,2.7c0.1,7.2,0.1,14.4,0,21.5
		c0,1.9,0.4,3,2.7,3c2.2,0,2.8-0.9,2.7-2.9c-0.1-2.2-0.2-4.4,2-6.4c1.1,2.8,2,5.2,3,7.6c1.1,2.6,3.6,2.1,5.2,1.6
		c1.9-0.6,0.2-2.2-0.2-3.2C413.2,359.9,411.8,356.4,410.3,353z"/>
	<path class="st1" d="M260,339.4c-3.9,0.3-6.4,2.6-6.9,6.7c-0.3,2.3-0.4,4.6-0.5,6.9c0.1,2.7,0.1,5.5,0.8,8.1c1,3.6,3.7,5.7,7.3,5.7
		c3.6,0,6.4-2,7.2-5.7c1.1-5.3,1.2-10.6,0.1-15.9C267,341.1,264.1,339.2,260,339.4z M262.6,359.7c-0.1,1.3-0.8,2.3-2.3,2.3
		c-1.4-0.1-1.8-1.1-2-2.3c-0.6-4.2-0.6-8.5-0.1-12.7c0.2-1.3,0.4-2.8,2.2-2.7c1.9,0,2.2,1.5,2.3,3c0.1,2,0,4,0,6.1
		c0.1,0,0.2,0,0.3,0C262.9,355.5,262.9,357.6,262.6,359.7z"/>
	<path class="st1" d="M163.9,339.4c-3.9,0.1-6.6,2.2-7.4,6.3c-0.4,2.4-0.5,4.8-0.8,7.2c0,2.5,0.3,4.9,0.7,7.3c0.6,4,3.3,6.6,7,6.8
		c4,0.2,7.1-1.9,7.9-6c1-5.2,1-10.5-0.1-15.6C170.4,341.4,167.6,339.3,163.9,339.4z M166,359.8c-0.1,1.2-0.7,2.1-2.1,2.2
		c-1.4,0-1.9-0.8-2.1-2.1c-0.8-4.5-0.7-9.1-0.1-13.6c0.2-1.2,0.8-2.1,2.2-2c1.3,0.1,2,1,2.1,2.2c0.2,2.3,0.3,4.6,0.4,6.4
		C166.3,355.6,166.2,357.7,166,359.8z"/>
	<path class="st1" d="M457.5,351.8c-1,0-2.5-0.5-2.8,1c-0.2,1.3-0.6,2.6,1.3,3.5c1.6,0.8,0.9,2.6,0.4,4.1c-0.3,1.1-1.1,1.7-2.2,1.6
		c-1.8-0.2-1.8-1.8-1.9-3c-0.2-1.9,0-3.8,0-5.7c0,0-0.1,0-0.1,0c0-1.9-0.1-3.8,0-5.8c0.1-1.3,0.2-2.7,1.9-3.1
		c1.4-0.3,2.1,0.5,2.7,1.8c1,2,3.1,1.3,4.6,0.9c1.6-0.5,0.6-2.1,0.3-3.1c-1.1-3.2-3.7-4.8-7.4-4.6c-3.5,0.2-6.1,2-6.8,5.4
		c-1.1,5.4-1.2,10.9,0,16.2c0.8,3.9,3.9,6,7.7,5.8c4.1-0.3,6.4-2.4,6.9-6.7c0.1-1.2,0.2-2.4,0.2-3.6
		C462.3,351.7,462.3,351.7,457.5,351.8z"/>
	<path class="st1" d="M390.2,342c-0.5-1.9-1.4-2.8-3.4-2.4c-2-0.5-2.8,0.5-3.3,2.4c-1.8,7.2-3.7,14.5-5.5,21.7
		c-0.2,0.9-1.5,2.6,0.7,2.8c1.6,0.1,3.9,1.2,4.4-1.6c0.4-2.4,2-2.3,3.8-2.4c1.9,0,3.2,0.1,3.6,2.5c0.5,2.7,2.9,1.6,4.5,1.5
		c2.2-0.2,0.9-1.9,0.6-2.8C393.9,356.5,392,349.3,390.2,342z M387,357.6c-1.2,0-2.3-0.1-1.9-1.8c0.5-2.3,1-4.6,1.6-6.9
		c0.2,0.1,0.4,0.2,0.6,0.3c0.4,2.3,0.8,4.5,1.3,6.7C389,357.3,388.2,357.5,387,357.6z"/>
	<path class="st1" d="M223.7,350.9c-1-0.4-2-0.9-3.1-1.3c-1.6-0.6-1.9-1.9-1.7-3.5c0.1-0.9,0.5-1.6,1.4-1.7c1.6-0.3,1.9,0.7,2.5,2
		c0.9,1.9,2.9,1.1,4.3,0.9c1.6-0.3,0.9-1.8,0.7-2.8c-0.8-3.4-3.4-5.4-7.1-5.3c-3.5,0-6.5,2.4-7.2,5.8c-0.9,4.3,0.3,7.2,3.5,8.7
		c1.5,0.7,3,1.2,4.4,2c1.7,1,1.5,2.7,1.3,4.3c-0.1,1-0.7,1.8-1.7,1.9c-1.6,0.3-2.2-0.8-2.9-2.1c-1-1.7-3-1.1-4.4-0.7
		c-1.6,0.4-0.9,2-0.6,3.1c0.7,2.9,3.3,4.5,7,4.7c4.4,0.1,7.1-1.9,8-6.1C229.3,355.6,228,352.7,223.7,350.9z"/>
	<path class="st1" d="M341.5,361.7c-2.7,0.2-2.9-1.3-2.9-3.3c0-2.1,0.3-3.3,2.8-3c1.8,0.2,3.4,0.2,3.3-2.5c0-2.9-1.9-2.2-3.5-2.4
		c-0.9-0.1-2,0.4-2.5-1c-1-3.2,0.2-5,3.4-5c0.4,0,0.8,0,1.2,0c1.9,0.2,2.4-0.8,2.4-2.5c0-1.6-0.4-2.4-2.2-2.4
		c-2.7,0.1-5.5,0.1-8.2,0c-1.6,0-2.1,0.6-2.1,2.2c0.1,3.7,0,7.5,0,11.2c0,3.8,0,7.7,0,11.5c0,1.5,0.5,2.2,2.1,2.2c2.8,0,5.7,0,8.5,0
		c1.2,0,1.8-0.5,1.9-1.8C346.2,361.1,343.6,361.6,341.5,361.7z"/>
	<path class="st1" d="M154.2,339.6c-2.6-0.9-4.9,0.2-5.6,3c-0.4,1.7-0.9,3.5-1.3,5.2c-0.2,0-0.4,0-0.5,0c-0.5-2.1-1-4.1-1.4-6.2
		c-0.7-3.4-3.4-2.2-5.1-1.9c-2.3,0.3-0.6,2.1-0.3,3c2.2,7.1,5.5,13.9,4.5,21.7c-0.3,2.1,1.2,2.2,2.8,2.2c1.6,0,2.8-0.2,2.6-2.3
		c-0.6-5.9,0.7-11.4,2.9-16.8c0.8-2.1,1.4-4.2,2-6.3C154.8,340.7,155.4,340,154.2,339.6z"/>
	<path class="st1" d="M248.7,339.6c-2.8,0.1-5.7,0.1-8.5,0c-1.7-0.1-2.3,0.7-2.3,2.3c0.1,3.7,0,7.5,0,11.2c0,3.3,0,6.7,0,10
		c0,1.9-0.1,3.5,2.7,3.6c3,0.1,2.9-1.7,2.8-3.7c0-1.5,0.1-3,0-4.6c-0.2-2.3,0.5-3.4,3-3.1c1.7,0.2,3.1,0.1,3.1-2.4
		c0-2.5-1.3-2.5-3.1-2.5c-1,0-2.3,0.5-2.9-0.9c-1.2-2.8,0.2-5.1,3.2-5.1c0.6,0,1.2-0.1,1.8,0c2,0.2,2-1.1,2-2.5
		C250.6,340.6,250.4,339.5,248.7,339.6z"/>
	<path class="st1" d="M308.6,339.6c-3.3,0.1-6.7,0.1-10,0c-1.5,0-2.5,0.3-2.4,2.1c0.1,1.5,0,3,2.1,2.7c2-0.2,2.3,1,2.3,2.6
		c0,2.8,0,5.7,0,8.5c0,0,0,0,0,0c0,2.7,0.1,5.5,0,8.2c-0.1,2.2,0.7,3,2.9,3c2.2,0,2.7-0.9,2.7-2.9c-0.1-5.5,0-11.1,0-16.7
		c0-1.8,0.4-3,2.5-2.7c1.9,0.2,2.1-1,2.1-2.5C310.8,340.4,310.4,339.5,308.6,339.6z"/>
	<path class="st1" d="M423.7,352.9c0-3.6-0.1-7.3,0-10.9c0.1-2.1-0.9-2.5-2.7-2.5c-1.7,0-2.9,0.1-2.9,2.3c0.1,7.5,0.1,15,0,22.4
		c0,2.3,1.3,2.3,2.9,2.4c1.8,0.1,2.8-0.4,2.7-2.5C423.6,360.4,423.7,356.7,423.7,352.9z"/>
</g>
</svg>
