<svg xmlns="http://www.w3.org/2000/svg" xml:space="preserve" id="Layer_1" x="0" y="0" style="enable-background:new 0 0 595.3 595.3" version="1.1" viewBox="0 0 595.3 595.3"><style>.st1{fill:#56c9d1}.st2{fill:#309097}</style><path d="M297.6 595.3C133.3 595.3 0 462 0 297.6 0 133.3 133.3 0 297.6 0 462 0 595.3 133.3 595.3 297.6c0 164.4-133.3 297.7-297.7 297.7" style="fill:#fff"/><path d="M92.9 142c39.1 6.7 78.5 12.9 117.6 19.8 71.6 12.6 143.2 25.5 214.5 38.2 4.5.7 9.3 1 14.1 4.8-17.7 24.8-33.9 50.6-53.5 74.2-3.6-1.2-7.2-1.9-10.5-3.3-81.6-38.2-163.2-76.6-244.8-115-7.4-3.6-14.8-7.9-23.4-7.9-2.3-6.5-10.2-6-14-10.8" class="st1"/><path d="M92.9 142c3.8 4.8 11.7 4.3 14.3 10.5l-.2.2c-1.7.2-4.3 0-3.6 2.1.7 2.9 3.6 3.3 6.4 3.3-.2 5.5 4.1 8.1 7.4 11.2 29.1 26.5 58 52.7 87.3 79.2 24.3 22 49.4 43.2 73 65.9 17.7 16.9 37.9 31.3 53 50.6-15 22.7-30.3 45.3-46.3 69.4-14.1-20.8-27.2-40.3-40.6-59.7C193.4 300.5 142.8 226 92.7 151.6c-1.5-2.4-10.5-6.7.2-9.6" class="st2"/><path d="M330.6 365.1c-15.3-19.6-35.6-33.6-53-50.6-23.6-22.7-48.7-43.9-73-65.9-29.1-26.2-58.2-52.7-87.3-79.2-3.3-3.1-7.6-5.7-7.4-11.2 2.6 1 5.2 1.7 7.4 3.1 29.1 18.9 58.5 37.7 87.6 56.8 73.3 48 146.8 95.9 220.3 143.4 3.1 1.9 6 8.6 11.5 3.1 4.8 5 4.1 6.9-3.1 6.4-23.6-1.7-47.2-2.9-70.9-4.8-10.9-.8-21.4-1.8-32.1-1.1" class="st1"/><path d="M436.5 364.7c-5.5 5.7-8.4-1.2-11.5-3.1-73.5-47.7-146.8-95.7-220.3-143.4-29.1-19.1-58.2-37.9-87.6-56.8-2.1-1.4-5-2.1-7.4-3.1-1-1.9-1.9-3.6-2.9-5.5l.2-.2c8.6.2 16 4.5 23.4 7.9 81.6 38.4 163.2 76.8 244.8 115 3.3 1.4 6.9 2.1 10.5 3.3 17.2 28.8 33.9 57.5 50.8 85.9M507.4 448c.5 2.6-.2 4.8-2.9 5.2-2.9.5-3.8-1.7-4.3-4.1-1.7-5.7-3.1-11.7-5.2-17.2-7.9-21.7-21.2-38.9-43.4-47.7-2.9-1.2-6.9-2.4-4.8-6.7 1.4-3.1 4.8-1.7 7.4-.7 23.9 7.2 53.7 47.1 53.2 71.2" class="st2"/></svg>