<?xml version="1.0" encoding="utf-8"?>
<!-- Generator: Adobe Illustrator 26.3.1, SVG Export Plug-In . SVG Version: 6.00 Build 0)  -->
<svg version="1.1" id="Layer_1" xmlns="http://www.w3.org/2000/svg" xmlns:xlink="http://www.w3.org/1999/xlink" x="0px" y="0px"
	 viewBox="0 0 595.3 595.3" style="enable-background:new 0 0 595.3 595.3;" xml:space="preserve">
<style type="text/css">
	.st0{fill:#FFFFFF;}
	.st1{fill:#169DC2;}
	.st2{fill:#1CA0E1;}
	.st3{fill:#0780A9;}
</style>
<path class="st0" d="M297.6,595.3L297.6,595.3C133.3,595.3,0,462,0,297.6l0,0C0,133.3,133.3,0,297.6,0l0,0
	C462,0,595.3,133.3,595.3,297.6l0,0C595.3,462,462,595.3,297.6,595.3z"/>
<g>
	<path class="st1" d="M370.8,364c4.7-12.5,11.6-23.2,18.9-33.9c32.7-49,69.2-95,110.9-137.1c2.1-2.1,6-4.7,3.9-8.6
		c-1.7-3.4-5.6-1.3-8.6-0.9c-49,6.9-95.8,20.2-140.5,40.8c-0.8,46.4,0.4,136.7,9.5,162.9c1.3,2.1,0.3,3.5,3.8,6.6
		c0.9,1.3,3.1,1.5,4.8,1.5C367.8,385.4,366.5,375.1,370.8,364z"/>
	<path class="st2" d="M441.3,453.8c-25.8-13.8-49.4-29.7-65.7-54.6c-0.9-1.3-1.7-2.6-2.6-4.3c-1.7,0-3.4-0.9-4.3-2.1
		c-1.3-1.7-3-3.9-4.3-6.4c-15.9-26.6-26.6-79.1-38.2-124.2c-3.9-15.9-3.4-55-3.4-55c0.4-22.8,1.3-45.6,3-67.9c0.4-3,0-5.6-1.3-6.9
		l0,0c-1.3-1.3-3.4-1.7-7.3-0.4c-29.7,9-55,24.5-75.2,47.7c-11.2,12.5-17.6,27.1-16.3,44.3c1.3,14.6,5.2,28.8,9.9,42.5
		c4.3,12.9,8.2,26.2,6.9,40c-1.7,22.8-12.5,28.4-33.1,18.5c-12.5-6-26.2-11.6-40-4.3c-9.9,5.2-19.3,7.7-30.5,4.7
		c-5.6-1.3-11.6-2.6-17.6-3c-10.3-0.9-20.2-3.4-30.9-2.6c0.4,2.6,1.7,3,3,3c14.6,3.9,29.2,7.7,43.8,11.6c21.1,6,41.7,12.9,55.9,31.4
		c6.4,8.2,12.9,16.3,20.2,23.2c15.5,14.2,35.2,19.3,55,23.2c50.7,10.3,101,20.2,148.3,42.5c6.4,3,12.9,6,19.8,8.6
		c4.3,1.7,9.9,1.3,11.6-3C450.3,455.1,444.3,455.1,441.3,453.8z"/>
	<path class="st3" d="M355.3,224.3c-6.9,3-13.8,6.4-20.6,9.5c-2.6,1.3-8.2,4-11.6-1.1c0.4,9.9,1.1,21.7,3.2,30.3
		c11.6,45.6,21.6,96.9,38.3,123.9C356.3,359.3,354.9,266.8,355.3,224.3z"/>
</g>
</svg>
