<?xml version="1.0" encoding="utf-8"?>
<!-- Generator: Adobe Illustrator 26.3.1, SVG Export Plug-In . SVG Version: 6.00 Build 0)  -->
<svg version="1.1" id="Layer_1" xmlns="http://www.w3.org/2000/svg" xmlns:xlink="http://www.w3.org/1999/xlink" x="0px" y="0px"
	 viewBox="0 0 595.3 595.3" style="enable-background:new 0 0 595.3 595.3;" xml:space="preserve">
<style type="text/css">
	.st0{fill:#FFFFFF;}
	.st1{fill:#050505;}
	.st2{fill:#56C9D1;}
	.st3{fill:#309097;}
	.st4{fill:#070707;}
</style>
<path class="st0" d="M297.6,595.3L297.6,595.3C133.3,595.3,0,462,0,297.6v0C0,133.3,133.3,0,297.6,0h0
	C462,0,595.3,133.3,595.3,297.6v0C595.3,462,462,595.3,297.6,595.3z"/>
<g>
	<path class="st1" d="M419,380.8c0,5.1,0.3,10.1-0.1,15.2c-0.6,7.5-4.2,9.7-10.9,6.2c-3.7-1.9-6.7-1.4-10.4-0.2
		c-14.3,4.6-27.8,2.8-39-7.9c-10.2-9.7-12.7-22-8.8-35.3c4.3-14.5,14.6-22.5,29.3-25c19.5-3.4,38.7,12.5,39.9,33
		C419.3,371.5,419.1,376.1,419,380.8C419.1,380.8,419.1,380.8,419,380.8z M405.3,369.1c0-11.9-9.5-21.6-21.3-21.8
		c-11.9-0.2-21.9,9.8-22,21.9c-0.1,11.9,9.5,21.6,21.4,21.7C395.7,390.9,405.3,381.4,405.3,369.1z"/>
	<path class="st2" d="M152.5,190.9c16.4,2.8,32.9,5.4,49.3,8.3c30,5.3,60,10.7,89.9,16c1.9,0.3,3.9,0.4,5.9,2
		c-7.4,10.4-14.2,21.2-22.4,31.1c-1.5-0.5-3-0.8-4.4-1.4c-34.2-16-68.4-32.1-102.6-48.2c-3.1-1.5-6.2-3.3-9.8-3.3
		C157.4,192.7,154.1,192.9,152.5,190.9z"/>
	<path class="st1" d="M225.4,382.6c0,5.1,0.3,10.1-0.1,15.2c-0.4,5.6-2.4,6.8-7.6,4.8c-6.4-2.6-12.6-0.9-18.9,0.4
		c-20.4,4.4-39.1-6.5-43.5-25.3c-4.7-20.4,8.7-40.2,29.7-43.8c18.9-3.3,38.1,11.9,40,31.9c0.5,5.6,0.1,11.3,0.1,16.9
		C225.3,382.6,225.4,382.6,225.4,382.6z M189.7,390.7c12.3,0.1,22.4-9.6,22.4-21.4c0-11.7-10.3-21.9-22.1-22
		c-11.7,0-21.8,9.7-22,21.3C167.9,380.8,177.6,390.6,189.7,390.7z"/>
	<path class="st3" d="M152.5,190.9c1.6,2,4.9,1.8,6,4.4c0,0-0.1,0.1-0.1,0.1c-0.7,0.1-1.8,0-1.5,0.9c0.3,1.2,1.5,1.4,2.7,1.4l0,0
		c-0.1,2.3,1.7,3.4,3.1,4.7c12.2,11.1,24.3,22.1,36.6,33.2c10.2,9.2,20.7,18.1,30.6,27.6c7.4,7.1,15.9,13.1,22.2,21.2
		c-6.3,9.5-12.7,19-19.4,29.1c-5.9-8.7-11.4-16.9-17-25c-21.1-31.2-42.3-62.4-63.3-93.6C151.8,193.9,148,192.1,152.5,190.9z"/>
	<path class="st1" d="M472.7,366.6c0.5-12.1,7.5-23.3,21.2-29.7c12.7-5.9,25-4.4,36.1,4.4c6.5,5.2,6.6,9.1,0.7,14.9
		c-5.7,5.6-11.3,11.2-17,16.8c-3.1,3-6.5,4.4-10.2,0.9c-3.7-3.5-2.4-7.1,0.4-10.3c2.4-2.8,4.6-5.8,7.7-7.9c1.9-1.3,4.2-2.7,2.9-5.6
		c-1.2-2.6-3.6-3.4-6.3-3.4c-9.5,0.1-19.5,8.5-21.1,18c-1.5,9.2,1,17.1,9.1,22.3c7.8,5.1,16,5.4,24.1,0.2c1.8-1.2,3.5-2.5,5.4-3.4
		c2.9-1.4,5.7-1.1,7.8,1.6c2.2,2.8,2.6,6,0.1,8.5c-6.4,6.3-13.7,10.9-23.3,9.9c-4.4-0.4-8.9-0.5-13.3-1.7
		C482.4,398.1,472.7,385.2,472.7,366.6z"/>
	<path class="st2" d="M252.1,284.4c-6.4-8.2-14.9-14.1-22.2-21.2c-9.9-9.5-20.4-18.4-30.6-27.6c-12.2-11-24.4-22.1-36.6-33.2
		c-1.4-1.3-3.2-2.4-3.1-4.7c1.1,0.4,2.2,0.7,3.1,1.3c12.2,7.9,24.5,15.8,36.7,23.8c30.7,20.1,61.5,40.2,92.3,60.1
		c1.3,0.8,2.5,3.6,4.8,1.3c2,2.1,1.7,2.9-1.3,2.7c-9.9-0.7-19.8-1.2-29.7-2C261,284.5,256.6,284.1,252.1,284.4z"/>
	<path class="st4" d="M268.1,382.4c4.5-8.9,8.8-17.2,13-25.4c3.1-6,6.2-12.1,9.3-18.1c2-4,5-6.1,9.5-3.8c4.3,2.1,4.3,5.7,2.4,9.4
		c-9,18.1-17.9,36.2-27.2,54.1c-4,7.7-9.8,7.5-13.9-0.2c-9.4-17.9-18.3-36-27.4-54c-1.9-3.8-1.7-7.2,2.5-9.4
		c4.1-2.1,7.3-0.6,9.3,3.2c6.1,11.7,12,23.5,18,35.3C265,376.1,266.3,378.8,268.1,382.4z"/>
	<path class="st3" d="M296.5,284.2c-2.3,2.4-3.5-0.5-4.8-1.3c-30.8-20-61.5-40.1-92.3-60.1c-12.2-8-24.4-15.9-36.7-23.8
		c-0.9-0.6-2.1-0.9-3.1-1.3c0,0,0,0,0,0c-0.4-0.8-0.8-1.5-1.2-2.3c0,0,0.1-0.1,0.1-0.1c3.6,0.1,6.7,1.9,9.8,3.3
		c34.2,16.1,68.4,32.2,102.6,48.2c1.4,0.6,2.9,0.9,4.4,1.4C282.4,260.3,289.4,272.3,296.5,284.2z"/>
	<path class="st4" d="M440.1,375.7c0-6.4-0.1-12.9,0-19.3c0.1-5.8-2.4-9.3-8.4-9.8c-4-0.3-7.5-1.4-7.2-6.4c0.2-4.8,3.1-6.8,7.7-6.7
		c5.4,0.1,7.6-3.1,7.8-8.1c0.1-1.9-0.1-3.9,0.1-5.8c0.3-3.7,1.7-6.4,6-6.5c4.1-0.1,6.7,1.8,7.3,5.9c0.3,2.5,0.2,5,0.2,7.6
		c0.1,4.4,2,7.1,6.8,6.9c4.6-0.2,7.6,1.5,7.9,6.4c0.3,4.8-2.7,6.7-6.9,6.9c-6.2,0.3-7.8,4.1-7.8,9.4c0.1,12.5,0.2,24.9,0.1,37.4
		c0,4.2,0.3,9-5.7,10c-4.9,0.8-7.7-1.4-7.9-6.7C440,389.7,440.1,382.7,440.1,375.7z"/>
	<path class="st1" d="M75.3,375.4c0-6.6,0-13.2,0-19.9c0-4.9-1.8-8.2-7.4-8.5c-4.4-0.3-8.3-1.7-8-7.2c0.3-5.4,4-6.5,8.6-6.4
		c4.6,0.1,6.7-2.6,6.8-6.9c0.1-2.3-0.1-4.7,0.1-7c0.3-3.8,2.4-6,6.4-6.1c4-0.1,6.2,1.8,6.7,5.7c0.2,1.7,0.2,3.5,0.3,5.2
		c0.3,7.3,1.2,8.4,8.2,9.1c4.3,0.5,7,2.6,7.2,6.9c0.2,4.4-2.9,6.2-6.8,6.3c-6.7,0.2-8.6,4.1-8.6,10c0,12.6,0,25.3-0.1,37.9
		c0,4.5-0.3,9-6.5,8.9c-5.8-0.1-6.8-4-6.8-8.8C75.3,388.2,75.3,381.8,75.3,375.4C75.3,375.4,75.3,375.4,75.3,375.4z"/>
	<path class="st4" d="M142.3,333.7c3.9,0.1,7.3,1.3,8,6.2c0.7,5.1-2.9,6.7-6.6,7.1c-15.8,2.1-22.3,11.9-21.9,27.6
		c0.2,7.6-0.3,15.2-0.6,22.7c-0.1,3.6-1.6,6-5.5,6.1c-4,0.1-7.2-1.5-7.3-5.8c-0.2-13.2-1.4-26.5,2.4-39.4
		C115,343.7,127.4,334,142.3,333.7z"/>
	<path class="st1" d="M319.5,369c0-8.7,0-17.5,0-26.2c0-4.8,1-8.9,6.7-8.9c5.3,0,6.7,3.9,6.7,8.4c0.1,17.7,0.1,35.4,0.1,53
		c0,4.6-1.4,8.1-6.9,8.1c-5.7,0-6.5-3.8-6.5-8.3c0-8.7,0-17.5,0-26.2C319.6,369,319.6,369,319.5,369z"/>
	<path class="st3" d="M326.2,319.1c0.2,1.1-0.1,2-1.2,2.2c-1.2,0.2-1.6-0.7-1.8-1.7c-0.7-2.4-1.3-4.9-2.2-7.2
		c-3.3-9.1-8.9-16.3-18.2-20c-1.2-0.5-2.9-1-2-2.8c0.6-1.3,2-0.7,3.1-0.3C313.9,292.3,326.4,309,326.2,319.1z"/>
	<path class="st2" d="M158.4,195.5c0.4,0.8,0.8,1.5,1.2,2.3c-1.2,0.1-2.4-0.2-2.7-1.4C156.7,195.4,157.8,195.6,158.4,195.5z"/>
</g>
</svg>
