<?xml version="1.0" encoding="utf-8"?>
<!-- Generator: Adobe Illustrator 26.3.1, SVG Export Plug-In . SVG Version: 6.00 Build 0)  -->
<svg version="1.1" id="Layer_1" xmlns="http://www.w3.org/2000/svg" xmlns:xlink="http://www.w3.org/1999/xlink" x="0px" y="0px"
	 viewBox="0 0 595.3 595.3" style="enable-background:new 0 0 595.3 595.3;" xml:space="preserve">
<style type="text/css">
	.st0{fill:#FFFFFF;}
	.st1{fill:#8DC63F;}
	.st2{fill:#FFC20E;}
	.st3{fill:#009057;}
	.st4{fill:#6950A1;}
</style>
<path class="st0" d="M297.6,595.3L297.6,595.3C133.3,595.3,0,462,0,297.6l0,0C0,133.3,133.3,0,297.6,0l0,0
	C462,0,595.3,133.3,595.3,297.6l0,0C595.3,462,462,595.3,297.6,595.3z"/>
<path class="st0" d="M584.9,375.9c0.5-2,1.1-4,1.6-6L584.9,375.9z"/>
<polygon class="st0" points="586.4,369.9 586.4,369.9 586.4,369.9 "/>
<g>
	<path class="st1" d="M279.3,404.2c-1.2,0.3-1.8,0.9-2.8,1.5c-39.7,27.7-79.7,55.4-119.4,83.1c-1.5,0.9-3.4,1.8-4,3.4
		c-0.3,0-0.3,0-0.6,0c-4-1.8-5.5-5.8-7.7-9.2c-12-20.3-19.4-42.5-21.2-66.2c-3.1-38.5,7.1-73.6,29.9-104.7
		c9.2-12.6,20.3-23.4,32.9-32.9c1.2-0.9,2.8-1.5,4-2.2c0.3,0,0.6,0,0.9,0c5.8,6.8,11.4,14.2,17.9,20.6c9.5,9.5,20.3,17.5,32,24.3
		c18.2,10.2,37.6,16.6,58.2,18.8c26.2,2.8,51.7-0.6,76-10.8c4.6-1.8,8.6-4,13.2-6.2c1.2-0.6,2.8-1.5,4.3-0.6
		c1.5,2.2-0.3,3.4-1.5,4.3c-8,5.5-16,11.1-24,16.6c-24.9,17.2-49.9,34.5-74.8,52c-3.1,2.2-6.2,4.3-9.2,6.5
		C282.1,403.9,280.9,404.5,279.3,404.2z"/>
	<path class="st2" d="M191.3,277.7c-0.3,0-0.6,0-0.9,0c-1.8,0.6-2.8-0.9-3.4-2.2c-5.2-7.4-10.5-14.8-15.7-22.5
		c-16-22.8-32.3-45.9-48.3-68.6c-5.8-8.6-12-16.9-17.9-25.5c-1.5-1.8-1.8-4.3-3.1-6.5c0-0.3,0-0.3,0-0.6c1.5,0,2.5-0.9,3.4-1.5
		c18.8-12.3,39.1-20.3,61.3-24c29.6-4.6,58.5-0.9,86.2,11.1c25.9,11.1,46.8,28.3,63.1,50.8c0.3,0.6,0.9,1.2,1.5,1.8
		c0.9,1.8-0.6,2.5-1.8,3.4c-5.5,4-11.1,8-16.9,12c-27.7,19.4-55.4,38.8-83.4,57.9c-6.8,4.6-13.5,9.5-20.3,14.2
		C193.5,278.3,192.5,278.6,191.3,277.7z"/>
	<path class="st3" d="M191.3,277.7c5.5-3.7,11.1-7.7,16.6-11.4c12.3-8.6,24.9-17.2,37.2-25.9c20.9-14.5,41.6-28.9,62.5-43.4
		c3.1-2.2,6.5-4.3,9.5-6.8c11.7-8,23.1-16,34.8-24c29.6-20.6,59.1-41.2,88.7-61.6c0.3,0,0.3-0.3,0.6-0.3c2.5-1.8,2.8-1.8,4.3,0.9
		c13.2,20,21.9,41.9,24.6,65.6c5.2,43.4-5.8,82.2-32.9,116.4c-8.9,11.4-19.7,20.9-31.4,28.9c-0.3,1.5-1.2,2.8-2.8,3.7
		c-2.5,1.2-4.6,3.4-6.8,4.9c-0.9,0.3-1.5,0-2.5,0h-0.3c-1.5,0.3-3.1,1.2-4.3,1.8c-15.1,8-31.1,13.2-47.7,15.7c-8,1.2-16,1.5-24,1.8
		c-13.5,0.3-27.1-1.5-40-5.2c-22.2-5.8-42.2-16.3-59.7-31.1c-8.9-7.7-16.9-16-24-25.5C192.2,280.4,191.3,279.2,191.3,277.7z"/>
	<path class="st4" d="M395.1,322.9c3.4-2.5,6.8-4.9,10.5-7.1c3.4,4.9,6.8,10.2,10.5,15.1c25.2,36,50.5,71.7,75.7,107.7
		c2.2,2.8,2.2,3.1-0.9,4.9c-21.2,13.9-44.3,22.8-69.6,24.9c-44.6,4-84-8.3-118.2-37.6c-8.9-7.7-16.9-16.6-23.7-26.5
		c1.8-1.8,4-3.1,6.2-4.6c16-11.1,32-22.2,48-33.2c19.1-13.2,38.2-26.5,57.3-40c0.9-0.6,1.8-1.2,2.5-2.2l0,0
		C393.9,323.5,394.5,323.2,395.1,322.9z"/>
	<path class="st0" d="M299.7,264.1c10.8,0,20,9.2,20,20c0,11.1-8.9,19.7-20,19.7s-20-9.2-20-20.3
		C279.7,273.1,288.6,264.1,299.7,264.1z"/>
</g>
</svg>
