<svg xmlns="http://www.w3.org/2000/svg" xml:space="preserve" id="Layer_1" x="0" y="0" style="enable-background:new 0 0 595.3 595.3" version="1.1" viewBox="0 0 595.3 595.3"><style>.st0{fill:#fff}</style><path d="M297.6 595.3C133.3 595.3 0 462 0 297.6 0 133.3 133.3 0 297.6 0 462 0 595.3 133.3 595.3 297.6c0 164.4-133.3 297.7-297.7 297.7" class="st0"/><path d="M584.9 375.9c.5-2 1.1-4 1.6-6zM586.4 369.9" class="st0"/><path d="M279.3 404.2c-1.2.3-1.8.9-2.8 1.5-39.7 27.7-79.7 55.4-119.4 83.1-1.5.9-3.4 1.8-4 3.4h-.6c-4-1.8-5.5-5.8-7.7-9.2-12-20.3-19.4-42.5-21.2-66.2-3.1-38.5 7.1-73.6 29.9-104.7 9.2-12.6 20.3-23.4 32.9-32.9 1.2-.9 2.8-1.5 4-2.2h.9c5.8 6.8 11.4 14.2 17.9 20.6 9.5 9.5 20.3 17.5 32 24.3 18.2 10.2 37.6 16.6 58.2 18.8 26.2 2.8 51.7-.6 76-10.8 4.6-1.8 8.6-4 13.2-6.2 1.2-.6 2.8-1.5 4.3-.6 1.5 2.2-.3 3.4-1.5 4.3-8 5.5-16 11.1-24 16.6-24.9 17.2-49.9 34.5-74.8 52-3.1 2.2-6.2 4.3-9.2 6.5-1.3 1.4-2.5 2-4.1 1.7" style="fill:#8dc63f"/><path d="M191.3 277.7h-.9c-1.8.6-2.8-.9-3.4-2.2-5.2-7.4-10.5-14.8-15.7-22.5-16-22.8-32.3-45.9-48.3-68.6-5.8-8.6-12-16.9-17.9-25.5-1.5-1.8-1.8-4.3-3.1-6.5v-.6c1.5 0 2.5-.9 3.4-1.5 18.8-12.3 39.1-20.3 61.3-24 29.6-4.6 58.5-.9 86.2 11.1 25.9 11.1 46.8 28.3 63.1 50.8.3.6.9 1.2 1.5 1.8.9 1.8-.6 2.5-1.8 3.4-5.5 4-11.1 8-16.9 12-27.7 19.4-55.4 38.8-83.4 57.9-6.8 4.6-13.5 9.5-20.3 14.2-1.6.8-2.6 1.1-3.8.2" style="fill:#ffc20e"/><path d="M191.3 277.7c5.5-3.7 11.1-7.7 16.6-11.4 12.3-8.6 24.9-17.2 37.2-25.9 20.9-14.5 41.6-28.9 62.5-43.4 3.1-2.2 6.5-4.3 9.5-6.8 11.7-8 23.1-16 34.8-24 29.6-20.6 59.1-41.2 88.7-61.6.3 0 .3-.3.6-.3 2.5-1.8 2.8-1.8 4.3.9 13.2 20 21.9 41.9 24.6 65.6 5.2 43.4-5.8 82.2-32.9 116.4-8.9 11.4-19.7 20.9-31.4 28.9-.3 1.5-1.2 2.8-2.8 3.7-2.5 1.2-4.6 3.4-6.8 4.9-.9.3-1.5 0-2.5 0h-.3c-1.5.3-3.1 1.2-4.3 1.8-15.1 8-31.1 13.2-47.7 15.7-8 1.2-16 1.5-24 1.8-13.5.3-27.1-1.5-40-5.2-22.2-5.8-42.2-16.3-59.7-31.1-8.9-7.7-16.9-16-24-25.5-1.5-1.8-2.4-3-2.4-4.5" style="fill:#009057"/><path d="M395.1 322.9c3.4-2.5 6.8-4.9 10.5-7.1 3.4 4.9 6.8 10.2 10.5 15.1 25.2 36 50.5 71.7 75.7 107.7 2.2 2.8 2.2 3.1-.9 4.9-21.2 13.9-44.3 22.8-69.6 24.9-44.6 4-84-8.3-118.2-37.6-8.9-7.7-16.9-16.6-23.7-26.5 1.8-1.8 4-3.1 6.2-4.6 16-11.1 32-22.2 48-33.2 19.1-13.2 38.2-26.5 57.3-40 .9-.6 1.8-1.2 2.5-2.2.5-.8 1.1-1.1 1.7-1.4" style="fill:#6950a1"/><path d="M299.7 264.1c10.8 0 20 9.2 20 20 0 11.1-8.9 19.7-20 19.7s-20-9.2-20-20.3c0-10.4 8.9-19.4 20-19.4" class="st0"/></svg>