<?xml version="1.0" encoding="utf-8"?>
<!-- Generator: Adobe Illustrator 26.3.1, SVG Export Plug-In . SVG Version: 6.00 Build 0)  -->
<svg version="1.1" id="Layer_1" xmlns="http://www.w3.org/2000/svg" xmlns:xlink="http://www.w3.org/1999/xlink" x="0px" y="0px"
	 viewBox="0 0 595.3 595.3" style="enable-background:new 0 0 595.3 595.3;" xml:space="preserve">
<style type="text/css">
	.st0{fill:#FFFFFF;}
	.st1{fill:#8DC63F;}
	.st2{fill:#FFC20E;}
	.st3{fill:#009057;}
	.st4{fill:#6950A1;}
	.st5{fill:#111111;}
</style>
<path class="st0" d="M297.6,595.3L297.6,595.3C133.3,595.3,0,462,0,297.6v0C0,133.3,133.3,0,297.6,0h0
	C462,0,595.3,133.3,595.3,297.6v0C595.3,462,462,595.3,297.6,595.3z"/>
<g>
	<path class="st1" d="M93.4,332.3c-0.4,0.1-0.6,0.3-0.9,0.5c-12.9,9-25.9,18-38.8,27c-0.5,0.3-1.1,0.6-1.3,1.1c-0.1,0-0.1,0-0.2,0
		c-1.3-0.6-1.8-1.9-2.5-3c-3.9-6.6-6.3-13.8-6.9-21.5c-1-12.5,2.3-23.9,9.7-34c3-4.1,6.6-7.6,10.7-10.7c0.4-0.3,0.9-0.5,1.3-0.7
		c0.1,0,0.2,0,0.3,0c1.9,2.2,3.7,4.6,5.8,6.7c3.1,3.1,6.6,5.7,10.4,7.9c5.9,3.3,12.2,5.4,18.9,6.1c8.5,0.9,16.8-0.2,24.7-3.5
		c1.5-0.6,2.8-1.3,4.3-2c0.4-0.2,0.9-0.5,1.4-0.2c0.5,0.7-0.1,1.1-0.5,1.4c-2.6,1.8-5.2,3.6-7.8,5.4c-8.1,5.6-16.2,11.2-24.3,16.9
		c-1,0.7-2,1.4-3,2.1C94.3,332.2,93.9,332.4,93.4,332.3z"/>
	<path class="st2" d="M64.8,291.2c-0.1,0-0.2,0-0.3,0c-0.6,0.2-0.9-0.3-1.1-0.7c-1.7-2.4-3.4-4.8-5.1-7.3
		c-5.2-7.4-10.5-14.9-15.7-22.3c-1.9-2.8-3.9-5.5-5.8-8.3c-0.5-0.6-0.6-1.4-1-2.1c0-0.1,0-0.1,0-0.2c0.5,0,0.8-0.3,1.1-0.5
		c6.1-4,12.7-6.6,19.9-7.8c9.6-1.5,19-0.3,28,3.6c8.4,3.6,15.2,9.2,20.5,16.5c0.1,0.2,0.3,0.4,0.5,0.6c0.3,0.6-0.2,0.8-0.6,1.1
		c-1.8,1.3-3.6,2.6-5.5,3.9c-9,6.3-18,12.6-27.1,18.8c-2.2,1.5-4.4,3.1-6.6,4.6C65.5,291.4,65.2,291.5,64.8,291.2z"/>
	<path class="st3" d="M64.8,291.2c1.8-1.2,3.6-2.5,5.4-3.7c4-2.8,8.1-5.6,12.1-8.4c6.8-4.7,13.5-9.4,20.3-14.1
		c1-0.7,2.1-1.4,3.1-2.2c3.8-2.6,7.5-5.2,11.3-7.8c9.6-6.7,19.2-13.4,28.8-20c0.1,0,0.1-0.1,0.2-0.1c0.8-0.6,0.9-0.6,1.4,0.3
		c4.3,6.5,7.1,13.6,8,21.3c1.7,14.1-1.9,26.7-10.7,37.8c-2.9,3.7-6.4,6.8-10.2,9.4c-0.1,0.5-0.4,0.9-0.9,1.2
		c-0.8,0.4-1.5,1.1-2.2,1.6c-0.3,0.1-0.5,0-0.8,0c0,0-0.1,0-0.1,0c-0.5,0.1-1,0.4-1.4,0.6c-4.9,2.6-10.1,4.3-15.5,5.1
		c-2.6,0.4-5.2,0.5-7.8,0.6c-4.4,0.1-8.8-0.5-13-1.7c-7.2-1.9-13.7-5.3-19.4-10.1c-2.9-2.5-5.5-5.2-7.8-8.3
		C65.1,292.1,64.8,291.7,64.8,291.2z"/>
	<path class="st4" d="M131,305.9c1.1-0.8,2.2-1.6,3.4-2.3c1.1,1.6,2.2,3.3,3.4,4.9c8.2,11.7,16.4,23.3,24.6,35
		c0.7,0.9,0.7,1-0.3,1.6c-6.9,4.5-14.4,7.4-22.6,8.1c-14.5,1.3-27.3-2.7-38.4-12.2c-2.9-2.5-5.5-5.4-7.7-8.6c0.6-0.6,1.3-1,2-1.5
		c5.2-3.6,10.4-7.2,15.6-10.8c6.2-4.3,12.4-8.6,18.6-13c0.3-0.2,0.6-0.4,0.8-0.7c0,0,0,0,0,0C130.6,306.1,130.8,306,131,305.9z"/>
	<path class="st0" d="M100,286.8c3.5,0,6.5,3,6.5,6.5c0,3.6-2.9,6.4-6.5,6.4c-3.6,0-6.5-3-6.5-6.6C93.5,289.7,96.4,286.8,100,286.8z
		"/>
	<path class="st5" d="M479,278.2c-10.2-7.6-24.7-7.3-33.9,1.1c-0.1,0.1-0.2,0.3-0.5,0.2c-0.1-0.4-0.1-0.7-0.1-1.1
		c0-6.2,0-12.3,0-18.5c0-0.3,0-0.6,0-0.8c0.1-0.6-0.2-0.7-0.7-0.7c-0.2,0-0.5,0-0.7,0c-4.2,0-8.5,0-12.7,0c-1.8,0-1.6-0.3-1.6,1.6
		c0,24.5,0,49,0,73.5c0,0.2,0,0.4,0,0.6c0,0.9,0,1,0.9,0.9c3.9-0.3,7.3-1.8,10.1-4.5c0.9-0.8,1.6-1.8,2.3-2.8
		c0.9,0.9,1.7,1.8,2.6,2.5c7.2,5.8,15.5,7.4,24.4,5.3c8.3-2,14.4-7.1,18.5-14.5c4.1-7.6,5.1-15.7,3.3-24
		C489.1,289.3,485.3,282.9,479,278.2z M472,316.1c-6,7.5-16.8,7.7-23.1,0.4c-3.5-4.1-4.8-8.9-4.2-14.2c0.5-4,2-7.5,4.8-10.4
		c6.2-6.5,16.1-6.3,21.9,0.5c2.9,3.3,4.4,7.6,4.4,12.3C475.8,308.9,474.7,312.7,472,316.1z"/>
	<path class="st5" d="M559.1,297.9c-3.8-17.4-20.6-28.4-38.1-24.8c-18.2,3.8-29.4,22.4-24.2,40.2c4.7,16.2,21.1,25.9,37.6,22.3
		c14.6-3.2,24.5-15.9,25.1-29.1c0-1.3,0-2.7,0-4C559.6,301,559.4,299.4,559.1,297.9z M527.7,321.6c-9.6,0-17.3-7.7-17.3-17.2
		c0-9.5,7.8-17.2,17.3-17.2c9.6,0,17.2,7.7,17.2,17.2C544.9,313.9,537.2,321.6,527.7,321.6z"/>
	<path class="st5" d="M383.9,310.6c6.1,0,12.3,0,18.4,0c4.2,0,8.2-0.8,11.9-2.9c6.9-3.9,9.5-10.7,8.2-17.6
		c-1.3-7.2-5.6-12.2-12.2-15.1c-7.7-3.3-15.6-3.4-23.5-0.4c-13.6,5.2-22,19.4-20.1,33.9c1.4,11,7.1,19.2,16.8,24.4
		c8.4,4.5,17.3,4.5,26.2,1.5c3.2-1.1,6-2.7,8.6-4.9c0.6-0.5,0.6-0.5,0.1-0.9c-3.2-3.1-6.5-6.2-9.7-9.4c-0.4-0.4-0.6-0.4-1,0
		c-3.9,3.2-8.5,4-13.3,3.1c-5.5-1.1-9.1-4.5-11.2-9.5c-0.3-0.6-0.5-1.3-0.6-2C383,310.6,383.5,310.6,383.9,310.6z M400.7,286.5
		c1.4,0.2,2.7,0.7,3.9,1.4c1.1,0.6,2,1.4,2.7,2.6c1.4,2.4,0.6,5-1.9,6.3c-1.3,0.6-2.6,0.9-4,1c-1.1,0.1-2.2,0.1-3.3,0.1
		c-4.7,0-9.4,0-14,0c-0.4,0-0.8,0-1.2-0.1C385.2,289.9,392.4,285,400.7,286.5z"/>
	<path class="st5" d="M324.1,310.6c6.1,0,12.2,0,18.3,0c2.2,0,4.5-0.2,6.6-0.8c1.6-0.4,3.2-1,4.7-1.8c8-4.1,10.6-11.9,8.7-19.3
		c-1.8-7-6.4-11.7-13.1-14.3c-2.4-1-4.9-1.5-7.5-1.8c-6.5-0.7-12.6,0.4-18.3,3.5c-12,6.5-18.7,20-16.3,33.6c2.1,11.8,8.9,20,20,24.5
		c5.9,2.4,12,2.5,18.2,1.3c4.7-0.9,8.9-2.8,12.7-5.7c0.4-0.3,0.7-0.5,1-0.9c-0.2-0.4-0.5-0.5-0.7-0.8c-3-2.9-6-5.8-9.1-8.7
		c-0.1-0.1-0.3-0.2-0.4-0.4c-0.3-0.4-0.6-0.4-0.9,0c-1.3,1.2-2.9,2-4.6,2.6c-3.1,1-6.2,1.2-9.3,0.4c-6-1.5-9.5-5.6-11.4-11.4
		C323.3,310.6,323.7,310.6,324.1,310.6z M336.2,286.4c2.5-0.2,4.9,0,7.2,0.8c1.3,0.5,2.4,1.2,3.3,2.1c0.7,0.7,1.1,1.5,1.3,2.4
		c0.5,2-0.3,3.7-2.2,4.8c-1.3,0.7-2.8,1-4.3,1.1c-1.1,0.1-2.2,0.1-3.2,0.1c-4.7,0-9.4,0-14.1,0c-0.4,0-0.8,0.1-1.2-0.1
		C324.6,291.6,330.1,287,336.2,286.4z"/>
	<path class="st5" d="M258.7,274.4c0-0.4-0.1-0.6-0.6-0.6c-0.2,0-0.5,0-0.7,0c-4.4,0-8.7,0-13.1,0c-1.2,0-1.1,0.1-1.1-1.1
		c0-0.1,0-0.3,0-0.4c0-4.3,0-8.6,0-12.9c0-0.9,0-0.9-0.9-0.9c-4.6,0-9.3,0-13.9,0c-0.7,0-0.7,0-0.8,0.7c-0.2,3.4-1.3,6.4-3.5,9
		c-2.9,3.5-6.6,5.4-11.2,5.6c-0.4,0-0.7,0.1-0.7,0.6c0,4.8,0,9.6,0,14.3c0,0.5,0.2,0.6,0.6,0.6c0.2,0,0.4,0,0.6,0
		c4.4,0,8.8,0,13.2,0c1,0,1,0,1,1c0,3.5,0,7,0,10.5c0,0,0,0,0,0c0,3.1,0,6.2,0,9.3c0.1,3.4,0.6,6.7,1.7,9.9
		c2.1,5.9,5.8,10.4,11.7,12.7c4.2,1.7,8.7,2,13.2,1.6c0.6-0.1,0.6-0.4,0.6-0.8c0-4.2,0-8.4,0-12.6c0-0.7,0-0.7-0.8-0.7
		c-1.1,0-2.2,0-3.2-0.2c-3.6-0.6-6-2.5-7-6.1c-0.5-1.7-0.6-3.4-0.6-5.1c0-6.1,0-12.1,0-18.2c0-0.2,0-0.4,0-0.6
		c0-0.4,0.2-0.6,0.6-0.6c0.3,0,0.6,0,0.8,0c4.3,0,8.5,0,12.8,0c0.3,0,0.6,0,0.8,0c0.4,0,0.5-0.2,0.5-0.5c0-0.2,0-0.4,0-0.6
		c0-4.5,0-8.9,0-13.4C258.7,274.8,258.7,274.6,258.7,274.4z"/>
	<path class="st5" d="M306.8,279.3c0-1.5,0-2.9,0-4.4c0-0.8,0-0.8-0.9-0.9c-1.1,0-2.2,0-3.2,0c-7,0-12.7,2.9-17.3,8.2
		c-0.2,0.3-0.4,0.6-0.8,0.8c-0.2-0.4-0.4-0.7-0.6-1.1c-2.8-4.7-6.8-7.4-12.2-8c-1.7-0.2-1.5-0.2-1.5,1.4c0,15.6,0,31.2,0,46.8
		c0,3.9,0,7.8,0,11.7c0,1,0,1,1,1c4.6,0,9.1,0,13.7,0c0.9,0,0.9,0,0.9-0.9c0-2.5,0-5.1,0-7.6c0-7.1,0-14.2,0-21.3
		c0-2.9,0.3-5.7,1.4-8.4c1.3-3.3,3.8-5.5,7.2-6.5c1.5-0.4,3-0.6,4.5-0.7c2.3,0,4.5,0,6.8,0c0.9,0,0.9,0,0.9-0.9
		C306.8,285.5,306.8,282.4,306.8,279.3z"/>
</g>
</svg>
