<svg xmlns="http://www.w3.org/2000/svg" xml:space="preserve" style="enable-background:new 0 0 595.3 595.3" viewBox="0 0 595.3 595.3"><path d="M297.6 595.3C133.3 595.3 0 462 0 297.6 0 133.3 133.3 0 297.6 0 462 0 595.3 133.3 595.3 297.6c0 164.4-133.3 297.7-297.7 297.7" style="fill:#fff"/><path d="M262.8 117.1h138.4c3.7 0 4.8.7 4.8 4.5-.4 19.4 0 38.8 0 58.2 0 3-.7 4.1-4.1 4.1h-94.7c-3.7 0-4.8.7-4.8 4.8v274.9c0 1.9-.7 2.6-2.6 2.6h-74.6c-1.9 0-3-.7-2.6-2.6V188.3c0-3.7-.7-4.8-4.8-4.8h-94.7c-3.4 0-4.1-.7-4.1-4.1v-58.6c0-3.4.7-4.1 4.1-4.1 47.1.4 93.4.4 139.7.4" style="fill:#047bc0"/><path d="M476.5 430.4c0 26.1-20.9 47.7-47 48.1-26.9.4-48.5-20.9-48.5-47.4-.4-26.1 21.3-48.1 47.7-48.1 26.2.1 47.8 21.3 47.8 47.4" style="fill:#fbaf18"/></svg>