<?xml version="1.0" encoding="utf-8"?>
<!-- Generator: Adobe Illustrator 26.3.1, SVG Export Plug-In . SVG Version: 6.00 Build 0)  -->
<svg version="1.1" id="Layer_1" xmlns="http://www.w3.org/2000/svg" xmlns:xlink="http://www.w3.org/1999/xlink" x="0px" y="0px"
	 viewBox="0 0 595.3 595.3" style="enable-background:new 0 0 595.3 595.3;" xml:space="preserve">
<style type="text/css">
	.st0{fill:#FFFFFF;}
	.st1{fill:#00E09E;}
	.st2{fill:#010101;}
</style>
<path class="st0" d="M297.6,595.3L297.6,595.3C133.3,595.3,0,462,0,297.6v0C0,133.3,133.3,0,297.6,0h0
	C462,0,595.3,133.3,595.3,297.6v0C595.3,462,462,595.3,297.6,595.3z"/>
<g>
	<path class="st1" d="M94.1,241.9c1.3,0.1,2.6,0.2,3.9,0.4c5.5,0.6,10.7,2,15.8,4.3c7.3,3.2,13.7,7.8,19,13.7
		c2.9,3.2,5.4,6.7,7.4,10.4c3,5.4,5,11.1,6.1,17.2c0.4,2.4,0.7,4.8,0.8,7.2c0.3,5.6-0.3,11.1-1.7,16.6c-1.3,5.2-3.4,10-6.1,14.6
		c-2.9,4.8-6.4,9.1-10.6,12.8c-3.1,2.8-6.4,5.2-10.1,7.2c-3.3,1.8-6.8,3.4-10.5,4.5c-3.8,1.2-7.7,2-11.7,2.3c-4,0.4-8,0.3-12-0.2
		c-5.3-0.7-10.4-2.1-15.3-4.2c-4.4-1.9-8.5-4.3-12.2-7.3c-4.1-3.2-7.7-6.9-10.7-11.1c-3.5-4.9-6.2-10.2-8-15.9
		c-1.2-3.8-1.9-7.6-2.3-11.5c-0.3-3.2-0.4-6.4-0.1-9.7c0.5-5.9,1.8-11.5,4.1-17c2.8-6.6,6.6-12.4,11.5-17.5
		c3.7-3.8,7.9-7.1,12.5-9.7c4.3-2.5,8.9-4.3,13.7-5.5c3.3-0.8,6.7-1.4,10.1-1.6c0.3,0,0.6,0,0.9-0.1
		C90.5,241.9,92.3,241.9,94.1,241.9z M50.3,279.4c0.2,0.3,0.3,0.3,0.3,0.4c1.9,2.1,3.9,4.2,5.8,6.3c0.4,0.5,0.5,0.7,0,1.2
		c-1.6,1.5-2.8,3.2-3.8,5.1c-1.7,3.2-2.4,6.7-2.3,10.3c0.1,2.8,0.7,5.5,1.9,8c1.5,3.1,3.6,5.7,6.4,7.8c2.9,2.1,6,3.4,9.6,3.9
		c3.6,0.5,7.1,0,10.5-1.3c2.1-0.8,4-2,5.7-3.5c0.4-0.4,0.6-0.4,1,0c1.7,1.9,3.4,3.7,5,5.5c1.1,1.3,1.1,1.3,2.2,0
		c1.7-1.9,3.4-3.7,5.1-5.6c0.3-0.3,0.5-0.3,0.8-0.1c1.5,1.3,3.1,2.4,4.9,3.2c4.3,2,8.8,2.4,13.5,1.3c4.6-1.1,8.4-3.6,11.4-7.3
		c2.2-2.7,3.5-5.9,4.1-9.4c0.6-3.8,0.2-7.6-1.3-11.1c-1.1-2.7-2.6-5-4.7-7c-0.3-0.3-0.4-0.5,0-0.9c1.3-1.4,2.6-2.8,3.9-4.2
		c0.8-0.8,1.5-1.7,2.4-2.6c-0.4,0-0.5,0-0.7,0c-3.8,0-7.7,0-11.5,0c-1.7,0-3.3,0-4.6-1.3c-0.2-0.2-0.5-0.2-0.7-0.4
		c-5.6-3.3-11.6-5.3-18-6.1c-6.8-0.8-13.5-0.2-20.1,2c-4,1.3-7.7,3.1-11.2,5.4c-0.3,0.2-0.7,0.4-1.1,0.4c-3.1,0-6.1,0-9.2,0
		C53.8,279.4,52.1,279.4,50.3,279.4z"/>
	<path class="st2" d="M180.9,298c0,7.8,0,15.5,0,23.3c0,0.4-0.1,0.6-0.5,0.6c-3.3,0-6.5,0-9.8,0c-0.6,0-0.5-0.3-0.5-0.7
		c0-15.4,0-30.8,0-46.2c0-0.7-0.1-0.9-0.8-0.9c-4.7,0-9.3,0-14,0c-0.5,0-0.7-0.1-0.6-0.6c0-2.8,0-5.7,0-8.5c0-0.5,0.1-0.6,0.7-0.6
		c13.5,0,27.1,0,40.6,0c0.5,0,0.6,0.2,0.6,0.6c0,2.8,0,5.7,0,8.5c0,0.5-0.1,0.6-0.6,0.6c-4.7,0-9.4,0-14.2,0c-0.6,0-0.7,0.2-0.7,0.7
		C180.9,282.5,180.9,290.3,180.9,298z"/>
	<path class="st2" d="M454.6,307.5c1.6,0,3.1,0,4.7,0c0.4,0,0.6,0,0.6,0.6c0,3,2.2,5.3,5.2,5.7c2,0.2,4,0,5.7-1.1
		c2.2-1.5,2.3-4.7,0.2-6.4c-1.4-1.1-3-1.6-4.6-2c-2.6-0.7-5.2-1.4-7.7-2.2c-2.8-0.9-5.2-2.4-6.8-4.9c-3-4.4-2.2-10.5,1.8-14.1
		c2.6-2.3,5.7-3.6,9.1-4c3.5-0.5,6.9-0.3,10.3,0.9c4,1.4,6.9,4,8.2,8.2c0.3,1.1,0.5,2.3,0.5,3.4c0,0.3-0.1,0.4-0.4,0.4
		c-3.1,0-6.1,0-9.2,0c-0.2,0-0.4,0-0.4-0.3c-0.1-2.6-2.2-4.2-4.5-4.5c-1.5-0.2-3-0.1-4.4,0.6c-1.2,0.6-2.1,1.4-2.2,2.8
		c-0.1,1.7,0.7,2.7,2.1,3.4c1.6,0.9,3.5,1.3,5.3,1.8c2.5,0.7,5,1.2,7.4,2.2c3.2,1.3,5.8,3.2,7,6.6c1.4,3.8,0.9,7.5-1.2,11
		c-2.2,3.7-5.7,5.8-9.8,6.7c-5.8,1.3-11.4,0.7-16.4-2.9c-3.1-2.2-4.8-5.2-5.4-8.9c-0.1-0.7-0.1-1.4-0.2-2c-0.1-0.5,0.1-0.7,0.6-0.6
		C451.5,307.6,453,307.6,454.6,307.5C454.6,307.5,454.6,307.5,454.6,307.5z"/>
	<path class="st2" d="M386.7,279.4c3.7,0,7.4,0,11.1,0c0.4,0,0.5,0.3,0.6,0.5c1,3,1.9,6,2.8,9c1.5,4.8,3,9.5,4.5,14.3
		c0.7,2.1,1.3,4.1,2,6.2c0.1,0.2,0.1,0.4,0.3,0.6c1.6-5.2,3.2-10.3,4.8-15.4c1.6-4.9,3.1-9.9,4.7-14.8c0.1-0.2,0.2-0.4,0.5-0.4
		c3.7,0,7.3,0,11.1,0c-0.4,1.3-0.8,2.5-1.3,3.8c-1.4,4-2.8,8.1-4.2,12.1c-3,8.7-6,17.3-9,26c-0.1,0.4-0.3,0.5-0.7,0.5
		c-4,0-7.9,0-11.9,0c-0.6,0-0.8-0.2-1-0.7c-1.2-3.4-2.3-6.9-3.5-10.3c-3.5-10.2-7-20.5-10.5-30.7C386.9,280,386.8,279.7,386.7,279.4
		z"/>
	<path class="st2" d="M201.9,285.9c0.6-2,1.6-3.7,3.3-4.9c1.4-1,2.9-1.5,4.6-1.5c1.7,0,3.5,0,5.2,0c0.4,0,0.5,0.1,0.5,0.5
		c0,3,0,6,0,9c0,0.5-0.1,0.6-0.6,0.6c-2,0-4,0-6,0c-2.4,0.1-4.5,0.7-5.9,2.8c-0.8,1.2-1.1,2.5-1.1,3.9c0,8.3,0,16.5,0,24.8
		c0,0.6-0.2,0.8-0.8,0.8c-3.2,0-6.4,0-9.6,0c-0.6,0-0.6-0.3-0.6-0.7c0-11,0-21.9,0-32.9c0-2.8,0-5.5,0-8.3c0-0.5,0.1-0.6,0.6-0.6
		c3.3,0,6.5,0,9.8,0c0.5,0,0.6,0.1,0.6,0.6C201.9,282,201.9,284,201.9,285.9z"/>
	<path class="st2" d="M546.1,286c0.4-0.9,0.7-1.9,1.2-2.8c1.5-2.4,3.7-3.6,6.5-3.8c1.8-0.1,3.6,0,5.4,0c0.4,0,0.5,0.1,0.5,0.5
		c0,3.1,0,6.1,0,9.2c0,0.4-0.1,0.5-0.5,0.5c-2,0-4,0-6,0c-1.6,0-3.1,0.4-4.4,1.3c-1.9,1.3-2.6,3.3-2.6,5.6c0,8.2,0,16.4,0,24.7
		c0,0.6-0.1,0.8-0.8,0.8c-3.2,0-6.4,0-9.5,0c-0.5,0-0.7-0.1-0.6-0.7c0-13.7,0-27.3,0-41c0-0.6,0.1-0.8,0.8-0.8c3.2,0,6.4,0,9.6,0
		c0.5,0,0.6,0.1,0.6,0.6C546.1,282,546.1,284,546.1,286z"/>
	<path class="st2" d="M444.5,300.7c0,6.7,0,13.4,0,20.2c0,1,0,1-0.9,1c-3.1,0-6.2,0-9.3,0c-0.5,0-0.7-0.1-0.7-0.7
		c0-13.7,0-27.3,0-41c0-0.6,0.1-0.8,0.8-0.8c3.1,0,6.3,0,9.4,0c0.6,0,0.8,0.1,0.8,0.7C444.5,287,444.5,293.9,444.5,300.7z"/>
	<path class="st2" d="M231.1,300.6c0,6.8,0,13.7,0,20.5c0,0.5-0.1,0.7-0.7,0.7c-3.2,0-6.5,0-9.7,0c-0.4,0-0.6-0.1-0.6-0.5
		c0-0.1,0-0.2,0-0.3c0-13.6,0-27.2,0-40.8c0-0.6,0.1-0.8,0.7-0.7c3.2,0,6.4,0,9.6,0c0.4,0,0.6,0,0.6,0.5
		C231.1,286.9,231.1,293.7,231.1,300.6z"/>
	<path class="st2" d="M219.1,269.3c-0.1-3.5,2.7-6.7,6.7-6.7c3.6,0,6.5,3,6.5,6.8c0,3.6-3,6.6-6.6,6.6
		C221.7,275.9,219,272.8,219.1,269.3z"/>
	<path class="st2" d="M445.6,269.3c0.1,3.3-2.5,6.7-6.6,6.6c-4.1,0-6.6-3.4-6.5-6.7c0-3.7,2.9-6.6,6.5-6.6
		C442.8,262.7,445.6,265.5,445.6,269.3z"/>
	<path class="st2" d="M50.3,279.4c1.8,0,3.5,0,5.2,0c3.1,0,6.1,0,9.2,0c0.4,0,0.8-0.1,1.1-0.4c3.5-2.3,7.2-4.1,11.2-5.4
		c6.5-2.1,13.2-2.8,20.1-2c6.4,0.8,12.4,2.8,18,6.1c0.2,0.1,0.5,0.2,0.7,0.4c1.3,1.3,2.9,1.3,4.6,1.3c3.8,0,7.7,0,11.5,0
		c0.2,0,0.4,0,0.7,0c-0.9,0.9-1.6,1.8-2.4,2.6c-1.3,1.4-2.6,2.8-3.9,4.2c-0.3,0.3-0.3,0.5,0,0.9c2.1,2,3.7,4.3,4.7,7
		c1.5,3.6,1.9,7.3,1.3,11.1c-0.5,3.5-1.9,6.6-4.1,9.4c-3,3.7-6.8,6.2-11.4,7.3c-4.6,1.1-9.1,0.7-13.5-1.3c-1.8-0.8-3.5-1.9-4.9-3.2
		c-0.3-0.3-0.5-0.3-0.8,0.1c-1.7,1.9-3.4,3.7-5.1,5.6c-1.1,1.3-1.1,1.3-2.2,0c-1.7-1.9-3.4-3.7-5-5.5c-0.4-0.4-0.6-0.4-1,0
		c-1.7,1.5-3.6,2.7-5.7,3.5c-3.4,1.4-6.9,1.8-10.5,1.3c-3.5-0.5-6.7-1.8-9.6-3.9c-2.8-2.1-4.9-4.7-6.4-7.8c-1.2-2.5-1.8-5.2-1.9-8
		c-0.1-3.6,0.7-7.1,2.3-10.3c1-1.9,2.2-3.6,3.8-5.1c0.5-0.4,0.4-0.7,0-1.2c-2-2.1-3.9-4.2-5.8-6.3C50.5,279.8,50.5,279.7,50.3,279.4
		z M70.8,315.8c7.8,0,14-6.2,14-13.9c0-7.6-6.2-13.8-13.8-13.9c-7.6,0-14.3,6.1-14,14.6C57.2,309.7,63.3,315.9,70.8,315.8z
		 M112,315.9c7.5,0.1,14.2-6.1,13.9-14.4c-0.2-7.3-6.3-13.5-14.2-13.4c-7.4,0.1-13.7,6.4-13.6,13.9
		C98.1,309.7,104.3,315.9,112,315.9z M106.7,281.2c-3.9-1.7-9.3-3.1-15.3-3.1c-5.1,0-13.5,1.7-15.2,3.1c8.4,3.7,14.1,9.6,15.2,18.8
		C92.6,290.8,98.3,284.9,106.7,281.2z"/>
	<path class="st2" d="M382.9,320.1c0-18.3,0-36.6,0-55c0-0.7-0.2-0.8-0.8-0.8c-3.1,0-6.2,0-9.3,0c-0.6,0-0.8,0.2-0.8,0.8
		c0,5.7,0,11.5,0,17.2c0,0.2,0.1,0.4-0.1,0.6c-0.2,0.1-0.3-0.1-0.4-0.2c-4.5-3.2-9.5-4.4-15-3.8c-5.2,0.6-9.7,2.8-13.3,6.7
		c-4.2,4.5-6.3,9.9-6,16c0.3,6.1,2.7,11.2,7.2,15.3c6.6,6,16.4,7.4,24.3,3.4c1.1-0.5,2.1-1.2,3.2-2c0,1.1,0,2.1,0,3.1
		c0,0.3,0.1,0.5,0.4,0.5c3.4,0,6.7,0,10.1,0c0.3,0,0.4-0.1,0.4-0.4C382.9,321,382.9,320.5,382.9,320.1z M372,301.1
		c-0.2,6.9-6.2,12-12.9,11.5c-6.6-0.5-11.5-6.4-10.9-13c0.6-6.4,6.4-11.3,12.8-10.8C367.8,289.4,372.3,295.1,372,301.1z"/>
	<path class="st2" d="M278.7,287.4c-3-3.9-6.9-6.6-11.6-7.9c-6.7-1.8-12.9-0.6-18.7,3.4c0-1,0-2,0-2.9c0-0.5-0.1-0.6-0.6-0.6
		c-3.2,0-6.4,0-9.6,0c-0.5,0-0.7,0.1-0.7,0.7c0,17.9,0,35.7,0,53.6c0,0.5,0.1,0.6,0.6,0.6c3.2,0,6.3,0,9.5,0c0.7,0,0.9-0.2,0.9-0.9
		c0-5,0-10,0-15.1c3.1,2.3,6.5,3.7,10.2,4.1c3.7,0.4,7.3,0,10.8-1.4c3.5-1.4,6.4-3.6,8.8-6.5C284.5,306.9,284.8,295.5,278.7,287.4z
		 M272.1,300.7c0,6.6-5.3,11.9-11.9,11.9c-6.8,0-12-5.6-11.9-12.2c0.1-6.3,5.4-11.6,12-11.6C266.9,288.8,272.2,294.3,272.1,300.7z"
		/>
	<path class="st2" d="M332.7,300.7c0-6.9,0-13.7,0-20.6c0-0.3,0.1-0.7-0.5-0.7c-3.3,0-6.7,0-10,0c-0.4,0-0.5,0.1-0.5,0.5
		c0,1,0,1.9,0,3.1c-4.9-3.6-10.3-4.9-16.1-4c-5.8,0.9-10.6,3.7-14.2,8.4c-6.1,7.9-5.9,19.1,0.4,27c3.1,3.9,7.1,6.5,11.9,7.6
		c6.5,1.5,12.5,0.3,18-3.6c0,1,0,2,0,2.9c0,0.5,0.1,0.7,0.6,0.7c3.2,0,6.4,0,9.5,0c0.6,0,0.8-0.1,0.8-0.8
		C332.7,314.3,332.7,307.5,332.7,300.7z M309.9,312.6c-6.6,0-12-5.4-11.9-11.9c0-6.6,5.3-11.9,11.9-11.9c6.6,0,11.9,5.3,11.9,11.9
		C321.8,307.2,316.4,312.6,309.9,312.6z"/>
	<path class="st2" d="M530.1,300.1c-0.2-11.7-10-21.7-22.5-21.4c-11.5,0.3-22,9.9-21.4,23.2c0.6,11.3,10,20.7,22,20.7
		C520.3,322.6,530.4,312.6,530.1,300.1z M508.2,312.6c-6.6,0-11.9-5.2-11.9-11.7c-0.1-6.8,5.3-12.1,12.1-12.1
		c6.4,0,11.7,5.5,11.7,11.9C520.1,307.2,514.7,312.6,508.2,312.6z"/>
	<path class="st1" d="M70.8,315.8c-7.5,0.1-13.6-6.1-13.9-13.2c-0.3-8.5,6.4-14.6,14-14.6c7.7,0,13.8,6.3,13.8,13.9
		C84.8,309.6,78.6,315.9,70.8,315.8z M78.1,302c0.1-4-3.3-7.4-7.5-7.3c-3.8,0.1-7.1,3.4-7.1,7.4c0,3.9,3.3,7.2,7.2,7.2
		C74.8,309.3,78.2,305.9,78.1,302z"/>
	<path class="st1" d="M112,315.9c-7.7,0-13.9-6.2-13.9-13.9c0-7.5,6.2-13.8,13.6-13.9c8-0.1,14,6.1,14.2,13.4
		C126.2,309.8,119.5,315.9,112,315.9z M119.3,302.1c0.1-4.1-3.2-7.5-7.4-7.4c-3.9,0.1-7,3-7.2,7c-0.1,4.6,3.5,7.6,7.3,7.6
		C116,309.2,119.3,306,119.3,302.1z"/>
	<path class="st1" d="M106.7,281.2c-8.5,3.7-14.2,9.6-15.3,18.9c-1.1-9.2-6.8-15.1-15.2-18.8c1.8-1.4,10.1-3.1,15.2-3.1
		C97.4,278.1,102.9,279.4,106.7,281.2z"/>
	<path class="st2" d="M78.1,302c0.1,3.9-3.3,7.3-7.4,7.3c-3.9-0.1-7.2-3.3-7.2-7.2c0-4,3.2-7.3,7.1-7.4
		C74.8,294.6,78.2,298,78.1,302z"/>
	<path class="st2" d="M119.3,302.1c0,3.9-3.3,7.2-7.3,7.2c-3.8,0-7.5-3-7.3-7.6c0.1-4,3.3-6.9,7.2-7
		C116.1,294.6,119.4,298,119.3,302.1z"/>
</g>
</svg>
