<?xml version="1.0" encoding="utf-8"?>
<!-- Generator: Adobe Illustrator 26.3.1, SVG Export Plug-In . SVG Version: 6.00 Build 0)  -->
<svg version="1.1" id="Layer_1" xmlns="http://www.w3.org/2000/svg" xmlns:xlink="http://www.w3.org/1999/xlink" x="0px" y="0px"
	 viewBox="0 0 595.3 595.3" style="enable-background:new 0 0 595.3 595.3;" xml:space="preserve">
<style type="text/css">
	.st0{fill:#00E09E;}
	.st1{fill:#010101;}
</style>
<path class="st0" d="M297.6,595.3L297.6,595.3C133.3,595.3,0,462,0,297.6l0,0C0,133.3,133.3,0,297.6,0l0,0
	C462,0,595.3,133.3,595.3,297.6l0,0C595.3,462,462,595.3,297.6,595.3z"/>
<g>
	<path class="st0" d="M309.6,50.8c5.8,0.4,11.5,0.9,17.3,1.8c24.4,2.7,47.4,8.9,70.1,19.1c32.4,14.2,60.7,34.6,84.3,60.7
		c12.9,14.2,23.9,29.7,32.8,46.1c13.3,23.9,22.2,49.2,27,76.3c1.8,10.6,3.1,21.3,3.5,31.9c1.3,24.8-1.3,49.2-7.5,73.6
		c-5.8,23.1-15.1,44.3-27,64.7c-12.9,21.3-28.4,40.4-47,56.8c-13.7,12.4-28.4,23.1-44.8,31.9c-14.6,8-30.2,15.1-46.6,20
		c-16.9,5.3-34.1,8.9-51.9,10.2c-17.7,1.8-35.5,1.3-53.2-0.9c-23.5-3.1-46.1-9.3-67.8-18.6c-19.5-8.4-37.7-19.1-54.1-32.4
		c-18.2-14.2-34.1-30.6-47.4-49.2c-15.5-21.7-27.5-45.2-35.5-70.5c-5.3-16.9-8.4-33.7-10.2-51c-1.3-14.2-1.8-28.4-0.4-43
		c2.2-26.2,8-51,18.2-75.4c12.4-29.3,29.3-55,51-77.6c16.4-16.9,35-31.5,55.4-43c19.1-11.1,39.5-19.1,60.7-24.4
		c14.6-3.5,29.7-6.2,44.8-7.1c1.3,0,2.7,0,4-0.4C293.7,50.8,301.7,50.8,309.6,50.8z M115.4,217.1c0.9,1.3,1.3,1.3,1.3,1.8
		c8.4,9.3,17.3,18.6,25.7,27.9c1.8,2.2,2.2,3.1,0,5.3c-7.1,6.7-12.4,14.2-16.9,22.6c-7.5,14.2-10.6,29.7-10.2,45.7
		c0.4,12.4,3.1,24.4,8.4,35.5c6.7,13.7,16,25.3,28.4,34.6c12.9,9.3,26.6,15.1,42.6,17.3s31.5,0,46.6-5.8c9.3-3.5,17.7-8.9,25.3-15.5
		c1.8-1.8,2.7-1.8,4.4,0c7.5,8.4,15.1,16.4,22.2,24.4c4.9,5.8,4.9,5.8,9.8,0c7.5-8.4,15.1-16.4,22.6-24.8c1.3-1.3,2.2-1.3,3.5-0.4
		c6.7,5.8,13.7,10.6,21.7,14.2c19.1,8.9,39,10.6,59.9,5.8c20.4-4.9,37.2-16,50.6-32.4c9.8-12,15.5-26.2,18.2-41.7
		c2.7-16.9,0.9-33.7-5.8-49.2c-4.9-12-11.5-22.2-20.8-31c-1.3-1.3-1.8-2.2,0-4c5.8-6.2,11.5-12.4,17.3-18.6
		c3.5-3.5,6.7-7.5,10.6-11.5c-1.8,0-2.2,0-3.1,0c-16.9,0-34.1,0-51,0c-7.5,0-14.6,0-20.4-5.8c-0.9-0.9-2.2-0.9-3.1-1.8
		c-24.8-14.6-51.4-23.5-79.8-27c-30.2-3.5-59.9-0.9-89.1,8.9c-17.7,5.8-34.1,13.7-49.7,23.9c-1.3,0.9-3.1,1.8-4.9,1.8
		c-13.7,0-27,0-40.8,0C130.9,217.1,123.4,217.1,115.4,217.1z"/>
	<path class="st1" d="M115.4,217.1c8,0,15.5,0,23.1,0c13.7,0,27,0,40.8,0c1.8,0,3.5-0.4,4.9-1.8c15.5-10.2,31.9-18.2,49.7-23.9
		c28.8-9.3,58.5-12.4,89.1-8.9c28.4,3.5,55,12.4,79.8,27c0.9,0.4,2.2,0.9,3.1,1.8c5.8,5.8,12.9,5.8,20.4,5.8c16.9,0,34.1,0,51,0
		c0.9,0,1.8,0,3.1,0c-4,4-7.1,8-10.6,11.5c-5.8,6.2-11.5,12.4-17.3,18.6c-1.3,1.3-1.3,2.2,0,4c9.3,8.9,16.4,19.1,20.8,31
		c6.7,16,8.4,32.4,5.8,49.2c-2.2,15.5-8.4,29.3-18.2,41.7c-13.3,16.4-30.2,27.5-50.6,32.4c-20.4,4.9-40.4,3.1-59.9-5.8
		c-8-3.5-15.5-8.4-21.7-14.2c-1.3-1.3-2.2-1.3-3.5,0.4c-7.5,8.4-15.1,16.4-22.6,24.8c-4.9,5.8-4.9,5.8-9.8,0
		c-7.5-8.4-15.1-16.4-22.2-24.4c-1.8-1.8-2.7-1.8-4.4,0c-7.5,6.7-16,12-25.3,15.5c-15.1,6.2-30.6,8-46.6,5.8
		c-15.5-2.2-29.7-8-42.6-17.3c-12.4-9.3-21.7-20.8-28.4-34.6c-5.3-11.1-8-23.1-8.4-35.5c-0.4-16,3.1-31.5,10.2-45.7
		c4.4-8.4,9.8-16,16.9-22.6c2.2-1.8,1.8-3.1,0-5.3c-8.9-9.3-17.3-18.6-25.7-27.9C116.3,218.8,116.3,218.4,115.4,217.1z M206.3,378.5
		c34.6,0,62.1-27.5,62.1-61.6c0-33.7-27.5-61.2-61.2-61.6c-33.7,0-63.4,27-62.1,64.7C146,351.4,173.1,378.9,206.3,378.5z M389,378.9
		c33.3,0.4,63-27,61.6-63.9c-0.9-32.4-27.9-59.9-63-59.4c-32.8,0.4-60.7,28.4-60.3,61.6C327.4,351.4,354.9,378.9,389,378.9z
		 M365.5,225c-17.3-7.5-41.2-13.7-67.8-13.7c-22.6,0-59.9,7.5-67.4,13.7c37.2,16.4,62.5,42.6,67.4,83.4
		C303,267.6,328.3,241.5,365.5,225z"/>
	<path class="st0" d="M206.3,378.5c-33.3,0.4-60.3-27-61.6-58.5c-1.3-37.7,28.4-64.7,62.1-64.7c34.1,0,61.2,27.9,61.2,61.6
		C268.4,351,240.9,378.9,206.3,378.5z M238.7,317.3c0.4-17.7-14.6-32.8-33.3-32.4c-16.9,0.4-31.5,15.1-31.5,32.8
		c0,17.3,14.6,31.9,31.9,31.9C224.1,349.6,239.1,334.6,238.7,317.3z"/>
	<path class="st0" d="M389,378.9c-34.1,0-61.6-27.5-61.6-61.6c0-33.3,27.5-61.2,60.3-61.6c35.5-0.4,62.1,27,63,59.4
		C452,351.9,422.3,378.9,389,378.9z M421.4,317.7c0.4-18.2-14.2-33.3-32.8-32.8c-17.3,0.4-31,13.3-31.9,31
		c-0.4,20.4,15.5,33.7,32.4,33.7C406.7,349.2,421.4,335,421.4,317.7z"/>
	<path class="st0" d="M365.5,225c-37.7,16.4-63,42.6-67.8,83.8c-4.9-40.8-30.2-67-67.4-83.4c8-6.2,44.8-13.7,67.4-13.7
		C324.3,211.3,348.7,217.1,365.5,225z"/>
	<path class="st1" d="M238.7,317.3c0.4,17.3-14.6,32.4-32.8,32.4c-17.3-0.4-31.9-14.6-31.9-31.9c0-17.7,14.2-32.4,31.5-32.8
		C224.1,284.5,239.1,299.5,238.7,317.3z"/>
	<path class="st1" d="M421.4,317.7c0,17.3-14.6,31.9-32.4,31.9c-16.9,0-33.3-13.3-32.4-33.7c0.4-17.7,14.6-30.6,31.9-31
		C407.2,284.5,421.8,299.5,421.4,317.7z"/>
</g>
</svg>
