<svg xmlns="http://www.w3.org/2000/svg" xml:space="preserve" id="Layer_1" x="0" y="0" style="enable-background:new 0 0 595.3 595.3" version="1.1" viewBox="0 0 595.3 595.3"><style>.st0{fill:#00e09e}.st1{fill:#010101}</style><path d="M297.6 595.3C133.3 595.3 0 462 0 297.6 0 133.3 133.3 0 297.6 0 462 0 595.3 133.3 595.3 297.6c0 164.4-133.3 297.7-297.7 297.7" class="st0"/><path d="M309.6 50.8c5.8.4 11.5.9 17.3 1.8 24.4 2.7 47.4 8.9 70.1 19.1 32.4 14.2 60.7 34.6 84.3 60.7 12.9 14.2 23.9 29.7 32.8 46.1 13.3 23.9 22.2 49.2 27 76.3 1.8 10.6 3.1 21.3 3.5 31.9 1.3 24.8-1.3 49.2-7.5 73.6-5.8 23.1-15.1 44.3-27 64.7-12.9 21.3-28.4 40.4-47 56.8-13.7 12.4-28.4 23.1-44.8 31.9-14.6 8-30.2 15.1-46.6 20-16.9 5.3-34.1 8.9-51.9 10.2-17.7 1.8-35.5 1.3-53.2-.9-23.5-3.1-46.1-9.3-67.8-18.6-19.5-8.4-37.7-19.1-54.1-32.4-18.2-14.2-34.1-30.6-47.4-49.2-15.5-21.7-27.5-45.2-35.5-70.5-5.3-16.9-8.4-33.7-10.2-51-1.3-14.2-1.8-28.4-.4-43 2.2-26.2 8-51 18.2-75.4 12.4-29.3 29.3-55 51-77.6 16.4-16.9 35-31.5 55.4-43 19.1-11.1 39.5-19.1 60.7-24.4 14.6-3.5 29.7-6.2 44.8-7.1 1.3 0 2.7 0 4-.4 8.4.4 16.4.4 24.3.4M115.4 217.1c.9 1.3 1.3 1.3 1.3 1.8 8.4 9.3 17.3 18.6 25.7 27.9 1.8 2.2 2.2 3.1 0 5.3-7.1 6.7-12.4 14.2-16.9 22.6-7.5 14.2-10.6 29.7-10.2 45.7.4 12.4 3.1 24.4 8.4 35.5 6.7 13.7 16 25.3 28.4 34.6 12.9 9.3 26.6 15.1 42.6 17.3s31.5 0 46.6-5.8c9.3-3.5 17.7-8.9 25.3-15.5 1.8-1.8 2.7-1.8 4.4 0 7.5 8.4 15.1 16.4 22.2 24.4 4.9 5.8 4.9 5.8 9.8 0 7.5-8.4 15.1-16.4 22.6-24.8 1.3-1.3 2.2-1.3 3.5-.4 6.7 5.8 13.7 10.6 21.7 14.2 19.1 8.9 39 10.6 59.9 5.8 20.4-4.9 37.2-16 50.6-32.4 9.8-12 15.5-26.2 18.2-41.7 2.7-16.9.9-33.7-5.8-49.2-4.9-12-11.5-22.2-20.8-31-1.3-1.3-1.8-2.2 0-4 5.8-6.2 11.5-12.4 17.3-18.6 3.5-3.5 6.7-7.5 10.6-11.5h-54.1c-7.5 0-14.6 0-20.4-5.8-.9-.9-2.2-.9-3.1-1.8-24.8-14.6-51.4-23.5-79.8-27-30.2-3.5-59.9-.9-89.1 8.9-17.7 5.8-34.1 13.7-49.7 23.9-1.3.9-3.1 1.8-4.9 1.8h-40.8c-8-.2-15.5-.2-23.5-.2z" class="st0"/><path d="M115.4 217.1h63.9c1.8 0 3.5-.4 4.9-1.8 15.5-10.2 31.9-18.2 49.7-23.9 28.8-9.3 58.5-12.4 89.1-8.9 28.4 3.5 55 12.4 79.8 27 .9.4 2.2.9 3.1 1.8 5.8 5.8 12.9 5.8 20.4 5.8h54.1c-4 4-7.1 8-10.6 11.5-5.8 6.2-11.5 12.4-17.3 18.6-1.3 1.3-1.3 2.2 0 4 9.3 8.9 16.4 19.1 20.8 31 6.7 16 8.4 32.4 5.8 49.2-2.2 15.5-8.4 29.3-18.2 41.7-13.3 16.4-30.2 27.5-50.6 32.4-20.4 4.9-40.4 3.1-59.9-5.8-8-3.5-15.5-8.4-21.7-14.2-1.3-1.3-2.2-1.3-3.5.4-7.5 8.4-15.1 16.4-22.6 24.8-4.9 5.8-4.9 5.8-9.8 0-7.5-8.4-15.1-16.4-22.2-24.4-1.8-1.8-2.7-1.8-4.4 0-7.5 6.7-16 12-25.3 15.5-15.1 6.2-30.6 8-46.6 5.8-15.5-2.2-29.7-8-42.6-17.3-12.4-9.3-21.7-20.8-28.4-34.6-5.3-11.1-8-23.1-8.4-35.5-.4-16 3.1-31.5 10.2-45.7 4.4-8.4 9.8-16 16.9-22.6 2.2-1.8 1.8-3.1 0-5.3-8.9-9.3-17.3-18.6-25.7-27.9 0 .1 0-.3-.9-1.6m90.9 161.4c34.6 0 62.1-27.5 62.1-61.6 0-33.7-27.5-61.2-61.2-61.6-33.7 0-63.4 27-62.1 64.7.9 31.4 28 58.9 61.2 58.5m182.7.4c33.3.4 63-27 61.6-63.9-.9-32.4-27.9-59.9-63-59.4-32.8.4-60.7 28.4-60.3 61.6.1 34.2 27.6 61.7 61.7 61.7M365.5 225c-17.3-7.5-41.2-13.7-67.8-13.7-22.6 0-59.9 7.5-67.4 13.7 37.2 16.4 62.5 42.6 67.4 83.4 5.3-40.8 30.6-66.9 67.8-83.4" class="st1"/><path d="M206.3 378.5c-33.3.4-60.3-27-61.6-58.5-1.3-37.7 28.4-64.7 62.1-64.7 34.1 0 61.2 27.9 61.2 61.6.4 34.1-27.1 62-61.7 61.6m32.4-61.2c.4-17.7-14.6-32.8-33.3-32.4-16.9.4-31.5 15.1-31.5 32.8 0 17.3 14.6 31.9 31.9 31.9 18.3 0 33.3-15 32.9-32.3M389 378.9c-34.1 0-61.6-27.5-61.6-61.6 0-33.3 27.5-61.2 60.3-61.6 35.5-.4 62.1 27 63 59.4 1.3 36.8-28.4 63.8-61.7 63.8m32.4-61.2c.4-18.2-14.2-33.3-32.8-32.8-17.3.4-31 13.3-31.9 31-.4 20.4 15.5 33.7 32.4 33.7 17.6-.4 32.3-14.6 32.3-31.9M365.5 225c-37.7 16.4-63 42.6-67.8 83.8-4.9-40.8-30.2-67-67.4-83.4 8-6.2 44.8-13.7 67.4-13.7 26.6-.4 51 5.4 67.8 13.3" class="st0"/><path d="M238.7 317.3c.4 17.3-14.6 32.4-32.8 32.4-17.3-.4-31.9-14.6-31.9-31.9 0-17.7 14.2-32.4 31.5-32.8 18.6-.5 33.6 14.5 33.2 32.3M421.4 317.7c0 17.3-14.6 31.9-32.4 31.9-16.9 0-33.3-13.3-32.4-33.7.4-17.7 14.6-30.6 31.9-31 18.7-.4 33.3 14.6 32.9 32.8" class="st1"/></svg>