<?xml version="1.0" encoding="utf-8"?>
<!-- Generator: Adobe Illustrator 26.3.1, SVG Export Plug-In . SVG Version: 6.00 Build 0)  -->
<svg version="1.1" id="Layer_1" xmlns="http://www.w3.org/2000/svg" xmlns:xlink="http://www.w3.org/1999/xlink" x="0px" y="0px"
	 viewBox="0 0 595.3 595.3" style="enable-background:new 0 0 595.3 595.3;" xml:space="preserve">
<style type="text/css">
	.st0{fill:#FFFFFF;}
	.st1{fill:#047BC0;}
	.st2{fill:#FBAF18;}
</style>
<path class="st0" d="M297.6,595.3L297.6,595.3C133.3,595.3,0,462,0,297.6v0C0,133.3,133.3,0,297.6,0h0
	C462,0,595.3,133.3,595.3,297.6v0C595.3,462,462,595.3,297.6,595.3z"/>
<g>
	<path class="st1" d="M559.6,331c-0.3,0-0.6,0.1-0.9,0.1c-6.4,0-12.9,0-19.3,0c-0.9,0-1.1-0.2-1.1-1.1c0-13.1,0-26.2,0-39.2
		c0-4.9-3.5-8.9-8.2-9.4c-4.8-0.6-9.3,2.5-10.3,7.3c-0.2,0.7-0.2,1.4-0.2,2.1c0,13.1,0,26.2,0,39.2c0,0.9-0.2,1.1-1.1,1.1
		c-6,0-11.9,0-17.9,0c-0.9,0-1.1-0.2-1.1-1.1c0-13,0-26.1,0-39.1c0-5.3-4.1-9.6-9.4-9.6c-5.3,0-9.4,4.2-9.4,9.5
		c0,13.1,0,26.2,0,39.2c0,0.9-0.2,1.1-1.1,1.1c-6.4,0-12.8,0-19.2,0c-0.8,0-1-0.2-1-1c0-20.6,0-41.3,0-61.9c0-0.8,0.2-1,1-0.9
		c5.7,0,11.5,0,17.2,0c0.9,0,1.1,0.3,1.1,1.1c-0.1,1.9,0,3.8,0,6c4.6-7,10.8-10.4,19-10.3c8.1,0.1,14.3,3.6,18.8,10.4
		c1.3-1.9,2.6-3.6,4.3-5.1c4.2-3.6,9-5.3,14.5-5.4c3.8-0.1,7.5,0.3,11,1.7c7.1,2.8,11.1,8.1,12.7,15.5c0.2,1.1,0.2,2.2,0.6,3.3
		C559.6,299.9,559.6,315.4,559.6,331z"/>
	<path class="st1" d="M74,237.4c12.4,0,24.8,0,37.1,0c1,0,1.3,0.2,1.3,1.2c-0.1,5.2,0,10.4,0,15.6c0,0.8-0.2,1.1-1.1,1.1
		c-8.5,0-16.9,0-25.4,0c-1,0-1.3,0.2-1.3,1.3c0,24.2,0,48.5,0,72.7c0,0.3,0,0.7,0,1c0,0.5-0.2,0.7-0.7,0.7c-6.7,0-13.3,0-20,0
		c-0.5,0-0.8-0.2-0.7-0.7c0-0.3,0-0.5,0-0.8c0-24.3,0-48.6,0-73c0-1-0.2-1.3-1.3-1.3c-8.5,0-16.9,0-25.4,0c-0.9,0-1.1-0.2-1.1-1.1
		c0-5.2,0-10.5,0-15.7c0-0.9,0.2-1.1,1.1-1.1C49.2,237.4,61.6,237.4,74,237.4z"/>
	<path class="st1" d="M315,299.8c0-18.4,13-33.2,30.6-35.4c10.8-1.3,20.3,1.8,28.4,9.2c0.6,0.5,0.7,0.8,0.1,1.4
		c-4.3,4.2-8.6,8.5-12.8,12.8c-0.4,0.4-0.7,0.5-1.2,0c-4.4-4.2-9.6-5.3-15.3-3.3c-5.8,2.1-9.3,6.3-10.2,12.4
		c-1.5,10.1,6.6,18.5,16.7,17.7c3.4-0.3,6.3-1.7,8.7-4.1c0.6-0.6,0.8-0.5,1.3,0c4.2,4.3,8.5,8.5,12.8,12.7c0.6,0.6,0.5,0.9-0.1,1.4
		c-7.9,7.2-17.3,10.5-27.9,9.2c-14.9-2-24.8-10.4-29.6-24.6C315.4,305.9,315,302.5,315,299.8z"/>
	<path class="st1" d="M127.3,276.7c2-2.4,4.1-4.5,6.6-6.1c3.4-2.2,7.1-3.5,11.1-3.6c1.7,0,3.4,0.3,5.1,0.4c0.5,0,0.5,0.3,0.5,0.7
		c0,6.1,0,12.1,0,18.2c0,0.8-0.5,0.6-0.9,0.5c-3.4-0.5-6.7-0.2-9.9,1.2c-6.4,2.7-10.5,9-10.5,15.8c0,8.7,0,17.4,0,26.1
		c0,0.9-0.1,1.2-1.1,1.2c-6.4-0.1-12.8,0-19.2,0c-0.8,0-1-0.2-1-1c0-20.6,0-41.2,0-61.8c0-0.8,0.1-1,1-1c5.7,0,11.5,0,17.2,0
		c0.9,0,1.1,0.3,1,1.1c0,2.5,0,5,0,7.5C127.3,276.1,127.3,276.4,127.3,276.7z"/>
	<path class="st1" d="M161.3,299.2c0-10.3,0-20.6,0-30.9c0-0.9,0.2-1.1,1.1-1.1c6.4,0,12.8,0,19.1,0c0.9,0,1.1,0.3,1.1,1.1
		c0,20.6,0,41.1,0,61.7c0,0.8-0.2,1.1-1,1.1c-6.4,0-12.8,0-19.2,0c-0.9,0-1-0.3-1-1.1C161.3,319.7,161.3,309.5,161.3,299.2z"/>
	<path class="st2" d="M305.1,321.4c0,7-5.6,12.8-12.6,12.9c-7.2,0.1-13-5.6-13-12.7c-0.1-7,5.7-12.9,12.8-12.9
		C299.3,308.7,305.1,314.4,305.1,321.4z"/>
	<path class="st1" d="M171.8,258.3c-6.6,0-11.9-5.4-11.9-12c0-6.5,5.4-11.8,11.9-11.8c6.6,0,12,5.4,12,11.9
		C183.8,253,178.5,258.3,171.8,258.3z"/>
	<path class="st1" d="M268.7,289.4c-2.1-7.4-6.3-13.4-12.4-18.2c-6.2-4.8-13.4-7-21.2-7.1c-5.5-0.1-10.4,2-14.7,5.3
		c-1.3,1-2.3,2.1-3.6,3.4c0-1.7,0-3.1,0-4.5c0-0.9-0.1-1.2-1.1-1.2c-5.7,0.1-11.3,0.1-17,0c-0.9,0-1.1,0.3-1.1,1.1
		c0,30.5,0,61,0,91.4c0,0.8,0.2,1.1,1,1.1c6.4,0,12.8,0,19.2,0c0.8,0,1.1-0.2,1.1-1.1c0-10.1,0-20.3,0-30.4c0-0.4,0-0.7,0-1.1
		c0.5,0.1,0.7,0.4,0.9,0.6c2.5,1.9,5.2,3.3,8.2,4.2c8.1,2.4,15.8,1.1,23.1-2.6C266,322.9,273.3,305.9,268.7,289.4z M233.2,314.8
		c-8.7,0-15.6-6.9-15.6-15.5c0-8.6,6.9-15.5,15.5-15.5c8.7,0,15.6,6.9,15.6,15.7C248.7,308,241.9,314.8,233.2,314.8z"/>
	<path class="st1" d="M413.7,264.1c-19.3,0-35,15.6-35,34.9c0,19.3,15.6,35.1,35,35.1c19.4,0,35-15.6,35.1-34.9
		C448.8,279.7,433.2,264.1,413.7,264.1z M412.9,314.6c-8.4,0-15.4-7-15.4-15.6c0-8.6,6.9-15.5,15.6-15.5c8.7,0,15.6,7,15.6,15.8
		C428.6,308,421.8,314.6,412.9,314.6z"/>
</g>
</svg>
