<?xml version="1.0" encoding="utf-8"?>
<!-- Generator: Adobe Illustrator 26.3.1, SVG Export Plug-In . SVG Version: 6.00 Build 0)  -->
<svg version="1.1" id="Layer_1" xmlns="http://www.w3.org/2000/svg" xmlns:xlink="http://www.w3.org/1999/xlink" x="0px" y="0px"
	 viewBox="0 0 595.3 595.3" style="enable-background:new 0 0 595.3 595.3;" xml:space="preserve">
<style type="text/css">
	.st0{fill:#FFFFFF;}
	.st1{fill:#D40E14;}
</style>
<path class="st0" d="M297.6,595.3L297.6,595.3C133.3,595.3,0,462,0,297.6l0,0C0,133.3,133.3,0,297.6,0l0,0
	C462,0,595.3,133.3,595.3,297.6l0,0C595.3,462,462,595.3,297.6,595.3z"/>
<path class="st0" d="M584.9,375.9c0.5-2,1.1-4,1.6-6L584.9,375.9z"/>
<polygon class="st0" points="586.4,369.9 586.4,369.9 586.4,369.9 "/>
<g>
	<path class="st1" d="M87.7,244.1c0.6-2.9,1.2-5.9,2-8.6c2.3-7.3,7.2-11.3,14.9-11.9c1.8-0.1,3.4-0.1,5.1-0.1c31.8,0,63.5,0,95.3,0
		c15.1,0,20.1,4.2,22.8,19.2c0.6,3.1,1,6.1,1,9.2c0,9.1-4.4,14.2-13.3,15.4c-7.2,0.9-14.3,1.3-21.7,1.9c-3.2,0.3-6.6,0.7-9.8,0.6
		c-3.1-0.1-3.5,1-2.9,3.8c4.5,25.2,12.3,49.3,25.5,71.4c10.8,18.3,24.4,34.1,42.9,45.1c33.7,20.2,67,18.1,99.5-3.1
		c21.2-13.9,36.6-33.2,49.6-54.6c6.4-10.7,11.9-21.8,17.3-33.1c2.5-5.1,5.1-10.2,8.5-14.9c4-5.3,8.9-7.2,15.4-5.7
		c3.8,0.9,7.6,1.9,11.1,4c4.7,2.6,7,6.7,7.3,12c0.4,8.2-1.9,16-4.5,23.7c-9.8,30.3-23.9,58.4-43.8,83.4
		c-19.8,24.7-43.5,44.2-73.5,55.6c-9.8,3.7-19.9,6.3-30.3,7.5c-0.9,0.1-1.9,0-2.8,0.7c-7.6,0-15.4,0-23,0c-0.9-0.6-1.8-0.6-2.8-0.7
		c-5.9-0.7-11.7-1.9-17.4-3.5c-24.9-7-45.4-21.1-62.6-40c-19.9-21.8-33.5-47.3-43.8-74.6c-8.5-22.8-14.2-45.8-18.3-69.2
		c-0.9-5.1,0.1-4.4-5-4.1c-8.8,0.3-17.4,1.8-26.1,1.3c-7.5-0.4-12.4-4.2-14.8-11.6c-0.9-2.5-1.3-5.1-1.9-7.6
		C87.7,251.7,87.7,247.9,87.7,244.1z"/>
	<path class="st1" d="M433.7,166.6c0-20.3,16.8-36.9,37.2-36.9c20.2,0.1,36.7,16.8,36.7,37c0,20.3-17,37-37.2,36.9
		C450.2,203.5,433.6,186.8,433.7,166.6z"/>
</g>
</svg>
