<?xml version="1.0" encoding="utf-8"?>
<!-- Generator: Adobe Illustrator 26.3.1, SVG Export Plug-In . SVG Version: 6.00 Build 0)  -->
<svg version="1.1" id="Layer_1" xmlns="http://www.w3.org/2000/svg" xmlns:xlink="http://www.w3.org/1999/xlink" x="0px" y="0px"
	 viewBox="0 0 595.3 595.3" style="enable-background:new 0 0 595.3 595.3;" xml:space="preserve">
<style type="text/css">
	.st0{fill:#FFFFFF;}
	.st1{fill:#D40E14;}
</style>
<path class="st0" d="M298,595.3L298,595.3C133.6,595.3,0.4,462,0.4,297.6v0C0.4,133.3,133.6,0,298,0h0
	c164.4,0,297.6,133.3,297.6,297.6v0C595.7,462,462.4,595.3,298,595.3z"/>
<g id="gsPCWT.tif_00000005989064599091875260000014565815826597560469_">
	<g>
		<path class="st1" d="M35.6,261.2c0.4-2,0.8-4,1.4-5.9c1.6-5,4.9-7.7,10.2-8.1c1.2-0.1,2.3-0.1,3.5-0.1c21.7,0,43.4,0,65.1,0
			c10.3,0,13.7,2.9,15.6,13.1c0.4,2.1,0.7,4.2,0.7,6.3c0,6.2-3,9.7-9.1,10.5c-4.9,0.6-9.8,0.9-14.8,1.3c-2.2,0.2-4.5,0.5-6.7,0.4
			c-2.1-0.1-2.4,0.7-2,2.6c3.1,17.2,8.4,33.7,17.4,48.8c7.4,12.5,16.7,23.3,29.3,30.8c23,13.8,45.8,12.4,68-2.1
			c14.5-9.5,25-22.7,33.9-37.3c4.4-7.3,8.1-14.9,11.8-22.6c1.7-3.5,3.5-7,5.8-10.2c2.7-3.6,6.1-4.9,10.5-3.9
			c2.6,0.6,5.2,1.3,7.6,2.7c3.2,1.8,4.8,4.6,5,8.2c0.3,5.6-1.3,10.9-3.1,16.2c-6.7,20.7-16.3,39.9-29.9,57
			c-13.5,16.9-29.7,30.2-50.2,38c-6.7,2.5-13.6,4.3-20.7,5.1c-0.6,0.1-1.3,0-1.9,0.5c-5.2,0-10.5,0-15.7,0c-0.6-0.4-1.2-0.4-1.9-0.5
			c-4-0.5-8-1.3-11.9-2.4c-17-4.8-31-14.4-42.8-27.3c-13.6-14.9-22.9-32.3-29.9-51C75,315.7,71.1,300,68.3,284
			c-0.6-3.5,0.1-3-3.4-2.8c-6,0.2-11.9,1.2-17.8,0.9c-5.1-0.3-8.5-2.9-10.1-7.9c-0.6-1.7-0.9-3.5-1.3-5.2
			C35.6,266.4,35.6,263.8,35.6,261.2z"/>
		<path class="st1" d="M448.6,328.4c0-9.3,0-18.6,0-27.9c0-4.4,0.7-5.1,5-5.7c3.2-0.4,6.4-0.4,9.6,0c3.6,0.5,4.6,1.6,4.6,5.3
			c0,17.2,0,34.5,0,51.7c0,1.5,0,2.9,0.2,4.4c0.6,5.4,3.8,9.3,9,10.8c3.6,1.1,7.2,1.2,10.8,0.7c8.1-1.2,12-5.7,12.1-13.9
			c0.1-11.8,0-23.6,0-35.3c0-6.1,0-12.2,0-18.3c0-3.5,1.1-4.7,4.5-5.2c3.6-0.5,7.2-0.5,10.9,0c2.8,0.4,3.9,1.6,3.9,4.4
			c0,18.7,0.2,37.4-0.1,56c-0.3,15-8.9,24.7-23.8,27.6c-8.8,1.7-17.5,1.5-26.2-0.8c-11.8-3.1-19.5-12.4-20.3-24.6
			c-0.1-0.9-0.2-1.7-0.2-2.6C448.6,345.9,448.6,337.2,448.6,328.4C448.6,328.4,448.6,328.4,448.6,328.4z"/>
		<path class="st1" d="M405.9,345.1c0,10.5,0,20.9,0,31.4c0,4.3-1.1,5.5-5.3,5.8c-3.4,0.2-6.8,0.4-10.2-0.3
			c-2.8-0.6-3.8-1.8-3.9-4.7c0-4.7,0-9.4,0-14.2c0-16.6,0-33.1,0.1-49.7c0-2.3-0.6-2.8-2.8-2.7c-6.4,0.1-12.8,0.1-19.2,0
			c-4.1,0-5.1-1-5-5c0.1-2.6,0.3-5.1,1.1-7.5c0.7-2.2,2.2-3.3,4.5-3.5c0.9-0.1,1.9-0.1,2.8-0.1c19.6,0,39.1,0,58.7,0
			c1,0,2,0,3.1,0.1c1.7,0.2,2.7,1.2,2.8,3c0.1,2.6-0.1,5.2-0.7,7.8c-1,4.3-2.1,5.1-6.5,5.2c-5.5,0-11.1,0-16.6,0
			c-3.3,0-2.9-0.4-2.9,2.8C405.9,324.2,405.9,334.6,405.9,345.1z"/>
		<path class="st1" d="M272,208.3c0-13.9,11.5-25.2,25.4-25.2c13.8,0.1,25.1,11.5,25.1,25.3c0,13.9-11.6,25.3-25.4,25.2
			C283.3,233.5,271.9,222.1,272,208.3z"/>
		<path class="st1" d="M540.4,338.4c0-12.7,0-25.4,0-38.2c0-4.1,0.9-5,5-5.5c3.3-0.4,6.7-0.4,10,0.1c3.1,0.4,4.2,1.7,4.3,4.8
			c0,25.9,0,51.9,0,77.8c0,3-1,4.2-4,4.7c-3.7,0.6-7.4,0.6-11.1,0.1c-3.3-0.5-4.2-1.6-4.2-5c0-11.6,0-23.1,0-34.7
			C540.4,341.2,540.4,339.8,540.4,338.4z"/>
	</g>
</g>
</svg>
