<?xml version="1.0" encoding="utf-8"?>
<!-- Generator: Adobe Illustrator 26.3.1, SVG Export Plug-In . SVG Version: 6.00 Build 0)  -->
<svg version="1.1" id="Layer_1" xmlns="http://www.w3.org/2000/svg" xmlns:xlink="http://www.w3.org/1999/xlink" x="0px" y="0px"
	 viewBox="0 0 595.3 595.3" style="enable-background:new 0 0 595.3 595.3;" xml:space="preserve">
<style type="text/css">
	.st0{fill:#FFFFFF;}
	.st1{fill:#2E6EB0;}
	.st2{fill:#E6B046;}
</style>
<path class="st0" d="M297.6,595.3L297.6,595.3C133.3,595.3,0,462,0,297.6l0,0C0,133.3,133.3,0,297.6,0l0,0
	C462,0,595.3,133.3,595.3,297.6l0,0C595.3,462,462,595.3,297.6,595.3z"/>
<path class="st0" d="M584.9,375.9c0.5-2,1.1-4,1.6-6L584.9,375.9z"/>
<polygon class="st0" points="586.4,369.9 586.4,369.9 586.4,369.9 "/>
<g id="aAIOzD.tif">
	<g>
		<path class="st1" d="M298.9,87.2c44.6,0,89,0,133.6,0c15.8,0,18.7,2.8,18.8,18.6c0,89.4-0.1,178.9,0.2,268.2
			c0,7.8-1.4,10.6-10.1,10.6c-28.7,0-57.3,0.9-86.1,2c-34.3,1.2-68.3-2.3-102.2-6.8c-32.8-4.2-65.3-3.6-97.9,0.1
			c-8.3,0.9-11.3-0.8-11.2-10.2c0.4-87.6,0.2-175.1,0.2-262.7c0-16.5,3.5-19.9,20.1-19.9C209,87.1,254,87.2,298.9,87.2z
			 M323.9,329.3c-2-2.8-0.6-4.2,0.1-5.8c1.3-2.9,6.6-6.3,0.9-8.9c-5.1-2.5-6.8,2.9-8.2,6.6c-2.1,5-3.3,10.5-5.3,15.7
			c-1.9,4.9-5.8,10.2-10.9,8.5c-4.7-1.5-2.2-7.6-1.4-11.9c0.4-1.8,1.1-3.5,1.4-5.4c0.6-3.3,4.8-6.8,0.4-9.7
			c-4.1-2.7-8.7-3.6-13.3-0.4c-6.2,4.3-11.1,9.8-14.4,16.4c-3.3,6.6-9,9.5-15.2,11.9c-2.8,1.2-6.3,1.3-7.6-2.1
			c-2.2-5.7,0.2-11,3.6-15.4c2.1-2.7,3.6-9.2,9.8-4c2.3,2,4.9-0.2,5.6-3.2c0.9-3.6-0.8-5.5-4.4-5.8c-3.9-0.4-7.3,0.9-10.3,3
			c-6.8,4.9-11.3,11.3-13.8,19.4c-1.3,4-5,8.2-8.5,7.5c-5.3-1.1-2.5-6.7-2.5-10.3c0-2.8,1.6-5.6,1.9-8.5c0.2-2.9,4.9-6.2,0.4-8.7
			c-3.4-1.9-7.5-4-11.5-1.5c-10.9,6.6-17.9,16.1-21.4,28.3c-0.8,2.8-0.6,6,2.5,7.8c2.9,1.8,5.7,0.7,8.2-1.2c3.4-2.7,6.7-5.6,10.5-9
			c2.5,10.5,7.5,14.7,17,7.5c1.6-1.3,3.3-1.8,4.9-0.1c10.4,10.2,23.3-5,34.2,3.2c0.6,0.5,3.5-2.2,5.4-3.4c3.2-1.8,4.8-5.6,9-6.3
			c1.5,4.6,1.6,11.9,8.7,9.9c8.3-2.3,18.9-0.7,23.3-12c1.8-4.6,5.5-8.5,10.5-11.2c1.6,4.1-1.1,7.3-1.3,10.8
			c-0.4,4.8-1.2,9.8,3.5,13.1c5,3.6,9,0,13-2.6c2.6-1.6,4.9-5.3,6.1,1.3c0.2,1.5,3.4,0.7,4.6-0.8c4-4.8,8.2-3.4,12.6-0.7
			c4.2,2.6,9.2,3.9,13.8,2.1c4.9-1.9,8.5-2,13.8-0.1c11.1,4.1,31.3-9.4,34.3-22.1c-7.5,6.1-14.2,12.6-23.4,14.9
			c-3.3,0.8-6.9,2-8.2-2.5c-1.4-5,2.5-5.1,5.8-5.1c3.2,0,5.8-1.2,8-3.3c4.2-4.1,9.5-8.9,4.3-15c-5.4-6.2-11.6-6.6-17.3,0.7
			c-4.7,5.8-8.2,12-9.8,19.4c-1.1,4.7-4.1,6.7-8.8,6.6c-4.6,0-9.7-0.8-11.6-4.9c-1.8-3.6,3.3-6,5.5-8.7c2.8-3.4,5.6-6.9,10.2-8.2
			c2.3-0.6,4.4-1.6,3.9-4.2c-0.6-2.9-3.3-4.4-5.8-3.7c-6.3,1.9-12.4,0.4-18.6,0c-4.8-0.4-10.6,2.2-8.9,7c4.8,12.8-7.3,15.1-12,21.6
			c-1.2,1.5-3.9,2.9-5.7,1.2c-1.1-1.1-1.3-3.4-1.2-5c0.5-6.3,3-12,5.6-17.8c1.4-3,3.7-6.3,0.5-8.9c-3.4-2.8-5,1.6-7.1,3.2
			C333.4,321.7,328.7,325.5,323.9,329.3z M412.2,154.5c-4.6-9.7-8.3-18.1-12.5-26.2c-3.2-6.1-9-7.3-15.2-6.1
			c-6.6,1.3-7,6.2-6.9,11.8c0.2,16.1,0.4,32.3,0,48.4c-0.1,7,3.2,11,9.5,10.4c6.2-0.5,11.1-3.7,9-11.8c-1.5-5.8-1.6-11.8,1.2-20.9
			c4.7,10.3,8,17.8,11.5,25.1c3.2,6.4,8.5,9,15.4,7.6c7.1-1.4,8.7-6.7,8.4-13.2c-0.5-15.8-0.5-31.6-0.5-47.4
			c0-6.2-2.8-10.2-8.8-10.3c-6.3-0.1-10.1,3.4-10.1,10.4C413.4,139.4,414.8,146.3,412.2,154.5z M243.3,159.6
			c4.3,9.8,7.7,17.8,11.3,25.7c3,6.6,8.8,8.9,15.4,7.8c7.3-1.2,8.5-6.6,8.3-13.2c-0.5-15.4-0.4-30.9-0.2-46.3
			c0.1-6.4-1.8-11.3-8.7-11.5c-7.4-0.2-9.9,4.6-9.7,11.7c0.4,8,0.1,16,0.1,25.4c-5-11.1-9.2-20.8-13.9-30.3c-3.3-6.7-9.2-8-15.9-6.4
			c-6.4,1.5-6.8,6.6-6.8,12c0.1,15.4,0.2,30.9,0,46.3c-0.1,6.9,2,12.3,9.2,12.3s10.5-4.7,10.4-12.5
			C242.8,174.4,238.2,168.2,243.3,159.6z M395,238c0.9-4.1-0.8-9.5-2-14.9c-2.9-13.8-12.6-21.9-26.1-22.3
			c-14-0.4-24.8,7.4-28.5,20.9c-2.9,10.5-2.8,21.1,0.4,31.5c2.7,8.9,8.3,15.3,17.3,18.5C377.4,279.1,394.9,264.6,395,238z
			 M216.9,154.4c0-7-0.2-14,0.1-20.9c0.4-6.6-2-11.1-8.9-11.3c-7.4-0.2-10.1,4.3-9.9,11.5c0.2,11.3,0.2,22.8,0,34.2
			c-0.1,5,0.7,11.3-6.9,11.5c-8.4,0.2-7.4-6.6-7.4-11.9c-0.1-11.8-0.2-23.5,0-35.3c0.1-6.6-3.5-9.6-9.2-9.9
			c-5.8-0.2-10.2,2.7-10.3,9c-0.1,15.1-0.7,30.2,0.6,45.2c1.2,13.6,12.2,19.3,30.2,18.1c13.7-0.9,21.3-8.3,21.6-21.3
			C217,166.9,216.8,160.6,216.9,154.4z M369.5,157.2c-0.2-2.7-0.2-6.8-0.8-10.8c-2.2-14.9-12.3-24.6-26-25.3
			c-15.4-0.7-25.1,6.7-29.5,22.2c-2.9,10.6-2.5,21.1,0.9,31.3c2.9,8.8,9,14.9,18.1,17.5C353.9,199,370,184.3,369.5,157.2z
			 M278.6,236.5c0,8.4,0.1,16.8,0,25.3c-0.2,8.2,4.3,11.1,11.6,11c3.3,0,6.6-0.6,9.8-1.1c22.1-2.6,33.7-19.8,28.8-44.1
			c-4.3-21.3-20.9-27.3-42.1-25.1c-5.6,0.6-8.2,4.1-8.1,9.8C278.8,220.4,278.6,228.4,278.6,236.5z M222.4,272.6c1.9,0,3.7,0.2,5.5,0
			c6.3-0.8,16.4,3.2,16.5-7.3c0.1-10.8-10.2-7.1-16.3-7.1c-6.6,0-9.1-1.3-8.7-8.4c0.7-10.6,0.2-21.3,0.1-31.9
			c0-6.9,1.4-14.9-9.2-15.2c-10.6-0.2-9.8,7.4-9.7,14.5c0.1,11.3,0,22.8,0,34.2C200.6,272.6,200.6,272.6,222.4,272.6z M304.8,158.4
			c-0.1,0-0.1,0-0.2,0c0-9.2,0.1-18.4,0-27.6c-0.1-5.8-4.3-8.7-9.5-8.8c-5-0.1-9.7,2.6-9.7,8.4c0,18,0.1,36,0.7,54
			c0.1,5.7,4.3,8.2,9.8,8.1c5.5-0.2,9-2.7,8.9-8.8C304.7,175.2,304.8,166.8,304.8,158.4z M270.6,237.9c-0.2,0-0.5,0-0.6,0
			c0-8.1-0.1-16.1,0-24.2c0.1-6.7-2.3-10.8-9.5-10.6c-7,0-9.5,4.1-9.4,10.8c0.4,16.1,0.6,32.4,0.5,48.5c0,7.1,3.5,10.3,9.9,10.1
			c6.1-0.2,9.1-3.9,8.9-10.2C270.3,254,270.6,246,270.6,237.9z M175.7,335.3c-1.8-8.1-1.5-15.6,0.7-22.9c0.9-3.2,1.1-7.3-2.7-8.5
			c-4.4-1.5-6,2.8-6.3,5.6c-2,13.7-3,27.6,1.1,41.2c1.4,4.6,5.4,5.8,7.7,0.9c6.6-13.5,19.1-20.9,29.2-30.8c3.2-3,6.9-5.6,8.4-9.9
			c1.2-3.2-0.1-5.7-3-7.4c-2-1.1-4.2-0.4-4.6,1.4C202.6,321.2,185.8,324.6,175.7,335.3z"/>
		<path class="st1" d="M450.8,433c1.2,20.1-0.9,22.5-20.7,22.5c-87.7,0-175.6,0-263.3,0c-20.8,0-23.4-2.7-22.3-23.5
			c32.2-2.8,64.1-8,96.6-3.9c28,3.5,55.6,9.9,84.1,9.7C367.2,437.6,408.9,436.1,450.8,433z"/>
		<path class="st2" d="M450.8,433c-41.8,3-83.6,4.4-125.6,4.8c-28.5,0.2-56.1-6.1-84.1-9.7c-32.5-4.1-64.5,1.1-96.6,3.9
			c-0.9-3.4-0.9-6.8,0-10.1c19.4-1.3,38.7-4,58.3-4.6c28.8-0.8,57.3,3.2,85.9,4.6c54,2.8,108.2,0,162.2,0
			C450.8,425.6,450.8,429.4,450.8,433z"/>
		<path class="st1" d="M450.8,421.9c-54,0-108.2,2.8-162.2,0c-28.7-1.5-57.1-5.4-85.9-4.6c-19.5,0.6-38.8,3.3-58.3,4.6
			c-0.4-6.3,4.9-4.3,8-5c41.1-8.2,82.6-8.2,124.2-6.9c40.1,1.3,80.1,4,119.9,9c15.8,2,31.6-1.2,47.4-1.5
			C446.7,417.5,452.2,414.6,450.8,421.9z"/>
		<path class="st1" d="M144.7,397.3c1.8-3.6,5-2.1,7.6-2.5c23.5-2.6,46.9-1.8,70.4,0.5c44.1,4.2,88.2,0.9,132.2-0.8
			c29.4-1.2,58.7-1.6,88.2-1.2c3.7,0,8.3-1.5,8.4,5.3c0.1,6.7-4.1,5.7-8.1,5.5c-97-5.4-194.1-3.6-291-4.4
			C149.9,399.8,146.5,401,144.7,397.3z"/>
		<path class="st1" d="M338.4,482.1c12.6,2.6,18.4-2.9,20.6-15.1c0.9,13.6,8.7,16.7,20.7,15.1c-10.6,6.4-14.9,14.2-7,25.5
			c-13.5-8.5-13.5-8.5-27.8-0.1C352.7,495.1,348.1,488.1,338.4,482.1z"/>
		<path class="st1" d="M187.6,506c-8.5-8.9-15.6-6.3-24,0.8c6.1-11.5,2.5-18.9-11.1-24.7c8.2-0.5,13.3,0.5,17.1-1.3
			c4.4-2,3.6-8.2,5.6-12.6c4.8,3,2.3,10.4,6.8,12.5c3.9,1.8,8.9,1.1,16,1.6C187.3,488.1,182.5,494.8,187.6,506z"/>
		<path class="st1" d="M216.5,482.3c13,2.7,18.5-3.7,20.9-15.2c0.8,13.5,8.4,16.6,20.2,15.1c-8.3,6.4-16.5,12.2-5.7,25.1
			c-15-7.4-15-7.4-27.6-1.1C229.9,495.5,227.3,488,216.5,482.3z"/>
		<path class="st1" d="M309.3,505.9c-8.1-6.2-15.9-8.1-24.3,2.2c6.4-11.8,3.6-20-7.8-25.6c10.4,0.1,19.8,0,20.4-14.7
			c3,11.5,8.2,18.4,22.1,13.7c-12.9,5.7-12.4,14.9-10.3,24.7V505.9z"/>
		<path class="st1" d="M399,482.6c10.6,0.6,18.9-0.9,20.2-14.3c2.8,11.3,8.8,16.4,20.8,13.5c-6.2,7-18.2,11.1-7.4,24.7
			c-9.9-8.7-17.4-6.7-25.5,0.2C413.2,495.4,409.8,488.1,399,482.6z"/>
		<path class="st1" d="M309.2,506.1c0.6,0.1,1.2,0.2,1.6,0.4c-1.3,1.9-1.2,0-1.5-0.6C309.3,505.9,309.2,506.1,309.2,506.1z"/>
		<path class="st2" d="M323.9,329.3c4.8-3.7,9.4-7.6,14.4-11c2.1-1.4,3.7-5.8,7.1-3.2c3.3,2.7,0.9,5.8-0.5,8.9
			c-2.6,5.7-5.1,11.5-5.6,17.8c-0.1,1.8,0.1,4.1,1.2,5c1.9,1.9,4.7,0.5,5.7-1.2c4.8-6.7,16.7-8.9,12-21.6c-1.8-4.8,4.1-7.4,8.9-7
			c6.2,0.5,12.3,1.9,18.6,0c2.6-0.8,5.3,0.8,5.8,3.7c0.5,2.7-1.6,3.6-3.9,4.2c-4.6,1.3-7.4,4.8-10.2,8.2c-2.2,2.7-7.1,4.9-5.5,8.7
			c1.9,4.1,7,4.9,11.6,4.9c4.7,0.1,7.8-1.9,8.8-6.6c1.5-7.4,5.1-13.6,9.8-19.4c5.7-7.4,12-6.9,17.3-0.7c5.3,6.1-0.1,10.8-4.3,15
			c-2.1,2.1-4.9,3.3-8,3.3c-3.5,0-7.4,0.1-5.8,5.1c1.3,4.4,4.9,3.3,8.2,2.5c9.2-2.3,15.8-8.8,23.4-14.9c-2.9,12.8-23,26.1-34.3,22.1
			c-5.3-1.9-8.9-1.8-13.8,0.1c-4.4,1.8-9.5,0.5-13.8-2.1c-4.4-2.7-8.5-4.2-12.6,0.7c-1.3,1.5-4.3,2.3-4.6,0.8
			c-1.2-6.6-3.5-2.9-6.1-1.3c-4,2.6-7.8,6.1-13,2.6c-4.7-3.3-3.9-8.3-3.5-13.1c0.2-3.5,2.9-6.7,1.3-10.8c-4.9,2.7-8.8,6.7-10.5,11.2
			c-4.3,11.3-15,9.6-23.3,12c-7,2-7.1-5.3-8.7-9.9c-4.2,0.7-5.8,4.6-9,6.3c-1.9,1.1-4.8,3.7-5.4,3.4c-10.8-8.2-23.6,7-34.2-3.2
			c-1.6-1.6-3.3-1.1-4.9,0.1c-9.5,7.4-14.5,3.2-17-7.5c-3.9,3.3-7.1,6.2-10.5,9c-2.5,1.9-5.1,2.9-8.2,1.2c-3-1.9-3.3-5-2.5-7.8
			c3.5-12.2,10.6-21.8,21.4-28.3c4-2.5,8.1-0.4,11.5,1.5c4.6,2.5-0.1,5.7-0.4,8.7s-1.9,5.7-1.9,8.5c0,3.6-2.8,9.2,2.5,10.3
			c3.5,0.7,7.3-3.4,8.5-7.5c2.6-8.1,7-14.5,13.8-19.4c3-2.2,6.4-3.4,10.3-3c3.6,0.4,5.4,2.2,4.4,5.8c-0.7,2.8-3.2,5-5.6,3.2
			c-6.3-5.1-7.7,1.3-9.8,4c-3.4,4.3-5.8,9.6-3.6,15.4c1.4,3.4,4.8,3.3,7.6,2.1c6.2-2.5,11.8-5.5,15.2-11.9c3.4-6.6,8.2-12,14.4-16.4
			c4.8-3.3,9.4-2.3,13.3,0.4c4.6,2.9,0.4,6.4-0.4,9.7c-0.4,1.8-1.1,3.5-1.4,5.4c-0.8,4.2-3.3,10.4,1.4,11.9c5,1.6,9-3.6,10.9-8.5
			c2-5.1,3.2-10.5,5.3-15.7c1.4-3.5,3-9,8.2-6.6c5.5,2.7,0.2,6-0.9,8.9C323.3,325,321.9,326.5,323.9,329.3z M208.8,343.9
			c7.4-4.9,14.4-10.3,14.4-23.2C214.7,328.2,210,334.8,208.8,343.9z M277.6,345.4c7.6-5,11.5-10.2,14.7-15.9
			c1.2-2.1,2.1-4.3-0.1-5.8c-1.9-1.3-3.4,0.6-4.6,1.9C282.7,330.4,279,336,277.6,345.4z M375.1,325.5c-13.1-4.4-10.6,5.5-13.7,13.3
			C366.8,333.6,370.6,330,375.1,325.5z"/>
		<path class="st2" d="M175.7,335.3c9.9-10.8,26.8-14.2,30.5-30.5c0.4-1.8,2.7-2.6,4.6-1.4c2.9,1.6,4.1,4.2,3,7.4
			c-1.5,4.3-5.3,6.9-8.4,9.9c-10.2,9.8-22.7,17.3-29.2,30.8c-2.5,4.9-6.3,3.6-7.7-0.9c-4.1-13.6-3-27.4-1.1-41.2
			c0.5-2.9,1.9-7.3,6.3-5.6c3.7,1.3,3.7,5.4,2.7,8.5C174.2,319.9,174.1,327.3,175.7,335.3z"/>
		<path class="st1" d="M208.8,343.9c1.2-9.1,5.8-15.7,14.4-23.2C223.2,333.6,216.2,339,208.8,343.9z"/>
		<path class="st1" d="M277.6,345.4c1.4-9.4,5.1-15,10.1-20c1.3-1.3,2.8-3.2,4.6-1.9c2.2,1.5,1.3,3.7,0.1,5.8
			C289.1,335.2,285.1,340.4,277.6,345.4z"/>
		<path class="st1" d="M375.1,325.5c-4.6,4.4-8.3,8.2-13.7,13.3C364.6,331,362,321.1,375.1,325.5z"/>
		<path class="st1" d="M376.7,237.6c-0.6,3.9-1.3,9.2-2.5,14.6c-0.9,4.3-3.4,7.4-8.2,7.3c-4.2-0.1-6.7-2.8-7.8-6.6
			c-3-9.2-3.5-18.6-1.2-28.1c1.2-4.9,3.6-9.4,9.2-9.2c5.6,0.1,8,4.8,9.1,9.5C376.2,228.5,376.1,232.3,376.7,237.6z"/>
		<path class="st1" d="M331,159.8c0-4.7-0.1-6.6,0-8.3c0.4-7.3,1.5-15.6,10.1-15.6c7.8,0,9.4,8.3,10.1,14.9
			c0.7,6.9,0.4,13.9-1.8,20.7c-1.3,4-2.5,7.8-7.5,8.2c-5.4,0.5-7.7-3-9.4-7.5C330.6,167.1,331.2,162,331,159.8z"/>
		<path class="st1" d="M296.9,258.5c0-12.8-0.1-24.4,0.1-36c0-1.9-1.5-4.6,1.3-5.7s4.8,0.8,6.8,2.5
			C316.5,229,312.7,251.6,296.9,258.5z"/>
	</g>
</g>
<path class="st1" d="M410.8,319.1c-2.8,0.7-7.3,4.8-8.4,9.1c-0.5,2.1,1.2,6,5.3,6c4.1,0,9.3-5.9,9.4-8.8
	C417.2,322.4,416.4,317.7,410.8,319.1z"/>
</svg>
