<?xml version="1.0" encoding="utf-8"?>
<!-- Generator: Adobe Illustrator 26.3.1, SVG Export Plug-In . SVG Version: 6.00 Build 0)  -->
<svg version="1.1" id="Layer_1" xmlns="http://www.w3.org/2000/svg" xmlns:xlink="http://www.w3.org/1999/xlink" x="0px" y="0px"
	 viewBox="0 0 595.3 595.3" style="enable-background:new 0 0 595.3 595.3;" xml:space="preserve">
<style type="text/css">
	.st0{fill:#FFFFFF;}
	.st1{fill:#2E6EB0;}
	.st2{fill:#E6B046;}
</style>
<path class="st0" d="M297.6,595.3L297.6,595.3C133.3,595.3,0,462,0,297.6l0,0C0,133.3,133.3,0,297.6,0l0,0
	C462,0,595.3,133.3,595.3,297.6l0,0C595.3,462,462,595.3,297.6,595.3z"/>
<g id="aAIOzD.tif">
	<g>
		<path class="st1" d="M298.7,117.8c38.1,0,76.1,0,114.2,0c13.5,0,16,2.4,16.1,15.9c0,76.4-0.1,152.9,0.2,229.3
			c0,6.7-1.2,9.1-8.6,9.1c-24.5,0-49,0.8-73.6,1.7c-29.3,1-58.4-2-87.4-5.8c-28-3.6-55.8-3.1-83.7,0.1c-7.1,0.8-9.7-0.7-9.6-8.7
			c0.3-74.9,0.2-149.7,0.2-224.6c0-14.1,3-17,17.2-17C221.9,117.7,260.3,117.8,298.7,117.8z M320.1,324.7c-1.7-2.4-0.5-3.6,0.1-5
			c1.1-2.5,5.6-5.4,0.8-7.6c-4.4-2.1-5.8,2.5-7,5.6c-1.8,4.3-2.8,9-4.5,13.4c-1.6,4.2-5,8.7-9.3,7.3c-4-1.3-1.9-6.5-1.2-10.2
			c0.3-1.5,0.9-3,1.2-4.6c0.5-2.8,4.1-5.8,0.3-8.3c-3.5-2.3-7.4-3.1-11.4-0.3c-5.3,3.7-9.5,8.4-12.3,14c-2.8,5.6-7.7,8.1-13,10.2
			c-2.4,1-5.4,1.1-6.5-1.8c-1.9-4.9,0.2-9.4,3.1-13.2c1.8-2.3,3.1-7.9,8.4-3.4c2,1.7,4.2-0.2,4.8-2.7c0.8-3.1-0.7-4.7-3.8-5
			c-3.3-0.3-6.2,0.8-8.8,2.6c-5.8,4.2-9.7,9.7-11.8,16.6c-1.1,3.4-4.3,7-7.3,6.4c-4.5-0.9-2.1-5.7-2.1-8.8c0-2.4,1.4-4.8,1.6-7.3
			c0.2-2.5,4.2-5.3,0.3-7.4c-2.9-1.6-6.4-3.4-9.8-1.3c-9.3,5.6-15.3,13.8-18.3,24.2c-0.7,2.4-0.5,5.1,2.1,6.7c2.5,1.5,4.9,0.6,7-1
			c2.9-2.3,5.7-4.8,9-7.7c2.1,9,6.4,12.6,14.5,6.4c1.4-1.1,2.8-1.5,4.2-0.1c8.9,8.7,19.9-4.3,29.2,2.7c0.5,0.4,3-1.9,4.6-2.9
			c2.7-1.5,4.1-4.8,7.7-5.4c1.3,3.9,1.4,10.2,7.4,8.5c7.1-2,16.2-0.6,19.9-10.3c1.5-3.9,4.7-7.3,9-9.6c1.4,3.5-0.9,6.2-1.1,9.2
			c-0.3,4.1-1,8.4,3,11.2c4.3,3.1,7.7,0,11.1-2.2c2.2-1.4,4.2-4.5,5.2,1.1c0.2,1.3,2.9,0.6,3.9-0.7c3.4-4.1,7-2.9,10.8-0.6
			c3.6,2.2,7.9,3.3,11.8,1.8c4.2-1.6,7.3-1.7,11.8-0.1c9.5,3.5,26.8-8,29.3-18.9c-6.4,5.2-12.1,10.8-20,12.7c-2.8,0.7-5.9,1.7-7-2.1
			c-1.2-4.3,2.1-4.4,5-4.4c2.7,0,5-1,6.8-2.8c3.6-3.5,8.1-7.6,3.7-12.8c-4.6-5.3-9.9-5.6-14.8,0.6c-4,5-7,10.3-8.4,16.6
			c-0.9,4-3.5,5.7-7.5,5.6c-3.9,0-8.3-0.7-9.9-4.2c-1.5-3.1,2.8-5.1,4.7-7.4c2.4-2.9,4.8-5.9,8.7-7c2-0.5,3.8-1.4,3.3-3.6
			c-0.5-2.5-2.8-3.8-5-3.2c-5.4,1.6-10.6,0.3-15.9,0c-4.1-0.3-9.1,1.9-7.6,6c4.1,10.9-6.2,12.9-10.3,18.5c-1,1.3-3.3,2.5-4.9,1
			c-0.9-0.9-1.1-2.9-1-4.3c0.4-5.4,2.6-10.3,4.8-15.2c1.2-2.6,3.2-5.4,0.4-7.6c-2.9-2.4-4.3,1.4-6.1,2.7
			C328.2,318.2,324.2,321.5,320.1,324.7z M395.6,175.3c-3.9-8.3-7.1-15.5-10.7-22.4c-2.7-5.2-7.7-6.2-13-5.2
			c-5.6,1.1-6,5.3-5.9,10.1c0.2,13.8,0.3,27.6,0,41.4c-0.1,6,2.7,9.4,8.1,8.9c5.3-0.4,9.5-3.2,7.7-10.1c-1.3-5-1.4-10.1,1-17.9
			c4,8.8,6.8,15.2,9.8,21.5c2.7,5.5,7.3,7.7,13.2,6.5c6.1-1.2,7.4-5.7,7.2-11.3c-0.4-13.5-0.4-27-0.4-40.5c0-5.3-2.4-8.7-7.5-8.8
			c-5.4-0.1-8.6,2.9-8.6,8.9C396.6,162.4,397.8,168.3,395.6,175.3z M251.2,179.7c3.7,8.4,6.6,15.2,9.7,22c2.6,5.6,7.5,7.6,13.2,6.7
			c6.2-1,7.3-5.6,7.1-11.3c-0.4-13.2-0.3-26.4-0.2-39.6c0.1-5.5-1.5-9.7-7.4-9.8c-6.3-0.2-8.5,3.9-8.3,10c0.3,6.8,0.1,13.7,0.1,21.7
			c-4.3-9.5-7.9-17.8-11.9-25.9c-2.8-5.7-7.9-6.8-13.6-5.5c-5.5,1.3-5.8,5.6-5.8,10.3c0.1,13.2,0.2,26.4,0,39.6
			c-0.1,5.9,1.7,10.5,7.9,10.5c6.2,0,9-4,8.9-10.7C250.8,192.3,246.8,187,251.2,179.7z M380.9,246.7c0.8-3.5-0.7-8.1-1.7-12.7
			c-2.5-11.8-10.8-18.7-22.3-19.1c-12-0.3-21.2,6.3-24.4,17.9c-2.5,9-2.4,18,0.3,26.9c2.3,7.6,7.1,13.1,14.8,15.8
			C365.8,281.8,380.8,269.4,380.9,246.7z M228.6,175.2c0-6-0.2-12,0.1-17.9c0.3-5.6-1.7-9.5-7.6-9.7c-6.3-0.2-8.6,3.7-8.5,9.8
			c0.2,9.7,0.2,19.5,0,29.2c-0.1,4.3,0.6,9.7-5.9,9.8c-7.2,0.2-6.3-5.6-6.3-10.2c-0.1-10.1-0.2-20.1,0-30.2c0.1-5.6-3-8.2-7.9-8.5
			c-5-0.2-8.7,2.3-8.8,7.7c-0.1,12.9-0.6,25.8,0.5,38.6c1,11.6,10.4,16.5,25.8,15.5c11.7-0.8,18.2-7.1,18.5-18.2
			C228.7,185.9,228.5,180.5,228.6,175.2z M359.1,177.6c-0.2-2.3-0.2-5.8-0.7-9.2c-1.9-12.7-10.5-21-22.2-21.6
			c-13.2-0.6-21.5,5.7-25.2,19c-2.5,9.1-2.1,18,0.8,26.8c2.5,7.5,7.7,12.7,15.5,15C345.7,213.3,359.5,200.8,359.1,177.6z
			 M281.4,245.4c0,7.2,0.1,14.4,0,21.6c-0.2,7,3.7,9.5,9.9,9.4c2.8,0,5.6-0.5,8.4-0.9c18.9-2.2,28.8-16.9,24.6-37.7
			c-3.7-18.2-17.9-23.3-36-21.5c-4.8,0.5-7,3.5-6.9,8.4C281.5,231.6,281.4,238.5,281.4,245.4z M233.3,276.3c1.6,0,3.2,0.2,4.7,0
			c5.4-0.7,14,2.7,14.1-6.2c0.1-9.2-8.7-6.1-13.9-6.1c-5.6,0-7.8-1.1-7.4-7.2c0.6-9.1,0.2-18.2,0.1-27.3c0-5.9,1.2-12.7-7.9-13
			c-9.1-0.2-8.4,6.3-8.3,12.4c0.1,9.7,0,19.5,0,29.2C214.7,276.3,214.7,276.3,233.3,276.3z M303.8,178.6c-0.1,0-0.1,0-0.2,0
			c0-7.9,0.1-15.7,0-23.6c-0.1-5-3.7-7.4-8.1-7.5c-4.3-0.1-8.3,2.2-8.3,7.2c0,15.4,0.1,30.8,0.6,46.2c0.1,4.9,3.7,7,8.4,6.9
			c4.7-0.2,7.7-2.3,7.6-7.5C303.7,193,303.8,185.8,303.8,178.6z M274.5,246.6c-0.2,0-0.4,0-0.5,0c0-6.9-0.1-13.8,0-20.7
			c0.1-5.7-2-9.2-8.1-9.1c-6,0-8.1,3.5-8,9.2c0.3,13.8,0.5,27.7,0.4,41.5c0,6.1,3,8.8,8.5,8.6c5.2-0.2,7.8-3.3,7.6-8.7
			C274.3,260.4,274.5,253.5,274.5,246.6z M193.4,329.9c-1.5-6.9-1.3-13.3,0.6-19.6c0.8-2.7,0.9-6.2-2.3-7.3
			c-3.8-1.3-5.1,2.4-5.4,4.8c-1.7,11.7-2.6,23.6,0.9,35.2c1.2,3.9,4.6,5,6.6,0.8c5.6-11.5,16.3-17.9,25-26.3
			c2.7-2.6,5.9-4.8,7.2-8.5c1-2.7-0.1-4.9-2.6-6.3c-1.7-0.9-3.6-0.3-3.9,1.2C216.4,317.8,202,320.7,193.4,329.9z"/>
		<path class="st1" d="M428.6,413.4c1,17.2-0.8,19.2-17.7,19.2c-75,0-150.1,0-225.1,0c-17.8,0-20-2.3-19.1-20.1
			c27.5-2.4,54.8-6.8,82.6-3.3c23.9,3,47.5,8.5,71.9,8.3C357.1,417.3,392.8,416,428.6,413.4z"/>
		<path class="st2" d="M428.6,413.4c-35.7,2.6-71.5,3.8-107.4,4.1c-24.4,0.2-48-5.2-71.9-8.3c-27.8-3.5-55.1,0.9-82.6,3.3
			c-0.8-2.9-0.8-5.8,0-8.6c16.6-1.1,33.1-3.4,49.8-3.9c24.6-0.7,49,2.7,73.4,3.9c46.2,2.4,92.5,0,138.7,0
			C428.6,407.1,428.6,410.3,428.6,413.4z"/>
		<path class="st1" d="M428.6,403.9c-46.2,0-92.5,2.4-138.7,0c-24.5-1.3-48.8-4.6-73.4-3.9c-16.7,0.5-33.2,2.8-49.8,3.9
			c-0.3-5.4,4.2-3.7,6.8-4.3c35.1-7,70.6-7,106.2-5.9c34.3,1.1,68.5,3.4,102.5,7.7c13.5,1.7,27-1,40.5-1.3
			C425.1,400.1,429.8,397.7,428.6,403.9z"/>
		<path class="st1" d="M166.9,382.9c1.5-3.1,4.3-1.8,6.5-2.1c20.1-2.2,40.1-1.5,60.2,0.4c37.7,3.6,75.4,0.8,113-0.7
			c25.1-1,50.2-1.4,75.4-1c3.2,0,7.1-1.3,7.2,4.5c0.1,5.7-3.5,4.9-6.9,4.7c-82.9-4.6-165.9-3.1-248.8-3.8
			C171.3,385,168.4,386,166.9,382.9z"/>
		<path class="st1" d="M332.5,455.4c10.8,2.2,15.7-2.5,17.6-12.9c0.8,11.6,7.4,14.3,17.7,12.9c-9.1,5.5-12.7,12.1-6,21.8
			c-11.5-7.3-11.5-7.3-23.8-0.1C344.7,466.5,340.8,460.5,332.5,455.4z"/>
		<path class="st1" d="M203.6,475.8c-7.3-7.6-13.3-5.4-20.5,0.7c5.2-9.8,2.1-16.2-9.5-21.1c7-0.4,11.4,0.4,14.6-1.1
			c3.8-1.7,3.1-7,4.8-10.8c4.1,2.6,2,8.9,5.8,10.7c3.3,1.5,7.6,0.9,13.7,1.4C203.3,460.5,199.2,466.2,203.6,475.8z"/>
		<path class="st1" d="M228.3,455.5c11.1,2.3,15.8-3.2,17.9-13c0.7,11.5,7.2,14.2,17.3,12.9c-7.1,5.5-14.1,10.4-4.9,21.5
			c-12.8-6.3-12.8-6.3-23.6-0.9C239.7,466.8,237.5,460.4,228.3,455.5z"/>
		<path class="st1" d="M307.6,475.7c-6.9-5.3-13.6-6.9-20.8,1.9c5.5-10.1,3.1-17.1-6.7-21.9c8.9,0.1,16.9,0,17.4-12.6
			c2.6,9.8,7,15.7,18.9,11.7c-11,4.9-10.6,12.7-8.8,21.1L307.6,475.7z"/>
		<path class="st1" d="M384.3,455.8c9.1,0.5,16.2-0.8,17.3-12.2c2.4,9.7,7.5,14,17.8,11.5c-5.3,6-15.6,9.5-6.3,21.1
			c-8.5-7.4-14.9-5.7-21.8,0.2C396.4,466.7,393.5,460.5,384.3,455.8z"/>
		<path class="st1" d="M307.5,475.9c0.5,0.1,1,0.2,1.4,0.3c-1.1,1.6-1,0-1.3-0.5C307.6,475.7,307.5,475.9,307.5,475.9z"/>
		<path class="st2" d="M320.1,324.7c4.1-3.2,8-6.5,12.3-9.4c1.8-1.2,3.2-5,6.1-2.7c2.8,2.3,0.8,5-0.4,7.6c-2.2,4.9-4.4,9.8-4.8,15.2
			c-0.1,1.5,0.1,3.5,1,4.3c1.6,1.6,4,0.4,4.9-1c4.1-5.7,14.3-7.6,10.3-18.5c-1.5-4.1,3.5-6.3,7.6-6c5.3,0.4,10.5,1.6,15.9,0
			c2.2-0.7,4.5,0.7,5,3.2c0.4,2.3-1.4,3.1-3.3,3.6c-3.9,1.1-6.3,4.1-8.7,7c-1.9,2.3-6.1,4.2-4.7,7.4c1.6,3.5,6,4.2,9.9,4.2
			c4,0.1,6.7-1.6,7.5-5.6c1.3-6.3,4.4-11.6,8.4-16.6c4.9-6.3,10.3-5.9,14.8-0.6c4.5,5.2-0.1,9.2-3.7,12.8c-1.8,1.8-4.2,2.8-6.8,2.8
			c-3,0-6.3,0.1-5,4.4c1.1,3.8,4.2,2.8,7,2.1c7.9-2,13.5-7.5,20-12.7c-2.5,10.9-19.7,22.3-29.3,18.9c-4.5-1.6-7.6-1.5-11.8,0.1
			c-3.8,1.5-8.1,0.4-11.8-1.8c-3.8-2.3-7.3-3.6-10.8,0.6c-1.1,1.3-3.7,2-3.9,0.7c-1-5.6-3-2.5-5.2-1.1c-3.4,2.2-6.7,5.2-11.1,2.2
			c-4-2.8-3.3-7.1-3-11.2c0.2-3,2.5-5.7,1.1-9.2c-4.2,2.3-7.5,5.7-9,9.6c-3.7,9.7-12.8,8.2-19.9,10.3c-6,1.7-6.1-4.5-7.4-8.5
			c-3.6,0.6-5,3.9-7.7,5.4c-1.6,0.9-4.1,3.2-4.6,2.9c-9.2-7-20.2,6-29.2-2.7c-1.4-1.4-2.8-0.9-4.2,0.1c-8.1,6.3-12.4,2.7-14.5-6.4
			c-3.3,2.8-6.1,5.3-9,7.7c-2.1,1.6-4.4,2.5-7,1c-2.6-1.6-2.8-4.3-2.1-6.7c3-10.4,9.1-18.6,18.3-24.2c3.4-2.1,6.9-0.3,9.8,1.3
			c3.9,2.1-0.1,4.9-0.3,7.4c-0.2,2.5-1.6,4.9-1.6,7.3c0,3.1-2.4,7.9,2.1,8.8c3,0.6,6.2-2.9,7.3-6.4c2.2-6.9,6-12.4,11.8-16.6
			c2.6-1.9,5.5-2.9,8.8-2.6c3.1,0.3,4.6,1.9,3.8,5c-0.6,2.4-2.7,4.3-4.8,2.7c-5.4-4.4-6.6,1.1-8.4,3.4c-2.9,3.7-5,8.2-3.1,13.2
			c1.2,2.9,4.1,2.8,6.5,1.8c5.3-2.1,10.1-4.7,13-10.2c2.9-5.6,7-10.3,12.3-14c4.1-2.8,8-2,11.4,0.3c3.9,2.5,0.3,5.5-0.3,8.3
			c-0.3,1.5-0.9,3-1.2,4.6c-0.7,3.6-2.8,8.9,1.2,10.2c4.3,1.4,7.7-3.1,9.3-7.3c1.7-4.4,2.7-9,4.5-13.4c1.2-3,2.6-7.7,7-5.6
			c4.7,2.3,0.2,5.1-0.8,7.6C319.6,321.1,318.4,322.3,320.1,324.7z M221.7,337.2c6.3-4.2,12.3-8.8,12.3-19.8
			C226.7,323.8,222.7,329.4,221.7,337.2z M280.5,338.5c6.5-4.3,9.8-8.7,12.6-13.6c1-1.8,1.8-3.7-0.1-5c-1.6-1.1-2.9,0.5-3.9,1.6
			C284.9,325.7,281.7,330.5,280.5,338.5z M363.9,321.5c-11.2-3.8-9.1,4.7-11.7,11.4C356.8,328.4,360,325.3,363.9,321.5z"/>
		<path class="st2" d="M193.4,329.9c8.5-9.2,22.9-12.1,26.1-26.1c0.3-1.5,2.3-2.2,3.9-1.2c2.5,1.4,3.5,3.6,2.6,6.3
			c-1.3,3.7-4.5,5.9-7.2,8.5c-8.7,8.4-19.4,14.8-25,26.3c-2.1,4.2-5.4,3.1-6.6-0.8c-3.5-11.6-2.6-23.4-0.9-35.2
			c0.4-2.5,1.6-6.2,5.4-4.8c3.2,1.1,3.2,4.6,2.3,7.3C192.1,316.7,192,323,193.4,329.9z"/>
		<path class="st1" d="M221.7,337.2c1-7.8,5-13.4,12.3-19.8C234,328.4,228,333,221.7,337.2z"/>
		<path class="st1" d="M280.5,338.5c1.2-8,4.4-12.8,8.6-17.1c1.1-1.1,2.4-2.7,3.9-1.6c1.9,1.3,1.1,3.2,0.1,5
			C290.3,329.8,286.9,334.2,280.5,338.5z"/>
		<path class="st1" d="M363.9,321.5c-3.9,3.8-7.1,7-11.7,11.4C354.9,326.2,352.7,317.7,363.9,321.5z"/>
		<path class="st1" d="M365.2,246.3c-0.5,3.3-1.1,7.9-2.1,12.5c-0.8,3.7-2.9,6.3-7,6.2c-3.6-0.1-5.7-2.4-6.7-5.6
			c-2.6-7.9-3-15.9-1-24c1-4.2,3.1-8,7.9-7.9c4.8,0.1,6.8,4.1,7.8,8.1C364.8,238.6,364.7,241.8,365.2,246.3z"/>
		<path class="st1" d="M326.2,179.8c0-4-0.1-5.6,0-7.1c0.3-6.2,1.3-13.3,8.6-13.3c6.7,0,8,7.1,8.6,12.7c0.6,5.9,0.3,11.9-1.5,17.7
			c-1.1,3.4-2.1,6.7-6.4,7c-4.6,0.4-6.6-2.6-8-6.4C325.8,186.1,326.3,181.7,326.2,179.8z"/>
		<path class="st1" d="M297,264.2c0-10.9-0.1-20.9,0.1-30.8c0-1.6-1.3-3.9,1.1-4.9c2.4-1,4.1,0.7,5.8,2.1
			C313.8,239,310.5,258.3,297,264.2z"/>
	</g>
</g>
</svg>
