<?xml version="1.0" encoding="utf-8"?>
<!-- Generator: Adobe Illustrator 26.3.1, SVG Export Plug-In . SVG Version: 6.00 Build 0)  -->
<svg version="1.1" id="Layer_1" xmlns="http://www.w3.org/2000/svg" xmlns:xlink="http://www.w3.org/1999/xlink" x="0px" y="0px"
	 viewBox="0 0 595.3 595.3" style="enable-background:new 0 0 595.3 595.3;" xml:space="preserve">
<style type="text/css">
	.st0{fill:#FFFFFF;}
	.st1{fill:#F59422;}
	.st2{fill:#1F2F57;}
</style>
<path class="st0" d="M297.6,595.3L297.6,595.3C133.3,595.3,0,462,0,297.6l0,0C0,133.3,133.3,0,297.6,0l0,0
	C462,0,595.3,133.3,595.3,297.6l0,0C595.3,462,462,595.3,297.6,595.3z"/>
<g>
	<g>
		<path class="st1" d="M115.8,328.9c-0.9,3.6-3.9,5.5-7.6,5.1c-3.2-0.4-5.7-3.2-5.8-6.6c0-8.1,0-16.3,0-24.4c0-1.4-0.3-1.9-1.8-1.9
			c-4.4,0.1-8.9,0.1-13.3,0c-1.5,0-1.8,0.5-1.8,1.9c0.1,7.9,0,15.7,0,23.6c0,4.7-2.8,7.7-7.2,7.6c-4.1-0.1-6.7-3.4-6.4-8.1
			c0.2,0.2,0.3,0.3,0.5,0.5c1.7,2.1,3.7,2.8,6,2.1c2.2-0.7,3.4-2.5,3.4-5.3c0-4.9,0.1-9.9,0.2-14.8c0-11.8,0.1-23.6,0.1-35.4
			c0-2.7-1.2-4.6-3.3-5.4c-2.7-1-5,0.1-6.7,3.1c-0.4-5.5,0.6-7.1,5.9-9.4c0.6,0,1.2,0,1.8,0c0.1,0.1,0.2,0.3,0.4,0.3
			c4,1.3,5.5,3.4,5.5,7.6c0,8.9,0,17.7,0,26.6c0,1.3,0.4,1.7,1.7,1.6c4.4-0.1,8.9-0.1,13.3,0c1.6,0,1.9-0.4,1.9-1.9
			c-0.1-9,0-17.9,0-26.9c0-2.6,1-4.6,3.2-6c0.9-0.5,1.9-0.8,2.8-1.2c0.6,0,1.2,0,1.8,0c1.4,0.7,3,1.1,4.1,2.4c0.9,1,1.5,2.2,1.7,3.5
			c-1.7,0-3.5,0-5.2,0.1c-3.1,0.1-4.8,1.9-4.8,5c0,17.2,0,34.4,0,51.6c0,3.1,1.6,4.8,4.8,4.9C112.4,328.8,114.1,328.8,115.8,328.9z"
			/>
		<path class="st2" d="M115.8,328.9c-1.7,0-3.4,0-5.1-0.1c-3.2-0.1-4.8-1.8-4.8-4.9c0-17.2,0-34.4,0-51.6c0-3.1,1.7-4.9,4.8-5
			c1.7-0.1,3.5-0.1,5.2-0.1c6.6,0,13.3,0,19.9,0.1c3.6,0,7.1,0.4,10.4,1.9c5.7,2.5,8,7.1,8.2,13.1c0.1,5.4-2.2,9.5-7,12.2
			c-0.4,0.2-0.8,0.5-1.2,0.7c0,0,0,0.1-0.1,0.3c3.2,1.1,6.1,2.8,8.3,5.3c6.8,7.8,3.8,21.2-5.7,25.6c-4,1.8-8.3,2.6-12.7,2.6
			C129.3,328.8,122.5,328.8,115.8,328.9z M128.3,301.1c-4.1,0-7.4,0-10.7,0c-1.2,0-1.6,0.2-1.6,1.5c0.1,5.5,0.1,11.1,0,16.6
			c0,1.2,0.3,1.6,1.5,1.6c6.1-0.1,12.2,0,18.4,0c1.2,0,2.4-0.1,3.6-0.3c5.3-0.9,8.3-4.4,8.3-9.6c0-5.1-2.7-8.3-8.1-9.3
			C135.8,300.6,131.7,301.3,128.3,301.1z M127.2,275.7c-3.7,0-6.7,0.1-9.8,0c-1.1,0-1.4,0.3-1.4,1.4c0.1,4.7,0.1,9.4,0,14.1
			c0,1.2,0.3,1.6,1.5,1.5c5.7-0.1,11.4,0,17.1,0c0.9,0,1.9-0.1,2.8-0.3c4.5-1,6.8-4.1,6.6-9.1c-0.1-4-2.6-6.7-7-7.4
			C133.6,275.3,130.1,275.8,127.2,275.7z"/>
		<path class="st2" d="M72,270.7c1.8-3,4-4.1,6.7-3.1c2.2,0.8,3.4,2.7,3.3,5.4c0,11.8,0,23.6-0.1,35.4c0,4.9-0.1,9.9-0.2,14.8
			c0,2.8-1.2,4.6-3.4,5.3c-2.3,0.7-4.3,0-6-2.1c-0.1-0.2-0.3-0.3-0.5-0.5c-4.1-5.9-8.2-11.9-12.3-17.8
			c-7.5-10.8-15.1-21.5-22.7-32.3c-2-2.9-1.7-5.9,0.8-7.7c2.6-1.8,5.5-1.1,7.6,1.9c8.4,12.1,16.7,24.2,25.1,36.3
			c0.3,0.4,0.6,0.8,1.1,1.2C71.8,295.4,71.7,283,72,270.7z"/>
	</g>
	<g>
		<path class="st2" d="M198.2,298.6c1.6-0.5,1.7-1.7,1.7-3.1c0-7.1,0-14.2,0.1-21.3c0-1.8,0.1-3.7-2.4-3.7c-2.5,0.1-2.4,2.1-2.4,3.8
			c0,4,0,8.1,0,12.1c0,0.6,0.4,1.4-0.6,1.7c-3.7-5.3-7.3-10.6-11-15.8c-1.7-2.4-2.7-2.5-5-0.6c0,0.8,0,1.7,0,2.5
			c0.9,0.1,1.1,0.9,1.4,1.5c5,7.1,10,14.2,14.9,21.3C195.8,298,196.6,299,198.2,298.6z"/>
		<path class="st2" d="M394.5,290.1c-0.1-3.5-2.1-5.3-5.2-6.8c3.2-2.1,4.3-4.8,3.3-8.3c-1-3.3-3.6-4.4-6.7-4.5
			c-4.4-0.2-8.8-0.1-13.1,0c-1.5,0-2.3,0.7-2.3,2.3c0,7.9,0,15.8,0,23.7c0,1.4,0.7,2.3,2,2.3c5.3,0,10.6,0.7,15.8-0.5
			C392.7,297.3,394.6,294.6,394.5,290.1z M378,274.2c1.9,0.2,3.9-0.1,5.9,0.1c2.8,0.2,4.1,1.5,4.1,3.9c0,2.3-1.5,3.7-4.2,3.9
			c-1.2,0.1-2.5,0-3.7,0c-5,0-4.9,0-5.1-4.9C375,274.8,375.6,273.9,378,274.2z M386.2,294.7c-3.3,0.6-6.7,0.1-10.1,0.3
			c-0.7,0-1-0.3-1-1c0-0.7,0-1.5,0-2.2c0-5.7,0-5.7,5.7-5.6c1.6,0,3.3-0.1,4.9,0c2.5,0.3,4.1,2,4,4.2
			C389.8,292.6,388.6,294.2,386.2,294.7z"/>
		<path class="st2" d="M252.6,295.8c-1.6-1-1.7-2.6-1.7-4.1c-0.1-2.5-1.1-4.4-3.4-5.8c4-3.1,5.2-5.9,4.2-9.4c-1-3.4-4.1-5.9-7.9-6
			c-4.5-0.1-8.9,0-13.4,0c-1.6,0-2.5,0.7-2.5,2.4c0,7.8,0,15.7,0,23.5c0,1.7,1.1,2.4,2.5,2.5c1.7,0.1,2.2-1.1,2.2-2.6
			c-0.1-2.2,0-4.5,0-6.7c0-1,0.1-1.7,1.4-1.7c2.8,0.1,5.6-0.1,8.4,0.1c2.9,0.2,4,1.5,4.2,4.4c0.1,0.9,0.1,1.8,0.3,2.7
			c0.5,1.9,1.7,3.4,3.8,3.8c0.9,0.2,1.9,0,2.4-0.9C253.3,297.2,253.3,296.3,252.6,295.8z M243,284.1c-3.1,0.2-6.3,0.1-9.4,0.1
			c-0.9,0-1.1-0.4-1.1-1.2c0-2.5,0-4.9,0-7.4c0-1.1,0.4-1.4,1.5-1.4c0.4,0,0.7,0,1.1,0c1.1,0,2.2,0,3.3,0c1.3,0,2.6,0,4,0
			c2.8,0.1,4.6,1.8,4.8,4.3C247.3,281.3,245.5,283.9,243,284.1z"/>
		<path class="st2" d="M444.8,269.9c-8.9,0-15.4,6.2-15.4,14.6c0,8.5,6.4,14.6,15.3,14.7c8.9,0.1,15.5-6.1,15.5-14.4
			C460.2,276.2,453.7,269.9,444.8,269.9z M444.7,295.2c-6.1-0.1-10.6-4.7-10.5-10.7c0.1-6.1,4.7-10.6,10.8-10.5
			c6.1,0.1,10.6,4.7,10.6,10.8C455.4,290.7,450.7,295.2,444.7,295.2z"/>
		<path class="st2" d="M427.4,284.7c0.1-8.4-6.6-14.8-15.6-14.8c-8.8,0-15.4,6.3-15.4,14.7c0,8.4,6.5,14.6,15.4,14.6
			C420.7,299.2,427.4,293,427.4,284.7z M401.4,284.5c0-6.2,4.5-10.6,10.6-10.6c6,0,10.7,4.7,10.7,10.7c0,6.1-4.6,10.6-10.7,10.6
			C405.8,295.2,401.4,290.7,401.4,284.5z"/>
		<path class="st2" d="M559.6,286c0-1.2-0.5-2.1-1.6-2.1c-3-0.1-6.1-0.1-9.2,0c-1,0-1.6,0.8-1.6,1.9c0,1.1,0.6,1.7,1.6,1.8
			c1.1,0.1,2.2,0.3,3.2,0.1c2.2-0.3,3.3,0.4,2.9,2.8c-0.1,0.5-0.1,1,0,1.5c0.2,1.6-0.4,2.4-2,2.7c-2.3,0.4-4.6,0.6-6.9,0.2
			c-4.9-0.9-8.6-5-9-9.8c-0.3-4.3,2.7-8.7,7.3-10.4c3.2-1.2,6.5-1,9.7,0.2c1.6,0.6,3.3,1.1,3.9-0.9c0.7-2-1.2-2.4-2.6-2.9
			c-5.1-1.7-10.1-1.6-14.9,0.8c-5.1,2.6-8.2,6.7-8.2,12.8c0,6,3.2,10,8.4,12.7c3.9,2,8.1,2.3,12.3,1.4c6.1-1.2,6.7-2,6.7-8.3
			C559.6,289,559.6,287.5,559.6,286z"/>
		<path class="st2" d="M527,298.6c1.1-0.4,1.4-1.3,1.4-2.4c0-7.8,0-15.7,0-23.5c0-1.4-0.4-2.3-1.9-2.3c-1.6,0-2.2,0.8-2.2,2.3
			c0,5.4,0,10.7,0,16.1c0,0.7,0.4,1.5-0.4,2.2c-0.6-0.6-1.1-1.2-1.7-1.8c-5-5.8-10-11.6-15-17.5c-1-1.2-2.1-1.6-3.5-1.1
			c-1.4,0.5-1.2,1.6-1.2,2.7c0,7.5,0,15,0,22.5c0,1.6,0.2,3,2.1,2.9c1.9-0.1,2-1.5,2-3c0-5.8,0-11.5,0-18c3.4,4,6.4,7.4,9.4,10.8
			c2.6,3.1,5.3,6.1,7.9,9.2C524.8,298.7,525.8,299.1,527,298.6z"/>
		<path class="st2" d="M475.1,287.1c3,3.5,6.1,7,9.1,10.5c1.2,1.3,2.5,1.8,3.9,0.6c1.5-1.3,0.6-2.5-0.4-3.6
			c-3.1-3.5-6.1-7.1-9.3-10.6c-1-1.1-1-1.7,0.2-2.7c3-2.4,6-5,8.9-7.5c1-0.8,1.3-1.7,0.5-2.8c-0.8-1-1.8-1.1-2.9-0.4
			c-0.9,0.6-1.7,1.3-2.5,2c-4.5,3.8-9,7.7-14,12c0-4.3,0-7.8,0-11.3c0-1.7-0.3-3-2.3-3c-2,0-2.3,1.3-2.3,3c0,6.4,0,12.9,0,19.3
			c0,1.3,0,2.6,0,4c0.1,1.4,1.1,2.1,2.3,2c1.3,0,2.2-0.7,2.3-2.1c0-0.8,0.1-1.7,0-2.5c-0.6-3.3,0.7-5.6,3.5-7.5
			C473.5,285.7,474.1,285.9,475.1,287.1z"/>
		<path class="st2" d="M224,296.8c0-1.5-1.1-1.9-2.4-1.9c-2.1,0-4.3,0.1-6.4,0c-2.2-0.1-5.2,1-6.4-0.4c-1.1-1.3-0.2-4.2-0.4-6.4
			c-0.2-1.8,0.6-2,2.1-2c3.1,0.1,6.1,0,9.2,0c1.3,0,2.4-0.4,2.3-1.9c0-1.3-1-1.8-2.2-1.8c-1.7-0.1-3.5,0-5.2,0c-6.4,0-6.3,0-6.2-6.3
			c0-1.7,0.7-1.9,2-1.8c3.8,0.1,7.6,0,11.4,0c1.3,0,2.3-0.5,2.2-2c-0.1-1.3-1.1-1.7-2.3-1.7c-5.1,0-10.2,0-15.4,0
			c-1.9,0-2.6,0.9-2.6,2.8c0.1,3.7,0,7.4,0,11.1c0,4,0.1,7.9,0,11.9c0,1.8,0.8,2.6,2.5,2.6c5.1,0,10.2,0,15.4,0
			C222.9,298.8,224,298.3,224,296.8z"/>
		<path class="st2" d="M338.5,293.4c0.6,1.5,1.4,3,2.2,4.4c0.5,1,1.4,1.3,2.5,1c1-0.3,1.4-1,1.5-2.1c-0.1-0.4-0.2-0.8-0.4-1.1
			c-3.7-7.9-7.4-15.8-11.1-23.7c-0.5-1.1-1.3-1.7-2.5-1.7c-1.3,0-1.9,0.8-2.4,1.8c-3.7,7.9-7.3,15.8-11,23.7
			c-0.5,1.2-0.7,2.3,0.6,2.9c1.3,0.6,2.4,0.1,3-1.3c0.7-1.4,1.4-2.8,1.9-4.3c0.5-1.3,1.2-1.7,2.6-1.7c3.4,0.1,6.8,0.1,10.2,0
			C337.2,291.5,337.9,292,338.5,293.4z M334,287.9c-2.2-0.1-4.4-0.1-6.7,0c-1.3,0-1.9-0.1-1.2-1.6c1.5-3,2.8-6.1,4.4-9.5
			c1.6,3.4,3,6.5,4.5,9.5C335.8,287.6,335.4,288,334,287.9z"/>
		<path class="st2" d="M314.6,297.7c1.3-0.5,2.6-1.2,1.9-2.9c-0.7-1.7-2.2-1.5-3.6-0.8c-2.6,1.3-5.4,1.4-8.2,1
			c-5.1-0.8-8.6-4.6-8.9-9.7c-0.3-5.2,2.7-9.3,7.7-10.7c3.2-0.9,6.4-0.6,9.4,0.7c1.4,0.6,2.9,0.9,3.6-0.8c0.8-1.8-0.7-2.4-2.1-3
			c-2.3-1-4.7-1.4-7.9-1.4c0,0-0.8,0-1.5,0.1c-6.1,0.8-10.9,3.5-13.1,9.5c-2,5.4-1.1,10.4,2.9,14.7
			C299.2,299.2,307.9,300.6,314.6,297.7z"/>
		<path class="st2" d="M275.4,274.2c0.6,0,1.2,0,1.7,0c1.1,0,2-0.6,2-1.7c0.1-1.3-0.8-2-2-2c-7,0-14,0-21.1,0
			c-1.2,0-2.1,0.5-2.1,1.9c0.1,1.3,1,1.8,2.2,1.8c2.1,0,4.1,0.1,6.2,0c1.4-0.1,1.9,0.3,1.8,1.8c-0.1,3.4,0,6.8,0,10.1
			c0,3.2,0,6.4,0,9.7c0,1.7,0.4,3.1,2.3,3.1c2.1,0.1,2.5-1.3,2.5-3.2c-0.1-4.9,0-9.9,0-14.9c0-2.1-0.7-4.9,0.4-6.2
			C270.4,273.2,273.3,274.3,275.4,274.2z"/>
		<path class="st2" d="M364.7,298.8c1.3,0,2.4-0.5,2.4-1.9c0-1.6-1.2-2-2.6-1.9c-3.5,0-6.9-0.1-10.4,0.1c-1.8,0.1-2.4-0.4-2.3-2.3
			c0.1-6.5,0-13,0.1-19.5c0-1.7-0.5-2.8-2.3-2.7c-1.8,0-2.3,1.1-2.3,2.8c0.1,3.8,0,7.6,0,11.4c0,3.8,0.1,7.6,0,11.4
			c0,1.9,0.7,2.8,2.6,2.8C354.8,298.8,359.7,298.8,364.7,298.8z"/>
		<path class="st2" d="M284.6,298.8c2,0.1,2.6-1.3,2.6-3.1c0-7.4,0-14.8,0-22.3c0-1.7-0.5-2.9-2.5-2.9c-1.9,0-2.2,1.2-2.2,2.8
			c0.1,3.7,0,7.4,0,11.1c0,3.7,0,7.4,0,11.1C282.5,297.1,282.6,298.7,284.6,298.8z"/>
		<path class="st2" d="M494.6,270.4c-1.8,0-2.4,1.2-2.3,2.8c0,3.8,0,7.6,0,11.4c0,3.7,0,7.4,0,11.1c0,1.7,0.5,3,2.4,3
			c1.7,0,2.4-1.2,2.4-2.9c0-7.6,0-15.2,0-22.8C497,271.5,496.4,270.4,494.6,270.4z"/>
		<path class="st1" d="M358.2,310.9c-4.4,0-7.4,2.8-7.5,7.1c0,4.5,2.7,7.2,7.3,7.2c4.5,0,7.5-2.8,7.5-7
			C365.6,313.9,362.6,310.9,358.2,310.9z M358.1,322.3c-2.3,0-3.9-1.6-3.9-4.1c0-2.4,1.6-4.3,3.8-4.3c2.3,0,3.8,1.7,3.8,4.2
			C361.9,320.8,360.6,322.3,358.1,322.3z"/>
		<path class="st1" d="M346.9,311c-1.9,0-1.6,1.4-1.7,2.6c-0.1,0.8,0.6,2.1-0.5,2.4c-1.4,0.3-3,0.4-4.4,0c-1-0.3-0.3-1.8-0.5-2.7
			c0-0.2,0-0.3,0-0.5c-0.1-1.2-0.6-1.9-1.8-1.9c-1.3,0-1.8,0.7-1.8,1.8c0,3.5,0,6.9,0,10.4c0,1.2,0.5,2,1.9,1.9
			c1.3-0.1,1.6-0.9,1.7-2c0-0.9,0-1.8,0-2.7c0-0.5,0.1-0.9,0.7-1.1c2.7-1,4.7,0.2,4.7,3.1c0,0.2,0,0.3,0,0.5c-0.1,1.3,0,2.3,1.8,2.3
			c1.7-0.1,1.7-1.2,1.7-2.4c0-1.6,0-3.1,0-4.7c0-1.5,0-3,0-4.4C348.7,312.3,348.6,311,346.9,311z"/>
		<path class="st1" d="M386.3,322.1c-0.5,0-1,0-1.5,0c-1-0.1-2.4,0.5-2.4-1.5c0-1.9,1.3-1.3,2.2-1.4c1,0,1.8-0.2,1.8-1.5
			c0-1.2-0.8-1.5-1.8-1.5c-0.3,0-0.7,0-1,0c-0.8,0-1.3-0.1-1.2-1.1c0-1,0.7-1,1.4-1c0.6,0,1.2,0,1.7,0c1.1,0.1,1.8-0.4,1.8-1.6
			c0-1-0.7-1.4-1.7-1.4c-1.5,0-3,0-4.5,0c-1.6-0.1-2.2,0.6-2.2,2.2c0.1,3,0.1,6.1,0,9.1c-0.1,1.9,0.6,2.8,2.5,2.6
			c0.6-0.1,1.2,0,1.7,0c0,0,0,0,0,0c1,0,2,0,3,0c1,0,1.5-0.7,1.4-1.6C387.6,322.6,387.2,322.1,386.3,322.1z"/>
		<path class="st2" d="M212.5,310.8c-4.4-0.1-7.3,2.9-7.3,7.3c0,4.4,2.7,7.2,7,7.3c4.3,0.1,7.3-2.9,7.3-7.3
			C219.5,313.7,216.8,310.8,212.5,310.8z M212.3,323.7c-3.1,0-5.1-2.3-5-5.7c0.1-3.3,2.1-5.4,5.2-5.4c3.2,0,5.1,2.3,5.1,5.7
			C217.4,321.6,215.4,323.7,212.3,323.7z"/>
		<path class="st2" d="M464.1,310.8c-4.3,0-7.2,2.9-7.2,7.3c0,4.4,2.7,7.2,6.9,7.3c4.3,0.1,7.3-2.9,7.4-7.2
			C471.3,313.8,468.4,310.8,464.1,310.8z M464.1,323.7c-3.1,0-5.2-2.3-5.2-5.7c0-3.3,2-5.4,5.1-5.4c3.1,0,5.3,2.3,5.2,5.7
			C469.2,321.5,467.1,323.7,464.1,323.7z"/>
		<path class="st2" d="M523.8,310.8c-4.3,0-7.3,2.9-7.3,7.3c0,4.3,2.8,7.2,7,7.3c4.4,0.1,7.5-3,7.4-7.4
			C530.8,313.8,527.9,310.8,523.8,310.8z M523.7,323.7c-3.1,0-5.2-2.3-5.1-5.7c0.1-3.3,2-5.4,5.1-5.4c3.1,0,5.1,2.2,5.1,5.4
			C528.8,321.4,526.8,323.7,523.7,323.7z"/>
		<path class="st2" d="M286.1,310.8c-4.3,0-7.3,2.9-7.3,7.3c0,4.3,2.8,7.2,7,7.4c4.4,0.1,7.5-3,7.4-7.4
			C293.2,313.8,290.3,310.8,286.1,310.8z M285.9,323.7c-3,0-5-2.2-5.1-5.5c0-3.4,2-5.6,5.2-5.6c3,0,5,2.2,5.1,5.5
			C291.1,321.5,289.1,323.7,285.9,323.7z"/>
		<path class="st2" d="M544.7,311.1c-1.2,0.1-0.9,1.2-0.9,1.9c0,2.6,0,5.3,0,8.5c-2.8-3.6-5.1-6.5-7.5-9.5c-0.5-0.6-1-1.2-1.8-0.9
			c-0.9,0.3-0.6,1.1-0.6,1.7c0,3.5,0,7.1,0,10.6c0,0.7-0.2,1.6,0.9,1.7c1.1,0,1-0.9,1-1.6c0-2.7,0-5.4,0-8.1
			c0.2-0.1,0.3-0.1,0.5-0.2c2.4,3,4.8,6,7.2,9c0.4,0.5,0.9,1.1,1.6,0.8c0.9-0.2,0.7-1,0.7-1.6c0-3.5,0-6.9,0-10.4
			C545.7,312.3,546.1,311.1,544.7,311.1z"/>
		<path class="st2" d="M233.4,311.1c-1.3,0-1,1-1,1.8c0,2.3,0.1,4.6-0.1,6.9c-0.1,2.7-1.6,3.9-4.2,3.8c-2.4-0.1-3.5-1.4-3.5-4.1
			c0-2.4,0-4.8,0-7.2c0-0.8-0.3-1.3-1.1-1.3c-0.8,0-0.9,0.6-0.9,1.2c0,1.4,0,2.8,0,4.2c0,1.3-0.1,2.6,0,4c0.2,2.9,2,4.6,5,4.7
			c4.1,0.2,6.3-1.1,6.6-4.3c0.3-2.7,0.2-5.4,0.2-8.2C234.4,312,234.5,311.1,233.4,311.1z"/>
		<path class="st2" d="M425.8,319c0.3-0.2,0.5-0.4,0.6-0.6c2-1.7,2.4-4.2,1.1-5.9c-1.1-1.4-5.6-2.2-7-1.2c-0.3,0.2-0.5,0.7-0.6,1
			c0,3.9,0,7.7,0,11.6c0,0.6,0.3,1.1,1,1.1c0.8,0,0.9-0.6,0.9-1.2c0-0.8,0-1.7,0-2.5c0.1-0.7-0.4-1.8,0.7-2.1c1.2-0.3,1.5,0.7,2,1.4
			c0.9,1.3,1.8,2.6,2.7,3.8c0.5,0.6,1.2,0.8,1.8,0.4c0.9-0.6,0.1-1.2-0.2-1.6C428,322,427,320.6,425.8,319z M423.2,317.6
			c-2.1,0.1-0.6-1.8-1.3-2.3c0.3-1.2-0.6-2.7,1.5-2.6c1.6,0.1,2.8,0.6,2.8,2.4C426.2,317.1,424.7,317.6,423.2,317.6z"/>
		<path class="st2" d="M246.1,321.7c-1.1-1.4-2.4-2.6-0.2-4.4c1.3-1.1,1-3.1,0-4.6c-0.9-1.4-4.4-2.1-6.4-1.4c-1.9,0.6-1,2.2-1.1,3.3
			c-0.1,1.2,0,2.5,0,3.7c0,1.7,0,3.5,0,5.2c0,0.7-0.1,1.6,1,1.7c1.1,0.1,1-0.8,1-1.6c0-0.7-0.1-1.3,0-2c0.1-0.8-0.4-1.8,0.6-2.2
			c1.1-0.5,1.6,0.5,2.1,1.3c0.8,1.2,1.6,2.3,2.4,3.4c0.6,0.8,1.3,1.5,2.2,0.8c0.8-0.7-0.2-1.3-0.5-1.8
			C246.9,322.6,246.5,322.1,246.1,321.7z M241.6,317.6c-2.1,0.1-0.8-1.7-1.3-2.4c0.3-1-0.6-2.6,1.5-2.4c1.5,0.1,2.8,0.6,2.8,2.4
			C244.6,317.1,243.1,317.6,241.6,317.6z"/>
		<path class="st2" d="M302.4,317.5c1.2-1.3,2.2-2.7,1.3-4.4c-0.9-1.9-2.8-1.8-4.5-2c-0.3,0-0.7,0-1,0c-1.5,0-2.2,0.5-2.1,2.2
			c0.1,2.8,0,5.6,0,8.4c0,3.6,0.1,3.6,3.8,3.5c2.1-0.1,4-0.5,4.7-2.8C305.4,320.2,304.5,318.5,302.4,317.5z M298.1,314.7
			c0.2-0.9-0.5-2.2,1.3-2c1.3,0.1,2.6,0.5,2.5,2c-0.1,1.4-1.3,1.9-2.6,2C297.4,316.8,298.4,315.4,298.1,314.7z M299.6,323.6
			c-2.6,0.2-1-1.8-1.6-2.8c0.6-0.8-0.8-2.6,1.4-2.4c1.7,0.1,3.4,0.6,3.4,2.8C302.7,323.1,301.2,323.5,299.6,323.6z"/>
		<path class="st2" d="M266.3,319.5c-0.9,0-1,0.7-1,1.4c-0.1,0.9,0.4,1.9-1.1,2.4c-3,1-6.3-0.8-6.9-3.8c-0.4-2.1-0.3-4.2,1.6-5.6
			c1.9-1.5,4.1-1.4,6.3-0.5c0.6,0.3,1.4,1,1.8-0.2c0.4-1-0.5-1.3-1.1-1.6c-2.6-1.3-6.7-0.7-8.8,1.3c-2,1.9-2.6,5.4-1.5,8.3
			c1,2.6,3.6,4.2,7,4.1c4,0,5-1,4.7-4.4C267.3,320.2,267.2,319.5,266.3,319.5z"/>
		<path class="st1" d="M375.6,311.2c-1.3,0-2.6,0-4,0c-1.2,0-2.5,0-3.7,0c-1.1,0-2.3-0.1-2.3,1.5c0,1.6,1.1,1.7,2.2,1.6
			c1.7-0.2,1.9,0.7,1.8,2.1c-0.1,2.3,0,4.6,0,6.9c0,1.2,0.5,1.8,1.8,1.9c1.3,0,1.7-0.7,1.7-1.9c0-2,0.1-4,0-5.9
			c-0.1-1.9,0-3.5,2.6-3.1c1,0.2,1.5-0.5,1.5-1.5C377.3,311.7,376.7,311.2,375.6,311.2z"/>
		<path class="st2" d="M313.5,311.6c-0.4-0.9-1.5-0.8-1.9,0.1c-1.7,4-3.3,8.1-4.9,12.1c-0.2,0.4-0.3,1,0.4,1.2
			c0.5,0.1,1,0.1,1.3-0.5c0.4-0.7,0.6-1.5,1-2.3c0.4-0.8,0.4-1.7,1.7-1.8c3.3-0.3,3.8-0.1,5.1,2.9c0.2,0.5,0.5,1.1,0.9,1.5
			c0.2,0.2,0.8,0.2,1.2,0.1c0.3-0.1,0.4-0.4,0.3-1.1C316.8,320,315.2,315.8,313.5,311.6z M311,318.7c0-1.6,0.9-2.7,1.8-4
			c0.5,1.3,0.9,2.5,1.5,4C313,318.7,312,318.7,311,318.7z"/>
		<path class="st1" d="M397.3,321.9c-0.5-0.1-1-0.1-1.5,0c-2,0.3-2.5-0.6-2.4-2.5c0.1-2.2,0-4.4,0-6.7c0-1.2-0.6-1.7-1.6-1.7
			c-1.1,0-1.9,0.5-1.8,1.8c0,1.7,0,3.5,0,5.2c0,1.7,0,3.5,0,5.2c0,1,0.2,1.9,1.4,1.9c2,0.1,4,0,5.9,0c0.9,0,1.3-0.6,1.4-1.5
			C398.7,322.6,398.3,322,397.3,321.9z"/>
		<path class="st2" d="M494.6,311.1c-1,0-1,0.7-1,1.4c0,2.1,0,4.3,0,6.4c0,3.3-1.3,4.8-4,4.8c-2.6,0-3.8-1.5-3.9-4.6
			c0-2.1,0-4.3,0-6.4c0-0.7,0.1-1.4-0.8-1.5c-1,0-1.2,0.7-1.2,1.5c0,2.6-0.1,5.3,0.1,7.9c0.2,2.9,2,4.5,4.8,4.7
			c5.1,0.3,6.9-1.4,6.9-6.5c0-0.7,0-1.5,0-2.2c0-1.3,0-2.6,0-4C495.6,311.8,495.5,311.1,494.6,311.1z"/>
		<path class="st2" d="M414.7,313.2c0.7,0.3,1.7,1.5,2.2,0c0.4-1.2-0.9-1.4-1.7-1.8c-2.7-1.1-6.2-0.4-8,1.6
			c-2.2,2.5-2.3,5.4-1.2,8.4c0.9,2.6,3.4,4,7,4c0.2,0,1,0,1.7-0.2c0.9-0.4,2.6-0.5,2.2-1.9c-0.5-1.6-1.6-0.2-2.4,0
			c-2.4,0.7-4.8,0.1-6-1.7c-1.4-2.1-1.4-5.4,0.1-7.2C409.9,312.7,412.3,312.3,414.7,313.2z"/>
		<path class="st2" d="M437.2,317.7c-0.7-0.4-1.5-0.8-2.2-1.2c-1-0.6-2-1.4-1.4-2.8c0.6-1.3,1.9-1.1,3-0.9c0.5,0.1,0.9,0.4,1.4,0.5
			c0.3,0,0.7-0.1,0.8-0.3c0.3-0.3,0.2-0.7-0.1-1.1c-1.1-1.4-4.6-1.4-6.2,0c-1.5,1.3-1.6,3.5-0.2,5c0.9,0.9,2,1.4,3.1,2
			c1.3,0.8,2.4,1.8,1.6,3.4c-0.8,1.5-2.2,1.5-3.7,0.9c-0.7-0.3-1.7-1.5-2.2-0.1c-0.5,1.3,1,1.5,1.8,1.9c0.6,0.2,1.3,0.2,1.8,0.3
			c2.1-0.1,3.8-0.7,4.3-2.8C439.7,320.4,439,318.8,437.2,317.7z"/>
		<path class="st2" d="M453.5,318.2c-0.9-0.7-2-1.2-2.9-1.8c-1-0.6-2.1-1.4-1.4-2.7c0.6-1.2,1.9-1.1,3.1-0.9c0.8,0.2,1.8,1.4,2.2,0
			c0.4-1.3-1-1.4-1.9-1.7c-0.5-0.2-1-0.2-1.4-0.2c-1.9,0.2-3.6,0.8-4.1,2.7c-0.6,2.2,0.7,3.5,2.4,4.6c1.6,1,4.3,1.5,3.1,4.1
			c-1,2.2-3,1.4-4.7,0.4c-0.5-0.3-1-0.2-1.3,0.3c-0.3,0.4,0,0.8,0.3,1.1c1.2,1.6,5.2,1.6,6.8,0C455.5,322.5,455.4,319.8,453.5,318.2
			z"/>
		<path class="st2" d="M203.7,311.2c-0.8-0.5-1.5,0.2-2,0.9c-1,1.7-2.1,3.5-3.4,5.6c-1.2-2-2.1-3.6-3.1-5.2c-0.5-0.9-1.2-2-2.3-1.2
			c-1.1,0.8,0.2,1.5,0.5,2.2c1.6,3.2,4.5,5.7,3.9,9.8c-0.1,0.7-0.4,1.8,0.9,1.8c1.2,0,1.1-1.1,1-1.8c-0.4-2.8,0.6-5.1,2.3-7.3
			c0.7-0.9,1.3-1.9,1.8-2.9C203.8,312.5,204.6,311.8,203.7,311.2z"/>
		<path class="st2" d="M274.6,323.3c-1.7,0-2.1-0.6-2-2.2c0.1-2.9,0-5.8,0-8.7c0-0.7-0.2-1.4-1-1.4c-0.9,0-1,0.7-1,1.4
			c0,1.8,0,3.6,0,5.4c0,1.1,0,2.1,0,3.2c0,3.9,0,4,4,3.8c1.2,0,3.4,0.8,3.4-0.7C278,322.4,275.8,323.3,274.6,323.3z"/>
		<path class="st2" d="M480.8,323.3c-0.9,0-1.8-0.1-2.7,0c-1.5,0.2-2-0.3-2-1.9c0.1-3,0-5.9,0-8.9c0-0.7-0.1-1.4-1-1.4
			c-0.9,0-1,0.6-1,1.3c0,1.8,0,3.6,0,5.4c0,1.9,0,3.8,0,5.7c0,0.8,0.1,1.5,1.1,1.5c1.8,0,3.6,0,5.5,0c0.5,0,1-0.2,1-0.8
			C481.8,323.6,481.4,323.3,480.8,323.3z"/>
		<path class="st2" d="M508,311.2c-1.5,0-3,0-4.4,0c-1.4,0-2.8,0-4.2,0c-0.7,0-1.4,0-1.4,0.9c0,0.8,0.7,0.7,1.3,0.7
			c0.3,0,0.7,0.1,1,0c2.1-0.4,2.5,0.6,2.4,2.5c-0.1,2.7-0.1,5.4,0,8.1c0,0.7-0.3,1.6,0.9,1.7c1.3,0.1,1.1-1,1.1-1.8
			c0-2.8,0.1-5.6,0-8.4c-0.1-1.7,0.5-2.4,2.2-2.1c0.4,0.1,0.8,0,1.2,0c0.6,0,1.2,0,1.1-0.9C509,311.3,508.5,311.2,508,311.2z"/>
		<path class="st2" d="M327.6,323.3c-0.7,0-1.3-0.1-2,0c-2.4,0.4-2.9-0.7-2.7-2.8c0.2-2.7,0-5.4,0.1-8.1c0-0.8-0.2-1.3-1.1-1.2
			c-0.7,0-0.9,0.5-0.9,1.2c0,1.9,0,3.8,0,5.7c0,1.8,0,3.6,0,5.4c0,0.8-0.1,1.6,1,1.7c1.9,0.1,3.8,0,5.7,0c0.6,0,0.9-0.3,0.9-0.9
			C328.6,323.6,328.2,323.3,327.6,323.3z"/>
		<path class="st2" d="M512.5,311.1c-0.9,0-1,0.6-1,1.4c0,1.8,0,3.6,0,5.4c0,2,0,3.9,0,5.9c0,0.7,0.1,1.4,1,1.3c1,0,1-0.7,1-1.4
			c0-3.8,0-7.6,0-11.3C513.5,311.7,513.4,311.1,512.5,311.1z"/>
	</g>
</g>
</svg>
