<?xml version="1.0" encoding="utf-8"?>
<!-- Generator: Adobe Illustrator 26.3.1, SVG Export Plug-In . SVG Version: 6.00 Build 0)  -->
<svg version="1.1" id="Layer_1" xmlns="http://www.w3.org/2000/svg" xmlns:xlink="http://www.w3.org/1999/xlink" x="0px" y="0px"
	 viewBox="0 0 595.3 595.3" style="enable-background:new 0 0 595.3 595.3;" xml:space="preserve">
<style type="text/css">
	.st0{fill:#EA1C23;}
	.st1{fill:#FEFCFC;}
</style>
<path class="st0" d="M297.6,595.3L297.6,595.3C133.3,595.3,0,462,0,297.6v0C0,133.3,133.3,0,297.6,0h0
	C462,0,595.3,133.3,595.3,297.6v0C595.3,462,462,595.3,297.6,595.3z"/>
<g>
	<path class="st1" d="M428.1,398.8c-11.1,10.9-22.8,18.8-37.2,22.1c-13.3,3.1-26.6,3.3-39.7-0.9c-21.2-6.7-33.1-22.9-34.3-46.4
		c-1.3-24.6,10.1-44.1,31.2-53.5c15.3-6.8,31.9-7.3,48.1-9.7c6.7-1,13.5-2,19.9-4.3c6.3-2.2,10.5-6.5,10.9-13.3
		c0.5-6.8-3.1-11.9-9.1-14.7c-12.4-5.8-25-5.9-37.5-0.3c-5.9,2.7-9.8,7.5-10.7,14c-0.8,5.7-3.9,7.4-9.2,7.3c-9.9-0.2-19.7,0-29.6,0
		c-6.8,0-8.6-2-7.6-8.5c3.9-25.6,17.5-43,43.1-50.1c23.2-6.4,46.3-7.1,69.4,0.1c26.1,8.1,38.1,24.2,38.3,51.4
		c0.2,32.2,0.2,64.4,0.2,96.6c0,8.6,0.8,16.7,8.1,23c3.5,3,1.9,7-3,7.1c-14.3,0.3-28.7,0.2-43,0.1c-3.1,0-4.5-2.2-5.1-5
		C430.5,409.3,429.5,404.7,428.1,398.8z M426.9,334.1c-14.3,5.9-29.3,7.3-43.8,11c-3.9,1-7.5,2.8-10.6,5.4
		c-6.7,5.8-8.5,13.4-7.1,21.7c1.3,7.4,5.6,12.9,12.9,15.4c20.2,7,46.3-9.2,48.8-30.3C428,350,427.7,342.4,426.9,334.1z"/>
	<path class="st1" d="M125,368.1c10.1-36.2,20.1-72,30-107.8c1.4-5,2.9-9.9,4.1-14.9c1.7-7,5.8-10.1,13.2-9.8
		c10.1,0.4,20.2,0.2,30.3,0.2c8.3,0,9.2,1.1,6.5,9c-9.6,27.7-19.4,55.3-29.1,83c-9.8,27.9-19.6,55.7-29.2,83.7
		c-2,5.7-5,8.3-11.3,8.1c-11-0.4-22.1-0.3-33.1,0c-5.5,0.1-8.8-1.8-10.6-7.1c-19.7-56.2-39.5-112.4-59.1-168.6
		c-2.3-6.6-1.2-8,5.7-8.1c10.8-0.1,21.6,0.1,32.4,0c10.8-0.1,12.4,1,15.3,11.3c10.4,37.8,20.7,75.5,31.2,113.3
		C122,362.8,122.1,365.8,125,368.1z"/>
	<path class="st1" d="M238.1,326.5c0-26.6,0-53.1,0-79.7c0-11.1,0.3-11.3,11.7-11.2c8.7,0,17.4,0,26.1,0c8.8,0,10,1.1,10,10.2
		c-0.1,12.9-0.2,25.9-0.2,38.8c0,40.7,0.1,81.3,0.1,122c0,12.1-0.3,12.3-12.1,12.3c-8.7,0-17.4,0-26.1,0c-8.6,0-9.4-0.7-9.4-9.2
		C238.1,382,238.1,354.3,238.1,326.5z"/>
	<path class="st1" d="M261.9,172.1c5.9,0,11.7,0.1,17.6,0c4.6-0.1,6.9,1.8,6.9,6.7c-0.1,10.3-0.1,20.6,0,30.9c0.1,5.2-2.6,7-7.4,7
		c-11.5-0.1-22.9-0.2-34.4,0c-5,0-7.3-2.1-7.3-7.1c0.1-10.1,0.1-20.1,0-30.2c-0.1-4.9,1.8-7.4,7.1-7.2
		C250.2,172.3,256,172.1,261.9,172.1C261.9,172.1,261.9,172.1,261.9,172.1z"/>
	<path class="st1" d="M531.5,319.5c-5.9,0-11.7,0.1-17.6-0.1c-2.3-0.1-4.5-0.3-4.8-3.7c-1.1-13.6,2.5-27.2-0.7-40.9
		c-1.3-5.6,3.9-8.3,8.6-9.3c10.9-2.4,22-1.3,33-1.2c3.7,0,4.6,2.4,4.6,5.7c0,3.5-1.5,5.2-5.1,5.2c-8,0-16,0-23.9,0.1
		c-3.4,0.1-6.9,0.5-6.9,5.1c0,4.3,3.3,5.5,6.7,5.7c7.5,0.4,15,0.4,22.5,0.6c3.5,0.1,6.6,0.5,6.7,5.1c0.1,4.7-2.5,6-6.7,6
		c-7.3-0.1-14.5,0-21.8,0.1c-3.2,0-7.2-0.5-7.5,4.2c-0.3,5.2,3.5,5.9,7.6,6c7.5,0.3,15,0.7,22.5,0.9c3.6,0.1,5.8,1.2,5.9,5.2
		c0.1,4-2,5.4-5.6,5.5C543.3,319.5,537.4,319.5,531.5,319.5z"/>
	<path class="st1" d="M531.7,325.7c14.2,0,24.4,8.3,24.1,20c-0.2,11.5-10.7,19.4-25.1,18.9c-13.5-0.5-23.1-8.8-22.8-20
		C508.3,333.5,518.1,325.7,531.7,325.7z M531.9,353.8c2.2-0.4,4-0.7,5.9-1c4.5-0.8,7.1-3.4,6.9-8.2c-0.2-5-3.3-7.1-7.7-7.4
		c-3.9-0.3-8-0.4-11.8,0.3c-3.8,0.7-5.9,3.6-5.9,7.6c0,3.8,2,6.2,5.4,7.3C527.1,353.2,529.7,353.4,531.9,353.8z"/>
	<path class="st1" d="M532.4,403.6c-6.1,0.2-11.6-0.7-16.6-3.8c-11-7-10.5-23,1-29c2.4-1.3,4.7-2.5,6.6,0.6c1.6,2.6,2.5,5.3-0.2,7.6
		c-3.1,2.6-5.8,5.1-3.7,9.5c2,4.1,6.1,3.9,9.8,3.9c3.1,0,6.1,0,9.1-0.4c2.9-0.4,5.3-1.9,6-5.1c0.7-3.2-0.4-5.7-3.4-6.9
		c-5-2-4.6-5.2-2.6-9.1c2.3-4.3,5.3-1.5,7.8-0.4c6.2,2.7,9.2,7.6,9.5,14.4c0.3,6.8-2.5,11.8-8.3,15.2
		C542.8,402.8,537.6,404,532.4,403.6z"/>
	<path class="st1" d="M545.7,415.2c0.2-3.9,2.8-6.3,7.1-6.3c4.5,0,6.8,2.9,6.8,7.2c0,4.4-2.9,6.8-7.2,6.8
		C548.1,422.9,545.8,420.2,545.7,415.2z"/>
</g>
</svg>
