<?xml version="1.0" encoding="utf-8"?>
<!-- Generator: Adobe Illustrator 26.3.1, SVG Export Plug-In . SVG Version: 6.00 Build 0)  -->
<svg version="1.1" id="Layer_1" xmlns="http://www.w3.org/2000/svg" xmlns:xlink="http://www.w3.org/1999/xlink" x="0px" y="0px"
	 viewBox="0 0 595.3 595.3" style="enable-background:new 0 0 595.3 595.3;" xml:space="preserve">
<style type="text/css">
	.st0{fill:#EA1C23;}
	.st1{fill:#FEFCFC;}
</style>
<path class="st0" d="M297.6,595.3L297.6,595.3C133.3,595.3,0,462,0,297.6l0,0C0,133.3,133.3,0,297.6,0l0,0
	C462,0,595.3,133.3,595.3,297.6l0,0C595.3,462,462,595.3,297.6,595.3z"/>
<g>
	<path class="st1" d="M402.5,378.9c-8.9,8.8-18.3,15.1-29.9,17.8c-10.7,2.5-21.4,2.7-31.9-0.7c-17-5.4-26.6-18.4-27.6-37.3
		c-1-19.8,8.1-35.4,25.1-43c12.3-5.5,25.6-5.9,38.6-7.8c5.4-0.8,10.8-1.6,16-3.5c5.1-1.8,8.4-5.2,8.8-10.7c0.4-5.5-2.5-9.6-7.3-11.8
		c-10-4.7-20.1-4.7-30.1-0.2c-4.7,2.2-7.9,6-8.6,11.2c-0.6,4.6-3.1,5.9-7.4,5.9c-8-0.2-15.8,0-23.8,0c-5.5,0-6.9-1.6-6.1-6.8
		c3.1-20.6,14.1-34.5,34.6-40.2c18.6-5.1,37.2-5.7,55.7,0.1c21,6.5,30.6,19.4,30.8,41.3c0.2,25.9,0.2,51.7,0.2,77.6
		c0,6.9,0.6,13.4,6.5,18.5c2.8,2.4,1.5,5.6-2.4,5.7c-11.5,0.2-23.1,0.2-34.5,0.1c-2.5,0-3.6-1.8-4.1-4
		C404.4,387.3,403.6,383.6,402.5,378.9z M401.5,326.9c-11.5,4.7-23.5,5.9-35.2,8.8c-3.1,0.8-6,2.2-8.5,4.3
		c-5.4,4.7-6.8,10.8-5.7,17.4c1,5.9,4.5,10.4,10.4,12.4c16.2,5.6,37.2-7.4,39.2-24.3C402.4,339.7,402.2,333.6,401.5,326.9z"/>
	<path class="st1" d="M159,354.2c8.1-29.1,16.1-57.8,24.1-86.6c1.1-4,2.3-8,3.3-12c1.4-5.6,4.7-8.1,10.6-7.9
		c8.1,0.3,16.2,0.2,24.3,0.2c6.7,0,7.4,0.9,5.2,7.2c-7.7,22.3-15.6,44.4-23.4,66.7c-7.9,22.4-15.7,44.7-23.5,67.2
		c-1.6,4.6-4,6.7-9.1,6.5c-8.8-0.3-17.8-0.2-26.6,0c-4.4,0.1-7.1-1.4-8.5-5.7c-15.8-45.1-31.7-90.3-47.5-135.4
		c-1.8-5.3-1-6.4,4.6-6.5c8.7-0.1,17.4,0.1,26,0c8.7-0.1,10,0.8,12.3,9.1c8.4,30.4,16.6,60.6,25.1,91
		C156.6,350,156.7,352.4,159,354.2z"/>
	<path class="st1" d="M249.8,320.8c0-21.4,0-42.7,0-64c0-8.9,0.2-9.1,9.4-9c7,0,14,0,21,0c7.1,0,8,0.9,8,8.2
		c-0.1,10.4-0.2,20.8-0.2,31.2c0,32.7,0.1,65.3,0.1,98c0,9.7-0.2,9.9-9.7,9.9c-7,0-14,0-21,0c-6.9,0-7.6-0.6-7.6-7.4
		C249.8,365.4,249.8,343.2,249.8,320.8z"/>
	<path class="st1" d="M269,196.8c4.7,0,9.4,0.1,14.1,0c3.7-0.1,5.5,1.4,5.5,5.4c-0.1,8.3-0.1,16.5,0,24.8c0.1,4.2-2.1,5.6-5.9,5.6
		c-9.2-0.1-18.4-0.2-27.6,0c-4,0-5.9-1.7-5.9-5.7c0.1-8.1,0.1-16.1,0-24.3c-0.1-3.9,1.4-5.9,5.7-5.8
		C259.6,197,264.2,196.8,269,196.8L269,196.8z"/>
	<path class="st1" d="M485.5,315.2c-4.7,0-9.4,0.1-14.1-0.1c-1.8-0.1-3.6-0.2-3.9-3c-0.9-10.9,2-21.9-0.6-32.9
		c-1-4.5,3.1-6.7,6.9-7.5c8.8-1.9,17.7-1,26.5-1c3,0,3.7,1.9,3.7,4.6c0,2.8-1.2,4.2-4.1,4.2c-6.4,0-12.9,0-19.2,0.1
		c-2.7,0.1-5.5,0.4-5.5,4.1c0,3.5,2.7,4.4,5.4,4.6c6,0.3,12,0.3,18.1,0.5c2.8,0.1,5.3,0.4,5.4,4.1c0.1,3.8-2,4.8-5.4,4.8
		c-5.9-0.1-11.6,0-17.5,0.1c-2.6,0-5.8-0.4-6,3.4c-0.2,4.2,2.8,4.7,6.1,4.8c6,0.2,12,0.6,18.1,0.7c2.9,0.1,4.7,1,4.7,4.2
		c0.1,3.2-1.6,4.3-4.5,4.4C495,315.2,490.3,315.2,485.5,315.2z"/>
	<path class="st1" d="M485.7,320.2c11.4,0,19.6,6.7,19.4,16.1c-0.2,9.2-8.6,15.6-20.2,15.2c-10.8-0.4-18.6-7.1-18.3-16.1
		C466.9,326.5,474.8,320.2,485.7,320.2z M485.9,342.8c1.8-0.3,3.2-0.6,4.7-0.8c3.6-0.6,5.7-2.7,5.5-6.6c-0.2-4-2.7-5.7-6.2-5.9
		c-3.1-0.2-6.4-0.3-9.5,0.2c-3.1,0.6-4.7,2.9-4.7,6.1c0,3.1,1.6,5,4.3,5.9C482,342.3,484.1,342.4,485.9,342.8z"/>
	<path class="st1" d="M486.3,382.8c-4.9,0.2-9.3-0.6-13.3-3.1c-8.8-5.6-8.4-18.5,0.8-23.3c1.9-1,3.8-2,5.3,0.5
		c1.3,2.1,2,4.3-0.2,6.1c-2.5,2.1-4.7,4.1-3,7.6c1.6,3.3,4.9,3.1,7.9,3.1c2.5,0,4.9,0,7.3-0.3c2.3-0.3,4.3-1.5,4.8-4.1
		c0.6-2.6-0.3-4.6-2.7-5.5c-4-1.6-3.7-4.2-2.1-7.3c1.8-3.5,4.3-1.2,6.3-0.3c5,2.2,7.4,6.1,7.6,11.6c0.2,5.5-2,9.5-6.7,12.2
		C494.6,382.1,490.4,383.1,486.3,382.8z"/>
	<path class="st1" d="M496.9,392.1c0.2-3.1,2.2-5.1,5.7-5.1c3.6,0,5.5,2.3,5.5,5.8c0,3.5-2.3,5.5-5.8,5.5
		C498.9,398.3,497,396.1,496.9,392.1z"/>
</g>
</svg>
