<svg xmlns="http://www.w3.org/2000/svg" xml:space="preserve" id="Layer_1" x="0" y="0" style="enable-background:new 0 0 595.3 595.3" version="1.1" viewBox="0 0 595.3 595.3"><style>.st0{fill:#fff}.st1{fill:#17331c}</style><path d="M297.6 595.3C133.3 595.3 0 462 0 297.6 0 133.3 133.3 0 297.6 0 462 0 595.3 133.3 595.3 297.6c0 164.4-133.3 297.7-297.7 297.7" class="st0"/><path d="M584.9 375.9c.5-2 1.1-4 1.6-6zM586.4 369.9" class="st0"/><path d="M166.1 321.1c26.9 0 53.6.5 80.5-.2 12.9-.2 19.5 5.2 24.1 16.9 8.1 20.7 24.1 37.9 50 37.9 23.6 0 47.4 1.4 71-.7 14.5-1.4 27.6-11.7 29.3-22.4 2.4-15-9.1-29.5-26.4-32.4-23.6-3.8-47.2-1.4-70.8-2.1-2.9 0-5.5.2-8.3 0-4.1-.2-5-2.6-2.9-5.5 11.4-15.5 23.1-30.7 34.5-46 2.4-3.1 5.2-3.1 8.3-3.1 47.7 0 95.5.2 143.2 0 6.4 0 9.3 1.7 8.8 8.6-.5 9.1-1.4 18.3.2 27.2 2.9 15.2-4.3 23.6-17.2 28.4-8.3 3.1-10 8.6-9.8 16.4.2 19.3.2 38.6.2 57.9 0 5 0 9.1-6.7 11.7-33.8 12.6-68.9 13.6-103.2 6-23.6-5.2-46.5-13.1-71-12.2-21.7.7-41.9 6.2-62.9 11.7-27.6 7.4-56.5 9.5-84.1.5-18.1-6-29.9-21.1-39.1-37.2-8.3-14.6-11.8-35.1-25.4-50.1-2.4-2.6-2.8-10.9.5-10.9 27.4-.4 50.5-.4 77.2-.4" class="st1"/><path d="M160.8 303.7c-20.5 0-41-.5-61.5.2-9.1.2-8.8-3.8-6.7-10 14.1-44.6 37.2-84.3 71-116.5 27.9-26.7 58.9-48.6 95.3-63.9 45.3-19.1 91.3-23.1 138.9-18.1 10.7 1.2 17.6 5 16 17.6-1 6.9-.2 14.3-.2 21.2 0 17.2 0 18.6-16.7 19.5-23.8 1.4-46 8.6-67.2 18.6-20 9.3-37.6 22.6-52.9 39.1-15.2 16.7-26.9 35-35 55.8-3.6 9.1-6.2 18.6-7.6 28.1-1.2 7.4-4.1 8.8-10.7 8.6-20.7-.5-41.7-.2-62.7-.2m5.8-16.7c13.3 0 26.9-.5 40.3.2 9.5.5 13.3-4.1 15.2-12.2 2.9-13.3 7.1-26 15.7-37.2 4.1-5.5 4.5-10.5-5.7-10.2-25.7.5-51.2.5-77-.2-8.1-.2-12.4 3.8-17.4 9.1-10.7 11.4-14.1 26.9-21.4 40.3-2.9 5-2.9 10.7 6.4 10.5 14.6-.6 29.1-.3 43.9-.3m63.1-137.3H331c4.8 0 9.8-.5 13.8-2.4 11.7-6.2 24.8-6.9 37.4-9.1 3.6-.7 6.7-1.9 9.8-3.3 8.1-4.1 3.3-11.2 4.1-16.7.5-3.3-.7-7.4-5.5-7.6-20.5-1.4-41.2-3.3-61.2.7-24.3 4.8-48.6 10.5-70.8 21.4-9.6 4.4-20.6 6.8-28.9 17M158.5 211h83.9c3.1 0 6.4.5 8.8-2.4 11.9-15 27.2-26.7 43.4-39.8h-76.7c-25.4 0-49.2 16.7-59.4 42.2M475.1 443.1c-1.7 12.2-11.4 19.1-19.5 22.9-22.9 10.2-47.2 13.3-72 5.5-32.4-10.2-64.8-21-99.8-16.7-17.2 2.1-32.6 10.2-48.1 16.4-10.7 4.3-17.2 2.4-25-3.3-2.4-1.7-3.3-5.2-6.9-6-1.9-.5-5-1.7-4.5-4.5.7-4.1 4.3-2.6 6.7-2.6 21-.5 40-9.1 60-14.1 27.4-6.7 56.2-8.6 83.6 1.7 32.6 12.4 65.5 15.2 99.4 8.1 8.5-2 16.4-7.2 26.1-7.4" class="st1"/><path d="M377.4 496.4c-41.5 9.5-80.5 6.2-119.8-7.6 41-12.6 80.3-13.6 119.8 7.6" class="st1"/></svg>