<?xml version="1.0" encoding="utf-8"?>
<!-- Generator: Adobe Illustrator 26.3.1, SVG Export Plug-In . SVG Version: 6.00 Build 0)  -->
<svg version="1.1" id="Layer_1" xmlns="http://www.w3.org/2000/svg" xmlns:xlink="http://www.w3.org/1999/xlink" x="0px" y="0px"
	 viewBox="0 0 595.3 595.3" style="enable-background:new 0 0 595.3 595.3;" xml:space="preserve">
<style type="text/css">
	.st0{fill:#FFFFFF;}
	.st1{fill:#17331C;}
</style>
<path class="st0" d="M297.6,595.3L297.6,595.3C133.3,595.3,0,462,0,297.6l0,0C0,133.3,133.3,0,297.6,0l0,0
	C462,0,595.3,133.3,595.3,297.6l0,0C595.3,462,462,595.3,297.6,595.3z"/>
<path class="st0" d="M584.9,375.9c0.5-2,1.1-4,1.6-6L584.9,375.9z"/>
<polygon class="st0" points="586.4,369.9 586.4,369.9 586.4,369.9 "/>
<g>
	<path class="st1" d="M166.1,321.1c26.9,0,53.6,0.5,80.5-0.2c12.9-0.2,19.5,5.2,24.1,16.9c8.1,20.7,24.1,37.9,50,37.9
		c23.6,0,47.4,1.4,71-0.7c14.5-1.4,27.6-11.7,29.3-22.4c2.4-15-9.1-29.5-26.4-32.4c-23.6-3.8-47.2-1.4-70.8-2.1
		c-2.9,0-5.5,0.2-8.3,0c-4.1-0.2-5-2.6-2.9-5.5c11.4-15.5,23.1-30.7,34.5-46c2.4-3.1,5.2-3.1,8.3-3.1c47.7,0,95.5,0.2,143.2,0
		c6.4,0,9.3,1.7,8.8,8.6c-0.5,9.1-1.4,18.3,0.2,27.2c2.9,15.2-4.3,23.6-17.2,28.4c-8.3,3.1-10,8.6-9.8,16.4
		c0.2,19.3,0.2,38.6,0.2,57.9c0,5,0,9.1-6.7,11.7c-33.8,12.6-68.9,13.6-103.2,6c-23.6-5.2-46.5-13.1-71-12.2
		c-21.7,0.7-41.9,6.2-62.9,11.7c-27.6,7.4-56.5,9.5-84.1,0.5c-18.1-6-29.9-21.1-39.1-37.2c-8.3-14.6-11.8-35.1-25.4-50.1
		c-2.4-2.6-2.8-10.9,0.5-10.9C116.3,321.1,139.4,321.1,166.1,321.1z"/>
	<path class="st1" d="M160.8,303.7c-20.5,0-41-0.5-61.5,0.2c-9.1,0.2-8.8-3.8-6.7-10c14.1-44.6,37.2-84.3,71-116.5
		c27.9-26.7,58.9-48.6,95.3-63.9c45.3-19.1,91.3-23.1,138.9-18.1c10.7,1.2,17.6,5,16,17.6c-1,6.9-0.2,14.3-0.2,21.2
		c0,17.2,0,18.6-16.7,19.5c-23.8,1.4-46,8.6-67.2,18.6c-20,9.3-37.6,22.6-52.9,39.1c-15.2,16.7-26.9,35-35,55.8
		c-3.6,9.1-6.2,18.6-7.6,28.1c-1.2,7.4-4.1,8.8-10.7,8.6C202.8,303.4,181.8,303.7,160.8,303.7z M166.6,287c13.3,0,26.9-0.5,40.3,0.2
		c9.5,0.5,13.3-4.1,15.2-12.2c2.9-13.3,7.1-26,15.7-37.2c4.1-5.5,4.5-10.5-5.7-10.2c-25.7,0.5-51.2,0.5-77-0.2
		c-8.1-0.2-12.4,3.8-17.4,9.1c-10.7,11.4-14.1,26.9-21.4,40.3c-2.9,5-2.9,10.7,6.4,10.5C137.3,286.7,151.8,287,166.6,287z
		 M229.7,149.7c35.3,0,68.1,0,101.3,0c4.8,0,9.8-0.5,13.8-2.4c11.7-6.2,24.8-6.9,37.4-9.1c3.6-0.7,6.7-1.9,9.8-3.3
		c8.1-4.1,3.3-11.2,4.1-16.7c0.5-3.3-0.7-7.4-5.5-7.6c-20.5-1.4-41.2-3.3-61.2,0.7c-24.3,4.8-48.6,10.5-70.8,21.4
		C249,137.1,238,139.5,229.7,149.7z M158.5,211c28.6,0,56.2,0,83.9,0c3.1,0,6.4,0.5,8.8-2.4c11.9-15,27.2-26.7,43.4-39.8
		c-26.9,0-51.7,0-76.7,0C192.5,168.8,168.7,185.5,158.5,211z"/>
	<path class="st1" d="M475.1,443.1c-1.7,12.2-11.4,19.1-19.5,22.9c-22.9,10.2-47.2,13.3-72,5.5c-32.4-10.2-64.8-21-99.8-16.7
		c-17.2,2.1-32.6,10.2-48.1,16.4c-10.7,4.3-17.2,2.4-25-3.3c-2.4-1.7-3.3-5.2-6.9-6c-1.9-0.5-5-1.7-4.5-4.5c0.7-4.1,4.3-2.6,6.7-2.6
		c21-0.5,40-9.1,60-14.1c27.4-6.7,56.2-8.6,83.6,1.7c32.6,12.4,65.5,15.2,99.4,8.1C457.5,448.5,465.4,443.3,475.1,443.1z"/>
	<path class="st1" d="M377.4,496.4c-41.5,9.5-80.5,6.2-119.8-7.6C298.6,476.2,337.9,475.2,377.4,496.4z"/>
</g>
</svg>
