<?xml version="1.0" encoding="utf-8"?>
<!-- Generator: Adobe Illustrator 26.3.1, SVG Export Plug-In . SVG Version: 6.00 Build 0)  -->
<svg version="1.1" id="Layer_1" xmlns="http://www.w3.org/2000/svg" xmlns:xlink="http://www.w3.org/1999/xlink" x="0px" y="0px"
	 viewBox="0 0 595.3 595.3" style="enable-background:new 0 0 595.3 595.3;" xml:space="preserve">
<style type="text/css">
	.st0{fill:#FFFFFF;}
	.st1{fill:#EA0E8B;}
	.st2{fill:#522760;}
</style>
<path class="st0" d="M298,595.3L298,595.3C133.6,595.3,0.4,462,0.4,297.6v0C0.4,133.3,133.6,0,298,0h0
	c164.4,0,297.6,133.3,297.6,297.6v0C595.7,462,462.4,595.3,298,595.3z"/>
<g id="TIeW7m.tif_00000001644871501547553170000000525736483661373087_">
	<g>
		<path class="st1" d="M35.6,325c0.7,0.1,1.5,0.3,2.1,0.2c8.8-1.9,13,2.2,15.4,10.3c1.9,6.5,5.1,12.6,7.8,18.8
			c0.1,0.2,0.4,0.4,0.9,0.9c5.4-10.1,10.7-20.2,16.4-31c5.7,11.1,11.1,21.4,16.8,32.5c1-2.1,1.7-3.6,2.3-5.1c3-7.5,6.1-15,8.9-22.6
			c1-2.8,2.3-4,5.6-4c9.1,0.2,9.1,0,5.6,8.2c-6.4,14.9-12.7,29.8-19.1,44.7c-0.6,1.4-1.3,2.8-2.3,4.9c-6-11.3-11.7-21.9-17.8-33.4
			c-5.8,11.4-11.3,22-16.7,32.6c-1.8-0.4-1.8-2-2.3-3c-7.2-16.3-14.3-32.6-21.4-48.9c-0.6-1.4-1.4-2.8-2.2-4.2
			C35.6,325.6,35.6,325.3,35.6,325z"/>
		<path class="st1" d="M182.2,383.3c-2.1-0.9-4.3-1.7-6.4-2.6c-0.6-0.2-1.3-0.9-1.9-0.2c-2.8,3.6-6.6,1.2-9.9,1.7
			c-1.9,0.3-1.8-1.4-1.8-2.7c0-19.1,0-38.2,0-57.4c0-2,0.2-3,2.6-1.9c8.8,3.7,8.8,3.6,8.9,13.1c0,2.6-0.8,6.1,0.5,7.6
			c1.4,1.6,4.3-1.2,6.6-1.7c11.4-2.7,23.1,3.7,26.7,14.9c3.6,11.2-2,23.1-12.9,27.6c-1.5,0.6-3,1.1-4.5,1.7
			C187.5,383.3,184.8,383.3,182.2,383.3z M186.1,348.3c-7,0-12.5,5.8-12.4,12.9c0.1,6.8,5.8,12.4,12.6,12.3
			c6.7-0.1,12.4-5.8,12.5-12.5C198.8,354.1,193,348.3,186.1,348.3z"/>
		<path class="st2" d="M355,383.3c-5.2-1.8-10.3-3.8-14-8.2c-7.8-9.2-6.6-23.5,2.9-31.5c8.8-7.4,22.7-6.6,29.9,1.9
			c4,4.7,5.2,10.2,4.5,16.2c-0.3,2.4-1.3,3.4-3.9,3.3c-7.8-0.2-15.7,0-23.5-0.1c-3.1,0-3.1,1.1-1.7,3.2c3,4.4,7.5,6,12.2,4.7
			c5.9-1.7,9.9,1.4,14.6,3.9c-3.4,3.8-8.1,4.6-12.2,6.5C360.8,383.3,357.9,383.3,355,383.3z M357.5,356.5c2.3,0,4.6-0.1,6.9,0
			c2.8,0.2,2.8-1.2,1.9-3.2c-1.8-3.9-5-5.5-9.1-5.4c-3.7,0.1-8.1,3.5-9,6.6c-0.5,1.8,0.5,1.9,1.8,1.9
			C352.5,356.5,355,356.5,357.5,356.5z"/>
		<path class="st2" d="M435.2,383.3c-1.5-0.5-3-1-4.5-1.6c-11.8-4.2-17.7-16.7-13.5-28.6c3.9-11.2,16.5-17.3,28-13.6
			c9.2,3,14.8,12.6,13.1,22.3c-0.4,2.3-1.2,3.1-3.6,3.1c-7.8-0.1-15.7-0.1-23.5,0c-0.9,0-2.2-0.5-2.7,0.7c-0.5,1.1,0.4,1.9,0.9,2.7
			c2.8,4,7,5.7,11.4,4.5c6-1.6,10.3,0.8,15.1,3.9c-3.4,4-8.3,4.8-12.8,6.5C440.5,383.3,437.9,383.3,435.2,383.3z M437.4,356.5
			c2.2,0,4.4-0.1,6.5,0c3.3,0.2,3.3-1.4,2.2-3.7c-2.9-6.1-12-6.5-16.4-0.6c-0.8,1-1.9,2.2-1.4,3.5c0.6,1.6,2.3,0.7,3.4,0.8
			C433.6,356.6,435.5,356.5,437.4,356.5z"/>
		<path class="st1" d="M135.1,383.3c-1.5-0.5-3-1-4.5-1.5c-11.8-4.2-17.8-16.7-13.6-28.6c4-11.2,16.5-17.3,28-13.6
			c9.2,3,14.8,13.2,12.8,23c-0.5,2.5-2.1,2.4-3.8,2.4c-7.7,0-15.4,0-23.1,0c-1,0-2.3-0.5-2.8,0.5c-0.7,1.2,0.4,2.2,1,3.1
			c3,4.3,9.1,5.7,15.9,3.7c2.4-0.7,9,1.9,10.2,3.9c0.9,1.5-0.6,1.7-1.2,2.2c-3.3,2.6-7.3,3.4-11.1,4.8
			C140.3,383.3,137.7,383.3,135.1,383.3z M137,356.5c2.2,0,4.4-0.1,6.5,0c3.7,0.2,3.5-1.6,2.2-4c-3.1-5.9-11.8-6.1-16.2-0.5
			c-0.9,1.1-2.2,2.4-1.4,3.8c0.7,1.2,2.4,0.5,3.6,0.6C133.5,356.6,135.3,356.5,137,356.5z"/>
		<path class="st2" d="M260.7,352.8c0,8.4-0.1,16.8,0.1,25.2c0.1,3.7-0.9,3.3-3.9,2.2c-6.5-2.4-8.8-6.4-8.3-13.4
			c0.7-9.4,0.2-9.4-9.5-9.4c-3.6,0-7.3,0.2-10.9-0.1c-3.5-0.3-4.9,0.7-4.7,4.5c0.3,5.5,0,11,0.1,16.5c0,2.5-0.3,3.2-3.1,2.1
			c-6.2-2.5-9.2-6.1-8.8-13.5c0.8-14.7,0.3-29.5,0.2-44.3c0-3,0.3-3.6,3.5-2.3c6.4,2.5,9.3,6.3,8.3,13.4c-0.5,4.2-2,9.8,0.8,12.5
			c2.6,2.5,8.1,0.7,12.2,0.7c3.9,0,8.8,1.7,11.3-0.8c2.3-2.3,0.6-7.2,0.7-10.9c0.1-4.3,0.1-8.7,0-13c-0.1-3,0.8-2.7,3.3-1.9
			c6.7,2.4,9.8,6.3,8.8,13.9C260,340.3,260.7,346.6,260.7,352.8z"/>
		<path class="st1" d="M462.3,212c5.9,3,11,5.6,16.2,8.2c1.6,0.8,1.8,2,1.8,3.6c0,26.6,0,53.2,0,79.9c0,2.4-0.6,3.2-3,1.9
			c-4.2-2.3-8.5-4.4-12.8-6.5c-1.6-0.8-2.3-1.8-2.3-3.7C462.4,267.9,462.3,240.4,462.3,212z"/>
		<path class="st2" d="M532.9,287c0,13-0.1,26.1,0,39.1c0,3.1-0.6,4-3.6,2.3c-4.7-2.6-10.9-4-13.7-7.9c-2.8-3.8-0.8-10.1-0.8-15.2
			c-0.1-21.9,0-43.7-0.1-65.6c0-3.7,0.6-4.7,4.1-2.6c3.5,2.1,7.2,3.9,10.9,5.5c2.5,1.1,3.3,2.7,3.2,5.3
			C532.8,260.9,532.9,273.9,532.9,287z"/>
		<path class="st2" d="M287.3,338.2c12.3,0,22.4,10.2,22.3,22.5c-0.1,12.3-10.3,22.2-22.7,22.1c-12.2-0.2-22-10-22-22.2
			C264.9,348.2,274.9,338.2,287.3,338.2z M287.1,373c7.1,0,12.9-5.7,12.8-12.6c-0.1-6.7-5.9-12.4-12.6-12.5
			c-6.9-0.1-12.7,5.7-12.6,12.7C274.7,367.6,280.1,373,287.1,373z"/>
		<path class="st1" d="M488.6,247.3c6,3.1,11.4,5.8,16.8,8.5c1.5,0.8,1.3,2.1,1.3,3.4c0,16.8,0,33.6,0,50.4c0,2.6-0.4,3.5-3.1,2
			c-4.8-2.7-11.1-4.1-14.2-8c-2.9-3.7-0.8-10-0.8-15.2c-0.1-12,0-24,0-36C488.6,250.9,488.6,249.5,488.6,247.3z"/>
		<path class="st2" d="M316.8,362.1c0-2.2,0-4.3,0-6.5c0-3.3,1.1-7.5-4.9-6.3c-1,0.2-1.6-0.5-1.7-1.6c-0.1-2.2-0.1-4.3,0-6.5
			c0-2,1.6-1.9,2.8-1.7c3.2,0.4,4-1.2,3.8-4c-0.2-2.9,0.1-5.8-0.1-8.7c-0.3-3.8,1.2-3.9,3.9-2.1c0.7,0.5,1.5,0.9,2.3,1.2
			c4.5,1.4,6.5,4.3,5.7,9.1c-0.5,3,0.2,5.2,4,4.6c1.9-0.3,3,0.5,2.9,2.7c-0.2,3.6,1.5,8.3-5.3,7.3c-2.2-0.3-1.6,2-1.7,3.2
			c-0.1,8.5-0.1,17.1,0,25.6c0,3.1-0.6,3.1-3.4,2c-6.8-2.8-9.9-7.3-8.5-14.7C317,364.5,316.8,363.3,316.8,362.1z"/>
		<path class="st2" d="M394,349.8c0,9.4-0.1,18.8,0,28.2c0,2.8,0,3.8-3.5,2.3c-6.8-2.9-9-7.3-8.6-14.7c0.7-14.6,0.3-29.3,0.1-43.9
			c0-3.4,0.8-4.5,4.4-4.4c9,0.4,7.5-1,7.6,7.7C394.1,333.3,394,341.5,394,349.8z"/>
		<path class="st2" d="M474.1,343.6c4.1-3.2,7.7-4.4,11.8-4.1c2,0.2,2.9,0.8,2.1,3c-1.3,3.8-1.6,7.7-7,9.1
			c-4.5,1.2-6.7,5.8-6.8,10.7c-0.1,5.3-0.2,10.7,0,16.1c0.1,3.1-1,3.9-4,3.9c-7.8-0.1-7.8,0.1-7.8-7.8c0-10.3,0.2-20.5-0.1-30.8
			c-0.1-3.6,1.2-4.7,4.5-4.3c1,0.1,2,0.1,3,0C472.5,339.1,474.4,339.7,474.1,343.6z"/>
		<path class="st2" d="M559.1,324.6c-6-3-11.1-5.7-16.3-8.2c-1.6-0.8-1.8-2-1.8-3.6c0-9,0.1-17.9,0-26.9c0-3.1,1.1-3.1,3.3-1.8
			c0.1,0.1,0.3,0.1,0.4,0.2c4.7,2.5,11.1,3.9,13.7,7.8c2.4,3.7,0.7,10.1,0.8,15.2C559.2,312.9,559.1,318.4,559.1,324.6z"/>
		<path class="st2" d="M411.9,360.7c0,6.1,0,12.2,0,18.3c0,2.1-0.3,2.9-2.7,1.9c-8.8-3.6-8.9-3.6-8.9-13.1c0-8.1,0.1-16.2-0.1-24.3
			c-0.1-2.9,0.7-4,3.8-4c7.8,0,7.8-0.1,7.8,7.8C411.9,351.7,411.9,356.2,411.9,360.7z"/>
		<path class="st2" d="M412.5,324.1c-0.1,3.4-3.1,6-6.8,5.8c-3.4-0.2-6.1-3-6-6.2c0.1-3.4,3.2-6,6.8-5.8
			C410,318.1,412.6,320.8,412.5,324.1z"/>
	</g>
</g>
</svg>
