<?xml version="1.0" encoding="utf-8"?>
<!-- Generator: Adobe Illustrator 26.3.1, SVG Export Plug-In . SVG Version: 6.00 Build 0)  -->
<svg version="1.1" id="Layer_1" xmlns="http://www.w3.org/2000/svg" xmlns:xlink="http://www.w3.org/1999/xlink" x="0px" y="0px"
	 viewBox="0 0 595.3 595.3" style="enable-background:new 0 0 595.3 595.3;" xml:space="preserve">
<style type="text/css">
	.st0{fill:#F0EAD9;}
	.st1{fill:#981E1F;}
	.st2{fill:#F2CC71;}
	.st3{fill:#F1CA6E;}
	.st4{fill:#99201F;}
</style>
<path class="st0" d="M297.6,595.3L297.6,595.3C133.3,595.3,0,462,0,297.6v0C0,133.3,133.3,0,297.6,0h0
	C462,0,595.3,133.3,595.3,297.6v0C595.3,462,462,595.3,297.6,595.3z"/>
<g>
	<path class="st1" d="M296,165.5c1.3,1.9,2.6,1.5,3.9,0c10.6-6.6,21.6-11.9,34.2-14c24.7-4.1,47.6,9.2,55.2,32.6
		c2.2,6.9,1,13-3.7,18.3c-3.7,4.1-10.8,5.1-15,2.2c-4.6-3.2-4.1-7.6-2.6-12.3c0.7-2.1,2.8-3.9,1.9-6.6c-5.8,2.9-8,5.8-8.4,11.4
		c-0.5,6.7,3.1,13.1,9.2,16c6.1,3,15.5,1.3,20.7-3.7c8.9-8.4,11.5-23.1,5.9-35.2c-6.3-13.5-16.8-22.6-30.7-27.8
		c-13.3-4.9-26.5-3.8-39.9-0.3c-0.6-0.5-1.2-1-1.9-1.5c8.5-4.9,17.8-6.2,27.4-6.5c20.5,1.6,35.6,13.3,49.6,26.8
		c8.3,8,16.5,16.3,24.5,24.6c13.1,13.6,28.5,21.5,47.9,19.2c6.5-0.8,11.5,2.5,15.8,6.5c7.7,7,7.4,9.2-1.1,14.6
		c-2.8,1.8-5.6,3.5-8.1,5.6c-3.9,3.3-6.5,7.5-6.4,13.6c4.8-3.6,8.9-7.2,14.2-8.7c14.2-4.1,13.5-4,14.8,9.8c0.4,4.6-0.1,7.4-6.3,7.7
		c-9.2,0.5-15.7,7.9-15.5,16.5c0.1,3.8,0,8.2,4.8,9.8c4.6,1.5,8.7,0.2,11.9-3.3c2-2.3,3.6-5,5-7.7c1.5-2.8,3.2-3.1,5.8-1.6
		c9.9,5.8,16.6,13.9,16.8,25.6c0.2,11.2-5.7,19.3-14.9,25.3c-3.9,2.5-6.6,2.8-8.6-2.2c-1.4-3.5-3.8-6.4-7.1-8.4
		c-6.4-3.9-12.3-1.1-13.4,6.2c-1.4,9.5,4.4,18.3,14.5,18.9c7.4,0.4,7.3,4,7,9.1c-0.1,1.3-0.2,2.6-0.3,3.9c-1,7.4-2,8-9.2,6.5
		c-7.4-1.5-13.2-5.8-19.5-10.6c0.3,6.7,3,11.3,7.6,14.6c3.7,2.7,7.7,5,11.6,7.3c1.8,1,3.4,1.5,2.5,4.3c-2.2,6.7-13.3,15.4-20.3,14.5
		c-20.9-2.9-36.8,6-50.7,20.4c-8.9,9.3-18.1,18.3-27.4,27.2c-14.1,13.5-30.3,22.8-50.4,23.1c-10-0.8-19.2-4-27.5-9.8
		c3.1-0.2,6,0.8,8.9,1.6c18.9,5,36.7,3.5,52.9-8.5c16-11.9,22.4-29.1,16.5-45.1c-3.8-10.3-12.5-15.9-22.8-14.7
		c-7,0.8-13.2,7.4-13.7,14.6c-0.5,7.1,2.5,11.9,8.9,13.7c-0.9-2.6-1.8-5-2.7-7.3c-1.4-3.5-1.4-7,1.3-9.8c3-2.9,6.8-3.8,10.9-2.5
		c7.1,2.1,11.8,10.9,10.1,19c-3.5,17.4-21.8,33.7-39.5,35.4c-17.4,1.7-33.2-3.1-47.9-12.2c0,0,0.1,0.1,0.1,0.1
		c-0.5-0.5-1-0.9-1.4-1.4c-1.7-1.3-2.9-4.5-5.5-1.1c-0.5,0.4-1,0.7-1.5,1.1c-0.3,0.1-0.5,0.3-0.7,0.6c-12.5,8.1-25.9,13-41.1,13.3
		c-21.1,0.4-40.9-13.6-46.4-33.5c-2.7-9.6,1.2-18.6,9.1-21.2c4.1-1.3,7.9-0.5,11.1,2.1c3,2.5,3,6.1,1.8,9.7
		c-0.9,2.6-1.8,5.2-2.8,8.1c7.6-2.9,10.7-9.9,8.2-17.4c-4-12-20.4-15.4-29.5-5.9c-8.4,8.8-10.7,19.5-7.1,30.9
		c4.6,14.3,14.7,24.1,28.1,30.2c13,6,26.7,5.3,40.5,2.9c1.2,0.1,2.3,0.4,3,1.5c-6.1,3.7-12.8,5.1-19.7,5.8c-0.8-0.3-1.6-0.7-2.5-0.7
		c-14.1,0-26.4-4.9-37.4-13.5c-14-10.9-26.2-23.7-38.4-36.5c-13-13.5-28-22.2-47.5-20.5c-8.9,0.8-18.5-4.6-22.5-12.6
		c-1.5-3-1.1-4.5,2.1-6c5-2.3,9.6-5.3,13.6-9c3.7-3.4,6.2-7.4,6-14.3c-4.2,4.9-8.3,7.6-12.8,9.7c-13.2,6.3-17.6,3.3-17-11.2
		c0.1-3.6,1-5.2,5.2-5.5c11.7-0.9,18-9.1,16.3-20c-1-5.9-5.3-8.5-11-6.5c-4.7,1.6-7.6,5.3-9.4,9.5c-2.1,5-4.7,4.5-8.6,2.1
		c-9.4-5.9-15.3-14.3-15.1-25.2c0.2-11.5,6.8-19.9,16.8-25.6c3-1.7,4.8-1.1,6.1,2c1.3,3,3.1,5.8,5.5,8c3.3,3,7.2,4,11.5,2.3
		c4-1.6,4.1-5.3,4.3-8.8c0.3-9.1-5-16.3-14.6-17c-7.2-0.5-7.5-4-6.9-9.2c0.2-1.7,0.4-3.5,0.5-5.2c0.3-4.7,2.2-6.3,7.2-5.3
		c8.3,1.7,15.3,5.6,21.9,11.7c-0.6-7.1-2-10.5-7-14.3c-3.9-3.1-8.2-5.8-12.6-8.2c-2.6-1.4-3.9-2.6-2.3-5.5
		c3.9-7.3,14.3-14.5,21.6-13.5c17.2,2.3,31.8-3.7,44-15.7c7.6-7.5,15-15.3,22.6-22.7c15.7-15.3,31.7-30.3,55.3-32
		c10.8,0.2,21.2,2.5,30.6,8.1c1,0.6,1.9,1.1,2.1,2.3c-2.3,0.7-4.2-0.8-6.2-1.4c-23.3-7.7-44.4-4.4-62.2,13.2
		c-12.1,11.9-15.5,27-9.8,40.7c4.3,10.2,13.4,15.3,23.5,13.4c6.4-1.2,11.9-7.5,12.6-14.2c0.7-6.7-2.4-11.7-9.1-14.1
		c0.9,2.3,1.6,4.3,2.3,6.2c1.7,4.6,2.4,9.4-2.4,12.3c-4.8,2.9-10,2.7-14.5-1.4c-5.6-5.2-6.3-11.7-4.4-18.6
		c6.5-22.9,30.8-37,55.6-32.8C274.4,153.6,285.3,159.1,296,165.5z M236.6,272.8c2.3,1.7,2.5,3.5,3.1,5.1
		c7.9,21.7,15.7,43.5,23.6,65.2c1.3,3.7,5.7,5.5,7.8,3c1.2-1.4,1.4-3.6,1.9-5.4c7.2-27,14.5-53.9,24-80.2c1.2-3.2,1.7-7,6.4-7.2
		c1.6-0.1,3.2-0.2,3.2-2.3c0-2.8-2.2-2.3-3.8-2.2c-6.5,0.4-13.1,0.6-19.6,0.1c-1.9-0.1-5.5-1.8-5.5,2.2c-0.1,3.4,3.2,2.1,5,2.5
		c3.6,0.7,7.9,0.4,6.1,6.5c-4.5,15.7-8.6,31.5-13,47.3c-1.5,5.3-3.2,10.5-5.2,16.9c-1.3-2.9-2.2-4.6-2.9-6.4
		c-7.6-21.6-15.1-43.3-22.6-64.9c-0.7-2.1-0.5-5.1-4-5c-3,0.1-3.1,2.6-3.8,4.6c-8.7,21.9-17.3,43.8-26,65.7
		c-0.6,1.4-0.5,3.4-3.2,3.9c-4.2-19.5-8.4-38.8-12.4-58.2c-1.9-8.8-1.7-8.9,7.1-10.6c1.7-0.3,3-0.6,2.8-2.7
		c-0.2-1.8-1.5-1.9-2.9-1.9c-9.8,0.6-19.6,0.7-29.4,0c-1.4-0.1-2.7,0.1-2.9,1.8c-0.2,1.6,0.6,2.7,2.2,2.6c7.9-0.5,8.3,5.7,9.5,10.9
		c5.8,25.7,11.5,51.5,17.3,77.2c0.6,2.6,0.7,5.7,4.9,5.8c3.8,0.1,4.1-2.7,4.9-5c5.9-15.2,11.7-30.6,17.6-45.8
		C229.8,288.4,233.2,280.8,236.6,272.8z M367.9,297.4c8.3,0,16.6,0.1,24.9-0.1c4.1-0.1,5.9,1.2,5.7,5.6c-0.4,9.2-0.1,18.3-0.4,27.5
		c-0.3,9.5-0.4,9.5-9.8,10.7c-1.5,0.2-3.3,0-3.3,2.2c0,2.3,1.9,1.9,3.4,1.9c11.1,0,22.3,0,33.4,0c1.4,0,3.4,0.4,3.5-1.8
		c0.1-2.2-1.7-2-3.2-2.2c-10.2-1.3-10.4-1.3-10.5-12c-0.2-21.8-0.2-43.7-0.1-65.5c0-9.5,0.4-9.6,9.9-10.5c1.6-0.2,3.9,0.5,4-2.1
		c0.1-3.2-2.5-2.2-4.3-2.2c-10.5,0-20.9,0-31.4,0.1c-1.7,0-4.4-1.5-4.6,1.7c-0.2,3.1,2.5,2.5,4.3,2.5c6.5-0.3,9,2.9,8.9,9.1
		c-0.1,7.9,0,15.7,0.3,23.6c0.2,3.9-1.1,5.4-5.2,5.4c-16.8-0.2-33.6-0.1-50.4,0c-3.7,0-5.1-1.4-4.9-5c0.2-7.4,0.1-14.8,0.2-22.3
		c0.2-9.2,0.2-9.2,9.6-10.7c1.5-0.2,3.3,0,3.3-2.2c0-2.8-2-2.1-3.7-2.1c-10.5,0-20.9,0-31.4,0.1c-1.8,0-4.4-1.4-4.6,1.8
		c-0.2,3,2.5,2.3,4.3,2.5c8.4,0.8,9.1,1.3,9.2,10c0.1,22.5,0.1,45,0,67.4c0,9.2-0.5,9.5-9.9,10.6c-1.5,0.2-3.4-0.2-3.5,1.9
		c-0.2,2.9,2.1,2.1,3.7,2.1c10.5,0,21,0,31.4-0.1c1.7,0,4.5,1.2,4.4-2.1c-0.1-2.6-2.6-1.9-4.1-1.8c-5.9,0.3-8.2-2.5-8.2-8.2
		c0-10-0.2-20.1-0.7-30.1c-0.2-4.6,1.9-5.6,5.8-5.5C351.7,297.5,359.8,297.4,367.9,297.4z"/>
	<path class="st2" d="M243.7,138c-23.6,1.7-39.6,16.7-55.3,32c-7.7,7.5-15,15.3-22.6,22.7c-12.2,12-26.8,18-44,15.7
		c-7.3-1-17.7,6.2-21.6,13.5c-1.5,2.9-0.3,4.1,2.3,5.5c4.4,2.4,8.6,5.1,12.6,8.2c4.9,3.8,6.4,7.1,7,14.3c-6.6-6.1-13.6-10-21.9-11.7
		c-5-1-6.9,0.6-7.2,5.3c-0.1,1.7-0.3,3.5-0.5,5.2c-0.6,5.2-0.3,8.7,6.9,9.2c9.6,0.7,14.9,8,14.6,17c-0.1,3.5-0.2,7.2-4.3,8.8
		c-4.3,1.7-8.2,0.7-11.5-2.3c-2.5-2.2-4.2-5-5.5-8c-1.3-3-3.1-3.7-6.1-2c-10,5.7-16.6,14.1-16.8,25.6c-0.2,10.9,5.7,19.3,15.1,25.2
		c3.8,2.4,6.4,2.9,8.6-2.1c1.8-4.2,4.7-7.9,9.4-9.5c5.7-2,10.1,0.6,11,6.5c1.8,10.9-4.6,19-16.3,20c-4.2,0.3-5,1.9-5.2,5.5
		c-0.6,14.5,3.8,17.5,17,11.2c4.5-2.1,8.6-4.9,12.8-9.7c0.2,6.8-2.3,10.8-6,14.3c-4,3.8-8.6,6.8-13.6,9c-3.2,1.5-3.6,3-2.1,6
		c4,8,13.6,13.4,22.5,12.6c19.5-1.8,34.5,7,47.5,20.5c12.2,12.7,24.4,25.6,38.4,36.5c11,8.6,23.3,13.5,37.4,13.5
		c0.8,0,1.6,0.5,2.5,0.7c-21.3,3.3-38.4-5-54.7-17.9c-14.5-11.5-27.3-25.2-43.4-34.5c-12.2-7-25.4-10.2-39.5-4.9
		c-2.9,1.1-5.6,2.5-7.8,4.6c-1.6,1.5-3.2,3-5.9,1.6c1.5-4.6,5.2-7.5,7.9-11.1c1.7-2.3,1.7-3.7-0.3-5.5c-5.2-4.5-9-10-11.9-16.3
		c-0.9-1.9-2.2-3.1-4.4-3.3C67.1,368.8,53.4,356,45,337.6c-13.1-28.6-12.6-57.5,2.7-85.3c8.6-15.6,21.8-26,40.3-27.7
		c3.1-0.3,4.6-1.7,5.8-4.3c2.6-5.6,5.9-10.7,10.8-14.6c3.1-2.5,2.6-4.5,0-6.9c-3.4-3.1-5.9-6.8-7.4-10.8c0.7-1.3,1.5-1.2,1.9-0.7
		c14.3,15.1,39.7,10.9,53.4,2c14.2-9.1,25.8-21.4,39.2-31.5C207.1,146,222.6,134.9,243.7,138z M87.4,250.5c0-2.1,0-3,0-3.8
		c0.2-9.2,0.2-9.2-8.6-6.1c-25,8.8-41,39.9-35.3,68.1c4.2,21,14.5,37.3,35,45.6c9.1,3.7,9.2,3.5,8.9-5.9c-0.1-2.2-0.3-4.4,0.1-6.5
		c0.7-4-0.6-6.2-4.3-8.2c-25.8-14.5-27.5-54.3-2.8-70.4C86.1,259.3,89.1,256,87.4,250.5z M103.2,316.4c-3.4,1.5-5.2,4.5-5.7,7.9
		c-0.4,2.6,2.2,2.1,3.7,1.9c3.5-0.3,5.4-2.5,5.5-5.9C106.7,318.3,105.9,316.5,103.2,316.4z M106.7,274.8c-0.4-4.5-2.9-6.2-6.6-6.3
		c-1.6,0-3.4,0.3-2.6,2.5c1,3.1,2.3,6.4,5.9,7.1C105.9,278.6,106.6,276.4,106.7,274.8z"/>
	<path class="st2" d="M347.1,457.1c20.2-0.3,36.3-9.6,50.4-23.1c9.3-8.9,18.4-18,27.4-27.2c13.9-14.4,29.8-23.2,50.7-20.4
		c6.9,1,18.1-7.8,20.3-14.5c0.9-2.8-0.7-3.3-2.5-4.3c-4-2.3-7.9-4.6-11.6-7.3c-4.6-3.3-7.3-7.9-7.6-14.6c6.3,4.9,12.2,9.1,19.5,10.6
		c7.2,1.5,8.2,0.9,9.2-6.5c0.2-1.3,0.2-2.6,0.3-3.9c0.4-5.1,0.4-8.7-7-9.1c-10.1-0.6-15.9-9.3-14.5-18.9c1.1-7.3,7-10.1,13.4-6.2
		c3.2,2,5.7,4.9,7.1,8.4c2,5,4.7,4.7,8.6,2.2c9.3-6,15.1-14.1,14.9-25.3c-0.2-11.7-6.9-19.9-16.8-25.6c-2.6-1.5-4.3-1.2-5.8,1.6
		c-1.4,2.7-3,5.4-5,7.7c-3.1,3.6-7.2,4.8-11.9,3.3c-4.9-1.6-4.7-6-4.8-9.8c-0.2-8.5,6.2-16,15.5-16.5c6.2-0.3,6.7-3.1,6.3-7.7
		c-1.2-13.8-0.6-13.9-14.8-9.8c-5.3,1.5-9.4,5.1-14.2,8.7c-0.1-6.1,2.5-10.2,6.4-13.6c2.5-2.1,5.3-3.8,8.1-5.6
		c8.6-5.5,8.9-7.6,1.1-14.6c-4.4-4-9.3-7.3-15.8-6.5c-19.4,2.3-34.8-5.6-47.9-19.2c-8-8.3-16.2-16.6-24.5-24.6
		c-14-13.5-29.1-25.2-49.6-26.8c18.7-3.1,33.5,5.6,47.4,16.4c12.3,9.7,24.2,19.9,36.4,29.7c10.3,8.2,21.8,13.3,35.4,13.1
		c7.5-0.1,14.3-1.7,20.2-6.3c1.2-0.9,2.4-2.4,4-1.3c1.6,1.1,1,3.1-0.1,4c-8.4,6.8-5.5,11.9,1.3,18.1c5.2,4.8,12.1,11.6,18.9,13.9
		c24.9,8.1,36.3,27.5,41.6,51.2c5.3,23.8,2.2,46.9-10.8,68c-8.9,14.5-21.3,24.1-39,25.1c-2.8,0.2-4.4,1.6-5.4,3.9
		c-2.6,5.8-5.8,11.3-10.9,15.3c-2.8,2.2-2.5,4-0.1,6.4c3.7,3.5,6.2,7.7,7.9,12.2c-1.1,1.5-1.9,0.8-2.5,0.3
		c-16.1-13.2-35.6-14.2-53-2.5c-16.7,11.2-30.9,25.6-46.8,37.7C381.8,454.3,365.7,460.1,347.1,457.1z M508.5,345.1
		c-0.1,2.5,0,4.3-0.4,6c-1.2,5.6,1.4,5.6,5.6,4.3c6.3-2.1,12.1-4.9,17.2-9.1c19.5-16.1,27.4-46.3,18.7-70.2
		c-6.2-17-16.4-30.1-34.3-36c-7.4-2.4-7.4-2.4-7.1,5.6c0.1,2.8,0.3,5.7-0.1,8.5c-0.5,3.3,0.5,5,3.5,6.7
		c26.4,14.9,28.7,53.3,3.9,70.7C509.8,335.6,506.5,339,508.5,345.1z M495.2,326.3c1.7,0,3.3-0.5,2.6-2.6c-1.1-3.2-2.1-7-6.4-7.1
		c-2.3-0.1-2.9,2.4-2.6,4.4C489.5,324.6,491.7,326.3,495.2,326.3z M494.8,268.7c-3.5,0.2-5.7,1.9-5.9,5.5c-0.1,2.1,0.8,4.3,3.2,3.8
		c3.6-0.7,5.1-3.9,5.7-7.1C498.3,268.7,496.3,268.8,494.8,268.7z"/>
	<path class="st3" d="M296,165.5c-10.7-6.4-21.6-11.8-34.2-14c-24.8-4.2-49.1,9.8-55.6,32.8c-2,6.9-1.3,13.4,4.4,18.6
		c4.5,4.2,9.6,4.3,14.5,1.4c4.8-2.9,4.1-7.7,2.4-12.3c-0.7-2-1.5-3.9-2.3-6.2c6.7,2.5,9.7,7.5,9.1,14.1c-0.7,6.8-6.2,13-12.6,14.2
		c-10.2,2-19.3-3.2-23.5-13.4c-5.7-13.7-2.3-28.8,9.8-40.7c17.9-17.6,38.9-20.9,62.2-13.2c2,0.7,3.9,2.1,6.2,1.4
		C285.6,150.9,290.2,158.9,296,165.5z"/>
	<path class="st3" d="M326.7,146.1c13.3-3.5,26.6-4.6,39.9,0.3c14,5.2,24.4,14.2,30.7,27.8c5.6,12.1,3,26.7-5.9,35.2
		c-5.2,5-14.6,6.7-20.7,3.7c-6.1-3-9.7-9.4-9.2-16c0.4-5.6,2.6-8.6,8.4-11.4c0.9,2.7-1.2,4.5-1.9,6.6c-1.6,4.7-2,9.1,2.6,12.3
		c4.2,2.9,11.3,1.9,15-2.2c4.8-5.3,6-11.4,3.7-18.3c-7.6-23.4-30.4-36.7-55.2-32.6c-12.6,2.1-23.6,7.4-34.2,14
		c2.1-6.7,8.8-8.7,13.2-13C317.6,150.3,322.1,148.2,326.7,146.1z"/>
	<path class="st3" d="M302.7,431.3c14.7,9.1,30.4,13.9,47.9,12.2c17.7-1.7,36-18,39.5-35.4c1.7-8.2-3-16.9-10.1-19
		c-4.1-1.2-7.9-0.4-10.9,2.5c-2.8,2.7-2.7,6.2-1.3,9.8c0.9,2.4,1.8,4.8,2.7,7.3c-6.4-1.8-9.4-6.6-8.9-13.7
		c0.5-7.2,6.7-13.8,13.7-14.6c10.3-1.2,19,4.4,22.8,14.7c5.8,16-0.5,33.2-16.5,45.1c-16.2,12-34,13.5-52.9,8.5
		c-3-0.8-5.8-1.8-8.9-1.6C313.7,442.2,305.7,439.4,302.7,431.3z"/>
	<path class="st3" d="M265.5,449.8c-13.7,2.4-27.4,3.1-40.5-2.9c-13.5-6.2-23.6-15.9-28.1-30.2c-3.6-11.4-1.4-22.1,7.1-30.9
		c9.1-9.5,25.5-6.1,29.5,5.9c2.5,7.6-0.6,14.6-8.2,17.4c1-2.9,1.8-5.5,2.8-8.1c1.3-3.6,1.2-7.2-1.8-9.7c-3.1-2.6-7-3.5-11.1-2.1
		c-7.9,2.6-11.7,11.7-9.1,21.2c5.5,19.9,25.3,33.9,46.4,33.5c15.1-0.3,28.6-5.2,41.1-13.3c-2.9,6.7-8.2,11-14.6,14.1
		C274.5,446.4,270,448.1,265.5,449.8z"/>
	<path class="st4" d="M326.7,146.1c-4.5,2.1-9.1,4.2-13.6,6.3c2.9-4.2,7.5-5.8,11.8-7.9C325.4,145,326,145.6,326.7,146.1z"/>
	<path class="st4" d="M265.5,449.8c4.5-1.7,9-3.4,13.5-5.1c-2.4,4-6.5,5.2-10.5,6.6C267.8,450.2,266.6,449.9,265.5,449.8z"/>
	<path class="st3" d="M294.3,430c0.5-0.4,1-0.7,1.5-1.1C295.3,429.3,294.8,429.7,294.3,430z"/>
	<path class="st3" d="M301.3,430.1c0.5,0.5,1,0.9,1.4,1.4C302.3,431,301.8,430.5,301.3,430.1z"/>
	<path class="st3" d="M236.6,272.8c-3.4,8-6.8,15.7-9.9,23.5c-6,15.2-11.7,30.5-17.6,45.8c-0.9,2.3-1.1,5.1-4.9,5
		c-4.1-0.1-4.3-3.2-4.9-5.8c-5.8-25.7-11.5-51.5-17.3-77.2c-1.2-5.2-1.6-11.3-9.5-10.9c-1.5,0.1-2.3-1-2.2-2.6
		c0.2-1.8,1.5-1.9,2.9-1.8c9.8,0.7,19.6,0.6,29.4,0c1.4-0.1,2.7,0.1,2.9,1.9c0.2,2.1-1.1,2.4-2.8,2.7c-8.8,1.7-8.9,1.8-7.1,10.6
		c4.1,19.4,8.3,38.8,12.4,58.2c2.6-0.4,2.6-2.5,3.2-3.9c8.7-21.9,17.3-43.8,26-65.7c0.8-1.9,0.8-4.5,3.8-4.6c3.5-0.1,3.3,2.9,4,5
		c7.5,21.6,15,43.3,22.6,64.9c0.6,1.8,1.6,3.5,2.9,6.4c2-6.3,3.7-11.6,5.2-16.9c4.4-15.8,8.6-31.6,13-47.3c1.7-6.1-2.6-5.7-6.1-6.5
		c-1.9-0.4-5.1,0.9-5-2.5c0.1-4.1,3.6-2.4,5.5-2.2c6.6,0.5,13.1,0.3,19.6-0.1c1.6-0.1,3.8-0.6,3.8,2.2c0,2.2-1.6,2.3-3.2,2.3
		c-4.7,0.1-5.2,4-6.4,7.2c-9.5,26.3-16.7,53.2-24,80.2c-0.5,1.9-0.8,4-1.9,5.4c-2.1,2.5-6.5,0.8-7.8-3
		c-7.9-21.7-15.7-43.5-23.6-65.2C239.1,276.3,238.9,274.5,236.6,272.8z"/>
	<path class="st3" d="M367.9,297.4c-8.1,0-16.1,0.1-24.2,0c-3.9-0.1-6,0.9-5.8,5.5c0.5,10,0.7,20.1,0.7,30.1c0,5.8,2.3,8.5,8.2,8.2
		c1.6-0.1,4-0.7,4.1,1.8c0.1,3.3-2.7,2.1-4.4,2.1c-10.5,0.1-21,0.1-31.4,0.1c-1.6,0-3.9,0.7-3.7-2.1c0.1-2.2,2-1.8,3.5-1.9
		c9.4-1,9.9-1.3,9.9-10.6c0.1-22.5,0.1-45,0-67.4c-0.1-8.7-0.8-9.2-9.2-10c-1.8-0.2-4.5,0.5-4.3-2.5c0.2-3.1,2.9-1.8,4.6-1.8
		c10.5,0,20.9,0,31.4-0.1c1.7,0,3.7-0.7,3.7,2.1c0,2.2-1.8,2-3.3,2.2c-9.3,1.5-9.4,1.5-9.6,10.7c-0.1,7.4,0,14.8-0.2,22.3
		c-0.1,3.7,1.3,5,4.9,5c16.8-0.1,33.6-0.1,50.4,0c4.1,0,5.3-1.5,5.2-5.4c-0.3-7.8-0.4-15.7-0.3-23.6c0.1-6.2-2.4-9.4-8.9-9.1
		c-1.8,0.1-4.5,0.6-4.3-2.5c0.2-3.2,2.9-1.7,4.6-1.7c10.5-0.1,20.9-0.1,31.4-0.1c1.8,0,4.4-1,4.3,2.2c0,2.6-2.4,1.9-4,2.1
		c-9.5,0.9-9.8,1.1-9.9,10.5c-0.1,21.8-0.1,43.7,0.1,65.5c0.1,10.6,0.3,10.6,10.5,12c1.5,0.2,3.3,0,3.2,2.2
		c-0.1,2.2-2.1,1.8-3.5,1.8c-11.1,0-22.3,0-33.4,0c-1.5,0-3.4,0.4-3.4-1.9c0-2.2,1.8-2,3.3-2.2c9.4-1.2,9.5-1.2,9.8-10.7
		c0.2-9.2,0-18.3,0.4-27.5c0.2-4.4-1.6-5.7-5.7-5.6C384.4,297.5,376.2,297.4,367.9,297.4z"/>
	<path class="st4" d="M87.4,250.5c1.7,5.5-1.2,8.8-7,12.6c-24.7,16.1-22.9,56,2.8,70.4c3.6,2.1,5,4.2,4.3,8.2
		c-0.4,2.1-0.1,4.4-0.1,6.5c0.3,9.4,0.2,9.6-8.9,5.9c-20.5-8.3-30.8-24.6-35-45.6c-5.7-28.2,10.3-59.3,35.3-68.1
		c8.9-3.1,8.9-3.1,8.6,6.1C87.3,247.6,87.4,248.4,87.4,250.5z"/>
	<path class="st4" d="M103.2,316.4c2.7,0.1,3.5,1.9,3.5,3.9c-0.1,3.5-2,5.6-5.5,5.9c-1.5,0.1-4.2,0.7-3.7-1.9
		C98,320.9,99.9,318,103.2,316.4z"/>
	<path class="st4" d="M106.7,274.8c-0.1,1.6-0.8,3.8-3.2,3.3c-3.6-0.7-4.9-4-5.9-7.1c-0.8-2.3,1-2.6,2.6-2.5
		C103.9,268.6,106.3,270.3,106.7,274.8z"/>
	<path class="st4" d="M508.5,345.1c-2-6.1,1.3-9.5,7-13.6c24.9-17.4,22.5-55.8-3.9-70.7c-3-1.7-4-3.4-3.5-6.7
		c0.4-2.8,0.2-5.7,0.1-8.5c-0.3-8-0.3-8,7.1-5.6c17.9,5.9,28.1,19,34.3,36c8.7,23.9,0.8,54.1-18.7,70.2c-5.1,4.2-11,7-17.2,9.1
		c-4.2,1.4-6.8,1.3-5.6-4.3C508.5,349.5,508.3,347.7,508.5,345.1z"/>
	<path class="st4" d="M495.2,326.3c-3.5-0.1-5.7-1.7-6.3-5.3c-0.3-2.1,0.2-4.5,2.6-4.4c4.2,0.1,5.3,3.9,6.4,7.1
		C498.6,325.8,496.9,326.3,495.2,326.3z"/>
	<path class="st4" d="M494.8,268.7c1.5,0.1,3.4-0.1,3,2.2c-0.7,3.3-2.1,6.4-5.7,7.1c-2.4,0.5-3.3-1.7-3.2-3.8
		C489.1,270.6,491.3,268.9,494.8,268.7z"/>
</g>
</svg>
