<?xml version="1.0" encoding="utf-8"?>
<!-- Generator: Adobe Illustrator 26.3.1, SVG Export Plug-In . SVG Version: 6.00 Build 0)  -->
<svg version="1.1" id="Layer_1" xmlns="http://www.w3.org/2000/svg" xmlns:xlink="http://www.w3.org/1999/xlink" x="0px" y="0px"
	 viewBox="0 0 595.3 595.3" style="enable-background:new 0 0 595.3 595.3;" xml:space="preserve">
<style type="text/css">
	.st0{fill:#FFFFFF;}
	.st1{fill:#EA0E8B;}
	.st2{fill:#522760;}
</style>
<path class="st0" d="M297.6,595.3L297.6,595.3C133.3,595.3,0,462,0,297.6l0,0C0,133.3,133.3,0,297.6,0l0,0
	C462,0,595.3,133.3,595.3,297.6l0,0C595.3,462,462,595.3,297.6,595.3z"/>
<path class="st0" d="M584.9,375.9c0.5-2,1.1-4,1.6-6L584.9,375.9z"/>
<polygon class="st0" points="586.4,369.9 586.4,369.9 586.4,369.9 "/>
<g>
	<path class="st1" d="M128,93.2c20.6,10.5,38.4,19.5,56.5,28.6c5.6,2.8,6.3,7,6.3,12.6c0,92.8,0,185.5,0,278.6
		c0,8.4-2.1,11.2-10.5,6.6c-14.6-8-29.6-15.3-44.6-22.7c-5.6-2.8-8-6.3-8-12.9C128.4,288.2,128,192.3,128,93.2z"/>
	<path class="st2" d="M374.2,354.8c0,45.3-0.3,91,0,136.3c0,10.8-2.1,13.9-12.6,8c-16.4-9.1-38-13.9-47.8-27.5
		c-9.8-13.3-2.8-35.2-2.8-53c-0.3-76.4,0-152.4-0.3-228.7c0-12.9,2.1-16.4,14.3-9.1c12.2,7.3,25.1,13.6,38,19.2
		c8.7,3.8,11.5,9.4,11.2,18.5C373.9,263.7,374.2,309.1,374.2,354.8z"/>
	<path class="st1" d="M219.7,216.3c20.9,10.8,39.8,20.2,58.6,29.6c5.2,2.8,4.5,7.3,4.5,11.9c0,58.6,0,117.2,0,175.7
		c0,9.1-1.4,12.2-10.8,7c-16.7-9.4-38.7-14.3-49.5-27.9c-10.1-12.9-2.8-34.9-2.8-53c-0.3-41.8,0-83.7,0-125.5
		C219.7,228.9,219.7,224,219.7,216.3z"/>
	<path class="st2" d="M465.6,485.9c-20.9-10.5-38.7-19.9-56.8-28.6c-5.6-2.8-6.3-7-6.3-12.6c0-31.4,0.3-62.4,0-93.8
		c0-10.8,3.8-10.8,11.5-6.3c0.3,0.3,1,0.3,1.4,0.7c16.4,8.7,38.7,13.6,47.8,27.2c8.4,12.9,2.4,35.2,2.8,53
		C465.9,445.1,465.6,464.2,465.6,485.9z"/>
</g>
</svg>
