<svg xmlns="http://www.w3.org/2000/svg" width="356.8pt" height="382.4pt" fill-rule="evenodd" viewBox="0 0 356.8 382.4"><path d="M0 0v.8h356.8c-8.213-3.446-22.274-.8-31.2-.8h-72.8z" style="stroke:none;fill:#0f0f0f"/><path d="M0 .8v380.8h356.8V.8H0" style="stroke:none;fill:#e7e7e7"/><path d="M54.4 72v.8H252c-5.149-2.16-12.839-.8-18.4-.8H54.4z" style="stroke:none;fill:#f5d273"/><path d="M48.8 72.8v.8h4.8c-1.642-.7-2.998-.762-4.8-.8" style="stroke:none;fill:#f0d285"/><path d="M53.6 72.8v.8c67.455 0 135.017-.591 202.4.8-5.643-2.712-13.087-1.6-19.2-1.6H53.6z" style="stroke:none;fill:#f5c651"/><path d="M252 72.8v.8c15.535 0 32.714-2.038 48 .8-3.905-2.668-9.83-1.6-14.4-1.6z" style="stroke:none;fill:#f0d285"/><path d="M45.6 73.6v.8h3.2c-1.205-.546-1.852-.66-3.2-.8" style="stroke:none;fill:#ebddc0"/><path d="M48.8 74.172c-23.676 6.308-20 30.976-20 49.828v136c0 16.496-4.733 40.813 6.668 54.368 13.119 15.597 47.06 8.832 65.332 8.832h178.4c7.196 0 15.441 1.109 22.4-.968C324.626 315.36 320 290.783 320 272V133.6c0-16.558 5.036-40.502-7.642-53.174-13.984-13.977-42.977-4.876-60.358-6.397-44.141-3.863-90.069-.429-134.4-.429H72c-7.312 0-16.108-1.318-23.2.572" style="stroke:none;fill:#f8c333"/><path d="M45.6 74.4v.8H48c-.999-.548-1.239-.599-2.4-.8m255.734.267c-.356.355.488.31.532.266.356-.355-.488-.31-.532-.266" style="stroke:none;fill:#f4c76c"/><path d="M42.133 76.267c-.355.355.49.31.534.266.355-.355-.49-.31-.534-.266" style="stroke:none;fill:#f0d285"/><path d="M306.134 76.267c-.356.355.488.31.532.266.356-.355-.488-.31-.532-.266" style="stroke:none;fill:#ebdaa9"/><path d="M32.8 85.6a36.09 36.09 0 0 0 8.8-8.8 18.001 18.001 0 0 0-8.8 8.8m272.8-8.8v.8h2.4c-.998-.548-1.238-.6-2.4-.8" style="stroke:none;fill:#f4c76c"/><path d="M308 76.8c.978.956 1.136 1.053 2.4 1.6-.978-.956-1.136-1.053-2.4-1.6" style="stroke:none;fill:#ebddc0"/><path d="M314.4 83.2c.547 1.264.644 1.422 1.6 2.4-.547-1.264-.644-1.422-1.6-2.4" style="stroke:none;fill:#f5c651"/><path d="M316.266 84.534c-.044.044-.088.888.268.532.044-.044.088-.888-.268-.532" style="stroke:none;fill:#f0d285"/><path d="M32 85.6c-.789 1.183-.8.962-.8 2.4 1.031-1.154 1.12-.987.8-2.4" style="stroke:none;fill:#f5d273"/><path d="M317.066 86.134c-.044.044-.088.888.268.532.044-.044.088-.888-.268-.532" style="stroke:none;fill:#f4c76c"/><path d="m318.4 87.2.8 4h.8c-.309-1.714-.596-2.6-1.6-4" style="stroke:none;fill:#ebdaa9"/><path d="M29.6 89.6V92h.8c-.201-1.162-.252-1.402-.8-2.4" style="stroke:none;fill:#f0d285"/><path d="M320 91.2v3.2h.8c-.139-1.348-.254-1.995-.8-3.2" style="stroke:none;fill:#f5d273"/><path d="M28 92.8V96h.8c-.14-1.348-.253-1.995-.8-3.2" style="stroke:none;fill:#ebddc0"/><path d="M320 94.4v208.8h.8V113.6c0-5.773 1.442-13.858-.8-19.2" style="stroke:none;fill:#f5c651"/><path d="M321.066 94.934c-.044.044-.088.888.268.532.044-.044.088-.888-.268-.532" style="stroke:none;fill:#f8de9a"/><path d="M321.6 94.4v138.4c0 22.344 3.278 47.634-.8 69.6h.8c4.201-14.21.8-33.958.8-48.8V112c0-5.349 1.279-12.645-.8-17.6" style="stroke:none;fill:#ebddc0"/><path d="m27.2 96 .8 203.2h.8L28 156.8v-41.6c0-5.773 1.442-13.858-.8-19.2" style="stroke:none;fill:#ebdaa9"/><path d="M28 96v165.6h.8V112c0-4.923 1.116-11.434-.8-16m292.8 0v204.8h.8V115.2c0-5.773 1.442-13.858-.8-19.2" style="stroke:none;fill:#f4c76c"/><path d="M254.4 116v.8h46.4c-4.37-1.834-10.49-.8-15.2-.8z" style="stroke:none;fill:#f5c651"/><path d="M49.6 116.8v.8H96c-4.37-1.834-10.49-.8-15.2-.8zm105.6 4.8h.8c1.483-4.885 6.077-4 10.4-4h28c-3.372-1.415-7.571-.8-11.2-.8-7.636 0-18.158-1.898-25.482.254-2.271.668-2.36 2.52-2.518 4.546" style="stroke:none;fill:#f5d273"/><path d="M253.6 119.2h.8c3.551-2.69 9.297-1.6 13.6-1.6h32l-.8 4.8h.8c.458-1.902.712-3.646.8-5.6h-35.2c-3.923 0-9.633-1.251-12 2.4" style="stroke:none;fill:#f8de9a"/><path d="M48.8 117.6v2.4h.8c-.201-1.162-.252-1.402-.8-2.4" style="stroke:none;fill:#f4c76c"/><path d="M49.6 117.6v2.4h.8l.8-2.4z" style="stroke:none;fill:#fceebd"/><path d="M51.2 117.6v.8H96v3.2h.8v-4zm105.6 0v.8h37.6v3.2h.8v-4z" style="stroke:none;fill:#fff8da"/><path d="M254.4 117.6c-6.449 31.31-20.717 60.842-27.2 92-5.094-4.736-6.218-14.32-8.263-20.8L204.011 144c-1.316-4.21-5.993-21.342-9.611-22.4v-3.2H156c-.665 8.142-4.863 15.528-7.402 23.2-7.459 22.547-17.299 45.04-22.998 68-4.309-4.458-4.193-11.261-6.341-16.8-4.13-10.65-7.013-21.123-10.192-32-1.586-5.43-4.203-10.246-4.267-16h-2.4c0-9.711-4.317-17.178-6.4-26.4H50.4c3.264 14.85 9.958 29.566 14.796 44 9.34 27.869 17.956 55.939 26.928 83.969 3.575 11.169 8.699 22.117 11.076 33.631h40c.362-7.934 4.342-14.984 6.785-22.4l16.82-51.064c2.01-6.1 5.882-11.094 6.795-17.736 6.489 3.49 7.786 16.633 10.128 23.2 7.762 21.766 19.009 44.52 23.472 67.2l27.2.001c3.11.015 8.084 1.637 10.821-.147 3.398-2.216 3.407-7.515 4.742-10.918 4.353-11.091 9.105-22.846 11.731-34.536 6.079-27.069 17.713-54.646 26.877-80.8 3.915-11.174 9.85-23.481 11.429-35.2z" style="stroke:none;fill:#fff"/><path d="M96.8 118.4c.246 1.698.306 2.149 1.6 3.2-.477-1.248-.871-2.098-1.6-3.2" style="stroke:none;fill:#f8dd85"/><path d="M195.2 118.4v3.2h.8c-.139-1.348-.254-1.995-.8-3.2" style="stroke:none;fill:#fbe9a6"/><path d="m252.8 118.4-.8 4.8h.8c.423-1.882.649-3.009 0-4.8" style="stroke:none;fill:#f5d273"/><path d="M253.866 119.734c-.044.044-.088.888.268.532.044-.044.088-.888-.268-.532" style="stroke:none;fill:#fceebd"/><path d="M50.4 120v3.2h.8c-.14-1.348-.254-1.995-.8-3.2" style="stroke:none;fill:#f8dd85"/><path d="M300 120.8c-1.849 4.274-3.758 8.929-4 13.6h.8c.546-4.378 4.254-9.31 3.2-13.6" style="stroke:none;fill:#f5d273"/><path d="M97.6 121.6v3.2h.8c-.14-1.348-.254-1.995-.8-3.2" style="stroke:none;fill:#f8de9a"/><path d="M98.4 121.6v3.2h.8c-.14-1.348-.254-1.995-.8-3.2" style="stroke:none;fill:#f4c76c"/><path d="M154.4 121.6v4h.8l.8-4z" style="stroke:none;fill:#fff8da"/><path d="M196.8 121.6v2.4h.8c-.201-1.162-.252-1.402-.8-2.4" style="stroke:none;fill:#f4c76c"/><path d="M51.2 123.2v2.4h.8c-.201-1.162-.252-1.402-.8-2.4" style="stroke:none;fill:#f8dd85"/><path d="M52 123.2c.245 3.002.993 5.856 1.6 8.8h.8c-.25-3.132-.59-6.195-2.4-8.8" style="stroke:none;fill:#fceebd"/><path d="M252 123.2v2.4h.8c-.201-1.162-.252-1.402-.8-2.4m-98.4.8v2.4h.8c-.201-1.162-.252-1.402-.8-2.4" style="stroke:none;fill:#fbe9a6"/><path d="M197.6 124v2.4h.8c-.201-1.162-.252-1.402-.8-2.4" style="stroke:none;fill:#f5d273"/><path d="M98.4 124.8v2.4h.8c-.2-1.162-.252-1.402-.8-2.4" style="stroke:none;fill:#fceebd"/><path d="M51.2 125.6c.547 1.264.644 1.422 1.6 2.4-.547-1.264-.644-1.422-1.6-2.4m199.2 0a28.283 28.283 0 0 0-1.6 6.4h.8c.839-2.25 1.505-4.085.8-6.4z" style="stroke:none;fill:#f5c651"/><path d="M251.466 126.134c-.044.044-.088.888.268.532.044-.044.088-.888-.268-.532" style="stroke:none;fill:#fbe9a6"/><path d="M297.866 126.134c-.044.044-.088.888.268.532.044-.044.088-.888-.268-.532" style="stroke:none;fill:#f8de9a"/><path d="m153.6 126.4-.8 3.2h.8c.372-1.545.459-1.753 0-3.2" style="stroke:none;fill:#fff8da"/><path d="m197.6 126.4 1.6 4.8h.8c-.425-2.152-.893-3.216-2.4-4.8" style="stroke:none;fill:#fbe9a6"/><path d="m296.8 126.4-.8 4h.8c.349-1.641.498-2.446 0-4" style="stroke:none;fill:#fff8da"/><path d="M152 127.2v1.6c1.308-.436 1.164-.292 1.6-1.6z" style="stroke:none;fill:#f8de9a"/><path d="M199.466 127.734c-.044.044-.088.888.268.532.044-.044.088-.888-.268-.532" style="stroke:none;fill:#f5d273"/><path d="M99.2 128v2.4h.8c-.2-1.162-.252-1.402-.8-2.4" style="stroke:none;fill:#fff8da"/><path d="M100 128v3.2h.8c-.139-1.348-.254-1.995-.8-3.2" style="stroke:none;fill:#f5d273"/><path d="M151.2 128v2.4h.8c-.201-1.162-.252-1.402-.8-2.4" style="stroke:none;fill:#f4c76c"/><path d="M250.666 128.534c-.044.044-.088.888.268.532.044-.044.088-.888-.268-.532" style="stroke:none;fill:#f8de9a"/><path d="M152.266 129.334c-.044.044-.088.888.268.532.044-.044.088-.888-.268-.532" style="stroke:none;fill:#ebddc0"/><path d="M198.4 128.8c.079 3.37.75 5.856 2.4 8.8h.8c-.708-3.061-1.522-6.134-3.2-8.8" style="stroke:none;fill:#fff8da"/><path d="M52.8 129.6c.14 1.502.35 2.559.8 4h.8c-.384-1.568-.75-2.646-1.6-4" style="stroke:none;fill:#f5c651"/><path d="M151.2 130.4v3.2h.8c-.139-1.348-.254-1.995-.8-3.2" style="stroke:none;fill:#fbe9a6"/><path d="M100.8 131.2v3.2h.8c-.139-1.348-.254-1.995-.8-3.2" style="stroke:none;fill:#f8dd85"/><path d="m200 131.2 1.6 5.6h.8c-.367-2.347-.838-3.815-2.4-5.6" style="stroke:none;fill:#f5d273"/><path d="M249.6 131.2v2.4h.8c-.201-1.162-.252-1.402-.8-2.4m45.6 0-.8 4.8h.8c.55-1.936.738-2.942 0-4.8" style="stroke:none;fill:#f8de9a"/><path d="M54.667 132.534c-.045.044-.09.888.266.532.045-.044.09-.888-.266-.532" style="stroke:none;fill:#fbe9a6"/><path d="M249.066 132.534c-.044.044-.088.888.268.532.044-.044.088-.888-.268-.532" style="stroke:none;fill:#f5d273"/><path d="M54.667 134.134c-.045.044-.09.888.266.532.045-.044.09-.888-.266-.532" style="stroke:none;fill:#f8dd85"/><path d="M148.8 133.6v5.6h.8l.8-5.6z" style="stroke:none;fill:#f5d273"/><path d="m150.4 133.6-.8 4.8h.8c.423-1.882.649-3.009 0-4.8" style="stroke:none;fill:#fff8da"/><path d="M248.266 134.134c-.044.044-.088.888.268.532.044-.044.088-.888-.268-.532" style="stroke:none;fill:#f4c76c"/><path d="M249.066 134.134c-.044.044-.088.888.268.532.044-.044.088-.888-.268-.532" style="stroke:none;fill:#fbe9a6"/><path d="M101.866 134.934c-.044.044-.088.888.268.532.044-.044.088-.888-.268-.532" style="stroke:none;fill:#f8de9a"/><path d="M201.066 134.934c-.044.044-.088.888.268.532.044-.044.088-.888-.268-.532" style="stroke:none;fill:#fbe9a6"/><path d="M55.2 135.2v2.4h.8c-.201-1.162-.252-1.402-.8-2.4" style="stroke:none;fill:#f8de9a"/><path d="m56 135.2.8 6.4h.8c-.058-2.493-.185-4.332-1.6-6.4" style="stroke:none;fill:#f5ebd2"/><path d="M248 135.2v2.4h.8c-.201-1.162-.252-1.402-.8-2.4" style="stroke:none;fill:#f8de9a"/><path d="M102.4 136.8v4.8h.8c-.038-1.802-.101-3.158-.8-4.8" style="stroke:none;fill:#fceebd"/><path d="M201.866 137.334c-.044.044-.088.888.268.532.044-.044.088-.888-.268-.532" style="stroke:none;fill:#f8de9a"/><path d="M55.2 137.6c.547 1.264.644 1.422 1.6 2.4-.547-1.264-.644-1.422-1.6-2.4m192 0c-.933 2.192-1.448 4.022-1.6 6.4h.8c.59-2.242 1.424-4.159.8-6.4" style="stroke:none;fill:#f4c76c"/><path d="M293.866 138.134c-.044.044-.088.888.268.532.044-.044.088-.888-.268-.532m-91.2.8c-.044.044-.088.888.268.532.044-.044.088-.888-.268-.532M148 139.2l-.8 6.4h.8c.328-2.219.919-4.262 1.6-6.4z" style="stroke:none;fill:#f8de9a"/><path d="M203.2 139.2v2.4h.8c-.201-1.162-.252-1.402-.8-2.4" style="stroke:none;fill:#f4c76c"/><path d="m292.8 139.2-.8 4h.8c.349-1.641.498-2.446 0-4" style="stroke:none;fill:#fceebd"/><path d="M147.2 140v2.4h.8c-.201-1.162-.252-1.402-.8-2.4" style="stroke:none;fill:#f4c76c"/><path d="M57.6 141.6v2.4h.8c-.201-1.162-.252-1.402-.8-2.4" style="stroke:none;fill:#fbe9a6"/><path d="M102.4 141.6v3.2h1.6v-3.2z" style="stroke:none;fill:#fff8da"/><path d="M104 141.6v3.2h.8c-.139-1.348-.254-1.995-.8-3.2" style="stroke:none;fill:#f0d285"/><path d="M104.8 141.6v3.2h.8c-.139-1.348-.254-1.995-.8-3.2" style="stroke:none;fill:#f5c651"/><path d="M203.466 142.134c-.044.044-.088.888.268.532.044-.044.088-.888-.268-.532" style="stroke:none;fill:#fbe9a6"/><path d="M246.4 141.6v3.2h.8c-.139-1.348-.254-1.995-.8-3.2" style="stroke:none;fill:#fff8da"/><path d="m204 143.2.8 3.2h.8c-.409-1.562-.586-1.966-1.6-3.2" style="stroke:none;fill:#f5d273"/><path d="M291.2 143.2v4h.8c-.07-1.571-.177-2.585-.8-4" style="stroke:none;fill:#fbe9a6"/><path d="M58.4 144v3.2h.8c-.14-1.348-.254-1.995-.8-3.2m187.2 0c-.822 1.918-1.342 3.533-1.6 5.6h.8c.621-2.012 1.304-3.571.8-5.6m-140.8.8v2.4h.8c-.201-1.162-.252-1.402-.8-2.4z" style="stroke:none;fill:#f8dd85"/><path d="M145.6 145.6v2.4h.8c-.201-1.162-.252-1.402-.8-2.4" style="stroke:none;fill:#f4c76c"/><path d="M146.4 145.6v2.4h.8c-.201-1.162-.252-1.402-.8-2.4" style="stroke:none;fill:#fceebd"/><path d="M205.066 146.934c-.044.044-.088.888.268.532.044-.044.088-.888-.268-.532" style="stroke:none;fill:#fbe9a6"/><path d="M245.6 146.4c-.789 1.183-.8.962-.8 2.4 1.031-1.154 1.121-.987.8-2.4" style="stroke:none;fill:#fceebd"/><path d="M59.2 147.2v3.2h.8c-.14-1.348-.254-1.995-.8-3.2" style="stroke:none;fill:#f0d285"/><path d="M60 147.2c.14 1.502.35 2.559.8 4h.8c-.309-1.714-.596-2.6-1.6-4m44.8 0v4h.8c-.07-1.571-.177-2.585-.8-4" style="stroke:none;fill:#fff8da"/><path d="M205.6 147.2v2.4h.8c-.201-1.162-.252-1.402-.8-2.4" style="stroke:none;fill:#f5d273"/><path d="M290.666 147.734c-.044.044-.088.888.268.532.044-.044.088-.888-.268-.532" style="stroke:none;fill:#f8dd85"/><path d="M105.6 148v3.2h.8c-.139-1.348-.254-1.995-.8-3.2" style="stroke:none;fill:#fbe9a6"/><path d="M106.4 148v3.2h.8c-.139-1.348-.254-1.995-.8-3.2" style="stroke:none;fill:#f5c651"/><path d="M144.8 148v3.2h.8c-.139-1.348-.254-1.995-.8-3.2" style="stroke:none;fill:#f5d273"/><path d="M145.6 148v3.2h.8c-.139-1.348-.254-1.995-.8-3.2" style="stroke:none;fill:#fff8da"/><path d="M289.6 148.8v2.4h.8c-.201-1.162-.252-1.402-.8-2.4" style="stroke:none;fill:#fceebd"/><path d="M205.6 149.6c.547 1.264.644 1.422 1.6 2.4-.547-1.264-.644-1.422-1.6-2.4" style="stroke:none;fill:#f8de9a"/><path d="M244 149.6v4h.8c-.07-1.571-.177-2.585-.8-4" style="stroke:none;fill:#fff8da"/><path d="M60.8 151.2v2.4h.8c-.201-1.162-.252-1.402-.8-2.4" style="stroke:none;fill:#fbe9a6"/><path d="M106.4 151.2c.094 2.184.399 4.251.8 6.4h.8c-.191-2.336-.498-4.33-1.6-6.4" style="stroke:none;fill:#fff8da"/><path d="M144 151.2v1.6c1.308-.436 1.164-.292 1.6-1.6z" style="stroke:none;fill:#f8dd85"/><path d="M207.2 151.2v2.4h.8c-.201-1.162-.252-1.402-.8-2.4" style="stroke:none;fill:#f4c76c"/><path d="M243.2 151.2c-1.182 2.454-1.537 4.482-1.6 7.2h.8c.298-2.453 1.387-4.82.8-7.2" style="stroke:none;fill:#f5c651"/><path d="M288.8 151.2c-.789 1.183-.8.962-.8 2.4 1.413-.783 1.564-.978.8-2.4" style="stroke:none;fill:#fff8da"/><path d="M143.2 152v2.4h.8c-.201-1.162-.252-1.402-.8-2.4" style="stroke:none;fill:#f4c76c"/><path d="M144.266 153.334c-.044.044-.088.888.268.532.044-.044.088-.888-.268-.532" style="stroke:none;fill:#ebddc0"/><path d="M61.6 153.6v2.4h.8c-.201-1.162-.252-1.402-.8-2.4" style="stroke:none;fill:#fbe9a6"/><path d="M207.2 153.6v4h.8c-.07-1.571-.177-2.585-.8-4" style="stroke:none;fill:#fff8da"/><path d="m288 153.6-.8 4.8h.8c.31-1.814.541-3.069 0-4.8" style="stroke:none;fill:#fbe9a6"/><path d="M108 154.4v4h.8c-.07-1.571-.177-2.585-.8-4" style="stroke:none;fill:#f0d285"/><path d="M143.2 154.4v3.2h.8c-.139-1.348-.254-1.995-.8-3.2" style="stroke:none;fill:#fbe9a6"/><path d="M242.4 154.4v2.4h.8c-.201-1.162-.252-1.402-.8-2.4" style="stroke:none;fill:#f8de9a"/><path d="m208 155.2.8 4h.8c-.309-1.714-.596-2.599-1.6-4" style="stroke:none;fill:#f5d273"/><path d="M62.4 156v3.2h.8c-.14-1.348-.254-1.995-.8-3.2" style="stroke:none;fill:#f8dd85"/><path d="M288 156c-.676 2.156-1.326 4.155-1.6 6.4h.8c.709-2.282 1.556-4.107.8-6.4" style="stroke:none;fill:#f5c651"/><path d="M141.6 157.6v3.2h.8c-.139-1.348-.254-1.995-.8-3.2" style="stroke:none;fill:#f0d285"/><path d="m142.4 157.6-.8 5.6h.8c.494-2.114.792-3.582 0-5.6" style="stroke:none;fill:#fff8da"/><path d="M108.8 158.4v3.2h.8c-.139-1.348-.254-1.995-.8-3.2" style="stroke:none;fill:#f8dd85"/><path d="M241.6 158.4c-1.07 1.983-1.453 3.352-1.6 5.6h.8c.386-1.929 1.048-3.68.8-5.6" style="stroke:none;fill:#fbe9a6"/><path d="M63.2 159.2v3.2h.8c-.14-1.348-.254-1.995-.8-3.2" style="stroke:none;fill:#f5d273"/><path d="M208.8 159.2v2.4h.8c-.201-1.162-.252-1.402-.8-2.4" style="stroke:none;fill:#fceebd"/><path d="M64 160c.325 1.674.173 1.616 1.6 2.4-.547-1.264-.644-1.422-1.6-2.4" style="stroke:none;fill:#fff8da"/><path d="M140.8 160v3.2h.8c-.139-1.348-.254-1.995-.8-3.2" style="stroke:none;fill:#f5d273"/><path d="M209.6 160v2.4h.8c-.201-1.162-.252-1.402-.8-2.4" style="stroke:none;fill:#f8dd85"/><path d="M109.6 161.6v3.2h.8c-.139-1.348-.254-1.995-.8-3.2" style="stroke:none;fill:#fbe9a6"/><path d="M110.4 161.6v3.2h.8c-.139-1.348-.254-1.995-.8-3.2" style="stroke:none;fill:#f4c76c"/><path d="M285.866 162.134c-.044.044-.088.888.268.532.044-.044.088-.888-.268-.532" style="stroke:none;fill:#f8de9a"/><path d="M64.8 162.4v3.2h.8c-.14-1.348-.254-1.995-.8-3.2m145.066.534c-.044.044-.088.888.268.532.044-.044.088-.888-.268-.532z" style="stroke:none;fill:#fceebd"/><path d="M210.666 162.934c-.044.044-.088.888.268.532.044-.044.088-.888-.268-.532" style="stroke:none;fill:#f8de9a"/><path d="m284.8 162.4-.8 4h.8c.349-1.641.498-2.446 0-4" style="stroke:none;fill:#fff8da"/><path d="M140 163.2v3.2h.8l.8-3.2z" style="stroke:none;fill:#f8de9a"/><path d="M211.2 163.2v2.4h.8c-.201-1.162-.252-1.402-.8-2.4" style="stroke:none;fill:#f4c76c"/><path d="m285.6 163.2-.8 3.2h.8c.372-1.545.459-1.753 0-3.2" style="stroke:none;fill:#f5d273"/><path d="M139.2 164v2.4h.8c-.201-1.162-.252-1.402-.8-2.4" style="stroke:none;fill:#f4c76c"/><path d="m240 164-.8 4.8h.8c.55-1.935.738-2.942 0-4.8m-129.6.8c.018 5.288 2.147 9.355 3.2 14.4h.8c-.455-4.566-1.833-10.354-4-14.4" style="stroke:none;fill:#fff8da"/><path d="M65.6 165.6v2.4h.8c-.201-1.162-.252-1.402-.8-2.4" style="stroke:none;fill:#f8de9a"/><path d="M211.466 166.134c-.044.044-.088.888.268.532.044-.044.088-.888-.268-.532" style="stroke:none;fill:#fbe9a6"/><path d="M239.2 165.6c-1.07 1.983-1.453 3.352-1.6 5.6h.8c.386-1.929 1.048-3.68.8-5.6" style="stroke:none;fill:#f5d273"/><path d="M139.2 166.4v3.2h.8c-.139-1.348-.254-1.995-.8-3.2" style="stroke:none;fill:#fbe9a6"/><path d="M284 166.4v4h.8c-.07-1.571-.177-2.585-.8-4" style="stroke:none;fill:#f5d273"/><path d="m212 167.2.8 4h.8c-.309-1.714-.596-2.6-1.6-4" style="stroke:none;fill:#f8dd85"/><path d="M283.2 167.2v4h.8c-.07-1.571-.177-2.585-.8-4" style="stroke:none;fill:#f8de9a"/><path d="M66.4 168v3.2h.8c-.14-1.348-.254-1.995-.8-3.2" style="stroke:none;fill:#f8dd85"/><path d="M112 168v3.2h.8c-.139-1.348-.254-1.995-.8-3.2" style="stroke:none;fill:#f5d273"/><path d="M112.8 168v4h.8c-.07-1.571-.177-2.585-.8-4" style="stroke:none;fill:#f5c651"/><path d="M238.4 168v2.4h.8c-.201-1.162-.252-1.402-.8-2.4" style="stroke:none;fill:#f8de9a"/><path d="M136.8 169.6v5.6h.8c.088-1.954.342-3.698.8-5.6z" style="stroke:none;fill:#f5c651"/><path d="M137.6 170.4v2.4h.8c-.201-1.162-.252-1.402-.8-2.4m-70.4.8v2.4h.8c-.201-1.162-.252-1.402-.8-2.4" style="stroke:none;fill:#f0d285"/><path d="M213.6 171.2v2.4h.8c-.201-1.162-.252-1.402-.8-2.4" style="stroke:none;fill:#f5d273"/><path d="M237.6 171.2v2.4h.8c-.201-1.162-.252-1.402-.8-2.4" style="stroke:none;fill:#fbe9a6"/><path d="M282.4 171.2v1.6c1.308-.436 1.164-.292 1.6-1.6z" style="stroke:none;fill:#f5d273"/><path d="m68 172 .8 3.2h.8c-.409-1.562-.587-1.966-1.6-3.2" style="stroke:none;fill:#fff8da"/><path d="M112.8 172v2.4h.8c-.201-1.162-.252-1.402-.8-2.4" style="stroke:none;fill:#f8dd85"/><path d="M237.066 172.534c-.044.044-.088.888.268.532.044-.044.088-.888-.268-.532" style="stroke:none;fill:#f5d273"/><path d="M213.6 173.6c.547 1.264.644 1.422 1.6 2.4-.547-1.264-.644-1.422-1.6-2.4" style="stroke:none;fill:#f8de9a"/><path d="M236.266 174.134c-.044.044-.088.888.268.532.044-.044.088-.888-.268-.532" style="stroke:none;fill:#f4c76c"/><path d="M236.8 173.6v3.2h.8c-.139-1.348-.254-1.995-.8-3.2" style="stroke:none;fill:#fff8da"/><path d="M280.8 173.6v4h.8c-.07-1.571-.177-2.585-.8-4" style="stroke:none;fill:#fceebd"/><path d="M281.866 174.134c-.044.044-.088.888.268.532.044-.044.088-.888-.268-.532" style="stroke:none;fill:#f8de9a"/><path d="M113.866 174.934c-.044.044-.088.888.268.532.044-.044.088-.888-.268-.532" style="stroke:none;fill:#f8dd85"/><path d="M68.8 175.2v2.4h.8c-.201-1.162-.252-1.402-.8-2.4" style="stroke:none;fill:#fbe9a6"/><path d="M215.2 175.2v2.4h.8c-.201-1.162-.252-1.402-.8-2.4" style="stroke:none;fill:#f4c76c"/><path d="M236 175.2v2.4h.8c-.201-1.162-.252-1.402-.8-2.4" style="stroke:none;fill:#f8de9a"/><path d="M281.6 175.2v2.4h.8c-.201-1.162-.252-1.402-.8-2.4m-146.134 1.334c-.044.044-.088.888.268.532.044-.044.088-.888-.268-.532" style="stroke:none;fill:#f4c76c"/><path d="M136.266 176.534c-.044.044-.088.888.268.532.044-.044.088-.888-.268-.532M69.6 177.6v3.2h.8c-.14-1.348-.254-1.995-.8-3.2" style="stroke:none;fill:#f8de9a"/><path d="M70.4 177.6v3.2h.8c-.14-1.348-.254-1.995-.8-3.2" style="stroke:none;fill:#fff8da"/><path d="M114.4 177.6v4h.8c-.07-1.571-.177-2.585-.8-4m20.8 0v4h.8c-.07-1.571-.177-2.585-.8-4" style="stroke:none;fill:#fceebd"/><path d="M215.2 177.6v4h.8c-.07-1.571-.177-2.585-.8-4m20.8 0-.8 4c1.503-1.298 1.533-2.16.8-4" style="stroke:none;fill:#fff8da"/><path d="M280 177.6v4h.8c-.07-1.571-.177-2.585-.8-4" style="stroke:none;fill:#f0d285"/><path d="M235.466 178.934c-.044.044-.088.888.268.532.044-.044.088-.888-.268-.532" style="stroke:none;fill:#f8dd85"/><path d="m216 179.2.8 3.2h.8c-.409-1.562-.586-1.966-1.6-3.2" style="stroke:none;fill:#f5d273"/><path d="M234.666 180.534c-.044.044-.088.888.268.532.044-.044.088-.888-.268-.532" style="stroke:none;fill:#f0d285"/><path d="M70.4 180.8v2.4h.8c-.201-1.161-.252-1.402-.8-2.4" style="stroke:none;fill:#f8dd85"/><path d="m115.2 181.6.8 4.8h.8c-.284-1.874-.62-3.19-1.6-4.8" style="stroke:none;fill:#fff8da"/><path d="M116 181.6v2.4h.8c-.201-1.162-.252-1.402-.8-2.4" style="stroke:none;fill:#f0d285"/><path d="M116.8 181.6v3.2h.8c-.139-1.348-.254-1.995-.8-3.2" style="stroke:none;fill:#f5c651"/><path d="M132.8 181.6v4h.8l.8-4z" style="stroke:none;fill:#f5d273"/><path d="m134.4 181.6-.8 4.8h.8l1.6-4.8z" style="stroke:none;fill:#fff8da"/><path d="m233.6 181.6-.8 5.6h.8c.494-2.114.792-3.582 0-5.6" style="stroke:none;fill:#f8dd85"/><path d="M234.666 182.134c-.044.044-.088.888.268.532.044-.044.088-.888-.268-.532" style="stroke:none;fill:#fceebd"/><path d="M279.2 181.6c-.789 1.183-.8.962-.8 2.4 1.031-1.154 1.121-.987.8-2.4" style="stroke:none;fill:#fbe9a6"/><path d="M133.6 182.4v2.4h.8c-.201-1.162-.252-1.402-.8-2.4" style="stroke:none;fill:#f8de9a"/><path d="M217.066 182.934c-.044.044-.088.888.268.532.044-.044.088-.888-.268-.532" style="stroke:none;fill:#fbe9a6"/><path d="m70.4 183.2.8 3.2h.8v-3.2z" style="stroke:none;fill:#f4c76c"/><path d="M217.6 183.2v2.4h.8c-.201-1.162-.252-1.402-.8-2.4m61.6 0c-.789 1.183-.8.962-.8 2.4 1.031-1.154 1.121-.987.8-2.4" style="stroke:none;fill:#f5d273"/><path d="M116.8 184.8v2.4h.8c-.201-1.162-.252-1.402-.8-2.4" style="stroke:none;fill:#f8dd85"/><path d="M133.066 186.134c-.044.044-.088.888.268.532.044-.044.088-.888-.268-.532m84.534-.534c.547 1.264.644 1.422 1.6 2.4-.547-1.264-.644-1.422-1.6-2.4" style="stroke:none;fill:#fbe9a6"/><path d="M233.6 185.6c-.854 2.695-1.47 5.169-1.6 8h.8c.464-2.742 1.73-5.321.8-8" style="stroke:none;fill:#fff8da"/><path d="M277.866 186.134c-.044.044-.088.888.268.532.044-.044.088-.888-.268-.532" style="stroke:none;fill:#f8de9a"/><path d="M72.8 186.4v3.2h.8c-.14-1.348-.254-1.995-.8-3.2m44 .8 1.6 4.8h.8c-.524-2.03-1.021-3.238-2.4-4.8" style="stroke:none;fill:#fceebd"/><path d="M131.2 187.2v2.4h.8l.8-2.4z" style="stroke:none;fill:#f4c76c"/><path d="M219.2 187.2v2.4h.8c-.201-1.162-.252-1.402-.8-2.4m12.8 0v2.4h.8c-.201-1.162-.252-1.402-.8-2.4" style="stroke:none;fill:#f5d273"/><path d="M276.8 187.2c-.789 1.183-.8.962-.8 2.4 1.413-.783 1.564-.978.8-2.4" style="stroke:none;fill:#fff8da"/><path d="M277.866 187.734c-.044.044-.088.888.268.532.044-.044.088-.888-.268-.532M118.4 188v2.4h.8c-.201-1.162-.252-1.402-.8-2.4" style="stroke:none;fill:#f4c76c"/><path d="M173.6 190.4h2.4c-.614-1.051-.549-.986-1.6-1.6-1.04.52-.8.118-.8 1.6" style="stroke:none;fill:#f8de9a"/><path d="M73.6 189.6c.14 1.502.35 2.559.8 4h.8c-.384-1.568-.75-2.646-1.6-4m57.6 0v2.4h.8c-.201-1.162-.252-1.402-.8-2.4" style="stroke:none;fill:#fbe9a6"/><path d="M174.4 189.6c-.789 1.183-.8.962-.8 2.4h2.4c-.547-1.264-.644-1.422-1.6-2.4" style="stroke:none;fill:#f5c651"/><path d="M176 189.6v2.4h.8c-.201-1.162-.252-1.402-.8-2.4m43.2 0v2.4h.8c-.201-1.162-.252-1.402-.8-2.4" style="stroke:none;fill:#fceebd"/><path d="M276.266 190.134c-.044.044-.088.888.268.532.044-.044.088-.888-.268-.532" style="stroke:none;fill:#fbe9a6"/><path d="M119.2 190.4v3.2h.8c-.139-1.348-.254-1.995-.8-3.2" style="stroke:none;fill:#f5c651"/><path d="M173.066 191.734c-.044.044-.088.888.268.532.044-.044.088-.888-.268-.532" style="stroke:none;fill:#f8de9a"/><path d="m220 191.2 1.6 6.4h.8c-.177-2.668-.646-4.368-2.4-6.4" style="stroke:none;fill:#f8dd85"/><path d="M231.2 191.2c-1.063 2.2-1.477 3.96-1.6 6.4h.8c.59-2.242 1.424-4.159.8-6.4" style="stroke:none;fill:#f5d273"/><path d="M275.2 191.2v2.4h.8c-.201-1.162-.252-1.402-.8-2.4" style="stroke:none;fill:#f5ebd2"/><path d="M276 191.2v2.4h.8c-.201-1.162-.252-1.402-.8-2.4" style="stroke:none;fill:#f0d285"/><path d="M129.6 192c-.515 1.685-.725 3.036-.8 4.8h.8c.371-1.738.884-3.166 1.6-4.8z" style="stroke:none;fill:#f5c651"/><path d="M131.2 192c-.789 1.183-.8.962-.8 2.4 1.031-1.154 1.121-.987.8-2.4" style="stroke:none;fill:#fceebd"/><path d="m176 192 .8 3.2h.8c-.451-1.402-.735-2.034-1.6-3.2" style="stroke:none;fill:#f5d273"/><path d="M177.066 192.534c-.044.044-.088.888.268.532.044-.044.088-.888-.268-.532" style="stroke:none;fill:#fff8da"/><path d="M74.4 193.6v2.4h.8c-.201-1.162-.252-1.402-.8-2.4" style="stroke:none;fill:#f5d273"/><path d="M120.266 194.134c-.044.044-.088.888.268.532.044-.044.088-.888-.268-.532" style="stroke:none;fill:#f0d285"/><path d="M129.866 194.134c-.044.044-.088.888.268.532.044-.044.088-.888-.268-.532" style="stroke:none;fill:#f8de9a"/><path d="M275.466 194.134c-.044.044-.088.888.268.532.044-.044.088-.888-.268-.532m-103.2.8c-.044.044-.088.888.268.532.044-.044.088-.888-.268-.532" style="stroke:none;fill:#f5d273"/><path d="m177.6 194.4.8 4.8h.8c-.139-2.09-.334-3.154-1.6-4.8" style="stroke:none;fill:#fff8da"/><path d="M221.066 194.934c-.044.044-.088.888.268.532.044-.044.088-.888-.268-.532" style="stroke:none;fill:#fbe9a6"/><path d="m273.6 194.4-.8 7.2h.8l1.6-7.2z" style="stroke:none;fill:#fceebd"/><path d="M120.266 195.734c-.044.044-.088.888.268.532.044-.044.088-.888-.268-.532m50.934-.534v2.4h.8c-.201-1.162-.252-1.402-.8-2.4" style="stroke:none;fill:#fbe9a6"/><path d="M274.666 195.734c-.044.044-.088.888.268.532.044-.044.088-.888-.268-.532" style="stroke:none;fill:#f8dd85"/><path d="M75.2 196v2.4h.8c-.201-1.161-.252-1.402-.8-2.4" style="stroke:none;fill:#f5d273"/><path d="M76 196v2.4h.8c-.201-1.161-.252-1.402-.8-2.4" style="stroke:none;fill:#fff8da"/><path d="M177.866 196.534c-.044.044-.088.888.268.532.044-.044.088-.888-.268-.532" style="stroke:none;fill:#f8dd85"/><path d="M120.8 196.8v2.4h.8c-.201-1.162-.252-1.402-.8-2.4" style="stroke:none;fill:#f8de9a"/><path d="m128.8 196.8-.8 4h.8c.474-1.724.619-2.365 0-4" style="stroke:none;fill:#fceebd"/><path d="M128.266 198.134c-.044.044-.088.888.268.532.044-.044.088-.888-.268-.532" style="stroke:none;fill:#f5d273"/><path d="M170.666 198.134c-.044.044-.088.888.268.532.044-.044.088-.888-.268-.532" style="stroke:none;fill:#f8de9a"/><path d="M177.866 198.134c-.044.044-.088.888.268.532.044-.044.088-.888-.268-.532" style="stroke:none;fill:#f4c76c"/><path d="M221.866 198.134c-.044.044-.088.888.268.532.044-.044.088-.888-.268-.532" style="stroke:none;fill:#fceebd"/><path d="M229.866 198.134c-.044.044-.088.888.268.532.044-.044.088-.888-.268-.532" style="stroke:none;fill:#fbe9a6"/><path d="M76.8 198.4v3.2h.8c-.14-1.348-.254-1.995-.8-3.2" style="stroke:none;fill:#fceebd"/><path d="M229.066 198.934c-.044.044-.088.888.268.532.044-.044.088-.888-.268-.532" style="stroke:none;fill:#f8dd85"/><path d="m120.8 199.2.8 3.2h.8c-.451-1.402-.735-2.034-1.6-3.2" style="stroke:none;fill:#fceebd"/><path d="M121.866 199.734c-.044.044-.088.888.268.532.044-.044.088-.888-.268-.532" style="stroke:none;fill:#f8dd85"/><path d="M127.2 199.2v2.4h.8c-.201-1.162-.252-1.402-.8-2.4" style="stroke:none;fill:#f4c76c"/><path d="m170.4 199.2-.8 3.2h.8c.372-1.545.459-1.753 0-3.2" style="stroke:none;fill:#f5d273"/><path d="M179.466 199.734c-.044.044-.088.888.268.532.044-.044.088-.888-.268-.532" style="stroke:none;fill:#fbe9a6"/><path d="M222.666 199.734c-.044.044-.088.888.268.532.044-.044.088-.888-.268-.532" style="stroke:none;fill:#fceebd"/><path d="M223.2 199.2v2.4h.8c-.201-1.161-.252-1.402-.8-2.4m50.4 0v2.4h.8c-.201-1.161-.252-1.402-.8-2.4m-45.334 1.334c-.044.044-.088.888.268.532.044-.044.088-.888-.268-.532" style="stroke:none;fill:#f4c76c"/><path d="m228.8 200-.8 6.4h.8c.282-2.271.775-4.242 0-6.4" style="stroke:none;fill:#fff8da"/><path d="M122.4 200.8v2.4h.8c-.201-1.162-.252-1.402-.8-2.4" style="stroke:none;fill:#f4c76c"/><path d="M179.2 200.8c.075 1.764.285 3.115.8 4.8h.8c-.374-1.762-.75-3.225-1.6-4.8" style="stroke:none;fill:#f5c651"/><path d="M76.8 201.6c.152 2.377.667 4.208 1.6 6.4h.8c-.322-2.419-1.099-4.338-2.4-6.4" style="stroke:none;fill:#f5d273"/><path d="M77.6 201.6v3.2h.8c-.14-1.348-.254-1.995-.8-3.2" style="stroke:none;fill:#f8de9a"/><path d="M78.4 201.6v3.2h.8c-.14-1.348-.254-1.995-.8-3.2" style="stroke:none;fill:#fff8da"/><path d="M127.2 201.6v2.4h.8c-.201-1.162-.252-1.402-.8-2.4m52.8 0v2.4h.8c-.201-1.162-.252-1.402-.8-2.4" style="stroke:none;fill:#fbe9a6"/><path d="M223.2 201.6v4h.8c-.07-1.571-.177-2.585-.8-4" style="stroke:none;fill:#fff8da"/><path d="M228.266 202.134c-.044.044-.088.888.268.532.044-.044.088-.888-.268-.532" style="stroke:none;fill:#fbe9a6"/><path d="m271.2 201.6-1.6 8h.8c.761-2.709 1.767-5.297.8-8" style="stroke:none;fill:#fff8da"/><path d="M272 201.6v4h.8c-.07-1.571-.177-2.585-.8-4" style="stroke:none;fill:#f5d273"/><path d="M169.066 202.934c-.044.044-.088.888.268.532.044-.044.088-.888-.268-.532" style="stroke:none;fill:#fbe9a6"/><path d="M169.6 202.4v3.2h.8c-.139-1.348-.254-1.995-.8-3.2" style="stroke:none;fill:#f5c651"/><path d="M122.4 203.2v2.4h.8c-.201-1.162-.252-1.402-.8-2.4" style="stroke:none;fill:#fceebd"/><path d="M168 203.2c-1.142 2.194-1.526 3.929-1.6 6.4h.8c.278-2.187 1.382-4.304.8-6.4" style="stroke:none;fill:#fff8da"/><path d="M224 203.2c.325 1.674.174 1.616 1.6 2.4-.547-1.264-.644-1.422-1.6-2.4" style="stroke:none;fill:#f4c76c"/><path d="M127.2 204c-.789 1.183-.8.962-.8 2.4 1.031-1.154 1.121-.987.8-2.4" style="stroke:none;fill:#fff8da"/><path d="M169.066 204.534c-.044.044-.088.888.268.532.044-.044.088-.888-.268-.532" style="stroke:none;fill:#f5d273"/><path d="M181.066 204.534c-.044.044-.088.888.268.532.044-.044.088-.888-.268-.532" style="stroke:none;fill:#fbe9a6"/><path d="M271.2 204.8v2.4h.8c-.201-1.162-.252-1.402-.8-2.4" style="stroke:none;fill:#f8de9a"/><path d="m123.2 205.6.8 3.2h1.6l.8-3.2z" style="stroke:none;fill:#f0d285"/><path d="M167.2 205.6v4h.8l.8-4z" style="stroke:none;fill:#fbe9a6"/><path d="M224.8 205.6c.386 1.891.509 2.014 2.4 2.4v-.8z" style="stroke:none;fill:#f0d285"/><path d="M225.6 205.6v1.6h1.6v-1.6z" style="stroke:none;fill:#f5d273"/><path d="M227.466 206.134c-.044.044-.088.888.268.532.044-.044.088-.888-.268-.532M181.6 207.2l.8 4h.8c-.309-1.714-.596-2.599-1.6-4" style="stroke:none;fill:#fbe9a6"/><path d="M79.2 208v2.4h.8c-.201-1.161-.252-1.402-.8-2.4" style="stroke:none;fill:#f5d273"/><path d="M80 208v2.4h.8c-.2-1.162-.252-1.402-.8-2.4" style="stroke:none;fill:#fceebd"/><path d="M225.6 208v1.6h1.6V208z" style="stroke:none;fill:#f5ebd2"/><path d="M124.534 209.066c-.356.356.488.312.532.268.356-.356-.488-.312-.532-.268" style="stroke:none;fill:#ebddc0"/><path d="m166.4 209.6-.8 4h.8c.349-1.641.498-2.446 0-4" style="stroke:none;fill:#fceebd"/><path d="M167.2 209.6v2.4h.8c-.201-1.162-.252-1.402-.8-2.4" style="stroke:none;fill:#f4c76c"/><path d="M269.6 209.6v2.4h.8c-.201-1.162-.252-1.402-.8-2.4m-188.8.8v3.2h.8c-.14-1.348-.254-1.995-.8-3.2z" style="stroke:none;fill:#fbe9a6"/><path d="M183.2 211.2c.09 2.819.368 4.413 2.4 6.4-.689-2.182-1.362-4.368-2.4-6.4" style="stroke:none;fill:#f4c76c"/><path d="M269.066 212.534c-.044.044-.088.888.268.532.044-.044.088-.888-.268-.532M81.6 213.6v3.2h.8c-.14-1.348-.254-1.995-.8-3.2" style="stroke:none;fill:#fbe9a6"/><path d="M184.266 214.134c-.044.044-.088.888.268.532.044-.044.088-.888-.268-.532" style="stroke:none;fill:#f0d285"/><path d="M268 213.6v4h.8c-.07-1.571-.177-2.585-.8-4" style="stroke:none;fill:#f5d273"/><path d="M165.066 215.734c-.044.044-.088.888.268.532.044-.044.088-.888-.268-.532" style="stroke:none;fill:#f0d285"/><path d="M267.2 215.2v2.4h.8c-.201-1.162-.252-1.402-.8-2.4" style="stroke:none;fill:#f5ebd2"/><path d="m164 216-.8 3.2h.8c.247-1.406.325-1.873 0-3.2" style="stroke:none;fill:#fceebd"/><path d="M82.4 216.8v6.4h.8c-.006-2.269.078-4.31-.8-6.4" style="stroke:none;fill:#f5c651"/><path d="M185.6 216.8c.328 2.219.919 4.262 1.6 6.4h.8c-.538-2.319-1.132-4.384-2.4-6.4" style="stroke:none;fill:#fceebd"/><path d="M164.266 218.134c-.044.044-.088.888.268.532.044-.044.088-.888-.268-.532" style="stroke:none;fill:#f5d273"/><path d="M267.466 218.134c-.044.044-.088.888.268.532.044-.044.088-.888-.268-.532" style="stroke:none;fill:#f0d285"/><path d="M83.466 219.734c-.044.044-.088.888.268.532.044-.044.088-.888-.268-.532" style="stroke:none;fill:#f8de9a"/><path d="M163.2 219.2v2.4h.8c-.201-1.162-.252-1.402-.8-2.4" style="stroke:none;fill:#f8dd85"/><path d="M185.6 219.2v2.4h.8c-.201-1.162-.252-1.402-.8-2.4" style="stroke:none;fill:#f0d285"/><path d="M266.4 219.2v2.4h.8c-.201-1.162-.252-1.402-.8-2.4" style="stroke:none;fill:#f8dd85"/><path d="M84 220c.14 1.502.35 2.559.8 4h.8c-.384-1.568-.75-2.646-1.6-4" style="stroke:none;fill:#fff8da"/><path d="M83.2 220.8v2.4h.8c-.2-1.162-.252-1.402-.8-2.4" style="stroke:none;fill:#f4c76c"/><path d="m265.6 220.8-.8 4h.8c.241-1.545.374-2.523 0-4" style="stroke:none;fill:#fceebd"/><path d="M162.4 221.6v2.4h.8c-.201-1.162-.252-1.402-.8-2.4" style="stroke:none;fill:#f0d285"/><path d="M186.666 222.134c-.044.044-.088.888.268.532.044-.044.088-.888-.268-.532" style="stroke:none;fill:#f5d273"/><path d="M265.6 222.4v2.4h.8c-.201-1.162-.252-1.402-.8-2.4" style="stroke:none;fill:#f0d285"/><path d="M187.2 223.2v4h.8c-.07-1.571-.177-2.585-.8-4" style="stroke:none;fill:#f4c76c"/><path d="M85.066 224.534c-.044.044-.088.888.268.532.044-.044.088-.888-.268-.532" style="stroke:none;fill:#fbe9a6"/><path d="M161.866 224.534c-.044.044-.088.888.268.532.044-.044.088-.888-.268-.532" style="stroke:none;fill:#f5d273"/><path d="M188 224.8v2.4h.8c-.201-1.162-.252-1.402-.8-2.4" style="stroke:none;fill:#fbe9a6"/><path d="M265.066 225.334c-.044.044-.088.888.268.532.044-.044.088-.888-.268-.532" style="stroke:none;fill:#f5d273"/><path d="M84.8 225.6v4h.8c-.07-1.571-.177-2.585-.8-4" style="stroke:none;fill:#f5c651"/><path d="M85.6 225.6v4h.8c-.07-1.571-.177-2.585-.8-4" style="stroke:none;fill:#f8de9a"/><path d="M160.8 225.6v2.4h.8c-.201-1.162-.252-1.402-.8-2.4m103.466.534c-.044.044-.088.888.268.532.044-.044.088-.888-.268-.532" style="stroke:none;fill:#fbe9a6"/><path d="m160 226.4-.8 4h.8c.349-1.641.498-2.446 0-4" style="stroke:none;fill:#fceebd"/><path d="M189.066 227.734c-.044.044-.088.888.268.532.044-.044.088-.888-.268-.532" style="stroke:none;fill:#f8dd85"/><path d="M263.2 227.2v2.4h.8c-.201-1.162-.252-1.402-.8-2.4" style="stroke:none;fill:#f5ebd2"/><path d="M264 227.2v2.4h.8c-.201-1.161-.252-1.402-.8-2.4" style="stroke:none;fill:#f5d273"/><path d="M160.266 229.334c-.044.044-.088.888.268.532.044-.044.088-.888-.268-.532" style="stroke:none;fill:#f8dd85"/><path d="M86.4 229.6c.011 3.06-.208 5.319 2.4 7.2-.751-2.402-1.354-4.93-2.4-7.2" style="stroke:none;fill:#f4c76c"/><path d="M189.6 229.6v2.4h.8c-.201-1.162-.252-1.402-.8-2.4" style="stroke:none;fill:#fbe9a6"/><path d="m262.4 229.6-.8 4h.8c.349-1.641.498-2.446 0-4" style="stroke:none;fill:#fff8da"/><path d="M263.466 230.134c-.044.044-.088.888.268.532.044-.044.088-.888-.268-.532" style="stroke:none;fill:#f0d285"/><path d="M159.466 230.934c-.044.044-.088.888.268.532.044-.044.088-.888-.268-.532" style="stroke:none;fill:#f8de9a"/><path d="M190.4 230.4v2.4h.8c-.201-1.162-.252-1.402-.8-2.4" style="stroke:none;fill:#fceebd"/><path d="M87.2 232v2.4h.8c-.2-1.162-.252-1.402-.8-2.4" style="stroke:none;fill:#fbe9a6"/><path d="m159.2 232-1.6 5.6c1.842-1.801 2.535-3.118 1.6-5.6" style="stroke:none;fill:#f5c651"/><path d="M189.6 232c1.003 3.207 1.568 6.43 4 8.8-1.003-3.207-1.568-6.43-4-8.8" style="stroke:none;fill:#f8dd85"/><path d="M262.666 232.534c-.044.044-.088.888.268.532.044-.044.088-.888-.268-.532" style="stroke:none;fill:#f5d273"/><path d="m158.4 232.8-.8 3.2h.8c.372-1.545.459-1.753 0-3.2m103.2.8v2.4h.8c-.201-1.161-.252-1.402-.8-2.4" style="stroke:none;fill:#fbe9a6"/><path d="m88.8 236 .8 4h.8c-.309-1.714-.596-2.6-1.6-4m68.266.534c-.044.044-.088.888.268.532.044-.044.088-.888-.268-.532" style="stroke:none;fill:#fff8da"/><path d="M192 236v2.4h.8c-.201-1.162-.252-1.402-.8-2.4" style="stroke:none;fill:#f8de9a"/><path d="M261.066 236.534c-.044.044-.088.888.268.532.044-.044.088-.888-.268-.532" style="stroke:none;fill:#fbe9a6"/><path d="M156.8 237.6v2.4h.8c-.201-1.162-.252-1.402-.8-2.4" style="stroke:none;fill:#f8dd85"/><path d="M89.066 238.934c-.044.044-.088.888.268.532.044-.044.088-.888-.268-.532" style="stroke:none;fill:#f0d285"/><path d="M260 238.4v3.2h.8c-.139-1.348-.254-1.995-.8-3.2" style="stroke:none;fill:#f5d273"/><path d="m193.6 239.2 1.6 7.2h.8c-.388-2.629-.982-4.945-2.4-7.2" style="stroke:none;fill:#fceebd"/><path d="M89.866 240.534c-.044.044-.088.888.268.532.044-.044.088-.888-.268-.532" style="stroke:none;fill:#ebdaa9"/><path d="M156 240c-.789 1.183-.8.962-.8 2.4 1.031-1.154 1.121-.987.8-2.4" style="stroke:none;fill:#fceebd"/><path d="M156.8 240c-.822 1.918-1.342 3.533-1.6 5.6h.8c.621-2.012 1.304-3.571.8-5.6" style="stroke:none;fill:#f4c76c"/><path d="M90.666 242.134c-.044.044-.088.888.268.532.044-.044.088-.888-.268-.532" style="stroke:none;fill:#f8de9a"/><path d="M193.6 241.6c.134 1.922.158 2.768 1.6 4-.384-1.568-.75-2.646-1.6-4m65.866.534c-.044.044-.088.888.268.532.044-.044.088-.888-.268-.532" style="stroke:none;fill:#f8dd85"/><path d="M90.4 243.2c.042 2.022.222 3.666.8 5.6h.8c-.385-1.972-.73-3.799-1.6-5.6" style="stroke:none;fill:#f5c651"/><path d="M154.4 243.2v2.4h.8c-.201-1.162-.252-1.402-.8-2.4" style="stroke:none;fill:#fceebd"/><path d="M258.666 243.734c-.044.044-.088.888.268.532.044-.044.088-.888-.268-.532" style="stroke:none;fill:#fbe9a6"/><path d="M91.466 244.534c-.044.044-.088.888.268.532.044-.044.088-.888-.268-.532" style="stroke:none;fill:#f8de9a"/><path d="M91.466 246.134c-.044.044-.088.888.268.532.044-.044.088-.888-.268-.532" style="stroke:none;fill:#f4c76c"/><path d="M154.4 245.6c-.789 1.183-.8.962-.8 2.4 1.031-1.154 1.121-.987.8-2.4" style="stroke:none;fill:#f8dd85"/><path d="M257.6 245.6v2.4h.8c-.201-1.162-.252-1.402-.8-2.4" style="stroke:none;fill:#f8de9a"/><path d="M256.8 246.4v2.4h.8c-.201-1.162-.252-1.402-.8-2.4" style="stroke:none;fill:#fceebd"/><path d="M92.266 247.734c-.044.044-.088.888.268.532.044-.044.088-.888-.268-.532" style="stroke:none;fill:#f8dd85"/><path d="m152.8 247.2-1.6 6.4h.8c.711-2.254 1.475-4.119.8-6.4" style="stroke:none;fill:#fceebd"/><path d="M196.266 248.534c-.044.044-.088.888.268.532.044-.044.088-.888-.268-.532" style="stroke:none;fill:#f0d285"/><path d="M196.8 248.8v2.4h.8c-.201-1.162-.252-1.402-.8-2.4" style="stroke:none;fill:#fceebd"/><path d="M256.8 248.8c-.789 1.182-.8.962-.8 2.4 1.031-1.154 1.121-.987.8-2.4" style="stroke:none;fill:#fbe9a6"/><path d="m92.8 249.6.8 4h.8c-.309-1.714-.596-2.6-1.6-4" style="stroke:none;fill:#f8de9a"/><path d="M93.866 250.134c-.044.044-.088.888.268.532.044-.044.088-.888-.268-.532" style="stroke:none;fill:#fceebd"/><path d="M153.066 250.134c-.044.044-.088.888.268.532.044-.044.088-.888-.268-.532" style="stroke:none;fill:#f0d285"/><path d="M197.6 251.2v2.4h.8c-.201-1.162-.252-1.402-.8-2.4" style="stroke:none;fill:#fceebd"/><path d="M256 251.2v2.4h.8c-.201-1.162-.252-1.402-.8-2.4m-103.734 1.334c-.044.044-.088.888.268.532.044-.044.088-.888-.268-.532" style="stroke:none;fill:#f5d273"/><path d="M94.666 254.134c-.044.044-.088.888.268.532.044-.044.088-.888-.268-.532m56.8 0c-.044.044-.088.888.268.532.044-.044.088-.888-.268-.532" style="stroke:none;fill:#f8dd85"/><path d="m197.6 253.6 1.6 4.8h.8c-.337-2.274-.751-3.21-2.4-4.8" style="stroke:none;fill:#f8de9a"/><path d="M255.2 253.6v2.4h.8c-.201-1.162-.252-1.402-.8-2.4" style="stroke:none;fill:#f0d285"/><path d="M150.666 254.934c-.044.044-.088.888.268.532.044-.044.088-.888-.268-.532" style="stroke:none;fill:#fceebd"/><path d="m254.4 254.4-.8 3.2h.8c.247-1.406.325-1.873 0-3.2" style="stroke:none;fill:#fff8da"/><path d="M95.2 255.2v2.4h.8c-.2-1.162-.252-1.402-.8-2.4" style="stroke:none;fill:#fceebd"/><path d="M197.6 255.2c.547 1.264.644 1.422 1.6 2.4-.547-1.264-.644-1.422-1.6-2.4" style="stroke:none;fill:#f5d273"/><path d="M150.666 256.534c-.044.044-.088.888.268.532.044-.044.088-.888-.268-.532" style="stroke:none;fill:#f8de9a"/><path d="M254.666 256.534c-.044.044-.088.888.268.532.044-.044.088-.888-.268-.532" style="stroke:none;fill:#f5d273"/><path d="m95.2 257.6.8 3.2h.8c-.451-1.402-.735-2.034-1.6-3.2" style="stroke:none;fill:#f8dd85"/><path d="M149.6 257.6c-.902 2.671-1.921 5.218-2.4 8h.8c.895-2.652 2.363-5.25 1.6-8" style="stroke:none;fill:#fceebd"/><path d="M253.866 258.134c-.044.044-.088.888.268.532.044-.044.088-.888-.268-.532" style="stroke:none;fill:#fbe9a6"/><path d="m252.8 258.4-.8 4h.8c.349-1.641.498-2.446 0-4" style="stroke:none;fill:#fff8da"/><path d="M200 259.2v2.4h.8c-.201-1.162-.252-1.402-.8-2.4" style="stroke:none;fill:#f8de9a"/><path d="M253.866 259.734c-.044.044-.088.888.268.532.044-.044.088-.888-.268-.532" style="stroke:none;fill:#f5d273"/><path d="M96.8 260v2.4h.8c-.2-1.162-.252-1.402-.8-2.4" style="stroke:none;fill:#fceebd"/><path d="m200.8 260 .8 3.2h.8c-.451-1.402-.735-2.034-1.6-3.2" style="stroke:none;fill:#fff8da"/><path d="M253.066 261.334c-.044.044-.088.888.268.532.044-.044.088-.888-.268-.532" style="stroke:none;fill:#f8dd85"/><path d="M28 261.6v6.4h.8c-.006-2.269.078-4.31-.8-6.4" style="stroke:none;fill:#f5c651"/><path d="M148.8 261.6v2.4h.8c-.201-1.162-.252-1.402-.8-2.4" style="stroke:none;fill:#f5d273"/><path d="M200 261.6c.547 1.264.644 1.422 1.6 2.4-.547-1.264-.644-1.422-1.6-2.4m-103.2.8v3.2h.8c-.14-1.348-.254-1.995-.8-3.2" style="stroke:none;fill:#f5c651"/><path d="m252 262.4-.8 4.8h.8c.55-1.935.738-2.942 0-4.8" style="stroke:none;fill:#f5d273"/><path d="M97.6 263.2v2.4h.8c-.2-1.162-.252-1.402-.8-2.4m104.266.534c-.044.044-.088.888.268.532.044-.044.088-.888-.268-.532" style="stroke:none;fill:#fbe9a6"/><path d="M201.6 264.8v2.4h.8c-.201-1.162-.252-1.402-.8-2.4" style="stroke:none;fill:#f5d273"/><path d="M202.4 264.8v2.4h.8c-.201-1.162-.252-1.402-.8-2.4" style="stroke:none;fill:#f5ebd2"/><path d="M98.666 266.134c-.044.044-.088.888.268.532.044-.044.088-.888-.268-.532" style="stroke:none;fill:#f8de9a"/><path d="m147.2 265.6-1.6 8.8h.8c.626-3.052 2.017-5.787.8-8.8" style="stroke:none;fill:#f5c651"/><path d="M146.666 266.934c-.044.044-.088.888.268.532.044-.044.088-.888-.268-.532" style="stroke:none;fill:#fceebd"/><path d="M249.6 266.4v2.4h.8l.8-2.4z" style="stroke:none;fill:#fff8da"/><path d="M98.4 267.2v4.8h.8c-.038-1.802-.1-3.158-.8-4.8m104 0c.209 2.558.699 4.798 1.6 7.2h.8c-.53-2.558-1.034-4.966-2.4-7.2" style="stroke:none;fill:#f5c651"/><path d="M203.2 267.2v2.4h.8c-.201-1.162-.252-1.402-.8-2.4m47.2 0-.8 3.2h.8c.372-1.545.459-1.753 0-3.2m-150.934 1.334c-.044.044-.088.888.268.532.044-.044.088-.888-.268-.532" style="stroke:none;fill:#fbe9a6"/><path d="M145.6 268c-.515 1.685-.725 3.036-.8 4.8h.8c.31-1.814.541-3.069 0-4.8" style="stroke:none;fill:#fff8da"/><path d="M146.666 268.534c-.044.044-.088.888.268.532.044-.044.088-.888-.268-.532" style="stroke:none;fill:#f0d285"/><path d="M99.2 269.6v2.4h.8c-.2-1.162-.252-1.402-.8-2.4" style="stroke:none;fill:#f4c76c"/><path d="m100 269.6.8 4h.8c-.309-1.714-.596-2.6-1.6-4m104 .8c.341 1.975.906 3.716 1.6 5.6h.8c-.31-2.376-.83-3.79-2.4-5.6m44.8 0v2.4h.8c-.201-1.161-.252-1.402-.8-2.4" style="stroke:none;fill:#fceebd"/><path d="M249.866 270.934c-.044.044-.088.888.268.532.044-.044.088-.888-.268-.532" style="stroke:none;fill:#f0d285"/><path d="M100.266 272.534c-.044.044-.088.888.268.532.044-.044.088-.888-.268-.532" style="stroke:none;fill:#f5d273"/><path d="m144 272.8-.8 4h.8c.474-1.724.619-2.365 0-4" style="stroke:none;fill:#fbe9a6"/><path d="M145.066 273.334c-.044.044-.088.888.268.532.044-.044.088-.888-.268-.532" style="stroke:none;fill:#f0d285"/><path d="M248.8 272.8c-.789 1.183-.8.962-.8 2.4 1.031-1.154 1.121-.987.8-2.4" style="stroke:none;fill:#fbe9a6"/><path d="M101.066 274.134c-.044.044-.088.888.268.532.044-.044.088-.888-.268-.532" style="stroke:none;fill:#f8dd85"/><path d="M101.866 274.934c-.044.044-.088.888.268.532.044-.044.088-.888-.268-.532" style="stroke:none;fill:#fceebd"/><path d="M100.8 275.2v2.4h.8c-.201-1.162-.252-1.402-.8-2.4m147.2 0v3.2h.8c-.139-1.348-.254-1.995-.8-3.2" style="stroke:none;fill:#f5d273"/><path d="m101.6 276 .8 3.2h.8c-.451-1.402-.735-2.034-1.6-3.2" style="stroke:none;fill:#f8de9a"/><path d="M144 276c-1.594 5.497-6.351 4.8-11.2 4.8h-29.6v.8H136c3.875-.002 10.086-.043 8-5.6" style="stroke:none;fill:#f5c651"/><path d="M205.866 276.534c-.044.044-.088.888.268.532.044-.044.088-.888-.268-.532" style="stroke:none;fill:#f8dd85"/><path d="M247.2 276c-.776 1.28-1.376 2.13-2.4 3.2v.8c2.199-.766 3.041-1.674 2.4-4" style="stroke:none;fill:#fff8da"/><path d="M143.2 276.8v2.4h.8c-.201-1.162-.252-1.402-.8-2.4" style="stroke:none;fill:#f8dd85"/><path d="M206.4 276.8v2.4h.8c-.201-1.162-.252-1.402-.8-2.4" style="stroke:none;fill:#fceebd"/><path d="m205.6 277.6.8 3.2h.8c-.451-1.402-.735-2.034-1.6-3.2" style="stroke:none;fill:#f4c76c"/><path d="M247.466 278.934c-.044.044-.088.888.268.532.044-.044.088-.888-.268-.532" style="stroke:none;fill:#f8dd85"/><path d="M207.2 279.2v.8h33.6c-8.79-3.689-24.034-.8-33.6-.8" style="stroke:none;fill:#fff8da"/><path d="M103.2 280v.8h39.2c-10.122-4.247-28.17-.8-39.2-.8m104 0v.8h38.4c-9.931-4.167-27.579-.8-38.4-.8" style="stroke:none;fill:#f8dd85"/><path d="M207.2 280.8v.8c12.278 0 28.234 2.678 40-.8-11.688-2.807-27.813 0-40 0" style="stroke:none;fill:#f5c651"/><path d="M28 299.2v3.2h.8c-.14-1.348-.254-1.995-.8-3.2m1.067 3.734c-.045.044-.09.888.266.532.045-.044.09-.888-.266-.532" style="stroke:none;fill:#ebddc0"/><path d="M29.6 303.2c.245 1.698.306 2.149 1.6 3.2-.477-1.248-.87-2.098-1.6-3.2" style="stroke:none;fill:#f4c76c"/><path d="M320 303.2v2.4h.8c-.201-1.162-.252-1.402-.8-2.4m-.8 2.4c-.789 1.183-.8.962-.8 2.4 1.031-1.154 1.121-.987.8-2.4m-288.533 1.334c-.045.044-.09.888.266.532.045-.044.09-.888-.266-.532M31.2 308c.547 1.264.644 1.422 1.6 2.4-.547-1.264-.644-1.422-1.6-2.4" style="stroke:none;fill:#f0d285"/><path d="M318.4 308c-.789 1.183-.8.962-.8 2.4 1.031-1.154 1.121-.987.8-2.4" style="stroke:none;fill:#ebdaa9"/><path d="M32 310.4c.749 1.559 1.114 2.04 2.4 3.2-.749-1.559-1.114-2.04-2.4-3.2" style="stroke:none;fill:#ebddc0"/><path d="M316 311.2c-.789 1.182-.8.962-.8 2.4 1.031-1.154 1.121-.987.8-2.4" style="stroke:none;fill:#f0d285"/><path d="m313.6 314.4.8.8z" style="stroke:none;fill:#f5d273"/><path d="M311.2 318.4c1.402-1.064 2.136-1.798 3.2-3.2-1.799.923-2.277 1.401-3.2 3.2" style="stroke:none;fill:#ebdaa9"/><path d="M38.933 317.866c-.355.356.49.312.534.268.355-.356-.49-.312-.534-.268" style="stroke:none;fill:#f4c76c"/><path d="M310.134 317.866c-.356.356.488.312.532.268.356-.356-.488-.312-.532-.268" style="stroke:none;fill:#f0d285"/><path d="M306.4 320.8c1.264-.547 1.422-.644 2.4-1.6-1.264.547-1.422.644-2.4 1.6m-264-.8c.978.956 1.136 1.053 2.4 1.6-.978-.956-1.136-1.053-2.4-1.6z" style="stroke:none;fill:#ebdaa9"/><path d="M302.4 321.6v.8l4-.8c-1.554-.498-2.359-.349-4 0" style="stroke:none;fill:#f0d285"/><path d="M46.133 321.866c-.355.356.49.312.534.268.355-.356-.49-.312-.534-.268" style="stroke:none;fill:#f5d273"/><path d="M47.733 322.666c-.355.356.49.312.534.268.355-.356-.49-.312-.534-.268" style="stroke:none;fill:#ebdaa9"/><path d="M49.333 322.666c-.355.356.49.312.534.268.355-.356-.49-.312-.534-.268" style="stroke:none;fill:#f5d273"/><path d="M299.2 322.4v.8h2.4c-.998-.548-1.238-.599-2.4-.8" style="stroke:none;fill:#f4c76c"/><path d="M50.4 323.2v.8c9.58 1.778 19.878.8 29.6.8H297.6v-.8H136c-28.069 0-57.765 2.718-85.6-.8z" style="stroke:none;fill:#ebdaa9"/><path d="M52.8 323.2v.8h2.4c-.999-.548-1.239-.599-2.4-.8" style="stroke:none;fill:#f5d273"/><path d="M55.2 323.2v.8h239.2c-5.919-2.484-15.194-.8-21.6-.8H55.2z" style="stroke:none;fill:#f5c651"/><path d="M294.4 323.2v.8h3.2c-1.205-.546-1.852-.661-3.2-.8" style="stroke:none;fill:#f5d273"/><path d="M0 381.6v.8h356.8c-8.213-3.446-22.274-.8-31.2-.8h-72.8z" style="stroke:none;fill:#0f0f0f"/></svg>