<?xml version="1.0" encoding="UTF-8" standalone="yes"?>
<!-- Created with sK1/UniConvertor (http://sk1project.org/) -->
<svg xmlns="http://www.w3.org/2000/svg" xmlns:xlink="http://www.w3.org/1999/xlink"
  width="356.8pt" height="382.4pt" viewBox="0 0 356.8 382.4"
  fill-rule="evenodd">
<g>
<path style="stroke:none; fill:#0f0f0f" d="M 0 0L 0 0.799988L 356.8 0.799988C 348.587 -2.64612 334.526 0 325.6 0L 252.8 0L 0 0z"/>
<path style="stroke:none; fill:#e7e7e7" d="M 0 0.799988L 0 381.6L 356.8 381.6L 356.8 0.799988L 0 0.799988z"/>
<path style="stroke:none; fill:#f5d273" d="M 54.4 72L 54.4 72.8L 252 72.8C 246.851 70.6394 239.161 72 233.6 72L 193.6 72L 54.4 72z"/>
<path style="stroke:none; fill:#f0d285" d="M 48.8 72.8L 48.8 73.6L 53.6 73.6C 51.9583 72.9006 50.6022 72.8378 48.8 72.8z"/>
<path style="stroke:none; fill:#f5c651" d="M 53.6 72.8L 53.6 73.6C 121.055 73.6 188.617 73.0089 256 74.4C 250.357 71.6881 242.913 72.8 236.8 72.8L 196.8 72.8L 53.6 72.8z"/>
<path style="stroke:none; fill:#f0d285" d="M 252 72.8L 252 73.6C 267.535 73.6 284.714 71.5622 300 74.4C 296.095 71.7325 290.17 72.8 285.6 72.8L 252 72.8z"/>
<path style="stroke:none; fill:#ebddc0" d="M 45.6 73.6L 45.6 74.4L 48.8 74.4C 47.5952 73.8536 46.9482 73.7393 45.6 73.6z"/>
<path style="stroke:none; fill:#f8c333" d="M 48.8 74.1716C 25.1238 80.48 28.8 105.148 28.8 124L 28.8 260C 28.8 276.496 24.0675 300.813 35.4685 314.368C 48.5869 329.965 82.5288 323.2 100.8 323.2L 237.6 323.2L 279.2 323.2C 286.396 323.2 294.641 324.309 301.6 322.232C 324.626 315.36 320 290.783 320 272L 320 133.6C 320 117.042 325.036 93.0984 312.358 80.4256C 298.374 66.4491 269.381 75.55 252 74.029C 207.859 70.1663 161.931 73.6 117.6 73.6L 72 73.6C 64.6883 73.6 55.8917 72.2819 48.8 74.1716z"/>
<path style="stroke:none; fill:#f4c76c" d="M 45.6 74.4L 45.6 75.2L 48 75.2C 47.0014 74.6522 46.7612 74.601 45.6 74.4M 301.334 74.6666C 300.978 75.0222 301.822 74.9778 301.866 74.9333C 302.222 74.5778 301.378 74.6222 301.334 74.6666z"/>
<path style="stroke:none; fill:#f0d285" d="M 42.1334 76.2666C 41.7778 76.6222 42.6222 76.5778 42.6666 76.5334C 43.0222 76.1778 42.1778 76.2222 42.1334 76.2666z"/>
<path style="stroke:none; fill:#ebdaa9" d="M 306.134 76.2666C 305.778 76.6222 306.622 76.5778 306.666 76.5334C 307.022 76.1778 306.178 76.2223 306.134 76.2666z"/>
<path style="stroke:none; fill:#f4c76c" d="M 32.8 85.6C 36.2478 83.1712 39.1713 80.248 41.6 76.8C 37.6796 78.6281 34.6282 81.6792 32.8 85.6M 305.6 76.8L 305.6 77.6L 308 77.6C 307.002 77.0522 306.762 77.0009 305.6 76.8z"/>
<path style="stroke:none; fill:#ebddc0" d="M 308 76.8C 308.978 77.7562 309.136 77.8531 310.4 78.4C 309.422 77.4438 309.264 77.3469 308 76.8z"/>
<path style="stroke:none; fill:#f5c651" d="M 314.4 83.2C 314.947 84.464 315.044 84.6216 316 85.6C 315.453 84.336 315.356 84.1784 314.4 83.2z"/>
<path style="stroke:none; fill:#f0d285" d="M 316.266 84.5336C 316.222 84.5776 316.178 85.4224 316.534 85.0664C 316.578 85.0224 316.622 84.1776 316.266 84.5336z"/>
<path style="stroke:none; fill:#f5d273" d="M 32 85.6C 31.2114 86.7832 31.2 86.5624 31.2 88C 32.2314 86.8456 32.3207 87.0128 32 85.6z"/>
<path style="stroke:none; fill:#f4c76c" d="M 317.066 86.1336C 317.022 86.1776 316.978 87.0224 317.334 86.6664C 317.378 86.6224 317.422 85.7776 317.066 86.1336z"/>
<path style="stroke:none; fill:#ebdaa9" d="M 318.4 87.2L 319.2 91.2L 320 91.2C 319.691 89.4856 319.404 88.6 318.4 87.2z"/>
<path style="stroke:none; fill:#f0d285" d="M 29.6 89.6L 29.6 92L 30.4 92C 30.199 90.8384 30.1478 90.5984 29.6 89.6z"/>
<path style="stroke:none; fill:#f5d273" d="M 320 91.2L 320 94.4L 320.8 94.4C 320.661 93.052 320.546 92.4048 320 91.2z"/>
<path style="stroke:none; fill:#ebddc0" d="M 28 92.8L 28 96L 28.8 96C 28.6607 94.652 28.5465 94.0048 28 92.8z"/>
<path style="stroke:none; fill:#f5c651" d="M 320 94.4L 320 303.2L 320.8 303.2L 320.8 156L 320.8 113.6C 320.8 107.827 322.242 99.7424 320 94.4z"/>
<path style="stroke:none; fill:#f8de9a" d="M 321.066 94.9336C 321.022 94.9776 320.978 95.8224 321.334 95.4664C 321.378 95.4224 321.422 94.5776 321.066 94.9336z"/>
<path style="stroke:none; fill:#ebddc0" d="M 321.6 94.4L 321.6 232.8C 321.6 255.144 324.878 280.434 320.8 302.4L 321.6 302.4C 325.801 288.19 322.4 268.442 322.4 253.6L 322.4 150.4L 322.4 112C 322.4 106.651 323.679 99.3552 321.6 94.4z"/>
<path style="stroke:none; fill:#ebdaa9" d="M 27.2 96L 28 299.2L 28.8 299.2L 28 156.8L 28 115.2C 28 109.427 29.4417 101.342 27.2 96z"/>
<path style="stroke:none; fill:#f4c76c" d="M 28 96L 28 261.6L 28.8 261.6L 28.8 144.8L 28.8 112C 28.8 107.077 29.9159 100.566 28 96M 320.8 96L 320.8 300.8L 321.6 300.8L 321.6 156.8L 321.6 115.2C 321.6 109.427 323.042 101.342 320.8 96z"/>
<path style="stroke:none; fill:#f5c651" d="M 254.4 116L 254.4 116.8L 300.8 116.8C 296.43 114.966 290.31 116 285.6 116L 254.4 116z"/>
<path style="stroke:none; fill:#f5d273" d="M 49.6 116.8L 49.6 117.6L 96 117.6C 91.6304 115.766 85.5096 116.8 80.8 116.8L 49.6 116.8M 155.2 121.6L 156 121.6C 157.483 116.715 162.077 117.6 166.4 117.6L 194.4 117.6C 191.028 116.185 186.829 116.8 183.2 116.8C 175.564 116.8 165.042 114.902 157.718 117.054C 155.447 117.722 155.358 119.574 155.2 121.6z"/>
<path style="stroke:none; fill:#f8de9a" d="M 253.6 119.2L 254.4 119.2C 257.951 116.51 263.697 117.6 268 117.6L 300 117.6L 299.2 122.4L 300 122.4C 300.458 120.498 300.712 118.754 300.8 116.8L 265.6 116.8C 261.677 116.8 255.967 115.549 253.6 119.2z"/>
<path style="stroke:none; fill:#f4c76c" d="M 48.8 117.6L 48.8 120L 49.6 120C 49.399 118.838 49.3478 118.598 48.8 117.6z"/>
<path style="stroke:none; fill:#fceebd" d="M 49.6 117.6L 49.6 120L 50.4 120L 51.2 117.6L 49.6 117.6z"/>
<path style="stroke:none; fill:#fff8da" d="M 51.2 117.6L 51.2 118.4L 96 118.4L 96 121.6L 96.8 121.6L 96.8 117.6L 51.2 117.6M 156.8 117.6L 156.8 118.4L 194.4 118.4L 194.4 121.6L 195.2 121.6L 195.2 117.6L 156.8 117.6z"/>
<path style="stroke:none; fill:#ffffff" d="M 254.4 117.6C 247.951 148.91 233.683 178.442 227.2 209.6C 222.106 204.864 220.982 195.28 218.937 188.8L 204.011 144C 202.695 139.79 198.018 122.658 194.4 121.6L 194.4 118.4L 156 118.4C 155.335 126.542 151.137 133.928 148.598 141.6C 141.139 164.147 131.299 186.64 125.6 209.6C 121.291 205.142 121.407 198.339 119.259 192.8C 115.129 182.15 112.246 171.677 109.067 160.8C 107.481 155.37 104.864 150.554 104.8 144.8L 102.4 144.8C 102.4 135.089 98.0832 127.622 96 118.4L 50.4 118.4C 53.6635 133.25 60.3582 147.966 65.1957 162.4C 74.5355 190.269 83.152 218.339 92.124 246.369C 95.6992 257.538 100.823 268.486 103.2 280L 143.2 280C 143.562 272.066 147.542 265.016 149.985 257.6L 166.805 206.536C 168.815 200.436 172.687 195.442 173.6 188.8C 180.089 192.29 181.386 205.433 183.728 212C 191.49 233.766 202.737 256.52 207.2 279.2L 234.4 279.201C 237.51 279.216 242.484 280.838 245.221 279.054C 248.619 276.838 248.628 271.539 249.963 268.136C 254.316 257.045 259.068 245.29 261.694 233.6C 267.773 206.531 279.407 178.954 288.571 152.8C 292.486 141.626 298.421 129.319 300 117.6L 254.4 117.6z"/>
<path style="stroke:none; fill:#f8dd85" d="M 96.8 118.4C 97.0456 120.098 97.1056 120.549 98.4 121.6C 97.9232 120.352 97.5288 119.502 96.8 118.4z"/>
<path style="stroke:none; fill:#fbe9a6" d="M 195.2 118.4L 195.2 121.6L 196 121.6C 195.861 120.252 195.746 119.605 195.2 118.4z"/>
<path style="stroke:none; fill:#f5d273" d="M 252.8 118.4L 252 123.2L 252.8 123.2C 253.223 121.318 253.449 120.191 252.8 118.4z"/>
<path style="stroke:none; fill:#fceebd" d="M 253.866 119.734C 253.822 119.778 253.778 120.622 254.134 120.266C 254.178 120.222 254.222 119.378 253.866 119.734z"/>
<path style="stroke:none; fill:#f8dd85" d="M 50.4 120L 50.4 123.2L 51.2 123.2C 51.0607 121.852 50.9465 121.205 50.4 120z"/>
<path style="stroke:none; fill:#f5d273" d="M 300 120.8C 298.151 125.074 296.242 129.729 296 134.4L 296.8 134.4C 297.346 130.022 301.054 125.09 300 120.8z"/>
<path style="stroke:none; fill:#f8de9a" d="M 97.6 121.6L 97.6 124.8L 98.4 124.8C 98.2608 123.452 98.1464 122.805 97.6 121.6z"/>
<path style="stroke:none; fill:#f4c76c" d="M 98.4 121.6L 98.4 124.8L 99.2 124.8C 99.0608 123.452 98.9464 122.805 98.4 121.6z"/>
<path style="stroke:none; fill:#fff8da" d="M 154.4 121.6L 154.4 125.6L 155.2 125.6L 156 121.6L 154.4 121.6z"/>
<path style="stroke:none; fill:#f4c76c" d="M 196.8 121.6L 196.8 124L 197.6 124C 197.399 122.838 197.348 122.598 196.8 121.6z"/>
<path style="stroke:none; fill:#f8dd85" d="M 51.2 123.2L 51.2 125.6L 52 125.6C 51.799 124.438 51.7478 124.198 51.2 123.2z"/>
<path style="stroke:none; fill:#fceebd" d="M 52 123.2C 52.2452 126.202 52.9927 129.056 53.6 132L 54.4 132C 54.1507 128.868 53.8102 125.805 52 123.2z"/>
<path style="stroke:none; fill:#fbe9a6" d="M 252 123.2L 252 125.6L 252.8 125.6C 252.599 124.438 252.548 124.198 252 123.2M 153.6 124L 153.6 126.4L 154.4 126.4C 154.199 125.238 154.148 124.998 153.6 124z"/>
<path style="stroke:none; fill:#f5d273" d="M 197.6 124L 197.6 126.4L 198.4 126.4C 198.199 125.238 198.148 124.998 197.6 124z"/>
<path style="stroke:none; fill:#fceebd" d="M 98.4 124.8L 98.4 127.2L 99.2 127.2C 98.9992 126.038 98.948 125.798 98.4 124.8z"/>
<path style="stroke:none; fill:#f5c651" d="M 51.2 125.6C 51.7469 126.864 51.8438 127.022 52.8 128C 52.2531 126.736 52.1562 126.578 51.2 125.6M 250.4 125.6C 249.598 127.734 249.103 129.74 248.8 132L 249.6 132C 250.439 129.75 251.105 127.915 250.4 125.6z"/>
<path style="stroke:none; fill:#fbe9a6" d="M 251.466 126.134C 251.422 126.178 251.378 127.022 251.734 126.666C 251.778 126.622 251.822 125.778 251.466 126.134z"/>
<path style="stroke:none; fill:#f8de9a" d="M 297.866 126.134C 297.822 126.178 297.778 127.022 298.134 126.666C 298.178 126.622 298.222 125.778 297.866 126.134z"/>
<path style="stroke:none; fill:#fff8da" d="M 153.6 126.4L 152.8 129.6L 153.6 129.6C 153.972 128.055 154.059 127.847 153.6 126.4z"/>
<path style="stroke:none; fill:#fbe9a6" d="M 197.6 126.4L 199.2 131.2L 200 131.2C 199.575 129.048 199.107 127.984 197.6 126.4z"/>
<path style="stroke:none; fill:#fff8da" d="M 296.8 126.4L 296 130.4L 296.8 130.4C 297.149 128.759 297.298 127.954 296.8 126.4z"/>
<path style="stroke:none; fill:#f8de9a" d="M 152 127.2L 152 128.8C 153.308 128.364 153.164 128.508 153.6 127.2L 152 127.2z"/>
<path style="stroke:none; fill:#f5d273" d="M 199.466 127.734C 199.422 127.778 199.378 128.622 199.734 128.266C 199.778 128.222 199.822 127.378 199.466 127.734z"/>
<path style="stroke:none; fill:#fff8da" d="M 99.2 128L 99.2 130.4L 100 130.4C 99.7992 129.238 99.748 128.998 99.2 128z"/>
<path style="stroke:none; fill:#f5d273" d="M 100 128L 100 131.2L 100.8 131.2C 100.661 129.852 100.546 129.205 100 128z"/>
<path style="stroke:none; fill:#f4c76c" d="M 151.2 128L 151.2 130.4L 152 130.4C 151.799 129.238 151.748 128.998 151.2 128z"/>
<path style="stroke:none; fill:#f8de9a" d="M 250.666 128.534C 250.622 128.578 250.578 129.422 250.934 129.066C 250.978 129.022 251.022 128.178 250.666 128.534z"/>
<path style="stroke:none; fill:#ebddc0" d="M 152.266 129.334C 152.222 129.378 152.178 130.222 152.534 129.866C 152.578 129.822 152.622 128.978 152.266 129.334z"/>
<path style="stroke:none; fill:#fff8da" d="M 198.4 128.8C 198.479 132.17 199.15 134.656 200.8 137.6L 201.6 137.6C 200.892 134.539 200.078 131.466 198.4 128.8z"/>
<path style="stroke:none; fill:#f5c651" d="M 52.8 129.6C 52.9407 131.102 53.1506 132.159 53.6 133.6L 54.4 133.6C 54.0157 132.032 53.6498 130.954 52.8 129.6z"/>
<path style="stroke:none; fill:#fbe9a6" d="M 151.2 130.4L 151.2 133.6L 152 133.6C 151.861 132.252 151.746 131.605 151.2 130.4z"/>
<path style="stroke:none; fill:#f8dd85" d="M 100.8 131.2L 100.8 134.4L 101.6 134.4C 101.461 133.052 101.346 132.405 100.8 131.2z"/>
<path style="stroke:none; fill:#f5d273" d="M 200 131.2L 201.6 136.8L 202.4 136.8C 202.033 134.453 201.562 132.985 200 131.2z"/>
<path style="stroke:none; fill:#f8de9a" d="M 249.6 131.2L 249.6 133.6L 250.4 133.6C 250.199 132.438 250.148 132.198 249.6 131.2M 295.2 131.2L 294.4 136L 295.2 136C 295.75 134.064 295.938 133.058 295.2 131.2z"/>
<path style="stroke:none; fill:#fbe9a6" d="M 54.6666 132.534C 54.6222 132.578 54.5778 133.422 54.9334 133.066C 54.9777 133.022 55.0222 132.178 54.6666 132.534z"/>
<path style="stroke:none; fill:#f5d273" d="M 249.066 132.534C 249.022 132.578 248.978 133.422 249.334 133.066C 249.378 133.022 249.422 132.178 249.066 132.534z"/>
<path style="stroke:none; fill:#f8dd85" d="M 54.6666 134.134C 54.6222 134.178 54.5778 135.022 54.9334 134.666C 54.9777 134.622 55.0222 133.778 54.6666 134.134z"/>
<path style="stroke:none; fill:#f5d273" d="M 148.8 133.6L 148.8 139.2L 149.6 139.2L 150.4 133.6L 148.8 133.6z"/>
<path style="stroke:none; fill:#fff8da" d="M 150.4 133.6L 149.6 138.4L 150.4 138.4C 150.823 136.518 151.049 135.391 150.4 133.6z"/>
<path style="stroke:none; fill:#f4c76c" d="M 248.266 134.134C 248.222 134.178 248.178 135.022 248.534 134.666C 248.578 134.622 248.622 133.778 248.266 134.134z"/>
<path style="stroke:none; fill:#fbe9a6" d="M 249.066 134.134C 249.022 134.178 248.978 135.022 249.334 134.666C 249.378 134.622 249.422 133.778 249.066 134.134z"/>
<path style="stroke:none; fill:#f8de9a" d="M 101.866 134.934C 101.822 134.978 101.778 135.822 102.134 135.466C 102.178 135.422 102.222 134.578 101.866 134.934z"/>
<path style="stroke:none; fill:#fbe9a6" d="M 201.066 134.934C 201.022 134.978 200.978 135.822 201.334 135.466C 201.378 135.422 201.422 134.578 201.066 134.934z"/>
<path style="stroke:none; fill:#f8de9a" d="M 55.2 135.2L 55.2 137.6L 56 137.6C 55.799 136.438 55.7478 136.198 55.2 135.2z"/>
<path style="stroke:none; fill:#f5ebd2" d="M 56 135.2L 56.8 141.6L 57.6 141.6C 57.542 139.107 57.4148 137.268 56 135.2z"/>
<path style="stroke:none; fill:#f8de9a" d="M 248 135.2L 248 137.6L 248.8 137.6C 248.599 136.438 248.548 136.198 248 135.2z"/>
<path style="stroke:none; fill:#fceebd" d="M 102.4 136.8L 102.4 141.6L 103.2 141.6C 103.162 139.798 103.099 138.442 102.4 136.8z"/>
<path style="stroke:none; fill:#f8de9a" d="M 201.866 137.334C 201.822 137.378 201.778 138.222 202.134 137.866C 202.178 137.822 202.222 136.978 201.866 137.334z"/>
<path style="stroke:none; fill:#f4c76c" d="M 55.2 137.6C 55.7468 138.864 55.8439 139.022 56.8 140C 56.2531 138.736 56.1562 138.578 55.2 137.6M 247.2 137.6C 246.267 139.792 245.752 141.622 245.6 144L 246.4 144C 246.99 141.758 247.824 139.841 247.2 137.6z"/>
<path style="stroke:none; fill:#f8de9a" d="M 293.866 138.134C 293.822 138.178 293.778 139.022 294.134 138.666C 294.178 138.622 294.222 137.778 293.866 138.134M 202.666 138.934C 202.622 138.978 202.578 139.822 202.934 139.466C 202.978 139.422 203.022 138.578 202.666 138.934M 148 139.2L 147.2 145.6L 148 145.6C 148.328 143.381 148.919 141.338 149.6 139.2L 148 139.2z"/>
<path style="stroke:none; fill:#f4c76c" d="M 203.2 139.2L 203.2 141.6L 204 141.6C 203.799 140.438 203.748 140.198 203.2 139.2z"/>
<path style="stroke:none; fill:#fceebd" d="M 292.8 139.2L 292 143.2L 292.8 143.2C 293.149 141.559 293.298 140.754 292.8 139.2z"/>
<path style="stroke:none; fill:#f4c76c" d="M 147.2 140L 147.2 142.4L 148 142.4C 147.799 141.238 147.748 140.998 147.2 140z"/>
<path style="stroke:none; fill:#fbe9a6" d="M 57.6 141.6L 57.6 144L 58.4 144C 58.199 142.838 58.1478 142.598 57.6 141.6z"/>
<path style="stroke:none; fill:#fff8da" d="M 102.4 141.6L 102.4 144.8L 104 144.8L 104 141.6L 102.4 141.6z"/>
<path style="stroke:none; fill:#f0d285" d="M 104 141.6L 104 144.8L 104.8 144.8C 104.661 143.452 104.546 142.805 104 141.6z"/>
<path style="stroke:none; fill:#f5c651" d="M 104.8 141.6L 104.8 144.8L 105.6 144.8C 105.461 143.452 105.346 142.805 104.8 141.6z"/>
<path style="stroke:none; fill:#fbe9a6" d="M 203.466 142.134C 203.422 142.178 203.378 143.022 203.734 142.666C 203.778 142.622 203.822 141.778 203.466 142.134z"/>
<path style="stroke:none; fill:#fff8da" d="M 246.4 141.6L 246.4 144.8L 247.2 144.8C 247.061 143.452 246.946 142.805 246.4 141.6z"/>
<path style="stroke:none; fill:#f5d273" d="M 204 143.2L 204.8 146.4L 205.6 146.4C 205.191 144.838 205.014 144.434 204 143.2z"/>
<path style="stroke:none; fill:#fbe9a6" d="M 291.2 143.2L 291.2 147.2L 292 147.2C 291.93 145.629 291.823 144.615 291.2 143.2z"/>
<path style="stroke:none; fill:#f8dd85" d="M 58.4 144L 58.4 147.2L 59.2 147.2C 59.0607 145.852 58.9464 145.205 58.4 144M 245.6 144C 244.778 145.918 244.258 147.533 244 149.6L 244.8 149.6C 245.421 147.588 246.104 146.029 245.6 144M 104.8 144.8L 104.8 147.2L 105.6 147.2C 105.399 146.038 105.348 145.798 104.8 144.8z"/>
<path style="stroke:none; fill:#f4c76c" d="M 145.6 145.6L 145.6 148L 146.4 148C 146.199 146.838 146.148 146.598 145.6 145.6z"/>
<path style="stroke:none; fill:#fceebd" d="M 146.4 145.6L 146.4 148L 147.2 148C 146.999 146.838 146.948 146.598 146.4 145.6z"/>
<path style="stroke:none; fill:#fbe9a6" d="M 205.066 146.934C 205.022 146.978 204.978 147.822 205.334 147.466C 205.378 147.422 205.422 146.578 205.066 146.934z"/>
<path style="stroke:none; fill:#fceebd" d="M 245.6 146.4C 244.811 147.583 244.8 147.362 244.8 148.8C 245.831 147.646 245.921 147.813 245.6 146.4z"/>
<path style="stroke:none; fill:#f0d285" d="M 59.2 147.2L 59.2 150.4L 60 150.4C 59.8607 149.052 59.7464 148.405 59.2 147.2z"/>
<path style="stroke:none; fill:#fff8da" d="M 60 147.2C 60.1407 148.702 60.3506 149.759 60.8 151.2L 61.6 151.2C 61.291 149.486 61.0039 148.6 60 147.2M 104.8 147.2L 104.8 151.2L 105.6 151.2C 105.53 149.629 105.423 148.615 104.8 147.2z"/>
<path style="stroke:none; fill:#f5d273" d="M 205.6 147.2L 205.6 149.6L 206.4 149.6C 206.199 148.438 206.148 148.198 205.6 147.2z"/>
<path style="stroke:none; fill:#f8dd85" d="M 290.666 147.734C 290.622 147.778 290.578 148.622 290.934 148.266C 290.978 148.222 291.022 147.378 290.666 147.734z"/>
<path style="stroke:none; fill:#fbe9a6" d="M 105.6 148L 105.6 151.2L 106.4 151.2C 106.261 149.852 106.146 149.205 105.6 148z"/>
<path style="stroke:none; fill:#f5c651" d="M 106.4 148L 106.4 151.2L 107.2 151.2C 107.061 149.852 106.946 149.205 106.4 148z"/>
<path style="stroke:none; fill:#f5d273" d="M 144.8 148L 144.8 151.2L 145.6 151.2C 145.461 149.852 145.346 149.205 144.8 148z"/>
<path style="stroke:none; fill:#fff8da" d="M 145.6 148L 145.6 151.2L 146.4 151.2C 146.261 149.852 146.146 149.205 145.6 148z"/>
<path style="stroke:none; fill:#fceebd" d="M 289.6 148.8L 289.6 151.2L 290.4 151.2C 290.199 150.038 290.148 149.798 289.6 148.8z"/>
<path style="stroke:none; fill:#f8de9a" d="M 205.6 149.6C 206.147 150.864 206.244 151.022 207.2 152C 206.653 150.736 206.556 150.578 205.6 149.6z"/>
<path style="stroke:none; fill:#fff8da" d="M 244 149.6L 244 153.6L 244.8 153.6C 244.73 152.029 244.623 151.015 244 149.6z"/>
<path style="stroke:none; fill:#fbe9a6" d="M 60.8 151.2L 60.8 153.6L 61.6 153.6C 61.399 152.438 61.3478 152.198 60.8 151.2z"/>
<path style="stroke:none; fill:#fff8da" d="M 106.4 151.2C 106.494 153.384 106.799 155.451 107.2 157.6L 108 157.6C 107.809 155.264 107.502 153.27 106.4 151.2z"/>
<path style="stroke:none; fill:#f8dd85" d="M 144 151.2L 144 152.8C 145.308 152.364 145.164 152.508 145.6 151.2L 144 151.2z"/>
<path style="stroke:none; fill:#f4c76c" d="M 207.2 151.2L 207.2 153.6L 208 153.6C 207.799 152.438 207.748 152.198 207.2 151.2z"/>
<path style="stroke:none; fill:#f5c651" d="M 243.2 151.2C 242.018 153.654 241.663 155.682 241.6 158.4L 242.4 158.4C 242.698 155.947 243.787 153.58 243.2 151.2z"/>
<path style="stroke:none; fill:#fff8da" d="M 288.8 151.2C 288.011 152.383 288 152.162 288 153.6C 289.413 152.817 289.564 152.622 288.8 151.2z"/>
<path style="stroke:none; fill:#f4c76c" d="M 143.2 152L 143.2 154.4L 144 154.4C 143.799 153.238 143.748 152.998 143.2 152z"/>
<path style="stroke:none; fill:#ebddc0" d="M 144.266 153.334C 144.222 153.378 144.178 154.222 144.534 153.866C 144.578 153.822 144.622 152.978 144.266 153.334z"/>
<path style="stroke:none; fill:#fbe9a6" d="M 61.6 153.6L 61.6 156L 62.4 156C 62.199 154.838 62.1478 154.598 61.6 153.6z"/>
<path style="stroke:none; fill:#fff8da" d="M 207.2 153.6L 207.2 157.6L 208 157.6C 207.93 156.029 207.823 155.015 207.2 153.6z"/>
<path style="stroke:none; fill:#fbe9a6" d="M 288 153.6L 287.2 158.4L 288 158.4C 288.31 156.586 288.541 155.331 288 153.6z"/>
<path style="stroke:none; fill:#f0d285" d="M 108 154.4L 108 158.4L 108.8 158.4C 108.73 156.829 108.623 155.815 108 154.4z"/>
<path style="stroke:none; fill:#fbe9a6" d="M 143.2 154.4L 143.2 157.6L 144 157.6C 143.861 156.252 143.746 155.605 143.2 154.4z"/>
<path style="stroke:none; fill:#f8de9a" d="M 242.4 154.4L 242.4 156.8L 243.2 156.8C 242.999 155.638 242.948 155.398 242.4 154.4z"/>
<path style="stroke:none; fill:#f5d273" d="M 208 155.2L 208.8 159.2L 209.6 159.2C 209.291 157.486 209.004 156.601 208 155.2z"/>
<path style="stroke:none; fill:#f8dd85" d="M 62.4 156L 62.4 159.2L 63.2 159.2C 63.0607 157.852 62.9464 157.205 62.4 156z"/>
<path style="stroke:none; fill:#f5c651" d="M 288 156C 287.324 158.156 286.674 160.155 286.4 162.4L 287.2 162.4C 287.909 160.118 288.756 158.293 288 156z"/>
<path style="stroke:none; fill:#f0d285" d="M 141.6 157.6L 141.6 160.8L 142.4 160.8C 142.261 159.452 142.146 158.805 141.6 157.6z"/>
<path style="stroke:none; fill:#fff8da" d="M 142.4 157.6L 141.6 163.2L 142.4 163.2C 142.894 161.086 143.192 159.618 142.4 157.6z"/>
<path style="stroke:none; fill:#f8dd85" d="M 108.8 158.4L 108.8 161.6L 109.6 161.6C 109.461 160.252 109.346 159.605 108.8 158.4z"/>
<path style="stroke:none; fill:#fbe9a6" d="M 241.6 158.4C 240.53 160.383 240.147 161.752 240 164L 240.8 164C 241.186 162.071 241.848 160.32 241.6 158.4z"/>
<path style="stroke:none; fill:#f5d273" d="M 63.2 159.2L 63.2 162.4L 64 162.4C 63.8607 161.052 63.7464 160.405 63.2 159.2z"/>
<path style="stroke:none; fill:#fceebd" d="M 208.8 159.2L 208.8 161.6L 209.6 161.6C 209.399 160.438 209.348 160.198 208.8 159.2z"/>
<path style="stroke:none; fill:#fff8da" d="M 64 160C 64.3246 161.674 64.1734 161.616 65.6 162.4C 65.0531 161.136 64.9562 160.978 64 160z"/>
<path style="stroke:none; fill:#f5d273" d="M 140.8 160L 140.8 163.2L 141.6 163.2C 141.461 161.852 141.346 161.205 140.8 160z"/>
<path style="stroke:none; fill:#f8dd85" d="M 209.6 160L 209.6 162.4L 210.4 162.4C 210.199 161.238 210.148 160.998 209.6 160z"/>
<path style="stroke:none; fill:#fbe9a6" d="M 109.6 161.6L 109.6 164.8L 110.4 164.8C 110.261 163.452 110.146 162.805 109.6 161.6z"/>
<path style="stroke:none; fill:#f4c76c" d="M 110.4 161.6L 110.4 164.8L 111.2 164.8C 111.061 163.452 110.946 162.805 110.4 161.6z"/>
<path style="stroke:none; fill:#f8de9a" d="M 285.866 162.134C 285.822 162.178 285.778 163.022 286.134 162.666C 286.178 162.622 286.222 161.778 285.866 162.134z"/>
<path style="stroke:none; fill:#fceebd" d="M 64.8 162.4L 64.8 165.6L 65.6 165.6C 65.4607 164.252 65.3464 163.605 64.8 162.4M 209.866 162.934C 209.822 162.978 209.778 163.822 210.134 163.466C 210.178 163.422 210.222 162.578 209.866 162.934z"/>
<path style="stroke:none; fill:#f8de9a" d="M 210.666 162.934C 210.622 162.978 210.578 163.822 210.934 163.466C 210.978 163.422 211.022 162.578 210.666 162.934z"/>
<path style="stroke:none; fill:#fff8da" d="M 284.8 162.4L 284 166.4L 284.8 166.4C 285.149 164.759 285.298 163.954 284.8 162.4z"/>
<path style="stroke:none; fill:#f8de9a" d="M 140 163.2L 140 166.4L 140.8 166.4L 141.6 163.2L 140 163.2z"/>
<path style="stroke:none; fill:#f4c76c" d="M 211.2 163.2L 211.2 165.6L 212 165.6C 211.799 164.438 211.748 164.198 211.2 163.2z"/>
<path style="stroke:none; fill:#f5d273" d="M 285.6 163.2L 284.8 166.4L 285.6 166.4C 285.972 164.855 286.059 164.647 285.6 163.2z"/>
<path style="stroke:none; fill:#f4c76c" d="M 139.2 164L 139.2 166.4L 140 166.4C 139.799 165.238 139.748 164.998 139.2 164z"/>
<path style="stroke:none; fill:#fff8da" d="M 240 164L 239.2 168.8L 240 168.8C 240.55 166.865 240.738 165.858 240 164M 110.4 164.8C 110.418 170.088 112.547 174.155 113.6 179.2L 114.4 179.2C 113.945 174.634 112.567 168.846 110.4 164.8z"/>
<path style="stroke:none; fill:#f8de9a" d="M 65.6 165.6L 65.6 168L 66.4 168C 66.199 166.838 66.1478 166.598 65.6 165.6z"/>
<path style="stroke:none; fill:#fbe9a6" d="M 211.466 166.134C 211.422 166.178 211.378 167.022 211.734 166.666C 211.778 166.622 211.822 165.778 211.466 166.134z"/>
<path style="stroke:none; fill:#f5d273" d="M 239.2 165.6C 238.13 167.583 237.747 168.952 237.6 171.2L 238.4 171.2C 238.786 169.271 239.448 167.52 239.2 165.6z"/>
<path style="stroke:none; fill:#fbe9a6" d="M 139.2 166.4L 139.2 169.6L 140 169.6C 139.861 168.252 139.746 167.605 139.2 166.4z"/>
<path style="stroke:none; fill:#f5d273" d="M 284 166.4L 284 170.4L 284.8 170.4C 284.73 168.829 284.623 167.815 284 166.4z"/>
<path style="stroke:none; fill:#f8dd85" d="M 212 167.2L 212.8 171.2L 213.6 171.2C 213.291 169.486 213.004 168.6 212 167.2z"/>
<path style="stroke:none; fill:#f8de9a" d="M 283.2 167.2L 283.2 171.2L 284 171.2C 283.93 169.629 283.823 168.615 283.2 167.2z"/>
<path style="stroke:none; fill:#f8dd85" d="M 66.4 168L 66.4 171.2L 67.2 171.2C 67.0607 169.852 66.9464 169.205 66.4 168z"/>
<path style="stroke:none; fill:#f5d273" d="M 112 168L 112 171.2L 112.8 171.2C 112.661 169.852 112.546 169.205 112 168z"/>
<path style="stroke:none; fill:#f5c651" d="M 112.8 168L 112.8 172L 113.6 172C 113.53 170.429 113.423 169.415 112.8 168z"/>
<path style="stroke:none; fill:#f8de9a" d="M 238.4 168L 238.4 170.4L 239.2 170.4C 238.999 169.238 238.948 168.998 238.4 168z"/>
<path style="stroke:none; fill:#f5c651" d="M 136.8 169.6L 136.8 175.2L 137.6 175.2C 137.688 173.246 137.942 171.502 138.4 169.6L 136.8 169.6z"/>
<path style="stroke:none; fill:#f0d285" d="M 137.6 170.4L 137.6 172.8L 138.4 172.8C 138.199 171.638 138.148 171.398 137.6 170.4M 67.2 171.2L 67.2 173.6L 68 173.6C 67.799 172.438 67.7478 172.198 67.2 171.2z"/>
<path style="stroke:none; fill:#f5d273" d="M 213.6 171.2L 213.6 173.6L 214.4 173.6C 214.199 172.438 214.148 172.198 213.6 171.2z"/>
<path style="stroke:none; fill:#fbe9a6" d="M 237.6 171.2L 237.6 173.6L 238.4 173.6C 238.199 172.438 238.148 172.198 237.6 171.2z"/>
<path style="stroke:none; fill:#f5d273" d="M 282.4 171.2L 282.4 172.8C 283.708 172.364 283.564 172.508 284 171.2L 282.4 171.2z"/>
<path style="stroke:none; fill:#fff8da" d="M 68 172L 68.8 175.2L 69.6 175.2C 69.1914 173.638 69.0134 173.234 68 172z"/>
<path style="stroke:none; fill:#f8dd85" d="M 112.8 172L 112.8 174.4L 113.6 174.4C 113.399 173.238 113.348 172.998 112.8 172z"/>
<path style="stroke:none; fill:#f5d273" d="M 237.066 172.534C 237.022 172.578 236.978 173.422 237.334 173.066C 237.378 173.022 237.422 172.178 237.066 172.534z"/>
<path style="stroke:none; fill:#f8de9a" d="M 213.6 173.6C 214.147 174.864 214.244 175.022 215.2 176C 214.653 174.736 214.556 174.578 213.6 173.6z"/>
<path style="stroke:none; fill:#f4c76c" d="M 236.266 174.134C 236.222 174.178 236.178 175.022 236.534 174.666C 236.578 174.622 236.622 173.778 236.266 174.134z"/>
<path style="stroke:none; fill:#fff8da" d="M 236.8 173.6L 236.8 176.8L 237.6 176.8C 237.461 175.452 237.346 174.805 236.8 173.6z"/>
<path style="stroke:none; fill:#fceebd" d="M 280.8 173.6L 280.8 177.6L 281.6 177.6C 281.53 176.029 281.423 175.015 280.8 173.6z"/>
<path style="stroke:none; fill:#f8de9a" d="M 281.866 174.134C 281.822 174.178 281.778 175.022 282.134 174.666C 282.178 174.622 282.222 173.778 281.866 174.134z"/>
<path style="stroke:none; fill:#f8dd85" d="M 113.866 174.934C 113.822 174.978 113.778 175.822 114.134 175.466C 114.178 175.422 114.222 174.578 113.866 174.934z"/>
<path style="stroke:none; fill:#fbe9a6" d="M 68.8 175.2L 68.8 177.6L 69.6 177.6C 69.399 176.438 69.3478 176.198 68.8 175.2z"/>
<path style="stroke:none; fill:#f4c76c" d="M 215.2 175.2L 215.2 177.6L 216 177.6C 215.799 176.438 215.748 176.198 215.2 175.2z"/>
<path style="stroke:none; fill:#f8de9a" d="M 236 175.2L 236 177.6L 236.8 177.6C 236.599 176.438 236.548 176.198 236 175.2z"/>
<path style="stroke:none; fill:#f4c76c" d="M 281.6 175.2L 281.6 177.6L 282.4 177.6C 282.199 176.438 282.148 176.198 281.6 175.2M 135.466 176.534C 135.422 176.578 135.378 177.422 135.734 177.066C 135.778 177.022 135.822 176.178 135.466 176.534z"/>
<path style="stroke:none; fill:#f8de9a" d="M 136.266 176.534C 136.222 176.578 136.178 177.422 136.534 177.066C 136.578 177.022 136.622 176.178 136.266 176.534M 69.6 177.6L 69.6 180.8L 70.4 180.8C 70.2607 179.452 70.1464 178.805 69.6 177.6z"/>
<path style="stroke:none; fill:#fff8da" d="M 70.4 177.6L 70.4 180.8L 71.2 180.8C 71.0607 179.452 70.9464 178.805 70.4 177.6z"/>
<path style="stroke:none; fill:#fceebd" d="M 114.4 177.6L 114.4 181.6L 115.2 181.6C 115.13 180.029 115.023 179.015 114.4 177.6M 135.2 177.6L 135.2 181.6L 136 181.6C 135.93 180.029 135.823 179.015 135.2 177.6z"/>
<path style="stroke:none; fill:#fff8da" d="M 215.2 177.6L 215.2 181.6L 216 181.6C 215.93 180.029 215.823 179.015 215.2 177.6M 236 177.6L 235.2 181.6C 236.703 180.302 236.733 179.44 236 177.6z"/>
<path style="stroke:none; fill:#f0d285" d="M 280 177.6L 280 181.6L 280.8 181.6C 280.73 180.029 280.623 179.015 280 177.6z"/>
<path style="stroke:none; fill:#f8dd85" d="M 235.466 178.934C 235.422 178.978 235.378 179.822 235.734 179.466C 235.778 179.422 235.822 178.578 235.466 178.934z"/>
<path style="stroke:none; fill:#f5d273" d="M 216 179.2L 216.8 182.4L 217.6 182.4C 217.191 180.838 217.014 180.434 216 179.2z"/>
<path style="stroke:none; fill:#f0d285" d="M 234.666 180.534C 234.622 180.578 234.578 181.422 234.934 181.066C 234.978 181.022 235.022 180.178 234.666 180.534z"/>
<path style="stroke:none; fill:#f8dd85" d="M 70.4 180.8L 70.4 183.2L 71.2 183.2C 70.999 182.039 70.9478 181.798 70.4 180.8z"/>
<path style="stroke:none; fill:#fff8da" d="M 115.2 181.6L 116 186.4L 116.8 186.4C 116.516 184.526 116.18 183.21 115.2 181.6z"/>
<path style="stroke:none; fill:#f0d285" d="M 116 181.6L 116 184L 116.8 184C 116.599 182.838 116.548 182.598 116 181.6z"/>
<path style="stroke:none; fill:#f5c651" d="M 116.8 181.6L 116.8 184.8L 117.6 184.8C 117.461 183.452 117.346 182.805 116.8 181.6z"/>
<path style="stroke:none; fill:#f5d273" d="M 132.8 181.6L 132.8 185.6L 133.6 185.6L 134.4 181.6L 132.8 181.6z"/>
<path style="stroke:none; fill:#fff8da" d="M 134.4 181.6L 133.6 186.4L 134.4 186.4L 136 181.6L 134.4 181.6z"/>
<path style="stroke:none; fill:#f8dd85" d="M 233.6 181.6L 232.8 187.2L 233.6 187.2C 234.094 185.086 234.392 183.618 233.6 181.6z"/>
<path style="stroke:none; fill:#fceebd" d="M 234.666 182.134C 234.622 182.178 234.578 183.022 234.934 182.666C 234.978 182.622 235.022 181.778 234.666 182.134z"/>
<path style="stroke:none; fill:#fbe9a6" d="M 279.2 181.6C 278.411 182.783 278.4 182.562 278.4 184C 279.431 182.846 279.521 183.013 279.2 181.6z"/>
<path style="stroke:none; fill:#f8de9a" d="M 133.6 182.4L 133.6 184.8L 134.4 184.8C 134.199 183.638 134.148 183.398 133.6 182.4z"/>
<path style="stroke:none; fill:#fbe9a6" d="M 217.066 182.934C 217.022 182.978 216.978 183.822 217.334 183.466C 217.378 183.422 217.422 182.578 217.066 182.934z"/>
<path style="stroke:none; fill:#f4c76c" d="M 70.4 183.2L 71.2 186.4L 72 186.4L 72 183.2L 70.4 183.2z"/>
<path style="stroke:none; fill:#f5d273" d="M 217.6 183.2L 217.6 185.6L 218.4 185.6C 218.199 184.438 218.148 184.198 217.6 183.2M 279.2 183.2C 278.411 184.383 278.4 184.162 278.4 185.6C 279.431 184.446 279.521 184.613 279.2 183.2z"/>
<path style="stroke:none; fill:#f8dd85" d="M 116.8 184.8L 116.8 187.2L 117.6 187.2C 117.399 186.038 117.348 185.798 116.8 184.8z"/>
<path style="stroke:none; fill:#fbe9a6" d="M 133.066 186.134C 133.022 186.178 132.978 187.022 133.334 186.666C 133.378 186.622 133.422 185.778 133.066 186.134M 217.6 185.6C 218.147 186.864 218.244 187.022 219.2 188C 218.653 186.736 218.556 186.578 217.6 185.6z"/>
<path style="stroke:none; fill:#fff8da" d="M 233.6 185.6C 232.746 188.295 232.13 190.769 232 193.6L 232.8 193.6C 233.264 190.858 234.53 188.279 233.6 185.6z"/>
<path style="stroke:none; fill:#f8de9a" d="M 277.866 186.134C 277.822 186.178 277.778 187.022 278.134 186.666C 278.178 186.622 278.222 185.778 277.866 186.134z"/>
<path style="stroke:none; fill:#fceebd" d="M 72.8 186.4L 72.8 189.6L 73.6 189.6C 73.4607 188.252 73.3464 187.605 72.8 186.4M 116.8 187.2L 118.4 192L 119.2 192C 118.676 189.97 118.179 188.762 116.8 187.2z"/>
<path style="stroke:none; fill:#f4c76c" d="M 131.2 187.2L 131.2 189.6L 132 189.6L 132.8 187.2L 131.2 187.2z"/>
<path style="stroke:none; fill:#f5d273" d="M 219.2 187.2L 219.2 189.6L 220 189.6C 219.799 188.438 219.748 188.198 219.2 187.2M 232 187.2L 232 189.6L 232.8 189.6C 232.599 188.438 232.548 188.198 232 187.2z"/>
<path style="stroke:none; fill:#fff8da" d="M 276.8 187.2C 276.011 188.383 276 188.162 276 189.6C 277.413 188.817 277.564 188.622 276.8 187.2z"/>
<path style="stroke:none; fill:#f4c76c" d="M 277.866 187.734C 277.822 187.778 277.778 188.622 278.134 188.266C 278.178 188.222 278.222 187.378 277.866 187.734M 118.4 188L 118.4 190.4L 119.2 190.4C 118.999 189.238 118.948 188.998 118.4 188z"/>
<path style="stroke:none; fill:#f8de9a" d="M 173.6 190.4L 176 190.4C 175.386 189.349 175.451 189.414 174.4 188.8C 173.36 189.32 173.6 188.918 173.6 190.4z"/>
<path style="stroke:none; fill:#fbe9a6" d="M 73.6 189.6C 73.7407 191.102 73.9506 192.159 74.4 193.6L 75.2 193.6C 74.8157 192.032 74.4499 190.954 73.6 189.6M 131.2 189.6L 131.2 192L 132 192C 131.799 190.838 131.748 190.598 131.2 189.6z"/>
<path style="stroke:none; fill:#f5c651" d="M 174.4 189.6C 173.611 190.783 173.6 190.562 173.6 192L 176 192C 175.453 190.736 175.356 190.578 174.4 189.6z"/>
<path style="stroke:none; fill:#fceebd" d="M 176 189.6L 176 192L 176.8 192C 176.599 190.838 176.548 190.598 176 189.6M 219.2 189.6L 219.2 192L 220 192C 219.799 190.838 219.748 190.598 219.2 189.6z"/>
<path style="stroke:none; fill:#fbe9a6" d="M 276.266 190.134C 276.222 190.178 276.178 191.022 276.534 190.666C 276.578 190.622 276.622 189.778 276.266 190.134z"/>
<path style="stroke:none; fill:#f5c651" d="M 119.2 190.4L 119.2 193.6L 120 193.6C 119.861 192.252 119.746 191.605 119.2 190.4z"/>
<path style="stroke:none; fill:#f8de9a" d="M 173.066 191.734C 173.022 191.778 172.978 192.622 173.334 192.266C 173.378 192.222 173.422 191.378 173.066 191.734z"/>
<path style="stroke:none; fill:#f8dd85" d="M 220 191.2L 221.6 197.6L 222.4 197.6C 222.223 194.932 221.754 193.232 220 191.2z"/>
<path style="stroke:none; fill:#f5d273" d="M 231.2 191.2C 230.137 193.4 229.723 195.16 229.6 197.6L 230.4 197.6C 230.99 195.358 231.824 193.441 231.2 191.2z"/>
<path style="stroke:none; fill:#f5ebd2" d="M 275.2 191.2L 275.2 193.6L 276 193.6C 275.799 192.438 275.748 192.198 275.2 191.2z"/>
<path style="stroke:none; fill:#f0d285" d="M 276 191.2L 276 193.6L 276.8 193.6C 276.599 192.438 276.548 192.198 276 191.2z"/>
<path style="stroke:none; fill:#f5c651" d="M 129.6 192C 129.085 193.685 128.875 195.036 128.8 196.8L 129.6 196.8C 129.971 195.062 130.484 193.634 131.2 192L 129.6 192z"/>
<path style="stroke:none; fill:#fceebd" d="M 131.2 192C 130.411 193.183 130.4 192.962 130.4 194.4C 131.431 193.246 131.521 193.413 131.2 192z"/>
<path style="stroke:none; fill:#f5d273" d="M 176 192L 176.8 195.2L 177.6 195.2C 177.149 193.798 176.865 193.166 176 192z"/>
<path style="stroke:none; fill:#fff8da" d="M 177.066 192.534C 177.022 192.578 176.978 193.422 177.334 193.066C 177.378 193.022 177.422 192.178 177.066 192.534z"/>
<path style="stroke:none; fill:#f5d273" d="M 74.4 193.6L 74.4 196L 75.2 196C 74.999 194.838 74.9478 194.598 74.4 193.6z"/>
<path style="stroke:none; fill:#f0d285" d="M 120.266 194.134C 120.222 194.178 120.178 195.022 120.534 194.666C 120.578 194.622 120.622 193.778 120.266 194.134z"/>
<path style="stroke:none; fill:#f8de9a" d="M 129.866 194.134C 129.822 194.178 129.778 195.022 130.134 194.666C 130.178 194.622 130.222 193.778 129.866 194.134z"/>
<path style="stroke:none; fill:#f5d273" d="M 275.466 194.134C 275.422 194.178 275.378 195.022 275.734 194.666C 275.778 194.622 275.822 193.778 275.466 194.134M 172.266 194.934C 172.222 194.978 172.178 195.822 172.534 195.466C 172.578 195.422 172.622 194.578 172.266 194.934z"/>
<path style="stroke:none; fill:#fff8da" d="M 177.6 194.4L 178.4 199.2L 179.2 199.2C 179.061 197.11 178.866 196.046 177.6 194.4z"/>
<path style="stroke:none; fill:#fbe9a6" d="M 221.066 194.934C 221.022 194.978 220.978 195.822 221.334 195.466C 221.378 195.422 221.422 194.578 221.066 194.934z"/>
<path style="stroke:none; fill:#fceebd" d="M 273.6 194.4L 272.8 201.6L 273.6 201.6L 275.2 194.4L 273.6 194.4z"/>
<path style="stroke:none; fill:#fbe9a6" d="M 120.266 195.734C 120.222 195.778 120.178 196.622 120.534 196.266C 120.578 196.222 120.622 195.378 120.266 195.734M 171.2 195.2L 171.2 197.6L 172 197.6C 171.799 196.438 171.748 196.198 171.2 195.2z"/>
<path style="stroke:none; fill:#f8dd85" d="M 274.666 195.734C 274.622 195.778 274.578 196.622 274.934 196.266C 274.978 196.222 275.022 195.378 274.666 195.734z"/>
<path style="stroke:none; fill:#f5d273" d="M 75.2 196L 75.2 198.4L 76 198.4C 75.799 197.239 75.7478 196.998 75.2 196z"/>
<path style="stroke:none; fill:#fff8da" d="M 76 196L 76 198.4L 76.8 198.4C 76.599 197.239 76.5478 196.998 76 196z"/>
<path style="stroke:none; fill:#f8dd85" d="M 177.866 196.534C 177.822 196.578 177.778 197.422 178.134 197.066C 178.178 197.022 178.222 196.178 177.866 196.534z"/>
<path style="stroke:none; fill:#f8de9a" d="M 120.8 196.8L 120.8 199.2L 121.6 199.2C 121.399 198.038 121.348 197.798 120.8 196.8z"/>
<path style="stroke:none; fill:#fceebd" d="M 128.8 196.8L 128 200.8L 128.8 200.8C 129.274 199.076 129.419 198.435 128.8 196.8z"/>
<path style="stroke:none; fill:#f5d273" d="M 128.266 198.134C 128.222 198.178 128.178 199.022 128.534 198.666C 128.578 198.622 128.622 197.778 128.266 198.134z"/>
<path style="stroke:none; fill:#f8de9a" d="M 170.666 198.134C 170.622 198.178 170.578 199.022 170.934 198.666C 170.978 198.622 171.022 197.778 170.666 198.134z"/>
<path style="stroke:none; fill:#f4c76c" d="M 177.866 198.134C 177.822 198.178 177.778 199.022 178.134 198.666C 178.178 198.622 178.222 197.778 177.866 198.134z"/>
<path style="stroke:none; fill:#fceebd" d="M 221.866 198.134C 221.822 198.178 221.778 199.022 222.134 198.666C 222.178 198.622 222.222 197.778 221.866 198.134z"/>
<path style="stroke:none; fill:#fbe9a6" d="M 229.866 198.134C 229.822 198.178 229.778 199.022 230.134 198.666C 230.178 198.622 230.222 197.778 229.866 198.134z"/>
<path style="stroke:none; fill:#fceebd" d="M 76.8 198.4L 76.8 201.6L 77.6 201.6C 77.4607 200.252 77.3464 199.605 76.8 198.4z"/>
<path style="stroke:none; fill:#f8dd85" d="M 229.066 198.934C 229.022 198.978 228.978 199.822 229.334 199.466C 229.378 199.422 229.422 198.578 229.066 198.934z"/>
<path style="stroke:none; fill:#fceebd" d="M 120.8 199.2L 121.6 202.4L 122.4 202.4C 121.949 200.998 121.665 200.366 120.8 199.2z"/>
<path style="stroke:none; fill:#f8dd85" d="M 121.866 199.734C 121.822 199.778 121.778 200.622 122.134 200.266C 122.178 200.222 122.222 199.378 121.866 199.734z"/>
<path style="stroke:none; fill:#f4c76c" d="M 127.2 199.2L 127.2 201.6L 128 201.6C 127.799 200.438 127.748 200.198 127.2 199.2z"/>
<path style="stroke:none; fill:#f5d273" d="M 170.4 199.2L 169.6 202.4L 170.4 202.4C 170.772 200.855 170.859 200.647 170.4 199.2z"/>
<path style="stroke:none; fill:#fbe9a6" d="M 179.466 199.734C 179.422 199.778 179.378 200.622 179.734 200.266C 179.778 200.222 179.822 199.378 179.466 199.734z"/>
<path style="stroke:none; fill:#fceebd" d="M 222.666 199.734C 222.622 199.778 222.578 200.622 222.934 200.266C 222.978 200.222 223.022 199.378 222.666 199.734z"/>
<path style="stroke:none; fill:#f4c76c" d="M 223.2 199.2L 223.2 201.6L 224 201.6C 223.799 200.439 223.748 200.198 223.2 199.2M 273.6 199.2L 273.6 201.6L 274.4 201.6C 274.199 200.439 274.148 200.198 273.6 199.2M 228.266 200.534C 228.222 200.578 228.178 201.422 228.534 201.066C 228.578 201.022 228.622 200.178 228.266 200.534z"/>
<path style="stroke:none; fill:#fff8da" d="M 228.8 200L 228 206.4L 228.8 206.4C 229.082 204.129 229.575 202.158 228.8 200z"/>
<path style="stroke:none; fill:#f4c76c" d="M 122.4 200.8L 122.4 203.2L 123.2 203.2C 122.999 202.038 122.948 201.798 122.4 200.8z"/>
<path style="stroke:none; fill:#f5c651" d="M 179.2 200.8C 179.275 202.564 179.485 203.915 180 205.6L 180.8 205.6C 180.426 203.838 180.05 202.375 179.2 200.8z"/>
<path style="stroke:none; fill:#f5d273" d="M 76.8 201.6C 76.9521 203.977 77.467 205.808 78.4 208L 79.2 208C 78.8782 205.581 78.1014 203.662 76.8 201.6z"/>
<path style="stroke:none; fill:#f8de9a" d="M 77.6 201.6L 77.6 204.8L 78.4 204.8C 78.2607 203.452 78.1464 202.805 77.6 201.6z"/>
<path style="stroke:none; fill:#fff8da" d="M 78.4 201.6L 78.4 204.8L 79.2 204.8C 79.0607 203.452 78.9464 202.805 78.4 201.6z"/>
<path style="stroke:none; fill:#fbe9a6" d="M 127.2 201.6L 127.2 204L 128 204C 127.799 202.838 127.748 202.598 127.2 201.6M 180 201.6L 180 204L 180.8 204C 180.599 202.838 180.548 202.598 180 201.6z"/>
<path style="stroke:none; fill:#fff8da" d="M 223.2 201.6L 223.2 205.6L 224 205.6C 223.93 204.029 223.823 203.015 223.2 201.6z"/>
<path style="stroke:none; fill:#fbe9a6" d="M 228.266 202.134C 228.222 202.178 228.178 203.022 228.534 202.666C 228.578 202.622 228.622 201.778 228.266 202.134z"/>
<path style="stroke:none; fill:#fff8da" d="M 271.2 201.6L 269.6 209.6L 270.4 209.6C 271.161 206.891 272.167 204.303 271.2 201.6z"/>
<path style="stroke:none; fill:#f5d273" d="M 272 201.6L 272 205.6L 272.8 205.6C 272.73 204.029 272.623 203.015 272 201.6z"/>
<path style="stroke:none; fill:#fbe9a6" d="M 169.066 202.934C 169.022 202.978 168.978 203.822 169.334 203.466C 169.378 203.422 169.422 202.578 169.066 202.934z"/>
<path style="stroke:none; fill:#f5c651" d="M 169.6 202.4L 169.6 205.6L 170.4 205.6C 170.261 204.252 170.146 203.605 169.6 202.4z"/>
<path style="stroke:none; fill:#fceebd" d="M 122.4 203.2L 122.4 205.6L 123.2 205.6C 122.999 204.438 122.948 204.198 122.4 203.2z"/>
<path style="stroke:none; fill:#fff8da" d="M 168 203.2C 166.858 205.394 166.474 207.129 166.4 209.6L 167.2 209.6C 167.478 207.413 168.582 205.296 168 203.2z"/>
<path style="stroke:none; fill:#f4c76c" d="M 224 203.2C 224.325 204.874 224.174 204.816 225.6 205.6C 225.053 204.336 224.956 204.178 224 203.2z"/>
<path style="stroke:none; fill:#fff8da" d="M 127.2 204C 126.411 205.183 126.4 204.962 126.4 206.4C 127.431 205.246 127.521 205.413 127.2 204z"/>
<path style="stroke:none; fill:#f5d273" d="M 169.066 204.534C 169.022 204.578 168.978 205.422 169.334 205.066C 169.378 205.022 169.422 204.178 169.066 204.534z"/>
<path style="stroke:none; fill:#fbe9a6" d="M 181.066 204.534C 181.022 204.578 180.978 205.422 181.334 205.066C 181.378 205.022 181.422 204.178 181.066 204.534z"/>
<path style="stroke:none; fill:#f8de9a" d="M 271.2 204.8L 271.2 207.2L 272 207.2C 271.799 206.038 271.748 205.798 271.2 204.8z"/>
<path style="stroke:none; fill:#f0d285" d="M 123.2 205.6L 124 208.8L 125.6 208.8L 126.4 205.6L 123.2 205.6z"/>
<path style="stroke:none; fill:#fbe9a6" d="M 167.2 205.6L 167.2 209.6L 168 209.6L 168.8 205.6L 167.2 205.6z"/>
<path style="stroke:none; fill:#f0d285" d="M 224.8 205.6C 225.186 207.491 225.309 207.614 227.2 208L 227.2 207.2L 224.8 205.6z"/>
<path style="stroke:none; fill:#f5d273" d="M 225.6 205.6L 225.6 207.2L 227.2 207.2L 227.2 205.6L 225.6 205.6z"/>
<path style="stroke:none; fill:#fbe9a6" d="M 227.466 206.134C 227.422 206.178 227.378 207.022 227.734 206.666C 227.778 206.622 227.822 205.778 227.466 206.134M 181.6 207.2L 182.4 211.2L 183.2 211.2C 182.891 209.486 182.604 208.601 181.6 207.2z"/>
<path style="stroke:none; fill:#f5d273" d="M 79.2 208L 79.2 210.4L 80 210.4C 79.799 209.239 79.7478 208.998 79.2 208z"/>
<path style="stroke:none; fill:#fceebd" d="M 80 208L 80 210.4L 80.8 210.4C 80.5992 209.238 80.548 208.998 80 208z"/>
<path style="stroke:none; fill:#f5ebd2" d="M 225.6 208L 225.6 209.6L 227.2 209.6L 227.2 208L 225.6 208z"/>
<path style="stroke:none; fill:#ebddc0" d="M 124.534 209.066C 124.178 209.422 125.022 209.378 125.066 209.334C 125.422 208.978 124.578 209.022 124.534 209.066z"/>
<path style="stroke:none; fill:#fceebd" d="M 166.4 209.6L 165.6 213.6L 166.4 213.6C 166.749 211.959 166.898 211.154 166.4 209.6z"/>
<path style="stroke:none; fill:#f4c76c" d="M 167.2 209.6L 167.2 212L 168 212C 167.799 210.838 167.748 210.598 167.2 209.6z"/>
<path style="stroke:none; fill:#fbe9a6" d="M 269.6 209.6L 269.6 212L 270.4 212C 270.199 210.838 270.148 210.598 269.6 209.6M 80.8 210.4L 80.8 213.6L 81.6 213.6C 81.4608 212.252 81.3464 211.605 80.8 210.4z"/>
<path style="stroke:none; fill:#f4c76c" d="M 183.2 211.2C 183.29 214.019 183.568 215.613 185.6 217.6C 184.911 215.418 184.238 213.232 183.2 211.2z"/>
<path style="stroke:none; fill:#fbe9a6" d="M 269.066 212.534C 269.022 212.578 268.978 213.422 269.334 213.066C 269.378 213.022 269.422 212.178 269.066 212.534M 81.6 213.6L 81.6 216.8L 82.4 216.8C 82.2608 215.452 82.1464 214.805 81.6 213.6z"/>
<path style="stroke:none; fill:#f0d285" d="M 184.266 214.134C 184.222 214.178 184.178 215.022 184.534 214.666C 184.578 214.622 184.622 213.778 184.266 214.134z"/>
<path style="stroke:none; fill:#f5d273" d="M 268 213.6L 268 217.6L 268.8 217.6C 268.73 216.029 268.623 215.015 268 213.6z"/>
<path style="stroke:none; fill:#f0d285" d="M 165.066 215.734C 165.022 215.778 164.978 216.622 165.334 216.266C 165.378 216.222 165.422 215.378 165.066 215.734z"/>
<path style="stroke:none; fill:#f5ebd2" d="M 267.2 215.2L 267.2 217.6L 268 217.6C 267.799 216.438 267.748 216.198 267.2 215.2z"/>
<path style="stroke:none; fill:#fceebd" d="M 164 216L 163.2 219.2L 164 219.2C 164.247 217.794 164.325 217.327 164 216z"/>
<path style="stroke:none; fill:#f5c651" d="M 82.4 216.8L 82.4 223.2L 83.2 223.2C 83.1944 220.931 83.2784 218.89 82.4 216.8z"/>
<path style="stroke:none; fill:#fceebd" d="M 185.6 216.8C 185.928 219.019 186.519 221.062 187.2 223.2L 188 223.2C 187.462 220.881 186.868 218.816 185.6 216.8z"/>
<path style="stroke:none; fill:#f5d273" d="M 164.266 218.134C 164.222 218.178 164.178 219.022 164.534 218.666C 164.578 218.622 164.622 217.778 164.266 218.134z"/>
<path style="stroke:none; fill:#f0d285" d="M 267.466 218.134C 267.422 218.178 267.378 219.022 267.734 218.666C 267.778 218.622 267.822 217.778 267.466 218.134z"/>
<path style="stroke:none; fill:#f8de9a" d="M 83.4664 219.734C 83.4224 219.778 83.3776 220.622 83.7336 220.266C 83.7776 220.222 83.8224 219.378 83.4664 219.734z"/>
<path style="stroke:none; fill:#f8dd85" d="M 163.2 219.2L 163.2 221.6L 164 221.6C 163.799 220.438 163.748 220.198 163.2 219.2z"/>
<path style="stroke:none; fill:#f0d285" d="M 185.6 219.2L 185.6 221.6L 186.4 221.6C 186.199 220.438 186.148 220.198 185.6 219.2z"/>
<path style="stroke:none; fill:#f8dd85" d="M 266.4 219.2L 266.4 221.6L 267.2 221.6C 266.999 220.438 266.948 220.198 266.4 219.2z"/>
<path style="stroke:none; fill:#fff8da" d="M 84 220C 84.1408 221.502 84.3504 222.559 84.8 224L 85.6 224C 85.216 222.432 84.8496 221.354 84 220z"/>
<path style="stroke:none; fill:#f4c76c" d="M 83.2 220.8L 83.2 223.2L 84 223.2C 83.7992 222.038 83.748 221.798 83.2 220.8z"/>
<path style="stroke:none; fill:#fceebd" d="M 265.6 220.8L 264.8 224.8L 265.6 224.8C 265.841 223.255 265.974 222.277 265.6 220.8z"/>
<path style="stroke:none; fill:#f0d285" d="M 162.4 221.6L 162.4 224L 163.2 224C 162.999 222.838 162.948 222.598 162.4 221.6z"/>
<path style="stroke:none; fill:#f5d273" d="M 186.666 222.134C 186.622 222.178 186.578 223.022 186.934 222.666C 186.978 222.622 187.022 221.778 186.666 222.134z"/>
<path style="stroke:none; fill:#f0d285" d="M 265.6 222.4L 265.6 224.8L 266.4 224.8C 266.199 223.638 266.148 223.398 265.6 222.4z"/>
<path style="stroke:none; fill:#f4c76c" d="M 187.2 223.2L 187.2 227.2L 188 227.2C 187.93 225.629 187.823 224.615 187.2 223.2z"/>
<path style="stroke:none; fill:#fbe9a6" d="M 85.0664 224.534C 85.0224 224.578 84.9776 225.422 85.3336 225.066C 85.3776 225.022 85.4224 224.178 85.0664 224.534z"/>
<path style="stroke:none; fill:#f5d273" d="M 161.866 224.534C 161.822 224.578 161.778 225.422 162.134 225.066C 162.178 225.022 162.222 224.178 161.866 224.534z"/>
<path style="stroke:none; fill:#fbe9a6" d="M 188 224.8L 188 227.2L 188.8 227.2C 188.599 226.038 188.548 225.798 188 224.8z"/>
<path style="stroke:none; fill:#f5d273" d="M 265.066 225.334C 265.022 225.378 264.978 226.222 265.334 225.866C 265.378 225.822 265.422 224.978 265.066 225.334z"/>
<path style="stroke:none; fill:#f5c651" d="M 84.8 225.6L 84.8 229.6L 85.6 229.6C 85.5296 228.029 85.4232 227.015 84.8 225.6z"/>
<path style="stroke:none; fill:#f8de9a" d="M 85.6 225.6L 85.6 229.6L 86.4 229.6C 86.3296 228.029 86.2232 227.015 85.6 225.6z"/>
<path style="stroke:none; fill:#fbe9a6" d="M 160.8 225.6L 160.8 228L 161.6 228C 161.399 226.838 161.348 226.598 160.8 225.6M 264.266 226.134C 264.222 226.178 264.178 227.022 264.534 226.666C 264.578 226.622 264.622 225.778 264.266 226.134z"/>
<path style="stroke:none; fill:#fceebd" d="M 160 226.4L 159.2 230.4L 160 230.4C 160.349 228.759 160.498 227.954 160 226.4z"/>
<path style="stroke:none; fill:#f8dd85" d="M 189.066 227.734C 189.022 227.778 188.978 228.622 189.334 228.266C 189.378 228.222 189.422 227.378 189.066 227.734z"/>
<path style="stroke:none; fill:#f5ebd2" d="M 263.2 227.2L 263.2 229.6L 264 229.6C 263.799 228.438 263.748 228.198 263.2 227.2z"/>
<path style="stroke:none; fill:#f5d273" d="M 264 227.2L 264 229.6L 264.8 229.6C 264.599 228.439 264.548 228.198 264 227.2z"/>
<path style="stroke:none; fill:#f8dd85" d="M 160.266 229.334C 160.222 229.378 160.178 230.222 160.534 229.866C 160.578 229.822 160.622 228.978 160.266 229.334z"/>
<path style="stroke:none; fill:#f4c76c" d="M 86.4 229.6C 86.4112 232.66 86.192 234.919 88.8 236.8C 88.0488 234.398 87.4456 231.87 86.4 229.6z"/>
<path style="stroke:none; fill:#fbe9a6" d="M 189.6 229.6L 189.6 232L 190.4 232C 190.199 230.838 190.148 230.598 189.6 229.6z"/>
<path style="stroke:none; fill:#fff8da" d="M 262.4 229.6L 261.6 233.6L 262.4 233.6C 262.749 231.959 262.898 231.154 262.4 229.6z"/>
<path style="stroke:none; fill:#f0d285" d="M 263.466 230.134C 263.422 230.178 263.378 231.022 263.734 230.666C 263.778 230.622 263.822 229.778 263.466 230.134z"/>
<path style="stroke:none; fill:#f8de9a" d="M 159.466 230.934C 159.422 230.978 159.378 231.822 159.734 231.466C 159.778 231.422 159.822 230.578 159.466 230.934z"/>
<path style="stroke:none; fill:#fceebd" d="M 190.4 230.4L 190.4 232.8L 191.2 232.8C 190.999 231.638 190.948 231.398 190.4 230.4z"/>
<path style="stroke:none; fill:#fbe9a6" d="M 87.2 232L 87.2 234.4L 88 234.4C 87.7992 233.238 87.748 232.998 87.2 232z"/>
<path style="stroke:none; fill:#f5c651" d="M 159.2 232L 157.6 237.6C 159.442 235.799 160.135 234.482 159.2 232z"/>
<path style="stroke:none; fill:#f8dd85" d="M 189.6 232C 190.603 235.207 191.168 238.43 193.6 240.8C 192.597 237.593 192.032 234.37 189.6 232z"/>
<path style="stroke:none; fill:#f5d273" d="M 262.666 232.534C 262.622 232.578 262.578 233.422 262.934 233.066C 262.978 233.022 263.022 232.178 262.666 232.534z"/>
<path style="stroke:none; fill:#fbe9a6" d="M 158.4 232.8L 157.6 236L 158.4 236C 158.772 234.455 158.859 234.247 158.4 232.8M 261.6 233.6L 261.6 236L 262.4 236C 262.199 234.839 262.148 234.598 261.6 233.6z"/>
<path style="stroke:none; fill:#fff8da" d="M 88.8 236L 89.6 240L 90.4 240C 90.0912 238.286 89.804 237.4 88.8 236M 157.066 236.534C 157.022 236.578 156.978 237.422 157.334 237.066C 157.378 237.022 157.422 236.178 157.066 236.534z"/>
<path style="stroke:none; fill:#f8de9a" d="M 192 236L 192 238.4L 192.8 238.4C 192.599 237.238 192.548 236.998 192 236z"/>
<path style="stroke:none; fill:#fbe9a6" d="M 261.066 236.534C 261.022 236.578 260.978 237.422 261.334 237.066C 261.378 237.022 261.422 236.178 261.066 236.534z"/>
<path style="stroke:none; fill:#f8dd85" d="M 156.8 237.6L 156.8 240L 157.6 240C 157.399 238.838 157.348 238.598 156.8 237.6z"/>
<path style="stroke:none; fill:#f0d285" d="M 89.0664 238.934C 89.0224 238.978 88.9776 239.822 89.3336 239.466C 89.3776 239.422 89.4224 238.578 89.0664 238.934z"/>
<path style="stroke:none; fill:#f5d273" d="M 260 238.4L 260 241.6L 260.8 241.6C 260.661 240.252 260.546 239.605 260 238.4z"/>
<path style="stroke:none; fill:#fceebd" d="M 193.6 239.2L 195.2 246.4L 196 246.4C 195.612 243.771 195.018 241.455 193.6 239.2z"/>
<path style="stroke:none; fill:#ebdaa9" d="M 89.8664 240.534C 89.8224 240.578 89.7776 241.422 90.1336 241.066C 90.1776 241.022 90.2224 240.178 89.8664 240.534z"/>
<path style="stroke:none; fill:#fceebd" d="M 156 240C 155.211 241.183 155.2 240.962 155.2 242.4C 156.231 241.246 156.321 241.413 156 240z"/>
<path style="stroke:none; fill:#f4c76c" d="M 156.8 240C 155.978 241.918 155.458 243.533 155.2 245.6L 156 245.6C 156.621 243.588 157.304 242.029 156.8 240z"/>
<path style="stroke:none; fill:#f8de9a" d="M 90.6664 242.134C 90.6224 242.178 90.5776 243.022 90.9336 242.666C 90.9776 242.622 91.0224 241.778 90.6664 242.134z"/>
<path style="stroke:none; fill:#f8dd85" d="M 193.6 241.6C 193.734 243.522 193.758 244.368 195.2 245.6C 194.816 244.032 194.45 242.954 193.6 241.6M 259.466 242.134C 259.422 242.178 259.378 243.022 259.734 242.666C 259.778 242.622 259.822 241.778 259.466 242.134z"/>
<path style="stroke:none; fill:#f5c651" d="M 90.4 243.2C 90.4416 245.222 90.6224 246.866 91.2 248.8L 92 248.8C 91.6152 246.828 91.2704 245.001 90.4 243.2z"/>
<path style="stroke:none; fill:#fceebd" d="M 154.4 243.2L 154.4 245.6L 155.2 245.6C 154.999 244.438 154.948 244.198 154.4 243.2z"/>
<path style="stroke:none; fill:#fbe9a6" d="M 258.666 243.734C 258.622 243.778 258.578 244.622 258.934 244.266C 258.978 244.222 259.022 243.378 258.666 243.734z"/>
<path style="stroke:none; fill:#f8de9a" d="M 91.4664 244.534C 91.4224 244.578 91.3776 245.422 91.7336 245.066C 91.7776 245.022 91.8224 244.178 91.4664 244.534z"/>
<path style="stroke:none; fill:#f4c76c" d="M 91.4664 246.134C 91.4224 246.178 91.3776 247.022 91.7336 246.666C 91.7776 246.622 91.8224 245.778 91.4664 246.134z"/>
<path style="stroke:none; fill:#f8dd85" d="M 154.4 245.6C 153.611 246.783 153.6 246.562 153.6 248C 154.631 246.846 154.721 247.013 154.4 245.6z"/>
<path style="stroke:none; fill:#f8de9a" d="M 257.6 245.6L 257.6 248L 258.4 248C 258.199 246.838 258.148 246.598 257.6 245.6z"/>
<path style="stroke:none; fill:#fceebd" d="M 256.8 246.4L 256.8 248.8L 257.6 248.8C 257.399 247.638 257.348 247.398 256.8 246.4z"/>
<path style="stroke:none; fill:#f8dd85" d="M 92.2664 247.734C 92.2224 247.778 92.1776 248.622 92.5336 248.266C 92.5776 248.222 92.6224 247.378 92.2664 247.734z"/>
<path style="stroke:none; fill:#fceebd" d="M 152.8 247.2L 151.2 253.6L 152 253.6C 152.711 251.346 153.475 249.481 152.8 247.2z"/>
<path style="stroke:none; fill:#f0d285" d="M 196.266 248.534C 196.222 248.578 196.178 249.422 196.534 249.066C 196.578 249.022 196.622 248.178 196.266 248.534z"/>
<path style="stroke:none; fill:#fceebd" d="M 196.8 248.8L 196.8 251.2L 197.6 251.2C 197.399 250.038 197.348 249.798 196.8 248.8z"/>
<path style="stroke:none; fill:#fbe9a6" d="M 256.8 248.8C 256.011 249.982 256 249.762 256 251.2C 257.031 250.046 257.121 250.213 256.8 248.8z"/>
<path style="stroke:none; fill:#f8de9a" d="M 92.8 249.6L 93.6 253.6L 94.4 253.6C 94.0912 251.886 93.804 251 92.8 249.6z"/>
<path style="stroke:none; fill:#fceebd" d="M 93.8664 250.134C 93.8224 250.178 93.7776 251.022 94.1336 250.666C 94.1776 250.622 94.2224 249.778 93.8664 250.134z"/>
<path style="stroke:none; fill:#f0d285" d="M 153.066 250.134C 153.022 250.178 152.978 251.022 153.334 250.666C 153.378 250.622 153.422 249.778 153.066 250.134z"/>
<path style="stroke:none; fill:#fceebd" d="M 197.6 251.2L 197.6 253.6L 198.4 253.6C 198.199 252.438 198.148 252.198 197.6 251.2z"/>
<path style="stroke:none; fill:#f5d273" d="M 256 251.2L 256 253.6L 256.8 253.6C 256.599 252.438 256.548 252.198 256 251.2M 152.266 252.534C 152.222 252.578 152.178 253.422 152.534 253.066C 152.578 253.022 152.622 252.178 152.266 252.534z"/>
<path style="stroke:none; fill:#f8dd85" d="M 94.6664 254.134C 94.6224 254.178 94.5776 255.022 94.9336 254.666C 94.9776 254.622 95.0224 253.778 94.6664 254.134M 151.466 254.134C 151.422 254.178 151.378 255.022 151.734 254.666C 151.778 254.622 151.822 253.778 151.466 254.134z"/>
<path style="stroke:none; fill:#f8de9a" d="M 197.6 253.6L 199.2 258.4L 200 258.4C 199.663 256.126 199.249 255.19 197.6 253.6z"/>
<path style="stroke:none; fill:#f0d285" d="M 255.2 253.6L 255.2 256L 256 256C 255.799 254.838 255.748 254.598 255.2 253.6z"/>
<path style="stroke:none; fill:#fceebd" d="M 150.666 254.934C 150.622 254.978 150.578 255.822 150.934 255.466C 150.978 255.422 151.022 254.578 150.666 254.934z"/>
<path style="stroke:none; fill:#fff8da" d="M 254.4 254.4L 253.6 257.6L 254.4 257.6C 254.647 256.194 254.725 255.727 254.4 254.4z"/>
<path style="stroke:none; fill:#fceebd" d="M 95.2 255.2L 95.2 257.6L 96 257.6C 95.7992 256.438 95.748 256.198 95.2 255.2z"/>
<path style="stroke:none; fill:#f5d273" d="M 197.6 255.2C 198.147 256.464 198.244 256.622 199.2 257.6C 198.653 256.336 198.556 256.178 197.6 255.2z"/>
<path style="stroke:none; fill:#f8de9a" d="M 150.666 256.534C 150.622 256.578 150.578 257.422 150.934 257.066C 150.978 257.022 151.022 256.178 150.666 256.534z"/>
<path style="stroke:none; fill:#f5d273" d="M 254.666 256.534C 254.622 256.578 254.578 257.422 254.934 257.066C 254.978 257.022 255.022 256.178 254.666 256.534z"/>
<path style="stroke:none; fill:#f8dd85" d="M 95.2 257.6L 96 260.8L 96.8 260.8C 96.3488 259.398 96.0648 258.766 95.2 257.6z"/>
<path style="stroke:none; fill:#fceebd" d="M 149.6 257.6C 148.698 260.271 147.679 262.818 147.2 265.6L 148 265.6C 148.895 262.948 150.363 260.35 149.6 257.6z"/>
<path style="stroke:none; fill:#fbe9a6" d="M 253.866 258.134C 253.822 258.178 253.778 259.022 254.134 258.666C 254.178 258.622 254.222 257.778 253.866 258.134z"/>
<path style="stroke:none; fill:#fff8da" d="M 252.8 258.4L 252 262.4L 252.8 262.4C 253.149 260.759 253.298 259.954 252.8 258.4z"/>
<path style="stroke:none; fill:#f8de9a" d="M 200 259.2L 200 261.6L 200.8 261.6C 200.599 260.438 200.548 260.198 200 259.2z"/>
<path style="stroke:none; fill:#f5d273" d="M 253.866 259.734C 253.822 259.778 253.778 260.622 254.134 260.266C 254.178 260.222 254.222 259.378 253.866 259.734z"/>
<path style="stroke:none; fill:#fceebd" d="M 96.8 260L 96.8 262.4L 97.6 262.4C 97.3992 261.238 97.348 260.998 96.8 260z"/>
<path style="stroke:none; fill:#fff8da" d="M 200.8 260L 201.6 263.2L 202.4 263.2C 201.949 261.798 201.665 261.166 200.8 260z"/>
<path style="stroke:none; fill:#f8dd85" d="M 253.066 261.334C 253.022 261.378 252.978 262.222 253.334 261.866C 253.378 261.822 253.422 260.978 253.066 261.334z"/>
<path style="stroke:none; fill:#f5c651" d="M 28 261.6L 28 268L 28.8 268C 28.7942 265.731 28.8782 263.69 28 261.6z"/>
<path style="stroke:none; fill:#f5d273" d="M 148.8 261.6L 148.8 264L 149.6 264C 149.399 262.838 149.348 262.598 148.8 261.6z"/>
<path style="stroke:none; fill:#f5c651" d="M 200 261.6C 200.547 262.864 200.644 263.022 201.6 264C 201.053 262.736 200.956 262.578 200 261.6M 96.8 262.4L 96.8 265.6L 97.6 265.6C 97.4608 264.252 97.3464 263.605 96.8 262.4z"/>
<path style="stroke:none; fill:#f5d273" d="M 252 262.4L 251.2 267.2L 252 267.2C 252.55 265.265 252.738 264.258 252 262.4z"/>
<path style="stroke:none; fill:#fbe9a6" d="M 97.6 263.2L 97.6 265.6L 98.4 265.6C 98.1992 264.438 98.148 264.198 97.6 263.2M 201.866 263.734C 201.822 263.778 201.778 264.622 202.134 264.266C 202.178 264.222 202.222 263.378 201.866 263.734z"/>
<path style="stroke:none; fill:#f5d273" d="M 201.6 264.8L 201.6 267.2L 202.4 267.2C 202.199 266.038 202.148 265.798 201.6 264.8z"/>
<path style="stroke:none; fill:#f5ebd2" d="M 202.4 264.8L 202.4 267.2L 203.2 267.2C 202.999 266.038 202.948 265.798 202.4 264.8z"/>
<path style="stroke:none; fill:#f8de9a" d="M 98.6664 266.134C 98.6224 266.178 98.5776 267.022 98.9336 266.666C 98.9776 266.622 99.0224 265.778 98.6664 266.134z"/>
<path style="stroke:none; fill:#f5c651" d="M 147.2 265.6L 145.6 274.4L 146.4 274.4C 147.026 271.348 148.417 268.613 147.2 265.6z"/>
<path style="stroke:none; fill:#fceebd" d="M 146.666 266.934C 146.622 266.978 146.578 267.822 146.934 267.466C 146.978 267.422 147.022 266.578 146.666 266.934z"/>
<path style="stroke:none; fill:#fff8da" d="M 249.6 266.4L 249.6 268.8L 250.4 268.8L 251.2 266.4L 249.6 266.4z"/>
<path style="stroke:none; fill:#f5c651" d="M 98.4 267.2L 98.4 272L 99.2 272C 99.1624 270.198 99.0992 268.842 98.4 267.2M 202.4 267.2C 202.609 269.758 203.099 271.998 204 274.4L 204.8 274.4C 204.27 271.842 203.766 269.434 202.4 267.2z"/>
<path style="stroke:none; fill:#fbe9a6" d="M 203.2 267.2L 203.2 269.6L 204 269.6C 203.799 268.438 203.748 268.198 203.2 267.2M 250.4 267.2L 249.6 270.4L 250.4 270.4C 250.772 268.855 250.859 268.647 250.4 267.2M 99.4664 268.534C 99.4224 268.578 99.3776 269.422 99.7336 269.066C 99.7776 269.022 99.8224 268.178 99.4664 268.534z"/>
<path style="stroke:none; fill:#fff8da" d="M 145.6 268C 145.085 269.685 144.875 271.036 144.8 272.8L 145.6 272.8C 145.91 270.986 146.141 269.731 145.6 268z"/>
<path style="stroke:none; fill:#f0d285" d="M 146.666 268.534C 146.622 268.578 146.578 269.422 146.934 269.066C 146.978 269.022 147.022 268.178 146.666 268.534z"/>
<path style="stroke:none; fill:#f4c76c" d="M 99.2 269.6L 99.2 272L 100 272C 99.7992 270.838 99.748 270.598 99.2 269.6z"/>
<path style="stroke:none; fill:#fceebd" d="M 100 269.6L 100.8 273.6L 101.6 273.6C 101.291 271.886 101.004 271 100 269.6M 204 270.4C 204.341 272.375 204.906 274.116 205.6 276L 206.4 276C 206.09 273.624 205.57 272.21 204 270.4M 248.8 270.4L 248.8 272.8L 249.6 272.8C 249.399 271.639 249.348 271.398 248.8 270.4z"/>
<path style="stroke:none; fill:#f0d285" d="M 249.866 270.934C 249.822 270.978 249.778 271.822 250.134 271.466C 250.178 271.422 250.222 270.578 249.866 270.934z"/>
<path style="stroke:none; fill:#f5d273" d="M 100.266 272.534C 100.222 272.578 100.178 273.422 100.534 273.066C 100.578 273.022 100.622 272.178 100.266 272.534z"/>
<path style="stroke:none; fill:#fbe9a6" d="M 144 272.8L 143.2 276.8L 144 276.8C 144.474 275.076 144.619 274.435 144 272.8z"/>
<path style="stroke:none; fill:#f0d285" d="M 145.066 273.334C 145.022 273.378 144.978 274.222 145.334 273.866C 145.378 273.822 145.422 272.978 145.066 273.334z"/>
<path style="stroke:none; fill:#fbe9a6" d="M 248.8 272.8C 248.011 273.983 248 273.762 248 275.2C 249.031 274.046 249.121 274.213 248.8 272.8z"/>
<path style="stroke:none; fill:#f8dd85" d="M 101.066 274.134C 101.022 274.178 100.978 275.022 101.334 274.666C 101.378 274.622 101.422 273.778 101.066 274.134z"/>
<path style="stroke:none; fill:#fceebd" d="M 101.866 274.934C 101.822 274.978 101.778 275.822 102.134 275.466C 102.178 275.422 102.222 274.578 101.866 274.934z"/>
<path style="stroke:none; fill:#f5d273" d="M 100.8 275.2L 100.8 277.6L 101.6 277.6C 101.399 276.438 101.348 276.198 100.8 275.2M 248 275.2L 248 278.4L 248.8 278.4C 248.661 277.052 248.546 276.405 248 275.2z"/>
<path style="stroke:none; fill:#f8de9a" d="M 101.6 276L 102.4 279.2L 103.2 279.2C 102.749 277.798 102.465 277.166 101.6 276z"/>
<path style="stroke:none; fill:#f5c651" d="M 144 276C 142.406 281.497 137.649 280.8 132.8 280.8L 103.2 280.8L 103.2 281.6L 136 281.6C 139.875 281.598 146.086 281.557 144 276z"/>
<path style="stroke:none; fill:#f8dd85" d="M 205.866 276.534C 205.822 276.578 205.778 277.422 206.134 277.066C 206.178 277.022 206.222 276.178 205.866 276.534z"/>
<path style="stroke:none; fill:#fff8da" d="M 247.2 276C 246.424 277.28 245.824 278.13 244.8 279.2L 244.8 280C 246.999 279.234 247.841 278.326 247.2 276z"/>
<path style="stroke:none; fill:#f8dd85" d="M 143.2 276.8L 143.2 279.2L 144 279.2C 143.799 278.038 143.748 277.798 143.2 276.8z"/>
<path style="stroke:none; fill:#fceebd" d="M 206.4 276.8L 206.4 279.2L 207.2 279.2C 206.999 278.038 206.948 277.798 206.4 276.8z"/>
<path style="stroke:none; fill:#f4c76c" d="M 205.6 277.6L 206.4 280.8L 207.2 280.8C 206.749 279.398 206.465 278.766 205.6 277.6z"/>
<path style="stroke:none; fill:#f8dd85" d="M 247.466 278.934C 247.422 278.978 247.378 279.822 247.734 279.466C 247.778 279.422 247.822 278.578 247.466 278.934z"/>
<path style="stroke:none; fill:#fff8da" d="M 207.2 279.2L 207.2 280L 240.8 280C 232.01 276.311 216.766 279.2 207.2 279.2z"/>
<path style="stroke:none; fill:#f8dd85" d="M 103.2 280L 103.2 280.8L 142.4 280.8C 132.278 276.553 114.23 280 103.2 280M 207.2 280L 207.2 280.8L 245.6 280.8C 235.669 276.633 218.021 280 207.2 280z"/>
<path style="stroke:none; fill:#f5c651" d="M 207.2 280.8L 207.2 281.6C 219.478 281.6 235.434 284.278 247.2 280.8C 235.512 277.993 219.387 280.8 207.2 280.8z"/>
<path style="stroke:none; fill:#ebddc0" d="M 28 299.2L 28 302.4L 28.8 302.4C 28.6607 301.052 28.5464 300.405 28 299.2M 29.0666 302.934C 29.0222 302.978 28.9778 303.822 29.3334 303.466C 29.3778 303.422 29.4222 302.578 29.0666 302.934z"/>
<path style="stroke:none; fill:#f4c76c" d="M 29.6 303.2C 29.8454 304.898 29.9057 305.349 31.2 306.4C 30.723 305.152 30.3291 304.302 29.6 303.2z"/>
<path style="stroke:none; fill:#f0d285" d="M 320 303.2L 320 305.6L 320.8 305.6C 320.599 304.438 320.548 304.198 320 303.2M 319.2 305.6C 318.411 306.783 318.4 306.562 318.4 308C 319.431 306.846 319.521 307.013 319.2 305.6M 30.6666 306.934C 30.6222 306.978 30.5778 307.822 30.9334 307.466C 30.9778 307.422 31.0222 306.578 30.6666 306.934M 31.2 308C 31.7469 309.264 31.8438 309.422 32.8 310.4C 32.2531 309.136 32.1562 308.978 31.2 308z"/>
<path style="stroke:none; fill:#ebdaa9" d="M 318.4 308C 317.611 309.183 317.6 308.962 317.6 310.4C 318.631 309.246 318.721 309.413 318.4 308z"/>
<path style="stroke:none; fill:#ebddc0" d="M 32 310.4C 32.7486 311.959 33.1139 312.44 34.4 313.6C 33.6514 312.041 33.2861 311.56 32 310.4z"/>
<path style="stroke:none; fill:#f0d285" d="M 316 311.2C 315.211 312.382 315.2 312.162 315.2 313.6C 316.231 312.446 316.321 312.613 316 311.2z"/>
<path style="stroke:none; fill:#f5d273" d="M 313.6 314.4L 314.4 315.2L 313.6 314.4z"/>
<path style="stroke:none; fill:#ebdaa9" d="M 311.2 318.4C 312.602 317.336 313.336 316.602 314.4 315.2C 312.601 316.123 312.123 316.601 311.2 318.4z"/>
<path style="stroke:none; fill:#f4c76c" d="M 38.9334 317.866C 38.5778 318.222 39.4222 318.178 39.4666 318.134C 39.8222 317.778 38.9778 317.822 38.9334 317.866z"/>
<path style="stroke:none; fill:#f0d285" d="M 310.134 317.866C 309.778 318.222 310.622 318.178 310.666 318.134C 311.022 317.778 310.178 317.822 310.134 317.866z"/>
<path style="stroke:none; fill:#ebdaa9" d="M 306.4 320.8C 307.664 320.253 307.822 320.156 308.8 319.2C 307.536 319.747 307.378 319.844 306.4 320.8M 42.4 320C 43.3782 320.956 43.536 321.053 44.8 321.6C 43.8218 320.644 43.664 320.547 42.4 320z"/>
<path style="stroke:none; fill:#f0d285" d="M 302.4 321.6L 302.4 322.4L 306.4 321.6C 304.846 321.102 304.041 321.251 302.4 321.6z"/>
<path style="stroke:none; fill:#f5d273" d="M 46.1334 321.866C 45.7778 322.222 46.6222 322.178 46.6666 322.134C 47.0222 321.778 46.1778 321.822 46.1334 321.866z"/>
<path style="stroke:none; fill:#ebdaa9" d="M 47.7334 322.666C 47.3778 323.022 48.2222 322.978 48.2666 322.934C 48.6222 322.578 47.7778 322.622 47.7334 322.666z"/>
<path style="stroke:none; fill:#f5d273" d="M 49.3334 322.666C 48.9778 323.022 49.8222 322.978 49.8666 322.934C 50.2222 322.578 49.3778 322.622 49.3334 322.666z"/>
<path style="stroke:none; fill:#f4c76c" d="M 299.2 322.4L 299.2 323.2L 301.6 323.2C 300.602 322.652 300.362 322.601 299.2 322.4z"/>
<path style="stroke:none; fill:#ebdaa9" d="M 50.4 323.2L 50.4 324C 59.9807 325.778 70.2785 324.8 80 324.8L 132.8 324.8L 297.6 324.8L 297.6 324L 136 324C 107.931 324 78.2348 326.718 50.4 323.2z"/>
<path style="stroke:none; fill:#f5d273" d="M 52.8 323.2L 52.8 324L 55.2 324C 54.2013 323.452 53.9613 323.401 52.8 323.2z"/>
<path style="stroke:none; fill:#f5c651" d="M 55.2 323.2L 55.2 324L 294.4 324C 288.481 321.516 279.206 323.2 272.8 323.2L 224 323.2L 55.2 323.2z"/>
<path style="stroke:none; fill:#f5d273" d="M 294.4 323.2L 294.4 324L 297.6 324C 296.395 323.454 295.748 323.339 294.4 323.2z"/>
<path style="stroke:none; fill:#0f0f0f" d="M 0 381.6L 0 382.4L 356.8 382.4C 348.587 378.954 334.526 381.6 325.6 381.6L 252.8 381.6L 0 381.6z"/>
</g>
</svg>