<?xml version="1.0" encoding="utf-8"?>
<!-- Generator: Adobe Illustrator 26.3.1, SVG Export Plug-In . SVG Version: 6.00 Build 0)  -->
<svg version="1.1" id="Layer_1" xmlns="http://www.w3.org/2000/svg" xmlns:xlink="http://www.w3.org/1999/xlink" x="0px" y="0px"
	 viewBox="0 0 595.3 595.3" style="enable-background:new 0 0 595.3 595.3;" xml:space="preserve">
<style type="text/css">
	.st0{fill:#FFFFFF;}
	.st1{fill:url(#SVGID_1_);}
	.st2{fill:url(#SVGID_00000116916830467618720020000012686850496832606646_);}
	.st3{fill:url(#SVGID_00000039839979121023638260000013625899356303714706_);}
	.st4{fill:url(#SVGID_00000031886800370987799970000017267729561119335316_);}
	.st5{fill:url(#SVGID_00000058579617539418778160000015249353254645489801_);}
	.st6{fill:url(#SVGID_00000082351273294540824510000015378449643074395783_);}
</style>
<path class="st0" d="M297.6,595.3L297.6,595.3C133.3,595.3,0,462,0,297.6v0C0,133.3,133.3,0,297.6,0h0
	C462,0,595.3,133.3,595.3,297.6v0C595.3,462,462,595.3,297.6,595.3z"/>
<linearGradient id="SVGID_1_" gradientUnits="userSpaceOnUse" x1="346.4737" y1="302.9411" x2="559.6378" y2="302.9411">
	<stop  offset="0.4" style="stop-color:#662483"/>
	<stop  offset="1" style="stop-color:#E50739"/>
</linearGradient>
<path class="st1" d="M494.8,313.9c0,1.7,0.7,4.5-1.9,4.6c-3.1,0.1-2.2-3-2.2-4.9c-0.2-4,0-8-0.1-12c-0.1-7.6-3.1-11.7-8.5-11.6
	c-5.4,0.1-8.2,4.1-8.3,11.9c0,4.4,0,8.8-0.1,13.3c0,1.5-0.1,3.3-2,3.3c-2,0-2-1.9-2-3.3c-0.1-4.6,0-9.3-0.1-13.9
	c-0.1-7.3-3-11.1-8.3-11.2c-5.5-0.1-8.5,3.8-8.6,11.5c-0.1,4.6,0,9.3-0.1,13.9c0,1.4-0.1,3.2-2.2,3c-1.6-0.2-1.7-1.7-1.8-2.9
	c0-3.2,0-6.3,0-9.5c0,0,0,0,0,0c0-2.1-0.1-4.2,0-6.3c0.4-12.2,9.9-17.4,20.4-11c2.2,1.4,3.5,1.1,5.5-0.2c10.1-6.1,19.7-1,20.3,10.9
	C495,304.2,494.9,309.1,494.8,313.9z M535.6,298.1c1.3,4.2,0.5,6.5-4.5,6.2c-3.3-0.2-6.7,0-10.1,0c0,0,0,0,0,0c-3.6,0-7.1,0-10.7,0
	c-3.9,0-4,2-2.6,4.9c3.6,7.3,13,8.9,20,3.6c1.5-1.1,2.9-4.3,5-1.7c1.7,2.1-1,3.7-2.5,5c-5.6,5-14.1,5.5-20.5,1.3
	c-6.1-4-9-11.7-7.1-18.8c2-7.4,8.7-12.5,16.3-12.6C526.5,285.8,533.4,290.9,535.6,298.1z M529.3,294.9c-5.1-6.6-15.1-6.7-20.3-0.1
	c-0.9,1.2-2.2,2.4-1.7,3.9c0.6,1.7,2.4,1.4,3.8,1.5c2.7,0.1,5.5,0,8.2,0c2.5,0,5,0,7.6,0c1.4,0,3.3,0.3,3.9-1.3
	C531.4,297.3,530.2,296,529.3,294.9z M440.1,290.5c0.1,4.4,0,8.8,0,13.3c0,0,0,0,0,0c0,4.2,0.1,8.4,0,12.6c0,1.5-1.3,3.9-2.2,2.8
	c-3.9-5-7-0.3-10.2,0.5c-7.4,1.9-15.2-1-19.3-7.4c-3.9-6.3-3.4-14.3,1.3-20.1c4.9-5.9,12.8-7.8,20-4.9c2.4,1,4.4,3.8,7.7,0.6
	C439.1,286.2,440.1,288.8,440.1,290.5z M435.9,303.1c0.1-7.1-5.4-12.9-12.5-13.1c-7.4-0.3-13.4,5.5-13.5,12.8
	c-0.1,7,5.5,12.9,12.6,13.2C429.8,316.2,435.8,310.5,435.9,303.1z M401.2,303.2c-0.2,9.5-8,17.1-17.5,17
	c-9.3-0.1-17.1-8.2-16.9-17.5c0.2-9.5,8-17.1,17.5-16.9C393.7,285.9,401.4,293.8,401.2,303.2z M397,303.5
	c0.3-7.4-5.4-13.3-12.8-13.4c-7.1-0.1-12.9,5.4-13.1,12.5c-0.3,7.4,5.4,13.3,12.8,13.4C391,316,396.7,310.6,397,303.5z M361.1,286.1
	c-2,0.6-4.1,1.1-5.9,2.1c-7.7,4.6-9,12.1-8.6,19.3c0,1.6-0.1,2.2,0,2.8c0.7,3-1.8,8.5,2.3,8.4c3.9,0,2.1-5.5,2.1-8.5
	c-0.2-9.1,0.4-17.5,11.3-20.5c1.1-0.3,1.7-1.2,1.4-2.5C363.2,286.1,362.1,285.8,361.1,286.1z M559.5,287.3c-0.5-1.2-1.6-1.5-2.6-1.2
	c-2,0.6-4.1,1.1-5.8,2.1c-7.7,4.6-9,12.1-8.6,19.2c0,1.6-0.1,2.3,0,2.9c0.6,3-1.6,8.5,2.1,8.6c4.2,0,2.2-5.4,2.2-8.3
	c-0.2-9.3,0.4-17.9,11.6-20.8C559.3,289.5,559.9,288.5,559.5,287.3z"/>
<linearGradient id="SVGID_00000078762949888110919330000013371158548750683534_" gradientUnits="userSpaceOnUse" x1="183.8584" y1="297.6378" x2="339.3827" y2="297.6378">
	<stop  offset="0.4" style="stop-color:#14B4D4"/>
	<stop  offset="1" style="stop-color:#0268B5"/>
</linearGradient>
<path style="fill:url(#SVGID_00000078762949888110919330000013371158548750683534_);" d="M231.9,290.7c-1.2,2.8-2.7,6.4-4.3,10.1
	c-2.1,4.8-4.2,9.6-6.3,14.4c-0.5,1.1-0.9,2.6-2.3,2.7c-1.5,0.1-1.9-1.4-2.4-2.5c-2.1-4.6-4.1-9.2-6.2-13.8c-1.4-3.1-3-3.4-4.5,0
	c-2,4.6-4.1,9.2-6.2,13.8c-0.5,1.1-0.9,2.6-2.4,2.7c-1.6,0.1-1.9-1.4-2.4-2.5c-3.5-8.1-6.9-16.2-10.3-24.4c-0.5-1.2-1.6-3,0.5-3.7
	c1.8-0.6,2.6,1,3.2,2.3c2.2,5,4.3,10,6.5,15c0.6,1.2,0.7,3.3,2.6,3c0.9-0.2,1.6-1.8,2.1-2.8c1.8-4,3.5-8.1,5.3-12.1
	c0.7-1.5,1-3.6,2.9-3.8c2-0.1,2.4,2.1,3.1,3.5c2,4.2,3.8,8.4,5.7,12.6c0.5,1.1,0.9,2.7,2.4,2.5c1.4-0.1,1.8-1.6,2.3-2.8
	c2.3-5.2,4.5-10.4,6.9-15.6c0.5-1.1,1.4-2.2,3-1.8C232,288,232.2,288.8,231.9,290.7z M268.1,303.3c-0.2,9.5-8.2,17.2-17.6,16.9
	c-9.1-0.3-16.7-8.3-16.6-17.4c0.1-9.5,8-17.2,17.5-17.2C261,285.7,268.3,293.4,268.1,303.3z M264.1,302.5
	c-0.2-7.3-5.7-12.4-13.2-12.3c-7,0.1-13,6.2-12.8,12.9c0.3,7.1,6,12.7,13.1,12.7C258.9,315.8,264.3,310.2,264.1,302.5z M339.3,316.6
	c0,1.9-2,4-3.1,2.5c-3.7-5.2-7.1-1-10.1,0.2c-3.2,1.2-6,1.5-9,0.2v0c-7.7-2.6-12.4-8.7-12.6-16.1c-0.2-7.3,3.7-12.8,11.1-15.6
	c0,0,0,0,0,0c4.8-2.2,9.5-1.3,13.9,0.8c4.7,2.3,5.4,0.4,5.2-3.7c-0.1-2.3,0-4.6,0-6.9c0-1.6,0.4-3,2.4-3c1.6,0.1,2.1,1.3,2.1,2.6
	C339.4,290.6,339.4,303.6,339.3,316.6z M319,290.5c-0.6,0.1-1.3,0-1.9,0c-0.5,0.3-0.9,0.6-1.3,0.9c-10.7,7.3-10.4,16.4,0.9,24.8
	c0.2,0.1,0.3,0.2,0.5,0.3c9.8,1.3,17.1-4,17.9-12.8C335.6,296.8,329.6,288.9,319,290.5z M282.9,287.1c-9.4,4.2-10.9,12.4-10.9,21.4
	c0,1.7-0.1,3.4,0,5c0.2,2-0.5,5,2.2,5.1c2.9,0.1,2.2-2.9,2.3-4.8c0.2-3.3,0.1-6.7,0.1-10c0-6.1,2.6-10.4,8.2-12.9
	c1.7-0.8,5-1,3.6-3.8C287.3,284.7,284.7,286.3,282.9,287.1z M298,278.8c0-1.4,0-3.3-2-3.4c-1.6,0-1.8,1.6-1.8,2.8
	c0,12.4,0,24.8,0,37.3c0,1.2,0.1,2.9,1.6,3c2.1,0.2,2.1-1.8,2.1-3.1c0.1-6.1,0-12.2,0-18.3C298.1,291,298.1,284.9,298,278.8z"/>
<linearGradient id="SVGID_00000102514026244123173110000009177297608091713943_" gradientUnits="userSpaceOnUse" x1="65.41" y1="310.1235" x2="149.1548" y2="248.0453">
	<stop  offset="0" style="stop-color:#14B4D4"/>
	<stop  offset="1" style="stop-color:#0069B4"/>
</linearGradient>
<path style="fill:url(#SVGID_00000102514026244123173110000009177297608091713943_);" d="M120.5,251.4c-18,4.6-26.8,13-35.3,23.3
	c-8.4,10.2-11.2,25.8-12,27.3c-0.8,1.5-2.6,1.1-2.6,1.1c-8-7.4-25.5-17.7-25.5-17.7c1.3,0.2,3,0.8,4.8,1.7l0,0l0.8-4.8
	c-6.4-0.8-11.2-1.2-11.9-1.2c-1.6,0-3.2,2.6-3.2,2.6c5,4.1,49.7,47.5,51.6,49.3c1.9,1.8,4.1,3.9,6.5,4.5s3-1.9,3-1.9
	c-0.3-32.9,13.2-48.4,22.3-57.1c20.8-19.9,50.5-22.6,50.5-22.6C164.3,250.3,141.1,246.1,120.5,251.4z"/>
<linearGradient id="SVGID_00000080920963713636235690000012018231458475959976_" gradientUnits="userSpaceOnUse" x1="51.6666" y1="285.6007" x2="73.2439" y2="293.576">
	<stop  offset="0" style="stop-color:#14B4D4"/>
	<stop  offset="1" style="stop-color:#0268B5"/>
</linearGradient>
<path style="fill:url(#SVGID_00000080920963713636235690000012018231458475959976_);" d="M50,286.9c8.5,3.9,21.2,12.7,21.2,12.7
	c0.5-3.8,4.2-12.2,4.2-12.2c-7.5-2.7-17.2-4.4-24.6-5.4L50,286.9L50,286.9z"/>
<linearGradient id="SVGID_00000118365940771856895620000000707342620978145671_" gradientUnits="userSpaceOnUse" x1="112.2372" y1="324.8103" x2="158.0047" y2="285.1289">
	<stop  offset="0" style="stop-color:#662483"/>
	<stop  offset="1" style="stop-color:#D70A41"/>
</linearGradient>
<path style="fill:url(#SVGID_00000118365940771856895620000000707342620978145671_);" d="M160.5,277.4c-5.2,0.5-20.9,5.8-31.8,19.6
	c-7.8,9.8-7.6,19.2-8.6,21.4c-1,2.4-14.5-11.9-18.4-14.6c0,0,0.5,0.2,1.6,0.9l1.4-3.2c-4.5-1.4-8.5-2.5-9.5-2.6
	c-2.5-0.1-2.1,2.1-1.6,2.8c0.5,0.8,36.2,41.6,38.3,43.6c2,1.8,4.6,0.8,4.6-0.8c0-1.1-0.2-23.5,3.3-32.6c3.3-8.6,11.3-24.3,24.1-31.6
	C167.9,278.1,164.3,277,160.5,277.4z"/>
<linearGradient id="SVGID_00000117639298845106549540000016345980739639775893_" gradientUnits="userSpaceOnUse" x1="103.3219" y1="308.5534" x2="120.7935" y2="308.5534">
	<stop  offset="0" style="stop-color:#662483"/>
	<stop  offset="1" style="stop-color:#E50739"/>
</linearGradient>
<path style="fill:url(#SVGID_00000117639298845106549540000016345980739639775893_);" d="M118.5,315.6c0,0,2.3-7.6,2.3-8.3
	c0-0.4-8.8-3.4-16.1-5.7l-1.4,3.2C105.7,306.1,110.7,309.2,118.5,315.6z"/>
</svg>
