<svg xmlns="http://www.w3.org/2000/svg" xml:space="preserve" id="Layer_1" x="0" y="0" style="enable-background:new 0 0 595.3 595.3" version="1.1" viewBox="0 0 595.3 595.3"><style>.st0{fill:#fff}</style><path d="M297.6 595.3C133.3 595.3 0 462 0 297.6 0 133.3 133.3 0 297.6 0 462 0 595.3 133.3 595.3 297.6c0 164.4-133.3 297.7-297.7 297.7" class="st0"/><path d="M584.9 375.9c.5-2 1.1-4 1.6-6zM586.4 369.9" class="st0"/><linearGradient id="SVGID_1_" x1="180.556" x2="445.05" y1="257.833" y2="453.896" gradientTransform="matrix(1 0 0 -1 0 595.276)" gradientUnits="userSpaceOnUse"><stop offset="0" style="stop-color:#14b4d4"/><stop offset="1" style="stop-color:#0069b4"/></linearGradient><path d="M354.3 151.7c-56.8 14.5-84.6 41.1-111.5 73.6-26.5 32.2-35.4 81.5-37.9 86.2-2.5 4.7-8.2 3.5-8.2 3.5-25.3-23.4-80.5-55.9-80.5-55.9 4.1.6 9.5 2.5 15.2 5.4l2.5-15.2c-20.2-2.5-35.4-3.8-37.6-3.8-5.1 0-10.1 8.2-10.1 8.2 15.8 12.9 157 150 163 155.7 6 5.7 12.9 12.3 20.5 14.2 7.6 1.9 9.5-6 9.5-6-.9-103.9 41.7-152.9 70.4-180.3 65.7-62.9 159.5-71.4 159.5-71.4-16.4-17.7-89.7-30.9-154.8-14.2" style="fill:url(#SVGID_1_)"/><linearGradient id="SVGID_00000084511394918837761220000014686316613996610446_" x1="137.043" x2="205.191" y1="335.831" y2="310.642" gradientTransform="matrix(1 0 0 -1 0 595.276)" gradientUnits="userSpaceOnUse"><stop offset="0" style="stop-color:#14b4d4"/><stop offset="1" style="stop-color:#0268b5"/></linearGradient><path d="M131.7 263.8c26.8 12.3 67 40.1 67 40.1 1.6-12 13.3-38.5 13.3-38.5-23.7-8.5-54.3-13.9-77.7-17.1z" style="fill:url(#SVGID_00000084511394918837761220000014686316613996610446_)"/><linearGradient id="SVGID_00000032639959319514113230000001742316599941509509_" x1="328.105" x2="472.654" y1="211.887" y2="337.214" gradientTransform="matrix(1 0 0 -1 0 595.276)" gradientUnits="userSpaceOnUse"><stop offset="0" style="stop-color:#662483"/><stop offset="1" style="stop-color:#d70a41"/></linearGradient><path d="M480.7 233.8c-16.4 1.6-66 18.3-100.4 61.9-24.6 31-24 60.6-27.2 67.6-3.2 7.6-45.8-37.6-58.1-46.1 0 0 1.6.6 5.1 2.8l4.4-10.1c-14.2-4.4-26.8-7.9-30-8.2-7.9-.3-6.6 6.6-5.1 8.8 1.6 2.5 114.3 131.4 121 137.7 6.3 5.7 14.5 2.5 14.5-2.5 0-3.5-.6-74.2 10.4-103 10.4-27.2 35.7-76.7 76.1-99.8 12.6-6.9 1.3-10.4-10.7-9.1" style="fill:url(#SVGID_00000032639959319514113230000001742316599941509509_)"/><linearGradient id="SVGID_00000146492828890268830050000001834878899821613226_" x1="300.088" x2="355.269" y1="262.923" y2="262.923" gradientTransform="matrix(1 0 0 -1 0 595.276)" gradientUnits="userSpaceOnUse"><stop offset="0" style="stop-color:#662483"/><stop offset="1" style="stop-color:#e50739"/></linearGradient><path d="M348 354.5s7.3-24 7.3-26.2c0-1.3-27.8-10.7-50.8-18l-4.4 10.1c7.5 4.1 23.3 13.8 47.9 34.1" style="fill:url(#SVGID_00000146492828890268830050000001834878899821613226_)"/></svg>