<svg xmlns="http://www.w3.org/2000/svg" xml:space="preserve" id="Layer_1" x="0" y="0" style="enable-background:new 0 0 595.3 595.3" version="1.1" viewBox="0 0 595.3 595.3"><style>.st1{fill:#b4a193}.st2{fill:#fdffff}</style><path d="M297.6 595.3C133.3 595.3 0 462 0 297.6 0 133.3 133.3 0 297.6 0 462 0 595.3 133.3 595.3 297.6c0 164.4-133.3 297.7-297.7 297.7" style="fill:#2e2d7b"/><path d="M401.3 322c-2.1-2.1-4.1-4.5-8.6-4.5-1.3.2-3.2 1.1-4.3 3.2-2.1 4.9 1.1 7.9 3.9 10.7 28.5 28.7 57 57.2 85.5 85.7 3 3 6.4 7.3 11.4 2.6 5.4-5.1 1.1-9-2.4-12.2zM318.4 246.4c2.8 1.1 4.5-2.1 6.2-3.9 4.1-3.9 7.9-7.9 11.8-12 32.1-32.3 64.3-64.9 96.2-97.3 3.6-3.6 8.4-7.7 3-13.3-4.1-4.1-7.5-.6-10.5 2.4-35.1 35.1-70.3 70.3-105.6 105.4-3 3-4.9 6.6-4.7 10.9.4 3.1.6 6.8 3.6 7.8M317.5 300.6c3 1.7 4.5-1.7 6.2-3.4L461 158.4c3.2-3.4 6.4-7.1 2.1-11.6-4.3-4.5-7.9-1.5-11.4 1.9-43.1 43.1-86.3 86.1-129.4 129.2-4.1 4.1-7.5 8.4-7.3 14.6-.2 3.2-.2 6.6 2.5 8.1M462.8 446.3c2.8-3 2.4-6 0-9-1.3-1.7-3-3.4-4.5-4.9-27.6-27.8-55.5-55.7-83.1-83.3-2.4-2.4-4.5-5.1-8.4-5.1-2.8.4-4.9 1.9-6 4.5-2.1 5.1 1.9 7.5 4.7 10.3l80.1 80.1c2.6 2.6 5.6 5.1 8.1 7.5 3.1 2.5 6.3 2.9 9.1-.1" class="st1"/><path d="M423.6 470.3c3.4 3.4 7.3 7.9 12.2 2.6 4.5-5.1.4-8.8-3-12.4-22.5-22.5-44.8-45.2-67.3-67.7-9.4-9.4-19.5-18.6-28.9-28.3-10.5-10.9-10.5-17.6 0-28.9 2.6-2.8 5.4-5.4 7.9-7.9 47.6-47.1 95.1-94.3 142.9-141.4 3.9-3.6 6.9-7.5 1.7-12.2-4.7-4.5-8.6-2.1-12.4 1.9-7.3 7.9-14.8 16.1-22.3 23.6-42.8 42.8-85.9 85.7-128.7 128.5-6.2 6.2-11.6 12.9-12.4 22.1.4 6.9 3.4 12.9 8.4 17.8 33.6 34 67.8 68.2 101.9 102.3" class="st1"/><path d="M197.2 277.1c4.7 4.7 9.6 7.1 15.4 1.1 5.6-6 3.2-10.5-1.5-15.2l-88.7-88.7c-2.4-2.4-4.9-4.7-8.6-5.1-4.5.2-7.5 3-9.4 6.6-2.6 4.9.4 8.6 3.6 11.8 29.4 29.7 59.2 59.7 89.2 89.5" class="st2"/><path d="M261.6 234.6c7.7 7.5 8.4 12.4 0 20.6-51 50.1-101.3 100.9-152.1 151.2-5.4 5.4-9.2 10.1-2.6 16.9 7.1 7.3 12.2 3.4 17.6-2.6 7.9-9 16.3-17.4 24.8-25.9 42.2-42 84.4-84 126.4-126 6.6-6.6 12.6-13.9 13.5-24-.6-10.3-7.1-17.6-13.9-24.6-33.4-33.4-66.6-66.6-99.8-100.3-5.1-5.1-9.9-6.4-15.4-1.1-6.9 6.4-3.9 11.4 1.7 16.9 33.6 32.8 66.4 66.2 99.8 98.9M176.2 474.1c34.9-34.9 69.8-69.6 104.8-104.5 4.7-4.7 7.9-9.9 7.5-16.9-.4-5.1.2-11.1-4.1-14.6-2.6-1.9-4.9 2.1-7.1 4.3-38.3 39.2-76.7 78.6-115 118-4.7 4.7-9 9.9-2.6 16.3 6.4 6 11.5 2.2 16.5-2.6M288 299.8c0-4.5 0-9.9-3.4-12.6-3.4-2.6-5.8 2.1-7.7 4.3-47.6 47.8-94.9 95.8-142.5 143.5-4.7 4.7-6.2 9.4-1.1 14.6 5.6 5.6 11.1 5.6 16.5-.4 3.9-4.1 7.5-8.4 11.4-12.4 38.3-38.3 76.9-76.7 115.5-115 5.9-6.2 12.1-12.2 11.3-22" class="st2"/><path d="M136.5 162.5c28.5 28.5 57 57.2 85.7 85.7 2.1 2.1 4.3 4.3 6.9 5.6 5.4 2.6 13.9-3.2 13.5-9.9-.9-1.3-1.7-3.6-3.2-5.1-31.1-31.3-62.3-62.6-93.4-93.6-2.8-2.8-6.2-4.3-10.1-1.7-3.2 2.1-5.8 4.9-6 9 .2 4.4 3.6 7 6.6 10" class="st2"/></svg>