<?xml version="1.0" encoding="utf-8"?>
<!-- Generator: Adobe Illustrator 26.3.1, SVG Export Plug-In . SVG Version: 6.00 Build 0)  -->
<svg version="1.1" id="Layer_1" xmlns="http://www.w3.org/2000/svg" xmlns:xlink="http://www.w3.org/1999/xlink" x="0px" y="0px"
	 viewBox="0 0 595.3 595.3" style="enable-background:new 0 0 595.3 595.3;" xml:space="preserve">
<style type="text/css">
	.st0{fill:#2E2D7B;}
	.st1{fill:#B4A193;}
	.st2{fill:#FDFFFF;}
</style>
<path class="st0" d="M297.6,595.3L297.6,595.3C133.3,595.3,0,462,0,297.6v0C0,133.3,133.3,0,297.6,0h0
	C462,0,595.3,133.3,595.3,297.6v0C595.3,462,462,595.3,297.6,595.3z"/>
<g>
	<path class="st1" d="M344,233.7c-1-1-1.9-2.1-4-2.1c-0.6,0.1-1.5,0.5-2,1.5c-1,2.3,0.5,3.7,1.8,5c13.3,13.4,26.6,26.7,39.9,40
		c1.4,1.4,3,3.4,5.3,1.2c2.5-2.4,0.5-4.2-1.1-5.7C370.7,260.4,357.3,247,344,233.7z"/>
	<path class="st1" d="M305.3,198.4c1.3,0.5,2.1-1,2.9-1.8c1.9-1.8,3.7-3.7,5.5-5.6c15-15.1,30-30.3,44.9-45.4
		c1.7-1.7,3.9-3.6,1.4-6.2c-1.9-1.9-3.5-0.3-4.9,1.1c-16.4,16.4-32.8,32.8-49.3,49.2c-1.4,1.4-2.3,3.1-2.2,5.1
		C303.8,196.2,303.9,197.9,305.3,198.4z"/>
	<path class="st1" d="M304.9,223.7c1.4,0.8,2.1-0.8,2.9-1.6c21.4-21.6,42.7-43.2,64.1-64.8c1.5-1.6,3-3.3,1-5.4
		c-2-2.1-3.7-0.7-5.3,0.9c-20.1,20.1-40.3,40.2-60.4,60.3c-1.9,1.9-3.5,3.9-3.4,6.8C303.6,221.4,303.6,223,304.9,223.7z"/>
	<path class="st2" d="M444.1,455.6c4.5-1.6,8.5-2.2,12.9,0.5c6.6,4.1,12.1,0.8,12.2-7.1c0.1-5.9,0-11.9,0-17.8
		c-0.3-6.1-0.1-12.2-0.8-18.3c-1.6-14.6-8.8-25.3-22.2-31.2c-13.8-6.1-27.3-5.1-39.6,4.1c-15.7,11.7-20.3,34.7-10.7,52.4
		C405.1,455.1,425.2,462.4,444.1,455.6z M430,393.9c12.5-0.1,22.9,10.7,23.1,24.2c0.2,12.9-9.9,23.6-22.7,23.9
		c-12.7,0.3-23.4-10.4-23.5-23.7C406.7,405.2,417.4,394,430,393.9z"/>
	<path class="st2" d="M368.6,355.1c-5.2,0.2-8.7,3.8-8.6,9.2c0.1,5.7,3.5,9.2,9.1,9.1c5.5-0.1,9-3.8,8.9-9.4
		C377.9,358.5,374.1,354.9,368.6,355.1z"/>
	<path class="st2" d="M281.5,388.7c0,9.6,0,19.2,0,28.8c0,10.3-0.1,20.6,0,30.9c0.1,6.2,2.9,8.8,8.7,8.6c5.3-0.2,7.2-2.4,7.2-8.6
		c0.1-10.3-0.1-20.6,0.1-30.9c0.1-5.1,0.7-10.1,2.9-14.8c2.9-5.8,7.3-9.4,14-9.3c6.4,0.2,10.7,3.8,13.3,9.5c2,4.4,2.8,9,2.8,13.7
		c0.1,11.2,0.1,22.4,0.4,33.5c0.1,5.3,2.7,7.1,8.4,6.8c5.6-0.3,7.2-1.9,7.3-7.3c0.2-7.9,0.4-15.7,0.4-23.6c0-8.4-0.2-16.8-2.5-24.9
		c-4.6-16.5-18.4-25.4-35.3-23c-6,0.9-12,2.1-18.2,1.5C283.5,378.9,281.5,380.8,281.5,388.7z"/>
	<path class="st2" d="M376.9,388c0-6.6-1.9-8.5-7.7-8.6c-6.5,0-8.6,1.8-8.6,8.3c-0.1,20.2-0.1,40.5,0,60.7c0,6.6,2.4,8.8,8.3,8.8
		c5.8,0,8-2.4,8.1-9c0.1-9.9,0-19.9,0-29.8c0,0,0,0,0,0C376.9,408.2,377,398.1,376.9,388z"/>
	<path class="st1" d="M372.7,291.7c1.3-1.4,1.1-2.8,0-4.2c-0.6-0.8-1.4-1.6-2.1-2.3c-12.9-13-25.9-26-38.8-38.9
		c-1.1-1.1-2.1-2.4-3.9-2.4c-1.3,0.2-2.3,0.9-2.8,2.1c-1,2.4,0.9,3.5,2.2,4.8c12.5,12.5,24.9,24.9,37.4,37.4
		c1.2,1.2,2.6,2.4,3.8,3.5C369.9,292.9,371.4,293.1,372.7,291.7z"/>
	<path class="st1" d="M354.4,302.9c1.6,1.6,3.4,3.7,5.7,1.2c2.1-2.4,0.2-4.1-1.4-5.8c-10.5-10.5-20.9-21.1-31.4-31.6
		c-4.4-4.4-9.1-8.7-13.5-13.2c-4.9-5.1-4.9-8.2,0-13.5c1.2-1.3,2.5-2.5,3.7-3.7c22.2-22,44.4-44,66.7-66c1.8-1.7,3.2-3.5,0.8-5.7
		c-2.2-2.1-4-1-5.8,0.9c-3.4,3.7-6.9,7.5-10.4,11c-20,20-40.1,40-60.1,60c-2.9,2.9-5.4,6-5.8,10.3c0.2,3.2,1.6,6,3.9,8.3
		C322.5,271,338.5,287,354.4,302.9z"/>
	<path class="st2" d="M224.4,456.8c15.1,3.4,27.9-1.4,37.8-13.5c1.5-1.9,3.3-3.7,2.1-6.5c-2.5-5.7-10.2-7.5-14.8-3.5
		c-1.3,1.1-2.5,2.4-3.9,3.5c-10.1,8.2-23.9,6.1-31.1-4.8c-1-1.6-1.6-3.2-0.8-4.9c0.9-1.8,2.6-1.4,4.1-1.4c7.5,0,15,0,22.6,0
		c0,0,0,0,0,0.1c6.1,0,12.2,0,18.4,0c11.3,0,13.9-3.1,11.9-14.3c-0.2-1.2-0.5-2.4-0.8-3.6c-4.6-18.9-24-33-41.7-30.1
		c-23.5,3.8-38.5,26.1-32.8,49.7C199.1,442.9,208.8,453.3,224.4,456.8z M214.7,403.1c7.9-12.3,27.2-12.4,35.1-0.1
		c0.9,1.5,2.2,3,1.3,4.8c-0.9,1.9-2.9,1.6-4.6,1.6c-4.7,0-9.4,0-14.1,0c0,0.1,0,0.2,0,0.3c-4.7,0-9.4,0-14.1,0
		c-1.9,0-3.4-0.4-4.4-2.2C213,405.8,213.9,404.4,214.7,403.1z"/>
	<path class="st2" d="M130.4,457c7,1.1,12.3-1.6,16.3-7.2c3.1-4.4,6-9,9-13.5c2.2-3.4,4.2-4.2,6.6,0.1c3.2,5.4,6.8,10.6,10.4,15.8
		c3.9,5.7,10.2,7.3,16.1,4.2c3.1-1.6,4.3-3.9,1.9-6.7c-6.6-8-11-17.4-17.3-25.6c-4.5-5.9-4.3-8.5-0.2-14.6
		c5.5-8.3,11-16.6,16.6-24.8c1.8-2.6,1.4-3.7-1.7-4.6c-7.1-2-13-0.5-17.8,5.5c-3.1,4-5.9,8.3-8.7,12.4c-1.7,2.5-3.3,2.8-5.1,0.1
		c-2.6-3.9-5.2-7.8-8-11.6c-3.1-4.3-7-7.3-13.6-7.1c-0.3,0-1.5,0.1-2.7,0.3c-5.3,1.1-5.5,1.6-2.7,6.3c3.3,5.5,6.5,11.2,10.5,16.3
		c9.1,11.5,9.2,17.2,0.1,28.8c-4.8,6.2-9.2,12.7-13,19.6C124.7,455,126.2,456.4,130.4,457z"/>
	<path class="st2" d="M248.7,212.7c2.2,2.2,4.5,3.3,7.2,0.5c2.6-2.8,1.5-4.9-0.7-7.1c-13.8-13.8-27.6-27.6-41.4-41.4
		c-1.1-1.1-2.3-2.2-4-2.4c-2.1,0.1-3.5,1.4-4.4,3.1c-1.2,2.3,0.2,4,1.7,5.5C220.8,184.8,234.7,198.8,248.7,212.7z"/>
	<path class="st2" d="M278.8,192.9c3.6,3.5,3.9,5.8,0,9.6c-23.8,23.4-47.3,47.1-71,70.6c-2.5,2.5-4.3,4.7-1.2,7.9
		c3.3,3.4,5.7,1.6,8.2-1.2c3.7-4.2,7.6-8.1,11.6-12.1c19.7-19.6,39.4-39.2,59-58.8c3.1-3.1,5.9-6.5,6.3-11.2
		c-0.3-4.8-3.3-8.2-6.5-11.5c-15.6-15.6-31.1-31.1-46.6-46.8c-2.4-2.4-4.6-3-7.2-0.5c-3.2,3-1.8,5.3,0.8,7.9
		C247.9,162,263.2,177.6,278.8,192.9z"/>
	<path class="st2" d="M238.9,304.7c16.3-16.3,32.6-32.5,48.9-48.8c2.2-2.2,3.7-4.6,3.5-7.9c-0.2-2.4,0.1-5.2-1.9-6.8
		c-1.2-0.9-2.3,1-3.3,2c-17.9,18.3-35.8,36.7-53.7,55.1c-2.2,2.2-4.2,4.6-1.2,7.6C234.2,308.7,236.6,306.9,238.9,304.7z"/>
	<path class="st2" d="M291.1,223.3c0-2.1,0-4.6-1.6-5.9c-1.6-1.2-2.7,1-3.6,2c-22.2,22.3-44.3,44.7-66.5,67
		c-2.2,2.2-2.9,4.4-0.5,6.8c2.6,2.6,5.2,2.6,7.7-0.2c1.8-1.9,3.5-3.9,5.3-5.8c17.9-17.9,35.9-35.8,53.9-53.7
		C288.6,230.7,291.5,227.9,291.1,223.3z"/>
	<path class="st2" d="M220.4,159.2c13.3,13.3,26.6,26.7,40,40c1,1,2,2,3.2,2.6c2.5,1.2,6.5-1.5,6.3-4.6c-0.4-0.6-0.8-1.7-1.5-2.4
		c-14.5-14.6-29.1-29.2-43.6-43.7c-1.3-1.3-2.9-2-4.7-0.8c-1.5,1-2.7,2.3-2.8,4.2C217.4,156.6,219,157.8,220.4,159.2z"/>
</g>
</svg>
