<svg xmlns="http://www.w3.org/2000/svg" xml:space="preserve" id="Layer_1" x="0" y="0" style="enable-background:new 0 0 595.3 595.3" version="1.1" viewBox="0 0 595.3 595.3"><style>.st0{fill:#fff}</style><path d="M297.6 595.3C133.3 595.3 0 462 0 297.6 0 133.3 133.3 0 297.6 0 462 0 595.3 133.3 595.3 297.6c0 164.4-133.3 297.7-297.7 297.7" class="st0"/><path d="M298.5 594.7C134.2 594.7.9 461.4.9 297 .9 132.7 134.2-.6 298.5-.6 462.9-.6 596.2 132.7 596.2 297c0 164.4-133.3 297.7-297.7 297.7" style="fill:#ea222f"/><path d="M122.1 259.7c4.4 4 7.6 8.8 10.3 14 9.5 18.5 18.7 37.1 28.1 55.7.8 1.5 1.4 3 .5 4.7-5.9 11.3-12.2 22-26.7 23.8-4.6.6-6.8 3.2-6.4 7.8.4 4.9 3.2 7.8 7.9 8 5.6.2 10.9-1.3 15.7-4.2 9.3-5.6 15.3-14.1 20.8-23.2 7.9-13.2 13.3-27.5 18.9-41.8 3.9-10.1 8.1-19.9 14.5-28.9 10.6-15.1 38.5-17.1 49.8-11.7 6 2.9 9.7 7.4 10.2 14.3.2 3.5-.8 5.3-4.9 4.5-8.4-1.5-16.8-2.1-25.3-.5-25 4.7-35.9 33.2-19.4 51.9 10 11.4 23.4 13.4 37.6 10.9 18-3.2 27.8-15.3 27.9-33.4v-15.5c0-5.2-.2-10.3 0-15.5 1-17.4-10.9-29.5-23.9-32.9-19.7-5.2-38.7-3.4-55.6 9.2-10.2 7.6-16.1 18.5-21 29.9-3.1 7.2-5.8 14.5-8.7 21.8-.4 1-.6 2.5-2 2.6s-1.7-1.3-2.3-2.3c-1.1-2.1-2.1-4.2-3.2-6.2-7.6-14.6-13.9-29.9-22.5-44-2.6-4.3-5.6-8.2-9.9-11.1-4.6-3.1-8.7-2.9-11.7.6-2.9 3.5-2.6 7.9 1.3 11.5m134 68c-9.2 4-18.4 3.6-26.5-2.6-9.1-7-6.2-21.6 4.9-26 9.5-3.7 19-1.5 28.5.3 1.9.4 2.6 1.9 2.6 3.7v6c.5 8.2-1.5 15.2-9.5 18.6M291.9 261.1c1.3.1 2.7.1 4 0 4.4-.3 5.9 1.7 5.8 5.9-.2 9-.1 18-.1 26.9h.1c0 8.8-.1 17.6 0 26.4.1 8.3 3.5 15.3 10.3 20.1 8.8 6.3 18.7 6.1 28.8 4.3 4.6-.8 6.9-4.2 6.3-8.5-.7-4.8-3.8-7.5-8.6-7.1-3.8.4-7.6 1.2-11.4.4-6.4-1.2-9.5-4.2-9.6-10.8-.2-17.8-.1-35.6-.1-53.4 0-2.9 1.4-4.2 4.2-4.3 27.4-1.4 45.2 18.9 45.2 39.7 0 12-.1 24 .1 35.9.1 6.2 2.8 9 8.2 9 5.4 0 8-2.9 8.1-9.1.1-10.5-.2-21 .2-31.4.5-13.3 5.6-24.7 16.2-32.9 15.1-11.6 32.4-13.2 50.3-9.3 7.8 1.7 12.2 7.9 12.6 15 .2 3.8-.9 5.5-5.2 4.8-8.2-1.5-16.4-2.2-24.8-.6-13.1 2.5-24.2 12.4-26.6 24.1-2.8 13.8 2.2 26.4 13.7 33.8 8.5 5.5 18.1 6.5 27.9 5.6 18.8-1.9 30.8-15.2 30.8-34.1v-31.4c0-16.9-11.5-31.2-28.3-33.6-27.9-3.8-53.2.9-71.5 25-1.7 2.3-2.9 2.2-4.4-.2-2.7-4-5.7-7.8-9.3-11.1-11.7-10.6-25.6-15.2-41.2-14.9-4.5.1-6.5-1.2-6.1-5.9.3-3.8.1-7.6 0-11.5-.1-4.9-2.9-7.6-7.9-7.7-5.1-.1-7.6 2.3-7.8 7.5-.1 2.2 0 4.3 0 6.5 0 10 0 10-9.9 11.1-4.7.5-7.2 3.6-7 8.6 0 4.8 2.2 7 7 7.2m160.6 66.8c-9.2 3.8-18.4 3.4-26.4-2.9-7.3-5.8-6.7-17.9.9-23.4 4.8-3.5 10.3-4.4 16-4.3 3.3 0 6.6.5 9.9 1 9.5 1.4 9.5 1.4 9.5 11.8.6 7.4-1.8 14.4-9.9 17.8" class="st0"/></svg>