<svg xmlns="http://www.w3.org/2000/svg" xml:space="preserve" width="800" height="800" viewBox="0 0 512 512"><path d="m233.504 260.832 19.536 15.121-19.535 15.124c-4.758 3.683-5.629 10.525-1.947 15.283a10.874 10.874 0 0 0 8.622 4.226 10.85 10.85 0 0 0 6.66-2.279l23.211-17.967c10.845 9.58 32.647 25.377 58.522 25.377 36.337 0 64.663-31.168 65.852-32.495a10.894 10.894 0 0 0 0-14.534c-1.187-1.327-29.514-32.495-65.852-32.495-25.875 0-47.677 15.798-58.522 25.377l-23.211-17.967c-4.758-3.68-11.6-2.811-15.283 1.947-3.682 4.757-2.812 11.599 1.947 15.282m95.068-2.85c17.167 0 32.827 10.494 41.79 17.954-8.995 7.459-24.724 17.995-41.79 17.995-17.172 0-32.833-10.498-41.791-17.954 8.995-7.459 24.724-17.995 41.791-17.995M218.398 346.368c-25.876 0-47.677 15.798-58.522 25.378l-23.211-17.967c-4.758-3.681-11.6-2.812-15.283 1.947-3.682 4.757-2.812 11.599 1.947 15.283l19.536 15.121-19.536 15.121c-4.757 3.683-5.629 10.525-1.947 15.283a10.874 10.874 0 0 0 8.622 4.226 10.85 10.85 0 0 0 6.66-2.279l23.211-17.967c10.845 9.58 32.647 25.378 58.522 25.378 36.337 0 64.663-31.168 65.852-32.495a10.894 10.894 0 0 0 0-14.534c-1.186-1.327-29.513-32.495-65.851-32.495m0 57.736c-17.187 0-32.862-10.517-41.814-17.973 8.959-7.463 24.63-17.976 41.814-17.976 17.167 0 32.827 10.494 41.79 17.954-8.994 7.459-24.724 17.995-41.79 17.995"/><path d="M501.106 108.935h-40.848V49.022c0-6.016-4.877-10.894-10.894-10.894H62.642c-6.017 0-10.894 4.878-10.894 10.894v59.913H10.894C4.877 108.935 0 113.813 0 119.829v343.149c0 6.016 4.877 10.894 10.894 10.894h490.213c6.017 0 10.894-4.878 10.894-10.894V119.829c-.001-6.016-4.878-10.894-10.895-10.894M73.535 59.916h364.936v49.019H73.535zm416.679 392.168H21.787V192.125c3.042.936 5.557 2.279 8.49 3.842 6.531 3.483 14.658 7.818 29.637 7.818 14.979 0 23.106-4.335 29.637-7.818 5.719-3.05 9.852-5.254 19.384-5.254s13.664 2.204 19.384 5.254c6.531 3.483 14.658 7.818 29.637 7.818s23.106-4.335 29.637-7.818c5.719-3.05 9.852-5.254 19.384-5.254s13.664 2.204 19.384 5.254c6.531 3.483 14.658 7.818 29.637 7.818 14.981 0 23.108-4.336 29.639-7.819 5.717-3.05 9.847-5.253 19.371-5.253 9.531 0 13.664 2.204 19.384 5.254 6.533 3.483 14.663 7.818 29.648 7.818 14.972 0 23.098-4.335 29.626-7.817 5.719-3.051 9.851-5.255 19.384-5.255 9.54 0 13.675 2.204 19.397 5.256 6.531 3.482 14.659 7.816 29.636 7.816 14.979 0 23.106-4.335 29.637-7.818 2.934-1.564 5.449-2.906 8.49-3.842v259.959zm-18.745-275.339c-5.719 3.05-9.852 5.254-19.384 5.254-9.531 0-13.664-2.204-19.384-5.254-6.533-3.483-14.663-7.818-29.648-7.818-14.981 0-23.108 4.336-29.639 7.819-5.717 3.05-9.847 5.253-19.371 5.253-9.54 0-13.675-2.204-19.397-5.256-6.531-3.482-14.659-7.816-29.636-7.816-14.972 0-23.098 4.335-29.626 7.817-5.719 3.051-9.851 5.255-19.384 5.255-9.532 0-13.664-2.204-19.384-5.254-6.531-3.483-14.658-7.818-29.637-7.818-14.979 0-23.106 4.335-29.637 7.818-5.719 3.05-9.852 5.254-19.384 5.254s-13.664-2.204-19.384-5.254c-6.531-3.483-14.658-7.818-29.637-7.818-14.979 0-23.106 4.335-29.637 7.818-5.719 3.05-9.852 5.254-19.384 5.254s-13.664-2.204-19.384-5.254c-4.739-2.527-10.334-5.495-18.761-6.938l.019-.008v-39.077h468.426v39.077l.017.008c-8.43 1.443-14.025 4.41-18.764 6.938"/><path d="M331.486 375.236h-2.179c-6.017 0-10.894 4.878-10.894 10.894s4.877 10.894 10.894 10.894h2.179c6.017 0 10.894-4.878 10.894-10.894s-4.877-10.894-10.894-10.894M424.274 375.236h-49.021c-6.017 0-10.894 4.878-10.894 10.894s4.877 10.894 10.894 10.894h49.021c6.017 0 10.894-4.878 10.894-10.894s-4.878-10.894-10.894-10.894M76.576 265.062h-2.179c-6.017 0-10.894 4.878-10.894 10.894s4.877 10.894 10.894 10.894h2.179c6.017 0 10.894-4.878 10.894-10.894-.001-6.015-4.878-10.894-10.894-10.894M169.363 286.85c6.017 0 10.894-4.878 10.894-10.894 0-6.015-4.877-10.894-10.894-10.894h-49.021c-6.017 0-10.894 4.878-10.894 10.894s4.877 10.894 10.894 10.894z"/></svg>