<?xml version="1.0" encoding="iso-8859-1"?>
<!-- Uploaded to: SVG Repo, www.svgrepo.com, Generator: SVG Repo Mixer Tools -->
<svg fill="#000000" height="800px" width="800px" version="1.1" id="Layer_1" xmlns="http://www.w3.org/2000/svg" xmlns:xlink="http://www.w3.org/1999/xlink" 
	 viewBox="0 0 512 512" xml:space="preserve">
<g>
	<g>
		<g>
			<path d="M233.504,260.832l19.536,15.121l-19.535,15.124c-4.758,3.683-5.629,10.525-1.947,15.283
				c2.147,2.773,5.367,4.227,8.622,4.226c2.329,0,4.676-0.744,6.66-2.279l23.211-17.967c10.845,9.58,32.647,25.377,58.522,25.377
				c36.337,0,64.663-31.168,65.852-32.495c3.704-4.136,3.704-10.398,0-14.534c-1.187-1.327-29.514-32.495-65.852-32.495
				c-25.875,0-47.677,15.798-58.522,25.377l-23.211-17.967c-4.758-3.68-11.6-2.811-15.283,1.947
				C227.875,250.307,228.745,257.149,233.504,260.832z M328.572,257.982c17.167,0,32.827,10.494,41.79,17.954
				c-8.995,7.459-24.724,17.995-41.79,17.995c-17.172,0-32.833-10.498-41.791-17.954
				C295.776,268.518,311.505,257.982,328.572,257.982z"/>
			<path d="M218.398,346.368c-25.876,0-47.677,15.798-58.522,25.378l-23.211-17.967c-4.758-3.681-11.6-2.812-15.283,1.947
				c-3.682,4.757-2.812,11.599,1.947,15.283l19.536,15.121l-19.536,15.121c-4.757,3.683-5.629,10.525-1.947,15.283
				c2.147,2.773,5.367,4.227,8.622,4.226c2.329,0,4.676-0.744,6.66-2.279l23.211-17.967c10.845,9.58,32.647,25.378,58.522,25.378
				c36.337,0,64.663-31.168,65.852-32.495c3.704-4.136,3.704-10.398,0-14.534C283.063,377.536,254.736,346.368,218.398,346.368z
				 M218.398,404.104c-17.187,0-32.862-10.517-41.814-17.973c8.959-7.463,24.63-17.976,41.814-17.976
				c17.167,0,32.827,10.494,41.79,17.954C251.194,393.568,235.464,404.104,218.398,404.104z"/>
			<path d="M501.106,108.935h-40.848V49.022c0-6.016-4.877-10.894-10.894-10.894H62.642c-6.017,0-10.894,4.878-10.894,10.894v59.913
				H10.894C4.877,108.935,0,113.813,0,119.829v343.149c0,6.016,4.877,10.894,10.894,10.894h490.213
				c6.017,0,10.894-4.878,10.894-10.894V119.829C512,113.813,507.123,108.935,501.106,108.935z M73.535,59.916h364.936v49.019
				H73.535C73.535,108.935,73.535,59.916,73.535,59.916z M490.214,452.084h-0.001H21.787V192.125
				c3.042,0.936,5.557,2.279,8.49,3.842c6.531,3.483,14.658,7.818,29.637,7.818c14.979,0,23.106-4.335,29.637-7.818
				c5.719-3.05,9.852-5.254,19.384-5.254c9.532,0,13.664,2.204,19.384,5.254c6.531,3.483,14.658,7.818,29.637,7.818
				s23.106-4.335,29.637-7.818c5.719-3.05,9.852-5.254,19.384-5.254c9.532,0,13.664,2.204,19.384,5.254
				c6.531,3.483,14.658,7.818,29.637,7.818c14.981,0,23.108-4.336,29.639-7.819c5.717-3.05,9.847-5.253,19.371-5.253
				c9.531,0,13.664,2.204,19.384,5.254c6.533,3.483,14.663,7.818,29.648,7.818c14.972,0,23.098-4.335,29.626-7.817
				c5.719-3.051,9.851-5.255,19.384-5.255c9.54,0,13.675,2.204,19.397,5.256c6.531,3.482,14.659,7.816,29.636,7.816
				c14.979,0,23.106-4.335,29.637-7.818c2.934-1.564,5.449-2.906,8.49-3.842V452.084z M471.469,176.745
				c-5.719,3.05-9.852,5.254-19.384,5.254c-9.531,0-13.664-2.204-19.384-5.254c-6.533-3.483-14.663-7.818-29.648-7.818
				c-14.981,0-23.108,4.336-29.639,7.819c-5.717,3.05-9.847,5.253-19.371,5.253c-9.54,0-13.675-2.204-19.397-5.256
				c-6.531-3.482-14.659-7.816-29.636-7.816c-14.972,0-23.098,4.335-29.626,7.817c-5.719,3.051-9.851,5.255-19.384,5.255
				c-9.532,0-13.664-2.204-19.384-5.254c-6.531-3.483-14.658-7.818-29.637-7.818c-14.979,0-23.106,4.335-29.637,7.818
				c-5.719,3.05-9.852,5.254-19.384,5.254s-13.664-2.204-19.384-5.254c-6.531-3.483-14.658-7.818-29.637-7.818
				c-14.979,0-23.106,4.335-29.637,7.818c-5.719,3.05-9.852,5.254-19.384,5.254c-9.532,0-13.664-2.204-19.384-5.254
				c-4.739-2.527-10.334-5.495-18.761-6.938l0.019-0.008v-39.077h468.426v39.077l0.017,0.008
				C481.803,171.25,476.208,174.217,471.469,176.745z"/>
			<path d="M331.486,375.236h-2.179c-6.017,0-10.894,4.878-10.894,10.894s4.877,10.894,10.894,10.894h2.179
				c6.017,0,10.894-4.878,10.894-10.894S337.503,375.236,331.486,375.236z"/>
			<path d="M424.274,375.236h-49.021c-6.017,0-10.894,4.878-10.894,10.894s4.877,10.894,10.894,10.894h49.021
				c6.017,0,10.894-4.878,10.894-10.894S430.29,375.236,424.274,375.236z"/>
			<path d="M76.576,265.062h-2.179c-6.017,0-10.894,4.878-10.894,10.894c0,6.016,4.877,10.894,10.894,10.894h2.179
				c6.017,0,10.894-4.878,10.894-10.894C87.469,269.941,82.592,265.062,76.576,265.062z"/>
			<path d="M169.363,286.85c6.017,0,10.894-4.878,10.894-10.894c0-6.015-4.877-10.894-10.894-10.894h-49.021
				c-6.017,0-10.894,4.878-10.894,10.894c0,6.016,4.877,10.894,10.894,10.894H169.363z"/>
		</g>
	</g>
</g>
</svg>