<svg xmlns="http://www.w3.org/2000/svg" width="800" height="800" viewBox="0 0 64 64" fill="#7367F0"><defs><style>.cls-1{fill:none;stroke:#000;stroke-linejoin:round;stroke-width:2px}</style></defs><g id="Layer_29" data-name="Layer 29"><path d="M2 2h60v12H2zM2 58h60v4H2zM4 14v6h56v-6" class="cls-1"/><path d="M22 14V6h20v8M6 20v38M58 20v38M10 36h12v22H10zM12 26h8v6h-8zM52 32h-8l2-6h4zM16 29v3" class="cls-1"/><path d="M22 41h-4v8h4M42 36h12v22H42z" class="cls-1"/><path d="M54 41h-4v8h4M25 10h13M26 26h12v13H26zM29 33l4-4M31 36l4-4M35 49h-6l-2-4h10zM32 45v-3M32 49v4h3" class="cls-1"/></g></svg>