<svg xmlns="http://www.w3.org/2000/svg" width="800" height="800" viewBox="0 0 15 15" fill="#7367F0"><path d="M13.5 10H13V7h.5a.5.5 0 0 0 0-1H13V4l-.286-.573a.249.249 0 0 0-.424-.006L12 4v2h-1V4l-.286-.573a.249.249 0 0 0-.424-.006L10 4v2H9V4l-.286-.573a.249.249 0 0 0-.424-.006L8 4v2H7V4l-.286-.573a.249.249 0 0 0-.424-.006L6 4v2H5V4l-.286-.573a.249.249 0 0 0-.424-.006L4 4v2H3V4l-.286-.573a.249.249 0 0 0-.424-.006L2 4v2h-.5a.5.5 0 0 0 0 1H2v3h-.5a.5.5 0 0 0 0 1H2v1.5a.5.5 0 0 0 1 0V11h1v1.5a.5.5 0 0 0 1 0V11h1v1.5a.5.5 0 0 0 1 0V11h1v1.5a.5.5 0 0 0 1 0V11h1v1.5a.5.5 0 0 0 1 0V11h1v1.5a.5.5 0 0 0 1 0V11h.5a.5.5 0 0 0 0-1M3 10V7h1v3Zm2 0V7h1v3Zm2 0V7h1v3Zm2 0V7h1v3Zm2 0V7h1v3Z"/></svg>