<svg xmlns="http://www.w3.org/2000/svg" xml:space="preserve" width="800" height="800" viewBox="0 0 502 502"><path d="M462.132 39.868C436.423 14.159 402.241 0 365.883 0s-70.54 14.159-96.249 39.868c-25.709 25.709-39.868 59.891-39.868 96.25 0 36.358 14.159 70.54 39.868 96.249 25.709 25.709 59.891 39.868 96.249 39.868s70.54-14.159 96.249-39.868c25.709-25.71 39.868-59.892 39.868-96.25s-14.159-70.54-39.868-96.249zm-147.254-8.123c12.753-6.246 26.607-10.094 41.005-11.314v43.851h-41.005V31.745zm0 52.537h41.005v41.006h-41.005zm-31.102-30.271a117.885 117.885 0 0 1 11.101-9.789v20.06H274.64a117.914 117.914 0 0 1 9.136-10.271m-21.86 30.271h32.961v41.006h-44.61c1.325-14.413 5.284-28.27 11.649-41.006m32.961 143.73a118.028 118.028 0 0 1-11.102-9.788 117.965 117.965 0 0 1-10.419-11.931h21.521v21.719zm.001-41.719h-33.772c-6.127-12.769-9.864-26.622-10.98-41.005h44.752zm19.999-41.005h41.005v16.546c0 5.523 4.477 10 10 10s10-4.477 10-10v-16.546h41.006v41.005H314.877zm102.012 95.202c-12.753 6.246-26.608 10.094-41.006 11.314v-18.627c0-5.523-4.477-10-10-10s-10 4.477-10 10v18.627c-14.398-1.22-28.253-5.069-41.005-11.314v-34.196h102.011zm0-115.202h-41.006V84.282h41.006zm0-61.006h-41.006V20.431c14.398 1.22 28.253 5.069 41.006 11.315zm19.999-20.06a118.016 118.016 0 0 1 11.101 9.788c19.36 19.358 31.035 44.35 33.509 71.278h-44.61V44.222zm11.102 174.002a118.016 118.016 0 0 1-11.101 9.788v-21.719h21.521a117.85 117.85 0 0 1-10.42 11.931m-11.101-31.931v-41.005h44.752c-1.117 14.383-4.854 28.236-10.981 41.005zM215.929 271.929l-83.568 83.568-6.616-6.616c-3.905-3.905-10.237-3.905-14.143 0L2.929 457.553c-3.905 3.905-3.905 10.237 0 14.143l27.375 27.375c1.953 1.953 4.512 2.929 7.071 2.929s5.119-.976 7.071-2.929L153.12 390.398c3.905-3.905 3.905-10.237 0-14.143l-6.616-6.616 83.568-83.568c3.905-3.905 3.905-10.237 0-14.143-3.905-3.906-10.238-3.905-14.143.001M37.375 477.858l-13.233-13.233 94.531-94.531 13.233 13.233zM243.917 243.94l-3.988 3.988c-3.905 3.905-3.905 10.237 0 14.143 1.953 1.953 4.512 2.929 7.071 2.929s5.119-.976 7.071-2.929l3.988-3.988c3.905-3.905 3.905-10.237 0-14.143-3.905-3.905-10.237-3.905-14.142 0M336.186 323.319a10.001 10.001 0 0 0-16.709 4.406l-14.584 52.745-14.223 29.951-7.635 7.635c-11.812 11.813-11.813 31.033 0 42.847 5.907 5.906 13.665 8.859 21.423 8.859s15.517-2.953 21.423-8.859l7.694-7.694 29.535-14.623 52.665-14.563a10.002 10.002 0 0 0 4.406-16.709zM311.738 446.76c-4.014 4.015-10.547 4.015-14.561 0-4.015-4.015-4.015-10.547 0-14.562l1.784-1.785 7.281 7.281 7.281 7.281zm45.123-27.197c-.611.169-1.204.396-1.772.676l-25.429 12.59-9.402-9.402-9.239-9.239 12.312-25.926a9.884 9.884 0 0 0 .605-1.625l10.243-37.042 59.724 59.724z"/></svg>