<svg xmlns="http://www.w3.org/2000/svg" width="800" height="800" fill="none" viewBox="0 0 960 960"><path fill="#000" d="M239.972 640.934c2.471-123.751-7.651-247.403.561-371.038 3.513-113.486 42.214-144.705 153.504-149.275 231.609-7.127 329.669-27.988 316.707 248.804-1.064 81.891-.118 163.698 4.902 245.452 2.025 69.874 7.167 141.48-10.91 209.828-15.928 68.181-88.539 72.693-146.602 70.979-55.963-.76-111.925-2.338-167.861-4.338-181.127 2.672-148.34-117.259-150.031-250.413zm46.728-9.557 1.685.006c-.89 33.633-2.269 67.264-2.479 100.901.756 40.022-4.068 95.435 45.678 106.196 92.055 13.896 186.542 9.758 279.518 8.977 67.318.148 57.539-87.614 60.839-134.707-.747-81.82-5.547-163.602-8.275-245.382-4.769-81.199 1.036-163.833-13.146-244.116-13.706-76.963-113.059-58.062-171.244-63.022-51.127-.487-103.368 1.553-152.971 15.396-20.951 5.44-30.447 28.764-33.576 48.333-15.84 135.391-3.13 271.527-6.029 407.418M761.27 363.184c-27.386 1.937-34.907-27.004-13.718-38.301 45.47-15.867 93.514-24.84 140.154-37.017 29.904-8.212 45.62 31.518 15.804 43.244-8.445 2.76-17.311 4.261-26.021 6.179-37.382 8.351-79.783 17.061-116.219 25.895M189.745 477.254c-.13 9.357-5.833 15.285-13.162 19.478-34.431 19.694-71.108 35.189-107.39 51.06-26.148 8.844-40.613-24.029-16.1-37.162 31.41-14.714 63.367-28.417 95.03-42.626 15.273-8.073 39.937-16.05 41.622 9.25M220.327 165.426c-4.575-2.141-9.903-3.403-13.601-6.569-22.821-21.838-51.098-39.661-69.83-65.06-9.435-18.038 12.063-37.865 29.413-27.519 21.709 17.018 40.383 37.997 60.715 56.696 17.437 12.841 18.937 39.49-6.697 42.452M829.204 483.429c1.037 17.744-20.298 28.788-34.028 18.82-15.953-12.245-30.451-26.596-45.148-40.334-28.046-25.008 4.129-57.336 30.119-30.367 13.038 10.766 25.855 21.799 38.83 32.642 6.258 5.231 10.389 11.442 10.227 19.239M179.007 356.156c-18.678-3.98-38.032-12.496-56.366-18.575-23.293-7.137-22.157-40.306 3.853-40.675 3.234.08 6.662.547 9.632 1.751 18.714 8.483 39.088 14.277 56.575 25.057 13.994 11.44 5.945 33.714-13.694 32.442M752.135 193.458c-17.837-.871-23.74-20.702-13.562-33.369 11.574-13.263 20.493-38.46 41.65-35.395 13.25 2.129 21.245 17.939 13.249 29.473-8.621 12.435-19.535 23.346-30.033 34.366-2.612 2.743-7.475 3.341-11.304 4.925"/><path fill="#fff" d="M286.703 631.38c2.898-135.891-9.811-272.028 6.029-407.418 3.115-19.593 12.638-42.865 33.575-48.332 49.601-13.848 101.846-15.879 152.971-15.395 58.181 4.814 157.551-13.85 171.242 63.019 14.188 80.284 8.377 162.92 13.152 244.118 2.726 81.78 7.525 163.562 8.27 245.38-3.17 47.246 6.383 134.73-60.833 134.708-92.976.789-187.469 4.916-279.524-8.971-49.728-10.821-44.924-66.148-45.674-106.202.209-33.636 1.588-67.267 2.478-100.9zm148.72-432.464-.118 1.046c-162.4-3.313-114.6 51.091-119.864 176.639.217 88.064 1.542 176.124 2.394 264.182-1.096 26.853-1.659 53.542 1.338 80.3.435 16.037 6.63 25.61 22.354 28.79 12.818 2.592 26.08 4.243 39.134 4.168 75.64-2.333 152.139.744 226.62-15.113 48.34-9.292 46.168-68.324 44.063-107.068-5.02-50.812-5.657-101.944-7.044-152.954-4.847-82.537 3.709-166.82-11.726-248.243-3.167-13.284-12.487-21.258-26.798-22.101-56.785-3.218-113.569-6.428-170.353-9.646m16.496 596.304c7.335 59.908 83.291 34.604 80.948-17.124-.022-3.564-2.11-8.273-4.841-10.44-25.747-27.65-76.022-9.725-76.107 27.564"/><path fill="#000" d="M435.423 198.914c56.784 3.217 113.568 6.428 170.352 9.644 14.311.843 23.631 8.818 26.793 22.102 15.444 81.418 6.881 165.708 11.736 248.242 1.382 51.01 2.019 102.143 7.037 152.954 2.163 38.787 4.241 97.75-44.06 107.066-74.48 15.864-150.983 12.778-226.621 15.118-13.053.073-26.316-1.579-39.134-4.17-15.724-3.179-21.919-12.753-22.356-28.79-2.99-26.745-2.436-53.458-1.335-80.3-.854-88.059-2.179-176.118-2.392-264.184 5.321-125.634-42.659-179.87 119.861-176.637zM350.944 355.22c1.455 11.821 3.122 27.911 5.508 43.893 3.149 24.951 37.661 22.559 36.452-3.501-.099-35.029 2.382-69.937 5.112-104.841.946-12.918-6.927-24.025-18.223-25.369-13.462-1.877-23.68 8.559-24.782 22.809-1.277 20.861-2.537 41.723-4.067 67.009"/><path fill="#000" d="M451.914 795.213c.096-37.292 50.357-55.215 76.106-27.561 2.731 2.165 4.82 6.873 4.844 10.438 2.337 51.741-73.629 77.02-80.95 17.123m34.685 7.371c8.414-.073 16.02-7.423 15.695-13.475-.164-3.053-.041-7.242-5.633-6.888-13.373 1.735-21.855 12.097-10.062 20.363"/><path fill="#fff" d="M350.945 355.217c1.531-25.286 2.79-46.148 4.067-67.009 1.107-14.236 11.317-24.697 24.782-22.808 11.296 1.343 19.169 12.451 18.222 25.368-2.729 34.904-5.21 69.812-5.11 104.842 1.206 26.033-33.306 28.478-36.454 3.499-2.386-15.982-4.052-32.072-5.507-43.892M486.605 802.588c-11.797-8.269-3.304-18.631 10.063-20.364 5.591-.353 5.469 3.836 5.633 6.889.323 6.052-7.282 13.402-15.696 13.475"/></svg>