<svg xmlns="http://www.w3.org/2000/svg" xml:space="preserve" width="800" height="800" viewBox="0 0 496 496"><path d="M456 16c-12.512 0-24.32 6.032-31.84 16h-8.976C411.472 13.768 395.312 0 376 0H120c-19.312 0-35.472 13.768-39.192 32h-8.976C64.32 22.032 52.504 16 40 16 17.944 16 0 33.944 0 56s17.944 40 40 40c12.504 0 24.32-6.032 31.832-16H80v344h16v-16h16v16h16v-16h16v88h16v-16h16v16h16v-16h16v16h16v-16h16v16h16v-16h16v16h16v-16h16v16h16v-16h16v16h16v-16h16v16h16v-16h16v16h16V80h8.16c7.52 9.968 19.328 16 31.84 16 22.056 0 40-17.944 40-40s-17.944-40-40-40m-336 0c10.416 0 19.216 6.712 22.528 16H97.48c3.304-9.288 12.104-16 22.52-16m24 376H96V80h48zm0-328H62.96l-2.312 3.976C56.264 75.512 48.544 80 40 80c-13.232 0-24-10.768-24-24s10.768-24 24-24c8.544 0 16.264 4.496 20.648 12.024L62.96 48H144zm208 400h-16v-32h-16v32H160V40c0-9-2.984-17.312-8.016-24H296c13.232 0 24 10.768 24 24v376h16V40c0-9.04-3.128-17.296-8.208-24H328c13.232 0 24 10.768 24 24zm48 0h-32V40c0-9.04-3.128-17.296-8.208-24H376c13.232 0 24 10.768 24 24zm56-384c-8.544 0-16.264-4.488-20.648-12.024L433.04 64H416V48h17.04l2.312-3.976C439.736 36.496 447.456 32 456 32c13.232 0 24 10.768 24 24s-10.768 24-24 24"/></svg>