<svg xmlns="http://www.w3.org/2000/svg" xml:space="preserve" viewBox="0 0 32 32" fill="#7367F0"><path d="M14.5 24c-5.2 0-10.1 2.3-13.3 6.4-.2.3-.3.7-.1 1.1s.5.5.9.5h25c.4 0 .7-.2.9-.6s.1-.8-.1-1.1c-3.2-4-8.1-6.3-13.3-6.3M30.1 5.7c-3-1.7-6.2-1.8-9-.4-1.5.8-2.7 1.9-3.6 3.4-.3-2.1-1.2-3.9-2.7-5.3-2.3-2.1-5.6-2.8-9-1.8-.3.1-.6.3-.7.7-.1.4 0 .7.3 1L8 5.7c.1.1.3.2.4.2l.7.2v.2c0 .3.1.5.3.7l1.1 1h-.7C6.7 8 3.9 9.6 2 12.4c-.2.3-.2.7 0 1 .3.4.6.6 1 .6h3.6c.2 0 .3 0 .4-.1l.7-.4c.2.3.5.5.9.5h6.7c.7 2.7.5 5.5-.7 8 2.4 0 4.8.5 7 1.4.4-3.2-.2-6.5-1.9-9.4l-.6-1 1.6-.8c.1-.1.3-.2.3-.3l.5-.6c.3.2.6.2 1 0L30 7.5c.3-.2.5-.5.5-.9.1-.4-.1-.7-.4-.9"/></svg>