<svg xmlns="http://www.w3.org/2000/svg" xml:space="preserve" width="800" height="800" viewBox="0 0 511 511" fill="#7367F0"><path d="M415.5 0h-320C82.542 0 72 10.542 72 23.5v304C72 428.682 154.318 511 255.5 511S439 428.682 439 327.5v-304C439 10.542 428.458 0 415.5 0m8.5 327.5c0 92.911-75.589 168.5-168.5 168.5S87 420.411 87 327.5v-304c0-4.687 3.813-8.5 8.5-8.5h320c4.687 0 8.5 3.813 8.5 8.5z"/><path d="M375.5 104h-56.723c.847-6.229-.453-12.736-4.064-18.41l-31.019-48.744a7.498 7.498 0 0 0-1.024-1.277c-15.4-15.4-40.46-15.402-55.861 0-7.539 7.538-11.377 17.391-11.536 27.292a7.452 7.452 0 0 0-.001 1.241c.052 3.47.556 6.934 1.515 10.295l4.43 29.602H135.5c-12.958 0-23.5 10.542-23.5 23.5v196.398c0 39.41 16.274 78.017 44.65 105.922 27.058 26.609 62.114 41.178 98.945 41.178.778 0 1.558-.006 2.337-.02 37.763-.631 73.203-15.852 99.79-42.858C384.34 401.083 399 365.349 399 327.5v-200c0-12.958-10.542-23.5-23.5-23.5M271.51 45.64l30.547 48.003c3.149 4.949 2.452 11.302-1.726 15.479-4.147 4.148-10.5 4.846-15.45 1.696L236.877 80.27a24.335 24.335 0 0 1-5.419-9.172l-1.209-8.079c.122-6.364 2.65-12.33 7.164-16.844 9.373-9.37 24.507-9.549 34.097-.535m2.347 75.942-6.869 37.095A11.4 11.4 0 0 1 255.78 168c-5.598 0-10.444-4.175-11.272-9.711l-9.161-61.213zM384 327.5c0 33.886-13.128 65.883-36.967 90.098-23.812 24.187-55.544 37.818-89.352 38.383-33.623.563-65.774-12.526-90.514-36.855C141.641 394.022 127 359.313 127 323.898V127.5c0-4.687 3.813-8.5 8.5-8.5h87.961l6.212 41.509C231.592 173.331 242.815 183 255.78 183c12.724 0 23.64-9.081 25.957-21.591l6.268-33.849c1.188.158 2.381.244 3.573.244 7.059 0 14.045-2.757 19.391-8.103.226-.226.426-.468.643-.7H375.5c4.687 0 8.5 3.813 8.5 8.5z"/><path d="M254.74 71a7.51 7.51 0 0 0 7.5-7.5 7.51 7.51 0 0 0-7.5-7.5 7.51 7.51 0 0 0-7.5 7.5 7.51 7.51 0 0 0 7.5 7.5M255.5 192c-12.958 0-23.5 10.542-23.5 23.5s10.542 23.5 23.5 23.5 23.5-10.542 23.5-23.5-10.542-23.5-23.5-23.5m0 32c-4.687 0-8.5-3.813-8.5-8.5s3.813-8.5 8.5-8.5 8.5 3.813 8.5 8.5-3.813 8.5-8.5 8.5"/></svg>