<?xml version="1.0" encoding="iso-8859-1"?>
<!-- Uploaded to: SVG Repo, www.svgrepo.com, Generator: SVG Repo Mixer Tools -->
<svg fill="#000000" height="800px" width="800px" version="1.1" id="Layer_1" xmlns="http://www.w3.org/2000/svg" xmlns:xlink="http://www.w3.org/1999/xlink" 
	 viewBox="0 0 512 512" xml:space="preserve">
<g>
	<g>
		<path d="M501.801,119.168c5.633,0,10.199-4.567,10.199-10.199c0-5.632-4.566-10.199-10.199-10.199H469.35V76.517h32.451
			c5.633,0,10.199-4.567,10.199-10.199s-4.566-10.199-10.199-10.199H74.455C33.4,56.119,0,89.52,0,130.575v274.701
			c0,27.904,22.701,50.605,50.604,50.605h325.49c5.633,0,10.199-4.567,10.199-10.199V375.07h115.507
			c5.633,0,10.199-4.567,10.199-10.199s-4.566-10.199-10.199-10.199H469.35V332.42h32.451c5.633,0,10.199-4.567,10.199-10.199
			c0-5.632-4.566-10.199-10.199-10.199H469.35V289.77h32.451c5.633,0,10.199-4.567,10.199-10.199s-4.566-10.199-10.199-10.199
			H469.35V247.12h32.451c5.633,0,10.199-4.567,10.199-10.199c0-5.632-4.566-10.199-10.199-10.199H469.35V204.47h32.451
			c5.633,0,10.199-4.567,10.199-10.199c0-5.632-4.566-10.199-10.199-10.199H469.35V161.82h32.451
			c5.633,0,10.199-4.567,10.199-10.199s-4.566-10.199-10.199-10.199H469.35v-22.254H501.801z M365.895,435.483H50.604
			c-13.077,0-24.237-8.356-28.43-20.008h343.721V435.483z M365.896,395.077H22.175c4.193-11.652,15.352-20.007,28.43-20.007h315.291
			V395.077z M448.952,354.672H50.604c-11.313,0-21.769,3.733-30.206,10.029V130.575c0-29.808,24.25-54.058,54.057-54.058h374.496
			V354.672z"/>
	</g>
</g>
<g>
	<g>
		<path d="M240.287,321h-6.735c-5.633,0-10.199,4.567-10.199,10.199c0,5.632,4.566,10.199,10.199,10.199h6.735
			c5.633,0,10.199-4.567,10.199-10.199C250.486,325.567,245.92,321,240.287,321z"/>
	</g>
</g>
<g>
	<g>
		<path d="M419.867,321H282.937c-5.633,0-10.199,4.567-10.199,10.199c0,5.632,4.566,10.199,10.199,10.199h136.929
			c5.633,0,10.199-4.567,10.199-10.199C430.066,325.567,425.5,321,419.867,321z"/>
	</g>
</g>
</svg>