<svg xmlns="http://www.w3.org/2000/svg" xml:space="preserve" width="800" height="800" viewBox="0 0 512 512"><path d="M501.801 119.168c5.633 0 10.199-4.567 10.199-10.199s-4.566-10.199-10.199-10.199H469.35V76.517h32.451c5.633 0 10.199-4.567 10.199-10.199s-4.566-10.199-10.199-10.199H74.455C33.4 56.119 0 89.52 0 130.575v274.701c0 27.904 22.701 50.605 50.604 50.605h325.49c5.633 0 10.199-4.567 10.199-10.199V375.07H501.8c5.633 0 10.199-4.567 10.199-10.199s-4.566-10.199-10.199-10.199h-32.45V332.42h32.451c5.633 0 10.199-4.567 10.199-10.199s-4.566-10.199-10.199-10.199H469.35V289.77h32.451c5.633 0 10.199-4.567 10.199-10.199s-4.566-10.199-10.199-10.199H469.35V247.12h32.451c5.633 0 10.199-4.567 10.199-10.199s-4.566-10.199-10.199-10.199H469.35V204.47h32.451c5.633 0 10.199-4.567 10.199-10.199s-4.566-10.199-10.199-10.199H469.35V161.82h32.451c5.633 0 10.199-4.567 10.199-10.199s-4.566-10.199-10.199-10.199H469.35v-22.254h32.451zM365.895 435.483H50.604c-13.077 0-24.237-8.356-28.43-20.008h343.721zm.001-40.406H22.175c4.193-11.652 15.352-20.007 28.43-20.007h315.291zm83.056-40.405H50.604c-11.313 0-21.769 3.733-30.206 10.029V130.575c0-29.808 24.25-54.058 54.057-54.058h374.496v278.155z"/><path d="M240.287 321h-6.735c-5.633 0-10.199 4.567-10.199 10.199s4.566 10.199 10.199 10.199h6.735c5.633 0 10.199-4.567 10.199-10.199S245.92 321 240.287 321M419.867 321h-136.93c-5.633 0-10.199 4.567-10.199 10.199s4.566 10.199 10.199 10.199h136.929c5.633 0 10.199-4.567 10.199-10.199.001-5.632-4.565-10.199-10.198-10.199"/></svg>