<?xml version="1.0" encoding="iso-8859-1"?>
<!-- Uploaded to: SVG Repo, www.svgrepo.com, Generator: SVG Repo Mixer Tools -->
<svg fill="#000000" height="800px" width="800px" version="1.1" id="Layer_1" xmlns="http://www.w3.org/2000/svg" xmlns:xlink="http://www.w3.org/1999/xlink" 
	 viewBox="0 0 511.999 511.999" xml:space="preserve">
<g>
	<g>
		<circle cx="258.179" cy="87.613" r="37.383"/>
	</g>
</g>
<g>
	<g>
		<path d="M306.688,136.915H286.54l-28.292,73.914l-28.821-73.914h-19.765c-23.786,0-43.233,19.052-43.352,42.562v132.515
			c0,9.962,8.076,18.038,18.037,18.038c9.962,0,18.038-8.076,18.038-18.038V179.568v-0.003c0.012-2.156,1.767-3.895,3.923-3.889
			c2.156,0.007,3.9,1.757,3.9,3.913c0.001,44.016,0.008,293.635,0.008,303.197c0,11.955,9.691,21.645,21.645,21.645
			c11.955,0,21.645-9.692,21.645-21.645V309.775h9.346v173.011c0,11.955,9.691,21.645,21.645,21.645
			c11.955,0,21.645-9.692,21.645-21.645c0-80.788,0-220.623,0-304.074c0-1.954,1.584-3.538,3.538-3.538
			c1.918,0,3.794,1.531,3.496,4.303v132.515c0,9.962,8.076,18.038,18.038,18.038c9.961,0,18.037-8.076,18.037-18.038V179.387
			C349.134,155.967,330.04,136.915,306.688,136.915z"/>
	</g>
</g>
<g>
	<g>
		<circle cx="258.19" cy="184.476" r="4.942"/>
	</g>
</g>
<g>
	<g>
		<circle cx="258.19" cy="164.71" r="4.943"/>
	</g>
</g>
<g>
	<g>
		<path d="M270.763,131.498l-12.57,6.549l-12.57-6.549c-2.2-1.146-4.838,0.453-4.838,2.935v15.602c0,2.481,2.638,4.082,4.838,2.935
			l12.57-6.55l12.57,6.55c2.199,1.146,4.838-0.452,4.838-2.935v-15.602C275.601,131.953,272.964,130.352,270.763,131.498z"/>
	</g>
</g>
<g>
	<g>
		<circle cx="419.45" cy="45.754" r="38.186"/>
	</g>
</g>
<g>
	<g>
		<path d="M467.718,96.111c-11.012,0-86.958,0-97.819,0c-16.611,0-31.147,9.101-38.722,22.532
			c13.556,5.473,24.695,15.755,31.289,28.728c0-8.304-0.095-8.255,0.288-9.409c1.242-3.743,6.813-2.851,6.813,1.101
			c0,44.08,0,310.344,0,310.344c0,12.212,10.797,22.109,23.009,22.109s22.109-9.899,22.109-22.109V272.681h9.546v176.726
			c0,12.212,9.899,22.109,22.109,22.109s22.109-9.899,22.109-22.109c0-185.142-0.401-209.53-0.401-211.944
			c-1.531,0.159-31.294,3.255-33.031,3.437c-20.008,2.086-37.956-12.445-40.043-32.495c-2.085-20.03,12.464-37.957,32.495-40.043
			c1.264-0.131,39.315-4.091,40.578-4.222v-24.536c0-4.682,7.076-4.699,7.1-0.018c0,23.328,0,18.257,0,41.952l-45.81,4.766
			c-10.121,1.053-17.473,10.111-16.42,20.233c1.054,10.126,10.116,17.473,20.233,16.42l62.329-6.485
			c9.388-0.977,16.519-8.888,16.519-18.326c0-13.189,0-47.134,0-58.651C511.88,115.574,492.014,96.111,467.718,96.111z"/>
	</g>
</g>
<g>
	<g>
		<circle cx="93.19" cy="46.889" r="38.186"/>
	</g>
</g>
<g>
	<g>
		<path d="M142.101,97.244c-19.474,0-77.932,0-97.82,0C19.985,97.244,0.12,116.706,0,140.721v58.56
			c0,6.513,3.439,12.542,9.044,15.858l27.836,16.467l-0.03-90.793v-0.002c0.011-2.141,1.754-3.87,3.895-3.863
			c2.141,0.007,3.873,1.746,3.871,3.888c-0.038,45.819,0.014,309.705,0.014,309.705c0,12.212,9.899,22.109,22.109,22.109
			c12.211,0,22.109-9.899,22.109-22.109V273.814h9.546v176.725c0,12.212,9.899,22.109,22.109,22.109
			c12.211,0,22.109-9.899,22.109-22.109c0-166.391,0-282.718,0-310.204c0-1.913,1.551-3.464,3.464-3.463
			c1.912,0.001,3.461,1.553,3.461,3.465c0,0.125-0.003,0.252-0.009,0.382v24.251c3.139-19.059,15.342-35.156,32.047-43.817
			C174.246,106.987,159.288,97.244,142.101,97.244z"/>
	</g>
</g>
</svg>