<svg xmlns="http://www.w3.org/2000/svg" xml:space="preserve" width="800" height="800" viewBox="0 0 511.999 511.999" fill="#7367F0"><path d="M250.362 421.286a12.588 12.588 0 0 0-.671-2.197 11.982 11.982 0 0 0-1.081-2.02c-.423-.647-.916-1.246-1.457-1.787s-1.139-1.034-1.785-1.468a11.894 11.894 0 0 0-4.229-1.751 11.642 11.642 0 0 0-4.593 0c-.74.154-1.48.376-2.197.67-.705.294-1.386.659-2.02 1.081-.646.435-1.245.928-1.785 1.468a11.137 11.137 0 0 0-1.468 1.787 11.949 11.949 0 0 0-1.081 2.02 12.422 12.422 0 0 0-.67 2.197 11.786 11.786 0 0 0 3.22 10.607c.54.54 1.139 1.034 1.786 1.455.634.423 1.316.787 2.02 1.081.717.294 1.457.517 2.197.67.763.153 1.54.235 2.302.235.764 0 1.54-.082 2.291-.235a11.818 11.818 0 0 0 2.197-.67 12.06 12.06 0 0 0 2.032-1.081 11.187 11.187 0 0 0 1.785-1.455 11.27 11.27 0 0 0 1.457-1.787 11.964 11.964 0 0 0 1.751-4.228c.153-.753.234-1.528.234-2.291a11.829 11.829 0 0 0-.235-2.301"/><path d="M487.935 313.147 391.047 51.934c-5.985-16.14-21.57-26.986-38.785-26.986h-18.65L321.063 5.707c-.451-.692-.987-1.303-1.556-1.872-.193-.211-.402-.404-.607-.6-.013-.011-.023-.023-.036-.035a11.738 11.738 0 0 0-8.032-3.2H201.167a11.731 11.731 0 0 0-8.025 3.196c-.026.022-.048.048-.074.07-.194.184-.39.365-.571.564-.572.571-1.108 1.183-1.56 1.876l-12.55 19.242h-18.65c-17.215 0-32.802 10.844-38.785 26.986L24.064 313.147a11.744 11.744 0 0 0 6.331 14.857l59.013 25.65c1.493.65 3.087.974 4.682.974a11.746 11.746 0 0 0 10.915-7.405l46.528-116.975 2.696 10.531 3.148 12.31-10.6 29.894-10.974 30.948c-19.016 53.628-28.656 109.67-28.656 166.57v19.752c0 6.487 5.26 11.747 11.747 11.747H393.104c6.487 0 11.747-5.26 11.747-11.747V480.5c0-56.898-9.641-112.94-28.656-166.57l-10.974-30.948-10.6-29.894 3.148-12.31 2.696-10.531 46.529 116.975a11.753 11.753 0 0 0 10.915 7.405c1.595 0 3.19-.324 4.682-.974l59.013-25.65c5.721-2.485 8.5-9.008 6.331-14.856M294.756 23.493 256 144.975 217.243 23.493h77.513M154.711 180.64a11.759 11.759 0 0 0-11.664 7.382l-55.39 139.254-37.699-16.384 93.022-250.79c2.584-6.974 9.319-11.66 16.757-11.66h25.013c3.969 0 7.671-2.005 9.839-5.329l2.527-3.875 47.688 149.064.007.026 12.09 37.79h-82.174l-9.387-36.667a11.747 11.747 0 0 0-10.629-8.811m26.315 70.096-.288-1.124h8.341v25.551h-14.601l6.237-17.593a11.74 11.74 0 0 0 .311-6.834m85.197 199.05v38.721H130.642v-8.005c0-54.217 9.186-107.618 27.304-158.718l8.2-23.127h22.931v44.25c0 6.486 5.26 11.747 11.747 11.747s11.747-5.26 11.747-11.747v-44.25h14.528v88.148c0 6.487 5.26 11.747 11.747 11.747s11.747-5.26 11.747-11.747v-88.148h15.699zm-53.651-174.623v-25.551h118.689l-.288 1.124a11.724 11.724 0 0 0-.283 1.594c-.019.172-.02.344-.033.517-.018.268-.049.534-.049.802 0 .128.012.256.016.384l.012.274c.028.504.086 1.007.18 1.505.014.074.032.146.047.219a11.7 11.7 0 0 0 .421 1.54l6.239 17.593H212.572zm168.785 205.338v8.005h-91.638v-38.715l.068-151.136h56.066l8.2 23.127c18.118 51.101 27.304 104.502 27.304 158.719m42.986-153.225-55.39-139.254a11.747 11.747 0 0 0-22.295 1.43l-9.387 36.667h-55.703l-13.235-41.371 46.55-145.509 2.527 3.875a11.748 11.748 0 0 0 9.839 5.329h25.013c7.438 0 14.171 4.686 16.757 11.66l.001.002 93.021 250.787z"/><path d="M212.337 377.389a11.49 11.49 0 0 0-.67-2.197 11.91 11.91 0 0 0-1.081-2.02c-.423-.646-.916-1.246-1.457-1.787s-1.139-1.034-1.786-1.468a11.683 11.683 0 0 0-2.032-1.081 11.76 11.76 0 0 0-2.197-.668 11.568 11.568 0 0 0-4.593 0c-.74.153-1.48.375-2.195.668a12 12 0 0 0-2.022 1.081c-.646.435-1.245.928-1.786 1.468-.54.54-1.034 1.141-1.468 1.787a11.093 11.093 0 0 0-1.069 2.02 11.496 11.496 0 0 0-.67 2.197 11.753 11.753 0 0 0-.234 2.302c0 .764.081 1.539.234 2.291.141.752.376 1.492.67 2.197.282.715.646 1.397 1.069 2.031a12.09 12.09 0 0 0 1.468 1.787c.54.54 1.139 1.034 1.786 1.455.634.423 1.316.788 2.022 1.082.715.294 1.455.516 2.195.668.764.153 1.54.235 2.304.235.762 0 1.539-.082 2.289-.235a11.888 11.888 0 0 0 4.229-1.75 11.24 11.24 0 0 0 1.786-1.455 11.27 11.27 0 0 0 1.457-1.787c.423-.634.787-1.316 1.081-2.031.294-.706.529-1.445.67-2.197a11.56 11.56 0 0 0 .235-2.291c0-.763-.083-1.538-.235-2.302"/></svg>