<?xml version="1.0" encoding="iso-8859-1"?>
<!-- Uploaded to: SVG Repo, www.svgrepo.com, Generator: SVG Repo Mixer Tools -->
<svg fill="#000000" height="800px" width="800px" version="1.1" id="Layer_1" xmlns="http://www.w3.org/2000/svg" xmlns:xlink="http://www.w3.org/1999/xlink" 
	 viewBox="0 0 511.999 511.999" xml:space="preserve">
<g>
	<g>
		<path d="M250.362,421.286c-0.154-0.739-0.377-1.479-0.671-2.197c-0.294-0.705-0.659-1.386-1.081-2.02
			c-0.423-0.647-0.916-1.246-1.457-1.787s-1.139-1.034-1.785-1.468c-0.634-0.422-1.329-0.787-2.032-1.081
			c-0.704-0.294-1.444-0.516-2.197-0.67c-1.515-0.305-3.078-0.305-4.593,0c-0.74,0.154-1.48,0.376-2.197,0.67
			c-0.705,0.294-1.386,0.659-2.02,1.081c-0.646,0.435-1.245,0.928-1.785,1.468c-0.553,0.54-1.034,1.139-1.468,1.787
			c-0.423,0.634-0.787,1.316-1.081,2.02c-0.294,0.716-0.517,1.457-0.67,2.197c-0.153,0.762-0.223,1.539-0.223,2.302
			c0,3.089,1.246,6.12,3.443,8.305c0.54,0.54,1.139,1.034,1.786,1.455c0.634,0.423,1.316,0.787,2.02,1.081
			c0.717,0.294,1.457,0.517,2.197,0.67c0.763,0.153,1.54,0.235,2.302,0.235c0.764,0,1.54-0.082,2.291-0.235
			c0.753-0.153,1.493-0.376,2.197-0.67c0.704-0.294,1.398-0.658,2.032-1.081c0.646-0.422,1.245-0.915,1.785-1.455
			c0.54-0.54,1.034-1.141,1.457-1.787c0.422-0.634,0.787-1.316,1.081-2.031c0.294-0.706,0.516-1.445,0.67-2.197
			c0.153-0.753,0.234-1.528,0.234-2.291C250.596,422.825,250.515,422.049,250.362,421.286z"/>
	</g>
</g>
<g>
	<g>
		<path d="M487.935,313.147L391.047,51.934c-5.985-16.14-21.57-26.986-38.785-26.986h-18.65L321.063,5.707
			c-0.451-0.692-0.987-1.303-1.556-1.872c-0.193-0.211-0.402-0.404-0.607-0.6c-0.013-0.011-0.023-0.023-0.036-0.035
			C316.703,1.172,313.847,0,310.832,0H201.167c-3.012,0-5.867,1.171-8.025,3.196c-0.026,0.022-0.048,0.048-0.074,0.07
			c-0.194,0.184-0.39,0.365-0.571,0.564c-0.572,0.571-1.108,1.183-1.56,1.876l-12.55,19.242h-18.65
			c-17.215,0-32.802,10.844-38.785,26.986L24.064,313.147c-2.17,5.849,0.611,12.372,6.331,14.857l59.013,25.65
			c1.493,0.65,3.087,0.974,4.682,0.974c1.521,0,3.044-0.296,4.479-0.887c2.939-1.212,5.261-3.564,6.436-6.518l46.528-116.975
			l2.696,10.531l3.148,12.31l-10.6,29.894l-10.974,30.948c-19.016,53.628-28.656,109.67-28.656,166.57v19.752
			c0,6.487,5.26,11.747,11.747,11.747h159.078h115.132c6.487,0,11.747-5.26,11.747-11.747V480.5
			c0-56.898-9.641-112.94-28.656-166.57l-10.974-30.948l-10.6-29.894l3.148-12.31l2.696-10.531l46.529,116.975
			c1.176,2.954,3.498,5.306,6.436,6.518c1.435,0.592,2.958,0.887,4.479,0.887c1.595,0,3.19-0.324,4.682-0.974l59.013-25.65
			C487.325,325.518,490.104,318.995,487.935,313.147z M294.756,23.493L256,144.975L217.243,23.493H294.756z M154.711,180.64
			c-5.071-0.32-9.783,2.656-11.664,7.382l-55.39,139.254l-37.699-16.384l93.022-250.79c2.584-6.974,9.319-11.66,16.757-11.66h25.013
			c3.969,0,7.671-2.005,9.839-5.329l2.527-3.875l47.688,149.064c0.002,0.008,0.005,0.018,0.007,0.026l12.09,37.79h-82.174
			l-9.387-36.667C164.078,184.521,159.787,180.965,154.711,180.64z M181.026,250.736l-0.288-1.124h8.341v25.551h-14.601
			l6.237-17.593C181.495,255.373,181.603,252.993,181.026,250.736z M266.223,449.786v38.721H130.642v-8.005
			c0-54.217,9.186-107.618,27.304-158.718l8.2-23.127h22.931v44.25c0,6.486,5.26,11.747,11.747,11.747s11.747-5.26,11.747-11.747
			v-44.25h14.528v88.148c0,6.487,5.26,11.747,11.747,11.747c6.487,0,11.747-5.26,11.747-11.747v-88.148h15.699L266.223,449.786z
			 M212.572,275.163v-25.551h60.422h58.267l-0.288,1.124c-0.134,0.526-0.223,1.058-0.283,1.594c-0.019,0.172-0.02,0.344-0.033,0.517
			c-0.018,0.268-0.049,0.534-0.049,0.802c0,0.128,0.012,0.256,0.016,0.384c0.004,0.092,0.007,0.182,0.012,0.274
			c0.028,0.504,0.086,1.007,0.18,1.505c0.014,0.074,0.032,0.146,0.047,0.219c0.108,0.52,0.242,1.036,0.421,1.54l6.239,17.593
			h-59.477H212.572z M381.357,480.501v8.005h-91.638v-38.715l0.068-151.136h56.066l8.2,23.127
			C372.171,372.883,381.357,426.284,381.357,480.501z M424.343,327.276l-55.39-139.254c-1.787-4.491-6.127-7.405-10.91-7.405
			c-0.251,0-0.504,0.008-0.757,0.025c-5.076,0.325-9.367,3.881-10.628,8.81l-9.387,36.667h-55.703l-13.235-41.371l46.55-145.509
			l2.527,3.875c2.168,3.324,5.87,5.329,9.839,5.329h25.013c7.438,0,14.171,4.686,16.757,11.66c0.001,0.001,0.001,0.001,0.001,0.002
			l93.021,250.787L424.343,327.276z"/>
	</g>
</g>
<g>
	<g>
		<path d="M212.337,377.389c-0.14-0.739-0.376-1.479-0.67-2.197c-0.294-0.705-0.658-1.386-1.081-2.02
			c-0.423-0.646-0.916-1.246-1.457-1.787s-1.139-1.034-1.786-1.468c-0.634-0.422-1.316-0.787-2.032-1.081
			c-0.705-0.294-1.444-0.516-2.197-0.668c-1.515-0.307-3.078-0.307-4.593,0c-0.74,0.153-1.48,0.375-2.195,0.668
			c-0.706,0.294-1.387,0.659-2.022,1.081c-0.646,0.435-1.245,0.928-1.786,1.468c-0.54,0.54-1.034,1.141-1.468,1.787
			c-0.423,0.634-0.787,1.316-1.069,2.02c-0.294,0.716-0.529,1.457-0.67,2.197c-0.153,0.763-0.234,1.539-0.234,2.302
			c0,0.764,0.081,1.539,0.234,2.291c0.141,0.752,0.376,1.492,0.67,2.197c0.282,0.715,0.646,1.397,1.069,2.031
			c0.435,0.646,0.928,1.246,1.468,1.787c0.54,0.54,1.139,1.034,1.786,1.455c0.634,0.423,1.316,0.788,2.022,1.082
			c0.715,0.294,1.455,0.516,2.195,0.668c0.764,0.153,1.54,0.235,2.304,0.235c0.762,0,1.539-0.082,2.289-0.235
			c0.753-0.153,1.493-0.375,2.197-0.668c0.717-0.294,1.398-0.659,2.032-1.082c0.646-0.422,1.245-0.915,1.786-1.455
			c0.54-0.54,1.034-1.141,1.457-1.787c0.423-0.634,0.787-1.316,1.081-2.031c0.294-0.706,0.529-1.445,0.67-2.197
			c0.153-0.753,0.235-1.527,0.235-2.291C212.572,378.928,212.489,378.153,212.337,377.389z"/>
	</g>
</g>
</svg>