<svg xmlns="http://www.w3.org/2000/svg" xml:space="preserve" width="800" height="800" viewBox="0 0 511.999 511.999"><circle cx="258.179" cy="87.613" r="37.383"/><path d="M306.688 136.915H286.54l-28.292 73.914-28.821-73.914h-19.765c-23.786 0-43.233 19.052-43.352 42.562v132.515c0 9.962 8.076 18.038 18.037 18.038 9.962 0 18.038-8.076 18.038-18.038V179.565a3.911 3.911 0 0 1 7.823.024l.008 303.197c0 11.955 9.691 21.645 21.645 21.645 11.955 0 21.645-9.692 21.645-21.645V309.775h9.346v173.011c0 11.955 9.691 21.645 21.645 21.645 11.955 0 21.645-9.692 21.645-21.645V178.712a3.538 3.538 0 0 1 3.538-3.538c1.918 0 3.794 1.531 3.496 4.303v132.515c0 9.962 8.076 18.038 18.038 18.038 9.961 0 18.037-8.076 18.037-18.038V179.387c-.117-23.42-19.211-42.472-42.563-42.472"/><circle cx="258.19" cy="184.476" r="4.942"/><circle cx="258.19" cy="164.71" r="4.943"/><path d="m270.763 131.498-12.57 6.549-12.57-6.549c-2.2-1.146-4.838.453-4.838 2.935v15.602c0 2.481 2.638 4.082 4.838 2.935l12.57-6.55 12.57 6.55c2.199 1.146 4.838-.452 4.838-2.935v-15.602c0-2.48-2.637-4.081-4.838-2.935"/><circle cx="419.45" cy="45.754" r="38.186"/><path d="M467.718 96.111h-97.819c-16.611 0-31.147 9.101-38.722 22.532 13.556 5.473 24.695 15.755 31.289 28.728 0-8.304-.095-8.255.288-9.409 1.242-3.743 6.813-2.851 6.813 1.101v310.344c0 12.212 10.797 22.109 23.009 22.109s22.109-9.899 22.109-22.109V272.681h9.546v176.726c0 12.212 9.899 22.109 22.109 22.109s22.109-9.899 22.109-22.109c0-185.142-.401-209.53-.401-211.944-1.531.159-31.294 3.255-33.031 3.437-20.008 2.086-37.956-12.445-40.043-32.495-2.085-20.03 12.464-37.957 32.495-40.043l40.578-4.222v-24.536c0-4.682 7.076-4.699 7.1-.018v41.952l-45.81 4.766c-10.121 1.053-17.473 10.111-16.42 20.233 1.054 10.126 10.116 17.473 20.233 16.42l62.329-6.485c9.388-.977 16.519-8.888 16.519-18.326v-58.651c-.118-23.921-19.984-43.384-44.28-43.384"/><circle cx="93.19" cy="46.889" r="38.186"/><path d="M142.101 97.244h-97.82C19.985 97.244.12 116.706 0 140.721v58.56a18.426 18.426 0 0 0 9.044 15.858l27.836 16.467-.03-90.793v-.002a3.883 3.883 0 0 1 7.766.025c-.038 45.819.014 309.705.014 309.705 0 12.212 9.899 22.109 22.109 22.109 12.211 0 22.109-9.899 22.109-22.109V273.814h9.546v176.725c0 12.212 9.899 22.109 22.109 22.109 12.211 0 22.109-9.899 22.109-22.109V140.335a3.463 3.463 0 1 1 6.925.002c0 .125-.003.252-.009.382v24.251c3.139-19.059 15.342-35.156 32.047-43.817-7.329-14.166-22.287-23.909-39.474-23.909"/></svg>