<?xml version="1.0" encoding="iso-8859-1"?>
<!-- Uploaded to: SVG Repo, www.svgrepo.com, Generator: SVG Repo Mixer Tools -->
<svg fill="#000000" height="800px" width="800px" version="1.1" id="Layer_1" xmlns="http://www.w3.org/2000/svg" xmlns:xlink="http://www.w3.org/1999/xlink" 
	 viewBox="0 0 512.002 512.002" xml:space="preserve">
<g>
	<g>
		<path d="M445.185,378.542h-77.429c6.249-5.053,12.123-10.74,17.545-16.815c1.537-1.72,37.627-42.737,37.627-94.581
			c0-51.843-36.09-92.861-37.638-94.593l-50.078-55.976c-4.615-5.159-11.933-6.932-18.398-4.465
			c-6.466,2.471-10.736,8.674-10.736,15.594v72.669c0,9.204-7.488,16.693-16.693,16.693c-9.204,0-16.693-7.488-16.693-16.693
			v-38.727c0-37.433-12.895-74.11-36.31-103.276c-23.239-28.945-55.911-49.339-92.091-57.5c-16.129-5.24-28.907,14.328-17.593,27
			c0.292,0.326,29.144,33.096,29.144,72.346c0,38.894-28.883,72.049-29.144,72.346c-1.537,1.72-37.627,42.738-37.627,94.581
			c0,38.099,21.053,83.804,55.172,111.396H66.816c-36.818,0-66.771,29.842-66.771,66.66c0,0.004,0,0.009,0,0.014s0,0.009,0,0.014
			c0,36.818,29.953,66.771,66.771,66.771c0.374,0,0.741-0.022,1.113-0.028h377.256c36.818,0,66.771-29.953,66.771-66.771
			C511.956,408.385,482.003,378.542,445.185,378.542z M122.459,267.146c0-38.893,28.883-72.049,29.144-72.346
			c1.537-1.721,37.627-42.737,37.627-94.581c0-18.023-4.362-34.741-10.118-48.951c36.497,23.763,60.196,65.082,60.196,110.381
			v38.727c0,27.613,22.465,50.078,50.078,50.078s50.078-22.465,50.078-50.078v-28.974l20.904,23.365
			c0.292,0.331,29.174,33.487,29.174,72.38c0,38.894-28.883,72.049-29.147,72.349c-22.086,24.744-53.774,38.936-86.94,38.936
			h-34.911c-33.165-0.001-64.854-14.193-86.941-38.94C151.312,339.166,122.459,306.397,122.459,267.146z M67.93,478.587h-1.113
			c-18.404,0-33.378-14.969-33.385-33.371c0.008-18.402,14.981-33.371,33.385-33.371c18.409,0,33.385,14.977,33.385,33.385
			C100.202,463.266,85.824,477.996,67.93,478.587z M445.185,478.699H124.621c5.691-9.823,8.966-21.323,8.966-33.469
			c0-12.169-3.288-23.578-9-33.413h27.797c7.422,28.781,33.6,50.106,64.665,50.106h72.335c9.219,0,16.693-7.474,16.693-16.693
			c0-9.219-7.474-16.693-16.693-16.693H217.05c-12.341,0-23.133-6.737-28.911-16.721c12.995,0,244.531,0,257.045,0
			c18.409,0,33.385,14.977,33.385,33.385S463.594,478.699,445.185,478.699z"/>
	</g>
</g>
<g>
	<g>
		<path d="M445.185,428.537h-89.028c-9.219,0-16.693,7.474-16.693,16.693c0,9.219,7.474,16.693,16.693,16.693h89.028
			c9.219,0,16.693-7.474,16.693-16.693C461.878,436.011,454.404,428.537,445.185,428.537z"/>
	</g>
</g>
</svg>