<?xml version="1.0" encoding="iso-8859-1"?>
<!-- Uploaded to: SVG Repo, www.svgrepo.com, Generator: SVG Repo Mixer Tools -->
<svg fill="#000000" height="800px" width="800px" version="1.1" id="Layer_1" xmlns="http://www.w3.org/2000/svg" xmlns:xlink="http://www.w3.org/1999/xlink" 
	 viewBox="0 0 301.015 301.015" xml:space="preserve">
<g>
	<g>
		<g>
			<circle cx="53.092" cy="233.219" r="4.875"/>
			<circle cx="139.607" cy="244.139" r="4.875"/>
			<circle cx="231.712" cy="233.219" r="4.875"/>
			<path d="M275.392,128.7c-6.5-16.185-12.61-31.46-14.04-47.32v-0.065c-0.845-8.125,2.34-17.615,5.525-26.78
				c4.94-14.495,10.53-30.94-1.04-43.16c-5.915-6.76-17.095-11.31-27.95-11.31c-9.945,0-21.125,4.485-27.82,11.115l-0.195,0.195
				c-11.18,12.35-5.785,28.21-0.52,43.55c3.12,9.1,6.305,18.46,5.785,26.52c-1.365,15.535-7.735,30.55-14.495,46.41
				c-2.925,6.955-5.98,14.04-8.58,21.255c-1.235-3.055-2.47-6.11-3.77-9.165c-6.435-15.535-13.13-31.655-14.56-48.035
				c-0.585-7.995,2.73-17.355,5.98-26.39c5.395-15.275,11.05-31.07-0.78-42.965c-6.63-7.475-17.615-12.09-28.73-12.09
				c-11.18,0-22.165,4.615-28.795,12.09c-11.05,11.7-5.655,27.04-0.455,41.925c3.25,9.36,6.63,18.98,5.72,27.235v0.065
				c-1.495,16.64-8.125,32.955-14.56,48.75c-1.105,2.73-2.21,5.395-3.315,8.19c-2.47-6.89-5.33-13.715-8.125-20.345
				c-6.76-16.185-13.195-31.46-14.56-47.06V81.25c-0.91-8.19,2.47-17.81,5.655-27.17c5.2-15.08,10.595-30.615-0.455-42.77
				l-0.195-0.195C84.357,4.355,73.112,0,62.517,0c-9.945,0-21.125,4.485-27.82,11.115l-0.195,0.195
				c-11.18,12.35-5.785,28.21-0.52,43.55c3.12,9.1,6.305,18.46,5.785,26.52c-1.43,15.86-7.54,31.07-14.04,47.255
				c-7.475,18.655-15.21,37.895-15.21,58.305c-0.65,20.865,6.695,40.495,13.78,59.475c2.015,5.46,4.16,11.115,5.98,16.64
				l0.065,0.195c0.65,1.755,1.17,3.77,1.625,5.915c1.235,5.135,2.6,10.985,7.54,14.235l0.065,0.065
				c6.5,4.16,14.95,6.305,23.205,6.305c8.32,0,16.51-2.08,22.62-6.24c5.655-3.38,7.215-9.425,8.515-14.82
				c0.455-1.95,0.91-3.77,1.56-5.395l0.065-0.195c1.95-5.915,4.485-11.96,6.955-17.81c0.78-1.885,1.56-3.77,2.34-5.655
				c1.885,5.59,3.965,11.115,5.98,16.575c2.145,5.72,4.355,11.635,6.305,17.42l0.065,0.195c0.65,1.69,1.105,3.51,1.56,5.525
				c1.3,5.395,2.795,11.44,8.255,15.34l0.195,0.13c6.435,4.095,14.885,6.175,23.335,6.175c8.45,0,16.9-2.08,23.335-6.175l0.195-0.13
				c5.46-3.9,6.955-10.01,8.255-15.34c0.52-2.015,0.975-3.835,1.56-5.525l0.065-0.195c1.82-5.525,3.965-11.18,5.98-16.64
				c2.145-5.72,4.29-11.57,6.24-17.42c0.78,1.95,1.625,3.835,2.405,5.72c2.405,5.785,4.94,11.765,6.89,17.615
				c0.325,1.235,0.585,2.665,0.845,4.095c1.04,5.72,2.34,12.87,8.645,16.51c6.5,4.16,14.69,6.24,22.815,6.24
				s16.315-2.08,22.815-6.24c5.72-3.315,7.28-9.49,8.58-14.885c0.455-1.95,0.91-3.77,1.56-5.395l0.065-0.195
				c1.69-5.135,3.64-10.4,5.46-15.47c7.02-19.305,14.3-39.325,14.3-60.58C290.602,166.66,282.867,147.355,275.392,128.7z
				 M41.652,18.005c4.94-4.81,13.455-8.19,20.8-8.19c7.995,0,16.64,3.315,21.645,8.19c7.02,7.865,2.99,19.5-1.625,32.955
				c-2.275,6.565-4.615,13.26-5.72,19.89l-3.38,1.69c-7.605,3.445-16.705,3.38-24.31-0.065l-0.065,0.065
				c-1.04-6.955-3.445-13.975-5.785-20.865C38.467,38.025,34.437,26.065,41.652,18.005z M77.922,93.015
				c-9.49,5.005-20.54,5.59-30.42,1.69c0.845-3.9,1.495-7.735,1.885-11.635c3.834,1.17,7.865,1.82,11.895,1.82
				c5.135,0,10.27-0.975,15.015-2.925c0,0.13,0,0.26,0,0.39C76.622,85.93,77.207,89.505,77.922,93.015z M96.642,197.6v0.13
				c0,9.165,1.43,18.07,3.64,26.78c-2.015,5.525-4.485,11.375-6.825,17.03c-2.535,5.98-5.07,12.155-7.15,18.395
				c-0.78,2.145-1.3,4.29-1.82,6.37c-1.17,4.68-2.015,7.67-4.095,8.84l-0.325,0.195c-8.97,6.175-25.415,6.175-35.165-0.065
				c-1.69-1.17-2.6-4.81-3.38-8.385c-0.52-2.275-1.105-4.68-1.95-6.955c-1.885-5.655-4.03-11.31-6.045-16.835
				c-6.76-18.135-13.715-36.855-13.13-55.835v-0.13c0-18.525,7.02-36.14,14.495-54.73c3.705-9.23,7.41-18.59,10.27-28.145
				c5.135,1.885,10.465,2.795,15.795,2.795c6.695,0,13.325-1.43,19.565-4.355c2.99,10.075,7.15,19.955,11.18,29.64
				c4.29,10.27,8.775,20.865,11.635,31.33C99.632,174.655,96.902,185.9,96.642,197.6z M128.492,29.38l0.13-0.13
				c4.745-5.395,13.195-8.84,21.515-8.84c8.32,0,16.77,3.51,21.515,8.84l0.195,0.26c7.085,7.02,4.16,17.095-1.43,32.89
				c-2.275,6.435-4.615,13-5.785,19.565c-10.4,4.225-19.5,4.16-28.73-0.065c-1.105-6.825-3.445-13.715-5.785-20.41
				C124.722,46.02,121.927,36.205,128.492,29.38z M165.672,104.26c-9.88,4.615-21.255,4.615-31.135,0
				c0.845-3.77,1.43-7.54,1.755-11.44c0-0.13,0-0.195,0-0.325c4.485,1.56,8.97,2.34,13.585,2.34c4.55,0,9.23-0.78,14.04-2.275
				c0,0.065,0,0.13,0,0.195v0.065C164.242,96.655,164.892,100.49,165.672,104.26z M180.817,253.565
				c-2.08,5.525-4.16,11.18-6.045,16.835c-0.78,2.145-1.365,4.42-1.885,6.565c-1.04,4.225-1.95,7.865-4.355,9.685
				c-9.75,6.175-26.13,6.175-35.945,0c-2.47-1.82-3.315-5.46-4.355-9.685c-0.52-2.145-1.04-4.355-1.885-6.565
				c-1.95-5.915-4.225-11.895-6.37-17.68c-6.695-17.875-13.65-36.335-13.65-55.12c0.39-18.135,7.41-35.23,14.755-53.3
				c4.03-9.945,8.19-20.085,11.18-30.485c5.72,2.405,11.83,3.64,17.94,3.64c6.11,0,12.22-1.235,18.005-3.64
				c2.99,10.205,7.085,20.15,11.115,29.9c7.54,18.265,14.755,35.555,14.755,53.885v0.13
				C194.597,216.71,187.577,235.495,180.817,253.565z M217.022,18.005c4.94-4.81,13.455-8.19,20.8-8.19
				c8.125,0,16.575,3.315,20.67,7.995l0.195,0.195c7.085,7.475,4.355,17.55-1.04,33.345c-2.21,6.5-4.485,13.13-5.525,19.76
				c-9.945,4.095-18.915,4.485-27.755,1.105c-1.105-6.89-3.445-13.78-5.72-20.54C213.837,38.025,209.807,26.065,217.022,18.005z
				 M253.357,93.34c-9.555,4.745-20.67,5.07-30.42,0.975c0.845-3.835,1.495-7.67,1.82-11.635c3.835,1.105,7.67,1.625,11.635,1.625
				c4.94,0,10.01-0.845,15.21-2.6c0,0.195,0,0.39,0.065,0.585C251.992,85.995,252.577,89.7,253.357,93.34z M267.137,244.27
				c-1.885,5.135-3.77,10.4-5.525,15.6c-0.78,2.145-1.3,4.29-1.82,6.37c-1.17,4.68-2.015,7.67-4.095,8.84l-0.195,0.13
				c-9.75,6.24-25.61,6.24-35.36,0l-0.195-0.13c-2.405-1.365-3.185-5.525-3.965-9.88c-0.325-1.625-0.585-3.25-0.975-4.875
				l-0.13-0.39c-2.08-6.24-4.68-12.48-7.215-18.46c-2.405-5.785-4.94-11.7-6.89-17.55c2.015-8.645,3.25-17.42,2.99-26.52
				c0-11.57-2.6-22.685-6.175-33.54c2.925-10.855,7.54-21.71,12.025-32.305c3.9-9.1,7.8-18.395,10.725-27.82
				c5.395,2.08,11.05,3.12,16.705,3.12c6.37,0,12.74-1.3,18.72-3.965c2.86,9.945,6.76,19.76,10.595,29.315
				c7.475,18.59,14.495,36.205,14.495,54.73C280.852,206.57,273.897,225.745,267.137,244.27z"/>
			<path d="M136.617,225.42c-5.33-10.66-8.385-23.725-8.385-35.88c0-2.665-2.21-4.875-4.875-4.875s-4.875,2.21-4.875,4.875
				c0,13.585,3.445,28.275,9.425,40.235c0.845,1.69,2.6,2.665,4.355,2.665c0.78,0,1.495-0.195,2.21-0.455
				C136.877,230.75,137.852,227.825,136.617,225.42z"/>
			<path d="M229.112,214.695c-6.11-11.375-9.165-23.4-9.165-35.75c0-2.665-2.21-4.875-4.875-4.875c-2.665,0-4.875,2.21-4.875,4.875
				c0,13.975,3.51,27.56,10.335,40.365c0.845,1.69,2.535,2.6,4.29,2.6c0.781,0,1.561-0.195,2.275-0.585
				C229.502,220.025,230.412,217.1,229.112,214.695z"/>
			<path d="M50.492,214.695c-6.11-11.375-9.165-23.4-9.165-35.75c0-2.665-2.21-4.875-4.875-4.875s-4.875,2.21-4.875,4.875
				c0,13.975,3.51,27.56,10.335,40.365c0.845,1.69,2.535,2.6,4.29,2.6c0.779,0,1.559-0.195,2.275-0.585
				C50.882,220.025,51.792,217.1,50.492,214.695z"/>
		</g>
	</g>
</g>
</svg>