<svg xmlns="http://www.w3.org/2000/svg" xml:space="preserve" width="800" height="800" viewBox="0 0 301.015 301.015"><circle cx="53.092" cy="233.219" r="4.875"/><circle cx="139.607" cy="244.139" r="4.875"/><circle cx="231.712" cy="233.219" r="4.875"/><path d="M275.392 128.7c-6.5-16.185-12.61-31.46-14.04-47.32v-.065c-.845-8.125 2.34-17.615 5.525-26.78 4.94-14.495 10.53-30.94-1.04-43.16-5.915-6.76-17.095-11.31-27.95-11.31-9.945 0-21.125 4.485-27.82 11.115l-.195.195c-11.18 12.35-5.785 28.21-.52 43.55 3.12 9.1 6.305 18.46 5.785 26.52-1.365 15.535-7.735 30.55-14.495 46.41-2.925 6.955-5.98 14.04-8.58 21.255-1.235-3.055-2.47-6.11-3.77-9.165-6.435-15.535-13.13-31.655-14.56-48.035-.585-7.995 2.73-17.355 5.98-26.39 5.395-15.275 11.05-31.07-.78-42.965-6.63-7.475-17.615-12.09-28.73-12.09-11.18 0-22.165 4.615-28.795 12.09-11.05 11.7-5.655 27.04-.455 41.925 3.25 9.36 6.63 18.98 5.72 27.235v.065c-1.495 16.64-8.125 32.955-14.56 48.75-1.105 2.73-2.21 5.395-3.315 8.19-2.47-6.89-5.33-13.715-8.125-20.345-6.76-16.185-13.195-31.46-14.56-47.06v-.065c-.91-8.19 2.47-17.81 5.655-27.17 5.2-15.08 10.595-30.615-.455-42.77l-.195-.195C84.357 4.355 73.112 0 62.517 0c-9.945 0-21.125 4.485-27.82 11.115l-.195.195c-11.18 12.35-5.785 28.21-.52 43.55 3.12 9.1 6.305 18.46 5.785 26.52-1.43 15.86-7.54 31.07-14.04 47.255-7.475 18.655-15.21 37.895-15.21 58.305-.65 20.865 6.695 40.495 13.78 59.475 2.015 5.46 4.16 11.115 5.98 16.64l.065.195c.65 1.755 1.17 3.77 1.625 5.915 1.235 5.135 2.6 10.985 7.54 14.235l.065.065c6.5 4.16 14.95 6.305 23.205 6.305 8.32 0 16.51-2.08 22.62-6.24 5.655-3.38 7.215-9.425 8.515-14.82.455-1.95.91-3.77 1.56-5.395l.065-.195c1.95-5.915 4.485-11.96 6.955-17.81l2.34-5.655c1.885 5.59 3.965 11.115 5.98 16.575 2.145 5.72 4.355 11.635 6.305 17.42l.065.195c.65 1.69 1.105 3.51 1.56 5.525 1.3 5.395 2.795 11.44 8.255 15.34l.195.13c6.435 4.095 14.885 6.175 23.335 6.175 8.45 0 16.9-2.08 23.335-6.175l.195-.13c5.46-3.9 6.955-10.01 8.255-15.34.52-2.015.975-3.835 1.56-5.525l.065-.195c1.82-5.525 3.965-11.18 5.98-16.64 2.145-5.72 4.29-11.57 6.24-17.42.78 1.95 1.625 3.835 2.405 5.72 2.405 5.785 4.94 11.765 6.89 17.615.325 1.235.585 2.665.845 4.095 1.04 5.72 2.34 12.87 8.645 16.51 6.5 4.16 14.69 6.24 22.815 6.24s16.315-2.08 22.815-6.24c5.72-3.315 7.28-9.49 8.58-14.885.455-1.95.91-3.77 1.56-5.395l.065-.195c1.69-5.135 3.64-10.4 5.46-15.47 7.02-19.305 14.3-39.325 14.3-60.58.065-20.345-7.67-39.65-15.145-58.305M41.652 18.005c4.94-4.81 13.455-8.19 20.8-8.19 7.995 0 16.64 3.315 21.645 8.19 7.02 7.865 2.99 19.5-1.625 32.955-2.275 6.565-4.615 13.26-5.72 19.89l-3.38 1.69c-7.605 3.445-16.705 3.38-24.31-.065l-.065.065c-1.04-6.955-3.445-13.975-5.785-20.865-4.745-13.65-8.775-25.61-1.56-33.67zm36.27 75.01c-9.49 5.005-20.54 5.59-30.42 1.69.845-3.9 1.495-7.735 1.885-11.635 3.834 1.17 7.865 1.82 11.895 1.82 5.135 0 10.27-.975 15.015-2.925v.39c.325 3.575.91 7.15 1.625 10.66M96.642 197.6v.13c0 9.165 1.43 18.07 3.64 26.78-2.015 5.525-4.485 11.375-6.825 17.03-2.535 5.98-5.07 12.155-7.15 18.395-.78 2.145-1.3 4.29-1.82 6.37-1.17 4.68-2.015 7.67-4.095 8.84l-.325.195c-8.97 6.175-25.415 6.175-35.165-.065-1.69-1.17-2.6-4.81-3.38-8.385-.52-2.275-1.105-4.68-1.95-6.955-1.885-5.655-4.03-11.31-6.045-16.835-6.76-18.135-13.715-36.855-13.13-55.835v-.13c0-18.525 7.02-36.14 14.495-54.73 3.705-9.23 7.41-18.59 10.27-28.145a45.727 45.727 0 0 0 15.795 2.795c6.695 0 13.325-1.43 19.565-4.355 2.99 10.075 7.15 19.955 11.18 29.64 4.29 10.27 8.775 20.865 11.635 31.33-3.705 10.985-6.435 22.23-6.695 33.93m31.85-168.22.13-.13c4.745-5.395 13.195-8.84 21.515-8.84s16.77 3.51 21.515 8.84l.195.26c7.085 7.02 4.16 17.095-1.43 32.89-2.275 6.435-4.615 13-5.785 19.565-10.4 4.225-19.5 4.16-28.73-.065-1.105-6.825-3.445-13.715-5.785-20.41-5.395-15.47-8.19-25.285-1.625-32.11m37.18 74.88a36.74 36.74 0 0 1-31.135 0c.845-3.77 1.43-7.54 1.755-11.44v-.325c4.485 1.56 8.97 2.34 13.585 2.34 4.55 0 9.23-.78 14.04-2.275v.26c.325 3.835.975 7.67 1.755 11.44m15.145 149.305c-2.08 5.525-4.16 11.18-6.045 16.835-.78 2.145-1.365 4.42-1.885 6.565-1.04 4.225-1.95 7.865-4.355 9.685-9.75 6.175-26.13 6.175-35.945 0-2.47-1.82-3.315-5.46-4.355-9.685-.52-2.145-1.04-4.355-1.885-6.565-1.95-5.915-4.225-11.895-6.37-17.68-6.695-17.875-13.65-36.335-13.65-55.12.39-18.135 7.41-35.23 14.755-53.3 4.03-9.945 8.19-20.085 11.18-30.485a46.337 46.337 0 0 0 17.94 3.64c6.11 0 12.22-1.235 18.005-3.64 2.99 10.205 7.085 20.15 11.115 29.9 7.54 18.265 14.755 35.555 14.755 53.885v.13c.52 18.98-6.5 37.765-13.26 55.835m36.205-235.56c4.94-4.81 13.455-8.19 20.8-8.19 8.125 0 16.575 3.315 20.67 7.995l.195.195c7.085 7.475 4.355 17.55-1.04 33.345-2.21 6.5-4.485 13.13-5.525 19.76-9.945 4.095-18.915 4.485-27.755 1.105-1.105-6.89-3.445-13.78-5.72-20.54-4.81-13.65-8.84-25.61-1.625-33.67zm36.335 75.335a36.58 36.58 0 0 1-30.42.975c.845-3.835 1.495-7.67 1.82-11.635 3.835 1.105 7.67 1.625 11.635 1.625 4.94 0 10.01-.845 15.21-2.6 0 .195 0 .39.065.585.325 3.705.91 7.41 1.69 11.05m13.78 150.93c-1.885 5.135-3.77 10.4-5.525 15.6-.78 2.145-1.3 4.29-1.82 6.37-1.17 4.68-2.015 7.67-4.095 8.84l-.195.13c-9.75 6.24-25.61 6.24-35.36 0l-.195-.13c-2.405-1.365-3.185-5.525-3.965-9.88-.325-1.625-.585-3.25-.975-4.875l-.13-.39c-2.08-6.24-4.68-12.48-7.215-18.46-2.405-5.785-4.94-11.7-6.89-17.55 2.015-8.645 3.25-17.42 2.99-26.52 0-11.57-2.6-22.685-6.175-33.54 2.925-10.855 7.54-21.71 12.025-32.305 3.9-9.1 7.8-18.395 10.725-27.82a46.398 46.398 0 0 0 16.705 3.12c6.37 0 12.74-1.3 18.72-3.965 2.86 9.945 6.76 19.76 10.595 29.315 7.475 18.59 14.495 36.205 14.495 54.73 0 19.63-6.955 38.805-13.715 57.33"/><path d="M136.617 225.42c-5.33-10.66-8.385-23.725-8.385-35.88 0-2.665-2.21-4.875-4.875-4.875s-4.875 2.21-4.875 4.875c0 13.585 3.445 28.275 9.425 40.235.845 1.69 2.6 2.665 4.355 2.665.78 0 1.495-.195 2.21-.455 2.405-1.235 3.38-4.16 2.145-6.565M229.112 214.695c-6.11-11.375-9.165-23.4-9.165-35.75 0-2.665-2.21-4.875-4.875-4.875s-4.875 2.21-4.875 4.875c0 13.975 3.51 27.56 10.335 40.365.845 1.69 2.535 2.6 4.29 2.6.781 0 1.561-.195 2.275-.585 2.405-1.3 3.315-4.225 2.015-6.63M50.492 214.695c-6.11-11.375-9.165-23.4-9.165-35.75 0-2.665-2.21-4.875-4.875-4.875s-4.875 2.21-4.875 4.875c0 13.975 3.51 27.56 10.335 40.365.845 1.69 2.535 2.6 4.29 2.6.779 0 1.559-.195 2.275-.585 2.405-1.3 3.315-4.225 2.015-6.63"/></svg>