<svg xmlns="http://www.w3.org/2000/svg" xml:space="preserve" viewBox="0 0 56 56" fill="#7367F0"><path d="M10.5 25.603h4v2h-4z" style="fill:#010002"/><path d="M54.5 28.603h-47v-3.364c.572-.379 2.119-.849 2.73-.849.194 0 .377.099.485.213h3.079c-.104-1.758-1.686-3.213-3.564-3.213-.681 0-5.73.735-5.73 3.479v3.734h-3a1.5 1.5 0 1 0 0 3h53a1.5 1.5 0 0 0 0-3M.255 33.417s1.984.715 3.129 4.644c.753 2.584-.861 7.748 6.087 10.982l-.006.077-.159 3.318c-.027.551.329.758.795.461l2.794-1.781c.246-.157.564-.385.841-.641 3.167.771 7.346 1.279 12.884 1.386l-.082.024c.396 0 .762-.009 1.146-.013.384.004.75.013 1.146.013l-.111-.024c5.671-.106 9.937-.635 13.159-1.434.287.274.626.522.887.688l2.795 1.781c.465.297.821.09.795-.461l-.16-3.318c-.002-.049-.009-.112-.012-.167 6.84-3.238 5.422-8.332 6.168-10.893 1.146-3.929 2.885-4.644 2.885-4.644L27.5 33.238l-27.245.179zM19.301 18.026c.263.184.562.298.885.298.854 0 1.564-.735 1.758-1.721h-1.408c-.186.613-.671 1.122-1.235 1.423M20.56 15.603h1.4c-.174-1.02-.901-1.785-1.774-1.785-.324 0-.623.114-.886.298.583.313 1.089.846 1.26 1.487" style="fill:#010002"/><path d="M19.931 19.821c2.067 0 3.749-1.682 3.749-3.749s-1.682-3.749-3.749-3.749-3.749 1.682-3.749 3.749 1.682 3.749 3.749 3.749m-1.58-5.991a2.726 2.726 0 0 1 1.581-.507c1.355 0 2.478.988 2.702 2.28.026.153.047.308.047.469a2.753 2.753 0 0 1-2.749 2.749c-.59 0-1.134-.191-1.583-.509a2.743 2.743 0 0 1-1.167-2.24c0-.927.464-1.744 1.169-2.242M33.465 21.603h-1.447c-.158.833-.872 1.51-1.643 1.783.245.083.505.137.779.137 1.176 0 2.142-.835 2.311-1.92M31.92 20.603h1.464a2.33 2.33 0 0 0-2.229-1.586c-.274 0-.533.054-.777.137.662.235 1.28.771 1.542 1.449" style="fill:#010002"/><path d="M31.366 25.019h.002c2.067 0 3.749-1.682 3.749-3.749s-1.682-3.749-3.749-3.749-3.749 1.682-3.749 3.749 1.681 3.749 3.747 3.749m-1.58-5.99a2.722 2.722 0 0 1 1.582-.508c1.284 0 2.357.889 2.657 2.082.055.215.092.436.092.667 0 .114-.021.223-.034.333a2.744 2.744 0 0 1-2.717 2.416c-.59 0-1.134-.191-1.582-.509a2.746 2.746 0 0 1-1.165-2.24c0-.926.464-1.742 1.167-2.241M39.583 6.714c0-.038-.007-.073-.009-.111h-1.29c.003.038.015.073.015.111 0 .848-.61 1.578-1.338 1.962.254.18.542.292.854.292.976-.001 1.768-1.01 1.768-2.254M37.926 5.603h1.419c-.305-.679-.872-1.142-1.53-1.142a1.47 1.47 0 0 0-.853.291c.379.2.719.493.964.851" style="fill:#010002"/><path d="M37.605 10.463c2.067 0 3.75-1.682 3.75-3.749s-1.683-3.749-3.75-3.749c-2.066 0-3.748 1.682-3.748 3.749s1.682 3.749 3.748 3.749m-1.581-5.99a2.724 2.724 0 0 1 1.581-.508 2.75 2.75 0 0 1 2.511 1.638c.137.308.214.646.228 1 .002.038.012.073.012.111a2.752 2.752 0 0 1-2.75 2.749 2.72 2.72 0 0 1-1.582-.509 2.745 2.745 0 0 1-1.166-2.24 2.739 2.739 0 0 1 1.166-2.241" style="fill:#010002"/></svg>