<?xml version="1.0" ?>
<!DOCTYPE svg  PUBLIC '-//W3C//DTD SVG 1.1//EN'  'http://www.w3.org/Graphics/SVG/1.1/DTD/svg11.dtd'>
<!-- Uploaded to: SVG Repo, www.svgrepo.com, Generator: SVG Repo Mixer Tools -->
<svg fill="#000000" width="800px" height="800px" viewBox="-0.01 0 3.21 3.21" style="shape-rendering:geometricPrecision; text-rendering:geometricPrecision; image-rendering:optimizeQuality; fill-rule:evenodd; clip-rule:evenodd" version="1.1" xml:space="preserve" xmlns="http://www.w3.org/2000/svg" xmlns:xlink="http://www.w3.org/1999/xlink">
<defs>
<style type="text/css">
   <![CDATA[
    .fil0 {fill:black;fill-rule:nonzero}
   ]]>
  </style>
</defs>
<g id="Layer_x0020_1">
<path class="fil0" d="M1.23 0c0.34,0 0.64,0.14 0.86,0.36 0.23,0.22 0.36,0.53 0.36,0.87 0,0.33 -0.13,0.63 -0.35,0.85l0.26 0c0.09,0 0.17,-0.03 0.23,-0.09 0.06,-0.06 0.1,-0.15 0.1,-0.24l0 -0.53c-0.08,-0.05 -0.13,-0.15 -0.13,-0.25 0,-0.17 0.14,-0.31 0.31,-0.31 0.17,0 0.31,0.14 0.31,0.31 0,0.1 -0.05,0.19 -0.12,0.25l0 0.53c0,0.19 -0.08,0.37 -0.21,0.5 -0.13,0.13 -0.3,0.2 -0.49,0.2l-1.13 0 0 0c-0.34,0 -0.65,-0.13 -0.87,-0.36l0 0c-0.22,-0.22 -0.36,-0.52 -0.36,-0.86 0,-0.34 0.14,-0.65 0.36,-0.87l0 0c0.22,-0.22 0.53,-0.36 0.87,-0.36zm-0.58 2.84l1.15 0 0 0.37 -1.15 0 0 -0.37zm0.58 -0.76l0 0c0.24,0 0.45,-0.09 0.6,-0.25 0.16,-0.15 0.25,-0.37 0.25,-0.6 0,-0.24 -0.09,-0.45 -0.25,-0.61 -0.15,-0.15 -0.37,-0.25 -0.6,-0.25 -0.24,0 -0.45,0.1 -0.61,0.25l0 0c-0.15,0.16 -0.25,0.37 -0.25,0.61 0,0.23 0.1,0.45 0.25,0.6l0 0c0.16,0.16 0.37,0.25 0.61,0.25l0 0zm0 -1.09c0.13,0 0.23,0.11 0.23,0.24 0,0.13 -0.1,0.23 -0.23,0.23 -0.13,0 -0.24,-0.1 -0.24,-0.23 0,-0.13 0.11,-0.24 0.24,-0.24z"/>
</g>
</svg>