<svg xmlns="http://www.w3.org/2000/svg" xml:space="preserve" width="800" height="800" style="shape-rendering:geometricPrecision;text-rendering:geometricPrecision;image-rendering:optimizeQuality;fill-rule:evenodd;clip-rule:evenodd" viewBox="-0.01 0 3.21 3.21" fill="#7367F0"><path d="M1.23 0c.34 0 .64.14.86.36.23.22.36.53.36.87 0 .33-.13.63-.35.85h.26c.09 0 .17-.03.23-.09s.1-.15.1-.24v-.53a.299.299 0 0 1-.13-.25c0-.17.14-.31.31-.31.17 0 .31.14.31.31 0 .1-.05.19-.12.25v.53c0 .19-.08.37-.21.5s-.3.2-.49.2H1.23c-.34 0-.65-.13-.87-.36C.14 1.87 0 1.57 0 1.23A1.232 1.232 0 0 1 1.23 0zM.65 2.84H1.8v.37H.65v-.37zm.58-.76c.24 0 .45-.09.6-.25.16-.15.25-.37.25-.6 0-.24-.09-.45-.25-.61a.864.864 0 0 0-.6-.25C.99.37.78.47.62.62.47.78.37.99.37 1.23c0 .23.1.45.25.6.16.16.37.25.61.25m0-1.09c.13 0 .23.11.23.24s-.1.23-.23.23-.24-.1-.24-.23.11-.24.24-.24" style="fill:#000;fill-rule:nonzero"/></svg>