<svg xmlns="http://www.w3.org/2000/svg" width="800" height="800" fill="#7367F0" viewBox="0 0 24 24"><path fill="#000" d="M7.59 12.87a.75.75 0 0 1-.69-.46.75.75 0 0 1 1-1 .74.74 0 0 1 .4.4.72.72 0 0 1 0 .58.63.63 0 0 1-.16.24.75.75 0 0 1-.55.24M12 12.74a.78.78 0 0 1-.53-.22.77.77 0 0 1-.22-.53.932.932 0 0 1 .05-.29.87.87 0 0 1 .41-.41.76.76 0 0 1 1 .41.75.75 0 0 1-.69 1.04zM12.11 8.35a.93.93 0 0 1-.29 0 .7.7 0 0 1-.24-.17.81.81 0 0 1-.17-.24.93.93 0 0 1-.05-.29.92.92 0 0 1 .05-.28.76.76 0 0 1 .98-.41.69.69 0 0 1 .41.41.66.66 0 0 1 0 .28.72.72 0 0 1-.21.53.85.85 0 0 1-.25.17.92.92 0 0 1-.23 0M11.84 17.11a.75.75 0 1 1 .52-1.28.81.81 0 0 1 .17.24 1 1 0 0 1 .06.29.939.939 0 0 1-.06.29.81.81 0 0 1-.17.24.74.74 0 0 1-.52.22M16.35 12.6a.78.78 0 0 1-.53-.22.79.79 0 0 1-.22-.53c0-.1.02-.198.06-.29a.761.761 0 0 1 .16-.25c.072-.065.153-.119.24-.16a.791.791 0 0 1 .82.16.82.82 0 0 1 .22.54.82.82 0 0 1-.22.53.75.75 0 0 1-.53.22"/><path fill="#000" d="M12 22.84a3.74 3.74 0 0 1-2.65-1.1l-7.1-7.1a3.75 3.75 0 0 1 0-5.3l7.1-7.1a3.75 3.75 0 0 1 5.3 0l7.1 7.1a3.74 3.74 0 0 1 0 5.3l-7.1 7.1a3.74 3.74 0 0 1-2.65 1.1m0-20.2a2.23 2.23 0 0 0-1.59.66l-7.1 7.1a2.25 2.25 0 0 0 0 3.18l7.1 7.1a2.25 2.25 0 0 0 3.18 0l7.1-7.1a2.25 2.25 0 0 0 0-3.18l-7.1-7.1A2.23 2.23 0 0 0 12 2.64Z"/></svg>