<?xml version="1.0" encoding="iso-8859-1"?>
<!-- Uploaded to: SVG Repo, www.svgrepo.com, Generator: SVG Repo Mixer Tools -->
<!DOCTYPE svg PUBLIC "-//W3C//DTD SVG 1.1//EN" "http://www.w3.org/Graphics/SVG/1.1/DTD/svg11.dtd">
<svg fill="#000000" version="1.1" id="Capa_1" xmlns="http://www.w3.org/2000/svg" xmlns:xlink="http://www.w3.org/1999/xlink" 
	 width="800px" height="800px" viewBox="0 0 46.01 46.01" xml:space="preserve"
	>
<g>
	<g>
		<g>
			<path d="M45.423,20.001l-0.947-0.948c-0.78-0.782-2.05-0.782-2.829,0l-3.939,3.939H24.044c-0.885,0-1.603,0.718-1.603,1.603
				v6.946H2.001C0.896,31.542,0,32.437,0,33.543v1.34c0,1.104,0.896,2.001,2.001,2.001h5.253l-3.996,4.625
				c-0.58,0.67-0.505,1.683,0.164,2.261c0.303,0.262,0.676,0.392,1.048,0.392c0.449,0,0.896-0.188,1.213-0.556l3.961-4.584h18.545
				l4.177,4.178c0.626,0.625,1.641,0.625,2.267,0s0.626-1.642,0-2.268l-4.048-4.048H35.4c1.104,0,2.002-0.896,2.002-2.001v-1.34
				c0-0.729-0.396-1.361-0.979-1.711l9-9C46.205,22.05,46.205,20.783,45.423,20.001z M25.646,26.198h8.854l-5.226,5.345h-3.63
				v-5.345H25.646z"/>
			<g>
				<g>
					<path d="M12.431,4.641V4.078c0-0.249-0.073-0.491-0.201-0.703l-0.774-1.288c-0.089-0.148-0.251-0.239-0.423-0.239
						c-0.172,0-0.333,0.091-0.422,0.239L9.838,3.375C9.711,3.587,9.644,3.83,9.644,4.078V4.64c0.464-0.08,0.92-0.121,1.394-0.121
						S11.966,4.56,12.431,4.641z"/>
				</g>
				<g>
					<path d="M9.643,20.347v0.562c0,0.248,0.067,0.491,0.194,0.703L10.61,22.9c0.089,0.148,0.249,0.239,0.422,0.239
						c0.172,0,0.331-0.091,0.421-0.239l0.777-1.288c0.128-0.212,0.201-0.455,0.201-0.703v-0.562
						c-0.465,0.08-0.921,0.122-1.395,0.122S10.106,20.427,9.643,20.347z"/>
				</g>
				<g>
					<path d="M17.562,7.925l0.401-0.401c0.175-0.174,0.3-0.394,0.359-0.634l0.364-1.457c0.042-0.168-0.007-0.346-0.129-0.467
						c-0.122-0.123-0.299-0.171-0.467-0.129l-1.457,0.364c-0.24,0.06-0.459,0.184-0.635,0.359L15.6,5.962
						C16.362,6.497,17.027,7.162,17.562,7.925z"/>
				</g>
				<g>
					<path d="M4.499,17.063l-0.4,0.4c-0.175,0.174-0.3,0.394-0.36,0.634l-0.364,1.458c-0.042,0.167,0.007,0.344,0.129,0.465
						c0.122,0.123,0.298,0.172,0.467,0.129l1.457-0.364c0.24-0.06,0.459-0.184,0.634-0.36l0.4-0.4
						C5.698,18.49,5.033,17.825,4.499,17.063z"/>
				</g>
				<g>
					<path d="M2.615,13.9h0.562c-0.079-0.464-0.121-0.922-0.121-1.395c0-0.474,0.042-0.93,0.121-1.395H2.615
						c-0.248,0-0.491,0.064-0.703,0.191l-1.288,0.771c-0.148,0.088-0.238,0.248-0.238,0.42c0,0.173,0.09,0.333,0.238,0.421
						l1.288,0.782C2.124,13.823,2.367,13.9,2.615,13.9z"/>
				</g>
				<g>
					<path d="M21.437,12.072l-1.289-0.771c-0.211-0.127-0.454-0.191-0.702-0.191h-0.563c0.08,0.464,0.122,0.92,0.122,1.395
						c0,0.473-0.042,0.93-0.122,1.395h0.563c0.248,0,0.491-0.077,0.702-0.203l1.289-0.777c0.148-0.088,0.238-0.251,0.238-0.423
						C21.675,12.323,21.585,12.161,21.437,12.072z"/>
				</g>
				<g>
					<path d="M3.739,6.89C3.8,7.13,3.924,7.35,4.098,7.524l0.4,0.4c0.535-0.762,1.2-1.428,1.963-1.963l-0.4-0.4
						c-0.175-0.175-0.394-0.3-0.634-0.36L3.971,4.838C3.802,4.795,3.625,4.844,3.503,4.967c-0.122,0.122-0.17,0.299-0.129,0.466
						L3.739,6.89z"/>
				</g>
				<g>
					<path d="M18.322,18.098c-0.06-0.241-0.184-0.46-0.359-0.635l-0.401-0.401c-0.535,0.763-1.2,1.428-1.962,1.963l0.4,0.401
						c0.175,0.175,0.394,0.299,0.635,0.36l1.456,0.364c0.168,0.042,0.345-0.006,0.467-0.129c0.122-0.122,0.17-0.299,0.13-0.466
						L18.322,18.098z"/>
				</g>
				<g>
					<path d="M15.552,5.26c0.095-0.228,0.127-0.479,0.09-0.724L15.425,3.05c-0.025-0.17-0.138-0.316-0.297-0.382
						c-0.159-0.067-0.342-0.044-0.48,0.058l-1.209,0.891c-0.199,0.147-0.355,0.345-0.45,0.574L12.773,4.71
						c0.924,0.207,1.788,0.574,2.562,1.072L15.552,5.26z"/>
				</g>
				<g>
					<path d="M6.511,19.727c-0.095,0.228-0.126,0.479-0.091,0.724l0.219,1.486c0.024,0.17,0.138,0.316,0.296,0.382
						c0.16,0.067,0.342,0.044,0.481-0.058l1.208-0.891c0.199-0.147,0.355-0.346,0.451-0.574l0.215-0.52
						c-0.924-0.206-1.789-0.573-2.562-1.069L6.511,19.727z"/>
				</g>
				<g>
					<path d="M17.761,8.222c0.494,0.775,0.857,1.642,1.059,2.568l0.521-0.216c0.229-0.093,0.428-0.248,0.577-0.447l0.896-1.206
						c0.103-0.138,0.126-0.32,0.06-0.479c-0.065-0.159-0.21-0.273-0.381-0.299l-1.484-0.224c-0.245-0.038-0.495-0.007-0.724,0.086
						L17.761,8.222z"/>
				</g>
				<g>
					<path d="M4.299,16.764c-0.493-0.775-0.856-1.641-1.059-2.566l-0.521,0.214c-0.229,0.094-0.428,0.249-0.576,0.447l-0.896,1.205
						c-0.103,0.138-0.125,0.32-0.06,0.48c0.065,0.16,0.21,0.272,0.38,0.299l1.485,0.225c0.245,0.037,0.496,0.006,0.724-0.088
						L4.299,16.764z"/>
				</g>
				<g>
					<path d="M19.907,14.901c-0.147-0.2-0.346-0.354-0.575-0.451l-0.52-0.216c-0.206,0.924-0.573,1.788-1.071,2.562l0.522,0.218
						c0.228,0.095,0.479,0.127,0.724,0.091l1.486-0.217c0.171-0.025,0.316-0.138,0.383-0.298c0.066-0.158,0.044-0.341-0.058-0.48
						L19.907,14.901z"/>
				</g>
				<g>
					<path d="M2.155,10.086c0.147,0.2,0.346,0.354,0.574,0.451l0.519,0.216c0.207-0.924,0.574-1.789,1.071-2.562L3.798,7.973
						C3.57,7.878,3.319,7.846,3.074,7.882L1.587,8.099c-0.17,0.025-0.315,0.138-0.382,0.298c-0.066,0.158-0.043,0.341,0.058,0.48
						L2.155,10.086z"/>
				</g>
				<g>
					<path d="M6.76,5.762c0.774-0.494,1.641-0.857,2.567-1.06l-0.215-0.52C9.018,3.953,8.863,3.755,8.665,3.607L7.459,2.711
						C7.322,2.607,7.139,2.585,6.98,2.65C6.821,2.715,6.707,2.86,6.682,3.031L6.457,4.515C6.42,4.76,6.45,5.011,6.544,5.239
						L6.76,5.762z"/>
				</g>
				<g>
					<path d="M15.302,19.224c-0.775,0.494-1.641,0.857-2.567,1.06l0.215,0.521c0.095,0.229,0.249,0.427,0.447,0.575l1.205,0.897
						c0.139,0.104,0.32,0.126,0.48,0.06c0.16-0.065,0.272-0.209,0.299-0.38l0.224-1.485c0.038-0.244,0.007-0.495-0.087-0.724
						L15.302,19.224z"/>
				</g>
				<g>
					<circle cx="11.029" cy="12.494" r="6.586"/>
				</g>
			</g>
		</g>
	</g>
</g>
</svg>