<svg xmlns="http://www.w3.org/2000/svg" xml:space="preserve" width="800" height="800" viewBox="0 0 46.01 46.01" fill="#7367F0"><path d="m45.423 20.001-.947-.948a1.999 1.999 0 0 0-2.829 0l-3.939 3.939H24.044c-.885 0-1.603.718-1.603 1.603v6.946H2.001A2.002 2.002 0 0 0 0 33.543v1.34c0 1.104.896 2.001 2.001 2.001h5.253l-3.996 4.625a1.603 1.603 0 1 0 2.425 2.097l3.961-4.584h18.545l4.177 4.178a1.604 1.604 0 0 0 2.267-2.268l-4.048-4.048H35.4a2.003 2.003 0 0 0 2.002-2.001v-1.34c0-.729-.396-1.361-.979-1.711l9-9a2.001 2.001 0 0 0 0-2.831m-19.777 6.197H34.5l-5.226 5.345h-3.63v-5.345zM12.431 4.641v-.563c0-.249-.073-.491-.201-.703l-.774-1.288a.494.494 0 0 0-.845 0l-.773 1.288a1.368 1.368 0 0 0-.194.703v.562a8.116 8.116 0 0 1 2.787.001M9.643 20.347v.562c0 .248.067.491.194.703l.773 1.288a.493.493 0 0 0 .843 0l.777-1.288c.128-.212.201-.455.201-.703v-.562a8.096 8.096 0 0 1-2.788 0M17.562 7.925l.401-.401c.175-.174.3-.394.359-.634l.364-1.457a.49.49 0 0 0-.596-.596l-1.457.364c-.24.06-.459.184-.635.359l-.398.402a8.04 8.04 0 0 1 1.962 1.963M4.499 17.063l-.4.4c-.175.174-.3.394-.36.634l-.364 1.458a.488.488 0 0 0 .129.465.486.486 0 0 0 .467.129l1.457-.364c.24-.06.459-.184.634-.36l.4-.4a8.006 8.006 0 0 1-1.963-1.962M2.615 13.9h.562a8.238 8.238 0 0 1-.121-1.395c0-.474.042-.93.121-1.395h-.562c-.248 0-.491.064-.703.191l-1.288.771a.488.488 0 0 0 0 .841l1.288.782c.212.128.455.205.703.205M21.437 12.072l-1.289-.771a1.359 1.359 0 0 0-.702-.191h-.563a8.12 8.12 0 0 1 0 2.79h.563c.248 0 .491-.077.702-.203l1.289-.777a.495.495 0 0 0 0-.848M3.739 6.89c.061.24.185.46.359.634l.4.4a8.045 8.045 0 0 1 1.963-1.963l-.4-.4a1.366 1.366 0 0 0-.634-.36l-1.456-.363a.493.493 0 0 0-.597.595zM18.322 18.098a1.363 1.363 0 0 0-.359-.635l-.401-.401a8.04 8.04 0 0 1-1.962 1.963l.4.401c.175.175.394.299.635.36l1.456.364a.489.489 0 0 0 .467-.129.496.496 0 0 0 .13-.466zM15.552 5.26c.095-.228.127-.479.09-.724l-.217-1.486a.492.492 0 0 0-.777-.324l-1.209.891a1.364 1.364 0 0 0-.45.574l-.216.519a7.939 7.939 0 0 1 2.562 1.072zM6.511 19.727a1.378 1.378 0 0 0-.091.724l.219 1.486a.49.49 0 0 0 .777.324l1.208-.891a1.38 1.38 0 0 0 .451-.574l.215-.52a7.946 7.946 0 0 1-2.562-1.069zM17.761 8.222a7.914 7.914 0 0 1 1.059 2.568l.521-.216c.229-.093.428-.248.577-.447l.896-1.206a.492.492 0 0 0-.321-.778l-1.484-.224a1.367 1.367 0 0 0-.724.086zM4.299 16.764a7.957 7.957 0 0 1-1.059-2.566l-.521.214a1.369 1.369 0 0 0-.576.447l-.896 1.205a.492.492 0 0 0 .32.779l1.485.225c.245.037.496.006.724-.088zM19.907 14.901a1.377 1.377 0 0 0-.575-.451l-.52-.216a7.915 7.915 0 0 1-1.071 2.562l.522.218c.228.095.479.127.724.091l1.486-.217a.493.493 0 0 0 .325-.778zM2.155 10.086c.147.2.346.354.574.451l.519.216a7.95 7.95 0 0 1 1.071-2.562l-.521-.218a1.368 1.368 0 0 0-.724-.091l-1.487.217a.493.493 0 0 0-.324.778zM6.76 5.762a7.924 7.924 0 0 1 2.567-1.06l-.215-.52a1.366 1.366 0 0 0-.447-.575l-1.206-.896a.488.488 0 0 0-.777.32l-.225 1.484c-.037.245-.007.496.087.724zM15.302 19.224a7.933 7.933 0 0 1-2.567 1.06l.215.521c.095.229.249.427.447.575l1.205.897a.49.49 0 0 0 .779-.32l.224-1.485a1.36 1.36 0 0 0-.087-.724z"/><circle cx="11.029" cy="12.494" r="6.586"/></svg>