<svg xmlns="http://www.w3.org/2000/svg" xml:space="preserve" width="800" height="800" viewBox="0 0 511.999 511.999"><path d="M209.533 273.763a7.837 7.837 0 0 0-7.837 7.837v10.35a7.837 7.837 0 0 0 15.674 0V281.6a7.837 7.837 0 0 0-7.837-7.837M302.465 273.763a7.837 7.837 0 0 0-7.837 7.837v10.35a7.837 7.837 0 0 0 15.674 0V281.6a7.839 7.839 0 0 0-7.837-7.837M279.536 316.623a7.835 7.835 0 0 0-11.083 0 17.498 17.498 0 0 1-12.454 5.159 17.498 17.498 0 0 1-12.454-5.159 7.835 7.835 0 0 0-11.082 0 7.835 7.835 0 0 0 0 11.082c6.286 6.288 14.645 9.75 23.536 9.75 8.891 0 17.251-3.463 23.537-9.75a7.835 7.835 0 0 0 0-11.082M255.999 424.229c-11.523 0-20.898 9.375-20.898 20.898s9.375 20.898 20.898 20.898 20.898-9.375 20.898-20.898-9.375-20.898-20.898-20.898m0 26.122c-2.881 0-5.224-2.344-5.224-5.224s2.344-5.224 5.224-5.224c2.881 0 5.224 2.344 5.224 5.224s-2.343 5.224-5.224 5.224"/><path d="M441.638 473.861a7.837 7.837 0 0 0-7.837 7.837V492.6c0 2.054-1.69 3.726-3.766 3.726H300.407v-57.712c3.073.834 6.033 1.287 8.796 1.287 5.77 0 10.687-1.861 14.223-5.383 3.541-3.53 5.414-8.444 5.414-14.212 0-5.758-1.928-12.362-5.396-19.112 7.638-.401 14.574-3.475 19.897-8.292h31.003c32.785 0 59.458 26.57 59.458 59.228a7.837 7.837 0 0 0 15.674 0c0-41.301-33.703-74.901-75.131-74.901h-21.456a31.983 31.983 0 0 0 1.046-8.107c0-9.483-4.155-18.006-10.73-23.888 12.215-11.802 21.064-25.317 26.136-39.718 16.002-5.932 27.434-21.309 27.434-39.306 0-16.063-9.107-30.037-22.441-37.074v-99.418c19.961-7.583 33.433-26.714 33.433-48.469 0-28.609-23.343-51.884-52.036-51.884-4.248 0-8.42.503-12.476 1.502C335.037 12.35 316.496 0 295.664 0c-15.199 0-29.346 6.55-39.099 17.641C246.813 6.55 232.666 0 217.467 0c-21.002 0-39.566 12.447-47.708 31.132a51.907 51.907 0 0 0-13.49-1.766c-28.693 0-52.036 23.275-52.036 51.884 0 21.755 13.472 40.886 33.433 48.469v15.524a7.837 7.837 0 0 0 15.674 0v-13.43h18.021a7.837 7.837 0 0 0 0-15.674h-24.818c-15.726-4.329-26.635-18.545-26.635-34.889 0-19.967 16.312-36.211 36.362-36.211 3.233 0 6.401.42 9.471 1.248-.2 1.853-.308 3.72-.308 5.597a7.837 7.837 0 0 0 15.674 0c0-3.074.4-6.104 1.159-9.044h-.006c4.129-16.007 18.57-27.167 35.209-27.167 13.522 0 25.851 7.411 32.173 19.342a7.837 7.837 0 0 0 13.848 0c6.325-11.931 18.654-19.342 32.176-19.342 16.538 0 31.003 11.114 35.18 27.025l.038.142a36.075 36.075 0 0 1 1.145 9.044 7.837 7.837 0 0 0 15.674 0c0-1.976-.122-3.933-.342-5.873a36.57 36.57 0 0 1 8.371-.973c20.049 0 36.362 16.244 36.362 36.211 0 16.344-10.91 30.56-26.635 34.889h-42.584a7.837 7.837 0 0 0 0 15.674h35.787v44.776h-50.938v-17.016a7.837 7.837 0 0 0-15.674 0v17.016h-28.212v-17.016a7.837 7.837 0 0 0-15.674 0v17.016h-28.211v-17.016a7.837 7.837 0 0 0-15.674 0v17.016H153.34v-3.135a7.837 7.837 0 0 0-15.674 0V229.134c-13.333 7.037-22.441 21.012-22.441 37.074 0 17.998 11.432 33.374 27.434 39.306 5.072 14.401 13.921 27.914 26.136 39.718-6.576 5.883-10.73 14.405-10.73 23.888 0 2.8.368 5.516 1.046 8.107h-21.456c-41.427 0-75.131 33.601-75.131 74.901v40.47c0 10.697 8.721 19.4 19.439 19.4h348.072c10.719 0 19.439-8.703 19.439-19.4v-10.901a7.836 7.836 0 0 0-7.836-7.836m-67.305-197.22v-27.947c4.198 4.651 6.768 10.784 6.768 17.516 0 6.905-2.702 13.185-7.095 17.875.215-2.469.327-4.952.327-7.444M130.899 266.21c0-6.73 2.568-12.865 6.768-17.516v27.947c0 2.492.112 4.975.327 7.444-4.394-4.691-7.095-10.971-7.095-17.875m181.463 157.206c-.518.517-1.67.813-3.159.813-6.309 0-17.733-5.042-29.035-16.304-6.795-6.772-11.315-13.575-13.852-19.294l15.631 15.576a7.815 7.815 0 0 0 5.532 2.286 7.836 7.836 0 0 0 5.532-13.387l-14.541-14.491c.271-.049.541-.093.812-.145 5.338 2.638 11.448 6.875 17.534 12.941 11.294 11.256 16.349 22.623 16.349 28.897 0 1.466-.292 2.599-.803 3.108m9.368-37.849h-8.966a92.677 92.677 0 0 0-13.375-12.745 128.271 128.271 0 0 0 31.667-17.268c4.346 2.966 7.205 7.939 7.205 13.566-.001 9.07-7.417 16.447-16.531 16.447m36.929-142.106h-2.67c-20.167 0-38.755-6.78-53.647-18.146a104.73 104.73 0 0 0 4.113-4.762h52.204zm-205.32-51.2h205.319v12.619H153.339zm.001 28.293h131.557c-15.712 14.219-36.549 22.907-59.399 22.907h-28.332c-15.454 0-30.517-3.983-43.825-11.557v-11.35zm-.001 56.087v-27.133a104.235 104.235 0 0 0 43.825 9.627h28.332c24.685 0 47.386-8.61 65.254-22.968 17.867 14.355 40.558 22.968 65.239 22.968h2.67v17.506c0 22.685-11.154 44.675-31.408 61.916-19.595 16.681-44.738 26.249-68.985 26.249h-4.534c-24.247 0-49.39-9.567-68.985-26.249-20.254-17.241-31.408-39.231-31.408-61.916m20.399 92.481c0-5.628 2.859-10.601 7.205-13.566a128.23 128.23 0 0 0 31.666 17.268 92.377 92.377 0 0 0-8.49 7.486 94.588 94.588 0 0 0-4.885 5.259h-8.966v-.001c-9.115-.001-16.53-7.378-16.53-16.446m41.444 22.288c6.086-6.067 12.195-10.303 17.533-12.941.271.051.541.096.813.145l-14.541 14.491a7.837 7.837 0 1 0 11.064 11.101l15.631-15.577c-2.536 5.719-7.057 12.523-13.852 19.294-11.302 11.264-22.725 16.306-29.035 16.306-1.489 0-2.64-.296-3.159-.812-.511-.509-.805-1.643-.805-3.11.002-6.273 5.057-17.642 16.351-28.897m35.592 104.917a5.23 5.23 0 0 1 5.224-5.224 5.23 5.23 0 0 1 5.224 5.224zm33.961 0h-7.838c0-11.523-9.375-20.898-20.898-20.898s-20.898 9.375-20.898 20.898H81.963c-2.076 0-3.766-1.672-3.766-3.726v-40.47c0-32.658 26.672-59.228 59.458-59.228h31.003c5.324 4.816 12.259 7.89 19.896 8.292-3.467 6.75-5.395 13.354-5.395 19.112 0 5.768 1.872 10.682 5.415 14.212 3.535 3.522 8.452 5.383 14.222 5.383 11.813 0 27.178-7.999 40.099-20.876 5.253-5.235 9.679-10.874 13.105-16.515 3.425 5.64 7.852 11.28 13.105 16.515 4.963 4.945 10.286 9.163 15.63 12.493v64.808z"/></svg>