<svg xmlns="http://www.w3.org/2000/svg" xml:space="preserve" width="800" height="800" viewBox="0 0 512 512" fill="#7367F0"><path d="M504.984 407.552a23.229 23.229 0 0 0-16.809-6.578c-33.187.855-64.219-6.478-92.22-26.71-25.3-18.279-45.075-44.849-61.547-71.479-9.209-14.888-17.894-33.443-42.745-52.21-30.764-23.236-71.898-33.537-109.531-33.63v-50.912l55.611 41.751c25.235 6.452 49.633 17.687 70.077 34.915 18.506 15.595 27.542 30.093 35.339 43.223l10.051-4.423 5.98 29.697c12.223 17.828 24.964 32.867 39.287 44.615a16.604 16.604 0 0 0 1.541-10.952l-18.14-90.084a16.697 16.697 0 0 0-8.601-11.481 16.695 16.695 0 0 0-14.333-.566l-23.457 10.049-14.58-58.596 56.505-77.152c4.538-6.196 3.194-14.9-3.003-19.439s-14.898-3.194-19.44 3.003l-57.133 78.01-38.956 10.266-76.747-57.619v-9.2a17.22 17.22 0 0 0-6.399-13.395l-75.536-61.009a14.535 14.535 0 0 0-18.263 0L6.399 108.655A17.224 17.224 0 0 0 0 122.05v337.033a8.497 8.497 0 0 0 8.497 8.497h20.366a8.498 8.498 0 0 0 8.498-8.497v-90.074h107.411v90.074a8.497 8.497 0 0 0 8.497 8.497h20.366a8.498 8.498 0 0 0 8.498-8.497V284.537c18.986 2.052 43.324 7.407 65.79 20.479 18.565 10.803 33.309 25.424 43.879 43.523 23.311 39.917 44.09 65.968 67.373 84.471 38.645 30.711 83.079 38.657 132.495 32.511l.029-.003C503.326 464.062 512 454.201 512 442.482v-18.3a23.22 23.22 0 0 0-7.016-16.63m-360.212-67.73H37.361v-40.863h107.411zm0-70.051H37.361v-42.007h107.411z"/><path d="M448.619 294.203c-58.083-46.371-53.978-43.173-55.356-44.016.486 1.719-.339-2.18 10.325 50.777l24.206 19.325c7.204 5.752 17.706 4.571 23.456-2.631 5.751-7.202 4.573-17.704-2.631-23.455"/><circle cx="271.262" cy="146.57" r="32.45"/></svg>