<svg xmlns="http://www.w3.org/2000/svg" xml:space="preserve" viewBox="0 0 290.626 290.626"><path d="M257.813 253.126v-18.751h-9.375V51.563C248.438 23.133 225.305 0 196.875 0s-51.563 23.133-51.563 51.563v84.375a4.696 4.696 0 0 1-4.688 4.688H109.27c-7.908-2.236-16.242-3.708-24.895-4.327v-14.423H42.188v14.063h-9.375C14.719 135.938 0 150.656 0 168.75v60.938c0 12.923 10.514 23.438 23.438 23.438h26.198c5.578 13.725 19.036 23.438 34.739 23.438s29.161-9.712 34.739-23.438h40.261c12.923 0 23.438-10.514 23.438-23.438 0-24.427-10.233-46.383-27.244-62.902 10.444-4.111 17.869-14.273 17.869-26.161V51.563c0-12.923 10.514-23.438 23.438-23.438s23.438 10.514 23.438 23.438v182.813h-9.375v18.75h-32.813v37.5h112.5v-37.5h-32.813zM51.563 131.25H75v4.688H51.563zm32.812 135.938c-15.511 0-28.125-12.614-28.125-28.125s12.614-28.125 28.125-28.125 28.125 12.614 28.125 28.125-12.614 28.125-28.125 28.125m89.063-37.501c0 7.754-6.31 14.063-14.063 14.063h-37.823c.192-1.537.323-3.098.323-4.688 0-20.677-16.823-37.5-37.5-37.5s-37.5 16.823-37.5 37.5c0 1.589.131 3.15.323 4.688h-23.76c-7.753 0-14.063-6.309-14.063-14.063V168.75c0-12.923 10.514-23.438 23.438-23.438H75c55.2 0 98.438 37.064 98.438 84.375M196.875 18.75c-18.094 0-32.813 14.719-32.813 32.813v89.063c0 9.83-7.627 17.827-17.264 18.6a106.11 106.11 0 0 0-14.269-9.225h8.095c7.753 0 14.063-6.309 14.063-14.063V51.563c0-23.259 18.928-42.188 42.188-42.188s42.188 18.928 42.188 42.188v182.813h-9.375V51.563c0-18.094-14.719-32.813-32.813-32.813m23.438 225h28.125v9.375h-28.125zm60.938 37.5H187.5V262.5h93.751z"/><path d="M159.375 281.25h9.375v9.375h-9.375zM140.625 281.25H150v9.375h-9.375zM121.875 281.25h9.375v9.375h-9.375zM18.75 159.375h9.375v9.375H18.75zM18.75 178.125h9.375v9.375H18.75zM84.375 220.313c-10.341 0-18.75 8.409-18.75 18.75s8.409 18.75 18.75 18.75 18.75-8.409 18.75-18.75-8.409-18.75-18.75-18.75m0 28.125c-5.17 0-9.375-4.205-9.375-9.375s4.205-9.375 9.375-9.375 9.375 4.205 9.375 9.375-4.205 9.375-9.375 9.375"/></svg>