<?xml version="1.0" encoding="iso-8859-1"?>
<!-- Uploaded to: SVG Repo, www.svgrepo.com, Generator: SVG Repo Mixer Tools -->
<svg fill="#000000" height="800px" width="800px" version="1.1" id="Layer_1" xmlns="http://www.w3.org/2000/svg" xmlns:xlink="http://www.w3.org/1999/xlink" 
	 viewBox="0 0 512 512" xml:space="preserve">
<g>
	<g>
		<path d="M454,480c-2.212,0-4,1.792-4,4v20H66v-20c0-2.208-1.788-4-4-4s-4,1.792-4,4v24c0,2.208,1.788,4,4,4h392
			c2.212,0,4-1.792,4-4v-24C458,481.792,456.212,480,454,480z"/>
	</g>
</g>
<g>
	<g>
		<path d="M450,0H62C50.972,0,42,8.972,42,20v448c0,11.028,8.972,20,20,20h388c11.028,0,20-8.972,20-20V20
			C470,8.972,461.028,0,450,0z M462,468c0,6.616-5.384,12-12,12H62c-6.616,0-12-5.384-12-12V20c0-6.616,5.384-12,12-12h388
			c6.616,0,12,5.384,12,12V468z"/>
	</g>
</g>
<g>
	<g>
		<path d="M382,344h-40c-2.212,0-4,1.792-4,4s1.788,4,4,4h40c2.212,0,4-1.792,4-4S384.212,344,382,344z"/>
	</g>
</g>
<g>
	<g>
		<path d="M174,140h-44c-2.212,0-4,1.792-4,4s1.788,4,4,4h44c2.212,0,4-1.792,4-4S176.212,140,174,140z"/>
	</g>
</g>
<g>
	<g>
		<path d="M258,4c-2.212,0-4,1.792-4,4v472c0,2.208,1.788,4,4,4c2.212,0,4-1.792,4-4V8C262,5.792,260.212,4,258,4z"/>
	</g>
</g>
<g>
	<g>
		<path d="M238,160H46c-2.212,0-4,1.792-4,4s1.788,4,4,4h192c2.212,0,4-1.792,4-4S240.212,160,238,160z"/>
	</g>
</g>
<g>
	<g>
		<path d="M466,320H278c-2.212,0-4,1.792-4,4s1.788,4,4,4h188c2.212,0,4-1.792,4-4S468.212,320,466,320z"/>
	</g>
</g>
<g>
	<g>
		<path d="M238,300c-2.212,0-4,1.792-4,4v44c0,2.208,1.788,4,4,4c2.212,0,4-1.792,4-4v-44C242,301.792,240.212,300,238,300z"/>
	</g>
</g>
<g>
	<g>
		<path d="M278,140c-2.212,0-4,1.792-4,4v44c0,2.208,1.788,4,4,4c2.212,0,4-1.792,4-4v-44C282,141.792,280.212,140,278,140z"/>
	</g>
</g>
<g>
	<g>
		<g>
			<path d="M446,20h-16c-2.212,0-4,1.792-4,4s1.788,4,4,4h12v52c0,2.208,1.788,4,4,4c2.212,0,4-1.792,4-4V24
				C450,21.792,448.212,20,446,20z"/>
			<path d="M414,20h-16c-2.212,0-4,1.792-4,4s1.788,4,4,4h16c2.212,0,4-1.792,4-4S416.212,20,414,20z"/>
		</g>
	</g>
</g>
<g>
	<g>
		<path d="M66,372c-2.212,0-4,1.792-4,4v8c0,2.208,1.788,4,4,4s4-1.792,4-4v-8C70,373.792,68.212,372,66,372z"/>
	</g>
</g>
<g>
	<g>
		<path d="M66,400c-2.212,0-4,1.792-4,4v60c0,2.208,1.788,4,4,4s4-1.792,4-4v-60C70,401.792,68.212,400,66,400z"/>
	</g>
</g>
</svg>