<svg xmlns="http://www.w3.org/2000/svg" xml:space="preserve" width="800" height="800" viewBox="0 0 512 512" fill="#7367F0"><path d="M454 480c-2.212 0-4 1.792-4 4v20H66v-20c0-2.208-1.788-4-4-4s-4 1.792-4 4v24c0 2.208 1.788 4 4 4h392c2.212 0 4-1.792 4-4v-24c0-2.208-1.788-4-4-4"/><path d="M450 0H62C50.972 0 42 8.972 42 20v448c0 11.028 8.972 20 20 20h388c11.028 0 20-8.972 20-20V20c0-11.028-8.972-20-20-20m12 468c0 6.616-5.384 12-12 12H62c-6.616 0-12-5.384-12-12V20c0-6.616 5.384-12 12-12h388c6.616 0 12 5.384 12 12z"/><path d="M382 344h-40c-2.212 0-4 1.792-4 4s1.788 4 4 4h40c2.212 0 4-1.792 4-4s-1.788-4-4-4M174 140h-44c-2.212 0-4 1.792-4 4s1.788 4 4 4h44c2.212 0 4-1.792 4-4s-1.788-4-4-4M258 4c-2.212 0-4 1.792-4 4v472c0 2.208 1.788 4 4 4 2.212 0 4-1.792 4-4V8c0-2.208-1.788-4-4-4M238 160H46c-2.212 0-4 1.792-4 4s1.788 4 4 4h192c2.212 0 4-1.792 4-4s-1.788-4-4-4M466 320H278c-2.212 0-4 1.792-4 4s1.788 4 4 4h188c2.212 0 4-1.792 4-4s-1.788-4-4-4M238 300c-2.212 0-4 1.792-4 4v44c0 2.208 1.788 4 4 4 2.212 0 4-1.792 4-4v-44c0-2.208-1.788-4-4-4M278 140c-2.212 0-4 1.792-4 4v44c0 2.208 1.788 4 4 4 2.212 0 4-1.792 4-4v-44c0-2.208-1.788-4-4-4M446 20h-16c-2.212 0-4 1.792-4 4s1.788 4 4 4h12v52c0 2.208 1.788 4 4 4 2.212 0 4-1.792 4-4V24c0-2.208-1.788-4-4-4M414 20h-16c-2.212 0-4 1.792-4 4s1.788 4 4 4h16c2.212 0 4-1.792 4-4s-1.788-4-4-4M66 372c-2.212 0-4 1.792-4 4v8c0 2.208 1.788 4 4 4s4-1.792 4-4v-8c0-2.208-1.788-4-4-4M66 400c-2.212 0-4 1.792-4 4v60c0 2.208 1.788 4 4 4s4-1.792 4-4v-60c0-2.208-1.788-4-4-4"/></svg>