<svg xmlns="http://www.w3.org/2000/svg" xml:space="preserve" viewBox="0 0 32 32"><path d="M31 31.36h-4v-.72h1.64V1.36H3.36v29.28H5v.721H1v-.721h1.64V1A.36.36 0 0 1 3 .64h26a.36.36 0 0 1 .36.36v29.64H31zM13.36 17v-6.641H15a.36.36 0 0 0 .36-.36V4.754a1.36 1.36 0 0 0-.966-1.302l-2.275-.792a.36.36 0 0 0-.418.14l-.445.666c-.562.841-1.95.841-2.512 0L8.299 2.8a.36.36 0 0 0-.418-.14l-2.255.786a1.367 1.367 0 0 0-.986 1.308V10c0 .199.161.36.36.36h1.64V17c0 .199.161.36.36.36h6a.36.36 0 0 0 .36-.36m-6-10.002h-.72V9.64H5.36V4.754c0-.284.191-.538.484-.622l2.012-.701.29.434c.414.622 1.107.992 1.854.992s1.44-.371 1.854-.992l.29-.434 2.031.707a.644.644 0 0 1 .464.616V9.64h-1.28V6.998h-.72v9.643H7.36V6.998M27.36 17V5.616a1.35 1.35 0 0 0-.752-1.216l-1.396-.698-.959-.957a.36.36 0 0 0-.509 0L22 4.489l-1.745-1.744a.36.36 0 0 0-.509 0l-.959.957-1.395.698a1.35 1.35 0 0 0-.752 1.216V17c0 .199.161.36.36.36h2a.36.36 0 0 0 .36-.36v-.328l.687.457c.223.15.484.23.757.23l2.395.001c.266 0 .525-.08.752-.23l.689-.458V17c0 .199.161.36.36.36h2a.36.36 0 0 0 .36-.36m-2-9.002h-.72v7.81l-1.088.724a.639.639 0 0 1-.354.109h-.838V5.867l.385.385a.36.36 0 0 0 .51 0l1.816-1.816 1.216.608a.634.634 0 0 1 .353.572V16.64h-1.28V7.998zm-8-2.382c0-.244.135-.463.354-.572l1.215-.608 1.816 1.816a.36.36 0 0 0 .51 0l.385-.385V16.64h-.836a.628.628 0 0 1-.356-.109l-1.087-.724v-7.81h-.721v8.643h-1.28zM24 3.509l.49.489L23 5.488l-.491-.491zm-4 0 1.491 1.489-.491.49-1.49-1.49z"/><path d="M0 0h32v32H0z" style="fill:none"/></svg>