<svg xmlns="http://www.w3.org/2000/svg" xml:space="preserve" width="800" height="800" viewBox="0 0 512 512" fill="#7367F0"><path d="M450.042 0H77.462C60.066 0 40.61 14.416 40.61 33.704V204c0 2.212 1.788 4 4 4s4-1.788 4-4V33.704C48.61 20.492 62.63 8 77.462 8h372.576c13.292 0 22.572 10.572 22.572 25.704V204c0 2.212 1.788 4 4 4 2.212 0 4-1.788 4-4V33.704C480.61 14.176 467.754 0 450.042 0M446.066 376H81.354c-19.232 0-36.744 16.156-36.744 33.9V508c0 2.212 1.788 4 4 4h424c2.212 0 4-1.788 4.004-4v-98.1c0-19.644-12.848-33.9-30.548-33.9m22.544 128h-416v-94.1c0-13.316 13.968-25.9 28.744-25.9h364.708c15.492 0 22.548 13.428 22.548 25.9z"/><path d="M207.83 52.316c-28.588 0-51.844 23.252-51.844 51.84S179.246 156 207.83 156c28.58 0 51.836-23.256 51.836-51.844s-23.252-51.84-51.836-51.84m0 95.684c-24.176 0-43.844-19.668-43.844-43.844 0-24.172 19.668-43.84 43.844-43.84 24.172 0 43.836 19.668 43.836 43.84 0 24.176-19.664 43.844-43.836 43.844M304.422 83.984c-11.12 0-20.172 9.052-20.172 20.172 0 11.124 9.052 20.176 20.172 20.176s20.172-9.052 20.172-20.176c0-11.12-9.052-20.172-20.172-20.172m0 32.348c-6.712 0-12.172-5.46-12.172-12.176 0-6.712 5.46-12.172 12.172-12.172s12.172 5.46 12.172 12.172c0 6.716-5.46 12.176-12.172 12.176M351.766 83.984c-11.128 0-20.18 9.052-20.18 20.172 0 11.124 9.052 20.176 20.18 20.176 11.12 0 20.172-9.052 20.172-20.176 0-11.12-9.052-20.172-20.172-20.172m0 32.348c-6.716 0-12.18-5.46-12.18-12.176 0-6.712 5.464-12.172 12.18-12.172 6.712 0 12.172 5.46 12.172 12.172 0 6.716-5.46 12.176-12.172 12.176M476.61 200H25.226c-9.836 0-17.836 8.076-17.836 18s8 18 17.836 18H196.61c2.212 0 4-1.788 4-4 0-2.212-1.788-4-4-4H25.226c-5.42 0-9.836-4.484-9.836-10s4.416-10 9.836-10H476.61c2.212 0 4-1.788 4-4 0-2.212-1.788-4-4-4M484.61 276.152c-11.028 0-20 9.012-20 20.096V336.1a4 4 0 0 0 3.996 4l32.004.032c1.06 0 2.076-.424 2.828-1.172a3.983 3.983 0 0 0 1.172-2.828v-39.884c0-11.08-8.972-20.096-20-20.096m12 55.976-24-.024v-35.856c0-6.672 5.384-12.096 12-12.096s12 5.424 12 12.096z"/><path d="M76.61 228c-2.212 0-4 1.788-4 4v148c0 2.212 1.788 4 4 4s4-1.788 4-4V232c0-2.212-1.788-4-4-4M444.61 200c-2.212 0-4 1.788-4 4v176c0 2.212 1.788 4 4 4 2.212 0 4-1.788 4-4V204c0-2.212-1.788-4-4-4M484.61 240c-2.212 0-4 1.788-4 4v36c0 2.212 1.788 4 4 4 2.212 0 4-1.788 4-4v-36c0-2.212-1.788-4-4-4"/><path d="m487.53 241.264-33.828-36.04a4.012 4.012 0 0 0-5.656-.18 4.005 4.005 0 0 0-.18 5.656l33.828 36.04a3.977 3.977 0 0 0 2.916 1.26c.98 0 1.964-.36 2.74-1.08a4.005 4.005 0 0 0 .18-5.656M232.166 100.156c-2.212 0-4 1.788-4 4 0 11.22-9.12 20.344-20.336 20.344-11.22 0-20.344-9.124-20.344-20.344 0-11.216 9.124-20.34 20.344-20.34 2.212 0 4-1.788 4-4 0-2.212-1.788-4-4-4-15.628 0-28.344 12.716-28.344 28.34 0 15.628 12.716 28.344 28.344 28.344 15.624 0 28.336-12.716 28.336-28.344 0-2.212-1.788-4-4-4M324.61 200c-2.212 0-4 1.788-4 4v28.032c0 9.212-4.304 19.968-16.44 19.968h-80.42c-10.704 0-23.14-8.724-23.14-19.968V204c0-2.212-1.788-4-4-4-2.212 0-4 1.788-4 4v28.032c0 16.008 16.44 27.968 31.14 27.968h80.424c14.384 0 24.436-11.5 24.436-27.968V204c0-2.212-1.788-4-4-4"/><path d="M288.61 252c-2.212 0-4 1.788-4 4v12h-48v-12c0-2.212-1.788-4-4-4-2.212 0-4 1.788-4 4v16c0 2.212 1.788 4 4 4h56c2.212 0 4-1.788 4-4v-16c0-2.212-1.788-4-4-4M428.61 376c-2.212 0-4 1.788-4 4v60.124c0 9.896-5.248 19.876-16.984 19.876H119.75c-10.704 0-23.14-8.684-23.14-19.876V380c0-2.212-1.788-4-4-4s-4 1.788-4 4v60.124c0 15.956 16.44 27.876 31.14 27.876h287.876c14.712 0 24.984-11.46 24.984-27.876V380c0-2.212-1.788-4-4-4"/><path d="M260.61 416c-2.212 0-4 1.788-4 4v20c0 2.212 1.788 4 4 4 2.212 0 4-1.788 4-4v-20c0-2.212-1.788-4-4-4M228.61 416c-2.212 0-4 1.788-4 4v20c0 2.212 1.788 4 4 4 2.212 0 4-1.788 4-4v-20c0-2.212-1.788-4-4-4M196.61 416c-2.212 0-4 1.788-4 4v20c0 2.212 1.788 4 4 4 2.212 0 4-1.788 4-4v-20c0-2.212-1.788-4-4-4M164.61 416c-2.212 0-4 1.788-4 4v20c0 2.212 1.788 4 4 4 2.212 0 4-1.788 4-4v-20c0-2.212-1.788-4-4-4M132.61 416c-2.212 0-4 1.788-4 4v20c0 2.212 1.788 4 4 4 2.212 0 4-1.788 4-4v-20c0-2.212-1.788-4-4-4M292.61 416c-2.212 0-4 1.788-4 4v20c0 2.212 1.788 4 4 4 2.212 0 4-1.788 4-4v-20c0-2.212-1.788-4-4-4M356.61 416c-2.212 0-4 1.788-4 4v20c0 2.212 1.788 4 4 4 2.212 0 4-1.788 4-4v-20c0-2.212-1.788-4-4-4M388.61 416c-2.212 0-4 1.788-4 4v20c0 2.212 1.788 4 4 4 2.212 0 4-1.788 4-4v-20c0-2.212-1.788-4-4-4M324.61 416c-2.212 0-4 1.788-4 4v20c0 2.212 1.788 4 4 4 2.212 0 4-1.788 4-4v-20c0-2.212-1.788-4-4-4M448.61 80c-2.212 0-4 1.788-4 4v16c0 2.212 1.788 4 4 4 2.212 0 4-1.788 4-4V84c0-2.212-1.788-4-4-4M452.61 32c0-2.212-1.788-4-4-4h-.608c-.644-.128-1.34-.148-1.976 0H420.61c-2.212 0-4 1.788-4 4s1.788 4 4 4h24v28c0 2.212 1.788 4 4 4 2.212 0 4-1.788 4-4V33.7c0-.308-.028-.616-.08-.916a3.89 3.89 0 0 0 .08-.784"/></svg>