<?xml version="1.0" encoding="iso-8859-1"?>
<!-- Uploaded to: SVG Repo, www.svgrepo.com, Generator: SVG Repo Mixer Tools -->
<svg fill="#000000" height="800px" width="800px" version="1.1" id="Layer_1" xmlns="http://www.w3.org/2000/svg" xmlns:xlink="http://www.w3.org/1999/xlink" 
	 viewBox="0 0 512 512" xml:space="preserve">
<g>
	<g>
		<path d="M450.042,0H77.462C60.066,0,40.61,14.416,40.61,33.704V204c0,2.212,1.788,4,4,4s4-1.788,4-4V33.704
			C48.61,20.492,62.63,8,77.462,8h372.576c13.292,0,22.572,10.572,22.572,25.704V204c0,2.212,1.788,4,4,4c2.212,0,4-1.788,4-4
			V33.704C480.61,14.176,467.754,0,450.042,0z"/>
	</g>
</g>
<g>
	<g>
		<path d="M446.066,376H81.354c-19.232,0-36.744,16.156-36.744,33.9V508c0,2.212,1.788,4,4,4h424c2.212,0,4-1.788,4.004-4v-98.1
			C476.614,390.256,463.766,376,446.066,376z M468.61,504h-416v-94.1c0-13.316,13.968-25.9,28.744-25.9h364.708
			c15.492,0,22.548,13.428,22.548,25.9V504z"/>
	</g>
</g>
<g>
	<g>
		<path d="M207.83,52.316c-28.588,0-51.844,23.252-51.844,51.84S179.246,156,207.83,156c28.58,0,51.836-23.256,51.836-51.844
			C259.666,75.568,236.414,52.316,207.83,52.316z M207.83,148c-24.176,0-43.844-19.668-43.844-43.844
			c0-24.172,19.668-43.84,43.844-43.84c24.172,0,43.836,19.668,43.836,43.84C251.666,128.332,232.002,148,207.83,148z"/>
	</g>
</g>
<g>
	<g>
		<path d="M304.422,83.984c-11.12,0-20.172,9.052-20.172,20.172c0,11.124,9.052,20.176,20.172,20.176s20.172-9.052,20.172-20.176
			C324.594,93.036,315.542,83.984,304.422,83.984z M304.422,116.332c-6.712,0-12.172-5.46-12.172-12.176
			c0-6.712,5.46-12.172,12.172-12.172s12.172,5.46,12.172,12.172C316.594,110.872,311.134,116.332,304.422,116.332z"/>
	</g>
</g>
<g>
	<g>
		<path d="M351.766,83.984c-11.128,0-20.18,9.052-20.18,20.172c0,11.124,9.052,20.176,20.18,20.176
			c11.12,0,20.172-9.052,20.172-20.176C371.938,93.036,362.886,83.984,351.766,83.984z M351.766,116.332
			c-6.716,0-12.18-5.46-12.18-12.176c0-6.712,5.464-12.172,12.18-12.172c6.712,0,12.172,5.46,12.172,12.172
			C363.938,110.872,358.478,116.332,351.766,116.332z"/>
	</g>
</g>
<g>
	<g>
		<path d="M476.61,200H25.226c-9.836,0-17.836,8.076-17.836,18s8,18,17.836,18H196.61c2.212,0,4-1.788,4-4c0-2.212-1.788-4-4-4
			H25.226c-5.42,0-9.836-4.484-9.836-10s4.416-10,9.836-10H476.61c2.212,0,4-1.788,4-4C480.61,201.788,478.822,200,476.61,200z"/>
	</g>
</g>
<g>
	<g>
		<path d="M484.61,276.152c-11.028,0-20,9.012-20,20.096V336.1c0,2.208,1.788,3.996,3.996,4l32.004,0.032
			c1.06,0,2.076-0.424,2.828-1.172c0.752-0.748,1.172-1.764,1.172-2.828v-39.884C504.61,285.168,495.638,276.152,484.61,276.152z
			 M496.61,332.128l-24-0.024v-35.856c0-6.672,5.384-12.096,12-12.096c6.616,0,12,5.424,12,12.096V332.128z"/>
	</g>
</g>
<g>
	<g>
		<path d="M76.61,228c-2.212,0-4,1.788-4,4v148c0,2.212,1.788,4,4,4s4-1.788,4-4V232C80.61,229.788,78.822,228,76.61,228z"/>
	</g>
</g>
<g>
	<g>
		<path d="M444.61,200c-2.212,0-4,1.788-4,4v176c0,2.212,1.788,4,4,4c2.212,0,4-1.788,4-4V204
			C448.61,201.788,446.822,200,444.61,200z"/>
	</g>
</g>
<g>
	<g>
		<path d="M484.61,240c-2.212,0-4,1.788-4,4v36c0,2.212,1.788,4,4,4c2.212,0,4-1.788,4-4v-36C488.61,241.788,486.822,240,484.61,240
			z"/>
	</g>
</g>
<g>
	<g>
		<path d="M487.53,241.264l-33.828-36.04c-1.512-1.608-4.044-1.684-5.656-0.18c-1.608,1.512-1.692,4.044-0.18,5.656l33.828,36.04
			c0.788,0.84,1.848,1.26,2.916,1.26c0.98,0,1.964-0.36,2.74-1.08C488.958,245.408,489.042,242.876,487.53,241.264z"/>
	</g>
</g>
<g>
	<g>
		<path d="M232.166,100.156c-2.212,0-4,1.788-4,4c0,11.22-9.12,20.344-20.336,20.344c-11.22,0-20.344-9.124-20.344-20.344
			c0-11.216,9.124-20.34,20.344-20.34c2.212,0,4-1.788,4-4c0-2.212-1.788-4-4-4c-15.628,0-28.344,12.716-28.344,28.34
			c0,15.628,12.716,28.344,28.344,28.344c15.624,0,28.336-12.716,28.336-28.344C236.166,101.944,234.378,100.156,232.166,100.156z"
			/>
	</g>
</g>
<g>
	<g>
		<path d="M324.61,200c-2.212,0-4,1.788-4,4v28.032c0,9.212-4.304,19.968-16.44,19.968h-80.42c-10.704,0-23.14-8.724-23.14-19.968
			V204c0-2.212-1.788-4-4-4c-2.212,0-4,1.788-4,4v28.032c0,16.008,16.44,27.968,31.14,27.968h80.424
			c14.384,0,24.436-11.5,24.436-27.968V204C328.61,201.788,326.822,200,324.61,200z"/>
	</g>
</g>
<g>
	<g>
		<path d="M288.61,252c-2.212,0-4,1.788-4,4v12h-48v-12c0-2.212-1.788-4-4-4c-2.212,0-4,1.788-4,4v16c0,2.212,1.788,4,4,4h56
			c2.212,0,4-1.788,4-4v-16C292.61,253.788,290.822,252,288.61,252z"/>
	</g>
</g>
<g>
	<g>
		<path d="M428.61,376c-2.212,0-4,1.788-4,4v60.124c0,9.896-5.248,19.876-16.984,19.876H119.75c-10.704,0-23.14-8.684-23.14-19.876
			V380c0-2.212-1.788-4-4-4s-4,1.788-4,4v60.124c0,15.956,16.44,27.876,31.14,27.876h287.876c14.712,0,24.984-11.46,24.984-27.876
			V380C432.61,377.788,430.822,376,428.61,376z"/>
	</g>
</g>
<g>
	<g>
		<path d="M260.61,416c-2.212,0-4,1.788-4,4v20c0,2.212,1.788,4,4,4c2.212,0,4-1.788,4-4v-20C264.61,417.788,262.822,416,260.61,416
			z"/>
	</g>
</g>
<g>
	<g>
		<path d="M228.61,416c-2.212,0-4,1.788-4,4v20c0,2.212,1.788,4,4,4c2.212,0,4-1.788,4-4v-20C232.61,417.788,230.822,416,228.61,416
			z"/>
	</g>
</g>
<g>
	<g>
		<path d="M196.61,416c-2.212,0-4,1.788-4,4v20c0,2.212,1.788,4,4,4c2.212,0,4-1.788,4-4v-20C200.61,417.788,198.822,416,196.61,416
			z"/>
	</g>
</g>
<g>
	<g>
		<path d="M164.61,416c-2.212,0-4,1.788-4,4v20c0,2.212,1.788,4,4,4c2.212,0,4-1.788,4-4v-20C168.61,417.788,166.822,416,164.61,416
			z"/>
	</g>
</g>
<g>
	<g>
		<path d="M132.61,416c-2.212,0-4,1.788-4,4v20c0,2.212,1.788,4,4,4c2.212,0,4-1.788,4-4v-20C136.61,417.788,134.822,416,132.61,416
			z"/>
	</g>
</g>
<g>
	<g>
		<path d="M292.61,416c-2.212,0-4,1.788-4,4v20c0,2.212,1.788,4,4,4c2.212,0,4-1.788,4-4v-20C296.61,417.788,294.822,416,292.61,416
			z"/>
	</g>
</g>
<g>
	<g>
		<path d="M356.61,416c-2.212,0-4,1.788-4,4v20c0,2.212,1.788,4,4,4c2.212,0,4-1.788,4-4v-20C360.61,417.788,358.822,416,356.61,416
			z"/>
	</g>
</g>
<g>
	<g>
		<path d="M388.61,416c-2.212,0-4,1.788-4,4v20c0,2.212,1.788,4,4,4c2.212,0,4-1.788,4-4v-20C392.61,417.788,390.822,416,388.61,416
			z"/>
	</g>
</g>
<g>
	<g>
		<path d="M324.61,416c-2.212,0-4,1.788-4,4v20c0,2.212,1.788,4,4,4c2.212,0,4-1.788,4-4v-20C328.61,417.788,326.822,416,324.61,416
			z"/>
	</g>
</g>
<g>
	<g>
		<g>
			<path d="M448.61,80c-2.212,0-4,1.788-4,4v16c0,2.212,1.788,4,4,4c2.212,0,4-1.788,4-4V84C452.61,81.788,450.822,80,448.61,80z"/>
			<path d="M452.61,32c0-2.212-1.788-4-4-4h-0.608c-0.644-0.128-1.34-0.148-1.976,0H420.61c-2.212,0-4,1.788-4,4s1.788,4,4,4h24v28
				c0,2.212,1.788,4,4,4c2.212,0,4-1.788,4-4V33.7c0-0.308-0.028-0.616-0.08-0.916C452.582,32.532,452.61,32.268,452.61,32z"/>
		</g>
	</g>
</g>
</svg>