<?xml version="1.0" ?>
<!DOCTYPE svg  PUBLIC '-//W3C//DTD SVG 1.1//EN'  'http://www.w3.org/Graphics/SVG/1.1/DTD/svg11.dtd'>
<!-- Uploaded to: SVG Repo, www.svgrepo.com, Generator: SVG Repo Mixer Tools -->
<svg width="800px" height="800px" viewBox="0 0 32 32" enable-background="new 0 0 32 32" id="_x3C_Layer_x3E_" version="1.1" xml:space="preserve" xmlns="http://www.w3.org/2000/svg" xmlns:xlink="http://www.w3.org/1999/xlink">
<g id="Navigation_x2C__contactless_x2C__app_x2C__mobile_x2C__taxi_x2C__transport_x2C__car">
<g id="XMLID_2241_">
<path d="    M29.5,27.5v2c0,0.553-0.447,1-1,1h-1c-0.553,0-1-0.447-1-1v-2" fill="none" id="XMLID_2242_" stroke="#263238" stroke-linecap="round" stroke-linejoin="round" stroke-miterlimit="10"/>
<line fill="none" id="XMLID_2243_" stroke="#263238" stroke-linecap="round" stroke-linejoin="round" stroke-miterlimit="10" x1="30.5" x2="16.5" y1="30.5" y2="30.5"/>
<line fill="none" id="XMLID_2244_" stroke="#263238" stroke-linecap="round" stroke-linejoin="round" stroke-miterlimit="10" x1="30.5" x2="16.5" y1="27.5" y2="27.5"/>
<path d="    M20.997,20.507c7.3,0.072,9.503,0.725,9.503,2.993v1.188" fill="none" id="XMLID_2245_" stroke="#263238" stroke-linecap="round" stroke-linejoin="round" stroke-miterlimit="10"/>
<path d="    M26.5,25.5v-1c0-0.55,0.45-1,1-1h3v2H26.5z" fill="none" id="XMLID_2246_" stroke="#263238" stroke-linecap="round" stroke-linejoin="round" stroke-miterlimit="10"/>
<path d="    M19,23.5h3.5c1.104,0,2,0.896,2,2l0,0" fill="none" id="XMLID_2248_" stroke="#263238" stroke-linecap="round" stroke-linejoin="round" stroke-miterlimit="10"/>
<path d="    M28.569,21.206L26.82,15.95c-0.181-0.53-0.761-1.02-1.311-1.09c-0.873-0.11-2.279-0.252-4.01-0.32" fill="none" id="XMLID_2249_" stroke="#263238" stroke-linecap="round" stroke-linejoin="round" stroke-miterlimit="10"/>
<g id="XMLID_2260_">
<path d="M19.363,7.526l1.31-1.533     c0.539-0.63,0.465-1.576-0.165-2.114c-0.629-0.54-1.578-0.464-2.114,0.165L17.5,5.089" fill="none" id="XMLID_2261_" stroke="#263238" stroke-linecap="round" stroke-miterlimit="10"/>
<path d="     M17.5,21.26v1.24c0,1.1-0.9,2-2,2h-5.001" fill="none" id="XMLID_2264_" stroke="#263238" stroke-linecap="round" stroke-linejoin="round" stroke-miterlimit="10"/>
<path d="     M4.5,15V3.5c0-1.1,0.9-2,2-2h9c1.1,0,2,0.9,2,2V10" fill="none" id="XMLID_2265_" stroke="#263238" stroke-linecap="round" stroke-linejoin="round" stroke-miterlimit="10"/>
<path d="     M14.901,26.502c-0.885,1.115-1.959,1.747-3.401,1.937V30.5" fill="none" id="XMLID_2266_" stroke="#263238" stroke-linecap="round" stroke-linejoin="round" stroke-miterlimit="10"/>
<path d="M18.96,10.26c-0.63-0.54-1.58-0.46-2.11,0.17     l-0.18,0.22c-0.54,0.63-0.46,1.57,0.17,2.11c0.28,0.24,0.63,0.36,0.97,0.36c0.43,0,0.85-0.18,1.14-0.53l0.17-0.21     C19.66,11.75,19.59,10.8,18.96,10.26z" fill="none" id="XMLID_2267_" stroke="#263238" stroke-miterlimit="10"/>
<path d="M19.3,13.63c-0.63-0.54-1.58-0.47-2.11,0.16     l-0.76,0.88c-0.54,0.63-0.46,1.57,0.17,2.11c0.28,0.24,0.62,0.36,0.97,0.36c0.42,0,0.84-0.18,1.14-0.52l0.76-0.88     C20.01,15.11,19.93,14.16,19.3,13.63z" fill="none" id="XMLID_2268_" stroke="#263238" stroke-miterlimit="10"/>
<path d="M19.26,17.74c-0.63-0.54-1.58-0.46-2.12,0.17     l-0.76,0.87c-0.54,0.63-0.46,1.58,0.17,2.12c0.28,0.24,0.63,0.36,0.97,0.36c0.43,0,0.85-0.18,1.14-0.53l0.76-0.87     C19.96,19.23,19.89,18.28,19.26,17.74z" fill="none" id="XMLID_2269_" stroke="#263238" stroke-miterlimit="10"/>
<path d="     M8.452,24.501c-0.388-4.925-3.952-7.2-3.952-7.2v-1.893v-2.84c0-3.531-2.5-3.031-3-3.031V30.5" fill="none" id="XMLID_2270_" stroke="#263238" stroke-linecap="round" stroke-linejoin="round" stroke-miterlimit="10"/>
</g>
<g id="XMLID_2202_">
<path d="     M14.462,9.829C14.462,12.654,11,16.5,11,16.5s-3.462-3.846-3.462-6.671C7.538,7.99,9.089,6.5,11,6.5S14.462,7.99,14.462,9.829z" fill="none" id="XMLID_2274_" stroke="#263238" stroke-linecap="round" stroke-linejoin="round" stroke-miterlimit="10"/>
<circle cx="11" cy="9.944" fill="none" id="XMLID_2275_" r="1" stroke="#263238" stroke-linecap="round" stroke-linejoin="round" stroke-miterlimit="10"/>
</g>
<line fill="none" id="XMLID_3098_" stroke="#263238" stroke-linecap="round" stroke-linejoin="round" stroke-miterlimit="10" x1="23.5" x2="21" y1="12.5" y2="12.5"/>
<g id="XMLID_92_">
<line fill="none" id="XMLID_140_" stroke="#263238" stroke-linecap="round" stroke-linejoin="round" stroke-miterlimit="10" x1="12.5" x2="9.499" y1="3.5" y2="3.5"/>
</g>
</g>
</g>
</svg>