<svg xmlns="http://www.w3.org/2000/svg" xml:space="preserve" width="800" height="800" viewBox="0 0 32 32"><path fill="none" stroke="#263238" stroke-linecap="round" stroke-linejoin="round" stroke-miterlimit="10" d="M29.5 27.5v2a1 1 0 0 1-1 1h-1a1 1 0 0 1-1-1v-2M30.5 30.5h-14M30.5 27.5h-14M20.997 20.507c7.3.072 9.503.725 9.503 2.993v1.188"/><path fill="none" stroke="#263238" stroke-linecap="round" stroke-linejoin="round" stroke-miterlimit="10" d="M26.5 25.5v-1c0-.55.45-1 1-1h3v2zM19 23.5h3.5a2 2 0 0 1 2 2h0M28.569 21.206 26.82 15.95c-.181-.53-.761-1.02-1.311-1.09a47.77 47.77 0 0 0-4.01-.32"/><g fill="none" stroke="#263238" stroke-miterlimit="10"><path stroke-linecap="round" d="m19.363 7.526 1.31-1.533a1.498 1.498 0 0 0-.165-2.114 1.498 1.498 0 0 0-2.114.165L17.5 5.089"/><path stroke-linecap="round" stroke-linejoin="round" d="M17.5 21.26v1.24c0 1.1-.9 2-2 2h-5.001M4.5 15V3.5c0-1.1.9-2 2-2h9c1.1 0 2 .9 2 2V10M14.901 26.502c-.885 1.115-1.959 1.747-3.401 1.937V30.5"/><path d="M18.96 10.26c-.63-.54-1.58-.46-2.11.17l-.18.22c-.54.63-.46 1.57.17 2.11.28.24.63.36.97.36.43 0 .85-.18 1.14-.53l.17-.21c.54-.63.47-1.58-.16-2.12zM19.3 13.63c-.63-.54-1.58-.47-2.11.16l-.76.88c-.54.63-.46 1.57.17 2.11.28.24.62.36.97.36.42 0 .84-.18 1.14-.52l.76-.88c.54-.63.46-1.58-.17-2.11zM19.26 17.74c-.63-.54-1.58-.46-2.12.17l-.76.87a1.505 1.505 0 0 0 1.14 2.48c.43 0 .85-.18 1.14-.53l.76-.87c.54-.63.47-1.58-.16-2.12z"/><path stroke-linecap="round" stroke-linejoin="round" d="M8.452 24.501c-.388-4.925-3.952-7.2-3.952-7.2v-4.733c0-3.531-2.5-3.031-3-3.031V30.5"/></g><g fill="none" stroke="#263238" stroke-linecap="round" stroke-linejoin="round" stroke-miterlimit="10"><path d="M14.462 9.829C14.462 12.654 11 16.5 11 16.5s-3.462-3.846-3.462-6.671C7.538 7.99 9.089 6.5 11 6.5s3.462 1.49 3.462 3.329"/><circle cx="11" cy="9.944" r="1"/></g><path fill="none" stroke="#263238" stroke-linecap="round" stroke-linejoin="round" stroke-miterlimit="10" d="M23.5 12.5H21M12.5 3.5H9.499"/></svg>