<svg xmlns="http://www.w3.org/2000/svg" xml:space="preserve" width="800" height="800" viewBox="0 0 311.011 311.011" fill="#7367F0"><path d="M221.805 91.867h63.423a.86.86 0 0 0 .608-1.466 24.133 24.133 0 0 0-17.067-7.07h-5.201c1.038-.916 1.706-2.241 1.706-3.735a5 5 0 0 0-5-5H246.76a5 5 0 0 0-5 5c0 1.493.668 2.819 1.706 3.735h-5.201c-6.4 0-12.539 2.543-17.066 7.07a.858.858 0 0 0 .606 1.466M245.394 113.443c6.09 0 11.17 4.578 11.85 10.585 1.09 9.658-3.622 20.152-14.529 27.028h23.018c10.346 0 18.94-7.981 19.704-18.299l1.031-13.92h6.369a5 5 0 0 0 5-5 5 5 0 0 0-5-5h-5.628l.242-3.275a3.518 3.518 0 0 0-3.506-3.775h-60.856a3.517 3.517 0 0 0-3.506 3.775l.243 3.275h-5.627c-2.62 0-4.744 2.021-4.958 4.586l.012.021h36.141zM84.754 296.011c0 8.284 6.716 15 15 15 8.284 0 15-6.716 15-15v-89.306h-30zM121.649 296.011c0 8.284 6.716 15 15 15 8.284 0 15-6.716 15-15v-89.306h-30zM109.241 83.409h18.075l4.105-23.462h-26.285z"/><path d="M288.082 161.303H154.49a12.489 12.489 0 0 0 3.119-1.245l28.188-15.804c-5.275-6.16-7.356-13.519-6.58-20.252.684-5.941 5.738-10.558 11.847-10.558h6.606a7405.18 7405.18 0 0 0-18.208-30.995c-5.096-8.637-12.705-21.524-27.915-22.443v-.057h-9.974l-4.526 25.87 9.91 39.884 4.589-2.6v-36.82c3.217 3.19 15.85 25.503 21.931 35.888l-28.191 16.136c-6.127 3.471-8.027 11.191-4.715 17.037 1.761 3.109 4.655 5.162 7.869 5.96H87.954a12.46 12.46 0 0 0 7.87-5.96c3.313-5.847 1.411-13.566-4.714-17.037l-28.191-16.136c17.588-30.04 19.346-33.127 21.656-35.597v36.373l4.698 2.662 10.176-40.141-4.464-25.519h-10.41v.079C69.551 61.084 62 73.864 56.935 82.448c-11.144 18.859-21.195 36.117-22.32 38.03-3.551 6.088-1.438 13.903 4.687 17.375l39.483 22.204a12.52 12.52 0 0 0 3.119 1.245H22.928c-9.776 0-17.701 7.925-17.701 17.701s7.925 17.701 17.701 17.701h265.154c9.776 0 17.701-7.925 17.701-17.701s-7.925-17.7-17.701-17.7M118.571 50.783c13.97 0 25.391-11.338 25.391-25.391C143.962 11.368 132.594 0 118.571 0 104.548 0 93.18 11.368 93.18 25.391c0 13.996 11.354 25.392 25.391 25.392"/><path d="M247.395 126.658c0-.509-.032-1.011-.088-1.509a1.921 1.921 0 0 0-1.913-1.706h-54.331c-.977 0-1.801.732-1.912 1.702-.057.499-.09 1.002-.09 1.512 0 8.052 6.211 15.053 15.347 18.626h-.266v3.382c0 1.063.862 1.925 1.925 1.925h24.324a1.924 1.924 0 0 0 1.924-1.925v-3.382h-.265c9.135-3.571 15.345-10.573 15.345-18.625"/></svg>