<svg xmlns="http://www.w3.org/2000/svg" xml:space="preserve" viewBox="0 0 512 512" fill="#7367F0"><path d="m500.983 181.442-2.263-7.493-7.567 2.007c-4.781 1.269-9.426 1.885-14.198 1.885-31.193 0-56.572-25.377-56.572-56.572 0-2.376.187-4.789.554-7.176l.862-5.601-4.967-2.727c-6.478-3.558-12.204-8.5-17.017-14.688l-6.405-8.235-6.389 8.248c-10.871 14.034-27.199 22.083-44.795 22.083-31.193 0-56.573-25.378-56.573-56.573 0-14.778 5.77-28.849 16.247-39.624l10.91-11.218-15.458-2.427C283.276 1.121 269.363 0 256.001 0c-141.159 0-256 114.841-256 256s114.841 256 256 256 256-114.841 255.998-256.002c0-25.261-3.706-50.344-11.016-74.556M256.001 495.805C123.773 495.805 16.197 388.229 16.197 256S123.773 16.195 256.001 16.195c8.105 0 16.439.442 24.903 1.319-7.449 11.641-11.444 25.112-11.444 39.086 0 40.125 32.643 72.768 72.768 72.768 19.409 0 37.606-7.596 51.201-21.117a70.425 70.425 0 0 0 10.898 8.871 62.687 62.687 0 0 0-.138 4.148c0 40.124 32.644 72.767 72.767 72.767 3.559 0 7.056-.262 10.554-.795a241.51 241.51 0 0 1 8.294 62.756c.002 132.23-107.575 239.807-239.803 239.807"/><path d="M175.163 113.174c-25.266 0-45.821 20.555-45.821 45.821s20.555 45.821 45.821 45.821c25.267 0 45.821-20.555 45.821-45.821s-20.555-45.821-45.821-45.821m0 75.445c-16.335 0-29.626-13.291-29.626-29.626s13.29-29.626 29.626-29.626c16.336 0 29.626 13.291 29.626 29.626s-13.291 29.626-29.626 29.626M115.883 210.178c-19.322 0-35.044 15.721-35.044 35.044 0 19.322 15.721 35.044 35.044 35.044 19.323 0 35.044-15.721 35.044-35.044-.001-19.323-15.722-35.044-35.044-35.044m0 53.892c-10.393 0-18.848-8.455-18.848-18.848 0-10.393 8.455-18.848 18.848-18.848 10.393 0 18.848 8.455 18.848 18.848 0 10.393-8.455 18.848-18.848 18.848M385.341 296.404c-19.322 0-35.044 15.721-35.044 35.044s15.721 35.044 35.044 35.044c19.323 0 35.044-15.721 35.044-35.044s-15.722-35.044-35.044-35.044m0 53.892c-10.393 0-18.848-8.455-18.848-18.848 0-10.393 8.455-18.848 18.848-18.848s18.848 8.455 18.848 18.848c0 10.393-8.455 18.848-18.848 18.848M309.894 361.075c-19.322 0-35.044 15.721-35.044 35.044 0 19.322 15.721 35.044 35.044 35.044s35.044-15.721 35.044-35.044c0-19.323-15.722-35.044-35.044-35.044m0 53.892c-10.393 0-18.848-8.455-18.848-18.848 0-10.393 8.455-18.848 18.848-18.848 10.393 0 18.848 8.455 18.848 18.848 0 10.393-8.455 18.848-18.848 18.848M288.337 264.07c-19.322 0-35.044 15.721-35.044 35.044 0 19.322 15.721 35.044 35.044 35.044 19.322 0 35.044-15.721 35.044-35.044 0-19.323-15.722-35.044-35.044-35.044m0 53.892c-10.393 0-18.848-8.455-18.848-18.848 0-10.393 8.455-18.848 18.848-18.848 10.393 0 18.848 8.455 18.848 18.848 0 10.392-8.455 18.848-18.848 18.848M304.507 177.847h21.557v16.195h-21.557zM336.844 210.173H358.4v16.195h-21.556zM347.62 167.061h21.557v16.195H347.62zM99.711 371.858h21.557v16.195H99.711zM121.272 339.521h21.557v16.195h-21.557zM142.823 371.858h21.557v16.195h-21.557z"/></svg>