<svg xmlns="http://www.w3.org/2000/svg" xml:space="preserve" width="800" height="800" viewBox="0 0 456.333 456.333"><path d="M440.569 148.525a31.106 31.106 0 0 0-4.587-.034v-.004l-37.159.029c-8.206 0-14.913 1.769-20.237 5.33-.266-4.369-.818-9.983-1.963-15.135-1.609-7.234-8.188-12.485-15.643-12.485H95.353c-7.455 0-14.032 5.251-15.642 12.485-1.145 5.152-1.698 10.766-1.964 15.135-5.324-3.562-12.031-5.33-20.235-5.33l-37.162-.029v.003a31.107 31.107 0 0 0-4.587.035C6.924 149.262 0 156.788 0 165.658V273.28c0 15.41 12.537 27.946 27.946 27.946H36v19.869a8.981 8.981 0 0 0 5.561 8.322 8.984 8.984 0 0 0 9.817-1.953l26.238-26.239h301.101l26.239 26.239a8.986 8.986 0 0 0 9.816 1.953 8.982 8.982 0 0 0 5.561-8.323v-19.869h8.054c15.409 0 27.946-12.537 27.946-27.946V165.658c0-8.87-6.925-16.396-15.764-17.133m-41.743 6.991 19.333-.015a31.215 31.215 0 0 0-8.655 11.159l-11.732 25.523c-8.061 17.535-7.663 37.325.172 54.129a182.43 182.43 0 0 0-39.865-18.706c-1.672-11.078-.094-22.271 4.604-32.497l11.731-25.521c4.468-9.733 11.996-14.072 24.412-14.072m-303.473-22.29H360.98c4.202 0 7.906 2.946 8.809 7.005 1.71 7.69 1.989 16.858 2.033 20.048-1.425 1.897-2.683 4.02-3.769 6.386l-11.731 25.521c-4.807 10.462-6.696 21.824-5.572 33.168a182.806 182.806 0 0 0-31.936-6.048 981.727 981.727 0 0 0-181.313.001 182.643 182.643 0 0 0-31.917 6.045c1.123-11.343-.766-22.705-5.574-33.168l-11.73-25.518c-1.086-2.366-2.345-4.49-3.77-6.387.043-3.186.321-12.341 2.034-20.048.903-4.06 4.607-7.005 8.809-7.005zm-37.843 22.29c12.413 0 19.941 4.339 24.41 14.072l11.729 25.52c4.7 10.227 6.278 21.42 4.606 32.496a182.44 182.44 0 0 0-39.866 18.708c7.835-16.804 8.233-36.594.172-54.129L46.829 166.66a31.204 31.204 0 0 0-8.655-11.159zM46.429 322.515c-.855.856-1.817.589-2.189.436-.372-.155-1.239-.645-1.239-1.855v-19.869h24.717zm366.904-1.42c0 1.211-.867 1.701-1.239 1.855-.372.154-1.331.421-2.188-.436l-21.289-21.289h24.717v19.87zm36-47.816c0 11.568-9.378 20.946-20.946 20.946H27.946C16.378 294.226 7 284.848 7 273.279V165.658c0-5.258 4.105-9.72 9.346-10.157 10.155-.844 19.861 4.812 24.124 14.083l11.732 25.523c10.214 22.22 5.209 48.512-12.456 65.425l4.842 5.056c3.772-3.618 7.826-6.942 12.151-9.876a175.522 175.522 0 0 1 81.428-29.436 974.51 974.51 0 0 1 179.982-.001 175.538 175.538 0 0 1 81.445 29.437c4.307 2.922 8.345 6.23 12.103 9.83l.048.046 4.842-5.056c-17.665-16.913-22.671-43.205-12.457-65.425l11.732-25.523c4.262-9.271 13.973-14.92 24.124-14.083 5.24.437 9.346 4.898 9.346 10.157v107.621z"/></svg>