<svg xmlns="http://www.w3.org/2000/svg" xml:space="preserve" width="800" height="800" viewBox="0 0 422.43 422.43"><path d="M417.93 3.639H4.5a4.5 4.5 0 0 0-4.5 4.5v29.274a4.5 4.5 0 0 0 4.5 4.5h8.13c12.866 102.058-.535 190.489-.535 190.489V414.29a4.498 4.498 0 0 0 5.043 4.467c1.891-.229 46.567-6.369 69.105-70.492a4.506 4.506 0 0 0 .108-2.631c-15.099-57.749-25.674-96.287-28.716-107.302 33.989-21.988 60.824-63.161 77.727-119.351 6.689-22.237 10.628-42.644 12.893-57.452 10.864 20.308 34.992 34.472 62.96 34.472 27.969 0 52.096-14.166 62.959-34.475 2.265 14.814 6.202 35.218 12.891 57.455 16.904 56.19 43.738 97.362 77.728 119.351-3.043 11.015-13.618 49.553-28.716 107.302a4.506 4.506 0 0 0 .108 2.631c22.537 64.123 67.215 70.263 69.105 70.492a4.498 4.498 0 0 0 5.043-4.467V232.403h-.017c-.001-.332-13.394-88.395-.522-190.489h8.135a4.5 4.5 0 0 0 4.5-4.5V8.139a4.499 4.499 0 0 0-4.499-4.5zM21.095 408.602V254.428a49.002 49.002 0 0 0 6.321 4.455l8.998 142.642c-6.182 3.83-11.621 5.944-15.319 7.077zm3.647-338.091c6.987 8.625 16.619 15.59 27.902 20.046-4.401 76.512-20.774 119.01-27.022 132.725a26.96 26.96 0 0 1-2.653-3.295c3.222-24.943 7.998-78.833 1.773-149.476zm36.747 22.923a80.27 80.27 0 0 0 20.209 2.567c4.008 0 7.935-.3 11.758-.858-6.142 51.184-20.672 85.34-32.006 105.204-9.977 17.486-19.218 27.149-22.804 30.557a29.866 29.866 0 0 1-5.621-2.124c6.051-12.551 23.566-55.089 28.464-135.346zM47.732 241.102c.47 0 .906-.009 1.325-.021.919 3.329 2.466 8.957 4.561 16.65-20.993-1.827-30.231-12.992-32.524-16.3v-8.674l.183-1.1c8.996 8.068 20.008 9.445 26.455 9.445m-2.693 154.204-8.33-132.057a58.25 58.25 0 0 0 4.187 1.317L62.424 376.05c-5.808 8.437-11.861 14.677-17.385 19.256m32.254-48.737c-2.418 6.691-5.095 12.661-7.923 17.992l-18.948-98.127a73.62 73.62 0 0 0 5.688.471 9641.1 9641.1 0 0 1 21.183 79.664m49.451-230.18C115.15 154.927 92.58 206.127 50.85 231.958c-.206.021-.447.04-.721.06 13.953-15.518 43.456-57.119 52.609-138.797 13.99-3.801 26.044-11.289 34.585-21.105-2.33 12.785-5.714 28.101-10.579 44.273zM81.698 87.001c-31.304 0-57.082-19.847-59.849-45.088h11.929c2.8 19.15 23.215 34.061 47.919 34.061 24.703 0 45.118-14.911 47.918-34.061h11.929c-2.766 25.242-28.543 45.088-59.846 45.088m-.001-28.488c12.351 0 22.699-7.12 25.231-16.6h13.573c-2.887 14.172-19.188 25.061-38.803 25.061-19.616 0-35.918-10.889-38.805-25.061h13.58c2.53 9.48 12.874 16.6 25.224 16.6m-15.531-16.6H97.26c-2.542 4.405-8.641 7.6-15.563 7.6-6.918 0-12.992-3.196-15.531-7.6m145.049 45.088c-31.304 0-57.082-19.847-59.849-45.088h11.929c2.8 19.15 23.215 34.061 47.919 34.061 24.703 0 45.118-14.911 47.917-34.061h11.929c-2.765 25.242-28.542 45.088-59.845 45.088m-.001-28.488c12.351 0 22.699-7.12 25.231-16.6h13.573c-2.887 14.172-19.188 25.061-38.803 25.061-19.616 0-35.918-10.889-38.805-25.061h13.575c2.531 9.48 12.879 16.6 25.229 16.6m-15.562-16.6h31.125c-2.542 4.405-8.641 7.6-15.563 7.6-6.922 0-13.02-3.194-15.562-7.6m145.078 16.6c12.351 0 22.699-7.12 25.23-16.6h13.575c-2.887 14.172-19.189 25.061-38.806 25.061-19.615 0-35.916-10.889-38.803-25.061H315.5c2.532 9.48 12.88 16.6 25.23 16.6m-15.562-16.6h31.125c-2.543 4.405-8.641 7.6-15.563 7.6-6.921 0-13.02-3.194-15.562-7.6m15.561 34.061c24.705 0 45.12-14.911 47.919-34.061h11.911c-2.768 25.239-28.528 45.088-59.83 45.088-31.303 0-57.08-19.847-59.847-45.088h11.929c2.801 19.15 23.215 34.061 47.918 34.061m60.605 165.456c-2.297 3.309-11.537 14.47-32.522 16.297a4900.46 4900.46 0 0 1 4.56-16.646c.419.013.855.021 1.325.021 6.448 0 17.457-1.391 26.452-9.457l.185 1.113zm-1.879-21.464a27.382 27.382 0 0 1-2.657 3.325c-6.248-13.656-22.602-55.991-27.015-132.733 11.28-4.453 20.91-11.413 27.899-20.032-6.225 70.63-1.452 124.492 1.773 149.44m-10.041 8.835a29.53 29.53 0 0 1-5.604 2.13c-7.925-7.526-44.119-46.336-54.837-135.788 3.823.559 7.749.858 11.757.858 7.03 0 13.813-.904 20.208-2.566 4.9 80.306 22.434 122.845 28.476 135.366m-93.677-112.235c-4.889-16.222-8.288-31.603-10.627-44.444 8.54 9.814 20.593 17.301 34.581 21.101 9.154 81.69 38.666 123.292 52.616 138.803a25.317 25.317 0 0 1-.723-.064c-41.688-25.8-64.251-76.92-75.847-115.396m70.58 150.346a74.255 74.255 0 0 0 5.684-.456l-18.944 98.11c-2.835-5.353-5.509-11.315-7.921-17.996a9634.577 9634.577 0 0 1 21.181-79.658m-6.314 109.151 21.523-111.467a58.148 58.148 0 0 0 4.191-1.334l-8.328 132.018c-5.729-4.733-11.719-10.99-17.386-19.217m26.013 25.434 8.995-142.593a49.164 49.164 0 0 0 6.323-4.462v154.167c-3.685-1.131-9.111-3.257-15.318-7.112M413.43 32.913H9V12.639h404.43z"/></svg>