<svg xmlns="http://www.w3.org/2000/svg" xml:space="preserve" width="800" height="800" viewBox="0 0 512 512"><path d="M406.473 191.535h9.5v9.5h-9.5zM406.473 164.035h9.5v9.5h-9.5zM406.473 383.559h9.5v9.5h-9.5zM406.473 356.059h9.5v9.5h-9.5zM332.961 302.414c0-11.334-8.283-20.764-19.111-22.57a22.682 22.682 0 0 0 4.207-13.195c0-12.621-10.268-22.889-22.889-22.889h-24.83v10h24.83c7.107 0 12.889 5.781 12.889 12.889 0 3.447-1.34 6.68-3.779 9.111a12.796 12.796 0 0 1-9.109 3.766v10h14.904c7.105 0 12.889 5.783 12.889 12.889 0 3.432-1.342 6.664-3.779 9.1a12.795 12.795 0 0 1-9.109 3.779h-10.779v10h10.779c7.105 0 12.889 5.777 12.889 12.877 0 3.439-1.342 6.674-3.785 9.117a12.765 12.765 0 0 1-9.104 3.771H295.17v10c7.107 0 12.889 5.777 12.889 12.879 0 3.445-1.34 6.68-3.779 9.109a12.798 12.798 0 0 1-9.109 3.777h-49.67c-7.101 0-12.878-5.781-12.878-12.887 0-7.102 5.777-12.879 12.878-12.879h32.901v-10h-32.901c-7.101 0-12.878-5.781-12.878-12.889a12.81 12.81 0 0 1 3.318-8.633 27.933 27.933 0 0 0 12.63 3.008c5.095 0 9.499-2.965 11.612-7.252h27.445v-10H261.52v-25.768h16.965v-10H261.52V269.07c0-16.383-13.329-29.711-29.711-29.711h-42.612c-21.183 0-41.63 8.88-56.099 24.363C118.204 279.66 97.613 288.8 76.604 288.8H35.887v10h40.716c23.768 0 47.022-10.297 63.801-28.25 12.585-13.467 30.369-21.191 48.792-21.191h42.612c10.868 0 19.711 8.842 19.711 19.711v50.523a2.955 2.955 0 0 1-2.951 2.951c-9.992 0-18.121-8.129-18.121-18.121v-37.555h-10v37.555c0 7.355 2.842 14.057 7.48 19.072-3.378 4.031-5.308 9.178-5.308 14.674 0 7.234 3.375 13.689 8.629 17.887-5.254 4.197-8.629 10.65-8.629 17.881 0 9.771 6.155 18.129 14.79 21.406v5.795h-81.201c-7.359 0-14.356-2.326-20.233-6.725-11.045-8.277-23.826-12.652-36.962-12.652H35.887v10h63.126c10.956 0 21.664 3.684 30.967 10.656 7.621 5.705 16.691 8.721 26.229 8.721h81.201V490.4h30.93v-93.576h26.828a22.726 22.726 0 0 0 16.176-6.701c4.328-4.314 6.713-10.063 6.713-16.186a22.73 22.73 0 0 0-4.217-13.209 22.627 22.627 0 0 0 12.412-6.377c4.326-4.324 6.709-10.072 6.709-16.182 0-7.23-3.377-13.682-8.633-17.877a23.267 23.267 0 0 0 1.924-1.707c4.326-4.323 6.709-10.067 6.709-16.171M258.34 480.4h-10.93v-12h10.93zm0-22h-10.93v-61.576h10.93z"/><path d="M215.031 266.525h-10c0 35.756-29.09 64.846-64.846 64.846v10c41.271 0 74.846-33.576 74.846-74.846M152.723 205.237c0 7.693 6.259 13.952 13.952 13.952s13.952-6.259 13.952-13.952-6.259-13.952-13.952-13.952-13.952 6.259-13.952 13.952m13.952-3.952a3.956 3.956 0 0 1 3.952 3.952c0 2.179-1.772 3.952-3.952 3.952s-3.952-1.773-3.952-3.952a3.957 3.957 0 0 1 3.952-3.952M183.477 105.129c8.015 0 14.535-6.52 14.535-14.535 0-8.014-6.521-14.534-14.535-14.534s-14.534 6.52-14.534 14.534c0 8.015 6.519 14.535 14.534 14.535m0-19.069a4.54 4.54 0 0 1 4.535 4.534 4.54 4.54 0 0 1-4.535 4.535 4.54 4.54 0 0 1-4.534-4.535 4.54 4.54 0 0 1 4.534-4.534M140.449 178.535c10.476 0 18.998-8.522 18.998-18.998 0-10.475-8.522-18.998-18.998-18.998s-18.998 8.522-18.998 18.998 8.522 18.998 18.998 18.998m0-27.995c4.962 0 8.998 4.036 8.998 8.998s-4.036 8.998-8.998 8.998-8.998-4.037-8.998-8.998 4.036-8.998 8.998-8.998M237.41 230.22h10v-58.167l-15.73-36V60.267h-10v77.875l15.73 36z"/><path d="m323.396 118.061-.004-72.703c0-10.94-8.9-19.841-19.842-19.841-5.76 0-10.939 2.483-14.566 6.417H252.61v-6.417h-30.93v23.75h10v-13.75h10.93v102.456l15.73 36.33v55.917h10v-57.989l-15.73-36.33v-10.134h38.789c7.709 11.013 20.48 18.234 34.914 18.234h13.066v-10c-8.787-.001-15.957-7.15-15.983-15.94M252.61 41.934h31.417a19.818 19.818 0 0 0-.316 3.424v7.534H252.61zm0 20.958h31.101V73.85H252.61zm0 20.958h31.101v10.958H252.61zm0 31.917v-10.958h31.25a42.22 42.22 0 0 0 2.352 10.958zm41.101-14.369v-56.04c0-5.426 4.414-9.841 9.84-9.841s9.842 4.415 9.842 9.841v71.635l.004 1.099a25.827 25.827 0 0 0 4.746 14.872c-14.036-3.634-24.432-16.409-24.432-31.566M431.85 311.1l-.004-72.703c0-10.94-8.9-19.841-19.84-19.841-10.941 0-19.842 8.9-19.842 19.841v56.041c0 23.49 19.111 42.602 42.602 42.602h13.068v-10c-8.789-.001-15.959-7.149-15.984-15.94m-29.686-16.662v-56.041c0-5.426 4.416-9.841 9.842-9.841s9.84 4.415 9.84 9.841v71.635l.004 1.1a25.811 25.811 0 0 0 4.748 14.871c-14.037-3.636-24.434-16.409-24.434-31.565"/><path d="m465.631 123.728-.027-.95-22.896-53.516h-2.303V48.388h-10.58V21.6h-37.15v26.788h-10.58v20.874h-2.303l-22.896 53.516L346.332 490.4h129.781l-10.482-366.672zM402.674 31.6h17.15v16.788h-17.15zm-10.58 26.788H430.404v10.874h-38.311V58.388zm-5.705 20.874h49.721l16.945 39.609h-83.613zm-29.035 375.722h80.865v-10h-80.578l9.082-316.114h89.051l9.037 316.114h-16.414v10h16.701l.727 25.416H356.623z"/></svg>