<svg xmlns="http://www.w3.org/2000/svg" xml:space="preserve" width="800" height="800" viewBox="0 0 512 512"><circle cx="93.091" cy="69.818" r="11.636"/><circle cx="139.636" cy="69.818" r="11.636"/><circle cx="186.182" cy="69.818" r="11.636"/><circle cx="418.909" cy="69.818" r="11.636"/><path d="M442.182 0H69.818C50.036 0 34.909 15.127 34.909 34.909v407.273c0 19.782 15.127 34.909 34.909 34.909v23.273c0 3.491 1.164 5.818 3.491 8.145S77.964 512 81.454 512H384c6.982 0 11.636-4.655 11.636-11.636s-4.655-11.636-11.636-11.636H93.091v-23.273c0-3.491-1.164-5.818-3.491-8.145s-4.655-3.491-8.145-3.491H69.818c-6.982 0-11.636-4.655-11.636-11.636V34.909c0-6.982 4.655-11.636 11.636-11.636h372.364c6.982 0 11.636 4.655 11.636 11.636v407.273c0 6.982-4.655 11.636-11.636 11.636H128c-6.982 0-11.636 4.655-11.636 11.636 0 6.982 4.655 11.636 11.636 11.636h290.909v23.273c0 6.982 4.655 11.636 11.636 11.636s11.636-4.655 11.636-11.636V477.09c19.782 0 34.909-15.127 34.909-34.909V34.909C477.091 15.127 461.964 0 442.182 0"/><path d="M418.909 116.364H93.091c-6.982 0-11.636 4.655-11.636 11.636v290.909c0 6.982 4.655 11.636 11.636 11.636h325.818c6.982 0 11.636-4.655 11.636-11.636V128c0-6.982-4.654-11.636-11.636-11.636m-11.636 290.909H104.727V139.636h302.545v267.637z"/><path d="M186.182 267.636c-32.582 0-58.182 25.6-58.182 58.182S153.6 384 186.182 384s58.182-25.6 58.182-58.182-25.6-58.182-58.182-58.182m0 93.091c-19.782 0-34.909-15.127-34.909-34.909 0-19.782 15.127-34.909 34.909-34.909s34.909 15.127 34.909 34.909c0 19.782-15.127 34.909-34.909 34.909M256 267.636c-6.982 0-11.636 4.655-11.636 11.636 0 6.982 4.655 11.636 11.636 11.636 19.782 0 34.909 15.127 34.909 34.909 0 19.782-15.127 34.909-34.909 34.909-6.982 0-11.636 4.655-11.636 11.636S249.018 384 256 384c32.582 0 58.182-25.6 58.182-58.182s-25.6-58.182-58.182-58.182"/><path d="M325.818 267.636c-6.982 0-11.636 4.655-11.636 11.636 0 6.982 4.655 11.636 11.636 11.636 19.782 0 34.909 15.127 34.909 34.909 0 19.782-15.127 34.909-34.909 34.909-6.982 0-11.636 4.655-11.636 11.636S318.836 384 325.818 384C358.4 384 384 358.4 384 325.818s-25.6-58.182-58.182-58.182M256 162.909c-6.982 0-11.636 4.655-11.636 11.636v46.545c0 6.982 4.655 11.636 11.636 11.636s11.636-4.655 11.636-11.636v-46.545c0-6.981-4.654-11.636-11.636-11.636M335.127 216.436l-23.273-46.545c-2.327-5.818-9.309-8.145-15.127-4.655-5.818 2.327-8.145 9.309-4.655 15.127l23.273 45.382c2.327 4.655 5.818 6.982 10.473 6.982 2.327 0 3.491 0 4.655-1.164 5.818-2.327 8.145-9.308 4.654-15.127M215.273 164.073c-5.818-2.327-12.8 0-15.127 4.655l-23.273 46.545c-3.491 5.818-1.164 12.8 4.655 16.291 1.164 1.164 2.327 1.164 4.655 1.164 4.655 0 8.145-2.327 10.473-6.982l23.273-46.545c2.326-5.819-.002-12.801-4.656-15.128"/></svg>