<svg xmlns="http://www.w3.org/2000/svg" xml:space="preserve" width="800" height="800" viewBox="0 0 512.001 512.001"><path d="M102.77 249.102a9.156 9.156 0 0 0-12.946-.001 9.145 9.145 0 0 0 0 12.94c3.574 3.574 9.371 3.573 12.945-.001 3.575-3.573 3.577-9.366.001-12.938M405.573 372.017a7.836 7.836 0 0 0-11.069.55 131.991 131.991 0 0 1-9.143 9.151c-24.068 21.839-55.243 33.867-87.783 33.867a7.837 7.837 0 0 0-.001 15.674c36.442 0 71.358-13.472 98.313-37.932a147.984 147.984 0 0 0 10.232-10.241 7.835 7.835 0 0 0-.549-11.069M431.708 320.465a7.838 7.838 0 0 0-9.88 5.023 129.994 129.994 0 0 1-14.895 31.001 7.839 7.839 0 0 0 6.546 12.136 7.828 7.828 0 0 0 6.56-3.54 145.681 145.681 0 0 0 16.691-34.74 7.836 7.836 0 0 0-5.022-9.88M376.475 0H353.41a7.837 7.837 0 0 0 0 15.674h23.065c14.112 0 25.594 11.473 25.594 25.577 0 14.104-11.481 25.578-25.594 25.578h-66.339c-19.767 0-35.848 16.075-35.848 35.834v18.179a7.837 7.837 0 0 0 15.674-.001v-18.179c0-11.117 9.051-20.16 20.175-20.16h66.339c22.755 0 41.267-18.505 41.267-41.252 0-22.745-18.512-41.25-41.268-41.25M170.065 176.143h-59.694c-16.023 0-29.06-13.028-29.06-29.041s13.036-29.041 29.06-29.041h27.468a7.837 7.837 0 0 0 0-15.674h-27.468c-24.666 0-44.733 20.059-44.733 44.714 0 24.654 20.068 44.714 44.733 44.714h59.694a7.836 7.836 0 1 0 0-15.672M196.862 19.954h-36.386a7.837 7.837 0 0 0-.001 15.674h36.386c18.416 0 33.399 14.974 33.399 33.379 0 18.406-14.983 33.38-33.399 33.38h-32.226a7.837 7.837 0 0 0 0 15.674h32.227c27.059 0 49.073-22.005 49.073-49.054 0-27.048-22.014-49.053-49.073-49.053M379.753 117.775h-18.718a7.837 7.837 0 0 0 0 15.674h18.718c14.973 0 27.155 12.174 27.155 27.138-.001 14.964-12.182 27.138-27.155 27.138h-52.137a7.837 7.837 0 0 0 0 15.674h52.137c23.616 0 42.828-19.205 42.828-42.812s-19.212-42.812-42.828-42.812"/><path d="M481.521 294.167h-49.402c-5.27-17.465-21.511-30.222-40.68-30.222-3.91 0-7.695.54-11.293 1.533l-22.687-22.675a17.803 17.803 0 0 0-12.665-5.241 17.8 17.8 0 0 0-12.666 5.243l-15.432 15.424-7.18-31.156a7.838 7.838 0 0 0-15.275 3.52l6.589 28.59-2.527-2.526a17.801 17.801 0 0 0-12.666-5.245 17.798 17.798 0 0 0-12.667 5.245l-37.53 37.51h-1.206c-2.385-13.883-11.529-25.48-23.921-31.274l18.338-79.574a6.797 6.797 0 0 1 6.656-5.292h41.384a6.795 6.795 0 0 1 6.654 5.291l4.152 18.017a7.838 7.838 0 0 0 15.273-3.521l-4.15-18.014c-2.367-10.271-11.384-17.446-21.927-17.446h-41.384c-10.543 0-19.56 7.173-21.928 17.446l-10.999 47.725-12.487-12.48a17.802 17.802 0 0 0-12.667-5.245 17.802 17.802 0 0 0-12.667 5.245l-23.216 23.203c-15.779-11.512-33.371-18.092-49.317-18.092-12.646 0-23.449 4.116-31.24 11.902-10.664 10.659-14.346 26.667-10.369 45.074 1.229 5.685 3.175 11.402 5.734 17.037H30.482c-15.784 0-28.625 12.837-28.625 28.615s12.841 28.615 28.625 28.615h24.977c9.648 23.067 24.313 43.958 43.221 61.116 25.087 22.765 56.03 37.436 89.082 42.588l-6.029 14.685h-13.365c-10.178 0-18.458 8.278-18.458 18.453v5.309c0 10.175 8.281 18.453 18.458 18.453H276.9a7.837 7.837 0 0 0 0-15.674H168.37a2.785 2.785 0 0 1-2.785-2.779v-5.309a2.785 2.785 0 0 1 2.785-2.779h175.263a2.785 2.785 0 0 1 2.785 2.779v5.309a2.785 2.785 0 0 1-2.785 2.779h-35.387a7.837 7.837 0 0 0 0 15.674h35.387c10.178 0 18.458-8.278 18.458-18.453v-5.309c0-10.175-8.281-18.453-18.458-18.453h-13.365l-6.029-14.685c33.053-5.153 63.995-19.824 89.082-42.588 18.909-17.157 33.574-38.049 43.221-61.116h24.977c15.783 0 28.625-12.837 28.625-28.615s-12.84-28.617-28.623-28.617M30.482 335.723zc-7.141 0-12.951-5.805-12.951-12.941s5.811-12.941 12.951-12.941h13.481a171.301 171.301 0 0 0 5.824 25.882H30.482zm360.957-56.104c10.365 0 19.349 5.924 23.808 14.548h-47.616c4.458-8.625 13.443-14.548 23.808-14.548m-48.233-25.728c.543-.543 1.163-.656 1.588-.656s1.046.114 1.587.655l19.014 19.005c-6.869 5.346-12.062 12.745-14.636 21.272h-14.923l-16.462-16.454zm-59.154 13.852c.543-.542 1.163-.656 1.587-.656s1.044.114 1.587.657l26.439 26.424h-56.051zm-65.858 26.424h-36.031c-1.389-4.831-3.25-9.659-5.57-14.416a26.646 26.646 0 0 1 15.785-5.168c12.284-.001 22.657 8.301 25.816 19.584m-42.551-68.039c.543-.543 1.163-.657 1.587-.657s1.043.114 1.586.657l19.415 19.406-3.105 13.474a42.428 42.428 0 0 0-2.749-.098 42.232 42.232 0 0 0-23.759 7.289 116.906 116.906 0 0 0-15.215-17.841zM71.871 243.141c6.049-6.046 14.303-7.315 20.16-7.315 16.717 0 36.156 9.452 51.997 25.285 10.033 10.028 17.529 21.518 21.68 33.054h-56.989l18.151-18.142a7.835 7.835 0 0 0 .003-11.082 7.834 7.834 0 0 0-11.082-.003L86.55 294.166H73.713c-3.776-6.693-6.506-13.569-7.971-20.348-2.814-13.019-.637-23.913 6.129-30.677m126.806 226.644 5.311-12.938c3.465.209 6.944.325 10.436.325h83.153c3.492 0 6.972-.116 10.436-.325l5.311 12.938zm204.112-68.881c-28.849 26.177-66.213 40.594-105.211 40.594h-83.153c-38.998 0-76.363-14.416-105.212-40.594-26.484-24.032-43.822-56.102-49.404-91.064h392.382c-5.58 34.963-22.917 67.033-49.402 91.064m78.732-65.181h-19.306a171.274 171.274 0 0 0 5.824-25.882h13.481c7.142 0 12.951 5.805 12.951 12.941s-5.809 12.941-12.95 12.941"/></svg>