<?xml version="1.0" ?>
<!-- Uploaded to: SVG Repo, www.svgrepo.com, Generator: SVG Repo Mixer Tools -->
<svg fill="#000000" width="800px" height="800px" viewBox="0 0 32 32" xmlns="http://www.w3.org/2000/svg">
<title/>
<g data-name="Layer 2" id="Layer_2">
<path d="M30,14H20V13a1,1,0,0,0-2,0v1H17V9.5a.5.5,0,0,1,1,0V10a1,1,0,0,0,2,0V9.5a2.5,2.5,0,0,0-5,0V14H14V13a1,1,0,0,0-2,0v1H2a1,1,0,0,0-1,1v3a1,1,0,0,0,1,1V30a1,1,0,0,0,1,1H29a1,1,0,0,0,1-1V19a1,1,0,0,0,1-1V15A1,1,0,0,0,30,14ZM3,16H29v1H3Zm1,3H15V29H4ZM28,29H17V19H28Z"/>
<path d="M13,21a1,1,0,0,0-1,1v2a1,1,0,0,0,2,0V22A1,1,0,0,0,13,21Z"/>
<path d="M19,25a1,1,0,0,0,1-1V22a1,1,0,0,0-2,0v2A1,1,0,0,0,19,25Z"/>
</g>
</svg>