<svg xmlns="http://www.w3.org/2000/svg" width="800" height="800" viewBox="0 0 32 32" fill="#7367F0"><g data-name="Layer 2"><path d="M30 14H20v-1a1 1 0 0 0-2 0v1h-1V9.5a.5.5 0 0 1 1 0v.5a1 1 0 0 0 2 0v-.5a2.5 2.5 0 0 0-5 0V14h-1v-1a1 1 0 0 0-2 0v1H2a1 1 0 0 0-1 1v3a1 1 0 0 0 1 1v11a1 1 0 0 0 1 1h26a1 1 0 0 0 1-1V19a1 1 0 0 0 1-1v-3a1 1 0 0 0-1-1M3 16h26v1H3Zm1 3h11v10H4Zm24 10H17V19h11Z"/><path d="M13 21a1 1 0 0 0-1 1v2a1 1 0 0 0 2 0v-2a1 1 0 0 0-1-1M19 25a1 1 0 0 0 1-1v-2a1 1 0 0 0-2 0v2a1 1 0 0 0 1 1"/></g></svg>