<?xml version="1.0" encoding="iso-8859-1"?>
<!-- Uploaded to: SVG Repo, www.svgrepo.com, Generator: SVG Repo Mixer Tools -->
<!DOCTYPE svg PUBLIC "-//W3C//DTD SVG 1.1//EN" "http://www.w3.org/Graphics/SVG/1.1/DTD/svg11.dtd">
<svg fill="#000000" height="800px" width="800px" version="1.1" id="Capa_1" xmlns="http://www.w3.org/2000/svg" xmlns:xlink="http://www.w3.org/1999/xlink" 
	 viewBox="0 0 190.196 190.196" xml:space="preserve">
<path d="M121.196,164.842H69c-38.047,0-69-30.953-69-69V27.854c0-1.381,1.119-2.5,2.5-2.5h185.196c1.381,0,2.5,1.119,2.5,2.5v67.988
	C190.196,133.889,159.243,164.842,121.196,164.842z M5,30.354v65.488c0,35.29,28.71,64,64,64h52.196c35.29,0,64-28.71,64-64V30.354
	H5z"/>
<path d="M66.567,164.842c-1.381,0-2.5-1.119-2.5-2.5v-18.183c0-28.099-19.837-50.959-44.221-50.959H2.5c-1.381,0-2.5-1.119-2.5-2.5
	s1.119-2.5,2.5-2.5h17.347c27.141,0,49.221,25.103,49.221,55.959v18.183C69.067,163.723,67.948,164.842,66.567,164.842z"/>
<path d="M121.876,164.824c-1.381,0-2.5-1.119-2.5-2.5v-19.848c0-30.856,22.869-55.959,50.979-55.959h16.49
	c1.381,0,2.5,1.119,2.5,2.5s-1.119,2.5-2.5,2.5h-16.49c-25.354,0-45.979,22.86-45.979,50.959v19.848
	C124.376,163.705,123.257,164.824,121.876,164.824z"/>
<path d="M187.696,69.488h-38.151c-5.434,0-9.854-4.421-9.854-9.855v-8.992c0-5.434,4.421-9.854,9.854-9.854h38.151
	c1.381,0,2.5,1.119,2.5,2.5v23.701C190.196,68.369,189.077,69.488,187.696,69.488z M149.545,45.787
	c-2.677,0-4.854,2.178-4.854,4.854v8.992c0,2.677,2.178,4.855,4.854,4.855h35.651V45.787H149.545z"/>
<path d="M40.652,69.488H2.5c-1.381,0-2.5-1.119-2.5-2.5V43.287c0-1.381,1.119-2.5,2.5-2.5h38.152c5.434,0,9.854,4.421,9.854,9.854
	v8.992C50.507,65.067,46.086,69.488,40.652,69.488z M5,64.488h35.652c2.677,0,4.854-2.178,4.854-4.855v-8.992
	c0-2.677-2.178-4.854-4.854-4.854H5V64.488z"/>
</svg>