<svg xmlns="http://www.w3.org/2000/svg" xml:space="preserve" width="800" height="800" viewBox="0 0 190.196 190.196"><path d="M121.196 164.842H69c-38.047 0-69-30.953-69-69V27.854a2.5 2.5 0 0 1 2.5-2.5h185.196a2.5 2.5 0 0 1 2.5 2.5v67.988c0 38.047-30.953 69-69 69M5 30.354v65.488c0 35.29 28.71 64 64 64h52.196c35.29 0 64-28.71 64-64V30.354z"/><path d="M66.567 164.842a2.5 2.5 0 0 1-2.5-2.5v-18.183c0-28.099-19.837-50.959-44.221-50.959H2.5a2.5 2.5 0 1 1 0-5h17.347c27.141 0 49.221 25.103 49.221 55.959v18.183a2.501 2.501 0 0 1-2.501 2.5M121.876 164.824a2.5 2.5 0 0 1-2.5-2.5v-19.848c0-30.856 22.869-55.959 50.979-55.959h16.49a2.5 2.5 0 1 1 0 5h-16.49c-25.354 0-45.979 22.86-45.979 50.959v19.848a2.5 2.5 0 0 1-2.5 2.5M187.696 69.488h-38.151c-5.434 0-9.854-4.421-9.854-9.855v-8.992c0-5.434 4.421-9.854 9.854-9.854h38.151a2.5 2.5 0 0 1 2.5 2.5v23.701a2.5 2.5 0 0 1-2.5 2.5m-38.151-23.701a4.86 4.86 0 0 0-4.854 4.854v8.992a4.86 4.86 0 0 0 4.854 4.855h35.651V45.787zM40.652 69.488H2.5a2.5 2.5 0 0 1-2.5-2.5V43.287a2.5 2.5 0 0 1 2.5-2.5h38.152c5.434 0 9.854 4.421 9.854 9.854v8.992c.001 5.434-4.42 9.855-9.854 9.855M5 64.488h35.652a4.86 4.86 0 0 0 4.854-4.855v-8.992a4.86 4.86 0 0 0-4.854-4.854H5z"/></svg>