<svg xmlns="http://www.w3.org/2000/svg" xml:space="preserve" width="800" height="800" viewBox="0 0 151.126 151.126" fill="#7367F0"><path d="M131.101 14.74h-2.199C120.983 5.352 109.522 0 97.196 0H53.93C41.599 0 30.139 5.353 22.222 14.74h-2.2c-9.865 0-17.89 8.025-17.89 17.888 0 8.896 6.526 16.294 15.042 17.663l1.69 14.861.022.176.001.004v.004l8.38 66.938v.008l1.534 12.259a7.533 7.533 0 0 0 7.464 6.586h78.595a7.532 7.532 0 0 0 7.466-6.587l1.532-12.258v-.006l8.383-66.938v-.004l1.711-15.043c8.515-1.37 15.042-8.768 15.042-17.663-.001-9.863-8.028-17.888-17.893-17.888zM53.93 6.75h43.266c8.229 0 16 2.849 22.174 7.99H31.753c6.173-5.141 13.945-7.99 22.177-7.99zm61.697 136.953a.772.772 0 0 1-.767.673H36.264a.772.772 0 0 1-.766-.675l-1.059-8.463h82.248zm1.903-15.215H33.594l-7.536-60.195h99.009zm13.571-84.717h-11.437a3.375 3.375 0 1 0 0 6.75h7.468l-1.251 11.021H25.246l-1.253-11.021h69.871a3.376 3.376 0 0 0 0-6.75H20.022c-6.143 0-11.14-4.999-11.14-11.143 0-6.142 4.998-11.138 11.14-11.138H131.101c6.144 0 11.143 4.997 11.143 11.138-.001 6.144-5 11.143-11.143 11.143"/></svg>