<?xml version="1.0" encoding="iso-8859-1"?>
<!-- Uploaded to: SVG Repo, www.svgrepo.com, Generator: SVG Repo Mixer Tools -->
<!DOCTYPE svg PUBLIC "-//W3C//DTD SVG 1.1//EN" "http://www.w3.org/Graphics/SVG/1.1/DTD/svg11.dtd">
<svg fill="#000000" version="1.1" id="Capa_1" xmlns="http://www.w3.org/2000/svg" xmlns:xlink="http://www.w3.org/1999/xlink" 
	 width="800px" height="800px" viewBox="0 0 151.126 151.126"
	 xml:space="preserve">
<g>
	<path d="M131.101,14.74h-2.199C120.983,5.352,109.522,0,97.196,0H53.93C41.599,0,30.139,5.353,22.222,14.74h-2.2
		c-9.865,0-17.89,8.025-17.89,17.888c0,8.896,6.526,16.294,15.042,17.663l1.69,14.861l0.022,0.176
		c0.001,0.003,0.001,0.004,0.001,0.004v0.004l8.38,66.938c0,0,0,0.006,0,0.008l1.534,12.259c0.47,3.755,3.679,6.586,7.464,6.586
		h78.595c3.789,0,6.998-2.832,7.466-6.587l1.532-12.258v-0.006l8.383-66.938v-0.004l1.711-15.043
		c8.515-1.37,15.042-8.768,15.042-17.663C148.993,22.765,140.966,14.74,131.101,14.74z M53.93,6.75h43.266
		c8.229,0,16,2.849,22.174,7.99H31.753C37.926,9.599,45.698,6.75,53.93,6.75z M115.627,143.703
		c-0.048,0.384-0.378,0.673-0.767,0.673H36.264c-0.389,0-0.718-0.29-0.766-0.675l-1.059-8.463h82.248L115.627,143.703z
		 M117.53,128.488H33.594l-7.536-60.195h99.009L117.53,128.488z M131.101,43.771h-11.437c-1.864,0-3.375,1.511-3.375,3.375
		s1.511,3.375,3.375,3.375h7.468l-1.251,11.021H25.246l-1.253-11.021h69.871c1.863,0,3.375-1.511,3.375-3.375
		s-1.512-3.375-3.375-3.375H20.022c-6.143,0-11.14-4.999-11.14-11.143c0-6.142,4.998-11.138,11.14-11.138h3.804h103.473h3.802
		c6.144,0,11.143,4.997,11.143,11.138C142.243,38.772,137.244,43.771,131.101,43.771z"/>
</g>
</svg>