<svg xmlns="http://www.w3.org/2000/svg" xml:space="preserve" width="800" height="800" viewBox="0 0 511.999 511.999" fill="#7367F0"><path d="M483.106 272.286h-64.813v-22.015c0-21.404-17.413-38.817-38.816-38.817H71.987c-12.299 0-22.305-10.006-22.305-22.305v-46.638c0-12.299 10.006-22.305 22.305-22.305h32.19c4.2 0 7.604-3.404 7.604-7.604s-3.404-7.604-7.604-7.604h-32.19c-20.684 0-37.513 16.828-37.513 37.513v46.638c0 20.685 16.829 37.513 37.513 37.513h307.49c13.018 0 23.608 10.591 23.608 23.609v22.015h-78.22c-4.2 0-7.604 3.404-7.604 7.604s3.404 7.604 7.604 7.604h158.241c7.546 0 13.686 6.14 13.686 13.685v101.052c0 7.546-6.14 13.686-13.686 13.686H28.893c-7.546 0-13.685-6.14-13.685-13.686V301.18c0-7.545 6.139-13.685 13.685-13.685H245.644c4.2 0 7.604-3.404 7.604-7.604s-3.404-7.604-7.604-7.604h-95.083v-17.743c0-4.2-3.404-7.604-7.604-7.604h-77.56a7.603 7.603 0 0 0-7.604 7.604v17.743h-28.9C12.961 272.286 0 285.247 0 301.18v101.052c0 15.933 12.961 28.894 28.893 28.894h14.851v22.136c0 4.2 3.404 7.604 7.604 7.604h73.866c4.2 0 7.604-3.404 7.604-7.604v-22.136h233.334v22.136c0 4.2 3.404 7.604 7.604 7.604h73.866c4.2 0 7.604-3.404 7.604-7.604v-22.136h27.879c15.933 0 28.894-12.961 28.894-28.894V301.18c.001-15.933-12.96-28.894-28.893-28.894M73.001 262.148h62.352v10.139H73.001zm44.609 183.508H58.952v-13.637h58.658zm322.409.001h-58.658v-13.638h58.658z"/><path d="M323.932 347.313H49.175a7.603 7.603 0 0 0-7.604 7.604v34.187c0 4.2 3.404 7.604 7.604 7.604h274.756c4.2 0 7.604-3.404 7.604-7.604v-34.187a7.601 7.601 0 0 0-7.603-7.604m-7.604 34.187H56.779v-18.979h259.549zM323.932 311.068H49.175c-4.2 0-7.604 3.404-7.604 7.604s3.404 7.604 7.604 7.604h274.756c4.2 0 7.604-3.404 7.604-7.604s-3.403-7.604-7.603-7.604M447.622 321.398c-16.713 0-30.308 13.596-30.308 30.308 0 16.713 13.596 30.309 30.308 30.309s30.308-13.597 30.308-30.309c0-16.711-13.596-30.308-30.308-30.308m.001 45.409c-8.326 0-15.1-6.775-15.1-15.102 0-8.326 6.775-15.1 15.1-15.1 8.326 0 15.1 6.775 15.1 15.1 0 8.327-6.774 15.102-15.1 15.102M401.929 345.81l-35.05-28.539a7.604 7.604 0 0 0-12.404 5.896v57.08a7.602 7.602 0 0 0 12.405 5.895l35.05-28.54a7.604 7.604 0 0 0-.001-11.792m-32.247 18.437v-25.085l15.404 12.542zM463.55 120.185h-31.367V104.37h31.367c9.077 0 16.461-7.384 16.461-16.461 0-9.076-7.384-16.46-16.461-16.46h-31.367V58.737c0-4.2-3.404-7.604-7.604-7.604h-20.6a7.603 7.603 0 0 0-7.604 7.604v6.164h-34.427c-23.715 0-43.436 17.398-47.089 40.098h-141.8a7.604 7.604 0 0 0 0 15.208H314.86c3.653 22.7 23.374 40.098 47.089 40.098h34.427v6.164c0 4.2 3.404 7.604 7.604 7.604h20.6c4.2 0 7.604-3.404 7.604-7.604v-13.365h31.367c9.077 0 16.461-7.384 16.461-16.46-.001-9.076-7.385-16.459-16.462-16.459m-31.367-33.531h31.367v.001c.667 0 1.253.585 1.253 1.252s-.586 1.253-1.253 1.253h-31.367zm-35.808 58.444h-34.427c-17.917 0-32.494-14.577-32.494-32.494s14.577-32.494 32.494-32.494h34.427zm20.6 13.769h-5.392V66.342h5.392zm46.575-20.969h-31.367v-2.506h31.367v.001c.667 0 1.253.586 1.253 1.253s-.586 1.252-1.253 1.252"/></svg>