<?xml version="1.0" encoding="iso-8859-1"?>
<!-- Uploaded to: SVG Repo, www.svgrepo.com, Generator: SVG Repo Mixer Tools -->
<svg fill="#000000" height="800px" width="800px" version="1.1" id="Capa_1" xmlns="http://www.w3.org/2000/svg" xmlns:xlink="http://www.w3.org/1999/xlink" 
	 viewBox="0 0 511.999 511.999" xml:space="preserve">
<g>
	<g>
		<path d="M483.106,272.286h-64.813v-22.015c0-21.404-17.413-38.817-38.816-38.817H71.987c-12.299,0-22.305-10.006-22.305-22.305
			v-46.638c0-12.299,10.006-22.305,22.305-22.305h32.19c4.2,0,7.604-3.404,7.604-7.604c0-4.2-3.404-7.604-7.604-7.604h-32.19
			c-20.684,0-37.513,16.828-37.513,37.513v46.638c0,20.685,16.829,37.513,37.513,37.513h307.49
			c13.018,0,23.608,10.591,23.608,23.609v22.015h-78.22c-4.2,0-7.604,3.404-7.604,7.604s3.404,7.604,7.604,7.604h158.241
			c7.546,0,13.686,6.14,13.686,13.685v101.052c0,7.546-6.14,13.686-13.686,13.686H28.893c-7.546,0-13.685-6.14-13.685-13.686V301.18
			c0-7.545,6.139-13.685,13.685-13.685h36.504h77.56h102.687c4.2,0,7.604-3.404,7.604-7.604s-3.404-7.604-7.604-7.604h-95.083
			v-17.743c0-4.2-3.404-7.604-7.604-7.604h-77.56c-4.2,0-7.604,3.404-7.604,7.604v17.743h-28.9C12.961,272.286,0,285.247,0,301.18
			v101.052c0,15.933,12.961,28.894,28.893,28.894h14.851v22.136c0,4.2,3.404,7.604,7.604,7.604h73.866
			c4.2,0,7.604-3.404,7.604-7.604v-22.136h233.334v22.136c0,4.2,3.404,7.604,7.604,7.604h73.866c4.2,0,7.604-3.404,7.604-7.604
			v-22.136h27.879c15.933,0,28.894-12.961,28.894-28.894V301.18C512,285.247,499.039,272.286,483.106,272.286z M73.001,262.148
			h62.352v10.139H73.001V262.148z M117.61,445.656H58.952v-13.637h58.658V445.656z M440.019,445.657h-58.658v-13.638h58.658V445.657
			z"/>
	</g>
</g>
<g>
	<g>
		<path d="M323.932,347.313H49.175c-4.2,0-7.604,3.404-7.604,7.604v34.187c0,4.2,3.404,7.604,7.604,7.604h274.756
			c4.2,0,7.604-3.404,7.604-7.604v-34.187C331.536,350.716,328.132,347.313,323.932,347.313z M316.328,381.5H56.779v-18.979h259.549
			V381.5z"/>
	</g>
</g>
<g>
	<g>
		<path d="M323.932,311.068H49.175c-4.2,0-7.604,3.404-7.604,7.604s3.404,7.604,7.604,7.604h274.756c4.2,0,7.604-3.404,7.604-7.604
			S328.132,311.068,323.932,311.068z"/>
	</g>
</g>
<g>
	<g>
		<path d="M447.622,321.398c-16.713,0-30.308,13.596-30.308,30.308c0,16.713,13.596,30.309,30.308,30.309
			c16.712,0,30.308-13.597,30.308-30.309C477.93,334.995,464.334,321.398,447.622,321.398z M447.623,366.807
			c-8.326,0-15.1-6.775-15.1-15.102c0-8.326,6.775-15.1,15.1-15.1c8.326,0,15.1,6.775,15.1,15.1
			C462.723,360.032,455.949,366.807,447.623,366.807z"/>
	</g>
</g>
<g>
	<g>
		<path d="M401.929,345.81l-35.05-28.539c-2.276-1.855-5.417-2.231-8.065-0.971c-2.65,1.259-4.339,3.933-4.339,6.867v57.08
			c0,2.935,1.689,5.608,4.339,6.867c1.04,0.494,2.154,0.736,3.264,0.736c1.716,0,3.419-0.581,4.802-1.708l35.05-28.54
			c1.773-1.444,2.803-3.609,2.803-5.896C404.732,349.419,403.702,347.253,401.929,345.81z M369.682,364.247v-25.085l15.404,12.542
			L369.682,364.247z"/>
	</g>
</g>
<g>
	<g>
		<path d="M463.55,120.185h-31.367V104.37h31.367c9.077,0,16.461-7.384,16.461-16.461c0-9.076-7.384-16.46-16.461-16.46h-31.367
			V58.737c0-4.2-3.404-7.604-7.604-7.604h-20.6c-4.2,0-7.604,3.404-7.604,7.604v6.164h-34.427
			c-23.715,0-43.436,17.398-47.089,40.098h-141.8c-4.2,0-7.604,3.404-7.604,7.604s3.405,7.604,7.604,7.604H314.86
			c3.653,22.7,23.374,40.098,47.089,40.098h34.427v6.164c0,4.2,3.404,7.604,7.604,7.604h20.6c4.2,0,7.604-3.404,7.604-7.604v-13.365
			h31.367c9.077,0,16.461-7.384,16.461-16.46C480.011,127.568,472.627,120.185,463.55,120.185z M432.183,86.654h31.367v0.001
			c0.667,0,1.253,0.585,1.253,1.252c0,0.667-0.586,1.253-1.253,1.253h-31.367V86.654z M396.375,145.098h-34.427
			c-17.917,0-32.494-14.577-32.494-32.494s14.577-32.494,32.494-32.494h34.427V145.098z M416.975,158.867h-5.392v-6.164V72.506
			v-6.164h5.392V158.867z M463.55,137.898h-31.367v-2.506h31.367v0.001c0.667,0,1.253,0.586,1.253,1.253
			S464.217,137.898,463.55,137.898z"/>
	</g>
</g>
</svg>