<svg xmlns="http://www.w3.org/2000/svg" xml:space="preserve" width="800" height="800" viewBox="0 0 380.721 380.721" fill="#7367F0"><path d="M221.493 29.994c.197-1.214.372-2.417.372-3.689C221.865 11.781 210.084 0 195.561 0c-14.529 0-26.322 11.781-26.322 26.305 0 1.76.203 3.474.528 5.142C125.186 42.722 107.34 77.38 107.34 77.38h182.634s-19.369-37.94-68.481-47.386M189.885 274.096h30.853v-9.342h-30.853v-17.973h30.853v-9.329h-30.853v-20.264h30.853v-9.342h-30.853V189.53h30.853v-9.342h-30.853v-16.109h30.853v-9.33h-30.853v-20.46h-10.329v160.268h10.329z"/><path d="M227.035 330.168h103.186c8.237-106.276-11.352-175.408-11.352-175.408s40.235-25.793 46.417-64.995H101.164s-4.235 7.686-9.731 23.975c-31.068 9.661-74.586 35.965-75.957 86.797-1.406 52.47 32.957 88.696 50.495 103.743-.047 8.4-.07 16.928.093 25.898h98.015v11.352H55.242v39.189h286.831V341.52h-115.05v-11.352zM48.503 201.445c.645-23.911 16.493-38.568 32.009-47.242-5.583 25.747-10.701 59.872-13.1 103.383-10.329-14.105-19.525-33.207-18.909-56.141zm148.626-94.82c29.232 0 52.958 46.661 52.958 104.208 0 57.535-23.726 104.196-52.958 104.196-29.256 0-52.97-46.661-52.97-104.196 0-57.548 23.714-104.208 52.97-104.208"/></svg>