<?xml version="1.0" encoding="utf-8"?>

<!-- Uploaded to: SVG Repo, www.svgrepo.com, Generator: SVG Repo Mixer Tools -->
<svg version="1.1" id="Icons" xmlns="http://www.w3.org/2000/svg" xmlns:xlink="http://www.w3.org/1999/xlink" 
	 viewBox="0 0 32 32" xml:space="preserve">
<style type="text/css">
	.st0{fill:none;stroke:#000000;stroke-width:2;stroke-linecap:round;stroke-linejoin:round;stroke-miterlimit:10;}
</style>
<path d="M26,0c-0.6,0-1,0.4-1,1v3H7V1c0-0.6-0.4-1-1-1S5,0.4,5,1v10c0,2.8,2.2,5,5,5h2v6c0,0.6,0.4,1,1,1h2v8c0,0.6,0.4,1,1,1
	s1-0.4,1-1v-8h2c0.6,0,1-0.4,1-1v-6h2c2.8,0,5-2.2,5-5V1C27,0.4,26.6,0,26,0z M16,13c-1.7,0-3-1.3-3-3s1.3-3,3-3s3,1.3,3,3
	S17.7,13,16,13z"/>
</svg>