<svg xmlns="http://www.w3.org/2000/svg" xml:space="preserve" width="800" height="800" viewBox="0 0 512 512" fill="#7367F0"><path d="M0 39.264V86.38h512V39.264zm496.294 31.411H15.706V54.969h480.589v15.706zM458.601 101.039v47.116H55.493v-47.116H39.787v62.822h434.52v-62.822zM458.601 178.519V457.03h-28.27V178.519h-15.706V379.55h-22.962a32.787 32.787 0 0 0 4.901-17.276c0-18.186-14.796-32.982-32.982-32.982v15.706c9.526 0 17.276 7.75 17.276 17.276 0 .353-.031.699-.053 1.047h-6.229c-11.796 0-21.823-7.693-25.346-18.323h3.096v-15.706h-57.989c11.304-10.509 18.393-25.493 18.393-42.108 0-29.443-46.235-85.242-51.507-91.509l-6.009-7.141-6.009 7.141c-5.272 6.265-51.507 62.065-51.507 91.509 0 16.614 7.089 31.597 18.393 42.108H153.65c-.688 0-1.372.022-2.049.063l.003.054a33.11 33.11 0 0 0-2.666-.117c-18.186 0-32.982 14.796-32.982 32.982 0 6.33 1.797 12.248 4.901 17.276H99.468V178.519H83.763v278.512h-28.27V178.519H39.787v294.217h434.519V178.519zM213.404 287.185c0-16.036 23.604-51.114 41.811-74.035 18.207 22.921 41.811 57.998 41.811 74.035a41.55 41.55 0 0 1-5.365 20.454c.016-.435.034-.869.034-1.307 0-17.774-25.381-48.838-30.471-54.886l-6.008-7.14-6.008 7.14c-5.089 6.047-30.471 37.111-30.471 54.886 0 .438.018.872.034 1.307a41.514 41.514 0 0 1-5.367-20.454m62.584 19.147c0 11.455-9.32 20.772-20.773 20.772s-20.773-9.318-20.773-20.772c0-4.743 6.498-18.928 20.773-37.338 14.275 18.41 20.773 32.595 20.773 37.338m57.018 38.666c3.542 17.609 18.029 31.295 36.032 33.655a17.162 17.162 0 0 1-5.455.897h-38.285c-2.957-15.771-16.821-27.746-33.437-27.746H214.38c-4.941 0-9.25-2.754-11.477-6.806h130.103zm-155.985 0h9.265c2.874 12.864 14.376 22.511 28.094 22.511h77.481c7.894 0 14.618 5.028 17.19 12.041h-132.03a32.787 32.787 0 0 0 4.901-17.276c0-6.33-1.796-12.248-4.901-17.276m-28.08 0c9.526 0 17.276 7.75 17.276 17.276s-7.75 17.276-17.276 17.276-17.276-7.75-17.276-17.276 7.75-17.276 17.276-17.276m265.685 112.033h-31.561v-27.223h-15.706v27.223h-31.561v-27.223h-15.706v27.223h-31.561v-27.223h-15.706v27.223h-31.561v-27.223h-15.706v27.223H194v-27.223h-15.706v27.223h-31.562v-27.223h-15.706v27.223H99.468v-61.775h315.157v61.775z"/></svg>