<svg xmlns="http://www.w3.org/2000/svg" xml:space="preserve" width="800" height="800" version="1.0" viewBox="0 0 64 64"><path d="M31.98 45.73c-1.2 0-2.15-1.24-2.15-2.81s.94-2.81 2.15-2.81c1.2 0 2.15 1.24 2.15 2.81s-.95 2.81-2.15 2.81m0-4.63c-.62 0-1.15.83-1.15 1.81s.53 1.81 1.15 1.81 1.15-.83 1.15-1.81-.53-1.81-1.15-1.81"/><path d="M54.52 53h-.86c.05-.14.08-.29.08-.45v-.94c0-.8-.65-1.45-1.45-1.45h-.53V21.33h.17c1.19 0 2.17-.97 2.17-2.17v-3.08c0-1.19-.97-2.17-2.17-2.17H12.08c-1.19 0-2.17.97-2.17 2.17v3.08c0 1.19.97 2.17 2.17 2.17h.17v28.83h-.53c-.8 0-1.45.65-1.45 1.45v.94c0 .16.03.31.08.45h-.87c-.75 0-1.36.61-1.36 1.36v1.16c0 .75.61 1.36 1.36 1.36h45.03c.75 0 1.36-.61 1.36-1.36v-1.16c.01-.75-.6-1.36-1.35-1.36M12.08 20.33c-.64 0-1.17-.52-1.17-1.17v-3.08c0-.64.52-1.17 1.17-1.17h39.83c.64 0 1.17.52 1.17 1.17v.04H39.67c-.28 0-.5.22-.5.5s.22.5.5.5h13.42v1.21h-9.83c-.28 0-.5.22-.5.5s.22.5.5.5h9.8c-.08.56-.55 1-1.13 1H12.26zm19.96 6.34H32c-6.51 0-11.97 5.29-12.17 11.83v11.67h-6.58V21.33h37.5v28.83h-6.58V38.48c-.2-6.49-5.64-11.79-12.13-11.81m-.37 10.71c.55.81 1.56 1.51 2.36 1.22.84-.31.91-1.43.96-2.33.01-.18.02-.42.05-.61.72.61 2.35 3.09 1.87 5.8-.42 2.4-2.41 4.98-4.9 4.98-2.65 0-4.46-2.92-4.91-5-.5-2.36.59-4.43 1.6-5.76 1.02-1.34 2.2-2.23 2.82-2.56-.02.09-.05.19-.07.27-.27.99-.7 2.63.22 3.99m-5.76 12.75v-1.48c0-.66.54-1.2 1.2-1.2h9.78c.66 0 1.2.54 1.2 1.2v1.49H25.91zm10.98-3.69h-1.95c1.54-1.11 2.62-2.98 2.94-4.81.49-2.8-.94-5.57-2.12-6.64-.42-.38-.78-.53-1.11-.43-.59.16-.63.85-.68 1.66-.02.41-.08 1.37-.31 1.45-.19.07-.78-.25-1.18-.84-.66-.98-.33-2.25-.09-3.17.18-.69.34-1.29-.16-1.58-.15-.09-.6-.35-2 .67-1.94 1.41-5 4.87-4.14 8.91.32 1.5 1.33 3.57 2.97 4.79h-1.98c-1.21 0-2.2.99-2.2 2.2v1.53H20.8V38.52c.19-5.99 5.19-10.85 11.17-10.85h.04c5.95.02 10.95 4.89 11.13 10.83v11.67h-4.08v-1.53a2.15 2.15 0 0 0-2.17-2.2m-25.62 5.17c0-.25.2-.45.45-.45h40.56c.25 0 .45.2.45.45v.94c0 .25-.2.45-.45.45H11.72c-.25 0-.45-.2-.45-.45zm43.61 3.91c0 .2-.16.36-.36.36H9.48c-.2 0-.36-.16-.36-.36v-1.16c0-.2.16-.36.36-.36H54.5c.2 0 .36.16.36.36v1.16z"/><path d="M42.52 25.85H21.48c-.28 0-.5-.22-.5-.5v-2.71c0-.28.22-.5.5-.5h21.04c.28 0 .5.22.5.5v2.71c0 .28-.22.5-.5.5m-20.54-1h20.04v-1.71H21.98z"/></svg>