<?xml version="1.0" encoding="iso-8859-1"?>
<!-- Uploaded to: SVG Repo, www.svgrepo.com, Generator: SVG Repo Mixer Tools -->
<svg fill="#000000" height="800px" width="800px" version="1.1" id="Layer_1" xmlns="http://www.w3.org/2000/svg" xmlns:xlink="http://www.w3.org/1999/xlink" 
	 viewBox="0 0 512 512" xml:space="preserve">
<g>
	<g>
		<path d="M0,39.264V86.38h512V39.264H0z M496.294,70.675H15.706V54.969h480.589V70.675z"/>
	</g>
</g>
<g>
	<g>
		<polygon points="458.601,101.039 458.601,148.155 55.493,148.155 55.493,101.039 39.787,101.039 39.787,163.861 474.307,163.861 
			474.307,101.039 		"/>
	</g>
</g>
<g>
	<g>
		<path d="M458.601,178.519v278.511h-28.27V379.55V178.519h-15.706V379.55h-22.962c3.104-5.028,4.901-10.946,4.901-17.276
			c0-18.186-14.796-32.982-32.982-32.982v15.706c9.526,0,17.276,7.75,17.276,17.276c0,0.353-0.031,0.699-0.053,1.047h-6.229
			c-11.796,0-21.823-7.693-25.346-18.323h3.096v-15.706h-57.989c11.304-10.509,18.393-25.493,18.393-42.108
			c0-29.443-46.235-85.242-51.507-91.509l-6.009-7.141l-6.009,7.141c-5.272,6.265-51.507,62.065-51.507,91.509
			c0,16.614,7.089,31.597,18.393,42.108h-62.441c-0.688,0-1.372,0.022-2.049,0.063l0.003,0.054
			c-0.881-0.071-1.767-0.117-2.666-0.117c-18.186,0-32.982,14.796-32.982,32.982c0,6.33,1.797,12.248,4.901,17.276H99.468V178.519
			H83.763V379.55v77.481h-28.27V178.519H39.787v294.217h434.519V178.519H458.601z M213.404,287.185
			c0-16.036,23.604-51.114,41.811-74.035c18.207,22.921,41.811,57.998,41.811,74.035c0,7.427-1.956,14.402-5.365,20.454
			c0.016-0.435,0.034-0.869,0.034-1.307c0-17.774-25.381-48.838-30.471-54.886l-6.008-7.14l-6.008,7.14
			c-5.089,6.047-30.471,37.111-30.471,54.886c0,0.438,0.018,0.872,0.034,1.307C215.359,301.588,213.404,294.613,213.404,287.185z
			 M275.988,306.332c0,11.455-9.32,20.772-20.773,20.772s-20.773-9.318-20.773-20.772c0-4.743,6.498-18.928,20.773-37.338
			C269.49,287.404,275.988,301.589,275.988,306.332z M333.006,344.998c3.542,17.609,18.029,31.295,36.032,33.655
			c-1.717,0.574-3.547,0.897-5.455,0.897h-38.285c-2.957-15.771-16.821-27.746-33.437-27.746H214.38
			c-4.941,0-9.25-2.754-11.477-6.806H333.006z M177.021,344.998h9.265c2.874,12.864,14.376,22.511,28.094,22.511h77.481
			c7.894,0,14.618,5.028,17.19,12.041h-132.03c3.104-5.028,4.901-10.946,4.901-17.276
			C181.922,355.944,180.126,350.026,177.021,344.998z M148.941,344.998c9.526,0,17.276,7.75,17.276,17.276
			c0,9.526-7.75,17.276-17.276,17.276s-17.276-7.75-17.276-17.276C131.665,352.748,139.415,344.998,148.941,344.998z
			 M414.626,457.031h-31.561v-27.223h-15.706v27.223h-31.561v-27.223h-15.706v27.223h-31.561v-27.223h-15.706v27.223h-31.561
			v-27.223h-15.706v27.223H194v-27.223h-15.706v27.223h-31.562v-27.223h-15.706v27.223H99.468v-61.775h315.157V457.031z"/>
	</g>
</g>
</svg>