<svg xmlns="http://www.w3.org/2000/svg" xml:space="preserve" viewBox="0 0 512 512" fill="#7367F0"><path d="M202.268 512h137.837L512 340.105V202.268zM75.209 96.686 0 171.895v137.837l144.128-144.127zM256 277.477 21.477 512h137.837l165.605-165.605zM436.791 458.268 383.058 512h107.465zM458.268 436.791 512 490.523V383.058zM171.895 0 96.686 75.209l68.919 68.919L309.732 0zM0 383.058v107.465l53.732-53.732zM277.477 256l68.918 68.919L512 159.314V21.477zM0 0v128.942L128.942 0zM383.058 0l53.733 53.732L490.523 0zM6.284 346.388l340.1-340.1 68.918 68.917-340.1 340.1z"/></svg>