<svg xmlns="http://www.w3.org/2000/svg" xml:space="preserve" viewBox="0 0 128 128" fill="#7367F0"><circle cx="86.8" cy="55.2" r="12.6"/><path d="M102.6 71H73.9c-4.1 0-8.2.6-11.2 4.6-1.3 2-13.2 17-13.2 17H32.7c-3 0-5.5 2.5-5.5 5.5s2.5 5.5 5.5 5.5h19.1c1.4 0 2.8-.6 3.8-1.6l11.2-13.6c.3-.3.6-.5 1.1-.5.9 0 1.6.6 1.6 1.6v24.7h34.7V89.9c0-.9.6-1.6 1.6-1.6.9 0 1.6.6 1.6 1.6v24.4h11V86.8c0-8.7-7.1-15.8-15.8-15.8"/><path d="M6.2 86h43.5v3.7H6.2zM29.7 68.2c.3-.4.5-.8.5-1.4 0-1.2-1-2.2-2.2-2.2s-2.2 1-2.2 2.2c0 .5.2 1 .5 1.4-7.7.9-14 7.2-16.2 15.6h35.6c-2.2-8.6-8.5-14.8-16-15.6"/></svg>