<?xml version="1.0" encoding="utf-8"?>
<!-- Uploaded to: SVG Repo, www.svgrepo.com, Generator: SVG Repo Mixer Tools -->
<svg fill="#000000" version="1.1" xmlns="http://www.w3.org/2000/svg" xmlns:xlink="http://www.w3.org/1999/xlink" 
	 viewBox="0 0 128 128" xml:space="preserve">
<g id="Layer_1">
	<g id="_x31_">
	</g>
</g>
<g id="_x31__1_">
	<g>
		<circle cx="86.8" cy="55.2" r="12.6"/>
		<path d="M102.6,71H73.9c-4.1,0-8.2,0.6-11.2,4.6c-1.3,2-13.2,17-13.2,17H32.7c-3,0-5.5,2.5-5.5,5.5s2.5,5.5,5.5,5.5h19.1
			c1.4,0,2.8-0.6,3.8-1.6l11.2-13.6c0.3-0.3,0.6-0.5,1.1-0.5c0.9,0,1.6,0.6,1.6,1.6v24.7h34.7V89.9c0-0.9,0.6-1.6,1.6-1.6
			c0.9,0,1.6,0.6,1.6,1.6v24.4h11V86.8C118.4,78.1,111.3,71,102.6,71z"/>
		<rect x="6.2" y="86" width="43.5" height="3.7"/>
		<path d="M29.7,68.2c0.3-0.4,0.5-0.8,0.5-1.4c0-1.2-1-2.2-2.2-2.2s-2.2,1-2.2,2.2c0,0.5,0.2,1,0.5,1.4c-7.7,0.9-14,7.2-16.2,15.6
			h35.6C43.5,75.2,37.2,69,29.7,68.2z"/>
	</g>
</g>
</svg>