<?xml version="1.0" encoding="iso-8859-1"?>
<!-- Uploaded to: SVG Repo, www.svgrepo.com, Generator: SVG Repo Mixer Tools -->
<svg fill="#000000" height="800px" width="800px" version="1.1" id="Layer_1" xmlns="http://www.w3.org/2000/svg" xmlns:xlink="http://www.w3.org/1999/xlink" 
	 viewBox="0 0 512 512" xml:space="preserve">
<g>
	<g>
		<path d="M411.097,102.187c4.873,0,8.821-3.948,8.821-8.821c0-4.873-3.948-8.821-8.821-8.821h-0.957V61.858h0.957
			c4.873,0,8.821-3.948,8.821-8.821c0-4.873-3.948-8.821-8.821-8.821h-0.957v-1.56C410.14,19.136,391.005,0,367.485,0h-22.268
			C277.92,0,223.171,54.75,223.171,122.047v40.956l-75.136-17.065c-11.285-2.566-23.233-0.288-32.786,6.245
			c-9.552,6.534-16.008,16.845-17.712,28.293c-1.729,11.618,1.498,23.594,8.857,32.855c1.375,1.731,2.859,3.332,4.439,4.798
			c-1.901,1.251-3.71,2.657-5.396,4.22c-8.487,7.867-13.354,19.018-13.354,30.59c0,11.505,4.821,22.612,13.225,30.469
			c1.587,1.483,3.284,2.823,5.065,4.028c-1.622,1.441-3.138,3.012-4.525,4.707c-7.349,8.981-10.544,20.277-8.999,31.811
			c1.538,11.47,7.844,21.874,17.3,28.545c7.079,4.993,15.534,7.62,24.087,7.62c2.872,0,5.759-0.298,8.605-0.901l76.33-16.178v46.915
			c0,67.296,54.75,122.046,122.046,122.046h22.268c23.52,0,42.655-19.135,42.655-42.655v-4.195h0.957
			c4.873,0,8.821-3.948,8.821-8.821c0-4.873-3.948-8.821-8.821-8.821h-0.957v-22.686h0.957c4.873,0,8.821-3.948,8.821-8.821
			c0-4.873-3.948-8.821-8.821-8.821h-0.957v-22.687h0.957c4.873,0,8.821-3.948,8.821-8.821c0-4.873-3.948-8.821-8.821-8.821h-0.957
			v-22.686h0.957c4.873,0,8.821-3.948,8.821-8.821c0-4.873-3.948-8.821-8.821-8.821h-0.957v-22.686h0.957
			c4.873,0,8.821-3.948,8.821-8.821c0-4.873-3.948-8.821-8.821-8.821h-0.957v-22.686h0.957c4.873,0,8.821-3.948,8.821-8.821
			c0-4.873-3.948-8.821-8.821-8.821h-0.957V224.19v-1.016h0.957c4.873,0,8.821-3.948,8.821-8.821c0-4.873-3.948-8.821-8.821-8.821
			h-0.957v-22.686h0.957c4.873,0,8.821-3.948,8.821-8.821c0-4.873-3.948-8.821-8.821-8.821h-0.957v-22.686h0.957
			c4.873,0,8.821-3.948,8.821-8.821s-3.948-8.821-8.821-8.821h-0.957v-22.687H411.097z M240.813,122.047
			c0.001-57.569,46.835-104.404,104.403-104.404h22.268c13.792,0,25.013,11.221,25.013,25.014v61.066
			c-5.122-2.94-11.049-4.631-17.367-4.631h-55.499c-32.535,0-61.337,16.208-78.818,40.954V122.047z M114.987,183.071
			c0.999-6.703,4.628-12.502,10.221-16.326c5.593-3.825,12.315-5.101,18.919-3.604l79.044,17.952v14.458v22.324l-86.224-6.531
			c-0.025-0.001-0.049-0.001-0.074-0.004l-0.133-0.011c-6.481-0.522-12.351-3.708-16.532-8.972
			C115.879,196.904,113.976,189.876,114.987,183.071z M109.725,252.936c0.001-6.776,2.737-13.044,7.705-17.651
			c4.961-4.6,11.402-6.848,18.151-6.351l87.59,6.635v35.473l-87.758,5.91c-6.728,0.46-13.136-1.833-18.057-6.434
			C112.435,265.917,109.725,259.673,109.725,252.936z M223.172,316.451v8.554l-79.988,16.952
			c-6.635,1.402-13.327,0.027-18.865-3.878c-5.537-3.906-9.084-9.756-9.983-16.472c-0.889-6.638,0.946-13.134,5.167-18.293
			c4.255-5.201,10.323-8.312,17.096-8.759h0.001l0.528-0.035l86.044-5.782V316.451z M392.497,469.345
			c0,13.792-11.221,25.013-25.013,25.013h-22.268c-57.568,0-104.403-46.834-104.403-104.403v-17.999
			c17.48,24.748,46.282,40.954,78.818,40.954h55.499c6.318,0,12.245-1.691,17.367-4.631V469.345z M375.13,395.267h-55.499
			c-43.46,0-78.818-35.357-78.818-78.817V295.97c9.642,8.824,22.474,14.216,36.544,14.216h110.404c1.625,0,3.207-0.185,4.734-0.515
			V377.9h0.002C392.497,387.476,384.706,395.267,375.13,395.267z M392.497,287.808c0,2.611-2.124,4.734-4.734,4.734H277.359
			c-20.15,0-36.544-16.393-36.544-36.543c0-20.149,16.394-36.544,36.544-36.544h110.404c2.611,0,4.734,2.124,4.734,4.734V287.808z
			 M392.498,202.329c-1.529-0.331-3.111-0.515-4.736-0.515H277.358c-14.069,0-26.901,5.393-36.544,14.216v-20.48
			c0-43.46,35.358-78.817,78.818-78.817h55.499c9.576,0,17.367,7.79,17.367,17.366V202.329z"/>
	</g>
</g>
</svg>