<svg xmlns="http://www.w3.org/2000/svg" xml:space="preserve" width="800" height="800" viewBox="0 0 461.337 461.337" fill="#7367F0"><circle cx="92.292" cy="42.34" r="37.285"/><path d="M148.403 215.256c-4.918 3.477-10.7 5.231-16.549 5.231-12.701 0-23.659-8.413-27.356-20.08-3.624 11.656-14.638 19.931-27.368 19.591L35.474 218.9l-14.559 75.17a10 10 0 0 0 2.102 8.26 10 10 0 0 0 7.709 3.646h15.508v130.498c0 10.94 8.869 19.808 19.809 19.808s19.809-8.868 19.809-19.808V305.975h12.88v130.498c0 10.94 8.869 19.808 19.809 19.808s19.809-8.868 19.809-19.808V305.975h15.507a9.993 9.993 0 0 0 7.713-3.639 10.003 10.003 0 0 0 2.098-8.267z"/><path d="M168.285 157.046c.836-1.812-.491-3.882-2.484-3.882-.064 0-.128.002-.193.007l-28.617 2.021-2.021-28.617c-.148-2.089-2.481-3.224-4.213-2.106a21.856 21.856 0 0 0-9.945 19.899l.841 11.907-3.471.245c-3.437-6.452-10.353-10.529-18.026-9.986-9.709.686-17.185 8.558-17.563 18.087 10.526 1.797 18.977 9.465 21.982 19.442 6.868-1.132 12.394-5.931 14.683-12.205l3.479-.246.245 3.471c-6.409 3.414-10.533 10.312-9.986 18.027v-.001c.703 9.955 9.027 17.587 18.858 17.587h.001c11.033 0 19.659-9.334 18.885-20.253-.542-7.677-5.614-13.955-12.419-16.436l-.246-3.48 11.907-.841a21.842 21.842 0 0 0 18.303-12.64m-66.795 14.556c-3.202 0-5.952-2.498-6.183-5.759a6.193 6.193 0 0 1 6.191-6.632 6.194 6.194 0 0 1 6.17 5.758 6.193 6.193 0 0 1-6.178 6.633m30.374 26.372a6.191 6.191 0 0 1-6.177-5.758v-.001a6.193 6.193 0 0 1 6.185-6.632 6.205 6.205 0 0 1 6.176 5.76 6.193 6.193 0 0 1-6.184 6.631"/><path d="M455.968 225.874a9.489 9.489 0 0 0-10.029 1.121h-23.75c-6.011-7.818-15.452-12.861-26.076-12.861-18.16 0-32.882 14.721-32.882 32.881 0 4.967 1.108 9.673 3.079 13.895l-20.743 54.01h-4.356v-38.127a4.345 4.345 0 0 0-4.344-4.345h-6.145v-40.791a4.344 4.344 0 0 0-4.344-4.344h-7.312a4.345 4.345 0 0 0-4.345 4.344v40.791h-6.145a4.345 4.345 0 0 0-4.345 4.345v38.127h-9.912v-48.794a4.345 4.345 0 0 0-4.344-4.345h-2.195a6.354 6.354 0 0 0 3.479-5.666 6.362 6.362 0 0 0-6.362-6.362h-18.134a6.362 6.362 0 0 0-6.362 6.362 6.355 6.355 0 0 0 3.479 5.666h-2.196a4.345 4.345 0 0 0-4.345 4.345v48.794H241.97v-48.882c0-5.406-4.383-9.788-9.788-9.788h-20.311c-1.945-4.965-21.018-53.726-35.708-93.122a31.64 31.64 0 0 1-18.963 15.168 28.56 28.56 0 0 1 3.303 11.456c.4 5.648-.846 11.159-3.548 15.99a8015.249 8015.249 0 0 0 24.343 62.977c3.327 8.486 12.903 12.67 21.394 9.342a16.476 16.476 0 0 0 3.956-2.235h15.749v170.667c0 5.406 4.383 9.788 9.788 9.788s9.788-4.382 9.788-9.788v-31.791H387.74v31.791c0 5.406 4.382 9.788 9.788 9.788s9.788-4.382 9.788-9.788V324.708c0-5.406-4.383-9.788-9.788-9.788h-20.582l13.633-35.496c1.801.306 3.649.473 5.537.473 10.624 0 20.065-5.043 26.076-12.861h23.75a9.487 9.487 0 0 0 15.395-7.425v-25.192a9.493 9.493 0 0 0-5.369-8.545m-59.854 35.234c-7.652 0-14.092-6.234-14.092-14.092 0-7.862 6.443-14.092 14.092-14.092 7.783 0 14.092 6.309 14.092 14.092s-6.309 14.092-14.092 14.092M94.366 192.547c.24-9.113-6.953-16.696-16.067-16.936l-38.55-1.017c2.51-7.04 5.11-14.369 7.554-21.331l-1.236 10.105 26.747.705c.671-15.081 13.09-27.375 28.704-27.375h.003c3.351 0 6.65.591 9.756 1.719a31.65 31.65 0 0 1 4.538-12.41c3.253-5.183 9.7-11.763 16.425-11.763 6.668 0 12.038 5.205 12.492 11.641l1.332 18.854c20.34-1.436 20.067-1.706 22.985-.921-6.59-18.18-14.227-50.825-45.593-50.825H61.124c-18.553 0-32.076 11.978-40.194 35.603-5.634 16.395-14.054 39.932-19.946 56.313-3.799 10.567 3.856 21.791 15.099 22.088l61.346 1.617c8.977.26 16.694-6.846 16.937-16.067"/></svg>