<svg xmlns="http://www.w3.org/2000/svg" xml:space="preserve" width="800" height="800" viewBox="0 0 512 512" fill="#7367F0"><path d="M411.097 102.187a8.82 8.82 0 0 0 8.821-8.821 8.82 8.82 0 0 0-8.821-8.821h-.957V61.858h.957a8.82 8.82 0 0 0 8.821-8.821 8.82 8.82 0 0 0-8.821-8.821h-.957v-1.56C410.14 19.136 391.005 0 367.485 0h-22.268C277.92 0 223.171 54.75 223.171 122.047v40.956l-75.136-17.065c-11.285-2.566-23.233-.288-32.786 6.245a41.847 41.847 0 0 0-17.712 28.293c-1.729 11.618 1.498 23.594 8.857 32.855a43.16 43.16 0 0 0 4.439 4.798 41.427 41.427 0 0 0-5.396 4.22c-8.487 7.867-13.354 19.018-13.354 30.59 0 11.505 4.821 22.612 13.225 30.469a41.323 41.323 0 0 0 5.065 4.028 41.202 41.202 0 0 0-4.525 4.707c-7.349 8.981-10.544 20.277-8.999 31.811a41.846 41.846 0 0 0 17.3 28.545c7.079 4.993 15.534 7.62 24.087 7.62 2.872 0 5.759-.298 8.605-.901l76.33-16.178v46.915c0 67.296 54.75 122.046 122.046 122.046h22.268c23.52 0 42.655-19.135 42.655-42.655v-4.195h.957a8.82 8.82 0 0 0 8.821-8.821 8.82 8.82 0 0 0-8.821-8.821h-.957v-22.686h.957a8.82 8.82 0 0 0 8.821-8.821 8.82 8.82 0 0 0-8.821-8.821h-.957v-22.687h.957a8.82 8.82 0 0 0 8.821-8.821 8.82 8.82 0 0 0-8.821-8.821h-.957v-22.686h.957a8.82 8.82 0 0 0 8.821-8.821 8.82 8.82 0 0 0-8.821-8.821h-.957v-22.686h.957a8.82 8.82 0 0 0 8.821-8.821 8.82 8.82 0 0 0-8.821-8.821h-.957V263.51h.957a8.82 8.82 0 0 0 8.821-8.821 8.82 8.82 0 0 0-8.821-8.821h-.957V223.174h.957a8.82 8.82 0 0 0 8.821-8.821 8.82 8.82 0 0 0-8.821-8.821h-.957v-22.686h.957a8.82 8.82 0 0 0 8.821-8.821 8.82 8.82 0 0 0-8.821-8.821h-.957v-22.686h.957c4.873 0 8.821-3.948 8.821-8.821s-3.948-8.821-8.821-8.821h-.957v-22.687h.957zm-170.284 19.86c.001-57.569 46.835-104.404 104.403-104.404h22.268c13.792 0 25.013 11.221 25.013 25.014v61.066a34.78 34.78 0 0 0-17.367-4.631h-55.499c-32.535 0-61.337 16.208-78.818 40.954zm-125.826 61.024c.999-6.703 4.628-12.502 10.221-16.326 5.593-3.825 12.315-5.101 18.919-3.604l79.044 17.952V217.875l-86.224-6.531c-.025-.001-.049-.001-.074-.004l-.133-.011c-6.481-.522-12.351-3.708-16.532-8.972-4.329-5.453-6.232-12.481-5.221-19.286m-5.262 69.865c.001-6.776 2.737-13.044 7.705-17.651 4.961-4.6 11.402-6.848 18.151-6.351l87.59 6.635v35.473l-87.758 5.91c-6.728.46-13.136-1.833-18.057-6.434-4.921-4.601-7.631-10.845-7.631-17.582m113.447 63.515v8.554l-79.988 16.952c-6.635 1.402-13.327.027-18.865-3.878-5.537-3.906-9.084-9.756-9.983-16.472-.889-6.638.946-13.134 5.167-18.293 4.255-5.201 10.323-8.312 17.096-8.759h.001l.528-.035 86.044-5.782v27.713zm169.325 152.894c0 13.792-11.221 25.013-25.013 25.013h-22.268c-57.568 0-104.403-46.834-104.403-104.403v-17.999c17.48 24.748 46.282 40.954 78.818 40.954h55.499a34.78 34.78 0 0 0 17.367-4.631zm-17.367-74.078h-55.499c-43.46 0-78.818-35.357-78.818-78.817v-20.48c9.642 8.824 22.474 14.216 36.544 14.216h110.404a22.38 22.38 0 0 0 4.734-.515V377.9h.002c0 9.576-7.791 17.367-17.367 17.367m17.367-107.459a4.74 4.74 0 0 1-4.734 4.734H277.359c-20.15 0-36.544-16.393-36.544-36.543 0-20.149 16.394-36.544 36.544-36.544h110.404a4.74 4.74 0 0 1 4.734 4.734v63.619zm.001-85.479a22.348 22.348 0 0 0-4.736-.515H277.358c-14.069 0-26.901 5.393-36.544 14.216v-20.48c0-43.46 35.358-78.817 78.818-78.817h55.499c9.576 0 17.367 7.79 17.367 17.366v68.23z"/></svg>