<svg xmlns="http://www.w3.org/2000/svg" width="800" height="800" viewBox="0 0 15 15"><path d="M13.536 12.008a1.584 1.584 0 0 0-1.105.416l-.437.407a.662.662 0 0 1-.928 0c-.139-.119-.269-.258-.409-.387a1.679 1.679 0 0 0-2.275 0c-.148.129-.288.278-.436.407a.663.663 0 0 1-.929 0c-.148-.129-.288-.278-.436-.407a1.68 1.68 0 0 0-2.266 0c-.139.129-.269.268-.408.387a.86.86 0 0 1-.279.159.748.748 0 0 1-.743-.248 5.9 5.9 0 0 0-.733-.576 1.089 1.089 0 0 0-.632-.158h-.056a.5.5 0 0 0 0 .992.847.847 0 0 1 .6.307l.334.258a1.676 1.676 0 0 0 2.164.06c.176-.139.334-.317.51-.466a.663.663 0 0 1 .929 0l.362.347a1.687 1.687 0 0 0 2.284.07c.14-.11.251-.248.39-.367A.683.683 0 0 1 10 13.15l.422.406a1.667 1.667 0 0 0 1.634.367 1.961 1.961 0 0 0 .928-.6.923.923 0 0 1 .552-.323.5.5 0 0 0 0-.992M7.464 2.047a2.871 2.871 0 0 0-.594 4.536 1.785 1.785 0 0 1 .562 1.694C7.119 9.17 6.342 10 6.774 11c.286-.971 1.367-1.291 1.861-2.124.99-1.565-.155-3-1.03-4.245C7.144 3.323 8.824 2.32 8.225 1a2.2 2.2 0 0 1-.761 1.047Zm2.946 1.5a2.262 2.262 0 0 0 .525 3.106 1.059 1.059 0 0 1 .52 1.067c-.319.741-1.088 1.408-.686 2.28.374-.87 1.016-.644 1.817-1.546a2.261 2.261 0 0 0-.519-3.109 1.059 1.059 0 0 1-.527-1.067c.318-.741 1.088-1.406.687-2.278-.372.87-1.016.645-1.817 1.547Zm-8 0a2.262 2.262 0 0 0 .525 3.106 1.059 1.059 0 0 1 .52 1.067c-.319.741-1.088 1.408-.686 2.28.374-.87 1.016-.644 1.817-1.546a2.261 2.261 0 0 0-.519-3.109 1.059 1.059 0 0 1-.527-1.067c.318-.741 1.088-1.406.687-2.278-.372.87-1.016.645-1.817 1.547Z"/></svg>