<svg xmlns="http://www.w3.org/2000/svg" xml:space="preserve" width="800" height="800" viewBox="0 0 512.001 512.001"><path d="M410.514 139.729c14.833 0 26.9-12.067 26.9-26.9 0-14.833-12.067-26.9-26.9-26.9H166.482l-8.242-57.004C155.856 12.435 141.494 0 124.832 0a33.737 33.737 0 0 0-25.52 11.66 33.737 33.737 0 0 0-7.889 26.926l6.873 47.54C84.964 87.71 74.588 99.077 74.588 112.83c0 14.832 12.067 26.9 26.9 26.9h4.56l9.827 67.981v49.481a8.952 8.952 0 0 0 8.951 8.951h4.793L82.702 501.298a8.95 8.95 0 0 0 8.778 10.703h34.064a8.949 8.949 0 0 0 8.778-7.2l28.062-140.696h170.742L361.194 504.8a8.95 8.95 0 0 0 8.778 7.2h34.055a8.951 8.951 0 0 0 8.778-10.703l-46.906-235.152h19.104a8.952 8.952 0 0 0 8.951-8.951v-50.126a8.952 8.952 0 0 0-8.951-8.951h-20.692l8.44-58.387h37.763zM112.846 23.379a15.844 15.844 0 0 1 11.986-5.477c7.826 0 14.571 5.841 15.691 13.585l7.871 54.443h-32.038l-7.216-49.905a15.844 15.844 0 0 1 3.706-12.646zm11.29 116.35h32.038l8.44 58.387h-32.038zm-5.934 354.369h-15.809l45.48-227.953h15.796zm47.753-147.895 3.59-17.998h156.419l3.59 17.998zm7.16-35.9 8.808-44.159h131.66l8.809 44.159zm219.999 183.795h-15.8l-45.476-227.953h15.806zm-17.062-278.079v32.224H133.777v-32.224zm-201.79-76.29h147.89l-8.44 58.387h-131.01zM331.8 198.117l8.44-58.387h14.422l-8.44 58.387zm-230.312-76.29c-4.961 0-8.998-4.036-8.998-8.998s4.036-8.998 8.998-8.998h309.026c4.961 0 8.998 4.036 8.998 8.998s-4.036 8.998-8.998 8.998z"/></svg>