<?xml version="1.0" encoding="iso-8859-1"?>
<!-- Uploaded to: SVG Repo, www.svgrepo.com, Generator: SVG Repo Mixer Tools -->
<svg fill="#000000" height="800px" width="800px" version="1.1" id="Layer_1" xmlns="http://www.w3.org/2000/svg" xmlns:xlink="http://www.w3.org/1999/xlink" 
	 viewBox="0 0 512.001 512.001" xml:space="preserve">
<g>
	<g>
		<path d="M410.514,139.729c14.833,0,26.9-12.067,26.9-26.9c0-14.833-12.067-26.9-26.9-26.9H166.482l-8.242-57.004
			C155.856,12.435,141.494,0,124.832,0c-9.802,0-19.104,4.25-25.52,11.66c-6.416,7.41-9.291,17.224-7.889,26.926l6.873,47.54
			C84.964,87.71,74.588,99.077,74.588,112.83c0,14.832,12.067,26.9,26.9,26.9h4.56l9.827,67.981v49.481
			c0,4.943,4.008,8.951,8.951,8.951h4.793L82.702,501.298c-0.524,2.629,0.156,5.355,1.857,7.428c1.7,2.073,4.24,3.275,6.921,3.275
			h34.064c4.269,0,7.944-3.013,8.778-7.2l28.062-140.696h170.742L361.194,504.8c0.835,4.186,4.509,7.2,8.778,7.2h34.055
			c2.681,0,5.221-1.202,6.921-3.275c1.701-2.073,2.382-4.799,1.857-7.428l-46.906-235.152h19.104c4.943,0,8.951-4.008,8.951-8.951
			v-50.126c0-4.943-4.008-8.951-8.951-8.951h-20.692l8.44-58.387H410.514z M112.846,23.379c3.014-3.481,7.382-5.477,11.986-5.477
			c7.826,0,14.571,5.841,15.691,13.585l7.871,54.443h-32.038l-7.216-49.905C108.482,31.468,109.832,26.859,112.846,23.379z
			 M124.136,139.729h32.038l8.44,58.387h-32.038L124.136,139.729z M118.202,494.098h-15.809l45.48-227.953h15.796L118.202,494.098z
			 M165.955,346.203l3.59-17.998h156.419l3.59,17.998H165.955z M173.115,310.303l8.808-44.159h131.66l8.809,44.159H173.115z
			 M393.114,494.098h-15.8l-45.476-227.953h15.806L393.114,494.098z M376.052,216.019v32.224H133.777v-32.224H376.052z
			 M174.262,139.729h147.89l-8.44,58.387h-131.01L174.262,139.729z M331.8,198.117l8.44-58.387h14.422l-8.44,58.387H331.8z
			 M101.488,121.827c-4.961,0-8.998-4.036-8.998-8.998s4.036-8.998,8.998-8.998h309.026c4.961,0,8.998,4.036,8.998,8.998
			s-4.036,8.998-8.998,8.998H101.488z"/>
	</g>
</g>
</svg>