<svg xmlns="http://www.w3.org/2000/svg" width="800" height="800" viewBox="0 0 481.477 481.477" fill="#7367F0"><path d="M385.859 110.124a7.5 7.5 0 0 0-7.5-7.5H103.116a7.5 7.5 0 0 0-7.5 7.5v177.153a7.5 7.5 0 0 0 7.5 7.5h275.243a7.5 7.5 0 0 0 7.5-7.5zm-15 169.653H110.616V117.624h260.243z"/><path d="M123.116 272.277h235.243a5 5 0 0 0 5-5V130.124a5 5 0 0 0-5-5H123.116a5 5 0 0 0-5 5v137.153a5 5 0 0 0 5 5zm5-137.153h225.243v127.153H128.116V135.124zM473.977 396.689h-8.999V77.288a7.5 7.5 0 0 0-7.5-7.5H409.48a7.5 7.5 0 0 0-7.5 7.5v319.401h-8.999c-4.143 0-7.5 3.358-7.5 7.5s3.357 7.5 7.5 7.5h80.996a7.5 7.5 0 0 0 0-15m-23.999-239.503-32.998 32.998v-85.397h32.998v52.399m-32.999 47.139 32.998-32.998v15.884l-32.998 32.998v-15.884m0 30.026 32.998-32.998v88.424h-32.998v-55.426m32.999-149.563v9.999H416.98v-9.999h32.998m-32.999 311.901v-96.912h32.998v96.912h-32.998M88.496 396.689h-9V77.288a7.5 7.5 0 0 0-7.5-7.5H23.999a7.5 7.5 0 0 0-7.5 7.5v319.401H7.5c-4.143 0-7.5 3.358-7.5 7.5s3.357 7.5 7.5 7.5h80.996c4.143 0 7.5-3.358 7.5-7.5s-3.357-7.5-7.5-7.5m-24-239.503-32.997 32.997v-85.397h32.997v52.4m-32.997 47.139 32.997-32.997v15.884l-32.997 32.997v-15.884m0 30.026 32.997-32.997v88.424H31.499v-55.427zM64.496 84.788v9.999H31.499v-9.999h32.997M31.499 396.689v-96.912h32.997v96.912H31.499M316.484 309.693H164.992a7.5 7.5 0 0 0-7.5 7.5v86.996a7.5 7.5 0 0 0 7.5 7.5h151.492a7.5 7.5 0 0 0 7.5-7.5v-86.996a7.5 7.5 0 0 0-7.5-7.5m-7.5 86.996H172.492v-71.996h136.492v71.996"/><path d="M215.164 389.69c15.989 0 28.998-13.009 28.998-28.999 0-15.99-13.009-28.999-28.998-28.999-15.99 0-28.999 13.009-28.999 28.999 0 15.99 13.009 28.999 28.999 28.999m0-47.998c10.476 0 18.998 8.523 18.998 18.999 0 10.476-8.522 18.999-18.998 18.999-10.477 0-18.999-8.523-18.999-18.999 0-10.476 8.523-18.999 18.999-18.999M275.639 380.364c10.848 0 19.673-8.825 19.673-19.672 0-10.848-8.825-19.673-19.673-19.673s-19.673 8.825-19.673 19.673c0 10.847 8.825 19.672 19.673 19.672m0-29.345c5.334 0 9.673 4.339 9.673 9.673s-4.339 9.672-9.673 9.672-9.673-4.339-9.673-9.672 4.339-9.673 9.673-9.673"/><path d="M215.161 368.187c1.97 0 3.91-.8 5.31-2.19a7.58 7.58 0 0 0 2.19-5.31c0-1.97-.8-3.9-2.19-5.3a7.592 7.592 0 0 0-5.31-2.2c-1.97 0-3.91.81-5.3 2.2-1.4 1.4-2.2 3.33-2.2 5.3 0 1.98.8 3.91 2.2 5.31a7.578 7.578 0 0 0 5.3 2.19"/></svg>