<?xml version='1.0' encoding='iso-8859-1'?>
<!DOCTYPE svg PUBLIC '-//W3C//DTD SVG 1.1//EN' 'http://www.w3.org/Graphics/SVG/1.1/DTD/svg11.dtd'>
<!-- Uploaded to: SVG Repo, www.svgrepo.com, Generator: SVG Repo Mixer Tools -->
<svg fill="#000000" height="800px" width="800px" version="1.1" xmlns="http://www.w3.org/2000/svg" viewBox="0 0 481.477 481.477" xmlns:xlink="http://www.w3.org/1999/xlink" enable-background="new 0 0 481.477 481.477">
  <g>
    <path d="m385.859,110.124c0-4.142-3.357-7.5-7.5-7.5h-275.243c-4.143,0-7.5,3.358-7.5,7.5v177.153c0,4.142 3.357,7.5 7.5,7.5h275.243c4.143,0 7.5-3.358 7.5-7.5v-177.153zm-15,169.653h-260.243v-162.153h260.243v162.153z"/>
    <path d="m123.116,272.277h235.243c2.762,0 5-2.239 5-5v-137.153c0-2.761-2.238-5-5-5h-235.243c-2.762,0-5,2.239-5,5v137.153c0,2.761 2.238,5 5,5zm5-137.153h225.243v127.153h-225.243v-127.153z"/>
    <path d="m473.977,396.689h-8.999v-319.401c0-4.142-3.357-7.5-7.5-7.5h-47.998c-4.143,0-7.5,3.358-7.5,7.5v319.401h-8.999c-4.143,0-7.5,3.358-7.5,7.5s3.357,7.5 7.5,7.5h16.499 47.998 16.499c4.143,0 7.5-3.358 7.5-7.5s-3.358-7.5-7.5-7.5zm-23.999-239.503l-32.998,32.998v-85.397h32.998v52.399zm-32.999,47.139l32.998-32.998v15.884l-32.998,32.998v-15.884zm0,30.026l32.998-32.998v88.424h-32.998v-55.426zm32.999-149.563v9.999h-32.998v-9.999h32.998zm-32.999,311.901v-96.912h32.998v96.912h-32.998z"/>
    <path d="m88.496,396.689h-9v-319.401c0-4.142-3.357-7.5-7.5-7.5h-47.997c-4.143,0-7.5,3.358-7.5,7.5v319.401h-8.999c-4.143,0-7.5,3.358-7.5,7.5s3.357,7.5 7.5,7.5h16.499 47.997 16.5c4.143,0 7.5-3.358 7.5-7.5s-3.357-7.5-7.5-7.5zm-24-239.503l-32.997,32.997v-85.397h32.997v52.4zm-32.997,47.139l32.997-32.997v15.884l-32.997,32.997v-15.884zm0,30.026l32.997-32.997v88.424h-32.997v-55.427zm32.997-149.563v9.999h-32.997v-9.999h32.997zm-32.997,311.901v-96.912h32.997v96.912h-32.997z"/>
    <path d="m316.484,309.693h-151.492c-4.143,0-7.5,3.358-7.5,7.5v86.996c0,4.142 3.357,7.5 7.5,7.5h151.492c4.143,0 7.5-3.358 7.5-7.5v-86.996c0-4.142-3.357-7.5-7.5-7.5zm-7.5,86.996h-136.492v-71.996h136.492v71.996z"/>
    <path d="m215.164,389.69c15.989,0 28.998-13.009 28.998-28.999 0-15.99-13.009-28.999-28.998-28.999-15.99,0-28.999,13.009-28.999,28.999 0,15.99 13.009,28.999 28.999,28.999zm0-47.998c10.476,0 18.998,8.523 18.998,18.999 0,10.476-8.522,18.999-18.998,18.999-10.477,0-18.999-8.523-18.999-18.999 0-10.476 8.523-18.999 18.999-18.999z"/>
    <path d="m275.639,380.364c10.848,0 19.673-8.825 19.673-19.672 0-10.848-8.825-19.673-19.673-19.673s-19.673,8.825-19.673,19.673c0,10.847 8.825,19.672 19.673,19.672zm0-29.345c5.334,0 9.673,4.339 9.673,9.673s-4.339,9.672-9.673,9.672-9.673-4.339-9.673-9.672 4.339-9.673 9.673-9.673z"/>
    <path d="m215.161,368.187c1.97,0 3.91-0.8 5.31-2.19 1.391-1.4 2.19-3.33 2.19-5.31 0-1.97-0.8-3.9-2.19-5.3-1.399-1.39-3.33-2.2-5.31-2.2-1.97,0-3.91,0.81-5.3,2.2-1.4,1.4-2.2,3.33-2.2,5.3 0,1.98 0.8,3.91 2.2,5.31 1.4,1.39 3.33,2.19 5.3,2.19z"/>
  </g>
</svg>