<svg xmlns="http://www.w3.org/2000/svg" xml:space="preserve" width="800" height="800" viewBox="0 0 491.721 491.721" fill="#7367F0"><path d="M232.231 99.724c27.494 0 49.861-22.368 49.861-49.862C282.092 22.368 259.725 0 232.231 0c-27.493 0-49.86 22.368-49.86 49.861 0 27.494 22.367 49.863 49.86 49.863m0-91.224c22.807 0 41.361 18.555 41.361 41.361 0 22.808-18.555 41.362-41.361 41.362-22.806 0-41.36-18.555-41.36-41.362 0-22.806 18.554-41.361 41.36-41.361M446.518 447.397c-13.074 0-23.776-9.867-34.126-19.41-6.905-6.365-13.426-12.378-20.381-14.986-4.785-1.794-9.53-2.707-14.106-2.715V248.444c8.615-9.531 8.52-24.039 0-33.452v-62.27a4.25 4.25 0 1 0-8.5 0v54.099l-83.367-79.04c-14.038-13.806-36.886-22.624-53.806-22.624-16.51 0-38.666 8.396-52.771 21.631-.027.024-.06.041-.086.066l-91.477 86.729c-7.498 7.09-9.623 17.763-6.23 26.875-26.517 5.736-47.73 31.946-48.248 59.944a3.982 3.982 0 0 0-.025 1.044c0 .682.094 1.34.233 1.985l8.477 72.101-.002.02c0 .329.045.646.116.953l2.383 20.267c.41 11.802 25.755 17.18 49.318 17.18s48.908-5.379 49.318-17.181l10.947-93.412a9.33 9.33 0 0 0 .232-1.979c.04-.347.025-.676-.017-.995-.325-22.77-11.751-43.517-29.132-53.453l40.446-38.328.001 252.688c0 16.779 13.651 30.43 30.431 30.43 16.778 0 30.429-13.65 30.429-30.43V332.276c3.901.397 7.42.397 11.317.001v129.014c0 16.779 13.651 30.43 30.431 30.43 16.779 0 30.43-13.65 30.43-30.43l-.003-252.681 43.502 41.244c4.814 4.552 10.979 6.808 17.135 6.808 3.421 0 6.837-.703 10.018-2.091v156.77c-19.274 4.942-29.803 26.299-29.803 41.64 0 13.666.745 23.739 10.389 28.909 7.921 4.247 20.48 4.69 47.247 4.69 2.58 0 5.286-.004 8.121-.008 3.117-.004 6.391-.009 9.827-.009 24.63 0 43.167-17.76 43.167-29.276-.001-4.562-3.1-9.89-11.835-9.89M145.899 301.104l-.063.536c-1.251 3.859-18.873 11.825-51.918 11.825-33.065 0-50.696-7.966-51.946-11.825l-.063-.535c.339-3.721 18.016-12.139 52.009-12.139 33.972 0 51.639 8.416 51.981 12.138m-11.129 94.881a3.473 3.473 0 0 0-.024.445c-.626 2.484-14.126 9.022-40.828 9.022s-40.202-6.537-40.823-8.972c0-.166-.01-.332-.029-.496l-1.903-16.182h49.508a4.25 4.25 0 1 0 0-8.5H50.164l-6.799-57.814c11.583 5.811 31.538 8.477 50.553 8.477 19.009 0 38.958-2.695 50.534-8.527zm9.993-106.595c-11.527-6.038-31.666-8.924-50.845-8.924-19 0-38.938 2.859-50.524 8.797 5.011-20.376 22.043-37.604 42.234-40.907.23-.038.448-.106.662-.178.202.23.403.46.615.685 4.901 5.184 11.515 7.8 18.141 7.8 4.597 0 9.2-1.262 13.242-3.796 13.447 6.324 23.247 20.143 26.475 36.523m-28.421-45.712c-6.591 6.232-17.026 5.939-23.261-.654-6.232-6.594-5.938-17.029.659-23.268l72.122-68.401a29.11 29.11 0 0 0-.15 2.902v42.637zm156.571 239.055V426.55a4.25 4.25 0 1 0-8.5 0v56.315c-10.233-1.85-18.022-10.816-18.022-21.574v-133.9a4.252 4.252 0 0 0-4.994-4.185c-3.242.577-6.325.869-9.163.869-2.836 0-5.919-.293-9.166-.87a4.25 4.25 0 0 0-4.995 4.185v133.901c0 12.092-9.837 21.93-21.929 21.93a21.9 21.9 0 0 1-5.732-.765c0-.016.004-.029.004-.044V359.419a4.25 4.25 0 1 0-8.5 0v118.54c-4.709-4.025-7.703-10.002-7.703-16.668l-.001-307.034c0-22.02 35.637-40.6 58.019-40.6s58.018 18.58 58.018 40.6l.001 307.034c.001 10.517-7.443 19.325-17.337 21.442m75.182-239.051-49.345-46.785v-42.64c0-.941-.049-1.874-.138-2.799l70.792 67.076v26.221c-6.296 4.839-15.364 4.547-21.309-1.073m92.433 226.03c-4.193 3.119-13.061 8.352-25.344 8.352-3.44 0-6.718.005-9.839.009-2.831.004-5.533.008-8.109.008-22.625 0-36.826-.248-43.23-3.682-4.636-2.485-5.905-7.089-5.905-21.418 0-14.278 11.315-34.195 29.744-34.195 3.571 0 7.333.732 11.181 2.175 5.399 2.024 11.328 7.49 17.604 13.276 11.012 10.153 23.494 21.661 39.888 21.661 3.334 0 3.334.974 3.334 1.39 0 2.727-3.203 7.87-9.324 12.424"/><path d="M271.662 149.314a4.25 4.25 0 0 0-4.25 4.25v109.494a4.25 4.25 0 1 0 8.5 0V153.564a4.25 4.25 0 0 0-4.25-4.25M268.663 354.804a4.25 4.25 0 0 0-4.25 4.25v41.997a4.25 4.25 0 1 0 8.5 0v-41.997a4.25 4.25 0 0 0-4.25-4.25"/></svg>