<?xml version="1.0" encoding="iso-8859-1"?>
<!-- Uploaded to: SVG Repo, www.svgrepo.com, Generator: SVG Repo Mixer Tools -->
<svg fill="#000000" height="800px" width="800px" version="1.1" id="Layer_1" xmlns="http://www.w3.org/2000/svg" xmlns:xlink="http://www.w3.org/1999/xlink" 
	 viewBox="0 0 512.001 512.001" xml:space="preserve">
<g>
	<g>
		<path d="M493.722,182.891h-37.719c-39.193-41.429-90.337-69.127-146.388-78.732V77.98c0-26.247-21.7-47.402-47.947-47.402h-11.336
			c-26.247,0-47.947,21.156-47.947,47.402v26.178c-56.051,9.605-107.197,37.303-146.388,78.732h-37.72
			C8.183,182.891,0,191.074,0,201.168s8.183,18.278,18.278,18.278h26.922v126.583c0,74.765,61.427,135.395,136.193,135.395h149.217
			c74.765,0,136.193-60.63,136.193-135.395V219.446h26.922c10.094,0,18.278-8.183,18.278-18.278S503.817,182.891,493.722,182.891z
			 M238.941,77.98c0-6.09,5.302-10.847,11.392-10.847h11.336c6.09,0,11.392,4.757,11.392,10.847v22.052h-8.091h-17.938h-8.091V77.98
			z M247.031,136.587h17.938c49.84,0,97.832,17.059,136.778,46.303H110.253C149.198,153.646,197.191,136.587,247.031,136.587z
			 M430.245,346.028c0.001,54.608-45.027,98.84-99.637,98.84H181.391c-54.608,0-99.638-44.232-99.638-98.84V219.446h348.492V346.028
			z"/>
	</g>
</g>
</svg>