<?xml version="1.0" encoding="utf-8"?>
<!-- Svg Vector Icons : http://www.onlinewebfonts.com/icon -->
<!DOCTYPE svg PUBLIC "-//W3C//DTD SVG 1.1//EN" "http://www.w3.org/Graphics/SVG/1.1/DTD/svg11.dtd">
<svg version="1.1" xmlns="http://www.w3.org/2000/svg" xmlns:xlink="http://www.w3.org/1999/xlink" x="0px" y="0px" viewBox="0 0 1000 1000" enable-background="new 0 0 1000 1000" xml:space="preserve">
<metadata> Svg Vector Icons : http://www.onlinewebfonts.com/icon </metadata>
<g><g transform="translate(0.000000,511.000000) scale(0.100000,-0.100000)"><path d="M6392.9,4991.4c-24.5-10.2-55.2-42.9-65.4-71.5c-12.2-32.7-20.4-443.2-20.4-1043.6v-988.5H5010.2c-1125.4,0-1309.2-4.1-1374.5-30.6c-96-40.8-159.3-102.1-214.4-204.2l-44.9-81.7V-951.9V-4475l44.9-81.7c55.1-102.1,118.5-163.4,214.4-204.2c65.3-26.5,247.1-30.6,1368.4-28.6c710.7,0,1311.2,8.2,1333.7,16.3c22.5,10.2,61.3,8.2,85.8-4.1c61.3-26.6,157.3,14.3,187.9,79.6c32.7,71.5,32.7,9542,0,9613.5c-22.5,49-98,98-147.1,93.9C6450.1,5009.8,6419.4,5001.6,6392.9,4991.4z M6286.7,2522.2c28.6-55.1,28.6-6893,0-6948.1c-20.4-36.8-57.2-38.8-1286.7-38.8s-1266.3,2-1286.7,38.8c-28.6,55.1-28.6,6893,0,6948.1c20.4,36.8,57.2,38.8,1286.7,38.8S6266.3,2558.9,6286.7,2522.2z"/><path d="M4248.4-557.7c-75.6-16.3-200.2-153.2-216.5-239c-28.6-155.2,36.8-290,171.6-359.5c104.2-53.1,173.6-51.1,285.9,6.2c100.1,49,183.8,179.7,183.8,285.9c0,79.6-69.4,206.3-140.9,257.3C4471-561.8,4334.2-539.3,4248.4-557.7z"/><path d="M1374.8,2042.2c-412.6-102.1-680.1-512.6-604.5-923.2c63.3-349.2,314.5-600.4,663.8-663.8c541.2-100.1,1033.4,392.1,933.4,933.4C2281.6,1860.4,1832.3,2154.5,1374.8,2042.2z M1787.3,1697c79.7-42.9,181.8-143,222.6-222.6c44.9-85.8,57.2-255.3,28.6-363.5c-32.7-120.5-200.1-292.1-316.6-324.7c-228.8-63.3-437.1,12.3-565.7,204.2c-169.5,253.3-47,616.8,247.1,727.1C1495.3,1752.2,1701.6,1739.9,1787.3,1697z"/><path d="M8227,2042.2c-408.5-114.4-665.8-508.6-596.4-910.9c30.6-183.8,104.2-326.8,228.7-449.3c316.6-318.6,827.2-318.6,1143.7,0c318.6,316.6,318.6,827.2,0,1143.7C8798.8,2032,8494.5,2115.7,8227,2042.2z M8649.7,1697c79.6-42.9,181.8-143,222.6-222.6c44.9-85.8,57.2-255.3,28.6-363.5c-32.7-120.5-200.1-292.1-316.6-324.7c-228.8-63.3-437.1,12.3-565.7,204.2c-169.5,253.3-47,616.8,247.1,727.1C8357.7,1752.2,8563.9,1739.9,8649.7,1697z"/><path d="M629.3,91.7C488.4,46.8,382.2-41,310.7-175.8c-36.8-67.4-38.8-136.8-38.8-1184.6c0-1100.8,0-1113.1,44.9-1194.8c75.6-143,204.2-236.9,359.4-265.5l75.6-14.3v-904.8c0-500.4,8.2-929.3,18.4-955.8c10.2-26.6,47-61.3,81.7-75.6c79.6-32.7,169.5,0,204.2,73.5c30.6,71.5,32.7,2028.1,0,2097.6c-30.6,69.4-100.1,96-245.1,96c-102.1,0-130.7,8.2-171.6,51.1l-51.1,49v1043.7v1043.7l51.1,49l49,51.1h880.3h880.3l49-51.1l51.1-49v-1039.6c0-1231.6,22.5-1129.5-243-1149.9c-118.5-8.2-177.7-22.4-202.2-47c-32.7-30.6-34.7-124.6-40.8-1060c-4.1-716.9,2-1041.6,18.4-1078.4c47-118.5,228.7-122.5,281.8-6.2c16.3,34.7,22.5,326.8,22.5,955.9v906.8l75.6,14.3c157.3,28.6,285.9,126.7,365.6,275.7c36.8,67.4,38.8,136.9,38.8,1184.6c0,1047.8-2,1117.2-38.8,1184.6C2773.8-75.7,2696.2,3.9,2600.2,55c-79.7,44.9-102.1,44.9-1000.8,49C1095,106,657.9,99.9,629.3,91.7z"/><path d="M7491.7,91.7C7350.8,46.8,7244.6-41,7173.1-175.8c-36.8-67.4-38.8-136.8-38.8-1184.6c0-1100.8,0-1113.1,44.9-1194.8c75.6-143,204.2-236.9,359.4-265.5l75.6-14.3v-912.9c0-682.1,6.1-923.1,26.5-959.9c53.1-106.2,226.7-98,277.8,10.2c16.3,34.7,22.5,351.3,22.5,1051.8c0,1078.4-2,1100.8-106.2,1129.4c-26.6,6.2-100.1,12.3-165.4,12.3c-98,0-126.6,8.2-167.5,51.1l-51.1,49v1043.7v1043.7l51.1,49l49,51.1h880.2h880.3l49-51.1l51.1-49v-1039.6c0-1231.6,22.5-1129.5-243-1149.9c-118.5-8.2-177.7-22.4-202.2-47c-30.6-30.6-34.7-122.5-40.8-1039.6c-4.1-553.5,0-1035.5,6.1-1072.2c16.3-91.9,120.5-145,210.4-108.3c32.7,14.3,69.5,49,83.8,75.5c16.3,34.7,22.5,326.8,22.5,955.9v906.8l75.6,14.3c157.3,28.6,285.9,126.7,365.6,275.7c36.8,67.4,38.8,136.9,38.8,1184.6c0,1047.8-2,1117.2-38.8,1184.6C9636.2-75.7,9558.6,3.9,9462.6,55c-79.6,44.9-102.1,44.9-1000.8,49C7957.3,106,7520.3,99.9,7491.7,91.7z"/></g></g>
</svg>