<svg xmlns="http://www.w3.org/2000/svg" xml:space="preserve" viewBox="0 0 1000 1000"><path d="M639.29 11.86c-2.45 1.02-5.52 4.29-6.54 7.15-1.22 3.27-2.04 44.32-2.04 104.36v98.85H501.02c-112.54 0-130.92.41-137.45 3.06-9.6 4.08-15.93 10.21-21.44 20.42l-4.49 8.17V958.5l4.49 8.17c5.51 10.21 11.85 16.34 21.44 20.42 6.53 2.65 24.71 3.06 136.84 2.86 71.07 0 131.12-.82 133.37-1.63 2.25-1.02 6.13-.82 8.58.41 6.13 2.66 15.73-1.43 18.79-7.96 3.27-7.15 3.27-954.2 0-961.35-2.25-4.9-9.8-9.8-14.71-9.39-1.43-.01-4.5.81-7.15 1.83m-10.62 246.92c2.86 5.51 2.86 689.3 0 694.81-2.04 3.68-5.72 3.88-128.67 3.88s-126.63-.2-128.67-3.88c-2.86-5.51-2.86-689.3 0-694.81 2.04-3.68 5.72-3.88 128.67-3.88s126.63.21 128.67 3.88"/><path d="M424.84 566.77c-7.56 1.63-20.02 15.32-21.65 23.9-2.86 15.52 3.68 29 17.16 35.95 10.42 5.31 17.36 5.11 28.59-.62 10.01-4.9 18.38-17.97 18.38-28.59 0-7.96-6.94-20.63-14.09-25.73-6.13-4.5-19.81-6.75-28.39-4.91M137.48 306.78c-41.26 10.21-68.01 51.26-60.45 92.32 6.33 34.92 31.45 60.04 66.38 66.38 54.12 10.01 103.34-39.21 93.34-93.34-8.59-47.18-53.52-76.59-99.27-65.36m41.25 34.52c7.97 4.29 18.18 14.3 22.26 22.26 4.49 8.58 5.72 25.53 2.86 36.35-3.27 12.05-20.01 29.21-31.66 32.47-22.88 6.33-43.71-1.23-56.57-20.42-16.95-25.33-4.7-61.68 24.71-72.71 9.2-3.47 29.83-2.24 38.4 2.05M822.7 306.78c-40.85 11.44-66.58 50.86-59.64 91.09 3.06 18.38 10.42 32.68 22.87 44.93 31.66 31.86 82.72 31.86 114.37 0 31.86-31.66 31.86-82.72 0-114.37-20.42-20.63-50.85-29-77.6-21.65m42.27 34.52c7.96 4.29 18.18 14.3 22.26 22.26 4.49 8.58 5.72 25.53 2.86 36.35-3.27 12.05-20.01 29.21-31.66 32.47-22.88 6.33-43.71-1.23-56.57-20.42-16.95-25.33-4.7-61.68 24.71-72.71 9.2-3.47 29.82-2.24 38.4 2.05M62.93 501.83c-14.09 4.49-24.71 13.27-31.86 26.75-3.68 6.74-3.88 13.68-3.88 118.46 0 110.08 0 111.31 4.49 119.48 7.56 14.3 20.42 23.69 35.94 26.55l7.56 1.43v90.48c0 50.04.82 92.93 1.84 95.58 1.02 2.66 4.7 6.13 8.17 7.56 7.96 3.27 16.95 0 20.42-7.35 3.06-7.15 3.27-202.81 0-209.76-3.06-6.94-10.01-9.6-24.51-9.6-10.21 0-13.07-.82-17.16-5.11l-5.11-4.9V542.66l5.11-4.9 4.9-5.11H244.9l4.9 5.11 5.11 4.9v103.96c0 123.16 2.25 112.95-24.3 114.99-11.85.82-17.77 2.24-20.22 4.7-3.27 3.06-3.47 12.46-4.08 106-.41 71.69.2 104.16 1.84 107.84 4.7 11.85 22.87 12.25 28.18.62 1.63-3.47 2.25-32.68 2.25-95.59V794.5l7.56-1.43c15.73-2.86 28.59-12.67 36.56-27.57 3.68-6.74 3.88-13.69 3.88-118.46 0-104.78-.2-111.72-3.88-118.46-5.32-10.01-13.08-17.97-22.68-23.08-7.97-4.49-10.21-4.49-100.08-4.9-50.44-.2-94.15.41-97.01 1.23zM749.17 501.83c-14.09 4.49-24.71 13.27-31.86 26.75-3.68 6.74-3.88 13.68-3.88 118.46 0 110.08 0 111.31 4.49 119.48 7.56 14.3 20.42 23.69 35.94 26.55l7.56 1.43v91.29c0 68.21.61 92.31 2.65 95.99 5.31 10.62 22.67 9.8 27.78-1.02 1.63-3.47 2.25-35.13 2.25-105.18 0-107.84-.2-110.08-10.62-112.94-2.66-.62-10.01-1.23-16.54-1.23-9.8 0-12.66-.82-16.75-5.11l-5.11-4.9V542.66l5.11-4.9 4.9-5.11h176.05l4.9 5.11 5.11 4.9v103.96c0 123.16 2.25 112.95-24.3 114.99-11.85.82-17.77 2.24-20.22 4.7-3.06 3.06-3.47 12.25-4.08 103.96-.41 55.35 0 103.55.61 107.22 1.63 9.19 12.05 14.5 21.04 10.83 3.27-1.43 6.95-4.9 8.38-7.55 1.63-3.47 2.25-32.68 2.25-95.59V794.5l7.56-1.43c15.73-2.86 28.59-12.67 36.56-27.57 3.68-6.74 3.88-13.69 3.88-118.46 0-104.78-.2-111.72-3.88-118.46-5.33-10.01-13.09-17.97-22.69-23.08-7.96-4.49-10.21-4.49-100.08-4.9-50.45-.2-94.15.41-97.01 1.23"/></svg>