<svg xmlns="http://www.w3.org/2000/svg" xml:space="preserve" width="800" height="800" viewBox="0 0 24 24" fill="#7367F0"><path d="m18.3 7-6.8-3.9c-.5-.2-1.1-.1-1.4.4-.2.5-.1 1.1.4 1.4l.5.3V7H6.9c-1.5 0-2.8.8-3.5 2.1l-1 2c-.1.2-.1.3-.2.5-.1.3-.2.6-.2.9V15c0 1.4.9 2.5 2.1 2.9C4.5 19.1 5.6 20 7 20c1.3 0 2.4-.8 2.8-2h4.4c.4 1.2 1.5 2 2.8 2 1.4 0 2.5-.9 2.9-2.1 1.2-.4 2.1-1.5 2.1-2.9v-4c0-2.1-1.6-3.8-3.7-4M13 6.3l1.2.7H13zm-7.8 3.8c.3-.7 1-1.1 1.7-1.1H8v2H4.7zM7 18c-.6 0-1-.4-1-1s.4-1 1-1 1 .4 1 1-.4 1-1 1m10 0c-.6 0-1-.4-1-1s.4-1 1-1 1 .4 1 1-.4 1-1 1m3-3c0 .3-.1.5-.3.7-.1-.1-.1-.3-.2-.4-.1-.1-.2-.2-.3-.4l-.1-.1-.3-.3s-.1 0-.1-.1c-.1-.1-.3-.2-.5-.2h-.1c-.1 0-.3-.1-.4-.1h-.1c-.2-.1-.4-.1-.6-.1-.2 0-.4 0-.6.1h-.2c-.1 0-.2.1-.4.1-.1 0-.1 0-.2.1s-.2.1-.3.2c0 0-.1 0-.1.1-.1.1-.3.2-.4.3l-.1.1-.3.3-.1.1c-.1.1-.1.2-.2.3 0 .1 0 .1-.1.2v.1H9.8v-.1c0-.1 0-.1-.1-.2s-.1-.2-.2-.3l-.1-.1-.3-.3-.1-.1c-.1-.1-.3-.2-.4-.3l-.1-.1c-.1-.1-.2-.1-.3-.2-.1 0-.1 0-.2-.1-.1 0-.2-.1-.4-.1h-.2c0-.1-.2-.1-.4-.1s-.4 0-.5.1h-.1c-.1 0-.3.1-.4.1h-.1c-.2.1-.3.2-.5.2 0 0-.1 0-.1.1l-.3.3-.1.1c-.1.1-.2.2-.3.4-.1.1-.2.2-.2.4-.3-.2-.4-.4-.4-.7v-2h16zm-10-4V9h8c1.1 0 2 .9 2 2z"/></svg>