<?xml version="1.0" encoding="iso-8859-1"?>
<!-- Uploaded to: SVG Repo, www.svgrepo.com, Generator: SVG Repo Mixer Tools -->
<svg fill="#000000" height="800px" width="800px" version="1.1" id="Layer_1" xmlns="http://www.w3.org/2000/svg" xmlns:xlink="http://www.w3.org/1999/xlink" 
	 viewBox="0 0 512 512" xml:space="preserve">
<g>
	<g>
		<path d="M495.304,372.87h-16.696v-50.087c0-42.412-31.802-77.513-72.807-82.773l-29.129-58.259
			c-4.124-8.248-14.154-11.591-22.4-7.466c-8.248,4.123-11.59,14.152-7.466,22.399l21.31,42.621h-56.464v-76.563l90.394-90.394
			h26.476c9.22,0,16.696-7.475,16.696-16.696c0-9.22-7.475-16.696-16.696-16.696c-5.566,0-375.216,0-380.912,0
			C21.357,38.957,0,60.314,0,86.566c0,10.547,0,287.906,0,302.999c0,9.22,7.475,16.696,16.696,16.696h16.696
			c0,36.824,29.959,66.783,66.783,66.783c36.824,0,66.783-29.959,66.783-66.783h144.696c0,36.824,29.959,66.783,66.783,66.783
			s66.783-29.959,66.783-66.783c15.693,0,34.462,0,50.087,0c9.22,0,16.696-7.475,16.696-16.696
			C512,380.345,504.525,372.87,495.304,372.87z M311.652,72.348h43.172l-43.172,43.172V72.348z M33.391,86.566
			c0-7.84,6.378-14.218,14.218-14.218c12.779,0,218.425,0,230.652,0v166.957h-44.522v-16.696c0-27.618-22.469-50.087-50.087-50.087
			h-33.391c-9.22,0-16.696,7.475-16.696,16.696v50.087h-33.391v-16.696c0-27.618-22.469-50.087-50.087-50.087H33.391V86.566z
			 M200.348,222.609v16.696h-33.391v-33.391h16.696C192.858,205.913,200.348,213.403,200.348,222.609z M33.391,205.913h16.696
			c9.206,0,16.696,7.49,16.696,16.696v16.696H33.391V205.913z M100.174,439.652c-18.412,0-33.391-14.979-33.391-33.391
			c0-18.412,14.979-33.391,33.391-33.391c18.412,0,33.391,14.979,33.391,33.391C133.565,424.673,118.586,439.652,100.174,439.652z
			 M378.435,439.652c-18.412,0-33.391-14.979-33.391-33.391c0-18.412,14.979-33.391,33.391-33.391
			c18.412,0,33.391,14.979,33.391,33.391C411.826,424.673,396.847,439.652,378.435,439.652z M445.217,372.87h-8.984
			c-11.566-19.941-33.134-33.391-57.798-33.391c-24.664,0-46.232,13.45-57.798,33.391H157.972
			c-11.566-19.941-33.134-33.391-57.798-33.391c-24.664,0-46.232,13.45-57.798,33.391h-8.984V272.696c14.445,0,347.271,0,361.658,0
			c0.031,0,0.063,0.003,0.095,0.003c0.012,0,0.023-0.002,0.036-0.002c27.596,0.027,50.038,22.483,50.038,50.086V372.87z"/>
	</g>
</g>
<g>
	<g>
		<path d="M250.435,306.087h-33.391c-9.22,0-16.696,7.475-16.696,16.696s7.475,16.696,16.696,16.696h33.391
			c9.22,0,16.696-7.475,16.696-16.696S259.655,306.087,250.435,306.087z"/>
	</g>
</g>
</svg>