<svg xmlns="http://www.w3.org/2000/svg" xml:space="preserve" width="800" height="800" viewBox="0 0 512 512" fill="#7367F0"><path d="M495.304 372.87h-16.696v-50.087c0-42.412-31.802-77.513-72.807-82.773l-29.129-58.259c-4.124-8.248-14.154-11.591-22.4-7.466-8.248 4.123-11.59 14.152-7.466 22.399l21.31 42.621h-56.464v-76.563l90.394-90.394h26.476c9.22 0 16.696-7.475 16.696-16.696 0-9.22-7.475-16.696-16.696-16.696H47.61C21.357 38.957 0 60.314 0 86.566v302.999c0 9.22 7.475 16.696 16.696 16.696h16.696c0 36.824 29.959 66.783 66.783 66.783s66.783-29.959 66.783-66.783h144.696c0 36.824 29.959 66.783 66.783 66.783s66.783-29.959 66.783-66.783h50.087c9.22 0 16.696-7.475 16.696-16.696-.003-9.22-7.478-16.695-16.699-16.695M311.652 72.348h43.172l-43.172 43.172V72.348zM33.391 86.566c0-7.84 6.378-14.218 14.218-14.218h230.652v166.957h-44.522v-16.696c0-27.618-22.469-50.087-50.087-50.087h-33.391c-9.22 0-16.696 7.475-16.696 16.696v50.087h-33.391v-16.696c0-27.618-22.469-50.087-50.087-50.087H33.391zm166.957 136.043v16.696h-33.391v-33.391h16.696c9.205-.001 16.695 7.489 16.695 16.695M33.391 205.913h16.696c9.206 0 16.696 7.49 16.696 16.696v16.696H33.391zm66.783 233.739c-18.412 0-33.391-14.979-33.391-33.391s14.979-33.391 33.391-33.391 33.391 14.979 33.391 33.391-14.979 33.391-33.391 33.391m278.261 0c-18.412 0-33.391-14.979-33.391-33.391s14.979-33.391 33.391-33.391 33.391 14.979 33.391 33.391-14.979 33.391-33.391 33.391zm66.782-66.782h-8.984c-11.566-19.941-33.134-33.391-57.798-33.391s-46.232 13.45-57.798 33.391H157.972c-11.566-19.941-33.134-33.391-57.798-33.391s-46.232 13.45-57.798 33.391h-8.984V272.696H395.05c.031 0 .063.003.095.003l.036-.002c27.596.027 50.038 22.483 50.038 50.086v50.087z"/><path d="M250.435 306.087h-33.391c-9.22 0-16.696 7.475-16.696 16.696s7.475 16.696 16.696 16.696h33.391c9.22 0 16.696-7.475 16.696-16.696s-7.476-16.696-16.696-16.696"/></svg>