<?xml version="1.0" ?>
<!-- Uploaded to: SVG Repo, www.svgrepo.com, Generator: SVG Repo Mixer Tools -->
<svg width="800px" height="800px" viewBox="0 0 24 24" version="1.1" xml:space="preserve" xmlns="http://www.w3.org/2000/svg" xmlns:xlink="http://www.w3.org/1999/xlink">
<style type="text/css">
	.st0{opacity:0.2;fill:none;stroke:#000000;stroke-width:5.000000e-02;stroke-miterlimit:10;}
</style>
<g id="Layer_Grid"/>
<g id="Layer_2">
<path d="M18.3,7l-6.8-3.9C11,2.9,10.4,3,10.1,3.5C9.9,4,10,4.6,10.5,4.9L11,5.2V7H6.9C5.4,7,4.1,7.8,3.4,9.1l-1,2   c-0.1,0.2-0.1,0.3-0.2,0.5c0,0,0,0,0,0C2.1,11.9,2,12.2,2,12.5V15c0,1.4,0.9,2.5,2.1,2.9C4.5,19.1,5.6,20,7,20c1.3,0,2.4-0.8,2.8-2   h4.4c0.4,1.2,1.5,2,2.8,2c1.4,0,2.5-0.9,2.9-2.1c1.2-0.4,2.1-1.5,2.1-2.9v-4C22,8.9,20.4,7.2,18.3,7z M13,6.3L14.2,7H13V6.3z    M5.2,10.1C5.5,9.4,6.2,9,6.9,9H8v2H4.7L5.2,10.1z M7,18c-0.6,0-1-0.4-1-1s0.4-1,1-1s1,0.4,1,1S7.6,18,7,18z M17,18   c-0.6,0-1-0.4-1-1s0.4-1,1-1s1,0.4,1,1S17.6,18,17,18z M20,15c0,0.3-0.1,0.5-0.3,0.7c-0.1-0.1-0.1-0.3-0.2-0.4c0,0,0,0,0,0   c-0.1-0.1-0.2-0.2-0.3-0.4c0,0-0.1-0.1-0.1-0.1c-0.1-0.1-0.2-0.2-0.3-0.3c0,0-0.1,0-0.1-0.1c-0.1-0.1-0.3-0.2-0.5-0.2   c0,0-0.1,0-0.1,0c-0.1,0-0.3-0.1-0.4-0.1c0,0-0.1,0-0.1,0C17.4,14,17.2,14,17,14c-0.2,0-0.4,0-0.6,0.1c-0.1,0-0.1,0-0.2,0   c-0.1,0-0.2,0.1-0.4,0.1c-0.1,0-0.1,0-0.2,0.1c-0.1,0.1-0.2,0.1-0.3,0.2c0,0-0.1,0-0.1,0.1c-0.1,0.1-0.3,0.2-0.4,0.3   c0,0,0,0-0.1,0.1c-0.1,0.1-0.2,0.2-0.3,0.3c0,0-0.1,0.1-0.1,0.1c-0.1,0.1-0.1,0.2-0.2,0.3c0,0.1,0,0.1-0.1,0.2c0,0,0,0.1,0,0.1H9.8   c0,0,0-0.1,0-0.1c0-0.1,0-0.1-0.1-0.2c-0.1-0.1-0.1-0.2-0.2-0.3c0,0-0.1-0.1-0.1-0.1c-0.1-0.1-0.2-0.2-0.3-0.3c0,0,0,0-0.1-0.1   c-0.1-0.1-0.3-0.2-0.4-0.3c0,0-0.1-0.1-0.1-0.1c-0.1-0.1-0.2-0.1-0.3-0.2c-0.1,0-0.1,0-0.2-0.1c-0.1,0-0.2-0.1-0.4-0.1   c-0.1,0-0.1,0-0.2,0C7.4,14,7.2,14,7,14c-0.2,0-0.4,0-0.5,0.1c-0.1,0-0.1,0-0.1,0c-0.1,0-0.3,0.1-0.4,0.1c0,0-0.1,0-0.1,0   c-0.2,0.1-0.3,0.2-0.5,0.2c0,0-0.1,0-0.1,0.1c-0.1,0.1-0.2,0.2-0.3,0.3c0,0-0.1,0.1-0.1,0.1c-0.1,0.1-0.2,0.2-0.3,0.4c0,0,0,0,0,0   c-0.1,0.1-0.2,0.2-0.2,0.4C4.1,15.5,4,15.3,4,15v-2h16V15z M10,11V9h8c1.1,0,2,0.9,2,2H10z"/>
</g>
</svg>