<svg xmlns="http://www.w3.org/2000/svg" xml:space="preserve" width="800" height="800" viewBox="0 0 511.994 511.994"><path d="M131.135 146.225c2.091 2.069 4.821 3.115 7.552 3.115s5.461-1.045 7.531-3.115c4.16-4.16 4.16-10.923 0-15.083l-96-96c-4.16-4.16-10.923-4.16-15.083 0s-4.16 10.923 0 15.083zM80.81 20.401l98.112 83.093c10.027 10.027 15.701 23.381 15.552 36.651-.213 18.709 8.832 38.592 29.291 64.491a10.654 10.654 0 0 0 8.384 4.053 10.42 10.42 0 0 0 6.592-2.325c4.629-3.648 5.397-10.347 1.749-14.976-22.336-28.267-24.789-42.645-24.683-51.008.213-18.965-7.723-37.909-22.443-52.565L94.613 4.123C90.112.304 83.349.88 79.573 5.36c-3.819 4.502-3.243 11.243 1.237 15.041M502.634 457.393 356.01 310.769c-4.16-4.16-10.923-4.16-15.083 0s-4.16 10.923 0 15.083l146.624 146.624c4.16 4.16 4.16 10.923 0 15.083s-10.923 4.16-15.083 0L311.914 327.003c-4.16-4.16-10.923-4.16-15.083 0s-4.16 10.923 0 15.083l160.555 160.555c6.251 6.229 14.443 9.344 22.635 9.344s16.384-3.115 22.613-9.344c12.48-12.48 12.48-32.768 0-45.248M505.173 46.641c-.043-17.365-5.931-32-17.536-43.52-3.84-3.84-9.92-4.16-14.165-.768-2.027 1.621-37.547 36.843-453.376 453.269-12.501 12.523-12.523 32.875-.064 45.333 6.251 6.251 14.464 9.365 22.656 9.365 8.171 0 16.341-3.115 22.571-9.323L201.045 365.19c52.309-52.288 74.965-59.563 87.445-60.459 23.445-1.707 43.669-10.432 58.517-25.259 67.968-67.967 158.294-166.037 158.166-232.831zm-218.24 236.778c-25.941 1.877-56.149 21.824-100.992 66.645L50.154 485.894c-4.139 4.16-10.901 4.117-15.061-.043-4.16-4.139-4.117-10.944.085-15.147 273.344-273.749 410.923-411.37 443.84-444.053 3.221 5.76 4.8 12.373 4.8 19.989.107 65.664-114.304 180.096-151.915 217.707-11.157 11.158-26.709 17.75-44.97 19.072M143.679 215.899c12.352.917 27.968 8.96 47.765 24.597a10.622 10.622 0 0 0 6.613 2.304c3.157 0 6.272-1.387 8.363-4.053 3.648-4.629 2.88-11.328-1.749-14.976-23.573-18.645-42.475-27.904-59.435-29.141-12.821-.939-30.976-4.928-44.437-18.389L18.431 88.689c-4.032-4.288-10.795-4.48-15.083-.448s-4.48 10.795-.448 15.083l82.603 87.765c14.507 14.506 34.624 23.082 58.176 24.81"/></svg>