<svg xmlns="http://www.w3.org/2000/svg" xml:space="preserve" width="800" height="800" viewBox="0 0 511.727 511.727" fill="#7367F0"><path d="M404.257 286.1c-5.207 0-8.678 3.471-8.678 8.678s3.471 8.678 8.678 8.678c5.207 0 8.678-3.471 8.678-8.678 0-4.339-3.472-8.678-8.678-8.678"/><path d="M399.05 253.123 274.317 123.401a69.281 69.281 0 0 0 8.678-36.792l11.919-10.517c18.224-16.488 19.091-43.39 3.471-61.614-16.488-18.224-43.39-19.092-61.614-3.471l-11.16 9.847a80.692 80.692 0 0 0-7.931-1.169c-19.091-.868-36.447 5.207-50.332 17.356l-29.505 25.166c-3.471 3.471-3.471 8.678-.868 12.149l17.805 21.762-8.259 7.743c-6.942 6.942-10.414 14.753-11.281 24.298s2.603 18.224 8.678 25.166c6.942 6.942 16.488 11.281 26.034 11.281 8.678 0 16.488-2.603 23.43-8.678l6.047-5.241 15.648 19.125c1.736 1.736 4.339 3.471 6.942 3.471s4.339-.868 6.075-2.603l11.117-10.216 121.656 129.104v5.207c0 1.736.868 4.339.868 6.075L220.284 442.303h-24.298c-33.844 0-60.746 26.902-60.746 60.746 0 5.207 3.471 8.678 8.678 8.678h242.983c5.207 0 8.678-3.471 8.678-8.678 0-33.844-26.902-60.746-60.746-60.746h-40.677l103.159-102.4h5.207c24.298 0 43.39-19.092 43.39-43.39-.001-25.166-20.828-45.993-46.862-43.39M248.053 24.025c10.414-9.546 26.902-8.678 36.447 1.736 9.546 10.414 8.678 26.902-1.736 36.448l-3.471 3.471c-1.562-3.513-3.313-7.023-5.305-10.457a71.54 71.54 0 0 0-8.58-12.106c-3.84-4.388-8.028-8.079-12.562-11.08a69.64 69.64 0 0 0-8.091-4.715zm-66.82 118.888c-6.942 6.075-18.224 5.207-24.298-1.736-3.471-3.471-4.339-7.81-4.339-12.149 0-4.339 2.603-8.678 6.075-12.149l6.942-6.942 19.339 23.059 3.177 3.883zm41.654 8.678-15.529-18.957c-.032-.044-.059-.091-.092-.135l-1.437-1.732-49.763-60.75 23.43-19.959c10.414-9.546 23.431-13.885 37.315-13.017 2.191.137 4.334.418 6.435.811a8.136 8.136 0 0 0 2.243.924c4.41.735 8.661 2.255 12.628 4.348 5.225 2.843 10.011 6.621 14.274 11.272 15.542 17.661 17.279 42.796 5.684 61.833-.777.544-1.497 1.309-2.213 2.384-.868 1.736-2.603 2.603-4.339 5.207-.733 1.467-2.088 2.933-3.537 4.4zm154.468 342.78H153.463c4.339-19.959 21.695-34.712 42.522-34.712H334.833c20.827 0 38.183 14.752 42.522 34.712m26.902-173.56c-1.736 0-3.471 0-6.075-.868-2.603 0-6.075.868-7.81 2.603L269.748 442.303h-25.166l131.905-131.905c2.603-2.603 3.471-6.075 2.603-8.678s-.868-5.207-.868-6.942 0-3.471.868-6.075c.868-2.603 0-6.075-1.736-7.81L252.511 148.246l7.692-7.068a71.657 71.657 0 0 0 4.653-4.653l.554-.554 125.83 131.037c1.736 2.603 5.207 3.471 7.81 2.603 1.736-.868 3.471-.868 5.207-.868 14.753 0 26.034 11.281 26.034 26.034s-11.282 26.034-26.034 26.034M117.884 138.574c0-5.207-3.471-8.678-8.678-8.678H74.494c-5.207 0-8.678 3.471-8.678 8.678s3.471 8.678 8.678 8.678h34.712c5.206 0 8.678-3.471 8.678-8.678M111.809 167.212l-17.356 17.356c-3.471 3.471-3.471 8.678 0 12.149 1.736 1.736 3.471 2.603 6.075 2.603s4.339-.868 6.075-2.603l17.356-17.356c3.471-3.471 3.471-8.678 0-12.149s-8.679-3.472-12.15 0"/><path d="M161.274 234.032c5.207 0 8.678-3.471 8.678-8.678v-34.712c0-5.207-3.471-8.678-8.678-8.678s-8.678 3.471-8.678 8.678v34.712c0 5.207 3.471 8.678 8.678 8.678"/></svg>