<?xml version="1.0" encoding="iso-8859-1"?>
<!-- Uploaded to: SVG Repo, www.svgrepo.com, Generator: SVG Repo Mixer Tools -->
<svg fill="#000000" height="800px" width="800px" version="1.1" id="Layer_1" xmlns="http://www.w3.org/2000/svg" xmlns:xlink="http://www.w3.org/1999/xlink" 
	 viewBox="0 0 511.727 511.727" xml:space="preserve">
<g transform="translate(1 1)">
	<g>
		<g>
			<path d="M403.257,285.1c-5.207,0-8.678,3.471-8.678,8.678s3.471,8.678,8.678,8.678c5.207,0,8.678-3.471,8.678-8.678
				C411.935,289.439,408.463,285.1,403.257,285.1z"/>
			<path d="M398.05,252.123L273.317,122.401c6.334-11.37,9.237-24.12,8.678-36.792l11.919-10.517
				c18.224-16.488,19.091-43.39,3.471-61.614c-16.488-18.224-43.39-19.092-61.614-3.471l-11.16,9.847
				c-2.617-0.515-5.263-0.915-7.931-1.169c-19.091-0.868-36.447,5.207-50.332,17.356l-29.505,25.166
				c-3.471,3.471-3.471,8.678-0.868,12.149l17.805,21.762l-8.259,7.743c-6.942,6.942-10.414,14.753-11.281,24.298
				s2.603,18.224,8.678,25.166c6.942,6.942,16.488,11.281,26.034,11.281c8.678,0,16.488-2.603,23.43-8.678l6.047-5.241
				l15.648,19.125c1.736,1.736,4.339,3.471,6.942,3.471s4.339-0.868,6.075-2.603l11.117-10.216l121.656,129.104
				c0,1.736,0,3.471,0,5.207s0.868,4.339,0.868,6.075L219.284,441.303h-24.298c-33.844,0-60.746,26.902-60.746,60.746
				c0,5.207,3.471,8.678,8.678,8.678h242.983c5.207,0,8.678-3.471,8.678-8.678c0-33.844-26.902-60.746-60.746-60.746h-40.677
				l103.159-102.4c1.736,0,3.471,0,5.207,0c24.298,0,43.39-19.092,43.39-43.39C444.911,270.347,424.084,249.52,398.05,252.123z
				 M247.053,23.025c10.414-9.546,26.902-8.678,36.447,1.736c9.546,10.414,8.678,26.902-1.736,36.448l-3.471,3.471
				c-1.562-3.513-3.313-7.023-5.305-10.457c-2.392-4.243-5.242-8.307-8.58-12.106c-3.84-4.388-8.028-8.079-12.562-11.08
				c-2.587-1.757-5.294-3.322-8.091-4.715L247.053,23.025z M180.233,141.913c-6.942,6.075-18.224,5.207-24.298-1.736
				c-3.471-3.471-4.339-7.81-4.339-12.149c0-4.339,2.603-8.678,6.075-12.149l6.942-6.942l19.339,23.059l3.177,3.883L180.233,141.913
				z M221.887,150.591l-15.529-18.957c-0.032-0.044-0.059-0.091-0.092-0.135l-1.437-1.732l-49.763-60.75l23.43-19.959
				c10.414-9.546,23.431-13.885,37.315-13.017c2.191,0.137,4.334,0.418,6.435,0.811c0.654,0.394,1.395,0.712,2.243,0.924
				c4.41,0.735,8.661,2.255,12.628,4.348c5.225,2.843,10.011,6.621,14.274,11.272c15.542,17.661,17.279,42.796,5.684,61.833
				c-0.777,0.544-1.497,1.309-2.213,2.384c-0.868,1.736-2.603,2.603-4.339,5.207c-0.733,1.467-2.088,2.933-3.537,4.4
				L221.887,150.591z M376.355,493.371H152.463c4.339-19.959,21.695-34.712,42.522-34.712h27.77h49.464h61.614
				C354.66,458.659,372.016,473.411,376.355,493.371z M403.257,319.811c-1.736,0-3.471,0-6.075-0.868
				c-2.603,0-6.075,0.868-7.81,2.603L268.748,441.303h-25.166l131.905-131.905c2.603-2.603,3.471-6.075,2.603-8.678
				s-0.868-5.207-0.868-6.942s0-3.471,0.868-6.075c0.868-2.603,0-6.075-1.736-7.81L251.511,147.246l7.692-7.068
				c1.643-1.494,3.187-3.051,4.653-4.653c0.185-0.185,0.369-0.369,0.554-0.554L390.24,266.008c1.736,2.603,5.207,3.471,7.81,2.603
				c1.736-0.868,3.471-0.868,5.207-0.868c14.753,0,26.034,11.281,26.034,26.034S418.009,319.811,403.257,319.811z"/>
			<path d="M116.884,137.574c0-5.207-3.471-8.678-8.678-8.678H73.494c-5.207,0-8.678,3.471-8.678,8.678s3.471,8.678,8.678,8.678
				h34.712C113.412,146.252,116.884,142.781,116.884,137.574z"/>
			<path d="M110.809,166.212l-17.356,17.356c-3.471,3.471-3.471,8.678,0,12.149c1.736,1.736,3.471,2.603,6.075,2.603
				s4.339-0.868,6.075-2.603l17.356-17.356c3.471-3.471,3.471-8.678,0-12.149S114.28,162.74,110.809,166.212z"/>
			<path d="M160.274,233.032c5.207,0,8.678-3.471,8.678-8.678v-34.712c0-5.207-3.471-8.678-8.678-8.678s-8.678,3.471-8.678,8.678
				v34.712C151.596,229.561,155.067,233.032,160.274,233.032z"/>
		</g>
	</g>
</g>
</svg>