<svg xmlns="http://www.w3.org/2000/svg" xml:space="preserve" width="800" height="800" viewBox="0 0 60 60" fill="#7367F0"><path d="M48 0H14v22h34zm-2 20H16V2h30zM54 34.074H32c-5.071 0-6.07-1.193-7.885-3.361-.216-.257-.439-.524-.679-.801C20.729 26.79 16.873 25 12.858 25c-3.063 0-5.895 1.042-8.188 3.013-.233.199-.452.406-.659.617C2.069 30.603 1 33.352 1 36.37v4.32c-.631.95-1 2.087-1 3.31 0 1.04.281 2.042.803 2.946A4.464 4.464 0 0 0 0 49.5c0 2.31 1.756 4.197 4 4.449V59a1 1 0 0 0 1 1h2c.43 0 .812-.274.948-.683L9.728 54H51.28l1.772 5.316A.997.997 0 0 0 54 60h2a1 1 0 0 0 1-1v-5.276a4.488 4.488 0 0 0 2.992-4.149H60v-9.5a6.007 6.007 0 0 0-6-6.001M3 36.37c0-2.454.889-4.764 2.437-6.338.168-.17.346-.338.535-.501C7.899 27.875 10.28 27 12.858 27c3.435 0 6.739 1.539 9.066 4.223.231.267.448.525.657.774 1.907 2.278 3.413 4.077 9.418 4.077h22c2.206 0 4 1.794 4 4v5.688A4.469 4.469 0 0 0 55.5 45H11.907c.002-.01.001-.021.003-.031.054-.321.09-.643.09-.969 0-3.309-2.691-6-6-6-.244 0-.483.019-.72.047-.073.009-.144.022-.216.033-.17.027-.337.06-.501.101-.072.018-.144.035-.215.055-.21.06-.415.129-.615.211l-.043.016a6.063 6.063 0 0 0-.66.33c-.01.006-.021.01-.03.016zm-.198 5.255a4.18 4.18 0 0 1 .605-.646l.104-.086c.185-.151.384-.278.59-.392.065-.035.128-.074.195-.106.194-.093.398-.163.605-.223.076-.022.148-.053.226-.07C5.41 40.039 5.702 40 6 40c2.206 0 4 1.794 4 4 0 .336-.049.67-.138 1H4.5c-.786 0-1.515.22-2.158.576A3.86 3.86 0 0 1 2 44c0-.8.241-1.542.647-2.167z"/><path d="M26.086 11.844C28.047 11.313 37.354 8.897 44.021 9H45V3H17v5.461l1.335.593a58.7 58.7 0 0 1 7.751 2.79M28.883 13.198c2.155 1.144 4.242 2.513 5.824 4.095L36.677 19H45v-8h-1c-4.893-.08-11.51 1.326-15.117 2.198M33.345 18.756c-4.91-4.907-15.495-7.761-15.602-7.789l-.149-.053L17 10.65V19h16.626z"/></svg>