<?xml version="1.0" encoding="utf-8"?>
<!-- Uploaded to: SVG Repo, www.svgrepo.com, Generator: SVG Repo Mixer Tools -->
<svg fill="#000000" version="1.1" id="Layer_1" xmlns="http://www.w3.org/2000/svg" xmlns:xlink="http://www.w3.org/1999/xlink" 
	 width="800px" height="800px" viewBox="0 0 256 253" enable-background="new 0 0 256 253" xml:space="preserve">
<path d="M2,69c0,13.678,9.625,25.302,22,29.576V233H2v18h252v-18h-22V98.554c12.89-3.945,21.699-15.396,22-29.554v-8H2V69z
	 M65.29,68.346c0,6.477,6.755,31.47,31.727,31.47c21.689,0,31.202-19.615,31.202-31.47c0,11.052,7.41,31.447,31.464,31.447
	c21.733,0,31.363-20.999,31.363-31.447c0,14.425,9.726,26.416,22.954,30.154V233H42V98.594C55.402,94.966,65.29,82.895,65.29,68.346
	z M254,54H2l32-32V2h189v20h-0.168L254,54z M144.839,131.919c0-4.043-3.537-6.569-7.883-6.569c0,0-16.575,0-16.473,0
	c-4.245,0-7.883,2.526-7.883,6.569v11.117H97.137v77.314h63.266v-77.314h-15.564V131.919z M139.078,143.036H118.36v-11.42h20.718
	V143.036z M186.174,154.558c0,0.202,0,53.867,0,53.867c0,7.479-5.66,11.825-11.521,11.825h-8.489v-77.415h8.489
	C180.616,142.834,186.174,147.887,186.174,154.558z M71.366,208.425c0,0,0-53.665,0-53.867c0-6.671,5.558-11.724,11.521-11.724
	h8.489v77.415h-8.489C77.025,220.249,71.366,215.904,71.366,208.425z"/>
</svg>