<?xml version="1.0" encoding="iso-8859-1"?>
<!-- Uploaded to: SVG Repo, www.svgrepo.com, Generator: SVG Repo Mixer Tools -->
<!DOCTYPE svg PUBLIC "-//W3C//DTD SVG 1.1//EN" "http://www.w3.org/Graphics/SVG/1.1/DTD/svg11.dtd">
<svg fill="#000000" height="800px" width="800px" version="1.1" id="Capa_1" xmlns="http://www.w3.org/2000/svg" xmlns:xlink="http://www.w3.org/1999/xlink" 
	 viewBox="0 0 487.634 487.634" xml:space="preserve">
<g>
	<path d="M77.261,124.96c8.602,6.962,19.671,10.5,32.925,10.5c28.768,0,52.174-23.405,52.174-52.174
		c0-13.637-4.458-25.217-13.232-34.498c2.146-2.463,3.21-4.89,3.384-7.449c0.401-5.931-4.385-10.496-9.271-13.948l-1.538-16.344
		v-0.001c-0.208-2.212-0.846-8.934-26.734-8.934c-4.831,0-9.95,0.251-15.215,0.746C87.48,4.012,59.045,7.866,60.064,18.719
		c0.001,0.008,0.002,0.018,0.003,0.025l1.521,16.193c-6.18,5.933-9.884,11.764-12.648,19.869
		c-3.963,11.623-3.513,24.308,1.339,37.703C58.275,114.593,74.133,123.403,77.261,124.96z M152.599,93.683h-10.852
		c-9.663,0-17.524,7.862-17.524,17.526v5.144c0,2.348,1.902,4.25,4.25,4.25c2.348,0,4.25-1.902,4.25-4.25v-5.144
		c0-4.978,4.048-9.026,9.024-9.026h7.809c-1.138,2.36-2.489,4.598-4.016,6.7h-5.927c-2.348,0-4.25,1.902-4.25,4.25
		c0,1.736,1.043,3.223,2.534,3.883c-7.544,6.21-17.2,9.944-27.712,9.944c-9.938,0-18.333-2.26-25.017-6.718
		c3.211-8.1-0.668-19.925-1.62-22.578c-0.445-1.243-1.443-2.208-2.7-2.612c-3.295-1.058-5.509-4.097-5.509-7.563
		c0-4.378,3.563-7.94,7.94-7.94c4.379,0,7.941,3.563,7.941,7.94v18.077c0,2.348,1.902,4.25,4.25,4.25h11.771
		c2.237,0,4.092-1.735,4.24-3.968c0.097-1.448-0.116-3.278-0.386-5.595c-1.589-13.662-1.779-28.956,16.188-37.515
		c6.479-3.085,11.526-5.845,15.354-8.448c7.536,7.787,11.22,17.299,11.22,28.995C153.859,86.869,153.416,90.349,152.599,93.683z
		 M134.821,30.57c-2.795,2.049-13.568,5.793-31.758,7.503c-18.562,1.745-29.938-0.033-32.788-1.548l-0.984-10.473
		c3.91,0.953,9.498,1.598,17.508,1.598c4.831,0,9.95-0.251,15.214-0.745c10.062-0.945,19.484-2.682,26.532-4.89
		c1.745-0.547,3.651-1.21,5.462-2.021L134.821,30.57z M100.548,11.321c5.002-0.47,9.854-0.709,14.42-0.709
		c8.12,0,13.165,0.746,15.986,1.464c-4.531,2.094-14.563,4.94-29.736,6.366c-5.001,0.47-9.853,0.708-14.419,0.708
		c-8.119,0-13.164-0.745-15.986-1.463C75.343,15.594,85.373,12.747,100.548,11.321z M56.984,57.551
		c1.961-5.749,4.391-9.995,8.227-14.178c3.097,2.029,7.797,2.851,11.672,3.303c3.476,0.405,7.454,0.607,11.75,0.607
		c4.771,0,9.933-0.249,15.226-0.747c10.063-0.946,19.485-2.683,26.531-4.89c3.622-1.134,7.94-2.76,10.625-5.213
		c2.731,2.392,3.054,3.762,3.016,4.33c-0.12,1.771-2.93,5.981-20.398,14.302c-24.965,11.891-22.17,35.913-20.977,46.171
		c0.003,0.026,0.006,0.054,0.009,0.08h-2.942V87.489c0-9.065-7.376-16.44-16.441-16.44s-16.44,7.375-16.44,16.44
		c0,6.401,3.652,12.102,9.29,14.812c1.274,4.215,2.147,9.563,1.615,13.06c-5.037-3.419-14.242-11.297-19.475-25.745
		C54.094,78.084,53.661,67.296,56.984,57.551z"/>
	<path d="M347.526,27.374c-0.697-8.574-6.956-15.589-15.162-17.423V4.25c0-2.348-1.902-4.25-4.25-4.25
		c-2.348,0-4.25,1.902-4.25,4.25v5.701c-8.206,1.834-14.465,8.849-15.162,17.423c-53.229,9.233-93.838,55.75-93.838,111.579v76.451
		l-64.755-41.413c-0.036-0.243-0.085-0.485-0.166-0.727c-7.216-21.358-26.34-36.275-46.506-36.275h-7.169
		c-23.09,0-40.969,20.176-42.511,47.975c-1.686,30.386-0.075,119.055-0.006,122.814c0.043,2.316,1.933,4.172,4.249,4.172h11.66
		v144.699c0,17.085,13.9,30.984,30.983,30.984c17.085,0,30.984-13.899,30.984-30.984V311.95h22.551c1.163,0,2.274-0.477,3.077-1.318
		c0.802-0.842,1.224-1.976,1.168-3.137l-3.339-69.19l43.943,28.104c4.153,2.656,8.943,4.06,13.855,4.06h0.001
		c0.665,0,1.324-0.033,1.979-0.083v121.162c0,2.348,1.902,4.25,4.25,4.25h218c2.348,0,4.25-1.902,4.25-4.25V138.953
		C441.364,83.124,400.756,36.607,347.526,27.374z M328.114,17.971c5.108,0,9.4,3.507,10.628,8.234
		c-3.5-0.326-7.044-0.502-10.628-0.502c-3.584,0-7.128,0.176-10.628,0.502C318.714,21.478,323.006,17.971,328.114,17.971z
		 M100.645,479.134c-12.397,0-22.483-10.087-22.483-22.484v-10.243h44.968v10.243C123.129,469.047,113.042,479.134,100.645,479.134z
		 M123.129,418.955h-6.853c-2.348,0-4.25,1.902-4.25,4.25c0,2.348,1.902,4.25,4.25,4.25h6.853v10.451H78.161V311.95h7.954v56.319
		c0,2.348,1.902,4.25,4.25,4.25c2.348,0,4.25-1.902,4.25-4.25V311.95h28.514V418.955z M147.897,265.67h-12.481
		c-2.348,0-4.25,1.902-4.25,4.25c0,2.348,1.902,4.25,4.25,4.25h12.892l0.447,9.266H96.709c-2.348,0-4.25,1.902-4.25,4.25
		c0,2.348,1.902,4.25,4.25,4.25h52.455l0.556,11.515H62.179c-0.304-18.304-1.396-91.651,0.065-118.016
		c1.306-23.52,15.297-39.945,34.025-39.945h7.169c12.857,0,25.623,7.972,33.379,20.001l-16.214-10.37
		c-4.153-2.656-8.943-4.061-13.854-4.061c-8.839,0-16.956,4.441-21.715,11.88c-7.648,11.962-4.14,27.917,7.82,35.566l53.45,34.183
		L147.897,265.67z M203.609,259.248L97.435,191.346c-8.013-5.125-10.363-15.814-5.239-23.827c3.188-4.983,8.628-7.959,14.554-7.959
		c3.283,0,6.49,0.941,9.274,2.721l106.176,67.904c3.881,2.482,6.563,6.327,7.554,10.827c0.989,4.5,0.167,9.116-2.315,12.998
		c-3.188,4.984-8.628,7.959-14.552,7.959C209.6,261.969,206.393,261.027,203.609,259.248z M432.864,387.298h-209.5V268.249
		c4.536-2.013,8.458-5.321,11.232-9.659c3.706-5.795,4.934-12.686,3.457-19.403c-1.478-6.718-5.482-12.458-11.276-16.163
		l-3.413-2.183v-81.888c0-57.76,46.99-104.75,104.75-104.75c57.76,0,104.75,46.99,104.75,104.75V387.298z"/>
	<path d="M437.114,404.305h-218c-2.348,0-4.25,1.902-4.25,4.25c0,2.348,1.902,4.25,4.25,4.25h21.583
		c-9.089,5.592-15.164,15.629-15.164,27.061c0,17.507,14.243,31.75,31.75,31.75c17.507,0,31.75-14.243,31.75-31.75
		c0-11.432-6.075-21.469-15.164-27.061h108.49c-9.089,5.592-15.164,15.629-15.164,27.061c0,17.507,14.243,31.75,31.75,31.75
		c17.507,0,31.75-14.243,31.75-31.75c0-11.432-6.075-21.469-15.164-27.061h21.583c2.348,0,4.25-1.902,4.25-4.25
		C441.364,406.207,439.462,404.305,437.114,404.305z M280.533,439.865c0,12.82-10.43,23.25-23.25,23.25
		c-12.82,0-23.25-10.43-23.25-23.25c0-12.82,10.43-23.25,23.25-23.25C270.104,416.615,280.533,427.045,280.533,439.865z
		 M422.195,439.865c0,12.82-10.43,23.25-23.25,23.25c-12.82,0-23.25-10.43-23.25-23.25c0-12.82,10.43-23.25,23.25-23.25
		C411.766,416.615,422.195,427.045,422.195,439.865z"/>
	<path d="M257.283,427.115c-7.03,0-12.75,5.72-12.75,12.75s5.72,12.75,12.75,12.75c7.03,0,12.75-5.72,12.75-12.75
		S264.314,427.115,257.283,427.115z M257.283,444.115c-2.344,0-4.25-1.906-4.25-4.25c0-2.344,1.906-4.25,4.25-4.25
		c2.344,0,4.25,1.906,4.25,4.25C261.533,442.209,259.627,444.115,257.283,444.115z"/>
	<path d="M398.945,427.115c-7.03,0-12.75,5.72-12.75,12.75s5.72,12.75,12.75,12.75s12.75-5.72,12.75-12.75
		S405.976,427.115,398.945,427.115z M398.945,444.115c-2.344,0-4.25-1.906-4.25-4.25c0-2.344,1.906-4.25,4.25-4.25
		c2.344,0,4.25,1.906,4.25,4.25C403.195,442.209,401.289,444.115,398.945,444.115z"/>
	<path d="M364.621,262.365h-30v-7.452c0-7.857-6.393-14.25-14.25-14.25h-25.5c-7.857,0-14.25,6.393-14.25,14.25v7.452h-30
		c-7.857,0-14.25,6.393-14.25,14.25v87.5c0,7.857,6.393,14.25,14.25,14.25h114c7.857,0,14.25-6.393,14.25-14.25v-87.5
		C378.871,268.758,372.479,262.365,364.621,262.365z M348.621,270.865v99h-82v-99H348.621z M289.121,254.913
		c0-3.171,2.579-5.75,5.75-5.75h25.5c3.171,0,5.75,2.579,5.75,5.75v7.452h-37V254.913z M244.871,364.115v-87.5
		c0-3.171,2.579-5.75,5.75-5.75h7.5v99h-7.5C247.45,369.865,244.871,367.286,244.871,364.115z M370.371,364.115
		c0,3.171-2.579,5.75-5.75,5.75h-7.5v-99h7.5c3.171,0,5.75,2.579,5.75,5.75V364.115z"/>
	<path d="M275.621,352.865h21c2.348,0,4.25-1.902,4.25-4.25c0-2.348-1.902-4.25-4.25-4.25h-21c-2.348,0-4.25,1.902-4.25,4.25
		C271.371,350.963,273.273,352.865,275.621,352.865z"/>
	<path d="M330.121,296.865h9.5c2.348,0,4.25-1.902,4.25-4.25c0-2.348-1.902-4.25-4.25-4.25h-9.5c-2.348,0-4.25,1.902-4.25,4.25
		C325.871,294.963,327.773,296.865,330.121,296.865z"/>
	<path d="M413.621,354.865c2.348,0,4.25-1.902,4.25-4.25v-212c0-2.348-1.902-4.25-4.25-4.25c-2.348,0-4.25,1.902-4.25,4.25v212
		C409.371,352.963,411.273,354.865,413.621,354.865z"/>
	<path d="M238.621,170.865c2.348,0,4.25-1.902,4.25-4.25v-47c0-2.348-1.902-4.25-4.25-4.25s-4.25,1.902-4.25,4.25v47
		C234.371,168.963,236.273,170.865,238.621,170.865z"/>
	<path d="M242.871,208.615v-25c0-2.348-1.902-4.25-4.25-4.25s-4.25,1.902-4.25,4.25v25c0,2.348,1.902,4.25,4.25,4.25
		S242.871,210.963,242.871,208.615z"/>
	<path d="M71.621,203.365c-2.348,0-4.25,1.902-4.25,4.25v31c0,2.348,1.902,4.25,4.25,4.25c2.348,0,4.25-1.902,4.25-4.25v-31
		C75.871,205.268,73.969,203.365,71.621,203.365z"/>
</g>
</svg>