<svg xmlns="http://www.w3.org/2000/svg" xml:space="preserve" width="800" height="800" viewBox="0 0 487.634 487.634" fill="#7367F0"><path d="M77.261 124.96c8.602 6.962 19.671 10.5 32.925 10.5 28.768 0 52.174-23.405 52.174-52.174 0-13.637-4.458-25.217-13.232-34.498 2.146-2.463 3.21-4.89 3.384-7.449.401-5.931-4.385-10.496-9.271-13.948l-1.538-16.344v-.001c-.208-2.212-.846-8.934-26.734-8.934-4.831 0-9.95.251-15.215.746-12.274 1.154-40.709 5.008-39.69 15.861l.003.025 1.521 16.193c-6.18 5.933-9.884 11.764-12.648 19.869-3.963 11.623-3.513 24.308 1.339 37.703 7.996 22.084 23.854 30.894 26.982 32.451m75.338-31.277h-10.852c-9.663 0-17.524 7.862-17.524 17.526v5.144a4.249 4.249 0 0 0 4.25 4.25 4.249 4.249 0 0 0 4.25-4.25v-5.144c0-4.978 4.048-9.026 9.024-9.026h7.809a43.706 43.706 0 0 1-4.016 6.7h-5.927a4.245 4.245 0 0 0-1.716 8.133c-7.544 6.21-17.2 9.944-27.712 9.944-9.938 0-18.333-2.26-25.017-6.718 3.211-8.1-.668-19.925-1.62-22.578a4.248 4.248 0 0 0-2.7-2.612 7.916 7.916 0 0 1-5.509-7.563c0-4.378 3.563-7.94 7.94-7.94 4.379 0 7.941 3.563 7.941 7.94v18.077a4.249 4.249 0 0 0 4.25 4.25h11.771a4.25 4.25 0 0 0 4.24-3.968c.097-1.448-.116-3.278-.386-5.595-1.589-13.662-1.779-28.956 16.188-37.515 6.479-3.085 11.526-5.845 15.354-8.448 7.536 7.787 11.22 17.299 11.22 28.995a43.525 43.525 0 0 1-1.258 10.398M134.821 30.57c-2.795 2.049-13.568 5.793-31.758 7.503-18.562 1.745-29.938-.033-32.788-1.548l-.984-10.473c3.91.953 9.498 1.598 17.508 1.598 4.831 0 9.95-.251 15.214-.745 10.062-.945 19.484-2.682 26.532-4.89 1.745-.547 3.651-1.21 5.462-2.021zm-34.273-19.249c5.002-.47 9.854-.709 14.42-.709 8.12 0 13.165.746 15.986 1.464-4.531 2.094-14.563 4.94-29.736 6.366-5.001.47-9.853.708-14.419.708-8.119 0-13.164-.745-15.986-1.463 4.53-2.093 14.56-4.94 29.735-6.366zm-43.564 46.23c1.961-5.749 4.391-9.995 8.227-14.178 3.097 2.029 7.797 2.851 11.672 3.303 3.476.405 7.454.607 11.75.607 4.771 0 9.933-.249 15.226-.747 10.063-.946 19.485-2.683 26.531-4.89 3.622-1.134 7.94-2.76 10.625-5.213 2.731 2.392 3.054 3.762 3.016 4.33-.12 1.771-2.93 5.981-20.398 14.302-24.965 11.891-22.17 35.913-20.977 46.171l.009.08h-2.942V87.489c0-9.065-7.376-16.44-16.441-16.44s-16.44 7.375-16.44 16.44a16.387 16.387 0 0 0 9.29 14.812c1.274 4.215 2.147 9.563 1.615 13.06-5.037-3.419-14.242-11.297-19.475-25.745-4.178-11.532-4.611-22.32-1.288-32.065"/><path d="M347.526 27.374c-.697-8.574-6.956-15.589-15.162-17.423V4.25a4.249 4.249 0 0 0-4.25-4.25 4.249 4.249 0 0 0-4.25 4.25v5.701c-8.206 1.834-14.465 8.849-15.162 17.423-53.229 9.233-93.838 55.75-93.838 111.579v76.451l-64.755-41.413a4.212 4.212 0 0 0-.166-.727c-7.216-21.358-26.34-36.275-46.506-36.275h-7.169c-23.09 0-40.969 20.176-42.511 47.975-1.686 30.386-.075 119.055-.006 122.814A4.25 4.25 0 0 0 58 311.95h11.66v144.699c0 17.085 13.9 30.984 30.983 30.984 17.085 0 30.984-13.899 30.984-30.984V311.95h22.551a4.252 4.252 0 0 0 4.245-4.455l-3.339-69.19 43.943 28.104a25.672 25.672 0 0 0 13.855 4.06h.001c.665 0 1.324-.033 1.979-.083v121.162a4.249 4.249 0 0 0 4.25 4.25h218a4.249 4.249 0 0 0 4.25-4.25V138.953c.002-55.829-40.606-102.346-93.836-111.579zm-19.412-9.403c5.108 0 9.4 3.507 10.628 8.234-3.5-.326-7.044-.502-10.628-.502-3.584 0-7.128.176-10.628.502 1.228-4.727 5.52-8.234 10.628-8.234M100.645 479.134c-12.397 0-22.483-10.087-22.483-22.484v-10.243h44.968v10.243c-.001 12.397-10.088 22.484-22.485 22.484zm22.484-60.179h-6.853a4.249 4.249 0 0 0-4.25 4.25 4.249 4.249 0 0 0 4.25 4.25h6.853v10.451H78.161V311.95h7.954v56.319a4.249 4.249 0 0 0 4.25 4.25 4.249 4.249 0 0 0 4.25-4.25V311.95h28.514v107.005zm24.768-153.285h-12.481a4.249 4.249 0 0 0-4.25 4.25 4.249 4.249 0 0 0 4.25 4.25h12.892l.447 9.266H96.709a4.249 4.249 0 0 0-4.25 4.25 4.249 4.249 0 0 0 4.25 4.25h52.455l.556 11.515H62.179c-.304-18.304-1.396-91.651.065-118.016 1.306-23.52 15.297-39.945 34.025-39.945h7.169c12.857 0 25.623 7.972 33.379 20.001l-16.214-10.37a25.672 25.672 0 0 0-13.854-4.061c-8.839 0-16.956 4.441-21.715 11.88-7.648 11.962-4.14 27.917 7.82 35.566l53.45 34.183zm55.712-6.422L97.435 191.346c-8.013-5.125-10.363-15.814-5.239-23.827a17.198 17.198 0 0 1 14.554-7.959c3.283 0 6.49.941 9.274 2.721L222.2 230.185a17.143 17.143 0 0 1 7.554 10.827c.989 4.5.167 9.116-2.315 12.998a17.195 17.195 0 0 1-14.552 7.959c-3.287 0-6.494-.942-9.278-2.721m229.255 128.05h-209.5V268.249a25.667 25.667 0 0 0 11.232-9.659c3.706-5.795 4.934-12.686 3.457-19.403-1.478-6.718-5.482-12.458-11.276-16.163l-3.413-2.183v-81.888c0-57.76 46.99-104.75 104.75-104.75s104.75 46.99 104.75 104.75v248.345z"/><path d="M437.114 404.305h-218a4.249 4.249 0 0 0-4.25 4.25 4.249 4.249 0 0 0 4.25 4.25h21.583c-9.089 5.592-15.164 15.629-15.164 27.061 0 17.507 14.243 31.75 31.75 31.75 17.507 0 31.75-14.243 31.75-31.75 0-11.432-6.075-21.469-15.164-27.061h108.49c-9.089 5.592-15.164 15.629-15.164 27.061 0 17.507 14.243 31.75 31.75 31.75 17.507 0 31.75-14.243 31.75-31.75 0-11.432-6.075-21.469-15.164-27.061h21.583a4.249 4.249 0 0 0 4.25-4.25 4.249 4.249 0 0 0-4.25-4.25m-156.581 35.56c0 12.82-10.43 23.25-23.25 23.25s-23.25-10.43-23.25-23.25 10.43-23.25 23.25-23.25c12.821 0 23.25 10.43 23.25 23.25m141.662 0c0 12.82-10.43 23.25-23.25 23.25s-23.25-10.43-23.25-23.25 10.43-23.25 23.25-23.25c12.821 0 23.25 10.43 23.25 23.25"/><path d="M257.283 427.115c-7.03 0-12.75 5.72-12.75 12.75s5.72 12.75 12.75 12.75 12.75-5.72 12.75-12.75-5.719-12.75-12.75-12.75m0 17a4.254 4.254 0 0 1-4.25-4.25 4.254 4.254 0 0 1 4.25-4.25 4.254 4.254 0 0 1 4.25 4.25 4.254 4.254 0 0 1-4.25 4.25M398.945 427.115c-7.03 0-12.75 5.72-12.75 12.75s5.72 12.75 12.75 12.75 12.75-5.72 12.75-12.75-5.719-12.75-12.75-12.75m0 17a4.254 4.254 0 0 1-4.25-4.25 4.254 4.254 0 0 1 4.25-4.25 4.254 4.254 0 0 1 4.25 4.25 4.254 4.254 0 0 1-4.25 4.25M364.621 262.365h-30v-7.452c0-7.857-6.393-14.25-14.25-14.25h-25.5c-7.857 0-14.25 6.393-14.25 14.25v7.452h-30c-7.857 0-14.25 6.393-14.25 14.25v87.5c0 7.857 6.393 14.25 14.25 14.25h114c7.857 0 14.25-6.393 14.25-14.25v-87.5c0-7.857-6.392-14.25-14.25-14.25m-16 8.5v99h-82v-99zm-59.5-15.952a5.756 5.756 0 0 1 5.75-5.75h25.5a5.756 5.756 0 0 1 5.75 5.75v7.452h-37zm-44.25 109.202v-87.5a5.756 5.756 0 0 1 5.75-5.75h7.5v99h-7.5a5.756 5.756 0 0 1-5.75-5.75m125.5 0a5.756 5.756 0 0 1-5.75 5.75h-7.5v-99h7.5a5.756 5.756 0 0 1 5.75 5.75z"/><path d="M275.621 352.865h21a4.249 4.249 0 0 0 4.25-4.25 4.249 4.249 0 0 0-4.25-4.25h-21a4.249 4.249 0 0 0-4.25 4.25 4.249 4.249 0 0 0 4.25 4.25M330.121 296.865h9.5a4.249 4.249 0 0 0 4.25-4.25 4.249 4.249 0 0 0-4.25-4.25h-9.5a4.249 4.249 0 0 0-4.25 4.25 4.249 4.249 0 0 0 4.25 4.25M413.621 354.865a4.249 4.249 0 0 0 4.25-4.25v-212a4.249 4.249 0 0 0-4.25-4.25 4.249 4.249 0 0 0-4.25 4.25v212a4.249 4.249 0 0 0 4.25 4.25M238.621 170.865a4.249 4.249 0 0 0 4.25-4.25v-47c0-2.348-1.902-4.25-4.25-4.25s-4.25 1.902-4.25 4.25v47a4.249 4.249 0 0 0 4.25 4.25M242.871 208.615v-25c0-2.348-1.902-4.25-4.25-4.25s-4.25 1.902-4.25 4.25v25c0 2.348 1.902 4.25 4.25 4.25s4.25-1.902 4.25-4.25M71.621 203.365a4.249 4.249 0 0 0-4.25 4.25v31a4.249 4.249 0 0 0 4.25 4.25 4.249 4.249 0 0 0 4.25-4.25v-31a4.25 4.25 0 0 0-4.25-4.25"/></svg>