<svg xmlns="http://www.w3.org/2000/svg" xml:space="preserve" width="800" height="800" viewBox="0 0 256 253" fill="#7367F0"><path d="M2 69c0 13.678 9.625 25.302 22 29.576V233H2v18h252v-18h-22V98.554c12.89-3.945 21.699-15.396 22-29.554v-8H2zm63.29-.654c0 6.477 6.755 31.47 31.727 31.47 21.689 0 31.202-19.615 31.202-31.47 0 11.052 7.41 31.447 31.464 31.447 21.733 0 31.363-20.999 31.363-31.447 0 14.425 9.726 26.416 22.954 30.154V233H42V98.594c13.402-3.628 23.29-15.699 23.29-30.248M254 54H2l32-32V2h189v20h-.168zm-109.161 77.919c0-4.043-3.537-6.569-7.883-6.569h-16.473c-4.245 0-7.883 2.526-7.883 6.569v11.117H97.137v77.314h63.266v-77.314h-15.564zm-5.761 11.117H118.36v-11.42h20.718zm47.096 11.522v53.867c0 7.479-5.66 11.825-11.521 11.825h-8.489v-77.415h8.489c5.963-.001 11.521 5.052 11.521 11.723M71.366 208.425v-53.867c0-6.671 5.558-11.724 11.521-11.724h8.489v77.415h-8.489c-5.862 0-11.521-4.345-11.521-11.824"/></svg>