<svg xmlns="http://www.w3.org/2000/svg" xml:space="preserve" width="800" height="800" viewBox="0 0 511.059 511.059" fill="#7367F0"><path d="M404.623 221.276c-4.369-40.277-16.375-82.577-47.343-128.7 3.371-6.622 3.132-14.515-1.084-21.128-5.385-8.457-15.394-12.015-25.472-8.653-2.227.725-3.806-.418-4.386-.93-.572-.538-1.852-2.014-1.314-4.233l.222-.964c1.664-7.39-.725-14.925-6.409-20.139-5.854-5.402-14.174-7.253-21.7-4.89l-78.976 43.759-98.432-70.127c-9.182-5.367-19.874-6.673-30.08-3.746C79.435 4.478 71.106 11.296 66.2 20.717c-4.907 9.438-5.717 20.173-2.278 30.225C67.369 61.003 74.58 68.99 84.155 73.385l108.015 51.183 9.173 88.695.35 1.69c1.724 5.478 5.564 9.95 10.496 12.672-22.75 19.072-36.019 47.087-36.019 77.193v112.375c0 51.763 42.112 93.867 93.867 93.867h85.333c51.763 0 93.867-42.103 93.867-93.867V304.817c-.002-33.69-16.684-64.683-44.614-83.541M206.146 88.949l-9.754 18.731L91.373 57.931c-5.367-2.475-9.387-6.921-11.298-12.518-1.92-5.589-1.468-11.563 1.263-16.811 2.731-5.248 7.364-9.037 13.047-10.684a22.599 22.599 0 0 1 6.153-.862c3.618 0 7.083.887 9.933 2.534l96.119 68.514zm30.703 25.668a8.53 8.53 0 0 1 7.586-4.625h76.8a8.536 8.536 0 0 1 8.533 8.533 8.53 8.53 0 0 1-8.533 8.533h-60.211l33.024 46.242c2.739 3.84 1.852 9.173-1.988 11.904a8.452 8.452 0 0 1-4.949 1.587 8.524 8.524 0 0 1-6.955-3.575l-42.667-59.733a8.554 8.554 0 0 1-.64-8.866m152.653 207.574v7.919c0 33.903-27.58 61.483-61.483 61.483h-30.626c-33.903 0-61.491-27.58-61.491-61.483v-67.832c.299-12.689.939-25.54 2.33-38.571l.213-.213.495-.555c1.553-1.758 3.482-1.553 4.258-1.382.76.162 2.611.794 3.448 3.593a21.733 21.733 0 0 0 1.297 3.362c.35.734.777 1.391 1.195 2.065.196.307.35.64.555.93.572.836 1.229 1.596 1.911 2.33.077.094.145.196.23.282a21.13 21.13 0 0 0 2.415 2.125c.034.034.068.068.102.094.836.631 1.732 1.169 2.654 1.673.077.034.137.085.213.119.853.444 1.741.802 2.654 1.126.179.06.358.145.538.205.785.256 1.604.427 2.424.589.367.077.717.171 1.075.222.666.094 1.34.128 2.022.162.418.017.819.094 1.237.094.333 0 .666-.009.998-.026 3.763-.162 7.245-1.229 10.249-3.055 5.001-3.046 8.653-8.175 9.984-14.677.469-2.295 2.253-3.089 2.995-3.32.734-.239 2.671-.614 4.779 1.408 7.27 6.895 17.852 7.945 26.317 2.534 8.465-5.376 12.023-15.394 8.661-25.472-.742-2.227.41-3.806.939-4.386.529-.572 1.988-1.852 4.847-1.169 2.432.58 4.864.742 7.219.521 7.049-.674 13.355-4.83 16.819-11.494l.009-.008c.282-.546.469-1.118.7-1.673.247-.572.538-1.143.725-1.724.316-.956.512-1.929.683-2.901.034-.196.111-.384.137-.58 1.041-7.023-1.527-14.217-7.484-19.499-1.749-1.562-1.544-3.499-1.374-4.258.162-.768.802-2.611 3.601-3.447 1.417-.418 2.722-.998 3.977-1.655.367-.188.7-.41 1.058-.623a21.052 21.052 0 0 0 2.475-1.724c.188-.145.418-.256.597-.41 16.879 37.316 22.05 72.397 23.424 106.342v72.959z"/></svg>