<?xml version="1.0" encoding="iso-8859-1"?>
<!-- Uploaded to: SVG Repo, www.svgrepo.com, Generator: SVG Repo Mixer Tools -->
<svg fill="#000000" height="800px" width="800px" version="1.1" id="Layer_1" xmlns="http://www.w3.org/2000/svg" xmlns:xlink="http://www.w3.org/1999/xlink" 
	 viewBox="0 0 459.507 459.507" xml:space="preserve">
<g>
	<g>
		<g>
			<path d="M175.788,283.476l4.12-14.38c-6.497-2.432-11.273-8.086-12.658-14.806l-12.057-58.953l26.081,51.907
				c2.265,4.508,6.636,7.583,11.644,8.191l59.748,7.26c8.237,1.006,15.766-4.861,16.772-13.137
				c0.682-5.616-1.823-10.879-6.09-13.991c4.966-20.667,3.884-16.165,8.92-37.12c0.957-3.984-1.496-7.989-5.48-8.947
				c-3.986-0.959-7.99,1.496-8.947,5.48c-7.77,32.336-6.23,25.929-8.87,36.916l-44.4-5.395l-22.456-44.69l17.268,19.315l2.65-9.251
				c3.417-11.925-3.481-24.363-15.407-27.78l-36.743-10.527c-12.579-3.604-25.588,4.281-28.198,17.118
				c-23.95,117.808-22.542,110.009-22.531,112.866C123.138,283.551,159.788,283.476,175.788,283.476z"/>
			<circle cx="186.169" cy="111.856" r="33.251"/>
			<path d="M250.773,278.275l-21.894-2.66c-7.276,4.748-13.381,11.235-17.667,18.987l120.349,10.602
				c1.797,0.158,3.496,0.612,5.066,1.29H186.908c-8.32,0-15.065,6.745-15.065,15.065s6.744,15.065,15.065,15.065
				c164.952,0,160.559-0.107,160.46-0.109c0.038,0.001,0.078,0.001,0.116,0.001c10.491,0,19.01-8.488,19.063-18.966l0.11-21.52
				c0.039-7.583-2.936-14.872-8.271-20.261c-0.539-0.544-1.102-1.058-1.678-1.554c-3.839-31.694-2.166-17.88-6.144-50.715
				c-0.493-4.067-4.182-6.969-8.258-6.473c-4.067,0.493-6.965,4.19-6.473,8.258c0.776,6.402,2.018,16.656,5.106,42.152
				c-1.829-0.185-1.717-0.142-14.035-0.204c0-15.887,0-22.297,0-29.463c0-4.098-3.321-7.419-7.419-7.419
				c-4.098,0-7.419,3.321-7.419,7.419c0,16.638,0,13.095,0,29.387l-12.146-0.062c1.894-21.521,1.345-15.28,3.411-38.764
				c0.359-4.082-2.659-7.682-6.74-8.04c-4.073-0.368-7.682,2.659-8.04,6.74c-1.522,17.293-1.746,19.844-3.519,39.989l-6.557-0.033
				C272.036,274.999,261.73,279.606,250.773,278.275z"/>
			<path d="M413.259,319.895c0.068,0.001,0.134,0.001,0.202,0.001c17.503,0,31.747-14.135,31.856-31.663
				c0.109-17.596-14.067-31.949-31.663-32.057c-0.068-0.001-0.134-0.001-0.202-0.001c-17.503,0.001-31.747,14.135-31.856,31.663
				C381.487,305.433,395.663,319.785,413.259,319.895z"/>
			<path d="M29.785,336.259c4.958,0,111.504,0,129.317,0c-2.101-3.601-3.464-7.709-3.854-12.138
				c-0.826-9.371,2.875-18.092,9.286-24.02c-10.04,0-130.095,0-134.749,0c-9.985,0-18.079,8.095-18.079,18.079
				C11.707,328.164,19.801,336.259,29.785,336.259z"/>
			<path d="M443.854,349.598c-7.758,0-411.978,0-428.202,0C7.008,349.598,0,356.606,0,365.25c0,8.644,7.008,15.652,15.652,15.652
				h428.202c8.644,0,15.653-7.008,15.653-15.652C459.507,356.606,452.499,349.598,443.854,349.598z"/>
		</g>
	</g>
</g>
</svg>