<svg xmlns="http://www.w3.org/2000/svg" xml:space="preserve" width="800" height="800" viewBox="0 0 459.507 459.507"><path d="m175.788 283.476 4.12-14.38c-6.497-2.432-11.273-8.086-12.658-14.806l-12.057-58.953 26.081 51.907a15.063 15.063 0 0 0 11.644 8.191l59.748 7.26c8.237 1.006 15.766-4.861 16.772-13.137.682-5.616-1.823-10.879-6.09-13.991l8.92-37.12a7.42 7.42 0 0 0-5.48-8.947 7.416 7.416 0 0 0-8.947 5.48l-8.87 36.916-44.4-5.395-22.456-44.69 17.268 19.315 2.65-9.251c3.417-11.925-3.481-24.363-15.407-27.78l-36.743-10.527c-12.579-3.604-25.588 4.281-28.198 17.118-23.95 117.808-22.542 110.009-22.531 112.866 23.984-.001 60.634-.076 76.634-.076"/><circle cx="186.169" cy="111.856" r="33.251"/><path d="m250.773 278.275-21.894-2.66a53.731 53.731 0 0 0-17.667 18.987l120.349 10.602c1.797.158 3.496.612 5.066 1.29H186.908c-8.32 0-15.065 6.745-15.065 15.065s6.744 15.065 15.065 15.065c164.952 0 160.559-.107 160.46-.109l.116.001c10.491 0 19.01-8.488 19.063-18.966l.11-21.52a28.59 28.59 0 0 0-8.271-20.261 28.898 28.898 0 0 0-1.678-1.554l-6.144-50.715a7.413 7.413 0 0 0-8.258-6.473 7.42 7.42 0 0 0-6.473 8.258l5.106 42.152c-1.829-.185-1.717-.142-14.035-.204V237.77a7.418 7.418 0 0 0-7.419-7.419 7.418 7.418 0 0 0-7.419 7.419v29.387l-12.146-.062 3.411-38.764a7.418 7.418 0 0 0-6.74-8.04c-4.073-.368-7.682 2.659-8.04 6.74l-3.519 39.989-6.557-.033c-6.439 8.012-16.745 12.619-27.702 11.288M413.259 319.895l.202.001c17.503 0 31.747-14.135 31.856-31.663.109-17.596-14.067-31.949-31.663-32.057l-.202-.001c-17.503.001-31.747 14.135-31.856 31.663-.109 17.595 14.067 31.947 31.663 32.057M29.785 336.259h129.317a29.081 29.081 0 0 1-3.854-12.138c-.826-9.371 2.875-18.092 9.286-24.02H29.785c-9.985 0-18.079 8.095-18.079 18.079.001 9.984 8.095 18.079 18.079 18.079M443.854 349.598H15.652C7.008 349.598 0 356.606 0 365.25c0 8.644 7.008 15.652 15.652 15.652h428.202c8.644 0 15.653-7.008 15.653-15.652 0-8.644-7.008-15.652-15.653-15.652"/></svg>