<svg xmlns="http://www.w3.org/2000/svg" xml:space="preserve" viewBox="0 0 512 512" fill="#7367F0"><path d="M252.175 173.196h15.529v23.642h-15.529zM252.175 204.719h15.529v78.803h-15.529zM252.175 291.4h15.529v23.641h-15.529z" style="fill:#1d1d1b"/><path d="M228.535 62.986v23.642H0v314.988h228.535v23.642h23.641v23.757h15.529v-23.758H464.95v23.757h15.529v-23.757H512V62.986H228.535zm267.936 346.742H244.064v-8.113h23.641v-78.69h-15.529v63.161H15.529v-283.93h236.647v63.16h15.529V86.628h-23.641v-8.113h252.408v331.213z" style="fill:#1d1d1b"/><path d="M323.101 118.033v62.928h133.853v-15.529h-15.878v-8.113h7.997V141.79h-94.566v15.529h7.996v8.113H338.63v-47.4h-15.529zm86.452 39.286h15.993v8.113h-15.993zm-31.522 0h15.993v8.113h-15.993zM456.953 267.879h-94.682v-63.044H283.698v63.044h-7.997v15.529h181.252v-15.529zm-141.733 0h-15.993v-47.516h15.993zm31.522 0h-15.993v-47.516h15.993zM307.343 291.4h15.529v15.762h-15.529zM362.501 291.4h15.529v15.762h-15.529zM417.669 291.4h15.529v15.762h-15.529z" style="fill:#1d1d1b"/><path d="M480.478 94.507H275.701v15.529H464.95v268.17h-15.992v-55.164h-15.762v-7.997h-15.529v7.997h-15.762v55.164h-8.113v-55.164H378.03v-7.997h-15.529v7.997H346.74v55.164h-8.113v-55.164h-15.762v-7.997h-15.529v7.997h-15.762v55.164h-15.878v15.529h204.777V94.507zM323.101 378.206h-15.993V338.57h15.993zm55.163 0h-15.992V338.57h15.992zm55.164 0h-15.993V338.57h15.993zM23.642 377.973h220.422V110.268H23.642v267.705zM39.17 125.797h189.365v236.648H39.17V125.797z" style="fill:#1d1d1b"/></svg>