<?xml version="1.0" encoding="iso-8859-1"?>
<!-- Uploaded to: SVG Repo, www.svgrepo.com, Generator: SVG Repo Mixer Tools -->
<svg version="1.1" id="Layer_1" xmlns="http://www.w3.org/2000/svg" xmlns:xlink="http://www.w3.org/1999/xlink" 
	 viewBox="0 0 512 512" xml:space="preserve">
<g>
	<rect x="252.175" y="173.196" style="fill:#1D1D1B;" width="15.529" height="23.642"/>
	<rect x="252.175" y="204.719" style="fill:#1D1D1B;" width="15.529" height="78.803"/>
	<rect x="252.175" y="291.4" style="fill:#1D1D1B;" width="15.529" height="23.641"/>
	<path style="fill:#1D1D1B;" d="M228.535,62.986v23.642H0v314.988h228.535v23.642h23.641v23.757h15.529v-23.758h197.245v23.757
		h15.529v-23.757H512V62.986H228.535z M496.471,409.728H244.064v-8.113h23.641v-78.69h-15.529v63.161H15.529v-283.93h236.647v63.16
		h15.529V86.628h-23.641v-8.113h252.408V409.728z"/>
	<path style="fill:#1D1D1B;" d="M323.101,118.033v62.928h133.853v-15.529h-15.878v-8.113h7.997V141.79h-94.566v15.529h7.996v8.113
		H338.63v-47.4H323.101z M409.553,157.319h15.993v8.113h-15.993V157.319z M378.031,157.319h15.993v8.113h-15.993V157.319z"/>
	<path style="fill:#1D1D1B;" d="M456.953,267.879h-94.682v-63.044h-31.522H315.22h-31.522v63.044h-7.997v15.529h181.252V267.879z
		 M315.22,267.879h-15.993v-47.516h15.993V267.879z M346.742,267.879h-15.993v-47.516h15.993V267.879z"/>
	<rect x="307.343" y="291.4" style="fill:#1D1D1B;" width="15.529" height="15.762"/>
	<rect x="362.501" y="291.4" style="fill:#1D1D1B;" width="15.529" height="15.762"/>
	<rect x="417.669" y="291.4" style="fill:#1D1D1B;" width="15.529" height="15.762"/>
	<path style="fill:#1D1D1B;" d="M480.478,94.507H275.701v15.529h189.249v268.17h-15.992v-55.164h-15.762v-7.997h-15.529v7.997
		h-15.762v55.164h-8.113v-55.164H378.03v-7.997h-15.529v7.997h-15.761v55.164h-8.113v-55.164h-15.762v-7.997h-15.529v7.997h-15.762
		v55.164h-15.878v15.529h204.777V94.507H480.478z M323.101,378.206h-15.993V338.57h15.993V378.206z M378.264,378.206h-15.992V338.57
		h15.992V378.206z M433.428,378.206h-15.993V338.57h15.993V378.206z"/>
	<path style="fill:#1D1D1B;" d="M23.642,377.973h220.422V110.268H23.642V377.973z M39.17,125.797h189.365v236.648H39.17V125.797z"/>
</g>
</svg>