<svg xmlns="http://www.w3.org/2000/svg" xml:space="preserve" width="800" height="800" viewBox="0 0 512 512" fill="#7367F0"><path d="M256 0C141.308 0 48 114.84 48 256s93.308 256 208 256 208-114.84 208-256S370.692 0 256 0m0 504C145.72 504 56 392.748 56 256S145.72 8 256 8s200 111.252 200 248-89.72 248-200 248"/><path d="M416.912 165.316a4 4 0 0 0 5.1 2.46 3.998 3.998 0 0 0 2.456-5.092 258.217 258.217 0 0 0-11.876-28.444 3.998 3.998 0 1 0-7.18 3.52 250.353 250.353 0 0 1 11.5 27.556M435.216 203.292a4.01 4.01 0 0 0-4.66-3.208 4 4 0 0 0-3.208 4.66C430.432 221.452 432 238.696 432 256c0 123.512-78.952 224-176 224S80 379.512 80 256 158.952 32 256 32c31.556 0 62.532 10.816 89.588 31.276a3.997 3.997 0 0 0 5.604-.776 3.998 3.998 0 0 0-.776-5.6C321.956 35.376 289.308 24 256 24 154.544 24 72 128.076 72 256s82.544 232 184 232 184-104.076 184-232c0-17.788-1.608-35.524-4.784-52.708"/><path d="M256 40c-92.636 0-168 96.896-168 216s75.364 216 168 216 168-96.896 168-216S348.636 40 256 40m0 424c-88.224 0-160-93.308-160-208S167.776 48 256 48s160 93.308 160 208-71.776 208-160 208"/><path d="m226.892 205.236-91.524-91.524a3.996 3.996 0 0 0-5.656 0 3.996 3.996 0 0 0 0 5.656l91.524 91.524a3.989 3.989 0 0 0 2.828 1.172c1.02 0 2.044-.392 2.828-1.172a3.996 3.996 0 0 0 0-5.656M286.9 265.244l-40.008-40.008a3.996 3.996 0 0 0-5.656 0 3.996 3.996 0 0 0 0 5.656l40.008 40.008a3.989 3.989 0 0 0 2.828 1.172c1.02 0 2.044-.392 2.828-1.172a3.996 3.996 0 0 0 0-5.656M377.156 399.312 206.82 228.968a3.996 3.996 0 0 0-5.656 0 3.996 3.996 0 0 0 0 5.656L371.5 404.968c.78.78 1.804 1.172 2.828 1.172s2.048-.388 2.828-1.172a3.996 3.996 0 0 0 0-5.656"/></svg>