<?xml version="1.0" encoding="iso-8859-1"?>
<!-- Uploaded to: SVG Repo, www.svgrepo.com, Generator: SVG Repo Mixer Tools -->
<svg fill="#000000" height="800px" width="800px" version="1.1" id="Layer_1" xmlns="http://www.w3.org/2000/svg" xmlns:xlink="http://www.w3.org/1999/xlink" 
	 viewBox="0 0 512 512" xml:space="preserve">
<g>
	<g>
		<path d="M256,0C141.308,0,48,114.84,48,256s93.308,256,208,256s208-114.84,208-256S370.692,0,256,0z M256,504
			C145.72,504,56,392.748,56,256S145.72,8,256,8s200,111.252,200,248S366.28,504,256,504z"/>
	</g>
</g>
<g>
	<g>
		<g>
			<path d="M416.912,165.316c0.576,1.652,2.124,2.684,3.776,2.684c0.436,0,0.884-0.072,1.324-0.224
				c2.084-0.728,3.184-3.008,2.456-5.092c-3.416-9.776-7.412-19.344-11.876-28.444c-0.972-1.984-3.368-2.808-5.352-1.832
				c-1.984,0.972-2.8,3.368-1.828,5.352C409.732,146.572,413.604,155.844,416.912,165.316z"/>
			<path d="M435.216,203.292c-0.404-2.176-2.5-3.604-4.66-3.208c-2.172,0.404-3.612,2.488-3.208,4.66
				C430.432,221.452,432,238.696,432,256c0,123.512-78.952,224-176,224S80,379.512,80,256S158.952,32,256,32
				c31.556,0,62.532,10.816,89.588,31.276c1.76,1.336,4.268,0.988,5.604-0.776c1.332-1.76,0.984-4.268-0.776-5.6
				C321.956,35.376,289.308,24,256,24C154.544,24,72,128.076,72,256s82.544,232,184,232s184-104.076,184-232
				C440,238.212,438.392,220.476,435.216,203.292z"/>
		</g>
	</g>
</g>
<g>
	<g>
		<path d="M256,40c-92.636,0-168,96.896-168,216s75.364,216,168,216s168-96.896,168-216S348.636,40,256,40z M256,464
			c-88.224,0-160-93.308-160-208S167.776,48,256,48s160,93.308,160,208S344.224,464,256,464z"/>
	</g>
</g>
<g>
	<g>
		<path d="M226.892,205.236l-91.524-91.524c-1.564-1.564-4.092-1.564-5.656,0c-1.564,1.564-1.564,4.092,0,5.656l91.524,91.524
			c0.78,0.78,1.804,1.172,2.828,1.172c1.02,0,2.044-0.392,2.828-1.172C228.456,209.328,228.456,206.8,226.892,205.236z"/>
	</g>
</g>
<g>
	<g>
		<path d="M286.9,265.244l-40.008-40.008c-1.564-1.564-4.092-1.564-5.656,0c-1.564,1.564-1.564,4.092,0,5.656l40.008,40.008
			c0.78,0.78,1.804,1.172,2.828,1.172c1.02,0,2.044-0.392,2.828-1.172C288.464,269.336,288.464,266.808,286.9,265.244z"/>
	</g>
</g>
<g>
	<g>
		<path d="M377.156,399.312L206.82,228.968c-1.564-1.564-4.092-1.564-5.656,0c-1.564,1.564-1.564,4.092,0,5.656L371.5,404.968
			c0.78,0.78,1.804,1.172,2.828,1.172s2.048-0.388,2.828-1.172C378.72,403.404,378.72,400.876,377.156,399.312z"/>
	</g>
</g>
</svg>