<?xml version="1.0" encoding="iso-8859-1"?>
<!-- Uploaded to: SVG Repo, www.svgrepo.com, Generator: SVG Repo Mixer Tools -->
<svg fill="#000000" height="800px" width="800px" version="1.1" id="Layer_1" xmlns="http://www.w3.org/2000/svg" xmlns:xlink="http://www.w3.org/1999/xlink" 
	 viewBox="0 0 344.444 344.444" xml:space="preserve">
<g>
	<g>
		<path d="M254.555,221.867l-43.444-9.656v-13.728c16.789-12.117,27.778-31.794,27.778-54.039v-14.983l8.961-13.444
			c8.678-13.011,13.261-28.156,13.261-43.794c0-19.678-14.694-35.989-33.683-38.544C224.877,14.694,208.566,0,188.888,0h-33.333
			c-39.822,0-72.222,32.4-72.222,72.222c0,15.639,4.583,30.783,13.261,43.794l8.961,13.444v14.983
			c0,22.244,10.989,41.922,27.778,54.039v13.728l-43.444,9.65c-33.3,7.406-56.556,36.389-56.556,70.506v52.078h277.778v-52.078
			C311.11,258.25,287.855,229.267,254.555,221.867z M105.561,109.395c-7.268-11.084-11.118-23.912-11.118-37.173
			c0-33.694,27.417-61.111,61.111-61.111h33.333c15.317,0,27.778,12.461,27.778,27.778v5.556h5.556
			c15.317,0,27.778,12.461,27.778,27.778c0,13.261-3.85,26.089-11.111,37.172v-14.95h-11.111v13.233L201.31,94.445h-17.244
			l11.111,16.667h-13.461c-22.389,0-44.789-5.094-65.044-14.656v-2.011h-11.111V109.395z M116.666,144.444v-35.75
			c20.461,8.861,42.761,13.528,65.044,13.528h34.228l-8.044-12.067l19.883,9.944v24.344c0,30.633-24.922,55.556-55.556,55.556
			C141.587,199.999,116.666,175.078,116.666,144.444z M199.999,204.972v13.489l-23.289,9.317h-8.972l-23.294-9.317v-13.494
			c8.466,3.905,17.855,6.144,27.777,6.144S191.532,208.872,199.999,204.972z M133.332,231.539c0-2.55,2.767-4.45,5.156-3.489
			l27.111,10.839h13.25l27.1-10.839c2.422-0.961,5.161,0.939,5.161,3.489v20.256c0,2.55-2.761,4.45-5.156,3.489l-27.111-10.839
			h-13.25l-27.1,10.839c-2.417,0.956-5.161-0.939-5.161-3.489V231.539z M192.871,262.022l-4.294,19.322
			c-2.694,12.139-8.311,23.333-16.356,32.717c-8.044-9.378-13.661-20.578-16.356-32.717l-4.294-19.322l16.161-6.467h8.972
			L192.871,262.022z M94.443,305.556h-5.556v27.778H44.443v-40.967c0-28.861,19.678-53.394,47.856-59.65l7.7-1.717v69
			C99.999,303.067,97.505,305.556,94.443,305.556z M244.443,333.334H99.999v-17.617c6.467-2.294,11.111-8.472,11.111-15.717v-71.467
			l12.267-2.728c-0.739,1.767-1.156,3.7-1.156,5.733v20.256c0,8.2,6.672,14.872,14.872,14.872c1.361,0,2.689-0.25,3.989-0.617
			l3.933,17.7c3.578,16.089,11.622,30.75,23.272,42.4l3.933,3.928l3.928-3.928c11.65-11.65,19.7-26.306,23.272-42.4l3.933-17.7
			c1.306,0.367,2.633,0.617,3.994,0.617c8.2,0,14.872-6.672,14.872-14.872v-20.256c0-2.033-0.417-3.967-1.156-5.733l12.267,2.728
			V300c0.002,7.244,4.647,13.422,11.113,15.717V333.334z M299.999,333.333h-44.444v-27.778h-5.556c-3.061,0-5.556-2.489-5.556-5.556
			v-69l7.7,1.711c28.178,6.262,47.856,30.796,47.856,59.657V333.333z"/>
	</g>
</g>
</svg>