<svg xmlns="http://www.w3.org/2000/svg" xml:space="preserve" width="800" height="800" viewBox="0 0 344.444 344.444"><path d="m254.555 221.867-43.444-9.656v-13.728c16.789-12.117 27.778-31.794 27.778-54.039v-14.983l8.961-13.444a78.675 78.675 0 0 0 13.261-43.794c0-19.678-14.694-35.989-33.683-38.544C224.877 14.694 208.566 0 188.888 0h-33.333c-39.822 0-72.222 32.4-72.222 72.222a78.672 78.672 0 0 0 13.261 43.794l8.961 13.444v14.983c0 22.244 10.989 41.922 27.778 54.039v13.728l-43.444 9.65c-33.3 7.406-56.556 36.389-56.556 70.506v52.078h277.778v-52.078c-.001-34.116-23.256-63.099-56.556-70.499M105.561 109.395c-7.268-11.084-11.118-23.912-11.118-37.173 0-33.694 27.417-61.111 61.111-61.111h33.333c15.317 0 27.778 12.461 27.778 27.778v5.556h5.556c15.317 0 27.778 12.461 27.778 27.778 0 13.261-3.85 26.089-11.111 37.172v-14.95h-11.111v13.233L201.31 94.445h-17.244l11.111 16.667h-13.461c-22.389 0-44.789-5.094-65.044-14.656v-2.011h-11.111v14.95zm11.105 35.049v-35.75c20.461 8.861 42.761 13.528 65.044 13.528h34.228l-8.044-12.067 19.883 9.944v24.344c0 30.633-24.922 55.556-55.556 55.556-30.634 0-55.555-24.921-55.555-55.555m83.333 60.528v13.489l-23.289 9.317h-8.972l-23.294-9.317v-13.494c8.466 3.905 17.855 6.144 27.777 6.144s19.311-2.239 27.778-6.139m-66.667 26.567c0-2.55 2.767-4.45 5.156-3.489l27.111 10.839h13.25l27.1-10.839c2.422-.961 5.161.939 5.161 3.489v20.256c0 2.55-2.761 4.45-5.156 3.489l-27.111-10.839h-13.25l-27.1 10.839c-2.417.956-5.161-.939-5.161-3.489zm59.539 30.483-4.294 19.322a75.233 75.233 0 0 1-16.356 32.717 75.222 75.222 0 0 1-16.356-32.717l-4.294-19.322 16.161-6.467h8.972zm-98.428 43.534h-5.556v27.778H44.443v-40.967c0-28.861 19.678-53.394 47.856-59.65l7.7-1.717v69a5.561 5.561 0 0 1-5.556 5.556m150 27.778H99.999v-17.617c6.467-2.294 11.111-8.472 11.111-15.717v-71.467l12.267-2.728a14.816 14.816 0 0 0-1.156 5.733v20.256c0 8.2 6.672 14.872 14.872 14.872 1.361 0 2.689-.25 3.989-.617l3.933 17.7a86.375 86.375 0 0 0 23.272 42.4l3.933 3.928 3.928-3.928a86.306 86.306 0 0 0 23.272-42.4l3.933-17.7c1.306.367 2.633.617 3.994.617 8.2 0 14.872-6.672 14.872-14.872v-20.256c0-2.033-.417-3.967-1.156-5.733l12.267 2.728V300c.002 7.244 4.647 13.422 11.113 15.717v17.617zm55.556-.001h-44.444v-27.778h-5.556a5.562 5.562 0 0 1-5.556-5.556v-69l7.7 1.711c28.178 6.262 47.856 30.796 47.856 59.657v40.966z"/></svg>