<svg xmlns="http://www.w3.org/2000/svg" xml:space="preserve" width="800" height="800" viewBox="0 0 51.322 51.322" fill="#7367F0"><path d="m44.89 44.917-5.097-13.586c-.836-2.229-1.672-4.461-2.51-6.69a.412.412 0 0 0-.492-.278c-1.906.35-3.828.621-5.752.854-3.188.384-6.511.754-9.714.364-.8-.096-2.079-.291-2.515-.965-.349-.539-.841-.74-1.36-.25-.557.524-.872 1.357-1.162 2.045-.499 1.183-.913 2.396-1.306 3.617-1.552 4.813-2.792 9.738-3.952 14.659l-.054.229c-.004.016 0 .027-.001.044-.049.153-.011.321.187.407 4.393 1.908 8.786 3.814 13.177 5.724.137.058.271.116.404.175.27.117.604-.016.604-.345v-5.527l.539-.04c.284 1.891.565 3.782.848 5.674.031.207.305.342.492.278l14.154-4.803 3.229-1.095c.195-.064.362-.278.281-.491m-14.647 4.526-2.802.949c-.276-1.855-.556-3.712-.832-5.568-.024-.164-.226-.307-.386-.295l-1.278.096c-.217.017-.4.171-.4.399v5.292l-12.577-5.462c-.047-.021-.093-.04-.14-.062 1.001-4.278 2.101-8.545 3.366-12.754a72.519 72.519 0 0 1 1.32-4.026c.333-.909.68-1.839 1.188-2.668.077-.126.179-.265.213-.306a.82.82 0 0 1 .136-.141c.005.01.006.014.014.026.489.844 1.506 1.146 2.407 1.325 1.433.283 2.923.291 4.378.258 1.707-.04 3.41-.186 5.105-.368 2.236-.241 4.469-.558 6.685-.946 1.655 4.416 3.312 8.831 4.969 13.246l2.378 6.34c-4.581 1.553-9.162 3.11-13.744 4.665" style="fill:#22211f"/><path d="M11.363 36.473H7.325c-.191-2.403-.123-4.851.077-7.247.194-2.324.573-4.636 1.204-6.883a23.528 23.528 0 0 1 1.241-3.418c.536-1.173 1.179-2.254 1.529-3.508.731-2.624.343-5.427-.541-7.96A24.408 24.408 0 0 0 9.619 4.63c-.159-.319-.324-.635-.485-.954-.041-.08-.079-.162-.117-.243.731-.759 1.468-1.515 2.189-2.283.742 2.142 1.749 4.26 3.067 6.085.91 1.26 2.089 2.511 3.638 2.931 1.367.37 2.74-.353 3.847-1.098 2.667-1.795 4.69-4.893 4.063-8.152l4.041.808a86.15 86.15 0 0 0-2.258 7.514c-.431 1.721-.835 3.499-.89 5.278-.068 2.301.896 4.574 2.021 6.533a16.84 16.84 0 0 0 1.362 2.047c.317.405.881-.165.565-.566l-.015-.02c-.06-.078-.116-.157-.174-.237a19.804 19.804 0 0 1-.625-.928 18.16 18.16 0 0 1-1.562-3.03c-.447-1.127-.766-2.336-.777-3.554-.008-.791.104-1.583.234-2.362.575-3.445 1.646-6.828 2.766-10.131.084-.248.168-.496.256-.742.068-.195-.076-.451-.279-.492L25.392.015c-.288-.058-.584.182-.492.492.607 2.049-.003 4.05-1.257 5.718-1.002 1.332-2.478 2.529-4.065 3.078-1.365.473-2.6-.289-3.56-1.233-1.224-1.205-2.097-2.759-2.845-4.289A25.928 25.928 0 0 1 11.749.295c-.087-.274-.456-.408-.669-.177-.834.909-1.708 1.783-2.561 2.673-.302.315-.415.528-.236.952.209.494.485.964.723 1.445.89 1.8 1.595 3.72 1.854 5.72.159 1.227.13 2.477-.112 3.69-.265 1.329-.888 2.457-1.47 3.662-1.81 3.743-2.502 7.981-2.758 12.099-.134 2.156-.169 4.355.031 6.512.02.218.167.399.4.399h4.413c.515.003.515-.797-.001-.797" style="fill:#22211f"/></svg>