<?xml version="1.0" encoding="iso-8859-1"?>
<!-- Uploaded to: SVG Repo, www.svgrepo.com, Generator: SVG Repo Mixer Tools -->
<svg height="800px" width="800px" version="1.1" id="Capa_1" xmlns="http://www.w3.org/2000/svg" xmlns:xlink="http://www.w3.org/1999/xlink" 
	 viewBox="0 0 51.322 51.322" xml:space="preserve">
<g>
	<g>
		<path style="fill:#22211F;" d="M44.89,44.917c-1.699-4.528-3.397-9.057-5.097-13.586c-0.836-2.229-1.672-4.461-2.51-6.69
			c-0.082-0.218-0.263-0.321-0.492-0.278c-1.906,0.35-3.828,0.621-5.752,0.854c-3.188,0.384-6.511,0.754-9.714,0.364
			c-0.8-0.096-2.079-0.291-2.515-0.965c-0.349-0.539-0.841-0.74-1.36-0.25c-0.557,0.524-0.872,1.357-1.162,2.045
			c-0.499,1.183-0.913,2.396-1.306,3.617c-1.552,4.813-2.792,9.738-3.952,14.659c-0.018,0.076-0.036,0.152-0.054,0.229
			c-0.004,0.016,0,0.027-0.001,0.044c-0.049,0.153-0.011,0.321,0.187,0.407c4.393,1.908,8.786,3.814,13.177,5.724
			c0.137,0.058,0.271,0.116,0.404,0.175c0.27,0.117,0.604-0.016,0.604-0.345c0-1.843,0-3.687,0-5.527
			c0.18-0.014,0.359-0.026,0.539-0.04c0.284,1.891,0.565,3.782,0.848,5.674c0.031,0.207,0.305,0.342,0.492,0.278
			c4.719-1.601,9.438-3.202,14.154-4.803c1.076-0.365,2.152-0.73,3.229-1.095C44.804,45.344,44.971,45.13,44.89,44.917z
			 M30.243,49.443c-0.934,0.316-1.867,0.633-2.802,0.949c-0.276-1.855-0.556-3.712-0.832-5.568
			c-0.024-0.164-0.226-0.307-0.386-0.295c-0.426,0.032-0.852,0.063-1.278,0.096c-0.217,0.017-0.4,0.171-0.4,0.399
			c0,1.765,0,3.528,0,5.292c-4.191-1.82-8.383-3.641-12.577-5.462c-0.047-0.021-0.093-0.04-0.14-0.062
			c1.001-4.278,2.101-8.545,3.366-12.754c0.407-1.354,0.835-2.699,1.32-4.026c0.333-0.909,0.68-1.839,1.188-2.668
			c0.077-0.126,0.179-0.265,0.213-0.306c0.078-0.092,0.106-0.119,0.136-0.141c0.005,0.01,0.006,0.014,0.014,0.026
			c0.489,0.844,1.506,1.146,2.407,1.325c1.433,0.283,2.923,0.291,4.378,0.258c1.707-0.04,3.41-0.186,5.105-0.368
			c2.236-0.241,4.469-0.558,6.685-0.946c1.655,4.416,3.312,8.831,4.969,13.246c0.793,2.113,1.585,4.227,2.378,6.34
			C39.406,46.331,34.825,47.888,30.243,49.443z"/>
		<path style="fill:#22211F;" d="M11.363,36.473c-1.346,0-2.692,0-4.038,0c-0.191-2.403-0.123-4.851,0.077-7.247
			c0.194-2.324,0.573-4.636,1.204-6.883c0.328-1.168,0.737-2.315,1.241-3.418c0.536-1.173,1.179-2.254,1.529-3.508
			c0.731-2.624,0.343-5.427-0.541-7.96c-0.338-0.969-0.759-1.909-1.216-2.827C9.46,4.311,9.295,3.995,9.134,3.676
			c-0.041-0.08-0.079-0.162-0.117-0.243c0.731-0.759,1.468-1.515,2.189-2.283c0.742,2.142,1.749,4.26,3.067,6.085
			c0.91,1.26,2.089,2.511,3.638,2.931c1.367,0.37,2.74-0.353,3.847-1.098c2.667-1.795,4.69-4.893,4.063-8.152
			c1.348,0.27,2.694,0.539,4.041,0.808c-0.86,2.469-1.627,4.979-2.258,7.514c-0.431,1.721-0.835,3.499-0.89,5.278
			c-0.068,2.301,0.896,4.574,2.021,6.533c0.407,0.709,0.855,1.404,1.362,2.047c0.317,0.405,0.881-0.165,0.565-0.566
			c0.037,0.048,0.041,0.054-0.015-0.02c-0.06-0.078-0.116-0.157-0.174-0.237c-0.218-0.303-0.425-0.614-0.625-0.928
			c-0.61-0.959-1.142-1.973-1.562-3.03c-0.447-1.127-0.766-2.336-0.777-3.554c-0.008-0.791,0.104-1.583,0.234-2.362
			c0.575-3.445,1.646-6.828,2.766-10.131c0.084-0.248,0.168-0.496,0.256-0.742c0.068-0.195-0.076-0.451-0.279-0.492
			c-1.697-0.34-3.396-0.679-5.094-1.019c-0.288-0.058-0.584,0.182-0.492,0.492c0.607,2.049-0.003,4.05-1.257,5.718
			c-1.002,1.332-2.478,2.529-4.065,3.078c-1.365,0.473-2.6-0.289-3.56-1.233c-1.224-1.205-2.097-2.759-2.845-4.289
			c-0.55-1.124-1.043-2.293-1.424-3.486c-0.087-0.274-0.456-0.408-0.669-0.177c-0.834,0.909-1.708,1.783-2.561,2.673
			C8.217,3.106,8.104,3.319,8.283,3.743c0.209,0.494,0.485,0.964,0.723,1.445c0.89,1.8,1.595,3.72,1.854,5.72
			c0.159,1.227,0.13,2.477-0.112,3.69c-0.265,1.329-0.888,2.457-1.47,3.662c-1.81,3.743-2.502,7.981-2.758,12.099
			c-0.134,2.156-0.169,4.355,0.031,6.512c0.02,0.218,0.167,0.399,0.4,0.399c1.471,0,2.942,0,4.413,0
			C11.879,37.273,11.879,36.473,11.363,36.473z"/>
	</g>
</g>
</svg>