<svg xmlns="http://www.w3.org/2000/svg" xml:space="preserve" width="800" height="800" viewBox="0 0 512 512"><path d="M202.125 116.739c-18.606 0-33.743 15.137-33.743 33.743a8.02 8.02 0 0 0 16.038 0c0-9.762 7.942-17.705 17.705-17.705 9.762 0 17.705 7.942 17.705 17.705a8.02 8.02 0 0 0 16.038 0c0-18.605-15.137-33.743-33.743-33.743M309.867 116.739c-18.606 0-33.744 15.137-33.744 33.743a8.018 8.018 0 0 0 8.019 8.019 8.019 8.019 0 0 0 8.019-8.019c0-9.762 7.942-17.705 17.706-17.705 9.762 0 17.705 7.942 17.705 17.705a8.018 8.018 0 0 0 8.019 8.019 8.019 8.019 0 0 0 8.019-8.019c.001-18.605-15.136-33.743-33.743-33.743M255.996 171.862c-18.606 0-33.743 15.137-33.743 33.743a8.02 8.02 0 0 0 16.038 0c0-9.762 7.942-17.705 17.705-17.705 9.762 0 17.705 7.942 17.705 17.705a8.018 8.018 0 0 0 8.019 8.019 8.019 8.019 0 0 0 8.019-8.019c0-18.606-15.136-33.743-33.743-33.743M133.97 171.862c-18.606 0-33.743 15.137-33.743 33.743a8.02 8.02 0 0 0 16.038 0c0-9.762 7.942-17.705 17.705-17.705 9.762 0 17.705 7.942 17.705 17.705a8.02 8.02 0 0 0 16.038 0c0-18.607-15.137-33.743-33.743-33.743M378.021 171.862c-18.606 0-33.744 15.137-33.744 33.743a8.018 8.018 0 0 0 8.019 8.019 8.019 8.019 0 0 0 8.019-8.019c0-9.762 7.942-17.705 17.706-17.705 9.762 0 17.705 7.942 17.705 17.705a8.02 8.02 0 0 0 16.038 0c0-18.606-15.136-33.743-33.743-33.743M297.039 392.298c-3.902-17.586-20.711-43.028-40.899-43.028h-.287v.001c-20.186 0-36.996 25.441-40.898 43.026-3.723 16.775 4.438 22.585 8.121 24.303 6.831 3.188 14.784 3.755 23.089 1.652a39.461 39.461 0 0 1 9.686-1.203h.29c3.274 0 6.533.404 9.685 1.203 3.285.832 6.535 1.253 9.662 1.253h.001c4.78 0 9.297-.977 13.427-2.905 3.682-1.718 11.845-7.526 8.123-24.302m-15.313 9.951c-1.903.82-3.949 1.219-6.238 1.219-1.801 0-3.726-.257-5.725-.762a55.546 55.546 0 0 0-13.623-1.694h-.29c-4.601 0-9.184.57-13.623 1.694-4.502 1.141-8.57.999-11.964-.457-.708-2.051-.035-9.842 5.93-20.053 5.901-10.1 13.801-16.886 19.658-16.886h.285c5.858-.001 13.759 6.785 19.66 16.886 5.966 10.212 6.638 18.003 5.93 20.053M252.284 306.656c-4.333-9.628-13.956-15.847-24.516-15.847-3.815 0-7.523.799-11.022 2.374-13.513 6.083-19.558 22.025-13.474 35.539 4.919 10.926 17.726 19.485 29.156 19.486h.001c3.162 0 6.149-.623 8.879-1.852 13.73-6.182 17.118-26.058 10.976-39.7m-17.558 25.072c-.646.291-1.419.438-2.295.438h-.001c-5.148 0-12.211-4.875-14.532-10.031a10.763 10.763 0 0 1-.251-8.29 10.76 10.76 0 0 1 5.683-6.039 10.739 10.739 0 0 1 4.437-.959c4.261 0 8.143 2.509 9.892 6.392 2.945 6.537 1.354 16.559-2.933 18.489M206.828 337.959a24.07 24.07 0 0 0-13.351-4.034 24.13 24.13 0 0 0-20.149 10.802c-7.369 11.101-4.335 26.129 6.767 33.499 5.161 3.427 12.478 5.472 19.569 5.472h.001c8.715 0 15.573-3.098 19.308-8.724 8.021-12.079-1.998-30.278-12.145-37.015m-1.214 28.144c-.4.602-2.367 1.557-5.947 1.557h-.001c-3.819 0-8.22-1.149-10.699-2.796-3.734-2.479-4.755-7.533-2.276-11.267a8.126 8.126 0 0 1 11.266-2.276c5.332 3.54 9.096 12.615 7.657 14.782M295.244 293.181a26.682 26.682 0 0 0-11.022-2.374c-10.56 0-20.183 6.22-24.518 15.847-2.801 6.223-3.641 14.199-2.244 21.337 1.716 8.776 6.411 15.298 13.219 18.362 2.731 1.229 5.718 1.852 8.88 1.852 11.43 0 24.238-8.558 29.157-19.486 6.085-13.512.042-29.455-13.472-35.538m-1.151 28.955c-2.321 5.156-9.383 10.031-14.532 10.031-.877 0-1.65-.148-2.295-.438-2.702-1.217-3.742-5.172-4.064-6.816-.771-3.941-.338-8.414 1.129-11.673a10.865 10.865 0 0 1 9.893-6.392c1.53 0 3.023.323 4.436.959a10.76 10.76 0 0 1 5.684 6.039 10.767 10.767 0 0 1-.251 8.29M338.661 344.726a24.128 24.128 0 0 0-20.148-10.8 24.072 24.072 0 0 0-13.352 4.034c-5.04 3.347-9.711 9.13-12.494 15.472-3.582 8.16-3.458 15.812.348 21.544 3.735 5.625 10.592 8.723 19.31 8.723 7.092 0 14.408-2.045 19.57-5.473 11.102-7.371 14.138-22.399 6.766-33.5m-15.638 20.138c-2.48 1.647-6.88 2.796-10.699 2.796-3.581 0-5.547-.955-5.948-1.556-.408-.616-.505-2.851.977-6.227 1.762-4.017 4.625-7.191 6.679-8.555a8.125 8.125 0 0 1 11.268 2.275c2.478 3.734 1.457 8.788-2.277 11.267"/><path d="M510.313 329.59c-7.328-41.82-34.433-97.207-48.059-123.224.367-.55.738-1.097 1.083-1.652 8.996-14.439 8.619-27.203 6.717-35.367-3.855-16.564-17.792-29.055-32.415-29.055a51.57 51.57 0 0 0-9.812.937c-7.464-19.731-26.564-33.319-48.245-33.319-3.046 0-6.059.264-9.023.787-6.683-21.017-26.441-35.961-49.154-35.961-8.308 0-16.308 1.941-23.542 5.669-9.589-13.392-24.961-21.418-41.866-21.418-16.907 0-32.278 8.025-41.866 21.418-7.233-3.727-15.234-5.669-23.542-5.669-22.713 0-42.473 14.944-49.154 35.961a51.853 51.853 0 0 0-9.022-.787c-21.681 0-40.781 13.588-48.245 33.319a51.662 51.662 0 0 0-9.813-.937c-14.624 0-28.56 12.491-32.415 29.054-1.901 8.165-2.279 20.929 6.718 35.369.345.554.715 1.1 1.081 1.649-7.714 14.732-20.157 39.674-30.686 66.193a8.02 8.02 0 0 0 7.452 10.98 8.023 8.023 0 0 0 7.456-5.062c9.038-22.765 19.55-44.389 27.086-59.073a89.152 89.152 0 0 0 2.888 2.548l.055.046a96.596 96.596 0 0 0 2.177 1.784l.155.121a107.032 107.032 0 0 0 5.363 3.978c.149.104.296.208.447.312l.136.092c.641.439 1.29.876 1.949 1.309.177.118.354.236.535.354.138.09.28.177.419.267.602.388 1.21.775 1.827 1.158.164.103.323.204.491.307.335.205.681.414 1.038.627.473.284.946.568 1.426.849.129.077.255.153.388.23.367.213.747.426 1.126.639.514.292 1.025.586 1.548.876l.298.167c.602.331 1.228.663 1.91 1.024.338.18.669.36 1.012.539l.177.094c.96.499 1.942.997 2.94 1.49l.181.092.021.011c.902.475 1.884.974 2.984 1.517 26.888 13.345 66.383 22.739 111.298 26.862l.007.001a484.413 484.413 0 0 0 32.167 2.396c22.469.907 45.221.233 67.626-2.002.891-.074 1.753-.156 2.631-.233a540.541 540.541 0 0 0 11.015-1.082 533.367 533.367 0 0 0 9.753-1.159 8.025 8.025 0 0 0 2.232-.631c.028-.013.058-.021.086-.034.15-.068.291-.149.434-.226.087-.047.177-.087.262-.137.164-.095.318-.202.474-.309.059-.041.121-.075.177-.117.156-.113.303-.236.45-.36.05-.043.105-.08.154-.124.128-.113.247-.236.367-.357.061-.061.127-.118.186-.181.107-.114.204-.238.305-.358.064-.077.133-.149.194-.228.115-.15.219-.307.324-.465.037-.057.08-.109.115-.167.12-.19.227-.387.33-.586.015-.029.033-.056.048-.086.224-.448.406-.918.544-1.406.004-.014.01-.026.013-.04a7.995 7.995 0 0 0 .223-3.179c-.025-.185-.063-.364-.099-.543-.017-.088-.028-.177-.048-.264-.004-.018-.011-.034-.015-.052a8.02 8.02 0 0 0-8.912-6.047 492.008 492.008 0 0 1-14.431 1.638c-1.941.191-3.91.374-5.908.55-15.748 1.383-31.993 2.098-48.543 2.098-16.448 0-32.526-.69-47.931-2.008-.859-.088-1.714-.164-2.573-.256l-.125-.013c-42.485-3.9-79.554-12.644-104.405-24.633l-.433-.205c-.379-.185-.751-.371-1.125-.556-.823-.412-1.646-.823-2.442-1.244l-.048-.025a2.52 2.52 0 0 0-.104-.052 4.466 4.466 0 0 0-.097-.05c-.088-.043-.171-.088-.259-.13a126.716 126.716 0 0 1-4.631-2.401c-.12-.064-.242-.128-.359-.192-25.184-13.783-37.79-31.566-33.905-48.258 2.394-10.285 10.581-16.651 16.795-16.651 4.293 0 8.496.761 12.494 2.264a8.02 8.02 0 0 0 10.692-5.969c3.248-16.617 17.914-28.678 34.872-28.678 4.212 0 8.331.728 12.241 2.163a8.018 8.018 0 0 0 10.714-6.482c2.314-17.59 17.457-30.854 35.222-30.854 7.789 0 15.185 2.475 21.388 7.158a8.018 8.018 0 0 0 12.043-2.891c6.008-12.346 18.262-20.015 31.978-20.015 13.716 0 25.97 7.67 31.977 20.015a8.02 8.02 0 0 0 12.044 2.89c6.202-4.682 13.598-7.158 21.387-7.158 17.766 0 32.907 13.265 35.222 30.854a8.024 8.024 0 0 0 3.799 5.815 8.024 8.024 0 0 0 6.915.667 35.421 35.421 0 0 1 12.241-2.163c16.958 0 31.625 12.061 34.872 28.678a8.018 8.018 0 0 0 10.691 5.969 35.406 35.406 0 0 1 12.495-2.264c6.213 0 14.401 6.366 16.795 16.652 4.148 17.814-10.49 36.872-39.154 50.983a7.455 7.455 0 0 0-.199.102c-4.771 2.516-10.131 4.914-15.994 7.179-.271.105-.537.212-.809.315-13.45 5.126-29.539 9.545-47.498 13.008a8.019 8.019 0 0 0-6.356 9.393c.792 4.112 4.601 6.871 8.684 6.455.282-.023.566-.061.85-.115 19.849-3.807 37.556-8.774 52.633-14.767a192.745 192.745 0 0 0 9.826-3.78c9.145-3.823 18.007-9.738 23.891-13.864l.107-.073c.019-.013.11-.076.128-.09l.171-.119c.11-.077.272-.192.468-.335a105.184 105.184 0 0 0 3.835-2.852c.13-.102.265-.204.392-.305 1.61-1.234 3.65-2.833 5.65-4.499 13.908 27.098 37.128 76.17 43.505 113.031.039.221.087.443.143.66.829 3.17 1.249 6.357 1.246 9.507-.006.165-.013.329-.015.494-.002.109-.001.218.002.326a4.91 4.91 0 0 1-.015.578 8.418 8.418 0 0 0-.025.354c-1.16 23.751-26.43 47.517-69.327 65.204-45.684 18.835-106.256 29.208-170.562 29.208-64.112 0-124.555-10.318-170.198-29.055-42.87-17.599-68.268-41.277-69.68-64.962a8.294 8.294 0 0 0-.057-.588 4.694 4.694 0 0 1-.032-.994c.015-.2.022-.4.022-.601 0-3.015.39-6.093 1.16-9.146a8.33 8.33 0 0 0 .129-.613c1.5-8.806 4.113-18.977 7.769-30.231a8.02 8.02 0 0 0-15.253-4.955C6.02 309.7 3.237 320.528 1.6 330.026a53.56 53.56 0 0 0-1.568 12.476 20.962 20.962 0 0 0 .111 3.686c1.971 30.413 30.219 58.309 79.582 78.572 47.53 19.512 110.137 30.256 176.289 30.256 66.354 0 129.098-10.803 176.674-30.418 49.513-20.414 77.639-48.495 79.226-79.09.055-.659.077-1.346.066-2.048.01-.228.017-.454.017-.683-.001-4.366-.567-8.802-1.684-13.187"/></svg>