<svg xmlns="http://www.w3.org/2000/svg" width="800" height="800" viewBox="0 0 32 32"><path d="M30 13.25h-5.572L18.705 2.644a.751.751 0 1 0-1.318.716l-.002-.004 5.338 9.894H9.308l5.395-9.891a.75.75 0 0 0-1.314-.723l-.002.004L7.6 13.249H2a.75.75 0 0 0 0 1.5h1.389l1.913 14.35a.75.75 0 0 0 .742.65h20.001a.752.752 0 0 0 .744-.646v-.004l1.913-14.35H30a.75.75 0 0 0 0-1.5zm-4.611 15H6.701l-1.8-13.5h22.287zm-9.345-11h-.004a.75.75 0 0 0-.75.746l-.035 7V25a.75.75 0 0 0 .746.75h.004a.75.75 0 0 0 .75-.746l.035-7V18a.75.75 0 0 0-.746-.75m-4.979 0h-.004a.75.75 0 0 0-.75.746l-.034 7V25a.75.75 0 0 0 .746.75h.004a.75.75 0 0 0 .75-.746l.034-7V18a.75.75 0 0 0-.746-.75m9.951 0h-.004a.75.75 0 0 0-.75.746l-.033 7V25a.75.75 0 0 0 .746.75h.004a.75.75 0 0 0 .75-.746l.033-7V18a.75.75 0 0 0-.746-.75"/></svg>