<svg xmlns="http://www.w3.org/2000/svg" xml:space="preserve" width="800" height="800" viewBox="0 0 60 60" fill="#7367F0"><path d="M59 24c-3.53 0-6.451-2.63-6.925-6.033A6.973 6.973 0 0 0 57 20a1 1 0 1 0 0-2c-2.757 0-5-2.243-5-5v-.026A4.948 4.948 0 0 0 55 14a1 1 0 1 0 0-2c-1.654 0-3-1.346-3-3a1 1 0 1 0-2 0c0 1.654-1.346 3-3 3a1 1 0 1 0 0 2c1.13 0 2.162-.391 3-1.026V13c0 2.757-2.243 5-5 5a1 1 0 1 0 0 2 6.973 6.973 0 0 0 4.925-2.033C49.451 21.37 46.53 24 43 24a1 1 0 1 0 0 2 8.985 8.985 0 0 0 7-3.355V27a1 1 0 1 0 2 0v-4.355A8.985 8.985 0 0 0 59 26a1 1 0 1 0 0-2M8 22.645V27a1 1 0 1 0 2 0v-4.355A8.985 8.985 0 0 0 17 26a1 1 0 1 0 0-2c-3.53 0-6.451-2.63-6.925-6.033A6.973 6.973 0 0 0 15 20a1 1 0 1 0 0-2c-2.757 0-5-2.243-5-5v-.026A4.948 4.948 0 0 0 13 14a1 1 0 1 0 0-2c-1.654 0-3-1.346-3-3a1 1 0 1 0-2 0c0 1.654-1.346 3-3 3a1 1 0 1 0 0 2c1.13 0 2.162-.391 3-1.026V13c0 2.757-2.243 5-5 5a1 1 0 1 0 0 2 6.973 6.973 0 0 0 4.925-2.033C7.451 21.37 4.53 24 1 24a1 1 0 1 0 0 2 8.985 8.985 0 0 0 7-3.355M22 21a8.985 8.985 0 0 0 7-3.355V22a1 1 0 1 0 2 0v-4.355A8.985 8.985 0 0 0 38 21a1 1 0 1 0 0-2c-3.53 0-6.451-2.63-6.925-6.033A6.973 6.973 0 0 0 36 15a1 1 0 1 0 0-2c-2.757 0-5-2.243-5-5v-.026A4.948 4.948 0 0 0 34 9a1 1 0 1 0 0-2c-1.654 0-3-1.346-3-3a1 1 0 1 0-2 0c0 1.654-1.346 3-3 3a1 1 0 1 0 0 2c1.13 0 2.162-.391 3-1.026V8c0 2.757-2.243 5-5 5a1 1 0 1 0 0 2 6.973 6.973 0 0 0 4.925-2.033C28.451 16.37 25.53 19 22 19a1 1 0 1 0 0 2M55.674 43h-8.762l-5.09-8h5.852A2.33 2.33 0 0 0 50 32.674v-2.348A2.33 2.33 0 0 0 47.674 28H13.326A2.33 2.33 0 0 0 11 30.326v2.348A2.33 2.33 0 0 0 13.326 35h5.852l-5.09 8H4.326A2.33 2.33 0 0 0 2 45.326v2.348A2.33 2.33 0 0 0 4.326 50h5.306l-2.725 4.283A1.768 1.768 0 0 0 8.398 57h4.18c.606 0 1.164-.306 1.492-.818L18.003 50h24.994l3.934 6.183c.327.511.884.817 1.491.817h4.18a1.769 1.769 0 0 0 1.491-2.718L51.368 50h4.306A2.33 2.33 0 0 0 58 47.674v-2.348A2.33 2.33 0 0 0 55.674 43m-11.132 0h-3.63l-5.091-8h3.63zm-6 0H22.458l5.09-8h5.903zm-16.993-8h3.63l-5.091 8h-3.63zm-9.098 20h-3.63l3.182-5h3.63zm39.728 0h-3.63l-3.182-5h3.63z"/></svg>