<?xml version="1.0" encoding="iso-8859-1"?>
<!-- Uploaded to: SVG Repo, www.svgrepo.com, Generator: SVG Repo Mixer Tools -->
<!DOCTYPE svg PUBLIC "-//W3C//DTD SVG 1.1//EN" "http://www.w3.org/Graphics/SVG/1.1/DTD/svg11.dtd">
<svg fill="#000000" height="800px" width="800px" version="1.1" id="Capa_1" xmlns="http://www.w3.org/2000/svg" xmlns:xlink="http://www.w3.org/1999/xlink" 
	 viewBox="0 0 440.601 440.601" xml:space="preserve">
<g>
	<path d="M264.122,205.314c0-22.038,3.961-41.392,9.634-47.064c0.878-0.879,1.317-2.03,1.317-3.182c0-1.152-0.44-2.304-1.318-3.183
		c-1.758-1.756-4.606-1.757-6.364,0.001c-5.672,5.673-25.024,9.635-47.061,9.635s-41.39-3.962-47.06-9.635
		c-1.757-1.757-4.605-1.758-6.364-0.001c-0.879,0.879-1.318,2.03-1.318,3.182c0,1.152,0.438,2.304,1.317,3.183
		c12.753,12.757,12.753,81.371,0.001,94.125c-0.879,0.879-1.318,2.03-1.318,3.182c0,1.151,0.439,2.304,1.318,3.182
		c1.758,1.758,4.607,1.758,6.363,0c5.671-5.671,25.022-9.632,47.061-9.632s41.391,3.961,47.063,9.633
		c0.879,0.878,2.03,1.317,3.182,1.317c0.007,0,0.015,0,0.02,0c2.485,0,4.5-2.015,4.5-4.5c0-1.35-0.594-2.561-1.535-3.386
		C267.991,246.254,264.122,227.096,264.122,205.314z M260.137,245.121c-11.391-3.596-26.608-5.015-39.808-5.015
		c-13.208,0-28.436,1.42-39.828,5.021c6.831-21.431,6.831-58.195,0-79.628c11.393,3.602,26.62,5.023,39.828,5.023
		c13.199,0,28.417-1.419,39.808-5.016c-3.596,11.391-5.015,26.609-5.015,39.809S256.54,233.73,260.137,245.121z"/>
	<path d="M416.815,270.572c-1.69-6.859-6.283-23.901-12.338-33.531c-6.367-10.13-5.551-30.309-5.542-30.511
		c0.003-0.069-0.012-0.134-0.012-0.203c0-0.067,0.015-0.133,0.012-0.201c-0.009-0.202-0.825-20.381,5.542-30.511
		c2.796-4.447,5.279-10.477,7.31-16.354c1.145,3.221,2.682,6.555,4.748,9.813c0.612,0.966,1.568,1.662,2.676,1.947
		c0.328,0.085,1.538,0.361,3.313,0.361c3.599,0,12.526-1.288,17.705-13.214c0.516-1.188,0.494-2.542-0.059-3.714
		c-0.362-0.767-9.014-18.672-26.188-20.731c-2.261-0.538-15.408-3.12-33.628,4.401c-3.75-0.412-16.059-1.469-43.871-1.524
		c-4.761-6.373-13.123-14.631-25.139-16.054c-2.438-0.588-17.613-3.651-38.764,5.125c-4.085-0.491-18.057-1.779-52.253-1.779
		c-34.195,0-48.166,1.288-52.251,1.779c-21.147-8.774-36.324-5.713-38.765-5.125c-12.017,1.422-20.378,9.68-25.14,16.054
		c-27.852,0.055-40.176,1.112-43.927,1.524c-18.222-7.521-31.368-4.939-33.629-4.401c-17.174,2.06-25.825,19.965-26.188,20.731
		c-0.553,1.172-0.574,2.525-0.059,3.714c5.179,11.926,14.106,13.214,17.705,13.214c1.774,0,2.984-0.276,3.313-0.361
		c1.107-0.285,2.063-0.981,2.676-1.947c2.066-3.258,3.604-6.592,4.748-9.813c2.031,5.877,4.515,11.906,7.31,16.354
		c6.348,10.099,5.557,30.183,5.543,30.509c-0.003,0.069,0.011,0.136,0.011,0.205c0,0.068-0.014,0.133-0.011,0.201
		c0.009,0.202,0.824,20.381-5.543,30.511c-6.055,9.63-10.647,26.672-12.338,33.531C8.49,274.105,0.772,290.093,0.431,290.816
		c-0.553,1.172-0.574,2.525-0.059,3.714c5.178,11.928,14.107,13.216,17.706,13.216c1.773,0,2.983-0.276,3.312-0.361
		c1.106-0.285,2.063-0.982,2.677-1.947c6.03-9.51,7.575-19.669,7.905-25.762c1.011,0.07,2.139,0.116,3.386,0.116
		c6.002,0,14.635-1.032,24.867-5.251c3.759,0.441,15.924,1.518,44.939,1.518c7.466,0,15.823-0.068,22.174-0.175
		c-0.336,1.292-0.618,2.424-0.849,3.368c-17.693,3.816-26.647,22.352-27.041,23.184c-0.553,1.172-0.574,2.525-0.059,3.714
		c5.839,13.447,15.85,14.899,19.883,14.899c2.024,0,3.407-0.33,3.664-0.396c1.107-0.286,2.063-0.982,2.676-1.947
		c7.171-11.305,8.809-23.402,9.101-30.275c1.334,0.111,2.874,0.19,4.618,0.19c6.911,0,16.892-1.198,28.747-6.117
		c4.085,0.491,18.056,1.779,52.251,1.779c34.196,0,48.168-1.288,52.253-1.779c11.856,4.919,21.834,6.117,28.745,6.117
		c1.744,0,3.284-0.078,4.619-0.19c0.291,6.873,1.93,18.971,9.1,30.275c0.612,0.966,1.568,1.661,2.676,1.947
		c0.257,0.066,1.64,0.396,3.665,0.396c4.033,0,14.045-1.452,19.883-14.899c0.516-1.188,0.494-2.542-0.059-3.714
		c-0.394-0.832-9.35-19.367-27.042-23.184c-0.23-0.944-0.513-2.076-0.849-3.367c6.344,0.105,14.674,0.174,22.117,0.174
		c29.015,0,41.181-1.077,44.94-1.518c10.233,4.219,18.865,5.252,24.866,5.251c1.247,0,2.375-0.046,3.386-0.116
		c0.33,6.092,1.875,16.252,7.905,25.762c0.613,0.966,1.57,1.662,2.678,1.947c0.328,0.085,1.538,0.361,3.311,0.361h0.001
		c3.599,0,12.527-1.288,17.705-13.216c0.516-1.189,0.494-2.542-0.059-3.714C439.829,290.093,432.111,274.105,416.815,270.572z
		 M431.033,156.496c-2.508,4.497-5.606,5.73-8.016,5.872c-3.735-6.738-4.951-13.776-5.316-18.441
		C424.558,146.791,429.132,153.32,431.033,156.496z M332.091,146.248c-3.254,6.093-7.436,7.52-10.547,7.565
		c-4.889-8.615-6.229-17.696-6.552-23.221C324.01,133.838,329.884,142.481,332.091,146.248z M125.667,130.586
		c-0.323,5.525-1.662,14.61-6.552,23.227c-3.112-0.046-7.297-1.474-10.552-7.573C110.758,142.466,116.6,133.824,125.667,130.586z
		 M17.584,162.368c-2.409-0.142-5.508-1.376-8.016-5.871c1.905-3.183,6.477-9.707,13.332-12.57
		C22.534,148.594,21.319,155.631,17.584,162.368z M17.585,298.731c-2.409-0.142-5.509-1.375-8.017-5.873
		c1.907-3.185,6.485-9.718,13.349-12.577C22.561,284.931,21.351,291.951,17.585,298.731z M105.164,267.059
		c-34.585,0-44.738-1.564-44.823-1.577c-0.85-0.143-1.726-0.036-2.521,0.306c-10.982,4.732-19.829,5.203-24.785,4.933
		c1.884-7.299,5.878-21.206,10.708-28.89c7.575-12.05,7.014-33.098,6.923-35.502c0.091-2.404,0.652-23.452-6.923-35.502
		c-4.823-7.673-8.82-21.587-10.706-28.89c4.965-0.278,13.809,0.201,24.783,4.933c0.762,0.329,1.609,0.436,2.431,0.32
		c0.103-0.016,9.838-1.365,38.819-1.566c-0.086,0.773,0.003,1.563,0.319,2.292c5.839,13.447,15.85,14.899,19.883,14.899
		c2.024,0,3.407-0.33,3.664-0.396c1.107-0.286,2.063-0.982,2.676-1.947c2.801-4.417,4.752-8.953,6.114-13.254
		c1.973,5.93,4.364,12.137,7.058,17.267c-20.168,7.413-64.773,5.387-73.735-3.579c-1.758-1.758-4.606-1.757-6.364-0.001
		c-1.758,1.758-1.758,4.607-0.001,6.364c4.78,4.781,8.119,21.278,8.119,40.118c0,18.84-3.339,35.336-8.118,40.116h-0.001
		c-1.757,1.757-1.757,4.606,0.001,6.363c0.879,0.879,2.03,1.318,3.182,1.318c1.151,0,2.304-0.439,3.182-1.318
		c8.37-8.369,49.499-10.849,71.03-4.469c-2.443,5.664-4.549,11.916-6.208,17.438C123.412,266.967,113.559,267.059,105.164,267.059z
		 M145.115,228.961c-2.341-14.549-2.07-33.303,0.66-46.801c2.028,10.67,1.602,21.484,1.592,21.722
		c-0.003,0.069,0.012,0.136,0.012,0.204c0,0.068-0.015,0.135-0.012,0.204C147.575,208.86,147.352,219.531,145.115,228.961z
		 M71.724,173.995c18.501,5.545,48.689,5.388,66.781,0.054c-5.109,17.493-5.365,47.1-0.337,65.51
		c0.122,0.449,0.317,0.857,0.555,1.23c-16.901-4.986-47.968-5.691-66.994-0.033C77.157,222.381,77.154,192.364,71.724,173.995z
		 M119.115,312.048c-3.112-0.046-7.297-1.474-10.552-7.573c2.194-3.774,8.037-12.416,17.104-15.654
		C125.344,294.347,124.006,303.431,119.115,312.048z M274.983,273.746c-0.786-0.338-1.67-0.446-2.509-0.308
		c-0.114,0.018-11.897,1.843-52.146,1.843c-40.247,0-52.029-1.824-52.131-1.841c-0.854-0.143-1.729-0.036-2.521,0.306
		c-13.528,5.832-24.307,6.152-29.96,5.725c2.098-8.242,6.89-25.284,12.729-34.572c8.704-13.846,8.022-38.177,7.921-40.813
		c0.102-2.636,0.783-26.967-7.921-40.814c-5.838-9.287-10.63-26.327-12.729-34.57c5.665-0.424,16.438-0.104,29.96,5.726
		c0.786,0.337,1.667,0.444,2.509,0.308c0.114-0.019,11.896-1.843,52.144-1.843c40.248,0,52.031,1.824,52.133,1.841
		c0.854,0.143,1.729,0.036,2.522-0.307c13.528-5.831,24.303-6.15,29.96-5.726c-2.097,8.239-6.884,25.272-12.728,34.571
		c-8.705,13.847-8.023,38.178-7.922,40.814c-0.102,2.636-0.783,26.967,7.922,40.813c5.845,9.299,10.64,26.369,12.734,34.6
		C299.339,279.941,288.639,279.633,274.983,273.746z M368.871,240.755c-19.027-5.656-50.096-4.952-66.994,0.034
		c0.238-0.373,0.434-0.781,0.556-1.23c5.028-18.41,4.773-48.018-0.338-65.511c18.093,5.333,48.28,5.491,66.783-0.054
		C363.447,192.363,363.444,222.38,368.871,240.755z M293.281,204.085c0-0.068,0.014-0.133,0.011-0.201
		c-0.007-0.159-0.439-10.917,1.565-21.578c2.697,13.466,2.961,32.1,0.641,46.586c-2.723-11.509-2.217-24.344-2.206-24.602
		C293.295,204.221,293.281,204.154,293.281,204.085z M332.091,304.482c-3.254,6.094-7.436,7.52-10.548,7.565
		c-4.889-8.615-6.228-17.696-6.551-23.221C324.01,292.072,329.884,300.716,332.091,304.482z M382.782,265.787
		c-0.785-0.337-1.664-0.443-2.507-0.309c-0.099,0.017-10.252,1.58-44.838,1.58c-8.37,0-18.189-0.092-24.648-0.223
		c-1.661-5.528-3.768-11.786-6.214-17.455c21.546-6.359,62.614-3.879,70.978,4.484c0.879,0.879,2.03,1.318,3.182,1.318
		c1.151,0,2.304-0.439,3.182-1.318c1.758-1.757,1.758-4.606,0.001-6.363c0,0,0,0-0.001,0c-4.779-4.78-8.118-21.276-8.118-40.116
		c0-18.84,3.339-35.337,8.119-40.118c1.757-1.758,1.757-4.606-0.001-6.364c-1.758-1.756-4.606-1.757-6.364,0.001
		c-8.956,8.958-53.495,10.992-73.688,3.598c2.697-5.133,5.092-11.348,7.066-17.283c1.362,4.3,3.313,8.836,6.113,13.252
		c0.612,0.965,1.569,1.661,2.677,1.947c0.257,0.066,1.64,0.396,3.665,0.396c4.033,0,14.045-1.452,19.883-14.899
		c0.316-0.73,0.406-1.518,0.319-2.291c28.936,0.202,38.66,1.55,38.755,1.564c0.83,0.123,1.672,0.012,2.438-0.319
		c10.982-4.734,19.829-5.206,24.783-4.935c-1.886,7.303-5.884,21.218-10.707,28.892c-7.575,12.05-7.013,33.098-6.921,35.502
		c-0.092,2.404-0.654,23.452,6.921,35.502c4.83,7.684,8.832,21.627,10.715,28.921C402.659,271.036,393.883,270.571,382.782,265.787z
		 M423.017,298.731c-3.735-6.739-4.951-13.778-5.316-18.443c6.857,2.864,11.431,9.394,13.333,12.57
		C428.525,297.355,425.427,298.59,423.017,298.731z"/>
</g>
</svg>