<svg xmlns="http://www.w3.org/2000/svg" xml:space="preserve" width="800" height="800" viewBox="0 0 440.601 440.601"><path d="M264.122 205.314c0-22.038 3.961-41.392 9.634-47.064a4.488 4.488 0 0 0 1.317-3.182 4.5 4.5 0 0 0-7.682-3.182c-5.672 5.673-25.024 9.635-47.061 9.635s-41.39-3.962-47.06-9.635a4.5 4.5 0 0 0-6.365 6.364c12.753 12.757 12.753 81.371.001 94.125a4.485 4.485 0 0 0-1.318 3.182 4.498 4.498 0 0 0 7.681 3.182c5.671-5.671 25.022-9.632 47.061-9.632s41.391 3.961 47.063 9.633a4.488 4.488 0 0 0 3.182 1.317h.02a4.5 4.5 0 0 0 2.965-7.886c-5.569-5.917-9.438-25.075-9.438-46.857m-3.985 39.807c-11.391-3.596-26.608-5.015-39.808-5.015-13.208 0-28.436 1.42-39.828 5.021 6.831-21.431 6.831-58.195 0-79.628 11.393 3.602 26.62 5.023 39.828 5.023 13.199 0 28.417-1.419 39.808-5.016-3.596 11.391-5.015 26.609-5.015 39.809s1.418 28.415 5.015 39.806"/><path d="M416.815 270.572c-1.69-6.859-6.283-23.901-12.338-33.531-6.367-10.13-5.551-30.309-5.542-30.511.003-.069-.012-.134-.012-.203 0-.067.015-.133.012-.201-.009-.202-.825-20.381 5.542-30.511 2.796-4.447 5.279-10.477 7.31-16.354 1.145 3.221 2.682 6.555 4.748 9.813a4.491 4.491 0 0 0 2.676 1.947c.328.085 1.538.361 3.313.361 3.599 0 12.526-1.288 17.705-13.214a4.502 4.502 0 0 0-.059-3.714c-.362-.767-9.014-18.672-26.188-20.731-2.261-.538-15.408-3.12-33.628 4.401-3.75-.412-16.059-1.469-43.871-1.524-4.761-6.373-13.123-14.631-25.139-16.054-2.438-.588-17.613-3.651-38.764 5.125-4.085-.491-18.057-1.779-52.253-1.779-34.195 0-48.166 1.288-52.251 1.779-21.147-8.774-36.324-5.713-38.765-5.125-12.017 1.422-20.378 9.68-25.14 16.054-27.852.055-40.176 1.112-43.927 1.524-18.222-7.521-31.368-4.939-33.629-4.401C9.441 135.783.79 153.688.427 154.454a4.506 4.506 0 0 0-.059 3.714c5.179 11.926 14.106 13.214 17.705 13.214 1.774 0 2.984-.276 3.313-.361a4.497 4.497 0 0 0 2.676-1.947c2.066-3.258 3.604-6.592 4.748-9.813 2.031 5.877 4.515 11.906 7.31 16.354 6.348 10.099 5.557 30.183 5.543 30.509-.003.069.011.136.011.205 0 .068-.014.133-.011.201.009.202.824 20.381-5.543 30.511-6.055 9.63-10.647 26.672-12.338 33.531C8.49 274.105.772 290.093.431 290.816a4.506 4.506 0 0 0-.059 3.714c5.178 11.928 14.107 13.216 17.706 13.216 1.773 0 2.983-.276 3.312-.361a4.509 4.509 0 0 0 2.677-1.947c6.03-9.51 7.575-19.669 7.905-25.762 1.011.07 2.139.116 3.386.116 6.002 0 14.635-1.032 24.867-5.251 3.759.441 15.924 1.518 44.939 1.518 7.466 0 15.823-.068 22.174-.175a238.573 238.573 0 0 0-.849 3.368c-17.693 3.816-26.647 22.352-27.041 23.184a4.506 4.506 0 0 0-.059 3.714c5.839 13.447 15.85 14.899 19.883 14.899 2.024 0 3.407-.33 3.664-.396a4.505 4.505 0 0 0 2.676-1.947c7.171-11.305 8.809-23.402 9.101-30.275 1.334.111 2.874.19 4.618.19 6.911 0 16.892-1.198 28.747-6.117 4.085.491 18.056 1.779 52.251 1.779 34.196 0 48.168-1.288 52.253-1.779 11.856 4.919 21.834 6.117 28.745 6.117 1.744 0 3.284-.078 4.619-.19.291 6.873 1.93 18.971 9.1 30.275a4.495 4.495 0 0 0 2.676 1.947c.257.066 1.64.396 3.665.396 4.033 0 14.045-1.452 19.883-14.899a4.502 4.502 0 0 0-.059-3.714c-.394-.832-9.35-19.367-27.042-23.184-.23-.944-.513-2.076-.849-3.367 6.344.105 14.674.174 22.117.174 29.015 0 41.181-1.077 44.94-1.518 10.233 4.219 18.865 5.252 24.866 5.251 1.247 0 2.375-.046 3.386-.116.33 6.092 1.875 16.252 7.905 25.762a4.498 4.498 0 0 0 2.678 1.947c.328.085 1.538.361 3.311.361h.001c3.599 0 12.527-1.288 17.705-13.216a4.502 4.502 0 0 0-.059-3.714c-.341-.723-8.059-16.711-23.355-20.244m14.218-114.076c-2.508 4.497-5.606 5.73-8.016 5.872-3.735-6.738-4.951-13.776-5.316-18.441 6.857 2.864 11.431 9.393 13.332 12.569m-98.942-10.248c-3.254 6.093-7.436 7.52-10.547 7.565-4.889-8.615-6.229-17.696-6.552-23.221 9.018 3.246 14.892 11.889 17.099 15.656m-206.424-15.662c-.323 5.525-1.662 14.61-6.552 23.227-3.112-.046-7.297-1.474-10.552-7.573 2.195-3.774 8.037-12.416 17.104-15.654M17.584 162.368c-2.409-.142-5.508-1.376-8.016-5.871 1.905-3.183 6.477-9.707 13.332-12.57-.366 4.667-1.581 11.704-5.316 18.441zm.001 136.363c-2.409-.142-5.509-1.375-8.017-5.873 1.907-3.185 6.485-9.718 13.349-12.577-.356 4.65-1.566 11.67-5.332 18.45m87.579-31.672c-34.585 0-44.738-1.564-44.823-1.577a4.496 4.496 0 0 0-2.521.306c-10.982 4.732-19.829 5.203-24.785 4.933 1.884-7.299 5.878-21.206 10.708-28.89 7.575-12.05 7.014-33.098 6.923-35.502.091-2.404.652-23.452-6.923-35.502-4.823-7.673-8.82-21.587-10.706-28.89 4.965-.278 13.809.201 24.783 4.933a4.547 4.547 0 0 0 2.431.32c.103-.016 9.838-1.365 38.819-1.566-.086.773.003 1.563.319 2.292 5.839 13.447 15.85 14.899 19.883 14.899 2.024 0 3.407-.33 3.664-.396a4.505 4.505 0 0 0 2.676-1.947c2.801-4.417 4.752-8.953 6.114-13.254 1.973 5.93 4.364 12.137 7.058 17.267-20.168 7.413-64.773 5.387-73.735-3.579a4.5 4.5 0 0 0-6.365 6.363c4.78 4.781 8.119 21.278 8.119 40.118 0 18.84-3.339 35.336-8.118 40.116h-.001a4.499 4.499 0 0 0 3.183 7.681 4.485 4.485 0 0 0 3.182-1.318c8.37-8.369 49.499-10.849 71.03-4.469-2.443 5.664-4.549 11.916-6.208 17.438-6.459.132-16.312.224-24.707.224zm39.951-38.098c-2.341-14.549-2.07-33.303.66-46.801 2.028 10.67 1.602 21.484 1.592 21.722-.003.069.012.136.012.204 0 .068-.015.135-.012.204.208 4.57-.015 15.241-2.252 24.671m-73.391-54.966c18.501 5.545 48.689 5.388 66.781.054-5.109 17.493-5.365 47.1-.337 65.51.122.449.317.857.555 1.23-16.901-4.986-47.968-5.691-66.994-.033 5.428-18.375 5.425-48.392-.005-66.761m47.391 138.053c-3.112-.046-7.297-1.474-10.552-7.573 2.194-3.774 8.037-12.416 17.104-15.654-.323 5.526-1.661 14.61-6.552 23.227m155.868-38.302a4.537 4.537 0 0 0-2.509-.308c-.114.018-11.897 1.843-52.146 1.843-40.247 0-52.029-1.824-52.131-1.841a4.488 4.488 0 0 0-2.521.306c-13.528 5.832-24.307 6.152-29.96 5.725 2.098-8.242 6.89-25.284 12.729-34.572 8.704-13.846 8.022-38.177 7.921-40.813.102-2.636.783-26.967-7.921-40.814-5.838-9.287-10.63-26.327-12.729-34.57 5.665-.424 16.438-.104 29.96 5.726a4.561 4.561 0 0 0 2.509.308c.114-.019 11.896-1.843 52.144-1.843s52.031 1.824 52.133 1.841a4.485 4.485 0 0 0 2.522-.307c13.528-5.831 24.303-6.15 29.96-5.726-2.097 8.239-6.884 25.272-12.728 34.571-8.705 13.847-8.023 38.178-7.922 40.814-.102 2.636-.783 26.967 7.922 40.813 5.845 9.299 10.64 26.369 12.734 34.6-5.611.442-16.311.134-29.967-5.753m93.888-32.991c-19.027-5.656-50.096-4.952-66.994.034.238-.373.434-.781.556-1.23 5.028-18.41 4.773-48.018-.338-65.511 18.093 5.333 48.28 5.491 66.783-.054-5.431 18.369-5.434 48.386-.007 66.761m-75.59-36.67c0-.068.014-.133.011-.201-.007-.159-.439-10.917 1.565-21.578 2.697 13.466 2.961 32.1.641 46.586-2.723-11.509-2.217-24.344-2.206-24.602.003-.069-.011-.136-.011-.205m38.81 100.397c-3.254 6.094-7.436 7.52-10.548 7.565-4.889-8.615-6.228-17.696-6.551-23.221 9.018 3.246 14.892 11.89 17.099 15.656m50.691-38.695a4.57 4.57 0 0 0-2.507-.309c-.099.017-10.252 1.58-44.838 1.58-8.37 0-18.189-.092-24.648-.223-1.661-5.528-3.768-11.786-6.214-17.455 21.546-6.359 62.614-3.879 70.978 4.484a4.485 4.485 0 0 0 3.182 1.318 4.499 4.499 0 0 0 3.183-7.681h-.001c-4.779-4.78-8.118-21.276-8.118-40.116s3.339-35.337 8.119-40.118a4.5 4.5 0 1 0-6.365-6.363c-8.956 8.958-53.495 10.992-73.688 3.598 2.697-5.133 5.092-11.348 7.066-17.283 1.362 4.3 3.313 8.836 6.113 13.252a4.501 4.501 0 0 0 2.677 1.947c.257.066 1.64.396 3.665.396 4.033 0 14.045-1.452 19.883-14.899.316-.73.406-1.518.319-2.291 28.936.202 38.66 1.55 38.755 1.564.83.123 1.672.012 2.438-.319 10.982-4.734 19.829-5.206 24.783-4.935-1.886 7.303-5.884 21.218-10.707 28.892-7.575 12.05-7.013 33.098-6.921 35.502-.092 2.404-.654 23.452 6.921 35.502 4.83 7.684 8.832 21.627 10.715 28.921-4.913.285-13.689-.18-24.79-4.964m40.235 32.944c-3.735-6.739-4.951-13.778-5.316-18.443 6.857 2.864 11.431 9.394 13.333 12.57-2.509 4.497-5.607 5.732-8.017 5.873"/></svg>