<svg xmlns="http://www.w3.org/2000/svg" xml:space="preserve" width="800" height="800" viewBox="0 0 512 512"><path d="M428.463 0H83.537C67.192 0 53.895 13.298 53.895 29.642v452.716c0 16.344 13.297 29.642 29.642 29.642h344.926c16.345 0 29.642-13.298 29.642-29.642V29.642C458.105 13.298 444.808 0 428.463 0m13.474 482.358c0 7.43-6.044 13.474-13.474 13.474H83.537c-7.43 0-13.474-6.044-13.474-13.474V29.642c0-7.43 6.044-13.474 13.474-13.474h344.926c7.43 0 13.474 6.044 13.474 13.474v452.716z"/><path d="M425.768 67.368c0-19.317-15.716-35.032-35.032-35.032-9.912 0-18.877 4.139-25.256 10.779H146.519c-6.379-6.64-15.344-10.779-25.256-10.779-19.316 0-35.032 15.715-35.032 35.032 0 9.912 4.139 18.878 10.779 25.256v138.12c-6.64 6.378-10.779 15.343-10.779 25.256s4.139 18.878 10.779 25.256v138.12c-6.64 6.378-10.779 15.343-10.779 25.256 0 19.317 15.716 35.032 35.032 35.032 9.912 0 18.877-4.139 25.256-10.779H365.48c6.379 6.64 15.344 10.779 25.256 10.779 19.316 0 35.032-15.715 35.032-35.032 0-9.912-4.139-18.878-10.779-25.256v-138.12c6.64-6.378 10.779-15.343 10.779-25.256s-4.139-18.878-10.779-25.256V92.625c6.64-6.378 10.779-15.344 10.779-25.257m-269.473 0c0-2.781-.326-5.489-.942-8.084h201.294a35.035 35.035 0 0 0-.942 8.084c0 19.317 15.716 35.032 35.032 35.032 2.781 0 5.489-.327 8.084-.941v120.45a35.09 35.09 0 0 0-8.084-.941c-19.316 0-35.032 15.715-35.032 35.032s15.716 35.032 35.032 35.032c2.781 0 5.489-.327 8.084-.941v44.057H113.179v-44.057a35.09 35.09 0 0 0 8.084.941c19.316 0 35.032-15.715 35.032-35.032s-15.716-35.032-35.032-35.032c-2.781 0-5.489.327-8.084.941v-120.45a35.09 35.09 0 0 0 8.084.941c19.316 0 35.032-15.715 35.032-35.032zm144.801 282.948c-3.83 21.418-22.594 37.726-45.096 37.726s-41.267-16.309-45.096-37.726zM121.263 48.505c10.401 0 18.863 8.463 18.863 18.863 0 10.401-8.463 18.863-18.863 18.863-10.401 0-18.863-8.463-18.863-18.863s8.463-18.863 18.863-18.863zm0 188.632c10.401 0 18.863 8.463 18.863 18.863 0 10.401-8.463 18.863-18.863 18.863-10.401 0-18.863-8.463-18.863-18.863 0-10.401 8.463-18.863 18.863-18.863m0 226.358c-10.401 0-18.863-8.463-18.863-18.863 0-10.401 8.463-18.863 18.863-18.863 10.401 0 18.863 8.463 18.863 18.863s-8.462 18.863-18.863 18.863m234.442-18.863c0 2.781.326 5.489.942 8.084H155.353c.615-2.596.942-5.303.942-8.084 0-19.317-15.716-35.032-35.032-35.032-2.781 0-5.489.327-8.084.941v-60.225h81.367c3.973 30.371 30.018 53.895 61.454 53.895s57.482-23.524 61.454-53.895h81.367v60.225a35.09 35.09 0 0 0-8.084-.941c-19.316 0-35.032 15.715-35.032 35.032m35.032 18.863c-10.401 0-18.863-8.463-18.863-18.863 0-10.401 8.463-18.863 18.863-18.863 10.401 0 18.863 8.463 18.863 18.863s-8.463 18.863-18.863 18.863m0-188.632c-10.401 0-18.863-8.463-18.863-18.863 0-10.401 8.463-18.863 18.863-18.863 10.401 0 18.863 8.463 18.863 18.863 0 10.401-8.463 18.863-18.863 18.863m0-188.631c-10.401 0-18.863-8.463-18.863-18.863 0-10.401 8.463-18.863 18.863-18.863 10.401 0 18.863 8.463 18.863 18.863s-8.463 18.863-18.863 18.863"/></svg>