<?xml version="1.0" encoding="iso-8859-1"?>
<!-- Uploaded to: SVG Repo, www.svgrepo.com, Generator: SVG Repo Mixer Tools -->
<svg fill="#000000" height="800px" width="800px" version="1.1" id="Layer_1" xmlns="http://www.w3.org/2000/svg" xmlns:xlink="http://www.w3.org/1999/xlink" 
	 viewBox="0 0 512 512" xml:space="preserve">
<g>
	<g>
		<g>
			<path d="M428.463,0H83.537C67.192,0,53.895,13.298,53.895,29.642v452.716c0,16.344,13.297,29.642,29.642,29.642h344.926
				c16.345,0,29.642-13.298,29.642-29.642V29.642C458.105,13.298,444.808,0,428.463,0z M441.937,482.358
				c0,7.43-6.044,13.474-13.474,13.474H83.537c-7.43,0-13.474-6.044-13.474-13.474V29.642c0-7.43,6.044-13.474,13.474-13.474
				h344.926c7.43,0,13.474,6.044,13.474,13.474V482.358z"/>
			<path d="M425.768,67.368c0-19.317-15.716-35.032-35.032-35.032c-9.912,0-18.877,4.139-25.256,10.779H146.519
				c-6.379-6.64-15.344-10.779-25.256-10.779c-19.316,0-35.032,15.715-35.032,35.032c0,9.912,4.139,18.878,10.779,25.256v138.12
				c-6.64,6.378-10.779,15.343-10.779,25.256c0,9.913,4.139,18.878,10.779,25.256v138.12c-6.64,6.378-10.779,15.343-10.779,25.256
				c0,19.317,15.716,35.032,35.032,35.032c9.912,0,18.877-4.139,25.256-10.779h218.961c6.379,6.64,15.344,10.779,25.256,10.779
				c19.316,0,35.032-15.715,35.032-35.032c0-9.912-4.139-18.878-10.779-25.256V281.256c6.64-6.378,10.779-15.343,10.779-25.256
				c0-9.913-4.139-18.878-10.779-25.256V92.625C421.629,86.247,425.768,77.281,425.768,67.368z M156.295,67.368
				c0-2.781-0.326-5.489-0.942-8.084h201.294c-0.615,2.596-0.942,5.303-0.942,8.084c0,19.317,15.716,35.032,35.032,35.032
				c2.781,0,5.489-0.327,8.084-0.941v120.45c-2.596-0.614-5.303-0.941-8.084-0.941c-19.316,0-35.032,15.715-35.032,35.032
				s15.716,35.032,35.032,35.032c2.781,0,5.489-0.327,8.084-0.941v44.057h-88.926H113.179v-44.057
				c2.596,0.614,5.303,0.941,8.084,0.941c19.316,0,35.032-15.715,35.032-35.032s-15.716-35.032-35.032-35.032
				c-2.781,0-5.489,0.327-8.084,0.941v-120.45c2.596,0.614,5.303,0.941,8.084,0.941C140.579,102.4,156.295,86.685,156.295,67.368z
				 M301.096,350.316c-3.83,21.418-22.594,37.726-45.096,37.726s-41.267-16.309-45.096-37.726H301.096z M121.263,48.505
				c10.401,0,18.863,8.463,18.863,18.863c0,10.401-8.463,18.863-18.863,18.863c-10.401,0-18.863-8.463-18.863-18.863
				C102.4,56.968,110.863,48.505,121.263,48.505z M121.263,237.137c10.401,0,18.863,8.463,18.863,18.863
				c0,10.401-8.463,18.863-18.863,18.863c-10.401,0-18.863-8.463-18.863-18.863C102.4,245.599,110.863,237.137,121.263,237.137z
				 M121.263,463.495c-10.401,0-18.863-8.463-18.863-18.863c0-10.401,8.463-18.863,18.863-18.863
				c10.401,0,18.863,8.463,18.863,18.863C140.126,455.032,131.664,463.495,121.263,463.495z M355.705,444.632
				c0,2.781,0.326,5.489,0.942,8.084H155.353c0.615-2.596,0.942-5.303,0.942-8.084c0-19.317-15.716-35.032-35.032-35.032
				c-2.781,0-5.489,0.327-8.084,0.941v-60.225h81.367c3.973,30.371,30.018,53.895,61.454,53.895s57.482-23.524,61.454-53.895h81.367
				v60.225c-2.596-0.614-5.303-0.941-8.084-0.941C371.421,409.6,355.705,425.315,355.705,444.632z M390.737,463.495
				c-10.401,0-18.863-8.463-18.863-18.863c0-10.401,8.463-18.863,18.863-18.863c10.401,0,18.863,8.463,18.863,18.863
				C409.6,455.032,401.137,463.495,390.737,463.495z M390.737,274.863c-10.401,0-18.863-8.463-18.863-18.863
				c0-10.401,8.463-18.863,18.863-18.863c10.401,0,18.863,8.463,18.863,18.863C409.6,266.401,401.137,274.863,390.737,274.863z
				 M390.737,86.232c-10.401,0-18.863-8.463-18.863-18.863c0-10.401,8.463-18.863,18.863-18.863
				c10.401,0,18.863,8.463,18.863,18.863C409.6,77.769,401.137,86.232,390.737,86.232z"/>
		</g>
	</g>
</g>
</svg>