<?xml version="1.0" encoding="utf-8"?>
<!-- Uploaded to: SVG Repo, www.svgrepo.com, Generator: SVG Repo Mixer Tools -->
<svg fill="#000000" height="800px" width="800px" version="1.2" baseProfile="tiny" id="Layer_1" xmlns="http://www.w3.org/2000/svg" xmlns:xlink="http://www.w3.org/1999/xlink"
	  viewBox="-77 79 100 100" xml:space="preserve">
<path d="M-44.1,112.1c0-4.8,3.9-8.6,8.6-8.6c4.8,0,8.6,3.9,8.6,8.6c0,4.8-3.9,8.6-8.6,8.6C-40.2,120.7-44.1,116.8-44.1,112.1z
	 M-9.3,132.9h5.6V96.7h14.5v-0.2v-5.4v-0.2H-3.7V79h-5.6v11.8h-14.5l0,0.3H-24v5.6h14.7V132.9z M-30.8,122.4c-2.2-1.2-5-0.4-6.2,1.8
	l-2.4,4.4c-0.3-2.3-0.9-4.4-1.4-5.3c-1.2-2.5-2.8-3.5-2.8-3.5c-8.5-4.8-13,4.1-13.1,4.4c-0.8,2-2,5.2-1.9,11.6
	c0.3,14.5,8.7,34.1,8.7,34.1h-16.3c-2.9,0-5.5,1.7-5.5,4.9c0,2.8,2.4,4.5,5.3,4.5l22.6,0c3.4,0,6-1.9,6.1-8.3l0.2-26.8l8.6-15.7
	C-27.8,126.3-28.6,123.6-30.8,122.4z M-30.9,143.8V179h5v-30.2h38.9V179h5v-35.2H-30.9z"/>
</svg>