<svg xmlns="http://www.w3.org/2000/svg" xml:space="preserve" width="800" height="800" baseProfile="tiny" version="1.2" viewBox="-77 79 100 100" fill="#7367F0"><path d="M-44.1 112.1c0-4.8 3.9-8.6 8.6-8.6 4.8 0 8.6 3.9 8.6 8.6 0 4.8-3.9 8.6-8.6 8.6-4.7 0-8.6-3.9-8.6-8.6m34.8 20.8h5.6V96.7h14.5V90.9H-3.7V79h-5.6v11.8h-14.5v.3h-.2v5.6h14.7zm-21.5-10.5c-2.2-1.2-5-.4-6.2 1.8l-2.4 4.4c-.3-2.3-.9-4.4-1.4-5.3-1.2-2.5-2.8-3.5-2.8-3.5-8.5-4.8-13 4.1-13.1 4.4-.8 2-2 5.2-1.9 11.6.3 14.5 8.7 34.1 8.7 34.1h-16.3c-2.9 0-5.5 1.7-5.5 4.9 0 2.8 2.4 4.5 5.3 4.5h22.6c3.4 0 6-1.9 6.1-8.3l.2-26.8 8.6-15.7c1.1-2.2.3-4.9-1.9-6.1m-.1 21.4V179h5v-30.2H13V179h5v-35.2z"/></svg>