<svg xmlns="http://www.w3.org/2000/svg" xml:space="preserve" width="800" height="800" viewBox="0 0 512 512"><path d="M406.905 91.621a8.084 8.084 0 0 0 8.084-8.084V8.084A8.084 8.084 0 0 0 406.905 0a8.084 8.084 0 0 0-8.084 8.084v75.453a8.084 8.084 0 0 0 8.084 8.084M363.789 70.063a8.083 8.083 0 0 0 8.084-8.084V8.084A8.084 8.084 0 0 0 363.789 0a8.084 8.084 0 0 0-8.084 8.084v53.895a8.084 8.084 0 0 0 8.084 8.084M180.547 102.4c28.231 0 51.2-22.969 51.2-51.2S208.778 0 180.547 0s-51.2 22.969-51.2 51.2 22.969 51.2 51.2 51.2m0-86.232c19.316 0 35.032 15.715 35.032 35.032s-15.716 35.032-35.032 35.032-35.031-15.715-35.031-35.032 15.715-35.032 35.031-35.032zM353.01 258.695a8.083 8.083 0 0 0-8.084 8.084v10.05c0 22.278 18.487 41.123 40.369 41.15h.052c4.808 0 9.526-.853 13.954-2.482 2.961 19.174 19.236 34.266 38.81 34.803 11.012.294 21.429-3.758 29.317-11.432 7.89-7.677 12.235-17.966 12.235-28.973v-24.253h2.695C498.703 285.642 512 272.344 512 256v-21.558c0-16.344-13.297-29.642-29.642-29.642h-2.695v-13.474c0-28.231-22.969-51.2-51.2-51.2a51.176 51.176 0 0 0-25.663 6.907c-5.397-22.484-25.673-39.244-49.79-39.244s-44.393 16.76-49.79 39.244a51.163 51.163 0 0 0-25.663-6.907 51.24 51.24 0 0 0-11.682 1.344c-13.724-14.577-32.932-22.902-52.991-22.902H148.21c-40.119 0-72.758 32.639-72.758 72.758V204.8h-45.81C13.297 204.8 0 218.098 0 234.442V256c0 16.344 13.297 29.642 29.642 29.642h4.069L58.217 416.34c4.538 24.201 25.702 41.765 50.324 41.765h10.028v24.253c0 4.848 1.171 9.429 3.242 13.474H8.084A8.084 8.084 0 0 0 0 503.916 8.084 8.084 0 0 0 8.084 512h269.474a8.083 8.083 0 0 0 8.084-8.084 8.084 8.084 0 0 0-8.084-8.084H174.61a29.468 29.468 0 0 0 3.242-13.474v-24.253h156.295v24.253c0 4.848 1.171 9.429 3.242 13.474h-27.495a8.084 8.084 0 0 0-8.084 8.084 8.084 8.084 0 0 0 8.084 8.084h194.021a8.083 8.083 0 0 0 8.084-8.084 8.084 8.084 0 0 0-8.084-8.084H390.189a29.468 29.468 0 0 0 3.242-13.474v-24.253h10.028c24.622 0 45.786-17.565 50.323-41.765l7.553-40.282a8.085 8.085 0 0 0-15.892-2.979l-7.553 40.282c-3.104 16.559-17.585 28.576-34.431 28.576H108.541c-16.846 0-31.327-12.017-34.431-28.576L50.162 285.642h270.512a8.083 8.083 0 0 0 8.084-8.084 8.084 8.084 0 0 0-8.084-8.084H40.584a7.804 7.804 0 0 0-.306 0H29.642c-7.43 0-13.474-6.044-13.474-13.474v-21.558c0-7.43 6.044-13.474 13.474-13.474h172.463a8.084 8.084 0 0 0 0-16.168H91.621v-13.474c0-31.203 25.385-56.589 56.589-56.589h64.674a56.683 56.683 0 0 1 36.837 13.634c-14.052 9.138-23.363 24.979-23.363 42.955 0 16.344 13.297 29.642 29.642 29.642h75.453c7.43 0 13.474 6.044 13.474 13.474a8.084 8.084 0 0 0 8.084 8.084 8.083 8.083 0 0 0 8.084-8.084c0-16.344-13.297-29.642-29.642-29.642H256c-7.43 0-13.474-6.044-13.474-13.474 0-19.317 15.716-35.032 35.032-35.032a35.057 35.057 0 0 1 26.274 11.877 8.092 8.092 0 0 0 8.922 2.214 8.087 8.087 0 0 0 5.226-7.563v-3.834c0-19.317 15.717-35.032 35.033-35.032 19.316 0 35.032 15.715 35.032 35.032v3.834a8.086 8.086 0 0 0 14.148 5.349 35.052 35.052 0 0 1 26.274-11.877c19.316 0 35.032 15.715 35.032 35.032v118.568c0 6.604-2.607 12.778-7.343 17.384-4.731 4.604-10.965 7.036-17.598 6.859-12.993-.357-23.565-11.533-23.565-24.916v-7.568a8.086 8.086 0 0 0-13.477-6.023 24.199 24.199 0 0 1-16.166 6.18h-.031c-13.129-.017-24.221-11.456-24.221-24.981v-10.05a8.088 8.088 0 0 0-8.088-8.084m126.653-37.727h2.695c7.43 0 13.474 6.044 13.474 13.474V256c0 7.43-6.044 13.474-13.474 13.474h-2.695zM350.316 458.105h26.947v24.253c0 7.43-6.044 13.474-13.474 13.474s-13.474-6.044-13.474-13.474v-24.253zm-215.579 0h26.947v24.253c0 7.43-6.044 13.474-13.474 13.474s-13.474-6.044-13.474-13.474v-24.253zM320.674 91.621a8.084 8.084 0 0 0 8.084-8.084V8.084A8.084 8.084 0 0 0 320.674 0a8.084 8.084 0 0 0-8.084 8.084v75.453a8.082 8.082 0 0 0 8.084 8.084"/></svg>