<svg xmlns="http://www.w3.org/2000/svg" xml:space="preserve" width="800" height="800" viewBox="0 0 503.607 503.607" fill="#7367F0"><path d="M495.213 235.016h-58.754v-16.787a8.396 8.396 0 0 0-8.393-8.393v-16.787a8.396 8.396 0 0 0 8.393-8.393c0-32.399-26.355-58.754-58.754-58.754s-58.754 26.355-58.754 58.754a8.396 8.396 0 0 0 8.393 8.393v16.787a8.396 8.396 0 0 0-8.393 8.393v16.787H218.23v-50.361c0-24.257-11.826-47.213-31.635-61.398a8.395 8.395 0 0 0-9.778.008c-7.084 5.078-15.167 8.268-23.518 9.77l20.505 20.505a8.38 8.38 0 0 1 1.259 10.257l-25.18 41.967c-1.511 2.526-4.247 4.071-7.193 4.071s-5.682-1.544-7.193-4.071l-25.18-41.967a8.38 8.38 0 0 1 1.259-10.257l20.505-20.505c-8.351-1.502-16.434-4.692-23.518-9.77a8.395 8.395 0 0 0-9.778-.008c-19.809 14.185-31.635 37.141-31.635 61.398v50.361H8.393A8.396 8.396 0 0 0 0 243.409v50.361a8.396 8.396 0 0 0 8.393 8.393v117.508h67.148c4.633 0 8.393 3.76 8.393 8.393s-3.76 8.393-8.393 8.393H8.393v16.787h67.148c4.633 0 8.393 3.76 8.393 8.393s-3.76 8.393-8.393 8.393H8.393v8.393c0 13.883 11.298 25.18 25.18 25.18h436.459c13.883 0 25.18-11.298 25.18-25.18v-8.393h-67.148c-4.633 0-8.393-3.76-8.393-8.393s3.76-8.393 8.393-8.393h67.148v-16.787h-67.148c-4.633 0-8.393-3.76-8.393-8.393s3.76-8.393 8.393-8.393h67.148V302.164a8.396 8.396 0 0 0 8.393-8.393V243.41c.002-4.633-3.759-8.394-8.392-8.394m-117.508-92.327c20.27 0 37.225 14.445 41.12 33.574h-82.239c3.894-19.129 20.849-33.574 41.119-33.574M243.41 470.033c-41.648 0-75.541-33.893-75.541-75.541 0-41.648 33.893-75.541 75.541-75.541s75.541 33.893 75.541 75.541c0 41.648-33.893 75.541-75.541 75.541m243.41-184.656H16.787v-33.574h470.032v33.574zM142.689 117.508c32.399 0 58.754-26.355 58.754-58.754S175.087 0 142.689 0 83.934 26.355 83.934 58.754s26.356 58.754 58.755 58.754m0-100.721c23.141 0 41.967 18.826 41.967 41.967s-18.826 41.967-41.967 41.967-41.967-18.826-41.967-41.967c-.001-23.141 18.826-41.967 41.967-41.967z"/><path d="m142.689 185.127 14.612-24.349-14.612-14.613-14.613 14.613zM243.41 335.738c-32.399 0-58.754 26.355-58.754 58.754s26.355 58.754 58.754 58.754 58.754-26.355 58.754-58.754-26.355-58.754-58.754-58.754m0 100.721c-23.141 0-41.967-18.826-41.967-41.967 0-4.633 3.76-8.393 8.393-8.393s8.393 3.76 8.393 8.393c0 13.883 11.298 25.18 25.18 25.18 4.633 0 8.393 3.76 8.393 8.393s-3.759 8.394-8.392 8.394m33.574-33.574a8.396 8.396 0 0 1-8.393-8.393c0-13.883-11.298-25.18-25.18-25.18-4.633 0-8.393-3.76-8.393-8.393s3.76-8.393 8.393-8.393c23.141 0 41.967 18.826 41.967 41.967a8.397 8.397 0 0 1-8.394 8.392"/></svg>