<svg xmlns="http://www.w3.org/2000/svg" width="800" height="800" viewBox="0 0 304.515 304.515"><path d="m148.078 256.816-25.964-18.122-10.657-1.392 15.756 56.255c2.236 7.983 10.519 12.631 18.49 10.398 7.977-2.234 12.633-10.513 10.399-18.49z"/><circle cx="62.034" cy="61.041" r="25.907"/><path d="m187.079 232.819-46.337-32.342a15.005 15.005 0 0 0-6.642-2.574l-59.266-7.744c2.483 5.066 10.024 17.088.728 30.351l51.015 6.665 43.33 30.244c6.808 4.751 16.154 3.064 20.886-3.715 4.742-6.793 3.079-16.143-3.714-20.885z"/><path d="M277.617 0H98.061a2.95 2.95 0 0 0-1.579 5.442l8.584 5.441-.975 56.237-23.316 25.842-30.97 3.172c-9.615.985-16.611 9.578-15.627 19.193l.912 8.902 13.95-14.214-26.716 44.352a12.502 12.502 0 0 0-.43 11.805l22.403 45.75c3.08 6.285 10.641 8.706 16.726 5.722 6.228-3.052 8.749-10.552 5.722-16.726l-19.031-38.825 23.973-41.053-10.414 37.143-.768 2.741 12.829 26.172 34.443-3.016-7.701-75.191 25.73-28.517a12.503 12.503 0 0 0 3.219-8.204l.612-45.104a30.454 30.454 0 0 1 8.415 13.433l10.505 34.42a30.455 30.455 0 0 0 7.333 12.382l36.043 36.93a30.455 30.455 0 0 1 8.62 22.822l-2.874 56.391a30.458 30.458 0 0 0 3.874 16.486l25.059 44.532a30.456 30.456 0 0 0 13.06 12.373l35.164 17.359a6.28 6.28 0 0 0 9.06-5.631V6.28A6.279 6.279 0 0 0 277.617 0z"/></svg>