<svg xmlns="http://www.w3.org/2000/svg" xml:space="preserve" width="800" height="800" viewBox="0 0 461.436 461.436" fill="#7367F0"><path d="M460.403 307.005c-3.187-11.001-13.36-19.001-29.068-23.086 14.28-34.816 13.186-63.461-3.423-74.489-3.456-2.295-8.516-4.418-15.419-4.448 7.685-27.252 4.443-48.199-9.367-57.368-10.055-6.675-23.911-5.722-39.428 2.353 2.033-24.381-4.198-41.98-17.781-48.564-13.305-6.45-30.675-.724-48.265 15.349-3.839-19.897-12.831-32.72-25.766-36.066-13.198-3.417-27.831 3.982-41.168 20.472-13.334-16.489-27.965-23.888-41.168-20.472-12.936 3.347-21.928 16.169-25.766 36.066-17.59-16.072-34.959-21.797-48.265-15.348-13.583 6.583-19.815 24.182-17.782 48.563-15.517-8.076-29.373-9.03-39.426-2.353-13.812 9.169-17.052 30.119-9.368 57.368-6.902.03-11.963 2.153-15.418 4.448-16.61 11.028-17.705 39.673-3.424 74.49-15.708 4.085-25.881 12.084-29.069 23.085-4.84 16.704 7.477 35.787 33.792 52.357 23.07 14.527 50.197 22.206 78.448 22.206h234.89c28.252 0 55.379-7.679 78.449-22.206 26.316-16.571 38.632-35.654 33.792-52.357m-42.849 37.971c-20.354 12.817-44.349 19.591-69.391 19.591h-234.89c-25.041 0-49.036-6.774-69.39-19.591-18.288-11.516-28.946-24.874-26.522-33.24 1.828-6.308 11.528-11.19 25.948-13.059a8.503 8.503 0 0 0 6.574-12.101c-15.953-33.317-15.49-57.317-6.954-62.984 1.767-1.173 3.912-1.621 6.158-1.621 3.268 0 6.748.948 9.585 1.99a8.499 8.499 0 0 0 10.855-11.053c-11.091-28.595-8.715-46.55-1.813-51.132 6.702-4.453 20.889.444 36.135 12.48a8.5 8.5 0 0 0 13.557-8.547c-5.561-24.583-3.287-44.736 5.527-49.008 8.551-4.142 25.319 6.017 40.795 24.694a8.501 8.501 0 0 0 15.041-5.152c.678-21.235 6.722-36.948 15.037-39.1 7.707-1.99 19.389 7.093 29.774 23.146a8.5 8.5 0 0 0 14.274 0c10.385-16.052 22.069-25.139 29.773-23.146 8.315 2.151 14.359 17.864 15.038 39.1a8.501 8.501 0 0 0 15.041 5.151c15.478-18.679 32.258-28.835 40.794-24.693 8.815 4.272 11.088 24.426 5.526 49.008a8.501 8.501 0 0 0 13.558 8.547c15.245-12.035 29.429-16.934 36.137-12.479 6.9 4.582 9.277 22.537-1.813 51.132a8.503 8.503 0 0 0 1.86 9.03 8.502 8.502 0 0 0 8.995 2.023c4.787-1.758 11.406-3.25 15.743-.369 8.535 5.667 8.998 29.667-6.954 62.985a8.498 8.498 0 0 0 6.574 12.1c14.42 1.869 24.119 6.751 25.947 13.059 2.426 8.365-8.232 21.723-26.519 33.239"/><path d="M149.419 284.856c-14.611 0-26.499 11.887-26.499 26.499s11.888 26.499 26.499 26.499 26.499-11.887 26.499-26.499-11.888-26.499-26.499-26.499m0 35.998c-5.237 0-9.499-4.261-9.499-9.499s4.262-9.499 9.499-9.499 9.499 4.261 9.499 9.499-4.262 9.499-9.499 9.499M305.414 284.856c-14.611 0-26.499 11.887-26.499 26.499s11.888 26.499 26.499 26.499c14.612 0 26.5-11.887 26.5-26.499s-11.888-26.499-26.5-26.499m0 35.998c-5.237 0-9.499-4.261-9.499-9.499s4.262-9.499 9.499-9.499c5.238 0 9.5 4.261 9.5 9.499s-4.262 9.499-9.5 9.499M230.719 154.787c-14.611 0-26.499 11.887-26.499 26.499s11.888 26.499 26.499 26.499 26.499-11.887 26.499-26.499-11.888-26.499-26.499-26.499m0 35.998c-5.237 0-9.499-4.261-9.499-9.499s4.262-9.499 9.499-9.499 9.499 4.261 9.499 9.499-4.262 9.499-9.499 9.499M227.417 250.26c-14.611 0-26.499 11.887-26.499 26.499s11.888 26.499 26.499 26.499 26.499-11.887 26.499-26.499-11.888-26.499-26.499-26.499m0 35.998c-5.237 0-9.499-4.261-9.499-9.499s4.262-9.499 9.499-9.499 9.499 4.261 9.499 9.499-4.262 9.499-9.499 9.499M157.504 231.7c0-14.612-11.888-26.499-26.499-26.499s-26.499 11.887-26.499 26.499 11.888 26.5 26.499 26.5 26.499-11.889 26.499-26.5m-35.998 0c0-5.238 4.262-9.499 9.499-9.499 5.237 0 9.499 4.261 9.499 9.499s-4.262 9.5-9.499 9.5c-5.238-.001-9.499-4.262-9.499-9.5M330.432 205.201c-14.612 0-26.5 11.887-26.5 26.499s11.888 26.5 26.5 26.5c14.611 0 26.499-11.888 26.499-26.5s-11.887-26.499-26.499-26.499m0 35.998c-5.238 0-9.5-4.261-9.5-9.5 0-5.238 4.262-9.499 9.5-9.499 5.237 0 9.499 4.261 9.499 9.499 0 5.239-4.261 9.5-9.499 9.5"/></svg>