<?xml version="1.0" encoding="iso-8859-1"?>
<!-- Uploaded to: SVG Repo, www.svgrepo.com, Generator: SVG Repo Mixer Tools -->
<svg fill="#000000" height="800px" width="800px" version="1.1" id="Layer_1" xmlns="http://www.w3.org/2000/svg" xmlns:xlink="http://www.w3.org/1999/xlink" 
	 viewBox="0 0 508 508" xml:space="preserve">
<g>
	<g>
		<path d="M201.05,158.7c-23.3,0-42.3,19-42.3,42.3s19,42.3,42.3,42.3s42.3-18.9,42.3-42.3C243.35,177.7,224.35,158.7,201.05,158.7z
			 M201.05,215.1c-7.8,0-14.1-6.3-14.1-14.1s6.3-14.1,14.1-14.1s14.1,6.3,14.1,14.1S208.85,215.1,201.05,215.1z"/>
	</g>
</g>
<g>
	<g>
		<path d="M460.65,58.3c-26.2,0-47.4,21.3-47.4,47.4c0,21.2,14,39.3,33.3,45.3v195.4c0,36.4-26.5,66.6-61.2,72.5
			c-6.4-30.4-31.7-54-62.9-57.9c48.3-36.7,79.7-94.7,79.7-160c-0.1-110.8-90.2-201-201.1-201c-110.8,0-201,90.2-201,201
			c0,65.2,31.3,123.3,79.6,160c-36.3,4.6-64.5,35.6-64.5,73.2c0,40.7,33.1,73.8,73.8,73.8h224.1c36.2,0,66.3-26.2,72.6-60.6
			c50.1-6.4,89-49.2,89-101V151c19.3-6,33.3-24,33.3-45.3C508.05,79.6,486.75,58.3,460.65,58.3z M28.25,201
			c0-95.3,77.5-172.8,172.8-172.8s172.8,77.5,172.8,172.8s-77.5,172.8-172.8,172.8S28.25,296.3,28.25,201z M313.15,479.8H88.95
			c-25.1,0-45.6-20.5-45.6-45.6c0-25.1,20.5-45.6,45.6-45.6h39.8c46.3,17.9,98.3,17.9,144.6,0h39.8c25.1,0,45.6,20.5,45.6,45.6
			C358.75,459.3,338.25,479.8,313.15,479.8z M460.65,124.9c-10.6,0-19.2-8.6-19.2-19.2c0-10.6,8.6-19.2,19.2-19.2
			c10.6,0,19.2,8.6,19.2,19.2C479.85,116.3,471.25,124.9,460.65,124.9z"/>
	</g>
</g>
</svg>