<svg xmlns="http://www.w3.org/2000/svg" xml:space="preserve" width="800" height="800" viewBox="0 0 508 508" fill="#7367F0"><path d="M201.05 158.7c-23.3 0-42.3 19-42.3 42.3s19 42.3 42.3 42.3 42.3-18.9 42.3-42.3c0-23.3-19-42.3-42.3-42.3m0 56.4c-7.8 0-14.1-6.3-14.1-14.1s6.3-14.1 14.1-14.1 14.1 6.3 14.1 14.1-6.3 14.1-14.1 14.1"/><path d="M460.65 58.3c-26.2 0-47.4 21.3-47.4 47.4 0 21.2 14 39.3 33.3 45.3v195.4c0 36.4-26.5 66.6-61.2 72.5-6.4-30.4-31.7-54-62.9-57.9 48.3-36.7 79.7-94.7 79.7-160-.1-110.8-90.2-201-201.1-201C90.25 0 .05 90.2.05 201c0 65.2 31.3 123.3 79.6 160-36.3 4.6-64.5 35.6-64.5 73.2 0 40.7 33.1 73.8 73.8 73.8h224.1c36.2 0 66.3-26.2 72.6-60.6 50.1-6.4 89-49.2 89-101V151c19.3-6 33.3-24 33.3-45.3.1-26.1-21.2-47.4-47.3-47.4M28.25 201c0-95.3 77.5-172.8 172.8-172.8s172.8 77.5 172.8 172.8-77.5 172.8-172.8 172.8S28.25 296.3 28.25 201m284.9 278.8H88.95c-25.1 0-45.6-20.5-45.6-45.6s20.5-45.6 45.6-45.6h39.8c46.3 17.9 98.3 17.9 144.6 0h39.8c25.1 0 45.6 20.5 45.6 45.6s-20.5 45.6-45.6 45.6m147.5-354.9c-10.6 0-19.2-8.6-19.2-19.2s8.6-19.2 19.2-19.2 19.2 8.6 19.2 19.2-8.6 19.2-19.2 19.2z"/></svg>