<svg xmlns="http://www.w3.org/2000/svg" width="800" height="800" fill="#7367F0" viewBox="0 0 48 48"><path fill="#333" fill-rule="evenodd" d="M17.148 31.169a1.086 1.086 0 0 0-.27.03C11.476 32.52 6 35.207 6 39.25V44h36v-4.75c0-4.044-5.474-6.732-10.879-8.05a1.086 1.086 0 0 0-.269-.031L24 39l-6.852-7.831M35 37.333s-1.333-.666-2-1.333c-.667.667-2 1.333-2 1.333S31.698 40 33 40s2-2.667 2-2.667" clip-rule="evenodd"/><path fill="#333" d="M25.5 29h-3a1 1 0 0 0-1 1v1.586a1 1 0 0 0 .293.707L22.5 33l-1 3.5 2.5 5 2.5-5-1-4 .447-.224a1 1 0 0 0 .553-.894V30a1 1 0 0 0-1-1"/><path fill="#333" fill-rule="evenodd" d="M15 18v-3h2v3a7 7 0 1 0 14 0v-3h2v3a9 9 0 1 1-18 0M13.688 12l-.231-.361C12.749 10.539 12 9.376 12 8.097c0-.801.52-1.475 1.209-2.009C15.769 4.107 24 3 24 3s8.231 1.107 10.791 3.088C35.48 6.622 36 7.296 36 8.097c0 1.458-.826 2.717-1.61 3.903H13.689ZM22 8a2 2 0 1 1 4 0 2 2 0 0 1-4 0" clip-rule="evenodd"/><path fill="#333" fill-rule="evenodd" d="M14.021 14.41a.52.52 0 0 1 .518-.41H33.46a.52.52 0 0 1 .518.41v.006l.002.007.003.018.006.054c.005.043.01.102.01.173.001.142-.012.337-.066.566-.109.464-.38 1.053-1.003 1.625C31.697 17.995 29.16 19 24 19s-7.697-1.005-8.93-2.14c-.623-.573-.895-1.162-1.004-1.626a2.397 2.397 0 0 1-.066-.566 1.798 1.798 0 0 1 .016-.227l.003-.018.001-.007v-.003l.001-.001v-.001" clip-rule="evenodd"/></svg>