<svg xmlns="http://www.w3.org/2000/svg" xml:space="preserve" width="800" height="800" viewBox="0 0 571.316 571.315" fill="#7367F0"><path d="M159.858 176.916c0 26.289-21.312 47.6-47.6 47.6-26.289 0-47.6-21.311-47.6-47.6s21.311-47.6 47.6-47.6c26.288 0 47.6 21.311 47.6 47.6m251.6 0c0 26.289 21.312 47.6 47.601 47.6 26.288 0 47.6-21.311 47.6-47.6s-21.312-47.6-47.6-47.6c-26.29 0-47.601 21.311-47.601 47.6m-265.2 217.6V281.942c0-20.448-16.579-37.026-37.026-37.026h-.748c-20.448 0-37.026 16.578-37.026 37.026v119.374c0 22.535 18.265 40.801 40.8 40.801h61.2c7.514 0 13.6 6.086 13.6 13.6v95.2c0 11.268 9.132 20.399 20.4 20.399h6.8c11.268 0 20.4-9.132 20.4-20.399V435.315c0-22.535-18.265-40.8-40.8-40.8h-47.6zm316.574-149.6h-.748c-20.447 0-37.025 16.578-37.025 37.026v112.574h-47.601c-22.535 0-40.8 18.265-40.8 40.8v112.438c0 13.015 10.547 23.562 23.562 23.562h.476c13.015 0 23.562-10.547 23.562-23.562v-92.038c0-7.514 6.086-13.6 13.601-13.6h61.2c22.535 0 40.8-18.266 40.8-40.801V281.942c-.001-20.448-16.58-37.026-37.027-37.026m-64.974 102v-20.4c0-3.753-3.047-6.8-6.8-6.8h-210.8a6.803 6.803 0 0 0-6.8 6.8v20.4c0 3.753 3.046 6.8 6.8 6.8h210.8c3.753 0 6.8-3.047 6.8-6.8M267.305 0c-49.572 0-89.753 31.804-89.753 71.033 0 23.372 14.328 44.043 36.339 56.991-2.156 11.805-9.01 25.71-18.591 35.292 23.406-1.748 44.003-8.459 57.494-22.263 4.739.612 9.567 1.013 14.518 1.013 49.572 0 89.753-31.804 89.753-71.033S316.87 0 267.305 0m-42.079 85.055c-7.745 0-14.021-6.276-14.021-14.021s6.276-14.022 14.021-14.022 14.021 6.277 14.021 14.022-6.276 14.021-14.021 14.021m42.079 0c-7.746 0-14.022-6.276-14.022-14.021s6.276-14.022 14.022-14.022c7.745 0 14.021 6.277 14.021 14.022s-6.276 14.021-14.021 14.021m42.071 0c-7.745 0-14.021-6.276-14.021-14.021s6.276-14.022 14.021-14.022 14.021 6.277 14.021 14.022-6.275 14.021-14.021 14.021"/></svg>