<?xml version="1.0" ?>
<!DOCTYPE svg  PUBLIC '-//W3C//DTD SVG 1.1//EN'  'http://www.w3.org/Graphics/SVG/1.1/DTD/svg11.dtd'>
<!-- Uploaded to: SVG Repo, www.svgrepo.com, Generator: SVG Repo Mixer Tools -->
<svg fill="#000000" width="800px" height="800px" viewBox="0 0 64 64" style="fill-rule:evenodd;clip-rule:evenodd;stroke-linejoin:round;stroke-miterlimit:2;" version="1.1" xml:space="preserve" xmlns="http://www.w3.org/2000/svg" xmlns:serif="http://www.serif.com/" xmlns:xlink="http://www.w3.org/1999/xlink">
<g id="Expanded">
<path d="M8.5,10l0,45c0,0.796 0.316,1.559 0.879,2.121c0.562,0.563 1.325,0.879 2.121,0.879c5.154,0 18.846,0 24,0c1.657,0 3,-1.343 3,-3l-0,-3.013l17,0c0.552,0 1,-0.447 1,-1l0,-10c0,-0.265 -0.105,-0.519 -0.293,-0.707c-0.187,-0.187 -0.442,-0.293 -0.707,-0.293l-17,0l0,-29.987c0,-0.796 -0.316,-1.559 -0.879,-2.121c-0.562,-0.563 -1.325,-0.879 -2.121,-0.879c-5.154,0 -18.846,0 -24,0c-0.796,-0 -1.559,0.316 -2.121,0.879c-0.563,0.562 -0.879,1.325 -0.879,2.121Zm28,25l-26,0l0,20c0,0.265 0.105,0.52 0.293,0.707c0.187,0.188 0.442,0.293 0.707,0.293l24,0c0.552,0 1,-0.448 1,-1l-0,-3.013l-7.245,0c-1.636,1.848 -4.026,3.013 -6.686,3.013c-4.929,0 -8.931,-4.002 -8.931,-8.931c-0,-4.929 4.002,-8.931 8.931,-8.931c2.581,-0 4.907,1.096 6.539,2.849l7.392,0c0,0 0,-4.987 -0,-4.987Zm-10.605,4.987c-0.988,-0.541 -2.121,-0.849 -3.326,-0.849c-3.826,-0 -6.931,3.105 -6.931,6.931c-0,3.825 3.105,6.931 6.931,6.931c1.32,-0 2.555,-0.37 3.606,-1.013l-2.96,0c-2.207,0.144 -4.412,-0.956 -5.592,-3c-1.656,-2.867 -0.672,-6.54 2.196,-8.196c1.068,-0.617 2.256,-0.88 3.403,-0.804l2.673,0Zm-2.68,12l-0,0l0,0Zm21.285,-10c0,0 -21.362,-0 -21.386,-0.002c-0.773,-0.057 -1.574,0.122 -2.295,0.538c-1.912,1.104 -2.568,3.552 -1.464,5.464c0.791,1.372 2.274,2.109 3.755,2.003c0.024,-0.002 0.047,-0.003 0.071,-0.003l21.319,0l0,-8Zm2,0l8,0c0,0 0,8 0,8l-8,0l0,-8Zm5.097,-5.97c3.663,-3.946 5.903,-9.23 5.903,-15.032c0,-5.787 -2.228,-11.058 -5.874,-15.001c-0.374,-0.405 -1.007,-0.43 -1.413,-0.055c-0.405,0.375 -0.43,1.008 -0.055,1.413c3.315,3.586 5.342,8.38 5.342,13.643c0,5.277 -2.038,10.083 -5.369,13.672c-0.375,0.404 -0.352,1.037 0.053,1.413c0.404,0.375 1.038,0.352 1.413,-0.053Zm-15.097,-3.017l0,-23c0,-0.265 -0.105,-0.52 -0.293,-0.707c-0.187,-0.188 -0.442,-0.293 -0.707,-0.293l-24,-0c-0.265,-0 -0.52,0.105 -0.707,0.293c-0.188,0.187 -0.293,0.442 -0.293,0.707l0,23l26,0Zm11.176,-0.923c2.653,-2.937 4.269,-6.827 4.269,-11.091c0,-4.25 -1.604,-8.128 -4.24,-11.06c-0.369,-0.411 -1.002,-0.444 -1.413,-0.075c-0.41,0.369 -0.444,1.001 -0.075,1.412c2.318,2.578 3.728,5.987 3.728,9.723c0,3.749 -1.42,7.168 -3.753,9.75c-0.37,0.41 -0.338,1.042 0.071,1.412c0.41,0.37 1.043,0.338 1.413,-0.071Zm-21.176,-6.077c0,-0.552 -0.448,-1 -1,-1l-4,-0c-0.552,0 -1,0.448 -1,1l0,4c0,0.552 0.448,1 1,1l4,0c0.552,0 1,-0.448 1,-1l0,-4Zm-8,-0c0,-0.552 -0.448,-1 -1,-1l-4,-0c-0.552,0 -1,0.448 -1,1l0,4c0,0.552 0.448,1 1,1l4,0c0.552,0 1,-0.448 1,-1l0,-4Zm16,-0c0,-0.552 -0.448,-1 -1,-1l-4,-0c-0.552,0 -1,0.448 -1,1l0,4c0,0.552 0.448,1 1,1l4,0c0.552,0 1,-0.448 1,-1l0,-4Zm-10,1l0,2c0,-0 -2,0 -2,0c0,0 0,-2 0,-2l2,-0Zm-8,-0l0,2c0,-0 -2,0 -2,0c0,0 0,-2 0,-2l2,-0Zm16,-0l0,2c0,-0 -2,0 -2,0c0,0 0,-2 0,-2l2,-0Zm11.261,1.122c1.639,-1.921 2.63,-4.413 2.63,-7.135c-0,-2.706 -0.98,-5.185 -2.604,-7.102c-0.356,-0.422 -0.988,-0.474 -1.409,-0.117c-0.421,0.357 -0.473,0.988 -0.117,1.409c1.329,1.568 2.13,3.597 2.13,5.81c-0,2.227 -0.81,4.265 -2.152,5.836c-0.358,0.42 -0.308,1.052 0.112,1.41c0.42,0.359 1.051,0.309 1.41,-0.111Zm-9.261,-9.122c0,-0.552 -0.448,-1 -1,-1l-4,-0c-0.552,0 -1,0.448 -1,1l0,4c0,0.552 0.448,1 1,1l4,0c0.552,0 1,-0.448 1,-1l0,-4Zm-16,0c0,-0.552 -0.448,-1 -1,-1l-4,-0c-0.552,0 -1,0.448 -1,1l0,4c0,0.552 0.448,1 1,1l4,0c0.552,0 1,-0.448 1,-1l0,-4Zm8,0c0,-0.552 -0.448,-1 -1,-1l-4,-0c-0.552,0 -1,0.448 -1,1l0,4c0,0.552 0.448,1 1,1l4,0c0.552,0 1,-0.448 1,-1l0,-4Zm-2,1l0,2c0,0 -2,0 -2,0c0,0 0,-2 0,-2l2,-0Zm-8,-0l0,2c0,0 -2,0 -2,0c0,0 0,-2 0,-2l2,-0Zm16,-0l0,2c0,0 -2,0 -2,0c0,0 0,-2 0,-2l2,-0Zm-6,-8c0,-0.552 -0.448,-1 -1,-1l-4,0c-0.552,0 -1,0.448 -1,1l0,4c0,0.552 0.448,1 1,1l4,0c0.552,0 1,-0.448 1,-1l0,-4Zm8,0c0,-0.552 -0.448,-1 -1,-1l-4,0c-0.552,0 -1,0.448 -1,1l0,4c0,0.552 0.448,1 1,1l4,0c0.552,0 1,-0.448 1,-1l0,-4Zm-16,0c0,-0.552 -0.448,-1 -1,-1l-4,0c-0.552,0 -1,0.448 -1,1l0,4c0,0.552 0.448,1 1,1l4,0c0.552,0 1,-0.448 1,-1l0,-4Zm6,1l0,2c0,0 -2,0 -2,0c0,0 0,-2 0,-2l2,-0Zm-8,-0l0,2c0,0 -2,0 -2,0c0,0 0,-2 0,-2l2,-0Zm16,-0l0,2c0,0 -2,0 -2,0c0,0 0,-2 0,-2l2,-0Z"/>
</g>
</svg>