<svg xmlns="http://www.w3.org/2000/svg" xml:space="preserve" width="800" height="800" style="fill-rule:evenodd;clip-rule:evenodd;stroke-linejoin:round;stroke-miterlimit:2" viewBox="0 0 64 64" fill="#7367F0"><path d="M8.5 10v45c0 .796.316 1.559.879 2.121A2.996 2.996 0 0 0 11.5 58h24a3 3 0 0 0 3-3v-3.013h17a1 1 0 0 0 1-1v-10a1 1 0 0 0-1-1h-17V10c0-.796-.316-1.559-.879-2.121A2.996 2.996 0 0 0 35.5 7h-24c-.796 0-1.559.316-2.121.879A2.996 2.996 0 0 0 8.5 10Zm28 25h-26v20a.997.997 0 0 0 1 1h24a1 1 0 0 0 1-1v-3.013h-7.245A8.906 8.906 0 0 1 22.569 55c-4.929 0-8.931-4.002-8.931-8.931 0-4.929 4.002-8.931 8.931-8.931a8.908 8.908 0 0 1 6.539 2.849H36.5V35Zm-10.605 4.987a6.933 6.933 0 0 0-10.257 6.082A6.934 6.934 0 0 0 22.569 53c1.32 0 2.555-.37 3.606-1.013h-2.96a6.013 6.013 0 0 1-5.592-3 6.003 6.003 0 0 1 2.196-8.196 6.013 6.013 0 0 1 3.403-.804h2.673Zm21.285-10s-21.362 0-21.386-.002a4.008 4.008 0 0 0-2.295.538 4.002 4.002 0 0 0-1.464 5.464 4.011 4.011 0 0 0 3.755 2.003.843.843 0 0 1 .071-.003H44.5v-8Zm2 0h8v8h-8zm5.097-5.97A22.026 22.026 0 0 0 57.5 20.985a22.026 22.026 0 0 0-5.874-15.001 1 1 0 0 0-1.468 1.358A20.036 20.036 0 0 1 55.5 20.985a20.037 20.037 0 0 1-5.369 13.672 1 1 0 0 0 1.466 1.36ZM36.5 33V10a.997.997 0 0 0-1-1h-24a.997.997 0 0 0-1 1v23zm11.176-.923a16.493 16.493 0 0 0 4.269-11.091 16.49 16.49 0 0 0-4.24-11.06 1 1 0 0 0-1.488 1.337 14.495 14.495 0 0 1 3.728 9.723c0 3.749-1.42 7.168-3.753 9.75a1 1 0 0 0 1.484 1.341ZM26.5 26a1 1 0 0 0-1-1h-4a1 1 0 0 0-1 1v4a1 1 0 0 0 1 1h4a1 1 0 0 0 1-1v-4m-8 0a1 1 0 0 0-1-1h-4a1 1 0 0 0-1 1v4a1 1 0 0 0 1 1h4a1 1 0 0 0 1-1v-4m16 0a1 1 0 0 0-1-1h-4a1 1 0 0 0-1 1v4a1 1 0 0 0 1 1h4a1 1 0 0 0 1-1zm-10 1v2h-2v-2zm-8 0v2h-2v-2zm16 0v2h-2v-2zm11.261 1.122a10.958 10.958 0 0 0 2.63-7.135c0-2.706-.98-5.185-2.604-7.102a.999.999 0 1 0-1.526 1.292 8.957 8.957 0 0 1 2.13 5.81c0 2.227-.81 4.265-2.152 5.836a1 1 0 0 0 1.522 1.299ZM34.5 19a1 1 0 0 0-1-1h-4a1 1 0 0 0-1 1v4a1 1 0 0 0 1 1h4a1 1 0 0 0 1-1zm-16 0a1 1 0 0 0-1-1h-4a1 1 0 0 0-1 1v4a1 1 0 0 0 1 1h4a1 1 0 0 0 1-1zm8 0a1 1 0 0 0-1-1h-4a1 1 0 0 0-1 1v4a1 1 0 0 0 1 1h4a1 1 0 0 0 1-1zm-2 1v2h-2v-2zm-8 0v2h-2v-2zm16 0v2h-2v-2zm-6-8a1 1 0 0 0-1-1h-4a1 1 0 0 0-1 1v4a1 1 0 0 0 1 1h4a1 1 0 0 0 1-1zm8 0a1 1 0 0 0-1-1h-4a1 1 0 0 0-1 1v4a1 1 0 0 0 1 1h4a1 1 0 0 0 1-1zm-16 0a1 1 0 0 0-1-1h-4a1 1 0 0 0-1 1v4a1 1 0 0 0 1 1h4a1 1 0 0 0 1-1zm6 1v2h-2v-2zm-8 0v2h-2v-2zm16 0v2h-2v-2z"/></svg>