<?xml version="1.0" ?>
<!-- Uploaded to: SVG Repo, www.svgrepo.com, Generator: SVG Repo Mixer Tools -->
<svg fill="#000000" width="800px" height="800px" viewBox="0 0 56 56" id="Layer_1" version="1.1" xml:space="preserve" xmlns="http://www.w3.org/2000/svg" xmlns:xlink="http://www.w3.org/1999/xlink">
<g>
<path d="M45.1,5H10.9C7.6,5,5,7.7,5,10.9v34.2c0,3.2,2.6,5.9,5.9,5.9h34.3c3.2,0,5.9-2.6,5.9-5.9V10.9C51,7.7,48.4,5,45.1,5z    M49,45.1c0,2.1-1.7,3.9-3.9,3.9H10.9C8.7,49,7,47.2,7,45.1V10.9C7,8.8,8.7,7,10.9,7h34.3c2.1,0,3.9,1.7,3.9,3.9V45.1z"/>
<path d="M28,12.4C28,12.4,28,12.4,28,12.4C28,12.4,28,12.4,28,12.4c-8.6,0-15.6,7-15.6,15.6s7,15.6,15.5,15.6c0,0,0,0,0,0s0,0,0,0   c8.6,0,15.5-7,15.5-15.6S36.6,12.4,28,12.4z M29,41.5v-3.8c0-0.6-0.4-1-1-1s-1,0.4-1,1v3.8C20,41,14.4,35.1,14.4,28S20,15,27,14.5   v3.8c0,0.6,0.4,1,1,1s1-0.4,1-1v-3.8C36,15,41.6,20.9,41.6,28S36,41,29,41.5z"/>
<path d="M34,23.9c-2,0-3.7,1.7-3.7,3.7c0,2,1.7,3.7,3.7,3.7c2,0,3.7-1.7,3.7-3.7C37.7,25.6,36,23.9,34,23.9z M34,29.3   c-0.9,0-1.7-0.8-1.7-1.7s0.8-1.7,1.7-1.7s1.7,0.8,1.7,1.7S34.9,29.3,34,29.3z"/>
<path d="M21.8,23.9c-2,0-3.7,1.7-3.7,3.7s1.7,3.7,3.7,3.7s3.7-1.7,3.7-3.7S23.8,23.9,21.8,23.9z M21.8,29.3c-0.9,0-1.7-0.8-1.7-1.7   s0.8-1.7,1.7-1.7s1.7,0.8,1.7,1.7S22.7,29.3,21.8,29.3z"/>
</g>
</svg>