<svg xmlns="http://www.w3.org/2000/svg" xml:space="preserve" width="800" height="800" viewBox="0 0 56 56"><path d="M45.1 5H10.9C7.6 5 5 7.7 5 10.9v34.2c0 3.2 2.6 5.9 5.9 5.9h34.3c3.2 0 5.9-2.6 5.9-5.9V10.9C51 7.7 48.4 5 45.1 5M49 45.1c0 2.1-1.7 3.9-3.9 3.9H10.9C8.7 49 7 47.2 7 45.1V10.9C7 8.8 8.7 7 10.9 7h34.3c2.1 0 3.9 1.7 3.9 3.9v34.2z"/><path d="M28 12.4c-8.6 0-15.6 7-15.6 15.6s7 15.6 15.5 15.6c8.6 0 15.5-7 15.5-15.6S36.6 12.4 28 12.4m1 29.1v-3.8c0-.6-.4-1-1-1s-1 .4-1 1v3.8C20 41 14.4 35.1 14.4 28S20 15 27 14.5v3.8c0 .6.4 1 1 1s1-.4 1-1v-3.8c7 .5 12.6 6.4 12.6 13.5S36 41 29 41.5"/><path d="M34 23.9c-2 0-3.7 1.7-3.7 3.7s1.7 3.7 3.7 3.7 3.7-1.7 3.7-3.7-1.7-3.7-3.7-3.7m0 5.4c-.9 0-1.7-.8-1.7-1.7s.8-1.7 1.7-1.7 1.7.8 1.7 1.7-.8 1.7-1.7 1.7M21.8 23.9c-2 0-3.7 1.7-3.7 3.7s1.7 3.7 3.7 3.7 3.7-1.7 3.7-3.7-1.7-3.7-3.7-3.7m0 5.4c-.9 0-1.7-.8-1.7-1.7s.8-1.7 1.7-1.7 1.7.8 1.7 1.7-.8 1.7-1.7 1.7"/></svg>