<?xml version="1.0" encoding="iso-8859-1"?>
<!-- Uploaded to: SVG Repo, www.svgrepo.com, Generator: SVG Repo Mixer Tools -->
<!DOCTYPE svg PUBLIC "-//W3C//DTD SVG 1.1//EN" "http://www.w3.org/Graphics/SVG/1.1/DTD/svg11.dtd">
<svg fill="#000000" height="800px" width="800px" version="1.1" id="Capa_1" xmlns="http://www.w3.org/2000/svg" xmlns:xlink="http://www.w3.org/1999/xlink" 
	 viewBox="0 0 485.252 485.252" xml:space="preserve">
<g id="XMLID_288_">
	<path id="XMLID_289_" d="M315.478,319.287c-7.563-11.352-20.3-18.164-33.928-18.164h-81.497l-1.975-20.936l65.72,9.052
		c1.497,0.205,2.993,0.301,4.49,0.301c16.032,0,30.012-11.829,32.255-28.154c2.451-17.84-10.014-34.295-27.859-36.753l-67.87-9.347
		l-14.95-22.24l-2.626-27.853c-2.118-22.402-22.131-39.03-44.403-36.745c-22.417,2.109-38.863,21.994-36.762,44.402l16.303,172.857
		c1.975,20.936,19.553,36.93,40.582,36.93h96.766l56.248,84.441c7.865,11.79,20.792,18.174,33.958,18.174
		c7.771,0,15.62-2.221,22.56-6.846c18.738-12.475,23.803-37.779,11.336-56.51L315.478,319.287z"/>
	<path id="XMLID_290_" d="M163.643,108.688c30.01,0,54.337-24.333,54.337-54.346C217.98,24.333,193.653,0,163.643,0
		c-30.026,0-54.354,24.333-54.354,54.343C109.29,84.355,133.617,108.688,163.643,108.688z"/>
	<path id="XMLID_291_" d="M222.741,406.453H108.063L86.762,236.356c-1.115-8.924-9.17-15.292-18.197-14.153
		c-8.932,1.115-15.269,9.266-14.154,18.197l23.085,184.377c1.019,8.159,7.961,14.281,16.176,14.281h129.069
		c9.01,0,16.303-7.301,16.303-16.303C239.044,413.752,231.751,406.453,222.741,406.453z"/>
	<path id="XMLID_292_" d="M406.618,319.467c0-21.502,24.35-30.94,24.35-61.759c0-20.446-15.583-30.286-26.073-34.594
		c-2.808-1.152-5.521,1.896-4.014,4.531c3.606,6.301,7.722,16.468,7.722,30.063c0,24.186-22.58,27.358-22.58,61.759
		c0,22.987,15.241,34.074,25.869,39.012c2.855,1.327,5.712-1.857,4.087-4.555C411.674,346.781,406.618,335.071,406.618,319.467z"/>
	<path id="XMLID_293_" d="M369.124,249.696c2.855,1.326,5.712-1.857,4.086-4.555c-4.305-7.142-9.361-18.853-9.361-34.457
		c0-21.502,24.352-30.941,24.352-61.759c0-20.445-15.583-30.286-26.073-34.593c-2.808-1.153-5.522,1.896-4.015,4.53
		c3.607,6.301,7.723,16.468,7.723,30.063c0,24.187-22.58,27.357-22.58,61.759C343.254,233.672,358.496,244.76,369.124,249.696z"/>
</g>
</svg>