<svg xmlns="http://www.w3.org/2000/svg" xml:space="preserve" width="800" height="800" viewBox="0 0 485.252 485.252" fill="#7367F0"><path d="M315.478 319.287a40.77 40.77 0 0 0-33.928-18.164h-81.497l-1.975-20.936 65.72 9.052a33.04 33.04 0 0 0 4.49.301c16.032 0 30.012-11.829 32.255-28.154 2.451-17.84-10.014-34.295-27.859-36.753l-67.87-9.347-14.95-22.24-2.626-27.853c-2.118-22.402-22.131-39.03-44.403-36.745-22.417 2.109-38.863 21.994-36.762 44.402l16.303 172.857c1.975 20.936 19.553 36.93 40.582 36.93h96.766l56.248 84.441c7.865 11.79 20.792 18.174 33.958 18.174 7.771 0 15.62-2.221 22.56-6.846 18.738-12.475 23.803-37.779 11.336-56.51zM163.643 108.688c30.01 0 54.337-24.333 54.337-54.346C217.98 24.333 193.653 0 163.643 0c-30.026 0-54.354 24.333-54.354 54.343.001 30.012 24.328 54.345 54.354 54.345"/><path d="M222.741 406.453H108.063L86.762 236.356c-1.115-8.924-9.17-15.292-18.197-14.153-8.932 1.115-15.269 9.266-14.154 18.197l23.085 184.377c1.019 8.159 7.961 14.281 16.176 14.281h129.069c9.01 0 16.303-7.301 16.303-16.303 0-9.003-7.293-16.302-16.303-16.302M406.618 319.467c0-21.502 24.35-30.94 24.35-61.759 0-20.446-15.583-30.286-26.073-34.594-2.808-1.152-5.521 1.896-4.014 4.531 3.606 6.301 7.722 16.468 7.722 30.063 0 24.186-22.58 27.358-22.58 61.759 0 22.987 15.241 34.074 25.869 39.012 2.855 1.327 5.712-1.857 4.087-4.555-4.305-7.143-9.361-18.853-9.361-34.457M369.124 249.696c2.855 1.326 5.712-1.857 4.086-4.555-4.305-7.142-9.361-18.853-9.361-34.457 0-21.502 24.352-30.941 24.352-61.759 0-20.445-15.583-30.286-26.073-34.593-2.808-1.153-5.522 1.896-4.015 4.53 3.607 6.301 7.723 16.468 7.723 30.063 0 24.187-22.58 27.357-22.58 61.759-.002 22.988 15.24 34.076 25.868 39.012"/></svg>