<svg xmlns="http://www.w3.org/2000/svg" xml:space="preserve" width="800" height="800" viewBox="0 0 512 512" fill="#7367F0"><path d="M424.864 147.831h-22.235v-14.423a7.212 7.212 0 0 0-7.211-7.211H288.451a7.212 7.212 0 0 0-7.211 7.211v14.423h-40.864v-7.211h3.305a7.211 7.211 0 0 0 7.211-7.211V61.296h21.333a7.212 7.212 0 0 0 0-14.422h-21.333V33.653a7.211 7.211 0 0 0-7.211-7.211h-33.352V7.211A7.212 7.212 0 0 0 203.118 0h-46.873a7.212 7.212 0 0 0-7.211 7.211v19.23h-33.352a7.211 7.211 0 0 0-7.211 7.211v13.221H87.136a7.212 7.212 0 0 0 0 14.422h21.333v72.113a7.211 7.211 0 0 0 7.211 7.211h3.305v7.211H96.751a7.212 7.212 0 0 0-7.211 7.211v310.085a7.212 7.212 0 0 0 7.211 7.211h14.423v32.451a7.212 7.212 0 0 0 7.211 7.211h28.845a7.212 7.212 0 0 0 7.211-7.211v-32.451h212.732v32.451a7.212 7.212 0 0 0 7.211 7.211h28.845a7.212 7.212 0 0 0 7.211-7.211v-32.451h14.422a7.212 7.212 0 0 0 7.211-7.211V155.042a7.209 7.209 0 0 0-7.209-7.211m-129.202-7.211h92.545v7.211h-92.545zM163.455 14.423h32.451v12.019h-32.451zm-40.563 26.441h113.577v85.333H122.892V40.864zm103.061 99.756v7.211h-92.545v-7.211zm-85.934 356.957h-14.423v-25.239h14.423zm256 0h-14.423v-25.239h14.423zm21.634-39.661h-313.69V162.254h313.69z"/><path d="M148.732 218.477h115.08v14.687H147.23a7.212 7.212 0 0 0-7.211 7.211v168.263a7.212 7.212 0 0 0 7.211 7.211h227.155a7.212 7.212 0 0 0 7.211-7.211V240.376a7.212 7.212 0 0 0-7.211-7.211h-18.028v-14.687h16.526c4.981 0 9.659-1.937 13.175-5.454a18.505 18.505 0 0 0 5.454-13.175c0-10.272-8.357-18.629-18.629-18.629h-5.408a7.212 7.212 0 0 0 0 14.422h5.408a4.211 4.211 0 0 1 2.977 7.185 4.181 4.181 0 0 1-2.977 1.228h-16.526v-5.745a7.212 7.212 0 0 0-7.211-7.211h-78.122a7.212 7.212 0 0 0-7.211 7.211v5.745h-115.08a4.211 4.211 0 0 1-4.207-4.207c0-1.127.436-2.185 1.227-2.977a4.184 4.184 0 0 1 2.979-1.23h5.408a7.212 7.212 0 0 0 0-14.422h-5.408a18.51 18.51 0 0 0-13.177 5.454 18.511 18.511 0 0 0-5.452 13.175c0 10.273 8.357 18.629 18.629 18.629m129.503-12.956h63.7v87.713h-63.7zm-7.212 102.136h78.122a7.212 7.212 0 0 0 7.211-7.211v-52.859h10.817v153.84H154.441v-153.84h109.371v26.682h-82.93a7.212 7.212 0 0 0 0 14.422h82.93v11.754a7.213 7.213 0 0 0 7.211 7.212"/><path d="M173.671 324.507a7.212 7.212 0 0 0 7.211 7.211h159.85a7.212 7.212 0 0 0 0-14.422h-159.85a7.212 7.212 0 0 0-7.211 7.211M340.732 360.323h-159.85a7.212 7.212 0 0 0 0 14.422h159.85a7.212 7.212 0 0 0 0-14.422"/></svg>