<?xml version="1.0" encoding="iso-8859-1"?>
<!-- Uploaded to: SVG Repo, www.svgrepo.com, Generator: SVG Repo Mixer Tools -->
<svg fill="#000000" height="800px" width="800px" version="1.1" id="Layer_1" xmlns="http://www.w3.org/2000/svg" xmlns:xlink="http://www.w3.org/1999/xlink" 
	 viewBox="0 0 512 512" xml:space="preserve">
<g>
	<g>
		<g>
			<path d="M424.864,147.831h-22.235v-14.423c0-3.982-3.229-7.211-7.211-7.211H288.451c-3.982,0-7.211,3.229-7.211,7.211v14.423
				h-40.864v-7.211h3.305c3.982,0,7.211-3.228,7.211-7.211V61.296h21.333c3.982,0,7.211-3.229,7.211-7.211
				c0-3.982-3.229-7.211-7.211-7.211h-21.333V33.653c0-3.983-3.229-7.211-7.211-7.211h-33.352V7.211
				c0-3.982-3.229-7.211-7.211-7.211h-46.873c-3.982,0-7.211,3.229-7.211,7.211v19.23h-33.352c-3.982,0-7.211,3.228-7.211,7.211
				v13.221H87.136c-3.982,0-7.211,3.229-7.211,7.211c0,3.982,3.229,7.211,7.211,7.211h21.333v72.113
				c0,3.983,3.229,7.211,7.211,7.211h3.305v7.211H96.751c-3.982,0-7.211,3.229-7.211,7.211v310.085c0,3.982,3.229,7.211,7.211,7.211
				h14.423v32.451c0,3.982,3.229,7.211,7.211,7.211h28.845c3.982,0,7.211-3.229,7.211-7.211v-32.451h212.732v32.451
				c0,3.982,3.229,7.211,7.211,7.211h28.845c3.982,0,7.211-3.229,7.211-7.211v-32.451h14.422c3.982,0,7.211-3.229,7.211-7.211
				V155.042C432.075,151.06,428.846,147.831,424.864,147.831z M295.662,140.62h92.545v7.211h-92.545V140.62z M163.455,14.423h32.451
				v12.019h-32.451V14.423z M122.892,40.864h113.577v85.333H122.892V40.864z M225.953,140.62v7.211h-92.545v-7.211H225.953z
				 M140.019,497.577h-14.423v-25.239h14.423V497.577z M396.019,497.577h-14.423v-25.239h14.423V497.577z M417.653,457.916h-313.69
				V162.254h313.69V457.916z"/>
			<path d="M148.732,218.477h115.08v14.687H147.23c-3.982,0-7.211,3.229-7.211,7.211v168.263c0,3.982,3.229,7.211,7.211,7.211
				h227.155c3.982,0,7.211-3.229,7.211-7.211V240.376c0-3.982-3.229-7.211-7.211-7.211h-18.028v-14.687h16.526
				c4.981,0,9.659-1.937,13.175-5.454c3.518-3.517,5.454-8.196,5.454-13.175c0-10.272-8.357-18.629-18.629-18.629h-5.408
				c-3.982,0-7.211,3.229-7.211,7.211s3.229,7.211,7.211,7.211h5.408c2.32,0,4.207,1.887,4.207,4.207
				c0,1.127-0.436,2.184-1.23,2.978c-0.792,0.792-1.85,1.228-2.977,1.228h-16.526v-5.745c0-3.982-3.229-7.211-7.211-7.211h-78.122
				c-3.982,0-7.211,3.229-7.211,7.211v5.745h-115.08c-2.32,0-4.207-1.887-4.207-4.207c0-1.127,0.436-2.185,1.227-2.977
				c0.793-0.793,1.851-1.23,2.979-1.23h5.408c3.982,0,7.211-3.229,7.211-7.211s-3.229-7.211-7.211-7.211h-5.408
				c-4.981,0-9.658,1.936-13.177,5.454c-3.516,3.517-5.452,8.196-5.452,13.175C130.103,210.121,138.46,218.477,148.732,218.477z
				 M278.235,205.521h63.7v87.713h-63.7V205.521z M271.023,307.657h78.122c3.982,0,7.211-3.229,7.211-7.211v-52.859h10.817v153.84
				H154.441v-153.84h109.371v26.682h-82.93c-3.982,0-7.211,3.229-7.211,7.211s3.229,7.211,7.211,7.211h82.93v11.754
				C263.812,304.427,267.042,307.657,271.023,307.657z"/>
			<path d="M173.671,324.507c0,3.982,3.229,7.211,7.211,7.211h159.85c3.982,0,7.211-3.229,7.211-7.211
				c0-3.982-3.229-7.211-7.211-7.211h-159.85C176.901,317.296,173.671,320.525,173.671,324.507z"/>
			<path d="M340.732,360.323h-159.85c-3.982,0-7.211,3.229-7.211,7.211s3.229,7.211,7.211,7.211h159.85
				c3.982,0,7.211-3.229,7.211-7.211S344.714,360.323,340.732,360.323z"/>
		</g>
	</g>
</g>
</svg>