<svg xmlns="http://www.w3.org/2000/svg" xml:space="preserve" width="800" height="800" baseProfile="tiny" version="1.2" viewBox="-63 65 128 128"><path d="M-16.6 136.2h71.8v-5.8H31.1l-.1.2-.6-.2h-47zm-.3-70.1c7.1 0 12.8 5.7 12.8 12.8 0 7.1-5.7 12.8-12.8 12.8S-29.7 86-29.7 78.9c0-7.1 5.7-12.8 12.8-12.8m59.6 27.3-16-12.1-1.9 6.1-9.4-3.1-10.6 32-17.4.2-14.7-24.9c-1.1-2-3.3-3.1-5.8-3.1-.3 0-1.2.1-1.6.2-.3.1-.8.2-1.2.3-10.9 3.6-19.4 20.6-19.4 38.3-.1 5.3 0 9.8.3 14.1-.4 5.1 2.6 10.2 7.6 12 1.4.4 2.6.7 3.9.7h32.3v30.1c0 4.1 3.3 7.3 7.3 7.3 4.1 0 7.3-3.3 7.3-7.3V147c0-1.9-.7-3.8-2.2-5.1-1.5-1.5-3.4-2.3-5.1-2.3h-21.6v-16.1l-11.2-19c-.4-.7-.1-1.8.5-2.2.7-.4 1.8-.1 2.2.5l12.8 22.1c1 1.7 2.7 2.9 4.8 2.9H5.8c2.4 0 4.4-1.6 5.3-3.6l19.2 6.3.7.2.1-.2 12.2-36.9zm-13 34.6-18.2-6c0-2.6-1.9-4.9-4.3-5.4L16.9 87l23.7 7.8z"/></svg>