<svg xmlns="http://www.w3.org/2000/svg" xml:space="preserve" width="800" height="800" viewBox="0 0 512 512"><path d="M253.486 124.13c-74.931 0-135.892 60.961-135.892 135.892 0 74.932 60.961 135.893 135.892 135.893 74.932 0 135.893-60.961 135.893-135.893 0-74.931-60.961-135.892-135.893-135.892m0 264.585c-70.961 0-128.691-57.732-128.691-128.693s57.73-128.691 128.691-128.691c70.962 0 128.693 57.73 128.693 128.691s-57.731 128.693-128.693 128.693"/><path d="M253.487 149.539c-60.921 0-110.484 49.563-110.484 110.482 0 60.921 49.563 110.483 110.484 110.483 60.92 0 110.482-49.563 110.482-110.483.001-60.919-49.562-110.482-110.482-110.482m0 213.766c-56.95 0-103.284-46.332-103.284-103.283 0-56.95 46.334-103.282 103.284-103.282S356.77 203.071 356.77 260.021c0 56.952-46.332 103.284-103.283 103.284M481.648 140.936c0-29.894-18.253-54.213-40.689-54.213s-40.688 24.319-40.688 54.213c0 28.276 16.333 51.552 37.088 53.989v39.019H428.8v186.479h24.316v-186.48h-8.558v-39.019c20.756-2.437 37.09-25.712 37.09-53.988m-35.73 100.208v172.077h-9.917V241.144zm-4.959-53.195c-18.465 0-33.487-21.091-33.487-47.014s15.022-47.014 33.487-47.014c18.466 0 33.489 21.091 33.489 47.014s-15.023 47.014-33.489 47.014M97.256 162.954c0 15.241-11.485 27.843-26.253 29.627V98.366h-7.2v94.215c-14.768-1.784-26.251-14.386-26.251-29.627V98.366h-7.2v64.588c0 19.216 14.704 35.058 33.451 36.874V238.8h-8.558v186.478h24.317V238.8h-8.56v-38.972c18.747-1.816 33.452-17.658 33.452-36.874V98.366h-7.199v64.588zM72.362 246v172.078h-9.917V246z"/></svg>