<svg xmlns="http://www.w3.org/2000/svg" xml:space="preserve" width="800" height="800" viewBox="0 0 371.08 371.08" fill="#7367F0"><path d="m370.235 198.554-45.454-80.227V71.693a6.5 6.5 0 0 0-6.5-6.5h-22.793L280.52 43.585a6.503 6.503 0 0 0-5.344-2.799H95.902a6.501 6.501 0 0 0-5.344 2.799L75.593 65.193H52.799a6.5 6.5 0 0 0-6.5 6.5v46.633L.845 198.554a6.5 6.5 0 0 0 5.656 9.704h20.396v115.536a6.5 6.5 0 1 0 13 0v-70.575h291.287v70.575a6.5 6.5 0 1 0 13 0V208.258h20.396a6.5 6.5 0 0 0 5.655-9.704M279.673 65.193H192.04V53.787h79.732zM99.307 53.787h79.733v11.406H91.406zM59.299 78.193h252.482v36.778H59.299V78.193zm-3.524 49.778H179.04v67.287H17.653zm-15.879 80.287h10.191l-10.191 17.665zm6.761 31.96 18.439-31.96h242.51l17.193 31.96H46.657zm284.526-15.573-8.815-16.387h8.815zM192.04 195.258v-67.287h123.264l38.123 67.287z"/><path d="m123.05 178.074-19.903-6.634c-.213-2.972-1.926-7.107-8.387-11.075-4.711-2.893-11.144-5.204-18.113-6.505-3.965-.741-7.848-1.117-11.54-1.117-11.662 0-19.042 3.706-20.249 10.166-.522 2.792-.142 8.248 8.264 13.41 4.711 2.893 11.144 5.204 18.113 6.505 3.965.741 7.847 1.116 11.539 1.116 6.066 0 10.96-1.011 14.443-2.882l22.354 7.451a5.502 5.502 0 0 0 1.74.284 5.504 5.504 0 0 0 5.217-3.762 5.499 5.499 0 0 0-3.478-6.957m-49.794-6.063c-7.301-1.364-12.438-3.695-15.23-5.584-.81-.548-.561-1.793.39-2.016 1.601-.374 3.823-.669 6.691-.669 3.016 0 6.219.313 9.52.929 7.216 1.348 12.316 3.641 15.129 5.517.5.333.602.993.301 1.513l-.015.025c-.16.281-.406.5-.721.572-1.588.361-3.754.641-6.546.641-3.017.001-6.219-.312-9.519-.928"/><circle cx="142.5" cy="157.794" r="6.222"/></svg>