<?xml version="1.0" ?>
<!DOCTYPE svg  PUBLIC '-//W3C//DTD SVG 1.1//EN'  'http://www.w3.org/Graphics/SVG/1.1/DTD/svg11.dtd'>
<!-- Uploaded to: SVG Repo, www.svgrepo.com, Generator: SVG Repo Mixer Tools -->
<svg fill="#000000" width="800px" height="800px" viewBox="0 0 846.66 846.66" style="shape-rendering:geometricPrecision; text-rendering:geometricPrecision; image-rendering:optimizeQuality; fill-rule:evenodd; clip-rule:evenodd" version="1.1" xml:space="preserve" xmlns="http://www.w3.org/2000/svg" xmlns:xlink="http://www.w3.org/1999/xlink">
<defs>
<style type="text/css">
   <![CDATA[
    .fil0 {fill:black;fill-rule:nonzero}
   ]]>
  </style>
</defs>
<g id="Layer_x0020_1">
<path class="fil0" d="M76.12 96.4l3.41 0 0 -17.04c0,-27.76 22.73,-50.47 50.47,-50.47l168.32 0c27.77,0 50.47,22.73 50.47,50.47l0 17.04 421.75 0c36.58,0 66.52,29.96 66.52,66.52l0 520.82c0,36.58 -29.96,66.51 -66.52,66.51l-421.75 0 0 17.05c0,27.76 -22.73,50.47 -50.47,50.47l-168.32 0c-27.77,0 -50.47,-22.73 -50.47,-50.47l0 -17.05 -3.41 0c-36.58,0 -66.52,-29.95 -66.52,-66.51l0 -520.82c0,-36.63 29.89,-66.52 66.52,-66.52zm44.82 286.94l186.44 0 0 -67.09 -186.44 0 0 67.09zm186.44 41.41l-186.44 0 0 342.55c0,4.98 4.06,9.06 9.06,9.06l168.32 0c5,0 9.06,-4.07 9.06,-9.06l0 -342.55zm-186.44 -149.91l186.44 0 0 -157.73 0 -37.75c0,-4.98 -4.06,-9.06 -9.06,-9.06l-168.32 0c-5,0 -9.06,4.07 -9.06,9.06l0 37.75 0 157.73zm289.13 345.81c-27.24,0 -27.24,-41.41 0,-41.41l56.66 0c27.24,0 27.24,41.41 0,41.41l-56.66 0zm256.19 0c-27.24,0 -27.24,-41.41 0,-41.41l56.66 0c27.24,0 27.24,41.41 0,41.41l-56.66 0zm-128.1 0c-27.23,0 -27.23,-41.41 0,-41.41l56.66 0c27.24,0 27.24,41.41 0,41.41l-56.66 0zm-128.09 -176.01c-27.24,0 -27.24,-41.42 0,-41.42l56.66 0c27.24,0 27.24,41.42 0,41.42l-56.66 0zm256.19 0c-27.24,0 -27.24,-41.42 0,-41.42l56.66 0c27.24,0 27.24,41.42 0,41.42l-56.66 0zm-128.1 0c-27.23,0 -27.23,-41.42 0,-41.42l56.66 0c27.24,0 27.24,41.42 0,41.42l-56.66 0zm-128.09 88c-27.24,0 -27.24,-41.41 0,-41.41l56.66 0c27.24,0 27.24,41.41 0,41.41l-56.66 0zm256.19 0c-27.24,0 -27.24,-41.41 0,-41.41l56.66 0c27.24,0 27.24,41.41 0,41.41l-56.66 0zm-128.1 0c-27.23,0 -27.23,-41.41 0,-41.41l56.66 0c27.24,0 27.24,41.41 0,41.41l-56.66 0zm-129.3 -306.64l318.28 0c11.43,0 20.7,9.28 20.7,20.71l0 89.21c0,11.44 -9.27,20.71 -20.7,20.71l-318.28 0c-11.43,0 -20.7,-9.27 -20.7,-20.71l0 -89.21c0,-11.43 9.27,-20.71 20.7,-20.71zm297.57 41.42l-276.86 0 0 47.8 276.86 0 0 -47.8zm-626.9 -129.61l-3.41 0c-13.76,0 -25.1,11.35 -25.1,25.11l0 520.82c0,13.8 11.27,25.1 25.1,25.1l3.41 0c0,-190.34 0,-380.68 0,-571.03zm691.01 0l-421.75 0c0,190.35 0,380.69 0,571.03l421.75 0c13.8,0 25.11,-11.28 25.11,-25.1l0 -520.82c0,-13.83 -11.28,-25.11 -25.11,-25.11z"/>
</g>
</svg>