<svg xmlns="http://www.w3.org/2000/svg" xml:space="preserve" width="800" height="800" style="shape-rendering:geometricPrecision;text-rendering:geometricPrecision;image-rendering:optimizeQuality;fill-rule:evenodd;clip-rule:evenodd" viewBox="0 0 846.66 846.66"><path d="M76.12 96.4h3.41V79.36c0-27.76 22.73-50.47 50.47-50.47h168.32c27.77 0 50.47 22.73 50.47 50.47V96.4h421.75c36.58 0 66.52 29.96 66.52 66.52v520.82c0 36.58-29.96 66.51-66.52 66.51H348.79v17.05c0 27.76-22.73 50.47-50.47 50.47H130c-27.77 0-50.47-22.73-50.47-50.47v-17.05h-3.41c-36.58 0-66.52-29.95-66.52-66.51V162.92c0-36.63 29.89-66.52 66.52-66.52zm44.82 286.94h186.44v-67.09H120.94v67.09m186.44 41.41H120.94V767.3c0 4.98 4.06 9.06 9.06 9.06h168.32c5 0 9.06-4.07 9.06-9.06V424.75zM120.94 274.84h186.44V79.36c0-4.98-4.06-9.06-9.06-9.06H130c-5 0-9.06 4.07-9.06 9.06v195.48m289.13 345.81c-27.24 0-27.24-41.41 0-41.41h56.66c27.24 0 27.24 41.41 0 41.41h-56.66zm256.19 0c-27.24 0-27.24-41.41 0-41.41h56.66c27.24 0 27.24 41.41 0 41.41h-56.66m-128.1 0c-27.23 0-27.23-41.41 0-41.41h56.66c27.24 0 27.24 41.41 0 41.41h-56.66M410.07 444.64c-27.24 0-27.24-41.42 0-41.42h56.66c27.24 0 27.24 41.42 0 41.42h-56.66m256.19 0c-27.24 0-27.24-41.42 0-41.42h56.66c27.24 0 27.24 41.42 0 41.42h-56.66m-128.1 0c-27.23 0-27.23-41.42 0-41.42h56.66c27.24 0 27.24 41.42 0 41.42h-56.66m-128.09 88c-27.24 0-27.24-41.41 0-41.41h56.66c27.24 0 27.24 41.41 0 41.41h-56.66m256.19 0c-27.24 0-27.24-41.41 0-41.41h56.66c27.24 0 27.24 41.41 0 41.41h-56.66m-128.1 0c-27.23 0-27.23-41.41 0-41.41h56.66c27.24 0 27.24 41.41 0 41.41h-56.66M408.86 226h318.28c11.43 0 20.7 9.28 20.7 20.71v89.21c0 11.44-9.27 20.71-20.7 20.71H408.86c-11.43 0-20.7-9.27-20.7-20.71v-89.21c0-11.43 9.27-20.71 20.7-20.71zm297.57 41.42H429.57v47.8h276.86v-47.8M79.53 137.81h-3.41c-13.76 0-25.1 11.35-25.1 25.11v520.82c0 13.8 11.27 25.1 25.1 25.1h3.41V137.81zm691.01 0H348.79v571.03h421.75c13.8 0 25.11-11.28 25.11-25.1V162.92c0-13.83-11.28-25.11-25.11-25.11z" style="fill:#000;fill-rule:nonzero"/></svg>