<svg xmlns="http://www.w3.org/2000/svg" xml:space="preserve" width="800" height="800" viewBox="0 0 512 512" fill="#7367F0"><path d="M503.983 453.211h-9.086v-26.188a8.017 8.017 0 0 0-8.017-8.017h-77.495v-35.273h26.188a8.017 8.017 0 0 0 3.978-14.977l-55.82-31.896v-26.232l31.856-31.856a8.015 8.015 0 0 0 1.738-8.736 8.002 8.002 0 0 0-4.156-4.247l.005-.011-72.2-32.09v-25.675l31.856-31.856a8.015 8.015 0 0 0 1.738-8.736 7.997 7.997 0 0 0-5.427-4.681l.004-.018c-.699-.178-66.992-17.686-101.122-72.801 7.794-4.27 13.092-12.55 13.092-22.046 0-13.851-11.268-25.119-25.119-25.119s-25.119 11.268-25.119 25.119c0 9.495 5.296 17.775 13.089 22.044-34.06 54.954-100.427 72.624-101.119 72.802l.004.018a8.004 8.004 0 0 0-5.427 4.681 8.015 8.015 0 0 0 1.738 8.736l31.857 31.857v25.675L98.82 265.776l.005.011a8.002 8.002 0 0 0-4.156 4.247 8.015 8.015 0 0 0 1.738 8.736l31.856 31.857v26.232l-55.819 31.897a8.016 8.016 0 0 0 3.977 14.977h26.188v35.273h-77.49a8.017 8.017 0 0 0-8.017 8.017v26.188H8.017a8.017 8.017 0 0 0 0 16.034h495.967a8.017 8.017 0 1 0-.001-16.034M329.64 196.676h-39.97v-18.171h58.141zm-4.696 16.034v18.171H289.67V212.71zM256 58.789c5.01 0 9.086 4.076 9.086 9.086 0 5.01-4.076 9.086-9.086 9.086s-9.086-4.076-9.086-9.086 4.076-9.086 9.086-9.086zm0 42.13c19.546 30.287 47.3 49.732 69.947 61.553H186.053c22.647-11.821 50.401-31.266 69.947-61.553m17.637 77.586v60.927h-35.273v-60.927zm-109.449 0h58.141v18.171h-39.97zm58.142 34.205v18.171h-35.273V212.71zm-41.589 34.204h41.589v.534a8.017 8.017 0 0 0 8.017 8.017h51.307a8.017 8.017 0 0 0 8.017-8.017v-.534h41.589l40.885 18.171H139.856zm-59.308 34.205h269.135l-18.171 18.171H139.604zm246.266 34.205v18.171H144.301v-18.171zm-229.286 34.204h235.175l31.8 18.171H106.614zm75.366 103.683H33.136V435.04h180.643zm68.409-26.188v26.188h-18.171v-43.29a8.017 8.017 0 0 0-16.034 0v43.29h-18.171v-26.188a8.017 8.017 0 0 0-8.017-8.017h-34.739v-9.086a8.017 8.017 0 0 0-16.034 0v9.086h-52.376v-35.273h274.706v35.273h-52.376v-9.086a8.017 8.017 0 0 0-16.034 0v9.086h-34.739a8.017 8.017 0 0 0-8.015 8.017m196.676 26.188H298.221V435.04h180.643v18.171z"/></svg>