<?xml version="1.0" encoding="iso-8859-1"?>
<!-- Uploaded to: SVG Repo, www.svgrepo.com, Generator: SVG Repo Mixer Tools -->
<svg fill="#000000" height="800px" width="800px" version="1.1" id="Layer_1" xmlns="http://www.w3.org/2000/svg" xmlns:xlink="http://www.w3.org/1999/xlink" 
	 viewBox="0 0 512 512" xml:space="preserve">
<g>
	<g>
		<path d="M503.983,453.211h-9.086v-26.188c0-4.427-3.589-8.017-8.017-8.017h-77.495v-35.273h26.188
			c3.635,0,6.815-2.446,7.748-5.959c0.933-3.513-0.615-7.215-3.77-9.018l-55.82-31.896v-26.232l31.856-31.856
			c2.293-2.293,2.979-5.741,1.738-8.736c-0.803-1.938-2.314-3.428-4.156-4.247l0.005-0.011l-72.2-32.09v-25.675l31.856-31.856
			c2.293-2.293,2.979-5.741,1.738-8.736c-0.98-2.368-3.017-4.065-5.427-4.681l0.004-0.018
			c-0.699-0.178-66.992-17.686-101.122-72.801c7.794-4.27,13.092-12.55,13.092-22.046c0-13.851-11.268-25.119-25.119-25.119
			s-25.119,11.268-25.119,25.119c0,9.495,5.296,17.775,13.089,22.044c-34.06,54.954-100.427,72.624-101.119,72.802l0.004,0.018
			c-2.409,0.616-4.446,2.314-5.427,4.681c-1.241,2.996-0.555,6.443,1.738,8.736l31.857,31.857v25.675l-72.199,32.088l0.005,0.011
			c-1.842,0.819-3.353,2.309-4.156,4.247c-1.241,2.996-0.555,6.443,1.738,8.736l31.856,31.857v26.232l-55.819,31.897
			c-3.156,1.803-4.703,5.505-3.77,9.018c0.932,3.513,4.112,5.959,7.747,5.959h26.188v35.273H25.119
			c-4.427,0-8.017,3.589-8.017,8.017v26.188H8.017C3.589,453.211,0,456.8,0,461.228c0,4.427,3.589,8.017,8.017,8.017h495.967
			c4.427,0,8.017-3.589,8.017-8.017C512,456.8,508.411,453.211,503.983,453.211z M329.64,196.676h-39.97v-18.171h58.141
			L329.64,196.676z M324.944,212.71v18.171H289.67V212.71H324.944z M256,58.789c5.01,0,9.086,4.076,9.086,9.086
			c0,5.01-4.076,9.086-9.086,9.086s-9.086-4.076-9.086-9.086S250.99,58.789,256,58.789z M256,100.919
			c19.546,30.287,47.3,49.732,69.947,61.553H186.053C208.7,150.651,236.454,131.206,256,100.919z M273.637,178.505v60.927h-35.273
			v-60.927H273.637z M164.188,178.505h58.141v18.171h-39.97L164.188,178.505z M222.33,212.71v18.171h-35.273V212.71H222.33z
			 M180.741,246.914h41.589v0.534c0,4.427,3.589,8.017,8.017,8.017h51.307c4.427,0,8.017-3.589,8.017-8.017v-0.534h41.589
			l40.885,18.171H139.856L180.741,246.914z M121.433,281.119h269.135l-18.171,18.171H139.604L121.433,281.119z M367.699,315.324
			v18.171H144.301v-18.171H367.699z M138.413,349.528h235.175l31.8,18.171H106.614L138.413,349.528z M213.779,453.211H33.136V435.04
			h180.643V453.211z M282.188,427.023v26.188h-18.171v-43.29c0-4.427-3.589-8.017-8.017-8.017s-8.017,3.589-8.017,8.017v43.29
			h-18.171v-26.188c0-4.427-3.589-8.017-8.017-8.017h-34.739v-9.086c0-4.427-3.589-8.017-8.017-8.017s-8.017,3.589-8.017,8.017
			v9.086h-52.376v-35.273h274.706v35.273h-52.376v-9.086c0-4.427-3.589-8.017-8.017-8.017s-8.017,3.589-8.017,8.017v9.086h-34.739
			C285.777,419.006,282.188,422.596,282.188,427.023z M478.864,453.211H298.221V435.04h180.643V453.211z"/>
	</g>
</g>
</svg>