<svg xmlns="http://www.w3.org/2000/svg" xml:space="preserve" width="800" height="800" viewBox="0 0 32 32" fill="#7367F0"><path d="M24 0H8C6.3 0 5 1.3 5 3v28c0 .6.4 1 1 1h3c.6 0 1-.4 1-1V9c0-.6.4-1 1-1h10c.6 0 1 .4 1 1v22c0 .6.4 1 1 1h3c.6 0 1-.4 1-1V3c0-1.7-1.3-3-3-3M13.7 4.7c-.2.2-.4.3-.7.3-.3 0-.5-.1-.7-.3-.2-.2-.3-.4-.3-.7 0-.3.1-.5.3-.7.4-.4 1-.4 1.4 0 .2.2.3.4.3.7 0 .3-.1.5-.3.7m3 0c-.2.2-.4.3-.7.3-.3 0-.5-.1-.7-.3-.2-.2-.3-.4-.3-.7 0-.3.1-.5.3-.7.4-.4 1-.4 1.4 0 .2.2.3.4.3.7 0 .3-.1.5-.3.7m3 0c-.2.2-.4.3-.7.3-.3 0-.5-.1-.7-.3-.2-.2-.3-.4-.3-.7 0-.3.1-.5.3-.7.4-.4 1-.4 1.4 0 .2.2.3.4.3.7 0 .3-.1.5-.3.7M31 15h-2c-.6 0-1 .4-1 1s.4 1 1 1h2c.6 0 1-.4 1-1s-.4-1-1-1M28.2 14.6c.2 0 .4-.1.6-.2l1.6-1.2c.4-.3.5-1 .2-1.4-.3-.4-.9-.5-1.4-.2l-1.6 1.2c-.4.3-.5 1-.2 1.4.2.3.5.4.8.4M28.8 17.5c-.4-.3-1.1-.2-1.4.2-.3.4-.2 1.1.2 1.4l1.6 1.2c.2.1.4.2.6.2.3 0 .6-.1.8-.4.3-.4.2-1.1-.2-1.4zM4 16c0-.6-.4-1-1-1H1c-.6 0-1 .4-1 1s.4 1 1 1h2c.6 0 1-.4 1-1M2.8 11.7c-.4-.3-1.1-.2-1.4.2-.3.4-.2 1.1.2 1.4l1.6 1.2c.2.1.4.2.6.2.3 0 .6-.1.8-.4.3-.4.2-1.1-.2-1.4zM3.2 17.5l-1.6 1.2c-.4.3-.5 1-.2 1.4.2.3.5.4.8.4.2 0 .4-.1.6-.2l1.6-1.2c.4-.3.5-1 .2-1.4-.3-.4-.9-.5-1.4-.2"/><path d="M20.2 16c-.9-.2-1.8-.4-2.7-.4.9-.5 1.5-1.5 1.5-2.6 0-1.7-1.3-3-3-3s-3 1.3-3 3c0 1.1.6 2.1 1.5 2.6-.9.1-1.8.2-2.7.4-.4.1-.8.5-.8 1v7c0 .6.4 1 1 1h1v6c0 .6.4 1 1 1h4c.6 0 1-.4 1-1v-6h1c.6 0 1-.4 1-1v-7c0-.5-.3-.9-.8-1"/></svg>