<?xml version="1.0" encoding="utf-8"?>

<!-- Uploaded to: SVG Repo, www.svgrepo.com, Generator: SVG Repo Mixer Tools -->
<svg fill="#000000" height="800px" width="800px" version="1.1" id="Icons" xmlns="http://www.w3.org/2000/svg" xmlns:xlink="http://www.w3.org/1999/xlink" 
	 viewBox="0 0 32 32" xml:space="preserve">
<path d="M24,0H8C6.3,0,5,1.3,5,3v28c0,0.6,0.4,1,1,1h3c0.6,0,1-0.4,1-1V9c0-0.6,0.4-1,1-1h10c0.6,0,1,0.4,1,1v22c0,0.6,0.4,1,1,1h3
	c0.6,0,1-0.4,1-1V3C27,1.3,25.7,0,24,0z M13.7,4.7C13.5,4.9,13.3,5,13,5c-0.3,0-0.5-0.1-0.7-0.3C12.1,4.5,12,4.3,12,4
	c0-0.3,0.1-0.5,0.3-0.7c0.4-0.4,1-0.4,1.4,0C13.9,3.5,14,3.7,14,4C14,4.3,13.9,4.5,13.7,4.7z M16.7,4.7C16.5,4.9,16.3,5,16,5
	c-0.3,0-0.5-0.1-0.7-0.3C15.1,4.5,15,4.3,15,4c0-0.3,0.1-0.5,0.3-0.7c0.4-0.4,1-0.4,1.4,0C16.9,3.5,17,3.7,17,4
	C17,4.3,16.9,4.5,16.7,4.7z M19.7,4.7C19.5,4.9,19.3,5,19,5c-0.3,0-0.5-0.1-0.7-0.3C18.1,4.5,18,4.3,18,4c0-0.3,0.1-0.5,0.3-0.7
	c0.4-0.4,1-0.4,1.4,0C19.9,3.5,20,3.7,20,4C20,4.3,19.9,4.5,19.7,4.7z"/>
<path d="M31,15h-2c-0.6,0-1,0.4-1,1s0.4,1,1,1h2c0.6,0,1-0.4,1-1S31.6,15,31,15z"/>
<path d="M28.2,14.6c0.2,0,0.4-0.1,0.6-0.2l1.6-1.2c0.4-0.3,0.5-1,0.2-1.4c-0.3-0.4-0.9-0.5-1.4-0.2l-1.6,1.2c-0.4,0.3-0.5,1-0.2,1.4
	C27.6,14.5,27.9,14.6,28.2,14.6z"/>
<path d="M28.8,17.5c-0.4-0.3-1.1-0.2-1.4,0.2c-0.3,0.4-0.2,1.1,0.2,1.4l1.6,1.2c0.2,0.1,0.4,0.2,0.6,0.2c0.3,0,0.6-0.1,0.8-0.4
	c0.3-0.4,0.2-1.1-0.2-1.4L28.8,17.5z"/>
<path d="M4,16c0-0.6-0.4-1-1-1H1c-0.6,0-1,0.4-1,1s0.4,1,1,1h2C3.6,17,4,16.6,4,16z"/>
<path d="M2.8,11.7c-0.4-0.3-1.1-0.2-1.4,0.2c-0.3,0.4-0.2,1.1,0.2,1.4l1.6,1.2c0.2,0.1,0.4,0.2,0.6,0.2c0.3,0,0.6-0.1,0.8-0.4
	c0.3-0.4,0.2-1.1-0.2-1.4L2.8,11.7z"/>
<path d="M3.2,17.5l-1.6,1.2c-0.4,0.3-0.5,1-0.2,1.4c0.2,0.3,0.5,0.4,0.8,0.4c0.2,0,0.4-0.1,0.6-0.2l1.6-1.2c0.4-0.3,0.5-1,0.2-1.4
	C4.3,17.3,3.7,17.2,3.2,17.5z"/>
<path d="M20.2,16c-0.9-0.2-1.8-0.4-2.7-0.4c0.9-0.5,1.5-1.5,1.5-2.6c0-1.7-1.3-3-3-3s-3,1.3-3,3c0,1.1,0.6,2.1,1.5,2.6
	c-0.9,0.1-1.8,0.2-2.7,0.4c-0.4,0.1-0.8,0.5-0.8,1v7c0,0.6,0.4,1,1,1h1v6c0,0.6,0.4,1,1,1h4c0.6,0,1-0.4,1-1v-6h1c0.6,0,1-0.4,1-1
	v-7C21,16.5,20.7,16.1,20.2,16z"/>
</svg>