<svg xmlns="http://www.w3.org/2000/svg" xml:space="preserve" width="800" height="800" viewBox="0 0 422.207 422.207" fill="#7367F0"><path d="M128.235 259.092h-.215v-26.716c0-14.036-11.418-25.455-25.453-25.455H85.305c-14.036 0-25.455 11.419-25.455 25.455v26.716h-.216c-12.613 0-22.875 10.262-22.875 22.875v117.365c0 12.613 10.262 22.875 22.875 22.875h68.602c12.612 0 22.874-10.262 22.874-22.875V281.967c-.001-12.613-10.262-22.875-22.875-22.875M75.85 232.376c0-5.214 4.241-9.455 9.455-9.455h17.263c5.213 0 9.453 4.241 9.453 9.455v26.716H75.85zm59.259 166.956c0 3.727-3.148 6.875-6.874 6.875H59.634c-3.727 0-6.875-3.148-6.875-6.875V281.967a6.883 6.883 0 0 1 6.875-6.875h68.602c3.726 0 6.874 3.148 6.874 6.875v117.365zM320.411 41.877v10.266h57.037a8 8 0 0 1 0 16h-65.037a8 8 0 0 1-8-8V33.877a8 8 0 0 1 8-8h65.037a8 8 0 0 1 0 16zm52.208 198.395a8.003 8.003 0 0 1 2.088 6.077l-13.884 168.515a8 8 0 0 1-7.973 7.343h-82.633a8 8 0 0 1 0-16h75.265l12.565-152.515h-87.83a8 8 0 0 1 0-16h96.517c2.237 0 4.37.936 5.885 2.58m-94.087-24.418V20.939C278.532 9.394 287.926 0 299.473 0h77.976a8 8 0 0 1 0 16h-77.976a4.945 4.945 0 0 0-4.94 4.939v194.915a8 8 0 0 1-16.001 0m41.879-121.833v10.265h57.037a8 8 0 0 1 0 16h-65.037a8 8 0 0 1-8-8V86.021a8 8 0 0 1 8-8h65.037a8 8 0 0 1 0 16zm-95.81 36.142h-13.339V94.515c0-11.679-6.721-21.818-16.496-26.753V39.967a8 8 0 0 0-8-8h-8.303V8.217A8 8 0 0 0 170.466 0H95.234c-7.703 0-13.97 6.268-13.97 13.971V30.29a8 8 0 0 0 16 0V16h65.198v15.967h-8.3a8 8 0 0 0-8 8v27.795c-9.776 4.936-16.496 15.074-16.496 26.753v35.648h-13.34c-12.612 0-22.873 10.261-22.873 22.874v26.791a8 8 0 0 0 16 0v-26.791c0-3.79 3.083-6.874 6.873-6.874h108.273a6.882 6.882 0 0 1 6.874 6.874v246.295a6.882 6.882 0 0 1-6.874 6.875h-55.104a8 8 0 0 0 0 16h55.104c12.612 0 22.874-10.262 22.874-22.875V153.037c.002-12.613-10.26-22.874-22.872-22.874m-62.438-82.196h16.603v16.602h-16.603zm33.099 82.196h-49.595V94.515c0-7.69 6.256-13.946 13.946-13.946h21.704c7.688 0 13.944 6.256 13.944 13.946v35.648zm190.186 8.001a8 8 0 0 1-8 8h-57.037v69.69a8 8 0 0 1-16 0v-77.69a8 8 0 0 1 8-8h65.037a8 8 0 0 1 8 8"/></svg>