<?xml version="1.0" encoding="utf-8"?>

<!-- Uploaded to: SVG Repo, www.svgrepo.com, Generator: SVG Repo Mixer Tools -->
<svg version="1.1" id="Icons" xmlns="http://www.w3.org/2000/svg" xmlns:xlink="http://www.w3.org/1999/xlink" 
	 viewBox="0 0 32 32" xml:space="preserve">
<style type="text/css">
	.st0{fill:none;stroke:#000000;stroke-width:2;stroke-linecap:round;stroke-linejoin:round;stroke-miterlimit:10;}
</style>
<path class="st0" d="M29,11c0-4.4-2.2-8-5-8H10"/>
<polyline class="st0" points="15,11 15,29 29,29 29,11 "/>
<path class="st0" d="M9,9H4c-0.6,0-1,0.9-1,2s0.4,2,1,2h5c0.6,0,1-0.9,1-2S9.6,9,9,9z"/>
<path class="st0" d="M5.2,9C5.7,5.5,7.7,3,10,3c2.8,0,5,3.6,5,8s-2.2,8-5,8c-2.3,0-4.3-2.5-4.8-6"/>
</svg>