<svg xmlns="http://www.w3.org/2000/svg" xml:space="preserve" width="800" height="800" viewBox="0 0 384.352 384.352" fill="#7367F0"><path d="M235.451 291.673h-8.237l5.767-76.75a8.001 8.001 0 0 0-7.977-8.6H159.35a8 8 0 0 0-7.978 8.6l5.767 76.75h-8.237a8 8 0 0 0 0 16h16.685l.176.002h52.827l.176-.002h16.686a8 8 0 1 0-.001-16m-24.282 0h-37.984l-2.65-35.277h26.096a8 8 0 0 0 0-16h-27.298l-1.358-18.072h48.405zm-89.978 84.679a8 8 0 0 1-8 8H93.093a8 8 0 0 1 0-16h20.098a8 8 0 0 1 8 8m178.068 0a8 8 0 0 1-8 8H271.16a8 8 0 0 1 0-16h20.099a8 8 0 0 1 8 8M122.51 117.832a8 8 0 0 1 8-8h20.854a8 8 0 0 1 0 16H130.51a8 8 0 0 1-8-8zm0 29.837a8 8 0 0 1 8-8h20.854a8 8 0 0 1 0 16H130.51a8 8 0 0 1-8-8M291.259 0H93.093a8 8 0 0 0-8 8v337.201a8 8 0 0 0 8 8h198.166a8 8 0 0 0 8-8V8a8 8 0 0 0-8-8m-8 337.201H101.093V16h182.166zM122.51 58.158a8 8 0 0 1 8-8h20.854a8 8 0 0 1 0 16H130.51a8 8 0 0 1-8-8zm0 29.837a8 8 0 0 1 8-8h20.854a8 8 0 0 1 0 16H130.51a8 8 0 0 1-8-8m99.467 78.176c21.981 0 39.865-17.882 39.865-39.862V97.072c0-19.24-13.705-35.342-31.865-39.056v-10.36a8 8 0 0 0-16 0v10.36c-18.158 3.715-31.86 19.815-31.86 39.056v29.236c0 21.981 17.881 39.863 39.86 39.863m-23.86-69.099c0-10.353 6.627-19.187 15.86-22.482v50.858a8 8 0 0 0 16 0V74.589c9.236 3.296 15.865 12.13 15.865 22.483v29.236c0 13.158-10.706 23.862-23.865 23.862-13.156 0-23.86-10.704-23.86-23.862V97.072z"/></svg>