<?xml version="1.0" encoding="iso-8859-1"?>
<!-- Uploaded to: SVG Repo, www.svgrepo.com, Generator: SVG Repo Mixer Tools -->
<svg fill="#000000" height="800px" width="800px" version="1.1" id="Layer_1" xmlns="http://www.w3.org/2000/svg" xmlns:xlink="http://www.w3.org/1999/xlink" 
	 viewBox="0 0 512 512" xml:space="preserve">
<g>
	<g>
		<g>
			<path d="M221.867,512h68.267V170.667h-68.267V512z M273.067,179.2c4.71,0,8.533,3.823,8.533,8.533
				c0,4.71-3.823,8.533-8.533,8.533s-8.533-3.823-8.533-8.533C264.533,183.023,268.356,179.2,273.067,179.2z M238.933,179.2
				c4.71,0,8.533,3.823,8.533,8.533c0,4.71-3.823,8.533-8.533,8.533s-8.533-3.823-8.533-8.533
				C230.4,183.023,234.223,179.2,238.933,179.2z"/>
			<path d="M307.2,512h68.267V0H307.2V512z M358.4,25.6c4.71,0,8.533,3.823,8.533,8.533s-3.823,8.533-8.533,8.533
				c-4.71,0-8.533-3.823-8.533-8.533S353.69,25.6,358.4,25.6z M358.4,469.333c4.71,0,8.533,3.823,8.533,8.533
				s-3.823,8.533-8.533,8.533c-4.71,0-8.533-3.823-8.533-8.533S353.69,469.333,358.4,469.333z M324.267,25.6
				c4.71,0,8.533,3.823,8.533,8.533s-3.823,8.533-8.533,8.533s-8.533-3.823-8.533-8.533S319.556,25.6,324.267,25.6z
				 M324.267,469.333c4.71,0,8.533,3.823,8.533,8.533s-3.823,8.533-8.533,8.533s-8.533-3.823-8.533-8.533
				S319.556,469.333,324.267,469.333z"/>
			<path d="M136.533,332.8H204.8V0h-68.267V332.8z M187.733,307.2c4.71,0,8.533,3.823,8.533,8.533c0,4.71-3.823,8.533-8.533,8.533
				c-4.71,0-8.533-3.823-8.533-8.533C179.2,311.023,183.023,307.2,187.733,307.2z M153.6,307.2c4.71,0,8.533,3.823,8.533,8.533
				c0,4.71-3.823,8.533-8.533,8.533s-8.533-3.823-8.533-8.533C145.067,311.023,148.89,307.2,153.6,307.2z"/>
			<path d="M136.533,512H204.8V349.867h-68.267V512z M187.733,358.4c4.71,0,8.533,3.823,8.533,8.533c0,4.71-3.823,8.533-8.533,8.533
				c-4.71,0-8.533-3.823-8.533-8.533C179.2,362.223,183.023,358.4,187.733,358.4z M153.6,358.4c4.71,0,8.533,3.823,8.533,8.533
				c0,4.71-3.823,8.533-8.533,8.533s-8.533-3.823-8.533-8.533C145.067,362.223,148.89,358.4,153.6,358.4z"/>
			<path d="M469.333,0h-76.8v238.933h85.333V8.533C477.867,3.814,474.052,0,469.333,0z M409.6,230.4
				c-4.71,0-8.533-3.823-8.533-8.533s3.823-8.533,8.533-8.533s8.533,3.823,8.533,8.533S414.31,230.4,409.6,230.4z M443.733,230.4
				c-4.71,0-8.533-3.823-8.533-8.533s3.823-8.533,8.533-8.533s8.533,3.823,8.533,8.533S448.444,230.4,443.733,230.4z"/>
			<path d="M34.133,8.533v494.933c0,4.719,3.814,8.533,8.533,8.533h76.8V0h-76.8C37.948,0,34.133,3.814,34.133,8.533z M102.4,25.6
				c4.71,0,8.533,3.823,8.533,8.533s-3.823,8.533-8.533,8.533s-8.533-3.823-8.533-8.533S97.69,25.6,102.4,25.6z M102.4,469.333
				c4.71,0,8.533,3.823,8.533,8.533s-3.823,8.533-8.533,8.533s-8.533-3.823-8.533-8.533S97.69,469.333,102.4,469.333z M68.267,25.6
				c4.71,0,8.533,3.823,8.533,8.533s-3.823,8.533-8.533,8.533c-4.71,0-8.533-3.823-8.533-8.533S63.556,25.6,68.267,25.6z
				 M68.267,469.333c4.71,0,8.533,3.823,8.533,8.533s-3.823,8.533-8.533,8.533c-4.71,0-8.533-3.823-8.533-8.533
				S63.556,469.333,68.267,469.333z"/>
			<path d="M392.533,512h76.8c4.719,0,8.533-3.814,8.533-8.533V256h-85.333V512z M443.733,264.533c4.71,0,8.533,3.823,8.533,8.533
				s-3.823,8.533-8.533,8.533s-8.533-3.823-8.533-8.533S439.023,264.533,443.733,264.533z M409.6,264.533
				c4.71,0,8.533,3.823,8.533,8.533s-3.823,8.533-8.533,8.533s-8.533-3.823-8.533-8.533S404.89,264.533,409.6,264.533z"/>
			<path d="M221.867,153.6h68.267V0h-68.267V153.6z M273.067,128c4.71,0,8.533,3.823,8.533,8.533c0,4.71-3.823,8.533-8.533,8.533
				s-8.533-3.823-8.533-8.533C264.533,131.823,268.356,128,273.067,128z M238.933,128c4.71,0,8.533,3.823,8.533,8.533
				c0,4.71-3.823,8.533-8.533,8.533s-8.533-3.823-8.533-8.533C230.4,131.823,234.223,128,238.933,128z"/>
		</g>
	</g>
</g>
</svg>