<svg xmlns="http://www.w3.org/2000/svg" xml:space="preserve" width="800" height="800" viewBox="0 0 512 512" fill="#7367F0"><path d="M221.867 512h68.267V170.667h-68.267V512zm51.2-332.8a8.536 8.536 0 0 1 8.533 8.533c0 4.71-3.823 8.533-8.533 8.533s-8.533-3.823-8.533-8.533c-.001-4.71 3.822-8.533 8.533-8.533m-34.134 0a8.536 8.536 0 0 1 8.533 8.533c0 4.71-3.823 8.533-8.533 8.533s-8.533-3.823-8.533-8.533a8.536 8.536 0 0 1 8.533-8.533M307.2 512h68.267V0H307.2zm51.2-486.4c4.71 0 8.533 3.823 8.533 8.533s-3.823 8.533-8.533 8.533c-4.71 0-8.533-3.823-8.533-8.533S353.69 25.6 358.4 25.6zm0 443.733c4.71 0 8.533 3.823 8.533 8.533s-3.823 8.533-8.533 8.533c-4.71 0-8.533-3.823-8.533-8.533s3.823-8.533 8.533-8.533M324.267 25.6c4.71 0 8.533 3.823 8.533 8.533s-3.823 8.533-8.533 8.533-8.533-3.823-8.533-8.533 3.822-8.533 8.533-8.533zm0 443.733c4.71 0 8.533 3.823 8.533 8.533s-3.823 8.533-8.533 8.533-8.533-3.823-8.533-8.533 3.822-8.533 8.533-8.533M136.533 332.8H204.8V0h-68.267v332.8zm51.2-25.6a8.536 8.536 0 0 1 8.533 8.533 8.536 8.536 0 0 1-8.533 8.533 8.536 8.536 0 0 1-8.533-8.533 8.536 8.536 0 0 1 8.533-8.533m-34.133 0a8.536 8.536 0 0 1 8.533 8.533c0 4.71-3.823 8.533-8.533 8.533s-8.533-3.823-8.533-8.533a8.536 8.536 0 0 1 8.533-8.533M136.533 512H204.8V349.867h-68.267V512zm51.2-153.6a8.536 8.536 0 0 1 8.533 8.533 8.536 8.536 0 0 1-8.533 8.533 8.536 8.536 0 0 1-8.533-8.533 8.536 8.536 0 0 1 8.533-8.533m-34.133 0a8.536 8.536 0 0 1 8.533 8.533c0 4.71-3.823 8.533-8.533 8.533s-8.533-3.823-8.533-8.533a8.536 8.536 0 0 1 8.533-8.533M469.333 0h-76.8v238.933h85.333V8.533A8.524 8.524 0 0 0 469.333 0M409.6 230.4c-4.71 0-8.533-3.823-8.533-8.533s3.823-8.533 8.533-8.533 8.533 3.823 8.533 8.533-3.823 8.533-8.533 8.533m34.133 0c-4.71 0-8.533-3.823-8.533-8.533s3.823-8.533 8.533-8.533 8.533 3.823 8.533 8.533-3.822 8.533-8.533 8.533M34.133 8.533v494.933a8.525 8.525 0 0 0 8.533 8.533h76.8V0h-76.8a8.526 8.526 0 0 0-8.533 8.533M102.4 25.6c4.71 0 8.533 3.823 8.533 8.533s-3.823 8.533-8.533 8.533-8.533-3.823-8.533-8.533S97.69 25.6 102.4 25.6m0 443.733c4.71 0 8.533 3.823 8.533 8.533s-3.823 8.533-8.533 8.533-8.533-3.823-8.533-8.533 3.823-8.533 8.533-8.533M68.267 25.6c4.71 0 8.533 3.823 8.533 8.533s-3.823 8.533-8.533 8.533c-4.71 0-8.533-3.823-8.533-8.533s3.822-8.533 8.533-8.533zm0 443.733c4.71 0 8.533 3.823 8.533 8.533s-3.823 8.533-8.533 8.533c-4.71 0-8.533-3.823-8.533-8.533s3.822-8.533 8.533-8.533M392.533 512h76.8a8.525 8.525 0 0 0 8.533-8.533V256h-85.333zm51.2-247.467c4.71 0 8.533 3.823 8.533 8.533s-3.823 8.533-8.533 8.533-8.533-3.823-8.533-8.533 3.823-8.533 8.533-8.533m-34.133 0c4.71 0 8.533 3.823 8.533 8.533s-3.823 8.533-8.533 8.533-8.533-3.823-8.533-8.533 3.823-8.533 8.533-8.533M221.867 153.6h68.267V0h-68.267v153.6zm51.2-25.6a8.536 8.536 0 0 1 8.533 8.533c0 4.71-3.823 8.533-8.533 8.533s-8.533-3.823-8.533-8.533c-.001-4.71 3.822-8.533 8.533-8.533m-34.134 0a8.536 8.536 0 0 1 8.533 8.533c0 4.71-3.823 8.533-8.533 8.533s-8.533-3.823-8.533-8.533a8.536 8.536 0 0 1 8.533-8.533"/></svg>