<?xml version="1.0" encoding="iso-8859-1"?>
<!-- Uploaded to: SVG Repo, www.svgrepo.com, Generator: SVG Repo Mixer Tools -->
<svg fill="#000000" height="800px" width="800px" version="1.1" id="Layer_1" xmlns="http://www.w3.org/2000/svg" xmlns:xlink="http://www.w3.org/1999/xlink" 
	 viewBox="0 0 500 500" xml:space="preserve">
<g>
	<g>
		<path d="M496,165.956H214.856c-2.208,0-4,1.788-4,4c0,2.212,1.792,4,4,4H492v15.428H214.856c-2.208,0-4,1.788-4,4
			c0,2.212,1.792,4,4,4H496c2.208,0,4-1.792,4-4v-23.428C500,167.744,498.208,165.956,496,165.956z"/>
	</g>
</g>
<g>
	<g>
		<path d="M89.904,189.384H27.428c-2.208,0-4,1.788-4,4v195.14H8V173.952h81.904c2.208,0,4-1.788,4-4c0-2.212-1.792-4-4-4H4
			c-2.208,0-4,1.788-4,4v222.572c0,2.212,1.792,4,4,4h23.428c2.208,0,4-1.788,4-4v-195.14h58.476c2.208,0,4-1.788,4-4
			C93.904,191.172,92.112,189.384,89.904,189.384z"/>
	</g>
</g>
<g>
	<g>
		<path d="M200.356,103.476H106.64c-12.208,0-20.736,6.876-20.736,16.716v132.76c0,10.204,9.248,22.524,20.736,22.524h30.12
			c2.208,0,4-1.788,4-4c0-2.212-1.792-4-4-4h-30.12c-5.952,0-12.736-7.74-12.736-14.524v-132.76c0-6.436,6.86-8.716,12.736-8.716
			h93.716c6.968,0,10.5,2.936,10.5,8.716v132.76c0,6.716-4.584,14.524-10.5,14.524H168c-2.208,0-4,1.788-4,4c0,2.212,1.792,4,4,4
			h32.356c10.904,0,18.5-11.872,18.5-22.524v-132.76C218.856,109.884,211.768,103.476,200.356,103.476z"/>
	</g>
</g>
<g>
	<g>
		<path d="M200.356,287.004h-36.26c-2.208,0-4,1.788-4,4c0,2.212,1.792,4,4,4h36.26c6.408,0,11.62,5.212,11.62,11.616
			s-5.212,11.62-11.62,11.62H106.64c-6.408,0-11.62-5.216-11.62-11.62s5.212-11.616,11.62-11.616h34.024c2.208,0,4-1.788,4-4
			c0-2.212-1.792-4-4-4H106.64c-10.82,0-19.62,8.8-19.62,19.616c0,10.82,8.8,19.62,19.62,19.62h93.716
			c10.816,0,19.62-8.804,19.62-19.62C219.976,295.804,211.176,287.004,200.356,287.004z"/>
	</g>
</g>
<g>
	<g>
		<path d="M152.384,198.192c-8.668,0-15.716,7.048-15.716,15.712v92.712c0,2.212,1.792,4,4,4h23.428c2.208,0,4-1.788,4.004-3.996
			v-92.716C168.1,205.24,161.052,198.192,152.384,198.192z M160.096,302.616h-15.428h-0.004v-88.712c0-4.252,3.46-7.712,7.716-7.712
			s7.716,3.464,7.716,7.712V302.616z"/>
	</g>
</g>
<g>
	<g>
		<path d="M160.192,318.24c-2.208,0-4,1.788-4,4v50.668h-7.62V322.24c0-2.212-1.792-4-4-4s-4,1.788-4,4v54.668c0,2.212,1.792,4,4,4
			h15.62c2.208,0,4-1.792,4-4V322.24C164.192,320.028,162.4,318.24,160.192,318.24z"/>
	</g>
</g>
<g>
	<g>
		<path d="M199.048,372.908H109.62c-2.208,0-4,1.788-4,4c0,2.212,1.792,4,4,4h89.428c2.208,0,4-1.788,4-4
			C203.048,374.696,201.256,372.908,199.048,372.908z"/>
	</g>
</g>
<g>
	<g>
		<path d="M102.736,370c-6.512,0-11.808,5.296-11.808,11.808s5.296,11.808,11.808,11.808c6.512,0,11.808-5.296,11.808-11.808
			S109.248,370,102.736,370z M102.736,385.616c-2.1,0-3.808-1.708-3.808-3.808c0-2.1,1.708-3.808,3.808-3.808
			c2.1,0,3.808,1.708,3.808,3.808C106.544,383.908,104.836,385.616,102.736,385.616z"/>
	</g>
</g>
<g>
	<g>
		<path d="M208.164,370c-6.512,0-11.808,5.296-11.808,11.808s5.296,11.808,11.808,11.808c6.512,0,11.812-5.296,11.812-11.808
			S214.676,370,208.164,370z M208.164,385.616c-2.1,0-3.808-1.708-3.808-3.808c0-2.1,1.708-3.808,3.808-3.808
			c2.1,0,3.812,1.708,3.812,3.808C211.976,383.908,210.264,385.616,208.164,385.616z"/>
	</g>
</g>
<g>
	<g>
		<path d="M476.476,251.856H304.668c-2.208,0-4,1.788-4,4c0,2.212,1.792,4,4,4h171.808c2.208,0,4-1.788,4-4
			C480.476,253.644,478.684,251.856,476.476,251.856z"/>
	</g>
</g>
<g>
	<g>
		<path d="M425.716,287h-50.76c-2.208,0-4,1.788-4,4c0,2.212,1.792,4,4,4h50.76c2.208,0,4-1.788,4-4
			C429.716,288.788,427.924,287,425.716,287z"/>
	</g>
</g>
<g>
	<g>
		<path d="M425.716,220.616h-50.76c-2.208,0-4,1.788-4,4c0,2.212,1.792,4,4,4h50.76c2.208,0,4-1.788,4-4
			C429.716,222.404,427.924,220.616,425.716,220.616z"/>
	</g>
</g>
<g>
	<g>
		<path d="M425.716,357.284h-50.76c-2.208,0-4,1.788-4,4c0,2.212,1.792,4,4,4h50.76c2.208,0,4-1.788,4-4
			C429.716,359.072,427.924,357.284,425.716,357.284z"/>
	</g>
</g>
<g>
	<g>
		<path d="M476.476,322.144H304.668c-2.208,0-4,1.788-4,4c0,2.212,1.792,4,4,4h171.808c2.208,0,4-1.788,4-4
			C480.476,323.932,478.684,322.144,476.476,322.144z"/>
	</g>
</g>
<g>
	<g>
		<path d="M496,189.384H304.668c-2.208,0-4,1.788-4,4v199.14c0,2.212,1.792,4,4,4H496c2.208,0,4-1.788,4-4v-199.14
			C500,191.172,498.208,189.384,496,189.384z M492,388.524H308.668v-191.14H492V388.524z"/>
	</g>
</g>
</svg>