<svg xmlns="http://www.w3.org/2000/svg" xml:space="preserve" width="800" height="800" viewBox="0 0 500 500" fill="#7367F0"><path d="M496 165.956H214.856c-2.208 0-4 1.788-4 4 0 2.212 1.792 4 4 4H492v15.428H214.856c-2.208 0-4 1.788-4 4 0 2.212 1.792 4 4 4H496c2.208 0 4-1.792 4-4v-23.428c0-2.212-1.792-4-4-4M89.904 189.384H27.428c-2.208 0-4 1.788-4 4v195.14H8V173.952h81.904c2.208 0 4-1.788 4-4 0-2.212-1.792-4-4-4H4c-2.208 0-4 1.788-4 4v222.572c0 2.212 1.792 4 4 4h23.428c2.208 0 4-1.788 4-4v-195.14h58.476c2.208 0 4-1.788 4-4 0-2.212-1.792-4-4-4"/><path d="M200.356 103.476H106.64c-12.208 0-20.736 6.876-20.736 16.716v132.76c0 10.204 9.248 22.524 20.736 22.524h30.12c2.208 0 4-1.788 4-4 0-2.212-1.792-4-4-4h-30.12c-5.952 0-12.736-7.74-12.736-14.524v-132.76c0-6.436 6.86-8.716 12.736-8.716h93.716c6.968 0 10.5 2.936 10.5 8.716v132.76c0 6.716-4.584 14.524-10.5 14.524H168c-2.208 0-4 1.788-4 4 0 2.212 1.792 4 4 4h32.356c10.904 0 18.5-11.872 18.5-22.524v-132.76c0-10.308-7.088-16.716-18.5-16.716M200.356 287.004h-36.26c-2.208 0-4 1.788-4 4 0 2.212 1.792 4 4 4h36.26c6.408 0 11.62 5.212 11.62 11.616s-5.212 11.62-11.62 11.62H106.64c-6.408 0-11.62-5.216-11.62-11.62s5.212-11.616 11.62-11.616h34.024c2.208 0 4-1.788 4-4 0-2.212-1.792-4-4-4H106.64c-10.82 0-19.62 8.8-19.62 19.616 0 10.82 8.8 19.62 19.62 19.62h93.716c10.816 0 19.62-8.804 19.62-19.62s-8.8-19.616-19.62-19.616"/><path d="M152.384 198.192c-8.668 0-15.716 7.048-15.716 15.712v92.712c0 2.212 1.792 4 4 4h23.428c2.208 0 4-1.788 4.004-3.996v-92.716c0-8.664-7.048-15.712-15.716-15.712m7.712 104.424h-15.432v-88.712c0-4.252 3.46-7.712 7.716-7.712s7.716 3.464 7.716 7.712v88.712zM160.192 318.24c-2.208 0-4 1.788-4 4v50.668h-7.62V322.24c0-2.212-1.792-4-4-4s-4 1.788-4 4v54.668c0 2.212 1.792 4 4 4h15.62c2.208 0 4-1.792 4-4V322.24c0-2.212-1.792-4-4-4"/><path d="M199.048 372.908H109.62c-2.208 0-4 1.788-4 4 0 2.212 1.792 4 4 4h89.428c2.208 0 4-1.788 4-4 0-2.212-1.792-4-4-4"/><path d="M102.736 370c-6.512 0-11.808 5.296-11.808 11.808s5.296 11.808 11.808 11.808 11.808-5.296 11.808-11.808S109.248 370 102.736 370m0 15.616a3.812 3.812 0 0 1-3.808-3.808c0-2.1 1.708-3.808 3.808-3.808 2.1 0 3.808 1.708 3.808 3.808 0 2.1-1.708 3.808-3.808 3.808M208.164 370c-6.512 0-11.808 5.296-11.808 11.808s5.296 11.808 11.808 11.808 11.812-5.296 11.812-11.808S214.676 370 208.164 370m0 15.616a3.812 3.812 0 0 1-3.808-3.808c0-2.1 1.708-3.808 3.808-3.808 2.1 0 3.812 1.708 3.812 3.808 0 2.1-1.712 3.808-3.812 3.808M476.476 251.856H304.668c-2.208 0-4 1.788-4 4 0 2.212 1.792 4 4 4h171.808c2.208 0 4-1.788 4-4 0-2.212-1.792-4-4-4M425.716 287h-50.76c-2.208 0-4 1.788-4 4 0 2.212 1.792 4 4 4h50.76c2.208 0 4-1.788 4-4 0-2.212-1.792-4-4-4M425.716 220.616h-50.76c-2.208 0-4 1.788-4 4 0 2.212 1.792 4 4 4h50.76c2.208 0 4-1.788 4-4 0-2.212-1.792-4-4-4M425.716 357.284h-50.76c-2.208 0-4 1.788-4 4 0 2.212 1.792 4 4 4h50.76c2.208 0 4-1.788 4-4 0-2.212-1.792-4-4-4M476.476 322.144H304.668c-2.208 0-4 1.788-4 4 0 2.212 1.792 4 4 4h171.808c2.208 0 4-1.788 4-4 0-2.212-1.792-4-4-4"/><path d="M496 189.384H304.668c-2.208 0-4 1.788-4 4v199.14c0 2.212 1.792 4 4 4H496c2.208 0 4-1.788 4-4v-199.14c0-2.212-1.792-4-4-4m-4 199.14H308.668v-191.14H492z"/></svg>