<?xml version="1.0" encoding="iso-8859-1"?>
<!-- Uploaded to: SVG Repo, www.svgrepo.com, Generator: SVG Repo Mixer Tools -->
<!DOCTYPE svg PUBLIC "-//W3C//DTD SVG 1.1//EN" "http://www.w3.org/Graphics/SVG/1.1/DTD/svg11.dtd">
<svg fill="#000000" height="800px" width="800px" version="1.1" id="Capa_1" xmlns="http://www.w3.org/2000/svg" xmlns:xlink="http://www.w3.org/1999/xlink" 
	 viewBox="0 0 297 297" xml:space="preserve">
<g>
	<path d="M216.476,143.397c-4.623-15.671-3.918-39.993,1.603-55.371l2.191-6.101c-12.612-29.163-3.775-63.992-3.378-65.514
		c0.939-3.604,0.689-6.693-0.684-8.473c-1.423-1.841-3.987-2.225-5.891-2.225c-0.955,0-1.987,0.099-3.058,0.289l-9.487,1.715
		c-3.232,22.336-21.005,30.468-21.834,30.834c-7.464,3.303-17.238,5.119-27.521,5.119c-10.288,0-20.063-1.816-27.525-5.119
		c-0.83-0.366-18.604-8.498-21.833-30.834l-9.488-1.715c-1.073-0.19-2.102-0.289-3.06-0.289c-1.905,0-4.472,0.385-5.889,2.224
		c-1.375,1.781-1.626,4.871-0.684,8.475c0.396,1.521,9.231,36.351-3.379,65.514l2.191,6.101c5.521,15.378,6.227,39.7,1.604,55.371
		L40.759,277.569c-1.211,4.116-0.812,7.444,1.139,10.05c1.947,2.609,5.38,3.668,9.668,3.668h193.7c4.285,0,7.722-1.059,9.666-3.668
		c1.948-2.605,2.355-6.119,1.138-10.235L216.476,143.397z"/>
	<path d="M233.473,19.604c-0.074,0.274-6.571,26.223-0.228,48.519l30.885,87.479c0.673-0.35,2.177-1.548,3.947-4.445l25.654-42.033
		c5.502-9.012,3.872-23.56-3.489-31.132L233.473,19.604z"/>
	<path d="M63.528,19.604L6.758,77.992c-7.36,7.572-8.992,22.12-3.488,31.132l25.654,42.033c1.77,2.897,3.275,4.096,3.947,4.445
		l30.885-87.479C70.097,45.827,63.602,19.879,63.528,19.604z"/>
</g>
</svg>