<svg xmlns="http://www.w3.org/2000/svg" xml:space="preserve" width="800" height="800" viewBox="0 0 297 297" fill="#7367F0"><path d="M216.476 143.397c-4.623-15.671-3.918-39.993 1.603-55.371l2.191-6.101c-12.612-29.163-3.775-63.992-3.378-65.514.939-3.604.689-6.693-.684-8.473-1.423-1.841-3.987-2.225-5.891-2.225-.955 0-1.987.099-3.058.289l-9.487 1.715c-3.232 22.336-21.005 30.468-21.834 30.834-7.464 3.303-17.238 5.119-27.521 5.119-10.288 0-20.063-1.816-27.525-5.119-.83-.366-18.604-8.498-21.833-30.834l-9.488-1.715a17.672 17.672 0 0 0-3.06-.289c-1.905 0-4.472.385-5.889 2.224-1.375 1.781-1.626 4.871-.684 8.475.396 1.521 9.231 36.351-3.379 65.514l2.191 6.101c5.521 15.378 6.227 39.7 1.604 55.371L40.759 277.569c-1.211 4.116-.812 7.444 1.139 10.05 1.947 2.609 5.38 3.668 9.668 3.668h193.7c4.285 0 7.722-1.059 9.666-3.668 1.948-2.605 2.355-6.119 1.138-10.235zM233.473 19.604c-.074.274-6.571 26.223-.228 48.519l30.885 87.479c.673-.35 2.177-1.548 3.947-4.445l25.654-42.033c5.502-9.012 3.872-23.56-3.489-31.132zM63.528 19.604 6.758 77.992c-7.36 7.572-8.992 22.12-3.488 31.132l25.654 42.033c1.77 2.897 3.275 4.096 3.947 4.445l30.885-87.479c6.341-22.296-.154-48.244-.228-48.519"/></svg>