<?xml version="1.0" encoding="utf-8"?>
<!-- Generator: Adobe Illustrator 26.3.1, SVG Export Plug-In . SVG Version: 6.00 Build 0)  -->
<svg version="1.1" id="Layer_1" xmlns="http://www.w3.org/2000/svg" xmlns:xlink="http://www.w3.org/1999/xlink" x="0px" y="0px"
	 viewBox="0 0 595.3 595.3" style="enable-background:new 0 0 595.3 595.3;" xml:space="preserve">
<style type="text/css">
	.st0{fill:#FFFFFF;}
	.st1{fill:#F79D11;}
	.st2{fill:#0383DF;}
	.st3{fill:#9436D4;}
	.st4{fill:#FF0101;}
	.st5{fill:#1AAC5B;}
	.st6{fill:#929292;}
</style>
<path class="st0" d="M297.6,595.3L297.6,595.3C133.3,595.3,0,462,0,297.6l0,0C0,133.3,133.3,0,297.6,0l0,0
	C462,0,595.3,133.3,595.3,297.6l0,0C595.3,462,462,595.3,297.6,595.3z"/>
<g>
	<g>
		<path class="st1" d="M201.8,486.4c-0.1-0.2-0.3-0.2-0.5-0.2c-3.5-0.4-6.8-1.4-9.9-3c-4.6-2.5-8.2-6.1-11-10.5
			c-2.2-3.4-3.4-7.2-3.7-11.3c-0.4-5.1,0.4-10.1,2.8-14.7c3.1-6.2,7.8-10.7,14.2-13.5c3.6-1.6,7.4-1.9,11.3-1.8
			c2.1,0.1,4.1,0.3,6.1,0.6c2.8,0.5,5.3,1.6,7.7,3.1c5.1,3.3,9.1,7.6,11.4,13.3c1.7,4.2,2.2,8.6,1.8,13.2c-0.7,6.6-3.4,12.3-8.2,17
			c-3.9,3.8-8.6,6.1-13.9,7.1c-0.7,0.2-1.4,0.2-2.2,0.3c-0.2,0-0.3,0-0.3,0.2C205.4,486.4,203.6,486.4,201.8,486.4z"/>
		<path class="st2" d="M506.7,460.3c-0.2,0.1-0.2,0.3-0.2,0.5c-0.2,4.2-1.4,8.1-3.5,11.7c-4.3,7.4-10.8,11.8-19.2,13.3
			c-7.4,1.2-14.4-0.2-20.6-4.7c-5.4-3.8-9.3-9-11-15.5c-1.8-7.1-1-14,2.8-20.5c3.4-5.8,8.1-10.1,14.3-12.6c2.2-0.8,4.4-1.3,6.6-1.4
			c3.6-0.1,7.1,0.1,10.6,0.9c2.6,0.6,4.9,1.7,7,3c4.4,2.8,7.9,6.5,10.2,11.2c1.3,2.6,2.1,5.4,2.5,8.2c0.1,0.5,0.1,1,0.1,1.6
			c0,0.2,0,0.3,0.2,0.5C506.7,457.8,506.7,459,506.7,460.3z"/>
		<path class="st3" d="M360,459.5c0-7.2,2.2-13,6.2-18.2c2.6-3.3,5.8-5.9,9.6-7.8c2.6-1.3,5.3-2.1,8.2-2.2c4.2-0.2,8.4,0.1,12.5,1.1
			c2.2,0.6,4.1,1.6,5.9,2.8c5,3.2,8.9,7.5,11,13c1,2.6,1.6,5.4,1.8,8.2c0.4,5.2-0.6,10.1-2.9,14.6c-4.1,8-10.6,12.9-19.4,14.6
			c-6.6,1.3-13,0.2-18.9-3.1c-3.7-2.1-6.7-5-9.2-8.4c-2.3-3.2-3.8-6.6-4.6-10.5C360.2,462,359.9,460.4,360,459.5z"/>
		<path class="st4" d="M115.3,431.2c2.4,0,4.8,0.2,7.3,0.6c3,0.5,5.7,1.7,8.2,3.3c5.1,3.2,9,7.5,11.2,13.2c3.8,9.8,1.8,21.2-5.2,29
			c-4.2,4.7-9.5,7.5-15.8,8.6c-6.4,1-12.5,0-18.2-3.1c-3.8-2.2-7-5.1-9.5-8.8c-2.2-3.1-3.7-6.6-4.3-10.3c-1-6.6-0.1-12.7,3.3-18.5
			c2.9-5,6.9-8.9,12.1-11.5C107.6,431.8,110.6,431,115.3,431.2z"/>
		<path class="st5" d="M295.8,486.2c-7.7-0.1-14.2-2.7-19.7-8.2c-3.7-3.8-6.4-8.1-7.5-13.3c-1.8-8.5,0.1-16.2,5.4-23.1
			c2.6-3.4,5.9-6.2,9.8-8.1c3-1.5,6.2-2.3,9.7-2.3c2.7,0,5.5,0.2,8.2,0.6c3,0.5,5.8,1.6,8.4,3.3c4.9,3.1,8.6,7.1,11,12.5
			c1.2,2.8,1.9,5.8,2.2,8.9c0.5,7.5-1.6,14.2-6.3,20c-3.1,3.8-7,6.5-11.7,8.1C301.9,485.8,299.2,486.2,295.8,486.2z"/>
	</g>
	<path class="st6" d="M425.3,342.7c-2-8.2-4.3-16.5-5.5-24.7c-2.4-13.7-2.7-27.5-3.1-41.6c-0.8-12.6-0.4-25.5-0.8-38.1
		c-0.4-22-0.8-44-3.5-66c-3.5-24.3-18.3-39.4-37.7-53c-24.5-17.1-103.5-15.9-135.5-5.1c-16.9,5.9-31.8,14.1-44,27.9
		c-10.6,12.2-16.9,25.9-15.7,42.4c0.4,7.9,3.5,14.9,10.6,18.8c8.2,4.7,17.3,4.7,26.3,3.1c2.4-0.4,4.3-2,5.9-3.5
		c1.6-1.6,3.1-3.1,4.3-4.7c5.1-6.3,9.8-12.6,14.9-18.8c8.6-11.4,19.6-18.8,33.8-22c8.6-1.6,16.9-2,25.5-2.4
		c10.6-0.4,20.4,3.1,30.2,7.9c5.1,2.7,9,6.7,11,12.2c2.7,7.9,5.1,16.1,7.1,24.3c1.2,4.7,0.4,5.9-4.3,7.9c-6.3,2.7-13,4.3-19.6,5.9
		c-27.5,6.7-55.4,12.6-83.2,18.8c-14.1,3.1-27.5,7.5-40.4,14.5c-12.2,6.7-22,16.1-27.5,29.1c-2.7,6.7-4.7,13.3-5.5,20.8
		c0,1.2,0.4,2.7-1.6,2.7c0,0.4,0,1.2,0,1.6c1.2,0.8,0.8,1.6,0,2.7c0,5.9,0,12.2,0,18.1c1.2,0.8,1.2,2,1.2,3.1c1.2,8.2,5.1,15.3,9,22
		c4.7,8.6,11.4,15.7,18.8,21.6c15.7,11.8,33.8,16.9,53,17.7c8.6,0.4,16.9-0.4,25.1-1.6c18.1-2.7,34.9-9,51-17.7
		c9-4.7,17.3-10.6,25.9-15.7c2.7-1.6,2.7-1.6,4.3,0.8c3.9,5.1,7.5,10.6,11.8,15.3c4.3,5.5,9.4,10.6,15.7,14.5
		c7.5,4.3,14.9,5.5,23.2,2.4c4.3-1.6,8.2-3.9,12.2-6.7c7.1-4.7,10.2-11.8,10.2-20C427.2,352.1,426.4,347.4,425.3,342.7z M348.3,265
		c0,12.6-2,24.7-7.1,36.5c-8.2,18.8-22.8,29.8-42.4,34.9c-9,2.4-18.5,3.1-28.3,2.7c-3.1,0-5.9-0.8-8.6-2
		c-12.6-5.1-22.4-13-25.9-27.1c-3.5-14.9,4.3-30.6,18.8-36.5c7.5-3.1,14.9-4.7,22.4-7.1c18.5-5.1,37.3-9.8,56.1-13.7
		c3.1-0.8,6.3-1.2,9.4-2c3.5-0.8,4.3,0,5.1,3.5C348.7,257.9,348.3,261.4,348.3,265z"/>
</g>
</svg>
