<?xml version="1.0" encoding="utf-8"?>
<!-- Generator: Adobe Illustrator 26.3.1, SVG Export Plug-In . SVG Version: 6.00 Build 0)  -->
<svg version="1.1" id="Layer_1" xmlns="http://www.w3.org/2000/svg" xmlns:xlink="http://www.w3.org/1999/xlink" x="0px" y="0px"
	 viewBox="0 0 595.3 595.3" style="enable-background:new 0 0 595.3 595.3;" xml:space="preserve">
<style type="text/css">
	.st0{fill:#FFFFFF;}
	.st1{fill:url(#SVGID_1_);}
	.st2{fill:url(#SVGID_00000098931328577413002820000001480563167737325705_);}
</style>
<path class="st0" d="M297.6,595.3L297.6,595.3C133.3,595.3,0,462,0,297.6l0,0C0,133.3,133.3,0,297.6,0l0,0
	C462,0,595.3,133.3,595.3,297.6l0,0C595.3,462,462,595.3,297.6,595.3z"/>
<g>
	
		<linearGradient id="SVGID_1_" gradientUnits="userSpaceOnUse" x1="423.6384" y1="421.9032" x2="118.374" y2="421.9032" gradientTransform="matrix(1 0 0 -1 0 595.2756)">
		<stop  offset="0" style="stop-color:#E48C4E"/>
		<stop  offset="0.5036" style="stop-color:#FDF5E8"/>
		<stop  offset="1" style="stop-color:#E48C4E"/>
	</linearGradient>
	<path class="st1" d="M410.9,172.1c-43.5-87.4-194.5-92.6-274.4-15.8c-31.6,43-21.1,75.5,25.9,83.4c30.3,5.3,52.3-33.8,75.1-40.4
		c43.9-12.3,85.6-20.2,91.8,44.3c35.6,4,68.5-11.9,94.4-28.1C421.9,194.5,418.8,188,410.9,172.1z"/>
	
		<linearGradient id="SVGID_00000060751172231478326900000001255380946511539328_" gradientUnits="userSpaceOnUse" x1="297.65" y1="435.86" x2="297.65" y2="102.3847" gradientTransform="matrix(1 0 0 -1 0 595.2756)">
		<stop  offset="0" style="stop-color:#62B7C7"/>
		<stop  offset="1" style="stop-color:#408B96"/>
	</linearGradient>
	<path style="fill:url(#SVGID_00000060751172231478326900000001255380946511539328_);" d="M487.7,159.4
		c-29.9,17.1-65.9,54-151.9,80.8c-47,14.9-94.8,19.3-140.9,33.4C156.2,285,118,298.2,111,346c-16.7,37.8-5.7,71.1,20.6,98.8
		c58,60.2,131.7,52.3,202.9,37.8c63.7-13.2,80.4-65.4,84.3-122.5c-10.1-0.4-20.2-0.4-30.3-0.9c10.1,0.4,20.2,0.4,30.3,0.9
		c10.5-100.1,25-115.5,68.9-173.9C496.1,176.9,490.7,160.3,487.7,159.4z M331.4,357.9L331.4,357.9c-13.2,47.4-50.1,57.1-91.8,53.6
		c-35.6-3.5-53.1-25.9-49.2-62.4c40.4-35.6,91.8-37.8,140.9-47l3.5,4C333.2,322.8,332.3,340.3,331.4,357.9z"/>
</g>
</svg>
