<?xml version="1.0" encoding="utf-8"?>
<!-- Generator: Adobe Illustrator 26.3.1, SVG Export Plug-In . SVG Version: 6.00 Build 0)  -->
<svg version="1.1" id="Layer_1" xmlns="http://www.w3.org/2000/svg" xmlns:xlink="http://www.w3.org/1999/xlink" x="0px" y="0px"
	 viewBox="0 0 595.3 595.3" style="enable-background:new 0 0 595.3 595.3;" xml:space="preserve">
<style type="text/css">
	.st0{fill:#FFFFFF;}
	.st1{fill:#C5E148;}
	.st2{fill:#121920;}
	.st3{fill:#FEFEFD;}
</style>
<path class="st0" d="M297.6,595.3L297.6,595.3C133.3,595.3,0,462,0,297.6l0,0C0,133.3,133.3,0,297.6,0l0,0
	C462,0,595.3,133.3,595.3,297.6l0,0C595.3,462,462,595.3,297.6,595.3z"/>
<path class="st0" d="M584.9,375.9c0.5-2,1.1-4,1.6-6L584.9,375.9z"/>
<polygon class="st0" points="586.4,369.9 586.4,369.9 586.4,369.9 "/>
<g>
	<path class="st1" d="M276.8,65.1c13.9,0,27.7,0,41.7,0c6.3,2.6,13,2.5,19.4,3.6c93.5,15.9,169.8,90.8,187.6,184
		c1.8,9.4,1.9,19.2,5,28.4c0,11.2,0,22.6,0,33.8c-3,6.4-2.5,13.4-3.6,20.1C506.4,461.6,386.7,548,260.4,527.1
		c-125.6-20.6-211-136.2-193.4-261.5c13.5-95.7,83-172,176.8-194.2C254.8,68.8,265.8,67.2,276.8,65.1z M297.7,99.9
		c-109.4,0-197.9,88.2-198,197.1c-0.1,108.9,88,198.1,195.7,198.2c110.2,0.1,199.6-87.8,199.7-196.4
		C495.2,188.8,407.2,100,297.7,99.9z"/>
	<path class="st2" d="M297.7,99.9c109.6,0,197.6,88.7,197.5,199.1c-0.1,108.6-89.5,196.5-199.7,196.4
		C187.7,495.3,99.6,406,99.7,297.2C99.8,188.1,188.3,99.9,297.7,99.9z M141.8,280.6c0,19.3,0,38.5,0,57.9c0,3-0.1,5.3,4.2,5.2
		c17.7-0.2,35.5,0.2,53.2-0.2c14.9-0.3,28.7-11.4,33.4-25.8c4.9-15.1,0.9-28.8-11.6-38.9c-1.8-1.5-3.1-2.4-1.2-5
		c15.4-20.8-0.9-55.7-32.5-55.8c-13.4,0-26.9,0.1-40.3-0.1c-4.4-0.1-5.4,1.4-5.3,5.5C141.9,242.4,141.8,261.4,141.8,280.6z
		 M369,280.4c0,19.4,0,39,0,58.4c0,2.9,0.1,4.8,4,4.6c17.9-0.2,36,0.5,53.9-0.3c14.8-0.6,25.6-9,31.5-22.5
		c5.5-12.5,5.5-25.8-4.2-35.8c-6.5-6.7-6.9-10.8-3.6-19.3c9-22.7-10.1-47.1-36.2-47.6c-13.4-0.3-26.9,0.1-40.3-0.1
		c-4.4-0.1-5.3,1.4-5.3,5.5C369.1,242.3,369,261.3,369,280.4z M313.5,303.1c-6.4-8.2-12.3-16.4-18.8-24.2c-2.7-3.3-3.1-5,1.1-7.7
		c7.4-4.9,13.4-11.2,12.7-21.2c-0.5-8.9-7.7-16.2-16.6-17.3c-11.7-1.5-22.1,4.3-25.6,14.3c-3.1,8.9-0.8,17.2,3.7,24.8
		c1.9,3.5,2.3,5.4-1.7,7.4c-5.1,2.6-9,6.8-12.3,11.3c-12.6,17.1-2.9,40.3,18,42.6c8.7,1.1,17.2-1.1,23.8-6.8
		c6.4-5.5,10.1-5.1,16.6,0.5c14.4,12.4,30.6,6.5,34.8-11.9c0.4-1.9,2.5-4.8-1.5-5.6c-3.2-0.6-4.2,1.1-5.2,4
		c-2.7,8.4-8.2,10-15.3,4.8c-2.3-1.7-4-4-6-5.8c-3-2.7-2.9-5.1-0.2-8.2c2.7-3,4.6-6.8,6.9-10.1c4.5-6.7,7.7-14.7,16.6-17.4
		c2.7-0.8,1.3-3.3,1.3-5c0-2.4-2.1-1.6-3.5-1.6c-7.3-0.1-14.7-0.1-22.1,0c-1.7,0-4.2-0.6-4,2.6c0.1,1.9-0.3,3.7,2.6,4.3
		c5.4,1.2,5.6,5.5,4.5,9.7C321.6,293,317.6,297.6,313.5,303.1z M226.3,390.8c0.2,3,0.2,5.4,0.5,7.8c1.2,8.3,6.8,13.3,14.8,13.2
		c8.2-0.1,13.6-5,14.6-13.4c0.6-5,0.5-9.9-0.1-14.9c-1-7.7-6.2-12.4-13.8-12.7c-8.2-0.3-13.9,3.9-15.3,11.7
		C226.5,385.4,226.5,388.4,226.3,390.8z M323.6,370.9c-3.2,0-6.5,0.1-9.7,0c-2.8-0.1-3.9,0.9-3.9,3.7c0.1,11,0.1,22,0,33.1
		c0,2.8,1.2,3.8,3.9,3.7c6.5-0.1,13-0.1,19.4,0c2.4,0,3.5-0.8,3.5-3.3c0.1-2.9-1.1-3.8-3.9-3.7c-3,0.1-6-0.1-9.1,0.1
		c-3.7,0.2-6-0.1-6-5c0-4.8,2.2-5.4,5.9-5.1c2.2,0.2,4.3-0.1,6.5,0.1c2.7,0.2,3.9-0.8,3.8-3.7c-0.1-2.7-1.3-3.2-3.6-3.1
		c-2.4,0.1-4.8-0.1-7.1,0.1c-3.6,0.3-5.5-0.4-5.5-4.8c0-4.2,1.7-5.2,5.4-5c3.2,0.2,6.5-0.1,9.7,0.1c2.8,0.1,3.8-1.1,3.7-3.8
		c0-2.6-1.1-3.5-3.5-3.3C330.1,370.9,326.8,370.9,323.6,370.9z M211.6,391.3c0-5.6-0.1-11.2,0-16.8c0.1-2.9-1.2-3.7-3.9-3.7
		c-2.5,0-4.3,0.2-4.1,3.3c0.1,1.3,0,2.6,0,3.9c0,10.4,0,10.3-10.3,9.6c-2.7-0.2-3.9-1-3.8-3.8c0.1-3.5,0-6.9,0-10.4
		c0-2.5-1.5-2.8-3.5-2.6c-1.7,0.2-4.3-0.9-4.4,2.3c-0.1,11.9,0,23.8-0.1,35.6c0,2.6,1.8,2.6,3.6,2.5s4.2,0.8,4.3-2.4
		c0.1-2.4,0.3-4.8,0-7.1c-0.9-5.8,1.3-7.8,7.3-7.6c5.3,0.1,7.7,1.3,6.8,6.8c-0.3,2.2,0.1,4.3-0.1,6.5c-0.2,2.7,0.6,4,3.6,3.9
		c2.7-0.1,4.5-0.4,4.4-3.8C211.5,402.1,211.6,396.7,211.6,391.3z M399.6,370.7c-8.7,0.1-14.1,4.3-14.8,11.2
		c-0.5,7.1,3.5,11.1,12.6,12.4c1.1,0.1,2.2,0.3,3.2,0.5c2.8,0.5,5,2.1,4.8,5.2c-0.3,3.1-2.7,4.2-5.5,4.5c-3.2,0.3-6.5,0.1-9.4-1.7
		c-3.3-2.1-5.1,1-6.2,2.8c-1.3,2.4,1.6,3.1,3.1,3.8c5.7,2.7,11.8,3.1,17.7,1c5.8-2.1,8.6-6.4,8.1-12.5c-0.5-5.7-4.1-8.9-9.5-9.9
		c-2.4-0.4-4.8-0.6-7-1.2c-2.2-0.5-4.1-1.6-4-4.3c0.1-2.8,1.9-4.2,4.4-4.9c2.9-0.8,5.6-0.1,8.2,1.3c3.2,1.8,4.5-1,5.5-2.7
		c1.5-2.6-1.5-3-2.9-3.8C405.2,370.9,402.2,370.5,399.6,370.7z M359.4,388c0-4.3-0.1-8.6,0-13c0.1-3-0.9-4.2-4.1-4.2
		c-3,0-4.2,1-4.1,4.1c0.1,10.8,0.1,21.6,0,32.4c0,3.2,1.3,4.1,4.3,4c5.4-0.1,10.8-0.1,16.2,0c2.4,0,4.1-0.1,4.1-3.3
		c0-3-1.3-3.5-3.9-3.7c-12.6-0.9-12.6-0.9-12.6-13.8C359.4,389.7,359.4,388.8,359.4,388z M278.1,394.2c0,4.3,0.1,8.6,0,13
		c-0.1,3,0.9,4.1,4,4.1c3.2,0,4-1.3,4-4.2c-0.1-7.3,0.3-14.8-0.1-22.1c-0.3-5.4,0.9-8.3,6.9-7.2c2.8,0.4,3.8-1,3.8-3.8
		c-0.1-2.7-1.3-3.2-3.7-3.2c-7.3,0.1-14.7,0.1-22.1,0c-2.6,0-3.3,1.1-3.3,3.5s0.9,4,3.3,3.5c7.9-1.6,7.7,3.5,7.3,8.6
		C278,389.1,278.1,391.6,278.1,394.2z"/>
	<path class="st3" d="M141.8,280.6c0-19.1,0.1-38.1-0.1-57.2c0-4.1,1-5.6,5.3-5.5c13.4,0.2,26.9,0.1,40.3,0.1
		c31.6,0.1,47.9,35,32.5,55.8c-1.8,2.5-0.6,3.5,1.2,5c12.4,10,16.4,23.8,11.6,38.9c-4.6,14.4-18.4,25.4-33.4,25.8
		c-17.7,0.4-35.5,0-53.2,0.2c-4.3,0.1-4.2-2.1-4.2-5.2C141.8,319.1,141.8,299.8,141.8,280.6z M184.4,293.4c0,0.1,0,0.3,0,0.4
		c-5.4,0-12.5-2.1-15.7,0.5c-3.7,3.1-0.9,10.5-1.3,16c-0.1,1.3,0.1,2.6,0,3.9c-0.2,2.7,0.5,3.9,3.6,3.9c8.9-0.1,17.7,0.2,26.6-0.1
		c7.1-0.2,11.8-5.3,11.9-12c0.1-7-4.6-12.1-12.1-12.5C193.1,293.2,188.7,293.4,184.4,293.4z M180.4,243.3c-13.1,0-13.1,0-13.1,13
		c0,2.8,0.1,5.6,0,8.4c-0.1,2.6,0.9,3.3,3.3,3.3c6-0.1,12.1,0.2,18.2-0.1c6.9-0.3,11.8-5.6,11.8-12.3c0-6.9-5.1-12-12.4-12.3
		C185.7,243.2,183.1,243.3,180.4,243.3z"/>
	<path class="st3" d="M369,280.4c0-19,0.1-38.1-0.1-57.1c0-4.1,0.9-5.6,5.3-5.5c13.4,0.3,26.9-0.1,40.3,0.1
		c26,0.5,45.1,24.9,36.2,47.6c-3.5,8.6-2.9,12.6,3.6,19.3c9.7,10,9.7,23.3,4.2,35.8c-5.9,13.5-16.7,21.8-31.5,22.5
		c-17.9,0.9-36,0.1-53.9,0.3c-3.9,0-4-1.7-4-4.6C369.1,319.4,369,299.9,369,280.4z M410.7,318.1c4.9,0,8.9,0.1,12.7,0
		c8.1-0.2,13.2-4.9,13.4-12c0.2-7.3-5-12.4-13.4-12.6c-7.1-0.2-14.4,0.4-21.4-0.2c-6.6-0.6-8.3,1.8-7.6,8c0.6,5.3-2.2,12.3,1.1,15.7
		C399,320.6,406.2,317.4,410.7,318.1z M407.5,243.3L407.5,243.3c-2.4,0-4.8,0.2-7.1-0.1c-4.3-0.5-6.3,0.8-5.8,5.5
		c0.4,5.2,0.1,10.4,0.1,15.5c0,2.2,0.2,3.8,3,3.7c6.5-0.1,13.1,0.2,19.5-0.2c6.5-0.4,10.9-5.9,10.8-12.4c-0.1-6.4-4.8-11.6-11.2-12
		C413.5,243.1,410.5,243.3,407.5,243.3z"/>
	<path class="st3" d="M313.5,303.1c4-5.5,8.1-10.1,9.6-16.2c1.1-4.3,0.9-8.5-4.5-9.7c-2.9-0.6-2.5-2.4-2.6-4.3
		c-0.1-3.2,2.3-2.6,4-2.6c7.3-0.1,14.7-0.1,22.1,0c1.3,0,3.5-0.8,3.5,1.6c0,1.7,1.4,4.2-1.3,5c-8.9,2.6-12.1,10.6-16.6,17.4
		c-2.3,3.5-4.2,7.1-6.9,10.1c-2.7,3.1-2.8,5.4,0.2,8.2c2.1,1.8,3.9,4.2,6,5.8c7,5.3,12.6,3.7,15.3-4.8c1-2.9,1.9-4.6,5.2-4
		c4,0.9,1.9,3.7,1.5,5.6c-4.2,18.4-20.4,24.3-34.8,11.9c-6.5-5.6-10.3-5.9-16.6-0.5c-6.6,5.6-15,7.8-23.8,6.8
		c-20.9-2.5-30.7-25.6-18-42.6c3.3-4.5,7.3-8.7,12.3-11.3c4-2.1,3.7-4.1,1.7-7.4c-4.4-7.8-6.7-16-3.7-24.8
		c3.5-10,13.9-15.8,25.6-14.3c9,1.2,16,8.4,16.6,17.3c0.6,9.9-5.3,16.3-12.7,21.2c-4.2,2.7-3.8,4.3-1.1,7.7
		C301.2,286.8,307.2,294.9,313.5,303.1z M287.6,321.6c3.6,0.2,6.9-1.6,10.4-3.5c3-1.6,4.1-2.9,1.4-6.2c-6.8-8.3-13.5-16.8-19.8-25.7
		c-2.8-3.9-4.8-3-7.6-0.5c-6,5.4-7.7,12.3-4.6,20.5C270.9,315.7,278.6,321.7,287.6,321.6z M299,252.3c0-5.4-1.4-9.4-5.8-11.6
		c-3.6-1.8-7.1-1.4-10.4,1.1c-3.9,3.1-4.2,7.4-3.1,11.8c1.1,4.4,3,8.5,5.7,12.2c0.9,1.2,1.6,3,3.5,1.4
		C293.8,263.1,299.1,259,299,252.3z"/>
	<path class="st1" d="M226.3,390.8c0.2-2.4,0.3-5.4,0.8-8.3c1.4-7.8,7.1-12.1,15.3-11.7c7.7,0.3,12.8,5.1,13.8,12.7
		c0.6,5,0.6,9.9,0.1,14.9c-1.1,8.4-6.4,13.3-14.6,13.4c-8,0.1-13.7-4.9-14.8-13.2C226.5,396.2,226.4,393.8,226.3,390.8z M248.7,391
		c-0.1-2.4-0.1-5-0.5-7.6c-0.5-3.7-2.9-5.8-6.6-5.8c-3.6,0.1-6,1.8-6.7,5.7c-0.9,5.2-0.9,10.4,0,15.4c0.5,3.8,2.8,5.8,6.6,5.7
		c4.1-0.1,6.4-2.3,6.8-6.3C248.4,396,248.5,393.6,248.7,391z"/>
	<path class="st1" d="M323.6,370.9c3.2,0,6.5,0.1,9.7,0c2.5-0.1,3.5,0.8,3.5,3.3c0,2.8-0.9,4-3.7,3.8c-3.2-0.1-6.5,0.1-9.7-0.1
		c-3.7-0.2-5.4,0.8-5.4,5c0,4.4,1.8,5.1,5.5,4.8c2.4-0.2,4.8,0,7.1-0.1c2.3-0.1,3.6,0.4,3.6,3.1c0.1,2.9-1.1,3.9-3.8,3.7
		c-2.2-0.1-4.3,0.1-6.5-0.1c-3.8-0.3-5.9,0.3-5.9,5.1c0,4.9,2.4,5.2,6,5c3-0.1,6,0.1,9.1-0.1c2.7-0.1,3.9,0.6,3.9,3.7
		c-0.1,2.6-1.1,3.3-3.5,3.3c-6.5-0.1-13-0.1-19.4,0c-2.7,0-3.9-0.9-3.9-3.7c0.1-11,0.1-22,0-33.1c0-2.8,1.1-3.9,3.9-3.7
		C317,371,320.3,370.9,323.6,370.9z"/>
	<path class="st1" d="M211.6,391.3c0,5.4-0.1,10.8,0.1,16.2c0.1,3.5-1.6,3.8-4.4,3.8c-2.9,0.1-3.8-1.2-3.6-3.9
		c0.1-2.2-0.2-4.3,0.1-6.5c0.9-5.5-1.5-6.7-6.8-6.8c-6-0.2-8.2,1.7-7.3,7.6c0.3,2.4,0.1,4.8,0,7.1c-0.1,3.1-2.5,2.3-4.3,2.4
		c-1.7,0.1-3.6,0.2-3.6-2.5c0-11.9,0-23.8,0.1-35.6c0-3.1,2.7-2.1,4.4-2.3c1.9-0.2,3.5,0.1,3.5,2.6c0,3.5,0.1,6.9,0,10.4
		c-0.1,2.8,1.1,3.6,3.8,3.8c10.3,0.6,10.3,0.9,10.3-9.6c0-1.3,0.1-2.6,0-3.9c-0.2-3.1,1.6-3.3,4.1-3.3c2.7,0,4,0.8,3.9,3.7
		C211.5,380.1,211.6,385.7,211.6,391.3z"/>
	<path class="st1" d="M399.6,370.7c2.5-0.1,5.5,0.2,8.2,1.7c1.4,0.8,4.4,1.2,2.9,3.8c-1,1.7-2.3,4.4-5.5,2.7
		c-2.5-1.4-5.3-2.1-8.2-1.3c-2.5,0.6-4.3,2.1-4.4,4.9c-0.1,2.7,1.8,3.8,4,4.3c2.3,0.5,4.8,0.8,7,1.2c5.5,1.1,9.1,4.1,9.5,9.9
		c0.5,6.2-2.3,10.6-8.1,12.5c-5.9,2.1-12,1.7-17.7-1c-1.5-0.8-4.4-1.5-3.1-3.8c1.1-1.9,2.8-4.9,6.2-2.8c2.9,1.8,6.2,2.1,9.4,1.7
		c2.8-0.2,5.2-1.4,5.5-4.5c0.3-3.1-1.8-4.6-4.8-5.2c-1.1-0.2-2.2-0.4-3.2-0.5c-9.2-1.3-13.2-5.3-12.6-12.4
		C385.4,375,390.8,370.7,399.6,370.7z"/>
	<path class="st1" d="M359.4,388c0,0.9,0,1.7,0,2.6c0,12.8,0,13,12.6,13.8c2.6,0.2,3.9,0.6,3.9,3.7c0,3.2-1.8,3.3-4.1,3.3
		c-5.4-0.1-10.8-0.1-16.2,0c-2.9,0.1-4.3-0.8-4.3-4c0.1-10.8,0.1-21.6,0-32.4c0-3.1,1.1-4.1,4.1-4.1c3.2,0,4.2,1.2,4.1,4.2
		C359.3,379.3,359.4,383.7,359.4,388z"/>
	<path class="st1" d="M278.1,394.2c0-2.6-0.1-5.2,0-7.8c0.3-5.3,0.6-10.3-7.3-8.6c-2.5,0.5-3.3-1.1-3.3-3.5c0-2.5,0.8-3.6,3.3-3.5
		c7.3,0.1,14.7,0.1,22.1,0c2.4,0,3.6,0.5,3.7,3.2c0.1,2.8-1,4.2-3.8,3.8c-6-1.1-7.2,1.8-6.9,7.2c0.4,7.3,0,14.7,0.1,22.1
		c0.1,2.9-0.8,4.2-4,4.2c-3.1,0-4.2-1.1-4-4.1C278.2,402.9,278.1,398.6,278.1,394.2z"/>
	<path class="st2" d="M184.4,293.4c4.3,0,8.6-0.2,13,0c7.4,0.4,12.2,5.5,12.1,12.5c-0.1,6.7-4.8,11.8-11.9,12
		c-8.9,0.3-17.7,0-26.6,0.1c-3,0-3.8-1.2-3.6-3.9c0.1-1.3-0.1-2.6,0-3.9c0.4-5.5-2.5-13,1.3-16c3.1-2.7,10.3-0.5,15.7-0.5
		C184.4,293.6,184.4,293.5,184.4,293.4z"/>
	<path class="st2" d="M180.4,243.3c2.6,0,5.2-0.1,7.8,0c7.3,0.3,12.4,5.4,12.4,12.3c0,6.6-4.9,11.9-11.8,12.3
		c-6,0.3-12.1,0-18.2,0.1c-2.5,0.1-3.5-0.8-3.3-3.3c0.2-2.8,0-5.6,0-8.4C167.5,243.3,167.5,243.3,180.4,243.3z"/>
	<path class="st2" d="M410.7,318.1c-4.5-0.6-11.7,2.5-15.2-1.3c-3.2-3.3-0.3-10.4-1.1-15.7c-0.8-6,1-8.5,7.6-8
		c7.1,0.6,14.3,0,21.4,0.2c8.4,0.2,13.6,5.3,13.4,12.6c-0.2,7.1-5.4,11.8-13.4,12C419.4,318.1,415.6,318.1,410.7,318.1z"/>
	<path class="st2" d="M407.5,243.3c3,0,6-0.2,9.1,0c6.5,0.5,11.1,5.6,11.2,12c0.1,6.6-4.3,12-10.8,12.4c-6.5,0.4-13,0-19.5,0.2
		c-2.9,0.1-3-1.5-3-3.7c0.1-5.2,0.3-10.5-0.1-15.5c-0.4-4.9,1.5-6,5.8-5.5C402.6,243.5,405,243.3,407.5,243.3L407.5,243.3z"/>
	<path class="st2" d="M287.6,321.6c-9.1,0.1-16.7-5.9-20.2-15.2c-3-8.3-1.4-15.1,4.6-20.5c2.8-2.5,4.8-3.5,7.6,0.5
		c6.3,8.7,13,17.3,19.8,25.7c2.6,3.2,1.6,4.5-1.4,6.2C294.5,320,291.1,321.9,287.6,321.6z"/>
	<path class="st2" d="M299,252.3c0.1,6.7-5.1,10.8-10,15c-1.8,1.6-2.6-0.2-3.5-1.4c-2.7-3.7-4.6-7.8-5.7-12.2
		c-1.1-4.4-0.8-8.6,3.1-11.8c3.1-2.6,6.7-3,10.4-1.1C297.4,243,298.9,246.9,299,252.3z"/>
	<path class="st2" d="M248.7,391c-0.1,2.6-0.2,5-0.4,7.3c-0.4,4.1-2.7,6.3-6.8,6.3c-3.8,0.1-6-1.9-6.6-5.7c-0.8-5.2-0.8-10.3,0-15.4
		c0.6-3.9,3.1-5.7,6.7-5.7c3.7-0.1,6,2.2,6.6,5.8C248.5,385.9,248.5,388.6,248.7,391z"/>
</g>
</svg>
