<?xml version="1.0" encoding="utf-8"?>
<!-- Generator: Adobe Illustrator 26.3.1, SVG Export Plug-In . SVG Version: 6.00 Build 0)  -->
<svg version="1.1" id="Layer_1" xmlns="http://www.w3.org/2000/svg" xmlns:xlink="http://www.w3.org/1999/xlink" x="0px" y="0px"
	 viewBox="0 0 595.3 595.3" style="enable-background:new 0 0 595.3 595.3;" xml:space="preserve">
<style type="text/css">
	.st0{fill:#FFFFFF;}
	.st1{fill:#219DD7;}
</style>
<path class="st0" d="M297.6,595.3L297.6,595.3C133.3,595.3,0,462,0,297.6l0,0C0,133.3,133.3,0,297.6,0l0,0
	C462,0,595.3,133.3,595.3,297.6l0,0C595.3,462,462,595.3,297.6,595.3z"/>
<path class="st1" d="M163.5,296.7c0-58.6,0.9-117.1-0.5-175.7c-0.5-24.2,8.7-34.8,32.9-33.4c50.8,2.3,102-4.6,152.8,4.1
	c41.2,7.3,64.5,31.6,65,73.2c0,38.4,12.4,80.1-21,113c-8.7,8.7,0,14.6,6.4,20.6c39.3,39.3,44.8,133.6,10.5,176.1
	c-19.7,24.2-47.6,31.1-75.9,32.5c-47.1,1.8-94.7,0.5-141.8,0.9c-22.9,0-28.4-12.8-28.4-32.9C163.9,415.6,163.5,356.2,163.5,296.7z
	 M287.5,320L287.5,320c-16,0.5-32,0.5-48,0.5c-14.6,0-23.8,6.9-23.8,22c0,29.3-0.5,58.6,0.5,87.8c0.5,15.6,10.1,24.7,25.6,25.2
	c34.8,0.5,70,0.9,104.8-0.5c19.7-0.9,29.7-14.2,32.5-33.4c11.9-80.5-5.5-101.6-85.5-101.6C291.1,320,289.3,320,287.5,320z
	 M288.4,138.9c-14.2,0-28.4,0.5-42.5,0c-21.5-0.9-32,7.8-31.1,29.7c0.5,7.3,0,15.1,0,22.9c0.9,87.8-10.1,76.4,76.9,76.9
	c63.1,0.5,71.8-8.2,75-70.9c2.3-47.6-7.8-58.6-55.8-58.6C303.5,138.9,296.2,138.9,288.4,138.9z"/>
</svg>
