<?xml version="1.0" encoding="utf-8"?>
<!-- Generator: Adobe Illustrator 26.3.1, SVG Export Plug-In . SVG Version: 6.00 Build 0)  -->
<svg version="1.1" id="Layer_1" xmlns="http://www.w3.org/2000/svg" xmlns:xlink="http://www.w3.org/1999/xlink" x="0px" y="0px"
	 viewBox="0 0 595.3 595.3" style="enable-background:new 0 0 595.3 595.3;" xml:space="preserve">
<style type="text/css">
	.st0{fill:#FFFFFF;}
	.st1{enable-background:new    ;}
</style>
<path class="st0" d="M297.6,595.3L297.6,595.3C133.3,595.3,0,462,0,297.6l0,0C0,133.3,133.3,0,297.6,0l0,0
	C462,0,595.3,133.3,595.3,297.6l0,0C595.3,462,462,595.3,297.6,595.3z"/>
<g class="st1">
	<path d="M87.2,341.5V230.7h28.7c11.1,0,19.6,2.1,25.5,6.3s8.9,10.2,8.9,18.1c0,13.4-7.6,23-22.8,28.7c18.1,5.5,27.2,15.5,27.2,30
		c0,9-3,15.8-9,20.6c-6,4.7-14.6,7.1-25.9,7.1H87.2z M102.8,279.4h5c8.4,0,14.9-1.8,19.5-5.4c4.6-3.6,6.9-8.7,6.9-15.2
		c0-10.9-8.4-16.3-25.3-16.3h-6.1V279.4z M102.8,329.8h3.2c11.5,0,19-0.7,22.4-2.2c6.5-2.7,9.7-7.8,9.7-15.3
		c0-6.6-2.9-12.1-8.8-16.4c-5.9-4.4-13.2-6.5-22.1-6.5h-4.4V329.8z"/>
	<path d="M247.5,367.3v-11.1h76.6v11.1H247.5z"/>
	<path d="M472.3,344.3c-17.2,0-30.5-5.1-39.9-15.2c-9.4-10.1-14.1-24.4-14.1-42.9c0-18.5,4.8-32.8,14.3-43
		c9.6-10.2,23-15.3,40.4-15.3c9.9,0,21.6,1.6,34.9,4.9v14.7c-15.2-5.2-26.9-7.9-35.1-7.9c-12,0-21.3,4.1-27.9,12.2
		c-6.6,8.1-9.9,19.6-9.9,34.4c0,14.1,3.5,25.3,10.6,33.4c7,8.2,16.6,12.2,28.8,12.2c10.5,0,21.7-3.2,33.7-9.7v13.5
		C497.2,341.5,485.3,344.3,472.3,344.3z"/>
</g>
</svg>
