<?xml version="1.0" encoding="utf-8"?>
<!-- Generator: Adobe Illustrator 26.3.1, SVG Export Plug-In . SVG Version: 6.00 Build 0)  -->
<svg version="1.1" id="Layer_1" xmlns="http://www.w3.org/2000/svg" xmlns:xlink="http://www.w3.org/1999/xlink" x="0px" y="0px"
	 viewBox="0 0 595.3 595.3" style="enable-background:new 0 0 595.3 595.3;" xml:space="preserve">
<style type="text/css">
	.st0{fill:#FFFFFF;}
	.st1{fill:#F3702E;}
</style>
<path class="st0" d="M297.6,595.3L297.6,595.3C133.3,595.3,0,462,0,297.6l0,0C0,133.3,133.3,0,297.6,0l0,0
	C462,0,595.3,133.3,595.3,297.6l0,0C595.3,462,462,595.3,297.6,595.3z"/>
<g>
	<path class="st1" d="M295.5,482.5c-48.4,0-96.8,0-145.3,0c-25.1,0-38.9-10.8-38.9-35.5c-0.9-100.7-0.4-201.5,0-302.2
		c0-21.2,12.1-32.4,34.2-32.4c99.9,0,199.7,0,300,0c19.9,0,29.8,10.4,34.2,28.1c2.6,11.2,4.8,22.5,4.8,34.2
		c-0.4,80-0.4,159.5,0,239.5c0,12.5-1.7,24.6-4.3,36.7c-4.8,22-16.9,32.4-41.1,32C391.1,481.2,343.1,482.5,295.5,482.5z
		 M430.4,258.5c-6.5-11.2-15.1-23.3-21.2-36.3c-7.8-16.9-15.6-19.5-30.3-6.5c-33.7,29.8-68.3,58.8-103.3,87.3
		c-33.7,28.1-34.2,27.7-56.2-10.4c-26.8-46.3-26.4-45.8-54.9,0.9c-6.5,11.2-7.3,18.6,2.2,28.1c19,18.6,36.7,37.6,54.9,57.1
		c7.8,8.2,14.3,9.9,24.2,3.5c58.4-36.7,117.2-73.1,176-109.8C426.5,269.8,431.7,267.2,430.4,258.5z"/>
</g>
</svg>
