<?xml version="1.0" encoding="utf-8"?>
<!-- Generator: Adobe Illustrator 26.3.1, SVG Export Plug-In . SVG Version: 6.00 Build 0)  -->
<svg version="1.1" id="Layer_1" xmlns="http://www.w3.org/2000/svg" xmlns:xlink="http://www.w3.org/1999/xlink" x="0px" y="0px"
	 viewBox="0 0 595.3 595.3" style="enable-background:new 0 0 595.3 595.3;" xml:space="preserve">
<style type="text/css">
	.st0{fill:#FFFFFF;}
	.st1{fill:#AC9772;}
</style>
<path class="st0" d="M297.6,595.3L297.6,595.3C133.3,595.3,0,462,0,297.6l0,0C0,133.3,133.3,0,297.6,0l0,0
	C462,0,595.3,133.3,595.3,297.6l0,0C595.3,462,462,595.3,297.6,595.3z"/>
<path class="st1" d="M335,218.1c6.2,4.6,10.4,9.6,16.1,14.6c1.2-10.8,5-18.9,17.3-20.3c-5.6,7.2-5.8,14-1.8,20.9
	c1.8,3.2,4.4,5.2,8,6.2c5.4,1.4,9.4-0.8,10.6-6.2c0.6-3,2.2-5.2,5.2-5.8c3.2-0.8,4.6,1.6,6,4c2,3.2,4.2,6,4.4,10.2
	c0.2,3.4,3.8,5.2,5.8,7.6c1.2,1.4,2,0,2.4-1.2c4-9.2,8.2-18.1,11.8-27.3c1.6-4.4,1.8-9.4-1.2-13.6c-1-1.4-14.2,2-15.9,4
	c-0.4,0.4-0.8,1-1.2,1.6c-3.4,4.2-7.8,4.4-12.4,3.2c-3.6-1-0.4-2.6,0.2-4.2c-2.2,0.4-5,2-5.4-1.4c-0.6-4-2.4-8.8,2-11.8
	c3.8-2.4,6.6-5.8,10.2-8.2c3.6-2.2,4.6-6.2,6.8-9.4c1-1.4,0-2-1.2-2.6c-2.4-1.2-2.6-3.6-2.4-5.8c0.2-1.2,1-2.4,2.2-1.4
	c2.8,2.2,3.6,0.2,4.4-2c0.4-1,1-2,1.6-3c1.8-2.8,3.6-4.2,5,0.8c2.6-3.4,6.4-3.2,9.4-5.2c1.6-1,3.8-1,3.8,2.4c0,2.2,3.2,2.2,3.4,0.6
	c0.6-5.4,3.2-1.4,4-0.8c2.2,2.2,5,3.6,7.8,5c2.6,1.4,4.8,4,8.2-0.4c0,4.8-1.4,9,4,9.6c-0.6,4.6,5.6,5.8,5.4,10.8
	c-0.2,2,1.4,5,1.8,7.8c0.2,1.2,1.2,2.8,2.6,2.6c5-0.4,4,2.4,2.6,5c-1.2,2.2-1.6,3.8,0,5.8c0.6,0.6,1,1.4,0.4,2.2
	c-3.6,5.2-1.8,10.6-1,15.9c0.2,1,1,2.6,0,3.2c-5.6,3.2-2,7.4-1.2,11c0.4,2,1.4,3.6-1.8,3.2c-1.8-0.2-2.6,1.4-3,2.8
	c-1.4,4.8-1.8,9.6,1,14.2c3.6,5.8,8.2,10.4,14,14.2c9.4,6.2,18.5,12.6,25.5,21.5c8,10.2,8.4,21.1,4.4,32.7c-1,2.6-1.4,5-1,8
	c1,8.6-0.2,16.7-5.6,24.1c-3.4,4.8-6.8,9.6-8.6,15.2c-2.4,6.8-0.2,12.8,3.6,19.3c-3.8-1.4-4.6-0.2-5.4,2.8
	c-1.8,7.4-6.8,10.8-15.4,10.8c7.8-6.2,8.2-13.8,5.2-22.5c-1.8,2.8,0.6,5.2-0.4,7.4c-4.6-2-6.8-7-6.2-12.8
	c1.2-12.2,9.6-19.5,17.9-26.7c3-2.4,5.6-5,6.6-8.8c0.2-1,0.6-2-0.4-2.8c-0.8-0.6-1.6,0-2.2,0.4c-7.2,4.6-15.6,4.6-23.5,5.2
	c-8.6,0.6-10.8,2.2-13,10.4c-3.8,13.2-3.8,13.2-17.1,13c-6,0-12,0-17.9,1.4c-2.4,0.6-4.4,1.4-5.6,4.2c-5.6,13.2-16.3,18.5-29.9,18.7
	c-13.6,0.4-24.9-5-31.3-17.5c-2-3.8-2.8-4.2-5.4-0.6c-8,10.6-19.1,17.3-30.9,23.3c-6.2,3.2-8.4,9.8-6,16.5c2,5.8,9.8,9.6,16.5,8.2
	c7-1.6,11.8-7.4,11-14c-0.4-4.2-2.6-6.8-7.6-6.8c0.6,2.4,3.2,3.8,2.2,6.4c-1,2.4-2.6,3.8-5,4c-2.8,0.4-5-1-6.4-3.6
	c-2.4-4.8,0-10.4,5.2-12.4c6-2.2,13.2,0.2,16.7,5.6c7.8,12.2,0.6,28.7-14,31.5c-12.2,2.4-23.5,0.6-31.3-10.6
	c-2.4-3.4-3.2-0.8-4.4,0.8c-9.8,13-31.9,14.6-42.3,2.8c-5.6-6.4-7.2-13.8-3.8-21.7c3.2-7.4,12-11,19.1-7.8c3.8,1.8,5.6,5,5,9.2
	c-0.4,3-1.8,5.2-5,6c-2.2,0.6-4.2,0-5.8-1.6c-2.2-2.4-1.6-4.8,0.8-7.6c-4-0.2-6,1.4-6.8,4.2c-1,3.2-0.8,6.4,0.8,9.4
	c3.6,6.2,11.4,7.8,18.9,4c6.4-3.2,9.2-10,6.8-16.3c-1-2.6-2.6-4.6-5-5.8c-6.8-3.4-13.2-7-19.1-11.6c-5.8-4.4-11.2-9.6-15.6-16.5
	c-4.6,11-11.6,17.9-22.5,20.7c-8,2-16.1,2.2-23.9-0.8c-7.8-3-13.6-8.2-17.1-15.8c-3.4-7.6-1.8-15.2,0.6-22.5
	c-0.6-0.4-0.8-0.6-0.8-0.4c-6.2,4.2-11.8,1.8-17.3-1.6c-6.4-3.8-13.4-5-20.7-3.6c-3,0.6-4.6-1-5.2-3.6c0-0.2-0.2-0.4-0.2-0.4
	c0-13-7.8-19.5-18.9-23.7c-2.6-1-5.2-2.8-7.4-4.8c-3.4-3-5.6-1.6-7.4,1.6c-3.4,5.6-2.8,12,2.2,17.5c3.4,3.8,7,7.2,10.6,10.8
	c5.8,5.8,9.4,12.8,11,20.9c1.2,7.2-0.6,13.4-6.8,17.5c-3.4,2.4-5.4,5.4-6.8,9.2c-3.2,8.4-13,12.6-20.3,8.8c-1.2-0.6-3-1.2-3-3
	c0-1.6,1.8-1.6,3-2c3-1,4-3.6,5-6.2c2.2-6.2,5.8-9.8,13-9.6c4.6,0.2,7.6-3.4,8.2-8.2c0.8-6.6-1.6-12.2-6.2-16.7
	c-5.8-5.6-11.8-11.2-17.7-16.7c-6-5.4-7.4-12-4.8-19.5c2.2-6.4,5.6-12.2,9.8-17.3c1.8-2.2,2.6-4.4,2.6-7.2
	c0.2-13.4,5.2-24.7,14.4-34.3c4.6-4.8,9.2-9.6,14.4-13.8c4.4-3.6,8.4-7.6,6-14.2c-0.4-1.2,0.2-2.8,0.4-4.2c-1.2-0.4-1.8,0.2-2.2,0.8
	c-0.8,1.2-0.2,4.2-3.2,3c-2.2-0.8-3.6-3-3.2-5c0.8-3.2,0.4-6.8,2.8-9.6c-1.4-1-2.6,0-3.8,0.2c-3.2,0.4-5.8-1-6.4-4
	c-0.4-2-3.2-5.4,2-7c1.4-0.4,3.2-6.6,1.4-10.4c-2-4.4-1.8-8.2,2.6-11.2c1-0.8,1.2-1.6,0.6-2.8c-2.2-4-0.4-8.2,2.8-9.6
	c5.2-2.2,7.8-6.2,11.4-9.8c3.2-3.4,8.2-3.4,11.8-6.4c1.6-1.4,4.6-0.2,6.6,1.8c2.8,3,5.6,2.6,8.4-0.2c3.4-3.4,4.6-3,6,1.6
	c2.4,0,3.6-4.6,6.6-1.8c1.4,1.4,3.8,2,3.8,4.2s-2.6,1.2-3.8,2c0.4,2.4,5.4,4,0.4,6.6c-1.6,0.8,0.6,2.4,1.6,2.6
	c8,2.6,10.6,11.8,18.1,15c2.6,1,1.2,3.4,0.6,5.6c-1.8,5.4-4.4,7.4-9.8,7c-1.2,0-2.2,0.4-2.8,1.4c-0.4,1-0.6,2,0.2,2.8
	c1,1,1.6-0.2,2.4-0.4c2.8-1,3.8,0.6,3.2,3c-0.4,1.6-1,3.6-2.2,4.2c-3.8,2.2-3,5.6-3,8.8c0,3.8,1.2,7,3.8,9.8c3,3.2,6.8,2.6,10.6,2.2
	c2.2-0.2,4-0.4,6,0.8c5.6,3.4,14,1.2,17.5-4.4c4.2-6.6,4-13.2-0.6-20.9c8.6-0.8,13,4,17.1,19.3c2.6-2.6,5-5,7.4-7.2
	c2.6-2.4,5.2-4.4,8.6-7.4c-12.4-2.6-20.3-11.2-29.3-18.1c-4.2-3.2-9.4-4.4-15.2-6c5.4-3.6,10.6-4.2,15.8-2.4c4.2,1.6,6,0.6,6.2-3.8
	c0-0.8,0.6-1.4,1-2c1.6,0.6,1.6,1.8,2,2.8c1,2,1.8,4.6,4,4.6c2.6,0.2,1.8-3,2.6-4.4c2.2-4.4,7.2-7,11.8-5.8c4.2,1,7,3.6,7,8.2
	c0,2.6-1,4.8-3.6,5.8c-1.8,0.6-3.6,0.6-5-0.8c-2-2-1.6-4,0-6.2c1.6-2.4-0.4-2.4-1.8-2.2c-3.6,0.6-4.2,3.4-3.4,6.4
	c1.4,5.8,5.8,8.8,11.2,9.8c17.5,3.2,28.7-9.4,27.5-25.7c-0.2-2.6-0.4-5.2-1.8-7.6c-2.2-4-5.8-5.8-10.2-5c-3.4,0.6-5.4,3-5.8,6.4
	c-0.4,4.6,1.8,7.4,5.8,9.2c0.8,0.4,1.4,0.6,2.4,0.8c-5,3.6-11.8,1.6-14.8-3.8c-3.2-5.8-1.6-14.2,3.2-18.3c5.2-4.4,14.6-4.8,19.9-0.6
	c2.4,1.8,4.4,4,5.8,6.6c1.8,3.4,2.8,4.2,5.4,0.4c4.4-6.2,10-10.6,18.3-10c10.8,0.8,17.1,11.6,12.2,21.3c-2.8,5.6-9.4,7.6-15.8,4.4
	c4.6-1.2,8.4-2.8,8.8-8c0.4-6.2-4.2-9.8-10-8.2c-6,1.6-8,6.4-8.8,11.8c-1.2,9.2,1.4,17.1,9.2,22.7c7.2,5.2,16.9,5.4,23.9,1
	c3.4-2.2,5.4-5,5.2-9.4c-0.2-2.2-1.2-3.8-3.4-4.2c-0.8-0.2-1.8-0.2-2.2,0.6c-0.2,0.4,0,1.2,0.4,1.8c1.6,2.2,1.8,4.2-0.2,6.2
	c-1.2,1.2-2.8,1.4-4.6,0.8c-2.6-1-3.6-3-3.8-5.8c-0.2-4,1.4-6.6,5.2-8c4.2-1.6,9.4,0,12.4,3.6c1.6,2,1.2,6.2,3.8,6.2
	c2.8,0.2,3-3.8,4.4-5.8c1.8-2.4,2.6,0.2,2.8,1.2c0.2,4.8,2.6,4.2,5.8,3.2c5.2-1.6,10.2-1.4,15.9,2.8c-13.2,1.6-20.7,10.2-29.5,16.9
	C346.2,214.6,341.2,216.5,335,218.1z M296.9,390.4c11.2,0.4,21.5-2.8,30.3-9.4c27.7-20.7,36.5-49.8,35.1-82.9
	c-0.2-6.6-0.8-6.6-6.6-3.6c-21.7,11.2-43.7,22.5-65.4,33.7c-14.4,7.4-28.9,15-43.3,22.5c-2.4,1.2-4.8,2.4-2.8,5.8
	C256.3,376.4,272.6,389.6,296.9,390.4z M231.5,294.9c-0.2,12.6,0,12.8,5.4,10c25.5-13.2,51-26.5,76.6-39.7
	c9.2-4.8,18.1-9.4,27.3-14.2c5.2-2.8,5.2-3.4,1.4-7.8c-2.2-2.4-4.4-4.8-6.8-7c-20.3-19.7-49.4-21.7-72-4.2
	C241.9,248.8,233.5,272.4,231.5,294.9z M209.8,374.8c-0.4-1.8,1.2-2.6,1.8-3.8c2.8-4.6,2.6-9.6-0.2-13.4c-2.6-3.2-9-5-13.4-3.6
	c-5.2,1.6-7.4,5.6-8.4,10.6c-1,5.8,1,10.6,5.8,14c9,6.4,24.3,3.6,30.9-6c3.6-5.2,6-11.4,3.8-16.9c-4-10-6.8-20.3-8.8-30.9
	c-1.4-7-10.8-13.4-17.7-12.6c-3.8,0.6-6.2,2.8-6.4,6.8c-0.2,4.2,1.4,7,5.8,7.8c1.2,0.2,2.6-0.4,3.6,1c-0.6,2.4-2.8,3-4.6,3.8
	c-10.2,3.8-20.1-1.6-22.7-12.6c-1.2-4.8-2.2-5.2-6-2c-0.6,0.6-1.2,1-1.6,1.8c-2.8,4.4-6.6,4.2-10.8,2.2c-2-0.8-3.8-2-5.8-2.4
	c-2-0.6-4-0.2-2.6,2.6c2.2,4.6,2,9.6,2,14.4c0,1.8,0,3.6,1.6,4.8c6,5.2,18.5,5.4,24.7,0.4c1.4-1.2,2.8-2.2,4.2-3.2
	c2.4-1.8,5.2-1.6,6.2,1c2.4,6,7.2,5.8,12.4,5.8c10,0,16.5,6.2,17.7,15.8C222.2,367.7,216.4,375,209.8,374.8z M387.2,327.2
	c1.4-0.2,2.2-0.4,3-0.4c5-0.6,8-3.4,7.8-7.6c-0.4-4.6-3.6-7.2-8.8-7c-7.2,0.2-14.8,7-15.9,14.2c-1.4,9.2-3.8,18.1-7.6,26.5
	c-1.2,2.4-1.4,5-1.2,7.6c1,14.4,14.4,24.5,28.5,21.3c11.2-2.4,16.1-13,10.8-22.3c-3.2-5.4-11.4-7.4-16.7-4
	c-5.2,3.2-6.6,10.6-3.2,15.9c0.8,1.2,2.4,1.8,1.8,3.8c-3,0.8-5-0.8-7-2.6c-6.6-6.4-5.6-18.5,2-24.1c9.6-7.2,25.1-4.8,32.1,5.2
	c2.2,3.2,4.4,5.8,7.6,8c4.2,2.8,16.9,1.2,19.7-2.8c1.2-1.6,1.2-3.2,0-5c-2.4,3.6-4,4-7.4,1.6c-1-0.8-2-1.8-2.6-2.8
	c-4.6-6.6-9.8-12.6-16.3-17.3c-1.4-1-2.6-2.2-3-3.8c-0.8-3.4-2.2-2.4-4.4-1.2C398.8,334,393.8,333.2,387.2,327.2z M454.2,311.6
	c-1.2-1.8-3-1.8-4.4-2.2c-15-4-27.3-11.6-36.3-24.7c-0.6-0.8-1.2-1.8-2-2c-9-1.4-10.6-8.2-12.2-15.6c-0.8-4-1.6-8.2-5.8-12
	c0.4,2.6,0.6,4.2,1,5.8c2,5.8,2.8,11.4,2.8,17.5c0,7,1.2,14.4,8.6,18.5c1.6,1,3,2.6,3.8,4.4c4.4,8,5.6,17.3,9.8,25.5
	c1,2,6.6,9,8,8.4c3-1,1.8-4.4,3-6.6c0.4-0.8,0.6-1.8,1-2.8c2.4-8,7.2-12.8,15.8-13.6C449.7,312.4,451.8,312,454.2,311.6z M146,286.1
	c5.2,2.2,9.6,4.2,13.2,7.4c10.8,9.4,11.2,11.6,24.9-1c3.2-3,6.6-6.8,7-12c0-1.2,0-2.8-1.2-3.6c-1.4-1-2.4,0.6-3.4,1.2
	c-6.6,4.4-9,4.2-13.2-2.4c-1-1.6-1.8-2.2-3.4-1.4C162.2,278.2,154.6,281.9,146,286.1z"/>
</svg>
