<?xml version="1.0" encoding="utf-8"?>
<!-- Generator: Adobe Illustrator 26.3.1, SVG Export Plug-In . SVG Version: 6.00 Build 0)  -->
<svg version="1.1" id="Layer_1" xmlns="http://www.w3.org/2000/svg" xmlns:xlink="http://www.w3.org/1999/xlink" x="0px" y="0px"
	 viewBox="0 0 595.3 595.3" style="enable-background:new 0 0 595.3 595.3;" xml:space="preserve">
<style type="text/css">
	.st0{fill:#202B60;}
	.st1{fill:#FFFFFF;}
	.st2{fill:#FEDF13;}
</style>
<path class="st0" d="M297.6,595.3L297.6,595.3C133.3,595.3,0,462,0,297.6l0,0C0,133.3,133.3,0,297.6,0l0,0
	C462,0,595.3,133.3,595.3,297.6l0,0C595.3,462,462,595.3,297.6,595.3z"/>
<path class="st1" d="M584.9,375.9c0.5-2,1.1-4,1.6-6L584.9,375.9z"/>
<polygon class="st1" points="586.4,369.9 586.4,369.9 586.4,369.9 "/>
<g>
	<g>
		<path class="st2" d="M244.4,445.8c23.4-0.1,40.9-17.3,40.6-40c-0.3-21.8-18.6-39.4-41.1-39c-22.7,0.3-40.7,17.7-40.9,39.7
			C202.8,428.5,221.1,445.9,244.4,445.8z M243.8,371.3c20-0.1,36.5,15.3,36.6,34.6c0.3,19.3-15.9,35.2-35.9,35.3
			c-20.7,0.1-36.9-15.2-36.7-35C207.8,386.9,223.7,371.4,243.8,371.3z"/>
		<path class="st2" d="M286.1,371.9c3.8,0.1,7.5,0.4,11.3,0c6.4-0.6,8.7,1.7,8.5,8.2c-0.4,19.9-0.1,39.7-0.1,59.4
			c0,1.8-0.7,5,2.6,4.7c2.6-0.1,2-2.8,2-4.7c0-10.4,0-20.7,0-31.2l0,0c0-9.9,0.3-19.9-0.1-29.8c-0.1-5.2,1.8-7.2,7.1-7
			c4.4,0.3,8.9,0,13.5-0.1c1.3,0,3.1-0.1,2.8-2.1c-0.1-1.3-1.4-1.8-2.7-1.8c-15,0-30.2,0-45.2,0c-1.6,0-3,0.4-3,2.3
			C283,371.9,284.7,371.9,286.1,371.9z"/>
		<path class="st2" d="M129.1,406.2c0,10.9,0,21.7,0,32.6c0,2.1-1,5.7,2.4,5.7c4.1,0.1,2.7-3.7,2.7-6c0.1-8.5,0.3-17,0-25.5
			c-0.1-4.4,1.6-5.8,5.8-5.8c13.2,0.1,26.5,0.1,39.7,0c4.5,0,6.4,1.4,6.2,6.1c-0.3,8.8-0.1,17.4,0,26.2c0,2-0.6,4.8,2.4,5
			c3.3,0.1,2.7-2.7,2.7-4.7c0-22.3,0-44.4,0-66.7c0-2,0.9-5-2.3-5c-3.5-0.1-2.7,3.1-2.8,5.4c-0.1,7.8-0.3,15.6,0,23.4
			c0.3,5.1-1.7,6.4-6.5,6.4c-13-0.3-26-0.3-39,0c-4.5,0.1-6.4-1.3-6.1-6c0.3-6.8,0.3-13.8,0-20.6c-0.1-3,2-8.1-2.3-8.2
			c-4.7-0.1-2.6,5.1-2.7,7.9C128.8,386.3,129.1,396.3,129.1,406.2z"/>
		<path class="st2" d="M413.3,445c10.8-0.1,21.7,0,32.5-0.1c1.7,0,4.4,0.6,4.1-2.4c-0.1-2.3-2.6-1.7-4-1.8c-8.2-0.1-16.5-0.4-24.7,0
			c-6.4,0.3-8.7-1.7-8.5-8.2c0.4-19.9,0.1-39.6,0.1-59.4c0-2,0.6-5-2.3-5.1c-3.1,0-2.3,3-2.3,5c-0.1,10.8,0,21.7,0,32.5
			c0,11.3,0.1,22.7,0,33.9C408.1,443.5,409.4,445.2,413.3,445z"/>
		<path class="st2" d="M345.4,406.2c0,10.9,0.1,21.7,0,32.6c0,4.3,1.1,6.5,6,6.4c12.2-0.3,24.5,0,36.9-0.1c2,0,5.1,0.7,5-2.3
			c-0.1-2.8-3.4-1.8-5.2-1.8c-10.4-0.1-20.7-0.3-31.2,0c-5,0.1-6.7-1.8-6.5-6.7c0.3-6.8,0.3-13.8,0-20.6c-0.1-5.1,2-6.5,6.8-6.4
			c8.5,0.3,17,0.1,25.5,0c1.8,0,5.1,1,5.2-1.8c0.1-3.1-3.1-2.1-5-2.1c-8.9-0.1-17.9-0.1-26.9,0c-4,0.1-5.5-1.3-5.5-5.2
			c0.1-6.4,0.3-12.8,0-19.1c-0.3-5.4,2.1-7,7.1-6.8c10.4,0.3,20.7,0.1,31.2,0c1.8,0,5,0.9,4.8-2.3c-0.1-2.4-2.8-1.8-4.7-1.8
			c-12.3,0-24.5,0.1-36.9-0.1c-5.2-0.1-6.4,2.1-6.4,6.7C345.5,384.9,345.4,395.5,345.4,406.2z"/>
		<path class="st2" d="M471.1,404.3c6.7,3,13.8,5.1,20.3,8.2c7.9,3.7,11.3,9.5,10.4,15.9c-1,6.5-7.9,11.9-15.9,12.9
			c-7.9,1-14.9-1.4-21.4-5.8c-1.7-1.1-3.7-4.5-5.7-1c-1.7,3,1.7,4,3.4,5.1c5.8,3.8,12.2,6.1,21.4,6c0.6,0,3.1,0,5.7-0.6
			c14.2-2.8,21.8-15.9,16-27.2c-2.8-5.2-7.7-8.4-12.9-10.5c-6.5-2.7-13.3-4.8-19.7-7.8c-7.7-3.5-10.6-8.8-9.6-15.6
			c1-6.7,6.5-11.5,14.3-12.6c6.8-1,13.2,0.3,19.3,3.3c1.7,0.9,3.7,2.1,4.8-0.3c1.1-2.4-1.3-3.3-2.8-4c-7-3.3-14.3-4.7-22-3.3
			c-10.5,1.8-17.4,8.2-18.4,16.7C456.9,393.3,460.9,399.8,471.1,404.3z"/>
	</g>
	<path class="st2" d="M102.5,234.2c4.7-0.5,9.7,0.3,14.4-0.3c8.9-0.8,12.6,2.6,12.3,11.8c-0.5,15.2-0.3,30.4-0.3,45.8l0,0
		c0,15.2,0.3,30.6,0,45.8c-0.3,8.6,3.1,12,11.5,11c3.4-0.3,7.1-0.5,10.5,0c10.5,1.6,13.1-3.1,13.1-13.1
		c-0.5-40.8-0.3-81.9-0.3-122.7c0-20.2,7.3-28.3,27-28.5c8.9,0,13.1-2.4,12-11.8c-0.5-4.7-0.3-9.7,0-14.4c0-4.4-1.3-6.8-6.5-7.6
		c-28.5-4.4-59.1,14.4-65.2,42.4c-2.4,10.7-6.8,13.9-16.5,12.6c-3.4-0.5-7.1,0.3-10.5-0.3c-12.6-2.1-16.5,2.9-16,15.7
		C88.4,231.8,92.1,235.5,102.5,234.2z"/>
	<path class="st2" d="M193.6,321.4c9.2,14.1,21.7,23.6,37.7,28.8c27.5,8.9,51-0.3,75.1-17.8c-4.4,23.8,11.5,14.7,20.7,16.2
		c7.6,1.3,11-2.4,11-10.2c-0.3-41.1,0-81.9,0-123c0-3.4,0.5-8.1-3.1-9.2c-8.4-2.4-17.5-2.4-25.9-0.3c-6.3,1.6-1,9.7-4.7,14.7
		c-37.2-27-72-26.7-100-0.3C177.6,245.5,172.9,289.7,193.6,321.4z M260.3,231.1c24.9-0.3,44.2,19.1,44.8,44.8
		c0.5,26.2-18.8,46.8-44,46.8c-24.9,0-44.8-19.6-44.8-44.8C215.8,251.7,235.2,231.3,260.3,231.1z"/>
	<path class="st2" d="M354.6,348c8.1,0.8,16.5,1,24.6,0.3c7.3-0.8,1.6-9.7,6-12.6c38.7,24.9,74.8,23.6,100.5-3.4
		c26.2-27.5,28.8-71.7,6.3-102.3c-23.6-31.9-58.6-37.4-106-14.4c0-12.8,0-24.1,0-35.3c0-25.1,0-24.9-25.4-23.3
		c-7.1,0.5-10.2,2.6-9.9,10.2c0.3,57.6,0,114.9,0.3,172.5C350.6,342.8,349.8,347.5,354.6,348z M428.4,231.1
		c24.6-0.3,44.2,19.6,44.5,45c0.3,26.4-19.1,46.8-44.2,46.6c-25.1-0.3-44.8-20.7-44.8-46.6C383.6,251.5,403.5,231.1,428.4,231.1z"/>
</g>
</svg>
