<?xml version="1.0" encoding="utf-8"?>
<!-- Generator: Adobe Illustrator 26.3.1, SVG Export Plug-In . SVG Version: 6.00 Build 0)  -->
<svg version="1.1" id="Layer_1" xmlns="http://www.w3.org/2000/svg" xmlns:xlink="http://www.w3.org/1999/xlink" x="0px" y="0px"
	 viewBox="0 0 595.3 595.3" style="enable-background:new 0 0 595.3 595.3;" xml:space="preserve">
<style type="text/css">
	.st0{fill:#FFFFFF;}
	.st1{fill:#13304E;}
</style>
<path class="st0" d="M297.6,595.3L297.6,595.3C133.3,595.3,0,462,0,297.6l0,0C0,133.3,133.3,0,297.6,0l0,0
	C462,0,595.3,133.3,595.3,297.6l0,0C595.3,462,462,595.3,297.6,595.3z"/>
<path class="st1" d="M362.1,366.6c15.1-40.3,2.2-72-34.9-84.7c2.4,2,3.4,2.9,4.4,3.7c1.2,1,2.7,2,3.9,2.7
	c20,14.7,29.1,33.9,23.9,58.4c-4.9,23-21.5,34.7-43,40.3c-12.5,3.2-25.2,4.2-38.1,1.7c20.5-0.5,39.1-5.4,54-20
	c-0.5-1-0.7-1.7-1.2-1.7c-13.4-1.7-13.4-1.7-13.4-15.6c0-16.1-0.5-32.5,0.2-48.6c0.2-7.1-2.2-10.7-8.3-13.4
	c-18.8-8.5-19.5-8.3-19.5,12c0,19.8-0.2,39.3,0,59.1c0,4.6-1,6.6-6.3,6.6c-16.1-0.2-32.5-0.2-48.6,0c-5.6,0-6.8-2-6.6-7.1
	c0.2-20,0.2-40.1,0-59.8c0-5.1,2-7.8,6.1-10.3c13.9-7.8,29.1-11,44.9-12c3.2-0.2,6.3,0,9.8-0.7c-15.4-5.4-31.3-5.9-47.1-2.9
	c-31,6.1-54.2,22-62.3,54s2.9,58.4,28.6,78.6c8.5,6.6,18.1,11.5,28.1,15.6c54,21.7,160.2,8.8,211.7-46.4c39.8-42.5,44-104,8.5-145.8
	c-16.6-19.8-38.3-32.2-62.8-39.3c-72.8-21-144.3-19.3-213.9,13.4c-19.5,9-36.9,21.2-51.8,37.1c-41.3,44-40.3,102.6,2.2,145.6
	c2.7,2.7,5.6,5.4,7.8,8.5c-4.6-1.7-8.1-5.1-11.2-8.5c-20.3-20.5-34.7-44-38.3-73c-3.7-30.5,4.9-57.9,22.7-82.3
	c27.6-38.1,65.7-60.8,110.6-71.1c92.1-21,173.9,1.7,244,64c27.1,23.9,42.7,54.7,41,92.3c-1.5,29.6-14.9,53.2-36.1,72.5
	c-28.8,26.4-63.7,40.1-101.3,47.1c-50.1,9.8-99.9,8.8-148-10.5c-20.3-8.1-39.1-18.8-53.7-35.2c-17.1-19.3-24.7-41.3-15.9-66.4
	c6.6-19.3,22-30.8,39.3-39.8c9.8-5.1,20.3-8.8,31.3-11.2c4.6-1,5.9-3.2,5.9-7.6c-0.2-14.4,0-28.6-0.2-43c0-4.9,1.2-6.6,6.3-6.6
	c16.1,0.2,32.5,0.2,48.6,0c5.6,0,6.8,2,6.6,7.1c-0.2,13.7,0.2,27.6-0.2,41.3c-0.2,5.1,1.7,7.1,6.6,8.1c4.9,0.7,9.5,1.7,14.2,3.4
	c5.6,2.2,7.6,1.2,7.3-5.1c-0.5-15.9,0-31.7-0.2-47.9c0-5.4,1.7-6.8,6.8-6.8c15.6,0.2,31.3,0.5,46.9,0c6.6-0.2,8.1,2,8.1,8.3
	c-0.2,44.4-0.2,89.1,0,133.6c0,6.8-2,9.3-8.5,8.5C368.2,366.3,365.5,366.6,362.1,366.6z"/>
</svg>
