<?xml version="1.0" encoding="utf-8"?>
<!-- Generator: Adobe Illustrator 26.3.1, SVG Export Plug-In . SVG Version: 6.00 Build 0)  -->
<svg version="1.1" id="Layer_1" xmlns="http://www.w3.org/2000/svg" xmlns:xlink="http://www.w3.org/1999/xlink" x="0px" y="0px"
	 viewBox="0 0 595.3 595.3" style="enable-background:new 0 0 595.3 595.3;" xml:space="preserve">
<style type="text/css">
	.st0{fill:#FFFFFF;}
	.st1{fill:#2C79B8;}
</style>
<path class="st0" d="M297.6,595.3L297.6,595.3C133.3,595.3,0,462,0,297.6l0,0C0,133.3,133.3,0,297.6,0l0,0
	C462,0,595.3,133.3,595.3,297.6l0,0C595.3,462,462,595.3,297.6,595.3z"/>
<g>
	<path class="st1" d="M205.1,329.5c0,51.3,0,102.7,0,154.2c0,4.1,0,8.2-0.8,12.3c-1.4,7.2-4.9,10.9-13.1,7.4
		c-13.5-6.1-27.1-11.7-40.6-17.6c-7-2.9-8.2-8.8-7.4-15.2c2.7-24,5.5-48,8.4-72c5.3-43.1,11.1-86.1,16.2-129.2
		c5.3-43.5,10.3-87,15.2-130.6c1.2-10.9,6.1-17.8,17.6-20.3c41.6-9.8,82.8-20.3,124.3-30.3c12.3-2.9,15.8-0.4,15.8,12.3
		c0.2,56.8,0,113.4,0.2,170.2c0,9-4.3,13.1-12.7,12.9c-20.1-0.4-40.2-1.4-60.3,0c-10,0.8-13.9-3.9-13.9-13.9
		c0.4-31.6,0.2-63.2,0-94.9c0-17-2.5-19.3-19.1-19.3c-29.9-0.2-29.9-0.2-29.9,29.1C205.1,232.5,205.1,280.9,205.1,329.5z"/>
	<path class="st1" d="M389,263.9c0-50.2,0-100.3,0-150.5c0-4.5,0-9.2,0.6-13.5c1.2-7.6,5.1-11.3,12.9-6.8
		c14.1,7.8,27.9,15.8,42,23.4c6.8,3.7,8.6,9.6,7.6,16.6c-3.7,30.1-7.2,60.1-10.9,90.2c-5.5,44.7-10.9,89.4-16.4,134.3
		c-4.5,37.1-9.4,74-13.7,111.1c-1.2,9-5.1,13.3-14.4,15c-42.4,7.4-84.5,15.6-126.9,23.6c-12.5,2.3-15.4-0.2-15.4-13.1
		c0-53.1,0.2-106-0.2-159.1c0-9.6,3.1-13.3,12.9-13.1c20.1,0.4,40.2,0.4,60.5,0c10.1-0.2,13.9,3.3,13.7,13.7
		c-0.4,29.1-0.2,58.4-0.2,87.6c0,13.5,3.3,16.6,16.6,17.4c30.1,1.6,31.8-0.4,31.8-31c0-48.4,0-97,0-145.4
		C389.2,263.9,389,263.9,389,263.9z"/>
</g>
</svg>
