<?xml version="1.0" encoding="utf-8"?>
<!-- Generator: Adobe Illustrator 26.3.1, SVG Export Plug-In . SVG Version: 6.00 Build 0)  -->
<svg version="1.1" id="Layer_1" xmlns="http://www.w3.org/2000/svg" xmlns:xlink="http://www.w3.org/1999/xlink" x="0px" y="0px"
	 viewBox="0 0 595.3 595.3" style="enable-background:new 0 0 595.3 595.3;" xml:space="preserve">
<style type="text/css">
	.st0{fill:#FFFFFF;}
	.st1{fill:#EE2841;}
</style>
<path class="st0" d="M297.6,595.3L297.6,595.3C133.3,595.3,0,462,0,297.6l0,0C0,133.3,133.3,0,297.6,0l0,0
	C462,0,595.3,133.3,595.3,297.6l0,0C595.3,462,462,595.3,297.6,595.3z"/>
<g>
	<path class="st1" d="M185.1,297.8c0-44.1,0-88.2,0-132.4c0-25.2,16-45.2,40.5-50.7c30.6-6.9,61.3,16.8,61.6,48.5
		c0.4,23,0,45.9,0,68.6c0,3.6,0.7,4.7,4.7,5.1c31.7,1.5,63.5,3.3,95.2,4.7c3.3,0,4-1.1,3.6-3.6c0-20.4,0-40.8,0-61.3
		c0-13.9,4.7-25.5,15.7-33.9c13.1-9.8,27.3-11.7,42.3-4.7c15,6.9,22.6,19.3,23.7,35.7c0,1.1,0,2.2,0,2.9c0,84.2,0,168.1,0,252.3
		c0,20.4-12.4,36.5-31.4,41.2c-24.1,5.8-49.2-11.7-50-36.5c-0.7-25.2-0.4-50.7-0.4-75.8c0-9.5,0-9.5-9.5-9.5c-29.9,0-59.8,0-89.7,0
		c-3.3,0-4.4,0.7-4.4,4.4c0,25.5,0,51.4,0,76.9c0,25.9-16.4,45.9-41.9,51.1c-29.2,5.8-59.1-17.1-59.8-46.7
		c-0.7-29.9-0.4-60.2-0.4-90.1C185.1,328.8,185.1,313.5,185.1,297.8z"/>
	<path class="st1" d="M178.2,143.2c-5.1,11.7-4,24.1-4,36.5c0,82.4,0,164.5,0,246.9c0,14.6,2.6,28.1,10.9,40.1c0,0.4,0,0.7,0.4,1.5
		c-2.9-0.7-5.1-2.2-7.3-3.6c-15.3-9.8-24.1-24.1-24.1-42.3c0-79.1,0-158.3,0-237.4c0-16.8,7.7-30.3,21.2-40.1
		C176,143.5,176.7,142.8,178.2,143.2z"/>
	<path class="st1" d="M146.8,163.6c-3.6,9.8-3.6,20.1-3.6,30.3c0,71.5,0,142.6,0,214.1c0,11.7-0.7,23.7,4,35.4
		c-1.1-0.7-1.8-0.7-2.2-1.1c-13.5-9.8-21.9-23-21.9-39.7c-0.4-66-0.4-132.4,0-198.4C123.5,186.6,132.2,173.1,146.8,163.6z"/>
	<path class="st1" d="M387.1,459c-11.3-4-19-11.3-24.1-21.9c-2.2-4.7-3.3-9.5-3.3-14.6c0-19.7,0-39.7,0-59.4c0-2.6,1.1-3.3,3.6-3.3
		c4,0,8.4,0.4,12.4,0c3.3-0.4,4,1.1,4,4c0,20.1,0,40.1,0,60.2c0,12,1.1,23.7,7.7,33.9C387.5,458.2,387.1,458.6,387.1,459z"/>
	<path class="st1" d="M357.6,449.1c-17.1-5.5-28.4-20.8-28.4-37.2c0-16,0-32.5,0-48.5c0-3.3,1.1-3.6,4-3.6c4,0.4,8.4,0.4,12.4,0
		c2.9,0,4,0.7,3.6,3.6c0,16,0,32.5,0,48.5C348.8,424.7,349.2,437.5,357.6,449.1z"/>
	<path class="st1" d="M387.5,147.2c-6.6,10.9-8,23-7.7,35.4c0.4,14.6,0,29.2,0,43.8c0,3.3-0.7,4.4-4.4,4c-4.4-0.4-8.8-0.7-13.1-0.7
		c-1.5,0-2.6-0.4-2.6-2.2c0.4-17.1-1.8-34.3,1.1-51.1C363.4,161.8,373.3,152.3,387.5,147.2z"/>
	<path class="st1" d="M356.9,158.1c-6.9,10.6-8,22.2-8,34.3c0.4,10.9,0,22.2,0,33.2c0,2.6-0.7,3.6-3.3,3.3
		c-4.7-0.4-9.5-0.7-14.2-0.7c-1.5,0-2.6-0.4-2.2-2.2c0.4-12.8-1.5-25.9,0.7-38.3c2.6-14.2,11.3-24.1,24.4-29.9
		C355,157.8,355.4,157.4,356.9,158.1z"/>
</g>
</svg>
