<?xml version="1.0" encoding="utf-8"?>
<!-- Generator: Adobe Illustrator 26.3.1, SVG Export Plug-In . SVG Version: 6.00 Build 0)  -->
<svg version="1.1" id="Layer_1" xmlns="http://www.w3.org/2000/svg" xmlns:xlink="http://www.w3.org/1999/xlink" x="0px" y="0px"
	 viewBox="0 0 595.3 595.3" style="enable-background:new 0 0 595.3 595.3;" xml:space="preserve">
<style type="text/css">
	.st0{fill:#FFFFFF;}
	.st1{fill:#EA9CC3;}
	.st2{fill:#D5306D;}
	.st3{fill:#B82D69;}
	.st4{fill:#871A39;}
	.st5{fill:#99275B;}
	.st6{fill:#CA2F6D;}
	.st7{fill:#DF56A4;}
	.st8{fill:#F3CCE1;}
</style>
<path class="st0" d="M297.6,595.3L297.6,595.3C133.3,595.3,0,462,0,297.6l0,0C0,133.3,133.3,0,297.6,0l0,0
	C462,0,595.3,133.3,595.3,297.6l0,0C595.3,462,462,595.3,297.6,595.3z"/>
<path class="st0" d="M584.9,375.9c0.5-2,1.1-4,1.6-6L584.9,375.9z"/>
<polygon class="st0" points="586.4,369.9 586.4,369.9 586.4,369.9 "/>
<g>
	<polygon class="st1" points="392.9,139.7 345.3,165.8 297.8,192.2 297.8,139.7 297.8,86.9 345.3,113.3 	"/>
	<polygon class="st2" points="392.9,245 345.3,271.4 297.8,297.5 297.8,245 297.8,192.2 345.3,218.6 	"/>
	<polygon class="st3" points="392.9,350.3 345.3,376.7 297.8,403.1 297.8,350.3 297.8,297.5 345.3,323.9 	"/>
	<polygon class="st4" points="392.9,455.6 345.3,482 297.8,508.4 297.8,455.6 297.8,403.1 345.3,429.5 	"/>
	<polygon class="st5" points="297.8,403.1 345.3,376.7 392.9,350.3 392.9,403.1 392.9,455.6 345.3,429.5 	"/>
	<polygon class="st6" points="297.8,297.5 345.3,271.4 392.9,245 392.9,297.5 392.9,350.3 345.3,323.9 	"/>
	<polygon class="st7" points="297.8,192.2 345.3,165.8 392.9,139.7 392.9,192.2 392.9,245 345.3,218.6 	"/>
	<polygon class="st8" points="202.7,139.7 250.3,165.8 297.8,192.2 297.8,139.7 297.8,86.9 250.3,113.3 	"/>
	<polygon class="st7" points="202.7,245 250.3,271.4 297.8,297.5 297.8,245 297.8,192.2 250.3,218.6 	"/>
	<polygon class="st6" points="202.7,350.3 250.3,376.7 297.8,403.1 297.8,350.3 297.8,297.5 250.3,323.9 	"/>
	<polygon class="st5" points="202.7,455.6 250.3,482 297.8,508.4 297.8,455.6 297.8,403.1 250.3,429.5 	"/>
	<polygon class="st3" points="297.8,403.1 250.3,376.7 202.7,350.3 202.7,403.1 202.7,455.6 250.3,429.5 	"/>
	<polygon class="st2" points="297.8,297.5 250.3,271.4 202.7,245 202.7,297.5 202.7,350.3 250.3,323.9 	"/>
	<polygon class="st1" points="297.8,192.2 250.3,165.8 202.4,139.7 202.4,192.2 202.7,245 250.3,218.6 	"/>
</g>
</svg>
