<?xml version="1.0" encoding="utf-8"?>
<!-- Generator: Adobe Illustrator 26.3.1, SVG Export Plug-In . SVG Version: 6.00 Build 0)  -->
<svg version="1.1" id="Layer_1" xmlns="http://www.w3.org/2000/svg" xmlns:xlink="http://www.w3.org/1999/xlink" x="0px" y="0px"
	 viewBox="0 0 595.3 595.3" style="enable-background:new 0 0 595.3 595.3;" xml:space="preserve">
<style type="text/css">
	.st0{fill:#F49719;}
	.st1{fill:#FFFFFF;}
</style>
<path class="st0" d="M297.6,595.3L297.6,595.3C133.3,595.3,0,462,0,297.6l0,0C0,133.3,133.3,0,297.6,0l0,0
	C462,0,595.3,133.3,595.3,297.6l0,0C595.3,462,462,595.3,297.6,595.3z"/>
<circle class="st1" cx="306.5" cy="297.6" r="188.4"/>
<path class="st0" d="M508.1,297.4c1.5,114.9-94.8,213.2-215.2,210.7c-111.4-2.5-207.2-94.8-205.7-214.2
	c1.5-111.4,93.3-207.2,211.7-206.7C414.8,87.7,509.6,183,508.1,297.4z M144.9,246.7c0,1.5,1,2,1.5,2.5c8.5,8.5,17.1,17.1,26.1,25.1
	c15.6,15,31.1,30.1,46.2,45.7c1,1,2,2.5,1.5,4c-2,11-4,22.1-6,33.6c-4,22.1-7.5,43.6-11.5,65.7c0,1-0.5,2.5,0,3c1,1,2-0.5,3-1
	c29.1-15.6,58.7-30.6,87.8-46.2c2.5-1.5,4.5-1.5,7.5,0c15,8,30.6,16.1,46.2,24.1c14.5,7.5,28.6,15,42.6,22.6c0.5,0.5,1.5,1,2.5,0.5
	c1-1,0-2,0-3c-2-12-4-24.1-6-36.1c-3.5-20.6-7-41.6-11-62.2c-0.5-2-0.5-3.5,1-5c13.5-13,27.1-26.1,40.6-39.6
	c10.5-10.5,21.6-21.1,32.1-31.1c0.5-0.5,2-1.5,1.5-2.5c-0.5-1-1.5-1-2.5-1c-12-1.5-24.1-3.5-35.6-5c-21.1-3-41.6-6-62.7-9
	c-2.5-0.5-4.5-1.5-5.5-4c-3-6-5.5-11.5-8.5-17.6c-12-23.6-23.6-47.7-35.6-71.2c-0.5-1-1-3-2.5-3s-1.5,2-2.5,3
	c-4.5,9-9,18.1-13.5,27.1c-10,20.6-20.1,41.1-30.6,61.7c-1,2-2.5,3-5,3.5c-28.1,4-56.2,8-84.3,12
	C156.9,244.2,150.9,244.7,144.9,246.7z"/>
</svg>
