<?xml version="1.0" encoding="utf-8"?>
<!-- Generator: Adobe Illustrator 26.3.1, SVG Export Plug-In . SVG Version: 6.00 Build 0)  -->
<svg version="1.1" id="Layer_1" xmlns="http://www.w3.org/2000/svg" xmlns:xlink="http://www.w3.org/1999/xlink" x="0px" y="0px"
	 viewBox="0 0 595.3 595.3" style="enable-background:new 0 0 595.3 595.3;" xml:space="preserve">
<style type="text/css">
	.st0{fill:#FFFFFF;}
	.st1{fill:#BE3734;}
</style>
<path class="st0" d="M297.6,595.3L297.6,595.3C133.3,595.3,0,462,0,297.6l0,0C0,133.3,133.3,0,297.6,0l0,0
	C462,0,595.3,133.3,595.3,297.6l0,0C595.3,462,462,595.3,297.6,595.3z"/>
<path class="st0" d="M584.9,375.9c0.5-2,1.1-4,1.6-6L584.9,375.9z"/>
<polygon class="st0" points="586.4,369.9 586.4,369.9 586.4,369.9 "/>
<path class="st1" d="M208.2,130.5c-14.4-1-29.2,0.6-43.9,3c-8.3,1.3-16.6,4.9-23.1,10.4c-8.2,6.7-8.2,16.6-6.4,26.1
	c2.7,14.1,9.8,26.4,16.9,38.6c18.8,32,42.3,61,64.1,90.9c17.5,24.2,34.7,48.2,45.8,76.1c0.7,1.9,1.5,2.8,4.3,2.1
	c46-13.3,93.7-19.4,139-35.6c16.6-5.9,32.9-12.3,47.8-22.1c5.2-3.4,10.5-6.1,16.9-6.8c7.4-0.9,12.3,3.9,10.8,11.3
	c-1.2,5.8-4.6,10.1-9.2,13.6c-6.7,5.3-14.4,8.5-22.1,12.2c-12.2,5.6-24.6,9.9-37.4,13.8c-44.9,13.8-91.4,20.6-136.9,31.4
	c-4.7,1.2-6.7,2.5-6.1,8.3c4,38.4-21.1,62.7-49.8,73.9c-23.7,9.2-48.4,11.1-73.3,3.7c-8.6-2.7-14.1-8.9-19.4-15.1
	c-5-5.9-3.6-17.5,2.1-25.5c7.4-10.5,17.6-17.6,28.8-23.7c13.2-7.1,26.8-13.6,41.1-18.2c12.3-4.2,24.2-9.5,36.8-12.3
	c3.6-0.9,4.9-1.8,3.3-5.9c-9.6-24.2-23.7-45.8-38.1-67.3c-19.1-28.6-40.6-55.8-58.9-85.1c-9.2-14.8-18.1-30-23.3-47
	c-10.8-35,6.4-55.8,35.4-64.7c14.2-4.3,29.1-6.2,43.9-6.5c27.1-0.7,54.3,0,81.1,5.2c14.1,2.8,27.6,7.3,40.5,14.8
	c12.8,7.6,21.5,16.9,25.4,30.7c3.4,12.3,2.4,24.6-2.4,36.6c-6.4,16-14.7,30.9-26.4,43.9c-4.7,5.3-8.9,11.4-13.5,17.1
	c-5.6,6.7-13.5,8.3-21.4,8.5c-4.7,0.1-7.4-3.4-7-8.8c0.9-8.5,5.3-15,11.4-20.5c10.7-9.8,18.7-21.7,27-33.2
	c5.3-7.4,8.3-15.9,9.9-24.5c2.8-14.5-2.7-24.6-16-32.2c-12.9-7.3-27.3-10.7-41.7-13.1C245.9,131.5,227.5,129.7,208.2,130.5z
	 M245.6,410.8c-1.6-1.8,2.5-8-3.7-6.4c-13.1,3.3-26,7.4-38.7,11.6c-12.3,4.2-23.3,11.3-34.6,17.2c-8,4.2-15.4,9.5-21.5,16.5
	c-4,4.6-3.6,6.5,1.9,9.2c12.2,6.2,25.8,5.3,38.4,4.3c8.8-0.6,18.1-4.3,26.5-8.6C231.8,445.5,244.7,432.8,245.6,410.8z"/>
</svg>
