<?xml version="1.0" encoding="utf-8"?>
<!-- Generator: Adobe Illustrator 26.3.1, SVG Export Plug-In . SVG Version: 6.00 Build 0)  -->
<svg version="1.1" id="Layer_1" xmlns="http://www.w3.org/2000/svg" xmlns:xlink="http://www.w3.org/1999/xlink" x="0px" y="0px"
	 viewBox="0 0 595.3 595.3" style="enable-background:new 0 0 595.3 595.3;" xml:space="preserve">
<style type="text/css">
	.st0{fill:#FFFFFF;}
	.st1{fill:#495426;}
	.st2{fill:#B9A63A;}
	.st3{fill:#7A8B3E;}
</style>
<path class="st0" d="M297.6,595.3L297.6,595.3C133.3,595.3,0,462,0,297.6l0,0C0,133.3,133.3,0,297.6,0l0,0
	C462,0,595.3,133.3,595.3,297.6l0,0C595.3,462,462,595.3,297.6,595.3z"/>
<path class="st0" d="M584.9,375.9c0.5-2,1.1-4,1.6-6L584.9,375.9z"/>
<polygon class="st0" points="586.4,369.9 586.4,369.9 586.4,369.9 "/>
<g>
	<path class="st1" d="M272.2,353.1c-25.4,2.8-45.5-5.3-56.7-11.6l4.4,5.7c0.6,0.9,0.6,2.1-0.4,2.8l-56.3,44.4
		c-0.4,0.4-0.8,0.4-1.1,0.4c-0.6,0-1.1-0.2-1.5-0.6c-35.1-39.3-47.4-68.3-41-97.1c3-13.7,9.5-23.7,15.6-30.9
		c-2.3,0.8-6.6,2.1-10.1,2.1c-4.6,0-23.3-17.8-34.1-28.3c-0.4-0.4-0.8-1.1-0.6-1.7c0.2-0.6,0.6-1.1,1.1-1.5
		c0.6-0.2,56.1-26.2,94.3-37c25-7.2,48-1.3,61.5,4c-2.5-1.5-4.2-2.3-4.2-2.3c-0.8-0.2-1.1-0.9-1.3-1.7c0-0.8,0.4-1.5,0.9-1.9
		l46.1-27.7c0.6-0.4,1.3-0.4,1.9,0c7.2,4,37.7,24.5,51,47.4h13.3c-3.6-8-8.9-15.9-17.1-23c-32.2-28.3-48.7-38.3-48.7-38.3
		l-56.7,36.2c0,0-32.2-11-79.1,6.1C106.3,216,68,238.9,68,238.9v11.9l39.3,33.8c0,0-7.8,33.6,10.1,75.9c9.3,21.6,23,51.8,52.7,78.3
		l61.6-52.2c0,0,62.2,14,114.8-15c41.7-23.1,65.4-39.6,73.6-45.5h-58.4C333.5,339.9,301.4,349.7,272.2,353.1z"/>
	<path class="st2" d="M271.9,349.1c-37.4,4.2-63.4-16.9-63.5-17.3c-0.8-0.6-1.9-0.6-2.7,0c-0.8,0.8-0.8,1.9-0.2,2.7l10.2,13.5
		l-53.3,41.9c-33.2-37.4-44.8-65.1-38.7-92.2c6.3-27.7,28.1-41,28.5-41c0.9-0.6,1.3-1.7,0.8-2.7c-0.4-0.6-0.9-0.9-1.7-0.9
		c-0.4,0-0.8,0-0.9,0.2l-14.6,8.5c-0.9,0.4-6.4,2.5-9.9,2.5c-2.7-0.6-16.7-12.9-29.4-25.2c11.4-5.3,57.8-26.2,91-35.5
		c37-10.4,70.4,9.1,70.7,9.3c0.8,0.6,1.9,0.4,2.5-0.4c0.6-0.8,0.6-1.9,0-2.7c-4.4-5.5-9.1-8.7-12.1-10.6l42.1-25.2
		c11,6.3,35.5,24.3,47.2,43.4h2.3c-12.7-21.4-40.8-41-49.7-45.7l-46.1,27.7c0,0,7.8,3,14.8,11.8c0,0-34-20.5-72.3-9.7
		S93,238.4,93,238.4s28.3,27.7,32.6,27.7c4.4,0,10.8-2.7,10.8-2.7l14.8-8.5c0,0-22.8,13.3-29.4,42.3c-6.4,29,7,58,40.4,95.4
		l56.3-44.4l-11.4-15c0,0,26.4,22,65.1,17.6c26-3,56.5-11.6,85.4-25.2h-4.7C326.5,337.8,298,346.1,271.9,349.1z"/>
	<path class="st2" d="M290.6,170.3c-0.6-0.4-1.3-0.4-1.9,0L242.6,198c-0.6,0.4-0.9,1.1-0.9,1.9c0,0.8,0.6,1.3,1.3,1.7
		c0,0,1.7,0.8,4.2,2.3c-13.5-5.3-36.4-11-61.5-4c-38.1,10.8-93.7,36.6-94.3,37c-0.6,0.2-0.9,0.8-1.1,1.5c-0.2,0.6,0.2,1.3,0.6,1.7
		c10.8,10.6,29.6,28.3,34.1,28.3c3.4,0,7.8-1.3,10.1-2.1c-6.1,7-12.5,17.3-15.6,30.9c-6.4,28.8,5.7,58,41,97.1
		c0.4,0.4,0.9,0.6,1.5,0.6c0.4,0,0.9-0.2,1.1-0.4l56.3-44.4c0.8-0.8,0.9-1.9,0.4-2.8l-4.4-5.7c11.2,6.3,31.3,14.4,56.7,11.6
		c29.2-3.4,61.3-13.3,89.7-27.3h-4.6c-28.8,13.7-59.6,22.4-85.4,25.2c-38.7,4.4-65.1-17.6-65.1-17.6l11.4,15l-56.9,44.8
		c-33.4-37.4-46.8-66.4-40.4-95.4c6.4-29,29.4-42.3,29.4-42.3l-14.8,8.5c0,0-6.4,2.7-10.8,2.7S92.2,239,92.2,239s55.6-26,93.9-36.8
		c38.3-10.8,72.3,9.7,72.3,9.7c-7-8.5-14.8-11.8-14.8-11.8l46.1-27.7c8.9,4.7,37,24.5,49.7,45.7h2.3
		C328.4,194.8,297.8,174.3,290.6,170.3z"/>
	<g>
		<path class="st3" d="M173.6,312.5v-66.8h11.8v9.5c4.2-7.4,11.4-11.2,21.2-11.2c7.4,0,13.7,2.3,18.8,7.2c5.1,4.9,7.6,11.8,7.6,20.9
			v40.4h-11.8v-37c0-12.9-7-20.3-17.1-20.3c-5.3,0-9.9,1.9-13.3,5.7c-3.4,3.8-5.1,8.7-5.1,14.6v37L173.6,312.5L173.6,312.5z"/>
		<path class="st3" d="M314.9,316.9v-64.7h-9.7v-8.3h9.9v-26.2h9.7v26.2h19.5v8.3h-19.5v64.7C321.9,316.9,316.2,316.9,314.9,316.9z"
			/>
		<path class="st3" d="M338,286.6v-42.3h12.7v41.9c0,11.6,6.6,19,17.6,19c11.2,0,17.8-7.2,17.8-19v-41.9h12.5v42.3
			c0,19-11.6,30.2-30.3,30.2C349.8,316.9,338,305.1,338,286.6z"/>
		<path class="st3" d="M408,312.5V245h11.6v10.1c4-7.8,10.4-11.8,19.3-11.8c2.7,0,5.3,0.4,8,0.9l-1.1,11.8c-2.5-0.8-4.7-1.1-7-1.1
			c-10.8,0-18.6,7.4-18.6,22v35.8H408V312.5z"/>
		<path class="st3" d="M493.6,244.8h11.6v67.5h-11.6v-9.5c-6.1,7.4-14,11.2-23.7,11.2s-17.8-3.4-24.1-10.2c-6.4-7-9.5-15.4-9.5-25.6
			c0-10.1,3.2-18.4,9.5-24.8c6.4-6.6,14.4-9.9,24.1-9.9c9.5,0,17.4,3.8,23.7,11.4V244.8z M487.9,261.3c-4.4-4.7-9.9-7-16.7-7
			c-6.8,0-12.5,2.5-16.7,7c-4.2,4.7-6.3,10.4-6.3,17.3s2.1,12.5,6.3,17.3c4.2,4.7,9.7,7,16.7,7c6.8,0,12.5-2.5,16.7-7
			c4.4-4.7,6.4-10.4,6.4-17.4C494.3,271.8,492.1,266.1,487.9,261.3z"/>
		<path class="st3" d="M292.5,244.8h11.6v67.5h-11.6v-9.5c-6.1,7.4-14,11.2-23.7,11.2s-17.8-3.4-24.1-10.2c-6.4-7-9.5-15.4-9.5-25.6
			c0-10.1,3.2-18.4,9.5-24.8c6.4-6.6,14.4-9.9,24.1-9.9c9.5,0,17.4,3.8,23.7,11.4V244.8z M286.8,261.3c-4.4-4.7-9.9-7-16.7-7
			s-12.5,2.5-16.7,7c-4.2,4.7-6.3,10.4-6.3,17.3s2.1,12.5,6.3,17.3c4.2,4.7,9.7,7,16.7,7c6.8,0,12.5-2.5,16.7-7
			c4.4-4.7,6.4-10.4,6.4-17.4C293.3,271.8,291.2,266.1,286.8,261.3z"/>
		<path class="st3" d="M527.3,312.5h-10.4V194h10.4V312.5z"/>
	</g>
</g>
</svg>
