<?xml version="1.0" encoding="utf-8"?>
<!-- Generator: Adobe Illustrator 26.3.1, SVG Export Plug-In . SVG Version: 6.00 Build 0)  -->
<svg version="1.1" id="Layer_1" xmlns="http://www.w3.org/2000/svg" xmlns:xlink="http://www.w3.org/1999/xlink" x="0px" y="0px"
	 viewBox="0 0 595.3 595.3" style="enable-background:new 0 0 595.3 595.3;" xml:space="preserve">
<style type="text/css">
	.st0{fill:#FFFFFF;}
	.st1{fill:#0F5DE4;}
</style>
<path class="st0" d="M297.6,595.3L297.6,595.3C133.3,595.3,0,462,0,297.6l0,0C0,133.3,133.3,0,297.6,0l0,0
	C462,0,595.3,133.3,595.3,297.6l0,0C595.3,462,462,595.3,297.6,595.3z"/>
<path class="st1" d="M298.8,87.5c82.8-1.3,157.7,56.7,174,142.7c11.1,60-4.6,113.4-48.2,157C384.8,427,344.4,466.1,304,505.2
	c-4.6,3.9-6.5,3.9-10.4,0c-41.1-41.1-82.1-82.1-123.2-122.5c-2.6-2.6-5.2-5.9-3.9-9.8c1.3-4.6,5.2-5.2,9.1-5.9
	c37.1-5.2,73.6-10.4,110.8-15.6c20.9-3.3,41.7-5.2,59.3-17.6c29.3-20.2,43-48.2,38.4-82.8c-4.6-36.5-26.1-60-61.3-69.7
	c-41.7-11.7-86.7,7.8-104.9,45.6c-13,28-10.4,55.4,6.5,81.5c5.9,8.5,3.3,14.3-7.2,15.6c-24.1,3.3-47.6,6.5-71.7,9.8
	c-7.2,1.3-14.3-3.3-16.9-10.4c-5.9-13.7-7.8-28.7-9.1-43.7c-3.3-44.3,7.2-85.4,34.5-121.2c30.6-39.1,70.4-62.6,119.9-69.7
	c2,0,4.6-1.3,6.5-1.3C286.4,86.8,293,87.5,298.8,87.5z"/>
</svg>
