<?xml version="1.0" encoding="utf-8"?>
<!-- Generator: Adobe Illustrator 26.3.1, SVG Export Plug-In . SVG Version: 6.00 Build 0)  -->
<svg version="1.1" id="Layer_1" xmlns="http://www.w3.org/2000/svg" xmlns:xlink="http://www.w3.org/1999/xlink" x="0px" y="0px"
	 viewBox="0 0 595.3 595.3" style="enable-background:new 0 0 595.3 595.3;" xml:space="preserve">
<style type="text/css">
	.st0{fill:#FFFFFF;}
	.st1{fill:#0077FF;}
</style>
<path class="st0" d="M297.6,595.3L297.6,595.3C133.3,595.3,0,462,0,297.6l0,0C0,133.3,133.3,0,297.6,0l0,0
	C462,0,595.3,133.3,595.3,297.6l0,0C595.3,462,462,595.3,297.6,595.3z"/>
<path class="st1" d="M156.8,508.1c23.6,0,47.7,0,71.3,0c9.2,0,9.6-0.4,9.6-10.1c0-35.4,0-70.8,0-105.8c0-3.1-1.7-7,1.7-8.7
	c2.6-1.3,5.2,1.7,7.4,3.1c22.3,14,46.3,21.9,73,20.5c46.3-1.7,81.8-21.9,104.1-62.5c25.4-46.3,29.3-96.2,18.8-147.8
	c-6.6-31-20.1-58.6-44.6-79.6C368.4,91,333,84,294.5,88.4c-19.2,2.2-36.7,8.7-52,21c-4.8,3.5-8.7,7.9-14.9,13.6
	c0-7.9-0.4-13.6,0-19.2c0.4-6.6-2.2-8.7-8.7-8.7c-20.5,0.4-41.1,0-62.1,0c-8.7,0-9.6,0.4-9.6,9.2c0,131.6,0,262.8,0,394.4
	C147.2,507.2,148,508.1,156.8,508.1z M234.2,237c0.9-16.2,3.5-32.4,10.5-47.7c3.1-7,7-13.1,11.8-18.8c28-31.5,73.4-24.9,92.2,13.1
	c7.9,16.2,11.8,36.7,11.8,61.6c0,24-3.5,47.2-16.2,68.6c-10.9,18.4-27.1,29.3-49,28.9s-38.5-11.4-49-30.6
	C234.6,288.2,232.9,262.8,234.2,237z"/>
</svg>
