<?xml version="1.0" encoding="utf-8"?>
<!-- Generator: Adobe Illustrator 26.3.1, SVG Export Plug-In . SVG Version: 6.00 Build 0)  -->
<svg version="1.1" id="Layer_1" xmlns="http://www.w3.org/2000/svg" xmlns:xlink="http://www.w3.org/1999/xlink" x="0px" y="0px"
	 viewBox="0 0 595.3 595.3" style="enable-background:new 0 0 595.3 595.3;" xml:space="preserve">
<style type="text/css">
	.st0{fill:#FFFFFF;}
	.st1{fill:#565656;}
</style>
<path class="st0" d="M297.6,595.3L297.6,595.3C133.3,595.3,0,462,0,297.6l0,0C0,133.3,133.3,0,297.6,0l0,0
	C462,0,595.3,133.3,595.3,297.6l0,0C595.3,462,462,595.3,297.6,595.3z"/>
<g>
	<path class="st1" d="M306.3,85.9c14.2,1.8,28.4,3,42.4,6.6c56.9,14.7,100.5,47.2,131.2,97.1c3.8,6.1,3.1,7.1-4.4,7.2
		c-6.3,0.1-12.6,0-19,0c-9.9,0-9.9,0-9.9,10.2c0,21.8,0,43.7,0,65.5c0,9.7-0.2,10-9.7,10c-23.3,0-46.7,0-70,0c-9.4,0-9.7-0.3-9.7-10
		c0-22.3-0.3-44.6,0.1-66.9c0.1-7.2-2.5-9.2-9.3-8.9c-9.5,0.5-19,0.5-28.4,0c-6.7-0.3-8.8,2-8.7,8.7c0.2,47.5,0.1,95.1,0.1,142.6
		c0,18.7,0.2,37.4-0.1,56c-0.1,5.6,1.8,7.8,7.5,7.6c10.4-0.3,20.9-0.3,31.4,0c5.9,0.2,7.5-2.2,7.5-7.7c-0.2-23.3-0.1-46.6-0.1-69.9
		c0-9.1,0.4-9.5,9.4-9.5c23.6,0,47.2,0.2,70.8-0.1c6.8-0.1,9.5,2,9.3,9.1c-0.3,23.3,0.1,46.6-0.2,69.9c-0.1,6.4,2,8.8,8.4,8.3
		c4.6-0.4,9.2-0.2,13.9,0c1.8,0,4.2-0.8,5.2,1.4c0.9,2.1-1,3.6-2,5.1c-10.7,15.8-23.6,29.7-38.3,41.8
		c-41.2,33.9-88.8,51.3-142.2,49.2c-69.3-2.7-125-32.7-166.3-88.6c-1.7-2.3-4.9-4.7-3.7-7.4c1.3-3.1,5.2-1.5,7.9-1.5
		c20.3-0.2,20.3-0.1,20.3-20.2c0-13.8,0.2-27.7-0.1-41.5c-0.1-6.1,2.4-7.9,8.2-8c28.8-0.7,28.8-0.8,44.8,22.7
		c9.1,13.4,18.4,26.8,27.2,40.5c3.2,4.9,6.8,6.7,12.5,6.5c14.7-0.3,29.5-0.1,44.2-0.1c0.3-3.6-1.8-5.2-3.1-7.1
		c-14.1-20.6-28.3-41.2-42.5-61.8c-5.2-7.6-5.3-7.6,3.3-11.8c27.4-13.6,40-39.3,37.8-70c-2.4-33.4-26.8-59-64.4-62.6
		c-31.5-3-63.2-0.6-94.8-1.4c-3.1-0.1-7.3,1.4-9-1.1c-2.1-3.2,1.6-6.2,3.3-8.9c39-60.1,94.1-93.8,165.8-99.8c1.9-0.2,3.8-0.7,5.7-1
		C294.6,85.9,300.4,85.9,306.3,85.9z"/>
	<path class="st1" d="M177.8,301.7c-8,0-16-0.1-24.1,0c-4.7,0.1-6.6-1.9-6.6-6.5c0.1-16.7,0.1-33.5,0-50.2c0-4.5,1.9-6.6,6.6-6.5
		c15.6,0.2,31.1-0.4,46.7,0.3c18.8,0.8,30.5,10.6,32.8,26.2c2.9,19.7-10.2,35.1-31.3,36.4c-8,0.5-16,0.1-24.1,0.1
		C177.8,301.6,177.8,301.6,177.8,301.7z"/>
</g>
</svg>
