<?xml version="1.0" encoding="utf-8"?>
<!-- Generator: Adobe Illustrator 26.3.1, SVG Export Plug-In . SVG Version: 6.00 Build 0)  -->
<svg version="1.1" id="Layer_1" xmlns="http://www.w3.org/2000/svg" xmlns:xlink="http://www.w3.org/1999/xlink" x="0px" y="0px"
	 viewBox="0 0 595.3 595.3" style="enable-background:new 0 0 595.3 595.3;" xml:space="preserve">
<style type="text/css">
	.st0{fill:#FF234F;}
	.st1{fill:#FFFFFF;}
</style>
<path class="st0" d="M297.6,595.3L297.6,595.3C133.3,595.3,0,462,0,297.6l0,0C0,133.3,133.3,0,297.6,0l0,0
	C462,0,595.3,133.3,595.3,297.6l0,0C595.3,462,462,595.3,297.6,595.3z"/>
<path class="st1" d="M584.9,375.9c0.5-2,1.1-4,1.6-6L584.9,375.9z"/>
<polygon class="st1" points="586.4,369.9 586.4,369.9 586.4,369.9 "/>
<path class="st1" d="M437.1,112.9c-17.9,32.1-34.6,62.3-51.1,91.8c-13.4-3.4-25.7-8.3-38.4-9.4c-38.7-3.2-68.6,24.5-73.9,67.6
	c-1.8,14.6-2.8,29.4-2.8,44.2c-0.3,60.8-0.1,121.7-0.1,182.5c0,5,0,10,0,16.3c-37.4,0-73.8,0-111.1,0c-0.3-2.4-1.1-5.2-1.1-8
	c0-71-1.6-142,0.9-212.9c1.1-29.8,7.7-60.4,17.2-88.8c18.3-55.2,58.9-88.4,115.5-100.8c43.7-9.5,87.2-8.4,129.1,9.8
	C426.3,107.3,431,109.9,437.1,112.9z"/>
</svg>
