<?xml version="1.0" encoding="utf-8"?>
<!-- Generator: Adobe Illustrator 26.3.1, SVG Export Plug-In . SVG Version: 6.00 Build 0)  -->
<svg version="1.1" id="Layer_1" xmlns="http://www.w3.org/2000/svg" xmlns:xlink="http://www.w3.org/1999/xlink" x="0px" y="0px"
	 viewBox="0 0 595.3 595.3" style="enable-background:new 0 0 595.3 595.3;" xml:space="preserve">
<style type="text/css">
	.st0{fill:#FFFFFF;}
	.st1{fill:#271B18;}
	.st2{fill:#FCDF00;}
	.st3{fill:#4874B8;}
	.st4{fill:#E40265;}
	.st5{fill:#FEFEFE;}
</style>
<path class="st0" d="M297.6,595.3L297.6,595.3C133.3,595.3,0,462,0,297.6l0,0C0,133.3,133.3,0,297.6,0l0,0
	C462,0,595.3,133.3,595.3,297.6l0,0C595.3,462,462,595.3,297.6,595.3z"/>
<path class="st0" d="M584.9,375.9c0.5-2,1.1-4,1.6-6L584.9,375.9z"/>
<polygon class="st0" points="586.4,369.9 586.4,369.9 586.4,369.9 "/>
<g>
	<path class="st1" d="M528.7,328.1c0,20.9,0,41.8,0,62.7c0,18.6-16.2,34.8-34.8,34.8c-41.5,0-83,0-124.5,0c-13.8,0-24-6.4-31.2-17.8
		c-1.2-1.9-2.5-3.3-4.4-4.4c-7.1-4-12.2-9.9-15.2-17.4c-1-2.6-2.2-3.4-4.9-3.3c-12.9,0.1-25.8,0.2-38.6,0c-3.7-0.1-4.4,0.9-4.4,4.5
		c0.1,19.7-11.4,34.4-29.6,38.1c-1.9,0.4-4,0.4-6,0.4c-38.4,0-76.7,0-115.1,0c-13.8,0-24-6.3-31.2-17.8c-1.2-1.9-2.5-3.3-4.4-4.4
		C73,396.2,66.6,386,66.6,372.2c0-41.1,0-82.1,0-123.2c0-20.2,15.8-36.2,36.1-36.3c27.3-0.1,54.7,0,82,0c6.3,0,6.3,0,6.4-6.2
		c0.1-18.1,11.7-32.5,29.2-36.2c2.1-0.4,4.3-0.5,6.4-0.5c38.4,0,76.7,0,115.1,0c13.7,0,23.8,6.3,30.9,17.5c1.4,2.1,2.9,3.7,5,5
		c6.9,4.1,11.9,9.8,14.8,17.3c1,2.6,2.3,3.3,5,3.3c25.2-0.1,50.4,0,75.6-0.1c15-0.1,26.4,6.1,34,19.2c0.9,1.5,2,2.3,3.4,3.1
		c11.9,7.3,18.3,17.6,18.3,31.8C528.6,287.1,528.7,307.6,528.7,328.1z M524.3,328.3c0-20.5,0.1-40.9-0.1-61.4
		c-0.1-12.8-5.9-22.4-17.2-28.6c-1.2-0.7-2.5-1.2-3.2-2.6c-6.8-13.6-18.3-18.7-33-18.5c-25.6,0.3-51.2,0-76.8,0.1
		c-2.7,0-3.9-0.6-4.7-3.4c-2.4-8.1-7.5-14.4-15.1-18.4c-2.3-1.2-3.7-2.9-4.9-5c-6-10.4-15-16.2-26.9-16.3c-38.5-0.3-77-0.2-115.5,0
		c-14.3,0.1-26.8,10.3-30.2,24.2c-1.1,4.5-1.4,9.1-0.9,13.6c0.4,4.1-0.6,5.5-5.2,5.4c-28.8-0.3-57.5-0.2-86.3-0.1
		c-18.8,0.1-33,13.3-33.1,31.5c-0.2,41.2-0.2,82.4,0,123.6c0.1,12.2,6.1,21.5,16.8,27.5c2,1.1,3.3,2.4,4.4,4.4
		c6.1,10.9,15.5,16.7,27.9,16.8c38.1,0.2,76.1,0.1,114.2,0c14.8,0,27.2-10.2,30.7-24.6c1.2-4.8,0.9-9.7,0.8-14.5
		c-0.1-3,0.5-4.2,3.9-4.2c15.9,0.2,31.8,0.1,47.7,0c2.4,0,3.5,0.5,4.2,3c2.5,8.7,7.9,15.1,15.9,19.3c1.4,0.7,2.6,1.5,3.4,3
		c6.5,12.4,16.9,18,30.7,18c39.5-0.1,79,0,118.5,0c20.6,0,34.1-13.5,34.1-34.1C524.3,367.5,524.3,347.9,524.3,328.3z"/>
	<path class="st1" d="M431.1,408.9c-19.7,0-39.5,0-59.2,0c-11.5,0-17.7-4.5-21.3-15.4c-0.4-1.3-0.8-2-2.4-2.5
		c-10.8-3.3-15.5-9.6-15.4-20.8c0.1-3.7-0.7-4.8-4.6-4.8c-23.5,0.2-46.9,0.2-70.4,0c-3.2,0-4.2,0.8-4,4c0.3,6.1,0.1,12.3,0.1,18.5
		c-0.1,12.7-8.2,20.9-21,20.9c-21.8,0.1-43.5,0-65.3,0c-15.2,0-30.3,0-45.5,0c-11,0-17.7-5-20.9-15.4c-0.4-1.4-0.9-2-2.3-2.4
		c-10.8-3.3-15.6-9.8-15.6-21.2c0-30.9,0-61.8,0-92.7c0-8.7-0.1-17.5,0-26.2c0.1-13.4,8.1-21.3,21.5-21.3c32.9,0,65.8-0.1,98.7,0.1
		c4,0,4.8-1.1,4.6-4.8c-0.3-6.1-0.2-12.3-0.1-18.5c0.3-12.1,8.3-20.1,20.4-20.1c37.4-0.1,74.7-0.1,112.1,0c10.4,0,16.9,5.1,20,15.4
		c0.4,1.3,0.9,2,2.4,2.5c11,3.5,15.6,9.7,15.5,21.2c-0.1,3.7,1.1,4.4,4.6,4.4c29.9-0.1,59.8-0.1,89.7-0.1c11.9,0,17.9,4.2,21.5,15.6
		c0.5,1.6,1.4,1.9,2.6,2.2c10.5,3.4,15.3,9.8,15.3,21c0.1,21.8,0,43.5,0,65.3c0,17.6,0,35.2,0,52.8c0,14.7-7.8,22.4-22.6,22.4
		C470,408.9,450.5,408.9,431.1,408.9z M340.6,310.1c0,20,0,40.1,0,60.1c0,8.9,4.4,13.4,13.4,13.4c39.8,0,79.6,0,119.4,0
		c8.8,0,13.3-4.4,13.3-13.1c0-39.9,0-79.8,0-119.8c0-8.7-4.5-13.2-13.2-13.2c-39.8,0-79.6,0-119.4,0c-9,0-13.5,4.4-13.5,13.3
		C340.5,270.6,340.6,290.4,340.6,310.1z M216,266.7c0,20,0,40.1,0,60.1c0,9.2,4.5,13.7,13.7,13.7c32.9,0,65.8-0.1,98.7,0.1
		c3.6,0,4.5-1.1,4.5-4.6c-0.1-28.9-0.1-57.8-0.1-86.7c0-10.4,7-18.3,17.4-19.5c2.8-0.3,3.2-1.5,3.2-3.8c-0.1-6.1,0.1-12.3-0.1-18.5
		c-0.2-8.7-4.7-13.2-13.3-13.2c-36.9,0-73.8,0-110.7,0c-9,0-13.2,4.3-13.2,13.5C216,227.5,216,247.1,216,266.7z M91.3,310.2
		c0,19.6,0,39.2,0,58.8c0,10.8,3.9,14.6,14.8,14.6c16.6,0,33.2,0,49.8,0c19.9,0,39.8,0,59.7,0c8.2,0,12.7-4.5,12.8-12.7
		c0.1-6.4,0-12.9,0-19.3c0-1.6,0.2-2.8-2.2-3.3c-12.5-2.3-18-9-18-21.5c0-28.2-0.1-56.4,0.1-84.6c0-3.8-1-4.7-4.8-4.7
		c-32.8,0.2-65.5,0.1-98.3,0.1c-9.6,0-13.8,4.2-13.8,13.8C91.3,271,91.3,290.6,91.3,310.2z"/>
	<path class="st2" d="M340.6,310.1c0-19.7,0-39.5,0-59.2c0-8.9,4.5-13.3,13.5-13.3c39.8,0,79.6,0,119.4,0c8.7,0,13.2,4.5,13.2,13.2
		c0,39.9,0,79.8,0,119.8c0,8.7-4.5,13.1-13.3,13.1c-39.8,0-79.6,0-119.4,0c-9,0-13.4-4.5-13.4-13.4
		C340.5,350.2,340.6,330.1,340.6,310.1z M368.1,356.8c1.3,1.2,2.2,2,3.2,2.9c9.8,8.6,21.1,13,34.2,12.5c18.3-0.7,30.7-9.2,35.2-24.1
		c4.9-16.1-0.7-32-15.2-42.6c-3.6-2.6-7.3-5-11.4-6.8c-2.9-1.2-2.5-2.1-0.6-4c8-8.1,16-16.4,23.9-24.7c3-3.1,5-6.8,3.1-11.2
		c-2-4.6-6-5.6-10.6-5.6c-19.3,0.1-38.6,0-58,0.1c-1.7,0-3.5,0.2-5.1,0.6c-3.8,1.1-6,4.5-5.6,8.6c0.3,4,2.3,6.8,6.2,7.7
		c1.8,0.4,3.7,0.5,5.5,0.5c11.6,0,23.2,0,34.8,0c1.3,0,2.8-0.5,4.3,0.8c-0.9,1-1.6,2-2.5,2.8c-6.3,6.5-12.6,12.9-18.9,19.3
		c-6.8,7-5.7,11.9,3.2,15.5c5.2,2,10.4,4.1,15.1,7c4.4,2.7,8.4,5.9,11,10.6c6.7,11.9,0.8,24.6-12.5,27.1
		c-12.3,2.3-27.2-5.9-32.1-17.4c-0.6-1.4-0.3-2.4,0.1-3.7c1.8-5.7,3.6-11.4,5.3-17.2c1.6-5.5-0.7-10-5.8-11.7
		c-5.6-1.8-10.3,0.4-12.2,6.2c-5.4,16.6-10.7,33.2-15.9,49.8c-1.8,5.7,0.5,10,6,11.8c5.6,1.9,10.4-0.4,12.3-6
		C366.3,362.8,367.1,359.9,368.1,356.8z M480.8,361.1c-0.2-0.7-0.4-2.1-0.8-3.4c-5.4-16.1-10.8-32.2-16.3-48.2
		c-2.1-6.3-6.4-8.6-12.2-6.7c-5.7,1.8-7.9,6.4-5.8,12.6c2.4,7.5,5,14.9,7.5,22.3c3,8.9,5.8,17.9,8.9,26.8c1.7,4.9,5.7,7,10.8,6.1
		C477.5,369.7,480.7,366.1,480.8,361.1z M473,284.1c-0.1-5.5-4.4-9.7-9.9-9.6c-5.4,0.1-9.8,4.7-9.7,10c0.1,5.3,4.8,9.8,10.1,9.7
		C468.9,294,473.1,289.6,473,284.1z M473,258.2c-0.1-5.5-4.4-9.7-9.9-9.6c-5.4,0.1-9.8,4.6-9.7,9.9c0.1,5.4,4.8,9.8,10,9.7
		C468.8,268.2,473.1,263.7,473,258.2z"/>
	<path class="st3" d="M216,266.7c0-19.6,0-39.2,0-58.8c0-9.2,4.2-13.5,13.2-13.5c36.9,0,73.8,0,110.7,0c8.6,0,13.2,4.5,13.3,13.2
		c0.1,6.1,0,12.3,0.1,18.5c0,2.3-0.4,3.5-3.2,3.8c-10.4,1.2-17.3,9-17.4,19.5c-0.1,28.9-0.1,57.8,0.1,86.7c0,3.5-0.8,4.6-4.5,4.6
		c-32.9-0.1-65.8-0.1-98.7-0.1c-9.2,0-13.7-4.5-13.7-13.7C216,306.8,216,286.7,216,266.7z M286.5,253.3c1.1-2.3,2.9-3.3,4.3-4.6
		c8.4-7.8,16.9-15.4,25.3-23.2c3.1-2.9,4.8-6.5,3-10.8c-1.7-4.1-5.2-5.4-9.4-5.4c-24.9,0-49.8,0-74.7,0c-6.2,0-10.1,3.5-10.1,8.7
		c0.1,5.4,3.6,8.6,10,8.6c16.5,0,32.9,0,49.4,0c1.4,0,2.7,0,5.3,0c-9.1,8.3-17.4,15.7-25.6,23.2c-1.5,1.3-3,2.7-4.2,4.3
		c-3.1,4.1-2.1,8.3,2.4,10.8c2,1.1,4.3,1.5,6.5,2c9.8,2.1,19.5,4.4,28,10.2c4.5,3.1,7.9,6.9,8,12.9c0.1,9.5-4.3,15.3-13.8,18.9
		c-2.9,1.1-4.3,0.9-5.6-2.5c-7-18.1-23.7-27.7-43-25c-12.9,1.8-20.8,12.3-18.4,24.7c1.5,7.7,6.9,12.3,13.6,15.6
		c9,4.5,18.7,6.2,28.6,6.5c14.1,0.5,28.1-0.4,40.9-7.2c21.2-11.3,23.7-40.6,4.9-55.4C304.4,259.7,295.7,256.3,286.5,253.3z"/>
	<path class="st4" d="M91.3,310.2c0-19.6,0-39.2,0-58.8c0-9.6,4.2-13.8,13.8-13.8c32.8,0,65.5,0.1,98.3-0.1c3.7,0,4.8,0.9,4.8,4.7
		c-0.2,28.2-0.1,56.4-0.1,84.6c0,12.5,5.6,19.3,18,21.5c2.4,0.4,2.2,1.7,2.2,3.3c0,6.4,0.1,12.9,0,19.3c-0.1,8.2-4.5,12.7-12.8,12.7
		c-19.9,0-39.8,0-59.7,0c-16.6,0-33.2,0-49.8,0c-10.9,0-14.8-3.8-14.8-14.6C91.3,349.4,91.3,329.8,91.3,310.2z M165.2,270.2
		c-8.9,8.1-16.9,15.3-24.9,22.6c-3.2,2.9-7.7,5.6-6.4,10.8c1.4,5.5,6.8,5.9,11.4,6.9c10.2,2.2,20.4,4.7,28.8,11.3
		c8.9,7,8.4,20.3-0.7,27c-2.2,1.6-4.8,2.6-7.2,3.7c-2.8,1.3-4,0.6-5.1-2.5c-6.3-16.8-21.1-26.4-39.1-25.6
		c-14.4,0.6-23.9,10.1-22.6,22.9c1,10.1,8,15.4,16.5,19c14.1,5.9,29,6.2,43.9,4.7c8-0.8,15.7-2.8,23-6.4c20.8-10.3,23.2-41.6,5.6-55
		c-6.6-5-13.8-8.5-21.6-11.2c-1.5-0.5-3.3-0.5-4.6-2.1c8.4-7.7,16.6-15.2,24.8-22.7c2.3-2.1,4.7-4.3,6.6-6.7
		c2.1-2.6,2.5-5.7,1.1-8.9c-1.5-3.3-4.3-5-7.9-5c-25.9,0-51.8-0.1-77.7,0c-5.6,0-8.8,4.2-8.2,9.7c0.5,4.7,3.8,7.4,9.3,7.4
		C128.1,270.3,146,270.2,165.2,270.2z"/>
	<path class="st1" d="M368.1,356.8c-1,3.1-1.8,6-2.8,8.8c-1.9,5.6-6.7,7.9-12.3,6c-5.5-1.8-7.8-6.1-6-11.8
		c5.2-16.6,10.5-33.2,15.9-49.8c1.9-5.8,6.6-8,12.2-6.2c5,1.7,7.4,6.1,5.8,11.7c-1.6,5.8-3.5,11.5-5.3,17.2
		c-0.4,1.2-0.7,2.3-0.1,3.7c4.9,11.5,19.8,19.7,32.1,17.4c13.4-2.5,19.2-15.1,12.5-27.1c-2.6-4.6-6.6-7.8-11-10.6
		c-4.8-2.9-10-5-15.1-7c-8.9-3.5-10-8.4-3.2-15.5c6.3-6.5,12.6-12.9,18.9-19.3c0.9-0.9,1.6-1.9,2.5-2.8c-1.5-1.2-3-0.8-4.3-0.8
		c-11.6,0-23.2,0-34.8,0c-1.9,0-3.8,0-5.5-0.5c-3.9-1-5.9-3.8-6.2-7.7c-0.3-4.1,1.9-7.4,5.6-8.6c1.6-0.5,3.4-0.6,5.1-0.6
		c19.3,0,38.6,0,58-0.1c4.6,0,8.7,0.9,10.6,5.6c1.9,4.5-0.1,8.1-3.1,11.2c-7.9,8.3-15.9,16.5-23.9,24.7c-1.9,1.9-2.3,2.8,0.6,4
		c4.1,1.7,7.8,4.1,11.4,6.8c14.5,10.6,20.2,26.4,15.2,42.6c-4.5,14.9-16.9,23.4-35.2,24.1c-13,0.5-24.4-3.9-34.2-12.5
		C370.3,358.8,369.4,358,368.1,356.8z"/>
	<path class="st1" d="M480.8,361.1c0,5-3.3,8.6-8,9.5c-5.1,0.9-9.1-1.2-10.8-6.1c-3.1-8.9-5.9-17.9-8.9-26.8
		c-2.5-7.4-5-14.9-7.5-22.3c-2-6.2,0.1-10.7,5.8-12.6c5.8-1.9,10,0.4,12.2,6.7c5.5,16.1,10.9,32.1,16.3,48.2
		C480.4,359,480.6,360.4,480.8,361.1z"/>
	<path class="st1" d="M473,284.1c0.1,5.5-4.1,9.9-9.5,10.1c-5.3,0.1-9.9-4.3-10.1-9.7c-0.1-5.3,4.3-9.9,9.7-10
		C468.6,274.4,472.9,278.5,473,284.1z"/>
	<path class="st1" d="M473,258.2c0.1,5.5-4.1,10-9.6,10.1c-5.3,0.1-9.9-4.3-10-9.7c-0.1-5.4,4.2-9.9,9.7-9.9
		C468.6,248.6,472.9,252.7,473,258.2z"/>
	<path class="st5" d="M286.5,253.3c9.3,3,17.9,6.3,25.3,12.1c18.9,14.8,16.4,44.1-4.9,55.4c-12.8,6.8-26.8,7.6-40.9,7.2
		c-9.9-0.3-19.6-2-28.6-6.5c-6.6-3.3-12-7.9-13.6-15.6c-2.5-12.3,5.5-22.9,18.4-24.7c19.3-2.7,36.1,6.9,43,25
		c1.3,3.3,2.6,3.5,5.6,2.5c9.5-3.5,13.9-9.4,13.8-18.9c0-6-3.5-9.8-8-12.9c-8.4-5.8-18.1-8.2-28-10.2c-2.2-0.5-4.5-0.8-6.5-2
		c-4.5-2.5-5.5-6.7-2.4-10.8c1.2-1.6,2.7-2.9,4.2-4.3c8.2-7.5,16.4-14.9,25.6-23.2c-2.5,0-3.9,0-5.3,0c-16.5,0-32.9,0-49.4,0
		c-6.4,0-10-3.2-10-8.6c0-5.2,3.9-8.7,10.1-8.7c24.9,0,49.8,0,74.7,0c4.2,0,7.6,1.3,9.4,5.4c1.8,4.3,0.1,7.9-3,10.8
		c-8.4,7.8-16.9,15.5-25.3,23.2C289.3,250,287.6,251.1,286.5,253.3z M267.4,311.4c-2.4-6.1-6-10.3-11-12.5
		c-3.3-1.5-6.7-2.5-10.3-1.6c-4.1,1.1-5.2,4.5-2.4,7.8c1.3,1.6,3.1,2.5,5,3.2C254.6,310.5,260.7,311.6,267.4,311.4z"/>
	<path class="st5" d="M165.2,270.2c-19.2,0-37.1,0-55,0c-5.5,0-8.8-2.7-9.3-7.4c-0.6-5.5,2.6-9.7,8.2-9.7c25.9-0.1,51.8-0.1,77.7,0
		c3.6,0,6.3,1.7,7.9,5c1.5,3.2,1,6.3-1.1,8.9c-2,2.4-4.3,4.6-6.6,6.7c-8.2,7.6-16.5,15.1-24.8,22.7c1.2,1.6,3.1,1.6,4.6,2.1
		c7.7,2.7,15,6.2,21.6,11.2c17.7,13.5,15.2,44.7-5.6,55c-7.3,3.6-15,5.6-23,6.4c-14.9,1.5-29.8,1.2-43.9-4.7
		c-8.6-3.6-15.6-8.9-16.5-19c-1.2-12.9,8.2-22.3,22.6-22.9c18-0.8,32.8,8.8,39.1,25.6c1.1,3,2.3,3.7,5.1,2.5c2.5-1.1,5-2.1,7.2-3.7
		c9.2-6.7,9.6-20,0.7-27c-8.4-6.7-18.6-9.1-28.8-11.3c-4.6-1-10-1.4-11.4-6.9c-1.3-5.2,3.2-7.8,6.4-10.8
		C148.3,285.5,156.4,278.3,165.2,270.2z M143,355.2c-2.3-8.1-9.9-14.2-17.9-14.5c-2.9-0.1-6,0-6.9,3.5c-0.8,3.4,1.5,5.3,4.2,6.7
		C128.8,354.2,135.8,354.8,143,355.2z"/>
	<path class="st3" d="M267.4,311.4c-6.7,0.2-12.8-0.9-18.7-3.1c-1.9-0.7-3.6-1.6-5-3.2c-2.8-3.2-1.8-6.7,2.4-7.8
		c3.6-1,7.1,0.1,10.3,1.6C261.4,301.1,265,305.3,267.4,311.4z"/>
	<path class="st4" d="M143,355.2c-7.2-0.3-14.2-1-20.6-4.3c-2.6-1.4-5-3.3-4.2-6.7c0.9-3.5,4-3.6,6.9-3.5
		C133.1,340.9,140.7,347,143,355.2z"/>
</g>
</svg>
