<?xml version="1.0" encoding="utf-8"?>
<!-- Generator: Adobe Illustrator 26.3.1, SVG Export Plug-In . SVG Version: 6.00 Build 0)  -->
<svg version="1.1" id="Layer_1" xmlns="http://www.w3.org/2000/svg" xmlns:xlink="http://www.w3.org/1999/xlink" x="0px" y="0px"
	 viewBox="0 0 595.3 595.3" style="enable-background:new 0 0 595.3 595.3;" xml:space="preserve">
<style type="text/css">
	.st0{fill:#FFFFFF;}
	.st1{fill:#ECA946;}
</style>
<path class="st0" d="M297.6,595.3L297.6,595.3C133.3,595.3,0,462,0,297.6l0,0C0,133.3,133.3,0,297.6,0l0,0
	C462,0,595.3,133.3,595.3,297.6l0,0C595.3,462,462,595.3,297.6,595.3z"/>
<path class="st0" d="M584.9,375.9c0.5-2,1.1-4,1.6-6L584.9,375.9z"/>
<polygon class="st0" points="586.4,369.9 586.4,369.9 586.4,369.9 "/>
<g>
	<path class="st1" d="M249.7,152.3c0-28.7,25.8-52.3,59-50.2c29.4,1.8,52.8,30.3,48.6,60.5c-2.2,17-10.4,30.6-25.7,39.9
		c-37.4,22.6-74.4,45.7-111.7,68.8c-3.9,2.4-5.3,2.1-6.4-2.1c-0.6-2.6-1.8-5.1-2.6-7.7c-3.4-10.3-3.4-10.3,5.9-15.9
		c34.3-21,68.3-42.2,103-62.6c12.5-7.4,15.9-22.8,13-35.1c-2.7-11.4-14.4-21.2-26.8-22c-13.6-1-26,6.7-31.1,19.4
		c-5,12.2-1.4,26.3,9.5,34.7c4.3,3.2,3.9,4.7-0.3,7.2c-3.9,2.2-7.7,4.8-11.1,7.7c-3.5,3-6.1,2.1-8.8-1
		C254.8,182.8,249.5,170.4,249.7,152.3z"/>
	<path class="st1" d="M222.6,373.4c-13.8-0.2-13.8-0.2-17.5-12.2c-11.4-36.4-22.8-73-34.3-109.4c-4.3-13.6-18.1-23.1-31.3-21.8
		c-14.8,1.6-26.5,12.5-28.1,26.3c-1.8,15.2,6.4,28.7,20.9,33.4c9.1,2.9,18.3,1.8,26.3-3.9c3.9-2.7,5.3-1.8,6.3,2.4
		c1.1,4.5,2.4,9,4,13.5c1.4,3.9,0.6,5.8-3.2,7.7c-19.6,9.8-44,6.4-60.6-8.7c-16.2-14.8-22-39-14-59.5c7.9-20.4,27.9-34.3,49.4-34.5
		c24.9-0.2,45.6,14.6,53.1,38.2c13.2,40.9,26,81.8,39.1,122.6c1.6,5,0.5,6.6-4.5,5.9C226,373.2,223.6,373.4,222.6,373.4z"/>
	<path class="st1" d="M260.9,385.4c22.6,0,45.2,0,67.9,0c7.5,0,7.5,0,5,6.7c-1.6,4-3.2,8-4.3,12c-1.1,4.5-3.5,5.6-7.9,5.5
		c-33.5-1.3-67.1-0.5-100.6-1c-8.7-0.2-17.2-0.3-25.8-0.2c-18,0.3-31.3,15.6-29.5,33.4c1.8,17.3,18.3,30,35.3,26.8
		c18.3-3.4,29-20.2,24.4-37.9c-1.8-6.4-1.8-6.4,4.7-6.1c3.9,0.2,7.9,0.5,11.7,0.2c5.5-0.6,7.5,1.6,8,6.9
		c1.9,22.6-5.8,40.9-25.2,52.9c-18.6,11.6-38.3,11.6-57.1,0c-31.6-19.7-34.5-63.4-6.1-87.4c9.1-7.7,20.1-11.9,32.2-12
		C216,385.4,238.5,385.4,260.9,385.4z"/>
	<path class="st1" d="M442.2,436.2c0,27.3-21.3,51.2-47.6,53.4c-29.5,2.4-53.9-15.9-59.5-44c-2.4-12.7,0.5-24.2,4.7-35.9
		c13.6-38,27.3-76,40.7-114.1c1.3-3.5,2.4-4.3,5.5-1.8c5,4,12.4,6.6,14.9,11.7c2.7,5.5-2.7,12-4.8,18
		c-11.7,33.2-23.7,66.6-35.8,99.6c-8.2,22.5,6.7,44.4,29.5,43.3c15.9-0.8,28.9-14.3,28.9-30.5c0.2-16-12-29.7-28.1-30.3
		c-5.8-0.3-5.6-2.2-3.7-6.3c1.8-4,3.5-8.3,4.8-12.5c1.3-4.2,3.4-4.8,7.4-3.9C425,388.4,442.2,409.6,442.2,436.2z"/>
	<path class="st1" d="M453.6,314.2c-11.6,0.5-22-3.2-31.1-9.9c-34.5-24.9-68.8-49.9-103.3-74.8c-3.7-2.7-3.4-3.9,0.3-5.8
		c5.9-3.2,11.4-9.5,17.8-9.5c6.1,0,10.9,6.7,16.4,10.6c27.3,19.9,54.4,39.8,81.7,59.7c14.4,10.4,32.4,8,43.3-5.9
		c9.9-12.8,7.5-31.3-5.8-42.4c-15.4-12.8-39.1-6.1-47,13c-2.6,6.3-2.6,6.3-8.2,2.1c-2.9-2.1-5.5-4.5-8.5-6.3
		c-5-2.9-5.3-6.1-2.6-11.1c11.9-21.2,36.7-32.2,60.3-26.5c23.4,5.8,40.3,26.6,40.9,50.9C508.6,290.1,485,314.2,453.6,314.2z"/>
</g>
</svg>
