<?xml version="1.0" encoding="utf-8"?>
<!-- Generator: Adobe Illustrator 26.3.1, SVG Export Plug-In . SVG Version: 6.00 Build 0)  -->
<svg version="1.1" id="Layer_1" xmlns="http://www.w3.org/2000/svg" xmlns:xlink="http://www.w3.org/1999/xlink" x="0px" y="0px"
	 viewBox="0 0 595.3 595.3" style="enable-background:new 0 0 595.3 595.3;" xml:space="preserve">
<style type="text/css">
	.st0{fill:#FFFFFF;}
	.st1{fill:#363C44;}
	.st2{fill:#4BACE7;}
</style>
<path class="st0" d="M297.6,595.3L297.6,595.3C133.3,595.3,0,462,0,297.6l0,0C0,133.3,133.3,0,297.6,0l0,0
	C462,0,595.3,133.3,595.3,297.6l0,0C595.3,462,462,595.3,297.6,595.3z"/>
<path class="st0" d="M584.9,375.9c0.5-2,1.1-4,1.6-6L584.9,375.9z"/>
<polygon class="st0" points="586.4,369.9 586.4,369.9 586.4,369.9 "/>
<g>
	<path class="st1" d="M428.2,167.3c-67.3-52.4-141.4-73.1-225.1-45c-73.6,24.9-119.7,92.1-115.4,168.9
		c2.6,51.4,25.4,94.8,61.4,130.8c39.2,39.7,86.3,62.5,144,63.5c65.1-1.6,123.9-23.3,171-71.5c48.2-49.2,57.2-119.2,23.3-179
		C472.7,208.6,452.6,185.8,428.2,167.3z M361,394c-4.2,0-9,0-13.2,0c-40.2-1.1-75.7-15.4-106.4-41.8
		c-38.7-32.8-46.6-86.3-20.1-130.8c40.2-67.3,126-82.6,187.5-32.8c32.3,25.9,54,58.3,55.6,100.6C465.8,350.5,424,392.4,361,394z"/>
	<path class="st2" d="M384.8,264.7c-16.4-42.4-80-70.4-122.3-32.3c-31.8,28.6-33.4,81,12.7,103.3c30.2,14.8,60.9,11.1,88.4-8.5
		c14.8-10.6,24.9-24.9,23.8-44C387.4,276.9,386.9,270.6,384.8,264.7z"/>
</g>
</svg>
