<?xml version="1.0" encoding="utf-8"?>
<!-- Generator: Adobe Illustrator 26.3.1, SVG Export Plug-In . SVG Version: 6.00 Build 0)  -->
<svg version="1.1" id="Layer_1" xmlns="http://www.w3.org/2000/svg" xmlns:xlink="http://www.w3.org/1999/xlink" x="0px" y="0px"
	 viewBox="0 0 595.3 595.3" style="enable-background:new 0 0 595.3 595.3;" xml:space="preserve">
<style type="text/css">
	.st0{fill:#FFFFFF;}
	.st1{fill:#FB5C1C;}
	.st2{fill:#0B2D61;}
</style>
<path class="st0" d="M297.6,595.3L297.6,595.3C133.3,595.3,0,462,0,297.6l0,0C0,133.3,133.3,0,297.6,0l0,0
	C462,0,595.3,133.3,595.3,297.6l0,0C595.3,462,462,595.3,297.6,595.3z"/>
<g>
	<path class="st1" d="M149.9,276.6c0-14.6,0-28.9,0-43.5c0-13.9,5.3-30.4-19.1-29.7c-8.6,0.4-7.1-10.1-7.5-16.9
		c0-6.8-1.1-16.1,8.3-15.8c27.4,0.8,21-19.9,23.3-34.9c1.1-8.6-1.9-18.4,11.3-21.8c22.5-6,28.5-2.3,27.4,22.1
		c-1.1,21.4,0,38.3,28.9,33.4c15.4-2.6,13.9,9.8,15,19.5c1.1,12-4.9,18.4-16.1,15.8c-27-6.4-28.2,9.4-27.4,29.3
		c1.1,25.2,0.4,50.3,0.8,75.5c0.4,18.8,8.6,31.5,28.5,31.2c15.4-0.4,17.3,7.1,17.3,19.5c0,13.5-5.3,18-18.8,19.9
		c-46.2,5.3-70.2-14.3-70.9-60.1C149.9,305.5,150.3,290.9,149.9,276.6C150.3,276.6,150.3,276.6,149.9,276.6z"/>
	<path class="st2" d="M409.2,342.5c-27.1-2.6-54.4-0.6-81.7-1.2c-8.7-0.2-17.4-0.2-24.9-5.5c-9.3-6.3-13.2-17.4-8.3-27.1
		s11.9-15.8,23.9-11.5c4.2,1.4,8.9,2,13.4,2.4c32.8,3.4,64.5,1.6,91.7-20.2c31.6-25.3,34.2-65.8,5.3-93.9
		c-9.5-9.3-5.5-14.2,1.4-20.4c4-3.6,9.1-5.1,14.6-6.1c8.7-1.6,21,4.2,25.5-3.6c4-7.3,1.2-18.4,1.4-27.9c0-2,0-4-0.2-6.3
		c-0.2-2.2-1.4-3.2-3.8-4c-18.6-5.9-54.8,3.8-61.3,21.9c-9.1,24.9-24.9,22.5-43.5,18.8c-0.8-0.2-1.6-0.2-2.4-0.2
		c-24.5-0.8-48.8,0.4-71,11.9c-44.3,23.3-49.8,78.3-10.9,109.5c1.4,1.2,3.8,1.8,3.8,5.3c-15.4,8.9-30.3,19.4-34,39
		c-3.8,19.8,5.9,34.8,20.4,48.2c-18.8,9.9-32,22.7-33.6,43.9c-2,30.3,15.4,51.8,50.2,60.7c26.5,6.7,53.6,9.1,80.9,6.9
		c25.5-2,50.8-5.5,73-20.2c26.3-17.6,37.8-44.1,31.2-72.2C463.6,364.4,440,345.6,409.2,342.5z M353.2,191.6
		c25.5,0.6,40.9,16,40.3,39.9c-0.8,25.1-16.2,38.4-43.1,38c-26.9-0.6-43.9-15.6-43.5-38.2C307.3,206,324.9,191,353.2,191.6z
		 M409.8,437.4c-15.6,9.1-33,9.5-55.4,9.5c-11.3,0.2-27.7-1.4-43.5-6.9c-11.3-4-20.6-10.5-26.5-21c-5.1-8.7-4-17,1.2-25.5
		c5.5-8.9,12.1-5.5,19.4-4.2c26.1,4.9,52.6,2.6,79.1,2.8c7.5,0,14.8,0.4,21.9,3.2c9.1,3.4,15.6,9.7,16.6,19.6
		C423.4,425.1,418.3,432.4,409.8,437.4z"/>
</g>
</svg>
