<?xml version="1.0" encoding="utf-8"?>
<!-- Generator: Adobe Illustrator 26.3.1, SVG Export Plug-In . SVG Version: 6.00 Build 0)  -->
<svg version="1.1" id="Layer_1" xmlns="http://www.w3.org/2000/svg" xmlns:xlink="http://www.w3.org/1999/xlink" x="0px" y="0px"
	 viewBox="0 0 595.3 595.3" style="enable-background:new 0 0 595.3 595.3;" xml:space="preserve">
<style type="text/css">
	.st0{fill:#FFFFFF;}
	.st1{fill:#56C9D1;}
	.st2{fill:#309097;}
</style>
<path class="st0" d="M297.6,595.3L297.6,595.3C133.3,595.3,0,462,0,297.6l0,0C0,133.3,133.3,0,297.6,0l0,0
	C462,0,595.3,133.3,595.3,297.6l0,0C595.3,462,462,595.3,297.6,595.3z"/>
<g>
	<path class="st1" d="M92.9,142c39.1,6.7,78.5,12.9,117.6,19.8c71.6,12.6,143.2,25.5,214.5,38.2c4.5,0.7,9.3,1,14.1,4.8
		c-17.7,24.8-33.9,50.6-53.5,74.2c-3.6-1.2-7.2-1.9-10.5-3.3c-81.6-38.2-163.2-76.6-244.8-115c-7.4-3.6-14.8-7.9-23.4-7.9
		C104.6,146.3,96.7,146.8,92.9,142z"/>
	<path class="st2" d="M92.9,142c3.8,4.8,11.7,4.3,14.3,10.5l-0.2,0.2c-1.7,0.2-4.3,0-3.6,2.1c0.7,2.9,3.6,3.3,6.4,3.3l0,0
		c-0.2,5.5,4.1,8.1,7.4,11.2c29.1,26.5,58,52.7,87.3,79.2c24.3,22,49.4,43.2,73,65.9c17.7,16.9,37.9,31.3,53,50.6
		c-15,22.7-30.3,45.3-46.3,69.4c-14.1-20.8-27.2-40.3-40.6-59.7C193.4,300.5,142.8,226,92.7,151.6C91.2,149.2,82.2,144.9,92.9,142z"
		/>
	<path class="st1" d="M330.6,365.1c-15.3-19.6-35.6-33.6-53-50.6c-23.6-22.7-48.7-43.9-73-65.9c-29.1-26.2-58.2-52.7-87.3-79.2
		c-3.3-3.1-7.6-5.7-7.4-11.2c2.6,1,5.2,1.7,7.4,3.1c29.1,18.9,58.5,37.7,87.6,56.8c73.3,48,146.8,95.9,220.3,143.4
		c3.1,1.9,6,8.6,11.5,3.1c4.8,5,4.1,6.9-3.1,6.4c-23.6-1.7-47.2-2.9-70.9-4.8C351.8,365.4,341.3,364.4,330.6,365.1z"/>
	<path class="st2" d="M436.5,364.7c-5.5,5.7-8.4-1.2-11.5-3.1c-73.5-47.7-146.8-95.7-220.3-143.4c-29.1-19.1-58.2-37.9-87.6-56.8
		c-2.1-1.4-5-2.1-7.4-3.1l0,0c-1-1.9-1.9-3.6-2.9-5.5l0.2-0.2c8.6,0.2,16,4.5,23.4,7.9c81.6,38.4,163.2,76.8,244.8,115
		c3.3,1.4,6.9,2.1,10.5,3.3C402.9,307.6,419.6,336.3,436.5,364.7z"/>
	<path class="st2" d="M507.4,448c0.5,2.6-0.2,4.8-2.9,5.2c-2.9,0.5-3.8-1.7-4.3-4.1c-1.7-5.7-3.1-11.7-5.2-17.2
		c-7.9-21.7-21.2-38.9-43.4-47.7c-2.9-1.2-6.9-2.4-4.8-6.7c1.4-3.1,4.8-1.7,7.4-0.7C478.1,384,507.9,423.9,507.4,448z"/>
</g>
</svg>
