<?xml version="1.0" encoding="utf-8"?>
<!-- Generator: Adobe Illustrator 26.3.1, SVG Export Plug-In . SVG Version: 6.00 Build 0)  -->
<svg version="1.1" id="Layer_1" xmlns="http://www.w3.org/2000/svg" xmlns:xlink="http://www.w3.org/1999/xlink" x="0px" y="0px"
	 viewBox="0 0 595.3 595.3" style="enable-background:new 0 0 595.3 595.3;" xml:space="preserve">
<style type="text/css">
	.st0{fill:#FFFFFF;}
	.st1{fill:#047BC0;}
	.st2{fill:#FBAF18;}
</style>
<path class="st0" d="M297.6,595.3L297.6,595.3C133.3,595.3,0,462,0,297.6l0,0C0,133.3,133.3,0,297.6,0l0,0
	C462,0,595.3,133.3,595.3,297.6l0,0C595.3,462,462,595.3,297.6,595.3z"/>
<g>
	<path class="st1" d="M262.8,117.1c46.3,0,92.5,0,138.4,0c3.7,0,4.8,0.7,4.8,4.5c-0.4,19.4,0,38.8,0,58.2c0,3-0.7,4.1-4.1,4.1
		c-31.7,0-63,0-94.7,0c-3.7,0-4.8,0.7-4.8,4.8c0,90.3,0,180.9,0,271.2c0,1.1,0,2.6,0,3.7c0,1.9-0.7,2.6-2.6,2.6c-25,0-49.6,0-74.6,0
		c-1.9,0-3-0.7-2.6-2.6c0-1.1,0-1.9,0-3c0-90.6,0-181.3,0-272.3c0-3.7-0.7-4.8-4.8-4.8c-31.7,0-63,0-94.7,0c-3.4,0-4.1-0.7-4.1-4.1
		c0-19.4,0-39.2,0-58.6c0-3.4,0.7-4.1,4.1-4.1C170.2,117.1,216.5,117.1,262.8,117.1z"/>
	<path class="st2" d="M476.5,430.4c0,26.1-20.9,47.7-47,48.1c-26.9,0.4-48.5-20.9-48.5-47.4c-0.4-26.1,21.3-48.1,47.7-48.1
		C454.9,383.1,476.5,404.3,476.5,430.4z"/>
</g>
</svg>
