<?xml version="1.0" encoding="utf-8"?>
<!-- Generator: Adobe Illustrator 26.3.1, SVG Export Plug-In . SVG Version: 6.00 Build 0)  -->
<svg version="1.1" id="Layer_1" xmlns="http://www.w3.org/2000/svg" xmlns:xlink="http://www.w3.org/1999/xlink" x="0px" y="0px"
	 viewBox="0 0 595.3 595.3" style="enable-background:new 0 0 595.3 595.3;" xml:space="preserve">
<style type="text/css">
	.st0{fill:#FFFFFF;}
	.st1{fill:#F59422;}
	.st2{fill:#1F2F57;}
</style>
<path class="st0" d="M297.6,595.3L297.6,595.3C133.3,595.3,0,462,0,297.6l0,0C0,133.3,133.3,0,297.6,0l0,0
	C462,0,595.3,133.3,595.3,297.6l0,0C595.3,462,462,595.3,297.6,595.3z"/>
<path class="st0" d="M584.9,375.9c0.5-2,1.1-4,1.6-6L584.9,375.9z"/>
<polygon class="st0" points="586.4,369.9 586.4,369.9 586.4,369.9 "/>
<g>
	<path class="st1" d="M362.9,404.2c-3.1,12.4-13.4,18.9-26.1,17.5c-11-1.4-19.6-11-19.9-22.7c0-27.8,0-56,0-83.8
		c0-4.8-1-6.5-6.2-6.5c-15.1,0.3-30.6,0.3-45.7,0c-5.1,0-6.2,1.7-6.2,6.5c0.3,27.1,0,53.9,0,81c0,16.1-9.6,26.4-24.7,26.1
		c-14.1-0.3-23-11.7-22-27.8c0.7,0.7,1,1,1.7,1.7c5.8,7.2,12.7,9.6,20.6,7.2c7.6-2.4,11.7-8.6,11.7-18.2c0-16.8,0.3-34,0.7-50.8
		c0-40.5,0.3-81,0.3-121.5c0-9.3-4.1-15.8-11.3-18.5c-9.3-3.4-17.2,0.3-23,10.6c-1.4-18.9,2.1-24.4,20.3-32.3c2.1,0,4.1,0,6.2,0
		c0.3,0.3,0.7,1,1.4,1c13.7,4.5,18.9,11.7,18.9,26.1c0,30.6,0,60.8,0,91.3c0,4.5,1.4,5.8,5.8,5.5c15.1-0.3,30.6-0.3,45.7,0
		c5.5,0,6.5-1.4,6.5-6.5c-0.3-30.9,0-61.5,0-92.4c0-8.9,3.4-15.8,11-20.6c3.1-1.7,6.5-2.7,9.6-4.1c2.1,0,4.1,0,6.2,0
		c4.8,2.4,10.3,3.8,14.1,8.2c3.1,3.4,5.1,7.6,5.8,12c-5.8,0-12,0-17.9,0.3c-10.6,0.3-16.5,6.5-16.5,17.2c0,59.1,0,118.1,0,177.2
		c0,10.6,5.5,16.5,16.5,16.8C351.2,403.9,357.1,403.9,362.9,404.2z"/>
	<path class="st2" d="M362.9,404.2c-5.8,0-11.7,0-17.5-0.3c-11-0.3-16.5-6.2-16.5-16.8c0-59.1,0-118.1,0-177.2
		c0-10.6,5.8-16.8,16.5-17.2c5.8-0.3,12-0.3,17.9-0.3c22.7,0,45.7,0,68.3,0.3c12.4,0,24.4,1.4,35.7,6.5c19.6,8.6,27.5,24.4,28.2,45
		c0.3,18.5-7.6,32.6-24,41.9c-1.4,0.7-2.7,1.7-4.1,2.4c0,0,0,0.3-0.3,1c11,3.8,20.9,9.6,28.5,18.2c23.3,26.8,13,72.8-19.6,87.9
		c-13.7,6.2-28.5,8.9-43.6,8.9C409.3,403.9,385.9,403.9,362.9,404.2z M405.8,308.8c-14.1,0-25.4,0-36.7,0c-4.1,0-5.5,0.7-5.5,5.1
		c0.3,18.9,0.3,38.1,0,57c0,4.1,1,5.5,5.1,5.5c20.9-0.3,41.9,0,63.2,0c4.1,0,8.2-0.3,12.4-1c18.2-3.1,28.5-15.1,28.5-33
		c0-17.5-9.3-28.5-27.8-31.9C431.6,307.1,417.5,309.5,405.8,308.8z M402.1,221.6c-12.7,0-23,0.3-33.6,0c-3.8,0-4.8,1-4.8,4.8
		c0.3,16.1,0.3,32.3,0,48.4c0,4.1,1,5.5,5.1,5.1c19.6-0.3,39.1,0,58.7,0c3.1,0,6.5-0.3,9.6-1c15.4-3.4,23.3-14.1,22.7-31.2
		c-0.3-13.7-8.9-23-24-25.4C424,220.2,412,221.9,402.1,221.6z"/>
	<path class="st2" d="M212.5,204.4c6.2-10.3,13.7-14.1,23-10.6c7.6,2.7,11.7,9.3,11.3,18.5c0,40.5,0,81-0.3,121.5
		c0,16.8-0.3,34-0.7,50.8c0,9.6-4.1,15.8-11.7,18.2c-7.9,2.4-14.8,0-20.6-7.2c-0.3-0.7-1-1-1.7-1.7c-14.1-20.3-28.2-40.9-42.2-61.1
		c-25.7-37.1-51.8-73.8-77.9-110.9c-6.9-10-5.8-20.3,2.7-26.4c8.9-6.2,18.9-3.8,26.1,6.5c28.8,41.5,57.3,83.1,86.2,124.6
		c1,1.4,2.1,2.7,3.8,4.1C211.9,289.2,211.5,246.7,212.5,204.4z"/>
</g>
</svg>
