<?xml version="1.0" encoding="utf-8"?>
<!-- Generator: Adobe Illustrator 26.3.1, SVG Export Plug-In . SVG Version: 6.00 Build 0)  -->
<svg version="1.1" id="Layer_1" xmlns="http://www.w3.org/2000/svg" xmlns:xlink="http://www.w3.org/1999/xlink" x="0px" y="0px"
	 viewBox="0 0 595.3 595.3" style="enable-background:new 0 0 595.3 595.3;" xml:space="preserve">
<style type="text/css">
	.st0{fill:#FFFFFF;}
	.st1{fill:url(#SVGID_1_);}
	.st2{fill:url(#SVGID_00000126310383300882855810000003413219903164387979_);}
	.st3{fill:url(#SVGID_00000061466213187422712880000009743985622312076686_);}
	.st4{fill:url(#SVGID_00000000930499445496790140000010579739136169787321_);}
</style>
<path class="st0" d="M297.6,595.3L297.6,595.3C133.3,595.3,0,462,0,297.6l0,0C0,133.3,133.3,0,297.6,0l0,0
	C462,0,595.3,133.3,595.3,297.6l0,0C595.3,462,462,595.3,297.6,595.3z"/>
<path class="st0" d="M584.9,375.9c0.5-2,1.1-4,1.6-6L584.9,375.9z"/>
<polygon class="st0" points="586.4,369.9 586.4,369.9 586.4,369.9 "/>
<g>
	
		<linearGradient id="SVGID_1_" gradientUnits="userSpaceOnUse" x1="180.5556" y1="257.8328" x2="445.0495" y2="453.8964" gradientTransform="matrix(1 0 0 -1 0 595.2756)">
		<stop  offset="0" style="stop-color:#14B4D4"/>
		<stop  offset="1" style="stop-color:#0069B4"/>
	</linearGradient>
	<path class="st1" d="M354.3,151.7c-56.8,14.5-84.6,41.1-111.5,73.6c-26.5,32.2-35.4,81.5-37.9,86.2c-2.5,4.7-8.2,3.5-8.2,3.5
		c-25.3-23.4-80.5-55.9-80.5-55.9c4.1,0.6,9.5,2.5,15.2,5.4l0,0l2.5-15.2c-20.2-2.5-35.4-3.8-37.6-3.8c-5.1,0-10.1,8.2-10.1,8.2
		c15.8,12.9,157,150,163,155.7c6,5.7,12.9,12.3,20.5,14.2c7.6,1.9,9.5-6,9.5-6c-0.9-103.9,41.7-152.9,70.4-180.3
		c65.7-62.9,159.5-71.4,159.5-71.4C492.7,148.2,419.4,135,354.3,151.7z"/>
	
		<linearGradient id="SVGID_00000084511394918837761220000014686316613996610446_" gradientUnits="userSpaceOnUse" x1="137.0427" y1="335.8307" x2="205.1909" y2="310.6422" gradientTransform="matrix(1 0 0 -1 0 595.2756)">
		<stop  offset="0" style="stop-color:#14B4D4"/>
		<stop  offset="1" style="stop-color:#0268B5"/>
	</linearGradient>
	<path style="fill:url(#SVGID_00000084511394918837761220000014686316613996610446_);" d="M131.7,263.8c26.8,12.3,67,40.1,67,40.1
		c1.6-12,13.3-38.5,13.3-38.5c-23.7-8.5-54.3-13.9-77.7-17.1L131.7,263.8L131.7,263.8z"/>
	
		<linearGradient id="SVGID_00000032639959319514113230000001742316599941509509_" gradientUnits="userSpaceOnUse" x1="328.1047" y1="211.8873" x2="472.6537" y2="337.2144" gradientTransform="matrix(1 0 0 -1 0 595.2756)">
		<stop  offset="0" style="stop-color:#662483"/>
		<stop  offset="1" style="stop-color:#D70A41"/>
	</linearGradient>
	<path style="fill:url(#SVGID_00000032639959319514113230000001742316599941509509_);" d="M480.7,233.8
		c-16.4,1.6-66,18.3-100.4,61.9c-24.6,31-24,60.6-27.2,67.6c-3.2,7.6-45.8-37.6-58.1-46.1c0,0,1.6,0.6,5.1,2.8l4.4-10.1
		c-14.2-4.4-26.8-7.9-30-8.2c-7.9-0.3-6.6,6.6-5.1,8.8c1.6,2.5,114.3,131.4,121,137.7c6.3,5.7,14.5,2.5,14.5-2.5
		c0-3.5-0.6-74.2,10.4-103c10.4-27.2,35.7-76.7,76.1-99.8C504,236,492.7,232.5,480.7,233.8z"/>
	
		<linearGradient id="SVGID_00000146492828890268830050000001834878899821613226_" gradientUnits="userSpaceOnUse" x1="300.0879" y1="262.9225" x2="355.269" y2="262.9225" gradientTransform="matrix(1 0 0 -1 0 595.2756)">
		<stop  offset="0" style="stop-color:#662483"/>
		<stop  offset="1" style="stop-color:#E50739"/>
	</linearGradient>
	<path style="fill:url(#SVGID_00000146492828890268830050000001834878899821613226_);" d="M348,354.5c0,0,7.3-24,7.3-26.2
		c0-1.3-27.8-10.7-50.8-18l-4.4,10.1C307.6,324.5,323.4,334.2,348,354.5z"/>
</g>
</svg>
