<?xml version="1.0" encoding="utf-8"?>
<!-- Generator: Adobe Illustrator 26.3.1, SVG Export Plug-In . SVG Version: 6.00 Build 0)  -->
<svg version="1.1" id="Layer_1" xmlns="http://www.w3.org/2000/svg" xmlns:xlink="http://www.w3.org/1999/xlink" x="0px" y="0px"
	 viewBox="0 0 595.3 595.3" style="enable-background:new 0 0 595.3 595.3;" xml:space="preserve">
<style type="text/css">
	.st0{fill:#2E2D7B;}
	.st1{fill:#B4A193;}
	.st2{fill:#FDFFFF;}
</style>
<path class="st0" d="M297.6,595.3L297.6,595.3C133.3,595.3,0,462,0,297.6l0,0C0,133.3,133.3,0,297.6,0l0,0
	C462,0,595.3,133.3,595.3,297.6l0,0C595.3,462,462,595.3,297.6,595.3z"/>
<g>
	<path class="st1" d="M401.3,322c-2.1-2.1-4.1-4.5-8.6-4.5c-1.3,0.2-3.2,1.1-4.3,3.2c-2.1,4.9,1.1,7.9,3.9,10.7
		c28.5,28.7,57,57.2,85.5,85.7c3,3,6.4,7.3,11.4,2.6c5.4-5.1,1.1-9-2.4-12.2C458.5,379.2,429.8,350.5,401.3,322z"/>
	<path class="st1" d="M318.4,246.4c2.8,1.1,4.5-2.1,6.2-3.9c4.1-3.9,7.9-7.9,11.8-12c32.1-32.3,64.3-64.9,96.2-97.3
		c3.6-3.6,8.4-7.7,3-13.3c-4.1-4.1-7.5-0.6-10.5,2.4c-35.1,35.1-70.3,70.3-105.6,105.4c-3,3-4.9,6.6-4.7,10.9
		C315.2,241.7,315.4,245.4,318.4,246.4z"/>
	<path class="st1" d="M317.5,300.6c3,1.7,4.5-1.7,6.2-3.4c45.8-46.3,91.5-92.5,137.3-138.8c3.2-3.4,6.4-7.1,2.1-11.6
		c-4.3-4.5-7.9-1.5-11.4,1.9c-43.1,43.1-86.3,86.1-129.4,129.2c-4.1,4.1-7.5,8.4-7.3,14.6C314.8,295.7,314.8,299.1,317.5,300.6z"/>
	<path class="st1" d="M462.8,446.3c2.8-3,2.4-6,0-9c-1.3-1.7-3-3.4-4.5-4.9c-27.6-27.8-55.5-55.7-83.1-83.3
		c-2.4-2.4-4.5-5.1-8.4-5.1c-2.8,0.4-4.9,1.9-6,4.5c-2.1,5.1,1.9,7.5,4.7,10.3c26.8,26.8,53.3,53.3,80.1,80.1
		c2.6,2.6,5.6,5.1,8.1,7.5C456.8,448.9,460,449.3,462.8,446.3z"/>
	<path class="st1" d="M423.6,470.3c3.4,3.4,7.3,7.9,12.2,2.6c4.5-5.1,0.4-8.8-3-12.4c-22.5-22.5-44.8-45.2-67.3-67.7
		c-9.4-9.4-19.5-18.6-28.9-28.3c-10.5-10.9-10.5-17.6,0-28.9c2.6-2.8,5.4-5.4,7.9-7.9c47.6-47.1,95.1-94.3,142.9-141.4
		c3.9-3.6,6.9-7.5,1.7-12.2c-4.7-4.5-8.6-2.1-12.4,1.9c-7.3,7.9-14.8,16.1-22.3,23.6c-42.8,42.8-85.9,85.7-128.7,128.5
		c-6.2,6.2-11.6,12.9-12.4,22.1c0.4,6.9,3.4,12.9,8.4,17.8C355.3,402,389.5,436.2,423.6,470.3z"/>
	<path class="st2" d="M197.2,277.1c4.7,4.7,9.6,7.1,15.4,1.1c5.6-6,3.2-10.5-1.5-15.2c-29.6-29.6-59.1-59.1-88.7-88.7
		c-2.4-2.4-4.9-4.7-8.6-5.1c-4.5,0.2-7.5,3-9.4,6.6c-2.6,4.9,0.4,8.6,3.6,11.8C137.4,217.3,167.2,247.3,197.2,277.1z"/>
	<path class="st2" d="M261.6,234.6c7.7,7.5,8.4,12.4,0,20.6c-51,50.1-101.3,100.9-152.1,151.2c-5.4,5.4-9.2,10.1-2.6,16.9
		c7.1,7.3,12.2,3.4,17.6-2.6c7.9-9,16.3-17.4,24.8-25.9c42.2-42,84.4-84,126.4-126c6.6-6.6,12.6-13.9,13.5-24
		c-0.6-10.3-7.1-17.6-13.9-24.6c-33.4-33.4-66.6-66.6-99.8-100.3c-5.1-5.1-9.9-6.4-15.4-1.1c-6.9,6.4-3.9,11.4,1.7,16.9
		C195.4,168.5,228.2,201.9,261.6,234.6z"/>
	<path class="st2" d="M176.2,474.1c34.9-34.9,69.8-69.6,104.8-104.5c4.7-4.7,7.9-9.9,7.5-16.9c-0.4-5.1,0.2-11.1-4.1-14.6
		c-2.6-1.9-4.9,2.1-7.1,4.3c-38.3,39.2-76.7,78.6-115,118c-4.7,4.7-9,9.9-2.6,16.3C166.1,482.7,171.2,478.9,176.2,474.1z"/>
	<path class="st2" d="M288,299.8c0-4.5,0-9.9-3.4-12.6c-3.4-2.6-5.8,2.1-7.7,4.3c-47.6,47.8-94.9,95.8-142.5,143.5
		c-4.7,4.7-6.2,9.4-1.1,14.6c5.6,5.6,11.1,5.6,16.5-0.4c3.9-4.1,7.5-8.4,11.4-12.4c38.3-38.3,76.9-76.7,115.5-115
		C282.6,315.6,288.8,309.6,288,299.8z"/>
	<path class="st2" d="M136.5,162.5c28.5,28.5,57,57.2,85.7,85.7c2.1,2.1,4.3,4.3,6.9,5.6c5.4,2.6,13.9-3.2,13.5-9.9
		c-0.9-1.3-1.7-3.6-3.2-5.1c-31.1-31.3-62.3-62.6-93.4-93.6c-2.8-2.8-6.2-4.3-10.1-1.7c-3.2,2.1-5.8,4.9-6,9
		C130.1,156.9,133.5,159.5,136.5,162.5z"/>
</g>
</svg>
