<?xml version="1.0" encoding="utf-8"?>
<!-- Generator: Adobe Illustrator 26.3.1, SVG Export Plug-In . SVG Version: 6.00 Build 0)  -->
<svg version="1.1" id="Layer_1" xmlns="http://www.w3.org/2000/svg" xmlns:xlink="http://www.w3.org/1999/xlink" x="0px" y="0px"
	 viewBox="0 0 595.3 595.3" style="enable-background:new 0 0 595.3 595.3;" xml:space="preserve">
<style type="text/css">
	.st0{fill:#FFFFFF;}
	.st1{fill:#EA222F;}
</style>
<path class="st0" d="M297.6,595.3L297.6,595.3C133.3,595.3,0,462,0,297.6l0,0C0,133.3,133.3,0,297.6,0l0,0
	C462,0,595.3,133.3,595.3,297.6l0,0C595.3,462,462,595.3,297.6,595.3z"/>
<path class="st1" d="M298.5,594.7L298.5,594.7C134.2,594.7,0.9,461.4,0.9,297l0,0C0.9,132.7,134.2-0.6,298.5-0.6l0,0
	c164.4,0,297.7,133.3,297.7,297.6l0,0C596.2,461.4,462.9,594.7,298.5,594.7z"/>
<g>
	<path class="st0" d="M122.1,259.7c4.4,4,7.6,8.8,10.3,14c9.5,18.5,18.7,37.1,28.1,55.7c0.8,1.5,1.4,3,0.5,4.7
		c-5.9,11.3-12.2,22-26.7,23.8c-4.6,0.6-6.8,3.2-6.4,7.8c0.4,4.9,3.2,7.8,7.9,8c5.6,0.2,10.9-1.3,15.7-4.2
		c9.3-5.6,15.3-14.1,20.8-23.2c7.9-13.2,13.3-27.5,18.9-41.8c3.9-10.1,8.1-19.9,14.5-28.9c10.6-15.1,38.5-17.1,49.8-11.7
		c6,2.9,9.7,7.4,10.2,14.3c0.2,3.5-0.8,5.3-4.9,4.5c-8.4-1.5-16.8-2.1-25.3-0.5c-25,4.7-35.9,33.2-19.4,51.9
		c10,11.4,23.4,13.4,37.6,10.9c18-3.2,27.8-15.3,27.9-33.4c0-5.2,0-10.3,0-15.5l0,0c0-5.2-0.2-10.3,0-15.5
		c1-17.4-10.9-29.5-23.9-32.9c-19.7-5.2-38.7-3.4-55.6,9.2c-10.2,7.6-16.1,18.5-21,29.9c-3.1,7.2-5.8,14.5-8.7,21.8
		c-0.4,1-0.6,2.5-2,2.6s-1.7-1.3-2.3-2.3c-1.1-2.1-2.1-4.2-3.2-6.2c-7.6-14.6-13.9-29.9-22.5-44c-2.6-4.3-5.6-8.2-9.9-11.1
		c-4.6-3.1-8.7-2.9-11.7,0.6C117.9,251.7,118.2,256.1,122.1,259.7z M256.1,327.7c-9.2,4-18.4,3.6-26.5-2.6c-9.1-7-6.2-21.6,4.9-26
		c9.5-3.7,19-1.5,28.5,0.3c1.9,0.4,2.6,1.9,2.6,3.7c0,2,0,4,0,6C266.1,317.3,264.1,324.3,256.1,327.7z"/>
	<path class="st0" d="M291.9,261.1c1.3,0.1,2.7,0.1,4,0c4.4-0.3,5.9,1.7,5.8,5.9c-0.2,9-0.1,18-0.1,26.9c0,0,0,0,0.1,0
		c0,8.8-0.1,17.6,0,26.4c0.1,8.3,3.5,15.3,10.3,20.1c8.8,6.3,18.7,6.1,28.8,4.3c4.6-0.8,6.9-4.2,6.3-8.5c-0.7-4.8-3.8-7.5-8.6-7.1
		c-3.8,0.4-7.6,1.2-11.4,0.4c-6.4-1.2-9.5-4.2-9.6-10.8c-0.2-17.8-0.1-35.6-0.1-53.4c0-2.9,1.4-4.2,4.2-4.3
		c27.4-1.4,45.2,18.9,45.2,39.7c0,12-0.1,24,0.1,35.9c0.1,6.2,2.8,9,8.2,9c5.4,0,8-2.9,8.1-9.1c0.1-10.5-0.2-21,0.2-31.4
		c0.5-13.3,5.6-24.7,16.2-32.9c15.1-11.6,32.4-13.2,50.3-9.3c7.8,1.7,12.2,7.9,12.6,15c0.2,3.8-0.9,5.5-5.2,4.8
		c-8.2-1.5-16.4-2.2-24.8-0.6c-13.1,2.5-24.2,12.4-26.6,24.1c-2.8,13.8,2.2,26.4,13.7,33.8c8.5,5.5,18.1,6.5,27.9,5.6
		c18.8-1.9,30.8-15.2,30.8-34.1c0-10.5,0-21,0-31.4c0-16.9-11.5-31.2-28.3-33.6c-27.9-3.8-53.2,0.9-71.5,25
		c-1.7,2.3-2.9,2.2-4.4-0.2c-2.7-4-5.7-7.8-9.3-11.1c-11.7-10.6-25.6-15.2-41.2-14.9c-4.5,0.1-6.5-1.2-6.1-5.9
		c0.3-3.8,0.1-7.6,0-11.5c-0.1-4.9-2.9-7.6-7.9-7.7c-5.1-0.1-7.6,2.3-7.8,7.5c-0.1,2.2,0,4.3,0,6.5c0,10,0,10-9.9,11.1
		c-4.7,0.5-7.2,3.6-7,8.6C284.9,258.7,287.1,260.9,291.9,261.1z M452.5,327.9c-9.2,3.8-18.4,3.4-26.4-2.9
		c-7.3-5.8-6.7-17.9,0.9-23.4c4.8-3.5,10.3-4.4,16-4.3c3.3,0,6.6,0.5,9.9,1c9.5,1.4,9.5,1.4,9.5,11.8
		C463,317.5,460.6,324.5,452.5,327.9z"/>
</g>
</svg>
